<?xml version="1.0" encoding="UTF-8" standalone="no"?>
<!DOCTYPE svg PUBLIC "-//W3C//DTD SVG 1.1//EN"
 "http://www.w3.org/Graphics/SVG/1.1/DTD/svg11.dtd">
<!-- Generated by graphviz version 2.43.0 (0)
 -->
<!-- Title: mpqc/util/options/GetLongOpt.h Pages: 1 -->
<svg width="457pt" height="170pt"
 viewBox="0.00 0.00 456.50 170.00" xmlns="http://www.w3.org/2000/svg" xmlns:xlink="http://www.w3.org/1999/xlink">

<svg id="main" version="1.1" xmlns="http://www.w3.org/2000/svg" xmlns:xlink="http://www.w3.org/1999/xlink" xml:space="preserve" onload="init(evt)">
<style type="text/css"><![CDATA[
.node, .edge {opacity: 0.7;}
.node.selected, .edge.selected {opacity: 1;}
.edge:hover path { stroke: red; }
.edge:hover polygon { stroke: red; fill: red; }
]]></style>
<script type="application/ecmascript" xlink:href="svg.min.js"/>
<svg id="graph" class="graph">
<g id="graph0" class="graph" transform="scale(1 1) rotate(0) translate(4 166)">
<title>mpqc/util/options/GetLongOpt.h</title>
<!-- Node1 -->
<g id="Node000001" class="node">
<title>Node1</title>
<g id="a_Node000001"><a xlink:title=" ">
<polygon fill="#999999" stroke="#666666" points="372.5,-162 227.5,-162 227.5,-132 372.5,-132 372.5,-162"/>
<text text-anchor="start" x="235.5" y="-150" font-family="FreeSans" font-size="10.00">mpqc/util/options/GetLong</text>
<text text-anchor="middle" x="300" y="-139" font-family="FreeSans" font-size="10.00">Opt.h</text>
</a>
</g>
</g>
<!-- Node2 -->
<g id="Node000002" class="node">
<title>Node2</title>
<g id="a_Node000002"><a xlink:href="mpqc__init_8h.html" target="_top" xlink:title=" ">
<polygon fill="white" stroke="#666666" points="285,-90.5 163,-90.5 163,-71.5 285,-71.5 285,-90.5"/>
<text text-anchor="middle" x="224" y="-78.5" font-family="FreeSans" font-size="10.00">bin/mpqc/mpqc_init.h</text>
</a>
</g>
</g>
<!-- Node1&#45;&gt;Node2 -->
<g id="edge1_Node000001_Node000002" class="edge">
<title>Node1&#45;&gt;Node2</title>
<g id="a_edge1_Node000001_Node000002"><a xlink:title=" ">
<path fill="none" stroke="#63b8ff" d="M275.37,-125.26C261.54,-113.61 245.01,-99.69 234.5,-90.84"/>
<polygon fill="#63b8ff" stroke="#63b8ff" points="273.23,-128.03 283.13,-131.8 277.74,-122.68 273.23,-128.03"/>
</a>
</g>
</g>
<!-- Node6 -->
<g id="Node000006" class="node">
<title>Node6</title>
<g id="a_Node000006"><a xlink:href="_get_long_opt_8cpp.html" target="_top" xlink:title=" ">
<polygon fill="white" stroke="#666666" points="448.5,-96 303.5,-96 303.5,-66 448.5,-66 448.5,-96"/>
<text text-anchor="start" x="311.5" y="-84" font-family="FreeSans" font-size="10.00">mpqc/util/options/GetLong</text>
<text text-anchor="middle" x="376" y="-73" font-family="FreeSans" font-size="10.00">Opt.cpp</text>
</a>
</g>
</g>
<!-- Node1&#45;&gt;Node6 -->
<g id="edge5_Node000001_Node000006" class="edge">
<title>Node1&#45;&gt;Node6</title>
<g id="a_edge5_Node000001_Node000006"><a xlink:title=" ">
<path fill="none" stroke="#63b8ff" d="M324.7,-125.2C335.98,-115.7 349.05,-104.69 359.18,-96.16"/>
<polygon fill="#63b8ff" stroke="#63b8ff" points="322.26,-122.68 316.87,-131.8 326.77,-128.03 322.26,-122.68"/>
</a>
</g>
</g>
<!-- Node3 -->
<g id="Node000003" class="node">
<title>Node3</title>
<g id="a_Node000003"><a xlink:href="mpqc_8cc.html" target="_top" xlink:title=" ">
<polygon fill="white" stroke="#666666" points="150,-30 0,-30 0,0 150,0 150,-30"/>
<text text-anchor="start" x="8" y="-18" font-family="FreeSans" font-size="10.00">/home/runner/work/mpqc4</text>
<text text-anchor="middle" x="75" y="-7" font-family="FreeSans" font-size="10.00">/mpqc4/python/src/mpqc.cc</text>
</a>
</g>
</g>
<!-- Node2&#45;&gt;Node3 -->
<g id="edge2_Node000002_Node000003" class="edge">
<title>Node2&#45;&gt;Node3</title>
<g id="a_edge2_Node000002_Node000003"><a xlink:title=" ">
<path fill="none" stroke="#63b8ff" d="M194.58,-67.36C169.6,-56.63 133.78,-41.25 107.86,-30.12"/>
<polygon fill="#63b8ff" stroke="#63b8ff" points="193.34,-70.64 203.91,-71.37 196.1,-64.21 193.34,-70.64"/>
</a>
</g>
</g>
<!-- Node4 -->
<g id="Node000004" class="node">
<title>Node4</title>
<g id="a_Node000004"><a xlink:href="mpqc_8cpp.html" target="_top" xlink:title=" ">
<polygon fill="white" stroke="#666666" points="280,-24.5 168,-24.5 168,-5.5 280,-5.5 280,-24.5"/>
<text text-anchor="middle" x="224" y="-12.5" font-family="FreeSans" font-size="10.00">bin/mpqc/mpqc.cpp</text>
</a>
</g>
</g>
<!-- Node2&#45;&gt;Node4 -->
<g id="edge3_Node000002_Node000004" class="edge">
<title>Node2&#45;&gt;Node4</title>
<g id="a_edge3_Node000002_Node000004"><a xlink:title=" ">
<path fill="none" stroke="#63b8ff" d="M224,-61.08C224,-49.13 224,-34.22 224,-24.91"/>
<polygon fill="#63b8ff" stroke="#63b8ff" points="220.5,-61.37 224,-71.37 227.5,-61.37 220.5,-61.37"/>
</a>
</g>
</g>
<!-- Node5 -->
<g id="Node000005" class="node">
<title>Node5</title>
<g id="a_Node000005"><a xlink:href="mpqc__init_8cpp.html" target="_top" xlink:title=" ">
<polygon fill="white" stroke="#666666" points="431.5,-24.5 298.5,-24.5 298.5,-5.5 431.5,-5.5 431.5,-24.5"/>
<text text-anchor="middle" x="365" y="-12.5" font-family="FreeSans" font-size="10.00">bin/mpqc/mpqc_init.cpp</text>
</a>
</g>
</g>
<!-- Node2&#45;&gt;Node5 -->
<g id="edge4_Node000002_Node000005" class="edge">
<title>Node2&#45;&gt;Node5</title>
<g id="a_edge4_Node000002_Node000005"><a xlink:title=" ">
<path fill="none" stroke="#63b8ff" d="M252.21,-67.19C280,-54.58 321.69,-35.66 345.84,-24.7"/>
<polygon fill="#63b8ff" stroke="#63b8ff" points="250.68,-64.05 243.02,-71.37 253.57,-70.42 250.68,-64.05"/>
</a>
</g>
</g>
</g>
</svg>
</svg>

<style type='text/css'>
<![CDATA[
[data-mouse-over-selected='false'] { opacity: 0.7; }
[data-mouse-over-selected='true']  { opacity: 1.0; }
]]>
</style>
<script type="application/ecmascript"><![CDATA[
document.addEventListener('DOMContentLoaded', (event) => {
  highlightEdges();
  highlightAdjacentNodes();
});
]]></script>
</svg>
