<?xml version="1.0" encoding="UTF-8" standalone="no"?>
<!DOCTYPE svg PUBLIC "-//W3C//DTD SVG 1.1//EN"
 "http://www.w3.org/Graphics/SVG/1.1/DTD/svg11.dtd">
<!-- Generated by graphviz version 2.43.0 (0)
 -->
<!-- Title: mpqc/util/options/GetLongOpt.cpp Pages: 1 -->
<svg width="720pt" height="324pt"
 viewBox="0.00 0.00 720.00 324.00" xmlns="http://www.w3.org/2000/svg" xmlns:xlink="http://www.w3.org/1999/xlink">
<g id="graph0" class="graph" transform="scale(1 1) rotate(0) translate(4 320)">
<title>mpqc/util/options/GetLongOpt.cpp</title>
<!-- Node1 -->
<g id="Node000001" class="node">
<title>Node1</title>
<g id="a_Node000001"><a xlink:title=" ">
<polygon fill="#999999" stroke="#666666" points="631.5,-316 486.5,-316 486.5,-286 631.5,-286 631.5,-316"/>
<text text-anchor="start" x="494.5" y="-304" font-family="FreeSans" font-size="10.00">mpqc/util/options/GetLong</text>
<text text-anchor="middle" x="559" y="-293" font-family="FreeSans" font-size="10.00">Opt.cpp</text>
</a>
</g>
</g>
<!-- Node2 -->
<g id="Node000002" class="node">
<title>Node2</title>
<g id="a_Node000002"><a xlink:href="_get_long_opt_8h.html" target="_top" xlink:title=" ">
<polygon fill="white" stroke="#666666" points="534.5,-250 389.5,-250 389.5,-220 534.5,-220 534.5,-250"/>
<text text-anchor="start" x="397.5" y="-238" font-family="FreeSans" font-size="10.00">mpqc/util/options/GetLong</text>
<text text-anchor="middle" x="462" y="-227" font-family="FreeSans" font-size="10.00">Opt.h</text>
</a>
</g>
</g>
<!-- Node1&#45;&gt;Node2 -->
<g id="edge1_Node000001_Node000002" class="edge">
<title>Node1&#45;&gt;Node2</title>
<g id="a_edge1_Node000001_Node000002"><a xlink:title=" ">
<path fill="none" stroke="#63b8ff" d="M537.47,-285.8C524.16,-277.01 506.87,-265.61 492.2,-255.93"/>
<polygon fill="#63b8ff" stroke="#63b8ff" points="493.74,-252.75 483.47,-250.16 489.89,-258.59 493.74,-252.75"/>
</a>
</g>
</g>
<!-- Node5 -->
<g id="Node000005" class="node">
<title>Node5</title>
<g id="a_Node000005"><a xlink:href="memory.html" target="_top" xlink:title=" ">
<polygon fill="white" stroke="#666666" points="513,-74 455,-74 455,-55 513,-55 513,-74"/>
<text text-anchor="middle" x="484" y="-62" font-family="FreeSans" font-size="10.00">memory</text>
</a>
</g>
</g>
<!-- Node1&#45;&gt;Node5 -->
<g id="edge23_Node000001_Node000005" class="edge">
<title>Node1&#45;&gt;Node5</title>
<g id="a_edge23_Node000001_Node000005"><a xlink:title=" ">
<path fill="none" stroke="#63b8ff" d="M565.42,-285.64C575.77,-260.34 593.4,-206.57 577,-165 562.6,-128.5 527.78,-97.5 505.07,-80.22"/>
<polygon fill="#63b8ff" stroke="#63b8ff" points="506.87,-77.2 496.75,-74.08 502.72,-82.83 506.87,-77.2"/>
</a>
</g>
</g>
<!-- Node12 -->
<g id="Node000012" class="node">
<title>Node12</title>
<g id="a_Node000012"><a xlink:href="exception_8h.html" target="_top" xlink:title=" ">
<polygon fill="white" stroke="#666666" points="229,-129 83,-129 83,-110 229,-110 229,-129"/>
<text text-anchor="middle" x="156" y="-117" font-family="FreeSans" font-size="10.00">mpqc/util/core/exception.h</text>
</a>
</g>
</g>
<!-- Node1&#45;&gt;Node12 -->
<g id="edge21_Node000001_Node000012" class="edge">
<title>Node1&#45;&gt;Node12</title>
<g id="a_edge21_Node000001_Node000012"><a xlink:title=" ">
<path fill="none" stroke="#63b8ff" d="M486.37,-291.56C373.11,-276.75 162.71,-241.99 118,-184 106.09,-168.55 121.68,-149.08 136.34,-135.8"/>
<polygon fill="#63b8ff" stroke="#63b8ff" points="138.85,-138.26 144.21,-129.12 134.32,-132.93 138.85,-138.26"/>
</a>
</g>
</g>
<!-- Node18 -->
<g id="Node000018" class="node">
<title>Node18</title>
<g id="a_Node000018"><a xlink:title=" ">
<polygon fill="#e0e0e0" stroke="#999999" points="712,-244.5 662,-244.5 662,-225.5 712,-225.5 712,-244.5"/>
<text text-anchor="middle" x="687" y="-232.5" font-family="FreeSans" font-size="10.00">cstring</text>
</a>
</g>
</g>
<!-- Node1&#45;&gt;Node18 -->
<g id="edge22_Node000001_Node000018" class="edge">
<title>Node1&#45;&gt;Node18</title>
<g id="a_edge22_Node000001_Node000018"><a xlink:title=" ">
<path fill="none" stroke="#63b8ff" d="M587.09,-285.95C609.04,-274.98 639.33,-259.83 660.79,-249.11"/>
<polygon fill="#63b8ff" stroke="#63b8ff" points="662.59,-252.12 669.97,-244.52 659.46,-245.86 662.59,-252.12"/>
</a>
</g>
</g>
<!-- Node3 -->
<g id="Node000003" class="node">
<title>Node3</title>
<g id="a_Node000003"><a xlink:title=" ">
<polygon fill="#e0e0e0" stroke="#999999" points="406,-184 346,-184 346,-165 406,-165 406,-184"/>
<text text-anchor="middle" x="376" y="-172" font-family="FreeSans" font-size="10.00">iostream</text>
</a>
</g>
</g>
<!-- Node2&#45;&gt;Node3 -->
<g id="edge2_Node000002_Node000003" class="edge">
<title>Node2&#45;&gt;Node3</title>
<g id="a_edge2_Node000002_Node000003"><a xlink:title=" ">
<path fill="none" stroke="#63b8ff" d="M441.18,-219.84C427.85,-210.77 410.61,-199.04 397.21,-189.92"/>
<polygon fill="#63b8ff" stroke="#63b8ff" points="398.87,-186.83 388.63,-184.09 394.93,-192.61 398.87,-186.83"/>
</a>
</g>
</g>
<!-- Node4 -->
<g id="Node000004" class="node">
<title>Node4</title>
<g id="a_Node000004"><a xlink:title=" ">
<polygon fill="#e0e0e0" stroke="#999999" points="456,-184 424,-184 424,-165 456,-165 456,-184"/>
<text text-anchor="middle" x="440" y="-172" font-family="FreeSans" font-size="10.00">list</text>
</a>
</g>
</g>
<!-- Node2&#45;&gt;Node4 -->
<g id="edge3_Node000002_Node000004" class="edge">
<title>Node2&#45;&gt;Node4</title>
<g id="a_edge3_Node000002_Node000004"><a xlink:title=" ">
<path fill="none" stroke="#63b8ff" d="M456.67,-219.84C453.74,-212.04 450.07,-202.27 446.92,-193.89"/>
<polygon fill="#63b8ff" stroke="#63b8ff" points="450.09,-192.39 443.3,-184.27 443.54,-194.86 450.09,-192.39"/>
</a>
</g>
</g>
<!-- Node2&#45;&gt;Node5 -->
<g id="edge4_Node000002_Node000005" class="edge">
<title>Node2&#45;&gt;Node5</title>
<g id="a_edge4_Node000002_Node000005"><a xlink:title=" ">
<path fill="none" stroke="#63b8ff" d="M463.84,-219.92C467.79,-189.65 477.1,-118.35 481.55,-84.27"/>
<polygon fill="#63b8ff" stroke="#63b8ff" points="485.03,-84.62 482.86,-74.25 478.09,-83.72 485.03,-84.62"/>
</a>
</g>
</g>
<!-- Node6 -->
<g id="Node000006" class="node">
<title>Node6</title>
<g id="a_Node000006"><a xlink:title=" ">
<polygon fill="#e0e0e0" stroke="#999999" points="568,-184 512,-184 512,-165 568,-165 568,-184"/>
<text text-anchor="middle" x="540" y="-172" font-family="FreeSans" font-size="10.00">optional</text>
</a>
</g>
</g>
<!-- Node2&#45;&gt;Node6 -->
<g id="edge6_Node000002_Node000006" class="edge">
<title>Node2&#45;&gt;Node6</title>
<g id="a_edge6_Node000002_Node000006"><a xlink:title=" ">
<path fill="none" stroke="#63b8ff" d="M480.88,-219.84C492.78,-210.91 508.12,-199.41 520.2,-190.35"/>
<polygon fill="#63b8ff" stroke="#63b8ff" points="522.41,-193.07 528.31,-184.27 518.21,-187.47 522.41,-193.07"/>
</a>
</g>
</g>
<!-- Node7 -->
<g id="Node000007" class="node">
<title>Node7</title>
<g id="a_Node000007"><a xlink:title=" ">
<polygon fill="#e0e0e0" stroke="#999999" points="332,-19 288,-19 288,0 332,0 332,-19"/>
<text text-anchor="middle" x="310" y="-7" font-family="FreeSans" font-size="10.00">string</text>
</a>
</g>
</g>
<!-- Node2&#45;&gt;Node7 -->
<g id="edge7_Node000002_Node000007" class="edge">
<title>Node2&#45;&gt;Node7</title>
<g id="a_edge7_Node000002_Node000007"><a xlink:title=" ">
<path fill="none" stroke="#63b8ff" d="M528.09,-219.95C547.1,-212.52 565.72,-201.21 577,-184 601.6,-146.48 638.24,-140.94 540,-55 510.95,-29.59 398.58,-17.4 342.39,-12.79"/>
<polygon fill="#63b8ff" stroke="#63b8ff" points="342.5,-9.29 332.26,-11.99 341.95,-16.27 342.5,-9.29"/>
</a>
</g>
</g>
<!-- Node8 -->
<g id="Node000008" class="node">
<title>Node8</title>
<g id="a_Node000008"><a xlink:title=" ">
<polygon fill="#e0e0e0" stroke="#999999" points="178.5,-184 127.5,-184 127.5,-165 178.5,-165 178.5,-184"/>
<text text-anchor="middle" x="153" y="-172" font-family="FreeSans" font-size="10.00">variant</text>
</a>
</g>
</g>
<!-- Node2&#45;&gt;Node8 -->
<g id="edge8_Node000002_Node000008" class="edge">
<title>Node2&#45;&gt;Node8</title>
<g id="a_edge8_Node000002_Node000008"><a xlink:title=" ">
<path fill="none" stroke="#63b8ff" d="M389.37,-222.12C336.17,-213.11 262.01,-199.92 188.48,-184.22"/>
<polygon fill="#63b8ff" stroke="#63b8ff" points="189.09,-180.77 178.58,-182.08 187.62,-187.61 189.09,-180.77"/>
</a>
</g>
</g>
<!-- Node9 -->
<g id="Node000009" class="node">
<title>Node9</title>
<g id="a_Node000009"><a xlink:href="assert_8h.html" target="_top" xlink:title=" ">
<polygon fill="white" stroke="#666666" points="327.5,-184 196.5,-184 196.5,-165 327.5,-165 327.5,-184"/>
<text text-anchor="middle" x="262" y="-172" font-family="FreeSans" font-size="10.00">mpqc/util/misc/assert.h</text>
</a>
</g>
</g>
<!-- Node2&#45;&gt;Node9 -->
<g id="edge9_Node000002_Node000009" class="edge">
<title>Node2&#45;&gt;Node9</title>
<g id="a_edge9_Node000002_Node000009"><a xlink:title=" ">
<path fill="none" stroke="#63b8ff" d="M414.1,-219.99C379.58,-209.89 333.58,-196.44 301.23,-186.98"/>
<polygon fill="#63b8ff" stroke="#63b8ff" points="301.82,-183.5 291.24,-184.05 299.86,-190.22 301.82,-183.5"/>
</a>
</g>
</g>
<!-- Node5&#45;&gt;Node5 -->
<g id="edge5_Node000005_Node000005" class="edge">
<title>Node5&#45;&gt;Node5</title>
<g id="a_edge5_Node000005_Node000005"><a xlink:title=" ">
<path fill="none" stroke="#63b8ff" d="M506.24,-74.07C519.06,-76.02 531,-72.83 531,-64.5 531,-58.45 524.7,-55.11 516.34,-54.48"/>
<polygon fill="#63b8ff" stroke="#63b8ff" points="516.08,-50.99 506.24,-54.93 516.39,-57.98 516.08,-50.99"/>
</a>
</g>
</g>
<!-- Node10 -->
<g id="Node000010" class="node">
<title>Node10</title>
<g id="a_Node000010"><a xlink:title=" ">
<polygon fill="#e0e0e0" stroke="#999999" points="434.5,-129 317.5,-129 317.5,-110 434.5,-110 434.5,-129"/>
<text text-anchor="middle" x="376" y="-117" font-family="FreeSans" font-size="10.00">mpqc/mpqc_config.h</text>
</a>
</g>
</g>
<!-- Node9&#45;&gt;Node10 -->
<g id="edge10_Node000009_Node000010" class="edge">
<title>Node9&#45;&gt;Node10</title>
<g id="a_edge10_Node000009_Node000010"><a xlink:title=" ">
<path fill="none" stroke="#63b8ff" d="M280.32,-164.98C298.66,-156.46 327.11,-143.23 348.23,-133.41"/>
<polygon fill="#63b8ff" stroke="#63b8ff" points="349.76,-136.56 357.35,-129.17 346.81,-130.21 349.76,-136.56"/>
</a>
</g>
</g>
<!-- Node11 -->
<g id="Node000011" class="node">
<title>Node11</title>
<g id="a_Node000011"><a xlink:title=" ">
<polygon fill="#e0e0e0" stroke="#999999" points="299,-129 247,-129 247,-110 299,-110 299,-129"/>
<text text-anchor="middle" x="273" y="-117" font-family="FreeSans" font-size="10.00">cassert</text>
</a>
</g>
</g>
<!-- Node9&#45;&gt;Node11 -->
<g id="edge11_Node000009_Node000011" class="edge">
<title>Node9&#45;&gt;Node11</title>
<g id="a_edge11_Node000009_Node000011"><a xlink:title=" ">
<path fill="none" stroke="#63b8ff" d="M263.82,-164.75C265.26,-157.8 267.32,-147.85 269.13,-139.13"/>
<polygon fill="#63b8ff" stroke="#63b8ff" points="272.61,-139.59 271.22,-129.09 265.76,-138.17 272.61,-139.59"/>
</a>
</g>
</g>
<!-- Node9&#45;&gt;Node12 -->
<g id="edge12_Node000009_Node000012" class="edge">
<title>Node9&#45;&gt;Node12</title>
<g id="a_edge12_Node000009_Node000012"><a xlink:title=" ">
<path fill="none" stroke="#63b8ff" d="M244.97,-164.98C228.07,-156.54 201.94,-143.47 182.36,-133.68"/>
<polygon fill="#63b8ff" stroke="#63b8ff" points="183.85,-130.51 173.34,-129.17 180.72,-136.77 183.85,-130.51"/>
</a>
</g>
</g>
<!-- Node12&#45;&gt;Node5 -->
<g id="edge14_Node000012_Node000005" class="edge">
<title>Node12&#45;&gt;Node5</title>
<g id="a_edge14_Node000012_Node000005"><a xlink:title=" ">
<path fill="none" stroke="#63b8ff" d="M208.7,-109.98C274.64,-99.33 386.04,-81.33 444.88,-71.82"/>
<polygon fill="#63b8ff" stroke="#63b8ff" points="445.57,-75.25 454.89,-70.2 444.46,-68.34 445.57,-75.25"/>
</a>
</g>
</g>
<!-- Node13 -->
<g id="Node000013" class="node">
<title>Node13</title>
<g id="a_Node000013"><a xlink:title=" ">
<polygon fill="#e0e0e0" stroke="#999999" points="413.5,-74 360.5,-74 360.5,-55 413.5,-55 413.5,-74"/>
<text text-anchor="middle" x="387" y="-62" font-family="FreeSans" font-size="10.00">string.h</text>
</a>
</g>
</g>
<!-- Node12&#45;&gt;Node13 -->
<g id="edge13_Node000012_Node000013" class="edge">
<title>Node12&#45;&gt;Node13</title>
<g id="a_edge13_Node000012_Node000013"><a xlink:title=" ">
<path fill="none" stroke="#63b8ff" d="M193.77,-109.97C230.99,-101.54 289.76,-88.18 350.17,-74.18"/>
<polygon fill="#63b8ff" stroke="#63b8ff" points="351.32,-77.51 360.27,-71.84 349.74,-70.69 351.32,-77.51"/>
</a>
</g>
</g>
<!-- Node14 -->
<g id="Node000014" class="node">
<title>Node14</title>
<g id="a_Node000014"><a xlink:title=" ">
<polygon fill="#e0e0e0" stroke="#999999" points="56,-74 0,-74 0,-55 56,-55 56,-74"/>
<text text-anchor="middle" x="28" y="-62" font-family="FreeSans" font-size="10.00">sstream</text>
</a>
</g>
</g>
<!-- Node12&#45;&gt;Node14 -->
<g id="edge15_Node000012_Node000014" class="edge">
<title>Node12&#45;&gt;Node14</title>
<g id="a_edge15_Node000012_Node000014"><a xlink:title=" ">
<path fill="none" stroke="#63b8ff" d="M135.43,-109.98C114.57,-101.34 82.03,-87.87 58.23,-78.02"/>
<polygon fill="#63b8ff" stroke="#63b8ff" points="59.52,-74.76 48.94,-74.17 56.84,-81.23 59.52,-74.76"/>
</a>
</g>
</g>
<!-- Node15 -->
<g id="Node000015" class="node">
<title>Node15</title>
<g id="a_Node000015"><a xlink:title=" ">
<polygon fill="#e0e0e0" stroke="#999999" points="139.5,-74 74.5,-74 74.5,-55 139.5,-55 139.5,-74"/>
<text text-anchor="middle" x="107" y="-62" font-family="FreeSans" font-size="10.00">stdexcept</text>
</a>
</g>
</g>
<!-- Node12&#45;&gt;Node15 -->
<g id="edge16_Node000012_Node000015" class="edge">
<title>Node12&#45;&gt;Node15</title>
<g id="a_edge16_Node000012_Node000015"><a xlink:title=" ">
<path fill="none" stroke="#63b8ff" d="M147.91,-109.75C140.84,-102.11 130.41,-90.82 121.85,-81.56"/>
<polygon fill="#63b8ff" stroke="#63b8ff" points="124.3,-79.06 114.94,-74.09 119.16,-83.81 124.3,-79.06"/>
</a>
</g>
</g>
<!-- Node16 -->
<g id="Node000016" class="node">
<title>Node16</title>
<g id="a_Node000016"><a xlink:title=" ">
<polygon fill="#e0e0e0" stroke="#999999" points="251.5,-19 204.5,-19 204.5,0 251.5,0 251.5,-19"/>
<text text-anchor="middle" x="228" y="-7" font-family="FreeSans" font-size="10.00">vector</text>
</a>
</g>
</g>
<!-- Node12&#45;&gt;Node16 -->
<g id="edge17_Node000012_Node000016" class="edge">
<title>Node12&#45;&gt;Node16</title>
<g id="a_edge17_Node000012_Node000016"><a xlink:title=" ">
<path fill="none" stroke="#63b8ff" d="M159.28,-109.85C164.28,-97.22 174.54,-73.23 187,-55 194.02,-44.72 203.33,-34.42 211.3,-26.33"/>
<polygon fill="#63b8ff" stroke="#63b8ff" points="214.02,-28.56 218.69,-19.05 209.11,-23.57 214.02,-28.56"/>
</a>
</g>
</g>
<!-- Node17 -->
<g id="Node000017" class="node">
<title>Node17</title>
<g id="a_Node000017"><a xlink:href="backtrace_8h.html" target="_top" xlink:title=" ">
<polygon fill="white" stroke="#666666" points="342,-74 196,-74 196,-55 342,-55 342,-74"/>
<text text-anchor="middle" x="269" y="-62" font-family="FreeSans" font-size="10.00">mpqc/util/core/backtrace.h</text>
</a>
</g>
</g>
<!-- Node12&#45;&gt;Node17 -->
<g id="edge18_Node000012_Node000017" class="edge">
<title>Node12&#45;&gt;Node17</title>
<g id="a_edge18_Node000012_Node000017"><a xlink:title=" ">
<path fill="none" stroke="#63b8ff" d="M174.16,-109.98C192.25,-101.5 220.28,-88.35 241.19,-78.54"/>
<polygon fill="#63b8ff" stroke="#63b8ff" points="242.95,-81.59 250.51,-74.17 239.97,-75.25 242.95,-81.59"/>
</a>
</g>
</g>
<!-- Node17&#45;&gt;Node7 -->
<g id="edge19_Node000017_Node000007" class="edge">
<title>Node17&#45;&gt;Node7</title>
<g id="a_edge19_Node000017_Node000007"><a xlink:title=" ">
<path fill="none" stroke="#63b8ff" d="M275.77,-54.75C281.56,-47.26 290.06,-36.28 297.14,-27.13"/>
<polygon fill="#63b8ff" stroke="#63b8ff" points="300.01,-29.14 303.36,-19.09 294.47,-24.86 300.01,-29.14"/>
</a>
</g>
</g>
<!-- Node17&#45;&gt;Node16 -->
<g id="edge20_Node000017_Node000016" class="edge">
<title>Node17&#45;&gt;Node16</title>
<g id="a_edge20_Node000017_Node000016"><a xlink:title=" ">
<path fill="none" stroke="#63b8ff" d="M262.23,-54.75C256.44,-47.26 247.94,-36.28 240.86,-27.13"/>
<polygon fill="#63b8ff" stroke="#63b8ff" points="243.53,-24.86 234.64,-19.09 237.99,-29.14 243.53,-24.86"/>
</a>
</g>
</g>
</g>
</svg>
