<?xml version="1.0" encoding="UTF-8" standalone="no"?>
<!DOCTYPE svg PUBLIC "-//W3C//DTD SVG 1.1//EN"
 "http://www.w3.org/Graphics/SVG/1.1/DTD/svg11.dtd">
<!-- Generated by graphviz version 2.43.0 (0)
 -->
<!-- Title: mpqc/chemistry/qc/lcao/f12/H_bar_expression.h Pages: 1 -->
<svg width="306pt" height="236pt"
 viewBox="0.00 0.00 305.50 236.00" xmlns="http://www.w3.org/2000/svg" xmlns:xlink="http://www.w3.org/1999/xlink">
<g id="graph0" class="graph" transform="scale(1 1) rotate(0) translate(4 232)">
<title>mpqc/chemistry/qc/lcao/f12/H_bar_expression.h</title>
<!-- Node1 -->
<g id="Node000001" class="node">
<title>Node1</title>
<g id="a_Node000001"><a xlink:title=" ">
<polygon fill="#999999" stroke="#666666" points="219,-228 85,-228 85,-198 219,-198 219,-228"/>
<text text-anchor="start" x="93" y="-216" font-family="FreeSans" font-size="10.00">mpqc/chemistry/qc/lcao</text>
<text text-anchor="middle" x="152" y="-205" font-family="FreeSans" font-size="10.00">/f12/H_bar_expression.h</text>
</a>
</g>
</g>
<!-- Node2 -->
<g id="Node000002" class="node">
<title>Node2</title>
<g id="a_Node000002"><a xlink:href="_h__bar__expression_8cpp.html" target="_top" xlink:title=" ">
<polygon fill="white" stroke="#666666" points="146,-162 0,-162 0,-132 146,-132 146,-162"/>
<text text-anchor="start" x="8" y="-150" font-family="FreeSans" font-size="10.00">mpqc/chemistry/qc/lcao</text>
<text text-anchor="middle" x="73" y="-139" font-family="FreeSans" font-size="10.00">/f12/H_bar_expression.cpp</text>
</a>
</g>
</g>
<!-- Node1&#45;&gt;Node2 -->
<g id="edge1_Node000001_Node000002" class="edge">
<title>Node1&#45;&gt;Node2</title>
<g id="a_edge1_Node000001_Node000002"><a xlink:title=" ">
<path fill="none" stroke="#63b8ff" d="M126.67,-191.48C114.86,-181.91 101.11,-170.77 90.48,-162.16"/>
<polygon fill="#63b8ff" stroke="#63b8ff" points="124.49,-194.22 134.47,-197.8 128.9,-188.78 124.49,-194.22"/>
</a>
</g>
</g>
<!-- Node3 -->
<g id="Node000003" class="node">
<title>Node3</title>
<g id="a_Node000003"><a xlink:href="_h__bar__f12_8h.html" target="_top" xlink:title=" ">
<polygon fill="white" stroke="#666666" points="297.5,-162 164.5,-162 164.5,-132 297.5,-132 297.5,-162"/>
<text text-anchor="start" x="172.5" y="-150" font-family="FreeSans" font-size="10.00">mpqc/chemistry/qc/lcao</text>
<text text-anchor="middle" x="231" y="-139" font-family="FreeSans" font-size="10.00">/f12/H_bar_f12.h</text>
</a>
</g>
</g>
<!-- Node1&#45;&gt;Node3 -->
<g id="edge2_Node000001_Node000003" class="edge">
<title>Node1&#45;&gt;Node3</title>
<g id="a_edge2_Node000001_Node000003"><a xlink:title=" ">
<path fill="none" stroke="#63b8ff" d="M177.33,-191.48C189.14,-181.91 202.89,-170.77 213.52,-162.16"/>
<polygon fill="#63b8ff" stroke="#63b8ff" points="175.1,-188.78 169.53,-197.8 179.51,-194.22 175.1,-188.78"/>
</a>
</g>
</g>
<!-- Node4 -->
<g id="Node000004" class="node">
<title>Node4</title>
<g id="a_Node000004"><a xlink:href="_h__bar__f12_8ipp.html" target="_top" xlink:title=" ">
<polygon fill="white" stroke="#666666" points="297.5,-96 164.5,-96 164.5,-66 297.5,-66 297.5,-96"/>
<text text-anchor="start" x="172.5" y="-84" font-family="FreeSans" font-size="10.00">mpqc/chemistry/qc/lcao</text>
<text text-anchor="middle" x="231" y="-73" font-family="FreeSans" font-size="10.00">/f12/H_bar_f12.ipp</text>
</a>
</g>
</g>
<!-- Node3&#45;&gt;Node4 -->
<g id="edge3_Node000003_Node000004" class="edge">
<title>Node3&#45;&gt;Node4</title>
<g id="a_edge3_Node000003_Node000004"><a xlink:title=" ">
<path fill="none" stroke="#63b8ff" d="M231,-121.54C231,-112.96 231,-103.61 231,-96.16"/>
<polygon fill="#63b8ff" stroke="#63b8ff" points="227.5,-121.8 231,-131.8 234.5,-121.8 227.5,-121.8"/>
</a>
</g>
</g>
<!-- Node5 -->
<g id="Node000005" class="node">
<title>Node5</title>
<g id="a_Node000005"><a xlink:href="_h__bar__f12_8cpp.html" target="_top" xlink:title=" ">
<polygon fill="white" stroke="#666666" points="297.5,-30 164.5,-30 164.5,0 297.5,0 297.5,-30"/>
<text text-anchor="start" x="172.5" y="-18" font-family="FreeSans" font-size="10.00">mpqc/chemistry/qc/lcao</text>
<text text-anchor="middle" x="231" y="-7" font-family="FreeSans" font-size="10.00">/f12/H_bar_f12.cpp</text>
</a>
</g>
</g>
<!-- Node4&#45;&gt;Node5 -->
<g id="edge4_Node000004_Node000005" class="edge">
<title>Node4&#45;&gt;Node5</title>
<g id="a_edge4_Node000004_Node000005"><a xlink:title=" ">
<path fill="none" stroke="#63b8ff" d="M231,-55.54C231,-46.96 231,-37.61 231,-30.16"/>
<polygon fill="#63b8ff" stroke="#63b8ff" points="227.5,-55.8 231,-65.8 234.5,-55.8 227.5,-55.8"/>
</a>
</g>
</g>
</g>
</svg>
