<?xml version="1.0" encoding="UTF-8" standalone="no"?>
<!DOCTYPE svg PUBLIC "-//W3C//DTD SVG 1.1//EN"
 "http://www.w3.org/Graphics/SVG/1.1/DTD/svg11.dtd">
<!-- Generated by graphviz version 2.43.0 (0)
 -->
<!-- Title: mpqc/chemistry/qc/lcao/f12/H_bar_expression.h Pages: 1 -->
<svg width="286pt" height="93pt"
 viewBox="0.00 0.00 286.00 93.00" xmlns="http://www.w3.org/2000/svg" xmlns:xlink="http://www.w3.org/1999/xlink">
<g id="graph0" class="graph" transform="scale(1 1) rotate(0) translate(4 89)">
<title>mpqc/chemistry/qc/lcao/f12/H_bar_expression.h</title>
<!-- Node1 -->
<g id="Node000001" class="node">
<title>Node1</title>
<g id="a_Node000001"><a xlink:title=" ">
<polygon fill="#999999" stroke="#666666" points="204.5,-85 70.5,-85 70.5,-55 204.5,-55 204.5,-85"/>
<text text-anchor="start" x="78.5" y="-73" font-family="FreeSans" font-size="10.00">mpqc/chemistry/qc/lcao</text>
<text text-anchor="middle" x="137.5" y="-62" font-family="FreeSans" font-size="10.00">/f12/H_bar_expression.h</text>
</a>
</g>
</g>
<!-- Node2 -->
<g id="Node000002" class="node">
<title>Node2</title>
<g id="a_Node000002"><a xlink:title=" ">
<polygon fill="#e0e0e0" stroke="#999999" points="127,-19 0,-19 0,0 127,0 127,-19"/>
<text text-anchor="middle" x="63.5" y="-7" font-family="FreeSans" font-size="10.00">SeQuant/core/expr.hpp</text>
</a>
</g>
</g>
<!-- Node1&#45;&gt;Node2 -->
<g id="edge1_Node000001_Node000002" class="edge">
<title>Node1&#45;&gt;Node2</title>
<g id="a_edge1_Node000001_Node000002"><a xlink:title=" ">
<path fill="none" stroke="#63b8ff" d="M119.59,-54.84C108.41,-46 94.02,-34.63 82.62,-25.62"/>
<polygon fill="#63b8ff" stroke="#63b8ff" points="84.6,-22.72 74.59,-19.27 80.26,-28.21 84.6,-22.72"/>
</a>
</g>
</g>
<!-- Node3 -->
<g id="Node000003" class="node">
<title>Node3</title>
<g id="a_Node000003"><a xlink:title=" ">
<polygon fill="#e0e0e0" stroke="#999999" points="278,-19 145,-19 145,0 278,0 278,-19"/>
<text text-anchor="middle" x="211.5" y="-7" font-family="FreeSans" font-size="10.00">SeQuant/core/index.hpp</text>
</a>
</g>
</g>
<!-- Node1&#45;&gt;Node3 -->
<g id="edge2_Node000001_Node000003" class="edge">
<title>Node1&#45;&gt;Node3</title>
<g id="a_edge2_Node000001_Node000003"><a xlink:title=" ">
<path fill="none" stroke="#63b8ff" d="M155.41,-54.84C166.59,-46 180.98,-34.63 192.38,-25.62"/>
<polygon fill="#63b8ff" stroke="#63b8ff" points="194.74,-28.21 200.41,-19.27 190.4,-22.72 194.74,-28.21"/>
</a>
</g>
</g>
</g>
</svg>
