<?xml version="1.0" encoding="UTF-8" standalone="no"?>
<!DOCTYPE svg PUBLIC "-//W3C//DTD SVG 1.1//EN"
 "http://www.w3.org/Graphics/SVG/1.1/DTD/svg11.dtd">
<!-- Generated by graphviz version 2.43.0 (0)
 -->
<!-- Title: mpqc/chemistry/qc/lcao/f12/H_bar_expression.cpp Pages: 1 -->
<!--zoomable 357 -->

<svg id="main" version="1.1" xmlns="http://www.w3.org/2000/svg" xmlns:xlink="http://www.w3.org/1999/xlink" xml:space="preserve" onload="init(evt)">
<style type="text/css"><![CDATA[
.node, .edge {opacity: 0.7;}
.node.selected, .edge.selected {opacity: 1;}
.edge:hover path { stroke: red; }
.edge:hover polygon { stroke: red; fill: red; }
]]></style>

<defs>
  <circle id="rim" cx="0" cy="0" r="7"/>
  <circle id="rim2" cx="0" cy="0" r="3.5"/>
  <g id="zoomPlus">
    <use xlink:href="#rim" fill="#404040"><set attributeName="fill" to="#808080" begin="zoomplus.mouseover" end="zoomplus.mouseout"/></use>
    <path d="M-4,0h8M0,-4v8" fill="none" stroke="white" stroke-width="1.5" pointer-events="none"/>
  </g>
  <g id="zoomMin">
    <use xlink:href="#rim" fill="#404040"><set attributeName="fill" to="#808080" begin="zoomminus.mouseover" end="zoomminus.mouseout"/></use>
    <path d="M-4,0h8" fill="none" stroke="white" stroke-width="1.5" pointer-events="none"/>
  </g>
  <g id="arrowUp" transform="translate(30 24)">
    <use xlink:href="#rim"/>
    <path pointer-events="none" fill="none" stroke="white" stroke-width="1.5" d="M0,-3.0v7 M-2.5,-0.5L0,-3.0L2.5,-0.5"/>
  </g>
  <g id="arrowRight" transform="rotate(90) translate(36 -43)">
    <use xlink:href="#rim"/>
    <path pointer-events="none" fill="none" stroke="white" stroke-width="1.5" d="M0,-3.0v7 M-2.5,-0.5L0,-3.0L2.5,-0.5"/>
  </g>
  <g id="arrowDown" transform="rotate(180) translate(-30 -48)">
    <use xlink:href="#rim"/>
    <path pointer-events="none" fill="none" stroke="white" stroke-width="1.5" d="M0,-3.0v7 M-2.5,-0.5L0,-3.0L2.5,-0.5"/>
  </g>
  <g id="arrowLeft" transform="rotate(270) translate(-36 17)">
    <use xlink:href="#rim"/>
    <path pointer-events="none" fill="none" stroke="white" stroke-width="1.5" d="M0,-3.0v7 M-2.5,-0.5L0,-3.0L2.5,-0.5"/>
  </g>
  <g id="resetDef">
    <use xlink:href="#rim2" fill="#404040"><set attributeName="fill" to="#808080" begin="reset.mouseover" end="reset.mouseout"/></use>
  </g>
</defs>
<script type="application/ecmascript">
var viewWidth = 1169;
var viewHeight = 357;
var sectionId = 'dynsection-0';
</script>
<script type="application/ecmascript" xlink:href="svg.min.js"/>
<svg id="graph" class="graph">
<g id="viewport">
<title>mpqc/chemistry/qc/lcao/f12/H_bar_expression.cpp</title>
<!-- Node1 -->
<g id="Node000001" class="node">
<title>Node1</title>
<g id="a_Node000001"><a xlink:title=" ">
<polygon fill="#999999" stroke="#666666" points="707.5,-349 561.5,-349 561.5,-319 707.5,-319 707.5,-349"/>
<text text-anchor="start" x="569.5" y="-337" font-family="FreeSans" font-size="10.00">mpqc/chemistry/qc/lcao</text>
<text text-anchor="middle" x="634.5" y="-326" font-family="FreeSans" font-size="10.00">/f12/H_bar_expression.cpp</text>
</a>
</g>
</g>
<!-- Node2 -->
<g id="Node000002" class="node">
<title>Node2</title>
<g id="a_Node000002"><a xlink:href="_h__bar__expression_8h.html" target="_top" xlink:title=" ">
<polygon fill="white" stroke="#666666" points="278.5,-283 144.5,-283 144.5,-253 278.5,-253 278.5,-283"/>
<text text-anchor="start" x="152.5" y="-271" font-family="FreeSans" font-size="10.00">mpqc/chemistry/qc/lcao</text>
<text text-anchor="middle" x="211.5" y="-260" font-family="FreeSans" font-size="10.00">/f12/H_bar_expression.h</text>
</a>
</g>
</g>
<!-- Node1&#45;&gt;Node2 -->
<g id="edge1_Node000001_Node000002" class="edge">
<title>Node1&#45;&gt;Node2</title>
<g id="a_edge1_Node000001_Node000002"><a xlink:title=" ">
<path fill="none" stroke="#63b8ff" d="M561.3,-321.93C485.15,-310.4 366.41,-292.44 288.78,-280.69"/>
<polygon fill="#63b8ff" stroke="#63b8ff" points="288.99,-277.18 278.58,-279.15 287.94,-284.11 288.99,-277.18"/>
</a>
</g>
</g>
<!-- Node5 -->
<g id="Node000005" class="node">
<title>Node5</title>
<g id="a_Node000005"><a xlink:href="f12__expression__utility_8ipp.html" target="_top" xlink:title=" ">
<polygon fill="white" stroke="#666666" points="661,-283 498,-283 498,-253 661,-253 661,-283"/>
<text text-anchor="start" x="506" y="-271" font-family="FreeSans" font-size="10.00">mpqc/chemistry/qc/lcao</text>
<text text-anchor="middle" x="579.5" y="-260" font-family="FreeSans" font-size="10.00">/f12/f12_expression_utility.ipp</text>
</a>
</g>
</g>
<!-- Node1&#45;&gt;Node5 -->
<g id="edge4_Node000001_Node000005" class="edge">
<title>Node1&#45;&gt;Node5</title>
<g id="a_edge4_Node000001_Node000005"><a xlink:title=" ">
<path fill="none" stroke="#63b8ff" d="M622.29,-318.8C615.24,-310.59 606.23,-300.1 598.29,-290.87"/>
<polygon fill="#63b8ff" stroke="#63b8ff" points="600.84,-288.47 591.67,-283.16 595.54,-293.03 600.84,-288.47"/>
</a>
</g>
</g>
<!-- Node32 -->
<g id="Node000032" class="node">
<title>Node32</title>
<g id="a_Node000032"><a xlink:title=" ">
<polygon fill="#e0e0e0" stroke="#999999" points="1160.5,-217 1034.5,-217 1034.5,-187 1160.5,-187 1160.5,-217"/>
<text text-anchor="start" x="1042.5" y="-205" font-family="FreeSans" font-size="10.00">SeQuant/domain/mbpt</text>
<text text-anchor="middle" x="1097.5" y="-194" font-family="FreeSans" font-size="10.00">/op.hpp</text>
</a>
</g>
</g>
<!-- Node1&#45;&gt;Node32 -->
<g id="edge42_Node000001_Node000032" class="edge">
<title>Node1&#45;&gt;Node32</title>
<g id="a_edge42_Node000001_Node000032"><a xlink:title=" ">
<path fill="none" stroke="#63b8ff" d="M642.96,-318.85C654.96,-300.21 678.79,-268.04 708.5,-253 832.04,-190.45 882.95,-236.29 1024.02,-217.07"/>
<polygon fill="#63b8ff" stroke="#63b8ff" points="1024.94,-220.48 1034.33,-215.58 1023.93,-213.55 1024.94,-220.48"/>
</a>
</g>
</g>
<!-- Node33 -->
<g id="Node000033" class="node">
<title>Node33</title>
<g id="a_Node000033"><a xlink:title=" ">
<polygon fill="#e0e0e0" stroke="#999999" points="843.5,-283 717.5,-283 717.5,-253 843.5,-253 843.5,-283"/>
<text text-anchor="start" x="725.5" y="-271" font-family="FreeSans" font-size="10.00">SeQuant/domain/mbpt</text>
<text text-anchor="middle" x="780.5" y="-260" font-family="FreeSans" font-size="10.00">/rdm.hpp</text>
</a>
</g>
</g>
<!-- Node1&#45;&gt;Node33 -->
<g id="edge43_Node000001_Node000033" class="edge">
<title>Node1&#45;&gt;Node33</title>
<g id="a_edge43_Node000001_Node000033"><a xlink:title=" ">
<path fill="none" stroke="#63b8ff" d="M666.54,-318.95C687.94,-309.58 716.27,-297.16 739.33,-287.05"/>
<polygon fill="#63b8ff" stroke="#63b8ff" points="740.78,-290.23 748.53,-283.01 737.97,-283.82 740.78,-290.23"/>
</a>
</g>
</g>
<!-- Node3 -->
<g id="Node000003" class="node">
<title>Node3</title>
<g id="a_Node000003"><a xlink:title=" ">
<polygon fill="#e0e0e0" stroke="#999999" points="127,-211.5 0,-211.5 0,-192.5 127,-192.5 127,-211.5"/>
<text text-anchor="middle" x="63.5" y="-199.5" font-family="FreeSans" font-size="10.00">SeQuant/core/expr.hpp</text>
</a>
</g>
</g>
<!-- Node2&#45;&gt;Node3 -->
<g id="edge2_Node000002_Node000003" class="edge">
<title>Node2&#45;&gt;Node3</title>
<g id="a_edge2_Node000002_Node000003"><a xlink:title=" ">
<path fill="none" stroke="#63b8ff" d="M179.02,-252.95C153.18,-241.78 117.35,-226.29 92.47,-215.53"/>
<polygon fill="#63b8ff" stroke="#63b8ff" points="93.76,-212.27 83.2,-211.52 90.99,-218.7 93.76,-212.27"/>
</a>
</g>
</g>
<!-- Node4 -->
<g id="Node000004" class="node">
<title>Node4</title>
<g id="a_Node000004"><a xlink:title=" ">
<polygon fill="#e0e0e0" stroke="#999999" points="278,-211.5 145,-211.5 145,-192.5 278,-192.5 278,-211.5"/>
<text text-anchor="middle" x="211.5" y="-199.5" font-family="FreeSans" font-size="10.00">SeQuant/core/index.hpp</text>
</a>
</g>
</g>
<!-- Node2&#45;&gt;Node4 -->
<g id="edge3_Node000002_Node000004" class="edge">
<title>Node2&#45;&gt;Node4</title>
<g id="a_edge3_Node000002_Node000004"><a xlink:title=" ">
<path fill="none" stroke="#63b8ff" d="M211.5,-252.8C211.5,-243.7 211.5,-231.79 211.5,-221.9"/>
<polygon fill="#63b8ff" stroke="#63b8ff" points="215,-221.84 211.5,-211.84 208,-221.84 215,-221.84"/>
</a>
</g>
</g>
<!-- Node5&#45;&gt;Node3 -->
<g id="edge36_Node000005_Node000003" class="edge">
<title>Node5&#45;&gt;Node3</title>
<g id="a_edge36_Node000005_Node000003"><a xlink:title=" ">
<path fill="none" stroke="#63b8ff" d="M497.82,-259.77C408.55,-251.42 261.44,-236.3 135.5,-217 128.73,-215.96 121.64,-214.74 114.64,-213.47"/>
<polygon fill="#63b8ff" stroke="#63b8ff" points="115,-209.97 104.52,-211.56 113.7,-216.85 115,-209.97"/>
</a>
</g>
</g>
<!-- Node5&#45;&gt;Node4 -->
<g id="edge38_Node000005_Node000004" class="edge">
<title>Node5&#45;&gt;Node4</title>
<g id="a_edge38_Node000005_Node000004"><a xlink:title=" ">
<path fill="none" stroke="#63b8ff" d="M497.95,-253.32C439.37,-243.42 358.52,-229.62 287.5,-217 280.93,-215.83 274.05,-214.59 267.22,-213.35"/>
<polygon fill="#63b8ff" stroke="#63b8ff" points="267.76,-209.89 257.3,-211.53 266.51,-216.77 267.76,-209.89"/>
</a>
</g>
</g>
<!-- Node6 -->
<g id="Node000006" class="node">
<title>Node6</title>
<g id="a_Node000006"><a xlink:href="exenv_8h.html" target="_top" xlink:title=" ">
<polygon fill="white" stroke="#666666" points="570,-211.5 443,-211.5 443,-192.5 570,-192.5 570,-211.5"/>
<text text-anchor="middle" x="506.5" y="-199.5" font-family="FreeSans" font-size="10.00">mpqc/util/core/exenv.h</text>
</a>
</g>
</g>
<!-- Node5&#45;&gt;Node6 -->
<g id="edge5_Node000005_Node000006" class="edge">
<title>Node5&#45;&gt;Node6</title>
<g id="a_edge5_Node000005_Node000006"><a xlink:title=" ">
<path fill="none" stroke="#63b8ff" d="M563.3,-252.8C551.7,-242.62 536.08,-228.93 524.16,-218.48"/>
<polygon fill="#63b8ff" stroke="#63b8ff" points="526.41,-215.8 516.59,-211.84 521.8,-221.07 526.41,-215.8"/>
</a>
</g>
</g>
<!-- Node21 -->
<g id="Node000021" class="node">
<title>Node21</title>
<g id="a_Node000021"><a xlink:href="assert_8h.html" target="_top" xlink:title=" ">
<polygon fill="white" stroke="#666666" points="719,-211.5 588,-211.5 588,-192.5 719,-192.5 719,-211.5"/>
<text text-anchor="middle" x="653.5" y="-199.5" font-family="FreeSans" font-size="10.00">mpqc/util/misc/assert.h</text>
</a>
</g>
</g>
<!-- Node5&#45;&gt;Node21 -->
<g id="edge24_Node000005_Node000021" class="edge">
<title>Node5&#45;&gt;Node21</title>
<g id="a_edge24_Node000005_Node000021"><a xlink:title=" ">
<path fill="none" stroke="#63b8ff" d="M595.92,-252.8C607.69,-242.62 623.52,-228.93 635.6,-218.48"/>
<polygon fill="#63b8ff" stroke="#63b8ff" points="638,-221.03 643.27,-211.84 633.42,-215.74 638,-221.03"/>
</a>
</g>
</g>
<!-- Node29 -->
<g id="Node000029" class="node">
<title>Node29</title>
<g id="a_Node000029"><a xlink:title=" ">
<polygon fill="#e0e0e0" stroke="#999999" points="880,-217 737,-217 737,-187 880,-187 880,-217"/>
<text text-anchor="start" x="745" y="-205" font-family="FreeSans" font-size="10.00">SeQuant/core/expressions</text>
<text text-anchor="middle" x="808.5" y="-194" font-family="FreeSans" font-size="10.00">/tensor.hpp</text>
</a>
</g>
</g>
<!-- Node5&#45;&gt;Node29 -->
<g id="edge37_Node000005_Node000029" class="edge">
<title>Node5&#45;&gt;Node29</title>
<g id="a_edge37_Node000005_Node000029"><a xlink:title=" ">
<path fill="none" stroke="#63b8ff" d="M629.76,-252.95C664.8,-243.16 711.73,-230.05 748.7,-219.71"/>
<polygon fill="#63b8ff" stroke="#63b8ff" points="749.67,-223.07 758.36,-217.01 747.79,-216.33 749.67,-223.07"/>
</a>
</g>
</g>
<!-- Node30 -->
<g id="Node000030" class="node">
<title>Node30</title>
<g id="a_Node000030"><a xlink:title=" ">
<polygon fill="#e0e0e0" stroke="#999999" points="1016.5,-211.5 898.5,-211.5 898.5,-192.5 1016.5,-192.5 1016.5,-211.5"/>
<text text-anchor="middle" x="957.5" y="-199.5" font-family="FreeSans" font-size="10.00">SeQuant/core/op.hpp</text>
</a>
</g>
</g>
<!-- Node5&#45;&gt;Node30 -->
<g id="edge39_Node000005_Node000030" class="edge">
<title>Node5&#45;&gt;Node30</title>
<g id="a_edge39_Node000005_Node000030"><a xlink:title=" ">
<path fill="none" stroke="#63b8ff" d="M661.25,-254.8C723.85,-245.22 812.29,-231.17 889.5,-217 895.35,-215.93 901.47,-214.75 907.54,-213.54"/>
<polygon fill="#63b8ff" stroke="#63b8ff" points="908.53,-216.91 917.64,-211.51 907.15,-210.05 908.53,-216.91"/>
</a>
</g>
</g>
<!-- Node31 -->
<g id="Node000031" class="node">
<title>Node31</title>
<g id="a_Node000031"><a xlink:title=" ">
<polygon fill="#e0e0e0" stroke="#999999" points="424.5,-211.5 296.5,-211.5 296.5,-192.5 424.5,-192.5 424.5,-211.5"/>
<text text-anchor="middle" x="360.5" y="-199.5" font-family="FreeSans" font-size="10.00">SeQuant/core/wick.hpp</text>
</a>
</g>
</g>
<!-- Node5&#45;&gt;Node31 -->
<g id="edge40_Node000005_Node000031" class="edge">
<title>Node5&#45;&gt;Node31</title>
<g id="a_edge40_Node000005_Node000031"><a xlink:title=" ">
<path fill="none" stroke="#63b8ff" d="M531.44,-252.95C491.85,-241.38 436.41,-225.18 399.53,-214.41"/>
<polygon fill="#63b8ff" stroke="#63b8ff" points="400.23,-210.96 389.65,-211.52 398.26,-217.68 400.23,-210.96"/>
</a>
</g>
</g>
<!-- Node5&#45;&gt;Node32 -->
<g id="edge41_Node000005_Node000032" class="edge">
<title>Node5&#45;&gt;Node32</title>
<g id="a_edge41_Node000005_Node000032"><a xlink:title=" ">
<path fill="none" stroke="#63b8ff" d="M661.17,-254.85C666.02,-254.2 670.82,-253.58 675.5,-253 827.5,-234.11 869.12,-239.7 1024.43,-217.07"/>
<polygon fill="#63b8ff" stroke="#63b8ff" points="1024.96,-220.53 1034.34,-215.61 1023.94,-213.61 1024.96,-220.53"/>
</a>
</g>
</g>
<!-- Node7 -->
<g id="Node000007" class="node">
<title>Node7</title>
<g id="a_Node000007"><a xlink:href="math_2external_2tiledarray_2fwd_8h.html" target="_top" xlink:title=" ">
<polygon fill="white" stroke="#666666" points="129.5,-151 13.5,-151 13.5,-121 129.5,-121 129.5,-151"/>
<text text-anchor="start" x="21.5" y="-139" font-family="FreeSans" font-size="10.00">mpqc/math/external</text>
<text text-anchor="middle" x="71.5" y="-128" font-family="FreeSans" font-size="10.00">/tiledarray/fwd.h</text>
</a>
</g>
</g>
<!-- Node6&#45;&gt;Node7 -->
<g id="edge6_Node000006_Node000007" class="edge">
<title>Node6&#45;&gt;Node7</title>
<g id="a_edge6_Node000006_Node000007"><a xlink:title=" ">
<path fill="none" stroke="#63b8ff" d="M464.51,-192.44C454.38,-190.52 443.57,-188.58 433.5,-187 306.19,-167.05 270.54,-172.25 139.56,-151.08"/>
<polygon fill="#63b8ff" stroke="#63b8ff" points="139.98,-147.6 129.55,-149.44 138.85,-154.51 139.98,-147.6"/>
</a>
</g>
</g>
<!-- Node8 -->
<g id="Node000008" class="node">
<title>Node8</title>
<g id="a_Node000008"><a xlink:title=" ">
<polygon fill="#e0e0e0" stroke="#999999" points="397,-19 280,-19 280,0 397,0 397,-19"/>
<text text-anchor="middle" x="338.5" y="-7" font-family="FreeSans" font-size="10.00">mpqc/mpqc_config.h</text>
</a>
</g>
</g>
<!-- Node6&#45;&gt;Node8 -->
<g id="edge9_Node000006_Node000008" class="edge">
<title>Node6&#45;&gt;Node8</title>
<g id="a_edge9_Node000006_Node000008"><a xlink:title=" ">
<path fill="none" stroke="#63b8ff" d="M462.58,-192.42C408.46,-181.44 322.39,-162.45 312.5,-151 284.55,-118.62 292.08,-95.62 305.5,-55 308.96,-44.54 315.93,-34.53 322.58,-26.66"/>
<polygon fill="#63b8ff" stroke="#63b8ff" points="325.36,-28.8 329.48,-19.04 320.17,-24.1 325.36,-28.8"/>
</a>
</g>
</g>
<!-- Node10 -->
<g id="Node000010" class="node">
<title>Node10</title>
<g id="a_Node000010"><a xlink:href="formio_8h.html" target="_top" xlink:title=" ">
<polygon fill="white" stroke="#666666" points="453,-145.5 322,-145.5 322,-126.5 453,-126.5 453,-145.5"/>
<text text-anchor="middle" x="387.5" y="-133.5" font-family="FreeSans" font-size="10.00">mpqc/util/core/formio.h</text>
</a>
</g>
</g>
<!-- Node6&#45;&gt;Node10 -->
<g id="edge10_Node000006_Node000010" class="edge">
<title>Node6&#45;&gt;Node10</title>
<g id="a_edge10_Node000006_Node000010"><a xlink:title=" ">
<path fill="none" stroke="#63b8ff" d="M490.45,-192.37C470.49,-181.63 436.18,-163.18 412.7,-150.55"/>
<polygon fill="#63b8ff" stroke="#63b8ff" points="414.14,-147.35 403.67,-145.7 410.82,-153.52 414.14,-147.35"/>
</a>
</g>
</g>
<!-- Node13 -->
<g id="Node000013" class="node">
<title>Node13</title>
<g id="a_Node000013"><a xlink:href="memory.html" target="_top" xlink:title=" ">
<polygon fill="white" stroke="#666666" points="618.5,-79.5 560.5,-79.5 560.5,-60.5 618.5,-60.5 618.5,-79.5"/>
<text text-anchor="middle" x="589.5" y="-67.5" font-family="FreeSans" font-size="10.00">memory</text>
</a>
</g>
</g>
<!-- Node6&#45;&gt;Node13 -->
<g id="edge20_Node000006_Node000013" class="edge">
<title>Node6&#45;&gt;Node13</title>
<g id="a_edge20_Node000006_Node000013"><a xlink:title=" ">
<path fill="none" stroke="#63b8ff" d="M545.56,-192.45C567.85,-185.36 593.98,-172.78 607.5,-151 619.43,-131.79 609.62,-105.62 600.47,-88.53"/>
<polygon fill="#63b8ff" stroke="#63b8ff" points="603.36,-86.53 595.32,-79.63 597.3,-90.04 603.36,-86.53"/>
</a>
</g>
</g>
<!-- Node16 -->
<g id="Node000016" class="node">
<title>Node16</title>
<g id="a_Node000016"><a xlink:title=" ">
<polygon fill="#e0e0e0" stroke="#999999" points="520,-145.5 471,-145.5 471,-126.5 520,-126.5 520,-145.5"/>
<text text-anchor="middle" x="495.5" y="-133.5" font-family="FreeSans" font-size="10.00">cstdlib</text>
</a>
</g>
</g>
<!-- Node6&#45;&gt;Node16 -->
<g id="edge18_Node000006_Node000016" class="edge">
<title>Node6&#45;&gt;Node16</title>
<g id="a_edge18_Node000006_Node000016"><a xlink:title=" ">
<path fill="none" stroke="#63b8ff" d="M505.02,-192.37C503.42,-183.07 500.82,-167.98 498.75,-155.9"/>
<polygon fill="#63b8ff" stroke="#63b8ff" points="502.17,-155.17 497.03,-145.91 495.28,-156.35 502.17,-155.17"/>
</a>
</g>
</g>
<!-- Node17 -->
<g id="Node000017" class="node">
<title>Node17</title>
<g id="a_Node000017"><a xlink:title=" ">
<polygon fill="#e0e0e0" stroke="#999999" points="598.5,-145.5 538.5,-145.5 538.5,-126.5 598.5,-126.5 598.5,-145.5"/>
<text text-anchor="middle" x="568.5" y="-133.5" font-family="FreeSans" font-size="10.00">iostream</text>
</a>
</g>
</g>
<!-- Node6&#45;&gt;Node17 -->
<g id="edge19_Node000006_Node000017" class="edge">
<title>Node6&#45;&gt;Node17</title>
<g id="a_edge19_Node000006_Node000017"><a xlink:title=" ">
<path fill="none" stroke="#63b8ff" d="M514.86,-192.37C524.51,-182.4 540.61,-165.79 552.65,-153.36"/>
<polygon fill="#63b8ff" stroke="#63b8ff" points="555.43,-155.52 559.87,-145.91 550.4,-150.65 555.43,-155.52"/>
</a>
</g>
</g>
<!-- Node18 -->
<g id="Node000018" class="node">
<title>Node18</title>
<g id="a_Node000018"><a xlink:title=" ">
<polygon fill="#e0e0e0" stroke="#999999" points="203.5,-145.5 147.5,-145.5 147.5,-126.5 203.5,-126.5 203.5,-145.5"/>
<text text-anchor="middle" x="175.5" y="-133.5" font-family="FreeSans" font-size="10.00">optional</text>
</a>
</g>
</g>
<!-- Node6&#45;&gt;Node18 -->
<g id="edge21_Node000006_Node000018" class="edge">
<title>Node6&#45;&gt;Node18</title>
<g id="a_edge21_Node000006_Node000018"><a xlink:title=" ">
<path fill="none" stroke="#63b8ff" d="M462.92,-192.43C453.24,-190.59 443.03,-188.69 433.5,-187 335.51,-169.63 308.63,-176.74 212.5,-151 210.2,-150.39 207.85,-149.68 205.51,-148.92"/>
<polygon fill="#63b8ff" stroke="#63b8ff" points="206.6,-145.6 196,-145.59 204.28,-152.2 206.6,-145.6"/>
</a>
</g>
</g>
<!-- Node19 -->
<g id="Node000019" class="node">
<title>Node19</title>
<g id="a_Node000019"><a xlink:title=" ">
<polygon fill="#e0e0e0" stroke="#999999" points="265,-145.5 222,-145.5 222,-126.5 265,-126.5 265,-145.5"/>
<text text-anchor="middle" x="243.5" y="-133.5" font-family="FreeSans" font-size="10.00">stack</text>
</a>
</g>
</g>
<!-- Node6&#45;&gt;Node19 -->
<g id="edge22_Node000006_Node000019" class="edge">
<title>Node6&#45;&gt;Node19</title>
<g id="a_edge22_Node000006_Node000019"><a xlink:title=" ">
<path fill="none" stroke="#63b8ff" d="M463.81,-192.42C408.04,-181.06 313.49,-161.29 279.5,-151 277.57,-150.42 275.61,-149.78 273.63,-149.11"/>
<polygon fill="#63b8ff" stroke="#63b8ff" points="274.46,-145.68 263.87,-145.55 272.07,-152.26 274.46,-145.68"/>
</a>
</g>
</g>
<!-- Node20 -->
<g id="Node000020" class="node">
<title>Node20</title>
<g id="a_Node000020"><a xlink:title=" ">
<polygon fill="#e0e0e0" stroke="#999999" points="766,-19 719,-19 719,0 766,0 766,-19"/>
<text text-anchor="middle" x="742.5" y="-7" font-family="FreeSans" font-size="10.00">vector</text>
</a>
</g>
</g>
<!-- Node6&#45;&gt;Node20 -->
<g id="edge23_Node000006_Node000020" class="edge">
<title>Node6&#45;&gt;Node20</title>
<g id="a_edge23_Node000006_Node000020"><a xlink:title=" ">
<path fill="none" stroke="#63b8ff" d="M536.86,-192.34C561.73,-184.28 597.02,-170.55 623.5,-151 671.56,-115.52 712.86,-56.97 731.67,-27.94"/>
<polygon fill="#63b8ff" stroke="#63b8ff" points="734.75,-29.62 737.16,-19.3 728.84,-25.86 734.75,-29.62"/>
</a>
</g>
</g>
<!-- Node7&#45;&gt;Node8 -->
<g id="edge7_Node000007_Node000008" class="edge">
<title>Node7&#45;&gt;Node8</title>
<g id="a_edge7_Node000007_Node000008"><a xlink:title=" ">
<path fill="none" stroke="#63b8ff" d="M70.54,-120.89C70.16,-102.89 72.45,-72.07 90.5,-55 115.8,-31.07 205.57,-19.69 269.83,-14.51"/>
<polygon fill="#63b8ff" stroke="#63b8ff" points="270.21,-17.99 279.91,-13.73 269.67,-11.01 270.21,-17.99"/>
</a>
</g>
</g>
<!-- Node9 -->
<g id="Node000009" class="node">
<title>Node9</title>
<g id="a_Node000009"><a xlink:title=" ">
<polygon fill="#e0e0e0" stroke="#999999" points="195,-79.5 100,-79.5 100,-60.5 195,-60.5 195,-79.5"/>
<text text-anchor="middle" x="147.5" y="-67.5" font-family="FreeSans" font-size="10.00">tiledarray_fwd.h</text>
</a>
</g>
</g>
<!-- Node7&#45;&gt;Node9 -->
<g id="edge8_Node000007_Node000009" class="edge">
<title>Node7&#45;&gt;Node9</title>
<g id="a_edge8_Node000007_Node000009"><a xlink:title=" ">
<path fill="none" stroke="#63b8ff" d="M88.37,-120.8C100.45,-110.62 116.71,-96.93 129.12,-86.48"/>
<polygon fill="#63b8ff" stroke="#63b8ff" points="131.6,-88.96 137,-79.84 127.09,-83.61 131.6,-88.96"/>
</a>
</g>
</g>
<!-- Node11 -->
<g id="Node000011" class="node">
<title>Node11</title>
<g id="a_Node000011"><a xlink:title=" ">
<polygon fill="#e0e0e0" stroke="#999999" points="418.5,-79.5 370.5,-79.5 370.5,-60.5 418.5,-60.5 418.5,-79.5"/>
<text text-anchor="middle" x="394.5" y="-67.5" font-family="FreeSans" font-size="10.00">iosfwd</text>
</a>
</g>
</g>
<!-- Node10&#45;&gt;Node11 -->
<g id="edge11_Node000010_Node000011" class="edge">
<title>Node10&#45;&gt;Node11</title>
<g id="a_edge11_Node000010_Node000011"><a xlink:title=" ">
<path fill="none" stroke="#63b8ff" d="M388.44,-126.37C389.46,-117.07 391.11,-101.98 392.43,-89.9"/>
<polygon fill="#63b8ff" stroke="#63b8ff" points="395.92,-90.23 393.53,-79.91 388.96,-89.47 395.92,-90.23"/>
</a>
</g>
</g>
<!-- Node12 -->
<g id="Node000012" class="node">
<title>Node12</title>
<g id="a_Node000012"><a xlink:title=" ">
<polygon fill="#e0e0e0" stroke="#999999" points="352.5,-79.5 314.5,-79.5 314.5,-60.5 352.5,-60.5 352.5,-79.5"/>
<text text-anchor="middle" x="333.5" y="-67.5" font-family="FreeSans" font-size="10.00">map</text>
</a>
</g>
</g>
<!-- Node10&#45;&gt;Node12 -->
<g id="edge12_Node000010_Node000012" class="edge">
<title>Node10&#45;&gt;Node12</title>
<g id="a_edge12_Node000010_Node000012"><a xlink:title=" ">
<path fill="none" stroke="#63b8ff" d="M380.22,-126.37C371.89,-116.5 358.06,-100.11 347.61,-87.72"/>
<polygon fill="#63b8ff" stroke="#63b8ff" points="350.14,-85.29 341.01,-79.91 344.79,-89.81 350.14,-85.29"/>
</a>
</g>
</g>
<!-- Node10&#45;&gt;Node13 -->
<g id="edge13_Node000010_Node000013" class="edge">
<title>Node10&#45;&gt;Node13</title>
<g id="a_edge13_Node000010_Node000013"><a xlink:title=" ">
<path fill="none" stroke="#63b8ff" d="M417.29,-126.47C450.28,-116.9 504.95,-100.66 551.5,-85 553.4,-84.36 555.35,-83.69 557.31,-83"/>
<polygon fill="#63b8ff" stroke="#63b8ff" points="558.84,-86.17 567.07,-79.5 556.48,-79.58 558.84,-86.17"/>
</a>
</g>
</g>
<!-- Node14 -->
<g id="Node000014" class="node">
<title>Node14</title>
<g id="a_Node000014"><a xlink:href="scope.html" target="_top" xlink:title=" ">
<polygon fill="white" stroke="#666666" points="542.5,-85 436.5,-85 436.5,-55 542.5,-55 542.5,-85"/>
<text text-anchor="start" x="444.5" y="-73" font-family="FreeSans" font-size="10.00">mpqc/util/external</text>
<text text-anchor="middle" x="489.5" y="-62" font-family="FreeSans" font-size="10.00">/c++/scope</text>
</a>
</g>
</g>
<!-- Node10&#45;&gt;Node14 -->
<g id="edge15_Node000010_Node000014" class="edge">
<title>Node10&#45;&gt;Node14</title>
<g id="a_edge15_Node000010_Node000014"><a xlink:title=" ">
<path fill="none" stroke="#63b8ff" d="M401.26,-126.37C415.81,-117.24 439.26,-102.53 458.33,-90.56"/>
<polygon fill="#63b8ff" stroke="#63b8ff" points="460.39,-93.4 467,-85.12 456.67,-87.47 460.39,-93.4"/>
</a>
</g>
</g>
<!-- Node13&#45;&gt;Node13 -->
<g id="edge14_Node000013_Node000013" class="edge">
<title>Node13&#45;&gt;Node13</title>
<g id="a_edge14_Node000013_Node000013"><a xlink:title=" ">
<path fill="none" stroke="#63b8ff" d="M606.85,-79.53C621.35,-83.61 636.5,-80.43 636.5,-70 636.5,-62.01 627.62,-58.28 616.95,-58.8"/>
<polygon fill="#63b8ff" stroke="#63b8ff" points="616.15,-55.38 606.85,-60.47 617.29,-62.29 616.15,-55.38"/>
</a>
</g>
</g>
<!-- Node14&#45;&gt;Node8 -->
<g id="edge16_Node000014_Node000008" class="edge">
<title>Node14&#45;&gt;Node8</title>
<g id="a_edge16_Node000014_Node000008"><a xlink:title=" ">
<path fill="none" stroke="#63b8ff" d="M453.33,-54.99C428.03,-45.18 394.54,-32.21 370.26,-22.81"/>
<polygon fill="#63b8ff" stroke="#63b8ff" points="371.39,-19.49 360.8,-19.14 368.86,-26.02 371.39,-19.49"/>
</a>
</g>
</g>
<!-- Node15 -->
<g id="Node000015" class="node">
<title>Node15</title>
<g id="a_Node000015"><a xlink:title=" ">
<polygon fill="#e0e0e0" stroke="#999999" points="512,-19 467,-19 467,0 512,0 512,-19"/>
<text text-anchor="middle" x="489.5" y="-7" font-family="FreeSans" font-size="10.00">utility</text>
</a>
</g>
</g>
<!-- Node14&#45;&gt;Node15 -->
<g id="edge17_Node000014_Node000015" class="edge">
<title>Node14&#45;&gt;Node15</title>
<g id="a_edge17_Node000014_Node000015"><a xlink:title=" ">
<path fill="none" stroke="#63b8ff" d="M489.5,-54.84C489.5,-47.21 489.5,-37.7 489.5,-29.45"/>
<polygon fill="#63b8ff" stroke="#63b8ff" points="493,-29.27 489.5,-19.27 486,-29.27 493,-29.27"/>
</a>
</g>
</g>
<!-- Node21&#45;&gt;Node8 -->
<g id="edge25_Node000021_Node000008" class="edge">
<title>Node21&#45;&gt;Node8</title>
<g id="a_edge25_Node000021_Node000008"><a xlink:title=" ">
<path fill="none" stroke="#63b8ff" d="M656.3,-192.36C663.81,-167.38 681.48,-94.34 645.5,-55 629.65,-37.67 492.9,-23.3 407.35,-15.9"/>
<polygon fill="#63b8ff" stroke="#63b8ff" points="407.44,-12.39 397.18,-15.03 406.84,-19.37 407.44,-12.39"/>
</a>
</g>
</g>
<!-- Node22 -->
<g id="Node000022" class="node">
<title>Node22</title>
<g id="a_Node000022"><a xlink:title=" ">
<polygon fill="#e0e0e0" stroke="#999999" points="782.5,-145.5 730.5,-145.5 730.5,-126.5 782.5,-126.5 782.5,-145.5"/>
<text text-anchor="middle" x="756.5" y="-133.5" font-family="FreeSans" font-size="10.00">cassert</text>
</a>
</g>
</g>
<!-- Node21&#45;&gt;Node22 -->
<g id="edge26_Node000021_Node000022" class="edge">
<title>Node21&#45;&gt;Node22</title>
<g id="a_edge26_Node000021_Node000022"><a xlink:title=" ">
<path fill="none" stroke="#63b8ff" d="M667.39,-192.37C684.44,-181.78 713.57,-163.67 733.87,-151.06"/>
<polygon fill="#63b8ff" stroke="#63b8ff" points="735.85,-153.95 742.5,-145.7 732.16,-148 735.85,-153.95"/>
</a>
</g>
</g>
<!-- Node23 -->
<g id="Node000023" class="node">
<title>Node23</title>
<g id="a_Node000023"><a xlink:href="exception_8h.html" target="_top" xlink:title=" ">
<polygon fill="white" stroke="#666666" points="946.5,-145.5 800.5,-145.5 800.5,-126.5 946.5,-126.5 946.5,-145.5"/>
<text text-anchor="middle" x="873.5" y="-133.5" font-family="FreeSans" font-size="10.00">mpqc/util/core/exception.h</text>
</a>
</g>
</g>
<!-- Node21&#45;&gt;Node23 -->
<g id="edge27_Node000021_Node000023" class="edge">
<title>Node21&#45;&gt;Node23</title>
<g id="a_edge27_Node000021_Node000023"><a xlink:title=" ">
<path fill="none" stroke="#63b8ff" d="M683.17,-192.37C722.23,-181 791.01,-161 834.32,-148.4"/>
<polygon fill="#63b8ff" stroke="#63b8ff" points="835.33,-151.75 843.95,-145.6 833.37,-145.03 835.33,-151.75"/>
</a>
</g>
</g>
<!-- Node23&#45;&gt;Node13 -->
<g id="edge29_Node000023_Node000013" class="edge">
<title>Node23&#45;&gt;Node13</title>
<g id="a_edge29_Node000023_Node000013"><a xlink:title=" ">
<path fill="none" stroke="#63b8ff" d="M835.49,-126.44C781.53,-114.28 683.23,-92.12 628.65,-79.82"/>
<polygon fill="#63b8ff" stroke="#63b8ff" points="629.19,-76.36 618.67,-77.57 627.65,-83.19 629.19,-76.36"/>
</a>
</g>
</g>
<!-- Node23&#45;&gt;Node20 -->
<g id="edge32_Node000023_Node000020" class="edge">
<title>Node23&#45;&gt;Node20</title>
<g id="a_edge32_Node000023_Node000020"><a xlink:title=" ">
<path fill="none" stroke="#63b8ff" d="M834.4,-126.45C810.4,-119.26 780.85,-106.57 762.5,-85 749.24,-69.42 744.69,-45.91 743.17,-29.48"/>
<polygon fill="#63b8ff" stroke="#63b8ff" points="746.66,-29.18 742.53,-19.42 739.67,-29.62 746.66,-29.18"/>
</a>
</g>
</g>
<!-- Node24 -->
<g id="Node000024" class="node">
<title>Node24</title>
<g id="a_Node000024"><a xlink:title=" ">
<polygon fill="#e0e0e0" stroke="#999999" points="824,-79.5 771,-79.5 771,-60.5 824,-60.5 824,-79.5"/>
<text text-anchor="middle" x="797.5" y="-67.5" font-family="FreeSans" font-size="10.00">string.h</text>
</a>
</g>
</g>
<!-- Node23&#45;&gt;Node24 -->
<g id="edge28_Node000023_Node000024" class="edge">
<title>Node23&#45;&gt;Node24</title>
<g id="a_edge28_Node000023_Node000024"><a xlink:title=" ">
<path fill="none" stroke="#63b8ff" d="M863.25,-126.37C851.19,-116.21 830.94,-99.16 816.09,-86.65"/>
<polygon fill="#63b8ff" stroke="#63b8ff" points="817.98,-83.67 808.07,-79.91 813.47,-89.02 817.98,-83.67"/>
</a>
</g>
</g>
<!-- Node25 -->
<g id="Node000025" class="node">
<title>Node25</title>
<g id="a_Node000025"><a xlink:title=" ">
<polygon fill="#e0e0e0" stroke="#999999" points="898.5,-79.5 842.5,-79.5 842.5,-60.5 898.5,-60.5 898.5,-79.5"/>
<text text-anchor="middle" x="870.5" y="-67.5" font-family="FreeSans" font-size="10.00">sstream</text>
</a>
</g>
</g>
<!-- Node23&#45;&gt;Node25 -->
<g id="edge30_Node000023_Node000025" class="edge">
<title>Node23&#45;&gt;Node25</title>
<g id="a_edge30_Node000023_Node000025"><a xlink:title=" ">
<path fill="none" stroke="#63b8ff" d="M873.1,-126.37C872.66,-117.07 871.95,-101.98 871.39,-89.9"/>
<polygon fill="#63b8ff" stroke="#63b8ff" points="874.88,-89.73 870.92,-79.91 867.89,-90.06 874.88,-89.73"/>
</a>
</g>
</g>
<!-- Node26 -->
<g id="Node000026" class="node">
<title>Node26</title>
<g id="a_Node000026"><a xlink:title=" ">
<polygon fill="#e0e0e0" stroke="#999999" points="982,-79.5 917,-79.5 917,-60.5 982,-60.5 982,-79.5"/>
<text text-anchor="middle" x="949.5" y="-67.5" font-family="FreeSans" font-size="10.00">stdexcept</text>
</a>
</g>
</g>
<!-- Node23&#45;&gt;Node26 -->
<g id="edge31_Node000023_Node000026" class="edge">
<title>Node23&#45;&gt;Node26</title>
<g id="a_edge31_Node000023_Node000026"><a xlink:title=" ">
<path fill="none" stroke="#63b8ff" d="M883.75,-126.37C895.81,-116.21 916.06,-99.16 930.91,-86.65"/>
<polygon fill="#63b8ff" stroke="#63b8ff" points="933.53,-89.02 938.93,-79.91 929.02,-83.67 933.53,-89.02"/>
</a>
</g>
</g>
<!-- Node27 -->
<g id="Node000027" class="node">
<title>Node27</title>
<g id="a_Node000027"><a xlink:href="backtrace_8h.html" target="_top" xlink:title=" ">
<polygon fill="white" stroke="#666666" points="1146.5,-79.5 1000.5,-79.5 1000.5,-60.5 1146.5,-60.5 1146.5,-79.5"/>
<text text-anchor="middle" x="1073.5" y="-67.5" font-family="FreeSans" font-size="10.00">mpqc/util/core/backtrace.h</text>
</a>
</g>
</g>
<!-- Node23&#45;&gt;Node27 -->
<g id="edge33_Node000023_Node000027" class="edge">
<title>Node23&#45;&gt;Node27</title>
<g id="a_edge33_Node000023_Node000027"><a xlink:title=" ">
<path fill="none" stroke="#63b8ff" d="M900.47,-126.37C935.69,-115.1 997.46,-95.33 1036.88,-82.72"/>
<polygon fill="#63b8ff" stroke="#63b8ff" points="1038.18,-85.98 1046.64,-79.6 1036.04,-79.31 1038.18,-85.98"/>
</a>
</g>
</g>
<!-- Node27&#45;&gt;Node20 -->
<g id="edge35_Node000027_Node000020" class="edge">
<title>Node27&#45;&gt;Node20</title>
<g id="a_edge35_Node000027_Node000020"><a xlink:title=" ">
<path fill="none" stroke="#63b8ff" d="M1025.37,-60.49C957.37,-48.48 834.92,-26.83 775.98,-16.42"/>
<polygon fill="#63b8ff" stroke="#63b8ff" points="776.54,-12.96 766.08,-14.67 775.32,-19.85 776.54,-12.96"/>
</a>
</g>
</g>
<!-- Node28 -->
<g id="Node000028" class="node">
<title>Node28</title>
<g id="a_Node000028"><a xlink:title=" ">
<polygon fill="#e0e0e0" stroke="#999999" points="1095.5,-19 1051.5,-19 1051.5,0 1095.5,0 1095.5,-19"/>
<text text-anchor="middle" x="1073.5" y="-7" font-family="FreeSans" font-size="10.00">string</text>
</a>
</g>
</g>
<!-- Node27&#45;&gt;Node28 -->
<g id="edge34_Node000027_Node000028" class="edge">
<title>Node27&#45;&gt;Node28</title>
<g id="a_edge34_Node000027_Node000028"><a xlink:title=" ">
<path fill="none" stroke="#63b8ff" d="M1073.5,-60.37C1073.5,-52.25 1073.5,-39.81 1073.5,-29.39"/>
<polygon fill="#63b8ff" stroke="#63b8ff" points="1077,-29.17 1073.5,-19.17 1070,-29.17 1077,-29.17"/>
</a>
</g>
</g>
</g>
</svg>

<g id="navigator" transform="translate(0 0)" fill="#404254">
  <rect fill="#f2f5e9" fill-opacity="0.5" stroke="#606060" stroke-width=".5" x="0" y="0" width="60" height="60"/>
  <use id="zoomplus" xlink:href="#zoomPlus" x="17" y="9" onmousedown="handleZoom(evt,'in')"/>
  <use id="zoomminus" xlink:href="#zoomMin" x="42" y="9" onmousedown="handleZoom(evt,'out')"/>
  <use id="reset" xlink:href="#resetDef" x="30" y="36" onmousedown="handleReset()"/>
   <use id="arrowup" xlink:href="#arrowUp" x="0" y="0" onmousedown="handlePan(0,-1)"/>
  <use id="arrowright" xlink:href="#arrowRight" x="0" y="0" onmousedown="handlePan(1,0)"/>
  <use id="arrowdown" xlink:href="#arrowDown" x="0" y="0" onmousedown="handlePan(0,1)"/>
  <use id="arrowleft" xlink:href="#arrowLeft" x="0" y="0" onmousedown="handlePan(-1,0)"/>
</g>
<svg viewBox="0 0 15 15" width="100%" height="30px" preserveAspectRatio="xMaxYMin meet">
 <g id="arrow_out" transform="scale(0.3 0.3)">
  <a xlink:href="_h__bar__expression_8cpp__incl_org.svg" target="_base">
   <rect id="button" ry="5" rx="5" y="6" x="6" height="38" width="38"
        fill="#f2f5e9" fill-opacity="0.5" stroke="#606060" stroke-width="1.0"/>
   <path id="arrow"
     d="M 11.500037,31.436501 C 11.940474,20.09759 22.043105,11.32322 32.158766,21.979434 L 37.068811,17.246167 C 37.068811,17.246167 37.088388,32 37.088388,32 L 22.160133,31.978069 C 22.160133,31.978069 26.997745,27.140456 26.997745,27.140456 C 18.528582,18.264221 13.291696,25.230495 11.500037,31.436501 z"
     style="fill:#404040;"/>
  </a>
 </g>
</svg>

<style type='text/css'>
<![CDATA[
[data-mouse-over-selected='false'] { opacity: 0.7; }
[data-mouse-over-selected='true']  { opacity: 1.0; }
]]>
</style>
<script type="application/ecmascript"><![CDATA[
document.addEventListener('DOMContentLoaded', (event) => {
  highlightEdges();
  highlightAdjacentNodes();
});
]]></script>
</svg>
