<?xml version="1.0" encoding="UTF-8" standalone="no"?>
<!DOCTYPE svg PUBLIC "-//W3C//DTD SVG 1.1//EN"
 "http://www.w3.org/Graphics/SVG/1.1/DTD/svg11.dtd">
<!-- Generated by graphviz version 2.43.0 (0)
 -->
<!-- Title: mpqc/math/quadrature/ahrens_beylkin_impl_6_0.cpp Pages: 1 -->
<svg width="261pt" height="170pt"
 viewBox="0.00 0.00 260.50 170.00" xmlns="http://www.w3.org/2000/svg" xmlns:xlink="http://www.w3.org/1999/xlink">
<g id="graph0" class="graph" transform="scale(1 1) rotate(0) translate(4 166)">
<title>mpqc/math/quadrature/ahrens_beylkin_impl_6_0.cpp</title>
<!-- Node1 -->
<g id="Node000001" class="node">
<title>Node1</title>
<g id="a_Node000001"><a xlink:title=" ">
<polygon fill="#999999" stroke="#666666" points="209,-162 81,-162 81,-121 209,-121 209,-162"/>
<text text-anchor="start" x="89" y="-150" font-family="FreeSans" font-size="10.00">mpqc/math/quadrature</text>
<text text-anchor="start" x="89" y="-139" font-family="FreeSans" font-size="10.00">/ahrens_beylkin_impl</text>
<text text-anchor="middle" x="145" y="-128" font-family="FreeSans" font-size="10.00">_6_0.cpp</text>
</a>
</g>
</g>
<!-- Node2 -->
<g id="Node000002" class="node">
<title>Node2</title>
<g id="a_Node000002"><a xlink:href="ahrens__beylkin_8h.html" target="_top" xlink:title=" ">
<polygon fill="white" stroke="#666666" points="163,-85 35,-85 35,-55 163,-55 163,-85"/>
<text text-anchor="start" x="43" y="-73" font-family="FreeSans" font-size="10.00">mpqc/math/quadrature</text>
<text text-anchor="middle" x="99" y="-62" font-family="FreeSans" font-size="10.00">/ahrens_beylkin.h</text>
</a>
</g>
</g>
<!-- Node1&#45;&gt;Node2 -->
<g id="edge1_Node000001_Node000002" class="edge">
<title>Node1&#45;&gt;Node2</title>
<g id="a_edge1_Node000001_Node000002"><a xlink:title=" ">
<path fill="none" stroke="#63b8ff" d="M131.94,-120.77C126.34,-112.31 119.77,-102.38 113.98,-93.63"/>
<polygon fill="#63b8ff" stroke="#63b8ff" points="116.73,-91.45 108.29,-85.04 110.89,-95.31 116.73,-91.45"/>
</a>
</g>
</g>
<!-- Node3 -->
<g id="Node000003" class="node">
<title>Node3</title>
<g id="a_Node000003"><a xlink:title=" ">
<polygon fill="#e0e0e0" stroke="#999999" points="42,-19 0,-19 0,0 42,0 42,-19"/>
<text text-anchor="middle" x="21" y="-7" font-family="FreeSans" font-size="10.00">array</text>
</a>
</g>
</g>
<!-- Node1&#45;&gt;Node3 -->
<g id="edge6_Node000001_Node000003" class="edge">
<title>Node1&#45;&gt;Node3</title>
<g id="a_edge6_Node000001_Node000003"><a xlink:title=" ">
<path fill="none" stroke="#63b8ff" d="M80.95,-124.86C60.07,-116.51 38.95,-103.9 26,-85 14.81,-68.67 15.19,-45.3 17.32,-29.11"/>
<polygon fill="#63b8ff" stroke="#63b8ff" points="20.78,-29.66 18.96,-19.22 13.87,-28.52 20.78,-29.66"/>
</a>
</g>
</g>
<!-- Node5 -->
<g id="Node000005" class="node">
<title>Node5</title>
<g id="a_Node000005"><a xlink:title=" ">
<polygon fill="#e0e0e0" stroke="#999999" points="187.5,-19 142.5,-19 142.5,0 187.5,0 187.5,-19"/>
<text text-anchor="middle" x="165" y="-7" font-family="FreeSans" font-size="10.00">utility</text>
</a>
</g>
</g>
<!-- Node1&#45;&gt;Node5 -->
<g id="edge7_Node000001_Node000005" class="edge">
<title>Node1&#45;&gt;Node5</title>
<g id="a_edge7_Node000001_Node000005"><a xlink:title=" ">
<path fill="none" stroke="#63b8ff" d="M157.32,-120.76C163,-110.51 169.11,-97.53 172,-85 176.32,-66.26 173.3,-44.27 169.99,-29.07"/>
<polygon fill="#63b8ff" stroke="#63b8ff" points="173.38,-28.23 167.62,-19.34 166.58,-29.88 173.38,-28.23"/>
</a>
</g>
</g>
<!-- Node6 -->
<g id="Node000006" class="node">
<title>Node6</title>
<g id="a_Node000006"><a xlink:title=" ">
<polygon fill="#e0e0e0" stroke="#999999" points="252.5,-19 205.5,-19 205.5,0 252.5,0 252.5,-19"/>
<text text-anchor="middle" x="229" y="-7" font-family="FreeSans" font-size="10.00">vector</text>
</a>
</g>
</g>
<!-- Node1&#45;&gt;Node6 -->
<g id="edge8_Node000001_Node000006" class="edge">
<title>Node1&#45;&gt;Node6</title>
<g id="a_edge8_Node000001_Node000006"><a xlink:title=" ">
<path fill="none" stroke="#63b8ff" d="M160.83,-120.93C169,-110.51 178.91,-97.33 187,-85 199.29,-66.26 211.69,-43.72 219.8,-28.38"/>
<polygon fill="#63b8ff" stroke="#63b8ff" points="222.93,-29.93 224.46,-19.44 216.73,-26.69 222.93,-29.93"/>
</a>
</g>
</g>
<!-- Node2&#45;&gt;Node3 -->
<g id="edge2_Node000002_Node000003" class="edge">
<title>Node2&#45;&gt;Node3</title>
<g id="a_edge2_Node000002_Node000003"><a xlink:title=" ">
<path fill="none" stroke="#63b8ff" d="M80.12,-54.84C68.22,-45.91 52.88,-34.41 40.8,-25.35"/>
<polygon fill="#63b8ff" stroke="#63b8ff" points="42.79,-22.47 32.69,-19.27 38.59,-28.07 42.79,-22.47"/>
</a>
</g>
</g>
<!-- Node4 -->
<g id="Node000004" class="node">
<title>Node4</title>
<g id="a_Node000004"><a xlink:title=" ">
<polygon fill="#e0e0e0" stroke="#999999" points="124,-19 74,-19 74,0 124,0 124,-19"/>
<text text-anchor="middle" x="99" y="-7" font-family="FreeSans" font-size="10.00">cstdint</text>
</a>
</g>
</g>
<!-- Node2&#45;&gt;Node4 -->
<g id="edge3_Node000002_Node000004" class="edge">
<title>Node2&#45;&gt;Node4</title>
<g id="a_edge3_Node000002_Node000004"><a xlink:title=" ">
<path fill="none" stroke="#63b8ff" d="M99,-54.84C99,-47.21 99,-37.7 99,-29.45"/>
<polygon fill="#63b8ff" stroke="#63b8ff" points="102.5,-29.27 99,-19.27 95.5,-29.27 102.5,-29.27"/>
</a>
</g>
</g>
<!-- Node2&#45;&gt;Node5 -->
<g id="edge4_Node000002_Node000005" class="edge">
<title>Node2&#45;&gt;Node5</title>
<g id="a_edge4_Node000002_Node000005"><a xlink:title=" ">
<path fill="none" stroke="#63b8ff" d="M114.98,-54.84C124.75,-46.17 137.27,-35.08 147.34,-26.15"/>
<polygon fill="#63b8ff" stroke="#63b8ff" points="149.95,-28.52 155.11,-19.27 145.31,-23.28 149.95,-28.52"/>
</a>
</g>
</g>
<!-- Node2&#45;&gt;Node6 -->
<g id="edge5_Node000002_Node000006" class="edge">
<title>Node2&#45;&gt;Node6</title>
<g id="a_edge5_Node000002_Node000006"><a xlink:title=" ">
<path fill="none" stroke="#63b8ff" d="M130.14,-54.99C151.54,-45.36 179.73,-32.67 200.53,-23.31"/>
<polygon fill="#63b8ff" stroke="#63b8ff" points="202.12,-26.43 209.8,-19.14 199.25,-20.05 202.12,-26.43"/>
</a>
</g>
</g>
</g>
</svg>
