<?xml version="1.0" encoding="UTF-8" standalone="no"?>
<!DOCTYPE svg PUBLIC "-//W3C//DTD SVG 1.1//EN"
 "http://www.w3.org/Graphics/SVG/1.1/DTD/svg11.dtd">
<!-- Generated by graphviz version 2.43.0 (0)
 -->
<!-- Title: mpqc/math/quadrature/ahrens_beylkin.h Pages: 1 -->
<svg width="247pt" height="93pt"
 viewBox="0.00 0.00 246.50 93.00" xmlns="http://www.w3.org/2000/svg" xmlns:xlink="http://www.w3.org/1999/xlink">
<g id="graph0" class="graph" transform="scale(1 1) rotate(0) translate(4 89)">
<title>mpqc/math/quadrature/ahrens_beylkin.h</title>
<!-- Node1 -->
<g id="Node000001" class="node">
<title>Node1</title>
<g id="a_Node000001"><a xlink:title=" ">
<polygon fill="#999999" stroke="#666666" points="182,-85 54,-85 54,-55 182,-55 182,-85"/>
<text text-anchor="start" x="62" y="-73" font-family="FreeSans" font-size="10.00">mpqc/math/quadrature</text>
<text text-anchor="middle" x="118" y="-62" font-family="FreeSans" font-size="10.00">/ahrens_beylkin.h</text>
</a>
</g>
</g>
<!-- Node2 -->
<g id="Node000002" class="node">
<title>Node2</title>
<g id="a_Node000002"><a xlink:title=" ">
<polygon fill="#e0e0e0" stroke="#999999" points="42,-19 0,-19 0,0 42,0 42,-19"/>
<text text-anchor="middle" x="21" y="-7" font-family="FreeSans" font-size="10.00">array</text>
</a>
</g>
</g>
<!-- Node1&#45;&gt;Node2 -->
<g id="edge1_Node000001_Node000002" class="edge">
<title>Node1&#45;&gt;Node2</title>
<g id="a_edge1_Node000001_Node000002"><a xlink:title=" ">
<path fill="none" stroke="#63b8ff" d="M94.52,-54.84C79.2,-45.6 59.29,-33.59 44.05,-24.4"/>
<polygon fill="#63b8ff" stroke="#63b8ff" points="45.62,-21.26 35.25,-19.09 42.01,-27.26 45.62,-21.26"/>
</a>
</g>
</g>
<!-- Node3 -->
<g id="Node000003" class="node">
<title>Node3</title>
<g id="a_Node000003"><a xlink:title=" ">
<polygon fill="#e0e0e0" stroke="#999999" points="110,-19 60,-19 60,0 110,0 110,-19"/>
<text text-anchor="middle" x="85" y="-7" font-family="FreeSans" font-size="10.00">cstdint</text>
</a>
</g>
</g>
<!-- Node1&#45;&gt;Node3 -->
<g id="edge2_Node000001_Node000003" class="edge">
<title>Node1&#45;&gt;Node3</title>
<g id="a_edge2_Node000001_Node000003"><a xlink:title=" ">
<path fill="none" stroke="#63b8ff" d="M110.01,-54.84C105.47,-46.78 99.73,-36.62 94.9,-28.06"/>
<polygon fill="#63b8ff" stroke="#63b8ff" points="97.91,-26.26 89.94,-19.27 91.81,-29.7 97.91,-26.26"/>
</a>
</g>
</g>
<!-- Node4 -->
<g id="Node000004" class="node">
<title>Node4</title>
<g id="a_Node000004"><a xlink:title=" ">
<polygon fill="#e0e0e0" stroke="#999999" points="173.5,-19 128.5,-19 128.5,0 173.5,0 173.5,-19"/>
<text text-anchor="middle" x="151" y="-7" font-family="FreeSans" font-size="10.00">utility</text>
</a>
</g>
</g>
<!-- Node1&#45;&gt;Node4 -->
<g id="edge3_Node000001_Node000004" class="edge">
<title>Node1&#45;&gt;Node4</title>
<g id="a_edge3_Node000001_Node000004"><a xlink:title=" ">
<path fill="none" stroke="#63b8ff" d="M125.99,-54.84C130.53,-46.78 136.27,-36.62 141.1,-28.06"/>
<polygon fill="#63b8ff" stroke="#63b8ff" points="144.19,-29.7 146.06,-19.27 138.09,-26.26 144.19,-29.7"/>
</a>
</g>
</g>
<!-- Node5 -->
<g id="Node000005" class="node">
<title>Node5</title>
<g id="a_Node000005"><a xlink:title=" ">
<polygon fill="#e0e0e0" stroke="#999999" points="238.5,-19 191.5,-19 191.5,0 238.5,0 238.5,-19"/>
<text text-anchor="middle" x="215" y="-7" font-family="FreeSans" font-size="10.00">vector</text>
</a>
</g>
</g>
<!-- Node1&#45;&gt;Node5 -->
<g id="edge4_Node000001_Node000005" class="edge">
<title>Node1&#45;&gt;Node5</title>
<g id="a_edge4_Node000001_Node000005"><a xlink:title=" ">
<path fill="none" stroke="#63b8ff" d="M141.48,-54.84C156.8,-45.6 176.71,-33.59 191.95,-24.4"/>
<polygon fill="#63b8ff" stroke="#63b8ff" points="193.99,-27.26 200.75,-19.09 190.38,-21.26 193.99,-27.26"/>
</a>
</g>
</g>
</g>
</svg>
