<?xml version="1.0" encoding="UTF-8" standalone="no"?>
<!DOCTYPE svg PUBLIC "-//W3C//DTD SVG 1.1//EN"
 "http://www.w3.org/Graphics/SVG/1.1/DTD/svg11.dtd">
<!-- Generated by graphviz version 2.43.0 (0)
 -->
<!-- Title: mpqc/math/quadrature/ahrens_beylkin.cpp Pages: 1 -->
<svg width="759pt" height="269pt"
 viewBox="0.00 0.00 759.13 269.00" xmlns="http://www.w3.org/2000/svg" xmlns:xlink="http://www.w3.org/1999/xlink">
<g id="graph0" class="graph" transform="scale(1 1) rotate(0) translate(4 265)">
<title>mpqc/math/quadrature/ahrens_beylkin.cpp</title>
<!-- Node1 -->
<g id="Node000001" class="node">
<title>Node1</title>
<g id="a_Node000001"><a xlink:title=" ">
<polygon fill="#999999" stroke="#666666" points="279.63,-261 151.63,-261 151.63,-231 279.63,-231 279.63,-261"/>
<text text-anchor="start" x="159.63" y="-249" font-family="FreeSans" font-size="10.00">mpqc/math/quadrature</text>
<text text-anchor="middle" x="215.63" y="-238" font-family="FreeSans" font-size="10.00">/ahrens_beylkin.cpp</text>
</a>
</g>
</g>
<!-- Node2 -->
<g id="Node000002" class="node">
<title>Node2</title>
<g id="a_Node000002"><a xlink:href="ahrens__beylkin_8h.html" target="_top" xlink:title=" ">
<polygon fill="white" stroke="#666666" points="128.63,-195 0.63,-195 0.63,-165 128.63,-165 128.63,-195"/>
<text text-anchor="start" x="8.63" y="-183" font-family="FreeSans" font-size="10.00">mpqc/math/quadrature</text>
<text text-anchor="middle" x="64.63" y="-172" font-family="FreeSans" font-size="10.00">/ahrens_beylkin.h</text>
</a>
</g>
</g>
<!-- Node1&#45;&gt;Node2 -->
<g id="edge1_Node000001_Node000002" class="edge">
<title>Node1&#45;&gt;Node2</title>
<g id="a_edge1_Node000001_Node000002"><a xlink:title=" ">
<path fill="none" stroke="#63b8ff" d="M182.5,-230.95C160.37,-221.58 131.06,-209.16 107.21,-199.05"/>
<polygon fill="#63b8ff" stroke="#63b8ff" points="108.27,-195.69 97.69,-195.01 105.54,-202.14 108.27,-195.69"/>
</a>
</g>
</g>
<!-- Node7 -->
<g id="Node000007" class="node">
<title>Node7</title>
<g id="a_Node000007"><a xlink:title=" ">
<polygon fill="#e0e0e0" stroke="#999999" points="350.13,-189.5 303.13,-189.5 303.13,-170.5 350.13,-170.5 350.13,-189.5"/>
<text text-anchor="middle" x="326.63" y="-177.5" font-family="FreeSans" font-size="10.00">cmath</text>
</a>
</g>
</g>
<!-- Node1&#45;&gt;Node7 -->
<g id="edge6_Node000001_Node000007" class="edge">
<title>Node1&#45;&gt;Node7</title>
<g id="a_edge6_Node000001_Node000007"><a xlink:title=" ">
<path fill="none" stroke="#63b8ff" d="M239.99,-230.95C258.77,-220.13 284.59,-205.24 303.15,-194.54"/>
<polygon fill="#63b8ff" stroke="#63b8ff" points="304.95,-197.54 311.86,-189.52 301.45,-191.48 304.95,-197.54"/>
</a>
</g>
</g>
<!-- Node8 -->
<g id="Node000008" class="node">
<title>Node8</title>
<g id="a_Node000008"><a xlink:href="ahrens__beylkin__impl_8cpp.html" target="_top" xlink:title=" ">
<polygon fill="white" stroke="#666666" points="284.63,-189.5 146.63,-189.5 146.63,-170.5 284.63,-170.5 284.63,-189.5"/>
<text text-anchor="middle" x="215.63" y="-177.5" font-family="FreeSans" font-size="10.00">ahrens_beylkin_impl.cpp</text>
</a>
</g>
</g>
<!-- Node1&#45;&gt;Node8 -->
<g id="edge7_Node000001_Node000008" class="edge">
<title>Node1&#45;&gt;Node8</title>
<g id="a_edge7_Node000001_Node000008"><a xlink:title=" ">
<path fill="none" stroke="#63b8ff" d="M215.63,-230.8C215.63,-221.7 215.63,-209.79 215.63,-199.9"/>
<polygon fill="#63b8ff" stroke="#63b8ff" points="219.13,-199.84 215.63,-189.84 212.13,-199.84 219.13,-199.84"/>
</a>
</g>
</g>
<!-- Node3 -->
<g id="Node000003" class="node">
<title>Node3</title>
<g id="a_Node000003"><a xlink:title=" ">
<polygon fill="#e0e0e0" stroke="#999999" points="187.63,-129 145.63,-129 145.63,-110 187.63,-110 187.63,-129"/>
<text text-anchor="middle" x="166.63" y="-117" font-family="FreeSans" font-size="10.00">array</text>
</a>
</g>
</g>
<!-- Node2&#45;&gt;Node3 -->
<g id="edge2_Node000002_Node000003" class="edge">
<title>Node2&#45;&gt;Node3</title>
<g id="a_edge2_Node000002_Node000003"><a xlink:title=" ">
<path fill="none" stroke="#63b8ff" d="M89.07,-164.99C105.32,-155.66 126.58,-143.47 142.73,-134.21"/>
<polygon fill="#63b8ff" stroke="#63b8ff" points="144.64,-137.15 151.57,-129.14 141.16,-131.08 144.64,-137.15"/>
</a>
</g>
</g>
<!-- Node4 -->
<g id="Node000004" class="node">
<title>Node4</title>
<g id="a_Node000004"><a xlink:title=" ">
<polygon fill="#e0e0e0" stroke="#999999" points="63.63,-129 13.63,-129 13.63,-110 63.63,-110 63.63,-129"/>
<text text-anchor="middle" x="38.63" y="-117" font-family="FreeSans" font-size="10.00">cstdint</text>
</a>
</g>
</g>
<!-- Node2&#45;&gt;Node4 -->
<g id="edge3_Node000002_Node000004" class="edge">
<title>Node2&#45;&gt;Node4</title>
<g id="a_edge3_Node000002_Node000004"><a xlink:title=" ">
<path fill="none" stroke="#63b8ff" d="M58.34,-164.84C54.84,-156.95 50.44,-147.05 46.68,-138.61"/>
<polygon fill="#63b8ff" stroke="#63b8ff" points="49.79,-136.98 42.53,-129.27 43.39,-139.83 49.79,-136.98"/>
</a>
</g>
</g>
<!-- Node5 -->
<g id="Node000005" class="node">
<title>Node5</title>
<g id="a_Node000005"><a xlink:title=" ">
<polygon fill="#e0e0e0" stroke="#999999" points="127.13,-129 82.13,-129 82.13,-110 127.13,-110 127.13,-129"/>
<text text-anchor="middle" x="104.63" y="-117" font-family="FreeSans" font-size="10.00">utility</text>
</a>
</g>
</g>
<!-- Node2&#45;&gt;Node5 -->
<g id="edge4_Node000002_Node000005" class="edge">
<title>Node2&#45;&gt;Node5</title>
<g id="a_edge4_Node000002_Node000005"><a xlink:title=" ">
<path fill="none" stroke="#63b8ff" d="M74.32,-164.84C79.89,-156.69 86.93,-146.4 92.82,-137.78"/>
<polygon fill="#63b8ff" stroke="#63b8ff" points="95.89,-139.5 98.64,-129.27 90.11,-135.55 95.89,-139.5"/>
</a>
</g>
</g>
<!-- Node6 -->
<g id="Node000006" class="node">
<title>Node6</title>
<g id="a_Node000006"><a xlink:title=" ">
<polygon fill="#e0e0e0" stroke="#999999" points="384.13,-19 337.13,-19 337.13,0 384.13,0 384.13,-19"/>
<text text-anchor="middle" x="360.63" y="-7" font-family="FreeSans" font-size="10.00">vector</text>
</a>
</g>
</g>
<!-- Node2&#45;&gt;Node6 -->
<g id="edge5_Node000002_Node000006" class="edge">
<title>Node2&#45;&gt;Node6</title>
<g id="a_edge5_Node000002_Node000006"><a xlink:title=" ">
<path fill="none" stroke="#63b8ff" d="M37.9,-164.93C15.55,-151.31 -10.43,-129.85 4.63,-110 44.13,-57.96 246,-25.76 326.97,-14.76"/>
<polygon fill="#63b8ff" stroke="#63b8ff" points="327.67,-18.19 337.12,-13.4 326.74,-11.26 327.67,-18.19"/>
</a>
</g>
</g>
<!-- Node8&#45;&gt;Node3 -->
<g id="edge8_Node000008_Node000003" class="edge">
<title>Node8&#45;&gt;Node3</title>
<g id="a_edge8_Node000008_Node000003"><a xlink:title=" ">
<path fill="none" stroke="#63b8ff" d="M208.4,-170.37C201.09,-161.64 189.61,-147.93 180.53,-137.09"/>
<polygon fill="#63b8ff" stroke="#63b8ff" points="183,-134.59 173.89,-129.17 177.63,-139.08 183,-134.59"/>
</a>
</g>
</g>
<!-- Node8&#45;&gt;Node5 -->
<g id="edge10_Node000008_Node000005" class="edge">
<title>Node8&#45;&gt;Node5</title>
<g id="a_edge10_Node000008_Node000005"><a xlink:title=" ">
<path fill="none" stroke="#63b8ff" d="M199.26,-170.37C181.06,-160.78 151.44,-145.17 130.19,-133.97"/>
<polygon fill="#63b8ff" stroke="#63b8ff" points="131.56,-130.73 121.08,-129.17 128.29,-136.93 131.56,-130.73"/>
</a>
</g>
</g>
<!-- Node8&#45;&gt;Node6 -->
<g id="edge11_Node000008_Node000006" class="edge">
<title>Node8&#45;&gt;Node6</title>
<g id="a_edge11_Node000008_Node000006"><a xlink:title=" ">
<path fill="none" stroke="#63b8ff" d="M214.21,-170.29C211.1,-148.22 206.16,-89.39 234.63,-55 257.3,-27.63 297.96,-17.08 326.96,-13.02"/>
<polygon fill="#63b8ff" stroke="#63b8ff" points="327.55,-16.48 337.06,-11.8 326.71,-9.53 327.55,-16.48"/>
</a>
</g>
</g>
<!-- Node9 -->
<g id="Node000009" class="node">
<title>Node9</title>
<g id="a_Node000009"><a xlink:title=" ">
<polygon fill="#e0e0e0" stroke="#999999" points="281.63,-129 243.63,-129 243.63,-110 281.63,-110 281.63,-129"/>
<text text-anchor="middle" x="262.63" y="-117" font-family="FreeSans" font-size="10.00">map</text>
</a>
</g>
</g>
<!-- Node8&#45;&gt;Node9 -->
<g id="edge9_Node000008_Node000009" class="edge">
<title>Node8&#45;&gt;Node9</title>
<g id="a_edge9_Node000008_Node000009"><a xlink:title=" ">
<path fill="none" stroke="#63b8ff" d="M222.57,-170.37C229.58,-161.64 240.6,-147.93 249.3,-137.09"/>
<polygon fill="#63b8ff" stroke="#63b8ff" points="252.14,-139.16 255.67,-129.17 246.68,-134.77 252.14,-139.16"/>
</a>
</g>
</g>
<!-- Node10 -->
<g id="Node000010" class="node">
<title>Node10</title>
<g id="a_Node000010"><a xlink:href="exception_8h.html" target="_top" xlink:title=" ">
<polygon fill="white" stroke="#666666" points="517.63,-129 371.63,-129 371.63,-110 517.63,-110 517.63,-129"/>
<text text-anchor="middle" x="444.63" y="-117" font-family="FreeSans" font-size="10.00">mpqc/util/core/exception.h</text>
</a>
</g>
</g>
<!-- Node8&#45;&gt;Node10 -->
<g id="edge12_Node000008_Node000010" class="edge">
<title>Node8&#45;&gt;Node10</title>
<g id="a_edge12_Node000008_Node000010"><a xlink:title=" ">
<path fill="none" stroke="#63b8ff" d="M248.93,-170.49C289.21,-160.2 357.11,-142.86 401.4,-131.54"/>
<polygon fill="#63b8ff" stroke="#63b8ff" points="402.47,-134.88 411.3,-129.02 400.74,-128.1 402.47,-134.88"/>
</a>
</g>
</g>
<!-- Node10&#45;&gt;Node6 -->
<g id="edge18_Node000010_Node000006" class="edge">
<title>Node10&#45;&gt;Node6</title>
<g id="a_edge18_Node000010_Node000006"><a xlink:title=" ">
<path fill="none" stroke="#63b8ff" d="M457.21,-109.93C473.73,-97.59 499.18,-74.19 485.63,-55 465.17,-26 424.06,-15.79 394.57,-12.25"/>
<polygon fill="#63b8ff" stroke="#63b8ff" points="394.59,-8.74 384.29,-11.23 393.89,-15.7 394.59,-8.74"/>
</a>
</g>
</g>
<!-- Node11 -->
<g id="Node000011" class="node">
<title>Node11</title>
<g id="a_Node000011"><a xlink:title=" ">
<polygon fill="#e0e0e0" stroke="#999999" points="751.13,-74 698.13,-74 698.13,-55 751.13,-55 751.13,-74"/>
<text text-anchor="middle" x="724.63" y="-62" font-family="FreeSans" font-size="10.00">string.h</text>
</a>
</g>
</g>
<!-- Node10&#45;&gt;Node11 -->
<g id="edge13_Node000010_Node000011" class="edge">
<title>Node10&#45;&gt;Node11</title>
<g id="a_edge13_Node000010_Node000011"><a xlink:title=" ">
<path fill="none" stroke="#63b8ff" d="M495.72,-109.97C542.97,-101.9 615.38,-89.1 687.73,-74.1"/>
<polygon fill="#63b8ff" stroke="#63b8ff" points="688.86,-77.44 697.93,-71.97 687.43,-70.58 688.86,-77.44"/>
</a>
</g>
</g>
<!-- Node12 -->
<g id="Node000012" class="node">
<title>Node12</title>
<g id="a_Node000012"><a xlink:href="memory.html" target="_top" xlink:title=" ">
<polygon fill="white" stroke="#666666" points="301.63,-74 243.63,-74 243.63,-55 301.63,-55 301.63,-74"/>
<text text-anchor="middle" x="272.63" y="-62" font-family="FreeSans" font-size="10.00">memory</text>
</a>
</g>
</g>
<!-- Node10&#45;&gt;Node12 -->
<g id="edge14_Node000010_Node000012" class="edge">
<title>Node10&#45;&gt;Node12</title>
<g id="a_edge14_Node000010_Node000012"><a xlink:title=" ">
<path fill="none" stroke="#63b8ff" d="M417,-109.98C388.12,-101.09 342.62,-87.07 310.43,-77.15"/>
<polygon fill="#63b8ff" stroke="#63b8ff" points="311.07,-73.68 300.49,-74.08 309.01,-80.37 311.07,-73.68"/>
</a>
</g>
</g>
<!-- Node13 -->
<g id="Node000013" class="node">
<title>Node13</title>
<g id="a_Node000013"><a xlink:title=" ">
<polygon fill="#e0e0e0" stroke="#999999" points="393.63,-74 337.63,-74 337.63,-55 393.63,-55 393.63,-74"/>
<text text-anchor="middle" x="365.63" y="-62" font-family="FreeSans" font-size="10.00">sstream</text>
</a>
</g>
</g>
<!-- Node10&#45;&gt;Node13 -->
<g id="edge16_Node000010_Node000013" class="edge">
<title>Node10&#45;&gt;Node13</title>
<g id="a_edge16_Node000010_Node000013"><a xlink:title=" ">
<path fill="none" stroke="#63b8ff" d="M431.94,-109.98C419.81,-101.84 401.28,-89.41 386.89,-79.76"/>
<polygon fill="#63b8ff" stroke="#63b8ff" points="388.81,-76.84 378.56,-74.17 384.91,-82.65 388.81,-76.84"/>
</a>
</g>
</g>
<!-- Node14 -->
<g id="Node000014" class="node">
<title>Node14</title>
<g id="a_Node000014"><a xlink:title=" ">
<polygon fill="#e0e0e0" stroke="#999999" points="477.13,-74 412.13,-74 412.13,-55 477.13,-55 477.13,-74"/>
<text text-anchor="middle" x="444.63" y="-62" font-family="FreeSans" font-size="10.00">stdexcept</text>
</a>
</g>
</g>
<!-- Node10&#45;&gt;Node14 -->
<g id="edge17_Node000010_Node000014" class="edge">
<title>Node10&#45;&gt;Node14</title>
<g id="a_edge17_Node000010_Node000014"><a xlink:title=" ">
<path fill="none" stroke="#63b8ff" d="M444.63,-109.75C444.63,-102.8 444.63,-92.85 444.63,-84.13"/>
<polygon fill="#63b8ff" stroke="#63b8ff" points="448.13,-84.09 444.63,-74.09 441.13,-84.09 448.13,-84.09"/>
</a>
</g>
</g>
<!-- Node15 -->
<g id="Node000015" class="node">
<title>Node15</title>
<g id="a_Node000015"><a xlink:href="backtrace_8h.html" target="_top" xlink:title=" ">
<polygon fill="white" stroke="#666666" points="679.63,-74 533.63,-74 533.63,-55 679.63,-55 679.63,-74"/>
<text text-anchor="middle" x="606.63" y="-62" font-family="FreeSans" font-size="10.00">mpqc/util/core/backtrace.h</text>
</a>
</g>
</g>
<!-- Node10&#45;&gt;Node15 -->
<g id="edge19_Node000010_Node000015" class="edge">
<title>Node10&#45;&gt;Node15</title>
<g id="a_edge19_Node000010_Node000015"><a xlink:title=" ">
<path fill="none" stroke="#63b8ff" d="M470.66,-109.98C497.74,-101.13 540.34,-87.19 570.64,-77.28"/>
<polygon fill="#63b8ff" stroke="#63b8ff" points="571.99,-80.52 580.4,-74.08 569.81,-73.87 571.99,-80.52"/>
</a>
</g>
</g>
<!-- Node12&#45;&gt;Node12 -->
<g id="edge15_Node000012_Node000012" class="edge">
<title>Node12&#45;&gt;Node12</title>
<g id="a_edge15_Node000012_Node000012"><a xlink:title=" ">
<path fill="none" stroke="#63b8ff" d="M294.88,-74.07C307.7,-76.02 319.63,-72.83 319.63,-64.5 319.63,-58.45 313.33,-55.11 304.97,-54.48"/>
<polygon fill="#63b8ff" stroke="#63b8ff" points="304.71,-50.99 294.88,-54.93 305.02,-57.98 304.71,-50.99"/>
</a>
</g>
</g>
<!-- Node15&#45;&gt;Node6 -->
<g id="edge21_Node000015_Node000006" class="edge">
<title>Node15&#45;&gt;Node6</title>
<g id="a_edge21_Node000015_Node000006"><a xlink:title=" ">
<path fill="none" stroke="#63b8ff" d="M567.11,-54.98C519.23,-44.67 439.39,-27.47 394.31,-17.76"/>
<polygon fill="#63b8ff" stroke="#63b8ff" points="394.95,-14.31 384.44,-15.63 393.48,-21.16 394.95,-14.31"/>
</a>
</g>
</g>
<!-- Node16 -->
<g id="Node000016" class="node">
<title>Node16</title>
<g id="a_Node000016"><a xlink:title=" ">
<polygon fill="#e0e0e0" stroke="#999999" points="628.63,-19 584.63,-19 584.63,0 628.63,0 628.63,-19"/>
<text text-anchor="middle" x="606.63" y="-7" font-family="FreeSans" font-size="10.00">string</text>
</a>
</g>
</g>
<!-- Node15&#45;&gt;Node16 -->
<g id="edge20_Node000015_Node000016" class="edge">
<title>Node15&#45;&gt;Node16</title>
<g id="a_edge20_Node000015_Node000016"><a xlink:title=" ">
<path fill="none" stroke="#63b8ff" d="M606.63,-54.75C606.63,-47.8 606.63,-37.85 606.63,-29.13"/>
<polygon fill="#63b8ff" stroke="#63b8ff" points="610.13,-29.09 606.63,-19.09 603.13,-29.09 610.13,-29.09"/>
</a>
</g>
</g>
</g>
</svg>
