<?xml version="1.0" encoding="UTF-8" standalone="no"?>
<!DOCTYPE svg PUBLIC "-//W3C//DTD SVG 1.1//EN"
 "http://www.w3.org/Graphics/SVG/1.1/DTD/svg11.dtd">
<!-- Generated by graphviz version 2.43.0 (0)
 -->
<!-- Title: mpqc/math/tensor/cp/als.h Pages: 1 -->
<!--zoomable 489 -->

<svg id="main" version="1.1" xmlns="http://www.w3.org/2000/svg" xmlns:xlink="http://www.w3.org/1999/xlink" xml:space="preserve" onload="init(evt)">
<style type="text/css"><![CDATA[
.node, .edge {opacity: 0.7;}
.node.selected, .edge.selected {opacity: 1;}
.edge:hover path { stroke: red; }
.edge:hover polygon { stroke: red; fill: red; }
]]></style>

<defs>
  <circle id="rim" cx="0" cy="0" r="7"/>
  <circle id="rim2" cx="0" cy="0" r="3.5"/>
  <g id="zoomPlus">
    <use xlink:href="#rim" fill="#404040"><set attributeName="fill" to="#808080" begin="zoomplus.mouseover" end="zoomplus.mouseout"/></use>
    <path d="M-4,0h8M0,-4v8" fill="none" stroke="white" stroke-width="1.5" pointer-events="none"/>
  </g>
  <g id="zoomMin">
    <use xlink:href="#rim" fill="#404040"><set attributeName="fill" to="#808080" begin="zoomminus.mouseover" end="zoomminus.mouseout"/></use>
    <path d="M-4,0h8" fill="none" stroke="white" stroke-width="1.5" pointer-events="none"/>
  </g>
  <g id="arrowUp" transform="translate(30 24)">
    <use xlink:href="#rim"/>
    <path pointer-events="none" fill="none" stroke="white" stroke-width="1.5" d="M0,-3.0v7 M-2.5,-0.5L0,-3.0L2.5,-0.5"/>
  </g>
  <g id="arrowRight" transform="rotate(90) translate(36 -43)">
    <use xlink:href="#rim"/>
    <path pointer-events="none" fill="none" stroke="white" stroke-width="1.5" d="M0,-3.0v7 M-2.5,-0.5L0,-3.0L2.5,-0.5"/>
  </g>
  <g id="arrowDown" transform="rotate(180) translate(-30 -48)">
    <use xlink:href="#rim"/>
    <path pointer-events="none" fill="none" stroke="white" stroke-width="1.5" d="M0,-3.0v7 M-2.5,-0.5L0,-3.0L2.5,-0.5"/>
  </g>
  <g id="arrowLeft" transform="rotate(270) translate(-36 17)">
    <use xlink:href="#rim"/>
    <path pointer-events="none" fill="none" stroke="white" stroke-width="1.5" d="M0,-3.0v7 M-2.5,-0.5L0,-3.0L2.5,-0.5"/>
  </g>
  <g id="resetDef">
    <use xlink:href="#rim2" fill="#404040"><set attributeName="fill" to="#808080" begin="reset.mouseover" end="reset.mouseout"/></use>
  </g>
</defs>
<script type="application/ecmascript">
var viewWidth = 1459;
var viewHeight = 489;
var sectionId = 'dynsection-1';
</script>
<script type="application/ecmascript" xlink:href="svg.min.js"/>
<svg id="graph" class="graph">
<g id="viewport">
<title>mpqc/math/tensor/cp/als.h</title>
<!-- Node1 -->
<g id="Node000001" class="node">
<title>Node1</title>
<g id="a_Node000001"><a xlink:title=" ">
<polygon fill="#999999" stroke="#666666" points="1340.5,-481 1220.5,-481 1220.5,-451 1340.5,-451 1340.5,-481"/>
<text text-anchor="start" x="1228.5" y="-469" font-family="FreeSans" font-size="10.00">mpqc/math/tensor/cp</text>
<text text-anchor="middle" x="1280.5" y="-458" font-family="FreeSans" font-size="10.00">/als.h</text>
</a>
</g>
</g>
<!-- Node2 -->
<g id="Node000002" class="node">
<title>Node2</title>
<g id="a_Node000002"><a xlink:href="df_8h.html" target="_top" xlink:title=" ">
<polygon fill="white" stroke="#666666" points="1351,-415 1210,-415 1210,-396 1351,-396 1351,-415"/>
<text text-anchor="middle" x="1280.5" y="-403" font-family="FreeSans" font-size="10.00">mpqc/math/tensor/cp/df.h</text>
</a>
</g>
</g>
<!-- Node1&#45;&gt;Node2 -->
<g id="edge1_Node000001_Node000002" class="edge">
<title>Node1&#45;&gt;Node2</title>
<g id="a_edge1_Node000001_Node000002"><a xlink:title=" ">
<path fill="none" stroke="#63b8ff" d="M1280.5,-440.75C1280.5,-431.72 1280.5,-422.03 1280.5,-415.27"/>
<polygon fill="#63b8ff" stroke="#63b8ff" points="1277,-440.84 1280.5,-450.84 1284,-440.84 1277,-440.84"/>
</a>
</g>
</g>
<!-- Node3 -->
<g id="Node000003" class="node">
<title>Node3</title>
<g id="a_Node000003"><a xlink:href="ccsd_8h.html" target="_top" xlink:title=" ">
<polygon fill="white" stroke="#666666" points="847,-360 714,-360 714,-330 847,-330 847,-360"/>
<text text-anchor="start" x="722" y="-348" font-family="FreeSans" font-size="10.00">mpqc/chemistry/qc/lcao</text>
<text text-anchor="middle" x="780.5" y="-337" font-family="FreeSans" font-size="10.00">/cc/ccsd.h</text>
</a>
</g>
</g>
<!-- Node2&#45;&gt;Node3 -->
<g id="edge2_Node000002_Node000003" class="edge">
<title>Node2&#45;&gt;Node3</title>
<g id="a_edge2_Node000002_Node000003"><a xlink:title=" ">
<path fill="none" stroke="#63b8ff" d="M1199.77,-395.05C1101.76,-383.59 938.3,-364.46 847.13,-353.8"/>
<polygon fill="#63b8ff" stroke="#63b8ff" points="1199.58,-398.56 1209.92,-396.24 1200.4,-391.6 1199.58,-398.56"/>
</a>
</g>
</g>
<!-- Node6 -->
<g id="Node000006" class="node">
<title>Node6</title>
<g id="a_Node000006"><a xlink:href="ccsd_8ipp.html" target="_top" xlink:title=" ">
<polygon fill="white" stroke="#666666" points="1300,-228 1167,-228 1167,-198 1300,-198 1300,-228"/>
<text text-anchor="start" x="1175" y="-216" font-family="FreeSans" font-size="10.00">mpqc/chemistry/qc/lcao</text>
<text text-anchor="middle" x="1233.5" y="-205" font-family="FreeSans" font-size="10.00">/cc/ccsd.ipp</text>
</a>
</g>
</g>
<!-- Node2&#45;&gt;Node6 -->
<g id="edge35_Node000002_Node000006" class="edge">
<title>Node2&#45;&gt;Node6</title>
<g id="a_edge35_Node000002_Node000006"><a xlink:title=" ">
<path fill="none" stroke="#63b8ff" d="M1267.58,-387.82C1262.05,-379.82 1256.05,-369.86 1252.5,-360 1235.88,-313.82 1233.5,-254.79 1233.35,-228.15"/>
<polygon fill="#63b8ff" stroke="#63b8ff" points="1264.75,-389.88 1273.48,-395.89 1270.41,-385.75 1264.75,-389.88"/>
</a>
</g>
</g>
<!-- Node28 -->
<g id="Node000028" class="node">
<title>Node28</title>
<g id="a_Node000028"><a xlink:href="ccsdt_8h.html" target="_top" xlink:title=" ">
<polygon fill="white" stroke="#666666" points="1395,-360 1262,-360 1262,-330 1395,-330 1395,-360"/>
<text text-anchor="start" x="1270" y="-348" font-family="FreeSans" font-size="10.00">mpqc/chemistry/qc/lcao</text>
<text text-anchor="middle" x="1328.5" y="-337" font-family="FreeSans" font-size="10.00">/cc/ccsdt.h</text>
</a>
</g>
</g>
<!-- Node2&#45;&gt;Node28 -->
<g id="edge36_Node000002_Node000028" class="edge">
<title>Node2&#45;&gt;Node28</title>
<g id="a_edge36_Node000002_Node000028"><a xlink:title=" ">
<path fill="none" stroke="#63b8ff" d="M1294.14,-387.88C1301.33,-379.11 1310.06,-368.48 1316.92,-360.11"/>
<polygon fill="#63b8ff" stroke="#63b8ff" points="1291.22,-385.92 1287.58,-395.87 1296.63,-390.36 1291.22,-385.92"/>
</a>
</g>
</g>
<!-- Node29 -->
<g id="Node000029" class="node">
<title>Node29</title>
<g id="a_Node000029"><a xlink:href="ccsdt_8ipp.html" target="_top" xlink:title=" ">
<polygon fill="white" stroke="#666666" points="1423,-294 1290,-294 1290,-264 1423,-264 1423,-294"/>
<text text-anchor="start" x="1298" y="-282" font-family="FreeSans" font-size="10.00">mpqc/chemistry/qc/lcao</text>
<text text-anchor="middle" x="1356.5" y="-271" font-family="FreeSans" font-size="10.00">/cc/ccsdt.ipp</text>
</a>
</g>
</g>
<!-- Node2&#45;&gt;Node29 -->
<g id="edge40_Node000002_Node000029" class="edge">
<title>Node2&#45;&gt;Node29</title>
<g id="a_edge40_Node000002_Node000029"><a xlink:title=" ">
<path fill="none" stroke="#63b8ff" d="M1356.34,-392.84C1374.72,-386.26 1392.28,-375.99 1403.5,-360 1419.04,-337.85 1393.95,-310.32 1374.85,-294.01"/>
<polygon fill="#63b8ff" stroke="#63b8ff" points="1355.12,-389.56 1346.68,-395.96 1357.27,-396.22 1355.12,-389.56"/>
</a>
</g>
</g>
<!-- Node4 -->
<g id="Node000004" class="node">
<title>Node4</title>
<g id="a_Node000004"><a xlink:href="cc_8h.html" target="_top" xlink:title=" ">
<polygon fill="white" stroke="#666666" points="694,-294 549,-294 549,-264 694,-264 694,-294"/>
<text text-anchor="start" x="557" y="-282" font-family="FreeSans" font-size="10.00">/home/runner/work/mpqc4</text>
<text text-anchor="middle" x="621.5" y="-271" font-family="FreeSans" font-size="10.00">/mpqc4/python/src/cc.h</text>
</a>
</g>
</g>
<!-- Node3&#45;&gt;Node4 -->
<g id="edge3_Node000003_Node000004" class="edge">
<title>Node3&#45;&gt;Node4</title>
<g id="a_edge3_Node000003_Node000004"><a xlink:title=" ">
<path fill="none" stroke="#63b8ff" d="M736.25,-326.19C711,-316.02 679.8,-303.47 656.31,-294.01"/>
<polygon fill="#63b8ff" stroke="#63b8ff" points="735.02,-329.47 745.61,-329.95 737.64,-322.97 735.02,-329.47"/>
</a>
</g>
</g>
<!-- Node3&#45;&gt;Node6 -->
<g id="edge5_Node000003_Node000006" class="edge">
<title>Node3&#45;&gt;Node6</title>
<g id="a_edge5_Node000003_Node000006"><a xlink:title=" ">
<path fill="none" stroke="#63b8ff" d="M857.24,-339.43C949.72,-333.08 1098.68,-319.4 1148.5,-294 1178.54,-278.69 1203.2,-246.62 1218.6,-228.07"/>
<polygon fill="#63b8ff" stroke="#63b8ff" points="856.83,-335.95 847.09,-340.11 857.3,-342.93 856.83,-335.95"/>
</a>
</g>
</g>
<!-- Node8 -->
<g id="Node000008" class="node">
<title>Node8</title>
<g id="a_Node000008"><a xlink:href="ccsd__response_8h.html" target="_top" xlink:title=" ">
<polygon fill="white" stroke="#666666" points="1149,-294 1016,-294 1016,-264 1149,-264 1149,-294"/>
<text text-anchor="start" x="1024" y="-282" font-family="FreeSans" font-size="10.00">mpqc/chemistry/qc/lcao</text>
<text text-anchor="middle" x="1082.5" y="-271" font-family="FreeSans" font-size="10.00">/cc/ccsd_response.h</text>
</a>
</g>
</g>
<!-- Node3&#45;&gt;Node8 -->
<g id="edge8_Node000003_Node000008" class="edge">
<title>Node3&#45;&gt;Node8</title>
<g id="a_edge8_Node000003_Node000008"><a xlink:title=" ">
<path fill="none" stroke="#63b8ff" d="M856.73,-327.84C905.94,-317.42 969.31,-303.99 1016.38,-294.01"/>
<polygon fill="#63b8ff" stroke="#63b8ff" points="855.83,-324.46 846.78,-329.95 857.28,-331.31 855.83,-324.46"/>
</a>
</g>
</g>
<!-- Node9 -->
<g id="Node000009" class="node">
<title>Node9</title>
<g id="a_Node000009"><a xlink:href="eom__ccsd_8h.html" target="_top" xlink:title=" ">
<polygon fill="white" stroke="#666666" points="163,-294 30,-294 30,-264 163,-264 163,-294"/>
<text text-anchor="start" x="38" y="-282" font-family="FreeSans" font-size="10.00">mpqc/chemistry/qc/lcao</text>
<text text-anchor="middle" x="96.5" y="-271" font-family="FreeSans" font-size="10.00">/cc/eom/eom_ccsd.h</text>
</a>
</g>
</g>
<!-- Node3&#45;&gt;Node9 -->
<g id="edge10_Node000003_Node000009" class="edge">
<title>Node3&#45;&gt;Node9</title>
<g id="a_edge10_Node000003_Node000009"><a xlink:title=" ">
<path fill="none" stroke="#63b8ff" d="M703.6,-339.87C588.6,-333.2 365.18,-318.27 176.5,-294 172.16,-293.44 167.71,-292.81 163.22,-292.14"/>
<polygon fill="#63b8ff" stroke="#63b8ff" points="703.52,-343.37 713.71,-340.46 703.92,-336.39 703.52,-343.37"/>
</a>
</g>
</g>
<!-- Node12 -->
<g id="Node000012" class="node">
<title>Node12</title>
<g id="a_Node000012"><a xlink:href="eom__ea__ccsd_8h.html" target="_top" xlink:title=" ">
<polygon fill="white" stroke="#666666" points="319,-294 186,-294 186,-264 319,-264 319,-294"/>
<text text-anchor="start" x="194" y="-282" font-family="FreeSans" font-size="10.00">mpqc/chemistry/qc/lcao</text>
<text text-anchor="middle" x="252.5" y="-271" font-family="FreeSans" font-size="10.00">/cc/eom/eom_ea_ccsd.h</text>
</a>
</g>
</g>
<!-- Node3&#45;&gt;Node12 -->
<g id="edge14_Node000003_Node000012" class="edge">
<title>Node3&#45;&gt;Node12</title>
<g id="a_edge14_Node000003_Node000012"><a xlink:title=" ">
<path fill="none" stroke="#63b8ff" d="M703.73,-336.53C615.28,-327.65 465.63,-311.77 337.5,-294 331.57,-293.18 325.43,-292.27 319.27,-291.33"/>
<polygon fill="#63b8ff" stroke="#63b8ff" points="703.65,-340.04 713.95,-337.55 704.35,-333.08 703.65,-340.04"/>
</a>
</g>
</g>
<!-- Node15 -->
<g id="Node000015" class="node">
<title>Node15</title>
<g id="a_Node000015"><a xlink:href="eom__ip__ccsd_8h.html" target="_top" xlink:title=" ">
<polygon fill="white" stroke="#666666" points="447,-162 314,-162 314,-132 447,-132 447,-162"/>
<text text-anchor="start" x="322" y="-150" font-family="FreeSans" font-size="10.00">mpqc/chemistry/qc/lcao</text>
<text text-anchor="middle" x="380.5" y="-139" font-family="FreeSans" font-size="10.00">/cc/eom/eom_ip_ccsd.h</text>
</a>
</g>
</g>
<!-- Node3&#45;&gt;Node15 -->
<g id="edge21_Node000003_Node000015" class="edge">
<title>Node3&#45;&gt;Node15</title>
<g id="a_edge21_Node000003_Node000015"><a xlink:title=" ">
<path fill="none" stroke="#63b8ff" d="M703.84,-339.43C593.9,-332.13 402.12,-316.36 379.5,-294 343.99,-258.89 363.72,-191.36 374.71,-162.1"/>
<polygon fill="#63b8ff" stroke="#63b8ff" points="703.69,-342.92 713.89,-340.09 704.14,-335.94 703.69,-342.92"/>
</a>
</g>
</g>
<!-- Node18 -->
<g id="Node000018" class="node">
<title>Node18</title>
<g id="a_Node000018"><a xlink:href="gamma__point__ccsd_8h.html" target="_top" xlink:title=" ">
<polygon fill="white" stroke="#666666" points="526,-294 389,-294 389,-264 526,-264 526,-294"/>
<text text-anchor="start" x="397" y="-282" font-family="FreeSans" font-size="10.00">mpqc/chemistry/qc/lcao</text>
<text text-anchor="middle" x="457.5" y="-271" font-family="FreeSans" font-size="10.00">/cc/gamma_point_ccsd.h</text>
</a>
</g>
</g>
<!-- Node3&#45;&gt;Node18 -->
<g id="edge22_Node000003_Node000018" class="edge">
<title>Node3&#45;&gt;Node18</title>
<g id="a_edge22_Node000003_Node000018"><a xlink:title=" ">
<path fill="none" stroke="#63b8ff" d="M704.1,-328.86C650.11,-318.16 578.36,-303.95 526.18,-293.61"/>
<polygon fill="#63b8ff" stroke="#63b8ff" points="703.48,-332.31 713.97,-330.82 704.84,-325.44 703.48,-332.31"/>
</a>
</g>
</g>
<!-- Node20 -->
<g id="Node000020" class="node">
<title>Node20</title>
<g id="a_Node000020"><a xlink:href="ccsd__t_8h.html" target="_top" xlink:title=" ">
<polygon fill="white" stroke="#666666" points="847,-294 714,-294 714,-264 847,-264 847,-294"/>
<text text-anchor="start" x="722" y="-282" font-family="FreeSans" font-size="10.00">mpqc/chemistry/qc/lcao</text>
<text text-anchor="middle" x="780.5" y="-271" font-family="FreeSans" font-size="10.00">/cc/pt/ccsd_t.h</text>
</a>
</g>
</g>
<!-- Node3&#45;&gt;Node20 -->
<g id="edge24_Node000003_Node000020" class="edge">
<title>Node3&#45;&gt;Node20</title>
<g id="a_edge24_Node000003_Node000020"><a xlink:title=" ">
<path fill="none" stroke="#63b8ff" d="M780.5,-319.54C780.5,-310.96 780.5,-301.61 780.5,-294.16"/>
<polygon fill="#63b8ff" stroke="#63b8ff" points="777,-319.8 780.5,-329.8 784,-319.8 777,-319.8"/>
</a>
</g>
</g>
<!-- Node25 -->
<g id="Node000025" class="node">
<title>Node25</title>
<g id="a_Node000025"><a xlink:href="ccsd__f12_8h.html" target="_top" xlink:title=" ">
<polygon fill="white" stroke="#666666" points="998,-294 865,-294 865,-264 998,-264 998,-294"/>
<text text-anchor="start" x="873" y="-282" font-family="FreeSans" font-size="10.00">mpqc/chemistry/qc/lcao</text>
<text text-anchor="middle" x="931.5" y="-271" font-family="FreeSans" font-size="10.00">/f12/ccsd_f12.h</text>
</a>
</g>
</g>
<!-- Node3&#45;&gt;Node25 -->
<g id="edge30_Node000003_Node000025" class="edge">
<title>Node3&#45;&gt;Node25</title>
<g id="a_edge30_Node000003_Node000025"><a xlink:title=" ">
<path fill="none" stroke="#63b8ff" d="M823.16,-325.92C847.03,-315.8 876.33,-303.38 898.44,-294.01"/>
<polygon fill="#63b8ff" stroke="#63b8ff" points="821.48,-322.83 813.64,-329.95 824.21,-329.28 821.48,-322.83"/>
</a>
</g>
</g>
<!-- Node5 -->
<g id="Node000005" class="node">
<title>Node5</title>
<g id="a_Node000005"><a xlink:href="mpqc_8cc.html" target="_top" xlink:title=" ">
<polygon fill="white" stroke="#666666" points="695.5,-228 545.5,-228 545.5,-198 695.5,-198 695.5,-228"/>
<text text-anchor="start" x="553.5" y="-216" font-family="FreeSans" font-size="10.00">/home/runner/work/mpqc4</text>
<text text-anchor="middle" x="620.5" y="-205" font-family="FreeSans" font-size="10.00">/mpqc4/python/src/mpqc.cc</text>
</a>
</g>
</g>
<!-- Node4&#45;&gt;Node5 -->
<g id="edge4_Node000004_Node000005" class="edge">
<title>Node4&#45;&gt;Node5</title>
<g id="a_edge4_Node000004_Node000005"><a xlink:title=" ">
<path fill="none" stroke="#63b8ff" d="M621.12,-253.54C620.98,-244.96 620.84,-235.61 620.72,-228.16"/>
<polygon fill="#63b8ff" stroke="#63b8ff" points="617.62,-253.85 621.28,-263.8 624.62,-253.74 617.62,-253.85"/>
</a>
</g>
</g>
<!-- Node6&#45;&gt;Node3 -->
<g id="edge7_Node000006_Node000003" class="edge">
<title>Node6&#45;&gt;Node3</title>
<g id="a_edge7_Node000006_Node000003"><a xlink:title=" ">
<path fill="none" stroke="#63b8ff" d="M1225.69,-236.87C1213.96,-255.54 1192.2,-280.9 1166.5,-294 1112.6,-321.48 942.69,-335.24 847.17,-340.84"/>
<polygon fill="#63b8ff" stroke="#63b8ff" points="1228.8,-238.48 1230.75,-228.07 1222.73,-234.99 1228.8,-238.48"/>
</a>
</g>
</g>
<!-- Node7 -->
<g id="Node000007" class="node">
<title>Node7</title>
<g id="a_Node000007"><a xlink:href="ccsd_8cpp.html" target="_top" xlink:title=" ">
<polygon fill="white" stroke="#666666" points="1300,-162 1167,-162 1167,-132 1300,-132 1300,-162"/>
<text text-anchor="start" x="1175" y="-150" font-family="FreeSans" font-size="10.00">mpqc/chemistry/qc/lcao</text>
<text text-anchor="middle" x="1233.5" y="-139" font-family="FreeSans" font-size="10.00">/cc/ccsd.cpp</text>
</a>
</g>
</g>
<!-- Node6&#45;&gt;Node7 -->
<g id="edge6_Node000006_Node000007" class="edge">
<title>Node6&#45;&gt;Node7</title>
<g id="a_edge6_Node000006_Node000007"><a xlink:title=" ">
<path fill="none" stroke="#63b8ff" d="M1233.5,-187.54C1233.5,-178.96 1233.5,-169.61 1233.5,-162.16"/>
<polygon fill="#63b8ff" stroke="#63b8ff" points="1230,-187.8 1233.5,-197.8 1237,-187.8 1230,-187.8"/>
</a>
</g>
</g>
<!-- Node8&#45;&gt;Node6 -->
<g id="edge9_Node000008_Node000006" class="edge">
<title>Node8&#45;&gt;Node6</title>
<g id="a_edge9_Node000008_Node000006"><a xlink:title=" ">
<path fill="none" stroke="#63b8ff" d="M1125.16,-259.92C1149.03,-249.8 1178.33,-237.38 1200.44,-228.01"/>
<polygon fill="#63b8ff" stroke="#63b8ff" points="1123.48,-256.83 1115.64,-263.95 1126.21,-263.28 1123.48,-256.83"/>
</a>
</g>
</g>
<!-- Node10 -->
<g id="Node000010" class="node">
<title>Node10</title>
<g id="a_Node000010"><a xlink:href="eom__ccsd_8ipp.html" target="_top" xlink:title=" ">
<polygon fill="white" stroke="#666666" points="163,-228 30,-228 30,-198 163,-198 163,-228"/>
<text text-anchor="start" x="38" y="-216" font-family="FreeSans" font-size="10.00">mpqc/chemistry/qc/lcao</text>
<text text-anchor="middle" x="96.5" y="-205" font-family="FreeSans" font-size="10.00">/cc/eom/eom_ccsd.ipp</text>
</a>
</g>
</g>
<!-- Node9&#45;&gt;Node10 -->
<g id="edge11_Node000009_Node000010" class="edge">
<title>Node9&#45;&gt;Node10</title>
<g id="a_edge11_Node000009_Node000010"><a xlink:title=" ">
<path fill="none" stroke="#63b8ff" d="M89.93,-253.83C89.52,-245.17 89.81,-235.7 90.79,-228.16"/>
<polygon fill="#63b8ff" stroke="#63b8ff" points="86.45,-254.13 90.78,-263.8 93.42,-253.54 86.45,-254.13"/>
</a>
</g>
</g>
<!-- Node10&#45;&gt;Node9 -->
<g id="edge13_Node000010_Node000009" class="edge">
<title>Node10&#45;&gt;Node9</title>
<g id="a_edge13_Node000010_Node000009"><a xlink:title=" ">
<path fill="none" stroke="#63b8ff" d="M103.07,-238.13C103.48,-246.78 103.2,-256.26 102.22,-263.8"/>
<polygon fill="#63b8ff" stroke="#63b8ff" points="106.55,-237.83 102.21,-228.16 99.58,-238.43 106.55,-237.83"/>
</a>
</g>
</g>
<!-- Node11 -->
<g id="Node000011" class="node">
<title>Node11</title>
<g id="a_Node000011"><a xlink:href="eom__ccsd_8cpp.html" target="_top" xlink:title=" ">
<polygon fill="white" stroke="#666666" points="133,-162 0,-162 0,-132 133,-132 133,-162"/>
<text text-anchor="start" x="8" y="-150" font-family="FreeSans" font-size="10.00">mpqc/chemistry/qc/lcao</text>
<text text-anchor="middle" x="66.5" y="-139" font-family="FreeSans" font-size="10.00">/cc/eom/eom_ccsd.cpp</text>
</a>
</g>
</g>
<!-- Node10&#45;&gt;Node11 -->
<g id="edge12_Node000010_Node000011" class="edge">
<title>Node10&#45;&gt;Node11</title>
<g id="a_edge12_Node000010_Node000011"><a xlink:title=" ">
<path fill="none" stroke="#63b8ff" d="M85.57,-188.68C81.4,-179.79 76.79,-169.95 73.14,-162.16"/>
<polygon fill="#63b8ff" stroke="#63b8ff" points="82.43,-190.23 89.84,-197.8 88.77,-187.26 82.43,-190.23"/>
</a>
</g>
</g>
<!-- Node13 -->
<g id="Node000013" class="node">
<title>Node13</title>
<g id="a_Node000013"><a xlink:href="eom__ea__ccsd_8ipp.html" target="_top" xlink:title=" ">
<polygon fill="white" stroke="#666666" points="323.5,-228 181.5,-228 181.5,-198 323.5,-198 323.5,-228"/>
<text text-anchor="start" x="189.5" y="-216" font-family="FreeSans" font-size="10.00">mpqc/chemistry/qc/lcao</text>
<text text-anchor="middle" x="252.5" y="-205" font-family="FreeSans" font-size="10.00">/cc/eom/eom_ea_ccsd.ipp</text>
</a>
</g>
</g>
<!-- Node12&#45;&gt;Node13 -->
<g id="edge15_Node000012_Node000013" class="edge">
<title>Node12&#45;&gt;Node13</title>
<g id="a_edge15_Node000012_Node000013"><a xlink:title=" ">
<path fill="none" stroke="#63b8ff" d="M245.93,-253.83C245.52,-245.17 245.81,-235.7 246.79,-228.16"/>
<polygon fill="#63b8ff" stroke="#63b8ff" points="242.45,-254.13 246.78,-263.8 249.42,-253.54 242.45,-254.13"/>
</a>
</g>
</g>
<!-- Node13&#45;&gt;Node12 -->
<g id="edge17_Node000013_Node000012" class="edge">
<title>Node13&#45;&gt;Node12</title>
<g id="a_edge17_Node000013_Node000012"><a xlink:title=" ">
<path fill="none" stroke="#63b8ff" d="M259.07,-238.13C259.48,-246.78 259.2,-256.26 258.22,-263.8"/>
<polygon fill="#63b8ff" stroke="#63b8ff" points="262.55,-237.83 258.21,-228.16 255.58,-238.43 262.55,-237.83"/>
</a>
</g>
</g>
<!-- Node14 -->
<g id="Node000014" class="node">
<title>Node14</title>
<g id="a_Node000014"><a xlink:href="eom__ea__ccsd_8cpp.html" target="_top" xlink:title=" ">
<polygon fill="white" stroke="#666666" points="295.5,-162 151.5,-162 151.5,-132 295.5,-132 295.5,-162"/>
<text text-anchor="start" x="159.5" y="-150" font-family="FreeSans" font-size="10.00">mpqc/chemistry/qc/lcao</text>
<text text-anchor="middle" x="223.5" y="-139" font-family="FreeSans" font-size="10.00">/cc/eom/eom_ea_ccsd.cpp</text>
</a>
</g>
</g>
<!-- Node13&#45;&gt;Node14 -->
<g id="edge16_Node000013_Node000014" class="edge">
<title>Node13&#45;&gt;Node14</title>
<g id="a_edge16_Node000013_Node000014"><a xlink:title=" ">
<path fill="none" stroke="#63b8ff" d="M241.93,-188.68C237.91,-179.79 233.44,-169.95 229.92,-162.16"/>
<polygon fill="#63b8ff" stroke="#63b8ff" points="238.75,-190.13 246.06,-197.8 245.12,-187.24 238.75,-190.13"/>
</a>
</g>
</g>
<!-- Node13&#45;&gt;Node15 -->
<g id="edge18_Node000013_Node000015" class="edge">
<title>Node13&#45;&gt;Node15</title>
<g id="a_edge18_Node000013_Node000015"><a xlink:title=" ">
<path fill="none" stroke="#63b8ff" d="M289.74,-193.38C309.77,-183.36 334.07,-171.22 352.48,-162.01"/>
<polygon fill="#63b8ff" stroke="#63b8ff" points="287.97,-190.35 280.59,-197.95 291.1,-196.61 287.97,-190.35"/>
</a>
</g>
</g>
<!-- Node16 -->
<g id="Node000016" class="node">
<title>Node16</title>
<g id="a_Node000016"><a xlink:href="eom__ip__ccsd_8ipp.html" target="_top" xlink:title=" ">
<polygon fill="white" stroke="#666666" points="450,-96 311,-96 311,-66 450,-66 450,-96"/>
<text text-anchor="start" x="319" y="-84" font-family="FreeSans" font-size="10.00">mpqc/chemistry/qc/lcao</text>
<text text-anchor="middle" x="380.5" y="-73" font-family="FreeSans" font-size="10.00">/cc/eom/eom_ip_ccsd.ipp</text>
</a>
</g>
</g>
<!-- Node15&#45;&gt;Node16 -->
<g id="edge19_Node000015_Node000016" class="edge">
<title>Node15&#45;&gt;Node16</title>
<g id="a_edge19_Node000015_Node000016"><a xlink:title=" ">
<path fill="none" stroke="#63b8ff" d="M380.5,-121.54C380.5,-112.96 380.5,-103.61 380.5,-96.16"/>
<polygon fill="#63b8ff" stroke="#63b8ff" points="377,-121.8 380.5,-131.8 384,-121.8 377,-121.8"/>
</a>
</g>
</g>
<!-- Node17 -->
<g id="Node000017" class="node">
<title>Node17</title>
<g id="a_Node000017"><a xlink:href="eom__ip__ccsd_8cpp.html" target="_top" xlink:title=" ">
<polygon fill="white" stroke="#666666" points="451,-30 310,-30 310,0 451,0 451,-30"/>
<text text-anchor="start" x="318" y="-18" font-family="FreeSans" font-size="10.00">mpqc/chemistry/qc/lcao</text>
<text text-anchor="middle" x="380.5" y="-7" font-family="FreeSans" font-size="10.00">/cc/eom/eom_ip_ccsd.cpp</text>
</a>
</g>
</g>
<!-- Node16&#45;&gt;Node17 -->
<g id="edge20_Node000016_Node000017" class="edge">
<title>Node16&#45;&gt;Node17</title>
<g id="a_edge20_Node000016_Node000017"><a xlink:title=" ">
<path fill="none" stroke="#63b8ff" d="M380.5,-55.54C380.5,-46.96 380.5,-37.61 380.5,-30.16"/>
<polygon fill="#63b8ff" stroke="#63b8ff" points="377,-55.8 380.5,-65.8 384,-55.8 377,-55.8"/>
</a>
</g>
</g>
<!-- Node19 -->
<g id="Node000019" class="node">
<title>Node19</title>
<g id="a_Node000019"><a xlink:href="gamma__point__ccsd_8cpp.html" target="_top" xlink:title=" ">
<polygon fill="white" stroke="#666666" points="527.5,-228 379.5,-228 379.5,-198 527.5,-198 527.5,-228"/>
<text text-anchor="start" x="387.5" y="-216" font-family="FreeSans" font-size="10.00">mpqc/chemistry/qc/lcao</text>
<text text-anchor="middle" x="453.5" y="-205" font-family="FreeSans" font-size="10.00">/cc/gamma_point_ccsd.cpp</text>
</a>
</g>
</g>
<!-- Node18&#45;&gt;Node19 -->
<g id="edge23_Node000018_Node000019" class="edge">
<title>Node18&#45;&gt;Node19</title>
<g id="a_edge23_Node000018_Node000019"><a xlink:title=" ">
<path fill="none" stroke="#63b8ff" d="M455.97,-253.54C455.44,-244.96 454.85,-235.61 454.39,-228.16"/>
<polygon fill="#63b8ff" stroke="#63b8ff" points="452.5,-254.03 456.61,-263.8 459.48,-253.6 452.5,-254.03"/>
</a>
</g>
</g>
<!-- Node21 -->
<g id="Node000021" class="node">
<title>Node21</title>
<g id="a_Node000021"><a xlink:href="ccsd__t_8ipp.html" target="_top" xlink:title=" ">
<polygon fill="white" stroke="#666666" points="847,-228 714,-228 714,-198 847,-198 847,-228"/>
<text text-anchor="start" x="722" y="-216" font-family="FreeSans" font-size="10.00">mpqc/chemistry/qc/lcao</text>
<text text-anchor="middle" x="780.5" y="-205" font-family="FreeSans" font-size="10.00">/cc/pt/ccsd_t.ipp</text>
</a>
</g>
</g>
<!-- Node20&#45;&gt;Node21 -->
<g id="edge25_Node000020_Node000021" class="edge">
<title>Node20&#45;&gt;Node21</title>
<g id="a_edge25_Node000020_Node000021"><a xlink:title=" ">
<path fill="none" stroke="#63b8ff" d="M773.93,-253.83C773.52,-245.17 773.81,-235.7 774.79,-228.16"/>
<polygon fill="#63b8ff" stroke="#63b8ff" points="770.45,-254.13 774.78,-263.8 777.42,-253.54 770.45,-254.13"/>
</a>
</g>
</g>
<!-- Node23 -->
<g id="Node000023" class="node">
<title>Node23</title>
<g id="a_Node000023"><a xlink:href="ccsd__t__f12_8h.html" target="_top" xlink:title=" ">
<polygon fill="white" stroke="#666666" points="998,-228 865,-228 865,-198 998,-198 998,-228"/>
<text text-anchor="start" x="873" y="-216" font-family="FreeSans" font-size="10.00">mpqc/chemistry/qc/lcao</text>
<text text-anchor="middle" x="931.5" y="-205" font-family="FreeSans" font-size="10.00">/f12/ccsd_t_f12.h</text>
</a>
</g>
</g>
<!-- Node20&#45;&gt;Node23 -->
<g id="edge28_Node000020_Node000023" class="edge">
<title>Node20&#45;&gt;Node23</title>
<g id="a_edge28_Node000020_Node000023"><a xlink:title=" ">
<path fill="none" stroke="#63b8ff" d="M823.16,-259.92C847.03,-249.8 876.33,-237.38 898.44,-228.01"/>
<polygon fill="#63b8ff" stroke="#63b8ff" points="821.48,-256.83 813.64,-263.95 824.21,-263.28 821.48,-256.83"/>
</a>
</g>
</g>
<!-- Node21&#45;&gt;Node20 -->
<g id="edge27_Node000021_Node000020" class="edge">
<title>Node21&#45;&gt;Node20</title>
<g id="a_edge27_Node000021_Node000020"><a xlink:title=" ">
<path fill="none" stroke="#63b8ff" d="M787.07,-238.13C787.48,-246.78 787.2,-256.26 786.22,-263.8"/>
<polygon fill="#63b8ff" stroke="#63b8ff" points="790.55,-237.83 786.21,-228.16 783.58,-238.43 790.55,-237.83"/>
</a>
</g>
</g>
<!-- Node22 -->
<g id="Node000022" class="node">
<title>Node22</title>
<g id="a_Node000022"><a xlink:href="ccsd__t_8cpp.html" target="_top" xlink:title=" ">
<polygon fill="white" stroke="#666666" points="847,-162 714,-162 714,-132 847,-132 847,-162"/>
<text text-anchor="start" x="722" y="-150" font-family="FreeSans" font-size="10.00">mpqc/chemistry/qc/lcao</text>
<text text-anchor="middle" x="780.5" y="-139" font-family="FreeSans" font-size="10.00">/cc/pt/ccsd_t.cpp</text>
</a>
</g>
</g>
<!-- Node21&#45;&gt;Node22 -->
<g id="edge26_Node000021_Node000022" class="edge">
<title>Node21&#45;&gt;Node22</title>
<g id="a_edge26_Node000021_Node000022"><a xlink:title=" ">
<path fill="none" stroke="#63b8ff" d="M780.5,-187.54C780.5,-178.96 780.5,-169.61 780.5,-162.16"/>
<polygon fill="#63b8ff" stroke="#63b8ff" points="777,-187.8 780.5,-197.8 784,-187.8 777,-187.8"/>
</a>
</g>
</g>
<!-- Node24 -->
<g id="Node000024" class="node">
<title>Node24</title>
<g id="a_Node000024"><a xlink:href="ccsd__t__f12_8cpp.html" target="_top" xlink:title=" ">
<polygon fill="white" stroke="#666666" points="998,-162 865,-162 865,-132 998,-132 998,-162"/>
<text text-anchor="start" x="873" y="-150" font-family="FreeSans" font-size="10.00">mpqc/chemistry/qc/lcao</text>
<text text-anchor="middle" x="931.5" y="-139" font-family="FreeSans" font-size="10.00">/f12/ccsd_t_f12.cpp</text>
</a>
</g>
</g>
<!-- Node23&#45;&gt;Node24 -->
<g id="edge29_Node000023_Node000024" class="edge">
<title>Node23&#45;&gt;Node24</title>
<g id="a_edge29_Node000023_Node000024"><a xlink:title=" ">
<path fill="none" stroke="#63b8ff" d="M931.5,-187.54C931.5,-178.96 931.5,-169.61 931.5,-162.16"/>
<polygon fill="#63b8ff" stroke="#63b8ff" points="928,-187.8 931.5,-197.8 935,-187.8 928,-187.8"/>
</a>
</g>
</g>
<!-- Node25&#45;&gt;Node23 -->
<g id="edge34_Node000025_Node000023" class="edge">
<title>Node25&#45;&gt;Node23</title>
<g id="a_edge34_Node000025_Node000023"><a xlink:title=" ">
<path fill="none" stroke="#63b8ff" d="M931.5,-253.54C931.5,-244.96 931.5,-235.61 931.5,-228.16"/>
<polygon fill="#63b8ff" stroke="#63b8ff" points="928,-253.8 931.5,-263.8 935,-253.8 928,-253.8"/>
</a>
</g>
</g>
<!-- Node26 -->
<g id="Node000026" class="node">
<title>Node26</title>
<g id="a_Node000026"><a xlink:href="ccsd__f12_8ipp.html" target="_top" xlink:title=" ">
<polygon fill="white" stroke="#666666" points="1149,-228 1016,-228 1016,-198 1149,-198 1149,-228"/>
<text text-anchor="start" x="1024" y="-216" font-family="FreeSans" font-size="10.00">mpqc/chemistry/qc/lcao</text>
<text text-anchor="middle" x="1082.5" y="-205" font-family="FreeSans" font-size="10.00">/f12/ccsd_f12.ipp</text>
</a>
</g>
</g>
<!-- Node25&#45;&gt;Node26 -->
<g id="edge31_Node000025_Node000026" class="edge">
<title>Node25&#45;&gt;Node26</title>
<g id="a_edge31_Node000025_Node000026"><a xlink:title=" ">
<path fill="none" stroke="#63b8ff" d="M968.32,-259.78C991.21,-249.69 1020.5,-237.34 1043.74,-228.01"/>
<polygon fill="#63b8ff" stroke="#63b8ff" points="966.65,-256.69 958.94,-263.95 969.5,-263.09 966.65,-256.69"/>
</a>
</g>
</g>
<!-- Node26&#45;&gt;Node25 -->
<g id="edge33_Node000026_Node000025" class="edge">
<title>Node26&#45;&gt;Node25</title>
<g id="a_edge33_Node000026_Node000025"><a xlink:title=" ">
<path fill="none" stroke="#63b8ff" d="M1045.76,-232.18C1022.89,-242.27 993.59,-254.62 970.34,-263.95"/>
<polygon fill="#63b8ff" stroke="#63b8ff" points="1047.42,-235.27 1055.13,-228.01 1044.58,-228.88 1047.42,-235.27"/>
</a>
</g>
</g>
<!-- Node27 -->
<g id="Node000027" class="node">
<title>Node27</title>
<g id="a_Node000027"><a xlink:href="ccsd__f12_8cpp.html" target="_top" xlink:title=" ">
<polygon fill="white" stroke="#666666" points="1149,-162 1016,-162 1016,-132 1149,-132 1149,-162"/>
<text text-anchor="start" x="1024" y="-150" font-family="FreeSans" font-size="10.00">mpqc/chemistry/qc/lcao</text>
<text text-anchor="middle" x="1082.5" y="-139" font-family="FreeSans" font-size="10.00">/f12/ccsd_f12.cpp</text>
</a>
</g>
</g>
<!-- Node26&#45;&gt;Node27 -->
<g id="edge32_Node000026_Node000027" class="edge">
<title>Node26&#45;&gt;Node27</title>
<g id="a_edge32_Node000026_Node000027"><a xlink:title=" ">
<path fill="none" stroke="#63b8ff" d="M1082.5,-187.54C1082.5,-178.96 1082.5,-169.61 1082.5,-162.16"/>
<polygon fill="#63b8ff" stroke="#63b8ff" points="1079,-187.8 1082.5,-197.8 1086,-187.8 1079,-187.8"/>
</a>
</g>
</g>
<!-- Node28&#45;&gt;Node29 -->
<g id="edge37_Node000028_Node000029" class="edge">
<title>Node28&#45;&gt;Node29</title>
<g id="a_edge37_Node000028_Node000029"><a xlink:title=" ">
<path fill="none" stroke="#63b8ff" d="M1332.4,-320.11C1335.79,-311.38 1340.27,-301.78 1344.59,-294.16"/>
<polygon fill="#63b8ff" stroke="#63b8ff" points="1329.01,-319.2 1328.99,-329.8 1335.61,-321.52 1329.01,-319.2"/>
</a>
</g>
</g>
<!-- Node29&#45;&gt;Node28 -->
<g id="edge39_Node000029_Node000028" class="edge">
<title>Node29&#45;&gt;Node28</title>
<g id="a_edge39_Node000029_Node000028"><a xlink:title=" ">
<path fill="none" stroke="#63b8ff" d="M1352.62,-303.84C1349.23,-312.57 1344.76,-322.17 1340.43,-329.8"/>
<polygon fill="#63b8ff" stroke="#63b8ff" points="1356.01,-304.76 1356.02,-294.16 1349.4,-302.44 1356.01,-304.76"/>
</a>
</g>
</g>
<!-- Node30 -->
<g id="Node000030" class="node">
<title>Node30</title>
<g id="a_Node000030"><a xlink:href="ccsdt_8cpp.html" target="_top" xlink:title=" ">
<polygon fill="white" stroke="#666666" points="1451,-228 1318,-228 1318,-198 1451,-198 1451,-228"/>
<text text-anchor="start" x="1326" y="-216" font-family="FreeSans" font-size="10.00">mpqc/chemistry/qc/lcao</text>
<text text-anchor="middle" x="1384.5" y="-205" font-family="FreeSans" font-size="10.00">/cc/ccsdt.cpp</text>
</a>
</g>
</g>
<!-- Node29&#45;&gt;Node30 -->
<g id="edge38_Node000029_Node000030" class="edge">
<title>Node29&#45;&gt;Node30</title>
<g id="a_edge38_Node000029_Node000030"><a xlink:title=" ">
<path fill="none" stroke="#63b8ff" d="M1366.83,-254.39C1370.68,-245.59 1374.93,-235.86 1378.3,-228.16"/>
<polygon fill="#63b8ff" stroke="#63b8ff" points="1363.52,-253.23 1362.71,-263.8 1369.93,-256.04 1363.52,-253.23"/>
</a>
</g>
</g>
</g>
</svg>

<g id="navigator" transform="translate(0 0)" fill="#404254">
  <rect fill="#f2f5e9" fill-opacity="0.5" stroke="#606060" stroke-width=".5" x="0" y="0" width="60" height="60"/>
  <use id="zoomplus" xlink:href="#zoomPlus" x="17" y="9" onmousedown="handleZoom(evt,'in')"/>
  <use id="zoomminus" xlink:href="#zoomMin" x="42" y="9" onmousedown="handleZoom(evt,'out')"/>
  <use id="reset" xlink:href="#resetDef" x="30" y="36" onmousedown="handleReset()"/>
   <use id="arrowup" xlink:href="#arrowUp" x="0" y="0" onmousedown="handlePan(0,-1)"/>
  <use id="arrowright" xlink:href="#arrowRight" x="0" y="0" onmousedown="handlePan(1,0)"/>
  <use id="arrowdown" xlink:href="#arrowDown" x="0" y="0" onmousedown="handlePan(0,1)"/>
  <use id="arrowleft" xlink:href="#arrowLeft" x="0" y="0" onmousedown="handlePan(-1,0)"/>
</g>
<svg viewBox="0 0 15 15" width="100%" height="30px" preserveAspectRatio="xMaxYMin meet">
 <g id="arrow_out" transform="scale(0.3 0.3)">
  <a xlink:href="als_8h__dep__incl_org.svg" target="_base">
   <rect id="button" ry="5" rx="5" y="6" x="6" height="38" width="38"
        fill="#f2f5e9" fill-opacity="0.5" stroke="#606060" stroke-width="1.0"/>
   <path id="arrow"
     d="M 11.500037,31.436501 C 11.940474,20.09759 22.043105,11.32322 32.158766,21.979434 L 37.068811,17.246167 C 37.068811,17.246167 37.088388,32 37.088388,32 L 22.160133,31.978069 C 22.160133,31.978069 26.997745,27.140456 26.997745,27.140456 C 18.528582,18.264221 13.291696,25.230495 11.500037,31.436501 z"
     style="fill:#404040;"/>
  </a>
 </g>
</svg>

<style type='text/css'>
<![CDATA[
[data-mouse-over-selected='false'] { opacity: 0.7; }
[data-mouse-over-selected='true']  { opacity: 1.0; }
]]>
</style>
<script type="application/ecmascript"><![CDATA[
document.addEventListener('DOMContentLoaded', (event) => {
  highlightEdges();
  highlightAdjacentNodes();
});
]]></script>
</svg>
