<?xml version="1.0" encoding="UTF-8" standalone="no"?>
<!DOCTYPE svg PUBLIC "-//W3C//DTD SVG 1.1//EN"
 "http://www.w3.org/Graphics/SVG/1.1/DTD/svg11.dtd">
<!-- Generated by graphviz version 2.43.0 (0)
 -->
<!-- Title: mpqc/chemistry/qc/lcao/wfn/ao_wfn.h Pages: 1 -->
<!--zoomable 302 -->

<svg id="main" version="1.1" xmlns="http://www.w3.org/2000/svg" xmlns:xlink="http://www.w3.org/1999/xlink" xml:space="preserve" onload="init(evt)">
<style type="text/css"><![CDATA[
.node, .edge {opacity: 0.7;}
.node.selected, .edge.selected {opacity: 1;}
.edge:hover path { stroke: red; }
.edge:hover polygon { stroke: red; fill: red; }
]]></style>

<defs>
  <circle id="rim" cx="0" cy="0" r="7"/>
  <circle id="rim2" cx="0" cy="0" r="3.5"/>
  <g id="zoomPlus">
    <use xlink:href="#rim" fill="#404040"><set attributeName="fill" to="#808080" begin="zoomplus.mouseover" end="zoomplus.mouseout"/></use>
    <path d="M-4,0h8M0,-4v8" fill="none" stroke="white" stroke-width="1.5" pointer-events="none"/>
  </g>
  <g id="zoomMin">
    <use xlink:href="#rim" fill="#404040"><set attributeName="fill" to="#808080" begin="zoomminus.mouseover" end="zoomminus.mouseout"/></use>
    <path d="M-4,0h8" fill="none" stroke="white" stroke-width="1.5" pointer-events="none"/>
  </g>
  <g id="arrowUp" transform="translate(30 24)">
    <use xlink:href="#rim"/>
    <path pointer-events="none" fill="none" stroke="white" stroke-width="1.5" d="M0,-3.0v7 M-2.5,-0.5L0,-3.0L2.5,-0.5"/>
  </g>
  <g id="arrowRight" transform="rotate(90) translate(36 -43)">
    <use xlink:href="#rim"/>
    <path pointer-events="none" fill="none" stroke="white" stroke-width="1.5" d="M0,-3.0v7 M-2.5,-0.5L0,-3.0L2.5,-0.5"/>
  </g>
  <g id="arrowDown" transform="rotate(180) translate(-30 -48)">
    <use xlink:href="#rim"/>
    <path pointer-events="none" fill="none" stroke="white" stroke-width="1.5" d="M0,-3.0v7 M-2.5,-0.5L0,-3.0L2.5,-0.5"/>
  </g>
  <g id="arrowLeft" transform="rotate(270) translate(-36 17)">
    <use xlink:href="#rim"/>
    <path pointer-events="none" fill="none" stroke="white" stroke-width="1.5" d="M0,-3.0v7 M-2.5,-0.5L0,-3.0L2.5,-0.5"/>
  </g>
  <g id="resetDef">
    <use xlink:href="#rim2" fill="#404040"><set attributeName="fill" to="#808080" begin="reset.mouseover" end="reset.mouseout"/></use>
  </g>
</defs>
<script type="application/ecmascript">
var viewWidth = 1527;
var viewHeight = 302;
var sectionId = 'dynsection-1';
</script>
<script type="application/ecmascript" xlink:href="svg.min.js"/>
<svg id="graph" class="graph">
<g id="viewport">
<title>mpqc/chemistry/qc/lcao/wfn/ao_wfn.h</title>
<!-- Node1 -->
<g id="Node000001" class="node">
<title>Node1</title>
<g id="a_Node000001"><a xlink:title=" ">
<polygon fill="#999999" stroke="#666666" points="1110,-294 977,-294 977,-264 1110,-264 1110,-294"/>
<text text-anchor="start" x="985" y="-282" font-family="FreeSans" font-size="10.00">mpqc/chemistry/qc/lcao</text>
<text text-anchor="middle" x="1043.5" y="-271" font-family="FreeSans" font-size="10.00">/wfn/ao_wfn.h</text>
</a>
</g>
</g>
<!-- Node2 -->
<g id="Node000002" class="node">
<title>Node2</title>
<g id="a_Node000002"><a xlink:href="python_2src_2wfn_8h.html" target="_top" xlink:title=" ">
<polygon fill="white" stroke="#666666" points="564,-228 419,-228 419,-198 564,-198 564,-228"/>
<text text-anchor="start" x="427" y="-216" font-family="FreeSans" font-size="10.00">/home/runner/work/mpqc4</text>
<text text-anchor="middle" x="491.5" y="-205" font-family="FreeSans" font-size="10.00">/mpqc4/python/src/wfn.h</text>
</a>
</g>
</g>
<!-- Node1&#45;&gt;Node2 -->
<g id="edge1_Node000001_Node000002" class="edge">
<title>Node1&#45;&gt;Node2</title>
<g id="a_edge1_Node000001_Node000002"><a xlink:title=" ">
<path fill="none" stroke="#63b8ff" d="M966.87,-269.11C860.22,-256.75 668.41,-234.51 564.01,-222.41"/>
<polygon fill="#63b8ff" stroke="#63b8ff" points="966.58,-272.61 976.92,-270.28 967.39,-265.65 966.58,-272.61"/>
</a>
</g>
</g>
<!-- Node9 -->
<g id="Node000009" class="node">
<title>Node9</title>
<g id="a_Node000009"><a xlink:href="sd_8h.html" target="_top" xlink:title=" ">
<polygon fill="white" stroke="#666666" points="1110,-228 977,-228 977,-198 1110,-198 1110,-228"/>
<text text-anchor="start" x="985" y="-216" font-family="FreeSans" font-size="10.00">mpqc/chemistry/qc/lcao</text>
<text text-anchor="middle" x="1043.5" y="-205" font-family="FreeSans" font-size="10.00">/scf/sd.h</text>
</a>
</g>
</g>
<!-- Node1&#45;&gt;Node9 -->
<g id="edge14_Node000001_Node000009" class="edge">
<title>Node1&#45;&gt;Node9</title>
<g id="a_edge14_Node000001_Node000009"><a xlink:title=" ">
<path fill="none" stroke="#63b8ff" d="M1043.5,-253.54C1043.5,-244.96 1043.5,-235.61 1043.5,-228.16"/>
<polygon fill="#63b8ff" stroke="#63b8ff" points="1040,-253.8 1043.5,-263.8 1047,-253.8 1040,-253.8"/>
</a>
</g>
</g>
<!-- Node21 -->
<g id="Node000021" class="node">
<title>Node21</title>
<g id="a_Node000021"><a xlink:href="ao__wfn_8cpp.html" target="_top" xlink:title=" ">
<polygon fill="white" stroke="#666666" points="1261,-228 1128,-228 1128,-198 1261,-198 1261,-228"/>
<text text-anchor="start" x="1136" y="-216" font-family="FreeSans" font-size="10.00">mpqc/chemistry/qc/lcao</text>
<text text-anchor="middle" x="1194.5" y="-205" font-family="FreeSans" font-size="10.00">/wfn/ao_wfn.cpp</text>
</a>
</g>
</g>
<!-- Node1&#45;&gt;Node21 -->
<g id="edge30_Node000001_Node000021" class="edge">
<title>Node1&#45;&gt;Node21</title>
<g id="a_edge30_Node000001_Node000021"><a xlink:title=" ">
<path fill="none" stroke="#63b8ff" d="M1086.16,-259.92C1110.03,-249.8 1139.33,-237.38 1161.44,-228.01"/>
<polygon fill="#63b8ff" stroke="#63b8ff" points="1084.48,-256.83 1076.64,-263.95 1087.21,-263.28 1084.48,-256.83"/>
</a>
</g>
</g>
<!-- Node3 -->
<g id="Node000003" class="node">
<title>Node3</title>
<g id="a_Node000003"><a xlink:href="cc_8h.html" target="_top" xlink:title=" ">
<polygon fill="white" stroke="#666666" points="145,-96 0,-96 0,-66 145,-66 145,-96"/>
<text text-anchor="start" x="8" y="-84" font-family="FreeSans" font-size="10.00">/home/runner/work/mpqc4</text>
<text text-anchor="middle" x="72.5" y="-73" font-family="FreeSans" font-size="10.00">/mpqc4/python/src/cc.h</text>
</a>
</g>
</g>
<!-- Node2&#45;&gt;Node3 -->
<g id="edge2_Node000002_Node000003" class="edge">
<title>Node2&#45;&gt;Node3</title>
<g id="a_edge2_Node000002_Node000003"><a xlink:title=" ">
<path fill="none" stroke="#63b8ff" d="M408.85,-203.7C354.01,-196.54 281.07,-183.79 219.5,-162 171.84,-145.14 121.06,-114.24 93.41,-96.17"/>
<polygon fill="#63b8ff" stroke="#63b8ff" points="408.51,-207.19 418.87,-204.98 409.39,-200.24 408.51,-207.19"/>
</a>
</g>
</g>
<!-- Node4 -->
<g id="Node000004" class="node">
<title>Node4</title>
<g id="a_Node000004"><a xlink:href="mpqc_8cc.html" target="_top" xlink:title=" ">
<polygon fill="white" stroke="#666666" points="497.5,-30 347.5,-30 347.5,0 497.5,0 497.5,-30"/>
<text text-anchor="start" x="355.5" y="-18" font-family="FreeSans" font-size="10.00">/home/runner/work/mpqc4</text>
<text text-anchor="middle" x="422.5" y="-7" font-family="FreeSans" font-size="10.00">/mpqc4/python/src/mpqc.cc</text>
</a>
</g>
</g>
<!-- Node2&#45;&gt;Node4 -->
<g id="edge11_Node000002_Node000004" class="edge">
<title>Node2&#45;&gt;Node4</title>
<g id="a_edge11_Node000002_Node000004"><a xlink:title=" ">
<path fill="none" stroke="#63b8ff" d="M501.15,-188.24C511.86,-157.84 524.99,-104.51 503.5,-66 494.4,-49.69 477.55,-38.04 461.57,-30.11"/>
<polygon fill="#63b8ff" stroke="#63b8ff" points="497.87,-187.02 497.67,-197.61 504.43,-189.46 497.87,-187.02"/>
</a>
</g>
</g>
<!-- Node5 -->
<g id="Node000005" class="node">
<title>Node5</title>
<g id="a_Node000005"><a xlink:href="python_2src_2factory_8h.html" target="_top" xlink:title=" ">
<polygon fill="white" stroke="#666666" points="380.5,-162 228.5,-162 228.5,-132 380.5,-132 380.5,-162"/>
<text text-anchor="start" x="236.5" y="-150" font-family="FreeSans" font-size="10.00">/home/runner/work/mpqc4</text>
<text text-anchor="middle" x="304.5" y="-139" font-family="FreeSans" font-size="10.00">/mpqc4/python/src/factory.h</text>
</a>
</g>
</g>
<!-- Node2&#45;&gt;Node5 -->
<g id="edge4_Node000002_Node000005" class="edge">
<title>Node2&#45;&gt;Node5</title>
<g id="a_edge4_Node000002_Node000005"><a xlink:title=" ">
<path fill="none" stroke="#63b8ff" d="M440.63,-194.59C410.73,-184.36 373.43,-171.59 345.44,-162.01"/>
<polygon fill="#63b8ff" stroke="#63b8ff" points="439.87,-198.03 450.46,-197.95 442.13,-191.41 439.87,-198.03"/>
</a>
</g>
</g>
<!-- Node6 -->
<g id="Node000006" class="node">
<title>Node6</title>
<g id="a_Node000006"><a xlink:href="mbpt_8h.html" target="_top" xlink:title=" ">
<polygon fill="white" stroke="#666666" points="495,-96 350,-96 350,-66 495,-66 495,-96"/>
<text text-anchor="start" x="358" y="-84" font-family="FreeSans" font-size="10.00">/home/runner/work/mpqc4</text>
<text text-anchor="middle" x="422.5" y="-73" font-family="FreeSans" font-size="10.00">/mpqc4/python/src/mbpt.h</text>
</a>
</g>
</g>
<!-- Node2&#45;&gt;Node6 -->
<g id="edge10_Node000002_Node000006" class="edge">
<title>Node2&#45;&gt;Node6</title>
<g id="a_edge10_Node000002_Node000006"><a xlink:title=" ">
<path fill="none" stroke="#63b8ff" d="M479.16,-188.75C464.88,-161.84 441.82,-118.4 430.01,-96.14"/>
<polygon fill="#63b8ff" stroke="#63b8ff" points="476.2,-190.65 483.98,-197.84 482.39,-187.37 476.2,-190.65"/>
</a>
</g>
</g>
<!-- Node8 -->
<g id="Node000008" class="node">
<title>Node8</title>
<g id="a_Node000008"><a xlink:href="scf_8h.html" target="_top" xlink:title=" ">
<polygon fill="white" stroke="#666666" points="697,-96 552,-96 552,-66 697,-66 697,-96"/>
<text text-anchor="start" x="560" y="-84" font-family="FreeSans" font-size="10.00">/home/runner/work/mpqc4</text>
<text text-anchor="middle" x="624.5" y="-73" font-family="FreeSans" font-size="10.00">/mpqc4/python/src/scf.h</text>
</a>
</g>
</g>
<!-- Node2&#45;&gt;Node8 -->
<g id="edge12_Node000002_Node000008" class="edge">
<title>Node2&#45;&gt;Node8</title>
<g id="a_edge12_Node000002_Node000008"><a xlink:title=" ">
<path fill="none" stroke="#63b8ff" d="M513.15,-190.84C540.46,-164.15 586.66,-118.99 610.03,-96.14"/>
<polygon fill="#63b8ff" stroke="#63b8ff" points="510.69,-188.35 505.99,-197.84 515.58,-193.35 510.69,-188.35"/>
</a>
</g>
</g>
<!-- Node3&#45;&gt;Node4 -->
<g id="edge3_Node000003_Node000004" class="edge">
<title>Node3&#45;&gt;Node4</title>
<g id="a_edge3_Node000003_Node000004"><a xlink:title=" ">
<path fill="none" stroke="#63b8ff" d="M154.94,-64.93C213.23,-54.27 290.76,-40.09 347.35,-29.74"/>
<polygon fill="#63b8ff" stroke="#63b8ff" points="154.23,-61.5 145.02,-66.74 155.49,-68.38 154.23,-61.5"/>
</a>
</g>
</g>
<!-- Node5&#45;&gt;Node3 -->
<g id="edge5_Node000005_Node000003" class="edge">
<title>Node5&#45;&gt;Node3</title>
<g id="a_edge5_Node000005_Node000003"><a xlink:title=" ">
<path fill="none" stroke="#63b8ff" d="M243.79,-129.25C206.31,-118.91 158.78,-105.8 123.29,-96.01"/>
<polygon fill="#63b8ff" stroke="#63b8ff" points="243.02,-132.67 253.59,-131.95 244.88,-125.92 243.02,-132.67"/>
</a>
</g>
</g>
<!-- Node5&#45;&gt;Node6 -->
<g id="edge6_Node000005_Node000006" class="edge">
<title>Node5&#45;&gt;Node6</title>
<g id="a_edge6_Node000005_Node000006"><a xlink:title=" ">
<path fill="none" stroke="#63b8ff" d="M339.34,-127.11C357.7,-117.14 379.85,-105.13 396.66,-96.01"/>
<polygon fill="#63b8ff" stroke="#63b8ff" points="337.52,-124.11 330.4,-131.95 340.85,-130.26 337.52,-124.11"/>
</a>
</g>
</g>
<!-- Node7 -->
<g id="Node000007" class="node">
<title>Node7</title>
<g id="a_Node000007"><a xlink:href="properties_8h.html" target="_top" xlink:title=" ">
<polygon fill="white" stroke="#666666" points="331.5,-96 163.5,-96 163.5,-66 331.5,-66 331.5,-96"/>
<text text-anchor="start" x="171.5" y="-84" font-family="FreeSans" font-size="10.00">/home/runner/work/mpqc4</text>
<text text-anchor="middle" x="247.5" y="-73" font-family="FreeSans" font-size="10.00">/mpqc4/python/src/properties.h</text>
</a>
</g>
</g>
<!-- Node5&#45;&gt;Node7 -->
<g id="edge8_Node000005_Node000007" class="edge">
<title>Node5&#45;&gt;Node7</title>
<g id="a_edge8_Node000005_Node000007"><a xlink:title=" ">
<path fill="none" stroke="#63b8ff" d="M284.98,-124.09C276.76,-114.85 267.41,-104.36 260.11,-96.16"/>
<polygon fill="#63b8ff" stroke="#63b8ff" points="282.59,-126.66 291.85,-131.8 287.81,-122 282.59,-126.66"/>
</a>
</g>
</g>
<!-- Node6&#45;&gt;Node4 -->
<g id="edge7_Node000006_Node000004" class="edge">
<title>Node6&#45;&gt;Node4</title>
<g id="a_edge7_Node000006_Node000004"><a xlink:title=" ">
<path fill="none" stroke="#63b8ff" d="M422.5,-55.54C422.5,-46.96 422.5,-37.61 422.5,-30.16"/>
<polygon fill="#63b8ff" stroke="#63b8ff" points="419,-55.8 422.5,-65.8 426,-55.8 419,-55.8"/>
</a>
</g>
</g>
<!-- Node7&#45;&gt;Node4 -->
<g id="edge9_Node000007_Node000004" class="edge">
<title>Node7&#45;&gt;Node4</title>
<g id="a_edge9_Node000007_Node000004"><a xlink:title=" ">
<path fill="none" stroke="#63b8ff" d="M295.47,-62.46C323.39,-52.25 358.1,-39.55 384.19,-30.01"/>
<polygon fill="#63b8ff" stroke="#63b8ff" points="294.09,-59.23 285.9,-65.95 296.5,-65.81 294.09,-59.23"/>
</a>
</g>
</g>
<!-- Node8&#45;&gt;Node4 -->
<g id="edge13_Node000008_Node000004" class="edge">
<title>Node8&#45;&gt;Node4</title>
<g id="a_edge13_Node000008_Node000004"><a xlink:title=" ">
<path fill="none" stroke="#63b8ff" d="M570.39,-62.86C537.95,-52.58 497.23,-39.68 466.73,-30.01"/>
<polygon fill="#63b8ff" stroke="#63b8ff" points="569.58,-66.27 580.17,-65.95 571.69,-59.6 569.58,-66.27"/>
</a>
</g>
</g>
<!-- Node10 -->
<g id="Node000010" class="node">
<title>Node10</title>
<g id="a_Node000010"><a xlink:href="pao__to__pno__mp2_8ipp.html" target="_top" xlink:title=" ">
<polygon fill="white" stroke="#666666" points="1353,-162 1204,-162 1204,-132 1353,-132 1353,-162"/>
<text text-anchor="start" x="1212" y="-150" font-family="FreeSans" font-size="10.00">mpqc/chemistry/qc/lcao</text>
<text text-anchor="middle" x="1278.5" y="-139" font-family="FreeSans" font-size="10.00">/mbpt/pao_to_pno_mp2.ipp</text>
</a>
</g>
</g>
<!-- Node9&#45;&gt;Node10 -->
<g id="edge15_Node000009_Node000010" class="edge">
<title>Node9&#45;&gt;Node10</title>
<g id="a_edge15_Node000009_Node000010"><a xlink:title=" ">
<path fill="none" stroke="#63b8ff" d="M1104.99,-195.25C1142.96,-184.91 1191.11,-171.8 1227.05,-162.01"/>
<polygon fill="#63b8ff" stroke="#63b8ff" points="1103.8,-191.95 1095.07,-197.95 1105.64,-198.7 1103.8,-191.95"/>
</a>
</g>
</g>
<!-- Node13 -->
<g id="Node000013" class="node">
<title>Node13</title>
<g id="a_Node000013"><a xlink:href="rhf_8h.html" target="_top" xlink:title=" ">
<polygon fill="white" stroke="#666666" points="866,-162 733,-162 733,-132 866,-132 866,-162"/>
<text text-anchor="start" x="741" y="-150" font-family="FreeSans" font-size="10.00">mpqc/chemistry/qc/lcao</text>
<text text-anchor="middle" x="799.5" y="-139" font-family="FreeSans" font-size="10.00">/scf/rhf.h</text>
</a>
</g>
</g>
<!-- Node9&#45;&gt;Node13 -->
<g id="edge19_Node000009_Node000013" class="edge">
<title>Node9&#45;&gt;Node13</title>
<g id="a_edge19_Node000009_Node000013"><a xlink:title=" ">
<path fill="none" stroke="#63b8ff" d="M980.16,-195.39C940.66,-185.03 890.4,-171.84 852.92,-162.01"/>
<polygon fill="#63b8ff" stroke="#63b8ff" points="979.39,-198.8 989.95,-197.95 981.17,-192.03 979.39,-198.8"/>
</a>
</g>
</g>
<!-- Node18 -->
<g id="Node000018" class="node">
<title>Node18</title>
<g id="a_Node000018"><a xlink:href="sd_8ipp.html" target="_top" xlink:title=" ">
<polygon fill="white" stroke="#666666" points="1186,-162 1053,-162 1053,-132 1186,-132 1186,-162"/>
<text text-anchor="start" x="1061" y="-150" font-family="FreeSans" font-size="10.00">mpqc/chemistry/qc/lcao</text>
<text text-anchor="middle" x="1119.5" y="-139" font-family="FreeSans" font-size="10.00">/scf/sd.ipp</text>
</a>
</g>
</g>
<!-- Node9&#45;&gt;Node18 -->
<g id="edge25_Node000009_Node000018" class="edge">
<title>Node9&#45;&gt;Node18</title>
<g id="a_edge25_Node000009_Node000018"><a xlink:title=" ">
<path fill="none" stroke="#63b8ff" d="M1062.14,-190.92C1072.7,-181.49 1085.84,-170.61 1096.97,-162.16"/>
<polygon fill="#63b8ff" stroke="#63b8ff" points="1059.65,-188.46 1054.65,-197.8 1064.38,-193.62 1059.65,-188.46"/>
</a>
</g>
</g>
<!-- Node20 -->
<g id="Node000020" class="node">
<title>Node20</title>
<g id="a_Node000020"><a xlink:href="solver_8ipp.html" target="_top" xlink:title=" ">
<polygon fill="white" stroke="#666666" points="1034.5,-162 902.5,-162 902.5,-132 1034.5,-132 1034.5,-162"/>
<text text-anchor="start" x="910.5" y="-150" font-family="FreeSans" font-size="10.00">mpqc/chemistry/qc/mra</text>
<text text-anchor="middle" x="968.5" y="-139" font-family="FreeSans" font-size="10.00">/scf/solver.ipp</text>
</a>
</g>
</g>
<!-- Node9&#45;&gt;Node20 -->
<g id="edge28_Node000009_Node000020" class="edge">
<title>Node9&#45;&gt;Node20</title>
<g id="a_edge28_Node000009_Node000020"><a xlink:title=" ">
<path fill="none" stroke="#63b8ff" d="M1019.13,-191.2C1007.99,-181.7 995.09,-170.69 985.1,-162.16"/>
<polygon fill="#63b8ff" stroke="#63b8ff" points="1016.98,-193.97 1026.86,-197.8 1021.52,-188.64 1016.98,-193.97"/>
</a>
</g>
</g>
<!-- Node11 -->
<g id="Node000011" class="node">
<title>Node11</title>
<g id="a_Node000011"><a xlink:href="pao__to__pno__mp2_8cpp.html" target="_top" xlink:title=" ">
<polygon fill="white" stroke="#666666" points="1518.5,-96 1366.5,-96 1366.5,-66 1518.5,-66 1518.5,-96"/>
<text text-anchor="start" x="1374.5" y="-84" font-family="FreeSans" font-size="10.00">mpqc/chemistry/qc/lcao</text>
<text text-anchor="middle" x="1442.5" y="-73" font-family="FreeSans" font-size="10.00">/mbpt/pao_to_pno_mp2.cpp</text>
</a>
</g>
</g>
<!-- Node10&#45;&gt;Node11 -->
<g id="edge16_Node000010_Node000011" class="edge">
<title>Node10&#45;&gt;Node11</title>
<g id="a_edge16_Node000010_Node000011"><a xlink:title=" ">
<path fill="none" stroke="#63b8ff" d="M1324.14,-128.19C1350.19,-118.02 1382.37,-105.47 1406.59,-96.01"/>
<polygon fill="#63b8ff" stroke="#63b8ff" points="1322.53,-125.06 1314.49,-131.95 1325.08,-131.58 1322.53,-125.06"/>
</a>
</g>
</g>
<!-- Node12 -->
<g id="Node000012" class="node">
<title>Node12</title>
<g id="a_Node000012"><a xlink:href="pao__to__pno__mp2_8h.html" target="_top" xlink:title=" ">
<polygon fill="white" stroke="#666666" points="1348.5,-96 1208.5,-96 1208.5,-66 1348.5,-66 1348.5,-96"/>
<text text-anchor="start" x="1216.5" y="-84" font-family="FreeSans" font-size="10.00">mpqc/chemistry/qc/lcao</text>
<text text-anchor="middle" x="1278.5" y="-73" font-family="FreeSans" font-size="10.00">/mbpt/pao_to_pno_mp2.h</text>
</a>
</g>
</g>
<!-- Node10&#45;&gt;Node12 -->
<g id="edge17_Node000010_Node000012" class="edge">
<title>Node10&#45;&gt;Node12</title>
<g id="a_edge17_Node000010_Node000012"><a xlink:title=" ">
<path fill="none" stroke="#63b8ff" d="M1271.93,-121.83C1271.52,-113.17 1271.81,-103.7 1272.79,-96.16"/>
<polygon fill="#63b8ff" stroke="#63b8ff" points="1268.45,-122.13 1272.78,-131.8 1275.42,-121.54 1268.45,-122.13"/>
</a>
</g>
</g>
<!-- Node12&#45;&gt;Node10 -->
<g id="edge18_Node000012_Node000010" class="edge">
<title>Node12&#45;&gt;Node10</title>
<g id="a_edge18_Node000012_Node000010"><a xlink:title=" ">
<path fill="none" stroke="#63b8ff" d="M1285.07,-106.13C1285.48,-114.78 1285.2,-124.26 1284.22,-131.8"/>
<polygon fill="#63b8ff" stroke="#63b8ff" points="1288.55,-105.83 1284.21,-96.16 1281.58,-106.43 1288.55,-105.83"/>
</a>
</g>
</g>
<!-- Node13&#45;&gt;Node8 -->
<g id="edge20_Node000013_Node000008" class="edge">
<title>Node13&#45;&gt;Node8</title>
<g id="a_edge20_Node000013_Node000008"><a xlink:title=" ">
<path fill="none" stroke="#63b8ff" d="M751.53,-128.46C723.61,-118.25 688.9,-105.55 662.81,-96.01"/>
<polygon fill="#63b8ff" stroke="#63b8ff" points="750.5,-131.81 761.1,-131.95 752.91,-125.23 750.5,-131.81"/>
</a>
</g>
</g>
<!-- Node14 -->
<g id="Node000014" class="node">
<title>Node14</title>
<g id="a_Node000014"><a xlink:href="rhf_8ipp.html" target="_top" xlink:title=" ">
<polygon fill="white" stroke="#666666" points="848,-96 715,-96 715,-66 848,-66 848,-96"/>
<text text-anchor="start" x="723" y="-84" font-family="FreeSans" font-size="10.00">mpqc/chemistry/qc/lcao</text>
<text text-anchor="middle" x="781.5" y="-73" font-family="FreeSans" font-size="10.00">/scf/rhf.ipp</text>
</a>
</g>
</g>
<!-- Node13&#45;&gt;Node14 -->
<g id="edge21_Node000013_Node000014" class="edge">
<title>Node13&#45;&gt;Node14</title>
<g id="a_edge21_Node000013_Node000014"><a xlink:title=" ">
<path fill="none" stroke="#63b8ff" d="M792.78,-122.11C790.32,-113.38 787.63,-103.78 785.48,-96.16"/>
<polygon fill="#63b8ff" stroke="#63b8ff" points="789.43,-123.12 795.51,-131.8 796.17,-121.22 789.43,-123.12"/>
</a>
</g>
</g>
<!-- Node16 -->
<g id="Node000016" class="node">
<title>Node16</title>
<g id="a_Node000016"><a xlink:href="solver__1c__v2_8ipp.html" target="_top" xlink:title=" ">
<polygon fill="white" stroke="#666666" points="998.5,-96 866.5,-96 866.5,-66 998.5,-66 998.5,-96"/>
<text text-anchor="start" x="874.5" y="-84" font-family="FreeSans" font-size="10.00">mpqc/chemistry/qc/mra</text>
<text text-anchor="middle" x="932.5" y="-73" font-family="FreeSans" font-size="10.00">/scf/solver_1c_v2.ipp</text>
</a>
</g>
</g>
<!-- Node13&#45;&gt;Node16 -->
<g id="edge23_Node000013_Node000016" class="edge">
<title>Node13&#45;&gt;Node16</title>
<g id="a_edge23_Node000013_Node000016"><a xlink:title=" ">
<path fill="none" stroke="#63b8ff" d="M837.92,-127.51C858.78,-117.47 884.17,-105.26 903.38,-96.01"/>
<polygon fill="#63b8ff" stroke="#63b8ff" points="836.18,-124.46 828.69,-131.95 839.22,-130.77 836.18,-124.46"/>
</a>
</g>
</g>
<!-- Node15 -->
<g id="Node000015" class="node">
<title>Node15</title>
<g id="a_Node000015"><a xlink:href="rhf_8cpp.html" target="_top" xlink:title=" ">
<polygon fill="white" stroke="#666666" points="848,-30 715,-30 715,0 848,0 848,-30"/>
<text text-anchor="start" x="723" y="-18" font-family="FreeSans" font-size="10.00">mpqc/chemistry/qc/lcao</text>
<text text-anchor="middle" x="781.5" y="-7" font-family="FreeSans" font-size="10.00">/scf/rhf.cpp</text>
</a>
</g>
</g>
<!-- Node14&#45;&gt;Node15 -->
<g id="edge22_Node000014_Node000015" class="edge">
<title>Node14&#45;&gt;Node15</title>
<g id="a_edge22_Node000014_Node000015"><a xlink:title=" ">
<path fill="none" stroke="#63b8ff" d="M781.5,-55.54C781.5,-46.96 781.5,-37.61 781.5,-30.16"/>
<polygon fill="#63b8ff" stroke="#63b8ff" points="778,-55.8 781.5,-65.8 785,-55.8 778,-55.8"/>
</a>
</g>
</g>
<!-- Node17 -->
<g id="Node000017" class="node">
<title>Node17</title>
<g id="a_Node000017"><a xlink:href="solver_8cpp.html" target="_top" xlink:title=" ">
<polygon fill="white" stroke="#666666" points="1045.5,-30 913.5,-30 913.5,0 1045.5,0 1045.5,-30"/>
<text text-anchor="start" x="921.5" y="-18" font-family="FreeSans" font-size="10.00">mpqc/chemistry/qc/mra</text>
<text text-anchor="middle" x="979.5" y="-7" font-family="FreeSans" font-size="10.00">/scf/solver.cpp</text>
</a>
</g>
</g>
<!-- Node16&#45;&gt;Node17 -->
<g id="edge24_Node000016_Node000017" class="edge">
<title>Node16&#45;&gt;Node17</title>
<g id="a_edge24_Node000016_Node000017"><a xlink:title=" ">
<path fill="none" stroke="#63b8ff" d="M949,-57.53C955.69,-48.43 963.2,-38.19 969.1,-30.16"/>
<polygon fill="#63b8ff" stroke="#63b8ff" points="946.03,-55.66 942.93,-65.8 951.67,-59.81 946.03,-55.66"/>
</a>
</g>
</g>
<!-- Node18&#45;&gt;Node9 -->
<g id="edge27_Node000018_Node000009" class="edge">
<title>Node18&#45;&gt;Node9</title>
<g id="a_edge27_Node000018_Node000009"><a xlink:title=" ">
<path fill="none" stroke="#63b8ff" d="M1100.91,-169.03C1090.36,-178.46 1077.22,-189.34 1066.09,-197.8"/>
<polygon fill="#63b8ff" stroke="#63b8ff" points="1103.39,-171.5 1108.4,-162.16 1098.66,-166.35 1103.39,-171.5"/>
</a>
</g>
</g>
<!-- Node19 -->
<g id="Node000019" class="node">
<title>Node19</title>
<g id="a_Node000019"><a xlink:href="sd_8cpp.html" target="_top" xlink:title=" ">
<polygon fill="white" stroke="#666666" points="1188,-96 1055,-96 1055,-66 1188,-66 1188,-96"/>
<text text-anchor="start" x="1063" y="-84" font-family="FreeSans" font-size="10.00">mpqc/chemistry/qc/lcao</text>
<text text-anchor="middle" x="1121.5" y="-73" font-family="FreeSans" font-size="10.00">/scf/sd.cpp</text>
</a>
</g>
</g>
<!-- Node18&#45;&gt;Node19 -->
<g id="edge26_Node000018_Node000019" class="edge">
<title>Node18&#45;&gt;Node19</title>
<g id="a_edge26_Node000018_Node000019"><a xlink:title=" ">
<path fill="none" stroke="#63b8ff" d="M1120.26,-121.54C1120.53,-112.96 1120.82,-103.61 1121.06,-96.16"/>
<polygon fill="#63b8ff" stroke="#63b8ff" points="1116.76,-121.69 1119.94,-131.8 1123.75,-121.91 1116.76,-121.69"/>
</a>
</g>
</g>
<!-- Node20&#45;&gt;Node17 -->
<g id="edge29_Node000020_Node000017" class="edge">
<title>Node20&#45;&gt;Node17</title>
<g id="a_edge29_Node000020_Node000017"><a xlink:title=" ">
<path fill="none" stroke="#63b8ff" d="M990.51,-124.28C997.32,-116.12 1003.96,-106.31 1007.5,-96 1015.44,-72.9 1001.31,-46.12 990.39,-30.15"/>
<polygon fill="#63b8ff" stroke="#63b8ff" points="987.81,-122.05 983.76,-131.84 993.03,-126.72 987.81,-122.05"/>
</a>
</g>
</g>
</g>
</svg>

<g id="navigator" transform="translate(0 0)" fill="#404254">
  <rect fill="#f2f5e9" fill-opacity="0.5" stroke="#606060" stroke-width=".5" x="0" y="0" width="60" height="60"/>
  <use id="zoomplus" xlink:href="#zoomPlus" x="17" y="9" onmousedown="handleZoom(evt,'in')"/>
  <use id="zoomminus" xlink:href="#zoomMin" x="42" y="9" onmousedown="handleZoom(evt,'out')"/>
  <use id="reset" xlink:href="#resetDef" x="30" y="36" onmousedown="handleReset()"/>
   <use id="arrowup" xlink:href="#arrowUp" x="0" y="0" onmousedown="handlePan(0,-1)"/>
  <use id="arrowright" xlink:href="#arrowRight" x="0" y="0" onmousedown="handlePan(1,0)"/>
  <use id="arrowdown" xlink:href="#arrowDown" x="0" y="0" onmousedown="handlePan(0,1)"/>
  <use id="arrowleft" xlink:href="#arrowLeft" x="0" y="0" onmousedown="handlePan(-1,0)"/>
</g>
<svg viewBox="0 0 15 15" width="100%" height="30px" preserveAspectRatio="xMaxYMin meet">
 <g id="arrow_out" transform="scale(0.3 0.3)">
  <a xlink:href="ao__wfn_8h__dep__incl_org.svg" target="_base">
   <rect id="button" ry="5" rx="5" y="6" x="6" height="38" width="38"
        fill="#f2f5e9" fill-opacity="0.5" stroke="#606060" stroke-width="1.0"/>
   <path id="arrow"
     d="M 11.500037,31.436501 C 11.940474,20.09759 22.043105,11.32322 32.158766,21.979434 L 37.068811,17.246167 C 37.068811,17.246167 37.088388,32 37.088388,32 L 22.160133,31.978069 C 22.160133,31.978069 26.997745,27.140456 26.997745,27.140456 C 18.528582,18.264221 13.291696,25.230495 11.500037,31.436501 z"
     style="fill:#404040;"/>
  </a>
 </g>
</svg>

<style type='text/css'>
<![CDATA[
[data-mouse-over-selected='false'] { opacity: 0.7; }
[data-mouse-over-selected='true']  { opacity: 1.0; }
]]>
</style>
<script type="application/ecmascript"><![CDATA[
document.addEventListener('DOMContentLoaded', (event) => {
  highlightEdges();
  highlightAdjacentNodes();
});
]]></script>
</svg>
