<?xml version="1.0" encoding="UTF-8" standalone="no"?>
<!DOCTYPE svg PUBLIC "-//W3C//DTD SVG 1.1//EN"
 "http://www.w3.org/Graphics/SVG/1.1/DTD/svg11.dtd">
<!-- Generated by graphviz version 2.43.0 (0)
 -->
<!-- Title: mpqc/math/external/tiledarray/array_max_n.h Pages: 1 -->
<svg width="1287pt" height="302pt"
 viewBox="0.00 0.00 1287.00 302.00" xmlns="http://www.w3.org/2000/svg" xmlns:xlink="http://www.w3.org/1999/xlink">
<g id="graph0" class="graph" transform="scale(1 1) rotate(0) translate(4 298)">
<title>mpqc/math/external/tiledarray/array_max_n.h</title>
<!-- Node1 -->
<g id="Node000001" class="node">
<title>Node1</title>
<g id="a_Node000001"><a xlink:title=" ">
<polygon fill="#999999" stroke="#666666" points="641.5,-294 498.5,-294 498.5,-264 641.5,-264 641.5,-294"/>
<text text-anchor="start" x="506.5" y="-282" font-family="FreeSans" font-size="10.00">mpqc/math/external</text>
<text text-anchor="middle" x="570" y="-271" font-family="FreeSans" font-size="10.00">/tiledarray/array_max_n.h</text>
</a>
</g>
</g>
<!-- Node2 -->
<g id="Node000002" class="node">
<title>Node2</title>
<g id="a_Node000002"><a xlink:href="eom__ea__ccsd_8ipp.html" target="_top" xlink:title=" ">
<polygon fill="white" stroke="#666666" points="300,-228 158,-228 158,-198 300,-198 300,-228"/>
<text text-anchor="start" x="166" y="-216" font-family="FreeSans" font-size="10.00">mpqc/chemistry/qc/lcao</text>
<text text-anchor="middle" x="229" y="-205" font-family="FreeSans" font-size="10.00">/cc/eom/eom_ea_ccsd.ipp</text>
</a>
</g>
</g>
<!-- Node1&#45;&gt;Node2 -->
<g id="edge1_Node000001_Node000002" class="edge">
<title>Node1&#45;&gt;Node2</title>
<g id="a_edge1_Node000001_Node000002"><a xlink:title=" ">
<path fill="none" stroke="#63b8ff" d="M487.99,-262.61C430.7,-251.86 354.98,-237.64 300.22,-227.37"/>
<polygon fill="#63b8ff" stroke="#63b8ff" points="487.63,-266.1 498.1,-264.51 488.92,-259.22 487.63,-266.1"/>
</a>
</g>
</g>
<!-- Node6 -->
<g id="Node000006" class="node">
<title>Node6</title>
<g id="a_Node000006"><a xlink:href="eom__ip__ccsd_8ipp.html" target="_top" xlink:title=" ">
<polygon fill="white" stroke="#666666" points="497.5,-96 358.5,-96 358.5,-66 497.5,-66 497.5,-96"/>
<text text-anchor="start" x="366.5" y="-84" font-family="FreeSans" font-size="10.00">mpqc/chemistry/qc/lcao</text>
<text text-anchor="middle" x="428" y="-73" font-family="FreeSans" font-size="10.00">/cc/eom/eom_ip_ccsd.ipp</text>
</a>
</g>
</g>
<!-- Node1&#45;&gt;Node6 -->
<g id="edge8_Node000001_Node000006" class="edge">
<title>Node1&#45;&gt;Node6</title>
<g id="a_edge8_Node000001_Node000006"><a xlink:title=" ">
<path fill="none" stroke="#63b8ff" d="M531.19,-258.71C518.02,-250.66 504.1,-240.3 494,-228 464.78,-192.41 474.64,-173.66 455,-132 449.19,-119.69 441.8,-106.12 436.22,-96.23"/>
<polygon fill="#63b8ff" stroke="#63b8ff" points="529.73,-261.9 540.13,-263.9 533.24,-255.85 529.73,-261.9"/>
</a>
</g>
</g>
<!-- Node8 -->
<g id="Node000008" class="node">
<title>Node8</title>
<g id="a_Node000008"><a xlink:href="eom__cck_8ipp.html" target="_top" xlink:title=" ">
<polygon fill="white" stroke="#666666" points="636.5,-228 503.5,-228 503.5,-198 636.5,-198 636.5,-228"/>
<text text-anchor="start" x="511.5" y="-216" font-family="FreeSans" font-size="10.00">mpqc/chemistry/qc/lcao</text>
<text text-anchor="middle" x="570" y="-205" font-family="FreeSans" font-size="10.00">/cc/eom_cck.ipp</text>
</a>
</g>
</g>
<!-- Node1&#45;&gt;Node8 -->
<g id="edge9_Node000001_Node000008" class="edge">
<title>Node1&#45;&gt;Node8</title>
<g id="a_edge9_Node000001_Node000008"><a xlink:title=" ">
<path fill="none" stroke="#63b8ff" d="M570,-253.54C570,-244.96 570,-235.61 570,-228.16"/>
<polygon fill="#63b8ff" stroke="#63b8ff" points="566.5,-253.8 570,-263.8 573.5,-253.8 566.5,-253.8"/>
</a>
</g>
</g>
<!-- Node10 -->
<g id="Node000010" class="node">
<title>Node10</title>
<g id="a_Node000010"><a xlink:href="cis_8h.html" target="_top" xlink:title=" ">
<polygon fill="white" stroke="#666666" points="807.5,-228 674.5,-228 674.5,-198 807.5,-198 807.5,-228"/>
<text text-anchor="start" x="682.5" y="-216" font-family="FreeSans" font-size="10.00">mpqc/chemistry/qc/lcao</text>
<text text-anchor="middle" x="741" y="-205" font-family="FreeSans" font-size="10.00">/ci/cis.h</text>
</a>
</g>
</g>
<!-- Node1&#45;&gt;Node10 -->
<g id="edge11_Node000001_Node000010" class="edge">
<title>Node1&#45;&gt;Node10</title>
<g id="a_edge11_Node000001_Node000010"><a xlink:title=" ">
<path fill="none" stroke="#63b8ff" d="M617.23,-260.32C644.45,-250.14 678.19,-237.51 703.56,-228.01"/>
<polygon fill="#63b8ff" stroke="#63b8ff" points="615.67,-257.17 607.53,-263.95 618.12,-263.73 615.67,-257.17"/>
</a>
</g>
</g>
<!-- Node16 -->
<g id="Node000016" class="node">
<title>Node16</title>
<g id="a_Node000016"><a xlink:href="sci_8h.html" target="_top" xlink:title=" ">
<polygon fill="white" stroke="#666666" points="1128.5,-228 995.5,-228 995.5,-198 1128.5,-198 1128.5,-228"/>
<text text-anchor="start" x="1003.5" y="-216" font-family="FreeSans" font-size="10.00">mpqc/chemistry/qc/lcao</text>
<text text-anchor="middle" x="1062" y="-205" font-family="FreeSans" font-size="10.00">/ci/sci.h</text>
</a>
</g>
</g>
<!-- Node1&#45;&gt;Node16 -->
<g id="edge19_Node000001_Node000016" class="edge">
<title>Node1&#45;&gt;Node16</title>
<g id="a_edge19_Node000001_Node000016"><a xlink:title=" ">
<path fill="none" stroke="#63b8ff" d="M651.53,-267.39C747.85,-254.86 906.26,-234.26 995.5,-222.65"/>
<polygon fill="#63b8ff" stroke="#63b8ff" points="651.01,-263.93 641.54,-268.69 651.91,-270.87 651.01,-263.93"/>
</a>
</g>
</g>
<!-- Node3 -->
<g id="Node000003" class="node">
<title>Node3</title>
<g id="a_Node000003"><a xlink:href="eom__ea__ccsd_8cpp.html" target="_top" xlink:title=" ">
<polygon fill="white" stroke="#666666" points="144,-162 0,-162 0,-132 144,-132 144,-162"/>
<text text-anchor="start" x="8" y="-150" font-family="FreeSans" font-size="10.00">mpqc/chemistry/qc/lcao</text>
<text text-anchor="middle" x="72" y="-139" font-family="FreeSans" font-size="10.00">/cc/eom/eom_ea_ccsd.cpp</text>
</a>
</g>
</g>
<!-- Node2&#45;&gt;Node3 -->
<g id="edge2_Node000002_Node000003" class="edge">
<title>Node2&#45;&gt;Node3</title>
<g id="a_edge2_Node000002_Node000003"><a xlink:title=" ">
<path fill="none" stroke="#63b8ff" d="M184.98,-194.05C160.1,-183.91 129.47,-171.43 106.37,-162.01"/>
<polygon fill="#63b8ff" stroke="#63b8ff" points="183.96,-197.42 194.55,-197.95 186.61,-190.94 183.96,-197.42"/>
</a>
</g>
</g>
<!-- Node4 -->
<g id="Node000004" class="node">
<title>Node4</title>
<g id="a_Node000004"><a xlink:href="eom__ea__ccsd_8h.html" target="_top" xlink:title=" ">
<polygon fill="white" stroke="#666666" points="295.5,-162 162.5,-162 162.5,-132 295.5,-132 295.5,-162"/>
<text text-anchor="start" x="170.5" y="-150" font-family="FreeSans" font-size="10.00">mpqc/chemistry/qc/lcao</text>
<text text-anchor="middle" x="229" y="-139" font-family="FreeSans" font-size="10.00">/cc/eom/eom_ea_ccsd.h</text>
</a>
</g>
</g>
<!-- Node2&#45;&gt;Node4 -->
<g id="edge3_Node000002_Node000004" class="edge">
<title>Node2&#45;&gt;Node4</title>
<g id="a_edge3_Node000002_Node000004"><a xlink:title=" ">
<path fill="none" stroke="#63b8ff" d="M222.43,-187.83C222.02,-179.17 222.31,-169.7 223.29,-162.16"/>
<polygon fill="#63b8ff" stroke="#63b8ff" points="218.95,-188.13 223.28,-197.8 225.92,-187.54 218.95,-188.13"/>
</a>
</g>
</g>
<!-- Node5 -->
<g id="Node000005" class="node">
<title>Node5</title>
<g id="a_Node000005"><a xlink:href="eom__ip__ccsd_8h.html" target="_top" xlink:title=" ">
<polygon fill="white" stroke="#666666" points="446.5,-162 313.5,-162 313.5,-132 446.5,-132 446.5,-162"/>
<text text-anchor="start" x="321.5" y="-150" font-family="FreeSans" font-size="10.00">mpqc/chemistry/qc/lcao</text>
<text text-anchor="middle" x="380" y="-139" font-family="FreeSans" font-size="10.00">/cc/eom/eom_ip_ccsd.h</text>
</a>
</g>
</g>
<!-- Node2&#45;&gt;Node5 -->
<g id="edge5_Node000002_Node000005" class="edge">
<title>Node2&#45;&gt;Node5</title>
<g id="a_edge5_Node000002_Node000005"><a xlink:title=" ">
<path fill="none" stroke="#63b8ff" d="M271.66,-193.92C295.53,-183.8 324.83,-171.38 346.94,-162.01"/>
<polygon fill="#63b8ff" stroke="#63b8ff" points="269.98,-190.83 262.14,-197.95 272.71,-197.28 269.98,-190.83"/>
</a>
</g>
</g>
<!-- Node4&#45;&gt;Node2 -->
<g id="edge4_Node000004_Node000002" class="edge">
<title>Node4&#45;&gt;Node2</title>
<g id="a_edge4_Node000004_Node000002"><a xlink:title=" ">
<path fill="none" stroke="#63b8ff" d="M235.57,-172.13C235.98,-180.78 235.7,-190.26 234.72,-197.8"/>
<polygon fill="#63b8ff" stroke="#63b8ff" points="239.05,-171.83 234.71,-162.16 232.08,-172.43 239.05,-171.83"/>
</a>
</g>
</g>
<!-- Node5&#45;&gt;Node6 -->
<g id="edge6_Node000005_Node000006" class="edge">
<title>Node5&#45;&gt;Node6</title>
<g id="a_edge6_Node000005_Node000006"><a xlink:title=" ">
<path fill="none" stroke="#63b8ff" d="M396.86,-123.53C403.68,-114.43 411.35,-104.19 417.38,-96.16"/>
<polygon fill="#63b8ff" stroke="#63b8ff" points="393.85,-121.7 390.65,-131.8 399.45,-125.9 393.85,-121.7"/>
</a>
</g>
</g>
<!-- Node7 -->
<g id="Node000007" class="node">
<title>Node7</title>
<g id="a_Node000007"><a xlink:href="eom__ip__ccsd_8cpp.html" target="_top" xlink:title=" ">
<polygon fill="white" stroke="#666666" points="498.5,-30 357.5,-30 357.5,0 498.5,0 498.5,-30"/>
<text text-anchor="start" x="365.5" y="-18" font-family="FreeSans" font-size="10.00">mpqc/chemistry/qc/lcao</text>
<text text-anchor="middle" x="428" y="-7" font-family="FreeSans" font-size="10.00">/cc/eom/eom_ip_ccsd.cpp</text>
</a>
</g>
</g>
<!-- Node6&#45;&gt;Node7 -->
<g id="edge7_Node000006_Node000007" class="edge">
<title>Node6&#45;&gt;Node7</title>
<g id="a_edge7_Node000006_Node000007"><a xlink:title=" ">
<path fill="none" stroke="#63b8ff" d="M428,-55.54C428,-46.96 428,-37.61 428,-30.16"/>
<polygon fill="#63b8ff" stroke="#63b8ff" points="424.5,-55.8 428,-65.8 431.5,-55.8 424.5,-55.8"/>
</a>
</g>
</g>
<!-- Node9 -->
<g id="Node000009" class="node">
<title>Node9</title>
<g id="a_Node000009"><a xlink:href="cck_8cpp.html" target="_top" xlink:title=" ">
<polygon fill="white" stroke="#666666" points="636.5,-162 503.5,-162 503.5,-132 636.5,-132 636.5,-162"/>
<text text-anchor="start" x="511.5" y="-150" font-family="FreeSans" font-size="10.00">mpqc/chemistry/qc/lcao</text>
<text text-anchor="middle" x="570" y="-139" font-family="FreeSans" font-size="10.00">/cc/cck.cpp</text>
</a>
</g>
</g>
<!-- Node8&#45;&gt;Node9 -->
<g id="edge10_Node000008_Node000009" class="edge">
<title>Node8&#45;&gt;Node9</title>
<g id="a_edge10_Node000008_Node000009"><a xlink:title=" ">
<path fill="none" stroke="#63b8ff" d="M570,-187.54C570,-178.96 570,-169.61 570,-162.16"/>
<polygon fill="#63b8ff" stroke="#63b8ff" points="566.5,-187.8 570,-197.8 573.5,-187.8 566.5,-187.8"/>
</a>
</g>
</g>
<!-- Node11 -->
<g id="Node000011" class="node">
<title>Node11</title>
<g id="a_Node000011"><a xlink:href="eom__ccsd_8ipp.html" target="_top" xlink:title=" ">
<polygon fill="white" stroke="#666666" points="889.5,-96 756.5,-96 756.5,-66 889.5,-66 889.5,-96"/>
<text text-anchor="start" x="764.5" y="-84" font-family="FreeSans" font-size="10.00">mpqc/chemistry/qc/lcao</text>
<text text-anchor="middle" x="823" y="-73" font-family="FreeSans" font-size="10.00">/cc/eom/eom_ccsd.ipp</text>
</a>
</g>
</g>
<!-- Node10&#45;&gt;Node11 -->
<g id="edge12_Node000010_Node000011" class="edge">
<title>Node10&#45;&gt;Node11</title>
<g id="a_edge12_Node000010_Node000011"><a xlink:title=" ">
<path fill="none" stroke="#63b8ff" d="M710.77,-191.85C690.39,-175.7 669.63,-152.44 684,-132 700.52,-108.5 729.19,-95.99 756.22,-89.36"/>
<polygon fill="#63b8ff" stroke="#63b8ff" points="708.69,-194.66 718.78,-197.88 712.9,-189.07 708.69,-194.66"/>
</a>
</g>
</g>
<!-- Node14 -->
<g id="Node000014" class="node">
<title>Node14</title>
<g id="a_Node000014"><a xlink:href="cis_8cpp.html" target="_top" xlink:title=" ">
<polygon fill="white" stroke="#666666" points="826.5,-162 693.5,-162 693.5,-132 826.5,-132 826.5,-162"/>
<text text-anchor="start" x="701.5" y="-150" font-family="FreeSans" font-size="10.00">mpqc/chemistry/qc/lcao</text>
<text text-anchor="middle" x="760" y="-139" font-family="FreeSans" font-size="10.00">/ci/cis.cpp</text>
</a>
</g>
</g>
<!-- Node10&#45;&gt;Node14 -->
<g id="edge16_Node000010_Node000014" class="edge">
<title>Node10&#45;&gt;Node14</title>
<g id="a_edge16_Node000010_Node000014"><a xlink:title=" ">
<path fill="none" stroke="#63b8ff" d="M748.09,-188.11C750.69,-179.38 753.53,-169.78 755.8,-162.16"/>
<polygon fill="#63b8ff" stroke="#63b8ff" points="744.71,-187.21 745.22,-197.8 751.42,-189.21 744.71,-187.21"/>
</a>
</g>
</g>
<!-- Node15 -->
<g id="Node000015" class="node">
<title>Node15</title>
<g id="a_Node000015"><a xlink:href="cis__d_8h.html" target="_top" xlink:title=" ">
<polygon fill="white" stroke="#666666" points="977.5,-162 844.5,-162 844.5,-132 977.5,-132 977.5,-162"/>
<text text-anchor="start" x="852.5" y="-150" font-family="FreeSans" font-size="10.00">mpqc/chemistry/qc/lcao</text>
<text text-anchor="middle" x="911" y="-139" font-family="FreeSans" font-size="10.00">/ci/cis_d.h</text>
</a>
</g>
</g>
<!-- Node10&#45;&gt;Node15 -->
<g id="edge17_Node000010_Node000015" class="edge">
<title>Node10&#45;&gt;Node15</title>
<g id="a_edge17_Node000010_Node000015"><a xlink:title=" ">
<path fill="none" stroke="#63b8ff" d="M787.96,-194.32C815.01,-184.14 848.55,-171.51 873.78,-162.01"/>
<polygon fill="#63b8ff" stroke="#63b8ff" points="786.43,-191.16 778.31,-197.95 788.9,-197.71 786.43,-191.16"/>
</a>
</g>
</g>
<!-- Node12 -->
<g id="Node000012" class="node">
<title>Node12</title>
<g id="a_Node000012"><a xlink:href="eom__ccsd_8cpp.html" target="_top" xlink:title=" ">
<polygon fill="white" stroke="#666666" points="738.5,-30 605.5,-30 605.5,0 738.5,0 738.5,-30"/>
<text text-anchor="start" x="613.5" y="-18" font-family="FreeSans" font-size="10.00">mpqc/chemistry/qc/lcao</text>
<text text-anchor="middle" x="672" y="-7" font-family="FreeSans" font-size="10.00">/cc/eom/eom_ccsd.cpp</text>
</a>
</g>
</g>
<!-- Node11&#45;&gt;Node12 -->
<g id="edge13_Node000011_Node000012" class="edge">
<title>Node11&#45;&gt;Node12</title>
<g id="a_edge13_Node000011_Node000012"><a xlink:title=" ">
<path fill="none" stroke="#63b8ff" d="M780.34,-61.92C756.47,-51.8 727.17,-39.38 705.06,-30.01"/>
<polygon fill="#63b8ff" stroke="#63b8ff" points="779.29,-65.28 789.86,-65.95 782.02,-58.83 779.29,-65.28"/>
</a>
</g>
</g>
<!-- Node13 -->
<g id="Node000013" class="node">
<title>Node13</title>
<g id="a_Node000013"><a xlink:href="eom__ccsd_8h.html" target="_top" xlink:title=" ">
<polygon fill="white" stroke="#666666" points="889.5,-30 756.5,-30 756.5,0 889.5,0 889.5,-30"/>
<text text-anchor="start" x="764.5" y="-18" font-family="FreeSans" font-size="10.00">mpqc/chemistry/qc/lcao</text>
<text text-anchor="middle" x="823" y="-7" font-family="FreeSans" font-size="10.00">/cc/eom/eom_ccsd.h</text>
</a>
</g>
</g>
<!-- Node11&#45;&gt;Node13 -->
<g id="edge14_Node000011_Node000013" class="edge">
<title>Node11&#45;&gt;Node13</title>
<g id="a_edge14_Node000011_Node000013"><a xlink:title=" ">
<path fill="none" stroke="#63b8ff" d="M816.43,-55.83C816.02,-47.17 816.31,-37.7 817.29,-30.16"/>
<polygon fill="#63b8ff" stroke="#63b8ff" points="812.95,-56.13 817.28,-65.8 819.92,-55.54 812.95,-56.13"/>
</a>
</g>
</g>
<!-- Node13&#45;&gt;Node11 -->
<g id="edge15_Node000013_Node000011" class="edge">
<title>Node13&#45;&gt;Node11</title>
<g id="a_edge15_Node000013_Node000011"><a xlink:title=" ">
<path fill="none" stroke="#63b8ff" d="M829.57,-40.13C829.98,-48.78 829.7,-58.26 828.72,-65.8"/>
<polygon fill="#63b8ff" stroke="#63b8ff" points="833.05,-39.83 828.71,-30.16 826.08,-40.43 833.05,-39.83"/>
</a>
</g>
</g>
<!-- Node15&#45;&gt;Node11 -->
<g id="edge18_Node000015_Node000011" class="edge">
<title>Node15&#45;&gt;Node11</title>
<g id="a_edge18_Node000015_Node000011"><a xlink:title=" ">
<path fill="none" stroke="#63b8ff" d="M883.16,-125.75C869.93,-116.13 854.43,-104.86 842.48,-96.16"/>
<polygon fill="#63b8ff" stroke="#63b8ff" points="881.32,-128.75 891.47,-131.8 885.44,-123.08 881.32,-128.75"/>
</a>
</g>
</g>
<!-- Node17 -->
<g id="Node000017" class="node">
<title>Node17</title>
<g id="a_Node000017"><a xlink:href="sci_8ipp.html" target="_top" xlink:title=" ">
<polygon fill="white" stroke="#666666" points="1128.5,-162 995.5,-162 995.5,-132 1128.5,-132 1128.5,-162"/>
<text text-anchor="start" x="1003.5" y="-150" font-family="FreeSans" font-size="10.00">mpqc/chemistry/qc/lcao</text>
<text text-anchor="middle" x="1062" y="-139" font-family="FreeSans" font-size="10.00">/ci/sci.ipp</text>
</a>
</g>
</g>
<!-- Node16&#45;&gt;Node17 -->
<g id="edge20_Node000016_Node000017" class="edge">
<title>Node16&#45;&gt;Node17</title>
<g id="a_edge20_Node000016_Node000017"><a xlink:title=" ">
<path fill="none" stroke="#63b8ff" d="M1062,-187.54C1062,-178.96 1062,-169.61 1062,-162.16"/>
<polygon fill="#63b8ff" stroke="#63b8ff" points="1058.5,-187.8 1062,-197.8 1065.5,-187.8 1058.5,-187.8"/>
</a>
</g>
</g>
<!-- Node19 -->
<g id="Node000019" class="node">
<title>Node19</title>
<g id="a_Node000019"><a xlink:href="solver__1c__v2_8ipp.html" target="_top" xlink:title=" ">
<polygon fill="white" stroke="#666666" points="1279,-162 1147,-162 1147,-132 1279,-132 1279,-162"/>
<text text-anchor="start" x="1155" y="-150" font-family="FreeSans" font-size="10.00">mpqc/chemistry/qc/mra</text>
<text text-anchor="middle" x="1213" y="-139" font-family="FreeSans" font-size="10.00">/scf/solver_1c_v2.ipp</text>
</a>
</g>
</g>
<!-- Node16&#45;&gt;Node19 -->
<g id="edge22_Node000016_Node000019" class="edge">
<title>Node16&#45;&gt;Node19</title>
<g id="a_edge22_Node000016_Node000019"><a xlink:title=" ">
<path fill="none" stroke="#63b8ff" d="M1104.66,-193.92C1128.53,-183.8 1157.83,-171.38 1179.94,-162.01"/>
<polygon fill="#63b8ff" stroke="#63b8ff" points="1102.98,-190.83 1095.14,-197.95 1105.71,-197.28 1102.98,-190.83"/>
</a>
</g>
</g>
<!-- Node18 -->
<g id="Node000018" class="node">
<title>Node18</title>
<g id="a_Node000018"><a xlink:href="sci_8cpp.html" target="_top" xlink:title=" ">
<polygon fill="white" stroke="#666666" points="1128.5,-96 995.5,-96 995.5,-66 1128.5,-66 1128.5,-96"/>
<text text-anchor="start" x="1003.5" y="-84" font-family="FreeSans" font-size="10.00">mpqc/chemistry/qc/lcao</text>
<text text-anchor="middle" x="1062" y="-73" font-family="FreeSans" font-size="10.00">/ci/sci.cpp</text>
</a>
</g>
</g>
<!-- Node17&#45;&gt;Node18 -->
<g id="edge21_Node000017_Node000018" class="edge">
<title>Node17&#45;&gt;Node18</title>
<g id="a_edge21_Node000017_Node000018"><a xlink:title=" ">
<path fill="none" stroke="#63b8ff" d="M1062,-121.54C1062,-112.96 1062,-103.61 1062,-96.16"/>
<polygon fill="#63b8ff" stroke="#63b8ff" points="1058.5,-121.8 1062,-131.8 1065.5,-121.8 1058.5,-121.8"/>
</a>
</g>
</g>
<!-- Node20 -->
<g id="Node000020" class="node">
<title>Node20</title>
<g id="a_Node000020"><a xlink:href="solver_8cpp.html" target="_top" xlink:title=" ">
<polygon fill="white" stroke="#666666" points="1279,-96 1147,-96 1147,-66 1279,-66 1279,-96"/>
<text text-anchor="start" x="1155" y="-84" font-family="FreeSans" font-size="10.00">mpqc/chemistry/qc/mra</text>
<text text-anchor="middle" x="1213" y="-73" font-family="FreeSans" font-size="10.00">/scf/solver.cpp</text>
</a>
</g>
</g>
<!-- Node19&#45;&gt;Node20 -->
<g id="edge23_Node000019_Node000020" class="edge">
<title>Node19&#45;&gt;Node20</title>
<g id="a_edge23_Node000019_Node000020"><a xlink:title=" ">
<path fill="none" stroke="#63b8ff" d="M1213,-121.54C1213,-112.96 1213,-103.61 1213,-96.16"/>
<polygon fill="#63b8ff" stroke="#63b8ff" points="1209.5,-121.8 1213,-131.8 1216.5,-121.8 1209.5,-121.8"/>
</a>
</g>
</g>
</g>
</svg>
