<?xml version="1.0" encoding="UTF-8" standalone="no"?>
<!DOCTYPE svg PUBLIC "-//W3C//DTD SVG 1.1//EN"
 "http://www.w3.org/Graphics/SVG/1.1/DTD/svg11.dtd">
<!-- Generated by graphviz version 2.43.0 (0)
 -->
<!-- Title: mpqc/math/external/tiledarray/array_max_n.h Pages: 1 -->
<svg width="384pt" height="161pt"
 viewBox="0.00 0.00 383.50 161.02" xmlns="http://www.w3.org/2000/svg" xmlns:xlink="http://www.w3.org/1999/xlink">

<svg id="main" version="1.1" xmlns="http://www.w3.org/2000/svg" xmlns:xlink="http://www.w3.org/1999/xlink" xml:space="preserve" onload="init(evt)">
<style type="text/css"><![CDATA[
.node, .edge {opacity: 0.7;}
.node.selected, .edge.selected {opacity: 1;}
.edge:hover path { stroke: red; }
.edge:hover polygon { stroke: red; fill: red; }
]]></style>
<script type="application/ecmascript" xlink:href="svg.min.js"/>
<svg id="graph" class="graph">
<g id="graph0" class="graph" transform="scale(1 1) rotate(0) translate(4 157.02)">
<title>mpqc/math/external/tiledarray/array_max_n.h</title>
<!-- Node1 -->
<g id="Node000001" class="node">
<title>Node1</title>
<g id="a_Node000001"><a xlink:title=" ">
<polygon fill="#999999" stroke="#666666" points="225,-153.02 82,-153.02 82,-123.02 225,-123.02 225,-153.02"/>
<text text-anchor="start" x="90" y="-141.02" font-family="FreeSans" font-size="10.00">mpqc/math/external</text>
<text text-anchor="middle" x="153.5" y="-130.02" font-family="FreeSans" font-size="10.00">/tiledarray/array_max_n.h</text>
</a>
</g>
</g>
<!-- Node2 -->
<g id="Node000002" class="node">
<title>Node2</title>
<g id="a_Node000002"><a xlink:href="tiledarray_8h.html" target="_top" xlink:title=" ">
<polygon fill="white" stroke="#666666" points="136,-87.02 11,-87.02 11,-57.02 136,-57.02 136,-87.02"/>
<text text-anchor="start" x="19" y="-75.02" font-family="FreeSans" font-size="10.00">mpqc/math/external</text>
<text text-anchor="middle" x="73.5" y="-64.02" font-family="FreeSans" font-size="10.00">/tiledarray/tiledarray.h</text>
</a>
</g>
</g>
<!-- Node1&#45;&gt;Node2 -->
<g id="edge1_Node000001_Node000002" class="edge">
<title>Node1&#45;&gt;Node2</title>
<g id="a_edge1_Node000001_Node000002"><a xlink:title=" ">
<path fill="none" stroke="#63b8ff" d="M135.75,-122.81C124.97,-114.2 111.05,-103.06 99.1,-93.5"/>
<polygon fill="#63b8ff" stroke="#63b8ff" points="101.2,-90.7 91.2,-87.18 96.83,-96.16 101.2,-90.7"/>
</a>
</g>
</g>
<!-- Node4 -->
<g id="Node000004" class="node">
<title>Node4</title>
<g id="a_Node000004"><a xlink:href="reduction_8h.html" target="_top" xlink:title=" ">
<polygon fill="white" stroke="#666666" points="305,-87.02 180,-87.02 180,-57.02 305,-57.02 305,-87.02"/>
<text text-anchor="start" x="188" y="-75.02" font-family="FreeSans" font-size="10.00">mpqc/math/external</text>
<text text-anchor="middle" x="242.5" y="-64.02" font-family="FreeSans" font-size="10.00">/tiledarray/reduction.h</text>
</a>
</g>
</g>
<!-- Node1&#45;&gt;Node4 -->
<g id="edge4_Node000001_Node000004" class="edge">
<title>Node1&#45;&gt;Node4</title>
<g id="a_edge4_Node000001_Node000004"><a xlink:title=" ">
<path fill="none" stroke="#63b8ff" d="M173.25,-122.81C185.35,-114.11 201.03,-102.84 214.41,-93.22"/>
<polygon fill="#63b8ff" stroke="#63b8ff" points="216.73,-95.86 222.8,-87.18 212.64,-90.18 216.73,-95.86"/>
</a>
</g>
</g>
<!-- Node2&#45;&gt;Node2 -->
<g id="edge2_Node000002_Node000002" class="edge">
<title>Node2&#45;&gt;Node2</title>
<g id="a_edge2_Node000002_Node000002"><a xlink:title=" ">
<path fill="none" stroke="#63b8ff" d="M136.28,-82.47C146.76,-81.01 154,-77.53 154,-72.02 154,-68.49 151.03,-65.79 146.14,-63.92"/>
<polygon fill="#63b8ff" stroke="#63b8ff" points="146.82,-60.49 136.28,-61.56 145.19,-67.29 146.82,-60.49"/>
</a>
</g>
</g>
<!-- Node3 -->
<g id="Node000003" class="node">
<title>Node3</title>
<g id="a_Node000003"><a xlink:title=" ">
<polygon fill="#e0e0e0" stroke="#999999" points="117,-21.02 0,-21.02 0,-2.02 117,-2.02 117,-21.02"/>
<text text-anchor="middle" x="58.5" y="-9.02" font-family="FreeSans" font-size="10.00">mpqc/mpqc_config.h</text>
</a>
</g>
</g>
<!-- Node2&#45;&gt;Node3 -->
<g id="edge3_Node000002_Node000003" class="edge">
<title>Node2&#45;&gt;Node3</title>
<g id="a_edge3_Node000002_Node000003"><a xlink:title=" ">
<path fill="none" stroke="#63b8ff" d="M69.87,-56.86C67.89,-49.14 65.42,-39.51 63.29,-31.19"/>
<polygon fill="#63b8ff" stroke="#63b8ff" points="66.62,-30.1 60.75,-21.28 59.84,-31.84 66.62,-30.1"/>
</a>
</g>
</g>
<!-- Node5 -->
<g id="Node000005" class="node">
<title>Node5</title>
<g id="a_Node000005"><a xlink:title=" ">
<polygon fill="#e0e0e0" stroke="#999999" points="199.5,-21.02 135.5,-21.02 135.5,-2.02 199.5,-2.02 199.5,-21.02"/>
<text text-anchor="middle" x="167.5" y="-9.02" font-family="FreeSans" font-size="10.00">algorithm</text>
</a>
</g>
</g>
<!-- Node4&#45;&gt;Node5 -->
<g id="edge5_Node000004_Node000005" class="edge">
<title>Node4&#45;&gt;Node5</title>
<g id="a_edge5_Node000004_Node000005"><a xlink:title=" ">
<path fill="none" stroke="#63b8ff" d="M224.34,-56.86C213.01,-48.02 198.44,-36.65 186.88,-27.64"/>
<polygon fill="#63b8ff" stroke="#63b8ff" points="188.78,-24.67 178.74,-21.28 184.47,-30.19 188.78,-24.67"/>
</a>
</g>
</g>
<!-- Node6 -->
<g id="Node000006" class="node">
<title>Node6</title>
<g id="a_Node000006"><a xlink:href="functional.html" target="_top" xlink:title=" ">
<polygon fill="white" stroke="#666666" points="283,-21.02 218,-21.02 218,-2.02 283,-2.02 283,-21.02"/>
<text text-anchor="middle" x="250.5" y="-9.02" font-family="FreeSans" font-size="10.00">functional</text>
</a>
</g>
</g>
<!-- Node4&#45;&gt;Node6 -->
<g id="edge6_Node000004_Node000006" class="edge">
<title>Node4&#45;&gt;Node6</title>
<g id="a_edge6_Node000004_Node000006"><a xlink:title=" ">
<path fill="none" stroke="#63b8ff" d="M244.44,-56.86C245.48,-49.23 246.78,-39.72 247.91,-31.47"/>
<polygon fill="#63b8ff" stroke="#63b8ff" points="251.41,-31.67 249.3,-21.28 244.48,-30.72 251.41,-31.67"/>
</a>
</g>
</g>
<!-- Node7 -->
<g id="Node000007" class="node">
<title>Node7</title>
<g id="a_Node000007"><a xlink:title=" ">
<polygon fill="#e0e0e0" stroke="#999999" points="375.5,-21.02 319.5,-21.02 319.5,-2.02 375.5,-2.02 375.5,-21.02"/>
<text text-anchor="middle" x="347.5" y="-9.02" font-family="FreeSans" font-size="10.00">numeric</text>
</a>
</g>
</g>
<!-- Node4&#45;&gt;Node7 -->
<g id="edge8_Node000004_Node000007" class="edge">
<title>Node4&#45;&gt;Node7</title>
<g id="a_edge8_Node000004_Node000007"><a xlink:title=" ">
<path fill="none" stroke="#63b8ff" d="M267.65,-57.01C284.39,-47.68 306.27,-35.49 322.89,-26.23"/>
<polygon fill="#63b8ff" stroke="#63b8ff" points="324.96,-29.08 331.99,-21.16 321.55,-22.97 324.96,-29.08"/>
</a>
</g>
</g>
<!-- Node6&#45;&gt;Node6 -->
<g id="edge7_Node000006_Node000006" class="edge">
<title>Node6&#45;&gt;Node6</title>
<g id="a_edge7_Node000006_Node000006"><a xlink:title=" ">
<path fill="none" stroke="#63b8ff" d="M269.15,-21.05C284.72,-25.13 301,-21.95 301,-11.52 301,-3.37 291.07,0.35 279.29,-0.35"/>
<polygon fill="#63b8ff" stroke="#63b8ff" points="278.46,3.06 269.15,-1.98 279.58,-3.85 278.46,3.06"/>
</a>
</g>
</g>
</g>
</svg>
</svg>

<style type='text/css'>
<![CDATA[
[data-mouse-over-selected='false'] { opacity: 0.7; }
[data-mouse-over-selected='true']  { opacity: 1.0; }
]]>
</style>
<script type="application/ecmascript"><![CDATA[
document.addEventListener('DOMContentLoaded', (event) => {
  highlightEdges();
  highlightAdjacentNodes();
});
]]></script>
</svg>
