<?xml version="1.0" encoding="UTF-8" standalone="no"?>
<!DOCTYPE svg PUBLIC "-//W3C//DTD SVG 1.1//EN"
 "http://www.w3.org/Graphics/SVG/1.1/DTD/svg11.dtd">
<!-- Generated by graphviz version 2.43.0 (0)
 -->
<!-- Title: mpqc/util/misc/assert.cpp Pages: 1 -->
<svg width="627pt" height="247pt"
 viewBox="0.00 0.00 626.50 247.00" xmlns="http://www.w3.org/2000/svg" xmlns:xlink="http://www.w3.org/1999/xlink">
<g id="graph0" class="graph" transform="scale(1 1) rotate(0) translate(4 243)">
<title>mpqc/util/misc/assert.cpp</title>
<!-- Node1 -->
<g id="Node000001" class="node">
<title>Node1</title>
<g id="a_Node000001"><a xlink:title=" ">
<polygon fill="#999999" stroke="#666666" points="297.5,-239 155.5,-239 155.5,-220 297.5,-220 297.5,-239"/>
<text text-anchor="middle" x="226.5" y="-227" font-family="FreeSans" font-size="10.00">mpqc/util/misc/assert.cpp</text>
</a>
</g>
</g>
<!-- Node2 -->
<g id="Node000002" class="node">
<title>Node2</title>
<g id="a_Node000002"><a xlink:title=" ">
<polygon fill="#e0e0e0" stroke="#999999" points="143,-184 0,-184 0,-165 143,-165 143,-184"/>
<text text-anchor="middle" x="71.5" y="-172" font-family="FreeSans" font-size="10.00">madness/world/safempi.h</text>
</a>
</g>
</g>
<!-- Node1&#45;&gt;Node2 -->
<g id="edge1_Node000001_Node000002" class="edge">
<title>Node1&#45;&gt;Node2</title>
<g id="a_edge1_Node000001_Node000002"><a xlink:title=" ">
<path fill="none" stroke="#63b8ff" d="M201.6,-219.98C175.8,-211.16 135.28,-197.31 106.32,-187.41"/>
<polygon fill="#63b8ff" stroke="#63b8ff" points="107.19,-184.01 96.6,-184.08 104.93,-190.63 107.19,-184.01"/>
</a>
</g>
</g>
<!-- Node3 -->
<g id="Node000003" class="node">
<title>Node3</title>
<g id="a_Node000003"><a xlink:href="assert_8h.html" target="_top" xlink:title=" ">
<polygon fill="white" stroke="#666666" points="292,-184 161,-184 161,-165 292,-165 292,-184"/>
<text text-anchor="middle" x="226.5" y="-172" font-family="FreeSans" font-size="10.00">mpqc/util/misc/assert.h</text>
</a>
</g>
</g>
<!-- Node1&#45;&gt;Node3 -->
<g id="edge2_Node000001_Node000003" class="edge">
<title>Node1&#45;&gt;Node3</title>
<g id="a_edge2_Node000001_Node000003"><a xlink:title=" ">
<path fill="none" stroke="#63b8ff" d="M226.5,-219.75C226.5,-212.8 226.5,-202.85 226.5,-194.13"/>
<polygon fill="#63b8ff" stroke="#63b8ff" points="230,-194.09 226.5,-184.09 223,-194.09 230,-194.09"/>
</a>
</g>
</g>
<!-- Node14 -->
<g id="Node000014" class="node">
<title>Node14</title>
<g id="a_Node000014"><a xlink:title=" ">
<polygon fill="#e0e0e0" stroke="#999999" points="359,-184 310,-184 310,-165 359,-165 359,-184"/>
<text text-anchor="middle" x="334.5" y="-172" font-family="FreeSans" font-size="10.00">cstdlib</text>
</a>
</g>
</g>
<!-- Node1&#45;&gt;Node14 -->
<g id="edge15_Node000001_Node000014" class="edge">
<title>Node1&#45;&gt;Node14</title>
<g id="a_edge15_Node000001_Node000014"><a xlink:title=" ">
<path fill="none" stroke="#63b8ff" d="M243.85,-219.98C261.07,-211.54 287.7,-198.47 307.65,-188.68"/>
<polygon fill="#63b8ff" stroke="#63b8ff" points="309.4,-191.72 316.83,-184.17 306.31,-185.43 309.4,-191.72"/>
</a>
</g>
</g>
<!-- Node4 -->
<g id="Node000004" class="node">
<title>Node4</title>
<g id="a_Node000004"><a xlink:title=" ">
<polygon fill="#e0e0e0" stroke="#999999" points="182,-129 65,-129 65,-110 182,-110 182,-129"/>
<text text-anchor="middle" x="123.5" y="-117" font-family="FreeSans" font-size="10.00">mpqc/mpqc_config.h</text>
</a>
</g>
</g>
<!-- Node3&#45;&gt;Node4 -->
<g id="edge3_Node000003_Node000004" class="edge">
<title>Node3&#45;&gt;Node4</title>
<g id="a_edge3_Node000003_Node000004"><a xlink:title=" ">
<path fill="none" stroke="#63b8ff" d="M209.95,-164.98C193.61,-156.57 168.37,-143.59 149.37,-133.81"/>
<polygon fill="#63b8ff" stroke="#63b8ff" points="150.84,-130.63 140.35,-129.17 147.64,-136.86 150.84,-130.63"/>
</a>
</g>
</g>
<!-- Node5 -->
<g id="Node000005" class="node">
<title>Node5</title>
<g id="a_Node000005"><a xlink:title=" ">
<polygon fill="#e0e0e0" stroke="#999999" points="252.5,-129 200.5,-129 200.5,-110 252.5,-110 252.5,-129"/>
<text text-anchor="middle" x="226.5" y="-117" font-family="FreeSans" font-size="10.00">cassert</text>
</a>
</g>
</g>
<!-- Node3&#45;&gt;Node5 -->
<g id="edge4_Node000003_Node000005" class="edge">
<title>Node3&#45;&gt;Node5</title>
<g id="a_edge4_Node000003_Node000005"><a xlink:title=" ">
<path fill="none" stroke="#63b8ff" d="M226.5,-164.75C226.5,-157.8 226.5,-147.85 226.5,-139.13"/>
<polygon fill="#63b8ff" stroke="#63b8ff" points="230,-139.09 226.5,-129.09 223,-139.09 230,-139.09"/>
</a>
</g>
</g>
<!-- Node6 -->
<g id="Node000006" class="node">
<title>Node6</title>
<g id="a_Node000006"><a xlink:href="exception_8h.html" target="_top" xlink:title=" ">
<polygon fill="white" stroke="#666666" points="416.5,-129 270.5,-129 270.5,-110 416.5,-110 416.5,-129"/>
<text text-anchor="middle" x="343.5" y="-117" font-family="FreeSans" font-size="10.00">mpqc/util/core/exception.h</text>
</a>
</g>
</g>
<!-- Node3&#45;&gt;Node6 -->
<g id="edge5_Node000003_Node000006" class="edge">
<title>Node3&#45;&gt;Node6</title>
<g id="a_edge5_Node000003_Node000006"><a xlink:title=" ">
<path fill="none" stroke="#63b8ff" d="M245.3,-164.98C264.12,-156.46 293.32,-143.23 315,-133.41"/>
<polygon fill="#63b8ff" stroke="#63b8ff" points="316.7,-136.48 324.36,-129.17 313.81,-130.11 316.7,-136.48"/>
</a>
</g>
</g>
<!-- Node7 -->
<g id="Node000007" class="node">
<title>Node7</title>
<g id="a_Node000007"><a xlink:title=" ">
<polygon fill="#e0e0e0" stroke="#999999" points="164,-74 111,-74 111,-55 164,-55 164,-74"/>
<text text-anchor="middle" x="137.5" y="-62" font-family="FreeSans" font-size="10.00">string.h</text>
</a>
</g>
</g>
<!-- Node6&#45;&gt;Node7 -->
<g id="edge6_Node000006_Node000007" class="edge">
<title>Node6&#45;&gt;Node7</title>
<g id="a_edge6_Node000006_Node000007"><a xlink:title=" ">
<path fill="none" stroke="#63b8ff" d="M310.4,-109.98C273.13,-100.4 212.74,-84.86 174.09,-74.91"/>
<polygon fill="#63b8ff" stroke="#63b8ff" points="174.84,-71.49 164.28,-72.39 173.09,-78.27 174.84,-71.49"/>
</a>
</g>
</g>
<!-- Node8 -->
<g id="Node000008" class="node">
<title>Node8</title>
<g id="a_Node000008"><a xlink:href="memory.html" target="_top" xlink:title=" ">
<polygon fill="white" stroke="#666666" points="240.5,-74 182.5,-74 182.5,-55 240.5,-55 240.5,-74"/>
<text text-anchor="middle" x="211.5" y="-62" font-family="FreeSans" font-size="10.00">memory</text>
</a>
</g>
</g>
<!-- Node6&#45;&gt;Node8 -->
<g id="edge7_Node000006_Node000008" class="edge">
<title>Node6&#45;&gt;Node8</title>
<g id="a_edge7_Node000006_Node000008"><a xlink:title=" ">
<path fill="none" stroke="#63b8ff" d="M322.29,-109.98C300.77,-101.34 267.22,-87.87 242.67,-78.02"/>
<polygon fill="#63b8ff" stroke="#63b8ff" points="243.68,-74.65 233.09,-74.17 241.07,-81.14 243.68,-74.65"/>
</a>
</g>
</g>
<!-- Node9 -->
<g id="Node000009" class="node">
<title>Node9</title>
<g id="a_Node000009"><a xlink:title=" ">
<polygon fill="#e0e0e0" stroke="#999999" points="332.5,-74 276.5,-74 276.5,-55 332.5,-55 332.5,-74"/>
<text text-anchor="middle" x="304.5" y="-62" font-family="FreeSans" font-size="10.00">sstream</text>
</a>
</g>
</g>
<!-- Node6&#45;&gt;Node9 -->
<g id="edge9_Node000006_Node000009" class="edge">
<title>Node6&#45;&gt;Node9</title>
<g id="a_edge9_Node000006_Node000009"><a xlink:title=" ">
<path fill="none" stroke="#63b8ff" d="M337.06,-109.75C331.61,-102.34 323.64,-91.5 316.94,-82.41"/>
<polygon fill="#63b8ff" stroke="#63b8ff" points="319.57,-80.07 310.82,-74.09 313.93,-84.22 319.57,-80.07"/>
</a>
</g>
</g>
<!-- Node10 -->
<g id="Node000010" class="node">
<title>Node10</title>
<g id="a_Node000010"><a xlink:title=" ">
<polygon fill="#e0e0e0" stroke="#999999" points="416,-74 351,-74 351,-55 416,-55 416,-74"/>
<text text-anchor="middle" x="383.5" y="-62" font-family="FreeSans" font-size="10.00">stdexcept</text>
</a>
</g>
</g>
<!-- Node6&#45;&gt;Node10 -->
<g id="edge10_Node000006_Node000010" class="edge">
<title>Node6&#45;&gt;Node10</title>
<g id="a_edge10_Node000006_Node000010"><a xlink:title=" ">
<path fill="none" stroke="#63b8ff" d="M350.11,-109.75C355.76,-102.26 364.04,-91.28 370.95,-82.13"/>
<polygon fill="#63b8ff" stroke="#63b8ff" points="373.79,-84.18 377.02,-74.09 368.2,-79.96 373.79,-84.18"/>
</a>
</g>
</g>
<!-- Node11 -->
<g id="Node000011" class="node">
<title>Node11</title>
<g id="a_Node000011"><a xlink:title=" ">
<polygon fill="#e0e0e0" stroke="#999999" points="487,-19 440,-19 440,0 487,0 487,-19"/>
<text text-anchor="middle" x="463.5" y="-7" font-family="FreeSans" font-size="10.00">vector</text>
</a>
</g>
</g>
<!-- Node6&#45;&gt;Node11 -->
<g id="edge11_Node000006_Node000011" class="edge">
<title>Node6&#45;&gt;Node11</title>
<g id="a_edge11_Node000006_Node000011"><a xlink:title=" ">
<path fill="none" stroke="#63b8ff" d="M366.12,-109.86C383.58,-102.36 407.54,-90.16 424.5,-74 438.08,-61.06 448.79,-42.4 455.53,-28.65"/>
<polygon fill="#63b8ff" stroke="#63b8ff" points="458.84,-29.82 459.88,-19.28 452.49,-26.87 458.84,-29.82"/>
</a>
</g>
</g>
<!-- Node12 -->
<g id="Node000012" class="node">
<title>Node12</title>
<g id="a_Node000012"><a xlink:href="backtrace_8h.html" target="_top" xlink:title=" ">
<polygon fill="white" stroke="#666666" points="618.5,-74 472.5,-74 472.5,-55 618.5,-55 618.5,-74"/>
<text text-anchor="middle" x="545.5" y="-62" font-family="FreeSans" font-size="10.00">mpqc/util/core/backtrace.h</text>
</a>
</g>
</g>
<!-- Node6&#45;&gt;Node12 -->
<g id="edge12_Node000006_Node000012" class="edge">
<title>Node6&#45;&gt;Node12</title>
<g id="a_edge12_Node000006_Node000012"><a xlink:title=" ">
<path fill="none" stroke="#63b8ff" d="M375.95,-109.98C410.46,-100.93 465.16,-86.58 503.06,-76.64"/>
<polygon fill="#63b8ff" stroke="#63b8ff" points="504.01,-80.01 512.79,-74.08 502.23,-73.23 504.01,-80.01"/>
</a>
</g>
</g>
<!-- Node8&#45;&gt;Node8 -->
<g id="edge8_Node000008_Node000008" class="edge">
<title>Node8&#45;&gt;Node8</title>
<g id="a_edge8_Node000008_Node000008"><a xlink:title=" ">
<path fill="none" stroke="#63b8ff" d="M233.74,-74.07C246.56,-76.02 258.5,-72.83 258.5,-64.5 258.5,-58.45 252.2,-55.11 243.84,-54.48"/>
<polygon fill="#63b8ff" stroke="#63b8ff" points="243.58,-50.99 233.74,-54.93 243.89,-57.98 243.58,-50.99"/>
</a>
</g>
</g>
<!-- Node12&#45;&gt;Node11 -->
<g id="edge14_Node000012_Node000011" class="edge">
<title>Node12&#45;&gt;Node11</title>
<g id="a_edge14_Node000012_Node000011"><a xlink:title=" ">
<path fill="none" stroke="#63b8ff" d="M532.33,-54.98C519.73,-46.84 500.5,-34.41 485.56,-24.76"/>
<polygon fill="#63b8ff" stroke="#63b8ff" points="487.21,-21.66 476.91,-19.17 483.41,-27.54 487.21,-21.66"/>
</a>
</g>
</g>
<!-- Node13 -->
<g id="Node000013" class="node">
<title>Node13</title>
<g id="a_Node000013"><a xlink:title=" ">
<polygon fill="#e0e0e0" stroke="#999999" points="567.5,-19 523.5,-19 523.5,0 567.5,0 567.5,-19"/>
<text text-anchor="middle" x="545.5" y="-7" font-family="FreeSans" font-size="10.00">string</text>
</a>
</g>
</g>
<!-- Node12&#45;&gt;Node13 -->
<g id="edge13_Node000012_Node000013" class="edge">
<title>Node12&#45;&gt;Node13</title>
<g id="a_edge13_Node000012_Node000013"><a xlink:title=" ">
<path fill="none" stroke="#63b8ff" d="M545.5,-54.75C545.5,-47.8 545.5,-37.85 545.5,-29.13"/>
<polygon fill="#63b8ff" stroke="#63b8ff" points="549,-29.09 545.5,-19.09 542,-29.09 549,-29.09"/>
</a>
</g>
</g>
</g>
</svg>
