<?xml version="1.0" encoding="UTF-8" standalone="no"?>
<!DOCTYPE svg PUBLIC "-//W3C//DTD SVG 1.1//EN"
 "http://www.w3.org/Graphics/SVG/1.1/DTD/svg11.dtd">
<!-- Generated by graphviz version 2.43.0 (0)
 -->
<!-- Title: mpqc/chemistry/molecule/atomic_data.cpp Pages: 1 -->
<svg width="790pt" height="269pt"
 viewBox="0.00 0.00 789.50 269.00" xmlns="http://www.w3.org/2000/svg" xmlns:xlink="http://www.w3.org/1999/xlink">
<g id="graph0" class="graph" transform="scale(1 1) rotate(0) translate(4 265)">
<title>mpqc/chemistry/molecule/atomic_data.cpp</title>
<!-- Node1 -->
<g id="Node000001" class="node">
<title>Node1</title>
<g id="a_Node000001"><a xlink:title=" ">
<polygon fill="#999999" stroke="#666666" points="639.5,-261 496.5,-261 496.5,-231 639.5,-231 639.5,-261"/>
<text text-anchor="start" x="504.5" y="-249" font-family="FreeSans" font-size="10.00">mpqc/chemistry/molecule</text>
<text text-anchor="middle" x="568" y="-238" font-family="FreeSans" font-size="10.00">/atomic_data.cpp</text>
</a>
</g>
</g>
<!-- Node2 -->
<g id="Node000002" class="node">
<title>Node2</title>
<g id="a_Node000002"><a xlink:href="atomic__data_8h.html" target="_top" xlink:title=" ">
<polygon fill="white" stroke="#666666" points="226.5,-140 83.5,-140 83.5,-110 226.5,-110 226.5,-140"/>
<text text-anchor="start" x="91.5" y="-128" font-family="FreeSans" font-size="10.00">mpqc/chemistry/molecule</text>
<text text-anchor="middle" x="155" y="-117" font-family="FreeSans" font-size="10.00">/atomic_data.h</text>
</a>
</g>
</g>
<!-- Node1&#45;&gt;Node2 -->
<g id="edge1_Node000001_Node000002" class="edge">
<title>Node1&#45;&gt;Node2</title>
<g id="a_edge1_Node000001_Node000002"><a xlink:title=" ">
<path fill="none" stroke="#63b8ff" d="M519.41,-231C443.08,-209.01 295.37,-166.45 213.39,-142.82"/>
<polygon fill="#63b8ff" stroke="#63b8ff" points="214.3,-139.45 203.73,-140.04 212.37,-146.17 214.3,-139.45"/>
</a>
</g>
</g>
<!-- Node8 -->
<g id="Node000008" class="node">
<title>Node8</title>
<g id="a_Node000008"><a xlink:title=" ">
<polygon fill="#e0e0e0" stroke="#999999" points="716,-195 652,-195 652,-176 716,-176 716,-195"/>
<text text-anchor="middle" x="684" y="-183" font-family="FreeSans" font-size="10.00">algorithm</text>
</a>
</g>
</g>
<!-- Node1&#45;&gt;Node8 -->
<g id="edge8_Node000001_Node000008" class="edge">
<title>Node1&#45;&gt;Node8</title>
<g id="a_edge8_Node000001_Node000008"><a xlink:title=" ">
<path fill="none" stroke="#63b8ff" d="M595.78,-230.99C614.62,-221.49 639.35,-209.02 657.84,-199.69"/>
<polygon fill="#63b8ff" stroke="#63b8ff" points="659.52,-202.77 666.87,-195.14 656.36,-196.52 659.52,-202.77"/>
</a>
</g>
</g>
<!-- Node9 -->
<g id="Node000009" class="node">
<title>Node9</title>
<g id="a_Node000009"><a xlink:title=" ">
<polygon fill="#e0e0e0" stroke="#999999" points="781.5,-195 734.5,-195 734.5,-176 781.5,-176 781.5,-195"/>
<text text-anchor="middle" x="758" y="-183" font-family="FreeSans" font-size="10.00">cmath</text>
</a>
</g>
</g>
<!-- Node1&#45;&gt;Node9 -->
<g id="edge9_Node000001_Node000009" class="edge">
<title>Node1&#45;&gt;Node9</title>
<g id="a_edge9_Node000001_Node000009"><a xlink:title=" ">
<path fill="none" stroke="#63b8ff" d="M613.51,-230.99C647.64,-220.48 693.59,-206.33 724.42,-196.84"/>
<polygon fill="#63b8ff" stroke="#63b8ff" points="725.73,-200.1 734.26,-193.81 723.67,-193.41 725.73,-200.1"/>
</a>
</g>
</g>
<!-- Node10 -->
<g id="Node000010" class="node">
<title>Node10</title>
<g id="a_Node000010"><a xlink:href="exception_8h.html" target="_top" xlink:title=" ">
<polygon fill="white" stroke="#666666" points="547,-134.5 401,-134.5 401,-115.5 547,-115.5 547,-134.5"/>
<text text-anchor="middle" x="474" y="-122.5" font-family="FreeSans" font-size="10.00">mpqc/util/core/exception.h</text>
</a>
</g>
</g>
<!-- Node1&#45;&gt;Node10 -->
<g id="edge10_Node000001_Node000010" class="edge">
<title>Node1&#45;&gt;Node10</title>
<g id="a_edge10_Node000001_Node000010"><a xlink:title=" ">
<path fill="none" stroke="#63b8ff" d="M537.06,-230.96C521.74,-222.56 504.18,-210.47 493,-195 482.33,-180.23 477.65,-159.75 475.6,-144.94"/>
<polygon fill="#63b8ff" stroke="#63b8ff" points="479.07,-144.46 474.49,-134.91 472.11,-145.23 479.07,-144.46"/>
</a>
</g>
</g>
<!-- Node15 -->
<g id="Node000015" class="node">
<title>Node15</title>
<g id="a_Node000015"><a xlink:href="assert_8h.html" target="_top" xlink:title=" ">
<polygon fill="white" stroke="#666666" points="633.5,-195 502.5,-195 502.5,-176 633.5,-176 633.5,-195"/>
<text text-anchor="middle" x="568" y="-183" font-family="FreeSans" font-size="10.00">mpqc/util/misc/assert.h</text>
</a>
</g>
</g>
<!-- Node1&#45;&gt;Node15 -->
<g id="edge19_Node000001_Node000015" class="edge">
<title>Node1&#45;&gt;Node15</title>
<g id="a_edge19_Node000001_Node000015"><a xlink:title=" ">
<path fill="none" stroke="#63b8ff" d="M568,-230.84C568,-223.21 568,-213.7 568,-205.45"/>
<polygon fill="#63b8ff" stroke="#63b8ff" points="571.5,-205.27 568,-195.27 564.5,-205.27 571.5,-205.27"/>
</a>
</g>
</g>
<!-- Node3 -->
<g id="Node000003" class="node">
<title>Node3</title>
<g id="a_Node000003"><a xlink:title=" ">
<polygon fill="#e0e0e0" stroke="#999999" points="150,-74 112,-74 112,-55 150,-55 150,-74"/>
<text text-anchor="middle" x="131" y="-62" font-family="FreeSans" font-size="10.00">map</text>
</a>
</g>
</g>
<!-- Node2&#45;&gt;Node3 -->
<g id="edge2_Node000002_Node000003" class="edge">
<title>Node2&#45;&gt;Node3</title>
<g id="a_edge2_Node000002_Node000003"><a xlink:title=" ">
<path fill="none" stroke="#63b8ff" d="M149.19,-109.84C145.96,-101.95 141.89,-92.05 138.43,-83.61"/>
<polygon fill="#63b8ff" stroke="#63b8ff" points="141.63,-82.19 134.6,-74.27 135.15,-84.85 141.63,-82.19"/>
</a>
</g>
</g>
<!-- Node4 -->
<g id="Node000004" class="node">
<title>Node4</title>
<g id="a_Node000004"><a xlink:href="memory.html" target="_top" xlink:title=" ">
<polygon fill="white" stroke="#666666" points="264,-74 206,-74 206,-55 264,-55 264,-74"/>
<text text-anchor="middle" x="235" y="-62" font-family="FreeSans" font-size="10.00">memory</text>
</a>
</g>
</g>
<!-- Node2&#45;&gt;Node4 -->
<g id="edge3_Node000002_Node000004" class="edge">
<title>Node2&#45;&gt;Node4</title>
<g id="a_edge3_Node000002_Node000004"><a xlink:title=" ">
<path fill="none" stroke="#63b8ff" d="M174.37,-109.84C186.57,-100.91 202.31,-89.41 214.69,-80.35"/>
<polygon fill="#63b8ff" stroke="#63b8ff" points="217.01,-82.99 223.01,-74.27 212.87,-77.34 217.01,-82.99"/>
</a>
</g>
</g>
<!-- Node5 -->
<g id="Node000005" class="node">
<title>Node5</title>
<g id="a_Node000005"><a xlink:title=" ">
<polygon fill="#e0e0e0" stroke="#999999" points="56,-74 0,-74 0,-55 56,-55 56,-74"/>
<text text-anchor="middle" x="28" y="-62" font-family="FreeSans" font-size="10.00">optional</text>
</a>
</g>
</g>
<!-- Node2&#45;&gt;Node5 -->
<g id="edge5_Node000002_Node000005" class="edge">
<title>Node2&#45;&gt;Node5</title>
<g id="a_edge5_Node000002_Node000005"><a xlink:title=" ">
<path fill="none" stroke="#63b8ff" d="M124.58,-109.99C103.77,-100.4 76.38,-87.79 56.09,-78.44"/>
<polygon fill="#63b8ff" stroke="#63b8ff" points="57.3,-75.14 46.76,-74.14 54.37,-81.5 57.3,-75.14"/>
</a>
</g>
</g>
<!-- Node6 -->
<g id="Node000006" class="node">
<title>Node6</title>
<g id="a_Node000006"><a xlink:title=" ">
<polygon fill="#e0e0e0" stroke="#999999" points="219,-19 175,-19 175,0 219,0 219,-19"/>
<text text-anchor="middle" x="197" y="-7" font-family="FreeSans" font-size="10.00">string</text>
</a>
</g>
</g>
<!-- Node2&#45;&gt;Node6 -->
<g id="edge6_Node000002_Node000006" class="edge">
<title>Node2&#45;&gt;Node6</title>
<g id="a_edge6_Node000002_Node000006"><a xlink:title=" ">
<path fill="none" stroke="#63b8ff" d="M132.03,-109.95C112.82,-96.34 90.4,-74.9 103,-55 116.51,-33.66 143.31,-22.36 164.85,-16.49"/>
<polygon fill="#63b8ff" stroke="#63b8ff" points="165.74,-19.88 174.61,-14.1 164.07,-13.08 165.74,-19.88"/>
</a>
</g>
</g>
<!-- Node7 -->
<g id="Node000007" class="node">
<title>Node7</title>
<g id="a_Node000007"><a xlink:title=" ">
<polygon fill="#e0e0e0" stroke="#999999" points="396.5,-19 349.5,-19 349.5,0 396.5,0 396.5,-19"/>
<text text-anchor="middle" x="373" y="-7" font-family="FreeSans" font-size="10.00">vector</text>
</a>
</g>
</g>
<!-- Node2&#45;&gt;Node7 -->
<g id="edge7_Node000002_Node000007" class="edge">
<title>Node2&#45;&gt;Node7</title>
<g id="a_edge7_Node000002_Node000007"><a xlink:title=" ">
<path fill="none" stroke="#63b8ff" d="M159.87,-109.82C166.02,-94.03 178.16,-68.91 197,-55 239.3,-23.78 301.21,-14.35 339.2,-11.57"/>
<polygon fill="#63b8ff" stroke="#63b8ff" points="339.49,-15.06 349.25,-10.95 339.05,-8.07 339.49,-15.06"/>
</a>
</g>
</g>
<!-- Node4&#45;&gt;Node4 -->
<g id="edge4_Node000004_Node000004" class="edge">
<title>Node4&#45;&gt;Node4</title>
<g id="a_edge4_Node000004_Node000004"><a xlink:title=" ">
<path fill="none" stroke="#63b8ff" d="M257.24,-74.07C270.06,-76.02 282,-72.83 282,-64.5 282,-58.45 275.7,-55.11 267.34,-54.48"/>
<polygon fill="#63b8ff" stroke="#63b8ff" points="267.08,-50.99 257.24,-54.93 267.39,-57.98 267.08,-50.99"/>
</a>
</g>
</g>
<!-- Node10&#45;&gt;Node4 -->
<g id="edge12_Node000010_Node000004" class="edge">
<title>Node10&#45;&gt;Node4</title>
<g id="a_edge12_Node000010_Node000004"><a xlink:title=" ">
<path fill="none" stroke="#63b8ff" d="M439.25,-115.49C395.32,-104.74 319.9,-86.28 274.03,-75.05"/>
<polygon fill="#63b8ff" stroke="#63b8ff" points="274.7,-71.61 264.16,-72.64 273.04,-78.41 274.7,-71.61"/>
</a>
</g>
</g>
<!-- Node10&#45;&gt;Node7 -->
<g id="edge15_Node000010_Node000007" class="edge">
<title>Node10&#45;&gt;Node7</title>
<g id="a_edge15_Node000010_Node000007"><a xlink:title=" ">
<path fill="none" stroke="#63b8ff" d="M473.74,-115.4C472.89,-101.32 469.37,-73.1 455,-55 442.54,-39.31 422.97,-28.39 406.07,-21.3"/>
<polygon fill="#63b8ff" stroke="#63b8ff" points="407.1,-17.94 396.51,-17.55 404.55,-24.46 407.1,-17.94"/>
</a>
</g>
</g>
<!-- Node11 -->
<g id="Node000011" class="node">
<title>Node11</title>
<g id="a_Node000011"><a xlink:title=" ">
<polygon fill="#e0e0e0" stroke="#999999" points="555.5,-74 502.5,-74 502.5,-55 555.5,-55 555.5,-74"/>
<text text-anchor="middle" x="529" y="-62" font-family="FreeSans" font-size="10.00">string.h</text>
</a>
</g>
</g>
<!-- Node10&#45;&gt;Node11 -->
<g id="edge11_Node000010_Node000011" class="edge">
<title>Node10&#45;&gt;Node11</title>
<g id="a_edge11_Node000010_Node000011"><a xlink:title=" ">
<path fill="none" stroke="#63b8ff" d="M482.12,-115.37C490.4,-106.55 503.47,-92.66 513.7,-81.77"/>
<polygon fill="#63b8ff" stroke="#63b8ff" points="516.55,-83.85 520.85,-74.17 511.45,-79.06 516.55,-83.85"/>
</a>
</g>
</g>
<!-- Node12 -->
<g id="Node000012" class="node">
<title>Node12</title>
<g id="a_Node000012"><a xlink:title=" ">
<polygon fill="#e0e0e0" stroke="#999999" points="630,-74 574,-74 574,-55 630,-55 630,-74"/>
<text text-anchor="middle" x="602" y="-62" font-family="FreeSans" font-size="10.00">sstream</text>
</a>
</g>
</g>
<!-- Node10&#45;&gt;Node12 -->
<g id="edge13_Node000010_Node000012" class="edge">
<title>Node10&#45;&gt;Node12</title>
<g id="a_edge13_Node000010_Node000012"><a xlink:title=" ">
<path fill="none" stroke="#63b8ff" d="M492.61,-115.49C514.04,-105.7 549.44,-89.52 574.15,-78.23"/>
<polygon fill="#63b8ff" stroke="#63b8ff" points="575.72,-81.36 583.37,-74.02 572.82,-74.99 575.72,-81.36"/>
</a>
</g>
</g>
<!-- Node13 -->
<g id="Node000013" class="node">
<title>Node13</title>
<g id="a_Node000013"><a xlink:title=" ">
<polygon fill="#e0e0e0" stroke="#999999" points="713.5,-74 648.5,-74 648.5,-55 713.5,-55 713.5,-74"/>
<text text-anchor="middle" x="681" y="-62" font-family="FreeSans" font-size="10.00">stdexcept</text>
</a>
</g>
</g>
<!-- Node10&#45;&gt;Node13 -->
<g id="edge14_Node000010_Node000013" class="edge">
<title>Node10&#45;&gt;Node13</title>
<g id="a_edge14_Node000010_Node000013"><a xlink:title=" ">
<path fill="none" stroke="#63b8ff" d="M504.1,-115.49C540.28,-105.27 601.11,-88.08 641.16,-76.76"/>
<polygon fill="#63b8ff" stroke="#63b8ff" points="642.19,-80.1 650.86,-74.02 640.29,-73.37 642.19,-80.1"/>
</a>
</g>
</g>
<!-- Node14 -->
<g id="Node000014" class="node">
<title>Node14</title>
<g id="a_Node000014"><a xlink:href="backtrace_8h.html" target="_top" xlink:title=" ">
<polygon fill="white" stroke="#666666" points="446,-74 300,-74 300,-55 446,-55 446,-74"/>
<text text-anchor="middle" x="373" y="-62" font-family="FreeSans" font-size="10.00">mpqc/util/core/backtrace.h</text>
</a>
</g>
</g>
<!-- Node10&#45;&gt;Node14 -->
<g id="edge16_Node000010_Node000014" class="edge">
<title>Node10&#45;&gt;Node14</title>
<g id="a_edge16_Node000010_Node000014"><a xlink:title=" ">
<path fill="none" stroke="#63b8ff" d="M459.1,-115.37C442.69,-105.86 416.07,-90.45 396.77,-79.27"/>
<polygon fill="#63b8ff" stroke="#63b8ff" points="398.37,-76.15 387.96,-74.17 394.86,-82.21 398.37,-76.15"/>
</a>
</g>
</g>
<!-- Node14&#45;&gt;Node6 -->
<g id="edge17_Node000014_Node000006" class="edge">
<title>Node14&#45;&gt;Node6</title>
<g id="a_edge17_Node000014_Node000006"><a xlink:title=" ">
<path fill="none" stroke="#63b8ff" d="M344.72,-54.98C313.02,-45.44 261.74,-30 228.7,-20.05"/>
<polygon fill="#63b8ff" stroke="#63b8ff" points="229.66,-16.68 219.08,-17.15 227.64,-23.38 229.66,-16.68"/>
</a>
</g>
</g>
<!-- Node14&#45;&gt;Node7 -->
<g id="edge18_Node000014_Node000007" class="edge">
<title>Node14&#45;&gt;Node7</title>
<g id="a_edge18_Node000014_Node000007"><a xlink:title=" ">
<path fill="none" stroke="#63b8ff" d="M373,-54.75C373,-47.8 373,-37.85 373,-29.13"/>
<polygon fill="#63b8ff" stroke="#63b8ff" points="376.5,-29.09 373,-19.09 369.5,-29.09 376.5,-29.09"/>
</a>
</g>
</g>
<!-- Node15&#45;&gt;Node10 -->
<g id="edge22_Node000015_Node000010" class="edge">
<title>Node15&#45;&gt;Node10</title>
<g id="a_edge22_Node000015_Node000010"><a xlink:title=" ">
<path fill="none" stroke="#63b8ff" d="M554.13,-175.87C539,-166.45 514.54,-151.23 496.62,-140.08"/>
<polygon fill="#63b8ff" stroke="#63b8ff" points="498.27,-136.98 487.93,-134.67 494.57,-142.92 498.27,-136.98"/>
</a>
</g>
</g>
<!-- Node16 -->
<g id="Node000016" class="node">
<title>Node16</title>
<g id="a_Node000016"><a xlink:title=" ">
<polygon fill="#e0e0e0" stroke="#999999" points="682.5,-134.5 565.5,-134.5 565.5,-115.5 682.5,-115.5 682.5,-134.5"/>
<text text-anchor="middle" x="624" y="-122.5" font-family="FreeSans" font-size="10.00">mpqc/mpqc_config.h</text>
</a>
</g>
</g>
<!-- Node15&#45;&gt;Node16 -->
<g id="edge20_Node000015_Node000016" class="edge">
<title>Node15&#45;&gt;Node16</title>
<g id="a_edge20_Node000015_Node000016"><a xlink:title=" ">
<path fill="none" stroke="#63b8ff" d="M576.26,-175.87C584.78,-166.97 598.26,-152.89 608.73,-141.95"/>
<polygon fill="#63b8ff" stroke="#63b8ff" points="611.32,-144.31 615.7,-134.67 606.26,-139.47 611.32,-144.31"/>
</a>
</g>
</g>
<!-- Node17 -->
<g id="Node000017" class="node">
<title>Node17</title>
<g id="a_Node000017"><a xlink:title=" ">
<polygon fill="#e0e0e0" stroke="#999999" points="753,-134.5 701,-134.5 701,-115.5 753,-115.5 753,-134.5"/>
<text text-anchor="middle" x="727" y="-122.5" font-family="FreeSans" font-size="10.00">cassert</text>
</a>
</g>
</g>
<!-- Node15&#45;&gt;Node17 -->
<g id="edge21_Node000015_Node000017" class="edge">
<title>Node15&#45;&gt;Node17</title>
<g id="a_edge21_Node000015_Node000017"><a xlink:title=" ">
<path fill="none" stroke="#63b8ff" d="M592.8,-175.9C617.9,-167.12 657.78,-152.98 692,-140 693.42,-139.46 694.86,-138.91 696.32,-138.35"/>
<polygon fill="#63b8ff" stroke="#63b8ff" points="697.92,-141.48 705.95,-134.56 695.36,-134.96 697.92,-141.48"/>
</a>
</g>
</g>
</g>
</svg>
