<?xml version="1.0" encoding="UTF-8" standalone="no"?>
<!DOCTYPE svg PUBLIC "-//W3C//DTD SVG 1.1//EN"
 "http://www.w3.org/Graphics/SVG/1.1/DTD/svg11.dtd">
<!-- Generated by graphviz version 2.43.0 (0)
 -->
<!-- Title: mpqc/chemistry/molecule/atomic_data.h Pages: 1 -->
<svg width="342pt" height="95pt"
 viewBox="0.00 0.00 341.50 94.96" xmlns="http://www.w3.org/2000/svg" xmlns:xlink="http://www.w3.org/1999/xlink">

<svg id="main" version="1.1" xmlns="http://www.w3.org/2000/svg" xmlns:xlink="http://www.w3.org/1999/xlink" xml:space="preserve" onload="init(evt)">
<style type="text/css"><![CDATA[
.node, .edge {opacity: 0.7;}
.node.selected, .edge.selected {opacity: 1;}
.edge:hover path { stroke: red; }
.edge:hover polygon { stroke: red; fill: red; }
]]></style>
<script type="application/ecmascript" xlink:href="svg.min.js"/>
<svg id="graph" class="graph">
<g id="graph0" class="graph" transform="scale(1 1) rotate(0) translate(4 90.96)">
<title>mpqc/chemistry/molecule/atomic_data.h</title>
<!-- Node1 -->
<g id="Node000001" class="node">
<title>Node1</title>
<g id="a_Node000001"><a xlink:title=" ">
<polygon fill="#999999" stroke="#666666" points="249.5,-86.96 106.5,-86.96 106.5,-56.96 249.5,-56.96 249.5,-86.96"/>
<text text-anchor="start" x="114.5" y="-74.96" font-family="FreeSans" font-size="10.00">mpqc/chemistry/molecule</text>
<text text-anchor="middle" x="178" y="-63.96" font-family="FreeSans" font-size="10.00">/atomic_data.h</text>
</a>
</g>
</g>
<!-- Node2 -->
<g id="Node000002" class="node">
<title>Node2</title>
<g id="a_Node000002"><a xlink:title=" ">
<polygon fill="#e0e0e0" stroke="#999999" points="38,-20.96 0,-20.96 0,-1.96 38,-1.96 38,-20.96"/>
<text text-anchor="middle" x="19" y="-8.96" font-family="FreeSans" font-size="10.00">map</text>
</a>
</g>
</g>
<!-- Node1&#45;&gt;Node2 -->
<g id="edge1_Node000001_Node000002" class="edge">
<title>Node1&#45;&gt;Node2</title>
<g id="a_edge1_Node000001_Node000002"><a xlink:title=" ">
<path fill="none" stroke="#63b8ff" d="M139.92,-56.95C111.69,-46.56 73.8,-32.62 48.01,-23.13"/>
<polygon fill="#63b8ff" stroke="#63b8ff" points="49.02,-19.78 38.43,-19.61 46.61,-26.35 49.02,-19.78"/>
</a>
</g>
</g>
<!-- Node3 -->
<g id="Node000003" class="node">
<title>Node3</title>
<g id="a_Node000003"><a xlink:href="memory.html" target="_top" xlink:title=" ">
<polygon fill="white" stroke="#666666" points="114,-20.96 56,-20.96 56,-1.96 114,-1.96 114,-20.96"/>
<text text-anchor="middle" x="85" y="-8.96" font-family="FreeSans" font-size="10.00">memory</text>
</a>
</g>
</g>
<!-- Node1&#45;&gt;Node3 -->
<g id="edge2_Node000001_Node000003" class="edge">
<title>Node1&#45;&gt;Node3</title>
<g id="a_edge2_Node000001_Node000003"><a xlink:title=" ">
<path fill="none" stroke="#63b8ff" d="M155.49,-56.8C140.94,-47.65 122.07,-35.78 107.51,-26.62"/>
<polygon fill="#63b8ff" stroke="#63b8ff" points="108.99,-23.42 98.66,-21.06 105.26,-29.34 108.99,-23.42"/>
</a>
</g>
</g>
<!-- Node4 -->
<g id="Node000004" class="node">
<title>Node4</title>
<g id="a_Node000004"><a xlink:title=" ">
<polygon fill="#e0e0e0" stroke="#999999" points="206,-20.96 150,-20.96 150,-1.96 206,-1.96 206,-20.96"/>
<text text-anchor="middle" x="178" y="-8.96" font-family="FreeSans" font-size="10.00">optional</text>
</a>
</g>
</g>
<!-- Node1&#45;&gt;Node4 -->
<g id="edge4_Node000001_Node000004" class="edge">
<title>Node1&#45;&gt;Node4</title>
<g id="a_edge4_Node000001_Node000004"><a xlink:title=" ">
<path fill="none" stroke="#63b8ff" d="M178,-56.8C178,-49.17 178,-39.67 178,-31.41"/>
<polygon fill="#63b8ff" stroke="#63b8ff" points="181.5,-31.23 178,-21.23 174.5,-31.23 181.5,-31.23"/>
</a>
</g>
</g>
<!-- Node5 -->
<g id="Node000005" class="node">
<title>Node5</title>
<g id="a_Node000005"><a xlink:title=" ">
<polygon fill="#e0e0e0" stroke="#999999" points="268,-20.96 224,-20.96 224,-1.96 268,-1.96 268,-20.96"/>
<text text-anchor="middle" x="246" y="-8.96" font-family="FreeSans" font-size="10.00">string</text>
</a>
</g>
</g>
<!-- Node1&#45;&gt;Node5 -->
<g id="edge5_Node000001_Node000005" class="edge">
<title>Node1&#45;&gt;Node5</title>
<g id="a_edge5_Node000001_Node000005"><a xlink:title=" ">
<path fill="none" stroke="#63b8ff" d="M194.46,-56.8C204.63,-48.05 217.69,-36.81 228.12,-27.84"/>
<polygon fill="#63b8ff" stroke="#63b8ff" points="230.51,-30.4 235.81,-21.23 225.95,-25.1 230.51,-30.4"/>
</a>
</g>
</g>
<!-- Node6 -->
<g id="Node000006" class="node">
<title>Node6</title>
<g id="a_Node000006"><a xlink:title=" ">
<polygon fill="#e0e0e0" stroke="#999999" points="333.5,-20.96 286.5,-20.96 286.5,-1.96 333.5,-1.96 333.5,-20.96"/>
<text text-anchor="middle" x="310" y="-8.96" font-family="FreeSans" font-size="10.00">vector</text>
</a>
</g>
</g>
<!-- Node1&#45;&gt;Node6 -->
<g id="edge6_Node000001_Node000006" class="edge">
<title>Node1&#45;&gt;Node6</title>
<g id="a_edge6_Node000001_Node000006"><a xlink:title=" ">
<path fill="none" stroke="#63b8ff" d="M209.62,-56.95C231.35,-47.32 259.97,-34.63 281.09,-25.27"/>
<polygon fill="#63b8ff" stroke="#63b8ff" points="282.78,-28.35 290.51,-21.1 279.95,-21.95 282.78,-28.35"/>
</a>
</g>
</g>
<!-- Node3&#45;&gt;Node3 -->
<g id="edge3_Node000003_Node000003" class="edge">
<title>Node3&#45;&gt;Node3</title>
<g id="a_edge3_Node000003_Node000003"><a xlink:title=" ">
<path fill="none" stroke="#63b8ff" d="M102.35,-20.99C116.85,-25.07 132,-21.89 132,-11.46 132,-3.48 123.12,0.26 112.45,-0.26"/>
<polygon fill="#63b8ff" stroke="#63b8ff" points="111.65,3.16 102.35,-1.93 112.79,-3.75 111.65,3.16"/>
</a>
</g>
</g>
</g>
</svg>
</svg>

<style type='text/css'>
<![CDATA[
[data-mouse-over-selected='false'] { opacity: 0.7; }
[data-mouse-over-selected='true']  { opacity: 1.0; }
]]>
</style>
<script type="application/ecmascript"><![CDATA[
document.addEventListener('DOMContentLoaded', (event) => {
  highlightEdges();
  highlightAdjacentNodes();
});
]]></script>
</svg>
