<?xml version="1.0" encoding="UTF-8" standalone="no"?>
<!DOCTYPE svg PUBLIC "-//W3C//DTD SVG 1.1//EN"
 "http://www.w3.org/Graphics/SVG/1.1/DTD/svg11.dtd">
<!-- Generated by graphviz version 2.43.0 (0)
 -->
<!-- Title: mpqc/util/core/backtrace.cpp Pages: 1 -->
<svg width="1169pt" height="269pt"
 viewBox="0.00 0.00 1169.00 269.00" xmlns="http://www.w3.org/2000/svg" xmlns:xlink="http://www.w3.org/1999/xlink">
<g id="graph0" class="graph" transform="scale(1 1) rotate(0) translate(4 265)">
<title>mpqc/util/core/backtrace.cpp</title>
<!-- Node1 -->
<g id="Node000001" class="node">
<title>Node1</title>
<g id="a_Node000001"><a xlink:title=" ">
<polygon fill="#999999" stroke="#666666" points="884,-261 726,-261 726,-242 884,-242 884,-261"/>
<text text-anchor="middle" x="805" y="-249" font-family="FreeSans" font-size="10.00">mpqc/util/core/backtrace.cpp</text>
</a>
</g>
</g>
<!-- Node2 -->
<g id="Node000002" class="node">
<title>Node2</title>
<g id="a_Node000002"><a xlink:href="backtrace_8h.html" target="_top" xlink:title=" ">
<polygon fill="white" stroke="#666666" points="123,-206 49,-206 49,-187 123,-187 123,-206"/>
<text text-anchor="middle" x="86" y="-194" font-family="FreeSans" font-size="10.00">backtrace.h</text>
</a>
</g>
</g>
<!-- Node1&#45;&gt;Node2 -->
<g id="edge1_Node000001_Node000002" class="edge">
<title>Node1&#45;&gt;Node2</title>
<g id="a_edge1_Node000001_Node000002"><a xlink:title=" ">
<path fill="none" stroke="#63b8ff" d="M726,-244.68C576.06,-233.62 254.41,-209.91 133.37,-200.99"/>
<polygon fill="#63b8ff" stroke="#63b8ff" points="133.53,-197.49 123.3,-200.25 133.02,-204.48 133.53,-197.49"/>
</a>
</g>
</g>
<!-- Node5 -->
<g id="Node000005" class="node">
<title>Node5</title>
<g id="a_Node000005"><a xlink:title=" ">
<polygon fill="#e0e0e0" stroke="#999999" points="857,-206 807,-206 807,-187 857,-187 857,-206"/>
<text text-anchor="middle" x="832" y="-194" font-family="FreeSans" font-size="10.00">cstring</text>
</a>
</g>
</g>
<!-- Node1&#45;&gt;Node5 -->
<g id="edge4_Node000001_Node000005" class="edge">
<title>Node1&#45;&gt;Node5</title>
<g id="a_edge4_Node000001_Node000005"><a xlink:title=" ">
<path fill="none" stroke="#63b8ff" d="M809.46,-241.75C813.12,-234.57 818.41,-224.18 822.95,-215.27"/>
<polygon fill="#63b8ff" stroke="#63b8ff" points="826.2,-216.59 827.62,-206.09 819.97,-213.41 826.2,-216.59"/>
</a>
</g>
</g>
<!-- Node6 -->
<g id="Node000006" class="node">
<title>Node6</title>
<g id="a_Node000006"><a xlink:title=" ">
<polygon fill="#e0e0e0" stroke="#999999" points="928.5,-206 875.5,-206 875.5,-187 928.5,-187 928.5,-206"/>
<text text-anchor="middle" x="902" y="-194" font-family="FreeSans" font-size="10.00">iterator</text>
</a>
</g>
</g>
<!-- Node1&#45;&gt;Node6 -->
<g id="edge5_Node000001_Node000006" class="edge">
<title>Node1&#45;&gt;Node6</title>
<g id="a_edge5_Node000001_Node000006"><a xlink:title=" ">
<path fill="none" stroke="#63b8ff" d="M820.58,-241.98C835.77,-233.69 859.1,-220.94 876.9,-211.22"/>
<polygon fill="#63b8ff" stroke="#63b8ff" points="879.03,-214.04 886.13,-206.17 875.68,-207.89 879.03,-214.04"/>
</a>
</g>
</g>
<!-- Node7 -->
<g id="Node000007" class="node">
<title>Node7</title>
<g id="a_Node000007"><a xlink:title=" ">
<polygon fill="#e0e0e0" stroke="#999999" points="1003,-206 947,-206 947,-187 1003,-187 1003,-206"/>
<text text-anchor="middle" x="975" y="-194" font-family="FreeSans" font-size="10.00">sstream</text>
</a>
</g>
</g>
<!-- Node1&#45;&gt;Node7 -->
<g id="edge6_Node000001_Node000007" class="edge">
<title>Node1&#45;&gt;Node7</title>
<g id="a_edge6_Node000001_Node000007"><a xlink:title=" ">
<path fill="none" stroke="#63b8ff" d="M832.31,-241.98C860.85,-233.09 905.83,-219.07 937.64,-209.15"/>
<polygon fill="#63b8ff" stroke="#63b8ff" points="938.97,-212.4 947.47,-206.08 936.88,-205.72 938.97,-212.4"/>
</a>
</g>
</g>
<!-- Node8 -->
<g id="Node000008" class="node">
<title>Node8</title>
<g id="a_Node000008"><a xlink:title=" ">
<polygon fill="#e0e0e0" stroke="#999999" points="1161,-206 1021,-206 1021,-187 1161,-187 1161,-206"/>
<text text-anchor="middle" x="1091" y="-194" font-family="FreeSans" font-size="10.00">boost/core/demangle.hpp</text>
</a>
</g>
</g>
<!-- Node1&#45;&gt;Node8 -->
<g id="edge7_Node000001_Node000008" class="edge">
<title>Node1&#45;&gt;Node8</title>
<g id="a_edge7_Node000001_Node000008"><a xlink:title=" ">
<path fill="none" stroke="#63b8ff" d="M850.95,-241.98C900.94,-232.72 980.89,-217.9 1034.64,-207.94"/>
<polygon fill="#63b8ff" stroke="#63b8ff" points="1035.49,-211.35 1044.69,-206.08 1034.22,-204.46 1035.49,-211.35"/>
</a>
</g>
</g>
<!-- Node9 -->
<g id="Node000009" class="node">
<title>Node9</title>
<g id="a_Node000009"><a xlink:title=" ">
<polygon fill="#e0e0e0" stroke="#999999" points="644.5,-19 527.5,-19 527.5,0 644.5,0 644.5,-19"/>
<text text-anchor="middle" x="586" y="-7" font-family="FreeSans" font-size="10.00">mpqc/mpqc_config.h</text>
</a>
</g>
</g>
<!-- Node1&#45;&gt;Node9 -->
<g id="edge8_Node000001_Node000009" class="edge">
<title>Node1&#45;&gt;Node9</title>
<g id="a_edge8_Node000001_Node000009"><a xlink:title=" ">
<path fill="none" stroke="#63b8ff" d="M803.92,-241.72C800.79,-219.39 789.95,-159.52 760,-121 722.44,-72.69 657.41,-39.62 618.38,-22.98"/>
<polygon fill="#63b8ff" stroke="#63b8ff" points="619.63,-19.71 609.05,-19.1 616.94,-26.17 619.63,-19.71"/>
</a>
</g>
</g>
<!-- Node10 -->
<g id="Node000010" class="node">
<title>Node10</title>
<g id="a_Node000010"><a xlink:href="exenv_8h.html" target="_top" xlink:title=" ">
<polygon fill="white" stroke="#666666" points="487,-206 433,-206 433,-187 487,-187 487,-206"/>
<text text-anchor="middle" x="460" y="-194" font-family="FreeSans" font-size="10.00">exenv.h</text>
</a>
</g>
</g>
<!-- Node1&#45;&gt;Node10 -->
<g id="edge9_Node000001_Node000010" class="edge">
<title>Node1&#45;&gt;Node10</title>
<g id="a_edge9_Node000001_Node000010"><a xlink:title=" ">
<path fill="none" stroke="#63b8ff" d="M749.57,-241.98C678.63,-231.09 557.66,-212.5 497,-203.18"/>
<polygon fill="#63b8ff" stroke="#63b8ff" points="497.51,-199.72 487.09,-201.66 496.45,-206.64 497.51,-199.72"/>
</a>
</g>
</g>
<!-- Node13 -->
<g id="Node000013" class="node">
<title>Node13</title>
<g id="a_Node000013"><a xlink:href="formio_8h.html" target="_top" xlink:title=" ">
<polygon fill="white" stroke="#666666" points="258.5,-145.5 127.5,-145.5 127.5,-126.5 258.5,-126.5 258.5,-145.5"/>
<text text-anchor="middle" x="193" y="-133.5" font-family="FreeSans" font-size="10.00">mpqc/util/core/formio.h</text>
</a>
</g>
</g>
<!-- Node1&#45;&gt;Node13 -->
<g id="edge28_Node000001_Node000013" class="edge">
<title>Node1&#45;&gt;Node13</title>
<g id="a_edge28_Node000001_Node000013"><a xlink:title=" ">
<path fill="none" stroke="#63b8ff" d="M725.92,-245.3C648.41,-239.25 527.22,-227.27 424,-206 352.31,-191.22 270.77,-164.44 226.29,-148.94"/>
<polygon fill="#63b8ff" stroke="#63b8ff" points="227.19,-145.55 216.59,-145.54 224.87,-152.15 227.19,-145.55"/>
</a>
</g>
</g>
<!-- Node3 -->
<g id="Node000003" class="node">
<title>Node3</title>
<g id="a_Node000003"><a xlink:title=" ">
<polygon fill="#e0e0e0" stroke="#999999" points="44,-145.5 0,-145.5 0,-126.5 44,-126.5 44,-145.5"/>
<text text-anchor="middle" x="22" y="-133.5" font-family="FreeSans" font-size="10.00">string</text>
</a>
</g>
</g>
<!-- Node2&#45;&gt;Node3 -->
<g id="edge2_Node000002_Node000003" class="edge">
<title>Node2&#45;&gt;Node3</title>
<g id="a_edge2_Node000002_Node000003"><a xlink:title=" ">
<path fill="none" stroke="#63b8ff" d="M76.56,-186.87C66.73,-177.88 51.11,-163.61 39.11,-152.64"/>
<polygon fill="#63b8ff" stroke="#63b8ff" points="41.22,-149.83 31.48,-145.67 36.5,-155 41.22,-149.83"/>
</a>
</g>
</g>
<!-- Node4 -->
<g id="Node000004" class="node">
<title>Node4</title>
<g id="a_Node000004"><a xlink:title=" ">
<polygon fill="#e0e0e0" stroke="#999999" points="109.5,-145.5 62.5,-145.5 62.5,-126.5 109.5,-126.5 109.5,-145.5"/>
<text text-anchor="middle" x="86" y="-133.5" font-family="FreeSans" font-size="10.00">vector</text>
</a>
</g>
</g>
<!-- Node2&#45;&gt;Node4 -->
<g id="edge3_Node000002_Node000004" class="edge">
<title>Node2&#45;&gt;Node4</title>
<g id="a_edge3_Node000002_Node000004"><a xlink:title=" ">
<path fill="none" stroke="#63b8ff" d="M86,-186.87C86,-178.75 86,-166.31 86,-155.89"/>
<polygon fill="#63b8ff" stroke="#63b8ff" points="89.5,-155.67 86,-145.67 82.5,-155.67 89.5,-155.67"/>
</a>
</g>
</g>
<!-- Node10&#45;&gt;Node4 -->
<g id="edge27_Node000010_Node000004" class="edge">
<title>Node10&#45;&gt;Node4</title>
<g id="a_edge27_Node000010_Node000004"><a xlink:title=" ">
<path fill="none" stroke="#63b8ff" d="M432.88,-194.57C374.35,-192 232.23,-182.72 118,-151 116.31,-150.53 114.6,-149.99 112.89,-149.4"/>
<polygon fill="#63b8ff" stroke="#63b8ff" points="113.87,-146.02 103.28,-145.62 111.3,-152.54 113.87,-146.02"/>
</a>
</g>
</g>
<!-- Node10&#45;&gt;Node9 -->
<g id="edge13_Node000010_Node000009" class="edge">
<title>Node10&#45;&gt;Node9</title>
<g id="a_edge13_Node000010_Node000009"><a xlink:title=" ">
<path fill="none" stroke="#63b8ff" d="M487.27,-192.97C533.66,-188.03 624.79,-175.41 644,-151 651.99,-140.85 656.52,-83.95 642,-55 635.59,-42.21 623.61,-31.92 612.37,-24.47"/>
<polygon fill="#63b8ff" stroke="#63b8ff" points="613.98,-21.36 603.63,-19.11 610.32,-27.32 613.98,-21.36"/>
</a>
</g>
</g>
<!-- Node11 -->
<g id="Node000011" class="node">
<title>Node11</title>
<g id="a_Node000011"><a xlink:href="math_2external_2tiledarray_2fwd_8h.html" target="_top" xlink:title=" ">
<polygon fill="white" stroke="#666666" points="567,-151 451,-151 451,-121 567,-121 567,-151"/>
<text text-anchor="start" x="459" y="-139" font-family="FreeSans" font-size="10.00">mpqc/math/external</text>
<text text-anchor="middle" x="509" y="-128" font-family="FreeSans" font-size="10.00">/tiledarray/fwd.h</text>
</a>
</g>
</g>
<!-- Node10&#45;&gt;Node11 -->
<g id="edge10_Node000010_Node000011" class="edge">
<title>Node10&#45;&gt;Node11</title>
<g id="a_edge10_Node000010_Node000011"><a xlink:title=" ">
<path fill="none" stroke="#63b8ff" d="M467.23,-186.87C473.39,-179.52 482.5,-168.63 490.65,-158.91"/>
<polygon fill="#63b8ff" stroke="#63b8ff" points="493.44,-161.03 497.18,-151.11 488.07,-156.53 493.44,-161.03"/>
</a>
</g>
</g>
<!-- Node10&#45;&gt;Node13 -->
<g id="edge14_Node000010_Node000013" class="edge">
<title>Node10&#45;&gt;Node13</title>
<g id="a_edge14_Node000010_Node000013"><a xlink:title=" ">
<path fill="none" stroke="#63b8ff" d="M432.93,-189.57C388.25,-179.78 298.43,-160.1 242.26,-147.79"/>
<polygon fill="#63b8ff" stroke="#63b8ff" points="242.7,-144.31 232.18,-145.58 241.2,-151.14 242.7,-144.31"/>
</a>
</g>
</g>
<!-- Node16 -->
<g id="Node000016" class="node">
<title>Node16</title>
<g id="a_Node000016"><a xlink:href="memory.html" target="_top" xlink:title=" ">
<polygon fill="white" stroke="#666666" points="335,-79.5 277,-79.5 277,-60.5 335,-60.5 335,-79.5"/>
<text text-anchor="middle" x="306" y="-67.5" font-family="FreeSans" font-size="10.00">memory</text>
</a>
</g>
</g>
<!-- Node10&#45;&gt;Node16 -->
<g id="edge24_Node000010_Node000016" class="edge">
<title>Node10&#45;&gt;Node16</title>
<g id="a_edge24_Node000010_Node000016"><a xlink:title=" ">
<path fill="none" stroke="#63b8ff" d="M432.98,-191.62C393.03,-185.27 321.26,-171.3 306,-151 292.73,-133.35 295.94,-106.76 300.28,-89.15"/>
<polygon fill="#63b8ff" stroke="#63b8ff" points="303.66,-90.08 303,-79.5 296.92,-88.18 303.66,-90.08"/>
</a>
</g>
</g>
<!-- Node19 -->
<g id="Node000019" class="node">
<title>Node19</title>
<g id="a_Node000019"><a xlink:title=" ">
<polygon fill="#e0e0e0" stroke="#999999" points="634.5,-145.5 585.5,-145.5 585.5,-126.5 634.5,-126.5 634.5,-145.5"/>
<text text-anchor="middle" x="610" y="-133.5" font-family="FreeSans" font-size="10.00">cstdlib</text>
</a>
</g>
</g>
<!-- Node10&#45;&gt;Node19 -->
<g id="edge22_Node000010_Node000019" class="edge">
<title>Node10&#45;&gt;Node19</title>
<g id="a_edge22_Node000010_Node000019"><a xlink:title=" ">
<path fill="none" stroke="#63b8ff" d="M482.74,-186.96C506.17,-178.12 543.73,-163.83 576,-151 577.37,-150.45 578.77,-149.89 580.19,-149.32"/>
<polygon fill="#63b8ff" stroke="#63b8ff" points="581.59,-152.53 589.54,-145.52 578.95,-146.05 581.59,-152.53"/>
</a>
</g>
</g>
<!-- Node20 -->
<g id="Node000020" class="node">
<title>Node20</title>
<g id="a_Node000020"><a xlink:title=" ">
<polygon fill="#e0e0e0" stroke="#999999" points="751,-145.5 691,-145.5 691,-126.5 751,-126.5 751,-145.5"/>
<text text-anchor="middle" x="721" y="-133.5" font-family="FreeSans" font-size="10.00">iostream</text>
</a>
</g>
</g>
<!-- Node10&#45;&gt;Node20 -->
<g id="edge23_Node000010_Node000020" class="edge">
<title>Node10&#45;&gt;Node20</title>
<g id="a_edge23_Node000010_Node000020"><a xlink:title=" ">
<path fill="none" stroke="#63b8ff" d="M487.28,-190.86C528.61,-183.62 609.46,-168.62 677,-151 679.84,-150.26 682.76,-149.45 685.69,-148.59"/>
<polygon fill="#63b8ff" stroke="#63b8ff" points="686.99,-151.86 695.54,-145.6 684.95,-145.16 686.99,-151.86"/>
</a>
</g>
</g>
<!-- Node21 -->
<g id="Node000021" class="node">
<title>Node21</title>
<g id="a_Node000021"><a xlink:title=" ">
<polygon fill="#e0e0e0" stroke="#999999" points="371,-145.5 315,-145.5 315,-126.5 371,-126.5 371,-145.5"/>
<text text-anchor="middle" x="343" y="-133.5" font-family="FreeSans" font-size="10.00">optional</text>
</a>
</g>
</g>
<!-- Node10&#45;&gt;Node21 -->
<g id="edge25_Node000010_Node000021" class="edge">
<title>Node10&#45;&gt;Node21</title>
<g id="a_edge25_Node000010_Node000021"><a xlink:title=" ">
<path fill="none" stroke="#63b8ff" d="M442.99,-186.99C423.58,-177.29 391.61,-161.31 369.06,-150.03"/>
<polygon fill="#63b8ff" stroke="#63b8ff" points="370.54,-146.86 360.03,-145.52 367.41,-153.12 370.54,-146.86"/>
</a>
</g>
</g>
<!-- Node22 -->
<g id="Node000022" class="node">
<title>Node22</title>
<g id="a_Node000022"><a xlink:title=" ">
<polygon fill="#e0e0e0" stroke="#999999" points="432.5,-145.5 389.5,-145.5 389.5,-126.5 432.5,-126.5 432.5,-145.5"/>
<text text-anchor="middle" x="411" y="-133.5" font-family="FreeSans" font-size="10.00">stack</text>
</a>
</g>
</g>
<!-- Node10&#45;&gt;Node22 -->
<g id="edge26_Node000010_Node000022" class="edge">
<title>Node10&#45;&gt;Node22</title>
<g id="a_edge26_Node000010_Node000022"><a xlink:title=" ">
<path fill="none" stroke="#63b8ff" d="M452.77,-186.87C445.46,-178.14 433.98,-164.43 424.9,-153.59"/>
<polygon fill="#63b8ff" stroke="#63b8ff" points="427.36,-151.09 418.26,-145.67 422,-155.58 427.36,-151.09"/>
</a>
</g>
</g>
<!-- Node11&#45;&gt;Node9 -->
<g id="edge11_Node000011_Node000009" class="edge">
<title>Node11&#45;&gt;Node9</title>
<g id="a_edge11_Node000011_Node000009"><a xlink:title=" ">
<path fill="none" stroke="#63b8ff" d="M509.76,-120.89C511.27,-103.99 515.73,-75.4 529,-55 537.05,-42.62 549.72,-32.23 561.08,-24.61"/>
<polygon fill="#63b8ff" stroke="#63b8ff" points="563.21,-27.4 569.79,-19.1 559.47,-21.49 563.21,-27.4"/>
</a>
</g>
</g>
<!-- Node12 -->
<g id="Node000012" class="node">
<title>Node12</title>
<g id="a_Node000012"><a xlink:title=" ">
<polygon fill="#e0e0e0" stroke="#999999" points="632.5,-79.5 537.5,-79.5 537.5,-60.5 632.5,-60.5 632.5,-79.5"/>
<text text-anchor="middle" x="585" y="-67.5" font-family="FreeSans" font-size="10.00">tiledarray_fwd.h</text>
</a>
</g>
</g>
<!-- Node11&#45;&gt;Node12 -->
<g id="edge12_Node000011_Node000012" class="edge">
<title>Node11&#45;&gt;Node12</title>
<g id="a_edge12_Node000011_Node000012"><a xlink:title=" ">
<path fill="none" stroke="#63b8ff" d="M525.87,-120.8C537.95,-110.62 554.21,-96.93 566.62,-86.48"/>
<polygon fill="#63b8ff" stroke="#63b8ff" points="569.1,-88.96 574.5,-79.84 564.59,-83.61 569.1,-88.96"/>
</a>
</g>
</g>
<!-- Node14 -->
<g id="Node000014" class="node">
<title>Node14</title>
<g id="a_Node000014"><a xlink:title=" ">
<polygon fill="#e0e0e0" stroke="#999999" points="259,-79.5 211,-79.5 211,-60.5 259,-60.5 259,-79.5"/>
<text text-anchor="middle" x="235" y="-67.5" font-family="FreeSans" font-size="10.00">iosfwd</text>
</a>
</g>
</g>
<!-- Node13&#45;&gt;Node14 -->
<g id="edge15_Node000013_Node000014" class="edge">
<title>Node13&#45;&gt;Node14</title>
<g id="a_edge15_Node000013_Node000014"><a xlink:title=" ">
<path fill="none" stroke="#63b8ff" d="M198.66,-126.37C205.02,-116.69 215.48,-100.74 223.56,-88.44"/>
<polygon fill="#63b8ff" stroke="#63b8ff" points="226.6,-90.19 229.16,-79.91 220.74,-86.35 226.6,-90.19"/>
</a>
</g>
</g>
<!-- Node15 -->
<g id="Node000015" class="node">
<title>Node15</title>
<g id="a_Node000015"><a xlink:title=" ">
<polygon fill="#e0e0e0" stroke="#999999" points="193,-79.5 155,-79.5 155,-60.5 193,-60.5 193,-79.5"/>
<text text-anchor="middle" x="174" y="-67.5" font-family="FreeSans" font-size="10.00">map</text>
</a>
</g>
</g>
<!-- Node13&#45;&gt;Node15 -->
<g id="edge16_Node000013_Node000015" class="edge">
<title>Node13&#45;&gt;Node15</title>
<g id="a_edge16_Node000013_Node000015"><a xlink:title=" ">
<path fill="none" stroke="#63b8ff" d="M190.44,-126.37C187.65,-116.97 183.11,-101.67 179.5,-89.53"/>
<polygon fill="#63b8ff" stroke="#63b8ff" points="182.85,-88.5 176.64,-79.91 176.13,-90.49 182.85,-88.5"/>
</a>
</g>
</g>
<!-- Node13&#45;&gt;Node16 -->
<g id="edge17_Node000013_Node000016" class="edge">
<title>Node13&#45;&gt;Node16</title>
<g id="a_edge17_Node000013_Node000016"><a xlink:title=" ">
<path fill="none" stroke="#63b8ff" d="M208.24,-126.37C227.11,-115.68 259.48,-97.35 281.77,-84.72"/>
<polygon fill="#63b8ff" stroke="#63b8ff" points="283.66,-87.67 290.64,-79.7 280.21,-81.58 283.66,-87.67"/>
</a>
</g>
</g>
<!-- Node17 -->
<g id="Node000017" class="node">
<title>Node17</title>
<g id="a_Node000017"><a xlink:href="scope.html" target="_top" xlink:title=" ">
<polygon fill="white" stroke="#666666" points="137,-85 31,-85 31,-55 137,-55 137,-85"/>
<text text-anchor="start" x="39" y="-73" font-family="FreeSans" font-size="10.00">mpqc/util/external</text>
<text text-anchor="middle" x="84" y="-62" font-family="FreeSans" font-size="10.00">/c++/scope</text>
</a>
</g>
</g>
<!-- Node13&#45;&gt;Node17 -->
<g id="edge19_Node000013_Node000017" class="edge">
<title>Node13&#45;&gt;Node17</title>
<g id="a_edge19_Node000013_Node000017"><a xlink:title=" ">
<path fill="none" stroke="#63b8ff" d="M178.3,-126.37C162.61,-117.16 137.24,-102.26 116.76,-90.24"/>
<polygon fill="#63b8ff" stroke="#63b8ff" points="118.44,-87.16 108.04,-85.12 114.89,-93.2 118.44,-87.16"/>
</a>
</g>
</g>
<!-- Node16&#45;&gt;Node16 -->
<g id="edge18_Node000016_Node000016" class="edge">
<title>Node16&#45;&gt;Node16</title>
<g id="a_edge18_Node000016_Node000016"><a xlink:title=" ">
<path fill="none" stroke="#63b8ff" d="M323.35,-79.53C337.85,-83.61 353,-80.43 353,-70 353,-62.01 344.12,-58.28 333.45,-58.8"/>
<polygon fill="#63b8ff" stroke="#63b8ff" points="332.65,-55.38 323.35,-60.47 333.79,-62.29 332.65,-55.38"/>
</a>
</g>
</g>
<!-- Node17&#45;&gt;Node9 -->
<g id="edge20_Node000017_Node000009" class="edge">
<title>Node17&#45;&gt;Node9</title>
<g id="a_edge20_Node000017_Node000009"><a xlink:title=" ">
<path fill="none" stroke="#63b8ff" d="M137.02,-56.58C140.05,-56.01 143.06,-55.48 146,-55 276.48,-33.75 430.49,-20.95 517.35,-14.85"/>
<polygon fill="#63b8ff" stroke="#63b8ff" points="517.61,-18.34 527.34,-14.16 517.12,-11.36 517.61,-18.34"/>
</a>
</g>
</g>
<!-- Node18 -->
<g id="Node000018" class="node">
<title>Node18</title>
<g id="a_Node000018"><a xlink:title=" ">
<polygon fill="#e0e0e0" stroke="#999999" points="106.5,-19 61.5,-19 61.5,0 106.5,0 106.5,-19"/>
<text text-anchor="middle" x="84" y="-7" font-family="FreeSans" font-size="10.00">utility</text>
</a>
</g>
</g>
<!-- Node17&#45;&gt;Node18 -->
<g id="edge21_Node000017_Node000018" class="edge">
<title>Node17&#45;&gt;Node18</title>
<g id="a_edge21_Node000017_Node000018"><a xlink:title=" ">
<path fill="none" stroke="#63b8ff" d="M84,-54.84C84,-47.21 84,-37.7 84,-29.45"/>
<polygon fill="#63b8ff" stroke="#63b8ff" points="87.5,-29.27 84,-19.27 80.5,-29.27 87.5,-29.27"/>
</a>
</g>
</g>
</g>
</svg>
