<?xml version="1.0" encoding="UTF-8" standalone="no"?>
<!DOCTYPE svg PUBLIC "-//W3C//DTD SVG 1.1//EN"
 "http://www.w3.org/Graphics/SVG/1.1/DTD/svg11.dtd">
<!-- Generated by graphviz version 2.43.0 (0)
 -->
<!-- Title: mpqc/chemistry/qc/lcao/basis/basis.cpp Pages: 1 -->
<svg width="377pt" height="225pt"
 viewBox="0.00 0.00 376.50 225.00" xmlns="http://www.w3.org/2000/svg" xmlns:xlink="http://www.w3.org/1999/xlink">

<svg id="main" version="1.1" xmlns="http://www.w3.org/2000/svg" xmlns:xlink="http://www.w3.org/1999/xlink" xml:space="preserve" onload="init(evt)">
<style type="text/css"><![CDATA[
.node, .edge {opacity: 0.7;}
.node.selected, .edge.selected {opacity: 1;}
.edge:hover path { stroke: red; }
.edge:hover polygon { stroke: red; fill: red; }
]]></style>
<script type="application/ecmascript" xlink:href="svg.min.js"/>
<svg id="graph" class="graph">
<g id="graph0" class="graph" transform="scale(1 1) rotate(0) translate(4 221)">
<title>mpqc/chemistry/qc/lcao/basis/basis.cpp</title>
<!-- Node1 -->
<g id="Node000001" class="node">
<title>Node1</title>
<g id="a_Node000001"><a xlink:title=" ">
<polygon fill="#999999" stroke="#666666" points="205.5,-217 72.5,-217 72.5,-187 205.5,-187 205.5,-217"/>
<text text-anchor="start" x="80.5" y="-205" font-family="FreeSans" font-size="10.00">mpqc/chemistry/qc/lcao</text>
<text text-anchor="middle" x="139" y="-194" font-family="FreeSans" font-size="10.00">/basis/basis.cpp</text>
</a>
</g>
</g>
<!-- Node2 -->
<g id="Node000002" class="node">
<title>Node2</title>
<g id="a_Node000002"><a xlink:href="basis_2basis_8h.html" target="_top" xlink:title=" ">
<polygon fill="white" stroke="#666666" points="205.5,-151 72.5,-151 72.5,-121 205.5,-121 205.5,-151"/>
<text text-anchor="start" x="80.5" y="-139" font-family="FreeSans" font-size="10.00">mpqc/chemistry/qc/lcao</text>
<text text-anchor="middle" x="139" y="-128" font-family="FreeSans" font-size="10.00">/basis/basis.h</text>
</a>
</g>
</g>
<!-- Node1&#45;&gt;Node2 -->
<g id="edge1_Node000001_Node000002" class="edge">
<title>Node1&#45;&gt;Node2</title>
<g id="a_edge1_Node000001_Node000002"><a xlink:title=" ">
<path fill="none" stroke="#63b8ff" d="M139,-186.8C139,-179.34 139,-169.99 139,-161.41"/>
<polygon fill="#63b8ff" stroke="#63b8ff" points="142.5,-161.16 139,-151.16 135.5,-161.16 142.5,-161.16"/>
</a>
</g>
</g>
<!-- Node3 -->
<g id="Node000003" class="node">
<title>Node3</title>
<g id="a_Node000003"><a xlink:title=" ">
<polygon fill="#e0e0e0" stroke="#999999" points="48,-79.5 0,-79.5 0,-60.5 48,-60.5 48,-79.5"/>
<text text-anchor="middle" x="24" y="-67.5" font-family="FreeSans" font-size="10.00">iosfwd</text>
</a>
</g>
</g>
<!-- Node2&#45;&gt;Node3 -->
<g id="edge2_Node000002_Node000003" class="edge">
<title>Node2&#45;&gt;Node3</title>
<g id="a_edge2_Node000002_Node000003"><a xlink:title=" ">
<path fill="none" stroke="#63b8ff" d="M113.76,-120.95C94.22,-110.08 67.32,-95.11 48.07,-84.4"/>
<polygon fill="#63b8ff" stroke="#63b8ff" points="49.74,-81.32 39.3,-79.52 46.34,-87.44 49.74,-81.32"/>
</a>
</g>
</g>
<!-- Node4 -->
<g id="Node000004" class="node">
<title>Node4</title>
<g id="a_Node000004"><a xlink:href="memory.html" target="_top" xlink:title=" ">
<polygon fill="white" stroke="#666666" points="124,-79.5 66,-79.5 66,-60.5 124,-60.5 124,-79.5"/>
<text text-anchor="middle" x="95" y="-67.5" font-family="FreeSans" font-size="10.00">memory</text>
</a>
</g>
</g>
<!-- Node2&#45;&gt;Node4 -->
<g id="edge3_Node000002_Node000004" class="edge">
<title>Node2&#45;&gt;Node4</title>
<g id="a_edge3_Node000002_Node000004"><a xlink:title=" ">
<path fill="none" stroke="#63b8ff" d="M129.23,-120.8C122.64,-111.21 113.91,-98.5 106.91,-88.32"/>
<polygon fill="#63b8ff" stroke="#63b8ff" points="109.63,-86.1 101.08,-79.84 103.86,-90.07 109.63,-86.1"/>
</a>
</g>
</g>
<!-- Node5 -->
<g id="Node000005" class="node">
<title>Node5</title>
<g id="a_Node000005"><a xlink:title=" ">
<polygon fill="#e0e0e0" stroke="#999999" points="207.5,-79.5 160.5,-79.5 160.5,-60.5 207.5,-60.5 207.5,-79.5"/>
<text text-anchor="middle" x="184" y="-67.5" font-family="FreeSans" font-size="10.00">vector</text>
</a>
</g>
</g>
<!-- Node2&#45;&gt;Node5 -->
<g id="edge5_Node000002_Node000005" class="edge">
<title>Node2&#45;&gt;Node5</title>
<g id="a_edge5_Node000002_Node000005"><a xlink:title=" ">
<path fill="none" stroke="#63b8ff" d="M148.99,-120.8C155.73,-111.21 164.66,-98.5 171.82,-88.32"/>
<polygon fill="#63b8ff" stroke="#63b8ff" points="174.89,-90.04 177.78,-79.84 169.17,-86.01 174.89,-90.04"/>
</a>
</g>
</g>
<!-- Node6 -->
<g id="Node000006" class="node">
<title>Node6</title>
<g id="a_Node000006"><a xlink:href="tiledarray_8h.html" target="_top" xlink:title=" ">
<polygon fill="white" stroke="#666666" points="350.5,-85 225.5,-85 225.5,-55 350.5,-55 350.5,-85"/>
<text text-anchor="start" x="233.5" y="-73" font-family="FreeSans" font-size="10.00">mpqc/math/external</text>
<text text-anchor="middle" x="288" y="-62" font-family="FreeSans" font-size="10.00">/tiledarray/tiledarray.h</text>
</a>
</g>
</g>
<!-- Node2&#45;&gt;Node6 -->
<g id="edge6_Node000002_Node000006" class="edge">
<title>Node2&#45;&gt;Node6</title>
<g id="a_edge6_Node000002_Node000006"><a xlink:title=" ">
<path fill="none" stroke="#63b8ff" d="M171.7,-120.95C193.53,-111.58 222.45,-99.16 245.99,-89.05"/>
<polygon fill="#63b8ff" stroke="#63b8ff" points="247.57,-92.17 255.38,-85.01 244.81,-85.74 247.57,-92.17"/>
</a>
</g>
</g>
<!-- Node4&#45;&gt;Node4 -->
<g id="edge4_Node000004_Node000004" class="edge">
<title>Node4&#45;&gt;Node4</title>
<g id="a_edge4_Node000004_Node000004"><a xlink:title=" ">
<path fill="none" stroke="#63b8ff" d="M112.35,-79.53C126.85,-83.61 142,-80.43 142,-70 142,-62.01 133.12,-58.28 122.45,-58.8"/>
<polygon fill="#63b8ff" stroke="#63b8ff" points="121.65,-55.38 112.35,-60.47 122.79,-62.29 121.65,-55.38"/>
</a>
</g>
</g>
<!-- Node6&#45;&gt;Node6 -->
<g id="edge7_Node000006_Node000006" class="edge">
<title>Node6&#45;&gt;Node6</title>
<g id="a_edge7_Node000006_Node000006"><a xlink:title=" ">
<path fill="none" stroke="#63b8ff" d="M350.78,-80.46C361.26,-78.99 368.5,-75.51 368.5,-70 368.5,-66.47 365.53,-63.77 360.64,-61.9"/>
<polygon fill="#63b8ff" stroke="#63b8ff" points="361.32,-58.47 350.78,-59.54 359.69,-65.28 361.32,-58.47"/>
</a>
</g>
</g>
<!-- Node7 -->
<g id="Node000007" class="node">
<title>Node7</title>
<g id="a_Node000007"><a xlink:title=" ">
<polygon fill="#e0e0e0" stroke="#999999" points="346.5,-19 229.5,-19 229.5,0 346.5,0 346.5,-19"/>
<text text-anchor="middle" x="288" y="-7" font-family="FreeSans" font-size="10.00">mpqc/mpqc_config.h</text>
</a>
</g>
</g>
<!-- Node6&#45;&gt;Node7 -->
<g id="edge8_Node000006_Node000007" class="edge">
<title>Node6&#45;&gt;Node7</title>
<g id="a_edge8_Node000006_Node000007"><a xlink:title=" ">
<path fill="none" stroke="#63b8ff" d="M288,-54.84C288,-47.21 288,-37.7 288,-29.45"/>
<polygon fill="#63b8ff" stroke="#63b8ff" points="291.5,-29.27 288,-19.27 284.5,-29.27 291.5,-29.27"/>
</a>
</g>
</g>
</g>
</svg>
</svg>

<style type='text/css'>
<![CDATA[
[data-mouse-over-selected='false'] { opacity: 0.7; }
[data-mouse-over-selected='true']  { opacity: 1.0; }
]]>
</style>
<script type="application/ecmascript"><![CDATA[
document.addEventListener('DOMContentLoaded', (event) => {
  highlightEdges();
  highlightAdjacentNodes();
});
]]></script>
</svg>
