<?xml version="1.0" encoding="UTF-8" standalone="no"?>
<!DOCTYPE svg PUBLIC "-//W3C//DTD SVG 1.1//EN"
 "http://www.w3.org/Graphics/SVG/1.1/DTD/svg11.dtd">
<!-- Generated by graphviz version 2.43.0 (0)
 -->
<!-- Title: mpqc/math/core/binary.h Pages: 1 -->
<!--zoomable 522 -->

<svg id="main" version="1.1" xmlns="http://www.w3.org/2000/svg" xmlns:xlink="http://www.w3.org/1999/xlink" xml:space="preserve" onload="init(evt)">
<style type="text/css"><![CDATA[
.node, .edge {opacity: 0.7;}
.node.selected, .edge.selected {opacity: 1;}
.edge:hover path { stroke: red; }
.edge:hover polygon { stroke: red; fill: red; }
]]></style>

<defs>
  <circle id="rim" cx="0" cy="0" r="7"/>
  <circle id="rim2" cx="0" cy="0" r="3.5"/>
  <g id="zoomPlus">
    <use xlink:href="#rim" fill="#404040"><set attributeName="fill" to="#808080" begin="zoomplus.mouseover" end="zoomplus.mouseout"/></use>
    <path d="M-4,0h8M0,-4v8" fill="none" stroke="white" stroke-width="1.5" pointer-events="none"/>
  </g>
  <g id="zoomMin">
    <use xlink:href="#rim" fill="#404040"><set attributeName="fill" to="#808080" begin="zoomminus.mouseover" end="zoomminus.mouseout"/></use>
    <path d="M-4,0h8" fill="none" stroke="white" stroke-width="1.5" pointer-events="none"/>
  </g>
  <g id="arrowUp" transform="translate(30 24)">
    <use xlink:href="#rim"/>
    <path pointer-events="none" fill="none" stroke="white" stroke-width="1.5" d="M0,-3.0v7 M-2.5,-0.5L0,-3.0L2.5,-0.5"/>
  </g>
  <g id="arrowRight" transform="rotate(90) translate(36 -43)">
    <use xlink:href="#rim"/>
    <path pointer-events="none" fill="none" stroke="white" stroke-width="1.5" d="M0,-3.0v7 M-2.5,-0.5L0,-3.0L2.5,-0.5"/>
  </g>
  <g id="arrowDown" transform="rotate(180) translate(-30 -48)">
    <use xlink:href="#rim"/>
    <path pointer-events="none" fill="none" stroke="white" stroke-width="1.5" d="M0,-3.0v7 M-2.5,-0.5L0,-3.0L2.5,-0.5"/>
  </g>
  <g id="arrowLeft" transform="rotate(270) translate(-36 17)">
    <use xlink:href="#rim"/>
    <path pointer-events="none" fill="none" stroke="white" stroke-width="1.5" d="M0,-3.0v7 M-2.5,-0.5L0,-3.0L2.5,-0.5"/>
  </g>
  <g id="resetDef">
    <use xlink:href="#rim2" fill="#404040"><set attributeName="fill" to="#808080" begin="reset.mouseover" end="reset.mouseout"/></use>
  </g>
</defs>
<script type="application/ecmascript">
var viewWidth = 1198;
var viewHeight = 522;
var sectionId = 'dynsection-1';
</script>
<script type="application/ecmascript" xlink:href="svg.min.js"/>
<svg id="graph" class="graph">
<g id="viewport">
<title>mpqc/math/core/binary.h</title>
<!-- Node1 -->
<g id="Node000001" class="node">
<title>Node1</title>
<g id="a_Node000001"><a xlink:title=" ">
<polygon fill="#999999" stroke="#666666" points="686.5,-514 549.5,-514 549.5,-495 686.5,-495 686.5,-514"/>
<text text-anchor="middle" x="618" y="-502" font-family="FreeSans" font-size="10.00">mpqc/math/core/binary.h</text>
</a>
</g>
</g>
<!-- Node2 -->
<g id="Node000002" class="node">
<title>Node2</title>
<g id="a_Node000002"><a xlink:href="direct__contract_8h.html" target="_top" xlink:title=" ">
<polygon fill="white" stroke="#666666" points="581.5,-376.5 434.5,-376.5 434.5,-346.5 581.5,-346.5 581.5,-376.5"/>
<text text-anchor="start" x="442.5" y="-364.5" font-family="FreeSans" font-size="10.00">mpqc/chemistry/qc/lcao</text>
<text text-anchor="middle" x="508" y="-353.5" font-family="FreeSans" font-size="10.00">/integrals/direct_contract.h</text>
</a>
</g>
</g>
<!-- Node1&#45;&gt;Node2 -->
<g id="edge1_Node000001_Node000002" class="edge">
<title>Node1&#45;&gt;Node2</title>
<g id="a_edge1_Node000001_Node000002"><a xlink:title=" ">
<path fill="none" stroke="#63b8ff" d="M604.82,-486.6C582.88,-458.49 539.31,-402.63 518.95,-376.54"/>
<polygon fill="#63b8ff" stroke="#63b8ff" points="602.21,-488.95 611.12,-494.68 607.73,-484.64 602.21,-488.95"/>
</a>
</g>
</g>
<!-- Node3 -->
<g id="Node000003" class="node">
<title>Node3</title>
<g id="a_Node000003"><a xlink:href="sd_8ipp.html" target="_top" xlink:title=" ">
<polygon fill="white" stroke="#666666" points="472.5,-299.5 339.5,-299.5 339.5,-269.5 472.5,-269.5 472.5,-299.5"/>
<text text-anchor="start" x="347.5" y="-287.5" font-family="FreeSans" font-size="10.00">mpqc/chemistry/qc/lcao</text>
<text text-anchor="middle" x="406" y="-276.5" font-family="FreeSans" font-size="10.00">/scf/sd.ipp</text>
</a>
</g>
</g>
<!-- Node1&#45;&gt;Node3 -->
<g id="edge22_Node000001_Node000003" class="edge">
<title>Node1&#45;&gt;Node3</title>
<g id="a_edge22_Node000001_Node000003"><a xlink:title=" ">
<path fill="none" stroke="#63b8ff" d="M582.81,-491.39C538.61,-474.26 463.86,-438.59 425,-382 407.7,-356.8 405.3,-319.66 405.43,-299.6"/>
<polygon fill="#63b8ff" stroke="#63b8ff" points="581.7,-494.71 592.29,-494.96 584.17,-488.16 581.7,-494.71"/>
</a>
</g>
</g>
<!-- Node17 -->
<g id="Node000017" class="node">
<title>Node17</title>
<g id="a_Node000017"><a xlink:href="ks__fock__builder_8h.html" target="_top" xlink:title=" ">
<polygon fill="white" stroke="#666666" points="954.5,-453.5 821.5,-453.5 821.5,-423.5 954.5,-423.5 954.5,-453.5"/>
<text text-anchor="start" x="829.5" y="-441.5" font-family="FreeSans" font-size="10.00">mpqc/chemistry/qc/lcao</text>
<text text-anchor="middle" x="888" y="-430.5" font-family="FreeSans" font-size="10.00">/scf/ks_fock_builder.h</text>
</a>
</g>
</g>
<!-- Node1&#45;&gt;Node17 -->
<g id="edge19_Node000001_Node000017" class="edge">
<title>Node1&#45;&gt;Node17</title>
<g id="a_edge19_Node000001_Node000017"><a xlink:title=" ">
<path fill="none" stroke="#63b8ff" d="M664.02,-492.59C709.49,-481.81 779.26,-465.28 828.83,-453.52"/>
<polygon fill="#63b8ff" stroke="#63b8ff" points="663.06,-489.22 654.13,-494.94 664.67,-496.03 663.06,-489.22"/>
</a>
</g>
</g>
<!-- Node20 -->
<g id="Node000020" class="node">
<title>Node20</title>
<g id="a_Node000020"><a xlink:href="traditional__four__center__fock__builder_8ipp.html" target="_top" xlink:title=" ">
<polygon fill="white" stroke="#666666" points="733.5,-459 598.5,-459 598.5,-418 733.5,-418 733.5,-459"/>
<text text-anchor="start" x="606.5" y="-447" font-family="FreeSans" font-size="10.00">mpqc/chemistry/qc/lcao</text>
<text text-anchor="start" x="606.5" y="-436" font-family="FreeSans" font-size="10.00">/scf/traditional_four</text>
<text text-anchor="middle" x="666" y="-425" font-family="FreeSans" font-size="10.00">_center_fock_builder.ipp</text>
</a>
</g>
</g>
<!-- Node1&#45;&gt;Node20 -->
<g id="edge23_Node000001_Node000020" class="edge">
<title>Node1&#45;&gt;Node20</title>
<g id="a_edge23_Node000001_Node000020"><a xlink:title=" ">
<path fill="none" stroke="#63b8ff" d="M630.51,-486.82C636.89,-478.31 644.7,-467.9 651.37,-459.01"/>
<polygon fill="#63b8ff" stroke="#63b8ff" points="627.67,-484.77 624.47,-494.87 633.27,-488.97 627.67,-484.77"/>
</a>
</g>
</g>
<!-- Node2&#45;&gt;Node3 -->
<g id="edge2_Node000002_Node000003" class="edge">
<title>Node2&#45;&gt;Node3</title>
<g id="a_edge2_Node000002_Node000003"><a xlink:title=" ">
<path fill="none" stroke="#63b8ff" d="M480.64,-340.38C463.09,-327.48 440.75,-311.05 425.1,-299.54"/>
<polygon fill="#63b8ff" stroke="#63b8ff" points="478.68,-343.29 488.81,-346.39 482.83,-337.65 478.68,-343.29"/>
</a>
</g>
</g>
<!-- Node4 -->
<g id="Node000004" class="node">
<title>Node4</title>
<g id="a_Node000004"><a xlink:href="sd_8cpp.html" target="_top" xlink:title=" ">
<polygon fill="white" stroke="#666666" points="321.5,-228 188.5,-228 188.5,-198 321.5,-198 321.5,-228"/>
<text text-anchor="start" x="196.5" y="-216" font-family="FreeSans" font-size="10.00">mpqc/chemistry/qc/lcao</text>
<text text-anchor="middle" x="255" y="-205" font-family="FreeSans" font-size="10.00">/scf/sd.cpp</text>
</a>
</g>
</g>
<!-- Node3&#45;&gt;Node4 -->
<g id="edge3_Node000003_Node000004" class="edge">
<title>Node3&#45;&gt;Node4</title>
<g id="a_edge3_Node000003_Node000004"><a xlink:title=" ">
<path fill="none" stroke="#63b8ff" d="M366.14,-265.15C340.88,-253.53 308.73,-238.73 285.51,-228.04"/>
<polygon fill="#63b8ff" stroke="#63b8ff" points="364.9,-268.43 375.44,-269.44 367.82,-262.08 364.9,-268.43"/>
</a>
</g>
</g>
<!-- Node5 -->
<g id="Node000005" class="node">
<title>Node5</title>
<g id="a_Node000005"><a xlink:href="sd_8h.html" target="_top" xlink:title=" ">
<polygon fill="white" stroke="#666666" points="472.5,-228 339.5,-228 339.5,-198 472.5,-198 472.5,-228"/>
<text text-anchor="start" x="347.5" y="-216" font-family="FreeSans" font-size="10.00">mpqc/chemistry/qc/lcao</text>
<text text-anchor="middle" x="406" y="-205" font-family="FreeSans" font-size="10.00">/scf/sd.h</text>
</a>
</g>
</g>
<!-- Node3&#45;&gt;Node5 -->
<g id="edge4_Node000003_Node000005" class="edge">
<title>Node3&#45;&gt;Node5</title>
<g id="a_edge4_Node000003_Node000005"><a xlink:title=" ">
<path fill="none" stroke="#63b8ff" d="M399.53,-259.25C398.96,-248.81 399.26,-236.99 400.45,-228.04"/>
<polygon fill="#63b8ff" stroke="#63b8ff" points="396.07,-259.79 400.45,-269.44 403.04,-259.16 396.07,-259.79"/>
</a>
</g>
</g>
<!-- Node5&#45;&gt;Node3 -->
<g id="edge16_Node000005_Node000003" class="edge">
<title>Node5&#45;&gt;Node3</title>
<g id="a_edge16_Node000005_Node000003"><a xlink:title=" ">
<path fill="none" stroke="#63b8ff" d="M412.47,-238.23C413.04,-248.66 412.74,-260.49 411.55,-269.44"/>
<polygon fill="#63b8ff" stroke="#63b8ff" points="415.93,-237.69 411.55,-228.04 408.96,-238.32 415.93,-237.69"/>
</a>
</g>
</g>
<!-- Node6 -->
<g id="Node000006" class="node">
<title>Node6</title>
<g id="a_Node000006"><a xlink:href="pao__to__pno__mp2_8ipp.html" target="_top" xlink:title=" ">
<polygon fill="white" stroke="#666666" points="353.5,-162 204.5,-162 204.5,-132 353.5,-132 353.5,-162"/>
<text text-anchor="start" x="212.5" y="-150" font-family="FreeSans" font-size="10.00">mpqc/chemistry/qc/lcao</text>
<text text-anchor="middle" x="279" y="-139" font-family="FreeSans" font-size="10.00">/mbpt/pao_to_pno_mp2.ipp</text>
</a>
</g>
</g>
<!-- Node5&#45;&gt;Node6 -->
<g id="edge5_Node000005_Node000006" class="edge">
<title>Node5&#45;&gt;Node6</title>
<g id="a_edge5_Node000005_Node000006"><a xlink:title=" ">
<path fill="none" stroke="#63b8ff" d="M369.05,-193.38C349.17,-183.36 325.07,-171.22 306.81,-162.01"/>
<polygon fill="#63b8ff" stroke="#63b8ff" points="367.62,-196.58 378.13,-197.95 370.77,-190.33 367.62,-196.58"/>
</a>
</g>
</g>
<!-- Node9 -->
<g id="Node000009" class="node">
<title>Node9</title>
<g id="a_Node000009"><a xlink:href="rhf_8h.html" target="_top" xlink:title=" ">
<polygon fill="white" stroke="#666666" points="525.5,-162 392.5,-162 392.5,-132 525.5,-132 525.5,-162"/>
<text text-anchor="start" x="400.5" y="-150" font-family="FreeSans" font-size="10.00">mpqc/chemistry/qc/lcao</text>
<text text-anchor="middle" x="459" y="-139" font-family="FreeSans" font-size="10.00">/scf/rhf.h</text>
</a>
</g>
</g>
<!-- Node5&#45;&gt;Node9 -->
<g id="edge9_Node000005_Node000009" class="edge">
<title>Node5&#45;&gt;Node9</title>
<g id="a_edge9_Node000005_Node000009"><a xlink:title=" ">
<path fill="none" stroke="#63b8ff" d="M424.15,-190.09C431.8,-180.85 440.48,-170.36 447.27,-162.16"/>
<polygon fill="#63b8ff" stroke="#63b8ff" points="421.44,-187.86 417.76,-197.8 426.84,-192.33 421.44,-187.86"/>
</a>
</g>
</g>
<!-- Node16 -->
<g id="Node000016" class="node">
<title>Node16</title>
<g id="a_Node000016"><a xlink:href="solver_8ipp.html" target="_top" xlink:title=" ">
<polygon fill="white" stroke="#666666" points="132,-162 0,-162 0,-132 132,-132 132,-162"/>
<text text-anchor="start" x="8" y="-150" font-family="FreeSans" font-size="10.00">mpqc/chemistry/qc/mra</text>
<text text-anchor="middle" x="66" y="-139" font-family="FreeSans" font-size="10.00">/scf/solver.ipp</text>
</a>
</g>
</g>
<!-- Node5&#45;&gt;Node16 -->
<g id="edge17_Node000005_Node000016" class="edge">
<title>Node5&#45;&gt;Node16</title>
<g id="a_edge17_Node000005_Node000016"><a xlink:title=" ">
<path fill="none" stroke="#63b8ff" d="M329.16,-197.54C269.79,-186.36 188.5,-171.06 132.04,-160.43"/>
<polygon fill="#63b8ff" stroke="#63b8ff" points="328.76,-201.02 339.23,-199.43 330.05,-194.14 328.76,-201.02"/>
</a>
</g>
</g>
<!-- Node7 -->
<g id="Node000007" class="node">
<title>Node7</title>
<g id="a_Node000007"><a xlink:href="pao__to__pno__mp2_8cpp.html" target="_top" xlink:title=" ">
<polygon fill="white" stroke="#666666" points="191,-96 39,-96 39,-66 191,-66 191,-96"/>
<text text-anchor="start" x="47" y="-84" font-family="FreeSans" font-size="10.00">mpqc/chemistry/qc/lcao</text>
<text text-anchor="middle" x="115" y="-73" font-family="FreeSans" font-size="10.00">/mbpt/pao_to_pno_mp2.cpp</text>
</a>
</g>
</g>
<!-- Node6&#45;&gt;Node7 -->
<g id="edge6_Node000006_Node000007" class="edge">
<title>Node6&#45;&gt;Node7</title>
<g id="a_edge6_Node000006_Node000007"><a xlink:title=" ">
<path fill="none" stroke="#63b8ff" d="M233.36,-128.19C207.31,-118.02 175.13,-105.47 150.91,-96.01"/>
<polygon fill="#63b8ff" stroke="#63b8ff" points="232.42,-131.58 243.01,-131.95 234.97,-125.06 232.42,-131.58"/>
</a>
</g>
</g>
<!-- Node8 -->
<g id="Node000008" class="node">
<title>Node8</title>
<g id="a_Node000008"><a xlink:href="pao__to__pno__mp2_8h.html" target="_top" xlink:title=" ">
<polygon fill="white" stroke="#666666" points="349,-96 209,-96 209,-66 349,-66 349,-96"/>
<text text-anchor="start" x="217" y="-84" font-family="FreeSans" font-size="10.00">mpqc/chemistry/qc/lcao</text>
<text text-anchor="middle" x="279" y="-73" font-family="FreeSans" font-size="10.00">/mbpt/pao_to_pno_mp2.h</text>
</a>
</g>
</g>
<!-- Node6&#45;&gt;Node8 -->
<g id="edge7_Node000006_Node000008" class="edge">
<title>Node6&#45;&gt;Node8</title>
<g id="a_edge7_Node000006_Node000008"><a xlink:title=" ">
<path fill="none" stroke="#63b8ff" d="M272.43,-121.83C272.02,-113.17 272.31,-103.7 273.29,-96.16"/>
<polygon fill="#63b8ff" stroke="#63b8ff" points="268.95,-122.13 273.28,-131.8 275.92,-121.54 268.95,-122.13"/>
</a>
</g>
</g>
<!-- Node8&#45;&gt;Node6 -->
<g id="edge8_Node000008_Node000006" class="edge">
<title>Node8&#45;&gt;Node6</title>
<g id="a_edge8_Node000008_Node000006"><a xlink:title=" ">
<path fill="none" stroke="#63b8ff" d="M285.57,-106.13C285.98,-114.78 285.7,-124.26 284.72,-131.8"/>
<polygon fill="#63b8ff" stroke="#63b8ff" points="289.05,-105.83 284.71,-96.16 282.08,-106.43 289.05,-105.83"/>
</a>
</g>
</g>
<!-- Node10 -->
<g id="Node000010" class="node">
<title>Node10</title>
<g id="a_Node000010"><a xlink:href="scf_8h.html" target="_top" xlink:title=" ">
<polygon fill="white" stroke="#666666" points="662.5,-96 517.5,-96 517.5,-66 662.5,-66 662.5,-96"/>
<text text-anchor="start" x="525.5" y="-84" font-family="FreeSans" font-size="10.00">/home/runner/work/mpqc4</text>
<text text-anchor="middle" x="590" y="-73" font-family="FreeSans" font-size="10.00">/mpqc4/python/src/scf.h</text>
</a>
</g>
</g>
<!-- Node9&#45;&gt;Node10 -->
<g id="edge10_Node000009_Node000010" class="edge">
<title>Node9&#45;&gt;Node10</title>
<g id="a_edge10_Node000009_Node000010"><a xlink:title=" ">
<path fill="none" stroke="#63b8ff" d="M496.84,-127.51C517.39,-117.47 542.39,-105.26 561.32,-96.01"/>
<polygon fill="#63b8ff" stroke="#63b8ff" points="495.2,-124.42 487.75,-131.95 498.27,-130.71 495.2,-124.42"/>
</a>
</g>
</g>
<!-- Node12 -->
<g id="Node000012" class="node">
<title>Node12</title>
<g id="a_Node000012"><a xlink:href="rhf_8ipp.html" target="_top" xlink:title=" ">
<polygon fill="white" stroke="#666666" points="813.5,-96 680.5,-96 680.5,-66 813.5,-66 813.5,-96"/>
<text text-anchor="start" x="688.5" y="-84" font-family="FreeSans" font-size="10.00">mpqc/chemistry/qc/lcao</text>
<text text-anchor="middle" x="747" y="-73" font-family="FreeSans" font-size="10.00">/scf/rhf.ipp</text>
</a>
</g>
</g>
<!-- Node9&#45;&gt;Node12 -->
<g id="edge12_Node000009_Node000012" class="edge">
<title>Node9&#45;&gt;Node12</title>
<g id="a_edge12_Node000009_Node000012"><a xlink:title=" ">
<path fill="none" stroke="#63b8ff" d="M531.99,-129.78C578.87,-119.36 639.15,-105.97 683.94,-96.01"/>
<polygon fill="#63b8ff" stroke="#63b8ff" points="531.21,-126.37 522.2,-131.95 532.72,-133.2 531.21,-126.37"/>
</a>
</g>
</g>
<!-- Node14 -->
<g id="Node000014" class="node">
<title>Node14</title>
<g id="a_Node000014"><a xlink:href="solver__1c__v2_8ipp.html" target="_top" xlink:title=" ">
<polygon fill="white" stroke="#666666" points="499,-96 367,-96 367,-66 499,-66 499,-96"/>
<text text-anchor="start" x="375" y="-84" font-family="FreeSans" font-size="10.00">mpqc/chemistry/qc/mra</text>
<text text-anchor="middle" x="433" y="-73" font-family="FreeSans" font-size="10.00">/scf/solver_1c_v2.ipp</text>
</a>
</g>
</g>
<!-- Node9&#45;&gt;Node14 -->
<g id="edge14_Node000009_Node000014" class="edge">
<title>Node9&#45;&gt;Node14</title>
<g id="a_edge14_Node000009_Node000014"><a xlink:title=" ">
<path fill="none" stroke="#63b8ff" d="M449.41,-122.39C445.83,-113.59 441.88,-103.86 438.75,-96.16"/>
<polygon fill="#63b8ff" stroke="#63b8ff" points="446.22,-123.85 453.23,-131.8 452.71,-121.21 446.22,-123.85"/>
</a>
</g>
</g>
<!-- Node11 -->
<g id="Node000011" class="node">
<title>Node11</title>
<g id="a_Node000011"><a xlink:href="mpqc_8cc.html" target="_top" xlink:title=" ">
<polygon fill="white" stroke="#666666" points="663,-30 513,-30 513,0 663,0 663,-30"/>
<text text-anchor="start" x="521" y="-18" font-family="FreeSans" font-size="10.00">/home/runner/work/mpqc4</text>
<text text-anchor="middle" x="588" y="-7" font-family="FreeSans" font-size="10.00">/mpqc4/python/src/mpqc.cc</text>
</a>
</g>
</g>
<!-- Node10&#45;&gt;Node11 -->
<g id="edge11_Node000010_Node000011" class="edge">
<title>Node10&#45;&gt;Node11</title>
<g id="a_edge11_Node000010_Node000011"><a xlink:title=" ">
<path fill="none" stroke="#63b8ff" d="M589.24,-55.54C588.97,-46.96 588.68,-37.61 588.44,-30.16"/>
<polygon fill="#63b8ff" stroke="#63b8ff" points="585.75,-55.91 589.56,-65.8 592.74,-55.69 585.75,-55.91"/>
</a>
</g>
</g>
<!-- Node13 -->
<g id="Node000013" class="node">
<title>Node13</title>
<g id="a_Node000013"><a xlink:href="rhf_8cpp.html" target="_top" xlink:title=" ">
<polygon fill="white" stroke="#666666" points="814.5,-30 681.5,-30 681.5,0 814.5,0 814.5,-30"/>
<text text-anchor="start" x="689.5" y="-18" font-family="FreeSans" font-size="10.00">mpqc/chemistry/qc/lcao</text>
<text text-anchor="middle" x="748" y="-7" font-family="FreeSans" font-size="10.00">/scf/rhf.cpp</text>
</a>
</g>
</g>
<!-- Node12&#45;&gt;Node13 -->
<g id="edge13_Node000012_Node000013" class="edge">
<title>Node12&#45;&gt;Node13</title>
<g id="a_edge13_Node000012_Node000013"><a xlink:title=" ">
<path fill="none" stroke="#63b8ff" d="M747.38,-55.54C747.52,-46.96 747.66,-37.61 747.78,-30.16"/>
<polygon fill="#63b8ff" stroke="#63b8ff" points="743.88,-55.74 747.22,-65.8 750.88,-55.85 743.88,-55.74"/>
</a>
</g>
</g>
<!-- Node15 -->
<g id="Node000015" class="node">
<title>Node15</title>
<g id="a_Node000015"><a xlink:href="solver_8cpp.html" target="_top" xlink:title=" ">
<polygon fill="white" stroke="#666666" points="287,-30 155,-30 155,0 287,0 287,-30"/>
<text text-anchor="start" x="163" y="-18" font-family="FreeSans" font-size="10.00">mpqc/chemistry/qc/mra</text>
<text text-anchor="middle" x="221" y="-7" font-family="FreeSans" font-size="10.00">/scf/solver.cpp</text>
</a>
</g>
</g>
<!-- Node14&#45;&gt;Node15 -->
<g id="edge15_Node000014_Node000015" class="edge">
<title>Node14&#45;&gt;Node15</title>
<g id="a_edge15_Node000014_Node000015"><a xlink:title=" ">
<path fill="none" stroke="#63b8ff" d="M376.65,-62.99C342.54,-52.69 299.56,-39.72 267.42,-30.01"/>
<polygon fill="#63b8ff" stroke="#63b8ff" points="375.89,-66.42 386.48,-65.95 377.91,-59.71 375.89,-66.42"/>
</a>
</g>
</g>
<!-- Node16&#45;&gt;Node15 -->
<g id="edge18_Node000016_Node000015" class="edge">
<title>Node16&#45;&gt;Node15</title>
<g id="a_edge18_Node000016_Node000015"><a xlink:title=" ">
<path fill="none" stroke="#63b8ff" d="M44.27,-124.16C30.05,-107.18 16.4,-83.61 30,-66 45.39,-46.06 106.09,-32.53 154.98,-24.63"/>
<polygon fill="#63b8ff" stroke="#63b8ff" points="41.92,-126.78 51.19,-131.92 47.14,-122.13 41.92,-126.78"/>
</a>
</g>
</g>
<!-- Node18 -->
<g id="Node000018" class="node">
<title>Node18</title>
<g id="a_Node000018"><a xlink:href="ks__fock__builder_8ipp.html" target="_top" xlink:title=" ">
<polygon fill="white" stroke="#666666" points="1094.5,-376.5 961.5,-376.5 961.5,-346.5 1094.5,-346.5 1094.5,-376.5"/>
<text text-anchor="start" x="969.5" y="-364.5" font-family="FreeSans" font-size="10.00">mpqc/chemistry/qc/lcao</text>
<text text-anchor="middle" x="1028" y="-353.5" font-family="FreeSans" font-size="10.00">/scf/ks_fock_builder.ipp</text>
</a>
</g>
</g>
<!-- Node17&#45;&gt;Node18 -->
<g id="edge20_Node000017_Node000018" class="edge">
<title>Node17&#45;&gt;Node18</title>
<g id="a_edge20_Node000017_Node000018"><a xlink:title=" ">
<path fill="none" stroke="#63b8ff" d="M923.28,-418.6C947.68,-405.53 979.63,-388.41 1001.79,-376.54"/>
<polygon fill="#63b8ff" stroke="#63b8ff" points="921.49,-415.59 914.33,-423.39 924.8,-421.76 921.49,-415.59"/>
</a>
</g>
</g>
<!-- Node19 -->
<g id="Node000019" class="node">
<title>Node19</title>
<g id="a_Node000019"><a xlink:href="ks__fock__builder_8cpp.html" target="_top" xlink:title=" ">
<polygon fill="white" stroke="#666666" points="1166.5,-299.5 1033.5,-299.5 1033.5,-269.5 1166.5,-269.5 1166.5,-299.5"/>
<text text-anchor="start" x="1041.5" y="-287.5" font-family="FreeSans" font-size="10.00">mpqc/chemistry/qc/lcao</text>
<text text-anchor="middle" x="1100" y="-276.5" font-family="FreeSans" font-size="10.00">/scf/ks_fock_builder.cpp</text>
</a>
</g>
</g>
<!-- Node18&#45;&gt;Node19 -->
<g id="edge21_Node000018_Node000019" class="edge">
<title>Node18&#45;&gt;Node19</title>
<g id="a_edge21_Node000018_Node000019"><a xlink:title=" ">
<path fill="none" stroke="#63b8ff" d="M1048.68,-338.96C1060.84,-326.29 1075.87,-310.63 1086.52,-299.54"/>
<polygon fill="#63b8ff" stroke="#63b8ff" points="1045.94,-336.76 1041.54,-346.39 1050.99,-341.6 1045.94,-336.76"/>
</a>
</g>
</g>
<!-- Node21 -->
<g id="Node000021" class="node">
<title>Node21</title>
<g id="a_Node000021"><a xlink:href="traditional__four__center__fock__builder_8h.html" target="_top" xlink:title=" ">
<polygon fill="white" stroke="#666666" points="732.5,-382 599.5,-382 599.5,-341 732.5,-341 732.5,-382"/>
<text text-anchor="start" x="607.5" y="-370" font-family="FreeSans" font-size="10.00">mpqc/chemistry/qc/lcao</text>
<text text-anchor="start" x="607.5" y="-359" font-family="FreeSans" font-size="10.00">/scf/traditional_four</text>
<text text-anchor="middle" x="666" y="-348" font-family="FreeSans" font-size="10.00">_center_fock_builder.h</text>
</a>
</g>
</g>
<!-- Node20&#45;&gt;Node21 -->
<g id="edge24_Node000020_Node000021" class="edge">
<title>Node20&#45;&gt;Node21</title>
<g id="a_edge24_Node000020_Node000021"><a xlink:title=" ">
<path fill="none" stroke="#63b8ff" d="M659.38,-407.69C659.09,-399.08 659.29,-389.9 659.99,-382.07"/>
<polygon fill="#63b8ff" stroke="#63b8ff" points="655.89,-408.02 659.98,-417.79 662.88,-407.6 655.89,-408.02"/>
</a>
</g>
</g>
<!-- Node21&#45;&gt;Node3 -->
<g id="edge35_Node000021_Node000003" class="edge">
<title>Node21&#45;&gt;Node3</title>
<g id="a_edge35_Node000021_Node000003"><a xlink:title=" ">
<path fill="none" stroke="#63b8ff" d="M589.67,-338.48C546.09,-325.91 492.74,-310.52 454.79,-299.57"/>
<polygon fill="#63b8ff" stroke="#63b8ff" points="588.8,-341.87 599.38,-341.28 590.74,-335.15 588.8,-341.87"/>
</a>
</g>
</g>
<!-- Node21&#45;&gt;Node12 -->
<g id="edge34_Node000021_Node000012" class="edge">
<title>Node21&#45;&gt;Node12</title>
<g id="a_edge34_Node000021_Node000012"><a xlink:title=" ">
<path fill="none" stroke="#63b8ff" d="M658.45,-331.03C648.43,-285.22 635.8,-195.62 671,-132 679.87,-115.97 696.31,-104.2 711.63,-96.12"/>
<polygon fill="#63b8ff" stroke="#63b8ff" points="655.07,-331.94 660.72,-340.9 661.89,-330.37 655.07,-331.94"/>
</a>
</g>
</g>
<!-- Node21&#45;&gt;Node20 -->
<g id="edge37_Node000021_Node000020" class="edge">
<title>Node21&#45;&gt;Node20</title>
<g id="a_edge37_Node000021_Node000020"><a xlink:title=" ">
<path fill="none" stroke="#63b8ff" d="M672.62,-392.16C672.91,-400.77 672.71,-409.96 672.02,-417.79"/>
<polygon fill="#63b8ff" stroke="#63b8ff" points="676.1,-391.85 672.01,-382.07 669.12,-392.27 676.1,-391.85"/>
</a>
</g>
</g>
<!-- Node22 -->
<g id="Node000022" class="node">
<title>Node22</title>
<g id="a_Node000022"><a xlink:href="cadf__builder_8h.html" target="_top" xlink:title=" ">
<polygon fill="white" stroke="#666666" points="813.5,-162 680.5,-162 680.5,-132 813.5,-132 813.5,-162"/>
<text text-anchor="start" x="688.5" y="-150" font-family="FreeSans" font-size="10.00">mpqc/chemistry/qc/lcao</text>
<text text-anchor="middle" x="747" y="-139" font-family="FreeSans" font-size="10.00">/scf/cadf_builder.h</text>
</a>
</g>
</g>
<!-- Node21&#45;&gt;Node22 -->
<g id="edge25_Node000021_Node000022" class="edge">
<title>Node21&#45;&gt;Node22</title>
<g id="a_edge25_Node000021_Node000022"><a xlink:title=" ">
<path fill="none" stroke="#63b8ff" d="M677.08,-331.43C694.72,-285.15 728.53,-196.45 741.63,-162.09"/>
<polygon fill="#63b8ff" stroke="#63b8ff" points="673.77,-330.3 673.48,-340.89 680.31,-332.79 673.77,-330.3"/>
</a>
</g>
</g>
<!-- Node23 -->
<g id="Node000023" class="node">
<title>Node23</title>
<g id="a_Node000023"><a xlink:href="clr__cadf__builder_8h.html" target="_top" xlink:title=" ">
<polygon fill="white" stroke="#666666" points="623.5,-228 490.5,-228 490.5,-198 623.5,-198 623.5,-228"/>
<text text-anchor="start" x="498.5" y="-216" font-family="FreeSans" font-size="10.00">mpqc/chemistry/qc/lcao</text>
<text text-anchor="middle" x="557" y="-205" font-family="FreeSans" font-size="10.00">/scf/clr_cadf_builder.h</text>
</a>
</g>
</g>
<!-- Node21&#45;&gt;Node23 -->
<g id="edge27_Node000021_Node000023" class="edge">
<title>Node21&#45;&gt;Node23</title>
<g id="a_edge27_Node000021_Node000023"><a xlink:title=" ">
<path fill="none" stroke="#63b8ff" d="M645.14,-332.46C621.95,-301.3 585.42,-252.2 567.55,-228.18"/>
<polygon fill="#63b8ff" stroke="#63b8ff" points="642.52,-334.81 651.3,-340.74 648.14,-330.63 642.52,-334.81"/>
</a>
</g>
</g>
<!-- Node24 -->
<g id="Node000024" class="node">
<title>Node24</title>
<g id="a_Node000024"><a xlink:href="dfj4ck__fock__builder_8h.html" target="_top" xlink:title=" ">
<polygon fill="white" stroke="#666666" points="1015,-299.5 875,-299.5 875,-269.5 1015,-269.5 1015,-299.5"/>
<text text-anchor="start" x="883" y="-287.5" font-family="FreeSans" font-size="10.00">mpqc/chemistry/qc/lcao</text>
<text text-anchor="middle" x="945" y="-276.5" font-family="FreeSans" font-size="10.00">/scf/dfj4ck_fock_builder.h</text>
</a>
</g>
</g>
<!-- Node21&#45;&gt;Node24 -->
<g id="edge29_Node000021_Node000024" class="edge">
<title>Node21&#45;&gt;Node24</title>
<g id="a_edge29_Node000021_Node000024"><a xlink:title=" ">
<path fill="none" stroke="#63b8ff" d="M742.5,-339.94C790.21,-327.11 850.36,-310.94 892.67,-299.57"/>
<polygon fill="#63b8ff" stroke="#63b8ff" points="741.58,-336.56 732.83,-342.54 743.39,-343.32 741.58,-336.56"/>
</a>
</g>
</g>
<!-- Node27 -->
<g id="Node000027" class="node">
<title>Node27</title>
<g id="a_Node000027"><a xlink:href="traditional__four__center__fock__builder_8cpp.html" target="_top" xlink:title=" ">
<polygon fill="white" stroke="#666666" points="855.5,-305 718.5,-305 718.5,-264 855.5,-264 855.5,-305"/>
<text text-anchor="start" x="726.5" y="-293" font-family="FreeSans" font-size="10.00">mpqc/chemistry/qc/lcao</text>
<text text-anchor="start" x="726.5" y="-282" font-family="FreeSans" font-size="10.00">/scf/traditional_four</text>
<text text-anchor="middle" x="787" y="-271" font-family="FreeSans" font-size="10.00">_center_fock_builder.cpp</text>
</a>
</g>
</g>
<!-- Node21&#45;&gt;Node27 -->
<g id="edge36_Node000021_Node000027" class="edge">
<title>Node21&#45;&gt;Node27</title>
<g id="a_edge36_Node000021_Node000027"><a xlink:title=" ">
<path fill="none" stroke="#63b8ff" d="M706.1,-335.64C722.08,-325.74 740.22,-314.5 755.26,-305.17"/>
<polygon fill="#63b8ff" stroke="#63b8ff" points="704.13,-332.75 697.48,-340.99 707.82,-338.7 704.13,-332.75"/>
</a>
</g>
</g>
<!-- Node22&#45;&gt;Node12 -->
<g id="edge26_Node000022_Node000012" class="edge">
<title>Node22&#45;&gt;Node12</title>
<g id="a_edge26_Node000022_Node000012"><a xlink:title=" ">
<path fill="none" stroke="#63b8ff" d="M747,-121.54C747,-112.96 747,-103.61 747,-96.16"/>
<polygon fill="#63b8ff" stroke="#63b8ff" points="743.5,-121.8 747,-131.8 750.5,-121.8 743.5,-121.8"/>
</a>
</g>
</g>
<!-- Node23&#45;&gt;Node12 -->
<g id="edge28_Node000023_Node000012" class="edge">
<title>Node23&#45;&gt;Node12</title>
<g id="a_edge28_Node000023_Node000012"><a xlink:title=" ">
<path fill="none" stroke="#63b8ff" d="M575.56,-189.81C590.95,-172.43 614.1,-148.51 638,-132 659.58,-117.09 686.32,-104.74 707.92,-96.05"/>
<polygon fill="#63b8ff" stroke="#63b8ff" points="572.58,-187.91 568.66,-197.75 577.86,-192.5 572.58,-187.91"/>
</a>
</g>
</g>
<!-- Node24&#45;&gt;Node12 -->
<g id="edge33_Node000024_Node000012" class="edge">
<title>Node24&#45;&gt;Node12</title>
<g id="a_edge33_Node000024_Node000012"><a xlink:title=" ">
<path fill="none" stroke="#63b8ff" d="M905.88,-264.32C890.25,-255.1 873.13,-242.81 861,-228 831.81,-192.38 851.11,-167.68 822,-132 809.73,-116.96 791.75,-104.76 776.47,-96.18"/>
<polygon fill="#63b8ff" stroke="#63b8ff" points="904.43,-267.52 914.86,-269.39 907.87,-261.43 904.43,-267.52"/>
</a>
</g>
</g>
<!-- Node25 -->
<g id="Node000025" class="node">
<title>Node25</title>
<g id="a_Node000025"><a xlink:href="dfj4ck__fock__builder_8cpp.html" target="_top" xlink:title=" ">
<polygon fill="white" stroke="#666666" points="1022,-228 870,-228 870,-198 1022,-198 1022,-228"/>
<text text-anchor="start" x="878" y="-216" font-family="FreeSans" font-size="10.00">mpqc/chemistry/qc/lcao</text>
<text text-anchor="middle" x="946" y="-205" font-family="FreeSans" font-size="10.00">/scf/dfj4ck_fock_builder.cpp</text>
</a>
</g>
</g>
<!-- Node24&#45;&gt;Node25 -->
<g id="edge30_Node000024_Node000025" class="edge">
<title>Node24&#45;&gt;Node25</title>
<g id="a_edge30_Node000024_Node000025"><a xlink:title=" ">
<path fill="none" stroke="#63b8ff" d="M945.35,-259.25C945.5,-248.81 945.67,-236.99 945.8,-228.04"/>
<polygon fill="#63b8ff" stroke="#63b8ff" points="941.85,-259.39 945.2,-269.44 948.85,-259.49 941.85,-259.39"/>
</a>
</g>
</g>
<!-- Node26 -->
<g id="Node000026" class="node">
<title>Node26</title>
<g id="a_Node000026"><a xlink:href="dfj4ck__fock__builder_8ipp.html" target="_top" xlink:title=" ">
<polygon fill="white" stroke="#666666" points="1189.5,-228 1040.5,-228 1040.5,-198 1189.5,-198 1189.5,-228"/>
<text text-anchor="start" x="1048.5" y="-216" font-family="FreeSans" font-size="10.00">mpqc/chemistry/qc/lcao</text>
<text text-anchor="middle" x="1115" y="-205" font-family="FreeSans" font-size="10.00">/scf/dfj4ck_fock_builder.ipp</text>
</a>
</g>
</g>
<!-- Node24&#45;&gt;Node26 -->
<g id="edge31_Node000024_Node000026" class="edge">
<title>Node24&#45;&gt;Node26</title>
<g id="a_edge31_Node000024_Node000026"><a xlink:title=" ">
<path fill="none" stroke="#63b8ff" d="M983.13,-265.46C1010.54,-253.79 1047.3,-238.82 1075.1,-228.04"/>
<polygon fill="#63b8ff" stroke="#63b8ff" points="981.66,-262.28 973.85,-269.44 984.42,-268.71 981.66,-262.28"/>
</a>
</g>
</g>
<!-- Node26&#45;&gt;Node24 -->
<g id="edge32_Node000026_Node000024" class="edge">
<title>Node26&#45;&gt;Node24</title>
<g id="a_edge32_Node000026_Node000024"><a xlink:title=" ">
<path fill="none" stroke="#63b8ff" d="M1076.92,-232.02C1049.53,-243.68 1012.77,-258.65 984.95,-269.44"/>
<polygon fill="#63b8ff" stroke="#63b8ff" points="1078.38,-235.2 1086.19,-228.04 1075.62,-228.77 1078.38,-235.2"/>
</a>
</g>
</g>
</g>
</svg>

<g id="navigator" transform="translate(0 0)" fill="#404254">
  <rect fill="#f2f5e9" fill-opacity="0.5" stroke="#606060" stroke-width=".5" x="0" y="0" width="60" height="60"/>
  <use id="zoomplus" xlink:href="#zoomPlus" x="17" y="9" onmousedown="handleZoom(evt,'in')"/>
  <use id="zoomminus" xlink:href="#zoomMin" x="42" y="9" onmousedown="handleZoom(evt,'out')"/>
  <use id="reset" xlink:href="#resetDef" x="30" y="36" onmousedown="handleReset()"/>
   <use id="arrowup" xlink:href="#arrowUp" x="0" y="0" onmousedown="handlePan(0,-1)"/>
  <use id="arrowright" xlink:href="#arrowRight" x="0" y="0" onmousedown="handlePan(1,0)"/>
  <use id="arrowdown" xlink:href="#arrowDown" x="0" y="0" onmousedown="handlePan(0,1)"/>
  <use id="arrowleft" xlink:href="#arrowLeft" x="0" y="0" onmousedown="handlePan(-1,0)"/>
</g>
<svg viewBox="0 0 15 15" width="100%" height="30px" preserveAspectRatio="xMaxYMin meet">
 <g id="arrow_out" transform="scale(0.3 0.3)">
  <a xlink:href="binary_8h__dep__incl_org.svg" target="_base">
   <rect id="button" ry="5" rx="5" y="6" x="6" height="38" width="38"
        fill="#f2f5e9" fill-opacity="0.5" stroke="#606060" stroke-width="1.0"/>
   <path id="arrow"
     d="M 11.500037,31.436501 C 11.940474,20.09759 22.043105,11.32322 32.158766,21.979434 L 37.068811,17.246167 C 37.068811,17.246167 37.088388,32 37.088388,32 L 22.160133,31.978069 C 22.160133,31.978069 26.997745,27.140456 26.997745,27.140456 C 18.528582,18.264221 13.291696,25.230495 11.500037,31.436501 z"
     style="fill:#404040;"/>
  </a>
 </g>
</svg>

<style type='text/css'>
<![CDATA[
[data-mouse-over-selected='false'] { opacity: 0.7; }
[data-mouse-over-selected='true']  { opacity: 1.0; }
]]>
</style>
<script type="application/ecmascript"><![CDATA[
document.addEventListener('DOMContentLoaded', (event) => {
  highlightEdges();
  highlightAdjacentNodes();
});
]]></script>
</svg>
