<?xml version="1.0" encoding="UTF-8" standalone="no"?>
<!DOCTYPE svg PUBLIC "-//W3C//DTD SVG 1.1//EN"
 "http://www.w3.org/Graphics/SVG/1.1/DTD/svg11.dtd">
<!-- Generated by graphviz version 2.43.0 (0)
 -->
<!-- Title: mpqc/util/misc/bitset.h Pages: 1 -->
<svg width="297pt" height="83pt"
 viewBox="0.00 0.00 297.00 82.58" xmlns="http://www.w3.org/2000/svg" xmlns:xlink="http://www.w3.org/1999/xlink">
<g id="graph0" class="graph" transform="scale(1 1) rotate(0) translate(4 78.58)">
<title>mpqc/util/misc/bitset.h</title>
<!-- Node1 -->
<g id="Node000001" class="node">
<title>Node1</title>
<g id="a_Node000001"><a xlink:title=" ">
<polygon fill="#999999" stroke="#666666" points="197,-74.58 69,-74.58 69,-55.58 197,-55.58 197,-74.58"/>
<text text-anchor="middle" x="133" y="-62.58" font-family="FreeSans" font-size="10.00">mpqc/util/misc/bitset.h</text>
</a>
</g>
</g>
<!-- Node2 -->
<g id="Node000002" class="node">
<title>Node2</title>
<g id="a_Node000002"><a xlink:title=" ">
<polygon fill="#e0e0e0" stroke="#999999" points="50,-19.58 0,-19.58 0,-0.58 50,-0.58 50,-19.58"/>
<text text-anchor="middle" x="25" y="-7.58" font-family="FreeSans" font-size="10.00">climits</text>
</a>
</g>
</g>
<!-- Node1&#45;&gt;Node2 -->
<g id="edge1_Node000001_Node000002" class="edge">
<title>Node1&#45;&gt;Node2</title>
<g id="a_edge1_Node000001_Node000002"><a xlink:title=" ">
<path fill="none" stroke="#63b8ff" d="M115.65,-55.56C98.43,-47.11 71.8,-34.05 51.85,-24.26"/>
<polygon fill="#63b8ff" stroke="#63b8ff" points="53.19,-21.01 42.67,-19.75 50.1,-27.3 53.19,-21.01"/>
</a>
</g>
</g>
<!-- Node3 -->
<g id="Node000003" class="node">
<title>Node3</title>
<g id="a_Node000003"><a xlink:title=" ">
<polygon fill="#e0e0e0" stroke="#999999" points="121.5,-19.58 68.5,-19.58 68.5,-0.58 121.5,-0.58 121.5,-19.58"/>
<text text-anchor="middle" x="95" y="-7.58" font-family="FreeSans" font-size="10.00">cstddef</text>
</a>
</g>
</g>
<!-- Node1&#45;&gt;Node3 -->
<g id="edge2_Node000001_Node000003" class="edge">
<title>Node1&#45;&gt;Node3</title>
<g id="a_edge2_Node000001_Node000003"><a xlink:title=" ">
<path fill="none" stroke="#63b8ff" d="M126.73,-55.33C121.41,-47.92 113.64,-37.08 107.12,-27.99"/>
<polygon fill="#63b8ff" stroke="#63b8ff" points="109.83,-25.75 101.16,-19.67 104.14,-29.83 109.83,-25.75"/>
</a>
</g>
</g>
<!-- Node4 -->
<g id="Node000004" class="node">
<title>Node4</title>
<g id="a_Node000004"><a xlink:href="functional.html" target="_top" xlink:title=" ">
<polygon fill="white" stroke="#666666" points="204.5,-19.58 139.5,-19.58 139.5,-0.58 204.5,-0.58 204.5,-19.58"/>
<text text-anchor="middle" x="172" y="-7.58" font-family="FreeSans" font-size="10.00">functional</text>
</a>
</g>
</g>
<!-- Node1&#45;&gt;Node4 -->
<g id="edge3_Node000001_Node000004" class="edge">
<title>Node1&#45;&gt;Node4</title>
<g id="a_edge3_Node000001_Node000004"><a xlink:title=" ">
<path fill="none" stroke="#63b8ff" d="M139.44,-55.33C144.89,-47.92 152.86,-37.08 159.56,-27.99"/>
<polygon fill="#63b8ff" stroke="#63b8ff" points="162.57,-29.8 165.68,-19.67 156.93,-25.65 162.57,-29.8"/>
</a>
</g>
</g>
<!-- Node5 -->
<g id="Node000005" class="node">
<title>Node5</title>
<g id="a_Node000005"><a xlink:title=" ">
<polygon fill="#e0e0e0" stroke="#999999" points="289,-19.58 241,-19.58 241,-0.58 289,-0.58 289,-19.58"/>
<text text-anchor="middle" x="265" y="-7.58" font-family="FreeSans" font-size="10.00">iosfwd</text>
</a>
</g>
</g>
<!-- Node1&#45;&gt;Node5 -->
<g id="edge5_Node000001_Node000005" class="edge">
<title>Node1&#45;&gt;Node5</title>
<g id="a_edge5_Node000001_Node000005"><a xlink:title=" ">
<path fill="none" stroke="#63b8ff" d="M154.21,-55.56C175.73,-46.92 209.28,-33.45 233.83,-23.59"/>
<polygon fill="#63b8ff" stroke="#63b8ff" points="235.43,-26.72 243.41,-19.75 232.82,-20.23 235.43,-26.72"/>
</a>
</g>
</g>
<!-- Node4&#45;&gt;Node4 -->
<g id="edge4_Node000004_Node000004" class="edge">
<title>Node4&#45;&gt;Node4</title>
<g id="a_edge4_Node000004_Node000004"><a xlink:title=" ">
<path fill="none" stroke="#63b8ff" d="M195.64,-19.61C209.51,-21.64 222.5,-18.46 222.5,-10.08 222.5,-3.79 215.19,-0.43 205.69,0"/>
<polygon fill="#63b8ff" stroke="#63b8ff" points="205.43,3.49 195.64,-0.55 205.81,-3.5 205.43,3.49"/>
</a>
</g>
</g>
</g>
</svg>
