<?xml version="1.0" encoding="UTF-8" standalone="no"?>
<!DOCTYPE svg PUBLIC "-//W3C//DTD SVG 1.1//EN"
 "http://www.w3.org/Graphics/SVG/1.1/DTD/svg11.dtd">
<!-- Generated by graphviz version 2.43.0 (0)
 -->
<!-- Title: mpqc/util/misc/bug.h Pages: 1 -->
<svg width="2454pt" height="401pt"
 viewBox="0.00 0.00 2454.06 401.00" xmlns="http://www.w3.org/2000/svg" xmlns:xlink="http://www.w3.org/1999/xlink">
<g id="graph0" class="graph" transform="scale(1 1) rotate(0) translate(4 397)">
<title>mpqc/util/misc/bug.h</title>
<!-- Node1 -->
<g id="Node000001" class="node">
<title>Node1</title>
<g id="a_Node000001"><a xlink:title=" ">
<polygon fill="#999999" stroke="#666666" points="1259.56,-393 1140.56,-393 1140.56,-374 1259.56,-374 1259.56,-393"/>
<text text-anchor="middle" x="1200.06" y="-381" font-family="FreeSans" font-size="10.00">mpqc/util/misc/bug.h</text>
</a>
</g>
</g>
<!-- Node2 -->
<g id="Node000002" class="node">
<title>Node2</title>
<g id="a_Node000002"><a xlink:href="src_2mpqc_2util_2keyval_2keyval_8h.html" target="_top" xlink:title=" ">
<polygon fill="white" stroke="#666666" points="1271.06,-338 1129.06,-338 1129.06,-319 1271.06,-319 1271.06,-338"/>
<text text-anchor="middle" x="1200.06" y="-326" font-family="FreeSans" font-size="10.00">mpqc/util/keyval/keyval.h</text>
</a>
</g>
</g>
<!-- Node1&#45;&gt;Node2 -->
<g id="edge1_Node000001_Node000002" class="edge">
<title>Node1&#45;&gt;Node2</title>
<g id="a_edge1_Node000001_Node000002"><a xlink:title=" ">
<path fill="none" stroke="#63b8ff" d="M1200.06,-373.75C1200.06,-366.8 1200.06,-356.85 1200.06,-348.13"/>
<polygon fill="#63b8ff" stroke="#63b8ff" points="1203.56,-348.09 1200.06,-338.09 1196.56,-348.09 1203.56,-348.09"/>
</a>
</g>
</g>
<!-- Node10 -->
<g id="Node000010" class="node">
<title>Node10</title>
<g id="a_Node000010"><a xlink:href="memory.html" target="_top" xlink:title=" ">
<polygon fill="white" stroke="#666666" points="382.06,-145.5 324.06,-145.5 324.06,-126.5 382.06,-126.5 382.06,-145.5"/>
<text text-anchor="middle" x="353.06" y="-133.5" font-family="FreeSans" font-size="10.00">memory</text>
</a>
</g>
</g>
<!-- Node1&#45;&gt;Node10 -->
<g id="edge56_Node000001_Node000010" class="edge">
<title>Node1&#45;&gt;Node10</title>
<g id="a_edge56_Node000001_Node000010"><a xlink:title=" ">
<path fill="none" stroke="#63b8ff" d="M1140.45,-382.93C948.51,-383.85 348.13,-382.97 160.06,-338 102.6,-324.26 79.74,-325.83 39.06,-283 8.61,-250.95 -15.84,-220.45 13.06,-187 51.5,-142.49 232.37,-136.88 313.51,-136.66"/>
<polygon fill="#63b8ff" stroke="#63b8ff" points="313.81,-140.16 323.81,-136.65 313.81,-133.16 313.81,-140.16"/>
</a>
</g>
</g>
<!-- Node13 -->
<g id="Node000013" class="node">
<title>Node13</title>
<g id="a_Node000013"><a xlink:title=" ">
<polygon fill="#e0e0e0" stroke="#999999" points="2271.06,-277.5 2227.06,-277.5 2227.06,-258.5 2271.06,-258.5 2271.06,-277.5"/>
<text text-anchor="middle" x="2249.06" y="-265.5" font-family="FreeSans" font-size="10.00">string</text>
</a>
</g>
</g>
<!-- Node1&#45;&gt;Node13 -->
<g id="edge57_Node000001_Node000013" class="edge">
<title>Node1&#45;&gt;Node13</title>
<g id="a_edge57_Node000001_Node000013"><a xlink:title=" ">
<path fill="none" stroke="#63b8ff" d="M1215.23,-373.91C1244.76,-357.27 1308.04,-321.99 1319.06,-319 1512.01,-266.62 2023.48,-328.99 2218.06,-283 2219.79,-282.59 2221.55,-282.08 2223.31,-281.5"/>
<polygon fill="#63b8ff" stroke="#63b8ff" points="2225.06,-284.57 2233.06,-277.63 2222.47,-278.07 2225.06,-284.57"/>
</a>
</g>
</g>
<!-- Node14 -->
<g id="Node000014" class="node">
<title>Node14</title>
<g id="a_Node000014"><a xlink:title=" ">
<polygon fill="#e0e0e0" stroke="#999999" points="69.56,-211.5 22.56,-211.5 22.56,-192.5 69.56,-192.5 69.56,-211.5"/>
<text text-anchor="middle" x="46.06" y="-199.5" font-family="FreeSans" font-size="10.00">vector</text>
</a>
</g>
</g>
<!-- Node1&#45;&gt;Node14 -->
<g id="edge58_Node000001_Node000014" class="edge">
<title>Node1&#45;&gt;Node14</title>
<g id="a_edge58_Node000001_Node000014"><a xlink:title=" ">
<path fill="none" stroke="#63b8ff" d="M1140.28,-381.58C916.37,-377.55 136.07,-358.17 57.06,-283 40.74,-267.48 40.57,-239.93 42.71,-221.56"/>
<polygon fill="#63b8ff" stroke="#63b8ff" points="46.19,-221.91 44.21,-211.51 39.27,-220.88 46.19,-221.91"/>
</a>
</g>
</g>
<!-- Node42 -->
<g id="Node000042" class="node">
<title>Node42</title>
<g id="a_Node000042"><a xlink:href="functional.html" target="_top" xlink:title=" ">
<polygon fill="white" stroke="#666666" points="1392.56,-338 1327.56,-338 1327.56,-319 1392.56,-319 1392.56,-338"/>
<text text-anchor="middle" x="1360.06" y="-326" font-family="FreeSans" font-size="10.00">functional</text>
</a>
</g>
</g>
<!-- Node1&#45;&gt;Node42 -->
<g id="edge54_Node000001_Node000042" class="edge">
<title>Node1&#45;&gt;Node42</title>
<g id="a_edge54_Node000001_Node000042"><a xlink:title=" ">
<path fill="none" stroke="#63b8ff" d="M1225.76,-373.98C1252.51,-365.13 1294.58,-351.19 1324.51,-341.28"/>
<polygon fill="#63b8ff" stroke="#63b8ff" points="1325.76,-344.55 1334.15,-338.08 1323.55,-337.9 1325.76,-344.55"/>
</a>
</g>
</g>
<!-- Node3 -->
<g id="Node000003" class="node">
<title>Node3</title>
<g id="a_Node000003"><a xlink:title=" ">
<polygon fill="#e0e0e0" stroke="#999999" points="2046.06,-79.5 2004.06,-79.5 2004.06,-60.5 2046.06,-60.5 2046.06,-79.5"/>
<text text-anchor="middle" x="2025.06" y="-67.5" font-family="FreeSans" font-size="10.00">array</text>
</a>
</g>
</g>
<!-- Node2&#45;&gt;Node3 -->
<g id="edge2_Node000002_Node000003" class="edge">
<title>Node2&#45;&gt;Node3</title>
<g id="a_edge2_Node000002_Node000003"><a xlink:title=" ">
<path fill="none" stroke="#63b8ff" d="M1271.24,-319.41C1272.86,-319.27 1274.47,-319.13 1276.06,-319 1353.79,-312.66 1917.39,-333.23 1977.06,-283 2034.97,-234.25 2031.59,-131.72 2027.42,-89.63"/>
<polygon fill="#63b8ff" stroke="#63b8ff" points="2030.9,-89.22 2026.3,-79.67 2023.94,-90 2030.9,-89.22"/>
</a>
</g>
</g>
<!-- Node4 -->
<g id="Node000004" class="node">
<title>Node4</title>
<g id="a_Node000004"><a xlink:title=" ">
<polygon fill="#e0e0e0" stroke="#999999" points="1690.06,-277.5 1638.06,-277.5 1638.06,-258.5 1690.06,-258.5 1690.06,-277.5"/>
<text text-anchor="middle" x="1664.06" y="-265.5" font-family="FreeSans" font-size="10.00">cassert</text>
</a>
</g>
</g>
<!-- Node2&#45;&gt;Node4 -->
<g id="edge3_Node000002_Node000004" class="edge">
<title>Node2&#45;&gt;Node4</title>
<g id="a_edge3_Node000002_Node000004"><a xlink:title=" ">
<path fill="none" stroke="#63b8ff" d="M1271.17,-320.25C1389.68,-308.13 1615.55,-284.91 1624.06,-283 1626.88,-282.37 1629.79,-281.6 1632.68,-280.75"/>
<polygon fill="#63b8ff" stroke="#63b8ff" points="1633.87,-284.04 1642.32,-277.64 1631.72,-277.38 1633.87,-284.04"/>
</a>
</g>
</g>
<!-- Node5 -->
<g id="Node000005" class="node">
<title>Node5</title>
<g id="a_Node000005"><a xlink:title=" ">
<polygon fill="#e0e0e0" stroke="#999999" points="1922.56,-277.5 1863.56,-277.5 1863.56,-258.5 1922.56,-258.5 1922.56,-277.5"/>
<text text-anchor="middle" x="1893.06" y="-265.5" font-family="FreeSans" font-size="10.00">complex</text>
</a>
</g>
</g>
<!-- Node2&#45;&gt;Node5 -->
<g id="edge4_Node000002_Node000005" class="edge">
<title>Node2&#45;&gt;Node5</title>
<g id="a_edge4_Node000002_Node000005"><a xlink:title=" ">
<path fill="none" stroke="#63b8ff" d="M1271.46,-320.17C1276.06,-319.76 1280.62,-319.36 1285.06,-319 1538.05,-298.37 1606.69,-335.43 1855.06,-283 1857.89,-282.4 1860.8,-281.63 1863.69,-280.76"/>
<polygon fill="#63b8ff" stroke="#63b8ff" points="1864.91,-284.04 1873.26,-277.52 1862.67,-277.41 1864.91,-284.04"/>
</a>
</g>
</g>
<!-- Node6 -->
<g id="Node000006" class="node">
<title>Node6</title>
<g id="a_Node000006"><a xlink:title=" ">
<polygon fill="#e0e0e0" stroke="#999999" points="1696.06,-211.5 1636.06,-211.5 1636.06,-192.5 1696.06,-192.5 1696.06,-211.5"/>
<text text-anchor="middle" x="1666.06" y="-199.5" font-family="FreeSans" font-size="10.00">iostream</text>
</a>
</g>
</g>
<!-- Node2&#45;&gt;Node6 -->
<g id="edge5_Node000002_Node000006" class="edge">
<title>Node2&#45;&gt;Node6</title>
<g id="a_edge5_Node000002_Node000006"><a xlink:title=" ">
<path fill="none" stroke="#63b8ff" d="M1271.38,-320.24C1377.05,-309.31 1564.3,-289.27 1578.06,-283 1609.69,-268.59 1637.77,-238.54 1653.29,-219.65"/>
<polygon fill="#63b8ff" stroke="#63b8ff" points="1656.2,-221.62 1659.69,-211.62 1650.72,-217.26 1656.2,-221.62"/>
</a>
</g>
</g>
<!-- Node7 -->
<g id="Node000007" class="node">
<title>Node7</title>
<g id="a_Node000007"><a xlink:title=" ">
<polygon fill="#e0e0e0" stroke="#999999" points="158.06,-277.5 126.06,-277.5 126.06,-258.5 158.06,-258.5 158.06,-277.5"/>
<text text-anchor="middle" x="142.06" y="-265.5" font-family="FreeSans" font-size="10.00">list</text>
</a>
</g>
</g>
<!-- Node2&#45;&gt;Node7 -->
<g id="edge6_Node000002_Node000007" class="edge">
<title>Node2&#45;&gt;Node7</title>
<g id="a_edge6_Node000002_Node000007"><a xlink:title=" ">
<path fill="none" stroke="#63b8ff" d="M1129.04,-326.35C910.76,-322.53 258.84,-309.07 167.06,-283 166,-282.7 164.95,-282.35 163.89,-281.96"/>
<polygon fill="#63b8ff" stroke="#63b8ff" points="165.32,-278.76 154.78,-277.63 162.31,-285.08 165.32,-278.76"/>
</a>
</g>
</g>
<!-- Node8 -->
<g id="Node000008" class="node">
<title>Node8</title>
<g id="a_Node000008"><a xlink:title=" ">
<polygon fill="#e0e0e0" stroke="#999999" points="222.06,-277.5 176.06,-277.5 176.06,-258.5 222.06,-258.5 222.06,-277.5"/>
<text text-anchor="middle" x="199.06" y="-265.5" font-family="FreeSans" font-size="10.00">locale</text>
</a>
</g>
</g>
<!-- Node2&#45;&gt;Node8 -->
<g id="edge7_Node000002_Node000008" class="edge">
<title>Node2&#45;&gt;Node8</title>
<g id="a_edge7_Node000002_Node000008"><a xlink:title=" ">
<path fill="none" stroke="#63b8ff" d="M1128.97,-327.59C935.35,-327.3 401.72,-322.81 231.06,-283 229.11,-282.55 227.13,-281.98 225.16,-281.33"/>
<polygon fill="#63b8ff" stroke="#63b8ff" points="226.19,-277.97 215.6,-277.61 223.65,-284.49 226.19,-277.97"/>
</a>
</g>
</g>
<!-- Node9 -->
<g id="Node000009" class="node">
<title>Node9</title>
<g id="a_Node000009"><a xlink:title=" ">
<polygon fill="#e0e0e0" stroke="#999999" points="1466.06,-145.5 1428.06,-145.5 1428.06,-126.5 1466.06,-126.5 1466.06,-145.5"/>
<text text-anchor="middle" x="1447.06" y="-133.5" font-family="FreeSans" font-size="10.00">map</text>
</a>
</g>
</g>
<!-- Node2&#45;&gt;Node9 -->
<g id="edge8_Node000002_Node000009" class="edge">
<title>Node2&#45;&gt;Node9</title>
<g id="a_edge8_Node000002_Node000009"><a xlink:title=" ">
<path fill="none" stroke="#63b8ff" d="M1271.24,-319.41C1272.86,-319.27 1274.47,-319.13 1276.06,-319 1348.8,-312.94 1881.87,-336.01 1932.06,-283 1984.84,-227.24 1909.61,-212.46 1844.06,-187 1690.87,-127.5 1634.28,-195.41 1476.06,-151 1474.61,-150.59 1473.15,-150.12 1471.69,-149.59"/>
<polygon fill="#63b8ff" stroke="#63b8ff" points="1472.88,-146.3 1462.31,-145.6 1470.14,-152.74 1472.88,-146.3"/>
</a>
</g>
</g>
<!-- Node2&#45;&gt;Node10 -->
<g id="edge9_Node000002_Node000010" class="edge">
<title>Node2&#45;&gt;Node10</title>
<g id="a_edge9_Node000002_Node000010"><a xlink:title=" ">
<path fill="none" stroke="#63b8ff" d="M1128.72,-327.25C893.01,-326.08 152.1,-319.51 117.06,-283 50.44,-213.59 231.31,-163.64 314.13,-145.01"/>
<polygon fill="#63b8ff" stroke="#63b8ff" points="314.95,-148.42 323.96,-142.85 313.44,-141.58 314.95,-148.42"/>
</a>
</g>
</g>
<!-- Node11 -->
<g id="Node000011" class="node">
<title>Node11</title>
<g id="a_Node000011"><a xlink:title=" ">
<polygon fill="#e0e0e0" stroke="#999999" points="1618.06,-211.5 1562.06,-211.5 1562.06,-192.5 1618.06,-192.5 1618.06,-211.5"/>
<text text-anchor="middle" x="1590.06" y="-199.5" font-family="FreeSans" font-size="10.00">optional</text>
</a>
</g>
</g>
<!-- Node2&#45;&gt;Node11 -->
<g id="edge11_Node000002_Node000011" class="edge">
<title>Node2&#45;&gt;Node11</title>
<g id="a_edge11_Node000002_Node000011"><a xlink:title=" ">
<path fill="none" stroke="#63b8ff" d="M1271.12,-320.32C1370.93,-309.98 1541.81,-291.23 1553.06,-283 1572.99,-268.42 1582.5,-240.42 1586.8,-221.72"/>
<polygon fill="#63b8ff" stroke="#63b8ff" points="1590.27,-222.21 1588.81,-211.72 1583.41,-220.83 1590.27,-222.21"/>
</a>
</g>
</g>
<!-- Node12 -->
<g id="Node000012" class="node">
<title>Node12</title>
<g id="a_Node000012"><a xlink:title=" ">
<polygon fill="#e0e0e0" stroke="#999999" points="305.56,-277.5 240.56,-277.5 240.56,-258.5 305.56,-258.5 305.56,-277.5"/>
<text text-anchor="middle" x="273.06" y="-265.5" font-family="FreeSans" font-size="10.00">stdexcept</text>
</a>
</g>
</g>
<!-- Node2&#45;&gt;Node12 -->
<g id="edge12_Node000002_Node000012" class="edge">
<title>Node2&#45;&gt;Node12</title>
<g id="a_edge12_Node000002_Node000012"><a xlink:title=" ">
<path fill="none" stroke="#63b8ff" d="M1128.79,-326.41C947.2,-323.22 470.49,-312.25 315.06,-283 311.63,-282.36 308.1,-281.5 304.6,-280.53"/>
<polygon fill="#63b8ff" stroke="#63b8ff" points="305.58,-277.16 294.99,-277.56 303.51,-283.85 305.58,-277.16"/>
</a>
</g>
</g>
<!-- Node2&#45;&gt;Node13 -->
<g id="edge13_Node000002_Node000013" class="edge">
<title>Node2&#45;&gt;Node13</title>
<g id="a_edge13_Node000002_Node000013"><a xlink:title=" ">
<path fill="none" stroke="#63b8ff" d="M1271.45,-320.04C1276.05,-319.66 1280.62,-319.31 1285.06,-319 1492.05,-304.67 2016.1,-330.58 2218.06,-283 2219.79,-282.59 2221.56,-282.08 2223.31,-281.5"/>
<polygon fill="#63b8ff" stroke="#63b8ff" points="2225.06,-284.58 2233.06,-277.63 2222.48,-278.07 2225.06,-284.58"/>
</a>
</g>
</g>
<!-- Node2&#45;&gt;Node14 -->
<g id="edge14_Node000002_Node000014" class="edge">
<title>Node2&#45;&gt;Node14</title>
<g id="a_edge14_Node000002_Node000014"><a xlink:title=" ">
<path fill="none" stroke="#63b8ff" d="M1128.79,-326.68C889.55,-323.65 127.67,-311.8 84.06,-283 63.14,-269.19 53.45,-240.53 49.18,-221.53"/>
<polygon fill="#63b8ff" stroke="#63b8ff" points="52.6,-220.79 47.24,-211.65 45.73,-222.13 52.6,-220.79"/>
</a>
</g>
</g>
<!-- Node15 -->
<g id="Node000015" class="node">
<title>Node15</title>
<g id="a_Node000015"><a xlink:title=" ">
<polygon fill="#e0e0e0" stroke="#999999" points="464.06,-277.5 324.06,-277.5 324.06,-258.5 464.06,-258.5 464.06,-277.5"/>
<text text-anchor="middle" x="394.06" y="-265.5" font-family="FreeSans" font-size="10.00">boost/core/demangle.hpp</text>
</a>
</g>
</g>
<!-- Node2&#45;&gt;Node15 -->
<g id="edge15_Node000002_Node000015" class="edge">
<title>Node2&#45;&gt;Node15</title>
<g id="a_edge15_Node000002_Node000015"><a xlink:title=" ">
<path fill="none" stroke="#63b8ff" d="M1128.87,-325.84C998.41,-322.2 712.42,-311.44 473.06,-283 464.61,-282 455.69,-280.67 447.01,-279.24"/>
<polygon fill="#63b8ff" stroke="#63b8ff" points="447.42,-275.76 436.97,-277.52 446.24,-282.66 447.42,-275.76"/>
</a>
</g>
</g>
<!-- Node16 -->
<g id="Node000016" class="node">
<title>Node16</title>
<g id="a_Node000016"><a xlink:title=" ">
<polygon fill="#e0e0e0" stroke="#999999" points="1571.56,-79.5 1454.56,-79.5 1454.56,-60.5 1571.56,-60.5 1571.56,-79.5"/>
<text text-anchor="middle" x="1513.06" y="-67.5" font-family="FreeSans" font-size="10.00">mpqc/mpqc_config.h</text>
</a>
</g>
</g>
<!-- Node2&#45;&gt;Node16 -->
<g id="edge16_Node000002_Node000016" class="edge">
<title>Node2&#45;&gt;Node16</title>
<g id="a_edge16_Node000002_Node000016"><a xlink:title=" ">
<path fill="none" stroke="#63b8ff" d="M1271.24,-319.41C1272.86,-319.27 1274.47,-319.13 1276.06,-319 1313.65,-315.9 1928.1,-310.37 1954.06,-283 2071.48,-159.17 1733.07,-99.14 1581.91,-79.03"/>
<polygon fill="#63b8ff" stroke="#63b8ff" points="1582.16,-75.53 1571.79,-77.71 1581.25,-82.47 1582.16,-75.53"/>
</a>
</g>
</g>
<!-- Node17 -->
<g id="Node000017" class="node">
<title>Node17</title>
<g id="a_Node000017"><a xlink:title=" ">
<polygon fill="#e0e0e0" stroke="#999999" points="604.06,-283 482.06,-283 482.06,-253 604.06,-253 604.06,-283"/>
<text text-anchor="start" x="490.06" y="-271" font-family="FreeSans" font-size="10.00">boost/container/small</text>
<text text-anchor="middle" x="543.06" y="-260" font-family="FreeSans" font-size="10.00">_vector.hpp</text>
</a>
</g>
</g>
<!-- Node2&#45;&gt;Node17 -->
<g id="edge17_Node000002_Node000017" class="edge">
<title>Node2&#45;&gt;Node17</title>
<g id="a_edge17_Node000002_Node000017"><a xlink:title=" ">
<path fill="none" stroke="#63b8ff" d="M1128.83,-324.9C1019.98,-320.31 805.58,-308.82 614.03,-283.02"/>
<polygon fill="#63b8ff" stroke="#63b8ff" points="614.45,-279.54 604.07,-281.66 613.5,-286.48 614.45,-279.54"/>
</a>
</g>
</g>
<!-- Node18 -->
<g id="Node000018" class="node">
<title>Node18</title>
<g id="a_Node000018"><a xlink:title=" ">
<polygon fill="#e0e0e0" stroke="#999999" points="735.56,-283 622.56,-283 622.56,-253 735.56,-253 735.56,-283"/>
<text text-anchor="start" x="630.56" y="-271" font-family="FreeSans" font-size="10.00">boost/property_tree</text>
<text text-anchor="middle" x="679.06" y="-260" font-family="FreeSans" font-size="10.00">/info_parser.hpp</text>
</a>
</g>
</g>
<!-- Node2&#45;&gt;Node18 -->
<g id="edge18_Node000002_Node000018" class="edge">
<title>Node2&#45;&gt;Node18</title>
<g id="a_edge18_Node000002_Node000018"><a xlink:title=" ">
<path fill="none" stroke="#63b8ff" d="M1129.04,-323.11C1041.18,-317.1 886.88,-304.71 745.84,-283.17"/>
<polygon fill="#63b8ff" stroke="#63b8ff" points="746.12,-279.67 735.7,-281.6 745.05,-286.59 746.12,-279.67"/>
</a>
</g>
</g>
<!-- Node19 -->
<g id="Node000019" class="node">
<title>Node19</title>
<g id="a_Node000019"><a xlink:title=" ">
<polygon fill="#e0e0e0" stroke="#999999" points="866.56,-283 753.56,-283 753.56,-253 866.56,-253 866.56,-283"/>
<text text-anchor="start" x="761.56" y="-271" font-family="FreeSans" font-size="10.00">boost/property_tree</text>
<text text-anchor="middle" x="810.06" y="-260" font-family="FreeSans" font-size="10.00">/json_parser.hpp</text>
</a>
</g>
</g>
<!-- Node2&#45;&gt;Node19 -->
<g id="edge19_Node000002_Node000019" class="edge">
<title>Node2&#45;&gt;Node19</title>
<g id="a_edge19_Node000002_Node000019"><a xlink:title=" ">
<path fill="none" stroke="#63b8ff" d="M1128.81,-319.33C1065.12,-311.66 969.04,-299.21 876.79,-283.23"/>
<polygon fill="#63b8ff" stroke="#63b8ff" points="877.18,-279.75 866.73,-281.47 875.97,-286.64 877.18,-279.75"/>
</a>
</g>
</g>
<!-- Node20 -->
<g id="Node000020" class="node">
<title>Node20</title>
<g id="a_Node000020"><a xlink:title=" ">
<polygon fill="#e0e0e0" stroke="#999999" points="997.56,-283 884.56,-283 884.56,-253 997.56,-253 997.56,-283"/>
<text text-anchor="start" x="892.56" y="-271" font-family="FreeSans" font-size="10.00">boost/property_tree</text>
<text text-anchor="middle" x="941.06" y="-260" font-family="FreeSans" font-size="10.00">/ptree.hpp</text>
</a>
</g>
</g>
<!-- Node2&#45;&gt;Node20 -->
<g id="edge20_Node000002_Node000020" class="edge">
<title>Node2&#45;&gt;Node20</title>
<g id="a_edge20_Node000002_Node000020"><a xlink:title=" ">
<path fill="none" stroke="#63b8ff" d="M1162.4,-318.99C1121.97,-309.86 1056.94,-295.17 1007.81,-284.08"/>
<polygon fill="#63b8ff" stroke="#63b8ff" points="1008.41,-280.63 997.89,-281.84 1006.87,-287.45 1008.41,-280.63"/>
</a>
</g>
</g>
<!-- Node21 -->
<g id="Node000021" class="node">
<title>Node21</title>
<g id="a_Node000021"><a xlink:title=" ">
<polygon fill="#e0e0e0" stroke="#999999" points="1128.56,-283 1015.56,-283 1015.56,-253 1128.56,-253 1128.56,-283"/>
<text text-anchor="start" x="1023.56" y="-271" font-family="FreeSans" font-size="10.00">boost/property_tree</text>
<text text-anchor="middle" x="1072.06" y="-260" font-family="FreeSans" font-size="10.00">/xml_parser.hpp</text>
</a>
</g>
</g>
<!-- Node2&#45;&gt;Node21 -->
<g id="edge21_Node000002_Node000021" class="edge">
<title>Node2&#45;&gt;Node21</title>
<g id="a_edge21_Node000002_Node000021"><a xlink:title=" ">
<path fill="none" stroke="#63b8ff" d="M1181.44,-318.99C1163.41,-310.75 1135.46,-297.98 1112.32,-287.4"/>
<polygon fill="#63b8ff" stroke="#63b8ff" points="1113.63,-284.15 1103.08,-283.18 1110.72,-290.52 1113.63,-284.15"/>
</a>
</g>
</g>
<!-- Node22 -->
<g id="Node000022" class="node">
<title>Node22</title>
<g id="a_Node000022"><a xlink:title=" ">
<polygon fill="#e0e0e0" stroke="#999999" points="1253.56,-283 1146.56,-283 1146.56,-253 1253.56,-253 1253.56,-283"/>
<text text-anchor="start" x="1154.56" y="-271" font-family="FreeSans" font-size="10.00">boost/serialization</text>
<text text-anchor="middle" x="1200.06" y="-260" font-family="FreeSans" font-size="10.00">/export.hpp</text>
</a>
</g>
</g>
<!-- Node2&#45;&gt;Node22 -->
<g id="edge22_Node000002_Node000022" class="edge">
<title>Node2&#45;&gt;Node22</title>
<g id="a_edge22_Node000002_Node000022"><a xlink:title=" ">
<path fill="none" stroke="#63b8ff" d="M1200.06,-318.87C1200.06,-312.11 1200.06,-302.35 1200.06,-293.26"/>
<polygon fill="#63b8ff" stroke="#63b8ff" points="1203.56,-293.11 1200.06,-283.11 1196.56,-293.11 1203.56,-293.11"/>
</a>
</g>
</g>
<!-- Node23 -->
<g id="Node000023" class="node">
<title>Node23</title>
<g id="a_Node000023"><a xlink:href="exenv_8h.html" target="_top" xlink:title=" ">
<polygon fill="white" stroke="#666666" points="1543.56,-277.5 1416.56,-277.5 1416.56,-258.5 1543.56,-258.5 1543.56,-277.5"/>
<text text-anchor="middle" x="1480.06" y="-265.5" font-family="FreeSans" font-size="10.00">mpqc/util/core/exenv.h</text>
</a>
</g>
</g>
<!-- Node2&#45;&gt;Node23 -->
<g id="edge23_Node000002_Node000023" class="edge">
<title>Node2&#45;&gt;Node23</title>
<g id="a_edge23_Node000002_Node000023"><a xlink:title=" ">
<path fill="none" stroke="#63b8ff" d="M1240.77,-318.99C1290.64,-308.57 1375.15,-290.92 1429.23,-279.62"/>
<polygon fill="#63b8ff" stroke="#63b8ff" points="1430.22,-282.99 1439.29,-277.52 1428.79,-276.14 1430.22,-282.99"/>
</a>
</g>
</g>
<!-- Node32 -->
<g id="Node000032" class="node">
<title>Node32</title>
<g id="a_Node000032"><a xlink:href="util_2keyval_2fwd_8h.html" target="_top" xlink:title=" ">
<polygon fill="white" stroke="#666666" points="1398.56,-277.5 1271.56,-277.5 1271.56,-258.5 1398.56,-258.5 1398.56,-277.5"/>
<text text-anchor="middle" x="1335.06" y="-265.5" font-family="FreeSans" font-size="10.00">mpqc/util/keyval/fwd.h</text>
</a>
</g>
</g>
<!-- Node2&#45;&gt;Node32 -->
<g id="edge41_Node000002_Node000032" class="edge">
<title>Node2&#45;&gt;Node32</title>
<g id="a_edge41_Node000002_Node000032"><a xlink:title=" ">
<path fill="none" stroke="#63b8ff" d="M1219.69,-318.99C1242.38,-309.16 1279.95,-292.88 1306.03,-281.58"/>
<polygon fill="#63b8ff" stroke="#63b8ff" points="1307.62,-284.7 1315.4,-277.52 1304.83,-278.28 1307.62,-284.7"/>
</a>
</g>
</g>
<!-- Node33 -->
<g id="Node000033" class="node">
<title>Node33</title>
<g id="a_Node000033"><a xlink:href="predicates_8h.html" target="_top" xlink:title=" ">
<polygon fill="white" stroke="#666666" points="2209.06,-277.5 2055.06,-277.5 2055.06,-258.5 2209.06,-258.5 2209.06,-277.5"/>
<text text-anchor="middle" x="2132.06" y="-265.5" font-family="FreeSans" font-size="10.00">mpqc/util/meta/predicates.h</text>
</a>
</g>
</g>
<!-- Node2&#45;&gt;Node33 -->
<g id="edge42_Node000002_Node000033" class="edge">
<title>Node2&#45;&gt;Node33</title>
<g id="a_edge42_Node000002_Node000033"><a xlink:title=" ">
<path fill="none" stroke="#63b8ff" d="M1271.45,-320.09C1276.05,-319.69 1280.62,-319.33 1285.06,-319 1620.53,-294.26 1706.36,-316.62 2041.06,-283 2051.42,-281.96 2062.41,-280.54 2073.02,-279"/>
<polygon fill="#63b8ff" stroke="#63b8ff" points="2073.69,-282.44 2083.06,-277.5 2072.65,-275.52 2073.69,-282.44"/>
</a>
</g>
</g>
<!-- Node40 -->
<g id="Node000040" class="node">
<title>Node40</title>
<g id="a_Node000040"><a xlink:href="stream_8h.html" target="_top" xlink:title=" ">
<polygon fill="white" stroke="#666666" points="1845.56,-277.5 1708.56,-277.5 1708.56,-258.5 1845.56,-258.5 1845.56,-277.5"/>
<text text-anchor="middle" x="1777.06" y="-265.5" font-family="FreeSans" font-size="10.00">mpqc/util/meta/stream.h</text>
</a>
</g>
</g>
<!-- Node2&#45;&gt;Node40 -->
<g id="edge52_Node000002_Node000040" class="edge">
<title>Node2&#45;&gt;Node40</title>
<g id="a_edge52_Node000002_Node000040"><a xlink:title=" ">
<path fill="none" stroke="#63b8ff" d="M1271.47,-320.29C1276.07,-319.85 1280.63,-319.41 1285.06,-319 1468.95,-301.81 1515.97,-307.34 1699.06,-283 1707.01,-281.94 1715.38,-280.64 1723.57,-279.26"/>
<polygon fill="#63b8ff" stroke="#63b8ff" points="1724.18,-282.71 1733.44,-277.55 1722.99,-275.81 1724.18,-282.71"/>
</a>
</g>
</g>
<!-- Node10&#45;&gt;Node10 -->
<g id="edge10_Node000010_Node000010" class="edge">
<title>Node10&#45;&gt;Node10</title>
<g id="a_edge10_Node000010_Node000010"><a xlink:title=" ">
<path fill="none" stroke="#63b8ff" d="M367.98,-145.66C383.16,-151.34 400.06,-148.12 400.06,-136 400.06,-126.53 389.74,-122.5 377.99,-123.89"/>
<polygon fill="#63b8ff" stroke="#63b8ff" points="376.86,-120.57 367.98,-126.34 378.52,-127.37 376.86,-120.57"/>
</a>
</g>
</g>
<!-- Node23&#45;&gt;Node6 -->
<g id="edge36_Node000023_Node000006" class="edge">
<title>Node23&#45;&gt;Node6</title>
<g id="a_edge36_Node000023_Node000006"><a xlink:title=" ">
<path fill="none" stroke="#63b8ff" d="M1505.59,-258.46C1534.95,-248.61 1584.56,-231.85 1627.06,-217 1628.94,-216.34 1630.87,-215.66 1632.83,-214.97"/>
<polygon fill="#63b8ff" stroke="#63b8ff" points="1634.32,-218.15 1642.57,-211.5 1631.97,-211.56 1634.32,-218.15"/>
</a>
</g>
</g>
<!-- Node23&#45;&gt;Node10 -->
<g id="edge37_Node000023_Node000010" class="edge">
<title>Node23&#45;&gt;Node10</title>
<g id="a_edge37_Node000023_Node000010"><a xlink:title=" ">
<path fill="none" stroke="#63b8ff" d="M1439.41,-258.49C1429.21,-256.52 1418.25,-254.55 1408.06,-253 1305.8,-237.46 571.37,-159.95 392.34,-141.12"/>
<polygon fill="#63b8ff" stroke="#63b8ff" points="392.62,-137.63 382.31,-140.07 391.89,-144.6 392.62,-137.63"/>
</a>
</g>
</g>
<!-- Node23&#45;&gt;Node11 -->
<g id="edge38_Node000023_Node000011" class="edge">
<title>Node23&#45;&gt;Node11</title>
<g id="a_edge38_Node000023_Node000011"><a xlink:title=" ">
<path fill="none" stroke="#63b8ff" d="M1494.89,-258.37C1513.18,-247.73 1544.49,-229.51 1566.18,-216.89"/>
<polygon fill="#63b8ff" stroke="#63b8ff" points="1568.22,-219.75 1575.1,-211.7 1564.7,-213.7 1568.22,-219.75"/>
</a>
</g>
</g>
<!-- Node23&#45;&gt;Node14 -->
<g id="edge40_Node000023_Node000014" class="edge">
<title>Node23&#45;&gt;Node14</title>
<g id="a_edge40_Node000023_Node000014"><a xlink:title=" ">
<path fill="none" stroke="#63b8ff" d="M1442.11,-258.48C1431.18,-256.33 1419.19,-254.28 1408.06,-253 1272.59,-237.44 276.81,-209.36 79.85,-203.93"/>
<polygon fill="#63b8ff" stroke="#63b8ff" points="79.89,-200.43 69.8,-203.65 79.7,-207.42 79.89,-200.43"/>
</a>
</g>
</g>
<!-- Node23&#45;&gt;Node16 -->
<g id="edge27_Node000023_Node000016" class="edge">
<title>Node23&#45;&gt;Node16</title>
<g id="a_edge27_Node000023_Node000016"><a xlink:title=" ">
<path fill="none" stroke="#63b8ff" d="M1462.73,-258.43C1448.06,-250.1 1428.02,-235.94 1419.06,-217 1400.8,-178.44 1397.08,-157.57 1419.06,-121 1430.05,-102.7 1450.25,-90.74 1469.12,-83.12"/>
<polygon fill="#63b8ff" stroke="#63b8ff" points="1470.37,-86.39 1478.52,-79.61 1467.93,-79.83 1470.37,-86.39"/>
</a>
</g>
</g>
<!-- Node24 -->
<g id="Node000024" class="node">
<title>Node24</title>
<g id="a_Node000024"><a xlink:href="math_2external_2tiledarray_2fwd_8h.html" target="_top" xlink:title=" ">
<polygon fill="white" stroke="#666666" points="1544.06,-217 1428.06,-217 1428.06,-187 1544.06,-187 1544.06,-217"/>
<text text-anchor="start" x="1436.06" y="-205" font-family="FreeSans" font-size="10.00">mpqc/math/external</text>
<text text-anchor="middle" x="1486.06" y="-194" font-family="FreeSans" font-size="10.00">/tiledarray/fwd.h</text>
</a>
</g>
</g>
<!-- Node23&#45;&gt;Node24 -->
<g id="edge24_Node000023_Node000024" class="edge">
<title>Node23&#45;&gt;Node24</title>
<g id="a_edge24_Node000023_Node000024"><a xlink:title=" ">
<path fill="none" stroke="#63b8ff" d="M1480.87,-258.37C1481.6,-250.49 1482.73,-238.45 1483.75,-227.6"/>
<polygon fill="#63b8ff" stroke="#63b8ff" points="1487.26,-227.64 1484.71,-217.36 1480.29,-226.99 1487.26,-227.64"/>
</a>
</g>
</g>
<!-- Node26 -->
<g id="Node000026" class="node">
<title>Node26</title>
<g id="a_Node000026"><a xlink:href="formio_8h.html" target="_top" xlink:title=" ">
<polygon fill="white" stroke="#666666" points="1371.56,-211.5 1240.56,-211.5 1240.56,-192.5 1371.56,-192.5 1371.56,-211.5"/>
<text text-anchor="middle" x="1306.06" y="-199.5" font-family="FreeSans" font-size="10.00">mpqc/util/core/formio.h</text>
</a>
</g>
</g>
<!-- Node23&#45;&gt;Node26 -->
<g id="edge28_Node000023_Node000026" class="edge">
<title>Node23&#45;&gt;Node26</title>
<g id="a_edge28_Node000023_Node000026"><a xlink:title=" ">
<path fill="none" stroke="#63b8ff" d="M1456.59,-258.37C1426.28,-247.22 1373.35,-227.75 1339.01,-215.12"/>
<polygon fill="#63b8ff" stroke="#63b8ff" points="1340.02,-211.76 1329.43,-211.6 1337.6,-218.33 1340.02,-211.76"/>
</a>
</g>
</g>
<!-- Node30 -->
<g id="Node000030" class="node">
<title>Node30</title>
<g id="a_Node000030"><a xlink:title=" ">
<polygon fill="#e0e0e0" stroke="#999999" points="1161.56,-211.5 1112.56,-211.5 1112.56,-192.5 1161.56,-192.5 1161.56,-211.5"/>
<text text-anchor="middle" x="1137.06" y="-199.5" font-family="FreeSans" font-size="10.00">cstdlib</text>
</a>
</g>
</g>
<!-- Node23&#45;&gt;Node30 -->
<g id="edge35_Node000023_Node000030" class="edge">
<title>Node23&#45;&gt;Node30</title>
<g id="a_edge35_Node000023_Node000030"><a xlink:title=" ">
<path fill="none" stroke="#63b8ff" d="M1437.85,-258.49C1428.08,-256.6 1417.72,-254.67 1408.06,-253 1302.64,-234.79 1273,-246.12 1170.06,-217 1168.17,-216.47 1166.25,-215.85 1164.33,-215.19"/>
<polygon fill="#63b8ff" stroke="#63b8ff" points="1165.51,-211.89 1154.92,-211.54 1162.98,-218.42 1165.51,-211.89"/>
</a>
</g>
</g>
<!-- Node31 -->
<g id="Node000031" class="node">
<title>Node31</title>
<g id="a_Node000031"><a xlink:title=" ">
<polygon fill="#e0e0e0" stroke="#999999" points="1222.56,-211.5 1179.56,-211.5 1179.56,-192.5 1222.56,-192.5 1222.56,-211.5"/>
<text text-anchor="middle" x="1201.06" y="-199.5" font-family="FreeSans" font-size="10.00">stack</text>
</a>
</g>
</g>
<!-- Node23&#45;&gt;Node31 -->
<g id="edge39_Node000023_Node000031" class="edge">
<title>Node23&#45;&gt;Node31</title>
<g id="a_edge39_Node000023_Node000031"><a xlink:title=" ">
<path fill="none" stroke="#63b8ff" d="M1436.47,-258.48C1367.95,-245.04 1241.76,-220.13 1232.06,-217 1230.62,-216.54 1229.15,-216.02 1227.69,-215.48"/>
<polygon fill="#63b8ff" stroke="#63b8ff" points="1228.74,-212.13 1218.16,-211.55 1226.07,-218.6 1228.74,-212.13"/>
</a>
</g>
</g>
<!-- Node24&#45;&gt;Node16 -->
<g id="edge25_Node000024_Node000016" class="edge">
<title>Node24&#45;&gt;Node16</title>
<g id="a_edge25_Node000024_Node000016"><a xlink:title=" ">
<path fill="none" stroke="#63b8ff" d="M1541.89,-186.92C1560.12,-179.39 1578.4,-168.02 1589.06,-151 1596.13,-139.7 1595.38,-132.74 1589.06,-121 1579.91,-104.03 1562.21,-91.88 1546.19,-83.81"/>
<polygon fill="#63b8ff" stroke="#63b8ff" points="1547.57,-80.59 1537.03,-79.52 1544.61,-86.93 1547.57,-80.59"/>
</a>
</g>
</g>
<!-- Node25 -->
<g id="Node000025" class="node">
<title>Node25</title>
<g id="a_Node000025"><a xlink:title=" ">
<polygon fill="#e0e0e0" stroke="#999999" points="1579.56,-145.5 1484.56,-145.5 1484.56,-126.5 1579.56,-126.5 1579.56,-145.5"/>
<text text-anchor="middle" x="1532.06" y="-133.5" font-family="FreeSans" font-size="10.00">tiledarray_fwd.h</text>
</a>
</g>
</g>
<!-- Node24&#45;&gt;Node25 -->
<g id="edge26_Node000024_Node000025" class="edge">
<title>Node24&#45;&gt;Node25</title>
<g id="a_edge26_Node000024_Node000025"><a xlink:title=" ">
<path fill="none" stroke="#63b8ff" d="M1496.26,-186.8C1503.23,-177.11 1512.48,-164.24 1519.83,-154.01"/>
<polygon fill="#63b8ff" stroke="#63b8ff" points="1522.7,-156.01 1525.7,-145.84 1517.02,-151.92 1522.7,-156.01"/>
</a>
</g>
</g>
<!-- Node26&#45;&gt;Node9 -->
<g id="edge30_Node000026_Node000009" class="edge">
<title>Node26&#45;&gt;Node9</title>
<g id="a_edge30_Node000026_Node000009"><a xlink:title=" ">
<path fill="none" stroke="#63b8ff" d="M1325.07,-192.37C1349.14,-181.44 1390.83,-162.52 1418.67,-149.88"/>
<polygon fill="#63b8ff" stroke="#63b8ff" points="1420.23,-153.02 1427.89,-145.7 1417.34,-146.65 1420.23,-153.02"/>
</a>
</g>
</g>
<!-- Node26&#45;&gt;Node10 -->
<g id="edge31_Node000026_Node000010" class="edge">
<title>Node26&#45;&gt;Node10</title>
<g id="a_edge31_Node000026_Node000010"><a xlink:title=" ">
<path fill="none" stroke="#63b8ff" d="M1266.26,-192.49C1255.23,-190.4 1243.22,-188.37 1232.06,-187 909.57,-147.49 516.63,-139.12 392.55,-137.42"/>
<polygon fill="#63b8ff" stroke="#63b8ff" points="392.44,-133.92 382.39,-137.29 392.35,-140.92 392.44,-133.92"/>
</a>
</g>
</g>
<!-- Node27 -->
<g id="Node000027" class="node">
<title>Node27</title>
<g id="a_Node000027"><a xlink:title=" ">
<polygon fill="#e0e0e0" stroke="#999999" points="1248.06,-145.5 1200.06,-145.5 1200.06,-126.5 1248.06,-126.5 1248.06,-145.5"/>
<text text-anchor="middle" x="1224.06" y="-133.5" font-family="FreeSans" font-size="10.00">iosfwd</text>
</a>
</g>
</g>
<!-- Node26&#45;&gt;Node27 -->
<g id="edge29_Node000026_Node000027" class="edge">
<title>Node26&#45;&gt;Node27</title>
<g id="a_edge29_Node000026_Node000027"><a xlink:title=" ">
<path fill="none" stroke="#63b8ff" d="M1295,-192.37C1281.79,-182.06 1259.48,-164.65 1243.4,-152.09"/>
<polygon fill="#63b8ff" stroke="#63b8ff" points="1245.24,-149.09 1235.2,-145.7 1240.93,-154.61 1245.24,-149.09"/>
</a>
</g>
</g>
<!-- Node28 -->
<g id="Node000028" class="node">
<title>Node28</title>
<g id="a_Node000028"><a xlink:href="scope.html" target="_top" xlink:title=" ">
<polygon fill="white" stroke="#666666" points="1372.06,-151 1266.06,-151 1266.06,-121 1372.06,-121 1372.06,-151"/>
<text text-anchor="start" x="1274.06" y="-139" font-family="FreeSans" font-size="10.00">mpqc/util/external</text>
<text text-anchor="middle" x="1319.06" y="-128" font-family="FreeSans" font-size="10.00">/c++/scope</text>
</a>
</g>
</g>
<!-- Node26&#45;&gt;Node28 -->
<g id="edge32_Node000026_Node000028" class="edge">
<title>Node26&#45;&gt;Node28</title>
<g id="a_edge32_Node000026_Node000028"><a xlink:title=" ">
<path fill="none" stroke="#63b8ff" d="M1307.81,-192.37C1309.43,-184.4 1311.91,-172.2 1314.13,-161.27"/>
<polygon fill="#63b8ff" stroke="#63b8ff" points="1317.58,-161.86 1316.14,-151.36 1310.72,-160.46 1317.58,-161.86"/>
</a>
</g>
</g>
<!-- Node28&#45;&gt;Node16 -->
<g id="edge33_Node000028_Node000016" class="edge">
<title>Node28&#45;&gt;Node16</title>
<g id="a_edge33_Node000028_Node000016"><a xlink:title=" ">
<path fill="none" stroke="#63b8ff" d="M1361.63,-120.95C1396.4,-109.48 1444.97,-93.46 1477.64,-82.68"/>
<polygon fill="#63b8ff" stroke="#63b8ff" points="1478.84,-85.97 1487.24,-79.52 1476.64,-79.33 1478.84,-85.97"/>
</a>
</g>
</g>
<!-- Node29 -->
<g id="Node000029" class="node">
<title>Node29</title>
<g id="a_Node000029"><a xlink:title=" ">
<polygon fill="#e0e0e0" stroke="#999999" points="1341.56,-79.5 1296.56,-79.5 1296.56,-60.5 1341.56,-60.5 1341.56,-79.5"/>
<text text-anchor="middle" x="1319.06" y="-67.5" font-family="FreeSans" font-size="10.00">utility</text>
</a>
</g>
</g>
<!-- Node28&#45;&gt;Node29 -->
<g id="edge34_Node000028_Node000029" class="edge">
<title>Node28&#45;&gt;Node29</title>
<g id="a_edge34_Node000028_Node000029"><a xlink:title=" ">
<path fill="none" stroke="#63b8ff" d="M1319.06,-120.8C1319.06,-111.7 1319.06,-99.79 1319.06,-89.9"/>
<polygon fill="#63b8ff" stroke="#63b8ff" points="1322.56,-89.84 1319.06,-79.84 1315.56,-89.84 1322.56,-89.84"/>
</a>
</g>
</g>
<!-- Node34 -->
<g id="Node000034" class="node">
<title>Node34</title>
<g id="a_Node000034"><a xlink:href="get__type_8h.html" target="_top" xlink:title=" ">
<polygon fill="white" stroke="#666666" points="2189.06,-217 2079.06,-217 2079.06,-187 2189.06,-187 2189.06,-217"/>
<text text-anchor="start" x="2087.06" y="-205" font-family="FreeSans" font-size="10.00">mpqc/util/meta/get</text>
<text text-anchor="middle" x="2134.06" y="-194" font-family="FreeSans" font-size="10.00">_type.h</text>
</a>
</g>
</g>
<!-- Node33&#45;&gt;Node34 -->
<g id="edge43_Node000033_Node000034" class="edge">
<title>Node33&#45;&gt;Node34</title>
<g id="a_edge43_Node000033_Node000034"><a xlink:title=" ">
<path fill="none" stroke="#63b8ff" d="M2132.33,-258.37C2132.57,-250.49 2132.95,-238.45 2133.29,-227.6"/>
<polygon fill="#63b8ff" stroke="#63b8ff" points="2136.79,-227.46 2133.61,-217.36 2129.8,-227.25 2136.79,-227.46"/>
</a>
</g>
</g>
<!-- Node35 -->
<g id="Node000035" class="node">
<title>Node35</title>
<g id="a_Node000035"><a xlink:href="type__traits_8h.html" target="_top" xlink:title=" ">
<polygon fill="white" stroke="#666666" points="2176.06,-145.5 2098.06,-145.5 2098.06,-126.5 2176.06,-126.5 2176.06,-145.5"/>
<text text-anchor="middle" x="2137.06" y="-133.5" font-family="FreeSans" font-size="10.00">type_traits.h</text>
</a>
</g>
</g>
<!-- Node34&#45;&gt;Node35 -->
<g id="edge44_Node000034_Node000035" class="edge">
<title>Node34&#45;&gt;Node35</title>
<g id="a_edge44_Node000034_Node000035"><a xlink:title=" ">
<path fill="none" stroke="#63b8ff" d="M2134.72,-186.8C2135.15,-177.7 2135.71,-165.79 2136.17,-155.9"/>
<polygon fill="#63b8ff" stroke="#63b8ff" points="2139.67,-156 2136.64,-145.84 2132.68,-155.67 2139.67,-156"/>
</a>
</g>
</g>
<!-- Node35&#45;&gt;Node3 -->
<g id="edge45_Node000035_Node000003" class="edge">
<title>Node35&#45;&gt;Node3</title>
<g id="a_edge45_Node000035_Node000003"><a xlink:title=" ">
<path fill="none" stroke="#63b8ff" d="M2121.95,-126.37C2103.25,-115.68 2071.16,-97.35 2049.07,-84.72"/>
<polygon fill="#63b8ff" stroke="#63b8ff" points="2050.7,-81.62 2040.28,-79.7 2047.22,-87.7 2050.7,-81.62"/>
</a>
</g>
</g>
<!-- Node36 -->
<g id="Node000036" class="node">
<title>Node36</title>
<g id="a_Node000036"><a xlink:title=" ">
<polygon fill="#e0e0e0" stroke="#999999" points="2258.06,-19 2208.06,-19 2208.06,0 2258.06,0 2258.06,-19"/>
<text text-anchor="middle" x="2233.06" y="-7" font-family="FreeSans" font-size="10.00">atomic</text>
</a>
</g>
</g>
<!-- Node35&#45;&gt;Node36 -->
<g id="edge46_Node000035_Node000036" class="edge">
<title>Node35&#45;&gt;Node36</title>
<g id="a_edge46_Node000035_Node000036"><a xlink:title=" ">
<path fill="none" stroke="#63b8ff" d="M2126.15,-126.38C2108.3,-111.2 2076.49,-79.07 2094.06,-55 2117.64,-22.68 2165.02,-13.3 2197.86,-10.86"/>
<polygon fill="#63b8ff" stroke="#63b8ff" points="2198.18,-14.35 2207.97,-10.29 2197.78,-7.36 2198.18,-14.35"/>
</a>
</g>
</g>
<!-- Node37 -->
<g id="Node000037" class="node">
<title>Node37</title>
<g id="a_Node000037"><a xlink:title=" ">
<polygon fill="#e0e0e0" stroke="#999999" points="2171.56,-79.5 2102.56,-79.5 2102.56,-60.5 2171.56,-60.5 2171.56,-79.5"/>
<text text-anchor="middle" x="2137.06" y="-67.5" font-family="FreeSans" font-size="10.00">type_traits</text>
</a>
</g>
</g>
<!-- Node35&#45;&gt;Node37 -->
<g id="edge47_Node000035_Node000037" class="edge">
<title>Node35&#45;&gt;Node37</title>
<g id="a_edge47_Node000035_Node000037"><a xlink:title=" ">
<path fill="none" stroke="#63b8ff" d="M2137.06,-126.37C2137.06,-117.16 2137.06,-102.29 2137.06,-90.27"/>
<polygon fill="#63b8ff" stroke="#63b8ff" points="2140.56,-89.91 2137.06,-79.91 2133.56,-89.91 2140.56,-89.91"/>
</a>
</g>
</g>
<!-- Node38 -->
<g id="Node000038" class="node">
<title>Node38</title>
<g id="a_Node000038"><a xlink:href="atomic_8h.html" target="_top" xlink:title=" ">
<polygon fill="white" stroke="#666666" points="2446.06,-85 2340.06,-85 2340.06,-55 2446.06,-55 2446.06,-85"/>
<text text-anchor="start" x="2348.06" y="-73" font-family="FreeSans" font-size="10.00">mpqc/util/external</text>
<text text-anchor="middle" x="2393.06" y="-62" font-family="FreeSans" font-size="10.00">/c++/atomic.h</text>
</a>
</g>
</g>
<!-- Node35&#45;&gt;Node38 -->
<g id="edge48_Node000035_Node000038" class="edge">
<title>Node35&#45;&gt;Node38</title>
<g id="a_edge48_Node000035_Node000038"><a xlink:title=" ">
<path fill="none" stroke="#63b8ff" d="M2171.32,-126.44C2211.81,-116.31 2280,-99.26 2330.09,-86.74"/>
<polygon fill="#63b8ff" stroke="#63b8ff" points="2331.01,-90.12 2339.86,-84.3 2329.31,-83.33 2331.01,-90.12"/>
</a>
</g>
</g>
<!-- Node39 -->
<g id="Node000039" class="node">
<title>Node39</title>
<g id="a_Node000039"><a xlink:href="sfinae_8h.html" target="_top" xlink:title=" ">
<polygon fill="white" stroke="#666666" points="2322.06,-79.5 2190.06,-79.5 2190.06,-60.5 2322.06,-60.5 2322.06,-79.5"/>
<text text-anchor="middle" x="2256.06" y="-67.5" font-family="FreeSans" font-size="10.00">mpqc/util/meta/sfinae.h</text>
</a>
</g>
</g>
<!-- Node35&#45;&gt;Node39 -->
<g id="edge50_Node000035_Node000039" class="edge">
<title>Node35&#45;&gt;Node39</title>
<g id="a_edge50_Node000035_Node000039"><a xlink:title=" ">
<path fill="none" stroke="#63b8ff" d="M2148.32,-126.37C2166.14,-115.54 2200.62,-96.85 2225.89,-84.22"/>
<polygon fill="#63b8ff" stroke="#63b8ff" points="2227.65,-87.25 2235.08,-79.7 2224.56,-80.97 2227.65,-87.25"/>
</a>
</g>
</g>
<!-- Node38&#45;&gt;Node36 -->
<g id="edge49_Node000038_Node000036" class="edge">
<title>Node38&#45;&gt;Node36</title>
<g id="a_edge49_Node000038_Node000036"><a xlink:title=" ">
<path fill="none" stroke="#63b8ff" d="M2354.73,-54.99C2327.8,-45.14 2292.12,-32.1 2266.37,-22.68"/>
<polygon fill="#63b8ff" stroke="#63b8ff" points="2267.28,-19.29 2256.68,-19.14 2264.87,-25.86 2267.28,-19.29"/>
</a>
</g>
</g>
<!-- Node39&#45;&gt;Node35 -->
<g id="edge51_Node000039_Node000035" class="edge">
<title>Node39&#45;&gt;Node35</title>
<g id="a_edge51_Node000039_Node000035"><a xlink:title=" ">
<path fill="none" stroke="#63b8ff" d="M2244.68,-79.7C2226.79,-90.56 2192.3,-109.25 2167.06,-121.86"/>
<polygon fill="#63b8ff" stroke="#63b8ff" points="2165.32,-118.82 2157.89,-126.37 2168.41,-125.1 2165.32,-118.82"/>
</a>
</g>
</g>
<!-- Node41 -->
<g id="Node000041" class="node">
<title>Node41</title>
<g id="a_Node000041"><a xlink:title=" ">
<polygon fill="#e0e0e0" stroke="#999999" points="1835.06,-217 1719.06,-217 1719.06,-187 1835.06,-187 1835.06,-217"/>
<text text-anchor="start" x="1727.06" y="-205" font-family="FreeSans" font-size="10.00">madness/world/type</text>
<text text-anchor="middle" x="1777.06" y="-194" font-family="FreeSans" font-size="10.00">_traits.h</text>
</a>
</g>
</g>
<!-- Node40&#45;&gt;Node41 -->
<g id="edge53_Node000040_Node000041" class="edge">
<title>Node40&#45;&gt;Node41</title>
<g id="a_edge53_Node000040_Node000041"><a xlink:title=" ">
<path fill="none" stroke="#63b8ff" d="M1777.06,-258.37C1777.06,-250.49 1777.06,-238.45 1777.06,-227.6"/>
<polygon fill="#63b8ff" stroke="#63b8ff" points="1780.56,-227.36 1777.06,-217.36 1773.56,-227.36 1780.56,-227.36"/>
</a>
</g>
</g>
<!-- Node42&#45;&gt;Node42 -->
<g id="edge55_Node000042_Node000042" class="edge">
<title>Node42&#45;&gt;Node42</title>
<g id="a_edge55_Node000042_Node000042"><a xlink:title=" ">
<path fill="none" stroke="#63b8ff" d="M1383.69,-338.03C1397.57,-340.06 1410.56,-336.88 1410.56,-328.5 1410.56,-322.21 1403.25,-318.85 1393.74,-318.42"/>
<polygon fill="#63b8ff" stroke="#63b8ff" points="1393.49,-314.93 1383.69,-318.97 1393.87,-321.92 1393.49,-314.93"/>
</a>
</g>
</g>
</g>
</svg>
