<?xml version="1.0" encoding="UTF-8" standalone="no"?>
<!DOCTYPE svg PUBLIC "-//W3C//DTD SVG 1.1//EN"
 "http://www.w3.org/Graphics/SVG/1.1/DTD/svg11.dtd">
<!-- Generated by graphviz version 2.43.0 (0)
 -->
<!-- Title: mpqc/util/misc/bug.h Pages: 1 -->
<svg width="420pt" height="82pt"
 viewBox="0.00 0.00 420.00 82.00" xmlns="http://www.w3.org/2000/svg" xmlns:xlink="http://www.w3.org/1999/xlink">
<g id="graph0" class="graph" transform="scale(1 1) rotate(0) translate(4 78)">
<title>mpqc/util/misc/bug.h</title>
<!-- Node1 -->
<g id="Node000001" class="node">
<title>Node1</title>
<g id="a_Node000001"><a xlink:title=" ">
<polygon fill="#999999" stroke="#666666" points="256.5,-74 137.5,-74 137.5,-55 256.5,-55 256.5,-74"/>
<text text-anchor="middle" x="197" y="-62" font-family="FreeSans" font-size="10.00">mpqc/util/misc/bug.h</text>
</a>
</g>
</g>
<!-- Node2 -->
<g id="Node000002" class="node">
<title>Node2</title>
<g id="a_Node000002"><a xlink:href="mpqc_8cpp.html" target="_top" xlink:title=" ">
<polygon fill="white" stroke="#666666" points="112,-19 0,-19 0,0 112,0 112,-19"/>
<text text-anchor="middle" x="56" y="-7" font-family="FreeSans" font-size="10.00">bin/mpqc/mpqc.cpp</text>
</a>
</g>
</g>
<!-- Node1&#45;&gt;Node2 -->
<g id="edge1_Node000001_Node000002" class="edge">
<title>Node1&#45;&gt;Node2</title>
<g id="a_edge1_Node000001_Node000002"><a xlink:title=" ">
<path fill="none" stroke="#63b8ff" d="M164.86,-51.42C138.71,-41.59 102.41,-27.95 79.07,-19.17"/>
<polygon fill="#63b8ff" stroke="#63b8ff" points="163.75,-54.74 174.35,-54.98 166.22,-48.19 163.75,-54.74"/>
</a>
</g>
</g>
<!-- Node3 -->
<g id="Node000003" class="node">
<title>Node3</title>
<g id="a_Node000003"><a xlink:href="mpqc__init_8cpp.html" target="_top" xlink:title=" ">
<polygon fill="white" stroke="#666666" points="263.5,-19 130.5,-19 130.5,0 263.5,0 263.5,-19"/>
<text text-anchor="middle" x="197" y="-7" font-family="FreeSans" font-size="10.00">bin/mpqc/mpqc_init.cpp</text>
</a>
</g>
</g>
<!-- Node1&#45;&gt;Node3 -->
<g id="edge2_Node000001_Node000003" class="edge">
<title>Node1&#45;&gt;Node3</title>
<g id="a_edge2_Node000001_Node000003"><a xlink:title=" ">
<path fill="none" stroke="#63b8ff" d="M197,-44.66C197,-35.93 197,-25.99 197,-19.09"/>
<polygon fill="#63b8ff" stroke="#63b8ff" points="193.5,-44.75 197,-54.75 200.5,-44.75 193.5,-44.75"/>
</a>
</g>
</g>
<!-- Node4 -->
<g id="Node000004" class="node">
<title>Node4</title>
<g id="a_Node000004"><a xlink:href="bug_8cpp.html" target="_top" xlink:title=" ">
<polygon fill="white" stroke="#666666" points="412,-19 282,-19 282,0 412,0 412,-19"/>
<text text-anchor="middle" x="347" y="-7" font-family="FreeSans" font-size="10.00">mpqc/util/misc/bug.cpp</text>
</a>
</g>
</g>
<!-- Node1&#45;&gt;Node4 -->
<g id="edge3_Node000001_Node000004" class="edge">
<title>Node1&#45;&gt;Node4</title>
<g id="a_edge3_Node000001_Node000004"><a xlink:title=" ">
<path fill="none" stroke="#63b8ff" d="M230.82,-51.55C258.68,-41.71 297.51,-27.98 322.46,-19.17"/>
<polygon fill="#63b8ff" stroke="#63b8ff" points="229.36,-48.35 221.1,-54.98 231.69,-54.95 229.36,-48.35"/>
</a>
</g>
</g>
</g>
</svg>
