<?xml version="1.0" encoding="UTF-8" standalone="no"?>
<!DOCTYPE svg PUBLIC "-//W3C//DTD SVG 1.1//EN"
 "http://www.w3.org/Graphics/SVG/1.1/DTD/svg11.dtd">
<!-- Generated by graphviz version 2.43.0 (0)
 -->
<!-- Title: mpqc/chemistry/qc/lcao/f12/cabs_singles.h Pages: 1 -->
<svg width="896pt" height="236pt"
 viewBox="0.00 0.00 896.00 236.00" xmlns="http://www.w3.org/2000/svg" xmlns:xlink="http://www.w3.org/1999/xlink">
<g id="graph0" class="graph" transform="scale(1 1) rotate(0) translate(4 232)">
<title>mpqc/chemistry/qc/lcao/f12/cabs_singles.h</title>
<!-- Node1 -->
<g id="Node000001" class="node">
<title>Node1</title>
<g id="a_Node000001"><a xlink:title=" ">
<polygon fill="#999999" stroke="#666666" points="359,-228 226,-228 226,-198 359,-198 359,-228"/>
<text text-anchor="start" x="234" y="-216" font-family="FreeSans" font-size="10.00">mpqc/chemistry/qc/lcao</text>
<text text-anchor="middle" x="292.5" y="-205" font-family="FreeSans" font-size="10.00">/f12/cabs_singles.h</text>
</a>
</g>
</g>
<!-- Node2 -->
<g id="Node000002" class="node">
<title>Node2</title>
<g id="a_Node000002"><a xlink:href="_h__bar__f12_8ipp.html" target="_top" xlink:title=" ">
<polygon fill="white" stroke="#666666" points="133,-162 0,-162 0,-132 133,-132 133,-162"/>
<text text-anchor="start" x="8" y="-150" font-family="FreeSans" font-size="10.00">mpqc/chemistry/qc/lcao</text>
<text text-anchor="middle" x="66.5" y="-139" font-family="FreeSans" font-size="10.00">/f12/H_bar_f12.ipp</text>
</a>
</g>
</g>
<!-- Node1&#45;&gt;Node2 -->
<g id="edge1_Node000001_Node000002" class="edge">
<title>Node1&#45;&gt;Node2</title>
<g id="a_edge1_Node000001_Node000002"><a xlink:title=" ">
<path fill="none" stroke="#63b8ff" d="M232.9,-195.12C196.46,-184.8 150.4,-171.76 115.98,-162.01"/>
<polygon fill="#63b8ff" stroke="#63b8ff" points="232.33,-198.6 242.9,-197.95 234.24,-191.86 232.33,-198.6"/>
</a>
</g>
</g>
<!-- Node4 -->
<g id="Node000004" class="node">
<title>Node4</title>
<g id="a_Node000004"><a xlink:href="cck__f12_8h.html" target="_top" xlink:title=" ">
<polygon fill="white" stroke="#666666" points="284,-162 151,-162 151,-132 284,-132 284,-162"/>
<text text-anchor="start" x="159" y="-150" font-family="FreeSans" font-size="10.00">mpqc/chemistry/qc/lcao</text>
<text text-anchor="middle" x="217.5" y="-139" font-family="FreeSans" font-size="10.00">/f12/cck_f12.h</text>
</a>
</g>
</g>
<!-- Node1&#45;&gt;Node4 -->
<g id="edge3_Node000001_Node000004" class="edge">
<title>Node1&#45;&gt;Node4</title>
<g id="a_edge3_Node000001_Node000004"><a xlink:title=" ">
<path fill="none" stroke="#63b8ff" d="M268.13,-191.2C256.99,-181.7 244.09,-170.69 234.1,-162.16"/>
<polygon fill="#63b8ff" stroke="#63b8ff" points="265.98,-193.97 275.86,-197.8 270.52,-188.64 265.98,-193.97"/>
</a>
</g>
</g>
<!-- Node7 -->
<g id="Node000007" class="node">
<title>Node7</title>
<g id="a_Node000007"><a xlink:href="ccsd__f12_8h.html" target="_top" xlink:title=" ">
<polygon fill="white" stroke="#666666" points="435,-162 302,-162 302,-132 435,-132 435,-162"/>
<text text-anchor="start" x="310" y="-150" font-family="FreeSans" font-size="10.00">mpqc/chemistry/qc/lcao</text>
<text text-anchor="middle" x="368.5" y="-139" font-family="FreeSans" font-size="10.00">/f12/ccsd_f12.h</text>
</a>
</g>
</g>
<!-- Node1&#45;&gt;Node7 -->
<g id="edge7_Node000001_Node000007" class="edge">
<title>Node1&#45;&gt;Node7</title>
<g id="a_edge7_Node000001_Node000007"><a xlink:title=" ">
<path fill="none" stroke="#63b8ff" d="M317.2,-191.2C328.48,-181.7 341.55,-170.69 351.68,-162.16"/>
<polygon fill="#63b8ff" stroke="#63b8ff" points="314.76,-188.68 309.37,-197.8 319.27,-194.03 314.76,-188.68"/>
</a>
</g>
</g>
<!-- Node12 -->
<g id="Node000012" class="node">
<title>Node12</title>
<g id="a_Node000012"><a xlink:href="mp2f12_8ipp.html" target="_top" xlink:title=" ">
<polygon fill="white" stroke="#666666" points="812,-162 679,-162 679,-132 812,-132 812,-162"/>
<text text-anchor="start" x="687" y="-150" font-family="FreeSans" font-size="10.00">mpqc/chemistry/qc/lcao</text>
<text text-anchor="middle" x="745.5" y="-139" font-family="FreeSans" font-size="10.00">/f12/mp2f12.ipp</text>
</a>
</g>
</g>
<!-- Node1&#45;&gt;Node12 -->
<g id="edge13_Node000001_Node000012" class="edge">
<title>Node1&#45;&gt;Node12</title>
<g id="a_edge13_Node000001_Node000012"><a xlink:title=" ">
<path fill="none" stroke="#63b8ff" d="M369.41,-201.13C456.29,-188.86 596.29,-169.08 678.75,-157.43"/>
<polygon fill="#63b8ff" stroke="#63b8ff" points="368.75,-197.69 359.34,-202.56 369.73,-204.62 368.75,-197.69"/>
</a>
</g>
</g>
<!-- Node3 -->
<g id="Node000003" class="node">
<title>Node3</title>
<g id="a_Node000003"><a xlink:href="_h__bar__f12_8cpp.html" target="_top" xlink:title=" ">
<polygon fill="white" stroke="#666666" points="133,-96 0,-96 0,-66 133,-66 133,-96"/>
<text text-anchor="start" x="8" y="-84" font-family="FreeSans" font-size="10.00">mpqc/chemistry/qc/lcao</text>
<text text-anchor="middle" x="66.5" y="-73" font-family="FreeSans" font-size="10.00">/f12/H_bar_f12.cpp</text>
</a>
</g>
</g>
<!-- Node2&#45;&gt;Node3 -->
<g id="edge2_Node000002_Node000003" class="edge">
<title>Node2&#45;&gt;Node3</title>
<g id="a_edge2_Node000002_Node000003"><a xlink:title=" ">
<path fill="none" stroke="#63b8ff" d="M66.5,-121.54C66.5,-112.96 66.5,-103.61 66.5,-96.16"/>
<polygon fill="#63b8ff" stroke="#63b8ff" points="63,-121.8 66.5,-131.8 70,-121.8 63,-121.8"/>
</a>
</g>
</g>
<!-- Node5 -->
<g id="Node000005" class="node">
<title>Node5</title>
<g id="a_Node000005"><a xlink:href="cck__f12_8ipp.html" target="_top" xlink:title=" ">
<polygon fill="white" stroke="#666666" points="284,-96 151,-96 151,-66 284,-66 284,-96"/>
<text text-anchor="start" x="159" y="-84" font-family="FreeSans" font-size="10.00">mpqc/chemistry/qc/lcao</text>
<text text-anchor="middle" x="217.5" y="-73" font-family="FreeSans" font-size="10.00">/f12/cck_f12.ipp</text>
</a>
</g>
</g>
<!-- Node4&#45;&gt;Node5 -->
<g id="edge4_Node000004_Node000005" class="edge">
<title>Node4&#45;&gt;Node5</title>
<g id="a_edge4_Node000004_Node000005"><a xlink:title=" ">
<path fill="none" stroke="#63b8ff" d="M210.93,-121.83C210.52,-113.17 210.81,-103.7 211.79,-96.16"/>
<polygon fill="#63b8ff" stroke="#63b8ff" points="207.45,-122.13 211.78,-131.8 214.42,-121.54 207.45,-122.13"/>
</a>
</g>
</g>
<!-- Node5&#45;&gt;Node4 -->
<g id="edge6_Node000005_Node000004" class="edge">
<title>Node5&#45;&gt;Node4</title>
<g id="a_edge6_Node000005_Node000004"><a xlink:title=" ">
<path fill="none" stroke="#63b8ff" d="M224.07,-106.13C224.48,-114.78 224.2,-124.26 223.22,-131.8"/>
<polygon fill="#63b8ff" stroke="#63b8ff" points="227.55,-105.83 223.21,-96.16 220.58,-106.43 227.55,-105.83"/>
</a>
</g>
</g>
<!-- Node6 -->
<g id="Node000006" class="node">
<title>Node6</title>
<g id="a_Node000006"><a xlink:href="cck__f12_8cpp.html" target="_top" xlink:title=" ">
<polygon fill="white" stroke="#666666" points="284,-30 151,-30 151,0 284,0 284,-30"/>
<text text-anchor="start" x="159" y="-18" font-family="FreeSans" font-size="10.00">mpqc/chemistry/qc/lcao</text>
<text text-anchor="middle" x="217.5" y="-7" font-family="FreeSans" font-size="10.00">/f12/cck_f12.cpp</text>
</a>
</g>
</g>
<!-- Node5&#45;&gt;Node6 -->
<g id="edge5_Node000005_Node000006" class="edge">
<title>Node5&#45;&gt;Node6</title>
<g id="a_edge5_Node000005_Node000006"><a xlink:title=" ">
<path fill="none" stroke="#63b8ff" d="M217.5,-55.54C217.5,-46.96 217.5,-37.61 217.5,-30.16"/>
<polygon fill="#63b8ff" stroke="#63b8ff" points="214,-55.8 217.5,-65.8 221,-55.8 214,-55.8"/>
</a>
</g>
</g>
<!-- Node8 -->
<g id="Node000008" class="node">
<title>Node8</title>
<g id="a_Node000008"><a xlink:href="ccsd__f12_8ipp.html" target="_top" xlink:title=" ">
<polygon fill="white" stroke="#666666" points="435,-96 302,-96 302,-66 435,-66 435,-96"/>
<text text-anchor="start" x="310" y="-84" font-family="FreeSans" font-size="10.00">mpqc/chemistry/qc/lcao</text>
<text text-anchor="middle" x="368.5" y="-73" font-family="FreeSans" font-size="10.00">/f12/ccsd_f12.ipp</text>
</a>
</g>
</g>
<!-- Node7&#45;&gt;Node8 -->
<g id="edge8_Node000007_Node000008" class="edge">
<title>Node7&#45;&gt;Node8</title>
<g id="a_edge8_Node000007_Node000008"><a xlink:title=" ">
<path fill="none" stroke="#63b8ff" d="M361.93,-121.83C361.52,-113.17 361.81,-103.7 362.79,-96.16"/>
<polygon fill="#63b8ff" stroke="#63b8ff" points="358.45,-122.13 362.78,-131.8 365.42,-121.54 358.45,-122.13"/>
</a>
</g>
</g>
<!-- Node10 -->
<g id="Node000010" class="node">
<title>Node10</title>
<g id="a_Node000010"><a xlink:href="ccsd__t__f12_8h.html" target="_top" xlink:title=" ">
<polygon fill="white" stroke="#666666" points="586,-96 453,-96 453,-66 586,-66 586,-96"/>
<text text-anchor="start" x="461" y="-84" font-family="FreeSans" font-size="10.00">mpqc/chemistry/qc/lcao</text>
<text text-anchor="middle" x="519.5" y="-73" font-family="FreeSans" font-size="10.00">/f12/ccsd_t_f12.h</text>
</a>
</g>
</g>
<!-- Node7&#45;&gt;Node10 -->
<g id="edge11_Node000007_Node000010" class="edge">
<title>Node7&#45;&gt;Node10</title>
<g id="a_edge11_Node000007_Node000010"><a xlink:title=" ">
<path fill="none" stroke="#63b8ff" d="M411.16,-127.92C435.03,-117.8 464.33,-105.38 486.44,-96.01"/>
<polygon fill="#63b8ff" stroke="#63b8ff" points="409.48,-124.83 401.64,-131.95 412.21,-131.28 409.48,-124.83"/>
</a>
</g>
</g>
<!-- Node8&#45;&gt;Node7 -->
<g id="edge10_Node000008_Node000007" class="edge">
<title>Node8&#45;&gt;Node7</title>
<g id="a_edge10_Node000008_Node000007"><a xlink:title=" ">
<path fill="none" stroke="#63b8ff" d="M375.07,-106.13C375.48,-114.78 375.2,-124.26 374.22,-131.8"/>
<polygon fill="#63b8ff" stroke="#63b8ff" points="378.55,-105.83 374.21,-96.16 371.58,-106.43 378.55,-105.83"/>
</a>
</g>
</g>
<!-- Node9 -->
<g id="Node000009" class="node">
<title>Node9</title>
<g id="a_Node000009"><a xlink:href="ccsd__f12_8cpp.html" target="_top" xlink:title=" ">
<polygon fill="white" stroke="#666666" points="435,-30 302,-30 302,0 435,0 435,-30"/>
<text text-anchor="start" x="310" y="-18" font-family="FreeSans" font-size="10.00">mpqc/chemistry/qc/lcao</text>
<text text-anchor="middle" x="368.5" y="-7" font-family="FreeSans" font-size="10.00">/f12/ccsd_f12.cpp</text>
</a>
</g>
</g>
<!-- Node8&#45;&gt;Node9 -->
<g id="edge9_Node000008_Node000009" class="edge">
<title>Node8&#45;&gt;Node9</title>
<g id="a_edge9_Node000008_Node000009"><a xlink:title=" ">
<path fill="none" stroke="#63b8ff" d="M368.5,-55.54C368.5,-46.96 368.5,-37.61 368.5,-30.16"/>
<polygon fill="#63b8ff" stroke="#63b8ff" points="365,-55.8 368.5,-65.8 372,-55.8 365,-55.8"/>
</a>
</g>
</g>
<!-- Node11 -->
<g id="Node000011" class="node">
<title>Node11</title>
<g id="a_Node000011"><a xlink:href="ccsd__t__f12_8cpp.html" target="_top" xlink:title=" ">
<polygon fill="white" stroke="#666666" points="586,-30 453,-30 453,0 586,0 586,-30"/>
<text text-anchor="start" x="461" y="-18" font-family="FreeSans" font-size="10.00">mpqc/chemistry/qc/lcao</text>
<text text-anchor="middle" x="519.5" y="-7" font-family="FreeSans" font-size="10.00">/f12/ccsd_t_f12.cpp</text>
</a>
</g>
</g>
<!-- Node10&#45;&gt;Node11 -->
<g id="edge12_Node000010_Node000011" class="edge">
<title>Node10&#45;&gt;Node11</title>
<g id="a_edge12_Node000010_Node000011"><a xlink:title=" ">
<path fill="none" stroke="#63b8ff" d="M519.5,-55.54C519.5,-46.96 519.5,-37.61 519.5,-30.16"/>
<polygon fill="#63b8ff" stroke="#63b8ff" points="516,-55.8 519.5,-65.8 523,-55.8 516,-55.8"/>
</a>
</g>
</g>
<!-- Node13 -->
<g id="Node000013" class="node">
<title>Node13</title>
<g id="a_Node000013"><a xlink:href="mp2f12_8cpp.html" target="_top" xlink:title=" ">
<polygon fill="white" stroke="#666666" points="737,-96 604,-96 604,-66 737,-66 737,-96"/>
<text text-anchor="start" x="612" y="-84" font-family="FreeSans" font-size="10.00">mpqc/chemistry/qc/lcao</text>
<text text-anchor="middle" x="670.5" y="-73" font-family="FreeSans" font-size="10.00">/f12/mp2f12.cpp</text>
</a>
</g>
</g>
<!-- Node12&#45;&gt;Node13 -->
<g id="edge14_Node000012_Node000013" class="edge">
<title>Node12&#45;&gt;Node13</title>
<g id="a_edge14_Node000012_Node000013"><a xlink:title=" ">
<path fill="none" stroke="#63b8ff" d="M721.13,-125.2C709.99,-115.7 697.09,-104.69 687.1,-96.16"/>
<polygon fill="#63b8ff" stroke="#63b8ff" points="718.98,-127.97 728.86,-131.8 723.52,-122.64 718.98,-127.97"/>
</a>
</g>
</g>
<!-- Node14 -->
<g id="Node000014" class="node">
<title>Node14</title>
<g id="a_Node000014"><a xlink:href="mp2f12_8h.html" target="_top" xlink:title=" ">
<polygon fill="white" stroke="#666666" points="888,-96 755,-96 755,-66 888,-66 888,-96"/>
<text text-anchor="start" x="763" y="-84" font-family="FreeSans" font-size="10.00">mpqc/chemistry/qc/lcao</text>
<text text-anchor="middle" x="821.5" y="-73" font-family="FreeSans" font-size="10.00">/f12/mp2f12.h</text>
</a>
</g>
</g>
<!-- Node12&#45;&gt;Node14 -->
<g id="edge15_Node000012_Node000014" class="edge">
<title>Node12&#45;&gt;Node14</title>
<g id="a_edge15_Node000012_Node000014"><a xlink:title=" ">
<path fill="none" stroke="#63b8ff" d="M764.14,-124.92C774.7,-115.49 787.84,-104.61 798.97,-96.16"/>
<polygon fill="#63b8ff" stroke="#63b8ff" points="761.65,-122.46 756.65,-131.8 766.38,-127.62 761.65,-122.46"/>
</a>
</g>
</g>
<!-- Node14&#45;&gt;Node12 -->
<g id="edge16_Node000014_Node000012" class="edge">
<title>Node14&#45;&gt;Node12</title>
<g id="a_edge16_Node000014_Node000012"><a xlink:title=" ">
<path fill="none" stroke="#63b8ff" d="M802.91,-103.03C792.36,-112.46 779.22,-123.34 768.09,-131.8"/>
<polygon fill="#63b8ff" stroke="#63b8ff" points="805.39,-105.5 810.4,-96.16 800.66,-100.35 805.39,-105.5"/>
</a>
</g>
</g>
</g>
</svg>
