<?xml version="1.0" encoding="UTF-8" standalone="no"?>
<!DOCTYPE svg PUBLIC "-//W3C//DTD SVG 1.1//EN"
 "http://www.w3.org/Graphics/SVG/1.1/DTD/svg11.dtd">
<!-- Generated by graphviz version 2.43.0 (0)
 -->
<!-- Title: mpqc/chemistry/qc/lcao/cc/cc_integrals.h Pages: 1 -->
<svg width="608pt" height="159pt"
 viewBox="0.00 0.00 608.00 159.00" xmlns="http://www.w3.org/2000/svg" xmlns:xlink="http://www.w3.org/1999/xlink">
<g id="graph0" class="graph" transform="scale(1 1) rotate(0) translate(4 155)">
<title>mpqc/chemistry/qc/lcao/cc/cc_integrals.h</title>
<!-- Node1 -->
<g id="Node000001" class="node">
<title>Node1</title>
<g id="a_Node000001"><a xlink:title=" ">
<polygon fill="#999999" stroke="#666666" points="492,-151 359,-151 359,-121 492,-121 492,-151"/>
<text text-anchor="start" x="367" y="-139" font-family="FreeSans" font-size="10.00">mpqc/chemistry/qc/lcao</text>
<text text-anchor="middle" x="425.5" y="-128" font-family="FreeSans" font-size="10.00">/cc/cc_integrals.h</text>
</a>
</g>
</g>
<!-- Node2 -->
<g id="Node000002" class="node">
<title>Node2</title>
<g id="a_Node000002"><a xlink:href="chemistry_2qc_2lcao_2cc_2fwd_8h.html" target="_top" xlink:title=" ">
<polygon fill="white" stroke="#666666" points="228,-85 95,-85 95,-55 228,-55 228,-85"/>
<text text-anchor="start" x="103" y="-73" font-family="FreeSans" font-size="10.00">mpqc/chemistry/qc/lcao</text>
<text text-anchor="middle" x="161.5" y="-62" font-family="FreeSans" font-size="10.00">/cc/fwd.h</text>
</a>
</g>
</g>
<!-- Node1&#45;&gt;Node2 -->
<g id="edge1_Node000001_Node000002" class="edge">
<title>Node1&#45;&gt;Node2</title>
<g id="a_edge1_Node000001_Node000002"><a xlink:title=" ">
<path fill="none" stroke="#63b8ff" d="M367.56,-120.95C326.73,-111.06 271.91,-97.77 229.08,-87.38"/>
<polygon fill="#63b8ff" stroke="#63b8ff" points="229.84,-83.97 219.3,-85.01 228.19,-90.77 229.84,-83.97"/>
</a>
</g>
</g>
<!-- Node5 -->
<g id="Node000005" class="node">
<title>Node5</title>
<g id="a_Node000005"><a xlink:href="device__tile_8h.html" target="_top" xlink:title=" ">
<polygon fill="white" stroke="#666666" points="378.5,-85 246.5,-85 246.5,-55 378.5,-55 378.5,-85"/>
<text text-anchor="start" x="254.5" y="-73" font-family="FreeSans" font-size="10.00">mpqc/math/external</text>
<text text-anchor="middle" x="312.5" y="-62" font-family="FreeSans" font-size="10.00">/tiledarray/device_tile.h</text>
</a>
</g>
</g>
<!-- Node1&#45;&gt;Node5 -->
<g id="edge4_Node000001_Node000005" class="edge">
<title>Node1&#45;&gt;Node5</title>
<g id="a_edge4_Node000001_Node000005"><a xlink:title=" ">
<path fill="none" stroke="#63b8ff" d="M400.7,-120.95C384.66,-111.87 363.57,-99.93 346.04,-90"/>
<polygon fill="#63b8ff" stroke="#63b8ff" points="347.67,-86.9 337.24,-85.01 344.22,-92.99 347.67,-86.9"/>
</a>
</g>
</g>
<!-- Node7 -->
<g id="Node000007" class="node">
<title>Node7</title>
<g id="a_Node000007"><a xlink:href="memory.html" target="_top" xlink:title=" ">
<polygon fill="white" stroke="#666666" points="454.5,-79.5 396.5,-79.5 396.5,-60.5 454.5,-60.5 454.5,-79.5"/>
<text text-anchor="middle" x="425.5" y="-67.5" font-family="FreeSans" font-size="10.00">memory</text>
</a>
</g>
</g>
<!-- Node1&#45;&gt;Node7 -->
<g id="edge6_Node000001_Node000007" class="edge">
<title>Node1&#45;&gt;Node7</title>
<g id="a_edge6_Node000001_Node000007"><a xlink:title=" ">
<path fill="none" stroke="#63b8ff" d="M425.5,-120.8C425.5,-111.7 425.5,-99.79 425.5,-89.9"/>
<polygon fill="#63b8ff" stroke="#63b8ff" points="429,-89.84 425.5,-79.84 422,-89.84 429,-89.84"/>
</a>
</g>
</g>
<!-- Node8 -->
<g id="Node000008" class="node">
<title>Node8</title>
<g id="a_Node000008"><a xlink:title=" ">
<polygon fill="#e0e0e0" stroke="#999999" points="534.5,-79.5 490.5,-79.5 490.5,-60.5 534.5,-60.5 534.5,-79.5"/>
<text text-anchor="middle" x="512.5" y="-67.5" font-family="FreeSans" font-size="10.00">string</text>
</a>
</g>
</g>
<!-- Node1&#45;&gt;Node8 -->
<g id="edge8_Node000001_Node000008" class="edge">
<title>Node1&#45;&gt;Node8</title>
<g id="a_edge8_Node000001_Node000008"><a xlink:title=" ">
<path fill="none" stroke="#63b8ff" d="M444.81,-120.8C458.99,-110.37 478.19,-96.24 492.52,-85.69"/>
<polygon fill="#63b8ff" stroke="#63b8ff" points="494.75,-88.4 500.73,-79.66 490.6,-82.76 494.75,-88.4"/>
</a>
</g>
</g>
<!-- Node9 -->
<g id="Node000009" class="node">
<title>Node9</title>
<g id="a_Node000009"><a xlink:title=" ">
<polygon fill="#e0e0e0" stroke="#999999" points="600,-79.5 553,-79.5 553,-60.5 600,-60.5 600,-79.5"/>
<text text-anchor="middle" x="576.5" y="-67.5" font-family="FreeSans" font-size="10.00">vector</text>
</a>
</g>
</g>
<!-- Node1&#45;&gt;Node9 -->
<g id="edge9_Node000001_Node000009" class="edge">
<title>Node1&#45;&gt;Node9</title>
<g id="a_edge9_Node000001_Node000009"><a xlink:title=" ">
<path fill="none" stroke="#63b8ff" d="M458.64,-120.95C485,-109.78 521.56,-94.29 546.94,-83.53"/>
<polygon fill="#63b8ff" stroke="#63b8ff" points="548.56,-86.64 556.4,-79.52 545.83,-80.2 548.56,-86.64"/>
</a>
</g>
</g>
<!-- Node3 -->
<g id="Node000003" class="node">
<title>Node3</title>
<g id="a_Node000003"><a xlink:title=" ">
<polygon fill="#e0e0e0" stroke="#999999" points="95,-19 0,-19 0,0 95,0 95,-19"/>
<text text-anchor="middle" x="47.5" y="-7" font-family="FreeSans" font-size="10.00">tiledarray_fwd.h</text>
</a>
</g>
</g>
<!-- Node2&#45;&gt;Node3 -->
<g id="edge2_Node000002_Node000003" class="edge">
<title>Node2&#45;&gt;Node3</title>
<g id="a_edge2_Node000002_Node000003"><a xlink:title=" ">
<path fill="none" stroke="#63b8ff" d="M134.19,-54.99C115.85,-45.58 91.82,-33.24 73.71,-23.95"/>
<polygon fill="#63b8ff" stroke="#63b8ff" points="74.83,-20.59 64.34,-19.14 71.63,-26.82 74.83,-20.59"/>
</a>
</g>
</g>
<!-- Node4 -->
<g id="Node000004" class="node">
<title>Node4</title>
<g id="a_Node000004"><a xlink:title=" ">
<polygon fill="#e0e0e0" stroke="#999999" points="230,-19 113,-19 113,0 230,0 230,-19"/>
<text text-anchor="middle" x="171.5" y="-7" font-family="FreeSans" font-size="10.00">mpqc/mpqc_config.h</text>
</a>
</g>
</g>
<!-- Node2&#45;&gt;Node4 -->
<g id="edge3_Node000002_Node000004" class="edge">
<title>Node2&#45;&gt;Node4</title>
<g id="a_edge3_Node000002_Node000004"><a xlink:title=" ">
<path fill="none" stroke="#63b8ff" d="M163.92,-54.84C165.24,-47.13 166.89,-37.49 168.31,-29.17"/>
<polygon fill="#63b8ff" stroke="#63b8ff" points="171.77,-29.71 170,-19.27 164.87,-28.53 171.77,-29.71"/>
</a>
</g>
</g>
<!-- Node6 -->
<g id="Node000006" class="node">
<title>Node6</title>
<g id="a_Node000006"><a xlink:title=" ">
<polygon fill="#e0e0e0" stroke="#999999" points="366.5,-19 258.5,-19 258.5,0 366.5,0 366.5,-19"/>
<text text-anchor="middle" x="312.5" y="-7" font-family="FreeSans" font-size="10.00">TiledArray/config.h</text>
</a>
</g>
</g>
<!-- Node5&#45;&gt;Node6 -->
<g id="edge5_Node000005_Node000006" class="edge">
<title>Node5&#45;&gt;Node6</title>
<g id="a_edge5_Node000005_Node000006"><a xlink:title=" ">
<path fill="none" stroke="#63b8ff" d="M312.5,-54.84C312.5,-47.21 312.5,-37.7 312.5,-29.45"/>
<polygon fill="#63b8ff" stroke="#63b8ff" points="316,-29.27 312.5,-19.27 309,-29.27 316,-29.27"/>
</a>
</g>
</g>
<!-- Node7&#45;&gt;Node7 -->
<g id="edge7_Node000007_Node000007" class="edge">
<title>Node7&#45;&gt;Node7</title>
<g id="a_edge7_Node000007_Node000007"><a xlink:title=" ">
<path fill="none" stroke="#63b8ff" d="M442.85,-79.53C457.35,-83.61 472.5,-80.43 472.5,-70 472.5,-62.01 463.62,-58.28 452.95,-58.8"/>
<polygon fill="#63b8ff" stroke="#63b8ff" points="452.15,-55.38 442.85,-60.47 453.29,-62.29 452.15,-55.38"/>
</a>
</g>
</g>
</g>
</svg>
