<?xml version="1.0" encoding="UTF-8" standalone="no"?>
<!DOCTYPE svg PUBLIC "-//W3C//DTD SVG 1.1//EN"
 "http://www.w3.org/Graphics/SVG/1.1/DTD/svg11.dtd">
<!-- Generated by graphviz version 2.43.0 (0)
 -->
<!-- Title: mpqc/chemistry/qc/lcao/cc/cck.ipp Pages: 1 -->
<svg width="520pt" height="368pt"
 viewBox="0.00 0.00 520.00 368.00" xmlns="http://www.w3.org/2000/svg" xmlns:xlink="http://www.w3.org/1999/xlink">
<g id="graph0" class="graph" transform="scale(1 1) rotate(0) translate(4 364)">
<title>mpqc/chemistry/qc/lcao/cc/cck.ipp</title>
<!-- Node1 -->
<g id="Node000001" class="node">
<title>Node1</title>
<g id="a_Node000001"><a xlink:title=" ">
<polygon fill="#999999" stroke="#666666" points="253,-360 120,-360 120,-330 253,-330 253,-360"/>
<text text-anchor="start" x="128" y="-348" font-family="FreeSans" font-size="10.00">mpqc/chemistry/qc/lcao</text>
<text text-anchor="middle" x="186.5" y="-337" font-family="FreeSans" font-size="10.00">/cc/cck.ipp</text>
</a>
</g>
</g>
<!-- Node2 -->
<g id="Node000002" class="node">
<title>Node2</title>
<g id="a_Node000002"><a xlink:href="cck_8cpp.html" target="_top" xlink:title=" ">
<polygon fill="white" stroke="#666666" points="162,-96 29,-96 29,-66 162,-66 162,-96"/>
<text text-anchor="start" x="37" y="-84" font-family="FreeSans" font-size="10.00">mpqc/chemistry/qc/lcao</text>
<text text-anchor="middle" x="95.5" y="-73" font-family="FreeSans" font-size="10.00">/cc/cck.cpp</text>
</a>
</g>
</g>
<!-- Node1&#45;&gt;Node2 -->
<g id="edge1_Node000001_Node000002" class="edge">
<title>Node1&#45;&gt;Node2</title>
<g id="a_edge1_Node000001_Node000002"><a xlink:title=" ">
<path fill="none" stroke="#63b8ff" d="M109.61,-330.82C69.91,-322.28 27.34,-309.8 15.5,-294 -32.86,-229.47 47.53,-132.34 81.48,-96.21"/>
<polygon fill="#63b8ff" stroke="#63b8ff" points="109.11,-334.29 119.62,-332.9 110.54,-327.44 109.11,-334.29"/>
</a>
</g>
</g>
<!-- Node3 -->
<g id="Node000003" class="node">
<title>Node3</title>
<g id="a_Node000003"><a xlink:href="cck_8h.html" target="_top" xlink:title=" ">
<polygon fill="white" stroke="#666666" points="311,-228 178,-228 178,-198 311,-198 311,-228"/>
<text text-anchor="start" x="186" y="-216" font-family="FreeSans" font-size="10.00">mpqc/chemistry/qc/lcao</text>
<text text-anchor="middle" x="244.5" y="-205" font-family="FreeSans" font-size="10.00">/cc/cck.h</text>
</a>
</g>
</g>
<!-- Node1&#45;&gt;Node3 -->
<g id="edge2_Node000001_Node000003" class="edge">
<title>Node1&#45;&gt;Node3</title>
<g id="a_edge2_Node000001_Node000003"><a xlink:title=" ">
<path fill="none" stroke="#63b8ff" d="M191.82,-320.04C201.73,-293.08 221.18,-250.21 233.79,-228.14"/>
<polygon fill="#63b8ff" stroke="#63b8ff" points="188.39,-319.25 188.42,-329.84 195,-321.54 188.39,-319.25"/>
</a>
</g>
</g>
<!-- Node4 -->
<g id="Node000004" class="node">
<title>Node4</title>
<g id="a_Node000004"><a xlink:href="cck__so__response_8ipp.html" target="_top" xlink:title=" ">
<polygon fill="white" stroke="#666666" points="209.5,-162 75.5,-162 75.5,-132 209.5,-132 209.5,-162"/>
<text text-anchor="start" x="83.5" y="-150" font-family="FreeSans" font-size="10.00">mpqc/chemistry/qc/lcao</text>
<text text-anchor="middle" x="142.5" y="-139" font-family="FreeSans" font-size="10.00">/cc/cck_so_response.ipp</text>
</a>
</g>
</g>
<!-- Node1&#45;&gt;Node4 -->
<g id="edge17_Node000001_Node000004" class="edge">
<title>Node1&#45;&gt;Node4</title>
<g id="a_edge17_Node000001_Node000004"><a xlink:title=" ">
<path fill="none" stroke="#63b8ff" d="M181.09,-319.89C171.82,-278.58 153.16,-195.48 145.7,-162.23"/>
<polygon fill="#63b8ff" stroke="#63b8ff" points="177.73,-320.91 183.34,-329.9 184.56,-319.38 177.73,-320.91"/>
</a>
</g>
</g>
<!-- Node9 -->
<g id="Node000009" class="node">
<title>Node9</title>
<g id="a_Node000009"><a xlink:href="cck__so_8ipp.html" target="_top" xlink:title=" ">
<polygon fill="white" stroke="#666666" points="158,-294 25,-294 25,-264 158,-264 158,-294"/>
<text text-anchor="start" x="33" y="-282" font-family="FreeSans" font-size="10.00">mpqc/chemistry/qc/lcao</text>
<text text-anchor="middle" x="91.5" y="-271" font-family="FreeSans" font-size="10.00">/cc/cck_so.ipp</text>
</a>
</g>
</g>
<!-- Node1&#45;&gt;Node9 -->
<g id="edge13_Node000001_Node000009" class="edge">
<title>Node1&#45;&gt;Node9</title>
<g id="a_edge13_Node000001_Node000009"><a xlink:title=" ">
<path fill="none" stroke="#63b8ff" d="M156.86,-324.03C142.48,-314.34 125.55,-302.94 112.53,-294.16"/>
<polygon fill="#63b8ff" stroke="#63b8ff" points="155.17,-327.11 165.42,-329.8 159.08,-321.31 155.17,-327.11"/>
</a>
</g>
</g>
<!-- Node3&#45;&gt;Node1 -->
<g id="edge3_Node000003_Node000001" class="edge">
<title>Node3&#45;&gt;Node1</title>
<g id="a_edge3_Node000003_Node000001"><a xlink:title=" ">
<path fill="none" stroke="#63b8ff" d="M239.19,-237.94C229.29,-264.89 209.84,-307.76 197.22,-329.84"/>
<polygon fill="#63b8ff" stroke="#63b8ff" points="242.62,-238.74 242.59,-228.14 236.01,-236.44 242.62,-238.74"/>
</a>
</g>
</g>
<!-- Node3&#45;&gt;Node4 -->
<g id="edge4_Node000003_Node000004" class="edge">
<title>Node3&#45;&gt;Node4</title>
<g id="a_edge4_Node000003_Node000004"><a xlink:title=" ">
<path fill="none" stroke="#63b8ff" d="M207.48,-192.69C190.92,-182.82 172.29,-171.01 159.14,-162.01"/>
<polygon fill="#63b8ff" stroke="#63b8ff" points="206.02,-195.9 216.42,-197.95 209.58,-189.87 206.02,-195.9"/>
</a>
</g>
</g>
<!-- Node5 -->
<g id="Node000005" class="node">
<title>Node5</title>
<g id="a_Node000005"><a xlink:href="eom__cck_8ipp.html" target="_top" xlink:title=" ">
<polygon fill="white" stroke="#666666" points="361,-162 228,-162 228,-132 361,-132 361,-162"/>
<text text-anchor="start" x="236" y="-150" font-family="FreeSans" font-size="10.00">mpqc/chemistry/qc/lcao</text>
<text text-anchor="middle" x="294.5" y="-139" font-family="FreeSans" font-size="10.00">/cc/eom_cck.ipp</text>
</a>
</g>
</g>
<!-- Node3&#45;&gt;Node5 -->
<g id="edge7_Node000003_Node000005" class="edge">
<title>Node3&#45;&gt;Node5</title>
<g id="a_edge7_Node000003_Node000005"><a xlink:title=" ">
<path fill="none" stroke="#63b8ff" d="M261.84,-189.81C269,-180.64 277.1,-170.28 283.44,-162.16"/>
<polygon fill="#63b8ff" stroke="#63b8ff" points="259,-187.76 255.6,-197.8 264.51,-192.07 259,-187.76"/>
</a>
</g>
</g>
<!-- Node6 -->
<g id="Node000006" class="node">
<title>Node6</title>
<g id="a_Node000006"><a xlink:href="cck__f12_8h.html" target="_top" xlink:title=" ">
<polygon fill="white" stroke="#666666" points="512,-162 379,-162 379,-132 512,-132 512,-162"/>
<text text-anchor="start" x="387" y="-150" font-family="FreeSans" font-size="10.00">mpqc/chemistry/qc/lcao</text>
<text text-anchor="middle" x="445.5" y="-139" font-family="FreeSans" font-size="10.00">/f12/cck_f12.h</text>
</a>
</g>
</g>
<!-- Node3&#45;&gt;Node6 -->
<g id="edge9_Node000003_Node000006" class="edge">
<title>Node3&#45;&gt;Node6</title>
<g id="a_edge9_Node000003_Node000006"><a xlink:title=" ">
<path fill="none" stroke="#63b8ff" d="M298.34,-194.86C330.62,-184.58 371.15,-171.68 401.49,-162.01"/>
<polygon fill="#63b8ff" stroke="#63b8ff" points="297.08,-191.59 288.61,-197.95 299.2,-198.26 297.08,-191.59"/>
</a>
</g>
</g>
<!-- Node4&#45;&gt;Node2 -->
<g id="edge5_Node000004_Node000002" class="edge">
<title>Node4&#45;&gt;Node2</title>
<g id="a_edge5_Node000004_Node000002"><a xlink:title=" ">
<path fill="none" stroke="#63b8ff" d="M126,-123.53C119.31,-114.43 111.8,-104.19 105.9,-96.16"/>
<polygon fill="#63b8ff" stroke="#63b8ff" points="123.33,-125.81 132.07,-131.8 128.97,-121.66 123.33,-125.81"/>
</a>
</g>
</g>
<!-- Node4&#45;&gt;Node3 -->
<g id="edge6_Node000004_Node000003" class="edge">
<title>Node4&#45;&gt;Node3</title>
<g id="a_edge6_Node000004_Node000003"><a xlink:title=" ">
<path fill="none" stroke="#63b8ff" d="M179.65,-167.38C196.06,-177.18 214.48,-188.85 227.58,-197.8"/>
<polygon fill="#63b8ff" stroke="#63b8ff" points="181.18,-164.22 170.79,-162.16 177.63,-170.25 181.18,-164.22"/>
</a>
</g>
</g>
<!-- Node5&#45;&gt;Node2 -->
<g id="edge8_Node000005_Node000002" class="edge">
<title>Node5&#45;&gt;Node2</title>
<g id="a_edge8_Node000005_Node000002"><a xlink:title=" ">
<path fill="none" stroke="#63b8ff" d="M241.2,-128.86C209.24,-118.58 169.12,-105.68 139.07,-96.01"/>
<polygon fill="#63b8ff" stroke="#63b8ff" points="240.24,-132.23 250.83,-131.95 242.38,-125.56 240.24,-132.23"/>
</a>
</g>
</g>
<!-- Node7 -->
<g id="Node000007" class="node">
<title>Node7</title>
<g id="a_Node000007"><a xlink:href="cck__f12_8ipp.html" target="_top" xlink:title=" ">
<polygon fill="white" stroke="#666666" points="512,-96 379,-96 379,-66 512,-66 512,-96"/>
<text text-anchor="start" x="387" y="-84" font-family="FreeSans" font-size="10.00">mpqc/chemistry/qc/lcao</text>
<text text-anchor="middle" x="445.5" y="-73" font-family="FreeSans" font-size="10.00">/f12/cck_f12.ipp</text>
</a>
</g>
</g>
<!-- Node6&#45;&gt;Node7 -->
<g id="edge10_Node000006_Node000007" class="edge">
<title>Node6&#45;&gt;Node7</title>
<g id="a_edge10_Node000006_Node000007"><a xlink:title=" ">
<path fill="none" stroke="#63b8ff" d="M438.93,-121.83C438.52,-113.17 438.81,-103.7 439.79,-96.16"/>
<polygon fill="#63b8ff" stroke="#63b8ff" points="435.45,-122.13 439.78,-131.8 442.42,-121.54 435.45,-122.13"/>
</a>
</g>
</g>
<!-- Node7&#45;&gt;Node6 -->
<g id="edge12_Node000007_Node000006" class="edge">
<title>Node7&#45;&gt;Node6</title>
<g id="a_edge12_Node000007_Node000006"><a xlink:title=" ">
<path fill="none" stroke="#63b8ff" d="M452.07,-106.13C452.48,-114.78 452.2,-124.26 451.22,-131.8"/>
<polygon fill="#63b8ff" stroke="#63b8ff" points="455.55,-105.83 451.22,-96.16 448.58,-106.43 455.55,-105.83"/>
</a>
</g>
</g>
<!-- Node8 -->
<g id="Node000008" class="node">
<title>Node8</title>
<g id="a_Node000008"><a xlink:href="cck__f12_8cpp.html" target="_top" xlink:title=" ">
<polygon fill="white" stroke="#666666" points="512,-30 379,-30 379,0 512,0 512,-30"/>
<text text-anchor="start" x="387" y="-18" font-family="FreeSans" font-size="10.00">mpqc/chemistry/qc/lcao</text>
<text text-anchor="middle" x="445.5" y="-7" font-family="FreeSans" font-size="10.00">/f12/cck_f12.cpp</text>
</a>
</g>
</g>
<!-- Node7&#45;&gt;Node8 -->
<g id="edge11_Node000007_Node000008" class="edge">
<title>Node7&#45;&gt;Node8</title>
<g id="a_edge11_Node000007_Node000008"><a xlink:title=" ">
<path fill="none" stroke="#63b8ff" d="M445.5,-55.54C445.5,-46.96 445.5,-37.61 445.5,-30.16"/>
<polygon fill="#63b8ff" stroke="#63b8ff" points="442,-55.8 445.5,-65.8 449,-55.8 442,-55.8"/>
</a>
</g>
</g>
<!-- Node9&#45;&gt;Node2 -->
<g id="edge14_Node000009_Node000002" class="edge">
<title>Node9&#45;&gt;Node2</title>
<g id="a_edge14_Node000009_Node000002"><a xlink:title=" ">
<path fill="none" stroke="#63b8ff" d="M81.26,-254.37C70.05,-225.26 55.09,-174.43 66.5,-132 70,-119.01 77.78,-105.92 84.4,-96.4"/>
<polygon fill="#63b8ff" stroke="#63b8ff" points="78.04,-255.75 85.02,-263.72 84.53,-253.13 78.04,-255.75"/>
</a>
</g>
</g>
<!-- Node9&#45;&gt;Node3 -->
<g id="edge15_Node000009_Node000003" class="edge">
<title>Node9&#45;&gt;Node3</title>
<g id="a_edge15_Node000009_Node000003"><a xlink:title=" ">
<path fill="none" stroke="#63b8ff" d="M134.4,-260.05C158.64,-249.91 188.5,-237.43 211,-228.01"/>
<polygon fill="#63b8ff" stroke="#63b8ff" points="132.95,-256.87 125.08,-263.95 135.65,-263.32 132.95,-256.87"/>
</a>
</g>
</g>
<!-- Node9&#45;&gt;Node4 -->
<g id="edge16_Node000009_Node000004" class="edge">
<title>Node9&#45;&gt;Node4</title>
<g id="a_edge16_Node000009_Node000004"><a xlink:title=" ">
<path fill="none" stroke="#63b8ff" d="M100.76,-254.39C111.33,-227.46 128.26,-184.31 136.95,-162.14"/>
<polygon fill="#63b8ff" stroke="#63b8ff" points="97.45,-253.25 97.06,-263.84 103.97,-255.81 97.45,-253.25"/>
</a>
</g>
</g>
</g>
</svg>
