<?xml version="1.0" encoding="UTF-8" standalone="no"?>
<!DOCTYPE svg PUBLIC "-//W3C//DTD SVG 1.1//EN"
 "http://www.w3.org/Graphics/SVG/1.1/DTD/svg11.dtd">
<!-- Generated by graphviz version 2.43.0 (0)
 -->
<!-- Title: mpqc/chemistry/qc/lcao/cc/cck_so.ipp Pages: 1 -->
<svg width="519pt" height="302pt"
 viewBox="0.00 0.00 519.37 302.00" xmlns="http://www.w3.org/2000/svg" xmlns:xlink="http://www.w3.org/1999/xlink">
<g id="graph0" class="graph" transform="scale(1 1) rotate(0) translate(4 298)">
<title>mpqc/chemistry/qc/lcao/cc/cck_so.ipp</title>
<!-- Node1 -->
<g id="Node000001" class="node">
<title>Node1</title>
<g id="a_Node000001"><a xlink:title=" ">
<polygon fill="#999999" stroke="#666666" points="187.37,-294 54.37,-294 54.37,-264 187.37,-264 187.37,-294"/>
<text text-anchor="start" x="62.37" y="-282" font-family="FreeSans" font-size="10.00">mpqc/chemistry/qc/lcao</text>
<text text-anchor="middle" x="120.87" y="-271" font-family="FreeSans" font-size="10.00">/cc/cck_so.ipp</text>
</a>
</g>
</g>
<!-- Node2 -->
<g id="Node000002" class="node">
<title>Node2</title>
<g id="a_Node000002"><a xlink:href="cck_8cpp.html" target="_top" xlink:title=" ">
<polygon fill="white" stroke="#666666" points="161.37,-30 28.37,-30 28.37,0 161.37,0 161.37,-30"/>
<text text-anchor="start" x="36.37" y="-18" font-family="FreeSans" font-size="10.00">mpqc/chemistry/qc/lcao</text>
<text text-anchor="middle" x="94.87" y="-7" font-family="FreeSans" font-size="10.00">/cc/cck.cpp</text>
</a>
</g>
</g>
<!-- Node1&#45;&gt;Node2 -->
<g id="edge1_Node000001_Node000002" class="edge">
<title>Node1&#45;&gt;Node2</title>
<g id="a_edge1_Node000001_Node000002"><a xlink:title=" ">
<path fill="none" stroke="#63b8ff" d="M89.8,-257.82C61.63,-237.49 21.96,-203.25 4.87,-162 -16.66,-110.01 42.65,-55.21 75.18,-30.08"/>
<polygon fill="#63b8ff" stroke="#63b8ff" points="87.95,-260.8 98.14,-263.68 91.97,-255.07 87.95,-260.8"/>
</a>
</g>
</g>
<!-- Node3 -->
<g id="Node000003" class="node">
<title>Node3</title>
<g id="a_Node000003"><a xlink:href="cck_8h.html" target="_top" xlink:title=" ">
<polygon fill="white" stroke="#666666" points="325.37,-228 192.37,-228 192.37,-198 325.37,-198 325.37,-228"/>
<text text-anchor="start" x="200.37" y="-216" font-family="FreeSans" font-size="10.00">mpqc/chemistry/qc/lcao</text>
<text text-anchor="middle" x="258.87" y="-205" font-family="FreeSans" font-size="10.00">/cc/cck.h</text>
</a>
</g>
</g>
<!-- Node1&#45;&gt;Node3 -->
<g id="edge2_Node000001_Node000003" class="edge">
<title>Node1&#45;&gt;Node3</title>
<g id="a_edge2_Node000001_Node000003"><a xlink:title=" ">
<path fill="none" stroke="#63b8ff" d="M160.44,-259.65C182.15,-249.58 208.63,-237.3 228.66,-228.01"/>
<polygon fill="#63b8ff" stroke="#63b8ff" points="158.76,-256.57 151.16,-263.95 161.7,-262.92 158.76,-256.57"/>
</a>
</g>
</g>
<!-- Node5 -->
<g id="Node000005" class="node">
<title>Node5</title>
<g id="a_Node000005"><a xlink:href="cck__so__response_8ipp.html" target="_top" xlink:title=" ">
<polygon fill="white" stroke="#666666" points="208.87,-96 74.87,-96 74.87,-66 208.87,-66 208.87,-96"/>
<text text-anchor="start" x="82.87" y="-84" font-family="FreeSans" font-size="10.00">mpqc/chemistry/qc/lcao</text>
<text text-anchor="middle" x="141.87" y="-73" font-family="FreeSans" font-size="10.00">/cc/cck_so_response.ipp</text>
</a>
</g>
</g>
<!-- Node1&#45;&gt;Node5 -->
<g id="edge17_Node000001_Node000005" class="edge">
<title>Node1&#45;&gt;Node5</title>
<g id="a_edge17_Node000001_Node000005"><a xlink:title=" ">
<path fill="none" stroke="#63b8ff" d="M132.12,-254.48C144.5,-225.85 161.9,-175.89 155.87,-132 154.18,-119.68 150.24,-106.11 146.97,-96.22"/>
<polygon fill="#63b8ff" stroke="#63b8ff" points="128.89,-253.12 128,-263.67 135.28,-255.98 128.89,-253.12"/>
</a>
</g>
</g>
<!-- Node4 -->
<g id="Node000004" class="node">
<title>Node4</title>
<g id="a_Node000004"><a xlink:href="cck_8ipp.html" target="_top" xlink:title=" ">
<polygon fill="white" stroke="#666666" points="147.37,-162 14.37,-162 14.37,-132 147.37,-132 147.37,-162"/>
<text text-anchor="start" x="22.37" y="-150" font-family="FreeSans" font-size="10.00">mpqc/chemistry/qc/lcao</text>
<text text-anchor="middle" x="80.87" y="-139" font-family="FreeSans" font-size="10.00">/cc/cck.ipp</text>
</a>
</g>
</g>
<!-- Node3&#45;&gt;Node4 -->
<g id="edge3_Node000003_Node000004" class="edge">
<title>Node3&#45;&gt;Node4</title>
<g id="a_edge3_Node000003_Node000004"><a xlink:title=" ">
<path fill="none" stroke="#63b8ff" d="M204.37,-194.59C174.9,-184.36 139.53,-171.59 114.15,-162.01"/>
<polygon fill="#63b8ff" stroke="#63b8ff" points="203.51,-198 214.11,-197.95 205.8,-191.38 203.51,-198"/>
</a>
</g>
</g>
<!-- Node3&#45;&gt;Node5 -->
<g id="edge10_Node000003_Node000005" class="edge">
<title>Node3&#45;&gt;Node5</title>
<g id="a_edge10_Node000003_Node000005"><a xlink:title=" ">
<path fill="none" stroke="#63b8ff" d="M233.46,-190.51C218.13,-174.25 198.59,-151.47 180.87,-132 169.7,-119.72 156.62,-106.15 148.35,-96.25"/>
<polygon fill="#63b8ff" stroke="#63b8ff" points="231.16,-193.17 240.63,-197.93 236.2,-188.31 231.16,-193.17"/>
</a>
</g>
</g>
<!-- Node6 -->
<g id="Node000006" class="node">
<title>Node6</title>
<g id="a_Node000006"><a xlink:href="eom__cck_8ipp.html" target="_top" xlink:title=" ">
<polygon fill="white" stroke="#666666" points="360.37,-96 227.37,-96 227.37,-66 360.37,-66 360.37,-96"/>
<text text-anchor="start" x="235.37" y="-84" font-family="FreeSans" font-size="10.00">mpqc/chemistry/qc/lcao</text>
<text text-anchor="middle" x="293.87" y="-73" font-family="FreeSans" font-size="10.00">/cc/eom_cck.ipp</text>
</a>
</g>
</g>
<!-- Node3&#45;&gt;Node6 -->
<g id="edge11_Node000003_Node000006" class="edge">
<title>Node3&#45;&gt;Node6</title>
<g id="a_edge11_Node000003_Node000006"><a xlink:title=" ">
<path fill="none" stroke="#63b8ff" d="M265.32,-188.04C272.58,-161.08 284.12,-118.21 290.06,-96.14"/>
<polygon fill="#63b8ff" stroke="#63b8ff" points="261.9,-187.27 262.68,-197.84 268.66,-189.09 261.9,-187.27"/>
</a>
</g>
</g>
<!-- Node7 -->
<g id="Node000007" class="node">
<title>Node7</title>
<g id="a_Node000007"><a xlink:href="cck__f12_8h.html" target="_top" xlink:title=" ">
<polygon fill="white" stroke="#666666" points="511.37,-162 378.37,-162 378.37,-132 511.37,-132 511.37,-162"/>
<text text-anchor="start" x="386.37" y="-150" font-family="FreeSans" font-size="10.00">mpqc/chemistry/qc/lcao</text>
<text text-anchor="middle" x="444.87" y="-139" font-family="FreeSans" font-size="10.00">/f12/cck_f12.h</text>
</a>
</g>
</g>
<!-- Node3&#45;&gt;Node7 -->
<g id="edge13_Node000003_Node000007" class="edge">
<title>Node3&#45;&gt;Node7</title>
<g id="a_edge13_Node000003_Node000007"><a xlink:title=" ">
<path fill="none" stroke="#63b8ff" d="M309.47,-194.59C339.21,-184.36 376.31,-171.59 404.15,-162.01"/>
<polygon fill="#63b8ff" stroke="#63b8ff" points="308.01,-191.39 299.69,-197.95 310.29,-198.01 308.01,-191.39"/>
</a>
</g>
</g>
<!-- Node4&#45;&gt;Node1 -->
<g id="edge6_Node000004_Node000001" class="edge">
<title>Node4&#45;&gt;Node1</title>
<g id="a_edge6_Node000004_Node000001"><a xlink:title=" ">
<path fill="none" stroke="#63b8ff" d="M88.24,-171.94C96.53,-198.89 109.72,-241.76 116.52,-263.84"/>
<polygon fill="#63b8ff" stroke="#63b8ff" points="91.51,-170.67 85.22,-162.14 84.82,-172.73 91.51,-170.67"/>
</a>
</g>
</g>
<!-- Node4&#45;&gt;Node2 -->
<g id="edge4_Node000004_Node000002" class="edge">
<title>Node4&#45;&gt;Node2</title>
<g id="a_edge4_Node000004_Node000002"><a xlink:title=" ">
<path fill="none" stroke="#63b8ff" d="M70.9,-122.33C65.49,-106.29 60.84,-84.69 65.87,-66 69.37,-53.01 77.15,-39.92 83.77,-30.4"/>
<polygon fill="#63b8ff" stroke="#63b8ff" points="67.72,-123.81 74.47,-131.98 74.28,-121.39 67.72,-123.81"/>
</a>
</g>
</g>
<!-- Node4&#45;&gt;Node3 -->
<g id="edge5_Node000004_Node000003" class="edge">
<title>Node4&#45;&gt;Node3</title>
<g id="a_edge5_Node000004_Node000003"><a xlink:title=" ">
<path fill="none" stroke="#63b8ff" d="M135.28,-165.37C164.73,-175.6 200.1,-188.37 225.51,-197.95"/>
<polygon fill="#63b8ff" stroke="#63b8ff" points="136.13,-161.97 125.54,-162.01 133.85,-168.58 136.13,-161.97"/>
</a>
</g>
</g>
<!-- Node4&#45;&gt;Node5 -->
<g id="edge7_Node000004_Node000005" class="edge">
<title>Node4&#45;&gt;Node5</title>
<g id="a_edge7_Node000004_Node000005"><a xlink:title=" ">
<path fill="none" stroke="#63b8ff" d="M101.49,-124.37C110.36,-115.06 120.48,-104.44 128.37,-96.16"/>
<polygon fill="#63b8ff" stroke="#63b8ff" points="98.78,-122.14 94.41,-131.8 103.84,-126.97 98.78,-122.14"/>
</a>
</g>
</g>
<!-- Node5&#45;&gt;Node2 -->
<g id="edge8_Node000005_Node000002" class="edge">
<title>Node5&#45;&gt;Node2</title>
<g id="a_edge8_Node000005_Node000002"><a xlink:title=" ">
<path fill="none" stroke="#63b8ff" d="M125.37,-57.53C118.68,-48.43 111.17,-38.19 105.27,-30.16"/>
<polygon fill="#63b8ff" stroke="#63b8ff" points="122.7,-59.81 131.44,-65.8 128.34,-55.66 122.7,-59.81"/>
</a>
</g>
</g>
<!-- Node5&#45;&gt;Node3 -->
<g id="edge9_Node000005_Node000003" class="edge">
<title>Node5&#45;&gt;Node3</title>
<g id="a_edge9_Node000005_Node000003"><a xlink:title=" ">
<path fill="none" stroke="#63b8ff" d="M171.05,-103.22C180.25,-112.02 190.14,-122.41 198.87,-132 219.49,-154.65 242.57,-181.8 253.63,-197.93"/>
<polygon fill="#63b8ff" stroke="#63b8ff" points="173.24,-100.48 163.53,-96.25 168.49,-105.61 173.24,-100.48"/>
</a>
</g>
</g>
<!-- Node6&#45;&gt;Node2 -->
<g id="edge12_Node000006_Node000002" class="edge">
<title>Node6&#45;&gt;Node2</title>
<g id="a_edge12_Node000006_Node000002"><a xlink:title=" ">
<path fill="none" stroke="#63b8ff" d="M240.57,-62.86C208.61,-52.58 168.49,-39.68 138.44,-30.01"/>
<polygon fill="#63b8ff" stroke="#63b8ff" points="239.61,-66.23 250.2,-65.95 241.75,-59.56 239.61,-66.23"/>
</a>
</g>
</g>
<!-- Node8 -->
<g id="Node000008" class="node">
<title>Node8</title>
<g id="a_Node000008"><a xlink:href="cck__f12_8ipp.html" target="_top" xlink:title=" ">
<polygon fill="white" stroke="#666666" points="511.37,-96 378.37,-96 378.37,-66 511.37,-66 511.37,-96"/>
<text text-anchor="start" x="386.37" y="-84" font-family="FreeSans" font-size="10.00">mpqc/chemistry/qc/lcao</text>
<text text-anchor="middle" x="444.87" y="-73" font-family="FreeSans" font-size="10.00">/f12/cck_f12.ipp</text>
</a>
</g>
</g>
<!-- Node7&#45;&gt;Node8 -->
<g id="edge14_Node000007_Node000008" class="edge">
<title>Node7&#45;&gt;Node8</title>
<g id="a_edge14_Node000007_Node000008"><a xlink:title=" ">
<path fill="none" stroke="#63b8ff" d="M438.3,-121.83C437.89,-113.17 438.18,-103.7 439.16,-96.16"/>
<polygon fill="#63b8ff" stroke="#63b8ff" points="434.82,-122.13 439.15,-131.8 441.79,-121.54 434.82,-122.13"/>
</a>
</g>
</g>
<!-- Node8&#45;&gt;Node7 -->
<g id="edge16_Node000008_Node000007" class="edge">
<title>Node8&#45;&gt;Node7</title>
<g id="a_edge16_Node000008_Node000007"><a xlink:title=" ">
<path fill="none" stroke="#63b8ff" d="M451.44,-106.13C451.85,-114.78 451.57,-124.26 450.59,-131.8"/>
<polygon fill="#63b8ff" stroke="#63b8ff" points="454.92,-105.83 450.59,-96.16 447.95,-106.43 454.92,-105.83"/>
</a>
</g>
</g>
<!-- Node9 -->
<g id="Node000009" class="node">
<title>Node9</title>
<g id="a_Node000009"><a xlink:href="cck__f12_8cpp.html" target="_top" xlink:title=" ">
<polygon fill="white" stroke="#666666" points="511.37,-30 378.37,-30 378.37,0 511.37,0 511.37,-30"/>
<text text-anchor="start" x="386.37" y="-18" font-family="FreeSans" font-size="10.00">mpqc/chemistry/qc/lcao</text>
<text text-anchor="middle" x="444.87" y="-7" font-family="FreeSans" font-size="10.00">/f12/cck_f12.cpp</text>
</a>
</g>
</g>
<!-- Node8&#45;&gt;Node9 -->
<g id="edge15_Node000008_Node000009" class="edge">
<title>Node8&#45;&gt;Node9</title>
<g id="a_edge15_Node000008_Node000009"><a xlink:title=" ">
<path fill="none" stroke="#63b8ff" d="M444.87,-55.54C444.87,-46.96 444.87,-37.61 444.87,-30.16"/>
<polygon fill="#63b8ff" stroke="#63b8ff" points="441.37,-55.8 444.87,-65.8 448.37,-55.8 441.37,-55.8"/>
</a>
</g>
</g>
</g>
</svg>
