<?xml version="1.0" encoding="UTF-8" standalone="no"?>
<!DOCTYPE svg PUBLIC "-//W3C//DTD SVG 1.1//EN"
 "http://www.w3.org/Graphics/SVG/1.1/DTD/svg11.dtd">
<!-- Generated by graphviz version 2.43.0 (0)
 -->
<!-- Title: mpqc/chemistry/qc/lcao/cc/cck_so_response.ipp Pages: 1 -->
<svg width="498pt" height="302pt"
 viewBox="0.00 0.00 497.51 302.00" xmlns="http://www.w3.org/2000/svg" xmlns:xlink="http://www.w3.org/1999/xlink">
<g id="graph0" class="graph" transform="scale(1 1) rotate(0) translate(4 298)">
<title>mpqc/chemistry/qc/lcao/cc/cck_so_response.ipp</title>
<!-- Node1 -->
<g id="Node000001" class="node">
<title>Node1</title>
<g id="a_Node000001"><a xlink:title=" ">
<polygon fill="#999999" stroke="#666666" points="244.01,-294 110.01,-294 110.01,-264 244.01,-264 244.01,-294"/>
<text text-anchor="start" x="118.01" y="-282" font-family="FreeSans" font-size="10.00">mpqc/chemistry/qc/lcao</text>
<text text-anchor="middle" x="177.01" y="-271" font-family="FreeSans" font-size="10.00">/cc/cck_so_response.ipp</text>
</a>
</g>
</g>
<!-- Node2 -->
<g id="Node000002" class="node">
<title>Node2</title>
<g id="a_Node000002"><a xlink:href="cck_8cpp.html" target="_top" xlink:title=" ">
<polygon fill="white" stroke="#666666" points="140.51,-30 7.51,-30 7.51,0 140.51,0 140.51,-30"/>
<text text-anchor="start" x="15.51" y="-18" font-family="FreeSans" font-size="10.00">mpqc/chemistry/qc/lcao</text>
<text text-anchor="middle" x="74.01" y="-7" font-family="FreeSans" font-size="10.00">/cc/cck.cpp</text>
</a>
</g>
</g>
<!-- Node1&#45;&gt;Node2 -->
<g id="edge1_Node000001_Node000002" class="edge">
<title>Node1&#45;&gt;Node2</title>
<g id="a_edge1_Node000001_Node000002"><a xlink:title=" ">
<path fill="none" stroke="#63b8ff" d="M128.31,-259.95C87.66,-241.97 32.4,-210.07 7.01,-162 -17.87,-114.9 31.67,-56.81 58.43,-30.35"/>
<polygon fill="#63b8ff" stroke="#63b8ff" points="126.96,-263.18 137.53,-263.9 129.71,-256.74 126.96,-263.18"/>
</a>
</g>
</g>
<!-- Node3 -->
<g id="Node000003" class="node">
<title>Node3</title>
<g id="a_Node000003"><a xlink:href="cck_8h.html" target="_top" xlink:title=" ">
<polygon fill="white" stroke="#666666" points="338.51,-228 205.51,-228 205.51,-198 338.51,-198 338.51,-228"/>
<text text-anchor="start" x="213.51" y="-216" font-family="FreeSans" font-size="10.00">mpqc/chemistry/qc/lcao</text>
<text text-anchor="middle" x="272.01" y="-205" font-family="FreeSans" font-size="10.00">/cc/cck.h</text>
</a>
</g>
</g>
<!-- Node1&#45;&gt;Node3 -->
<g id="edge2_Node000001_Node000003" class="edge">
<title>Node1&#45;&gt;Node3</title>
<g id="a_edge2_Node000001_Node000003"><a xlink:title=" ">
<path fill="none" stroke="#63b8ff" d="M200.73,-257.75C214.3,-248.13 231.23,-236.86 245.27,-228.16"/>
<polygon fill="#63b8ff" stroke="#63b8ff" points="198.43,-255.1 192.37,-263.8 202.53,-260.78 198.43,-255.1"/>
</a>
</g>
</g>
<!-- Node3&#45;&gt;Node1 -->
<g id="edge11_Node000003_Node000001" class="edge">
<title>Node3&#45;&gt;Node1</title>
<g id="a_edge11_Node000003_Node000001"><a xlink:title=" ">
<path fill="none" stroke="#63b8ff" d="M248.49,-234.1C234.83,-243.8 217.7,-255.2 203.55,-263.95"/>
<polygon fill="#63b8ff" stroke="#63b8ff" points="250.85,-236.71 256.9,-228.01 246.75,-231.04 250.85,-236.71"/>
</a>
</g>
</g>
<!-- Node4 -->
<g id="Node000004" class="node">
<title>Node4</title>
<g id="a_Node000004"><a xlink:href="cck_8ipp.html" target="_top" xlink:title=" ">
<polygon fill="white" stroke="#666666" points="149.51,-162 16.51,-162 16.51,-132 149.51,-132 149.51,-162"/>
<text text-anchor="start" x="24.51" y="-150" font-family="FreeSans" font-size="10.00">mpqc/chemistry/qc/lcao</text>
<text text-anchor="middle" x="83.01" y="-139" font-family="FreeSans" font-size="10.00">/cc/cck.ipp</text>
</a>
</g>
</g>
<!-- Node3&#45;&gt;Node4 -->
<g id="edge3_Node000003_Node000004" class="edge">
<title>Node3&#45;&gt;Node4</title>
<g id="a_edge3_Node000003_Node000004"><a xlink:title=" ">
<path fill="none" stroke="#63b8ff" d="M214.92,-194.72C183.62,-184.47 145.84,-171.63 118.69,-162.01"/>
<polygon fill="#63b8ff" stroke="#63b8ff" points="214.24,-198.18 224.83,-197.95 216.41,-191.53 214.24,-198.18"/>
</a>
</g>
</g>
<!-- Node6 -->
<g id="Node000006" class="node">
<title>Node6</title>
<g id="a_Node000006"><a xlink:href="eom__cck_8ipp.html" target="_top" xlink:title=" ">
<polygon fill="white" stroke="#666666" points="338.51,-96 205.51,-96 205.51,-66 338.51,-66 338.51,-96"/>
<text text-anchor="start" x="213.51" y="-84" font-family="FreeSans" font-size="10.00">mpqc/chemistry/qc/lcao</text>
<text text-anchor="middle" x="272.01" y="-73" font-family="FreeSans" font-size="10.00">/cc/eom_cck.ipp</text>
</a>
</g>
</g>
<!-- Node3&#45;&gt;Node6 -->
<g id="edge12_Node000003_Node000006" class="edge">
<title>Node3&#45;&gt;Node6</title>
<g id="a_edge12_Node000003_Node000006"><a xlink:title=" ">
<path fill="none" stroke="#63b8ff" d="M272.01,-187.68C272.01,-160.7 272.01,-118.11 272.01,-96.14"/>
<polygon fill="#63b8ff" stroke="#63b8ff" points="268.51,-187.84 272.01,-197.84 275.51,-187.84 268.51,-187.84"/>
</a>
</g>
</g>
<!-- Node7 -->
<g id="Node000007" class="node">
<title>Node7</title>
<g id="a_Node000007"><a xlink:href="cck__f12_8h.html" target="_top" xlink:title=" ">
<polygon fill="white" stroke="#666666" points="489.51,-162 356.51,-162 356.51,-132 489.51,-132 489.51,-162"/>
<text text-anchor="start" x="364.51" y="-150" font-family="FreeSans" font-size="10.00">mpqc/chemistry/qc/lcao</text>
<text text-anchor="middle" x="423.01" y="-139" font-family="FreeSans" font-size="10.00">/f12/cck_f12.h</text>
</a>
</g>
</g>
<!-- Node3&#45;&gt;Node7 -->
<g id="edge14_Node000003_Node000007" class="edge">
<title>Node3&#45;&gt;Node7</title>
<g id="a_edge14_Node000003_Node000007"><a xlink:title=" ">
<path fill="none" stroke="#63b8ff" d="M314.67,-193.92C338.53,-183.8 367.84,-171.38 389.95,-162.01"/>
<polygon fill="#63b8ff" stroke="#63b8ff" points="312.99,-190.83 305.14,-197.95 315.72,-197.28 312.99,-190.83"/>
</a>
</g>
</g>
<!-- Node4&#45;&gt;Node1 -->
<g id="edge10_Node000004_Node000001" class="edge">
<title>Node4&#45;&gt;Node1</title>
<g id="a_edge10_Node000004_Node000001"><a xlink:title=" ">
<path fill="none" stroke="#63b8ff" d="M99.3,-170.53C118.7,-197.36 150.52,-241.37 166.77,-263.84"/>
<polygon fill="#63b8ff" stroke="#63b8ff" points="101.93,-168.19 93.23,-162.14 96.26,-172.3 101.93,-168.19"/>
</a>
</g>
</g>
<!-- Node4&#45;&gt;Node2 -->
<g id="edge4_Node000004_Node000002" class="edge">
<title>Node4&#45;&gt;Node2</title>
<g id="a_edge4_Node000004_Node000002"><a xlink:title=" ">
<path fill="none" stroke="#63b8ff" d="M61.55,-124.19C54.92,-116.02 48.45,-106.23 45.01,-96 40.75,-83.36 41.54,-78.88 45.01,-66 48.5,-53.01 56.28,-39.92 62.91,-30.4"/>
<polygon fill="#63b8ff" stroke="#63b8ff" points="58.93,-126.52 68.13,-131.77 64.22,-121.93 58.93,-126.52"/>
</a>
</g>
</g>
<!-- Node4&#45;&gt;Node3 -->
<g id="edge5_Node000004_Node000003" class="edge">
<title>Node4&#45;&gt;Node3</title>
<g id="a_edge5_Node000004_Node000003"><a xlink:title=" ">
<path fill="none" stroke="#63b8ff" d="M139.99,-165.24C171.28,-175.49 209.06,-188.33 236.23,-197.95"/>
<polygon fill="#63b8ff" stroke="#63b8ff" points="140.67,-161.78 130.08,-162.01 138.51,-168.44 140.67,-161.78"/>
</a>
</g>
</g>
<!-- Node5 -->
<g id="Node000005" class="node">
<title>Node5</title>
<g id="a_Node000005"><a xlink:href="cck__so_8ipp.html" target="_top" xlink:title=" ">
<polygon fill="white" stroke="#666666" points="187.51,-96 54.51,-96 54.51,-66 187.51,-66 187.51,-96"/>
<text text-anchor="start" x="62.51" y="-84" font-family="FreeSans" font-size="10.00">mpqc/chemistry/qc/lcao</text>
<text text-anchor="middle" x="121.01" y="-73" font-family="FreeSans" font-size="10.00">/cc/cck_so.ipp</text>
</a>
</g>
</g>
<!-- Node4&#45;&gt;Node5 -->
<g id="edge6_Node000004_Node000005" class="edge">
<title>Node4&#45;&gt;Node5</title>
<g id="a_edge6_Node000004_Node000005"><a xlink:title=" ">
<path fill="none" stroke="#63b8ff" d="M96.69,-122.96C102,-114 107.93,-104.03 112.6,-96.16"/>
<polygon fill="#63b8ff" stroke="#63b8ff" points="93.54,-121.41 91.44,-131.8 99.56,-124.98 93.54,-121.41"/>
</a>
</g>
</g>
<!-- Node5&#45;&gt;Node1 -->
<g id="edge9_Node000005_Node000001" class="edge">
<title>Node5&#45;&gt;Node1</title>
<g id="a_edge9_Node000005_Node000001"><a xlink:title=" ">
<path fill="none" stroke="#63b8ff" d="M141.09,-104.05C147.51,-112.27 153.99,-122.04 158.01,-132 176.36,-177.52 177.87,-236.88 177.48,-263.72"/>
<polygon fill="#63b8ff" stroke="#63b8ff" points="143.59,-101.58 134.52,-96.1 138.19,-106.04 143.59,-101.58"/>
</a>
</g>
</g>
<!-- Node5&#45;&gt;Node2 -->
<g id="edge7_Node000005_Node000002" class="edge">
<title>Node5&#45;&gt;Node2</title>
<g id="a_edge7_Node000005_Node000002"><a xlink:title=" ">
<path fill="none" stroke="#63b8ff" d="M104.5,-57.53C97.82,-48.43 90.31,-38.19 84.41,-30.16"/>
<polygon fill="#63b8ff" stroke="#63b8ff" points="101.84,-59.81 110.58,-65.8 107.48,-55.66 101.84,-59.81"/>
</a>
</g>
</g>
<!-- Node5&#45;&gt;Node3 -->
<g id="edge8_Node000005_Node000003" class="edge">
<title>Node5&#45;&gt;Node3</title>
<g id="a_edge8_Node000005_Node000003"><a xlink:title=" ">
<path fill="none" stroke="#63b8ff" d="M151.67,-101.9C164.51,-110.65 179.35,-121.35 192.01,-132 217.41,-153.37 244.14,-181.39 259.37,-197.97"/>
<polygon fill="#63b8ff" stroke="#63b8ff" points="153.41,-98.85 143.16,-96.17 149.5,-104.65 153.41,-98.85"/>
</a>
</g>
</g>
<!-- Node6&#45;&gt;Node2 -->
<g id="edge13_Node000006_Node000002" class="edge">
<title>Node6&#45;&gt;Node2</title>
<g id="a_edge13_Node000006_Node000002"><a xlink:title=" ">
<path fill="none" stroke="#63b8ff" d="M218.97,-62.86C187.18,-52.58 147.25,-39.68 117.36,-30.01"/>
<polygon fill="#63b8ff" stroke="#63b8ff" points="217.96,-66.21 228.56,-65.95 220.12,-59.55 217.96,-66.21"/>
</a>
</g>
</g>
<!-- Node8 -->
<g id="Node000008" class="node">
<title>Node8</title>
<g id="a_Node000008"><a xlink:href="cck__f12_8ipp.html" target="_top" xlink:title=" ">
<polygon fill="white" stroke="#666666" points="489.51,-96 356.51,-96 356.51,-66 489.51,-66 489.51,-96"/>
<text text-anchor="start" x="364.51" y="-84" font-family="FreeSans" font-size="10.00">mpqc/chemistry/qc/lcao</text>
<text text-anchor="middle" x="423.01" y="-73" font-family="FreeSans" font-size="10.00">/f12/cck_f12.ipp</text>
</a>
</g>
</g>
<!-- Node7&#45;&gt;Node8 -->
<g id="edge15_Node000007_Node000008" class="edge">
<title>Node7&#45;&gt;Node8</title>
<g id="a_edge15_Node000007_Node000008"><a xlink:title=" ">
<path fill="none" stroke="#63b8ff" d="M416.44,-121.83C416.03,-113.17 416.31,-103.7 417.29,-96.16"/>
<polygon fill="#63b8ff" stroke="#63b8ff" points="412.95,-122.13 417.29,-131.8 419.93,-121.54 412.95,-122.13"/>
</a>
</g>
</g>
<!-- Node8&#45;&gt;Node7 -->
<g id="edge17_Node000008_Node000007" class="edge">
<title>Node8&#45;&gt;Node7</title>
<g id="a_edge17_Node000008_Node000007"><a xlink:title=" ">
<path fill="none" stroke="#63b8ff" d="M429.57,-106.13C429.99,-114.78 429.7,-124.26 428.73,-131.8"/>
<polygon fill="#63b8ff" stroke="#63b8ff" points="433.06,-105.83 428.72,-96.16 426.09,-106.43 433.06,-105.83"/>
</a>
</g>
</g>
<!-- Node9 -->
<g id="Node000009" class="node">
<title>Node9</title>
<g id="a_Node000009"><a xlink:href="cck__f12_8cpp.html" target="_top" xlink:title=" ">
<polygon fill="white" stroke="#666666" points="489.51,-30 356.51,-30 356.51,0 489.51,0 489.51,-30"/>
<text text-anchor="start" x="364.51" y="-18" font-family="FreeSans" font-size="10.00">mpqc/chemistry/qc/lcao</text>
<text text-anchor="middle" x="423.01" y="-7" font-family="FreeSans" font-size="10.00">/f12/cck_f12.cpp</text>
</a>
</g>
</g>
<!-- Node8&#45;&gt;Node9 -->
<g id="edge16_Node000008_Node000009" class="edge">
<title>Node8&#45;&gt;Node9</title>
<g id="a_edge16_Node000008_Node000009"><a xlink:title=" ">
<path fill="none" stroke="#63b8ff" d="M423.01,-55.54C423.01,-46.96 423.01,-37.61 423.01,-30.16"/>
<polygon fill="#63b8ff" stroke="#63b8ff" points="419.51,-55.8 423.01,-65.8 426.51,-55.8 419.51,-55.8"/>
</a>
</g>
</g>
</g>
</svg>
