<?xml version="1.0" encoding="UTF-8" standalone="no"?>
<!DOCTYPE svg PUBLIC "-//W3C//DTD SVG 1.1//EN"
 "http://www.w3.org/Graphics/SVG/1.1/DTD/svg11.dtd">
<!-- Generated by graphviz version 2.43.0 (0)
 -->
<!-- Title: mpqc/chemistry/qc/lcao/cc/ccsdt_approximations.h Pages: 1 -->
<svg width="300pt" height="302pt"
 viewBox="0.00 0.00 300.00 302.00" xmlns="http://www.w3.org/2000/svg" xmlns:xlink="http://www.w3.org/1999/xlink">

<svg id="main" version="1.1" xmlns="http://www.w3.org/2000/svg" xmlns:xlink="http://www.w3.org/1999/xlink" xml:space="preserve" onload="init(evt)">
<style type="text/css"><![CDATA[
.node, .edge {opacity: 0.7;}
.node.selected, .edge.selected {opacity: 1;}
.edge:hover path { stroke: red; }
.edge:hover polygon { stroke: red; fill: red; }
]]></style>
<script type="application/ecmascript" xlink:href="svg.min.js"/>
<svg id="graph" class="graph">
<g id="graph0" class="graph" transform="scale(1 1) rotate(0) translate(4 298)">
<title>mpqc/chemistry/qc/lcao/cc/ccsdt_approximations.h</title>
<!-- Node1 -->
<g id="Node000001" class="node">
<title>Node1</title>
<g id="a_Node000001"><a xlink:title=" ">
<polygon fill="#999999" stroke="#666666" points="292,-294 143,-294 143,-264 292,-264 292,-294"/>
<text text-anchor="start" x="151" y="-282" font-family="FreeSans" font-size="10.00">mpqc/chemistry/qc/lcao</text>
<text text-anchor="middle" x="217.5" y="-271" font-family="FreeSans" font-size="10.00">/cc/ccsdt_approximations.h</text>
</a>
</g>
</g>
<!-- Node2 -->
<g id="Node000002" class="node">
<title>Node2</title>
<g id="a_Node000002"><a xlink:href="ccsdt__residual_8ipp.html" target="_top" xlink:title=" ">
<polygon fill="white" stroke="#666666" points="284,-228 151,-228 151,-198 284,-198 284,-228"/>
<text text-anchor="start" x="159" y="-216" font-family="FreeSans" font-size="10.00">mpqc/chemistry/qc/lcao</text>
<text text-anchor="middle" x="217.5" y="-205" font-family="FreeSans" font-size="10.00">/cc/ccsdt_residual.ipp</text>
</a>
</g>
</g>
<!-- Node1&#45;&gt;Node2 -->
<g id="edge1_Node000001_Node000002" class="edge">
<title>Node1&#45;&gt;Node2</title>
<g id="a_edge1_Node000001_Node000002"><a xlink:title=" ">
<path fill="none" stroke="#63b8ff" d="M217.5,-253.54C217.5,-244.96 217.5,-235.61 217.5,-228.16"/>
<polygon fill="#63b8ff" stroke="#63b8ff" points="214,-253.8 217.5,-263.8 221,-253.8 214,-253.8"/>
</a>
</g>
</g>
<!-- Node3 -->
<g id="Node000003" class="node">
<title>Node3</title>
<g id="a_Node000003"><a xlink:href="ccsdt__residual_8cpp.html" target="_top" xlink:title=" ">
<polygon fill="white" stroke="#666666" points="133,-162 0,-162 0,-132 133,-132 133,-162"/>
<text text-anchor="start" x="8" y="-150" font-family="FreeSans" font-size="10.00">mpqc/chemistry/qc/lcao</text>
<text text-anchor="middle" x="66.5" y="-139" font-family="FreeSans" font-size="10.00">/cc/ccsdt_residual.cpp</text>
</a>
</g>
</g>
<!-- Node2&#45;&gt;Node3 -->
<g id="edge2_Node000002_Node000003" class="edge">
<title>Node2&#45;&gt;Node3</title>
<g id="a_edge2_Node000002_Node000003"><a xlink:title=" ">
<path fill="none" stroke="#63b8ff" d="M174.84,-193.92C150.97,-183.8 121.67,-171.38 99.56,-162.01"/>
<polygon fill="#63b8ff" stroke="#63b8ff" points="173.79,-197.28 184.36,-197.95 176.52,-190.83 173.79,-197.28"/>
</a>
</g>
</g>
<!-- Node4 -->
<g id="Node000004" class="node">
<title>Node4</title>
<g id="a_Node000004"><a xlink:href="ccsdt__residual_8h.html" target="_top" xlink:title=" ">
<polygon fill="white" stroke="#666666" points="284,-162 151,-162 151,-132 284,-132 284,-162"/>
<text text-anchor="start" x="159" y="-150" font-family="FreeSans" font-size="10.00">mpqc/chemistry/qc/lcao</text>
<text text-anchor="middle" x="217.5" y="-139" font-family="FreeSans" font-size="10.00">/cc/ccsdt_residual.h</text>
</a>
</g>
</g>
<!-- Node2&#45;&gt;Node4 -->
<g id="edge3_Node000002_Node000004" class="edge">
<title>Node2&#45;&gt;Node4</title>
<g id="a_edge3_Node000002_Node000004"><a xlink:title=" ">
<path fill="none" stroke="#63b8ff" d="M210.93,-187.83C210.52,-179.17 210.81,-169.7 211.79,-162.16"/>
<polygon fill="#63b8ff" stroke="#63b8ff" points="207.45,-188.13 211.78,-197.8 214.42,-187.54 207.45,-188.13"/>
</a>
</g>
</g>
<!-- Node4&#45;&gt;Node2 -->
<g id="edge8_Node000004_Node000002" class="edge">
<title>Node4&#45;&gt;Node2</title>
<g id="a_edge8_Node000004_Node000002"><a xlink:title=" ">
<path fill="none" stroke="#63b8ff" d="M224.07,-172.13C224.48,-180.78 224.2,-190.26 223.22,-197.8"/>
<polygon fill="#63b8ff" stroke="#63b8ff" points="227.55,-171.83 223.21,-162.16 220.58,-172.43 227.55,-171.83"/>
</a>
</g>
</g>
<!-- Node5 -->
<g id="Node000005" class="node">
<title>Node5</title>
<g id="a_Node000005"><a xlink:href="ccsdt_8ipp.html" target="_top" xlink:title=" ">
<polygon fill="white" stroke="#666666" points="284,-96 151,-96 151,-66 284,-66 284,-96"/>
<text text-anchor="start" x="159" y="-84" font-family="FreeSans" font-size="10.00">mpqc/chemistry/qc/lcao</text>
<text text-anchor="middle" x="217.5" y="-73" font-family="FreeSans" font-size="10.00">/cc/ccsdt.ipp</text>
</a>
</g>
</g>
<!-- Node4&#45;&gt;Node5 -->
<g id="edge4_Node000004_Node000005" class="edge">
<title>Node4&#45;&gt;Node5</title>
<g id="a_edge4_Node000004_Node000005"><a xlink:title=" ">
<path fill="none" stroke="#63b8ff" d="M217.5,-121.54C217.5,-112.96 217.5,-103.61 217.5,-96.16"/>
<polygon fill="#63b8ff" stroke="#63b8ff" points="214,-121.8 217.5,-131.8 221,-121.8 214,-121.8"/>
</a>
</g>
</g>
<!-- Node6 -->
<g id="Node000006" class="node">
<title>Node6</title>
<g id="a_Node000006"><a xlink:href="ccsdt_8cpp.html" target="_top" xlink:title=" ">
<polygon fill="white" stroke="#666666" points="133,-30 0,-30 0,0 133,0 133,-30"/>
<text text-anchor="start" x="8" y="-18" font-family="FreeSans" font-size="10.00">mpqc/chemistry/qc/lcao</text>
<text text-anchor="middle" x="66.5" y="-7" font-family="FreeSans" font-size="10.00">/cc/ccsdt.cpp</text>
</a>
</g>
</g>
<!-- Node5&#45;&gt;Node6 -->
<g id="edge5_Node000005_Node000006" class="edge">
<title>Node5&#45;&gt;Node6</title>
<g id="a_edge5_Node000005_Node000006"><a xlink:title=" ">
<path fill="none" stroke="#63b8ff" d="M174.84,-61.92C150.97,-51.8 121.67,-39.38 99.56,-30.01"/>
<polygon fill="#63b8ff" stroke="#63b8ff" points="173.79,-65.28 184.36,-65.95 176.52,-58.83 173.79,-65.28"/>
</a>
</g>
</g>
<!-- Node7 -->
<g id="Node000007" class="node">
<title>Node7</title>
<g id="a_Node000007"><a xlink:href="ccsdt_8h.html" target="_top" xlink:title=" ">
<polygon fill="white" stroke="#666666" points="284,-30 151,-30 151,0 284,0 284,-30"/>
<text text-anchor="start" x="159" y="-18" font-family="FreeSans" font-size="10.00">mpqc/chemistry/qc/lcao</text>
<text text-anchor="middle" x="217.5" y="-7" font-family="FreeSans" font-size="10.00">/cc/ccsdt.h</text>
</a>
</g>
</g>
<!-- Node5&#45;&gt;Node7 -->
<g id="edge6_Node000005_Node000007" class="edge">
<title>Node5&#45;&gt;Node7</title>
<g id="a_edge6_Node000005_Node000007"><a xlink:title=" ">
<path fill="none" stroke="#63b8ff" d="M210.93,-55.83C210.52,-47.17 210.81,-37.7 211.79,-30.16"/>
<polygon fill="#63b8ff" stroke="#63b8ff" points="207.45,-56.13 211.78,-65.8 214.42,-55.54 207.45,-56.13"/>
</a>
</g>
</g>
<!-- Node7&#45;&gt;Node5 -->
<g id="edge7_Node000007_Node000005" class="edge">
<title>Node7&#45;&gt;Node5</title>
<g id="a_edge7_Node000007_Node000005"><a xlink:title=" ">
<path fill="none" stroke="#63b8ff" d="M224.07,-40.13C224.48,-48.78 224.2,-58.26 223.22,-65.8"/>
<polygon fill="#63b8ff" stroke="#63b8ff" points="227.55,-39.83 223.21,-30.16 220.58,-40.43 227.55,-39.83"/>
</a>
</g>
</g>
</g>
</svg>
</svg>

<style type='text/css'>
<![CDATA[
[data-mouse-over-selected='false'] { opacity: 0.7; }
[data-mouse-over-selected='true']  { opacity: 1.0; }
]]>
</style>
<script type="application/ecmascript"><![CDATA[
document.addEventListener('DOMContentLoaded', (event) => {
  highlightEdges();
  highlightAdjacentNodes();
});
]]></script>
</svg>
