<?xml version="1.0" encoding="UTF-8" standalone="no"?>
<!DOCTYPE svg PUBLIC "-//W3C//DTD SVG 1.1//EN"
 "http://www.w3.org/Graphics/SVG/1.1/DTD/svg11.dtd">
<!-- Generated by graphviz version 2.43.0 (0)
 -->
<!-- Title: mpqc/chemistry/qc/lcao/cc/ccsdt_residual.h Pages: 1 -->
<svg width="443pt" height="170pt"
 viewBox="0.00 0.00 443.00 170.00" xmlns="http://www.w3.org/2000/svg" xmlns:xlink="http://www.w3.org/1999/xlink">
<g id="graph0" class="graph" transform="scale(1 1) rotate(0) translate(4 166)">
<title>mpqc/chemistry/qc/lcao/cc/ccsdt_residual.h</title>
<!-- Node1 -->
<g id="Node000001" class="node">
<title>Node1</title>
<g id="a_Node000001"><a xlink:title=" ">
<polygon fill="#999999" stroke="#666666" points="435,-162 302,-162 302,-132 435,-132 435,-162"/>
<text text-anchor="start" x="310" y="-150" font-family="FreeSans" font-size="10.00">mpqc/chemistry/qc/lcao</text>
<text text-anchor="middle" x="368.5" y="-139" font-family="FreeSans" font-size="10.00">/cc/ccsdt_residual.h</text>
</a>
</g>
</g>
<!-- Node2 -->
<g id="Node000002" class="node">
<title>Node2</title>
<g id="a_Node000002"><a xlink:href="ccsdt_8ipp.html" target="_top" xlink:title=" ">
<polygon fill="white" stroke="#666666" points="284,-96 151,-96 151,-66 284,-66 284,-96"/>
<text text-anchor="start" x="159" y="-84" font-family="FreeSans" font-size="10.00">mpqc/chemistry/qc/lcao</text>
<text text-anchor="middle" x="217.5" y="-73" font-family="FreeSans" font-size="10.00">/cc/ccsdt.ipp</text>
</a>
</g>
</g>
<!-- Node1&#45;&gt;Node2 -->
<g id="edge1_Node000001_Node000002" class="edge">
<title>Node1&#45;&gt;Node2</title>
<g id="a_edge1_Node000001_Node000002"><a xlink:title=" ">
<path fill="none" stroke="#63b8ff" d="M325.84,-127.92C301.97,-117.8 272.67,-105.38 250.56,-96.01"/>
<polygon fill="#63b8ff" stroke="#63b8ff" points="324.79,-131.28 335.36,-131.95 327.52,-124.83 324.79,-131.28"/>
</a>
</g>
</g>
<!-- Node5 -->
<g id="Node000005" class="node">
<title>Node5</title>
<g id="a_Node000005"><a xlink:href="ccsdt__residual_8ipp.html" target="_top" xlink:title=" ">
<polygon fill="white" stroke="#666666" points="435,-96 302,-96 302,-66 435,-66 435,-96"/>
<text text-anchor="start" x="310" y="-84" font-family="FreeSans" font-size="10.00">mpqc/chemistry/qc/lcao</text>
<text text-anchor="middle" x="368.5" y="-73" font-family="FreeSans" font-size="10.00">/cc/ccsdt_residual.ipp</text>
</a>
</g>
</g>
<!-- Node1&#45;&gt;Node5 -->
<g id="edge5_Node000001_Node000005" class="edge">
<title>Node1&#45;&gt;Node5</title>
<g id="a_edge5_Node000001_Node000005"><a xlink:title=" ">
<path fill="none" stroke="#63b8ff" d="M361.93,-121.83C361.52,-113.17 361.81,-103.7 362.79,-96.16"/>
<polygon fill="#63b8ff" stroke="#63b8ff" points="358.45,-122.13 362.78,-131.8 365.42,-121.54 358.45,-122.13"/>
</a>
</g>
</g>
<!-- Node3 -->
<g id="Node000003" class="node">
<title>Node3</title>
<g id="a_Node000003"><a xlink:href="ccsdt_8cpp.html" target="_top" xlink:title=" ">
<polygon fill="white" stroke="#666666" points="133,-30 0,-30 0,0 133,0 133,-30"/>
<text text-anchor="start" x="8" y="-18" font-family="FreeSans" font-size="10.00">mpqc/chemistry/qc/lcao</text>
<text text-anchor="middle" x="66.5" y="-7" font-family="FreeSans" font-size="10.00">/cc/ccsdt.cpp</text>
</a>
</g>
</g>
<!-- Node2&#45;&gt;Node3 -->
<g id="edge2_Node000002_Node000003" class="edge">
<title>Node2&#45;&gt;Node3</title>
<g id="a_edge2_Node000002_Node000003"><a xlink:title=" ">
<path fill="none" stroke="#63b8ff" d="M174.84,-61.92C150.97,-51.8 121.67,-39.38 99.56,-30.01"/>
<polygon fill="#63b8ff" stroke="#63b8ff" points="173.79,-65.28 184.36,-65.95 176.52,-58.83 173.79,-65.28"/>
</a>
</g>
</g>
<!-- Node4 -->
<g id="Node000004" class="node">
<title>Node4</title>
<g id="a_Node000004"><a xlink:href="ccsdt_8h.html" target="_top" xlink:title=" ">
<polygon fill="white" stroke="#666666" points="284,-30 151,-30 151,0 284,0 284,-30"/>
<text text-anchor="start" x="159" y="-18" font-family="FreeSans" font-size="10.00">mpqc/chemistry/qc/lcao</text>
<text text-anchor="middle" x="217.5" y="-7" font-family="FreeSans" font-size="10.00">/cc/ccsdt.h</text>
</a>
</g>
</g>
<!-- Node2&#45;&gt;Node4 -->
<g id="edge3_Node000002_Node000004" class="edge">
<title>Node2&#45;&gt;Node4</title>
<g id="a_edge3_Node000002_Node000004"><a xlink:title=" ">
<path fill="none" stroke="#63b8ff" d="M210.93,-55.83C210.52,-47.17 210.81,-37.7 211.79,-30.16"/>
<polygon fill="#63b8ff" stroke="#63b8ff" points="207.45,-56.13 211.78,-65.8 214.42,-55.54 207.45,-56.13"/>
</a>
</g>
</g>
<!-- Node4&#45;&gt;Node2 -->
<g id="edge4_Node000004_Node000002" class="edge">
<title>Node4&#45;&gt;Node2</title>
<g id="a_edge4_Node000004_Node000002"><a xlink:title=" ">
<path fill="none" stroke="#63b8ff" d="M224.07,-40.13C224.48,-48.78 224.2,-58.26 223.22,-65.8"/>
<polygon fill="#63b8ff" stroke="#63b8ff" points="227.55,-39.83 223.21,-30.16 220.58,-40.43 227.55,-39.83"/>
</a>
</g>
</g>
<!-- Node5&#45;&gt;Node1 -->
<g id="edge7_Node000005_Node000001" class="edge">
<title>Node5&#45;&gt;Node1</title>
<g id="a_edge7_Node000005_Node000001"><a xlink:title=" ">
<path fill="none" stroke="#63b8ff" d="M375.07,-106.13C375.48,-114.78 375.2,-124.26 374.22,-131.8"/>
<polygon fill="#63b8ff" stroke="#63b8ff" points="378.55,-105.83 374.21,-96.16 371.58,-106.43 378.55,-105.83"/>
</a>
</g>
</g>
<!-- Node6 -->
<g id="Node000006" class="node">
<title>Node6</title>
<g id="a_Node000006"><a xlink:href="ccsdt__residual_8cpp.html" target="_top" xlink:title=" ">
<polygon fill="white" stroke="#666666" points="435,-30 302,-30 302,0 435,0 435,-30"/>
<text text-anchor="start" x="310" y="-18" font-family="FreeSans" font-size="10.00">mpqc/chemistry/qc/lcao</text>
<text text-anchor="middle" x="368.5" y="-7" font-family="FreeSans" font-size="10.00">/cc/ccsdt_residual.cpp</text>
</a>
</g>
</g>
<!-- Node5&#45;&gt;Node6 -->
<g id="edge6_Node000005_Node000006" class="edge">
<title>Node5&#45;&gt;Node6</title>
<g id="a_edge6_Node000005_Node000006"><a xlink:title=" ">
<path fill="none" stroke="#63b8ff" d="M368.5,-55.54C368.5,-46.96 368.5,-37.61 368.5,-30.16"/>
<polygon fill="#63b8ff" stroke="#63b8ff" points="365,-55.8 368.5,-65.8 372,-55.8 365,-55.8"/>
</a>
</g>
</g>
</g>
</svg>
