<?xml version="1.0" encoding="UTF-8" standalone="no"?>
<!DOCTYPE svg PUBLIC "-//W3C//DTD SVG 1.1//EN"
 "http://www.w3.org/Graphics/SVG/1.1/DTD/svg11.dtd">
<!-- Generated by graphviz version 2.43.0 (0)
 -->
<!-- Title: mpqc/chemistry/qc/lcao/cc/ccsd_response.h Pages: 1 -->
<!--zoomable 500 -->

<svg id="main" version="1.1" xmlns="http://www.w3.org/2000/svg" xmlns:xlink="http://www.w3.org/1999/xlink" xml:space="preserve" onload="init(evt)">
<style type="text/css"><![CDATA[
.node, .edge {opacity: 0.7;}
.node.selected, .edge.selected {opacity: 1;}
.edge:hover path { stroke: red; }
.edge:hover polygon { stroke: red; fill: red; }
]]></style>

<defs>
  <circle id="rim" cx="0" cy="0" r="7"/>
  <circle id="rim2" cx="0" cy="0" r="3.5"/>
  <g id="zoomPlus">
    <use xlink:href="#rim" fill="#404040"><set attributeName="fill" to="#808080" begin="zoomplus.mouseover" end="zoomplus.mouseout"/></use>
    <path d="M-4,0h8M0,-4v8" fill="none" stroke="white" stroke-width="1.5" pointer-events="none"/>
  </g>
  <g id="zoomMin">
    <use xlink:href="#rim" fill="#404040"><set attributeName="fill" to="#808080" begin="zoomminus.mouseover" end="zoomminus.mouseout"/></use>
    <path d="M-4,0h8" fill="none" stroke="white" stroke-width="1.5" pointer-events="none"/>
  </g>
  <g id="arrowUp" transform="translate(30 24)">
    <use xlink:href="#rim"/>
    <path pointer-events="none" fill="none" stroke="white" stroke-width="1.5" d="M0,-3.0v7 M-2.5,-0.5L0,-3.0L2.5,-0.5"/>
  </g>
  <g id="arrowRight" transform="rotate(90) translate(36 -43)">
    <use xlink:href="#rim"/>
    <path pointer-events="none" fill="none" stroke="white" stroke-width="1.5" d="M0,-3.0v7 M-2.5,-0.5L0,-3.0L2.5,-0.5"/>
  </g>
  <g id="arrowDown" transform="rotate(180) translate(-30 -48)">
    <use xlink:href="#rim"/>
    <path pointer-events="none" fill="none" stroke="white" stroke-width="1.5" d="M0,-3.0v7 M-2.5,-0.5L0,-3.0L2.5,-0.5"/>
  </g>
  <g id="arrowLeft" transform="rotate(270) translate(-36 17)">
    <use xlink:href="#rim"/>
    <path pointer-events="none" fill="none" stroke="white" stroke-width="1.5" d="M0,-3.0v7 M-2.5,-0.5L0,-3.0L2.5,-0.5"/>
  </g>
  <g id="resetDef">
    <use xlink:href="#rim2" fill="#404040"><set attributeName="fill" to="#808080" begin="reset.mouseover" end="reset.mouseout"/></use>
  </g>
</defs>
<script type="application/ecmascript">
var viewWidth = 1128;
var viewHeight = 500;
var sectionId = 'dynsection-1';
</script>
<script type="application/ecmascript" xlink:href="svg.min.js"/>
<svg id="graph" class="graph">
<g id="viewport">
<title>mpqc/chemistry/qc/lcao/cc/ccsd_response.h</title>
<!-- Node1 -->
<g id="Node000001" class="node">
<title>Node1</title>
<g id="a_Node000001"><a xlink:title=" ">
<polygon fill="#999999" stroke="#666666" points="555.5,-492 422.5,-492 422.5,-462 555.5,-462 555.5,-492"/>
<text text-anchor="start" x="430.5" y="-480" font-family="FreeSans" font-size="10.00">mpqc/chemistry/qc/lcao</text>
<text text-anchor="middle" x="489" y="-469" font-family="FreeSans" font-size="10.00">/cc/ccsd_response.h</text>
</a>
</g>
</g>
<!-- Node2 -->
<g id="Node000002" class="node">
<title>Node2</title>
<g id="a_Node000002"><a xlink:href="ccsd_8ipp.html" target="_top" xlink:title=" ">
<polygon fill="white" stroke="#666666" points="508.5,-426 375.5,-426 375.5,-396 508.5,-396 508.5,-426"/>
<text text-anchor="start" x="383.5" y="-414" font-family="FreeSans" font-size="10.00">mpqc/chemistry/qc/lcao</text>
<text text-anchor="middle" x="442" y="-403" font-family="FreeSans" font-size="10.00">/cc/ccsd.ipp</text>
</a>
</g>
</g>
<!-- Node1&#45;&gt;Node2 -->
<g id="edge1_Node000001_Node000002" class="edge">
<title>Node1&#45;&gt;Node2</title>
<g id="a_edge1_Node000001_Node000002"><a xlink:title=" ">
<path fill="none" stroke="#63b8ff" d="M472.5,-453.53C465.81,-444.43 458.3,-434.19 452.4,-426.16"/>
<polygon fill="#63b8ff" stroke="#63b8ff" points="469.83,-455.81 478.57,-461.8 475.47,-451.66 469.83,-455.81"/>
</a>
</g>
</g>
<!-- Node3 -->
<g id="Node000003" class="node">
<title>Node3</title>
<g id="a_Node000003"><a xlink:href="ccsd_8cpp.html" target="_top" xlink:title=" ">
<polygon fill="white" stroke="#666666" points="405.5,-360 272.5,-360 272.5,-330 405.5,-330 405.5,-360"/>
<text text-anchor="start" x="280.5" y="-348" font-family="FreeSans" font-size="10.00">mpqc/chemistry/qc/lcao</text>
<text text-anchor="middle" x="339" y="-337" font-family="FreeSans" font-size="10.00">/cc/ccsd.cpp</text>
</a>
</g>
</g>
<!-- Node2&#45;&gt;Node3 -->
<g id="edge2_Node000002_Node000003" class="edge">
<title>Node2&#45;&gt;Node3</title>
<g id="a_edge2_Node000002_Node000003"><a xlink:title=" ">
<path fill="none" stroke="#63b8ff" d="M410.49,-390.42C394.68,-380.6 375.9,-368.93 361.55,-360.01"/>
<polygon fill="#63b8ff" stroke="#63b8ff" points="409.06,-393.65 419.4,-395.95 412.75,-387.7 409.06,-393.65"/>
</a>
</g>
</g>
<!-- Node4 -->
<g id="Node000004" class="node">
<title>Node4</title>
<g id="a_Node000004"><a xlink:href="ccsd_8h.html" target="_top" xlink:title=" ">
<polygon fill="white" stroke="#666666" points="556.5,-360 423.5,-360 423.5,-330 556.5,-330 556.5,-360"/>
<text text-anchor="start" x="431.5" y="-348" font-family="FreeSans" font-size="10.00">mpqc/chemistry/qc/lcao</text>
<text text-anchor="middle" x="490" y="-337" font-family="FreeSans" font-size="10.00">/cc/ccsd.h</text>
</a>
</g>
</g>
<!-- Node2&#45;&gt;Node4 -->
<g id="edge3_Node000002_Node000004" class="edge">
<title>Node2&#45;&gt;Node4</title>
<g id="a_edge3_Node000002_Node000004"><a xlink:title=" ">
<path fill="none" stroke="#63b8ff" d="M452.57,-387.24C458.83,-378.21 466.67,-368.11 473.66,-360.16"/>
<polygon fill="#63b8ff" stroke="#63b8ff" points="449.52,-385.52 446.93,-395.8 455.36,-389.38 449.52,-385.52"/>
</a>
</g>
</g>
<!-- Node4&#45;&gt;Node1 -->
<g id="edge7_Node000004_Node000001" class="edge">
<title>Node4&#45;&gt;Node1</title>
<g id="a_edge7_Node000004_Node000001"><a xlink:title=" ">
<path fill="none" stroke="#63b8ff" d="M505.34,-368.71C510.04,-376.94 514.61,-386.55 517,-396 520.27,-408.93 520.37,-413.1 517,-426 513.58,-439.09 505.89,-452.39 499.44,-461.97"/>
<polygon fill="#63b8ff" stroke="#63b8ff" points="508.27,-366.8 500.07,-360.08 502.29,-370.44 508.27,-366.8"/>
</a>
</g>
</g>
<!-- Node4&#45;&gt;Node2 -->
<g id="edge6_Node000004_Node000002" class="edge">
<title>Node4&#45;&gt;Node2</title>
<g id="a_edge6_Node000004_Node000002"><a xlink:title=" ">
<path fill="none" stroke="#63b8ff" d="M479.46,-368.71C473.21,-377.74 465.37,-387.84 458.37,-395.8"/>
<polygon fill="#63b8ff" stroke="#63b8ff" points="482.51,-370.44 485.09,-360.16 476.67,-366.59 482.51,-370.44"/>
</a>
</g>
</g>
<!-- Node5 -->
<g id="Node000005" class="node">
<title>Node5</title>
<g id="a_Node000005"><a xlink:href="cc_8h.html" target="_top" xlink:title=" ">
<polygon fill="white" stroke="#666666" points="149.5,-294 4.5,-294 4.5,-264 149.5,-264 149.5,-294"/>
<text text-anchor="start" x="12.5" y="-282" font-family="FreeSans" font-size="10.00">/home/runner/work/mpqc4</text>
<text text-anchor="middle" x="77" y="-271" font-family="FreeSans" font-size="10.00">/mpqc4/python/src/cc.h</text>
</a>
</g>
</g>
<!-- Node4&#45;&gt;Node5 -->
<g id="edge4_Node000004_Node000005" class="edge">
<title>Node4&#45;&gt;Node5</title>
<g id="a_edge4_Node000004_Node000005"><a xlink:title=" ">
<path fill="none" stroke="#63b8ff" d="M413.13,-329.9C299.32,-311.61 268.89,-311.13 159,-294 156,-293.53 152.95,-293.05 149.86,-292.55"/>
<polygon fill="#63b8ff" stroke="#63b8ff" points="412.87,-333.41 423.3,-331.55 413.99,-326.5 412.87,-333.41"/>
</a>
</g>
</g>
<!-- Node7 -->
<g id="Node000007" class="node">
<title>Node7</title>
<g id="a_Node000007"><a xlink:href="eom__ccsd_8h.html" target="_top" xlink:title=" ">
<polygon fill="white" stroke="#666666" points="301.5,-294 168.5,-294 168.5,-264 301.5,-264 301.5,-294"/>
<text text-anchor="start" x="176.5" y="-282" font-family="FreeSans" font-size="10.00">mpqc/chemistry/qc/lcao</text>
<text text-anchor="middle" x="235" y="-271" font-family="FreeSans" font-size="10.00">/cc/eom/eom_ccsd.h</text>
</a>
</g>
</g>
<!-- Node4&#45;&gt;Node7 -->
<g id="edge8_Node000004_Node000007" class="edge">
<title>Node4&#45;&gt;Node7</title>
<g id="a_edge8_Node000004_Node000007"><a xlink:title=" ">
<path fill="none" stroke="#63b8ff" d="M424.33,-327.52C382.97,-317.14 330.16,-303.88 290.83,-294.01"/>
<polygon fill="#63b8ff" stroke="#63b8ff" points="423.49,-330.92 434.04,-329.95 425.19,-324.13 423.49,-330.92"/>
</a>
</g>
</g>
<!-- Node10 -->
<g id="Node000010" class="node">
<title>Node10</title>
<g id="a_Node000010"><a xlink:href="eom__ea__ccsd_8h.html" target="_top" xlink:title=" ">
<polygon fill="white" stroke="#666666" points="457.5,-294 324.5,-294 324.5,-264 457.5,-264 457.5,-294"/>
<text text-anchor="start" x="332.5" y="-282" font-family="FreeSans" font-size="10.00">mpqc/chemistry/qc/lcao</text>
<text text-anchor="middle" x="391" y="-271" font-family="FreeSans" font-size="10.00">/cc/eom/eom_ea_ccsd.h</text>
</a>
</g>
</g>
<!-- Node4&#45;&gt;Node10 -->
<g id="edge12_Node000004_Node000010" class="edge">
<title>Node4&#45;&gt;Node10</title>
<g id="a_edge12_Node000004_Node000010"><a xlink:title=" ">
<path fill="none" stroke="#63b8ff" d="M459.53,-324.3C444.46,-314.56 426.61,-303.02 412.91,-294.16"/>
<polygon fill="#63b8ff" stroke="#63b8ff" points="457.73,-327.31 468.03,-329.8 461.53,-321.43 457.73,-327.31"/>
</a>
</g>
</g>
<!-- Node13 -->
<g id="Node000013" class="node">
<title>Node13</title>
<g id="a_Node000013"><a xlink:href="eom__ip__ccsd_8h.html" target="_top" xlink:title=" ">
<polygon fill="white" stroke="#666666" points="585.5,-162 452.5,-162 452.5,-132 585.5,-132 585.5,-162"/>
<text text-anchor="start" x="460.5" y="-150" font-family="FreeSans" font-size="10.00">mpqc/chemistry/qc/lcao</text>
<text text-anchor="middle" x="519" y="-139" font-family="FreeSans" font-size="10.00">/cc/eom/eom_ip_ccsd.h</text>
</a>
</g>
</g>
<!-- Node4&#45;&gt;Node13 -->
<g id="edge19_Node000004_Node000013" class="edge">
<title>Node4&#45;&gt;Node13</title>
<g id="a_edge19_Node000004_Node000013"><a xlink:title=" ">
<path fill="none" stroke="#63b8ff" d="M492.64,-319.83C495.92,-290.81 501.96,-240.71 509,-198 510.99,-185.95 513.74,-172.36 515.85,-162.39"/>
<polygon fill="#63b8ff" stroke="#63b8ff" points="489.15,-319.53 491.52,-329.86 496.1,-320.31 489.15,-319.53"/>
</a>
</g>
</g>
<!-- Node16 -->
<g id="Node000016" class="node">
<title>Node16</title>
<g id="a_Node000016"><a xlink:href="gamma__point__ccsd_8h.html" target="_top" xlink:title=" ">
<polygon fill="white" stroke="#666666" points="658.5,-294 521.5,-294 521.5,-264 658.5,-264 658.5,-294"/>
<text text-anchor="start" x="529.5" y="-282" font-family="FreeSans" font-size="10.00">mpqc/chemistry/qc/lcao</text>
<text text-anchor="middle" x="590" y="-271" font-family="FreeSans" font-size="10.00">/cc/gamma_point_ccsd.h</text>
</a>
</g>
</g>
<!-- Node4&#45;&gt;Node16 -->
<g id="edge20_Node000004_Node000016" class="edge">
<title>Node4&#45;&gt;Node16</title>
<g id="a_edge20_Node000004_Node000016"><a xlink:title=" ">
<path fill="none" stroke="#63b8ff" d="M520.78,-324.3C536,-314.56 554.03,-303.02 567.87,-294.16"/>
<polygon fill="#63b8ff" stroke="#63b8ff" points="518.73,-321.46 512.19,-329.8 522.5,-327.35 518.73,-321.46"/>
</a>
</g>
</g>
<!-- Node18 -->
<g id="Node000018" class="node">
<title>Node18</title>
<g id="a_Node000018"><a xlink:href="ccsd__t_8h.html" target="_top" xlink:title=" ">
<polygon fill="white" stroke="#666666" points="817.5,-294 684.5,-294 684.5,-264 817.5,-264 817.5,-294"/>
<text text-anchor="start" x="692.5" y="-282" font-family="FreeSans" font-size="10.00">mpqc/chemistry/qc/lcao</text>
<text text-anchor="middle" x="751" y="-271" font-family="FreeSans" font-size="10.00">/cc/pt/ccsd_t.h</text>
</a>
</g>
</g>
<!-- Node4&#45;&gt;Node18 -->
<g id="edge22_Node000004_Node000018" class="edge">
<title>Node4&#45;&gt;Node18</title>
<g id="a_edge22_Node000004_Node000018"><a xlink:title=" ">
<path fill="none" stroke="#63b8ff" d="M557.22,-327.52C599.55,-317.14 653.6,-303.88 693.86,-294.01"/>
<polygon fill="#63b8ff" stroke="#63b8ff" points="556.16,-324.17 547.28,-329.95 557.82,-330.97 556.16,-324.17"/>
</a>
</g>
</g>
<!-- Node23 -->
<g id="Node000023" class="node">
<title>Node23</title>
<g id="a_Node000023"><a xlink:href="ccsd__f12_8h.html" target="_top" xlink:title=" ">
<polygon fill="white" stroke="#666666" points="1043.5,-294 910.5,-294 910.5,-264 1043.5,-264 1043.5,-294"/>
<text text-anchor="start" x="918.5" y="-282" font-family="FreeSans" font-size="10.00">mpqc/chemistry/qc/lcao</text>
<text text-anchor="middle" x="977" y="-271" font-family="FreeSans" font-size="10.00">/f12/ccsd_f12.h</text>
</a>
</g>
</g>
<!-- Node4&#45;&gt;Node23 -->
<g id="edge28_Node000004_Node000023" class="edge">
<title>Node4&#45;&gt;Node23</title>
<g id="a_edge28_Node000004_Node000023"><a xlink:title=" ">
<path fill="none" stroke="#63b8ff" d="M566.77,-333.91C661.39,-321.48 820.62,-300.55 910.33,-288.76"/>
<polygon fill="#63b8ff" stroke="#63b8ff" points="566.15,-330.46 556.69,-335.24 567.06,-337.4 566.15,-330.46"/>
</a>
</g>
</g>
<!-- Node6 -->
<g id="Node000006" class="node">
<title>Node6</title>
<g id="a_Node000006"><a xlink:href="mpqc_8cc.html" target="_top" xlink:title=" ">
<polygon fill="white" stroke="#666666" points="150,-228 0,-228 0,-198 150,-198 150,-228"/>
<text text-anchor="start" x="8" y="-216" font-family="FreeSans" font-size="10.00">/home/runner/work/mpqc4</text>
<text text-anchor="middle" x="75" y="-205" font-family="FreeSans" font-size="10.00">/mpqc4/python/src/mpqc.cc</text>
</a>
</g>
</g>
<!-- Node5&#45;&gt;Node6 -->
<g id="edge5_Node000005_Node000006" class="edge">
<title>Node5&#45;&gt;Node6</title>
<g id="a_edge5_Node000005_Node000006"><a xlink:title=" ">
<path fill="none" stroke="#63b8ff" d="M76.24,-253.54C75.97,-244.96 75.68,-235.61 75.44,-228.16"/>
<polygon fill="#63b8ff" stroke="#63b8ff" points="72.75,-253.91 76.56,-263.8 79.74,-253.69 72.75,-253.91"/>
</a>
</g>
</g>
<!-- Node8 -->
<g id="Node000008" class="node">
<title>Node8</title>
<g id="a_Node000008"><a xlink:href="eom__ccsd_8ipp.html" target="_top" xlink:title=" ">
<polygon fill="white" stroke="#666666" points="301.5,-228 168.5,-228 168.5,-198 301.5,-198 301.5,-228"/>
<text text-anchor="start" x="176.5" y="-216" font-family="FreeSans" font-size="10.00">mpqc/chemistry/qc/lcao</text>
<text text-anchor="middle" x="235" y="-205" font-family="FreeSans" font-size="10.00">/cc/eom/eom_ccsd.ipp</text>
</a>
</g>
</g>
<!-- Node7&#45;&gt;Node8 -->
<g id="edge9_Node000007_Node000008" class="edge">
<title>Node7&#45;&gt;Node8</title>
<g id="a_edge9_Node000007_Node000008"><a xlink:title=" ">
<path fill="none" stroke="#63b8ff" d="M228.43,-253.83C228.02,-245.17 228.31,-235.7 229.29,-228.16"/>
<polygon fill="#63b8ff" stroke="#63b8ff" points="224.95,-254.13 229.28,-263.8 231.92,-253.54 224.95,-254.13"/>
</a>
</g>
</g>
<!-- Node8&#45;&gt;Node7 -->
<g id="edge11_Node000008_Node000007" class="edge">
<title>Node8&#45;&gt;Node7</title>
<g id="a_edge11_Node000008_Node000007"><a xlink:title=" ">
<path fill="none" stroke="#63b8ff" d="M241.57,-238.13C241.98,-246.78 241.7,-256.26 240.72,-263.8"/>
<polygon fill="#63b8ff" stroke="#63b8ff" points="245.05,-237.83 240.71,-228.16 238.08,-238.43 245.05,-237.83"/>
</a>
</g>
</g>
<!-- Node9 -->
<g id="Node000009" class="node">
<title>Node9</title>
<g id="a_Node000009"><a xlink:href="eom__ccsd_8cpp.html" target="_top" xlink:title=" ">
<polygon fill="white" stroke="#666666" points="271.5,-162 138.5,-162 138.5,-132 271.5,-132 271.5,-162"/>
<text text-anchor="start" x="146.5" y="-150" font-family="FreeSans" font-size="10.00">mpqc/chemistry/qc/lcao</text>
<text text-anchor="middle" x="205" y="-139" font-family="FreeSans" font-size="10.00">/cc/eom/eom_ccsd.cpp</text>
</a>
</g>
</g>
<!-- Node8&#45;&gt;Node9 -->
<g id="edge10_Node000008_Node000009" class="edge">
<title>Node8&#45;&gt;Node9</title>
<g id="a_edge10_Node000008_Node000009"><a xlink:title=" ">
<path fill="none" stroke="#63b8ff" d="M224.07,-188.68C219.9,-179.79 215.29,-169.95 211.64,-162.16"/>
<polygon fill="#63b8ff" stroke="#63b8ff" points="220.93,-190.23 228.34,-197.8 227.27,-187.26 220.93,-190.23"/>
</a>
</g>
</g>
<!-- Node11 -->
<g id="Node000011" class="node">
<title>Node11</title>
<g id="a_Node000011"><a xlink:href="eom__ea__ccsd_8ipp.html" target="_top" xlink:title=" ">
<polygon fill="white" stroke="#666666" points="462,-228 320,-228 320,-198 462,-198 462,-228"/>
<text text-anchor="start" x="328" y="-216" font-family="FreeSans" font-size="10.00">mpqc/chemistry/qc/lcao</text>
<text text-anchor="middle" x="391" y="-205" font-family="FreeSans" font-size="10.00">/cc/eom/eom_ea_ccsd.ipp</text>
</a>
</g>
</g>
<!-- Node10&#45;&gt;Node11 -->
<g id="edge13_Node000010_Node000011" class="edge">
<title>Node10&#45;&gt;Node11</title>
<g id="a_edge13_Node000010_Node000011"><a xlink:title=" ">
<path fill="none" stroke="#63b8ff" d="M384.43,-253.83C384.02,-245.17 384.31,-235.7 385.29,-228.16"/>
<polygon fill="#63b8ff" stroke="#63b8ff" points="380.95,-254.13 385.28,-263.8 387.92,-253.54 380.95,-254.13"/>
</a>
</g>
</g>
<!-- Node11&#45;&gt;Node10 -->
<g id="edge15_Node000011_Node000010" class="edge">
<title>Node11&#45;&gt;Node10</title>
<g id="a_edge15_Node000011_Node000010"><a xlink:title=" ">
<path fill="none" stroke="#63b8ff" d="M397.57,-238.13C397.98,-246.78 397.7,-256.26 396.72,-263.8"/>
<polygon fill="#63b8ff" stroke="#63b8ff" points="401.05,-237.83 396.71,-228.16 394.08,-238.43 401.05,-237.83"/>
</a>
</g>
</g>
<!-- Node12 -->
<g id="Node000012" class="node">
<title>Node12</title>
<g id="a_Node000012"><a xlink:href="eom__ea__ccsd_8cpp.html" target="_top" xlink:title=" ">
<polygon fill="white" stroke="#666666" points="434,-162 290,-162 290,-132 434,-132 434,-162"/>
<text text-anchor="start" x="298" y="-150" font-family="FreeSans" font-size="10.00">mpqc/chemistry/qc/lcao</text>
<text text-anchor="middle" x="362" y="-139" font-family="FreeSans" font-size="10.00">/cc/eom/eom_ea_ccsd.cpp</text>
</a>
</g>
</g>
<!-- Node11&#45;&gt;Node12 -->
<g id="edge14_Node000011_Node000012" class="edge">
<title>Node11&#45;&gt;Node12</title>
<g id="a_edge14_Node000011_Node000012"><a xlink:title=" ">
<path fill="none" stroke="#63b8ff" d="M380.43,-188.68C376.41,-179.79 371.94,-169.95 368.42,-162.16"/>
<polygon fill="#63b8ff" stroke="#63b8ff" points="377.25,-190.13 384.56,-197.8 383.62,-187.24 377.25,-190.13"/>
</a>
</g>
</g>
<!-- Node11&#45;&gt;Node13 -->
<g id="edge16_Node000011_Node000013" class="edge">
<title>Node11&#45;&gt;Node13</title>
<g id="a_edge16_Node000011_Node000013"><a xlink:title=" ">
<path fill="none" stroke="#63b8ff" d="M428.24,-193.38C448.27,-183.36 472.57,-171.22 490.98,-162.01"/>
<polygon fill="#63b8ff" stroke="#63b8ff" points="426.47,-190.35 419.09,-197.95 429.6,-196.61 426.47,-190.35"/>
</a>
</g>
</g>
<!-- Node14 -->
<g id="Node000014" class="node">
<title>Node14</title>
<g id="a_Node000014"><a xlink:href="eom__ip__ccsd_8ipp.html" target="_top" xlink:title=" ">
<polygon fill="white" stroke="#666666" points="588.5,-96 449.5,-96 449.5,-66 588.5,-66 588.5,-96"/>
<text text-anchor="start" x="457.5" y="-84" font-family="FreeSans" font-size="10.00">mpqc/chemistry/qc/lcao</text>
<text text-anchor="middle" x="519" y="-73" font-family="FreeSans" font-size="10.00">/cc/eom/eom_ip_ccsd.ipp</text>
</a>
</g>
</g>
<!-- Node13&#45;&gt;Node14 -->
<g id="edge17_Node000013_Node000014" class="edge">
<title>Node13&#45;&gt;Node14</title>
<g id="a_edge17_Node000013_Node000014"><a xlink:title=" ">
<path fill="none" stroke="#63b8ff" d="M519,-121.54C519,-112.96 519,-103.61 519,-96.16"/>
<polygon fill="#63b8ff" stroke="#63b8ff" points="515.5,-121.8 519,-131.8 522.5,-121.8 515.5,-121.8"/>
</a>
</g>
</g>
<!-- Node15 -->
<g id="Node000015" class="node">
<title>Node15</title>
<g id="a_Node000015"><a xlink:href="eom__ip__ccsd_8cpp.html" target="_top" xlink:title=" ">
<polygon fill="white" stroke="#666666" points="589.5,-30 448.5,-30 448.5,0 589.5,0 589.5,-30"/>
<text text-anchor="start" x="456.5" y="-18" font-family="FreeSans" font-size="10.00">mpqc/chemistry/qc/lcao</text>
<text text-anchor="middle" x="519" y="-7" font-family="FreeSans" font-size="10.00">/cc/eom/eom_ip_ccsd.cpp</text>
</a>
</g>
</g>
<!-- Node14&#45;&gt;Node15 -->
<g id="edge18_Node000014_Node000015" class="edge">
<title>Node14&#45;&gt;Node15</title>
<g id="a_edge18_Node000014_Node000015"><a xlink:title=" ">
<path fill="none" stroke="#63b8ff" d="M519,-55.54C519,-46.96 519,-37.61 519,-30.16"/>
<polygon fill="#63b8ff" stroke="#63b8ff" points="515.5,-55.8 519,-65.8 522.5,-55.8 515.5,-55.8"/>
</a>
</g>
</g>
<!-- Node17 -->
<g id="Node000017" class="node">
<title>Node17</title>
<g id="a_Node000017"><a xlink:href="gamma__point__ccsd_8cpp.html" target="_top" xlink:title=" ">
<polygon fill="white" stroke="#666666" points="666,-228 518,-228 518,-198 666,-198 666,-228"/>
<text text-anchor="start" x="526" y="-216" font-family="FreeSans" font-size="10.00">mpqc/chemistry/qc/lcao</text>
<text text-anchor="middle" x="592" y="-205" font-family="FreeSans" font-size="10.00">/cc/gamma_point_ccsd.cpp</text>
</a>
</g>
</g>
<!-- Node16&#45;&gt;Node17 -->
<g id="edge21_Node000016_Node000017" class="edge">
<title>Node16&#45;&gt;Node17</title>
<g id="a_edge21_Node000016_Node000017"><a xlink:title=" ">
<path fill="none" stroke="#63b8ff" d="M590.76,-253.54C591.03,-244.96 591.32,-235.61 591.56,-228.16"/>
<polygon fill="#63b8ff" stroke="#63b8ff" points="587.26,-253.69 590.44,-263.8 594.25,-253.91 587.26,-253.69"/>
</a>
</g>
</g>
<!-- Node19 -->
<g id="Node000019" class="node">
<title>Node19</title>
<g id="a_Node000019"><a xlink:href="ccsd__t_8ipp.html" target="_top" xlink:title=" ">
<polygon fill="white" stroke="#666666" points="817.5,-228 684.5,-228 684.5,-198 817.5,-198 817.5,-228"/>
<text text-anchor="start" x="692.5" y="-216" font-family="FreeSans" font-size="10.00">mpqc/chemistry/qc/lcao</text>
<text text-anchor="middle" x="751" y="-205" font-family="FreeSans" font-size="10.00">/cc/pt/ccsd_t.ipp</text>
</a>
</g>
</g>
<!-- Node18&#45;&gt;Node19 -->
<g id="edge23_Node000018_Node000019" class="edge">
<title>Node18&#45;&gt;Node19</title>
<g id="a_edge23_Node000018_Node000019"><a xlink:title=" ">
<path fill="none" stroke="#63b8ff" d="M744.43,-253.83C744.02,-245.17 744.31,-235.7 745.29,-228.16"/>
<polygon fill="#63b8ff" stroke="#63b8ff" points="740.95,-254.13 745.28,-263.8 747.92,-253.54 740.95,-254.13"/>
</a>
</g>
</g>
<!-- Node21 -->
<g id="Node000021" class="node">
<title>Node21</title>
<g id="a_Node000021"><a xlink:href="ccsd__t__f12_8h.html" target="_top" xlink:title=" ">
<polygon fill="white" stroke="#666666" points="968.5,-228 835.5,-228 835.5,-198 968.5,-198 968.5,-228"/>
<text text-anchor="start" x="843.5" y="-216" font-family="FreeSans" font-size="10.00">mpqc/chemistry/qc/lcao</text>
<text text-anchor="middle" x="902" y="-205" font-family="FreeSans" font-size="10.00">/f12/ccsd_t_f12.h</text>
</a>
</g>
</g>
<!-- Node18&#45;&gt;Node21 -->
<g id="edge26_Node000018_Node000021" class="edge">
<title>Node18&#45;&gt;Node21</title>
<g id="a_edge26_Node000018_Node000021"><a xlink:title=" ">
<path fill="none" stroke="#63b8ff" d="M793.66,-259.92C817.53,-249.8 846.83,-237.38 868.94,-228.01"/>
<polygon fill="#63b8ff" stroke="#63b8ff" points="791.98,-256.83 784.14,-263.95 794.71,-263.28 791.98,-256.83"/>
</a>
</g>
</g>
<!-- Node19&#45;&gt;Node18 -->
<g id="edge25_Node000019_Node000018" class="edge">
<title>Node19&#45;&gt;Node18</title>
<g id="a_edge25_Node000019_Node000018"><a xlink:title=" ">
<path fill="none" stroke="#63b8ff" d="M757.57,-238.13C757.98,-246.78 757.7,-256.26 756.72,-263.8"/>
<polygon fill="#63b8ff" stroke="#63b8ff" points="761.05,-237.83 756.71,-228.16 754.08,-238.43 761.05,-237.83"/>
</a>
</g>
</g>
<!-- Node20 -->
<g id="Node000020" class="node">
<title>Node20</title>
<g id="a_Node000020"><a xlink:href="ccsd__t_8cpp.html" target="_top" xlink:title=" ">
<polygon fill="white" stroke="#666666" points="817.5,-162 684.5,-162 684.5,-132 817.5,-132 817.5,-162"/>
<text text-anchor="start" x="692.5" y="-150" font-family="FreeSans" font-size="10.00">mpqc/chemistry/qc/lcao</text>
<text text-anchor="middle" x="751" y="-139" font-family="FreeSans" font-size="10.00">/cc/pt/ccsd_t.cpp</text>
</a>
</g>
</g>
<!-- Node19&#45;&gt;Node20 -->
<g id="edge24_Node000019_Node000020" class="edge">
<title>Node19&#45;&gt;Node20</title>
<g id="a_edge24_Node000019_Node000020"><a xlink:title=" ">
<path fill="none" stroke="#63b8ff" d="M751,-187.54C751,-178.96 751,-169.61 751,-162.16"/>
<polygon fill="#63b8ff" stroke="#63b8ff" points="747.5,-187.8 751,-197.8 754.5,-187.8 747.5,-187.8"/>
</a>
</g>
</g>
<!-- Node22 -->
<g id="Node000022" class="node">
<title>Node22</title>
<g id="a_Node000022"><a xlink:href="ccsd__t__f12_8cpp.html" target="_top" xlink:title=" ">
<polygon fill="white" stroke="#666666" points="968.5,-162 835.5,-162 835.5,-132 968.5,-132 968.5,-162"/>
<text text-anchor="start" x="843.5" y="-150" font-family="FreeSans" font-size="10.00">mpqc/chemistry/qc/lcao</text>
<text text-anchor="middle" x="902" y="-139" font-family="FreeSans" font-size="10.00">/f12/ccsd_t_f12.cpp</text>
</a>
</g>
</g>
<!-- Node21&#45;&gt;Node22 -->
<g id="edge27_Node000021_Node000022" class="edge">
<title>Node21&#45;&gt;Node22</title>
<g id="a_edge27_Node000021_Node000022"><a xlink:title=" ">
<path fill="none" stroke="#63b8ff" d="M902,-187.54C902,-178.96 902,-169.61 902,-162.16"/>
<polygon fill="#63b8ff" stroke="#63b8ff" points="898.5,-187.8 902,-197.8 905.5,-187.8 898.5,-187.8"/>
</a>
</g>
</g>
<!-- Node23&#45;&gt;Node21 -->
<g id="edge32_Node000023_Node000021" class="edge">
<title>Node23&#45;&gt;Node21</title>
<g id="a_edge32_Node000023_Node000021"><a xlink:title=" ">
<path fill="none" stroke="#63b8ff" d="M952.63,-257.2C941.49,-247.7 928.59,-236.69 918.6,-228.16"/>
<polygon fill="#63b8ff" stroke="#63b8ff" points="950.48,-259.97 960.36,-263.8 955.02,-254.64 950.48,-259.97"/>
</a>
</g>
</g>
<!-- Node24 -->
<g id="Node000024" class="node">
<title>Node24</title>
<g id="a_Node000024"><a xlink:href="ccsd__f12_8ipp.html" target="_top" xlink:title=" ">
<polygon fill="white" stroke="#666666" points="1119.5,-228 986.5,-228 986.5,-198 1119.5,-198 1119.5,-228"/>
<text text-anchor="start" x="994.5" y="-216" font-family="FreeSans" font-size="10.00">mpqc/chemistry/qc/lcao</text>
<text text-anchor="middle" x="1053" y="-205" font-family="FreeSans" font-size="10.00">/f12/ccsd_f12.ipp</text>
</a>
</g>
</g>
<!-- Node23&#45;&gt;Node24 -->
<g id="edge29_Node000023_Node000024" class="edge">
<title>Node23&#45;&gt;Node24</title>
<g id="a_edge29_Node000023_Node000024"><a xlink:title=" ">
<path fill="none" stroke="#63b8ff" d="M995.64,-256.92C1006.2,-247.49 1019.34,-236.61 1030.47,-228.16"/>
<polygon fill="#63b8ff" stroke="#63b8ff" points="993.15,-254.46 988.15,-263.8 997.88,-259.62 993.15,-254.46"/>
</a>
</g>
</g>
<!-- Node24&#45;&gt;Node23 -->
<g id="edge31_Node000024_Node000023" class="edge">
<title>Node24&#45;&gt;Node23</title>
<g id="a_edge31_Node000024_Node000023"><a xlink:title=" ">
<path fill="none" stroke="#63b8ff" d="M1034.41,-235.03C1023.86,-244.46 1010.72,-255.34 999.59,-263.8"/>
<polygon fill="#63b8ff" stroke="#63b8ff" points="1036.89,-237.5 1041.9,-228.16 1032.16,-232.35 1036.89,-237.5"/>
</a>
</g>
</g>
<!-- Node25 -->
<g id="Node000025" class="node">
<title>Node25</title>
<g id="a_Node000025"><a xlink:href="ccsd__f12_8cpp.html" target="_top" xlink:title=" ">
<polygon fill="white" stroke="#666666" points="1119.5,-162 986.5,-162 986.5,-132 1119.5,-132 1119.5,-162"/>
<text text-anchor="start" x="994.5" y="-150" font-family="FreeSans" font-size="10.00">mpqc/chemistry/qc/lcao</text>
<text text-anchor="middle" x="1053" y="-139" font-family="FreeSans" font-size="10.00">/f12/ccsd_f12.cpp</text>
</a>
</g>
</g>
<!-- Node24&#45;&gt;Node25 -->
<g id="edge30_Node000024_Node000025" class="edge">
<title>Node24&#45;&gt;Node25</title>
<g id="a_edge30_Node000024_Node000025"><a xlink:title=" ">
<path fill="none" stroke="#63b8ff" d="M1053,-187.54C1053,-178.96 1053,-169.61 1053,-162.16"/>
<polygon fill="#63b8ff" stroke="#63b8ff" points="1049.5,-187.8 1053,-197.8 1056.5,-187.8 1049.5,-187.8"/>
</a>
</g>
</g>
</g>
</svg>

<g id="navigator" transform="translate(0 0)" fill="#404254">
  <rect fill="#f2f5e9" fill-opacity="0.5" stroke="#606060" stroke-width=".5" x="0" y="0" width="60" height="60"/>
  <use id="zoomplus" xlink:href="#zoomPlus" x="17" y="9" onmousedown="handleZoom(evt,'in')"/>
  <use id="zoomminus" xlink:href="#zoomMin" x="42" y="9" onmousedown="handleZoom(evt,'out')"/>
  <use id="reset" xlink:href="#resetDef" x="30" y="36" onmousedown="handleReset()"/>
   <use id="arrowup" xlink:href="#arrowUp" x="0" y="0" onmousedown="handlePan(0,-1)"/>
  <use id="arrowright" xlink:href="#arrowRight" x="0" y="0" onmousedown="handlePan(1,0)"/>
  <use id="arrowdown" xlink:href="#arrowDown" x="0" y="0" onmousedown="handlePan(0,1)"/>
  <use id="arrowleft" xlink:href="#arrowLeft" x="0" y="0" onmousedown="handlePan(-1,0)"/>
</g>
<svg viewBox="0 0 15 15" width="100%" height="30px" preserveAspectRatio="xMaxYMin meet">
 <g id="arrow_out" transform="scale(0.3 0.3)">
  <a xlink:href="ccsd__response_8h__dep__incl_org.svg" target="_base">
   <rect id="button" ry="5" rx="5" y="6" x="6" height="38" width="38"
        fill="#f2f5e9" fill-opacity="0.5" stroke="#606060" stroke-width="1.0"/>
   <path id="arrow"
     d="M 11.500037,31.436501 C 11.940474,20.09759 22.043105,11.32322 32.158766,21.979434 L 37.068811,17.246167 C 37.068811,17.246167 37.088388,32 37.088388,32 L 22.160133,31.978069 C 22.160133,31.978069 26.997745,27.140456 26.997745,27.140456 C 18.528582,18.264221 13.291696,25.230495 11.500037,31.436501 z"
     style="fill:#404040;"/>
  </a>
 </g>
</svg>

<style type='text/css'>
<![CDATA[
[data-mouse-over-selected='false'] { opacity: 0.7; }
[data-mouse-over-selected='true']  { opacity: 1.0; }
]]>
</style>
<script type="application/ecmascript"><![CDATA[
document.addEventListener('DOMContentLoaded', (event) => {
  highlightEdges();
  highlightAdjacentNodes();
});
]]></script>
</svg>
