<?xml version="1.0" encoding="UTF-8" standalone="no"?>
<!DOCTYPE svg PUBLIC "-//W3C//DTD SVG 1.1//EN"
 "http://www.w3.org/Graphics/SVG/1.1/DTD/svg11.dtd">
<!-- Generated by graphviz version 2.43.0 (0)
 -->
<!-- Title: mpqc/chemistry/qc/lcao/cc/pt/ccsd_t_device.h Pages: 1 -->
<svg width="252pt" height="93pt"
 viewBox="0.00 0.00 251.50 93.00" xmlns="http://www.w3.org/2000/svg" xmlns:xlink="http://www.w3.org/1999/xlink">
<g id="graph0" class="graph" transform="scale(1 1) rotate(0) translate(4 89)">
<title>mpqc/chemistry/qc/lcao/cc/pt/ccsd_t_device.h</title>
<!-- Node1 -->
<g id="Node000001" class="node">
<title>Node1</title>
<g id="a_Node000001"><a xlink:title=" ">
<polygon fill="#999999" stroke="#666666" points="185.5,-85 52.5,-85 52.5,-55 185.5,-55 185.5,-85"/>
<text text-anchor="start" x="60.5" y="-73" font-family="FreeSans" font-size="10.00">mpqc/chemistry/qc/lcao</text>
<text text-anchor="middle" x="119" y="-62" font-family="FreeSans" font-size="10.00">/cc/pt/ccsd_t_device.h</text>
</a>
</g>
</g>
<!-- Node2 -->
<g id="Node000002" class="node">
<title>Node2</title>
<g id="a_Node000002"><a xlink:title=" ">
<polygon fill="#e0e0e0" stroke="#999999" points="108,-19 0,-19 0,0 108,0 108,-19"/>
<text text-anchor="middle" x="54" y="-7" font-family="FreeSans" font-size="10.00">TiledArray/config.h</text>
</a>
</g>
</g>
<!-- Node1&#45;&gt;Node2 -->
<g id="edge1_Node000001_Node000002" class="edge">
<title>Node1&#45;&gt;Node2</title>
<g id="a_edge1_Node000001_Node000002"><a xlink:title=" ">
<path fill="none" stroke="#63b8ff" d="M103.27,-54.84C93.64,-46.17 81.31,-35.08 71.39,-26.15"/>
<polygon fill="#63b8ff" stroke="#63b8ff" points="73.51,-23.35 63.74,-19.27 68.83,-28.56 73.51,-23.35"/>
</a>
</g>
</g>
<!-- Node3 -->
<g id="Node000003" class="node">
<title>Node3</title>
<g id="a_Node000003"><a xlink:title=" ">
<polygon fill="#e0e0e0" stroke="#999999" points="243.5,-19 126.5,-19 126.5,0 243.5,0 243.5,-19"/>
<text text-anchor="middle" x="185" y="-7" font-family="FreeSans" font-size="10.00">mpqc/mpqc_config.h</text>
</a>
</g>
</g>
<!-- Node1&#45;&gt;Node3 -->
<g id="edge2_Node000001_Node000003" class="edge">
<title>Node1&#45;&gt;Node3</title>
<g id="a_edge2_Node000001_Node000003"><a xlink:title=" ">
<path fill="none" stroke="#63b8ff" d="M134.98,-54.84C144.75,-46.17 157.27,-35.08 167.34,-26.15"/>
<polygon fill="#63b8ff" stroke="#63b8ff" points="169.95,-28.52 175.11,-19.27 165.31,-23.28 169.95,-28.52"/>
</a>
</g>
</g>
</g>
</svg>
