<?xml version="1.0" encoding="UTF-8" standalone="no"?>
<!DOCTYPE svg PUBLIC "-//W3C//DTD SVG 1.1//EN"
 "http://www.w3.org/Graphics/SVG/1.1/DTD/svg11.dtd">
<!-- Generated by graphviz version 2.43.0 (0)
 -->
<!-- Title: mpqc/chemistry/qc/lcao/cc/ccsd_approximations.h Pages: 1 -->
<svg width="1430pt" height="632pt"
 viewBox="0.00 0.00 1429.50 632.00" xmlns="http://www.w3.org/2000/svg" xmlns:xlink="http://www.w3.org/1999/xlink">
<g id="graph0" class="graph" transform="scale(1 1) rotate(0) translate(4 628)">
<title>mpqc/chemistry/qc/lcao/cc/ccsd_approximations.h</title>
<!-- Node1 -->
<g id="Node000001" class="node">
<title>Node1</title>
<g id="a_Node000001"><a xlink:title=" ">
<polygon fill="#999999" stroke="#666666" points="953,-624 807,-624 807,-594 953,-594 953,-624"/>
<text text-anchor="start" x="815" y="-612" font-family="FreeSans" font-size="10.00">mpqc/chemistry/qc/lcao</text>
<text text-anchor="middle" x="880" y="-601" font-family="FreeSans" font-size="10.00">/cc/ccsd_approximations.h</text>
</a>
</g>
</g>
<!-- Node2 -->
<g id="Node000002" class="node">
<title>Node2</title>
<g id="a_Node000002"><a xlink:href="ccsd__residual_8ipp.html" target="_top" xlink:title=" ">
<polygon fill="white" stroke="#666666" points="867.5,-558 734.5,-558 734.5,-528 867.5,-528 867.5,-558"/>
<text text-anchor="start" x="742.5" y="-546" font-family="FreeSans" font-size="10.00">mpqc/chemistry/qc/lcao</text>
<text text-anchor="middle" x="801" y="-535" font-family="FreeSans" font-size="10.00">/cc/ccsd_residual.ipp</text>
</a>
</g>
</g>
<!-- Node1&#45;&gt;Node2 -->
<g id="edge1_Node000001_Node000002" class="edge">
<title>Node1&#45;&gt;Node2</title>
<g id="a_edge1_Node000001_Node000002"><a xlink:title=" ">
<path fill="none" stroke="#63b8ff" d="M854.67,-587.48C842.86,-577.91 829.11,-566.77 818.48,-558.16"/>
<polygon fill="#63b8ff" stroke="#63b8ff" points="852.49,-590.22 862.47,-593.8 856.9,-584.78 852.49,-590.22"/>
</a>
</g>
</g>
<!-- Node30 -->
<g id="Node000030" class="node">
<title>Node30</title>
<g id="a_Node000030"><a xlink:href="ccsdt__r1__r2__r3_8h.html" target="_top" xlink:title=" ">
<polygon fill="white" stroke="#666666" points="1060.5,-558 927.5,-558 927.5,-528 1060.5,-528 1060.5,-558"/>
<text text-anchor="start" x="935.5" y="-546" font-family="FreeSans" font-size="10.00">mpqc/chemistry/qc/lcao</text>
<text text-anchor="middle" x="994" y="-535" font-family="FreeSans" font-size="10.00">/cc/ccsdt_r1_r2_r3.h</text>
</a>
</g>
</g>
<!-- Node1&#45;&gt;Node30 -->
<g id="edge39_Node000001_Node000030" class="edge">
<title>Node1&#45;&gt;Node30</title>
<g id="a_edge39_Node000001_Node000030"><a xlink:title=" ">
<path fill="none" stroke="#63b8ff" d="M913.9,-588.97C931.6,-579.03 952.87,-567.09 969.04,-558.01"/>
<polygon fill="#63b8ff" stroke="#63b8ff" points="912.02,-586.01 905.02,-593.95 915.45,-592.11 912.02,-586.01"/>
</a>
</g>
</g>
<!-- Node3 -->
<g id="Node000003" class="node">
<title>Node3</title>
<g id="a_Node000003"><a xlink:href="ccsd__residual_8cpp.html" target="_top" xlink:title=" ">
<polygon fill="white" stroke="#666666" points="716.5,-492 583.5,-492 583.5,-462 716.5,-462 716.5,-492"/>
<text text-anchor="start" x="591.5" y="-480" font-family="FreeSans" font-size="10.00">mpqc/chemistry/qc/lcao</text>
<text text-anchor="middle" x="650" y="-469" font-family="FreeSans" font-size="10.00">/cc/ccsd_residual.cpp</text>
</a>
</g>
</g>
<!-- Node2&#45;&gt;Node3 -->
<g id="edge2_Node000002_Node000003" class="edge">
<title>Node2&#45;&gt;Node3</title>
<g id="a_edge2_Node000002_Node000003"><a xlink:title=" ">
<path fill="none" stroke="#63b8ff" d="M758.34,-523.92C734.47,-513.8 705.17,-501.38 683.06,-492.01"/>
<polygon fill="#63b8ff" stroke="#63b8ff" points="757.29,-527.28 767.86,-527.95 760.02,-520.83 757.29,-527.28"/>
</a>
</g>
</g>
<!-- Node4 -->
<g id="Node000004" class="node">
<title>Node4</title>
<g id="a_Node000004"><a xlink:href="ccsd__residual_8h.html" target="_top" xlink:title=" ">
<polygon fill="white" stroke="#666666" points="867.5,-492 734.5,-492 734.5,-462 867.5,-462 867.5,-492"/>
<text text-anchor="start" x="742.5" y="-480" font-family="FreeSans" font-size="10.00">mpqc/chemistry/qc/lcao</text>
<text text-anchor="middle" x="801" y="-469" font-family="FreeSans" font-size="10.00">/cc/ccsd_residual.h</text>
</a>
</g>
</g>
<!-- Node2&#45;&gt;Node4 -->
<g id="edge3_Node000002_Node000004" class="edge">
<title>Node2&#45;&gt;Node4</title>
<g id="a_edge3_Node000002_Node000004"><a xlink:title=" ">
<path fill="none" stroke="#63b8ff" d="M794.43,-517.83C794.02,-509.17 794.31,-499.7 795.29,-492.16"/>
<polygon fill="#63b8ff" stroke="#63b8ff" points="790.95,-518.13 795.28,-527.8 797.92,-517.54 790.95,-518.13"/>
</a>
</g>
</g>
<!-- Node4&#45;&gt;Node2 -->
<g id="edge38_Node000004_Node000002" class="edge">
<title>Node4&#45;&gt;Node2</title>
<g id="a_edge38_Node000004_Node000002"><a xlink:title=" ">
<path fill="none" stroke="#63b8ff" d="M807.57,-502.13C807.98,-510.78 807.7,-520.26 806.72,-527.8"/>
<polygon fill="#63b8ff" stroke="#63b8ff" points="811.05,-501.83 806.71,-492.16 804.08,-502.43 811.05,-501.83"/>
</a>
</g>
</g>
<!-- Node5 -->
<g id="Node000005" class="node">
<title>Node5</title>
<g id="a_Node000005"><a xlink:href="ccsd_8h.html" target="_top" xlink:title=" ">
<polygon fill="white" stroke="#666666" points="730.5,-360 597.5,-360 597.5,-330 730.5,-330 730.5,-360"/>
<text text-anchor="start" x="605.5" y="-348" font-family="FreeSans" font-size="10.00">mpqc/chemistry/qc/lcao</text>
<text text-anchor="middle" x="664" y="-337" font-family="FreeSans" font-size="10.00">/cc/ccsd.h</text>
</a>
</g>
</g>
<!-- Node4&#45;&gt;Node5 -->
<g id="edge4_Node000004_Node000005" class="edge">
<title>Node4&#45;&gt;Node5</title>
<g id="a_edge4_Node000004_Node000005"><a xlink:title=" ">
<path fill="none" stroke="#63b8ff" d="M766.47,-456.73C752.79,-448.24 737.41,-437.58 725,-426 703.29,-405.75 683.51,-377.11 672.68,-360.16"/>
<polygon fill="#63b8ff" stroke="#63b8ff" points="764.79,-459.8 775.16,-461.97 768.41,-453.81 764.79,-459.8"/>
</a>
</g>
</g>
<!-- Node8 -->
<g id="Node000008" class="node">
<title>Node8</title>
<g id="a_Node000008"><a xlink:href="ccsd_8ipp.html" target="_top" xlink:title=" ">
<polygon fill="white" stroke="#666666" points="867.5,-426 734.5,-426 734.5,-396 867.5,-396 867.5,-426"/>
<text text-anchor="start" x="742.5" y="-414" font-family="FreeSans" font-size="10.00">mpqc/chemistry/qc/lcao</text>
<text text-anchor="middle" x="801" y="-403" font-family="FreeSans" font-size="10.00">/cc/ccsd.ipp</text>
</a>
</g>
</g>
<!-- Node4&#45;&gt;Node8 -->
<g id="edge37_Node000004_Node000008" class="edge">
<title>Node4&#45;&gt;Node8</title>
<g id="a_edge37_Node000004_Node000008"><a xlink:title=" ">
<path fill="none" stroke="#63b8ff" d="M801,-451.54C801,-442.96 801,-433.61 801,-426.16"/>
<polygon fill="#63b8ff" stroke="#63b8ff" points="797.5,-451.8 801,-461.8 804.5,-451.8 797.5,-451.8"/>
</a>
</g>
</g>
<!-- Node6 -->
<g id="Node000006" class="node">
<title>Node6</title>
<g id="a_Node000006"><a xlink:href="cc_8h.html" target="_top" xlink:title=" ">
<polygon fill="white" stroke="#666666" points="149.5,-294 4.5,-294 4.5,-264 149.5,-264 149.5,-294"/>
<text text-anchor="start" x="12.5" y="-282" font-family="FreeSans" font-size="10.00">/home/runner/work/mpqc4</text>
<text text-anchor="middle" x="77" y="-271" font-family="FreeSans" font-size="10.00">/mpqc4/python/src/cc.h</text>
</a>
</g>
</g>
<!-- Node5&#45;&gt;Node6 -->
<g id="edge5_Node000005_Node000006" class="edge">
<title>Node5&#45;&gt;Node6</title>
<g id="a_edge5_Node000005_Node000006"><a xlink:title=" ">
<path fill="none" stroke="#63b8ff" d="M587.02,-338.07C487.82,-330.05 310.16,-314.36 159,-294 155.99,-293.6 152.93,-293.16 149.84,-292.71"/>
<polygon fill="#63b8ff" stroke="#63b8ff" points="587,-341.58 597.25,-338.9 587.56,-334.61 587,-341.58"/>
</a>
</g>
</g>
<!-- Node5&#45;&gt;Node8 -->
<g id="edge7_Node000005_Node000008" class="edge">
<title>Node5&#45;&gt;Node8</title>
<g id="a_edge7_Node000005_Node000008"><a xlink:title=" ">
<path fill="none" stroke="#63b8ff" d="M709.07,-364.18C731.59,-374.27 757.87,-386.62 776.63,-395.95"/>
<polygon fill="#63b8ff" stroke="#63b8ff" points="710.25,-360.87 699.69,-360.01 707.41,-367.27 710.25,-360.87"/>
</a>
</g>
</g>
<!-- Node10 -->
<g id="Node000010" class="node">
<title>Node10</title>
<g id="a_Node000010"><a xlink:href="ccsd__response_8h.html" target="_top" xlink:title=" ">
<polygon fill="white" stroke="#666666" points="1119.5,-294 986.5,-294 986.5,-264 1119.5,-264 1119.5,-294"/>
<text text-anchor="start" x="994.5" y="-282" font-family="FreeSans" font-size="10.00">mpqc/chemistry/qc/lcao</text>
<text text-anchor="middle" x="1053" y="-271" font-family="FreeSans" font-size="10.00">/cc/ccsd_response.h</text>
</a>
</g>
</g>
<!-- Node5&#45;&gt;Node10 -->
<g id="edge10_Node000005_Node000010" class="edge">
<title>Node5&#45;&gt;Node10</title>
<g id="a_edge10_Node000005_Node000010"><a xlink:title=" ">
<path fill="none" stroke="#63b8ff" d="M740.74,-329.74C846.19,-312.14 874.69,-311.16 977,-294 980.04,-293.49 983.15,-292.96 986.29,-292.41"/>
<polygon fill="#63b8ff" stroke="#63b8ff" points="739.92,-326.33 730.64,-331.44 741.08,-333.23 739.92,-326.33"/>
</a>
</g>
</g>
<!-- Node11 -->
<g id="Node000011" class="node">
<title>Node11</title>
<g id="a_Node000011"><a xlink:href="eom__ccsd_8h.html" target="_top" xlink:title=" ">
<polygon fill="white" stroke="#666666" points="301.5,-294 168.5,-294 168.5,-264 301.5,-264 301.5,-294"/>
<text text-anchor="start" x="176.5" y="-282" font-family="FreeSans" font-size="10.00">mpqc/chemistry/qc/lcao</text>
<text text-anchor="middle" x="235" y="-271" font-family="FreeSans" font-size="10.00">/cc/eom/eom_ccsd.h</text>
</a>
</g>
</g>
<!-- Node5&#45;&gt;Node11 -->
<g id="edge12_Node000005_Node000011" class="edge">
<title>Node5&#45;&gt;Node11</title>
<g id="a_edge12_Node000005_Node000011"><a xlink:title=" ">
<path fill="none" stroke="#63b8ff" d="M587.16,-333.69C516.38,-324.02 408.48,-308.87 315,-294 310.68,-293.31 306.24,-292.59 301.76,-291.84"/>
<polygon fill="#63b8ff" stroke="#63b8ff" points="586.95,-337.19 597.33,-335.07 587.89,-330.25 586.95,-337.19"/>
</a>
</g>
</g>
<!-- Node14 -->
<g id="Node000014" class="node">
<title>Node14</title>
<g id="a_Node000014"><a xlink:href="eom__ea__ccsd_8h.html" target="_top" xlink:title=" ">
<polygon fill="white" stroke="#666666" points="457.5,-294 324.5,-294 324.5,-264 457.5,-264 457.5,-294"/>
<text text-anchor="start" x="332.5" y="-282" font-family="FreeSans" font-size="10.00">mpqc/chemistry/qc/lcao</text>
<text text-anchor="middle" x="391" y="-271" font-family="FreeSans" font-size="10.00">/cc/eom/eom_ea_ccsd.h</text>
</a>
</g>
</g>
<!-- Node5&#45;&gt;Node14 -->
<g id="edge16_Node000005_Node000014" class="edge">
<title>Node5&#45;&gt;Node14</title>
<g id="a_edge16_Node000005_Node000014"><a xlink:title=" ">
<path fill="none" stroke="#63b8ff" d="M594.25,-327.65C549.89,-317.25 493.06,-303.93 450.77,-294.01"/>
<polygon fill="#63b8ff" stroke="#63b8ff" points="593.55,-331.08 604.09,-329.95 595.15,-324.26 593.55,-331.08"/>
</a>
</g>
</g>
<!-- Node17 -->
<g id="Node000017" class="node">
<title>Node17</title>
<g id="a_Node000017"><a xlink:href="eom__ip__ccsd_8h.html" target="_top" xlink:title=" ">
<polygon fill="white" stroke="#666666" points="585.5,-162 452.5,-162 452.5,-132 585.5,-132 585.5,-162"/>
<text text-anchor="start" x="460.5" y="-150" font-family="FreeSans" font-size="10.00">mpqc/chemistry/qc/lcao</text>
<text text-anchor="middle" x="519" y="-139" font-family="FreeSans" font-size="10.00">/cc/eom/eom_ip_ccsd.h</text>
</a>
</g>
</g>
<!-- Node5&#45;&gt;Node17 -->
<g id="edge23_Node000005_Node000017" class="edge">
<title>Node5&#45;&gt;Node17</title>
<g id="a_edge23_Node000005_Node000017"><a xlink:title=" ">
<path fill="none" stroke="#63b8ff" d="M587.54,-334.75C561.4,-327.72 534.4,-315.44 517,-294 485.85,-255.62 503.32,-191 513.41,-162.38"/>
<polygon fill="#63b8ff" stroke="#63b8ff" points="586.95,-338.21 597.5,-337.19 588.62,-331.41 586.95,-338.21"/>
</a>
</g>
</g>
<!-- Node20 -->
<g id="Node000020" class="node">
<title>Node20</title>
<g id="a_Node000020"><a xlink:href="gamma__point__ccsd_8h.html" target="_top" xlink:title=" ">
<polygon fill="white" stroke="#666666" points="663.5,-294 526.5,-294 526.5,-264 663.5,-264 663.5,-294"/>
<text text-anchor="start" x="534.5" y="-282" font-family="FreeSans" font-size="10.00">mpqc/chemistry/qc/lcao</text>
<text text-anchor="middle" x="595" y="-271" font-family="FreeSans" font-size="10.00">/cc/gamma_point_ccsd.h</text>
</a>
</g>
</g>
<!-- Node5&#45;&gt;Node20 -->
<g id="edge24_Node000005_Node000020" class="edge">
<title>Node5&#45;&gt;Node20</title>
<g id="a_edge24_Node000005_Node000020"><a xlink:title=" ">
<path fill="none" stroke="#63b8ff" d="M641.28,-322.92C631.1,-313.49 619.37,-302.61 610.27,-294.16"/>
<polygon fill="#63b8ff" stroke="#63b8ff" points="638.97,-325.56 648.69,-329.8 643.74,-320.43 638.97,-325.56"/>
</a>
</g>
</g>
<!-- Node22 -->
<g id="Node000022" class="node">
<title>Node22</title>
<g id="a_Node000022"><a xlink:href="ccsd__t_8h.html" target="_top" xlink:title=" ">
<polygon fill="white" stroke="#666666" points="817.5,-294 684.5,-294 684.5,-264 817.5,-264 817.5,-294"/>
<text text-anchor="start" x="692.5" y="-282" font-family="FreeSans" font-size="10.00">mpqc/chemistry/qc/lcao</text>
<text text-anchor="middle" x="751" y="-271" font-family="FreeSans" font-size="10.00">/cc/pt/ccsd_t.h</text>
</a>
</g>
</g>
<!-- Node5&#45;&gt;Node22 -->
<g id="edge26_Node000005_Node000022" class="edge">
<title>Node5&#45;&gt;Node22</title>
<g id="a_edge26_Node000005_Node000022"><a xlink:title=" ">
<path fill="none" stroke="#63b8ff" d="M691.52,-323.75C704.61,-314.13 719.93,-302.86 731.75,-294.16"/>
<polygon fill="#63b8ff" stroke="#63b8ff" points="689.29,-321.05 683.31,-329.8 693.44,-326.69 689.29,-321.05"/>
</a>
</g>
</g>
<!-- Node27 -->
<g id="Node000027" class="node">
<title>Node27</title>
<g id="a_Node000027"><a xlink:href="ccsd__f12_8h.html" target="_top" xlink:title=" ">
<polygon fill="white" stroke="#666666" points="968.5,-294 835.5,-294 835.5,-264 968.5,-264 968.5,-294"/>
<text text-anchor="start" x="843.5" y="-282" font-family="FreeSans" font-size="10.00">mpqc/chemistry/qc/lcao</text>
<text text-anchor="middle" x="902" y="-271" font-family="FreeSans" font-size="10.00">/f12/ccsd_f12.h</text>
</a>
</g>
</g>
<!-- Node5&#45;&gt;Node27 -->
<g id="edge32_Node000005_Node000027" class="edge">
<title>Node5&#45;&gt;Node27</title>
<g id="a_edge32_Node000005_Node000027"><a xlink:title=" ">
<path fill="none" stroke="#63b8ff" d="M726.28,-327.25C764.73,-316.91 813.49,-303.8 849.89,-294.01"/>
<polygon fill="#63b8ff" stroke="#63b8ff" points="724.98,-323.98 716.23,-329.95 726.8,-330.74 724.98,-323.98"/>
</a>
</g>
</g>
<!-- Node7 -->
<g id="Node000007" class="node">
<title>Node7</title>
<g id="a_Node000007"><a xlink:href="mpqc_8cc.html" target="_top" xlink:title=" ">
<polygon fill="white" stroke="#666666" points="150,-228 0,-228 0,-198 150,-198 150,-228"/>
<text text-anchor="start" x="8" y="-216" font-family="FreeSans" font-size="10.00">/home/runner/work/mpqc4</text>
<text text-anchor="middle" x="75" y="-205" font-family="FreeSans" font-size="10.00">/mpqc4/python/src/mpqc.cc</text>
</a>
</g>
</g>
<!-- Node6&#45;&gt;Node7 -->
<g id="edge6_Node000006_Node000007" class="edge">
<title>Node6&#45;&gt;Node7</title>
<g id="a_edge6_Node000006_Node000007"><a xlink:title=" ">
<path fill="none" stroke="#63b8ff" d="M76.24,-253.54C75.97,-244.96 75.68,-235.61 75.44,-228.16"/>
<polygon fill="#63b8ff" stroke="#63b8ff" points="72.75,-253.91 76.56,-263.8 79.74,-253.69 72.75,-253.91"/>
</a>
</g>
</g>
<!-- Node8&#45;&gt;Node5 -->
<g id="edge9_Node000008_Node000005" class="edge">
<title>Node8&#45;&gt;Node5</title>
<g id="a_edge9_Node000008_Node000005"><a xlink:title=" ">
<path fill="none" stroke="#63b8ff" d="M755.85,-391.78C733.33,-381.69 707.04,-369.34 688.3,-360.01"/>
<polygon fill="#63b8ff" stroke="#63b8ff" points="754.68,-395.09 765.24,-395.95 757.52,-388.7 754.68,-395.09"/>
</a>
</g>
</g>
<!-- Node9 -->
<g id="Node000009" class="node">
<title>Node9</title>
<g id="a_Node000009"><a xlink:href="ccsd_8cpp.html" target="_top" xlink:title=" ">
<polygon fill="white" stroke="#666666" points="881.5,-360 748.5,-360 748.5,-330 881.5,-330 881.5,-360"/>
<text text-anchor="start" x="756.5" y="-348" font-family="FreeSans" font-size="10.00">mpqc/chemistry/qc/lcao</text>
<text text-anchor="middle" x="815" y="-337" font-family="FreeSans" font-size="10.00">/cc/ccsd.cpp</text>
</a>
</g>
</g>
<!-- Node8&#45;&gt;Node9 -->
<g id="edge8_Node000008_Node000009" class="edge">
<title>Node8&#45;&gt;Node9</title>
<g id="a_edge8_Node000008_Node000009"><a xlink:title=" ">
<path fill="none" stroke="#63b8ff" d="M806.29,-385.83C808.18,-377.17 810.25,-367.7 811.9,-360.16"/>
<polygon fill="#63b8ff" stroke="#63b8ff" points="802.82,-385.28 804.11,-395.8 809.66,-386.78 802.82,-385.28"/>
</a>
</g>
</g>
<!-- Node10&#45;&gt;Node8 -->
<g id="edge11_Node000010_Node000008" class="edge">
<title>Node10&#45;&gt;Node8</title>
<g id="a_edge11_Node000010_Node000008"><a xlink:title=" ">
<path fill="none" stroke="#63b8ff" d="M1016.56,-298.8C965.57,-325.1 874.08,-372.3 828.45,-395.84"/>
<polygon fill="#63b8ff" stroke="#63b8ff" points="1018.3,-301.84 1025.59,-294.14 1015.09,-295.62 1018.3,-301.84"/>
</a>
</g>
</g>
<!-- Node12 -->
<g id="Node000012" class="node">
<title>Node12</title>
<g id="a_Node000012"><a xlink:href="eom__ccsd_8ipp.html" target="_top" xlink:title=" ">
<polygon fill="white" stroke="#666666" points="301.5,-228 168.5,-228 168.5,-198 301.5,-198 301.5,-228"/>
<text text-anchor="start" x="176.5" y="-216" font-family="FreeSans" font-size="10.00">mpqc/chemistry/qc/lcao</text>
<text text-anchor="middle" x="235" y="-205" font-family="FreeSans" font-size="10.00">/cc/eom/eom_ccsd.ipp</text>
</a>
</g>
</g>
<!-- Node11&#45;&gt;Node12 -->
<g id="edge13_Node000011_Node000012" class="edge">
<title>Node11&#45;&gt;Node12</title>
<g id="a_edge13_Node000011_Node000012"><a xlink:title=" ">
<path fill="none" stroke="#63b8ff" d="M228.43,-253.83C228.02,-245.17 228.31,-235.7 229.29,-228.16"/>
<polygon fill="#63b8ff" stroke="#63b8ff" points="224.95,-254.13 229.28,-263.8 231.92,-253.54 224.95,-254.13"/>
</a>
</g>
</g>
<!-- Node12&#45;&gt;Node11 -->
<g id="edge15_Node000012_Node000011" class="edge">
<title>Node12&#45;&gt;Node11</title>
<g id="a_edge15_Node000012_Node000011"><a xlink:title=" ">
<path fill="none" stroke="#63b8ff" d="M241.57,-238.13C241.98,-246.78 241.7,-256.26 240.72,-263.8"/>
<polygon fill="#63b8ff" stroke="#63b8ff" points="245.05,-237.83 240.71,-228.16 238.08,-238.43 245.05,-237.83"/>
</a>
</g>
</g>
<!-- Node13 -->
<g id="Node000013" class="node">
<title>Node13</title>
<g id="a_Node000013"><a xlink:href="eom__ccsd_8cpp.html" target="_top" xlink:title=" ">
<polygon fill="white" stroke="#666666" points="271.5,-162 138.5,-162 138.5,-132 271.5,-132 271.5,-162"/>
<text text-anchor="start" x="146.5" y="-150" font-family="FreeSans" font-size="10.00">mpqc/chemistry/qc/lcao</text>
<text text-anchor="middle" x="205" y="-139" font-family="FreeSans" font-size="10.00">/cc/eom/eom_ccsd.cpp</text>
</a>
</g>
</g>
<!-- Node12&#45;&gt;Node13 -->
<g id="edge14_Node000012_Node000013" class="edge">
<title>Node12&#45;&gt;Node13</title>
<g id="a_edge14_Node000012_Node000013"><a xlink:title=" ">
<path fill="none" stroke="#63b8ff" d="M224.07,-188.68C219.9,-179.79 215.29,-169.95 211.64,-162.16"/>
<polygon fill="#63b8ff" stroke="#63b8ff" points="220.93,-190.23 228.34,-197.8 227.27,-187.26 220.93,-190.23"/>
</a>
</g>
</g>
<!-- Node15 -->
<g id="Node000015" class="node">
<title>Node15</title>
<g id="a_Node000015"><a xlink:href="eom__ea__ccsd_8ipp.html" target="_top" xlink:title=" ">
<polygon fill="white" stroke="#666666" points="462,-228 320,-228 320,-198 462,-198 462,-228"/>
<text text-anchor="start" x="328" y="-216" font-family="FreeSans" font-size="10.00">mpqc/chemistry/qc/lcao</text>
<text text-anchor="middle" x="391" y="-205" font-family="FreeSans" font-size="10.00">/cc/eom/eom_ea_ccsd.ipp</text>
</a>
</g>
</g>
<!-- Node14&#45;&gt;Node15 -->
<g id="edge17_Node000014_Node000015" class="edge">
<title>Node14&#45;&gt;Node15</title>
<g id="a_edge17_Node000014_Node000015"><a xlink:title=" ">
<path fill="none" stroke="#63b8ff" d="M384.43,-253.83C384.02,-245.17 384.31,-235.7 385.29,-228.16"/>
<polygon fill="#63b8ff" stroke="#63b8ff" points="380.95,-254.13 385.28,-263.8 387.92,-253.54 380.95,-254.13"/>
</a>
</g>
</g>
<!-- Node15&#45;&gt;Node14 -->
<g id="edge19_Node000015_Node000014" class="edge">
<title>Node15&#45;&gt;Node14</title>
<g id="a_edge19_Node000015_Node000014"><a xlink:title=" ">
<path fill="none" stroke="#63b8ff" d="M397.57,-238.13C397.98,-246.78 397.7,-256.26 396.72,-263.8"/>
<polygon fill="#63b8ff" stroke="#63b8ff" points="401.05,-237.83 396.71,-228.16 394.08,-238.43 401.05,-237.83"/>
</a>
</g>
</g>
<!-- Node16 -->
<g id="Node000016" class="node">
<title>Node16</title>
<g id="a_Node000016"><a xlink:href="eom__ea__ccsd_8cpp.html" target="_top" xlink:title=" ">
<polygon fill="white" stroke="#666666" points="434,-162 290,-162 290,-132 434,-132 434,-162"/>
<text text-anchor="start" x="298" y="-150" font-family="FreeSans" font-size="10.00">mpqc/chemistry/qc/lcao</text>
<text text-anchor="middle" x="362" y="-139" font-family="FreeSans" font-size="10.00">/cc/eom/eom_ea_ccsd.cpp</text>
</a>
</g>
</g>
<!-- Node15&#45;&gt;Node16 -->
<g id="edge18_Node000015_Node000016" class="edge">
<title>Node15&#45;&gt;Node16</title>
<g id="a_edge18_Node000015_Node000016"><a xlink:title=" ">
<path fill="none" stroke="#63b8ff" d="M380.43,-188.68C376.41,-179.79 371.94,-169.95 368.42,-162.16"/>
<polygon fill="#63b8ff" stroke="#63b8ff" points="377.25,-190.13 384.56,-197.8 383.62,-187.24 377.25,-190.13"/>
</a>
</g>
</g>
<!-- Node15&#45;&gt;Node17 -->
<g id="edge20_Node000015_Node000017" class="edge">
<title>Node15&#45;&gt;Node17</title>
<g id="a_edge20_Node000015_Node000017"><a xlink:title=" ">
<path fill="none" stroke="#63b8ff" d="M428.24,-193.38C448.27,-183.36 472.57,-171.22 490.98,-162.01"/>
<polygon fill="#63b8ff" stroke="#63b8ff" points="426.47,-190.35 419.09,-197.95 429.6,-196.61 426.47,-190.35"/>
</a>
</g>
</g>
<!-- Node18 -->
<g id="Node000018" class="node">
<title>Node18</title>
<g id="a_Node000018"><a xlink:href="eom__ip__ccsd_8ipp.html" target="_top" xlink:title=" ">
<polygon fill="white" stroke="#666666" points="588.5,-96 449.5,-96 449.5,-66 588.5,-66 588.5,-96"/>
<text text-anchor="start" x="457.5" y="-84" font-family="FreeSans" font-size="10.00">mpqc/chemistry/qc/lcao</text>
<text text-anchor="middle" x="519" y="-73" font-family="FreeSans" font-size="10.00">/cc/eom/eom_ip_ccsd.ipp</text>
</a>
</g>
</g>
<!-- Node17&#45;&gt;Node18 -->
<g id="edge21_Node000017_Node000018" class="edge">
<title>Node17&#45;&gt;Node18</title>
<g id="a_edge21_Node000017_Node000018"><a xlink:title=" ">
<path fill="none" stroke="#63b8ff" d="M519,-121.54C519,-112.96 519,-103.61 519,-96.16"/>
<polygon fill="#63b8ff" stroke="#63b8ff" points="515.5,-121.8 519,-131.8 522.5,-121.8 515.5,-121.8"/>
</a>
</g>
</g>
<!-- Node19 -->
<g id="Node000019" class="node">
<title>Node19</title>
<g id="a_Node000019"><a xlink:href="eom__ip__ccsd_8cpp.html" target="_top" xlink:title=" ">
<polygon fill="white" stroke="#666666" points="589.5,-30 448.5,-30 448.5,0 589.5,0 589.5,-30"/>
<text text-anchor="start" x="456.5" y="-18" font-family="FreeSans" font-size="10.00">mpqc/chemistry/qc/lcao</text>
<text text-anchor="middle" x="519" y="-7" font-family="FreeSans" font-size="10.00">/cc/eom/eom_ip_ccsd.cpp</text>
</a>
</g>
</g>
<!-- Node18&#45;&gt;Node19 -->
<g id="edge22_Node000018_Node000019" class="edge">
<title>Node18&#45;&gt;Node19</title>
<g id="a_edge22_Node000018_Node000019"><a xlink:title=" ">
<path fill="none" stroke="#63b8ff" d="M519,-55.54C519,-46.96 519,-37.61 519,-30.16"/>
<polygon fill="#63b8ff" stroke="#63b8ff" points="515.5,-55.8 519,-65.8 522.5,-55.8 515.5,-55.8"/>
</a>
</g>
</g>
<!-- Node21 -->
<g id="Node000021" class="node">
<title>Node21</title>
<g id="a_Node000021"><a xlink:href="gamma__point__ccsd_8cpp.html" target="_top" xlink:title=" ">
<polygon fill="white" stroke="#666666" points="666,-228 518,-228 518,-198 666,-198 666,-228"/>
<text text-anchor="start" x="526" y="-216" font-family="FreeSans" font-size="10.00">mpqc/chemistry/qc/lcao</text>
<text text-anchor="middle" x="592" y="-205" font-family="FreeSans" font-size="10.00">/cc/gamma_point_ccsd.cpp</text>
</a>
</g>
</g>
<!-- Node20&#45;&gt;Node21 -->
<g id="edge25_Node000020_Node000021" class="edge">
<title>Node20&#45;&gt;Node21</title>
<g id="a_edge25_Node000020_Node000021"><a xlink:title=" ">
<path fill="none" stroke="#63b8ff" d="M593.85,-253.54C593.45,-244.96 593.01,-235.61 592.66,-228.16"/>
<polygon fill="#63b8ff" stroke="#63b8ff" points="590.37,-253.97 594.33,-263.8 597.36,-253.64 590.37,-253.97"/>
</a>
</g>
</g>
<!-- Node23 -->
<g id="Node000023" class="node">
<title>Node23</title>
<g id="a_Node000023"><a xlink:href="ccsd__t_8ipp.html" target="_top" xlink:title=" ">
<polygon fill="white" stroke="#666666" points="817.5,-228 684.5,-228 684.5,-198 817.5,-198 817.5,-228"/>
<text text-anchor="start" x="692.5" y="-216" font-family="FreeSans" font-size="10.00">mpqc/chemistry/qc/lcao</text>
<text text-anchor="middle" x="751" y="-205" font-family="FreeSans" font-size="10.00">/cc/pt/ccsd_t.ipp</text>
</a>
</g>
</g>
<!-- Node22&#45;&gt;Node23 -->
<g id="edge27_Node000022_Node000023" class="edge">
<title>Node22&#45;&gt;Node23</title>
<g id="a_edge27_Node000022_Node000023"><a xlink:title=" ">
<path fill="none" stroke="#63b8ff" d="M744.43,-253.83C744.02,-245.17 744.31,-235.7 745.29,-228.16"/>
<polygon fill="#63b8ff" stroke="#63b8ff" points="740.95,-254.13 745.28,-263.8 747.92,-253.54 740.95,-254.13"/>
</a>
</g>
</g>
<!-- Node25 -->
<g id="Node000025" class="node">
<title>Node25</title>
<g id="a_Node000025"><a xlink:href="ccsd__t__f12_8h.html" target="_top" xlink:title=" ">
<polygon fill="white" stroke="#666666" points="968.5,-228 835.5,-228 835.5,-198 968.5,-198 968.5,-228"/>
<text text-anchor="start" x="843.5" y="-216" font-family="FreeSans" font-size="10.00">mpqc/chemistry/qc/lcao</text>
<text text-anchor="middle" x="902" y="-205" font-family="FreeSans" font-size="10.00">/f12/ccsd_t_f12.h</text>
</a>
</g>
</g>
<!-- Node22&#45;&gt;Node25 -->
<g id="edge30_Node000022_Node000025" class="edge">
<title>Node22&#45;&gt;Node25</title>
<g id="a_edge30_Node000022_Node000025"><a xlink:title=" ">
<path fill="none" stroke="#63b8ff" d="M793.66,-259.92C817.53,-249.8 846.83,-237.38 868.94,-228.01"/>
<polygon fill="#63b8ff" stroke="#63b8ff" points="791.98,-256.83 784.14,-263.95 794.71,-263.28 791.98,-256.83"/>
</a>
</g>
</g>
<!-- Node23&#45;&gt;Node22 -->
<g id="edge29_Node000023_Node000022" class="edge">
<title>Node23&#45;&gt;Node22</title>
<g id="a_edge29_Node000023_Node000022"><a xlink:title=" ">
<path fill="none" stroke="#63b8ff" d="M757.57,-238.13C757.98,-246.78 757.7,-256.26 756.72,-263.8"/>
<polygon fill="#63b8ff" stroke="#63b8ff" points="761.05,-237.83 756.71,-228.16 754.08,-238.43 761.05,-237.83"/>
</a>
</g>
</g>
<!-- Node24 -->
<g id="Node000024" class="node">
<title>Node24</title>
<g id="a_Node000024"><a xlink:href="ccsd__t_8cpp.html" target="_top" xlink:title=" ">
<polygon fill="white" stroke="#666666" points="817.5,-162 684.5,-162 684.5,-132 817.5,-132 817.5,-162"/>
<text text-anchor="start" x="692.5" y="-150" font-family="FreeSans" font-size="10.00">mpqc/chemistry/qc/lcao</text>
<text text-anchor="middle" x="751" y="-139" font-family="FreeSans" font-size="10.00">/cc/pt/ccsd_t.cpp</text>
</a>
</g>
</g>
<!-- Node23&#45;&gt;Node24 -->
<g id="edge28_Node000023_Node000024" class="edge">
<title>Node23&#45;&gt;Node24</title>
<g id="a_edge28_Node000023_Node000024"><a xlink:title=" ">
<path fill="none" stroke="#63b8ff" d="M751,-187.54C751,-178.96 751,-169.61 751,-162.16"/>
<polygon fill="#63b8ff" stroke="#63b8ff" points="747.5,-187.8 751,-197.8 754.5,-187.8 747.5,-187.8"/>
</a>
</g>
</g>
<!-- Node26 -->
<g id="Node000026" class="node">
<title>Node26</title>
<g id="a_Node000026"><a xlink:href="ccsd__t__f12_8cpp.html" target="_top" xlink:title=" ">
<polygon fill="white" stroke="#666666" points="968.5,-162 835.5,-162 835.5,-132 968.5,-132 968.5,-162"/>
<text text-anchor="start" x="843.5" y="-150" font-family="FreeSans" font-size="10.00">mpqc/chemistry/qc/lcao</text>
<text text-anchor="middle" x="902" y="-139" font-family="FreeSans" font-size="10.00">/f12/ccsd_t_f12.cpp</text>
</a>
</g>
</g>
<!-- Node25&#45;&gt;Node26 -->
<g id="edge31_Node000025_Node000026" class="edge">
<title>Node25&#45;&gt;Node26</title>
<g id="a_edge31_Node000025_Node000026"><a xlink:title=" ">
<path fill="none" stroke="#63b8ff" d="M902,-187.54C902,-178.96 902,-169.61 902,-162.16"/>
<polygon fill="#63b8ff" stroke="#63b8ff" points="898.5,-187.8 902,-197.8 905.5,-187.8 898.5,-187.8"/>
</a>
</g>
</g>
<!-- Node27&#45;&gt;Node25 -->
<g id="edge36_Node000027_Node000025" class="edge">
<title>Node27&#45;&gt;Node25</title>
<g id="a_edge36_Node000027_Node000025"><a xlink:title=" ">
<path fill="none" stroke="#63b8ff" d="M902,-253.54C902,-244.96 902,-235.61 902,-228.16"/>
<polygon fill="#63b8ff" stroke="#63b8ff" points="898.5,-253.8 902,-263.8 905.5,-253.8 898.5,-253.8"/>
</a>
</g>
</g>
<!-- Node28 -->
<g id="Node000028" class="node">
<title>Node28</title>
<g id="a_Node000028"><a xlink:href="ccsd__f12_8ipp.html" target="_top" xlink:title=" ">
<polygon fill="white" stroke="#666666" points="1119.5,-228 986.5,-228 986.5,-198 1119.5,-198 1119.5,-228"/>
<text text-anchor="start" x="994.5" y="-216" font-family="FreeSans" font-size="10.00">mpqc/chemistry/qc/lcao</text>
<text text-anchor="middle" x="1053" y="-205" font-family="FreeSans" font-size="10.00">/f12/ccsd_f12.ipp</text>
</a>
</g>
</g>
<!-- Node27&#45;&gt;Node28 -->
<g id="edge33_Node000027_Node000028" class="edge">
<title>Node27&#45;&gt;Node28</title>
<g id="a_edge33_Node000027_Node000028"><a xlink:title=" ">
<path fill="none" stroke="#63b8ff" d="M938.82,-259.78C961.71,-249.69 991,-237.34 1014.24,-228.01"/>
<polygon fill="#63b8ff" stroke="#63b8ff" points="937.15,-256.69 929.44,-263.95 940,-263.09 937.15,-256.69"/>
</a>
</g>
</g>
<!-- Node28&#45;&gt;Node27 -->
<g id="edge35_Node000028_Node000027" class="edge">
<title>Node28&#45;&gt;Node27</title>
<g id="a_edge35_Node000028_Node000027"><a xlink:title=" ">
<path fill="none" stroke="#63b8ff" d="M1016.26,-232.18C993.39,-242.27 964.09,-254.62 940.84,-263.95"/>
<polygon fill="#63b8ff" stroke="#63b8ff" points="1017.92,-235.27 1025.63,-228.01 1015.08,-228.88 1017.92,-235.27"/>
</a>
</g>
</g>
<!-- Node29 -->
<g id="Node000029" class="node">
<title>Node29</title>
<g id="a_Node000029"><a xlink:href="ccsd__f12_8cpp.html" target="_top" xlink:title=" ">
<polygon fill="white" stroke="#666666" points="1119.5,-162 986.5,-162 986.5,-132 1119.5,-132 1119.5,-162"/>
<text text-anchor="start" x="994.5" y="-150" font-family="FreeSans" font-size="10.00">mpqc/chemistry/qc/lcao</text>
<text text-anchor="middle" x="1053" y="-139" font-family="FreeSans" font-size="10.00">/f12/ccsd_f12.cpp</text>
</a>
</g>
</g>
<!-- Node28&#45;&gt;Node29 -->
<g id="edge34_Node000028_Node000029" class="edge">
<title>Node28&#45;&gt;Node29</title>
<g id="a_edge34_Node000028_Node000029"><a xlink:title=" ">
<path fill="none" stroke="#63b8ff" d="M1053,-187.54C1053,-178.96 1053,-169.61 1053,-162.16"/>
<polygon fill="#63b8ff" stroke="#63b8ff" points="1049.5,-187.8 1053,-197.8 1056.5,-187.8 1049.5,-187.8"/>
</a>
</g>
</g>
<!-- Node31 -->
<g id="Node000031" class="node">
<title>Node31</title>
<g id="a_Node000031"><a xlink:href="ccsdt__approximations_8h.html" target="_top" xlink:title=" ">
<polygon fill="white" stroke="#666666" points="1068.5,-492 919.5,-492 919.5,-462 1068.5,-462 1068.5,-492"/>
<text text-anchor="start" x="927.5" y="-480" font-family="FreeSans" font-size="10.00">mpqc/chemistry/qc/lcao</text>
<text text-anchor="middle" x="994" y="-469" font-family="FreeSans" font-size="10.00">/cc/ccsdt_approximations.h</text>
</a>
</g>
</g>
<!-- Node30&#45;&gt;Node31 -->
<g id="edge40_Node000030_Node000031" class="edge">
<title>Node30&#45;&gt;Node31</title>
<g id="a_edge40_Node000030_Node000031"><a xlink:title=" ">
<path fill="none" stroke="#63b8ff" d="M994,-517.54C994,-508.96 994,-499.61 994,-492.16"/>
<polygon fill="#63b8ff" stroke="#63b8ff" points="990.5,-517.8 994,-527.8 997.5,-517.8 990.5,-517.8"/>
</a>
</g>
</g>
<!-- Node32 -->
<g id="Node000032" class="node">
<title>Node32</title>
<g id="a_Node000032"><a xlink:href="ccsdt__residual_8ipp.html" target="_top" xlink:title=" ">
<polygon fill="white" stroke="#666666" points="1162.5,-426 1029.5,-426 1029.5,-396 1162.5,-396 1162.5,-426"/>
<text text-anchor="start" x="1037.5" y="-414" font-family="FreeSans" font-size="10.00">mpqc/chemistry/qc/lcao</text>
<text text-anchor="middle" x="1096" y="-403" font-family="FreeSans" font-size="10.00">/cc/ccsdt_residual.ipp</text>
</a>
</g>
</g>
<!-- Node30&#45;&gt;Node32 -->
<g id="edge49_Node000030_Node000032" class="edge">
<title>Node30&#45;&gt;Node32</title>
<g id="a_edge49_Node000030_Node000032"><a xlink:title=" ">
<path fill="none" stroke="#63b8ff" d="M1039.59,-523.1C1053.43,-515.33 1067.48,-505.04 1077,-492 1091.4,-472.29 1095.04,-443.22 1095.87,-426.08"/>
<polygon fill="#63b8ff" stroke="#63b8ff" points="1037.79,-520.09 1030.57,-527.84 1041.05,-526.28 1037.79,-520.09"/>
</a>
</g>
</g>
<!-- Node31&#45;&gt;Node32 -->
<g id="edge41_Node000031_Node000032" class="edge">
<title>Node31&#45;&gt;Node32</title>
<g id="a_edge41_Node000031_Node000032"><a xlink:title=" ">
<path fill="none" stroke="#63b8ff" d="M1025.21,-456.42C1040.86,-446.6 1059.46,-434.93 1073.67,-426.01"/>
<polygon fill="#63b8ff" stroke="#63b8ff" points="1022.99,-453.68 1016.38,-461.95 1026.72,-459.6 1022.99,-453.68"/>
</a>
</g>
</g>
<!-- Node33 -->
<g id="Node000033" class="node">
<title>Node33</title>
<g id="a_Node000033"><a xlink:href="ccsdt__residual_8cpp.html" target="_top" xlink:title=" ">
<polygon fill="white" stroke="#666666" points="1131.5,-360 998.5,-360 998.5,-330 1131.5,-330 1131.5,-360"/>
<text text-anchor="start" x="1006.5" y="-348" font-family="FreeSans" font-size="10.00">mpqc/chemistry/qc/lcao</text>
<text text-anchor="middle" x="1065" y="-337" font-family="FreeSans" font-size="10.00">/cc/ccsdt_residual.cpp</text>
</a>
</g>
</g>
<!-- Node32&#45;&gt;Node33 -->
<g id="edge42_Node000032_Node000033" class="edge">
<title>Node32&#45;&gt;Node33</title>
<g id="a_edge42_Node000032_Node000033"><a xlink:title=" ">
<path fill="none" stroke="#63b8ff" d="M1084.7,-386.68C1080.4,-377.79 1075.63,-367.95 1071.86,-360.16"/>
<polygon fill="#63b8ff" stroke="#63b8ff" points="1081.61,-388.32 1089.12,-395.8 1087.91,-385.27 1081.61,-388.32"/>
</a>
</g>
</g>
<!-- Node34 -->
<g id="Node000034" class="node">
<title>Node34</title>
<g id="a_Node000034"><a xlink:href="ccsdt__residual_8h.html" target="_top" xlink:title=" ">
<polygon fill="white" stroke="#666666" points="1282.5,-360 1149.5,-360 1149.5,-330 1282.5,-330 1282.5,-360"/>
<text text-anchor="start" x="1157.5" y="-348" font-family="FreeSans" font-size="10.00">mpqc/chemistry/qc/lcao</text>
<text text-anchor="middle" x="1216" y="-337" font-family="FreeSans" font-size="10.00">/cc/ccsdt_residual.h</text>
</a>
</g>
</g>
<!-- Node32&#45;&gt;Node34 -->
<g id="edge43_Node000032_Node000034" class="edge">
<title>Node32&#45;&gt;Node34</title>
<g id="a_edge43_Node000032_Node000034"><a xlink:title=" ">
<path fill="none" stroke="#63b8ff" d="M1125.45,-390.97C1143.24,-381.03 1165.81,-369.09 1184.03,-360.01"/>
<polygon fill="#63b8ff" stroke="#63b8ff" points="1123.62,-387.99 1116.64,-395.95 1127.06,-394.08 1123.62,-387.99"/>
</a>
</g>
</g>
<!-- Node34&#45;&gt;Node32 -->
<g id="edge48_Node000034_Node000032" class="edge">
<title>Node34&#45;&gt;Node32</title>
<g id="a_edge48_Node000034_Node000032"><a xlink:title=" ">
<path fill="none" stroke="#63b8ff" d="M1186.61,-365C1168.83,-374.93 1146.27,-386.87 1128.03,-395.95"/>
<polygon fill="#63b8ff" stroke="#63b8ff" points="1188.44,-367.98 1195.42,-360.01 1184.99,-361.89 1188.44,-367.98"/>
</a>
</g>
</g>
<!-- Node35 -->
<g id="Node000035" class="node">
<title>Node35</title>
<g id="a_Node000035"><a xlink:href="ccsdt_8ipp.html" target="_top" xlink:title=" ">
<polygon fill="white" stroke="#666666" points="1345.5,-294 1212.5,-294 1212.5,-264 1345.5,-264 1345.5,-294"/>
<text text-anchor="start" x="1220.5" y="-282" font-family="FreeSans" font-size="10.00">mpqc/chemistry/qc/lcao</text>
<text text-anchor="middle" x="1279" y="-271" font-family="FreeSans" font-size="10.00">/cc/ccsdt.ipp</text>
</a>
</g>
</g>
<!-- Node34&#45;&gt;Node35 -->
<g id="edge44_Node000034_Node000035" class="edge">
<title>Node34&#45;&gt;Node35</title>
<g id="a_edge44_Node000034_Node000035"><a xlink:title=" ">
<path fill="none" stroke="#63b8ff" d="M1237.02,-322.65C1246.25,-313.27 1256.83,-302.53 1265.06,-294.16"/>
<polygon fill="#63b8ff" stroke="#63b8ff" points="1234.5,-320.21 1229.98,-329.8 1239.49,-325.13 1234.5,-320.21"/>
</a>
</g>
</g>
<!-- Node36 -->
<g id="Node000036" class="node">
<title>Node36</title>
<g id="a_Node000036"><a xlink:href="ccsdt_8cpp.html" target="_top" xlink:title=" ">
<polygon fill="white" stroke="#666666" points="1270.5,-228 1137.5,-228 1137.5,-198 1270.5,-198 1270.5,-228"/>
<text text-anchor="start" x="1145.5" y="-216" font-family="FreeSans" font-size="10.00">mpqc/chemistry/qc/lcao</text>
<text text-anchor="middle" x="1204" y="-205" font-family="FreeSans" font-size="10.00">/cc/ccsdt.cpp</text>
</a>
</g>
</g>
<!-- Node35&#45;&gt;Node36 -->
<g id="edge45_Node000035_Node000036" class="edge">
<title>Node35&#45;&gt;Node36</title>
<g id="a_edge45_Node000035_Node000036"><a xlink:title=" ">
<path fill="none" stroke="#63b8ff" d="M1254.63,-257.2C1243.49,-247.7 1230.59,-236.69 1220.6,-228.16"/>
<polygon fill="#63b8ff" stroke="#63b8ff" points="1252.48,-259.97 1262.36,-263.8 1257.02,-254.64 1252.48,-259.97"/>
</a>
</g>
</g>
<!-- Node37 -->
<g id="Node000037" class="node">
<title>Node37</title>
<g id="a_Node000037"><a xlink:href="ccsdt_8h.html" target="_top" xlink:title=" ">
<polygon fill="white" stroke="#666666" points="1421.5,-228 1288.5,-228 1288.5,-198 1421.5,-198 1421.5,-228"/>
<text text-anchor="start" x="1296.5" y="-216" font-family="FreeSans" font-size="10.00">mpqc/chemistry/qc/lcao</text>
<text text-anchor="middle" x="1355" y="-205" font-family="FreeSans" font-size="10.00">/cc/ccsdt.h</text>
</a>
</g>
</g>
<!-- Node35&#45;&gt;Node37 -->
<g id="edge46_Node000035_Node000037" class="edge">
<title>Node35&#45;&gt;Node37</title>
<g id="a_edge46_Node000035_Node000037"><a xlink:title=" ">
<path fill="none" stroke="#63b8ff" d="M1297.64,-256.92C1308.2,-247.49 1321.34,-236.61 1332.47,-228.16"/>
<polygon fill="#63b8ff" stroke="#63b8ff" points="1295.15,-254.46 1290.15,-263.8 1299.88,-259.62 1295.15,-254.46"/>
</a>
</g>
</g>
<!-- Node37&#45;&gt;Node35 -->
<g id="edge47_Node000037_Node000035" class="edge">
<title>Node37&#45;&gt;Node35</title>
<g id="a_edge47_Node000037_Node000035"><a xlink:title=" ">
<path fill="none" stroke="#63b8ff" d="M1336.41,-235.03C1325.86,-244.46 1312.72,-255.34 1301.59,-263.8"/>
<polygon fill="#63b8ff" stroke="#63b8ff" points="1338.89,-237.5 1343.9,-228.16 1334.16,-232.35 1338.89,-237.5"/>
</a>
</g>
</g>
</g>
</svg>
