<?xml version="1.0" encoding="UTF-8" standalone="no"?>
<!DOCTYPE svg PUBLIC "-//W3C//DTD SVG 1.1//EN"
 "http://www.w3.org/Graphics/SVG/1.1/DTD/svg11.dtd">
<!-- Generated by graphviz version 2.43.0 (0)
 -->
<!-- Title: mpqc/chemistry/qc/lcao/cc/ccsd_residual.ipp Pages: 1 -->
<svg width="1128pt" height="566pt"
 viewBox="0.00 0.00 1127.50 566.00" xmlns="http://www.w3.org/2000/svg" xmlns:xlink="http://www.w3.org/1999/xlink">
<g id="graph0" class="graph" transform="scale(1 1) rotate(0) translate(4 562)">
<title>mpqc/chemistry/qc/lcao/cc/ccsd_residual.ipp</title>
<!-- Node1 -->
<g id="Node000001" class="node">
<title>Node1</title>
<g id="a_Node000001"><a xlink:title=" ">
<polygon fill="#999999" stroke="#666666" points="705.5,-558 572.5,-558 572.5,-528 705.5,-528 705.5,-558"/>
<text text-anchor="start" x="580.5" y="-546" font-family="FreeSans" font-size="10.00">mpqc/chemistry/qc/lcao</text>
<text text-anchor="middle" x="639" y="-535" font-family="FreeSans" font-size="10.00">/cc/ccsd_residual.ipp</text>
</a>
</g>
</g>
<!-- Node2 -->
<g id="Node000002" class="node">
<title>Node2</title>
<g id="a_Node000002"><a xlink:href="ccsd__residual_8cpp.html" target="_top" xlink:title=" ">
<polygon fill="white" stroke="#666666" points="554.5,-492 421.5,-492 421.5,-462 554.5,-462 554.5,-492"/>
<text text-anchor="start" x="429.5" y="-480" font-family="FreeSans" font-size="10.00">mpqc/chemistry/qc/lcao</text>
<text text-anchor="middle" x="488" y="-469" font-family="FreeSans" font-size="10.00">/cc/ccsd_residual.cpp</text>
</a>
</g>
</g>
<!-- Node1&#45;&gt;Node2 -->
<g id="edge1_Node000001_Node000002" class="edge">
<title>Node1&#45;&gt;Node2</title>
<g id="a_edge1_Node000001_Node000002"><a xlink:title=" ">
<path fill="none" stroke="#63b8ff" d="M596.34,-523.92C572.47,-513.8 543.17,-501.38 521.06,-492.01"/>
<polygon fill="#63b8ff" stroke="#63b8ff" points="595.29,-527.28 605.86,-527.95 598.02,-520.83 595.29,-527.28"/>
</a>
</g>
</g>
<!-- Node3 -->
<g id="Node000003" class="node">
<title>Node3</title>
<g id="a_Node000003"><a xlink:href="ccsd__residual_8h.html" target="_top" xlink:title=" ">
<polygon fill="white" stroke="#666666" points="705.5,-492 572.5,-492 572.5,-462 705.5,-462 705.5,-492"/>
<text text-anchor="start" x="580.5" y="-480" font-family="FreeSans" font-size="10.00">mpqc/chemistry/qc/lcao</text>
<text text-anchor="middle" x="639" y="-469" font-family="FreeSans" font-size="10.00">/cc/ccsd_residual.h</text>
</a>
</g>
</g>
<!-- Node1&#45;&gt;Node3 -->
<g id="edge2_Node000001_Node000003" class="edge">
<title>Node1&#45;&gt;Node3</title>
<g id="a_edge2_Node000001_Node000003"><a xlink:title=" ">
<path fill="none" stroke="#63b8ff" d="M632.43,-517.83C632.02,-509.17 632.31,-499.7 633.29,-492.16"/>
<polygon fill="#63b8ff" stroke="#63b8ff" points="628.95,-518.13 633.28,-527.8 635.92,-517.54 628.95,-518.13"/>
</a>
</g>
</g>
<!-- Node3&#45;&gt;Node1 -->
<g id="edge37_Node000003_Node000001" class="edge">
<title>Node3&#45;&gt;Node1</title>
<g id="a_edge37_Node000003_Node000001"><a xlink:title=" ">
<path fill="none" stroke="#63b8ff" d="M645.57,-502.13C645.98,-510.78 645.7,-520.26 644.72,-527.8"/>
<polygon fill="#63b8ff" stroke="#63b8ff" points="649.05,-501.83 644.71,-492.16 642.08,-502.43 649.05,-501.83"/>
</a>
</g>
</g>
<!-- Node4 -->
<g id="Node000004" class="node">
<title>Node4</title>
<g id="a_Node000004"><a xlink:href="ccsd_8h.html" target="_top" xlink:title=" ">
<polygon fill="white" stroke="#666666" points="658.5,-360 525.5,-360 525.5,-330 658.5,-330 658.5,-360"/>
<text text-anchor="start" x="533.5" y="-348" font-family="FreeSans" font-size="10.00">mpqc/chemistry/qc/lcao</text>
<text text-anchor="middle" x="592" y="-337" font-family="FreeSans" font-size="10.00">/cc/ccsd.h</text>
</a>
</g>
</g>
<!-- Node3&#45;&gt;Node4 -->
<g id="edge3_Node000003_Node000004" class="edge">
<title>Node3&#45;&gt;Node4</title>
<g id="a_edge3_Node000003_Node000004"><a xlink:title=" ">
<path fill="none" stroke="#63b8ff" d="M624.33,-452.96C619.56,-444.7 614.57,-435.16 611,-426 602.34,-403.79 596.89,-376.51 594.15,-360.23"/>
<polygon fill="#63b8ff" stroke="#63b8ff" points="621.4,-454.88 629.55,-461.65 627.41,-451.27 621.4,-454.88"/>
</a>
</g>
</g>
<!-- Node7 -->
<g id="Node000007" class="node">
<title>Node7</title>
<g id="a_Node000007"><a xlink:href="ccsd_8ipp.html" target="_top" xlink:title=" ">
<polygon fill="white" stroke="#666666" points="753.5,-426 620.5,-426 620.5,-396 753.5,-396 753.5,-426"/>
<text text-anchor="start" x="628.5" y="-414" font-family="FreeSans" font-size="10.00">mpqc/chemistry/qc/lcao</text>
<text text-anchor="middle" x="687" y="-403" font-family="FreeSans" font-size="10.00">/cc/ccsd.ipp</text>
</a>
</g>
</g>
<!-- Node3&#45;&gt;Node7 -->
<g id="edge36_Node000003_Node000007" class="edge">
<title>Node3&#45;&gt;Node7</title>
<g id="a_edge36_Node000003_Node000007"><a xlink:title=" ">
<path fill="none" stroke="#63b8ff" d="M655.86,-453.53C662.68,-444.43 670.35,-434.19 676.38,-426.16"/>
<polygon fill="#63b8ff" stroke="#63b8ff" points="652.85,-451.7 649.65,-461.8 658.45,-455.9 652.85,-451.7"/>
</a>
</g>
</g>
<!-- Node5 -->
<g id="Node000005" class="node">
<title>Node5</title>
<g id="a_Node000005"><a xlink:href="cc_8h.html" target="_top" xlink:title=" ">
<polygon fill="white" stroke="#666666" points="149.5,-294 4.5,-294 4.5,-264 149.5,-264 149.5,-294"/>
<text text-anchor="start" x="12.5" y="-282" font-family="FreeSans" font-size="10.00">/home/runner/work/mpqc4</text>
<text text-anchor="middle" x="77" y="-271" font-family="FreeSans" font-size="10.00">/mpqc4/python/src/cc.h</text>
</a>
</g>
</g>
<!-- Node4&#45;&gt;Node5 -->
<g id="edge4_Node000004_Node000005" class="edge">
<title>Node4&#45;&gt;Node5</title>
<g id="a_edge4_Node000004_Node000005"><a xlink:title=" ">
<path fill="none" stroke="#63b8ff" d="M515.45,-336.43C428.8,-327.56 283.48,-311.8 159,-294 156,-293.57 152.94,-293.12 149.85,-292.65"/>
<polygon fill="#63b8ff" stroke="#63b8ff" points="515.16,-339.91 525.47,-337.45 515.87,-332.95 515.16,-339.91"/>
</a>
</g>
</g>
<!-- Node4&#45;&gt;Node7 -->
<g id="edge6_Node000004_Node000007" class="edge">
<title>Node4&#45;&gt;Node7</title>
<g id="a_edge6_Node000004_Node000007"><a xlink:title=" ">
<path fill="none" stroke="#63b8ff" d="M627.46,-365.66C642.69,-375.39 659.63,-386.93 671.64,-395.8"/>
<polygon fill="#63b8ff" stroke="#63b8ff" points="629.07,-362.53 618.74,-360.16 625.34,-368.46 629.07,-362.53"/>
</a>
</g>
</g>
<!-- Node9 -->
<g id="Node000009" class="node">
<title>Node9</title>
<g id="a_Node000009"><a xlink:href="ccsd__response_8h.html" target="_top" xlink:title=" ">
<polygon fill="white" stroke="#666666" points="1119.5,-294 986.5,-294 986.5,-264 1119.5,-264 1119.5,-294"/>
<text text-anchor="start" x="994.5" y="-282" font-family="FreeSans" font-size="10.00">mpqc/chemistry/qc/lcao</text>
<text text-anchor="middle" x="1053" y="-271" font-family="FreeSans" font-size="10.00">/cc/ccsd_response.h</text>
</a>
</g>
</g>
<!-- Node4&#45;&gt;Node9 -->
<g id="edge9_Node000004_Node000009" class="edge">
<title>Node4&#45;&gt;Node9</title>
<g id="a_edge9_Node000004_Node000009"><a xlink:title=" ">
<path fill="none" stroke="#63b8ff" d="M668.7,-329.81C806.32,-309.47 843.64,-314.29 978,-294 980.75,-293.58 983.55,-293.14 986.38,-292.68"/>
<polygon fill="#63b8ff" stroke="#63b8ff" points="667.99,-326.38 658.62,-331.32 669.02,-333.3 667.99,-326.38"/>
</a>
</g>
</g>
<!-- Node10 -->
<g id="Node000010" class="node">
<title>Node10</title>
<g id="a_Node000010"><a xlink:href="eom__ccsd_8h.html" target="_top" xlink:title=" ">
<polygon fill="white" stroke="#666666" points="301.5,-294 168.5,-294 168.5,-264 301.5,-264 301.5,-294"/>
<text text-anchor="start" x="176.5" y="-282" font-family="FreeSans" font-size="10.00">mpqc/chemistry/qc/lcao</text>
<text text-anchor="middle" x="235" y="-271" font-family="FreeSans" font-size="10.00">/cc/eom/eom_ccsd.h</text>
</a>
</g>
</g>
<!-- Node4&#45;&gt;Node10 -->
<g id="edge11_Node000004_Node000010" class="edge">
<title>Node4&#45;&gt;Node10</title>
<g id="a_edge11_Node000004_Node000010"><a xlink:title=" ">
<path fill="none" stroke="#63b8ff" d="M515.3,-330.25C451.75,-318.86 362.33,-302.83 301.71,-291.96"/>
<polygon fill="#63b8ff" stroke="#63b8ff" points="514.81,-333.72 525.27,-332.04 516.04,-326.83 514.81,-333.72"/>
</a>
</g>
</g>
<!-- Node13 -->
<g id="Node000013" class="node">
<title>Node13</title>
<g id="a_Node000013"><a xlink:href="eom__ea__ccsd_8h.html" target="_top" xlink:title=" ">
<polygon fill="white" stroke="#666666" points="457.5,-294 324.5,-294 324.5,-264 457.5,-264 457.5,-294"/>
<text text-anchor="start" x="332.5" y="-282" font-family="FreeSans" font-size="10.00">mpqc/chemistry/qc/lcao</text>
<text text-anchor="middle" x="391" y="-271" font-family="FreeSans" font-size="10.00">/cc/eom/eom_ea_ccsd.h</text>
</a>
</g>
</g>
<!-- Node4&#45;&gt;Node13 -->
<g id="edge15_Node000004_Node000013" class="edge">
<title>Node4&#45;&gt;Node13</title>
<g id="a_edge15_Node000004_Node000013"><a xlink:title=" ">
<path fill="none" stroke="#63b8ff" d="M538.16,-326.86C505.88,-316.58 465.36,-303.68 435.01,-294.01"/>
<polygon fill="#63b8ff" stroke="#63b8ff" points="537.3,-330.26 547.89,-329.95 539.42,-323.59 537.3,-330.26"/>
</a>
</g>
</g>
<!-- Node16 -->
<g id="Node000016" class="node">
<title>Node16</title>
<g id="a_Node000016"><a xlink:href="eom__ip__ccsd_8h.html" target="_top" xlink:title=" ">
<polygon fill="white" stroke="#666666" points="585.5,-162 452.5,-162 452.5,-132 585.5,-132 585.5,-162"/>
<text text-anchor="start" x="460.5" y="-150" font-family="FreeSans" font-size="10.00">mpqc/chemistry/qc/lcao</text>
<text text-anchor="middle" x="519" y="-139" font-family="FreeSans" font-size="10.00">/cc/eom/eom_ip_ccsd.h</text>
</a>
</g>
</g>
<!-- Node4&#45;&gt;Node16 -->
<g id="edge22_Node000004_Node000016" class="edge">
<title>Node4&#45;&gt;Node16</title>
<g id="a_edge22_Node000004_Node000016"><a xlink:title=" ">
<path fill="none" stroke="#63b8ff" d="M547.24,-324.93C534.39,-317.23 521.77,-307.02 514,-294 488.78,-251.75 504.66,-189.69 513.82,-162.11"/>
<polygon fill="#63b8ff" stroke="#63b8ff" points="545.67,-328.06 556.11,-329.87 549.08,-321.95 545.67,-328.06"/>
</a>
</g>
</g>
<!-- Node19 -->
<g id="Node000019" class="node">
<title>Node19</title>
<g id="a_Node000019"><a xlink:href="gamma__point__ccsd_8h.html" target="_top" xlink:title=" ">
<polygon fill="white" stroke="#666666" points="660.5,-294 523.5,-294 523.5,-264 660.5,-264 660.5,-294"/>
<text text-anchor="start" x="531.5" y="-282" font-family="FreeSans" font-size="10.00">mpqc/chemistry/qc/lcao</text>
<text text-anchor="middle" x="592" y="-271" font-family="FreeSans" font-size="10.00">/cc/gamma_point_ccsd.h</text>
</a>
</g>
</g>
<!-- Node4&#45;&gt;Node19 -->
<g id="edge23_Node000004_Node000019" class="edge">
<title>Node4&#45;&gt;Node19</title>
<g id="a_edge23_Node000004_Node000019"><a xlink:title=" ">
<path fill="none" stroke="#63b8ff" d="M592,-319.54C592,-310.96 592,-301.61 592,-294.16"/>
<polygon fill="#63b8ff" stroke="#63b8ff" points="588.5,-319.8 592,-329.8 595.5,-319.8 588.5,-319.8"/>
</a>
</g>
</g>
<!-- Node21 -->
<g id="Node000021" class="node">
<title>Node21</title>
<g id="a_Node000021"><a xlink:href="ccsd__t_8h.html" target="_top" xlink:title=" ">
<polygon fill="white" stroke="#666666" points="817.5,-294 684.5,-294 684.5,-264 817.5,-264 817.5,-294"/>
<text text-anchor="start" x="692.5" y="-282" font-family="FreeSans" font-size="10.00">mpqc/chemistry/qc/lcao</text>
<text text-anchor="middle" x="751" y="-271" font-family="FreeSans" font-size="10.00">/cc/pt/ccsd_t.h</text>
</a>
</g>
</g>
<!-- Node4&#45;&gt;Node21 -->
<g id="edge25_Node000004_Node000021" class="edge">
<title>Node4&#45;&gt;Node21</title>
<g id="a_edge25_Node000004_Node000021"><a xlink:title=" ">
<path fill="none" stroke="#63b8ff" d="M636.25,-326.19C661.5,-316.02 692.7,-303.47 716.19,-294.01"/>
<polygon fill="#63b8ff" stroke="#63b8ff" points="634.86,-322.97 626.89,-329.95 637.48,-329.47 634.86,-322.97"/>
</a>
</g>
</g>
<!-- Node26 -->
<g id="Node000026" class="node">
<title>Node26</title>
<g id="a_Node000026"><a xlink:href="ccsd__f12_8h.html" target="_top" xlink:title=" ">
<polygon fill="white" stroke="#666666" points="968.5,-294 835.5,-294 835.5,-264 968.5,-264 968.5,-294"/>
<text text-anchor="start" x="843.5" y="-282" font-family="FreeSans" font-size="10.00">mpqc/chemistry/qc/lcao</text>
<text text-anchor="middle" x="902" y="-271" font-family="FreeSans" font-size="10.00">/f12/ccsd_f12.h</text>
</a>
</g>
</g>
<!-- Node4&#45;&gt;Node26 -->
<g id="edge31_Node000004_Node000026" class="edge">
<title>Node4&#45;&gt;Node26</title>
<g id="a_edge31_Node000004_Node000026"><a xlink:title=" ">
<path fill="none" stroke="#63b8ff" d="M668.52,-328.2C719.69,-317.64 786.35,-303.88 835.34,-293.76"/>
<polygon fill="#63b8ff" stroke="#63b8ff" points="667.59,-324.82 658.5,-330.27 669,-331.68 667.59,-324.82"/>
</a>
</g>
</g>
<!-- Node6 -->
<g id="Node000006" class="node">
<title>Node6</title>
<g id="a_Node000006"><a xlink:href="mpqc_8cc.html" target="_top" xlink:title=" ">
<polygon fill="white" stroke="#666666" points="150,-228 0,-228 0,-198 150,-198 150,-228"/>
<text text-anchor="start" x="8" y="-216" font-family="FreeSans" font-size="10.00">/home/runner/work/mpqc4</text>
<text text-anchor="middle" x="75" y="-205" font-family="FreeSans" font-size="10.00">/mpqc4/python/src/mpqc.cc</text>
</a>
</g>
</g>
<!-- Node5&#45;&gt;Node6 -->
<g id="edge5_Node000005_Node000006" class="edge">
<title>Node5&#45;&gt;Node6</title>
<g id="a_edge5_Node000005_Node000006"><a xlink:title=" ">
<path fill="none" stroke="#63b8ff" d="M76.24,-253.54C75.97,-244.96 75.68,-235.61 75.44,-228.16"/>
<polygon fill="#63b8ff" stroke="#63b8ff" points="72.75,-253.91 76.56,-263.8 79.74,-253.69 72.75,-253.91"/>
</a>
</g>
</g>
<!-- Node7&#45;&gt;Node4 -->
<g id="edge8_Node000007_Node000004" class="edge">
<title>Node7&#45;&gt;Node4</title>
<g id="a_edge8_Node000007_Node000004"><a xlink:title=" ">
<path fill="none" stroke="#63b8ff" d="M651.66,-390.42C636.29,-380.6 619.16,-368.93 607.1,-360.01"/>
<polygon fill="#63b8ff" stroke="#63b8ff" points="650.13,-393.59 660.45,-395.95 653.85,-387.67 650.13,-393.59"/>
</a>
</g>
</g>
<!-- Node8 -->
<g id="Node000008" class="node">
<title>Node8</title>
<g id="a_Node000008"><a xlink:href="ccsd_8cpp.html" target="_top" xlink:title=" ">
<polygon fill="white" stroke="#666666" points="809.5,-360 676.5,-360 676.5,-330 809.5,-330 809.5,-360"/>
<text text-anchor="start" x="684.5" y="-348" font-family="FreeSans" font-size="10.00">mpqc/chemistry/qc/lcao</text>
<text text-anchor="middle" x="743" y="-337" font-family="FreeSans" font-size="10.00">/cc/ccsd.cpp</text>
</a>
</g>
</g>
<!-- Node7&#45;&gt;Node8 -->
<g id="edge7_Node000007_Node000008" class="edge">
<title>Node7&#45;&gt;Node8</title>
<g id="a_edge7_Node000007_Node000008"><a xlink:title=" ">
<path fill="none" stroke="#63b8ff" d="M706.17,-388.09C714.26,-378.85 723.44,-368.36 730.61,-360.16"/>
<polygon fill="#63b8ff" stroke="#63b8ff" points="703.38,-385.97 699.43,-395.8 708.65,-390.58 703.38,-385.97"/>
</a>
</g>
</g>
<!-- Node9&#45;&gt;Node7 -->
<g id="edge10_Node000009_Node000007" class="edge">
<title>Node9&#45;&gt;Node7</title>
<g id="a_edge10_Node000009_Node000007"><a xlink:title=" ">
<path fill="none" stroke="#63b8ff" d="M1003.89,-297.44C930.54,-323.5 793.83,-372.06 726.52,-395.96"/>
<polygon fill="#63b8ff" stroke="#63b8ff" points="1005.12,-300.72 1013.37,-294.08 1002.78,-294.12 1005.12,-300.72"/>
</a>
</g>
</g>
<!-- Node11 -->
<g id="Node000011" class="node">
<title>Node11</title>
<g id="a_Node000011"><a xlink:href="eom__ccsd_8ipp.html" target="_top" xlink:title=" ">
<polygon fill="white" stroke="#666666" points="301.5,-228 168.5,-228 168.5,-198 301.5,-198 301.5,-228"/>
<text text-anchor="start" x="176.5" y="-216" font-family="FreeSans" font-size="10.00">mpqc/chemistry/qc/lcao</text>
<text text-anchor="middle" x="235" y="-205" font-family="FreeSans" font-size="10.00">/cc/eom/eom_ccsd.ipp</text>
</a>
</g>
</g>
<!-- Node10&#45;&gt;Node11 -->
<g id="edge12_Node000010_Node000011" class="edge">
<title>Node10&#45;&gt;Node11</title>
<g id="a_edge12_Node000010_Node000011"><a xlink:title=" ">
<path fill="none" stroke="#63b8ff" d="M228.43,-253.83C228.02,-245.17 228.31,-235.7 229.29,-228.16"/>
<polygon fill="#63b8ff" stroke="#63b8ff" points="224.95,-254.13 229.28,-263.8 231.92,-253.54 224.95,-254.13"/>
</a>
</g>
</g>
<!-- Node11&#45;&gt;Node10 -->
<g id="edge14_Node000011_Node000010" class="edge">
<title>Node11&#45;&gt;Node10</title>
<g id="a_edge14_Node000011_Node000010"><a xlink:title=" ">
<path fill="none" stroke="#63b8ff" d="M241.57,-238.13C241.98,-246.78 241.7,-256.26 240.72,-263.8"/>
<polygon fill="#63b8ff" stroke="#63b8ff" points="245.05,-237.83 240.71,-228.16 238.08,-238.43 245.05,-237.83"/>
</a>
</g>
</g>
<!-- Node12 -->
<g id="Node000012" class="node">
<title>Node12</title>
<g id="a_Node000012"><a xlink:href="eom__ccsd_8cpp.html" target="_top" xlink:title=" ">
<polygon fill="white" stroke="#666666" points="271.5,-162 138.5,-162 138.5,-132 271.5,-132 271.5,-162"/>
<text text-anchor="start" x="146.5" y="-150" font-family="FreeSans" font-size="10.00">mpqc/chemistry/qc/lcao</text>
<text text-anchor="middle" x="205" y="-139" font-family="FreeSans" font-size="10.00">/cc/eom/eom_ccsd.cpp</text>
</a>
</g>
</g>
<!-- Node11&#45;&gt;Node12 -->
<g id="edge13_Node000011_Node000012" class="edge">
<title>Node11&#45;&gt;Node12</title>
<g id="a_edge13_Node000011_Node000012"><a xlink:title=" ">
<path fill="none" stroke="#63b8ff" d="M224.07,-188.68C219.9,-179.79 215.29,-169.95 211.64,-162.16"/>
<polygon fill="#63b8ff" stroke="#63b8ff" points="220.93,-190.23 228.34,-197.8 227.27,-187.26 220.93,-190.23"/>
</a>
</g>
</g>
<!-- Node14 -->
<g id="Node000014" class="node">
<title>Node14</title>
<g id="a_Node000014"><a xlink:href="eom__ea__ccsd_8ipp.html" target="_top" xlink:title=" ">
<polygon fill="white" stroke="#666666" points="462,-228 320,-228 320,-198 462,-198 462,-228"/>
<text text-anchor="start" x="328" y="-216" font-family="FreeSans" font-size="10.00">mpqc/chemistry/qc/lcao</text>
<text text-anchor="middle" x="391" y="-205" font-family="FreeSans" font-size="10.00">/cc/eom/eom_ea_ccsd.ipp</text>
</a>
</g>
</g>
<!-- Node13&#45;&gt;Node14 -->
<g id="edge16_Node000013_Node000014" class="edge">
<title>Node13&#45;&gt;Node14</title>
<g id="a_edge16_Node000013_Node000014"><a xlink:title=" ">
<path fill="none" stroke="#63b8ff" d="M384.43,-253.83C384.02,-245.17 384.31,-235.7 385.29,-228.16"/>
<polygon fill="#63b8ff" stroke="#63b8ff" points="380.95,-254.13 385.28,-263.8 387.92,-253.54 380.95,-254.13"/>
</a>
</g>
</g>
<!-- Node14&#45;&gt;Node13 -->
<g id="edge18_Node000014_Node000013" class="edge">
<title>Node14&#45;&gt;Node13</title>
<g id="a_edge18_Node000014_Node000013"><a xlink:title=" ">
<path fill="none" stroke="#63b8ff" d="M397.57,-238.13C397.98,-246.78 397.7,-256.26 396.72,-263.8"/>
<polygon fill="#63b8ff" stroke="#63b8ff" points="401.05,-237.83 396.71,-228.16 394.08,-238.43 401.05,-237.83"/>
</a>
</g>
</g>
<!-- Node15 -->
<g id="Node000015" class="node">
<title>Node15</title>
<g id="a_Node000015"><a xlink:href="eom__ea__ccsd_8cpp.html" target="_top" xlink:title=" ">
<polygon fill="white" stroke="#666666" points="434,-162 290,-162 290,-132 434,-132 434,-162"/>
<text text-anchor="start" x="298" y="-150" font-family="FreeSans" font-size="10.00">mpqc/chemistry/qc/lcao</text>
<text text-anchor="middle" x="362" y="-139" font-family="FreeSans" font-size="10.00">/cc/eom/eom_ea_ccsd.cpp</text>
</a>
</g>
</g>
<!-- Node14&#45;&gt;Node15 -->
<g id="edge17_Node000014_Node000015" class="edge">
<title>Node14&#45;&gt;Node15</title>
<g id="a_edge17_Node000014_Node000015"><a xlink:title=" ">
<path fill="none" stroke="#63b8ff" d="M380.43,-188.68C376.41,-179.79 371.94,-169.95 368.42,-162.16"/>
<polygon fill="#63b8ff" stroke="#63b8ff" points="377.25,-190.13 384.56,-197.8 383.62,-187.24 377.25,-190.13"/>
</a>
</g>
</g>
<!-- Node14&#45;&gt;Node16 -->
<g id="edge19_Node000014_Node000016" class="edge">
<title>Node14&#45;&gt;Node16</title>
<g id="a_edge19_Node000014_Node000016"><a xlink:title=" ">
<path fill="none" stroke="#63b8ff" d="M428.24,-193.38C448.27,-183.36 472.57,-171.22 490.98,-162.01"/>
<polygon fill="#63b8ff" stroke="#63b8ff" points="426.47,-190.35 419.09,-197.95 429.6,-196.61 426.47,-190.35"/>
</a>
</g>
</g>
<!-- Node17 -->
<g id="Node000017" class="node">
<title>Node17</title>
<g id="a_Node000017"><a xlink:href="eom__ip__ccsd_8ipp.html" target="_top" xlink:title=" ">
<polygon fill="white" stroke="#666666" points="588.5,-96 449.5,-96 449.5,-66 588.5,-66 588.5,-96"/>
<text text-anchor="start" x="457.5" y="-84" font-family="FreeSans" font-size="10.00">mpqc/chemistry/qc/lcao</text>
<text text-anchor="middle" x="519" y="-73" font-family="FreeSans" font-size="10.00">/cc/eom/eom_ip_ccsd.ipp</text>
</a>
</g>
</g>
<!-- Node16&#45;&gt;Node17 -->
<g id="edge20_Node000016_Node000017" class="edge">
<title>Node16&#45;&gt;Node17</title>
<g id="a_edge20_Node000016_Node000017"><a xlink:title=" ">
<path fill="none" stroke="#63b8ff" d="M519,-121.54C519,-112.96 519,-103.61 519,-96.16"/>
<polygon fill="#63b8ff" stroke="#63b8ff" points="515.5,-121.8 519,-131.8 522.5,-121.8 515.5,-121.8"/>
</a>
</g>
</g>
<!-- Node18 -->
<g id="Node000018" class="node">
<title>Node18</title>
<g id="a_Node000018"><a xlink:href="eom__ip__ccsd_8cpp.html" target="_top" xlink:title=" ">
<polygon fill="white" stroke="#666666" points="589.5,-30 448.5,-30 448.5,0 589.5,0 589.5,-30"/>
<text text-anchor="start" x="456.5" y="-18" font-family="FreeSans" font-size="10.00">mpqc/chemistry/qc/lcao</text>
<text text-anchor="middle" x="519" y="-7" font-family="FreeSans" font-size="10.00">/cc/eom/eom_ip_ccsd.cpp</text>
</a>
</g>
</g>
<!-- Node17&#45;&gt;Node18 -->
<g id="edge21_Node000017_Node000018" class="edge">
<title>Node17&#45;&gt;Node18</title>
<g id="a_edge21_Node000017_Node000018"><a xlink:title=" ">
<path fill="none" stroke="#63b8ff" d="M519,-55.54C519,-46.96 519,-37.61 519,-30.16"/>
<polygon fill="#63b8ff" stroke="#63b8ff" points="515.5,-55.8 519,-65.8 522.5,-55.8 515.5,-55.8"/>
</a>
</g>
</g>
<!-- Node20 -->
<g id="Node000020" class="node">
<title>Node20</title>
<g id="a_Node000020"><a xlink:href="gamma__point__ccsd_8cpp.html" target="_top" xlink:title=" ">
<polygon fill="white" stroke="#666666" points="666,-228 518,-228 518,-198 666,-198 666,-228"/>
<text text-anchor="start" x="526" y="-216" font-family="FreeSans" font-size="10.00">mpqc/chemistry/qc/lcao</text>
<text text-anchor="middle" x="592" y="-205" font-family="FreeSans" font-size="10.00">/cc/gamma_point_ccsd.cpp</text>
</a>
</g>
</g>
<!-- Node19&#45;&gt;Node20 -->
<g id="edge24_Node000019_Node000020" class="edge">
<title>Node19&#45;&gt;Node20</title>
<g id="a_edge24_Node000019_Node000020"><a xlink:title=" ">
<path fill="none" stroke="#63b8ff" d="M592,-253.54C592,-244.96 592,-235.61 592,-228.16"/>
<polygon fill="#63b8ff" stroke="#63b8ff" points="588.5,-253.8 592,-263.8 595.5,-253.8 588.5,-253.8"/>
</a>
</g>
</g>
<!-- Node22 -->
<g id="Node000022" class="node">
<title>Node22</title>
<g id="a_Node000022"><a xlink:href="ccsd__t_8ipp.html" target="_top" xlink:title=" ">
<polygon fill="white" stroke="#666666" points="817.5,-228 684.5,-228 684.5,-198 817.5,-198 817.5,-228"/>
<text text-anchor="start" x="692.5" y="-216" font-family="FreeSans" font-size="10.00">mpqc/chemistry/qc/lcao</text>
<text text-anchor="middle" x="751" y="-205" font-family="FreeSans" font-size="10.00">/cc/pt/ccsd_t.ipp</text>
</a>
</g>
</g>
<!-- Node21&#45;&gt;Node22 -->
<g id="edge26_Node000021_Node000022" class="edge">
<title>Node21&#45;&gt;Node22</title>
<g id="a_edge26_Node000021_Node000022"><a xlink:title=" ">
<path fill="none" stroke="#63b8ff" d="M744.43,-253.83C744.02,-245.17 744.31,-235.7 745.29,-228.16"/>
<polygon fill="#63b8ff" stroke="#63b8ff" points="740.95,-254.13 745.28,-263.8 747.92,-253.54 740.95,-254.13"/>
</a>
</g>
</g>
<!-- Node24 -->
<g id="Node000024" class="node">
<title>Node24</title>
<g id="a_Node000024"><a xlink:href="ccsd__t__f12_8h.html" target="_top" xlink:title=" ">
<polygon fill="white" stroke="#666666" points="968.5,-228 835.5,-228 835.5,-198 968.5,-198 968.5,-228"/>
<text text-anchor="start" x="843.5" y="-216" font-family="FreeSans" font-size="10.00">mpqc/chemistry/qc/lcao</text>
<text text-anchor="middle" x="902" y="-205" font-family="FreeSans" font-size="10.00">/f12/ccsd_t_f12.h</text>
</a>
</g>
</g>
<!-- Node21&#45;&gt;Node24 -->
<g id="edge29_Node000021_Node000024" class="edge">
<title>Node21&#45;&gt;Node24</title>
<g id="a_edge29_Node000021_Node000024"><a xlink:title=" ">
<path fill="none" stroke="#63b8ff" d="M793.66,-259.92C817.53,-249.8 846.83,-237.38 868.94,-228.01"/>
<polygon fill="#63b8ff" stroke="#63b8ff" points="791.98,-256.83 784.14,-263.95 794.71,-263.28 791.98,-256.83"/>
</a>
</g>
</g>
<!-- Node22&#45;&gt;Node21 -->
<g id="edge28_Node000022_Node000021" class="edge">
<title>Node22&#45;&gt;Node21</title>
<g id="a_edge28_Node000022_Node000021"><a xlink:title=" ">
<path fill="none" stroke="#63b8ff" d="M757.57,-238.13C757.98,-246.78 757.7,-256.26 756.72,-263.8"/>
<polygon fill="#63b8ff" stroke="#63b8ff" points="761.05,-237.83 756.71,-228.16 754.08,-238.43 761.05,-237.83"/>
</a>
</g>
</g>
<!-- Node23 -->
<g id="Node000023" class="node">
<title>Node23</title>
<g id="a_Node000023"><a xlink:href="ccsd__t_8cpp.html" target="_top" xlink:title=" ">
<polygon fill="white" stroke="#666666" points="817.5,-162 684.5,-162 684.5,-132 817.5,-132 817.5,-162"/>
<text text-anchor="start" x="692.5" y="-150" font-family="FreeSans" font-size="10.00">mpqc/chemistry/qc/lcao</text>
<text text-anchor="middle" x="751" y="-139" font-family="FreeSans" font-size="10.00">/cc/pt/ccsd_t.cpp</text>
</a>
</g>
</g>
<!-- Node22&#45;&gt;Node23 -->
<g id="edge27_Node000022_Node000023" class="edge">
<title>Node22&#45;&gt;Node23</title>
<g id="a_edge27_Node000022_Node000023"><a xlink:title=" ">
<path fill="none" stroke="#63b8ff" d="M751,-187.54C751,-178.96 751,-169.61 751,-162.16"/>
<polygon fill="#63b8ff" stroke="#63b8ff" points="747.5,-187.8 751,-197.8 754.5,-187.8 747.5,-187.8"/>
</a>
</g>
</g>
<!-- Node25 -->
<g id="Node000025" class="node">
<title>Node25</title>
<g id="a_Node000025"><a xlink:href="ccsd__t__f12_8cpp.html" target="_top" xlink:title=" ">
<polygon fill="white" stroke="#666666" points="968.5,-162 835.5,-162 835.5,-132 968.5,-132 968.5,-162"/>
<text text-anchor="start" x="843.5" y="-150" font-family="FreeSans" font-size="10.00">mpqc/chemistry/qc/lcao</text>
<text text-anchor="middle" x="902" y="-139" font-family="FreeSans" font-size="10.00">/f12/ccsd_t_f12.cpp</text>
</a>
</g>
</g>
<!-- Node24&#45;&gt;Node25 -->
<g id="edge30_Node000024_Node000025" class="edge">
<title>Node24&#45;&gt;Node25</title>
<g id="a_edge30_Node000024_Node000025"><a xlink:title=" ">
<path fill="none" stroke="#63b8ff" d="M902,-187.54C902,-178.96 902,-169.61 902,-162.16"/>
<polygon fill="#63b8ff" stroke="#63b8ff" points="898.5,-187.8 902,-197.8 905.5,-187.8 898.5,-187.8"/>
</a>
</g>
</g>
<!-- Node26&#45;&gt;Node24 -->
<g id="edge35_Node000026_Node000024" class="edge">
<title>Node26&#45;&gt;Node24</title>
<g id="a_edge35_Node000026_Node000024"><a xlink:title=" ">
<path fill="none" stroke="#63b8ff" d="M902,-253.54C902,-244.96 902,-235.61 902,-228.16"/>
<polygon fill="#63b8ff" stroke="#63b8ff" points="898.5,-253.8 902,-263.8 905.5,-253.8 898.5,-253.8"/>
</a>
</g>
</g>
<!-- Node27 -->
<g id="Node000027" class="node">
<title>Node27</title>
<g id="a_Node000027"><a xlink:href="ccsd__f12_8ipp.html" target="_top" xlink:title=" ">
<polygon fill="white" stroke="#666666" points="1119.5,-228 986.5,-228 986.5,-198 1119.5,-198 1119.5,-228"/>
<text text-anchor="start" x="994.5" y="-216" font-family="FreeSans" font-size="10.00">mpqc/chemistry/qc/lcao</text>
<text text-anchor="middle" x="1053" y="-205" font-family="FreeSans" font-size="10.00">/f12/ccsd_f12.ipp</text>
</a>
</g>
</g>
<!-- Node26&#45;&gt;Node27 -->
<g id="edge32_Node000026_Node000027" class="edge">
<title>Node26&#45;&gt;Node27</title>
<g id="a_edge32_Node000026_Node000027"><a xlink:title=" ">
<path fill="none" stroke="#63b8ff" d="M938.82,-259.78C961.71,-249.69 991,-237.34 1014.24,-228.01"/>
<polygon fill="#63b8ff" stroke="#63b8ff" points="937.15,-256.69 929.44,-263.95 940,-263.09 937.15,-256.69"/>
</a>
</g>
</g>
<!-- Node27&#45;&gt;Node26 -->
<g id="edge34_Node000027_Node000026" class="edge">
<title>Node27&#45;&gt;Node26</title>
<g id="a_edge34_Node000027_Node000026"><a xlink:title=" ">
<path fill="none" stroke="#63b8ff" d="M1016.26,-232.18C993.39,-242.27 964.09,-254.62 940.84,-263.95"/>
<polygon fill="#63b8ff" stroke="#63b8ff" points="1017.92,-235.27 1025.63,-228.01 1015.08,-228.88 1017.92,-235.27"/>
</a>
</g>
</g>
<!-- Node28 -->
<g id="Node000028" class="node">
<title>Node28</title>
<g id="a_Node000028"><a xlink:href="ccsd__f12_8cpp.html" target="_top" xlink:title=" ">
<polygon fill="white" stroke="#666666" points="1119.5,-162 986.5,-162 986.5,-132 1119.5,-132 1119.5,-162"/>
<text text-anchor="start" x="994.5" y="-150" font-family="FreeSans" font-size="10.00">mpqc/chemistry/qc/lcao</text>
<text text-anchor="middle" x="1053" y="-139" font-family="FreeSans" font-size="10.00">/f12/ccsd_f12.cpp</text>
</a>
</g>
</g>
<!-- Node27&#45;&gt;Node28 -->
<g id="edge33_Node000027_Node000028" class="edge">
<title>Node27&#45;&gt;Node28</title>
<g id="a_edge33_Node000027_Node000028"><a xlink:title=" ">
<path fill="none" stroke="#63b8ff" d="M1053,-187.54C1053,-178.96 1053,-169.61 1053,-162.16"/>
<polygon fill="#63b8ff" stroke="#63b8ff" points="1049.5,-187.8 1053,-197.8 1056.5,-187.8 1049.5,-187.8"/>
</a>
</g>
</g>
</g>
</svg>
