<?xml version="1.0" encoding="UTF-8" standalone="no"?>
<!DOCTYPE svg PUBLIC "-//W3C//DTD SVG 1.1//EN"
 "http://www.w3.org/Graphics/SVG/1.1/DTD/svg11.dtd">
<!-- Generated by graphviz version 2.43.0 (0)
 -->
<!-- Title: mpqc/chemistry/qc/lcao/cc/ccsd.h Pages: 1 -->
<svg width="1363pt" height="368pt"
 viewBox="0.00 0.00 1362.50 368.00" xmlns="http://www.w3.org/2000/svg" xmlns:xlink="http://www.w3.org/1999/xlink">
<g id="graph0" class="graph" transform="scale(1 1) rotate(0) translate(4 364)">
<title>mpqc/chemistry/qc/lcao/cc/ccsd.h</title>
<!-- Node1 -->
<g id="Node000001" class="node">
<title>Node1</title>
<g id="a_Node000001"><a xlink:title=" ">
<polygon fill="#999999" stroke="#666666" points="618.5,-360 485.5,-360 485.5,-330 618.5,-330 618.5,-360"/>
<text text-anchor="start" x="493.5" y="-348" font-family="FreeSans" font-size="10.00">mpqc/chemistry/qc/lcao</text>
<text text-anchor="middle" x="552" y="-337" font-family="FreeSans" font-size="10.00">/cc/ccsd.h</text>
</a>
</g>
</g>
<!-- Node2 -->
<g id="Node000002" class="node">
<title>Node2</title>
<g id="a_Node000002"><a xlink:href="cc_8h.html" target="_top" xlink:title=" ">
<polygon fill="white" stroke="#666666" points="172.5,-294 27.5,-294 27.5,-264 172.5,-264 172.5,-294"/>
<text text-anchor="start" x="35.5" y="-282" font-family="FreeSans" font-size="10.00">/home/runner/work/mpqc4</text>
<text text-anchor="middle" x="100" y="-271" font-family="FreeSans" font-size="10.00">/mpqc4/python/src/cc.h</text>
</a>
</g>
</g>
<!-- Node1&#45;&gt;Node2 -->
<g id="edge1_Node000001_Node000002" class="edge">
<title>Node1&#45;&gt;Node2</title>
<g id="a_edge1_Node000001_Node000002"><a xlink:title=" ">
<path fill="none" stroke="#63b8ff" d="M475.24,-333.13C390.62,-321.15 255.51,-302.02 172.59,-290.28"/>
<polygon fill="#63b8ff" stroke="#63b8ff" points="474.91,-336.62 485.31,-334.56 475.9,-329.69 474.91,-336.62"/>
</a>
</g>
</g>
<!-- Node4 -->
<g id="Node000004" class="node">
<title>Node4</title>
<g id="a_Node000004"><a xlink:href="ccsd_8ipp.html" target="_top" xlink:title=" ">
<polygon fill="white" stroke="#666666" points="301.5,-228 168.5,-228 168.5,-198 301.5,-198 301.5,-228"/>
<text text-anchor="start" x="176.5" y="-216" font-family="FreeSans" font-size="10.00">mpqc/chemistry/qc/lcao</text>
<text text-anchor="middle" x="235" y="-205" font-family="FreeSans" font-size="10.00">/cc/ccsd.ipp</text>
</a>
</g>
</g>
<!-- Node1&#45;&gt;Node4 -->
<g id="edge3_Node000001_Node000004" class="edge">
<title>Node1&#45;&gt;Node4</title>
<g id="a_edge3_Node000001_Node000004"><a xlink:title=" ">
<path fill="none" stroke="#63b8ff" d="M475.11,-341.45C393.77,-337.08 273,-325.33 241,-294 223.43,-276.8 222.81,-246.02 227.05,-228.07"/>
<polygon fill="#63b8ff" stroke="#63b8ff" points="475.16,-344.96 485.33,-341.97 475.52,-337.97 475.16,-344.96"/>
</a>
</g>
</g>
<!-- Node6 -->
<g id="Node000006" class="node">
<title>Node6</title>
<g id="a_Node000006"><a xlink:href="ccsd__response_8h.html" target="_top" xlink:title=" ">
<polygon fill="white" stroke="#666666" points="392.5,-294 259.5,-294 259.5,-264 392.5,-264 392.5,-294"/>
<text text-anchor="start" x="267.5" y="-282" font-family="FreeSans" font-size="10.00">mpqc/chemistry/qc/lcao</text>
<text text-anchor="middle" x="326" y="-271" font-family="FreeSans" font-size="10.00">/cc/ccsd_response.h</text>
</a>
</g>
</g>
<!-- Node1&#45;&gt;Node6 -->
<g id="edge6_Node000001_Node000006" class="edge">
<title>Node1&#45;&gt;Node6</title>
<g id="a_edge6_Node000001_Node000006"><a xlink:title=" ">
<path fill="none" stroke="#63b8ff" d="M492.4,-327.12C455.96,-316.8 409.9,-303.76 375.48,-294.01"/>
<polygon fill="#63b8ff" stroke="#63b8ff" points="491.83,-330.6 502.4,-329.95 493.74,-323.86 491.83,-330.6"/>
</a>
</g>
</g>
<!-- Node7 -->
<g id="Node000007" class="node">
<title>Node7</title>
<g id="a_Node000007"><a xlink:href="eom__ccsd_8h.html" target="_top" xlink:title=" ">
<polygon fill="white" stroke="#666666" points="543.5,-294 410.5,-294 410.5,-264 543.5,-264 543.5,-294"/>
<text text-anchor="start" x="418.5" y="-282" font-family="FreeSans" font-size="10.00">mpqc/chemistry/qc/lcao</text>
<text text-anchor="middle" x="477" y="-271" font-family="FreeSans" font-size="10.00">/cc/eom/eom_ccsd.h</text>
</a>
</g>
</g>
<!-- Node1&#45;&gt;Node7 -->
<g id="edge8_Node000001_Node000007" class="edge">
<title>Node1&#45;&gt;Node7</title>
<g id="a_edge8_Node000001_Node000007"><a xlink:title=" ">
<path fill="none" stroke="#63b8ff" d="M527.63,-323.2C516.49,-313.7 503.59,-302.69 493.6,-294.16"/>
<polygon fill="#63b8ff" stroke="#63b8ff" points="525.48,-325.97 535.36,-329.8 530.02,-320.64 525.48,-325.97"/>
</a>
</g>
</g>
<!-- Node10 -->
<g id="Node000010" class="node">
<title>Node10</title>
<g id="a_Node000010"><a xlink:href="eom__ea__ccsd_8h.html" target="_top" xlink:title=" ">
<polygon fill="white" stroke="#666666" points="694.5,-294 561.5,-294 561.5,-264 694.5,-264 694.5,-294"/>
<text text-anchor="start" x="569.5" y="-282" font-family="FreeSans" font-size="10.00">mpqc/chemistry/qc/lcao</text>
<text text-anchor="middle" x="628" y="-271" font-family="FreeSans" font-size="10.00">/cc/eom/eom_ea_ccsd.h</text>
</a>
</g>
</g>
<!-- Node1&#45;&gt;Node10 -->
<g id="edge12_Node000001_Node000010" class="edge">
<title>Node1&#45;&gt;Node10</title>
<g id="a_edge12_Node000001_Node000010"><a xlink:title=" ">
<path fill="none" stroke="#63b8ff" d="M576.7,-323.2C587.98,-313.7 601.05,-302.69 611.18,-294.16"/>
<polygon fill="#63b8ff" stroke="#63b8ff" points="574.26,-320.68 568.87,-329.8 578.77,-326.03 574.26,-320.68"/>
</a>
</g>
</g>
<!-- Node13 -->
<g id="Node000013" class="node">
<title>Node13</title>
<g id="a_Node000013"><a xlink:href="eom__ip__ccsd_8h.html" target="_top" xlink:title=" ">
<polygon fill="white" stroke="#666666" points="820.5,-162 687.5,-162 687.5,-132 820.5,-132 820.5,-162"/>
<text text-anchor="start" x="695.5" y="-150" font-family="FreeSans" font-size="10.00">mpqc/chemistry/qc/lcao</text>
<text text-anchor="middle" x="754" y="-139" font-family="FreeSans" font-size="10.00">/cc/eom/eom_ip_ccsd.h</text>
</a>
</g>
</g>
<!-- Node1&#45;&gt;Node13 -->
<g id="edge19_Node000001_Node000013" class="edge">
<title>Node1&#45;&gt;Node13</title>
<g id="a_edge19_Node000001_Node000013"><a xlink:title=" ">
<path fill="none" stroke="#63b8ff" d="M628.76,-332.83C655.13,-325.59 683.01,-313.66 703,-294 722.33,-274.98 742.91,-195.07 750.73,-162.21"/>
<polygon fill="#63b8ff" stroke="#63b8ff" points="627.57,-329.52 618.74,-335.38 629.3,-336.31 627.57,-329.52"/>
</a>
</g>
</g>
<!-- Node16 -->
<g id="Node000016" class="node">
<title>Node16</title>
<g id="a_Node000016"><a xlink:href="gamma__point__ccsd_8h.html" target="_top" xlink:title=" ">
<polygon fill="white" stroke="#666666" points="893.5,-294 756.5,-294 756.5,-264 893.5,-264 893.5,-294"/>
<text text-anchor="start" x="764.5" y="-282" font-family="FreeSans" font-size="10.00">mpqc/chemistry/qc/lcao</text>
<text text-anchor="middle" x="825" y="-271" font-family="FreeSans" font-size="10.00">/cc/gamma_point_ccsd.h</text>
</a>
</g>
</g>
<!-- Node1&#45;&gt;Node16 -->
<g id="edge20_Node000001_Node000016" class="edge">
<title>Node1&#45;&gt;Node16</title>
<g id="a_edge20_Node000001_Node000016"><a xlink:title=" ">
<path fill="none" stroke="#63b8ff" d="M621.75,-327.65C666.11,-317.25 722.94,-303.93 765.23,-294.01"/>
<polygon fill="#63b8ff" stroke="#63b8ff" points="620.85,-324.26 611.91,-329.95 622.45,-331.08 620.85,-324.26"/>
</a>
</g>
</g>
<!-- Node18 -->
<g id="Node000018" class="node">
<title>Node18</title>
<g id="a_Node000018"><a xlink:href="ccsd__t_8h.html" target="_top" xlink:title=" ">
<polygon fill="white" stroke="#666666" points="1052.5,-294 919.5,-294 919.5,-264 1052.5,-264 1052.5,-294"/>
<text text-anchor="start" x="927.5" y="-282" font-family="FreeSans" font-size="10.00">mpqc/chemistry/qc/lcao</text>
<text text-anchor="middle" x="986" y="-271" font-family="FreeSans" font-size="10.00">/cc/pt/ccsd_t.h</text>
</a>
</g>
</g>
<!-- Node1&#45;&gt;Node18 -->
<g id="edge22_Node000001_Node000018" class="edge">
<title>Node1&#45;&gt;Node18</title>
<g id="a_edge22_Node000001_Node000018"><a xlink:title=" ">
<path fill="none" stroke="#63b8ff" d="M628.71,-333.56C699.67,-323.79 808.05,-308.54 902,-294 907.55,-293.14 913.31,-292.23 919.08,-291.3"/>
<polygon fill="#63b8ff" stroke="#63b8ff" points="627.94,-330.14 618.51,-334.97 628.9,-337.07 627.94,-330.14"/>
</a>
</g>
</g>
<!-- Node23 -->
<g id="Node000023" class="node">
<title>Node23</title>
<g id="a_Node000023"><a xlink:href="ccsd__f12_8h.html" target="_top" xlink:title=" ">
<polygon fill="white" stroke="#666666" points="1278.5,-294 1145.5,-294 1145.5,-264 1278.5,-264 1278.5,-294"/>
<text text-anchor="start" x="1153.5" y="-282" font-family="FreeSans" font-size="10.00">mpqc/chemistry/qc/lcao</text>
<text text-anchor="middle" x="1212" y="-271" font-family="FreeSans" font-size="10.00">/f12/ccsd_f12.h</text>
</a>
</g>
</g>
<!-- Node1&#45;&gt;Node23 -->
<g id="edge28_Node000001_Node000023" class="edge">
<title>Node1&#45;&gt;Node23</title>
<g id="a_edge28_Node000001_Node000023"><a xlink:title=" ">
<path fill="none" stroke="#63b8ff" d="M628.92,-336.54C759.44,-323.88 1022.11,-298.41 1145.32,-286.47"/>
<polygon fill="#63b8ff" stroke="#63b8ff" points="628.23,-333.09 618.61,-337.54 628.9,-340.06 628.23,-333.09"/>
</a>
</g>
</g>
<!-- Node3 -->
<g id="Node000003" class="node">
<title>Node3</title>
<g id="a_Node000003"><a xlink:href="mpqc_8cc.html" target="_top" xlink:title=" ">
<polygon fill="white" stroke="#666666" points="150,-228 0,-228 0,-198 150,-198 150,-228"/>
<text text-anchor="start" x="8" y="-216" font-family="FreeSans" font-size="10.00">/home/runner/work/mpqc4</text>
<text text-anchor="middle" x="75" y="-205" font-family="FreeSans" font-size="10.00">/mpqc4/python/src/mpqc.cc</text>
</a>
</g>
</g>
<!-- Node2&#45;&gt;Node3 -->
<g id="edge2_Node000002_Node000003" class="edge">
<title>Node2&#45;&gt;Node3</title>
<g id="a_edge2_Node000002_Node000003"><a xlink:title=" ">
<path fill="none" stroke="#63b8ff" d="M90.78,-254.39C87.34,-245.59 83.54,-235.86 80.53,-228.16"/>
<polygon fill="#63b8ff" stroke="#63b8ff" points="87.55,-255.76 94.45,-263.8 94.07,-253.21 87.55,-255.76"/>
</a>
</g>
</g>
<!-- Node4&#45;&gt;Node1 -->
<g id="edge5_Node000004_Node000001" class="edge">
<title>Node4&#45;&gt;Node1</title>
<g id="a_edge5_Node000004_Node000001"><a xlink:title=" ">
<path fill="none" stroke="#63b8ff" d="M240.13,-238.08C241.5,-255.98 244.38,-279.69 259,-294 290.62,-324.95 408.85,-336.79 485.19,-341.29"/>
<polygon fill="#63b8ff" stroke="#63b8ff" points="243.62,-237.79 239.4,-228.07 236.63,-238.3 243.62,-237.79"/>
</a>
</g>
</g>
<!-- Node5 -->
<g id="Node000005" class="node">
<title>Node5</title>
<g id="a_Node000005"><a xlink:href="ccsd_8cpp.html" target="_top" xlink:title=" ">
<polygon fill="white" stroke="#666666" points="301.5,-162 168.5,-162 168.5,-132 301.5,-132 301.5,-162"/>
<text text-anchor="start" x="176.5" y="-150" font-family="FreeSans" font-size="10.00">mpqc/chemistry/qc/lcao</text>
<text text-anchor="middle" x="235" y="-139" font-family="FreeSans" font-size="10.00">/cc/ccsd.cpp</text>
</a>
</g>
</g>
<!-- Node4&#45;&gt;Node5 -->
<g id="edge4_Node000004_Node000005" class="edge">
<title>Node4&#45;&gt;Node5</title>
<g id="a_edge4_Node000004_Node000005"><a xlink:title=" ">
<path fill="none" stroke="#63b8ff" d="M235,-187.54C235,-178.96 235,-169.61 235,-162.16"/>
<polygon fill="#63b8ff" stroke="#63b8ff" points="231.5,-187.8 235,-197.8 238.5,-187.8 231.5,-187.8"/>
</a>
</g>
</g>
<!-- Node6&#45;&gt;Node4 -->
<g id="edge7_Node000006_Node000004" class="edge">
<title>Node6&#45;&gt;Node4</title>
<g id="a_edge7_Node000006_Node000004"><a xlink:title=" ">
<path fill="none" stroke="#63b8ff" d="M297.6,-258.03C283.83,-248.34 267.62,-236.94 255.14,-228.16"/>
<polygon fill="#63b8ff" stroke="#63b8ff" points="295.61,-260.91 305.8,-263.8 299.64,-255.18 295.61,-260.91"/>
</a>
</g>
</g>
<!-- Node8 -->
<g id="Node000008" class="node">
<title>Node8</title>
<g id="a_Node000008"><a xlink:href="eom__ccsd_8ipp.html" target="_top" xlink:title=" ">
<polygon fill="white" stroke="#666666" points="536.5,-228 403.5,-228 403.5,-198 536.5,-198 536.5,-228"/>
<text text-anchor="start" x="411.5" y="-216" font-family="FreeSans" font-size="10.00">mpqc/chemistry/qc/lcao</text>
<text text-anchor="middle" x="470" y="-205" font-family="FreeSans" font-size="10.00">/cc/eom/eom_ccsd.ipp</text>
</a>
</g>
</g>
<!-- Node7&#45;&gt;Node8 -->
<g id="edge9_Node000007_Node000008" class="edge">
<title>Node7&#45;&gt;Node8</title>
<g id="a_edge9_Node000007_Node000008"><a xlink:title=" ">
<path fill="none" stroke="#63b8ff" d="M467.79,-253.83C466.43,-245.17 465.68,-235.7 465.83,-228.16"/>
<polygon fill="#63b8ff" stroke="#63b8ff" points="464.38,-254.65 469.73,-263.8 471.25,-253.31 464.38,-254.65"/>
</a>
</g>
</g>
<!-- Node8&#45;&gt;Node7 -->
<g id="edge11_Node000008_Node000007" class="edge">
<title>Node8&#45;&gt;Node7</title>
<g id="a_edge11_Node000008_Node000007"><a xlink:title=" ">
<path fill="none" stroke="#63b8ff" d="M479.2,-238.13C480.56,-246.78 481.32,-256.26 481.17,-263.8"/>
<polygon fill="#63b8ff" stroke="#63b8ff" points="482.61,-237.31 477.26,-228.16 475.74,-238.65 482.61,-237.31"/>
</a>
</g>
</g>
<!-- Node9 -->
<g id="Node000009" class="node">
<title>Node9</title>
<g id="a_Node000009"><a xlink:href="eom__ccsd_8cpp.html" target="_top" xlink:title=" ">
<polygon fill="white" stroke="#666666" points="506.5,-162 373.5,-162 373.5,-132 506.5,-132 506.5,-162"/>
<text text-anchor="start" x="381.5" y="-150" font-family="FreeSans" font-size="10.00">mpqc/chemistry/qc/lcao</text>
<text text-anchor="middle" x="440" y="-139" font-family="FreeSans" font-size="10.00">/cc/eom/eom_ccsd.cpp</text>
</a>
</g>
</g>
<!-- Node8&#45;&gt;Node9 -->
<g id="edge10_Node000008_Node000009" class="edge">
<title>Node8&#45;&gt;Node9</title>
<g id="a_edge10_Node000008_Node000009"><a xlink:title=" ">
<path fill="none" stroke="#63b8ff" d="M459.07,-188.68C454.9,-179.79 450.29,-169.95 446.64,-162.16"/>
<polygon fill="#63b8ff" stroke="#63b8ff" points="455.93,-190.23 463.34,-197.8 462.27,-187.26 455.93,-190.23"/>
</a>
</g>
</g>
<!-- Node11 -->
<g id="Node000011" class="node">
<title>Node11</title>
<g id="a_Node000011"><a xlink:href="eom__ea__ccsd_8ipp.html" target="_top" xlink:title=" ">
<polygon fill="white" stroke="#666666" points="697,-228 555,-228 555,-198 697,-198 697,-228"/>
<text text-anchor="start" x="563" y="-216" font-family="FreeSans" font-size="10.00">mpqc/chemistry/qc/lcao</text>
<text text-anchor="middle" x="626" y="-205" font-family="FreeSans" font-size="10.00">/cc/eom/eom_ea_ccsd.ipp</text>
</a>
</g>
</g>
<!-- Node10&#45;&gt;Node11 -->
<g id="edge13_Node000010_Node000011" class="edge">
<title>Node10&#45;&gt;Node11</title>
<g id="a_edge13_Node000010_Node000011"><a xlink:title=" ">
<path fill="none" stroke="#63b8ff" d="M620.68,-253.83C620,-245.17 619.98,-235.7 620.73,-228.16"/>
<polygon fill="#63b8ff" stroke="#63b8ff" points="617.2,-254.27 621.84,-263.8 624.16,-253.46 617.2,-254.27"/>
</a>
</g>
</g>
<!-- Node11&#45;&gt;Node10 -->
<g id="edge15_Node000011_Node000010" class="edge">
<title>Node11&#45;&gt;Node10</title>
<g id="a_edge15_Node000011_Node000010"><a xlink:title=" ">
<path fill="none" stroke="#63b8ff" d="M633.32,-238.13C634,-246.78 634.02,-256.26 633.28,-263.8"/>
<polygon fill="#63b8ff" stroke="#63b8ff" points="636.79,-237.69 632.16,-228.16 629.84,-238.5 636.79,-237.69"/>
</a>
</g>
</g>
<!-- Node12 -->
<g id="Node000012" class="node">
<title>Node12</title>
<g id="a_Node000012"><a xlink:href="eom__ea__ccsd_8cpp.html" target="_top" xlink:title=" ">
<polygon fill="white" stroke="#666666" points="669,-162 525,-162 525,-132 669,-132 669,-162"/>
<text text-anchor="start" x="533" y="-150" font-family="FreeSans" font-size="10.00">mpqc/chemistry/qc/lcao</text>
<text text-anchor="middle" x="597" y="-139" font-family="FreeSans" font-size="10.00">/cc/eom/eom_ea_ccsd.cpp</text>
</a>
</g>
</g>
<!-- Node11&#45;&gt;Node12 -->
<g id="edge14_Node000011_Node000012" class="edge">
<title>Node11&#45;&gt;Node12</title>
<g id="a_edge14_Node000011_Node000012"><a xlink:title=" ">
<path fill="none" stroke="#63b8ff" d="M615.43,-188.68C611.41,-179.79 606.94,-169.95 603.42,-162.16"/>
<polygon fill="#63b8ff" stroke="#63b8ff" points="612.25,-190.13 619.56,-197.8 618.62,-187.24 612.25,-190.13"/>
</a>
</g>
</g>
<!-- Node11&#45;&gt;Node13 -->
<g id="edge16_Node000011_Node000013" class="edge">
<title>Node11&#45;&gt;Node13</title>
<g id="a_edge16_Node000011_Node000013"><a xlink:title=" ">
<path fill="none" stroke="#63b8ff" d="M663.24,-193.38C683.27,-183.36 707.57,-171.22 725.98,-162.01"/>
<polygon fill="#63b8ff" stroke="#63b8ff" points="661.47,-190.35 654.09,-197.95 664.6,-196.61 661.47,-190.35"/>
</a>
</g>
</g>
<!-- Node14 -->
<g id="Node000014" class="node">
<title>Node14</title>
<g id="a_Node000014"><a xlink:href="eom__ip__ccsd_8ipp.html" target="_top" xlink:title=" ">
<polygon fill="white" stroke="#666666" points="823.5,-96 684.5,-96 684.5,-66 823.5,-66 823.5,-96"/>
<text text-anchor="start" x="692.5" y="-84" font-family="FreeSans" font-size="10.00">mpqc/chemistry/qc/lcao</text>
<text text-anchor="middle" x="754" y="-73" font-family="FreeSans" font-size="10.00">/cc/eom/eom_ip_ccsd.ipp</text>
</a>
</g>
</g>
<!-- Node13&#45;&gt;Node14 -->
<g id="edge17_Node000013_Node000014" class="edge">
<title>Node13&#45;&gt;Node14</title>
<g id="a_edge17_Node000013_Node000014"><a xlink:title=" ">
<path fill="none" stroke="#63b8ff" d="M754,-121.54C754,-112.96 754,-103.61 754,-96.16"/>
<polygon fill="#63b8ff" stroke="#63b8ff" points="750.5,-121.8 754,-131.8 757.5,-121.8 750.5,-121.8"/>
</a>
</g>
</g>
<!-- Node15 -->
<g id="Node000015" class="node">
<title>Node15</title>
<g id="a_Node000015"><a xlink:href="eom__ip__ccsd_8cpp.html" target="_top" xlink:title=" ">
<polygon fill="white" stroke="#666666" points="824.5,-30 683.5,-30 683.5,0 824.5,0 824.5,-30"/>
<text text-anchor="start" x="691.5" y="-18" font-family="FreeSans" font-size="10.00">mpqc/chemistry/qc/lcao</text>
<text text-anchor="middle" x="754" y="-7" font-family="FreeSans" font-size="10.00">/cc/eom/eom_ip_ccsd.cpp</text>
</a>
</g>
</g>
<!-- Node14&#45;&gt;Node15 -->
<g id="edge18_Node000014_Node000015" class="edge">
<title>Node14&#45;&gt;Node15</title>
<g id="a_edge18_Node000014_Node000015"><a xlink:title=" ">
<path fill="none" stroke="#63b8ff" d="M754,-55.54C754,-46.96 754,-37.61 754,-30.16"/>
<polygon fill="#63b8ff" stroke="#63b8ff" points="750.5,-55.8 754,-65.8 757.5,-55.8 750.5,-55.8"/>
</a>
</g>
</g>
<!-- Node17 -->
<g id="Node000017" class="node">
<title>Node17</title>
<g id="a_Node000017"><a xlink:href="gamma__point__ccsd_8cpp.html" target="_top" xlink:title=" ">
<polygon fill="white" stroke="#666666" points="901,-228 753,-228 753,-198 901,-198 901,-228"/>
<text text-anchor="start" x="761" y="-216" font-family="FreeSans" font-size="10.00">mpqc/chemistry/qc/lcao</text>
<text text-anchor="middle" x="827" y="-205" font-family="FreeSans" font-size="10.00">/cc/gamma_point_ccsd.cpp</text>
</a>
</g>
</g>
<!-- Node16&#45;&gt;Node17 -->
<g id="edge21_Node000016_Node000017" class="edge">
<title>Node16&#45;&gt;Node17</title>
<g id="a_edge21_Node000016_Node000017"><a xlink:title=" ">
<path fill="none" stroke="#63b8ff" d="M825.76,-253.54C826.03,-244.96 826.32,-235.61 826.56,-228.16"/>
<polygon fill="#63b8ff" stroke="#63b8ff" points="822.26,-253.69 825.44,-263.8 829.25,-253.91 822.26,-253.69"/>
</a>
</g>
</g>
<!-- Node19 -->
<g id="Node000019" class="node">
<title>Node19</title>
<g id="a_Node000019"><a xlink:href="ccsd__t_8ipp.html" target="_top" xlink:title=" ">
<polygon fill="white" stroke="#666666" points="1052.5,-228 919.5,-228 919.5,-198 1052.5,-198 1052.5,-228"/>
<text text-anchor="start" x="927.5" y="-216" font-family="FreeSans" font-size="10.00">mpqc/chemistry/qc/lcao</text>
<text text-anchor="middle" x="986" y="-205" font-family="FreeSans" font-size="10.00">/cc/pt/ccsd_t.ipp</text>
</a>
</g>
</g>
<!-- Node18&#45;&gt;Node19 -->
<g id="edge23_Node000018_Node000019" class="edge">
<title>Node18&#45;&gt;Node19</title>
<g id="a_edge23_Node000018_Node000019"><a xlink:title=" ">
<path fill="none" stroke="#63b8ff" d="M979.43,-253.83C979.02,-245.17 979.31,-235.7 980.29,-228.16"/>
<polygon fill="#63b8ff" stroke="#63b8ff" points="975.95,-254.13 980.28,-263.8 982.92,-253.54 975.95,-254.13"/>
</a>
</g>
</g>
<!-- Node21 -->
<g id="Node000021" class="node">
<title>Node21</title>
<g id="a_Node000021"><a xlink:href="ccsd__t__f12_8h.html" target="_top" xlink:title=" ">
<polygon fill="white" stroke="#666666" points="1203.5,-228 1070.5,-228 1070.5,-198 1203.5,-198 1203.5,-228"/>
<text text-anchor="start" x="1078.5" y="-216" font-family="FreeSans" font-size="10.00">mpqc/chemistry/qc/lcao</text>
<text text-anchor="middle" x="1137" y="-205" font-family="FreeSans" font-size="10.00">/f12/ccsd_t_f12.h</text>
</a>
</g>
</g>
<!-- Node18&#45;&gt;Node21 -->
<g id="edge26_Node000018_Node000021" class="edge">
<title>Node18&#45;&gt;Node21</title>
<g id="a_edge26_Node000018_Node000021"><a xlink:title=" ">
<path fill="none" stroke="#63b8ff" d="M1028.66,-259.92C1052.53,-249.8 1081.83,-237.38 1103.94,-228.01"/>
<polygon fill="#63b8ff" stroke="#63b8ff" points="1026.98,-256.83 1019.14,-263.95 1029.71,-263.28 1026.98,-256.83"/>
</a>
</g>
</g>
<!-- Node19&#45;&gt;Node18 -->
<g id="edge25_Node000019_Node000018" class="edge">
<title>Node19&#45;&gt;Node18</title>
<g id="a_edge25_Node000019_Node000018"><a xlink:title=" ">
<path fill="none" stroke="#63b8ff" d="M992.57,-238.13C992.98,-246.78 992.7,-256.26 991.72,-263.8"/>
<polygon fill="#63b8ff" stroke="#63b8ff" points="996.05,-237.83 991.71,-228.16 989.08,-238.43 996.05,-237.83"/>
</a>
</g>
</g>
<!-- Node20 -->
<g id="Node000020" class="node">
<title>Node20</title>
<g id="a_Node000020"><a xlink:href="ccsd__t_8cpp.html" target="_top" xlink:title=" ">
<polygon fill="white" stroke="#666666" points="1052.5,-162 919.5,-162 919.5,-132 1052.5,-132 1052.5,-162"/>
<text text-anchor="start" x="927.5" y="-150" font-family="FreeSans" font-size="10.00">mpqc/chemistry/qc/lcao</text>
<text text-anchor="middle" x="986" y="-139" font-family="FreeSans" font-size="10.00">/cc/pt/ccsd_t.cpp</text>
</a>
</g>
</g>
<!-- Node19&#45;&gt;Node20 -->
<g id="edge24_Node000019_Node000020" class="edge">
<title>Node19&#45;&gt;Node20</title>
<g id="a_edge24_Node000019_Node000020"><a xlink:title=" ">
<path fill="none" stroke="#63b8ff" d="M986,-187.54C986,-178.96 986,-169.61 986,-162.16"/>
<polygon fill="#63b8ff" stroke="#63b8ff" points="982.5,-187.8 986,-197.8 989.5,-187.8 982.5,-187.8"/>
</a>
</g>
</g>
<!-- Node22 -->
<g id="Node000022" class="node">
<title>Node22</title>
<g id="a_Node000022"><a xlink:href="ccsd__t__f12_8cpp.html" target="_top" xlink:title=" ">
<polygon fill="white" stroke="#666666" points="1203.5,-162 1070.5,-162 1070.5,-132 1203.5,-132 1203.5,-162"/>
<text text-anchor="start" x="1078.5" y="-150" font-family="FreeSans" font-size="10.00">mpqc/chemistry/qc/lcao</text>
<text text-anchor="middle" x="1137" y="-139" font-family="FreeSans" font-size="10.00">/f12/ccsd_t_f12.cpp</text>
</a>
</g>
</g>
<!-- Node21&#45;&gt;Node22 -->
<g id="edge27_Node000021_Node000022" class="edge">
<title>Node21&#45;&gt;Node22</title>
<g id="a_edge27_Node000021_Node000022"><a xlink:title=" ">
<path fill="none" stroke="#63b8ff" d="M1137,-187.54C1137,-178.96 1137,-169.61 1137,-162.16"/>
<polygon fill="#63b8ff" stroke="#63b8ff" points="1133.5,-187.8 1137,-197.8 1140.5,-187.8 1133.5,-187.8"/>
</a>
</g>
</g>
<!-- Node23&#45;&gt;Node21 -->
<g id="edge32_Node000023_Node000021" class="edge">
<title>Node23&#45;&gt;Node21</title>
<g id="a_edge32_Node000023_Node000021"><a xlink:title=" ">
<path fill="none" stroke="#63b8ff" d="M1187.63,-257.2C1176.49,-247.7 1163.59,-236.69 1153.6,-228.16"/>
<polygon fill="#63b8ff" stroke="#63b8ff" points="1185.48,-259.97 1195.36,-263.8 1190.02,-254.64 1185.48,-259.97"/>
</a>
</g>
</g>
<!-- Node24 -->
<g id="Node000024" class="node">
<title>Node24</title>
<g id="a_Node000024"><a xlink:href="ccsd__f12_8ipp.html" target="_top" xlink:title=" ">
<polygon fill="white" stroke="#666666" points="1354.5,-228 1221.5,-228 1221.5,-198 1354.5,-198 1354.5,-228"/>
<text text-anchor="start" x="1229.5" y="-216" font-family="FreeSans" font-size="10.00">mpqc/chemistry/qc/lcao</text>
<text text-anchor="middle" x="1288" y="-205" font-family="FreeSans" font-size="10.00">/f12/ccsd_f12.ipp</text>
</a>
</g>
</g>
<!-- Node23&#45;&gt;Node24 -->
<g id="edge29_Node000023_Node000024" class="edge">
<title>Node23&#45;&gt;Node24</title>
<g id="a_edge29_Node000023_Node000024"><a xlink:title=" ">
<path fill="none" stroke="#63b8ff" d="M1230.64,-256.92C1241.2,-247.49 1254.34,-236.61 1265.47,-228.16"/>
<polygon fill="#63b8ff" stroke="#63b8ff" points="1228.15,-254.46 1223.15,-263.8 1232.88,-259.62 1228.15,-254.46"/>
</a>
</g>
</g>
<!-- Node24&#45;&gt;Node23 -->
<g id="edge31_Node000024_Node000023" class="edge">
<title>Node24&#45;&gt;Node23</title>
<g id="a_edge31_Node000024_Node000023"><a xlink:title=" ">
<path fill="none" stroke="#63b8ff" d="M1269.41,-235.03C1258.86,-244.46 1245.72,-255.34 1234.59,-263.8"/>
<polygon fill="#63b8ff" stroke="#63b8ff" points="1271.89,-237.5 1276.9,-228.16 1267.16,-232.35 1271.89,-237.5"/>
</a>
</g>
</g>
<!-- Node25 -->
<g id="Node000025" class="node">
<title>Node25</title>
<g id="a_Node000025"><a xlink:href="ccsd__f12_8cpp.html" target="_top" xlink:title=" ">
<polygon fill="white" stroke="#666666" points="1354.5,-162 1221.5,-162 1221.5,-132 1354.5,-132 1354.5,-162"/>
<text text-anchor="start" x="1229.5" y="-150" font-family="FreeSans" font-size="10.00">mpqc/chemistry/qc/lcao</text>
<text text-anchor="middle" x="1288" y="-139" font-family="FreeSans" font-size="10.00">/f12/ccsd_f12.cpp</text>
</a>
</g>
</g>
<!-- Node24&#45;&gt;Node25 -->
<g id="edge30_Node000024_Node000025" class="edge">
<title>Node24&#45;&gt;Node25</title>
<g id="a_edge30_Node000024_Node000025"><a xlink:title=" ">
<path fill="none" stroke="#63b8ff" d="M1288,-187.54C1288,-178.96 1288,-169.61 1288,-162.16"/>
<polygon fill="#63b8ff" stroke="#63b8ff" points="1284.5,-187.8 1288,-197.8 1291.5,-187.8 1284.5,-187.8"/>
</a>
</g>
</g>
</g>
</svg>
