<?xml version="1.0" encoding="UTF-8" standalone="no"?>
<!DOCTYPE svg PUBLIC "-//W3C//DTD SVG 1.1//EN"
 "http://www.w3.org/Graphics/SVG/1.1/DTD/svg11.dtd">
<!-- Generated by graphviz version 2.43.0 (0)
 -->
<!-- Title: mpqc::lcao::cc::CCk&lt; Tile, Policy &gt; Pages: 1 -->
<!--zoomable 317 -->

<svg id="main" version="1.1" xmlns="http://www.w3.org/2000/svg" xmlns:xlink="http://www.w3.org/1999/xlink" xml:space="preserve" onload="init(evt)">
<style type="text/css"><![CDATA[
.node, .edge {opacity: 0.7;}
.node.selected, .edge.selected {opacity: 1;}
.edge:hover path { stroke: red; }
.edge:hover polygon { stroke: red; fill: red; }
]]></style>

<defs>
  <circle id="rim" cx="0" cy="0" r="7"/>
  <circle id="rim2" cx="0" cy="0" r="3.5"/>
  <g id="zoomPlus">
    <use xlink:href="#rim" fill="#404040"><set attributeName="fill" to="#808080" begin="zoomplus.mouseover" end="zoomplus.mouseout"/></use>
    <path d="M-4,0h8M0,-4v8" fill="none" stroke="white" stroke-width="1.5" pointer-events="none"/>
  </g>
  <g id="zoomMin">
    <use xlink:href="#rim" fill="#404040"><set attributeName="fill" to="#808080" begin="zoomminus.mouseover" end="zoomminus.mouseout"/></use>
    <path d="M-4,0h8" fill="none" stroke="white" stroke-width="1.5" pointer-events="none"/>
  </g>
  <g id="arrowUp" transform="translate(30 24)">
    <use xlink:href="#rim"/>
    <path pointer-events="none" fill="none" stroke="white" stroke-width="1.5" d="M0,-3.0v7 M-2.5,-0.5L0,-3.0L2.5,-0.5"/>
  </g>
  <g id="arrowRight" transform="rotate(90) translate(36 -43)">
    <use xlink:href="#rim"/>
    <path pointer-events="none" fill="none" stroke="white" stroke-width="1.5" d="M0,-3.0v7 M-2.5,-0.5L0,-3.0L2.5,-0.5"/>
  </g>
  <g id="arrowDown" transform="rotate(180) translate(-30 -48)">
    <use xlink:href="#rim"/>
    <path pointer-events="none" fill="none" stroke="white" stroke-width="1.5" d="M0,-3.0v7 M-2.5,-0.5L0,-3.0L2.5,-0.5"/>
  </g>
  <g id="arrowLeft" transform="rotate(270) translate(-36 17)">
    <use xlink:href="#rim"/>
    <path pointer-events="none" fill="none" stroke="white" stroke-width="1.5" d="M0,-3.0v7 M-2.5,-0.5L0,-3.0L2.5,-0.5"/>
  </g>
  <g id="resetDef">
    <use xlink:href="#rim2" fill="#404040"><set attributeName="fill" to="#808080" begin="reset.mouseover" end="reset.mouseout"/></use>
  </g>
</defs>
<script type="application/ecmascript">
var viewWidth = 1673;
var viewHeight = 317;
var sectionId = 'dynsection-0';
</script>
<script type="application/ecmascript" xlink:href="svg.min.js"/>
<svg id="graph" class="graph">
<g id="viewport">
<title>mpqc::lcao::cc::CCk&lt; Tile, Policy &gt;</title>
<!-- Node1 -->
<g id="Node000001" class="node">
<title>Node1</title>
<g id="a_Node000001"><a xlink:title="Solves for coupled cluster wave operator and properties.">
<polygon fill="#999999" stroke="#666666" points="1665,-207.5 1553,-207.5 1553,-177.5 1665,-177.5 1665,-207.5"/>
<text text-anchor="start" x="1561" y="-195.5" font-family="FreeSans" font-size="10.00">mpqc::lcao::cc::CCk</text>
<text text-anchor="middle" x="1609" y="-184.5" font-family="FreeSans" font-size="10.00">&lt; Tile, Policy &gt;</text>
</a>
</g>
</g>
<!-- Node2 -->
<g id="Node000002" class="node">
<title>Node2</title>
<g id="a_Node000002"><a xlink:href="classmpqc_1_1lcao_1_1_l_c_a_o_wavefunction.html" target="_top" xlink:title="LCAOWavefunction is a Wavefunction with an LCAOFactory.">
<polygon fill="white" stroke="#666666" points="1480,-261.5 1311,-261.5 1311,-231.5 1480,-231.5 1480,-261.5"/>
<text text-anchor="start" x="1319" y="-249.5" font-family="FreeSans" font-size="10.00">mpqc::lcao::LCAOWavefunction</text>
<text text-anchor="middle" x="1395.5" y="-238.5" font-family="FreeSans" font-size="10.00">&lt; Tile, Policy &gt;</text>
</a>
</g>
</g>
<!-- Node2&#45;&gt;Node1 -->
<g id="edge1_Node000001_Node000002" class="edge">
<title>Node2&#45;&gt;Node1</title>
<g id="a_edge1_Node000001_Node000002"><a xlink:title=" ">
<path fill="none" stroke="#63b8ff" d="M1465.24,-228.95C1493.56,-221.72 1525.92,-213.46 1552.67,-206.63"/>
<polygon fill="#63b8ff" stroke="#63b8ff" points="1464.24,-225.59 1455.41,-231.46 1465.97,-232.38 1464.24,-225.59"/>
</a>
</g>
</g>
<!-- Node3 -->
<g id="Node000003" class="node">
<title>Node3</title>
<g id="a_Node000003"><a xlink:href="classmpqc_1_1lcao_1_1_wavefunction.html" target="_top" xlink:title=" ">
<polygon fill="white" stroke="#666666" points="1170.5,-256 1027.5,-256 1027.5,-237 1170.5,-237 1170.5,-256"/>
<text text-anchor="middle" x="1099" y="-244" font-family="FreeSans" font-size="10.00">mpqc::lcao::Wavefunction</text>
</a>
</g>
</g>
<!-- Node3&#45;&gt;Node2 -->
<g id="edge2_Node000002_Node000003" class="edge">
<title>Node3&#45;&gt;Node2</title>
<g id="a_edge2_Node000002_Node000003"><a xlink:title=" ">
<path fill="none" stroke="#63b8ff" d="M1180.63,-246.5C1221.1,-246.5 1270.07,-246.5 1310.93,-246.5"/>
<polygon fill="#63b8ff" stroke="#63b8ff" points="1180.54,-243 1170.54,-246.5 1180.54,-250 1180.54,-243"/>
</a>
</g>
</g>
<!-- Node4 -->
<g id="Node000004" class="node">
<title>Node4</title>
<g id="a_Node000004"><a xlink:href="classmpqc_1_1_wavefunction.html" target="_top" xlink:title=" ">
<polygon fill="white" stroke="#666666" points="832,-256 716,-256 716,-237 832,-237 832,-256"/>
<text text-anchor="middle" x="774" y="-244" font-family="FreeSans" font-size="10.00">mpqc::Wavefunction</text>
</a>
</g>
</g>
<!-- Node4&#45;&gt;Node3 -->
<g id="edge3_Node000003_Node000004" class="edge">
<title>Node4&#45;&gt;Node3</title>
<g id="a_edge3_Node000003_Node000004"><a xlink:title=" ">
<path fill="none" stroke="#63b8ff" d="M842.2,-246.5C896.4,-246.5 972.42,-246.5 1027.48,-246.5"/>
<polygon fill="#63b8ff" stroke="#63b8ff" points="842,-243 832,-246.5 842,-250 842,-243"/>
</a>
</g>
</g>
<!-- Node5 -->
<g id="Node000005" class="node">
<title>Node5</title>
<g id="a_Node000005"><a xlink:href="classmpqc_1_1_described_class.html" target="_top" xlink:title=" ">
<polygon fill="white" stroke="#666666" points="677.5,-292 552.5,-292 552.5,-273 677.5,-273 677.5,-292"/>
<text text-anchor="middle" x="615" y="-280" font-family="FreeSans" font-size="10.00">mpqc::DescribedClass</text>
</a>
</g>
</g>
<!-- Node5&#45;&gt;Node4 -->
<g id="edge4_Node000004_Node000005" class="edge">
<title>Node5&#45;&gt;Node4</title>
<g id="a_edge4_Node000004_Node000005"><a xlink:title=" ">
<path fill="none" stroke="#63b8ff" d="M667.57,-270.68C688.28,-265.93 711.83,-260.53 731.42,-256.03"/>
<polygon fill="#63b8ff" stroke="#63b8ff" points="666.63,-267.3 657.66,-272.95 668.19,-274.12 666.63,-267.3"/>
</a>
</g>
</g>
<!-- Node10 -->
<g id="Node000010" class="node">
<title>Node10</title>
<g id="a_Node000010"><a xlink:href="classmpqc_1_1_multistate_impl_base.html" target="_top" xlink:title=" ">
<polygon fill="white" stroke="#666666" points="995,-299 850,-299 850,-280 995,-280 995,-299"/>
<text text-anchor="middle" x="922.5" y="-287" font-family="FreeSans" font-size="10.00">mpqc::MultistateImplBase</text>
</a>
</g>
</g>
<!-- Node5&#45;&gt;Node10 -->
<g id="edge10_Node000010_Node000005" class="edge">
<title>Node5&#45;&gt;Node10</title>
<g id="a_edge10_Node000010_Node000005"><a xlink:title=" ">
<path fill="none" stroke="#63b8ff" d="M688,-284.15C736.82,-285.27 801.1,-286.74 849.85,-287.86"/>
<polygon fill="#63b8ff" stroke="#63b8ff" points="687.9,-280.65 677.82,-283.92 687.74,-287.64 687.9,-280.65"/>
</a>
</g>
</g>
<!-- Node6 -->
<g id="Node000006" class="node">
<title>Node6</title>
<g id="a_Node000006"><a xlink:href="classmpqc_1_1enable__shared__from__this.html" target="_top" xlink:title=" ">
<polygon fill="white" stroke="#666666" points="514,-297.5 348,-297.5 348,-267.5 514,-267.5 514,-297.5"/>
<text text-anchor="start" x="356" y="-285.5" font-family="FreeSans" font-size="10.00">mpqc::enable_shared</text>
<text text-anchor="middle" x="431" y="-274.5" font-family="FreeSans" font-size="10.00">_from_this&lt; DescribedClass &gt;</text>
</a>
</g>
</g>
<!-- Node6&#45;&gt;Node5 -->
<g id="edge5_Node000005_Node000006" class="edge">
<title>Node6&#45;&gt;Node5</title>
<g id="a_edge5_Node000005_Node000006"><a xlink:title=" ">
<path fill="none" stroke="#63b8ff" d="M524.45,-282.5C533.9,-282.5 543.33,-282.5 552.32,-282.5"/>
<polygon fill="#63b8ff" stroke="#63b8ff" points="524.21,-279 514.21,-282.5 524.21,-286 524.21,-279"/>
</a>
</g>
</g>
<!-- Node7 -->
<g id="Node000007" class="node">
<title>Node7</title>
<g id="a_Node000007"><a xlink:href="classmpqc_1_1detail_1_1virt__base__of__enable__shared__from__this.html" target="_top" xlink:title="helper class for mpqc::enable_shared_from_this">
<polygon fill="white" stroke="#666666" points="311,-303 174,-303 174,-262 311,-262 311,-303"/>
<text text-anchor="start" x="182" y="-291" font-family="FreeSans" font-size="10.00">mpqc::detail::virt</text>
<text text-anchor="start" x="182" y="-280" font-family="FreeSans" font-size="10.00">_base_of_enable_shared</text>
<text text-anchor="middle" x="242.5" y="-269" font-family="FreeSans" font-size="10.00">_from_this</text>
</a>
</g>
</g>
<!-- Node7&#45;&gt;Node6 -->
<g id="edge6_Node000006_Node000007" class="edge">
<title>Node7&#45;&gt;Node6</title>
<g id="a_edge6_Node000006_Node000007"><a xlink:title=" ">
<path fill="none" stroke="#63b8ff" d="M321.25,-282.5C329.98,-282.5 338.91,-282.5 347.7,-282.5"/>
<polygon fill="#63b8ff" stroke="#63b8ff" points="321.09,-279 311.09,-282.5 321.09,-286 321.09,-279"/>
</a>
</g>
</g>
<!-- Node8 -->
<g id="Node000008" class="node">
<title>Node8</title>
<g id="a_Node000008"><a xlink:title=" ">
<polygon fill="white" stroke="#666666" points="137,-308.5 0,-308.5 0,-256.5 137,-256.5 137,-308.5"/>
<text text-anchor="start" x="8" y="-296.5" font-family="FreeSans" font-size="10.00">std::enable_shared</text>
<text text-anchor="start" x="8" y="-285.5" font-family="FreeSans" font-size="10.00">_from_this&lt; virt_base</text>
<text text-anchor="start" x="8" y="-274.5" font-family="FreeSans" font-size="10.00">_of_enable_shared_from</text>
<text text-anchor="middle" x="68.5" y="-263.5" font-family="FreeSans" font-size="10.00">_this &gt;</text>
</a>
</g>
</g>
<!-- Node8&#45;&gt;Node7 -->
<g id="edge7_Node000007_Node000008" class="edge">
<title>Node8&#45;&gt;Node7</title>
<g id="a_edge7_Node000007_Node000008"><a xlink:title=" ">
<path fill="none" stroke="#63b8ff" d="M147.63,-282.5C156.35,-282.5 165.17,-282.5 173.73,-282.5"/>
<polygon fill="#63b8ff" stroke="#63b8ff" points="147.48,-279 137.48,-282.5 147.48,-286 147.48,-279"/>
</a>
</g>
</g>
<!-- Node9 -->
<g id="Node000009" class="node">
<title>Node9</title>
<g id="a_Node000009"><a xlink:href="classmpqc_1_1utility_1_1_observer.html" target="_top" xlink:title="helps to set up messaging between objects via the Observer pattern">
<polygon fill="white" stroke="#666666" points="679,-249 551,-249 551,-230 679,-230 679,-249"/>
<text text-anchor="middle" x="615" y="-237" font-family="FreeSans" font-size="10.00">mpqc::utility::Observer</text>
</a>
</g>
</g>
<!-- Node9&#45;&gt;Node4 -->
<g id="edge8_Node000004_Node000009" class="edge">
<title>Node9&#45;&gt;Node4</title>
<g id="a_edge8_Node000004_Node000009"><a xlink:title=" ">
<path fill="none" stroke="#63b8ff" d="M689.41,-242.77C698.32,-243.17 707.32,-243.57 715.94,-243.96"/>
<polygon fill="#63b8ff" stroke="#63b8ff" points="689.55,-239.28 679.41,-242.33 689.24,-246.27 689.55,-239.28"/>
</a>
</g>
</g>
<!-- Node10&#45;&gt;Node1 -->
<g id="edge9_Node000001_Node000010" class="edge">
<title>Node10&#45;&gt;Node1</title>
<g id="a_edge9_Node000001_Node000010"><a xlink:title=" ">
<path fill="none" stroke="#63b8ff" d="M1005.26,-299.42C1115.63,-309.99 1317.22,-319.2 1480,-270.5 1523.13,-257.6 1566.42,-226.51 1589.96,-207.71"/>
<polygon fill="#63b8ff" stroke="#63b8ff" points="1005.49,-295.93 995.2,-298.43 1004.81,-302.9 1005.49,-295.93"/>
</a>
</g>
</g>
<!-- Node11 -->
<g id="Node000011" class="node">
<title>Node11</title>
<g id="a_Node000011"><a xlink:href="classmpqc_1_1_provides.html" target="_top" xlink:title=" ">
<polygon fill="white" stroke="#666666" points="1479.5,-213 1311.5,-213 1311.5,-172 1479.5,-172 1479.5,-213"/>
<text text-anchor="start" x="1319.5" y="-201" font-family="FreeSans" font-size="10.00">mpqc::Provides&lt; Energy,</text>
<text text-anchor="start" x="1319.5" y="-190" font-family="FreeSans" font-size="10.00"> ExcitationEnergy, Perturbation</text>
<text text-anchor="middle" x="1395.5" y="-179" font-family="FreeSans" font-size="10.00">Response &gt;</text>
</a>
</g>
</g>
<!-- Node11&#45;&gt;Node1 -->
<g id="edge11_Node000001_Node000011" class="edge">
<title>Node11&#45;&gt;Node1</title>
<g id="a_edge11_Node000001_Node000011"><a xlink:title=" ">
<path fill="none" stroke="#63b8ff" d="M1489.92,-192.5C1511.38,-192.5 1533.53,-192.5 1552.77,-192.5"/>
<polygon fill="#63b8ff" stroke="#63b8ff" points="1489.79,-189 1479.79,-192.5 1489.79,-196 1489.79,-189"/>
</a>
</g>
</g>
<!-- Node12 -->
<g id="Node000012" class="node">
<title>Node12</title>
<g id="a_Node000012"><a xlink:title=" ">
<polygon fill="white" stroke="#666666" points="1473,-153.5 1318,-153.5 1318,-101.5 1473,-101.5 1473,-153.5"/>
<text text-anchor="start" x="1326" y="-141.5" font-family="FreeSans" font-size="10.00">TiledArray::DistArrayVector</text>
<text text-anchor="start" x="1326" y="-130.5" font-family="FreeSans" font-size="10.00">&lt; typename ArrayToT::value</text>
<text text-anchor="start" x="1326" y="-119.5" font-family="FreeSans" font-size="10.00">_type, typename ArrayToT::</text>
<text text-anchor="middle" x="1395.5" y="-108.5" font-family="FreeSans" font-size="10.00">policy_type &gt;</text>
</a>
</g>
</g>
<!-- Node12&#45;&gt;Node1 -->
<g id="edge12_Node000001_Node000012" class="edge">
<title>Node12&#45;&gt;Node1</title>
<g id="a_edge12_Node000001_Node000012"><a xlink:title=" ">
<path fill="none" stroke="#9a32cd" stroke-dasharray="5,2" d="M1482.98,-154.08C1508.86,-162.03 1536.34,-170.48 1558.92,-177.42"/>
<polygon fill="#9a32cd" stroke="#9a32cd" points="1483.74,-150.65 1473.16,-151.06 1481.69,-157.34 1483.74,-150.65"/>
</a>
</g>
<text text-anchor="middle" x="1516.5" y="-172.5" font-family="FreeSans" font-size="10.00" fill="grey"> T_csv_</text>
</g>
<!-- Node13 -->
<g id="Node000013" class="node">
<title>Node13</title>
<g id="a_Node000013"><a xlink:title=" ">
<polygon fill="white" stroke="#666666" points="1152,-152.5 1046,-152.5 1046,-122.5 1152,-122.5 1152,-152.5"/>
<text text-anchor="start" x="1054" y="-140.5" font-family="FreeSans" font-size="10.00">TiledArray::detail</text>
<text text-anchor="middle" x="1099" y="-129.5" font-family="FreeSans" font-size="10.00">::VectorBase&lt; T &gt;</text>
</a>
</g>
</g>
<!-- Node13&#45;&gt;Node12 -->
<g id="edge13_Node000012_Node000013" class="edge">
<title>Node13&#45;&gt;Node12</title>
<g id="a_edge13_Node000012_Node000013"><a xlink:title=" ">
<path fill="none" stroke="#63b8ff" d="M1162.31,-135.38C1207.67,-133.84 1269.37,-131.75 1317.77,-130.11"/>
<polygon fill="#63b8ff" stroke="#63b8ff" points="1162.19,-131.89 1152.31,-135.72 1162.42,-138.88 1162.19,-131.89"/>
</a>
</g>
</g>
<!-- Node14 -->
<g id="Node000014" class="node">
<title>Node14</title>
<g id="a_Node000014"><a xlink:title=" ">
<polygon fill="white" stroke="#666666" points="822.5,-147 725.5,-147 725.5,-128 822.5,-128 822.5,-147"/>
<text text-anchor="middle" x="774" y="-135" font-family="FreeSans" font-size="10.00">std::vector&lt; T &gt;</text>
</a>
</g>
</g>
<!-- Node14&#45;&gt;Node13 -->
<g id="edge14_Node000013_Node000014" class="edge">
<title>Node14&#45;&gt;Node13</title>
<g id="a_edge14_Node000013_Node000014"><a xlink:title=" ">
<path fill="none" stroke="#63b8ff" d="M832.81,-137.5C893.34,-137.5 987.54,-137.5 1045.86,-137.5"/>
<polygon fill="#63b8ff" stroke="#63b8ff" points="832.66,-134 822.66,-137.5 832.66,-141 832.66,-134"/>
</a>
</g>
</g>
<!-- Node15 -->
<g id="Node000015" class="node">
<title>Node15</title>
<g id="a_Node000015"><a xlink:href="classmpqc_1_1_key_val.html" target="_top" xlink:title="KeyVal specifies C++ primitive data (booleans, integers, reals, string) and user&#45;defined objects obta...">
<polygon fill="white" stroke="#666666" points="1437,-74 1354,-74 1354,-55 1437,-55 1437,-74"/>
<text text-anchor="middle" x="1395.5" y="-62" font-family="FreeSans" font-size="10.00">mpqc::KeyVal</text>
</a>
</g>
</g>
<!-- Node15&#45;&gt;Node1 -->
<g id="edge15_Node000001_Node000015" class="edge">
<title>Node15&#45;&gt;Node1</title>
<g id="a_edge15_Node000001_Node000015"><a xlink:title=" ">
<path fill="none" stroke="#9a32cd" stroke-dasharray="5,2" d="M1443.42,-77.13C1455.68,-81.26 1468.63,-86.39 1480,-92.5 1524.46,-116.41 1569.32,-155.77 1592.29,-177.29"/>
<polygon fill="#9a32cd" stroke="#9a32cd" points="1444.38,-73.77 1433.79,-74.04 1442.24,-80.43 1444.38,-73.77"/>
</a>
</g>
<text text-anchor="middle" x="1516.5" y="-129.5" font-family="FreeSans" font-size="10.00" fill="grey"> kv_</text>
</g>
<!-- Node16 -->
<g id="Node000016" class="node">
<title>Node16</title>
<g id="a_Node000016"><a xlink:href="structmpqc_1_1_key_val_1_1dummy__validator__t.html" target="_top" xlink:title=" ">
<polygon fill="white" stroke="#666666" points="1162,-104.5 1036,-104.5 1036,-74.5 1162,-74.5 1162,-104.5"/>
<text text-anchor="start" x="1044" y="-92.5" font-family="FreeSans" font-size="10.00">mpqc::KeyVal::dummy</text>
<text text-anchor="middle" x="1099" y="-81.5" font-family="FreeSans" font-size="10.00">_validator_t</text>
</a>
</g>
</g>
<!-- Node16&#45;&gt;Node15 -->
<g id="edge16_Node000015_Node000016" class="edge">
<title>Node16&#45;&gt;Node15</title>
<g id="a_edge16_Node000015_Node000016"><a xlink:title=" ">
<path fill="none" stroke="#9a32cd" stroke-dasharray="5,2" d="M1172.15,-83.38C1229.25,-78.53 1306.93,-71.93 1353.74,-67.96"/>
<polygon fill="#9a32cd" stroke="#9a32cd" points="1171.76,-79.9 1162.1,-84.23 1172.36,-86.87 1171.76,-79.9"/>
</a>
</g>
<text text-anchor="middle" x="1248" y="-84.5" font-family="FreeSans" font-size="10.00" fill="grey"> dummy_validator</text>
</g>
<!-- Node17 -->
<g id="Node000017" class="node">
<title>Node17</title>
<g id="a_Node000017"><a xlink:href="structmpqc_1_1_key_val_1_1is__nonnegative__t.html" target="_top" xlink:title=" ">
<polygon fill="white" stroke="#666666" points="1185,-56 1013,-56 1013,-37 1185,-37 1185,-56"/>
<text text-anchor="middle" x="1099" y="-44" font-family="FreeSans" font-size="10.00">mpqc::KeyVal::is_nonnegative_t</text>
</a>
</g>
</g>
<!-- Node17&#45;&gt;Node15 -->
<g id="edge17_Node000015_Node000017" class="edge">
<title>Node17&#45;&gt;Node15</title>
<g id="a_edge17_Node000015_Node000017"><a xlink:title=" ">
<path fill="none" stroke="#9a32cd" stroke-dasharray="5,2" d="M1195.06,-50.92C1226.27,-52.5 1261.13,-54.42 1293,-56.5 1312.93,-57.8 1335.04,-59.51 1353.53,-61.02"/>
<polygon fill="#9a32cd" stroke="#9a32cd" points="1195.22,-47.42 1185.06,-50.41 1194.87,-54.41 1195.22,-47.42"/>
</a>
</g>
<text text-anchor="middle" x="1248" y="-59.5" font-family="FreeSans" font-size="10.00" fill="grey"> is_nonnegative</text>
</g>
<!-- Node18 -->
<g id="Node000018" class="node">
<title>Node18</title>
<g id="a_Node000018"><a xlink:href="structmpqc_1_1_key_val_1_1is__positive__t.html" target="_top" xlink:title=" ">
<polygon fill="white" stroke="#666666" points="1174,-19 1024,-19 1024,0 1174,0 1174,-19"/>
<text text-anchor="middle" x="1099" y="-7" font-family="FreeSans" font-size="10.00">mpqc::KeyVal::is_positive_t</text>
</a>
</g>
</g>
<!-- Node18&#45;&gt;Node15 -->
<g id="edge18_Node000015_Node000018" class="edge">
<title>Node18&#45;&gt;Node15</title>
<g id="a_edge18_Node000015_Node000018"><a xlink:title=" ">
<path fill="none" stroke="#9a32cd" stroke-dasharray="5,2" d="M1184.5,-18.9C1218.4,-23.3 1257.72,-29.2 1293,-36.5 1317.17,-41.5 1344.07,-49.01 1364.1,-55"/>
<polygon fill="#9a32cd" stroke="#9a32cd" points="1184.53,-15.38 1174.16,-17.58 1183.64,-22.32 1184.53,-15.38"/>
</a>
</g>
<text text-anchor="middle" x="1248" y="-39.5" font-family="FreeSans" font-size="10.00" fill="grey"> is_positive</text>
</g>
</g>
</svg>

<g id="navigator" transform="translate(0 0)" fill="#404254">
  <rect fill="#f2f5e9" fill-opacity="0.5" stroke="#606060" stroke-width=".5" x="0" y="0" width="60" height="60"/>
  <use id="zoomplus" xlink:href="#zoomPlus" x="17" y="9" onmousedown="handleZoom(evt,'in')"/>
  <use id="zoomminus" xlink:href="#zoomMin" x="42" y="9" onmousedown="handleZoom(evt,'out')"/>
  <use id="reset" xlink:href="#resetDef" x="30" y="36" onmousedown="handleReset()"/>
   <use id="arrowup" xlink:href="#arrowUp" x="0" y="0" onmousedown="handlePan(0,-1)"/>
  <use id="arrowright" xlink:href="#arrowRight" x="0" y="0" onmousedown="handlePan(1,0)"/>
  <use id="arrowdown" xlink:href="#arrowDown" x="0" y="0" onmousedown="handlePan(0,1)"/>
  <use id="arrowleft" xlink:href="#arrowLeft" x="0" y="0" onmousedown="handlePan(-1,0)"/>
</g>
<svg viewBox="0 0 15 15" width="100%" height="30px" preserveAspectRatio="xMaxYMin meet">
 <g id="arrow_out" transform="scale(0.3 0.3)">
  <a xlink:href="classmpqc_1_1lcao_1_1cc_1_1_c_ck__coll__graph_org.svg" target="_base">
   <rect id="button" ry="5" rx="5" y="6" x="6" height="38" width="38"
        fill="#f2f5e9" fill-opacity="0.5" stroke="#606060" stroke-width="1.0"/>
   <path id="arrow"
     d="M 11.500037,31.436501 C 11.940474,20.09759 22.043105,11.32322 32.158766,21.979434 L 37.068811,17.246167 C 37.068811,17.246167 37.088388,32 37.088388,32 L 22.160133,31.978069 C 22.160133,31.978069 26.997745,27.140456 26.997745,27.140456 C 18.528582,18.264221 13.291696,25.230495 11.500037,31.436501 z"
     style="fill:#404040;"/>
  </a>
 </g>
</svg>

<style type='text/css'>
<![CDATA[
[data-mouse-over-selected='false'] { opacity: 0.7; }
[data-mouse-over-selected='true']  { opacity: 1.0; }
]]>
</style>
<script type="application/ecmascript"><![CDATA[
document.addEventListener('DOMContentLoaded', (event) => {
  highlightEdges();
  highlightAdjacentNodes();
});
]]></script>
</svg>
