<?xml version="1.0" encoding="UTF-8" standalone="no"?>
<!DOCTYPE svg PUBLIC "-//W3C//DTD SVG 1.1//EN"
 "http://www.w3.org/Graphics/SVG/1.1/DTD/svg11.dtd">
<!-- Generated by graphviz version 2.43.0 (0)
 -->
<!-- Title: mpqc::lcao::DirectFockBuilder&lt; Tile, Policy &gt; Pages: 1 -->
<svg width="1227pt" height="109pt"
 viewBox="0.00 0.00 1227.00 108.50" xmlns="http://www.w3.org/2000/svg" xmlns:xlink="http://www.w3.org/1999/xlink">
<g id="graph0" class="graph" transform="scale(1 1) rotate(0) translate(4 104.5)">
<title>mpqc::lcao::DirectFockBuilder&lt; Tile, Policy &gt;</title>
<!-- Node1 -->
<g id="Node000001" class="node">
<title>Node1</title>
<g id="a_Node000001"><a xlink:title=" ">
<polygon fill="#999999" stroke="#666666" points="1219,-62.5 1057,-62.5 1057,-32.5 1219,-32.5 1219,-62.5"/>
<text text-anchor="start" x="1065" y="-50.5" font-family="FreeSans" font-size="10.00">mpqc::lcao::DirectFockBuilder</text>
<text text-anchor="middle" x="1138" y="-39.5" font-family="FreeSans" font-size="10.00">&lt; Tile, Policy &gt;</text>
</a>
</g>
</g>
<!-- Node2 -->
<g id="Node000002" class="node">
<title>Node2</title>
<g id="a_Node000002"><a xlink:href="classmpqc_1_1lcao_1_1_j_k_fock_builder.html" target="_top" xlink:title=" ">
<polygon fill="white" stroke="#666666" points="1021,-89.5 878,-89.5 878,-59.5 1021,-59.5 1021,-89.5"/>
<text text-anchor="start" x="886" y="-77.5" font-family="FreeSans" font-size="10.00">mpqc::lcao::JKFockBuilder</text>
<text text-anchor="middle" x="949.5" y="-66.5" font-family="FreeSans" font-size="10.00">&lt; Tile, Policy &gt;</text>
</a>
</g>
</g>
<!-- Node2&#45;&gt;Node1 -->
<g id="edge1_Node000001_Node000002" class="edge">
<title>Node2&#45;&gt;Node1</title>
<g id="a_edge1_Node000001_Node000002"><a xlink:title=" ">
<path fill="none" stroke="#63b8ff" d="M1030.94,-62.85C1039.48,-61.62 1048.16,-60.36 1056.7,-59.13"/>
<polygon fill="#63b8ff" stroke="#63b8ff" points="1030.4,-59.4 1021.01,-64.29 1031.41,-66.32 1030.4,-59.4"/>
</a>
</g>
</g>
<!-- Node3 -->
<g id="Node000003" class="node">
<title>Node3</title>
<g id="a_Node000003"><a xlink:href="classmpqc_1_1lcao_1_1_fock_builder.html" target="_top" xlink:title=" ">
<polygon fill="white" stroke="#666666" points="842,-89.5 709,-89.5 709,-59.5 842,-59.5 842,-89.5"/>
<text text-anchor="start" x="717" y="-77.5" font-family="FreeSans" font-size="10.00">mpqc::lcao::FockBuilder</text>
<text text-anchor="middle" x="775.5" y="-66.5" font-family="FreeSans" font-size="10.00">&lt; Tile, Policy &gt;</text>
</a>
</g>
</g>
<!-- Node3&#45;&gt;Node2 -->
<g id="edge2_Node000002_Node000003" class="edge">
<title>Node3&#45;&gt;Node2</title>
<g id="a_edge2_Node000002_Node000003"><a xlink:title=" ">
<path fill="none" stroke="#63b8ff" d="M852.25,-74.5C860.72,-74.5 869.32,-74.5 877.72,-74.5"/>
<polygon fill="#63b8ff" stroke="#63b8ff" points="852.02,-71 842.02,-74.5 852.02,-78 852.02,-71"/>
</a>
</g>
</g>
<!-- Node4 -->
<g id="Node000004" class="node">
<title>Node4</title>
<g id="a_Node000004"><a xlink:href="classmpqc_1_1_described_class.html" target="_top" xlink:title=" ">
<polygon fill="white" stroke="#666666" points="673,-84 548,-84 548,-65 673,-65 673,-84"/>
<text text-anchor="middle" x="610.5" y="-72" font-family="FreeSans" font-size="10.00">mpqc::DescribedClass</text>
</a>
</g>
</g>
<!-- Node4&#45;&gt;Node3 -->
<g id="edge3_Node000003_Node000004" class="edge">
<title>Node4&#45;&gt;Node3</title>
<g id="a_edge3_Node000003_Node000004"><a xlink:title=" ">
<path fill="none" stroke="#63b8ff" d="M683.13,-74.5C691.73,-74.5 700.48,-74.5 708.98,-74.5"/>
<polygon fill="#63b8ff" stroke="#63b8ff" points="683.12,-71 673.12,-74.5 683.12,-78 683.12,-71"/>
</a>
</g>
</g>
<!-- Node5 -->
<g id="Node000005" class="node">
<title>Node5</title>
<g id="a_Node000005"><a xlink:href="classmpqc_1_1enable__shared__from__this.html" target="_top" xlink:title=" ">
<polygon fill="white" stroke="#666666" points="512,-89.5 346,-89.5 346,-59.5 512,-59.5 512,-89.5"/>
<text text-anchor="start" x="354" y="-77.5" font-family="FreeSans" font-size="10.00">mpqc::enable_shared</text>
<text text-anchor="middle" x="429" y="-66.5" font-family="FreeSans" font-size="10.00">_from_this&lt; DescribedClass &gt;</text>
</a>
</g>
</g>
<!-- Node5&#45;&gt;Node4 -->
<g id="edge4_Node000004_Node000005" class="edge">
<title>Node5&#45;&gt;Node4</title>
<g id="a_edge4_Node000004_Node000005"><a xlink:title=" ">
<path fill="none" stroke="#63b8ff" d="M522.28,-74.5C530.93,-74.5 539.55,-74.5 547.82,-74.5"/>
<polygon fill="#63b8ff" stroke="#63b8ff" points="522.13,-71 512.13,-74.5 522.13,-78 522.13,-71"/>
</a>
</g>
</g>
<!-- Node6 -->
<g id="Node000006" class="node">
<title>Node6</title>
<g id="a_Node000006"><a xlink:href="classmpqc_1_1detail_1_1virt__base__of__enable__shared__from__this.html" target="_top" xlink:title="helper class for mpqc::enable_shared_from_this">
<polygon fill="white" stroke="#666666" points="310,-95 173,-95 173,-54 310,-54 310,-95"/>
<text text-anchor="start" x="181" y="-83" font-family="FreeSans" font-size="10.00">mpqc::detail::virt</text>
<text text-anchor="start" x="181" y="-72" font-family="FreeSans" font-size="10.00">_base_of_enable_shared</text>
<text text-anchor="middle" x="241.5" y="-61" font-family="FreeSans" font-size="10.00">_from_this</text>
</a>
</g>
</g>
<!-- Node6&#45;&gt;Node5 -->
<g id="edge5_Node000005_Node000006" class="edge">
<title>Node6&#45;&gt;Node5</title>
<g id="a_edge5_Node000005_Node000006"><a xlink:title=" ">
<path fill="none" stroke="#63b8ff" d="M320.43,-74.5C328.86,-74.5 337.45,-74.5 345.92,-74.5"/>
<polygon fill="#63b8ff" stroke="#63b8ff" points="320.26,-71 310.26,-74.5 320.26,-78 320.26,-71"/>
</a>
</g>
</g>
<!-- Node7 -->
<g id="Node000007" class="node">
<title>Node7</title>
<g id="a_Node000007"><a xlink:title=" ">
<polygon fill="white" stroke="#666666" points="137,-100.5 0,-100.5 0,-48.5 137,-48.5 137,-100.5"/>
<text text-anchor="start" x="8" y="-88.5" font-family="FreeSans" font-size="10.00">std::enable_shared</text>
<text text-anchor="start" x="8" y="-77.5" font-family="FreeSans" font-size="10.00">_from_this&lt; virt_base</text>
<text text-anchor="start" x="8" y="-66.5" font-family="FreeSans" font-size="10.00">_of_enable_shared_from</text>
<text text-anchor="middle" x="68.5" y="-55.5" font-family="FreeSans" font-size="10.00">_this &gt;</text>
</a>
</g>
</g>
<!-- Node7&#45;&gt;Node6 -->
<g id="edge6_Node000006_Node000007" class="edge">
<title>Node7&#45;&gt;Node6</title>
<g id="a_edge6_Node000006_Node000007"><a xlink:title=" ">
<path fill="none" stroke="#63b8ff" d="M147.1,-74.5C155.69,-74.5 164.39,-74.5 172.85,-74.5"/>
<polygon fill="#63b8ff" stroke="#63b8ff" points="147.08,-71 137.08,-74.5 147.08,-78 147.08,-71"/>
</a>
</g>
</g>
<!-- Node8 -->
<g id="Node000008" class="node">
<title>Node8</title>
<g id="a_Node000008"><a xlink:title=" ">
<polygon fill="white" stroke="#666666" points="1012.5,-41 886.5,-41 886.5,0 1012.5,0 1012.5,-41"/>
<text text-anchor="start" x="894.5" y="-29" font-family="FreeSans" font-size="10.00">madness::WorldObject</text>
<text text-anchor="start" x="894.5" y="-18" font-family="FreeSans" font-size="10.00">&lt; DirectFockBuilder&lt;</text>
<text text-anchor="middle" x="949.5" y="-7" font-family="FreeSans" font-size="10.00"> Tile, Policy &gt; &gt;</text>
</a>
</g>
</g>
<!-- Node8&#45;&gt;Node1 -->
<g id="edge7_Node000001_Node000008" class="edge">
<title>Node8&#45;&gt;Node1</title>
<g id="a_edge7_Node000001_Node000008"><a xlink:title=" ">
<path fill="none" stroke="#63b8ff" d="M1022.75,-30.96C1033.94,-32.58 1045.57,-34.26 1056.92,-35.91"/>
<polygon fill="#63b8ff" stroke="#63b8ff" points="1023,-27.46 1012.6,-29.49 1022,-34.39 1023,-27.46"/>
</a>
</g>
</g>
</g>
</svg>
