<?xml version="1.0" encoding="UTF-8" standalone="no"?>
<!DOCTYPE svg PUBLIC "-//W3C//DTD SVG 1.1//EN"
 "http://www.w3.org/Graphics/SVG/1.1/DTD/svg11.dtd">
<!-- Generated by graphviz version 2.43.0 (0)
 -->
<!-- Title: mpqc::math::QuasiNewtonOptimizer&lt; Real, Params &gt; Pages: 1 -->
<svg width="315pt" height="401pt"
 viewBox="0.00 0.00 314.50 401.00" xmlns="http://www.w3.org/2000/svg" xmlns:xlink="http://www.w3.org/1999/xlink">
<g id="graph0" class="graph" transform="scale(1 1) rotate(0) translate(4 397)">
<title>mpqc::math::QuasiNewtonOptimizer&lt; Real, Params &gt;</title>
<!-- Node1 -->
<g id="Node000001" class="node">
<title>Node1</title>
<g id="a_Node000001"><a xlink:title="It is itself a Function, namely Function&lt;Params, OptimizerParams&gt;.">
<polygon fill="#999999" stroke="#666666" points="244.5,-30 50.5,-30 50.5,0 244.5,0 244.5,-30"/>
<text text-anchor="start" x="58.5" y="-18" font-family="FreeSans" font-size="10.00">mpqc::math::QuasiNewtonOptimizer</text>
<text text-anchor="middle" x="147.5" y="-7" font-family="FreeSans" font-size="10.00">&lt; Real, Params &gt;</text>
</a>
</g>
</g>
<!-- Node2 -->
<g id="Node000002" class="node">
<title>Node2</title>
<g id="a_Node000002"><a xlink:href="classmpqc_1_1math_1_1_optimizer.html" target="_top" xlink:title="It is itself a Function, namely Function&lt;Params, std::tuple&lt;&gt;&gt;.">
<polygon fill="white" stroke="#666666" points="212,-96 83,-96 83,-66 212,-66 212,-96"/>
<text text-anchor="start" x="91" y="-84" font-family="FreeSans" font-size="10.00">mpqc::math::Optimizer</text>
<text text-anchor="middle" x="147.5" y="-73" font-family="FreeSans" font-size="10.00">&lt; Real, Params &gt;</text>
</a>
</g>
</g>
<!-- Node2&#45;&gt;Node1 -->
<g id="edge1_Node000001_Node000002" class="edge">
<title>Node2&#45;&gt;Node1</title>
<g id="a_edge1_Node000001_Node000002"><a xlink:title=" ">
<path fill="none" stroke="#63b8ff" d="M147.5,-55.54C147.5,-46.96 147.5,-37.61 147.5,-30.16"/>
<polygon fill="#63b8ff" stroke="#63b8ff" points="144,-55.8 147.5,-65.8 151,-55.8 144,-55.8"/>
</a>
</g>
</g>
<!-- Node3 -->
<g id="Node000003" class="node">
<title>Node3</title>
<g id="a_Node000003"><a xlink:title=" ">
<polygon fill="white" stroke="#666666" points="143,-162 0,-162 0,-132 143,-132 143,-162"/>
<text text-anchor="start" x="8" y="-150" font-family="FreeSans" font-size="10.00">mpqc::math::Function</text>
<text text-anchor="middle" x="71.5" y="-139" font-family="FreeSans" font-size="10.00">&lt; Params, std::tuple&lt;&gt; &gt;</text>
</a>
</g>
</g>
<!-- Node3&#45;&gt;Node2 -->
<g id="edge2_Node000002_Node000003" class="edge">
<title>Node3&#45;&gt;Node2</title>
<g id="a_edge2_Node000002_Node000003"><a xlink:title=" ">
<path fill="none" stroke="#63b8ff" d="M96.2,-125.2C107.48,-115.7 120.55,-104.69 130.68,-96.16"/>
<polygon fill="#63b8ff" stroke="#63b8ff" points="93.76,-122.68 88.37,-131.8 98.27,-128.03 93.76,-122.68"/>
</a>
</g>
</g>
<!-- Node4 -->
<g id="Node000004" class="node">
<title>Node4</title>
<g id="a_Node000004"><a xlink:href="classmpqc_1_1_described_class.html" target="_top" xlink:title=" ">
<polygon fill="white" stroke="#666666" points="286,-156.5 161,-156.5 161,-137.5 286,-137.5 286,-156.5"/>
<text text-anchor="middle" x="223.5" y="-144.5" font-family="FreeSans" font-size="10.00">mpqc::DescribedClass</text>
</a>
</g>
</g>
<!-- Node4&#45;&gt;Node2 -->
<g id="edge3_Node000002_Node000004" class="edge">
<title>Node4&#45;&gt;Node2</title>
<g id="a_edge3_Node000002_Node000004"><a xlink:title=" ">
<path fill="none" stroke="#63b8ff" d="M205.35,-130.71C192.87,-120.21 176.43,-106.36 164.26,-96.12"/>
<polygon fill="#63b8ff" stroke="#63b8ff" points="203.35,-133.6 213.25,-137.37 207.86,-128.25 203.35,-133.6"/>
</a>
</g>
</g>
<!-- Node5 -->
<g id="Node000005" class="node">
<title>Node5</title>
<g id="a_Node000005"><a xlink:href="classmpqc_1_1enable__shared__from__this.html" target="_top" xlink:title=" ">
<polygon fill="white" stroke="#666666" points="306.5,-228 140.5,-228 140.5,-198 306.5,-198 306.5,-228"/>
<text text-anchor="start" x="148.5" y="-216" font-family="FreeSans" font-size="10.00">mpqc::enable_shared</text>
<text text-anchor="middle" x="223.5" y="-205" font-family="FreeSans" font-size="10.00">_from_this&lt; DescribedClass &gt;</text>
</a>
</g>
</g>
<!-- Node5&#45;&gt;Node4 -->
<g id="edge4_Node000004_Node000005" class="edge">
<title>Node5&#45;&gt;Node4</title>
<g id="a_edge4_Node000004_Node000005"><a xlink:title=" ">
<path fill="none" stroke="#63b8ff" d="M223.5,-187.6C223.5,-176.8 223.5,-164.78 223.5,-156.84"/>
<polygon fill="#63b8ff" stroke="#63b8ff" points="220,-187.8 223.5,-197.8 227,-187.8 220,-187.8"/>
</a>
</g>
</g>
<!-- Node6 -->
<g id="Node000006" class="node">
<title>Node6</title>
<g id="a_Node000006"><a xlink:href="classmpqc_1_1detail_1_1virt__base__of__enable__shared__from__this.html" target="_top" xlink:title="helper class for mpqc::enable_shared_from_this">
<polygon fill="white" stroke="#666666" points="292,-305 155,-305 155,-264 292,-264 292,-305"/>
<text text-anchor="start" x="163" y="-293" font-family="FreeSans" font-size="10.00">mpqc::detail::virt</text>
<text text-anchor="start" x="163" y="-282" font-family="FreeSans" font-size="10.00">_base_of_enable_shared</text>
<text text-anchor="middle" x="223.5" y="-271" font-family="FreeSans" font-size="10.00">_from_this</text>
</a>
</g>
</g>
<!-- Node6&#45;&gt;Node5 -->
<g id="edge5_Node000005_Node000006" class="edge">
<title>Node6&#45;&gt;Node5</title>
<g id="a_edge5_Node000005_Node000006"><a xlink:title=" ">
<path fill="none" stroke="#63b8ff" d="M223.5,-253.66C223.5,-244.76 223.5,-235.42 223.5,-228.04"/>
<polygon fill="#63b8ff" stroke="#63b8ff" points="220,-253.77 223.5,-263.77 227,-253.77 220,-253.77"/>
</a>
</g>
</g>
<!-- Node7 -->
<g id="Node000007" class="node">
<title>Node7</title>
<g id="a_Node000007"><a xlink:title=" ">
<polygon fill="white" stroke="#666666" points="292,-393 155,-393 155,-341 292,-341 292,-393"/>
<text text-anchor="start" x="163" y="-381" font-family="FreeSans" font-size="10.00">std::enable_shared</text>
<text text-anchor="start" x="163" y="-370" font-family="FreeSans" font-size="10.00">_from_this&lt; virt_base</text>
<text text-anchor="start" x="163" y="-359" font-family="FreeSans" font-size="10.00">_of_enable_shared_from</text>
<text text-anchor="middle" x="223.5" y="-348" font-family="FreeSans" font-size="10.00">_this &gt;</text>
</a>
</g>
</g>
<!-- Node7&#45;&gt;Node6 -->
<g id="edge6_Node000006_Node000007" class="edge">
<title>Node7&#45;&gt;Node6</title>
<g id="a_edge6_Node000006_Node000007"><a xlink:title=" ">
<path fill="none" stroke="#63b8ff" d="M223.5,-330.87C223.5,-322.05 223.5,-312.9 223.5,-305.15"/>
<polygon fill="#63b8ff" stroke="#63b8ff" points="220,-330.97 223.5,-340.97 227,-330.97 220,-330.97"/>
</a>
</g>
</g>
</g>
</svg>
