<?xml version="1.0" encoding="UTF-8" standalone="no"?>
<!DOCTYPE svg PUBLIC "-//W3C//DTD SVG 1.1//EN"
 "http://www.w3.org/Graphics/SVG/1.1/DTD/svg11.dtd">
<!-- Generated by graphviz version 2.43.0 (0)
 -->
<!-- Title: mpqc::lcao::ReferenceFockBuilder&lt; Tile, Policy, Integral &gt; Pages: 1 -->
<svg width="174pt" height="467pt"
 viewBox="0.00 0.00 174.00 467.00" xmlns="http://www.w3.org/2000/svg" xmlns:xlink="http://www.w3.org/1999/xlink">
<g id="graph0" class="graph" transform="scale(1 1) rotate(0) translate(4 463)">
<title>mpqc::lcao::ReferenceFockBuilder&lt; Tile, Policy, Integral &gt;</title>
<!-- Node1 -->
<g id="Node000001" class="node">
<title>Node1</title>
<g id="a_Node000001"><a xlink:title=" ">
<polygon fill="#999999" stroke="#666666" points="157,-41 9,-41 9,0 157,0 157,-41"/>
<text text-anchor="start" x="17" y="-29" font-family="FreeSans" font-size="10.00">mpqc::lcao::ReferenceFock</text>
<text text-anchor="start" x="17" y="-18" font-family="FreeSans" font-size="10.00">Builder&lt; Tile, Policy,</text>
<text text-anchor="middle" x="83" y="-7" font-family="FreeSans" font-size="10.00"> Integral &gt;</text>
</a>
</g>
</g>
<!-- Node2 -->
<g id="Node000002" class="node">
<title>Node2</title>
<g id="a_Node000002"><a xlink:href="classmpqc_1_1lcao_1_1_j_k_fock_builder.html" target="_top" xlink:title=" ">
<polygon fill="white" stroke="#666666" points="154.5,-107 11.5,-107 11.5,-77 154.5,-77 154.5,-107"/>
<text text-anchor="start" x="19.5" y="-95" font-family="FreeSans" font-size="10.00">mpqc::lcao::JKFockBuilder</text>
<text text-anchor="middle" x="83" y="-84" font-family="FreeSans" font-size="10.00">&lt; Tile, Policy &gt;</text>
</a>
</g>
</g>
<!-- Node2&#45;&gt;Node1 -->
<g id="edge1_Node000001_Node000002" class="edge">
<title>Node2&#45;&gt;Node1</title>
<g id="a_edge1_Node000001_Node000002"><a xlink:title=" ">
<path fill="none" stroke="#63b8ff" d="M83,-66.91C83,-58.47 83,-49.1 83,-41.07"/>
<polygon fill="#63b8ff" stroke="#63b8ff" points="79.5,-66.94 83,-76.94 86.5,-66.94 79.5,-66.94"/>
</a>
</g>
</g>
<!-- Node3 -->
<g id="Node000003" class="node">
<title>Node3</title>
<g id="a_Node000003"><a xlink:href="classmpqc_1_1lcao_1_1_fock_builder.html" target="_top" xlink:title=" ">
<polygon fill="white" stroke="#666666" points="149.5,-173 16.5,-173 16.5,-143 149.5,-143 149.5,-173"/>
<text text-anchor="start" x="24.5" y="-161" font-family="FreeSans" font-size="10.00">mpqc::lcao::FockBuilder</text>
<text text-anchor="middle" x="83" y="-150" font-family="FreeSans" font-size="10.00">&lt; Tile, Policy &gt;</text>
</a>
</g>
</g>
<!-- Node3&#45;&gt;Node2 -->
<g id="edge2_Node000002_Node000003" class="edge">
<title>Node3&#45;&gt;Node2</title>
<g id="a_edge2_Node000002_Node000003"><a xlink:title=" ">
<path fill="none" stroke="#63b8ff" d="M83,-132.54C83,-123.96 83,-114.61 83,-107.16"/>
<polygon fill="#63b8ff" stroke="#63b8ff" points="79.5,-132.8 83,-142.8 86.5,-132.8 79.5,-132.8"/>
</a>
</g>
</g>
<!-- Node4 -->
<g id="Node000004" class="node">
<title>Node4</title>
<g id="a_Node000004"><a xlink:href="classmpqc_1_1_described_class.html" target="_top" xlink:title=" ">
<polygon fill="white" stroke="#666666" points="145.5,-228 20.5,-228 20.5,-209 145.5,-209 145.5,-228"/>
<text text-anchor="middle" x="83" y="-216" font-family="FreeSans" font-size="10.00">mpqc::DescribedClass</text>
</a>
</g>
</g>
<!-- Node4&#45;&gt;Node3 -->
<g id="edge3_Node000003_Node000004" class="edge">
<title>Node4&#45;&gt;Node3</title>
<g id="a_edge3_Node000003_Node000004"><a xlink:title=" ">
<path fill="none" stroke="#63b8ff" d="M83,-198.65C83,-190.36 83,-180.78 83,-173.11"/>
<polygon fill="#63b8ff" stroke="#63b8ff" points="79.5,-198.87 83,-208.87 86.5,-198.87 79.5,-198.87"/>
</a>
</g>
</g>
<!-- Node5 -->
<g id="Node000005" class="node">
<title>Node5</title>
<g id="a_Node000005"><a xlink:href="classmpqc_1_1enable__shared__from__this.html" target="_top" xlink:title=" ">
<polygon fill="white" stroke="#666666" points="166,-294 0,-294 0,-264 166,-264 166,-294"/>
<text text-anchor="start" x="8" y="-282" font-family="FreeSans" font-size="10.00">mpqc::enable_shared</text>
<text text-anchor="middle" x="83" y="-271" font-family="FreeSans" font-size="10.00">_from_this&lt; DescribedClass &gt;</text>
</a>
</g>
</g>
<!-- Node5&#45;&gt;Node4 -->
<g id="edge4_Node000004_Node000005" class="edge">
<title>Node5&#45;&gt;Node4</title>
<g id="a_edge4_Node000004_Node000005"><a xlink:title=" ">
<path fill="none" stroke="#63b8ff" d="M83,-253.75C83,-244.72 83,-235.03 83,-228.27"/>
<polygon fill="#63b8ff" stroke="#63b8ff" points="79.5,-253.84 83,-263.84 86.5,-253.84 79.5,-253.84"/>
</a>
</g>
</g>
<!-- Node6 -->
<g id="Node000006" class="node">
<title>Node6</title>
<g id="a_Node000006"><a xlink:href="classmpqc_1_1detail_1_1virt__base__of__enable__shared__from__this.html" target="_top" xlink:title="helper class for mpqc::enable_shared_from_this">
<polygon fill="white" stroke="#666666" points="151.5,-371 14.5,-371 14.5,-330 151.5,-330 151.5,-371"/>
<text text-anchor="start" x="22.5" y="-359" font-family="FreeSans" font-size="10.00">mpqc::detail::virt</text>
<text text-anchor="start" x="22.5" y="-348" font-family="FreeSans" font-size="10.00">_base_of_enable_shared</text>
<text text-anchor="middle" x="83" y="-337" font-family="FreeSans" font-size="10.00">_from_this</text>
</a>
</g>
</g>
<!-- Node6&#45;&gt;Node5 -->
<g id="edge5_Node000005_Node000006" class="edge">
<title>Node6&#45;&gt;Node5</title>
<g id="a_edge5_Node000005_Node000006"><a xlink:title=" ">
<path fill="none" stroke="#63b8ff" d="M83,-319.66C83,-310.76 83,-301.42 83,-294.04"/>
<polygon fill="#63b8ff" stroke="#63b8ff" points="79.5,-319.77 83,-329.77 86.5,-319.77 79.5,-319.77"/>
</a>
</g>
</g>
<!-- Node7 -->
<g id="Node000007" class="node">
<title>Node7</title>
<g id="a_Node000007"><a xlink:title=" ">
<polygon fill="white" stroke="#666666" points="151.5,-459 14.5,-459 14.5,-407 151.5,-407 151.5,-459"/>
<text text-anchor="start" x="22.5" y="-447" font-family="FreeSans" font-size="10.00">std::enable_shared</text>
<text text-anchor="start" x="22.5" y="-436" font-family="FreeSans" font-size="10.00">_from_this&lt; virt_base</text>
<text text-anchor="start" x="22.5" y="-425" font-family="FreeSans" font-size="10.00">_of_enable_shared_from</text>
<text text-anchor="middle" x="83" y="-414" font-family="FreeSans" font-size="10.00">_this &gt;</text>
</a>
</g>
</g>
<!-- Node7&#45;&gt;Node6 -->
<g id="edge6_Node000006_Node000007" class="edge">
<title>Node7&#45;&gt;Node6</title>
<g id="a_edge6_Node000006_Node000007"><a xlink:title=" ">
<path fill="none" stroke="#63b8ff" d="M83,-396.87C83,-388.05 83,-378.9 83,-371.15"/>
<polygon fill="#63b8ff" stroke="#63b8ff" points="79.5,-396.97 83,-406.97 86.5,-396.97 79.5,-396.97"/>
</a>
</g>
</g>
</g>
</svg>
