<?xml version="1.0" encoding="UTF-8" standalone="no"?>
<!DOCTYPE svg PUBLIC "-//W3C//DTD SVG 1.1//EN"
 "http://www.w3.org/Graphics/SVG/1.1/DTD/svg11.dtd">
<!-- Generated by graphviz version 2.43.0 (0)
 -->
<!-- Title: mpqc::UnitCell Pages: 1 -->
<svg width="950pt" height="86pt"
 viewBox="0.00 0.00 950.00 86.00" xmlns="http://www.w3.org/2000/svg" xmlns:xlink="http://www.w3.org/1999/xlink">
<g id="graph0" class="graph" transform="scale(1 1) rotate(0) translate(4 82)">
<title>mpqc::UnitCell</title>
<!-- Node1 -->
<g id="Node000001" class="node">
<title>Node1</title>
<g id="a_Node000001"><a xlink:title=" ">
<polygon fill="#999999" stroke="#666666" points="942,-47.5 853,-47.5 853,-28.5 942,-28.5 942,-47.5"/>
<text text-anchor="middle" x="897.5" y="-35.5" font-family="FreeSans" font-size="10.00">mpqc::UnitCell</text>
</a>
</g>
</g>
<!-- Node2 -->
<g id="Node000002" class="node">
<title>Node2</title>
<g id="a_Node000002"><a xlink:href="classmpqc_1_1_molecule.html" target="_top" xlink:title="Molecule is a class which contains a vector of AtomBasedClusterables.">
<polygon fill="white" stroke="#666666" points="817,-47.5 723,-47.5 723,-28.5 817,-28.5 817,-47.5"/>
<text text-anchor="middle" x="770" y="-35.5" font-family="FreeSans" font-size="10.00">mpqc::Molecule</text>
</a>
</g>
</g>
<!-- Node2&#45;&gt;Node1 -->
<g id="edge1_Node000001_Node000002" class="edge">
<title>Node2&#45;&gt;Node1</title>
<g id="a_edge1_Node000001_Node000002"><a xlink:title=" ">
<path fill="none" stroke="#63b8ff" d="M827.1,-38C835.78,-38 844.64,-38 852.99,-38"/>
<polygon fill="#63b8ff" stroke="#63b8ff" points="827.02,-34.5 817.02,-38 827.02,-41.5 827.02,-34.5"/>
</a>
</g>
</g>
<!-- Node3 -->
<g id="Node000003" class="node">
<title>Node3</title>
<g id="a_Node000003"><a xlink:href="classmpqc_1_1_described_class.html" target="_top" xlink:title=" ">
<polygon fill="white" stroke="#666666" points="680,-70.5 555,-70.5 555,-51.5 680,-51.5 680,-70.5"/>
<text text-anchor="middle" x="617.5" y="-58.5" font-family="FreeSans" font-size="10.00">mpqc::DescribedClass</text>
</a>
</g>
</g>
<!-- Node3&#45;&gt;Node2 -->
<g id="edge2_Node000002_Node000003" class="edge">
<title>Node3&#45;&gt;Node2</title>
<g id="a_edge2_Node000002_Node000003"><a xlink:title=" ">
<path fill="none" stroke="#63b8ff" d="M690.28,-50.03C701.37,-48.34 712.56,-46.63 722.89,-45.05"/>
<polygon fill="#63b8ff" stroke="#63b8ff" points="689.5,-46.61 680.15,-51.58 690.56,-53.53 689.5,-46.61"/>
</a>
</g>
</g>
<!-- Node4 -->
<g id="Node000004" class="node">
<title>Node4</title>
<g id="a_Node000004"><a xlink:href="classmpqc_1_1enable__shared__from__this.html" target="_top" xlink:title=" ">
<polygon fill="white" stroke="#666666" points="512,-78 346,-78 346,-48 512,-48 512,-78"/>
<text text-anchor="start" x="354" y="-66" font-family="FreeSans" font-size="10.00">mpqc::enable_shared</text>
<text text-anchor="middle" x="429" y="-55" font-family="FreeSans" font-size="10.00">_from_this&lt; DescribedClass &gt;</text>
</a>
</g>
</g>
<!-- Node4&#45;&gt;Node3 -->
<g id="edge3_Node000003_Node000004" class="edge">
<title>Node4&#45;&gt;Node3</title>
<g id="a_edge3_Node000003_Node000004"><a xlink:title=" ">
<path fill="none" stroke="#63b8ff" d="M522.22,-62.01C533.28,-61.89 544.37,-61.77 554.86,-61.66"/>
<polygon fill="#63b8ff" stroke="#63b8ff" points="522.03,-58.51 512.07,-62.12 522.11,-65.51 522.03,-58.51"/>
</a>
</g>
</g>
<!-- Node5 -->
<g id="Node000005" class="node">
<title>Node5</title>
<g id="a_Node000005"><a xlink:href="classmpqc_1_1detail_1_1virt__base__of__enable__shared__from__this.html" target="_top" xlink:title="helper class for mpqc::enable_shared_from_this">
<polygon fill="white" stroke="#666666" points="310,-59.5 173,-59.5 173,-18.5 310,-18.5 310,-59.5"/>
<text text-anchor="start" x="181" y="-47.5" font-family="FreeSans" font-size="10.00">mpqc::detail::virt</text>
<text text-anchor="start" x="181" y="-36.5" font-family="FreeSans" font-size="10.00">_base_of_enable_shared</text>
<text text-anchor="middle" x="241.5" y="-25.5" font-family="FreeSans" font-size="10.00">_from_this</text>
</a>
</g>
</g>
<!-- Node5&#45;&gt;Node4 -->
<g id="edge4_Node000004_Node000005" class="edge">
<title>Node5&#45;&gt;Node4</title>
<g id="a_edge4_Node000004_Node000005"><a xlink:title=" ">
<path fill="none" stroke="#63b8ff" d="M320.43,-49.08C328.86,-50.17 337.45,-51.28 345.92,-52.38"/>
<polygon fill="#63b8ff" stroke="#63b8ff" points="320.62,-45.58 310.26,-47.77 319.73,-52.52 320.62,-45.58"/>
</a>
</g>
</g>
<!-- Node8 -->
<g id="Node000008" class="node">
<title>Node8</title>
<g id="a_Node000008"><a xlink:href="classmpqc_1_1enable__shared__from__this.html" target="_top" xlink:title="just like std::enable_shared_from_this but can appear multiple times in the subhierarchy of a class">
<polygon fill="white" stroke="#666666" points="489.5,-30 368.5,-30 368.5,0 489.5,0 489.5,-30"/>
<text text-anchor="start" x="376.5" y="-18" font-family="FreeSans" font-size="10.00">mpqc::enable_shared</text>
<text text-anchor="middle" x="429" y="-7" font-family="FreeSans" font-size="10.00">_from_this&lt; T &gt;</text>
</a>
</g>
</g>
<!-- Node5&#45;&gt;Node8 -->
<g id="edge8_Node000008_Node000005" class="edge">
<title>Node5&#45;&gt;Node8</title>
<g id="a_edge8_Node000008_Node000005"><a xlink:title=" ">
<path fill="none" stroke="#63b8ff" d="M320.19,-28.95C336.31,-26.86 353.05,-24.7 368.39,-22.71"/>
<polygon fill="#63b8ff" stroke="#63b8ff" points="319.73,-25.48 310.26,-30.23 320.62,-32.42 319.73,-25.48"/>
</a>
</g>
</g>
<!-- Node6 -->
<g id="Node000006" class="node">
<title>Node6</title>
<g id="a_Node000006"><a xlink:title=" ">
<polygon fill="white" stroke="#666666" points="137,-65 0,-65 0,-13 137,-13 137,-65"/>
<text text-anchor="start" x="8" y="-53" font-family="FreeSans" font-size="10.00">std::enable_shared</text>
<text text-anchor="start" x="8" y="-42" font-family="FreeSans" font-size="10.00">_from_this&lt; virt_base</text>
<text text-anchor="start" x="8" y="-31" font-family="FreeSans" font-size="10.00">_of_enable_shared_from</text>
<text text-anchor="middle" x="68.5" y="-20" font-family="FreeSans" font-size="10.00">_this &gt;</text>
</a>
</g>
</g>
<!-- Node6&#45;&gt;Node5 -->
<g id="edge5_Node000005_Node000006" class="edge">
<title>Node6&#45;&gt;Node5</title>
<g id="a_edge5_Node000005_Node000006"><a xlink:title=" ">
<path fill="none" stroke="#63b8ff" d="M147.1,-39C155.69,-39 164.39,-39 172.85,-39"/>
<polygon fill="#63b8ff" stroke="#63b8ff" points="147.08,-35.5 137.08,-39 147.08,-42.5 147.08,-35.5"/>
</a>
</g>
</g>
<!-- Node7 -->
<g id="Node000007" class="node">
<title>Node7</title>
<g id="a_Node000007"><a xlink:href="classmpqc_1_1utility_1_1_observable.html" target="_top" xlink:title=" ">
<polygon fill="white" stroke="#666666" points="687,-32 548,-32 548,-2 687,-2 687,-32"/>
<text text-anchor="start" x="556" y="-20" font-family="FreeSans" font-size="10.00">mpqc::utility::Observable</text>
<text text-anchor="middle" x="617.5" y="-9" font-family="FreeSans" font-size="10.00">&lt; Molecule &gt;</text>
</a>
</g>
</g>
<!-- Node7&#45;&gt;Node2 -->
<g id="edge6_Node000002_Node000007" class="edge">
<title>Node7&#45;&gt;Node2</title>
<g id="a_edge6_Node000002_Node000007"><a xlink:title=" ">
<path fill="none" stroke="#63b8ff" d="M697.09,-27.97C705.9,-29.2 714.65,-30.42 722.85,-31.56"/>
<polygon fill="#63b8ff" stroke="#63b8ff" points="697.53,-24.49 687.14,-26.58 696.56,-31.43 697.53,-24.49"/>
</a>
</g>
</g>
<!-- Node8&#45;&gt;Node7 -->
<g id="edge7_Node000007_Node000008" class="edge">
<title>Node8&#45;&gt;Node7</title>
<g id="a_edge7_Node000007_Node000008"><a xlink:title=" ">
<path fill="none" stroke="#63b8ff" d="M499.7,-15.75C515.43,-15.92 532.11,-16.1 547.8,-16.26"/>
<polygon fill="#63b8ff" stroke="#63b8ff" points="499.56,-12.25 489.52,-15.64 499.48,-19.25 499.56,-12.25"/>
</a>
</g>
</g>
</g>
</svg>
