<?xml version="1.0" encoding="UTF-8" standalone="no"?>
<!DOCTYPE svg PUBLIC "-//W3C//DTD SVG 1.1//EN"
 "http://www.w3.org/Graphics/SVG/1.1/DTD/svg11.dtd">
<!-- Generated by graphviz version 2.43.0 (0)
 -->
<!-- Title: mpqc::FormulaRegistry&lt; Value &gt; Pages: 1 -->
<svg width="304pt" height="104pt"
 viewBox="0.00 0.00 304.00 104.00" xmlns="http://www.w3.org/2000/svg" xmlns:xlink="http://www.w3.org/1999/xlink">
<g id="graph0" class="graph" transform="scale(1 1) rotate(0) translate(4 100)">
<title>mpqc::FormulaRegistry&lt; Value &gt;</title>
<!-- Node1 -->
<g id="Node000001" class="node">
<title>Node1</title>
<g id="a_Node000001"><a xlink:title="map Formula to Value object">
<polygon fill="#999999" stroke="#666666" points="220,-30 90,-30 90,0 220,0 220,-30"/>
<text text-anchor="start" x="98" y="-18" font-family="FreeSans" font-size="10.00">mpqc::FormulaRegistry</text>
<text text-anchor="middle" x="155" y="-7" font-family="FreeSans" font-size="10.00">&lt; Value &gt;</text>
</a>
</g>
</g>
<!-- Node2 -->
<g id="Node000002" class="node">
<title>Node2</title>
<g id="a_Node000002"><a xlink:href="classmpqc_1_1_formula_registry_base.html" target="_top" xlink:title=" ">
<polygon fill="white" stroke="#666666" points="154,-90.5 0,-90.5 0,-71.5 154,-71.5 154,-90.5"/>
<text text-anchor="middle" x="77" y="-78.5" font-family="FreeSans" font-size="10.00">mpqc::FormulaRegistryBase</text>
</a>
</g>
</g>
<!-- Node2&#45;&gt;Node1 -->
<g id="edge1_Node000001_Node000002" class="edge">
<title>Node2&#45;&gt;Node1</title>
<g id="a_edge1_Node000001_Node000002"><a xlink:title=" ">
<path fill="none" stroke="#63b8ff" d="M95.26,-65.02C108.11,-54.48 125.19,-40.46 137.8,-30.12"/>
<polygon fill="#63b8ff" stroke="#63b8ff" points="93.03,-62.32 87.52,-71.37 97.47,-67.73 93.03,-62.32"/>
</a>
</g>
</g>
<!-- Node3 -->
<g id="Node000003" class="node">
<title>Node3</title>
<g id="a_Node000003"><a xlink:href="classmpqc_1_1utility_1_1_registry.html" target="_top" xlink:title=" ">
<polygon fill="white" stroke="#666666" points="296,-96 172,-96 172,-66 296,-66 296,-96"/>
<text text-anchor="start" x="180" y="-84" font-family="FreeSans" font-size="10.00">mpqc::utility::Registry</text>
<text text-anchor="middle" x="234" y="-73" font-family="FreeSans" font-size="10.00">&lt; Formula, Value &gt;</text>
</a>
</g>
</g>
<!-- Node3&#45;&gt;Node1 -->
<g id="edge2_Node000001_Node000003" class="edge">
<title>Node3&#45;&gt;Node1</title>
<g id="a_edge2_Node000001_Node000003"><a xlink:title=" ">
<path fill="none" stroke="#63b8ff" d="M208.67,-59.48C196.86,-49.91 183.11,-38.77 172.48,-30.16"/>
<polygon fill="#63b8ff" stroke="#63b8ff" points="206.49,-62.22 216.47,-65.8 210.9,-56.78 206.49,-62.22"/>
</a>
</g>
</g>
</g>
</svg>
