<?xml version="1.0" encoding="UTF-8" standalone="no"?>
<!DOCTYPE svg PUBLIC "-//W3C//DTD SVG 1.1//EN"
 "http://www.w3.org/Graphics/SVG/1.1/DTD/svg11.dtd">
<!-- Generated by graphviz version 2.43.0 (0)
 -->
<!-- Title: mpqc::lcao::gaussian::DirectDFIntegralBuilder&lt; Tile, Policy &gt; Pages: 1 -->
<svg width="168pt" height="291pt"
 viewBox="0.00 0.00 168.00 291.00" xmlns="http://www.w3.org/2000/svg" xmlns:xlink="http://www.w3.org/1999/xlink">
<g id="graph0" class="graph" transform="scale(1 1) rotate(0) translate(4 287)">
<title>mpqc::lcao::gaussian::DirectDFIntegralBuilder&lt; Tile, Policy &gt;</title>
<!-- Node1 -->
<g id="Node000001" class="node">
<title>Node1</title>
<g id="a_Node000001"><a xlink:title="DirectDFIntegralBuilder is a class that builds direct df tiles on the fly which can be composed by pr...">
<polygon fill="#999999" stroke="#666666" points="148.5,-41 11.5,-41 11.5,0 148.5,0 148.5,-41"/>
<text text-anchor="start" x="19.5" y="-29" font-family="FreeSans" font-size="10.00">mpqc::lcao::gaussian</text>
<text text-anchor="start" x="19.5" y="-18" font-family="FreeSans" font-size="10.00">::DirectDFIntegralBuilder</text>
<text text-anchor="middle" x="80" y="-7" font-family="FreeSans" font-size="10.00">&lt; Tile, Policy &gt;</text>
</a>
</g>
</g>
<!-- Node2 -->
<g id="Node000002" class="node">
<title>Node2</title>
<g id="a_Node000002"><a xlink:href="classmpqc_1_1enable__shared__from__this.html" target="_top" xlink:title=" ">
<polygon fill="white" stroke="#666666" points="160,-118 0,-118 0,-77 160,-77 160,-118"/>
<text text-anchor="start" x="8" y="-106" font-family="FreeSans" font-size="10.00">mpqc::enable_shared</text>
<text text-anchor="start" x="8" y="-95" font-family="FreeSans" font-size="10.00">_from_this&lt; DirectDFIntegral</text>
<text text-anchor="middle" x="80" y="-84" font-family="FreeSans" font-size="10.00">Builder&lt; Tile, Policy &gt; &gt;</text>
</a>
</g>
</g>
<!-- Node2&#45;&gt;Node1 -->
<g id="edge1_Node000001_Node000002" class="edge">
<title>Node2&#45;&gt;Node1</title>
<g id="a_edge1_Node000001_Node000002"><a xlink:title=" ">
<path fill="none" stroke="#63b8ff" d="M80,-66.69C80,-58.08 80,-48.9 80,-41.07"/>
<polygon fill="#63b8ff" stroke="#63b8ff" points="76.5,-66.79 80,-76.79 83.5,-66.79 76.5,-66.79"/>
</a>
</g>
</g>
<!-- Node3 -->
<g id="Node000003" class="node">
<title>Node3</title>
<g id="a_Node000003"><a xlink:href="classmpqc_1_1detail_1_1virt__base__of__enable__shared__from__this.html" target="_top" xlink:title="helper class for mpqc::enable_shared_from_this">
<polygon fill="white" stroke="#666666" points="148.5,-195 11.5,-195 11.5,-154 148.5,-154 148.5,-195"/>
<text text-anchor="start" x="19.5" y="-183" font-family="FreeSans" font-size="10.00">mpqc::detail::virt</text>
<text text-anchor="start" x="19.5" y="-172" font-family="FreeSans" font-size="10.00">_base_of_enable_shared</text>
<text text-anchor="middle" x="80" y="-161" font-family="FreeSans" font-size="10.00">_from_this</text>
</a>
</g>
</g>
<!-- Node3&#45;&gt;Node2 -->
<g id="edge2_Node000002_Node000003" class="edge">
<title>Node3&#45;&gt;Node2</title>
<g id="a_edge2_Node000002_Node000003"><a xlink:title=" ">
<path fill="none" stroke="#63b8ff" d="M80,-143.69C80,-135.08 80,-125.9 80,-118.07"/>
<polygon fill="#63b8ff" stroke="#63b8ff" points="76.5,-143.79 80,-153.79 83.5,-143.79 76.5,-143.79"/>
</a>
</g>
</g>
<!-- Node4 -->
<g id="Node000004" class="node">
<title>Node4</title>
<g id="a_Node000004"><a xlink:title=" ">
<polygon fill="white" stroke="#666666" points="148.5,-283 11.5,-283 11.5,-231 148.5,-231 148.5,-283"/>
<text text-anchor="start" x="19.5" y="-271" font-family="FreeSans" font-size="10.00">std::enable_shared</text>
<text text-anchor="start" x="19.5" y="-260" font-family="FreeSans" font-size="10.00">_from_this&lt; virt_base</text>
<text text-anchor="start" x="19.5" y="-249" font-family="FreeSans" font-size="10.00">_of_enable_shared_from</text>
<text text-anchor="middle" x="80" y="-238" font-family="FreeSans" font-size="10.00">_this &gt;</text>
</a>
</g>
</g>
<!-- Node4&#45;&gt;Node3 -->
<g id="edge3_Node000003_Node000004" class="edge">
<title>Node4&#45;&gt;Node3</title>
<g id="a_edge3_Node000003_Node000004"><a xlink:title=" ">
<path fill="none" stroke="#63b8ff" d="M80,-220.87C80,-212.05 80,-202.9 80,-195.15"/>
<polygon fill="#63b8ff" stroke="#63b8ff" points="76.5,-220.97 80,-230.97 83.5,-220.97 76.5,-220.97"/>
</a>
</g>
</g>
</g>
</svg>
