<?xml version="1.0" encoding="UTF-8" standalone="no"?>
<!DOCTYPE svg PUBLIC "-//W3C//DTD SVG 1.1//EN"
 "http://www.w3.org/Graphics/SVG/1.1/DTD/svg11.dtd">
<!-- Generated by graphviz version 2.43.0 (0)
 -->
<!-- Title: mpqc::enable_shared_from_this&lt; T &gt; Pages: 1 -->
<svg width="145pt" height="203pt"
 viewBox="0.00 0.00 145.00 203.00" xmlns="http://www.w3.org/2000/svg" xmlns:xlink="http://www.w3.org/1999/xlink">
<g id="graph0" class="graph" transform="scale(1 1) rotate(0) translate(4 199)">
<title>mpqc::enable_shared_from_this&lt; T &gt;</title>
<!-- Node1 -->
<g id="Node000001" class="node">
<title>Node1</title>
<g id="a_Node000001"><a xlink:title="just like std::enable_shared_from_this but can appear multiple times in the subhierarchy of a class">
<polygon fill="#999999" stroke="#666666" points="129,-30 8,-30 8,0 129,0 129,-30"/>
<text text-anchor="start" x="16" y="-18" font-family="FreeSans" font-size="10.00">mpqc::enable_shared</text>
<text text-anchor="middle" x="68.5" y="-7" font-family="FreeSans" font-size="10.00">_from_this&lt; T &gt;</text>
</a>
</g>
</g>
<!-- Node2 -->
<g id="Node000002" class="node">
<title>Node2</title>
<g id="a_Node000002"><a xlink:href="classmpqc_1_1detail_1_1virt__base__of__enable__shared__from__this.html" target="_top" xlink:title="helper class for mpqc::enable_shared_from_this">
<polygon fill="white" stroke="#666666" points="137,-107 0,-107 0,-66 137,-66 137,-107"/>
<text text-anchor="start" x="8" y="-95" font-family="FreeSans" font-size="10.00">mpqc::detail::virt</text>
<text text-anchor="start" x="8" y="-84" font-family="FreeSans" font-size="10.00">_base_of_enable_shared</text>
<text text-anchor="middle" x="68.5" y="-73" font-family="FreeSans" font-size="10.00">_from_this</text>
</a>
</g>
</g>
<!-- Node2&#45;&gt;Node1 -->
<g id="edge1_Node000001_Node000002" class="edge">
<title>Node2&#45;&gt;Node1</title>
<g id="a_edge1_Node000001_Node000002"><a xlink:title=" ">
<path fill="none" stroke="#63b8ff" d="M68.5,-55.66C68.5,-46.76 68.5,-37.42 68.5,-30.04"/>
<polygon fill="#63b8ff" stroke="#63b8ff" points="65,-55.77 68.5,-65.77 72,-55.77 65,-55.77"/>
</a>
</g>
</g>
<!-- Node3 -->
<g id="Node000003" class="node">
<title>Node3</title>
<g id="a_Node000003"><a xlink:title=" ">
<polygon fill="white" stroke="#666666" points="137,-195 0,-195 0,-143 137,-143 137,-195"/>
<text text-anchor="start" x="8" y="-183" font-family="FreeSans" font-size="10.00">std::enable_shared</text>
<text text-anchor="start" x="8" y="-172" font-family="FreeSans" font-size="10.00">_from_this&lt; virt_base</text>
<text text-anchor="start" x="8" y="-161" font-family="FreeSans" font-size="10.00">_of_enable_shared_from</text>
<text text-anchor="middle" x="68.5" y="-150" font-family="FreeSans" font-size="10.00">_this &gt;</text>
</a>
</g>
</g>
<!-- Node3&#45;&gt;Node2 -->
<g id="edge2_Node000002_Node000003" class="edge">
<title>Node3&#45;&gt;Node2</title>
<g id="a_edge2_Node000002_Node000003"><a xlink:title=" ">
<path fill="none" stroke="#63b8ff" d="M68.5,-132.87C68.5,-124.05 68.5,-114.9 68.5,-107.15"/>
<polygon fill="#63b8ff" stroke="#63b8ff" points="65,-132.97 68.5,-142.97 72,-132.97 65,-132.97"/>
</a>
</g>
</g>
</g>
</svg>
