<?xml version="1.0" encoding="UTF-8" standalone="no"?>
<!DOCTYPE svg PUBLIC "-//W3C//DTD SVG 1.1//EN"
 "http://www.w3.org/Graphics/SVG/1.1/DTD/svg11.dtd">
<!-- Generated by graphviz version 2.43.0 (0)
 -->
<!-- Title: mpqc::lcao::JacobiOrbitalLocalizer&lt; Tile, Policy, Minimizer &gt; Pages: 1 -->
<svg width="174pt" height="401pt"
 viewBox="0.00 0.00 174.00 401.00" xmlns="http://www.w3.org/2000/svg" xmlns:xlink="http://www.w3.org/1999/xlink">
<g id="graph0" class="graph" transform="scale(1 1) rotate(0) translate(4 397)">
<title>mpqc::lcao::JacobiOrbitalLocalizer&lt; Tile, Policy, Minimizer &gt;</title>
<!-- Node1 -->
<g id="Node000001" class="node">
<title>Node1</title>
<g id="a_Node000001"><a xlink:title="Implements Jacobi&#45;based spread minimizer.">
<polygon fill="#999999" stroke="#666666" points="152,-41 14,-41 14,0 152,0 152,-41"/>
<text text-anchor="start" x="22" y="-29" font-family="FreeSans" font-size="10.00">mpqc::lcao::JacobiOrbital</text>
<text text-anchor="start" x="22" y="-18" font-family="FreeSans" font-size="10.00">Localizer&lt; Tile, Policy,</text>
<text text-anchor="middle" x="83" y="-7" font-family="FreeSans" font-size="10.00"> Minimizer &gt;</text>
</a>
</g>
</g>
<!-- Node2 -->
<g id="Node000002" class="node">
<title>Node2</title>
<g id="a_Node000002"><a xlink:href="classmpqc_1_1lcao_1_1_orbital_localizer.html" target="_top" xlink:title="Localizes orbitals using LCAO&#45;specific info (e.g. AO&#45;basis operators)">
<polygon fill="white" stroke="#666666" points="159,-107 7,-107 7,-77 159,-77 159,-107"/>
<text text-anchor="start" x="15" y="-95" font-family="FreeSans" font-size="10.00">mpqc::lcao::OrbitalLocalizer</text>
<text text-anchor="middle" x="83" y="-84" font-family="FreeSans" font-size="10.00">&lt; Tile, Policy &gt;</text>
</a>
</g>
</g>
<!-- Node2&#45;&gt;Node1 -->
<g id="edge1_Node000001_Node000002" class="edge">
<title>Node2&#45;&gt;Node1</title>
<g id="a_edge1_Node000001_Node000002"><a xlink:title=" ">
<path fill="none" stroke="#63b8ff" d="M83,-66.91C83,-58.47 83,-49.1 83,-41.07"/>
<polygon fill="#63b8ff" stroke="#63b8ff" points="79.5,-66.94 83,-76.94 86.5,-66.94 79.5,-66.94"/>
</a>
</g>
</g>
<!-- Node3 -->
<g id="Node000003" class="node">
<title>Node3</title>
<g id="a_Node000003"><a xlink:href="classmpqc_1_1_described_class.html" target="_top" xlink:title=" ">
<polygon fill="white" stroke="#666666" points="145.5,-162 20.5,-162 20.5,-143 145.5,-143 145.5,-162"/>
<text text-anchor="middle" x="83" y="-150" font-family="FreeSans" font-size="10.00">mpqc::DescribedClass</text>
</a>
</g>
</g>
<!-- Node3&#45;&gt;Node2 -->
<g id="edge2_Node000002_Node000003" class="edge">
<title>Node3&#45;&gt;Node2</title>
<g id="a_edge2_Node000002_Node000003"><a xlink:title=" ">
<path fill="none" stroke="#63b8ff" d="M83,-132.65C83,-124.36 83,-114.78 83,-107.11"/>
<polygon fill="#63b8ff" stroke="#63b8ff" points="79.5,-132.87 83,-142.87 86.5,-132.87 79.5,-132.87"/>
</a>
</g>
</g>
<!-- Node4 -->
<g id="Node000004" class="node">
<title>Node4</title>
<g id="a_Node000004"><a xlink:href="classmpqc_1_1enable__shared__from__this.html" target="_top" xlink:title=" ">
<polygon fill="white" stroke="#666666" points="166,-228 0,-228 0,-198 166,-198 166,-228"/>
<text text-anchor="start" x="8" y="-216" font-family="FreeSans" font-size="10.00">mpqc::enable_shared</text>
<text text-anchor="middle" x="83" y="-205" font-family="FreeSans" font-size="10.00">_from_this&lt; DescribedClass &gt;</text>
</a>
</g>
</g>
<!-- Node4&#45;&gt;Node3 -->
<g id="edge3_Node000003_Node000004" class="edge">
<title>Node4&#45;&gt;Node3</title>
<g id="a_edge3_Node000003_Node000004"><a xlink:title=" ">
<path fill="none" stroke="#63b8ff" d="M83,-187.75C83,-178.72 83,-169.03 83,-162.27"/>
<polygon fill="#63b8ff" stroke="#63b8ff" points="79.5,-187.84 83,-197.84 86.5,-187.84 79.5,-187.84"/>
</a>
</g>
</g>
<!-- Node5 -->
<g id="Node000005" class="node">
<title>Node5</title>
<g id="a_Node000005"><a xlink:href="classmpqc_1_1detail_1_1virt__base__of__enable__shared__from__this.html" target="_top" xlink:title="helper class for mpqc::enable_shared_from_this">
<polygon fill="white" stroke="#666666" points="151.5,-305 14.5,-305 14.5,-264 151.5,-264 151.5,-305"/>
<text text-anchor="start" x="22.5" y="-293" font-family="FreeSans" font-size="10.00">mpqc::detail::virt</text>
<text text-anchor="start" x="22.5" y="-282" font-family="FreeSans" font-size="10.00">_base_of_enable_shared</text>
<text text-anchor="middle" x="83" y="-271" font-family="FreeSans" font-size="10.00">_from_this</text>
</a>
</g>
</g>
<!-- Node5&#45;&gt;Node4 -->
<g id="edge4_Node000004_Node000005" class="edge">
<title>Node5&#45;&gt;Node4</title>
<g id="a_edge4_Node000004_Node000005"><a xlink:title=" ">
<path fill="none" stroke="#63b8ff" d="M83,-253.66C83,-244.76 83,-235.42 83,-228.04"/>
<polygon fill="#63b8ff" stroke="#63b8ff" points="79.5,-253.77 83,-263.77 86.5,-253.77 79.5,-253.77"/>
</a>
</g>
</g>
<!-- Node6 -->
<g id="Node000006" class="node">
<title>Node6</title>
<g id="a_Node000006"><a xlink:title=" ">
<polygon fill="white" stroke="#666666" points="151.5,-393 14.5,-393 14.5,-341 151.5,-341 151.5,-393"/>
<text text-anchor="start" x="22.5" y="-381" font-family="FreeSans" font-size="10.00">std::enable_shared</text>
<text text-anchor="start" x="22.5" y="-370" font-family="FreeSans" font-size="10.00">_from_this&lt; virt_base</text>
<text text-anchor="start" x="22.5" y="-359" font-family="FreeSans" font-size="10.00">_of_enable_shared_from</text>
<text text-anchor="middle" x="83" y="-348" font-family="FreeSans" font-size="10.00">_this &gt;</text>
</a>
</g>
</g>
<!-- Node6&#45;&gt;Node5 -->
<g id="edge5_Node000005_Node000006" class="edge">
<title>Node6&#45;&gt;Node5</title>
<g id="a_edge5_Node000005_Node000006"><a xlink:title=" ">
<path fill="none" stroke="#63b8ff" d="M83,-330.87C83,-322.05 83,-312.9 83,-305.15"/>
<polygon fill="#63b8ff" stroke="#63b8ff" points="79.5,-330.97 83,-340.97 86.5,-330.97 79.5,-330.97"/>
</a>
</g>
</g>
</g>
</svg>
