<?xml version="1.0" encoding="UTF-8" standalone="no"?>
<!DOCTYPE svg PUBLIC "-//W3C//DTD SVG 1.1//EN"
 "http://www.w3.org/Graphics/SVG/1.1/DTD/svg11.dtd">
<!-- Generated by graphviz version 2.43.0 (0)
 -->
<!-- Title: mpqc::math::FiniteDifferenceDerivative&lt; Order, Value, Parameters &gt; Pages: 1 -->
<svg width="919pt" height="109pt"
 viewBox="0.00 0.00 919.00 108.50" xmlns="http://www.w3.org/2000/svg" xmlns:xlink="http://www.w3.org/1999/xlink">
<g id="graph0" class="graph" transform="scale(1 1) rotate(0) translate(4 104.5)">
<title>mpqc::math::FiniteDifferenceDerivative&lt; Order, Value, Parameters &gt;</title>
<!-- Node1 -->
<g id="Node000001" class="node">
<title>Node1</title>
<g id="a_Node000001"><a xlink:title=" ">
<polygon fill="#999999" stroke="#666666" points="911,-72.5 753,-72.5 753,-31.5 911,-31.5 911,-72.5"/>
<text text-anchor="start" x="761" y="-60.5" font-family="FreeSans" font-size="10.00">mpqc::math::FiniteDifference</text>
<text text-anchor="start" x="761" y="-49.5" font-family="FreeSans" font-size="10.00">Derivative&lt; Order, Value,</text>
<text text-anchor="middle" x="832" y="-38.5" font-family="FreeSans" font-size="10.00"> Parameters &gt;</text>
</a>
</g>
</g>
<!-- Node2 -->
<g id="Node000002" class="node">
<title>Node2</title>
<g id="a_Node000002"><a xlink:href="classmpqc_1_1math_1_1_taylor_expansion_function.html" target="_top" xlink:title=" ">
<polygon fill="white" stroke="#666666" points="717,-92 548,-92 548,-62 717,-62 717,-92"/>
<text text-anchor="start" x="556" y="-80" font-family="FreeSans" font-size="10.00">mpqc::math::TaylorExpansion</text>
<text text-anchor="middle" x="632.5" y="-69" font-family="FreeSans" font-size="10.00">Function&lt; Value, Parameters &gt;</text>
</a>
</g>
</g>
<!-- Node2&#45;&gt;Node1 -->
<g id="edge1_Node000001_Node000002" class="edge">
<title>Node2&#45;&gt;Node1</title>
<g id="a_edge1_Node000001_Node000002"><a xlink:title=" ">
<path fill="none" stroke="#63b8ff" d="M727.25,-65.13C735.79,-64.05 744.38,-62.96 752.77,-61.9"/>
<polygon fill="#63b8ff" stroke="#63b8ff" points="726.74,-61.67 717.26,-66.4 727.62,-68.61 726.74,-61.67"/>
</a>
</g>
</g>
<!-- Node3 -->
<g id="Node000003" class="node">
<title>Node3</title>
<g id="a_Node000003"><a xlink:href="classmpqc_1_1math_1_1_function.html" target="_top" xlink:title=" ">
<polygon fill="white" stroke="#666666" points="511.5,-100.5 346.5,-100.5 346.5,-59.5 511.5,-59.5 511.5,-100.5"/>
<text text-anchor="start" x="354.5" y="-88.5" font-family="FreeSans" font-size="10.00">mpqc::math::Function</text>
<text text-anchor="start" x="354.5" y="-77.5" font-family="FreeSans" font-size="10.00">&lt; TaylorExpansionCoefficients</text>
<text text-anchor="middle" x="429" y="-66.5" font-family="FreeSans" font-size="10.00">&lt; Value &gt;, Parameters &gt;</text>
</a>
</g>
</g>
<!-- Node3&#45;&gt;Node2 -->
<g id="edge2_Node000002_Node000003" class="edge">
<title>Node3&#45;&gt;Node2</title>
<g id="a_edge2_Node000002_Node000003"><a xlink:title=" ">
<path fill="none" stroke="#63b8ff" d="M521.77,-78.63C530.43,-78.5 539.17,-78.37 547.75,-78.25"/>
<polygon fill="#63b8ff" stroke="#63b8ff" points="521.61,-75.14 511.67,-78.78 521.72,-82.13 521.61,-75.14"/>
</a>
</g>
</g>
<!-- Node4 -->
<g id="Node000004" class="node">
<title>Node4</title>
<g id="a_Node000004"><a xlink:href="classmpqc_1_1_described_class.html" target="_top" xlink:title=" ">
<polygon fill="white" stroke="#666666" points="695,-40.5 570,-40.5 570,-21.5 695,-21.5 695,-40.5"/>
<text text-anchor="middle" x="632.5" y="-28.5" font-family="FreeSans" font-size="10.00">mpqc::DescribedClass</text>
</a>
</g>
</g>
<!-- Node4&#45;&gt;Node1 -->
<g id="edge3_Node000001_Node000004" class="edge">
<title>Node4&#45;&gt;Node1</title>
<g id="a_edge3_Node000001_Node000004"><a xlink:title=" ">
<path fill="none" stroke="#63b8ff" d="M705.17,-38.62C720.62,-40.26 737.03,-42.01 752.71,-43.68"/>
<polygon fill="#63b8ff" stroke="#63b8ff" points="705.49,-35.14 695.18,-37.56 704.75,-42.1 705.49,-35.14"/>
</a>
</g>
</g>
<!-- Node5 -->
<g id="Node000005" class="node">
<title>Node5</title>
<g id="a_Node000005"><a xlink:href="classmpqc_1_1enable__shared__from__this.html" target="_top" xlink:title=" ">
<polygon fill="white" stroke="#666666" points="512,-41 346,-41 346,-11 512,-11 512,-41"/>
<text text-anchor="start" x="354" y="-29" font-family="FreeSans" font-size="10.00">mpqc::enable_shared</text>
<text text-anchor="middle" x="429" y="-18" font-family="FreeSans" font-size="10.00">_from_this&lt; DescribedClass &gt;</text>
</a>
</g>
</g>
<!-- Node5&#45;&gt;Node4 -->
<g id="edge4_Node000004_Node000005" class="edge">
<title>Node5&#45;&gt;Node4</title>
<g id="a_edge4_Node000004_Node000005"><a xlink:title=" ">
<path fill="none" stroke="#63b8ff" d="M522.25,-28.29C538.39,-28.69 554.83,-29.1 569.89,-29.47"/>
<polygon fill="#63b8ff" stroke="#63b8ff" points="522.33,-24.79 512.25,-28.04 522.16,-31.79 522.33,-24.79"/>
</a>
</g>
</g>
<!-- Node6 -->
<g id="Node000006" class="node">
<title>Node6</title>
<g id="a_Node000006"><a xlink:href="classmpqc_1_1detail_1_1virt__base__of__enable__shared__from__this.html" target="_top" xlink:title="helper class for mpqc::enable_shared_from_this">
<polygon fill="white" stroke="#666666" points="310,-46.5 173,-46.5 173,-5.5 310,-5.5 310,-46.5"/>
<text text-anchor="start" x="181" y="-34.5" font-family="FreeSans" font-size="10.00">mpqc::detail::virt</text>
<text text-anchor="start" x="181" y="-23.5" font-family="FreeSans" font-size="10.00">_base_of_enable_shared</text>
<text text-anchor="middle" x="241.5" y="-12.5" font-family="FreeSans" font-size="10.00">_from_this</text>
</a>
</g>
</g>
<!-- Node6&#45;&gt;Node5 -->
<g id="edge5_Node000005_Node000006" class="edge">
<title>Node6&#45;&gt;Node5</title>
<g id="a_edge5_Node000005_Node000006"><a xlink:title=" ">
<path fill="none" stroke="#63b8ff" d="M320.43,-26C328.86,-26 337.45,-26 345.92,-26"/>
<polygon fill="#63b8ff" stroke="#63b8ff" points="320.26,-22.5 310.26,-26 320.26,-29.5 320.26,-22.5"/>
</a>
</g>
</g>
<!-- Node7 -->
<g id="Node000007" class="node">
<title>Node7</title>
<g id="a_Node000007"><a xlink:title=" ">
<polygon fill="white" stroke="#666666" points="137,-52 0,-52 0,0 137,0 137,-52"/>
<text text-anchor="start" x="8" y="-40" font-family="FreeSans" font-size="10.00">std::enable_shared</text>
<text text-anchor="start" x="8" y="-29" font-family="FreeSans" font-size="10.00">_from_this&lt; virt_base</text>
<text text-anchor="start" x="8" y="-18" font-family="FreeSans" font-size="10.00">_of_enable_shared_from</text>
<text text-anchor="middle" x="68.5" y="-7" font-family="FreeSans" font-size="10.00">_this &gt;</text>
</a>
</g>
</g>
<!-- Node7&#45;&gt;Node6 -->
<g id="edge6_Node000006_Node000007" class="edge">
<title>Node7&#45;&gt;Node6</title>
<g id="a_edge6_Node000006_Node000007"><a xlink:title=" ">
<path fill="none" stroke="#63b8ff" d="M147.1,-26C155.69,-26 164.39,-26 172.85,-26"/>
<polygon fill="#63b8ff" stroke="#63b8ff" points="147.08,-22.5 137.08,-26 147.08,-29.5 147.08,-22.5"/>
</a>
</g>
</g>
</g>
</svg>
