<?xml version="1.0" encoding="UTF-8" standalone="no"?>
<!DOCTYPE svg PUBLIC "-//W3C//DTD SVG 1.1//EN"
 "http://www.w3.org/Graphics/SVG/1.1/DTD/svg11.dtd">
<!-- Generated by graphviz version 2.43.0 (0)
 -->
<!-- Title: mpqc::lcao::FockBuilder&lt; Tile, Policy &gt; Pages: 1 -->
<svg width="174pt" height="324pt"
 viewBox="0.00 0.00 174.00 324.00" xmlns="http://www.w3.org/2000/svg" xmlns:xlink="http://www.w3.org/1999/xlink">
<g id="graph0" class="graph" transform="scale(1 1) rotate(0) translate(4 320)">
<title>mpqc::lcao::FockBuilder&lt; Tile, Policy &gt;</title>
<!-- Node1 -->
<g id="Node000001" class="node">
<title>Node1</title>
<g id="a_Node000001"><a xlink:title=" ">
<polygon fill="#999999" stroke="#666666" points="149.5,-30 16.5,-30 16.5,0 149.5,0 149.5,-30"/>
<text text-anchor="start" x="24.5" y="-18" font-family="FreeSans" font-size="10.00">mpqc::lcao::FockBuilder</text>
<text text-anchor="middle" x="83" y="-7" font-family="FreeSans" font-size="10.00">&lt; Tile, Policy &gt;</text>
</a>
</g>
</g>
<!-- Node2 -->
<g id="Node000002" class="node">
<title>Node2</title>
<g id="a_Node000002"><a xlink:href="classmpqc_1_1_described_class.html" target="_top" xlink:title=" ">
<polygon fill="white" stroke="#666666" points="145.5,-85 20.5,-85 20.5,-66 145.5,-66 145.5,-85"/>
<text text-anchor="middle" x="83" y="-73" font-family="FreeSans" font-size="10.00">mpqc::DescribedClass</text>
</a>
</g>
</g>
<!-- Node2&#45;&gt;Node1 -->
<g id="edge1_Node000001_Node000002" class="edge">
<title>Node2&#45;&gt;Node1</title>
<g id="a_edge1_Node000001_Node000002"><a xlink:title=" ">
<path fill="none" stroke="#63b8ff" d="M83,-55.65C83,-47.36 83,-37.78 83,-30.11"/>
<polygon fill="#63b8ff" stroke="#63b8ff" points="79.5,-55.87 83,-65.87 86.5,-55.87 79.5,-55.87"/>
</a>
</g>
</g>
<!-- Node3 -->
<g id="Node000003" class="node">
<title>Node3</title>
<g id="a_Node000003"><a xlink:href="classmpqc_1_1enable__shared__from__this.html" target="_top" xlink:title=" ">
<polygon fill="white" stroke="#666666" points="166,-151 0,-151 0,-121 166,-121 166,-151"/>
<text text-anchor="start" x="8" y="-139" font-family="FreeSans" font-size="10.00">mpqc::enable_shared</text>
<text text-anchor="middle" x="83" y="-128" font-family="FreeSans" font-size="10.00">_from_this&lt; DescribedClass &gt;</text>
</a>
</g>
</g>
<!-- Node3&#45;&gt;Node2 -->
<g id="edge2_Node000002_Node000003" class="edge">
<title>Node3&#45;&gt;Node2</title>
<g id="a_edge2_Node000002_Node000003"><a xlink:title=" ">
<path fill="none" stroke="#63b8ff" d="M83,-110.75C83,-101.72 83,-92.03 83,-85.27"/>
<polygon fill="#63b8ff" stroke="#63b8ff" points="79.5,-110.84 83,-120.84 86.5,-110.84 79.5,-110.84"/>
</a>
</g>
</g>
<!-- Node4 -->
<g id="Node000004" class="node">
<title>Node4</title>
<g id="a_Node000004"><a xlink:href="classmpqc_1_1detail_1_1virt__base__of__enable__shared__from__this.html" target="_top" xlink:title="helper class for mpqc::enable_shared_from_this">
<polygon fill="white" stroke="#666666" points="151.5,-228 14.5,-228 14.5,-187 151.5,-187 151.5,-228"/>
<text text-anchor="start" x="22.5" y="-216" font-family="FreeSans" font-size="10.00">mpqc::detail::virt</text>
<text text-anchor="start" x="22.5" y="-205" font-family="FreeSans" font-size="10.00">_base_of_enable_shared</text>
<text text-anchor="middle" x="83" y="-194" font-family="FreeSans" font-size="10.00">_from_this</text>
</a>
</g>
</g>
<!-- Node4&#45;&gt;Node3 -->
<g id="edge3_Node000003_Node000004" class="edge">
<title>Node4&#45;&gt;Node3</title>
<g id="a_edge3_Node000003_Node000004"><a xlink:title=" ">
<path fill="none" stroke="#63b8ff" d="M83,-176.66C83,-167.76 83,-158.42 83,-151.04"/>
<polygon fill="#63b8ff" stroke="#63b8ff" points="79.5,-176.77 83,-186.77 86.5,-176.77 79.5,-176.77"/>
</a>
</g>
</g>
<!-- Node5 -->
<g id="Node000005" class="node">
<title>Node5</title>
<g id="a_Node000005"><a xlink:title=" ">
<polygon fill="white" stroke="#666666" points="151.5,-316 14.5,-316 14.5,-264 151.5,-264 151.5,-316"/>
<text text-anchor="start" x="22.5" y="-304" font-family="FreeSans" font-size="10.00">std::enable_shared</text>
<text text-anchor="start" x="22.5" y="-293" font-family="FreeSans" font-size="10.00">_from_this&lt; virt_base</text>
<text text-anchor="start" x="22.5" y="-282" font-family="FreeSans" font-size="10.00">_of_enable_shared_from</text>
<text text-anchor="middle" x="83" y="-271" font-family="FreeSans" font-size="10.00">_this &gt;</text>
</a>
</g>
</g>
<!-- Node5&#45;&gt;Node4 -->
<g id="edge4_Node000004_Node000005" class="edge">
<title>Node5&#45;&gt;Node4</title>
<g id="a_edge4_Node000004_Node000005"><a xlink:title=" ">
<path fill="none" stroke="#63b8ff" d="M83,-253.87C83,-245.05 83,-235.9 83,-228.15"/>
<polygon fill="#63b8ff" stroke="#63b8ff" points="79.5,-253.97 83,-263.97 86.5,-253.97 79.5,-253.97"/>
</a>
</g>
</g>
</g>
</svg>
