<?xml version="1.0" encoding="UTF-8" standalone="no"?>
<!DOCTYPE svg PUBLIC "-//W3C//DTD SVG 1.1//EN"
 "http://www.w3.org/Graphics/SVG/1.1/DTD/svg11.dtd">
<!-- Generated by graphviz version 2.43.0 (0)
 -->
<!-- Title: mpqc::lcao::gaussian::MADF Pages: 1 -->
<svg width="460pt" height="434pt"
 viewBox="0.00 0.00 459.50 434.00" xmlns="http://www.w3.org/2000/svg" xmlns:xlink="http://www.w3.org/1999/xlink">

<svg id="main" version="1.1" xmlns="http://www.w3.org/2000/svg" xmlns:xlink="http://www.w3.org/1999/xlink" xml:space="preserve" onload="init(evt)">
<style type="text/css"><![CDATA[
.node, .edge {opacity: 0.7;}
.node.selected, .edge.selected {opacity: 1;}
.edge:hover path { stroke: red; }
.edge:hover polygon { stroke: red; fill: red; }
]]></style>
<script type="application/ecmascript" xlink:href="svg.min.js"/>
<svg id="graph" class="graph">
<g id="graph0" class="graph" transform="scale(1 1) rotate(0) translate(4 430)">
<title>mpqc::lcao::gaussian::MADF</title>
<!-- Node1 -->
<g id="Node000001" class="node">
<title>Node1</title>
<g id="a_Node000001"><a xlink:title=" ">
<polygon fill="#999999" stroke="#666666" points="307.5,-30 188.5,-30 188.5,0 307.5,0 307.5,-30"/>
<text text-anchor="start" x="196.5" y="-18" font-family="FreeSans" font-size="10.00">mpqc::lcao::gaussian</text>
<text text-anchor="middle" x="248" y="-7" font-family="FreeSans" font-size="10.00">::MADF</text>
</a>
</g>
</g>
<!-- Node2 -->
<g id="Node000002" class="node">
<title>Node2</title>
<g id="a_Node000002"><a xlink:href="classmpqc_1_1_described_class.html" target="_top" xlink:title=" ">
<polygon fill="white" stroke="#666666" points="278.5,-195 153.5,-195 153.5,-176 278.5,-176 278.5,-195"/>
<text text-anchor="middle" x="216" y="-183" font-family="FreeSans" font-size="10.00">mpqc::DescribedClass</text>
</a>
</g>
</g>
<!-- Node2&#45;&gt;Node1 -->
<g id="edge1_Node000001_Node000002" class="edge">
<title>Node2&#45;&gt;Node1</title>
<g id="a_edge1_Node000001_Node000002"><a xlink:title=" ">
<path fill="none" stroke="#63b8ff" d="M221.45,-165.98C223.68,-158.03 226.15,-148.61 228,-140 236.47,-100.56 243.15,-53.37 246.19,-30.22"/>
<polygon fill="#63b8ff" stroke="#63b8ff" points="218.06,-165.12 218.66,-175.7 224.79,-167.06 218.06,-165.12"/>
</a>
</g>
</g>
<!-- Node7 -->
<g id="Node000007" class="node">
<title>Node7</title>
<g id="a_Node000007"><a xlink:href="classmpqc_1_1_task.html" target="_top" xlink:title=" ">
<polygon fill="white" stroke="#666666" points="219.5,-140 148.5,-140 148.5,-121 219.5,-121 219.5,-140"/>
<text text-anchor="middle" x="184" y="-128" font-family="FreeSans" font-size="10.00">mpqc::Task</text>
</a>
</g>
</g>
<!-- Node2&#45;&gt;Node7 -->
<g id="edge7_Node000007_Node000002" class="edge">
<title>Node2&#45;&gt;Node7</title>
<g id="a_edge7_Node000007_Node000002"><a xlink:title=" ">
<path fill="none" stroke="#63b8ff" d="M205.5,-167.1C200.03,-158.04 193.58,-147.37 189.19,-140.09"/>
<polygon fill="#63b8ff" stroke="#63b8ff" points="202.55,-169 210.72,-175.75 208.54,-165.38 202.55,-169"/>
</a>
</g>
</g>
<!-- Node3 -->
<g id="Node000003" class="node">
<title>Node3</title>
<g id="a_Node000003"><a xlink:href="classmpqc_1_1enable__shared__from__this.html" target="_top" xlink:title=" ">
<polygon fill="white" stroke="#666666" points="299,-261 133,-261 133,-231 299,-231 299,-261"/>
<text text-anchor="start" x="141" y="-249" font-family="FreeSans" font-size="10.00">mpqc::enable_shared</text>
<text text-anchor="middle" x="216" y="-238" font-family="FreeSans" font-size="10.00">_from_this&lt; DescribedClass &gt;</text>
</a>
</g>
</g>
<!-- Node3&#45;&gt;Node2 -->
<g id="edge2_Node000002_Node000003" class="edge">
<title>Node3&#45;&gt;Node2</title>
<g id="a_edge2_Node000002_Node000003"><a xlink:title=" ">
<path fill="none" stroke="#63b8ff" d="M216,-220.75C216,-211.72 216,-202.03 216,-195.27"/>
<polygon fill="#63b8ff" stroke="#63b8ff" points="212.5,-220.84 216,-230.84 219.5,-220.84 212.5,-220.84"/>
</a>
</g>
</g>
<!-- Node4 -->
<g id="Node000004" class="node">
<title>Node4</title>
<g id="a_Node000004"><a xlink:href="classmpqc_1_1detail_1_1virt__base__of__enable__shared__from__this.html" target="_top" xlink:title="helper class for mpqc::enable_shared_from_this">
<polygon fill="white" stroke="#666666" points="284.5,-338 147.5,-338 147.5,-297 284.5,-297 284.5,-338"/>
<text text-anchor="start" x="155.5" y="-326" font-family="FreeSans" font-size="10.00">mpqc::detail::virt</text>
<text text-anchor="start" x="155.5" y="-315" font-family="FreeSans" font-size="10.00">_base_of_enable_shared</text>
<text text-anchor="middle" x="216" y="-304" font-family="FreeSans" font-size="10.00">_from_this</text>
</a>
</g>
</g>
<!-- Node4&#45;&gt;Node3 -->
<g id="edge3_Node000003_Node000004" class="edge">
<title>Node4&#45;&gt;Node3</title>
<g id="a_edge3_Node000003_Node000004"><a xlink:title=" ">
<path fill="none" stroke="#63b8ff" d="M216,-286.66C216,-277.76 216,-268.42 216,-261.04"/>
<polygon fill="#63b8ff" stroke="#63b8ff" points="212.5,-286.77 216,-296.77 219.5,-286.77 212.5,-286.77"/>
</a>
</g>
</g>
<!-- Node5 -->
<g id="Node000005" class="node">
<title>Node5</title>
<g id="a_Node000005"><a xlink:title=" ">
<polygon fill="white" stroke="#666666" points="284.5,-426 147.5,-426 147.5,-374 284.5,-374 284.5,-426"/>
<text text-anchor="start" x="155.5" y="-414" font-family="FreeSans" font-size="10.00">std::enable_shared</text>
<text text-anchor="start" x="155.5" y="-403" font-family="FreeSans" font-size="10.00">_from_this&lt; virt_base</text>
<text text-anchor="start" x="155.5" y="-392" font-family="FreeSans" font-size="10.00">_of_enable_shared_from</text>
<text text-anchor="middle" x="216" y="-381" font-family="FreeSans" font-size="10.00">_this &gt;</text>
</a>
</g>
</g>
<!-- Node5&#45;&gt;Node4 -->
<g id="edge4_Node000004_Node000005" class="edge">
<title>Node5&#45;&gt;Node4</title>
<g id="a_edge4_Node000004_Node000005"><a xlink:title=" ">
<path fill="none" stroke="#63b8ff" d="M216,-363.87C216,-355.05 216,-345.9 216,-338.15"/>
<polygon fill="#63b8ff" stroke="#63b8ff" points="212.5,-363.97 216,-373.97 219.5,-363.97 212.5,-363.97"/>
</a>
</g>
</g>
<!-- Node6 -->
<g id="Node000006" class="node">
<title>Node6</title>
<g id="a_Node000006"><a xlink:href="classmpqc_1_1_property.html" target="_top" xlink:title="An abstract property that can be computed by MPQC as a Task.">
<polygon fill="white" stroke="#666666" points="219.5,-85 128.5,-85 128.5,-66 219.5,-66 219.5,-85"/>
<text text-anchor="middle" x="174" y="-73" font-family="FreeSans" font-size="10.00">mpqc::Property</text>
</a>
</g>
</g>
<!-- Node6&#45;&gt;Node1 -->
<g id="edge5_Node000001_Node000006" class="edge">
<title>Node6&#45;&gt;Node1</title>
<g id="a_edge5_Node000001_Node000006"><a xlink:title=" ">
<path fill="none" stroke="#63b8ff" d="M192.97,-59.5C204.42,-50.45 218.91,-39 230.15,-30.11"/>
<polygon fill="#63b8ff" stroke="#63b8ff" points="190.59,-56.92 184.92,-65.87 194.93,-62.41 190.59,-56.92"/>
</a>
</g>
</g>
<!-- Node7&#45;&gt;Node6 -->
<g id="edge6_Node000006_Node000007" class="edge">
<title>Node7&#45;&gt;Node6</title>
<g id="a_edge6_Node000006_Node000007"><a xlink:title=" ">
<path fill="none" stroke="#63b8ff" d="M180.45,-110.66C178.8,-101.93 176.92,-91.99 175.62,-85.09"/>
<polygon fill="#63b8ff" stroke="#63b8ff" points="177.06,-111.57 182.35,-120.75 183.93,-110.27 177.06,-111.57"/>
</a>
</g>
</g>
<!-- Node8 -->
<g id="Node000008" class="node">
<title>Node8</title>
<g id="a_Node000008"><a xlink:href="classmpqc_1_1_key_val_1_1_writable.html" target="_top" xlink:title="base class for objects that can write themselves to a KeyVal">
<polygon fill="white" stroke="#666666" points="130,-140 0,-140 0,-121 130,-121 130,-140"/>
<text text-anchor="middle" x="65" y="-128" font-family="FreeSans" font-size="10.00">mpqc::KeyVal::Writable</text>
</a>
</g>
</g>
<!-- Node8&#45;&gt;Node6 -->
<g id="edge8_Node000006_Node000008" class="edge">
<title>Node8&#45;&gt;Node6</title>
<g id="a_edge8_Node000006_Node000008"><a xlink:title=" ">
<path fill="none" stroke="#63b8ff" d="M91.73,-116.5C111.79,-106.75 138.68,-93.68 156.17,-85.17"/>
<polygon fill="#63b8ff" stroke="#63b8ff" points="89.98,-113.46 82.51,-120.98 93.04,-119.76 89.98,-113.46"/>
</a>
</g>
</g>
<!-- Node9 -->
<g id="Node000009" class="node">
<title>Node9</title>
<g id="a_Node000009"><a xlink:href="classmpqc_1_1_provides.html" target="_top" xlink:title=" ">
<polygon fill="white" stroke="#666666" points="451.5,-85 276.5,-85 276.5,-66 451.5,-66 451.5,-85"/>
<text text-anchor="middle" x="364" y="-73" font-family="FreeSans" font-size="10.00">mpqc::Provides&lt; AtomicBasis &gt;</text>
</a>
</g>
</g>
<!-- Node9&#45;&gt;Node1 -->
<g id="edge9_Node000001_Node000009" class="edge">
<title>Node9&#45;&gt;Node1</title>
<g id="a_edge9_Node000001_Node000009"><a xlink:title=" ">
<path fill="none" stroke="#63b8ff" d="M337.88,-61.33C319.46,-52.04 294.81,-39.61 275.99,-30.11"/>
<polygon fill="#63b8ff" stroke="#63b8ff" points="336.38,-64.49 346.88,-65.87 339.53,-58.24 336.38,-64.49"/>
</a>
</g>
</g>
</g>
</svg>
</svg>

<style type='text/css'>
<![CDATA[
[data-mouse-over-selected='false'] { opacity: 0.7; }
[data-mouse-over-selected='true']  { opacity: 1.0; }
]]>
</style>
<script type="application/ecmascript"><![CDATA[
document.addEventListener('DOMContentLoaded', (event) => {
  highlightEdges();
  highlightAdjacentNodes();
});
]]></script>
</svg>
