<?xml version="1.0" encoding="UTF-8" standalone="no"?>
<!DOCTYPE svg PUBLIC "-//W3C//DTD SVG 1.1//EN"
 "http://www.w3.org/Graphics/SVG/1.1/DTD/svg11.dtd">
<!-- Generated by graphviz version 2.43.0 (0)
 -->
<!-- Title: mpqc::lcao::PaoPnoRMP2&lt; T, P &gt; Pages: 1 -->
<svg width="1395pt" height="128pt"
 viewBox="0.00 0.00 1395.00 127.50" xmlns="http://www.w3.org/2000/svg" xmlns:xlink="http://www.w3.org/1999/xlink">
<g id="graph0" class="graph" transform="scale(1 1) rotate(0) translate(4 123.5)">
<title>mpqc::lcao::PaoPnoRMP2&lt; T, P &gt;</title>
<!-- Node1 -->
<g id="Node000001" class="node">
<title>Node1</title>
<g id="a_Node000001"><a xlink:title="PNO MP2 in PAO basis (with OSV as optional intermediate basis)">
<polygon fill="#999999" stroke="#666666" points="1387,-62.5 1248,-62.5 1248,-32.5 1387,-32.5 1387,-62.5"/>
<text text-anchor="start" x="1256" y="-50.5" font-family="FreeSans" font-size="10.00">mpqc::lcao::PaoPnoRMP2</text>
<text text-anchor="middle" x="1317.5" y="-39.5" font-family="FreeSans" font-size="10.00">&lt; T, P &gt;</text>
</a>
</g>
</g>
<!-- Node2 -->
<g id="Node000002" class="node">
<title>Node2</title>
<g id="a_Node000002"><a xlink:href="classmpqc_1_1lcao_1_1_l_c_a_o_wavefunction.html" target="_top" xlink:title=" ">
<polygon fill="white" stroke="#666666" points="1212,-89.5 1043,-89.5 1043,-59.5 1212,-59.5 1212,-89.5"/>
<text text-anchor="start" x="1051" y="-77.5" font-family="FreeSans" font-size="10.00">mpqc::lcao::LCAOWavefunction</text>
<text text-anchor="middle" x="1127.5" y="-66.5" font-family="FreeSans" font-size="10.00">&lt; T, P &gt;</text>
</a>
</g>
</g>
<!-- Node2&#45;&gt;Node1 -->
<g id="edge1_Node000001_Node000002" class="edge">
<title>Node2&#45;&gt;Node1</title>
<g id="a_edge1_Node000001_Node000002"><a xlink:title=" ">
<path fill="none" stroke="#63b8ff" d="M1222.19,-61.05C1230.83,-59.8 1239.48,-58.56 1247.84,-57.36"/>
<polygon fill="#63b8ff" stroke="#63b8ff" points="1221.46,-57.61 1212.05,-62.5 1222.45,-64.54 1221.46,-57.61"/>
</a>
</g>
</g>
<!-- Node3 -->
<g id="Node000003" class="node">
<title>Node3</title>
<g id="a_Node000003"><a xlink:href="classmpqc_1_1lcao_1_1_wavefunction.html" target="_top" xlink:title=" ">
<polygon fill="white" stroke="#666666" points="1007,-84 864,-84 864,-65 1007,-65 1007,-84"/>
<text text-anchor="middle" x="935.5" y="-72" font-family="FreeSans" font-size="10.00">mpqc::lcao::Wavefunction</text>
</a>
</g>
</g>
<!-- Node3&#45;&gt;Node2 -->
<g id="edge2_Node000002_Node000003" class="edge">
<title>Node3&#45;&gt;Node2</title>
<g id="a_edge2_Node000002_Node000003"><a xlink:title=" ">
<path fill="none" stroke="#63b8ff" d="M1017.42,-74.5C1025.84,-74.5 1034.41,-74.5 1042.86,-74.5"/>
<polygon fill="#63b8ff" stroke="#63b8ff" points="1017.25,-71 1007.25,-74.5 1017.25,-78 1017.25,-71"/>
</a>
</g>
</g>
<!-- Node4 -->
<g id="Node000004" class="node">
<title>Node4</title>
<g id="a_Node000004"><a xlink:href="classmpqc_1_1_wavefunction.html" target="_top" xlink:title=" ">
<polygon fill="white" stroke="#666666" points="828,-84 712,-84 712,-65 828,-65 828,-84"/>
<text text-anchor="middle" x="770" y="-72" font-family="FreeSans" font-size="10.00">mpqc::Wavefunction</text>
</a>
</g>
</g>
<!-- Node4&#45;&gt;Node3 -->
<g id="edge3_Node000003_Node000004" class="edge">
<title>Node4&#45;&gt;Node3</title>
<g id="a_edge3_Node000003_Node000004"><a xlink:title=" ">
<path fill="none" stroke="#63b8ff" d="M838.32,-74.5C846.74,-74.5 855.36,-74.5 863.83,-74.5"/>
<polygon fill="#63b8ff" stroke="#63b8ff" points="838.18,-71 828.18,-74.5 838.18,-78 838.18,-71"/>
</a>
</g>
</g>
<!-- Node5 -->
<g id="Node000005" class="node">
<title>Node5</title>
<g id="a_Node000005"><a xlink:href="classmpqc_1_1_described_class.html" target="_top" xlink:title=" ">
<polygon fill="white" stroke="#666666" points="674.5,-103 549.5,-103 549.5,-84 674.5,-84 674.5,-103"/>
<text text-anchor="middle" x="612" y="-91" font-family="FreeSans" font-size="10.00">mpqc::DescribedClass</text>
</a>
</g>
</g>
<!-- Node5&#45;&gt;Node4 -->
<g id="edge4_Node000004_Node000005" class="edge">
<title>Node5&#45;&gt;Node4</title>
<g id="a_edge4_Node000004_Node000005"><a xlink:title=" ">
<path fill="none" stroke="#63b8ff" d="M684.82,-84.75C693.88,-83.65 703.06,-82.53 711.85,-81.46"/>
<polygon fill="#63b8ff" stroke="#63b8ff" points="684.16,-81.31 674.66,-85.99 685.01,-88.26 684.16,-81.31"/>
</a>
</g>
</g>
<!-- Node6 -->
<g id="Node000006" class="node">
<title>Node6</title>
<g id="a_Node000006"><a xlink:href="classmpqc_1_1enable__shared__from__this.html" target="_top" xlink:title=" ">
<polygon fill="white" stroke="#666666" points="512,-108.5 346,-108.5 346,-78.5 512,-78.5 512,-108.5"/>
<text text-anchor="start" x="354" y="-96.5" font-family="FreeSans" font-size="10.00">mpqc::enable_shared</text>
<text text-anchor="middle" x="429" y="-85.5" font-family="FreeSans" font-size="10.00">_from_this&lt; DescribedClass &gt;</text>
</a>
</g>
</g>
<!-- Node6&#45;&gt;Node5 -->
<g id="edge5_Node000005_Node000006" class="edge">
<title>Node6&#45;&gt;Node5</title>
<g id="a_edge5_Node000005_Node000006"><a xlink:title=" ">
<path fill="none" stroke="#63b8ff" d="M522.04,-93.5C531.28,-93.5 540.5,-93.5 549.31,-93.5"/>
<polygon fill="#63b8ff" stroke="#63b8ff" points="522.03,-90 512.03,-93.5 522.03,-97 522.03,-90"/>
</a>
</g>
</g>
<!-- Node7 -->
<g id="Node000007" class="node">
<title>Node7</title>
<g id="a_Node000007"><a xlink:href="classmpqc_1_1detail_1_1virt__base__of__enable__shared__from__this.html" target="_top" xlink:title="helper class for mpqc::enable_shared_from_this">
<polygon fill="white" stroke="#666666" points="310,-114 173,-114 173,-73 310,-73 310,-114"/>
<text text-anchor="start" x="181" y="-102" font-family="FreeSans" font-size="10.00">mpqc::detail::virt</text>
<text text-anchor="start" x="181" y="-91" font-family="FreeSans" font-size="10.00">_base_of_enable_shared</text>
<text text-anchor="middle" x="241.5" y="-80" font-family="FreeSans" font-size="10.00">_from_this</text>
</a>
</g>
</g>
<!-- Node7&#45;&gt;Node6 -->
<g id="edge6_Node000006_Node000007" class="edge">
<title>Node7&#45;&gt;Node6</title>
<g id="a_edge6_Node000006_Node000007"><a xlink:title=" ">
<path fill="none" stroke="#63b8ff" d="M320.43,-93.5C328.86,-93.5 337.45,-93.5 345.92,-93.5"/>
<polygon fill="#63b8ff" stroke="#63b8ff" points="320.26,-90 310.26,-93.5 320.26,-97 320.26,-90"/>
</a>
</g>
</g>
<!-- Node8 -->
<g id="Node000008" class="node">
<title>Node8</title>
<g id="a_Node000008"><a xlink:title=" ">
<polygon fill="white" stroke="#666666" points="137,-119.5 0,-119.5 0,-67.5 137,-67.5 137,-119.5"/>
<text text-anchor="start" x="8" y="-107.5" font-family="FreeSans" font-size="10.00">std::enable_shared</text>
<text text-anchor="start" x="8" y="-96.5" font-family="FreeSans" font-size="10.00">_from_this&lt; virt_base</text>
<text text-anchor="start" x="8" y="-85.5" font-family="FreeSans" font-size="10.00">_of_enable_shared_from</text>
<text text-anchor="middle" x="68.5" y="-74.5" font-family="FreeSans" font-size="10.00">_this &gt;</text>
</a>
</g>
</g>
<!-- Node8&#45;&gt;Node7 -->
<g id="edge7_Node000007_Node000008" class="edge">
<title>Node8&#45;&gt;Node7</title>
<g id="a_edge7_Node000007_Node000008"><a xlink:title=" ">
<path fill="none" stroke="#63b8ff" d="M147.1,-93.5C155.69,-93.5 164.39,-93.5 172.85,-93.5"/>
<polygon fill="#63b8ff" stroke="#63b8ff" points="147.08,-90 137.08,-93.5 147.08,-97 147.08,-90"/>
</a>
</g>
</g>
<!-- Node9 -->
<g id="Node000009" class="node">
<title>Node9</title>
<g id="a_Node000009"><a xlink:href="classmpqc_1_1utility_1_1_observer.html" target="_top" xlink:title="helps to set up messaging between objects via the Observer pattern">
<polygon fill="white" stroke="#666666" points="676,-66 548,-66 548,-47 676,-47 676,-66"/>
<text text-anchor="middle" x="612" y="-54" font-family="FreeSans" font-size="10.00">mpqc::utility::Observer</text>
</a>
</g>
</g>
<!-- Node9&#45;&gt;Node4 -->
<g id="edge8_Node000004_Node000009" class="edge">
<title>Node9&#45;&gt;Node4</title>
<g id="a_edge8_Node000004_Node000009"><a xlink:title=" ">
<path fill="none" stroke="#63b8ff" d="M686.08,-64.93C694.72,-65.93 703.43,-66.93 711.81,-67.9"/>
<polygon fill="#63b8ff" stroke="#63b8ff" points="686.34,-61.44 676,-63.77 685.53,-68.39 686.34,-61.44"/>
</a>
</g>
</g>
<!-- Node10 -->
<g id="Node000010" class="node">
<title>Node10</title>
<g id="a_Node000010"><a xlink:href="classmpqc_1_1_provides.html" target="_top" xlink:title=" ">
<polygon fill="white" stroke="#666666" points="1197.5,-41 1057.5,-41 1057.5,0 1197.5,0 1197.5,-41"/>
<text text-anchor="start" x="1065.5" y="-29" font-family="FreeSans" font-size="10.00">mpqc::Provides&lt; Energy,</text>
<text text-anchor="start" x="1065.5" y="-18" font-family="FreeSans" font-size="10.00"> CSV&lt; TA::detail::value</text>
<text text-anchor="middle" x="1127.5" y="-7" font-family="FreeSans" font-size="10.00">_t&lt; T &gt;, P &gt; &gt;</text>
</a>
</g>
</g>
<!-- Node10&#45;&gt;Node1 -->
<g id="edge9_Node000001_Node000010" class="edge">
<title>Node10&#45;&gt;Node1</title>
<g id="a_edge9_Node000001_Node000010"><a xlink:title=" ">
<path fill="none" stroke="#63b8ff" d="M1207.77,-31.88C1221.06,-33.79 1234.76,-35.76 1247.76,-37.63"/>
<polygon fill="#63b8ff" stroke="#63b8ff" points="1208.1,-28.4 1197.7,-30.44 1207.1,-35.32 1208.1,-28.4"/>
</a>
</g>
</g>
</g>
</svg>
