<?xml version="1.0" encoding="UTF-8" standalone="no"?>
<!DOCTYPE svg PUBLIC "-//W3C//DTD SVG 1.1//EN"
 "http://www.w3.org/Graphics/SVG/1.1/DTD/svg11.dtd">
<!-- Generated by graphviz version 2.43.0 (0)
 -->
<!-- Title: mpqc::lcao::gaussian::BasisRegistry Pages: 1 -->
<svg width="132pt" height="159pt"
 viewBox="0.00 0.00 132.00 159.00" xmlns="http://www.w3.org/2000/svg" xmlns:xlink="http://www.w3.org/1999/xlink">
<g id="graph0" class="graph" transform="scale(1 1) rotate(0) translate(4 155)">
<title>mpqc::lcao::gaussian::BasisRegistry</title>
<!-- Node1 -->
<g id="Node000001" class="node">
<title>Node1</title>
<g id="a_Node000001"><a xlink:title=" ">
<polygon fill="#999999" stroke="#666666" points="121.5,-30 2.5,-30 2.5,0 121.5,0 121.5,-30"/>
<text text-anchor="start" x="10.5" y="-18" font-family="FreeSans" font-size="10.00">mpqc::lcao::gaussian</text>
<text text-anchor="middle" x="62" y="-7" font-family="FreeSans" font-size="10.00">::BasisRegistry</text>
</a>
</g>
</g>
<!-- Node2 -->
<g id="Node000002" class="node">
<title>Node2</title>
<g id="a_Node000002"><a xlink:href="classmpqc_1_1_s_p_registry.html" target="_top" xlink:title="map SPIndex to Value object">
<polygon fill="white" stroke="#666666" points="117,-85 7,-85 7,-66 117,-66 117,-85"/>
<text text-anchor="middle" x="62" y="-73" font-family="FreeSans" font-size="10.00">lcao::BasisRegistry</text>
</a>
</g>
</g>
<!-- Node2&#45;&gt;Node1 -->
<g id="edge1_Node000001_Node000002" class="edge">
<title>Node2&#45;&gt;Node1</title>
<g id="a_edge1_Node000001_Node000002"><a xlink:title=" ">
<path fill="none" stroke="#63b8ff" d="M62,-55.65C62,-47.36 62,-37.78 62,-30.11"/>
<polygon fill="#63b8ff" stroke="#63b8ff" points="58.5,-55.87 62,-65.87 65.5,-55.87 58.5,-55.87"/>
</a>
</g>
</g>
<!-- Node3 -->
<g id="Node000003" class="node">
<title>Node3</title>
<g id="a_Node000003"><a xlink:href="classmpqc_1_1utility_1_1_registry.html" target="_top" xlink:title=" ">
<polygon fill="white" stroke="#666666" points="124,-151 0,-151 0,-121 124,-121 124,-151"/>
<text text-anchor="start" x="8" y="-139" font-family="FreeSans" font-size="10.00">mpqc::utility::Registry</text>
<text text-anchor="middle" x="62" y="-128" font-family="FreeSans" font-size="10.00">&lt; SPIndex, Value &gt;</text>
</a>
</g>
</g>
<!-- Node3&#45;&gt;Node2 -->
<g id="edge2_Node000002_Node000003" class="edge">
<title>Node3&#45;&gt;Node2</title>
<g id="a_edge2_Node000002_Node000003"><a xlink:title=" ">
<path fill="none" stroke="#63b8ff" d="M62,-110.75C62,-101.72 62,-92.03 62,-85.27"/>
<polygon fill="#63b8ff" stroke="#63b8ff" points="58.5,-110.84 62,-120.84 65.5,-110.84 58.5,-110.84"/>
</a>
</g>
</g>
</g>
</svg>
