<?xml version="1.0" encoding="UTF-8" standalone="no"?>
<!DOCTYPE svg PUBLIC "-//W3C//DTD SVG 1.1//EN"
 "http://www.w3.org/Graphics/SVG/1.1/DTD/svg11.dtd">
<!-- Generated by graphviz version 2.43.0 (0)
 -->
<!-- Title: mpqc::lcao::pbc::gaussian::AOFactory&lt; Tile, Policy &gt; Pages: 1 -->
<!--zoomable 240 -->

<svg id="main" version="1.1" xmlns="http://www.w3.org/2000/svg" xmlns:xlink="http://www.w3.org/1999/xlink" xml:space="preserve" onload="init(evt)">
<style type="text/css"><![CDATA[
.node, .edge {opacity: 0.7;}
.node.selected, .edge.selected {opacity: 1;}
.edge:hover path { stroke: red; }
.edge:hover polygon { stroke: red; fill: red; }
]]></style>

<defs>
  <circle id="rim" cx="0" cy="0" r="7"/>
  <circle id="rim2" cx="0" cy="0" r="3.5"/>
  <g id="zoomPlus">
    <use xlink:href="#rim" fill="#404040"><set attributeName="fill" to="#808080" begin="zoomplus.mouseover" end="zoomplus.mouseout"/></use>
    <path d="M-4,0h8M0,-4v8" fill="none" stroke="white" stroke-width="1.5" pointer-events="none"/>
  </g>
  <g id="zoomMin">
    <use xlink:href="#rim" fill="#404040"><set attributeName="fill" to="#808080" begin="zoomminus.mouseover" end="zoomminus.mouseout"/></use>
    <path d="M-4,0h8" fill="none" stroke="white" stroke-width="1.5" pointer-events="none"/>
  </g>
  <g id="arrowUp" transform="translate(30 24)">
    <use xlink:href="#rim"/>
    <path pointer-events="none" fill="none" stroke="white" stroke-width="1.5" d="M0,-3.0v7 M-2.5,-0.5L0,-3.0L2.5,-0.5"/>
  </g>
  <g id="arrowRight" transform="rotate(90) translate(36 -43)">
    <use xlink:href="#rim"/>
    <path pointer-events="none" fill="none" stroke="white" stroke-width="1.5" d="M0,-3.0v7 M-2.5,-0.5L0,-3.0L2.5,-0.5"/>
  </g>
  <g id="arrowDown" transform="rotate(180) translate(-30 -48)">
    <use xlink:href="#rim"/>
    <path pointer-events="none" fill="none" stroke="white" stroke-width="1.5" d="M0,-3.0v7 M-2.5,-0.5L0,-3.0L2.5,-0.5"/>
  </g>
  <g id="arrowLeft" transform="rotate(270) translate(-36 17)">
    <use xlink:href="#rim"/>
    <path pointer-events="none" fill="none" stroke="white" stroke-width="1.5" d="M0,-3.0v7 M-2.5,-0.5L0,-3.0L2.5,-0.5"/>
  </g>
  <g id="resetDef">
    <use xlink:href="#rim2" fill="#404040"><set attributeName="fill" to="#808080" begin="reset.mouseover" end="reset.mouseout"/></use>
  </g>
</defs>
<script type="application/ecmascript">
var viewWidth = 1611;
var viewHeight = 240;
var sectionId = 'dynsection-0';
</script>
<script type="application/ecmascript" xlink:href="svg.min.js"/>
<svg id="graph" class="graph">
<g id="viewport">
<title>mpqc::lcao::pbc::gaussian::AOFactory&lt; Tile, Policy &gt;</title>
<!-- Node1 -->
<g id="Node000001" class="node">
<title>Node1</title>
<g id="a_Node000001"><a xlink:title="Bloch&#45;AO Integral Factory.">
<polygon fill="#999999" stroke="#666666" points="1603,-197 1455,-197 1455,-167 1603,-167 1603,-197"/>
<text text-anchor="start" x="1463" y="-185" font-family="FreeSans" font-size="10.00">mpqc::lcao::pbc::gaussian</text>
<text text-anchor="middle" x="1529" y="-174" font-family="FreeSans" font-size="10.00">::AOFactory&lt; Tile, Policy &gt;</text>
</a>
</g>
</g>
<!-- Node2 -->
<g id="Node000002" class="node">
<title>Node2</title>
<g id="a_Node000002"><a xlink:href="classmpqc_1_1lcao_1_1pbc_1_1_a_o_factory.html" target="_top" xlink:title="implementation base for AOFactory">
<polygon fill="white" stroke="#666666" points="1418,-175 1269,-175 1269,-145 1418,-145 1418,-175"/>
<text text-anchor="start" x="1277" y="-163" font-family="FreeSans" font-size="10.00">mpqc::lcao::pbc::AOFactory</text>
<text text-anchor="middle" x="1343.5" y="-152" font-family="FreeSans" font-size="10.00">&lt; Tile, Policy &gt;</text>
</a>
</g>
</g>
<!-- Node2&#45;&gt;Node1 -->
<g id="edge1_Node000001_Node000002" class="edge">
<title>Node2&#45;&gt;Node1</title>
<g id="a_edge1_Node000001_Node000002"><a xlink:title=" ">
<path fill="none" stroke="#63b8ff" d="M1428.06,-170.02C1436.95,-171.08 1445.94,-172.16 1454.7,-173.21"/>
<polygon fill="#63b8ff" stroke="#63b8ff" points="1428.42,-166.54 1418.08,-168.82 1427.59,-173.49 1428.42,-166.54"/>
</a>
</g>
</g>
<!-- Node3 -->
<g id="Node000003" class="node">
<title>Node3</title>
<g id="a_Node000003"><a xlink:title=" ">
<polygon fill="white" stroke="#666666" points="1114,-174.5 987,-174.5 987,-133.5 1114,-133.5 1114,-174.5"/>
<text text-anchor="start" x="995" y="-162.5" font-family="FreeSans" font-size="10.00">mpqc::lcao::Factory</text>
<text text-anchor="start" x="995" y="-151.5" font-family="FreeSans" font-size="10.00">::OrbitalFactoryBase</text>
<text text-anchor="middle" x="1050.5" y="-140.5" font-family="FreeSans" font-size="10.00">&lt; Array, DirectArray &gt;</text>
</a>
</g>
</g>
<!-- Node3&#45;&gt;Node2 -->
<g id="edge2_Node000002_Node000003" class="edge">
<title>Node3&#45;&gt;Node2</title>
<g id="a_edge2_Node000002_Node000003"><a xlink:title=" ">
<path fill="none" stroke="#63b8ff" d="M1124.36,-155.5C1168.45,-156.41 1224.52,-157.57 1268.77,-158.48"/>
<polygon fill="#63b8ff" stroke="#63b8ff" points="1124.35,-152 1114.28,-155.29 1124.21,-159 1124.35,-152"/>
</a>
</g>
</g>
<!-- Node4 -->
<g id="Node000004" class="node">
<title>Node4</title>
<g id="a_Node000004"><a xlink:href="classmpqc_1_1lcao_1_1_factory.html" target="_top" xlink:title="Abstract integral factory.">
<polygon fill="white" stroke="#666666" points="862.5,-214.5 751.5,-214.5 751.5,-195.5 862.5,-195.5 862.5,-214.5"/>
<text text-anchor="middle" x="807" y="-202.5" font-family="FreeSans" font-size="10.00">mpqc::lcao::Factory</text>
</a>
</g>
</g>
<!-- Node4&#45;&gt;Node3 -->
<g id="edge3_Node000003_Node000004" class="edge">
<title>Node4&#45;&gt;Node3</title>
<g id="a_edge3_Node000003_Node000004"><a xlink:title=" ">
<path fill="none" stroke="#63b8ff" d="M863.2,-193.34C900.03,-185.56 948.54,-175.32 986.82,-167.24"/>
<polygon fill="#63b8ff" stroke="#63b8ff" points="862.2,-189.98 853.14,-195.47 863.65,-196.83 862.2,-189.98"/>
</a>
</g>
</g>
<!-- Node16 -->
<g id="Node000016" class="node">
<title>Node16</title>
<g id="a_Node000016"><a xlink:href="classmpqc_1_1lcao_1_1gaussian_1_1_gaussian_factory.html" target="_top" xlink:title=" ">
<polygon fill="white" stroke="#666666" points="1251,-219 1132,-219 1132,-189 1251,-189 1251,-219"/>
<text text-anchor="start" x="1140" y="-207" font-family="FreeSans" font-size="10.00">mpqc::lcao::gaussian</text>
<text text-anchor="middle" x="1191.5" y="-196" font-family="FreeSans" font-size="10.00">::GaussianFactory</text>
</a>
</g>
</g>
<!-- Node4&#45;&gt;Node16 -->
<g id="edge18_Node000016_Node000004" class="edge">
<title>Node4&#45;&gt;Node16</title>
<g id="a_edge18_Node000016_Node000004"><a xlink:title=" ">
<path fill="none" stroke="#63b8ff" d="M873.18,-204.83C945.71,-204.64 1061.88,-204.34 1131.72,-204.15"/>
<polygon fill="#63b8ff" stroke="#63b8ff" points="872.79,-201.33 862.8,-204.86 872.81,-208.33 872.79,-201.33"/>
</a>
</g>
</g>
<!-- Node5 -->
<g id="Node000005" class="node">
<title>Node5</title>
<g id="a_Node000005"><a xlink:href="classmpqc_1_1_described_class.html" target="_top" xlink:title=" ">
<polygon fill="white" stroke="#666666" points="690.5,-215.5 565.5,-215.5 565.5,-196.5 690.5,-196.5 690.5,-215.5"/>
<text text-anchor="middle" x="628" y="-203.5" font-family="FreeSans" font-size="10.00">mpqc::DescribedClass</text>
</a>
</g>
</g>
<!-- Node5&#45;&gt;Node4 -->
<g id="edge4_Node000004_Node000005" class="edge">
<title>Node5&#45;&gt;Node4</title>
<g id="a_edge4_Node000004_Node000005"><a xlink:title=" ">
<path fill="none" stroke="#63b8ff" d="M701.18,-205.59C717.89,-205.5 735.39,-205.4 751.21,-205.31"/>
<polygon fill="#63b8ff" stroke="#63b8ff" points="700.89,-202.09 690.91,-205.65 700.93,-209.09 700.89,-202.09"/>
</a>
</g>
</g>
<!-- Node6 -->
<g id="Node000006" class="node">
<title>Node6</title>
<g id="a_Node000006"><a xlink:href="classmpqc_1_1enable__shared__from__this.html" target="_top" xlink:title=" ">
<polygon fill="white" stroke="#666666" points="514,-221 348,-221 348,-191 514,-191 514,-221"/>
<text text-anchor="start" x="356" y="-209" font-family="FreeSans" font-size="10.00">mpqc::enable_shared</text>
<text text-anchor="middle" x="431" y="-198" font-family="FreeSans" font-size="10.00">_from_this&lt; DescribedClass &gt;</text>
</a>
</g>
</g>
<!-- Node6&#45;&gt;Node5 -->
<g id="edge5_Node000005_Node000006" class="edge">
<title>Node6&#45;&gt;Node5</title>
<g id="a_edge5_Node000005_Node000006"><a xlink:title=" ">
<path fill="none" stroke="#63b8ff" d="M524.25,-206C538.21,-206 552.31,-206 565.41,-206"/>
<polygon fill="#63b8ff" stroke="#63b8ff" points="524.13,-202.5 514.13,-206 524.13,-209.5 524.13,-202.5"/>
</a>
</g>
</g>
<!-- Node7 -->
<g id="Node000007" class="node">
<title>Node7</title>
<g id="a_Node000007"><a xlink:href="classmpqc_1_1detail_1_1virt__base__of__enable__shared__from__this.html" target="_top" xlink:title="helper class for mpqc::enable_shared_from_this">
<polygon fill="white" stroke="#666666" points="311,-226.5 174,-226.5 174,-185.5 311,-185.5 311,-226.5"/>
<text text-anchor="start" x="182" y="-214.5" font-family="FreeSans" font-size="10.00">mpqc::detail::virt</text>
<text text-anchor="start" x="182" y="-203.5" font-family="FreeSans" font-size="10.00">_base_of_enable_shared</text>
<text text-anchor="middle" x="242.5" y="-192.5" font-family="FreeSans" font-size="10.00">_from_this</text>
</a>
</g>
</g>
<!-- Node7&#45;&gt;Node6 -->
<g id="edge6_Node000006_Node000007" class="edge">
<title>Node7&#45;&gt;Node6</title>
<g id="a_edge6_Node000006_Node000007"><a xlink:title=" ">
<path fill="none" stroke="#63b8ff" d="M321.25,-206C329.98,-206 338.91,-206 347.7,-206"/>
<polygon fill="#63b8ff" stroke="#63b8ff" points="321.09,-202.5 311.09,-206 321.09,-209.5 321.09,-202.5"/>
</a>
</g>
</g>
<!-- Node8 -->
<g id="Node000008" class="node">
<title>Node8</title>
<g id="a_Node000008"><a xlink:title=" ">
<polygon fill="white" stroke="#666666" points="137,-232 0,-232 0,-180 137,-180 137,-232"/>
<text text-anchor="start" x="8" y="-220" font-family="FreeSans" font-size="10.00">std::enable_shared</text>
<text text-anchor="start" x="8" y="-209" font-family="FreeSans" font-size="10.00">_from_this&lt; virt_base</text>
<text text-anchor="start" x="8" y="-198" font-family="FreeSans" font-size="10.00">_of_enable_shared_from</text>
<text text-anchor="middle" x="68.5" y="-187" font-family="FreeSans" font-size="10.00">_this &gt;</text>
</a>
</g>
</g>
<!-- Node8&#45;&gt;Node7 -->
<g id="edge7_Node000007_Node000008" class="edge">
<title>Node8&#45;&gt;Node7</title>
<g id="a_edge7_Node000007_Node000008"><a xlink:title=" ">
<path fill="none" stroke="#63b8ff" d="M147.63,-206C156.35,-206 165.17,-206 173.73,-206"/>
<polygon fill="#63b8ff" stroke="#63b8ff" points="147.48,-202.5 137.48,-206 147.48,-209.5 147.48,-202.5"/>
</a>
</g>
</g>
<!-- Node9 -->
<g id="Node000009" class="node">
<title>Node9</title>
<g id="a_Node000009"><a xlink:href="classmpqc_1_1_formula_registry.html" target="_top" xlink:title=" ">
<polygon fill="white" stroke="#666666" points="872,-128 742,-128 742,-98 872,-98 872,-128"/>
<text text-anchor="start" x="750" y="-116" font-family="FreeSans" font-size="10.00">mpqc::FormulaRegistry</text>
<text text-anchor="middle" x="807" y="-105" font-family="FreeSans" font-size="10.00">&lt; TArray &gt;</text>
</a>
</g>
</g>
<!-- Node9&#45;&gt;Node3 -->
<g id="edge8_Node000003_Node000009" class="edge">
<title>Node9&#45;&gt;Node3</title>
<g id="a_edge8_Node000003_Node000009"><a xlink:title=" ">
<path fill="none" stroke="#9a32cd" stroke-dasharray="5,2" d="M882.58,-123.91C909.82,-128.07 940.84,-133.02 969,-138 974.75,-139.02 980.73,-140.12 986.71,-141.25"/>
<polygon fill="#9a32cd" stroke="#9a32cd" points="882.76,-120.4 872.35,-122.36 881.71,-127.32 882.76,-120.4"/>
</a>
</g>
<text text-anchor="middle" x="929.5" y="-141" font-family="FreeSans" font-size="10.00" fill="grey"> registry_</text>
</g>
<!-- Node10 -->
<g id="Node000010" class="node">
<title>Node10</title>
<g id="a_Node000010"><a xlink:href="classmpqc_1_1_formula_registry_base.html" target="_top" xlink:title=" ">
<polygon fill="white" stroke="#666666" points="705,-122.5 551,-122.5 551,-103.5 705,-103.5 705,-122.5"/>
<text text-anchor="middle" x="628" y="-110.5" font-family="FreeSans" font-size="10.00">mpqc::FormulaRegistryBase</text>
</a>
</g>
</g>
<!-- Node10&#45;&gt;Node9 -->
<g id="edge9_Node000009_Node000010" class="edge">
<title>Node10&#45;&gt;Node9</title>
<g id="a_edge9_Node000009_Node000010"><a xlink:title=" ">
<path fill="none" stroke="#63b8ff" d="M715.21,-113C724.21,-113 733.23,-113 741.92,-113"/>
<polygon fill="#63b8ff" stroke="#63b8ff" points="715.09,-109.5 705.09,-113 715.09,-116.5 715.09,-109.5"/>
</a>
</g>
</g>
<!-- Node12 -->
<g id="Node000012" class="node">
<title>Node12</title>
<g id="a_Node000012"><a xlink:href="classmpqc_1_1_formula_registry.html" target="_top" xlink:title=" ">
<polygon fill="white" stroke="#666666" points="872,-176 742,-176 742,-146 872,-146 872,-176"/>
<text text-anchor="start" x="750" y="-164" font-family="FreeSans" font-size="10.00">mpqc::FormulaRegistry</text>
<text text-anchor="middle" x="807" y="-153" font-family="FreeSans" font-size="10.00">&lt; TArrayVector &gt;</text>
</a>
</g>
</g>
<!-- Node10&#45;&gt;Node12 -->
<g id="edge12_Node000012_Node000010" class="edge">
<title>Node10&#45;&gt;Node12</title>
<g id="a_edge12_Node000012_Node000010"><a xlink:title=" ">
<path fill="none" stroke="#63b8ff" d="M674.32,-125.29C697.51,-131.58 725.95,-139.29 750.46,-145.94"/>
<polygon fill="#63b8ff" stroke="#63b8ff" points="674.96,-121.84 664.39,-122.6 673.13,-128.59 674.96,-121.84"/>
</a>
</g>
</g>
<!-- Node14 -->
<g id="Node000014" class="node">
<title>Node14</title>
<g id="a_Node000014"><a xlink:href="classmpqc_1_1_formula_registry.html" target="_top" xlink:title=" ">
<polygon fill="white" stroke="#666666" points="872,-80 742,-80 742,-50 872,-50 872,-80"/>
<text text-anchor="start" x="750" y="-68" font-family="FreeSans" font-size="10.00">mpqc::FormulaRegistry</text>
<text text-anchor="middle" x="807" y="-57" font-family="FreeSans" font-size="10.00">&lt; mpqc::DirectArray &gt;</text>
</a>
</g>
</g>
<!-- Node10&#45;&gt;Node14 -->
<g id="edge15_Node000014_Node000010" class="edge">
<title>Node10&#45;&gt;Node14</title>
<g id="a_edge15_Node000014_Node000010"><a xlink:title=" ">
<path fill="none" stroke="#63b8ff" d="M674.32,-100.71C697.51,-94.42 725.95,-86.71 750.46,-80.06"/>
<polygon fill="#63b8ff" stroke="#63b8ff" points="673.13,-97.41 664.39,-103.4 674.96,-104.16 673.13,-97.41"/>
</a>
</g>
</g>
<!-- Node11 -->
<g id="Node000011" class="node">
<title>Node11</title>
<g id="a_Node000011"><a xlink:href="classmpqc_1_1utility_1_1_registry.html" target="_top" xlink:title="a syntactically&#45;sweet wrapper of std::map, not thread_safe for writing">
<polygon fill="white" stroke="#666666" points="690,-78 566,-78 566,-48 690,-48 690,-78"/>
<text text-anchor="start" x="574" y="-66" font-family="FreeSans" font-size="10.00">mpqc::utility::Registry</text>
<text text-anchor="middle" x="628" y="-55" font-family="FreeSans" font-size="10.00">&lt; Key, Value &gt;</text>
</a>
</g>
</g>
<!-- Node11&#45;&gt;Node9 -->
<g id="edge10_Node000009_Node000011" class="edge">
<title>Node11&#45;&gt;Node9</title>
<g id="a_edge10_Node000009_Node000011"><a xlink:title=" ">
<path fill="none" stroke="#63b8ff" d="M691.98,-80.79C711.82,-86.39 733.52,-92.53 752.63,-97.92"/>
<polygon fill="#63b8ff" stroke="#63b8ff" points="692.68,-77.35 682.11,-78 690.78,-84.09 692.68,-77.35"/>
</a>
</g>
</g>
<!-- Node12&#45;&gt;Node3 -->
<g id="edge11_Node000003_Node000012" class="edge">
<title>Node12&#45;&gt;Node3</title>
<g id="a_edge11_Node000003_Node000012"><a xlink:title=" ">
<path fill="none" stroke="#9a32cd" stroke-dasharray="5,2" d="M882.68,-155.32C885.15,-155.2 887.59,-155.1 890,-155 921.96,-153.73 957.55,-153.4 986.98,-153.43"/>
<polygon fill="#9a32cd" stroke="#9a32cd" points="882.23,-151.84 872.43,-155.88 882.61,-158.83 882.23,-151.84"/>
</a>
</g>
<text text-anchor="middle" x="929.5" y="-158" font-family="FreeSans" font-size="10.00" fill="grey"> vregistry_</text>
</g>
<!-- Node13 -->
<g id="Node000013" class="node">
<title>Node13</title>
<g id="a_Node000013"><a xlink:href="classmpqc_1_1utility_1_1_registry.html" target="_top" xlink:title="a syntactically&#45;sweet wrapper of std::map, not thread_safe for writing">
<polygon fill="white" stroke="#666666" points="690,-178 566,-178 566,-148 690,-148 690,-178"/>
<text text-anchor="start" x="574" y="-166" font-family="FreeSans" font-size="10.00">mpqc::utility::Registry</text>
<text text-anchor="middle" x="628" y="-155" font-family="FreeSans" font-size="10.00">&lt; Key, Value &gt;</text>
</a>
</g>
</g>
<!-- Node13&#45;&gt;Node12 -->
<g id="edge13_Node000012_Node000013" class="edge">
<title>Node13&#45;&gt;Node12</title>
<g id="a_edge13_Node000012_Node000013"><a xlink:title=" ">
<path fill="none" stroke="#63b8ff" d="M700.72,-162.19C714.38,-162.04 728.59,-161.87 741.99,-161.72"/>
<polygon fill="#63b8ff" stroke="#63b8ff" points="700.37,-158.69 690.41,-162.31 700.45,-165.69 700.37,-158.69"/>
</a>
</g>
</g>
<!-- Node14&#45;&gt;Node3 -->
<g id="edge14_Node000003_Node000014" class="edge">
<title>Node14&#45;&gt;Node3</title>
<g id="a_edge14_Node000003_Node000014"><a xlink:title=" ">
<path fill="none" stroke="#9a32cd" stroke-dasharray="5,2" d="M882.22,-81.96C909.92,-89.27 941.35,-98.75 969,-110 984.93,-116.48 1001.75,-125.33 1015.87,-133.39"/>
<polygon fill="#9a32cd" stroke="#9a32cd" points="882.75,-78.49 872.2,-79.37 881,-85.26 882.75,-78.49"/>
</a>
</g>
<text text-anchor="middle" x="929.5" y="-113" font-family="FreeSans" font-size="10.00" fill="grey"> direct_registry_</text>
</g>
<!-- Node15 -->
<g id="Node000015" class="node">
<title>Node15</title>
<g id="a_Node000015"><a xlink:href="classmpqc_1_1utility_1_1_registry.html" target="_top" xlink:title="a syntactically&#45;sweet wrapper of std::map, not thread_safe for writing">
<polygon fill="white" stroke="#666666" points="690,-30 566,-30 566,0 690,0 690,-30"/>
<text text-anchor="start" x="574" y="-18" font-family="FreeSans" font-size="10.00">mpqc::utility::Registry</text>
<text text-anchor="middle" x="628" y="-7" font-family="FreeSans" font-size="10.00">&lt; Key, Value &gt;</text>
</a>
</g>
</g>
<!-- Node15&#45;&gt;Node14 -->
<g id="edge16_Node000014_Node000015" class="edge">
<title>Node15&#45;&gt;Node14</title>
<g id="a_edge16_Node000014_Node000015"><a xlink:title=" ">
<path fill="none" stroke="#63b8ff" d="M691.98,-32.79C711.82,-38.39 733.52,-44.53 752.63,-49.92"/>
<polygon fill="#63b8ff" stroke="#63b8ff" points="692.68,-29.35 682.11,-30 690.78,-36.09 692.68,-29.35"/>
</a>
</g>
</g>
<!-- Node16&#45;&gt;Node1 -->
<g id="edge17_Node000001_Node000016" class="edge">
<title>Node16&#45;&gt;Node1</title>
<g id="a_edge17_Node000001_Node000016"><a xlink:title=" ">
<path fill="none" stroke="#63b8ff" d="M1261.57,-199.47C1317.96,-195.77 1397.43,-190.56 1454.89,-186.79"/>
<polygon fill="#63b8ff" stroke="#63b8ff" points="1261.07,-196 1251.32,-200.14 1261.53,-202.98 1261.07,-196"/>
</a>
</g>
</g>
</g>
</svg>

<g id="navigator" transform="translate(0 0)" fill="#404254">
  <rect fill="#f2f5e9" fill-opacity="0.5" stroke="#606060" stroke-width=".5" x="0" y="0" width="60" height="60"/>
  <use id="zoomplus" xlink:href="#zoomPlus" x="17" y="9" onmousedown="handleZoom(evt,'in')"/>
  <use id="zoomminus" xlink:href="#zoomMin" x="42" y="9" onmousedown="handleZoom(evt,'out')"/>
  <use id="reset" xlink:href="#resetDef" x="30" y="36" onmousedown="handleReset()"/>
   <use id="arrowup" xlink:href="#arrowUp" x="0" y="0" onmousedown="handlePan(0,-1)"/>
  <use id="arrowright" xlink:href="#arrowRight" x="0" y="0" onmousedown="handlePan(1,0)"/>
  <use id="arrowdown" xlink:href="#arrowDown" x="0" y="0" onmousedown="handlePan(0,1)"/>
  <use id="arrowleft" xlink:href="#arrowLeft" x="0" y="0" onmousedown="handlePan(-1,0)"/>
</g>
<svg viewBox="0 0 15 15" width="100%" height="30px" preserveAspectRatio="xMaxYMin meet">
 <g id="arrow_out" transform="scale(0.3 0.3)">
  <a xlink:href="classmpqc_1_1lcao_1_1pbc_1_1gaussian_1_1_a_o_factory__coll__graph_org.svg" target="_base">
   <rect id="button" ry="5" rx="5" y="6" x="6" height="38" width="38"
        fill="#f2f5e9" fill-opacity="0.5" stroke="#606060" stroke-width="1.0"/>
   <path id="arrow"
     d="M 11.500037,31.436501 C 11.940474,20.09759 22.043105,11.32322 32.158766,21.979434 L 37.068811,17.246167 C 37.068811,17.246167 37.088388,32 37.088388,32 L 22.160133,31.978069 C 22.160133,31.978069 26.997745,27.140456 26.997745,27.140456 C 18.528582,18.264221 13.291696,25.230495 11.500037,31.436501 z"
     style="fill:#404040;"/>
  </a>
 </g>
</svg>

<style type='text/css'>
<![CDATA[
[data-mouse-over-selected='false'] { opacity: 0.7; }
[data-mouse-over-selected='true']  { opacity: 1.0; }
]]>
</style>
<script type="application/ecmascript"><![CDATA[
document.addEventListener('DOMContentLoaded', (event) => {
  highlightEdges();
  highlightAdjacentNodes();
});
]]></script>
</svg>
