<?xml version="1.0" encoding="UTF-8" standalone="no"?>
<!DOCTYPE svg PUBLIC "-//W3C//DTD SVG 1.1//EN"
 "http://www.w3.org/Graphics/SVG/1.1/DTD/svg11.dtd">
<!-- Generated by graphviz version 2.43.0 (0)
 -->
<!-- Title: mpqc::lcao::gaussian::QQRScreen Pages: 1 -->
<svg width="187pt" height="214pt"
 viewBox="0.00 0.00 187.00 214.00" xmlns="http://www.w3.org/2000/svg" xmlns:xlink="http://www.w3.org/1999/xlink">
<g id="graph0" class="graph" transform="scale(1 1) rotate(0) translate(4 210)">
<title>mpqc::lcao::gaussian::QQRScreen</title>
<!-- Node1 -->
<g id="Node000001" class="node">
<title>Node1</title>
<g id="a_Node000001"><a xlink:title="Implements QQR screener for shell&#45;sets of integrals.">
<polygon fill="#999999" stroke="#666666" points="149,-30 30,-30 30,0 149,0 149,-30"/>
<text text-anchor="start" x="38" y="-18" font-family="FreeSans" font-size="10.00">mpqc::lcao::gaussian</text>
<text text-anchor="middle" x="89.5" y="-7" font-family="FreeSans" font-size="10.00">::QQRScreen</text>
</a>
</g>
</g>
<!-- Node2 -->
<g id="Node000002" class="node">
<title>Node2</title>
<g id="a_Node000002"><a xlink:href="classmpqc_1_1lcao_1_1gaussian_1_1_schwarz_screen.html" target="_top" xlink:title="Class for Schwarz based screening.">
<polygon fill="white" stroke="#666666" points="149,-96 30,-96 30,-66 149,-66 149,-96"/>
<text text-anchor="start" x="38" y="-84" font-family="FreeSans" font-size="10.00">mpqc::lcao::gaussian</text>
<text text-anchor="middle" x="89.5" y="-73" font-family="FreeSans" font-size="10.00">::SchwarzScreen</text>
</a>
</g>
</g>
<!-- Node2&#45;&gt;Node1 -->
<g id="edge1_Node000001_Node000002" class="edge">
<title>Node2&#45;&gt;Node1</title>
<g id="a_edge1_Node000001_Node000002"><a xlink:title=" ">
<path fill="none" stroke="#63b8ff" d="M89.5,-55.54C89.5,-46.96 89.5,-37.61 89.5,-30.16"/>
<polygon fill="#63b8ff" stroke="#63b8ff" points="86,-55.8 89.5,-65.8 93,-55.8 86,-55.8"/>
</a>
</g>
</g>
<!-- Node3 -->
<g id="Node000003" class="node">
<title>Node3</title>
<g id="a_Node000003"><a xlink:href="classmpqc_1_1lcao_1_1_thresholded_screener.html" target="_top" xlink:title="ThresholdedScreener is a Screener equipped with a (mutable) real threshold.">
<polygon fill="white" stroke="#666666" points="179,-151 0,-151 0,-132 179,-132 179,-151"/>
<text text-anchor="middle" x="89.5" y="-139" font-family="FreeSans" font-size="10.00">mpqc::lcao::ThresholdedScreener</text>
</a>
</g>
</g>
<!-- Node3&#45;&gt;Node2 -->
<g id="edge2_Node000002_Node000003" class="edge">
<title>Node3&#45;&gt;Node2</title>
<g id="a_edge2_Node000002_Node000003"><a xlink:title=" ">
<path fill="none" stroke="#63b8ff" d="M89.5,-121.65C89.5,-113.36 89.5,-103.78 89.5,-96.11"/>
<polygon fill="#63b8ff" stroke="#63b8ff" points="86,-121.87 89.5,-131.87 93,-121.87 86,-121.87"/>
</a>
</g>
</g>
<!-- Node4 -->
<g id="Node000004" class="node">
<title>Node4</title>
<g id="a_Node000004"><a xlink:href="classmpqc_1_1lcao_1_1_screener.html" target="_top" xlink:title="Base class for screeners will never skip any integrals.">
<polygon fill="white" stroke="#666666" points="149,-206 30,-206 30,-187 149,-187 149,-206"/>
<text text-anchor="middle" x="89.5" y="-194" font-family="FreeSans" font-size="10.00">mpqc::lcao::Screener</text>
</a>
</g>
</g>
<!-- Node4&#45;&gt;Node3 -->
<g id="edge3_Node000003_Node000004" class="edge">
<title>Node4&#45;&gt;Node3</title>
<g id="a_edge3_Node000003_Node000004"><a xlink:title=" ">
<path fill="none" stroke="#63b8ff" d="M89.5,-176.66C89.5,-167.93 89.5,-157.99 89.5,-151.09"/>
<polygon fill="#63b8ff" stroke="#63b8ff" points="86,-176.75 89.5,-186.75 93,-176.75 86,-176.75"/>
</a>
</g>
</g>
</g>
</svg>
