<?xml version="1.0" encoding="UTF-8" standalone="no"?>
<!DOCTYPE svg PUBLIC "-//W3C//DTD SVG 1.1//EN"
 "http://www.w3.org/Graphics/SVG/1.1/DTD/svg11.dtd">
<!-- Generated by graphviz version 2.43.0 (0)
 -->
<!-- Title: mpqc::lcao::cc::GammaPointCCSD&lt; Tile, Policy &gt; Pages: 1 -->
<svg width="1777pt" height="256pt"
 viewBox="0.00 0.00 1777.00 256.00" xmlns="http://www.w3.org/2000/svg" xmlns:xlink="http://www.w3.org/1999/xlink">
<g id="graph0" class="graph" transform="scale(1 1) rotate(0) translate(4 252)">
<title>mpqc::lcao::cc::GammaPointCCSD&lt; Tile, Policy &gt;</title>
<!-- Node1 -->
<g id="Node000001" class="node">
<title>Node1</title>
<g id="a_Node000001"><a xlink:title=" ">
<polygon fill="#999999" stroke="#666666" points="1769,-121 1613,-121 1613,-91 1769,-91 1769,-121"/>
<text text-anchor="start" x="1621" y="-109" font-family="FreeSans" font-size="10.00">mpqc::lcao::cc::GammaPoint</text>
<text text-anchor="middle" x="1691" y="-98" font-family="FreeSans" font-size="10.00">CCSD&lt; Tile, Policy &gt;</text>
</a>
</g>
</g>
<!-- Node2 -->
<g id="Node000002" class="node">
<title>Node2</title>
<g id="a_Node000002"><a xlink:href="classmpqc_1_1lcao_1_1cc_1_1_c_c_s_d.html" target="_top" xlink:title=" ">
<polygon fill="white" stroke="#666666" points="1576,-121 1457,-121 1457,-91 1576,-91 1576,-121"/>
<text text-anchor="start" x="1465" y="-109" font-family="FreeSans" font-size="10.00">mpqc::lcao::cc::CCSD</text>
<text text-anchor="middle" x="1516.5" y="-98" font-family="FreeSans" font-size="10.00">&lt; Tile, Policy &gt;</text>
</a>
</g>
</g>
<!-- Node2&#45;&gt;Node1 -->
<g id="edge1_Node000001_Node000002" class="edge">
<title>Node2&#45;&gt;Node1</title>
<g id="a_edge1_Node000001_Node000002"><a xlink:title=" ">
<path fill="none" stroke="#63b8ff" d="M1586.42,-106C1595.09,-106 1603.99,-106 1612.78,-106"/>
<polygon fill="#63b8ff" stroke="#63b8ff" points="1586.38,-102.5 1576.38,-106 1586.38,-109.5 1586.38,-102.5"/>
</a>
</g>
</g>
<!-- Node3 -->
<g id="Node000003" class="node">
<title>Node3</title>
<g id="a_Node000003"><a xlink:href="classmpqc_1_1lcao_1_1_l_c_a_o_wavefunction.html" target="_top" xlink:title="LCAOWavefunction is a Wavefunction with an LCAOFactory.">
<polygon fill="white" stroke="#666666" points="1336,-212 1167,-212 1167,-182 1336,-182 1336,-212"/>
<text text-anchor="start" x="1175" y="-200" font-family="FreeSans" font-size="10.00">mpqc::lcao::LCAOWavefunction</text>
<text text-anchor="middle" x="1251.5" y="-189" font-family="FreeSans" font-size="10.00">&lt; Tile, Policy &gt;</text>
</a>
</g>
</g>
<!-- Node3&#45;&gt;Node2 -->
<g id="edge2_Node000002_Node000003" class="edge">
<title>Node3&#45;&gt;Node2</title>
<g id="a_edge2_Node000002_Node000003"><a xlink:title=" ">
<path fill="none" stroke="#63b8ff" d="M1320.21,-179.26C1355.96,-169.24 1400.32,-155.79 1439,-141 1454.42,-135.11 1471.13,-127.6 1484.99,-121.05"/>
<polygon fill="#63b8ff" stroke="#63b8ff" points="1319.07,-175.94 1310.37,-181.99 1320.94,-182.69 1319.07,-175.94"/>
</a>
</g>
</g>
<!-- Node4 -->
<g id="Node000004" class="node">
<title>Node4</title>
<g id="a_Node000004"><a xlink:href="classmpqc_1_1lcao_1_1_wavefunction.html" target="_top" xlink:title=" ">
<polygon fill="white" stroke="#666666" points="1026.5,-206.5 883.5,-206.5 883.5,-187.5 1026.5,-187.5 1026.5,-206.5"/>
<text text-anchor="middle" x="955" y="-194.5" font-family="FreeSans" font-size="10.00">mpqc::lcao::Wavefunction</text>
</a>
</g>
</g>
<!-- Node4&#45;&gt;Node3 -->
<g id="edge3_Node000003_Node000004" class="edge">
<title>Node4&#45;&gt;Node3</title>
<g id="a_edge3_Node000003_Node000004"><a xlink:title=" ">
<path fill="none" stroke="#63b8ff" d="M1036.63,-197C1077.1,-197 1126.07,-197 1166.93,-197"/>
<polygon fill="#63b8ff" stroke="#63b8ff" points="1036.54,-193.5 1026.54,-197 1036.54,-200.5 1036.54,-193.5"/>
</a>
</g>
</g>
<!-- Node5 -->
<g id="Node000005" class="node">
<title>Node5</title>
<g id="a_Node000005"><a xlink:href="classmpqc_1_1_wavefunction.html" target="_top" xlink:title=" ">
<polygon fill="white" stroke="#666666" points="832,-206.5 716,-206.5 716,-187.5 832,-187.5 832,-206.5"/>
<text text-anchor="middle" x="774" y="-194.5" font-family="FreeSans" font-size="10.00">mpqc::Wavefunction</text>
</a>
</g>
</g>
<!-- Node5&#45;&gt;Node4 -->
<g id="edge4_Node000004_Node000005" class="edge">
<title>Node5&#45;&gt;Node4</title>
<g id="a_edge4_Node000004_Node000005"><a xlink:title=" ">
<path fill="none" stroke="#63b8ff" d="M842.22,-197C855.64,-197 869.76,-197 883.29,-197"/>
<polygon fill="#63b8ff" stroke="#63b8ff" points="842.13,-193.5 832.13,-197 842.13,-200.5 842.13,-193.5"/>
</a>
</g>
</g>
<!-- Node6 -->
<g id="Node000006" class="node">
<title>Node6</title>
<g id="a_Node000006"><a xlink:href="classmpqc_1_1_described_class.html" target="_top" xlink:title=" ">
<polygon fill="white" stroke="#666666" points="677.5,-231.5 552.5,-231.5 552.5,-212.5 677.5,-212.5 677.5,-231.5"/>
<text text-anchor="middle" x="615" y="-219.5" font-family="FreeSans" font-size="10.00">mpqc::DescribedClass</text>
</a>
</g>
</g>
<!-- Node6&#45;&gt;Node5 -->
<g id="edge5_Node000005_Node000006" class="edge">
<title>Node6&#45;&gt;Node5</title>
<g id="a_edge5_Node000005_Node000006"><a xlink:title=" ">
<path fill="none" stroke="#63b8ff" d="M685.8,-210.89C695.88,-209.28 706.16,-207.64 715.95,-206.08"/>
<polygon fill="#63b8ff" stroke="#63b8ff" points="685.13,-207.45 675.8,-212.48 686.23,-214.36 685.13,-207.45"/>
</a>
</g>
</g>
<!-- Node7 -->
<g id="Node000007" class="node">
<title>Node7</title>
<g id="a_Node000007"><a xlink:href="classmpqc_1_1enable__shared__from__this.html" target="_top" xlink:title=" ">
<polygon fill="white" stroke="#666666" points="514,-237 348,-237 348,-207 514,-207 514,-237"/>
<text text-anchor="start" x="356" y="-225" font-family="FreeSans" font-size="10.00">mpqc::enable_shared</text>
<text text-anchor="middle" x="431" y="-214" font-family="FreeSans" font-size="10.00">_from_this&lt; DescribedClass &gt;</text>
</a>
</g>
</g>
<!-- Node7&#45;&gt;Node6 -->
<g id="edge6_Node000006_Node000007" class="edge">
<title>Node7&#45;&gt;Node6</title>
<g id="a_edge6_Node000006_Node000007"><a xlink:title=" ">
<path fill="none" stroke="#63b8ff" d="M524.45,-222C533.9,-222 543.33,-222 552.32,-222"/>
<polygon fill="#63b8ff" stroke="#63b8ff" points="524.21,-218.5 514.21,-222 524.21,-225.5 524.21,-218.5"/>
</a>
</g>
</g>
<!-- Node8 -->
<g id="Node000008" class="node">
<title>Node8</title>
<g id="a_Node000008"><a xlink:href="classmpqc_1_1detail_1_1virt__base__of__enable__shared__from__this.html" target="_top" xlink:title="helper class for mpqc::enable_shared_from_this">
<polygon fill="white" stroke="#666666" points="311,-242.5 174,-242.5 174,-201.5 311,-201.5 311,-242.5"/>
<text text-anchor="start" x="182" y="-230.5" font-family="FreeSans" font-size="10.00">mpqc::detail::virt</text>
<text text-anchor="start" x="182" y="-219.5" font-family="FreeSans" font-size="10.00">_base_of_enable_shared</text>
<text text-anchor="middle" x="242.5" y="-208.5" font-family="FreeSans" font-size="10.00">_from_this</text>
</a>
</g>
</g>
<!-- Node8&#45;&gt;Node7 -->
<g id="edge7_Node000007_Node000008" class="edge">
<title>Node8&#45;&gt;Node7</title>
<g id="a_edge7_Node000007_Node000008"><a xlink:title=" ">
<path fill="none" stroke="#63b8ff" d="M321.25,-222C329.98,-222 338.91,-222 347.7,-222"/>
<polygon fill="#63b8ff" stroke="#63b8ff" points="321.09,-218.5 311.09,-222 321.09,-225.5 321.09,-218.5"/>
</a>
</g>
</g>
<!-- Node9 -->
<g id="Node000009" class="node">
<title>Node9</title>
<g id="a_Node000009"><a xlink:title=" ">
<polygon fill="white" stroke="#666666" points="137,-248 0,-248 0,-196 137,-196 137,-248"/>
<text text-anchor="start" x="8" y="-236" font-family="FreeSans" font-size="10.00">std::enable_shared</text>
<text text-anchor="start" x="8" y="-225" font-family="FreeSans" font-size="10.00">_from_this&lt; virt_base</text>
<text text-anchor="start" x="8" y="-214" font-family="FreeSans" font-size="10.00">_of_enable_shared_from</text>
<text text-anchor="middle" x="68.5" y="-203" font-family="FreeSans" font-size="10.00">_this &gt;</text>
</a>
</g>
</g>
<!-- Node9&#45;&gt;Node8 -->
<g id="edge8_Node000008_Node000009" class="edge">
<title>Node9&#45;&gt;Node8</title>
<g id="a_edge8_Node000008_Node000009"><a xlink:title=" ">
<path fill="none" stroke="#63b8ff" d="M147.63,-222C156.35,-222 165.17,-222 173.73,-222"/>
<polygon fill="#63b8ff" stroke="#63b8ff" points="147.48,-218.5 137.48,-222 147.48,-225.5 147.48,-218.5"/>
</a>
</g>
</g>
<!-- Node10 -->
<g id="Node000010" class="node">
<title>Node10</title>
<g id="a_Node000010"><a xlink:href="classmpqc_1_1utility_1_1_observer.html" target="_top" xlink:title="helps to set up messaging between objects via the Observer pattern">
<polygon fill="white" stroke="#666666" points="679,-194.5 551,-194.5 551,-175.5 679,-175.5 679,-194.5"/>
<text text-anchor="middle" x="615" y="-182.5" font-family="FreeSans" font-size="10.00">mpqc::utility::Observer</text>
</a>
</g>
</g>
<!-- Node10&#45;&gt;Node5 -->
<g id="edge9_Node000005_Node000010" class="edge">
<title>Node10&#45;&gt;Node5</title>
<g id="a_edge9_Node000005_Node000010"><a xlink:title=" ">
<path fill="none" stroke="#63b8ff" d="M689.41,-190.61C698.32,-191.29 707.32,-191.98 715.94,-192.64"/>
<polygon fill="#63b8ff" stroke="#63b8ff" points="689.64,-187.12 679.41,-189.85 689.11,-194.1 689.64,-187.12"/>
</a>
</g>
</g>
<!-- Node11 -->
<g id="Node000011" class="node">
<title>Node11</title>
<g id="a_Node000011"><a xlink:href="classmpqc_1_1_provides.html" target="_top" xlink:title=" ">
<polygon fill="white" stroke="#666666" points="1321.5,-164 1181.5,-164 1181.5,-134 1321.5,-134 1321.5,-164"/>
<text text-anchor="start" x="1189.5" y="-152" font-family="FreeSans" font-size="10.00">mpqc::Provides&lt; Energy,</text>
<text text-anchor="middle" x="1251.5" y="-141" font-family="FreeSans" font-size="10.00"> PerturbationResponse &gt;</text>
</a>
</g>
</g>
<!-- Node11&#45;&gt;Node2 -->
<g id="edge10_Node000002_Node000011" class="edge">
<title>Node11&#45;&gt;Node2</title>
<g id="a_edge10_Node000002_Node000011"><a xlink:title=" ">
<path fill="none" stroke="#63b8ff" d="M1331.8,-137.89C1364.98,-133.04 1403.92,-127.07 1439,-121 1444.73,-120.01 1450.7,-118.93 1456.66,-117.81"/>
<polygon fill="#63b8ff" stroke="#63b8ff" points="1331.09,-134.46 1321.7,-139.36 1332.1,-141.38 1331.09,-134.46"/>
</a>
</g>
</g>
<!-- Node12 -->
<g id="Node000012" class="node">
<title>Node12</title>
<g id="a_Node000012"><a xlink:href="classmpqc_1_1_key_val.html" target="_top" xlink:title="KeyVal specifies C++ primitive data (booleans, integers, reals, string) and user&#45;defined objects obta...">
<polygon fill="white" stroke="#666666" points="1293,-115.5 1210,-115.5 1210,-96.5 1293,-96.5 1293,-115.5"/>
<text text-anchor="middle" x="1251.5" y="-103.5" font-family="FreeSans" font-size="10.00">mpqc::KeyVal</text>
</a>
</g>
</g>
<!-- Node12&#45;&gt;Node2 -->
<g id="edge11_Node000002_Node000012" class="edge">
<title>Node12&#45;&gt;Node2</title>
<g id="a_edge11_Node000002_Node000012"><a xlink:title=" ">
<path fill="none" stroke="#9a32cd" stroke-dasharray="5,2" d="M1303.19,-106C1347.13,-106 1410.74,-106 1456.87,-106"/>
<polygon fill="#9a32cd" stroke="#9a32cd" points="1303.02,-102.5 1293.02,-106 1303.02,-109.5 1303.02,-102.5"/>
</a>
</g>
<text text-anchor="middle" x="1396.5" y="-109" font-family="FreeSans" font-size="10.00" fill="grey"> kv_</text>
</g>
<!-- Node13 -->
<g id="Node000013" class="node">
<title>Node13</title>
<g id="a_Node000013"><a xlink:href="structmpqc_1_1_key_val_1_1dummy__validator__t.html" target="_top" xlink:title=" ">
<polygon fill="white" stroke="#666666" points="1018,-164 892,-164 892,-134 1018,-134 1018,-164"/>
<text text-anchor="start" x="900" y="-152" font-family="FreeSans" font-size="10.00">mpqc::KeyVal::dummy</text>
<text text-anchor="middle" x="955" y="-141" font-family="FreeSans" font-size="10.00">_validator_t</text>
</a>
</g>
</g>
<!-- Node13&#45;&gt;Node12 -->
<g id="edge12_Node000012_Node000013" class="edge">
<title>Node13&#45;&gt;Node12</title>
<g id="a_edge12_Node000012_Node000013"><a xlink:title=" ">
<path fill="none" stroke="#9a32cd" stroke-dasharray="5,2" d="M1028.15,-138.58C1064.41,-133.33 1109.04,-126.85 1149,-121 1168.92,-118.08 1191.03,-114.82 1209.51,-112.08"/>
<polygon fill="#9a32cd" stroke="#9a32cd" points="1027.55,-135.13 1018.15,-140.03 1028.55,-142.06 1027.55,-135.13"/>
</a>
</g>
<text text-anchor="middle" x="1104" y="-137" font-family="FreeSans" font-size="10.00" fill="grey"> dummy_validator</text>
</g>
<!-- Node14 -->
<g id="Node000014" class="node">
<title>Node14</title>
<g id="a_Node000014"><a xlink:href="structmpqc_1_1_key_val_1_1is__nonnegative__t.html" target="_top" xlink:title=" ">
<polygon fill="white" stroke="#666666" points="1041,-115.5 869,-115.5 869,-96.5 1041,-96.5 1041,-115.5"/>
<text text-anchor="middle" x="955" y="-103.5" font-family="FreeSans" font-size="10.00">mpqc::KeyVal::is_nonnegative_t</text>
</a>
</g>
</g>
<!-- Node14&#45;&gt;Node12 -->
<g id="edge13_Node000012_Node000014" class="edge">
<title>Node14&#45;&gt;Node12</title>
<g id="a_edge13_Node000012_Node000014"><a xlink:title=" ">
<path fill="none" stroke="#9a32cd" stroke-dasharray="5,2" d="M1051.39,-106C1104.91,-106 1168.9,-106 1209.62,-106"/>
<polygon fill="#9a32cd" stroke="#9a32cd" points="1051.18,-102.5 1041.18,-106 1051.18,-109.5 1051.18,-102.5"/>
</a>
</g>
<text text-anchor="middle" x="1104" y="-109" font-family="FreeSans" font-size="10.00" fill="grey"> is_nonnegative</text>
</g>
<!-- Node15 -->
<g id="Node000015" class="node">
<title>Node15</title>
<g id="a_Node000015"><a xlink:href="structmpqc_1_1_key_val_1_1is__positive__t.html" target="_top" xlink:title=" ">
<polygon fill="white" stroke="#666666" points="1030,-78.5 880,-78.5 880,-59.5 1030,-59.5 1030,-78.5"/>
<text text-anchor="middle" x="955" y="-66.5" font-family="FreeSans" font-size="10.00">mpqc::KeyVal::is_positive_t</text>
</a>
</g>
</g>
<!-- Node15&#45;&gt;Node12 -->
<g id="edge14_Node000012_Node000015" class="edge">
<title>Node15&#45;&gt;Node12</title>
<g id="a_edge14_Node000012_Node000015"><a xlink:title=" ">
<path fill="none" stroke="#9a32cd" stroke-dasharray="5,2" d="M1040.6,-78.03C1074.35,-81.79 1113.54,-86.36 1149,-91 1168.96,-93.61 1191.07,-96.84 1209.55,-99.63"/>
<polygon fill="#9a32cd" stroke="#9a32cd" points="1040.63,-74.51 1030.31,-76.89 1039.86,-81.47 1040.63,-74.51"/>
</a>
</g>
<text text-anchor="middle" x="1104" y="-94" font-family="FreeSans" font-size="10.00" fill="grey"> is_positive</text>
</g>
<!-- Node16 -->
<g id="Node000016" class="node">
<title>Node16</title>
<g id="a_Node000016"><a xlink:href="classmpqc_1_1_direct_array.html" target="_top" xlink:title=" ">
<polygon fill="white" stroke="#666666" points="1308,-78 1195,-78 1195,-48 1308,-48 1308,-78"/>
<text text-anchor="start" x="1203" y="-66" font-family="FreeSans" font-size="10.00">mpqc::DirectArray&lt;</text>
<text text-anchor="middle" x="1251.5" y="-55" font-family="FreeSans" font-size="10.00"> Tile, Policy &gt;</text>
</a>
</g>
</g>
<!-- Node16&#45;&gt;Node2 -->
<g id="edge15_Node000002_Node000016" class="edge">
<title>Node16&#45;&gt;Node2</title>
<g id="a_edge15_Node000002_Node000016"><a xlink:title=" ">
<path fill="none" stroke="#9a32cd" stroke-dasharray="5,2" d="M1318.4,-72.16C1354.15,-77.32 1399.07,-84.09 1439,-91 1444.73,-91.99 1450.7,-93.07 1456.66,-94.19"/>
<polygon fill="#9a32cd" stroke="#9a32cd" points="1318.49,-68.64 1308.1,-70.69 1317.5,-75.57 1318.49,-68.64"/>
</a>
</g>
<text text-anchor="middle" x="1396.5" y="-94" font-family="FreeSans" font-size="10.00" fill="grey"> direct_ao_array_</text>
</g>
<!-- Node17 -->
<g id="Node000017" class="node">
<title>Node17</title>
<g id="a_Node000017"><a xlink:href="structmpqc_1_1lcao_1_1cc_1_1_intermediates.html" target="_top" xlink:title=" ">
<polygon fill="white" stroke="#666666" points="1332,-30 1171,-30 1171,0 1332,0 1332,-30"/>
<text text-anchor="start" x="1179" y="-18" font-family="FreeSans" font-size="10.00">mpqc::lcao::cc::Intermediates</text>
<text text-anchor="middle" x="1251.5" y="-7" font-family="FreeSans" font-size="10.00">&lt; TArray &gt;</text>
</a>
</g>
</g>
<!-- Node17&#45;&gt;Node2 -->
<g id="edge16_Node000002_Node000017" class="edge">
<title>Node17&#45;&gt;Node2</title>
<g id="a_edge16_Node000002_Node000017"><a xlink:title=" ">
<path fill="none" stroke="#9a32cd" stroke-dasharray="5,2" d="M1342.08,-32.3C1373.34,-39.71 1408.28,-49.57 1439,-62 1458.03,-69.7 1478.1,-81.39 1492.9,-90.79"/>
<polygon fill="#9a32cd" stroke="#9a32cd" points="1342.6,-28.83 1332.07,-29.98 1341.02,-35.65 1342.6,-28.83"/>
</a>
</g>
<text text-anchor="middle" x="1396.5" y="-65" font-family="FreeSans" font-size="10.00" fill="grey"> imds_</text>
</g>
</g>
</svg>
