<?xml version="1.0" encoding="UTF-8" standalone="no"?>
<!DOCTYPE svg PUBLIC "-//W3C//DTD SVG 1.1//EN"
 "http://www.w3.org/Graphics/SVG/1.1/DTD/svg11.dtd">
<!-- Generated by graphviz version 2.43.0 (0)
 -->
<!-- Title: mpqc::math::groups::Z1 Pages: 1 -->
<svg width="145pt" height="313pt"
 viewBox="0.00 0.00 145.00 313.00" xmlns="http://www.w3.org/2000/svg" xmlns:xlink="http://www.w3.org/1999/xlink">
<g id="graph0" class="graph" transform="scale(1 1) rotate(0) translate(4 309)">
<title>mpqc::math::groups::Z1</title>
<!-- Node1 -->
<g id="Node000001" class="node">
<title>Node1</title>
<g id="a_Node000001"><a xlink:title="Z1 is the trivial group.">
<polygon fill="#999999" stroke="#666666" points="135,-19 2,-19 2,0 135,0 135,-19"/>
<text text-anchor="middle" x="68.5" y="-7" font-family="FreeSans" font-size="10.00">mpqc::math::groups::Z1</text>
</a>
</g>
</g>
<!-- Node2 -->
<g id="Node000002" class="node">
<title>Node2</title>
<g id="a_Node000002"><a xlink:href="classmpqc_1_1math_1_1_group.html" target="_top" xlink:title="Group is an abstract discrete group.">
<polygon fill="white" stroke="#666666" points="123.5,-74 13.5,-74 13.5,-55 123.5,-55 123.5,-74"/>
<text text-anchor="middle" x="68.5" y="-62" font-family="FreeSans" font-size="10.00">mpqc::math::Group</text>
</a>
</g>
</g>
<!-- Node2&#45;&gt;Node1 -->
<g id="edge1_Node000001_Node000002" class="edge">
<title>Node2&#45;&gt;Node1</title>
<g id="a_edge1_Node000001_Node000002"><a xlink:title=" ">
<path fill="none" stroke="#63b8ff" d="M68.5,-44.66C68.5,-35.93 68.5,-25.99 68.5,-19.09"/>
<polygon fill="#63b8ff" stroke="#63b8ff" points="65,-44.75 68.5,-54.75 72,-44.75 65,-44.75"/>
</a>
</g>
</g>
<!-- Node3 -->
<g id="Node000003" class="node">
<title>Node3</title>
<g id="a_Node000003"><a xlink:href="classmpqc_1_1enable__shared__from__this.html" target="_top" xlink:title=" ">
<polygon fill="white" stroke="#666666" points="129,-140 8,-140 8,-110 129,-110 129,-140"/>
<text text-anchor="start" x="16" y="-128" font-family="FreeSans" font-size="10.00">mpqc::enable_shared</text>
<text text-anchor="middle" x="68.5" y="-117" font-family="FreeSans" font-size="10.00">_from_this&lt; Group &gt;</text>
</a>
</g>
</g>
<!-- Node3&#45;&gt;Node2 -->
<g id="edge2_Node000002_Node000003" class="edge">
<title>Node3&#45;&gt;Node2</title>
<g id="a_edge2_Node000002_Node000003"><a xlink:title=" ">
<path fill="none" stroke="#63b8ff" d="M68.5,-99.75C68.5,-90.72 68.5,-81.03 68.5,-74.27"/>
<polygon fill="#63b8ff" stroke="#63b8ff" points="65,-99.84 68.5,-109.84 72,-99.84 65,-99.84"/>
</a>
</g>
</g>
<!-- Node4 -->
<g id="Node000004" class="node">
<title>Node4</title>
<g id="a_Node000004"><a xlink:href="classmpqc_1_1detail_1_1virt__base__of__enable__shared__from__this.html" target="_top" xlink:title="helper class for mpqc::enable_shared_from_this">
<polygon fill="white" stroke="#666666" points="137,-217 0,-217 0,-176 137,-176 137,-217"/>
<text text-anchor="start" x="8" y="-205" font-family="FreeSans" font-size="10.00">mpqc::detail::virt</text>
<text text-anchor="start" x="8" y="-194" font-family="FreeSans" font-size="10.00">_base_of_enable_shared</text>
<text text-anchor="middle" x="68.5" y="-183" font-family="FreeSans" font-size="10.00">_from_this</text>
</a>
</g>
</g>
<!-- Node4&#45;&gt;Node3 -->
<g id="edge3_Node000003_Node000004" class="edge">
<title>Node4&#45;&gt;Node3</title>
<g id="a_edge3_Node000003_Node000004"><a xlink:title=" ">
<path fill="none" stroke="#63b8ff" d="M68.5,-165.66C68.5,-156.76 68.5,-147.42 68.5,-140.04"/>
<polygon fill="#63b8ff" stroke="#63b8ff" points="65,-165.77 68.5,-175.77 72,-165.77 65,-165.77"/>
</a>
</g>
</g>
<!-- Node5 -->
<g id="Node000005" class="node">
<title>Node5</title>
<g id="a_Node000005"><a xlink:title=" ">
<polygon fill="white" stroke="#666666" points="137,-305 0,-305 0,-253 137,-253 137,-305"/>
<text text-anchor="start" x="8" y="-293" font-family="FreeSans" font-size="10.00">std::enable_shared</text>
<text text-anchor="start" x="8" y="-282" font-family="FreeSans" font-size="10.00">_from_this&lt; virt_base</text>
<text text-anchor="start" x="8" y="-271" font-family="FreeSans" font-size="10.00">_of_enable_shared_from</text>
<text text-anchor="middle" x="68.5" y="-260" font-family="FreeSans" font-size="10.00">_this &gt;</text>
</a>
</g>
</g>
<!-- Node5&#45;&gt;Node4 -->
<g id="edge4_Node000004_Node000005" class="edge">
<title>Node5&#45;&gt;Node4</title>
<g id="a_edge4_Node000004_Node000005"><a xlink:title=" ">
<path fill="none" stroke="#63b8ff" d="M68.5,-242.87C68.5,-234.05 68.5,-224.9 68.5,-217.15"/>
<polygon fill="#63b8ff" stroke="#63b8ff" points="65,-242.97 68.5,-252.97 72,-242.97 65,-242.97"/>
</a>
</g>
</g>
</g>
</svg>
