<?xml version="1.0" encoding="UTF-8" standalone="no"?>
<!DOCTYPE svg PUBLIC "-//W3C//DTD SVG 1.1//EN"
 "http://www.w3.org/Graphics/SVG/1.1/DTD/svg11.dtd">
<!-- Generated by graphviz version 2.43.0 (0)
 -->
<!-- Title: mpqc::lcao::gaussian::DirectIntegralBuilder&lt; Tile, ComputeTile, Engine &gt; Pages: 1 -->
<svg width="686pt" height="109pt"
 viewBox="0.00 0.00 686.00 108.50" xmlns="http://www.w3.org/2000/svg" xmlns:xlink="http://www.w3.org/1999/xlink">
<g id="graph0" class="graph" transform="scale(1 1) rotate(0) translate(4 104.5)">
<title>mpqc::lcao::gaussian::DirectIntegralBuilder&lt; Tile, ComputeTile, Engine &gt;</title>
<!-- Node1 -->
<g id="Node000001" class="node">
<title>Node1</title>
<g id="a_Node000001"><a xlink:title=" ">
<polygon fill="#999999" stroke="#666666" points="678,-73.5 514,-73.5 514,-32.5 678,-32.5 678,-73.5"/>
<text text-anchor="start" x="522" y="-61.5" font-family="FreeSans" font-size="10.00">mpqc::lcao::gaussian</text>
<text text-anchor="start" x="522" y="-50.5" font-family="FreeSans" font-size="10.00">::DirectIntegralBuilder</text>
<text text-anchor="middle" x="596" y="-39.5" font-family="FreeSans" font-size="10.00">&lt; Tile, ComputeTile, Engine &gt;</text>
</a>
</g>
</g>
<!-- Node2 -->
<g id="Node000002" class="node">
<title>Node2</title>
<g id="a_Node000002"><a xlink:href="classmpqc_1_1lcao_1_1gaussian_1_1_integral_builder.html" target="_top" xlink:title="Builds integrals from an array of bases and an integral engine pool.">
<polygon fill="white" stroke="#666666" points="478,-100.5 346,-100.5 346,-59.5 478,-59.5 478,-100.5"/>
<text text-anchor="start" x="354" y="-88.5" font-family="FreeSans" font-size="10.00">mpqc::lcao::gaussian</text>
<text text-anchor="start" x="354" y="-77.5" font-family="FreeSans" font-size="10.00">::IntegralBuilder&lt; Tile,</text>
<text text-anchor="middle" x="412" y="-66.5" font-family="FreeSans" font-size="10.00"> ComputeTile, Engine &gt;</text>
</a>
</g>
</g>
<!-- Node2&#45;&gt;Node1 -->
<g id="edge1_Node000001_Node000002" class="edge">
<title>Node2&#45;&gt;Node1</title>
<g id="a_edge1_Node000001_Node000002"><a xlink:title=" ">
<path fill="none" stroke="#63b8ff" d="M488.32,-68.83C496.71,-67.58 505.29,-66.31 513.75,-65.05"/>
<polygon fill="#63b8ff" stroke="#63b8ff" points="487.57,-65.4 478.19,-70.33 488.6,-72.32 487.57,-65.4"/>
</a>
</g>
</g>
<!-- Node3 -->
<g id="Node000003" class="node">
<title>Node3</title>
<g id="a_Node000003"><a xlink:href="classmpqc_1_1enable__shared__from__this.html" target="_top" xlink:title="just like std::enable_shared_from_this but can appear multiple times in the subhierarchy of a class">
<polygon fill="white" stroke="#666666" points="472.5,-41 351.5,-41 351.5,-11 472.5,-11 472.5,-41"/>
<text text-anchor="start" x="359.5" y="-29" font-family="FreeSans" font-size="10.00">mpqc::enable_shared</text>
<text text-anchor="middle" x="412" y="-18" font-family="FreeSans" font-size="10.00">_from_this&lt; T &gt;</text>
</a>
</g>
</g>
<!-- Node3&#45;&gt;Node1 -->
<g id="edge2_Node000001_Node000003" class="edge">
<title>Node3&#45;&gt;Node1</title>
<g id="a_edge2_Node000001_Node000003"><a xlink:title=" ">
<path fill="none" stroke="#63b8ff" d="M482.64,-36.33C492.82,-37.84 503.39,-39.41 513.78,-40.95"/>
<polygon fill="#63b8ff" stroke="#63b8ff" points="483,-32.85 472.59,-34.84 481.97,-39.77 483,-32.85"/>
</a>
</g>
</g>
<!-- Node4 -->
<g id="Node000004" class="node">
<title>Node4</title>
<g id="a_Node000004"><a xlink:href="classmpqc_1_1detail_1_1virt__base__of__enable__shared__from__this.html" target="_top" xlink:title="helper class for mpqc::enable_shared_from_this">
<polygon fill="white" stroke="#666666" points="310,-46.5 173,-46.5 173,-5.5 310,-5.5 310,-46.5"/>
<text text-anchor="start" x="181" y="-34.5" font-family="FreeSans" font-size="10.00">mpqc::detail::virt</text>
<text text-anchor="start" x="181" y="-23.5" font-family="FreeSans" font-size="10.00">_base_of_enable_shared</text>
<text text-anchor="middle" x="241.5" y="-12.5" font-family="FreeSans" font-size="10.00">_from_this</text>
</a>
</g>
</g>
<!-- Node4&#45;&gt;Node3 -->
<g id="edge3_Node000003_Node000004" class="edge">
<title>Node4&#45;&gt;Node3</title>
<g id="a_edge3_Node000003_Node000004"><a xlink:title=" ">
<path fill="none" stroke="#63b8ff" d="M320.39,-26C330.78,-26 341.29,-26 351.31,-26"/>
<polygon fill="#63b8ff" stroke="#63b8ff" points="320.06,-22.5 310.06,-26 320.06,-29.5 320.06,-22.5"/>
</a>
</g>
</g>
<!-- Node5 -->
<g id="Node000005" class="node">
<title>Node5</title>
<g id="a_Node000005"><a xlink:title=" ">
<polygon fill="white" stroke="#666666" points="137,-52 0,-52 0,0 137,0 137,-52"/>
<text text-anchor="start" x="8" y="-40" font-family="FreeSans" font-size="10.00">std::enable_shared</text>
<text text-anchor="start" x="8" y="-29" font-family="FreeSans" font-size="10.00">_from_this&lt; virt_base</text>
<text text-anchor="start" x="8" y="-18" font-family="FreeSans" font-size="10.00">_of_enable_shared_from</text>
<text text-anchor="middle" x="68.5" y="-7" font-family="FreeSans" font-size="10.00">_this &gt;</text>
</a>
</g>
</g>
<!-- Node5&#45;&gt;Node4 -->
<g id="edge4_Node000004_Node000005" class="edge">
<title>Node5&#45;&gt;Node4</title>
<g id="a_edge4_Node000004_Node000005"><a xlink:title=" ">
<path fill="none" stroke="#63b8ff" d="M147.1,-26C155.69,-26 164.39,-26 172.85,-26"/>
<polygon fill="#63b8ff" stroke="#63b8ff" points="147.08,-22.5 137.08,-26 147.08,-29.5 147.08,-22.5"/>
</a>
</g>
</g>
</g>
</svg>
