<?xml version="1.0" encoding="UTF-8" standalone="no"?>
<!DOCTYPE svg PUBLIC "-//W3C//DTD SVG 1.1//EN"
 "http://www.w3.org/Graphics/SVG/1.1/DTD/svg11.dtd">
<!-- Generated by graphviz version 2.43.0 (0)
 -->
<!-- Title: mpqc::lcao::DFJ4cKFockBuilder&lt; Tile, Policy &gt; Pages: 1 -->
<svg width="175pt" height="456pt"
 viewBox="0.00 0.00 175.00 456.00" xmlns="http://www.w3.org/2000/svg" xmlns:xlink="http://www.w3.org/1999/xlink">
<g id="graph0" class="graph" transform="scale(1 1) rotate(0) translate(4 452)">
<title>mpqc::lcao::DFJ4cKFockBuilder&lt; Tile, Policy &gt;</title>
<!-- Node1 -->
<g id="Node000001" class="node">
<title>Node1</title>
<g id="a_Node000001"><a xlink:title=" ">
<polygon fill="#999999" stroke="#666666" points="167,-30 0,-30 0,0 167,0 167,-30"/>
<text text-anchor="start" x="8" y="-18" font-family="FreeSans" font-size="10.00">mpqc::lcao::DFJ4cKFockBuilder</text>
<text text-anchor="middle" x="83.5" y="-7" font-family="FreeSans" font-size="10.00">&lt; Tile, Policy &gt;</text>
</a>
</g>
</g>
<!-- Node2 -->
<g id="Node000002" class="node">
<title>Node2</title>
<g id="a_Node000002"><a xlink:href="classmpqc_1_1lcao_1_1_j_k_fock_builder.html" target="_top" xlink:title=" ">
<polygon fill="white" stroke="#666666" points="155,-96 12,-96 12,-66 155,-66 155,-96"/>
<text text-anchor="start" x="20" y="-84" font-family="FreeSans" font-size="10.00">mpqc::lcao::JKFockBuilder</text>
<text text-anchor="middle" x="83.5" y="-73" font-family="FreeSans" font-size="10.00">&lt; Tile, Policy &gt;</text>
</a>
</g>
</g>
<!-- Node2&#45;&gt;Node1 -->
<g id="edge1_Node000001_Node000002" class="edge">
<title>Node2&#45;&gt;Node1</title>
<g id="a_edge1_Node000001_Node000002"><a xlink:title=" ">
<path fill="none" stroke="#63b8ff" d="M83.5,-55.54C83.5,-46.96 83.5,-37.61 83.5,-30.16"/>
<polygon fill="#63b8ff" stroke="#63b8ff" points="80,-55.8 83.5,-65.8 87,-55.8 80,-55.8"/>
</a>
</g>
</g>
<!-- Node3 -->
<g id="Node000003" class="node">
<title>Node3</title>
<g id="a_Node000003"><a xlink:href="classmpqc_1_1lcao_1_1_fock_builder.html" target="_top" xlink:title=" ">
<polygon fill="white" stroke="#666666" points="150,-162 17,-162 17,-132 150,-132 150,-162"/>
<text text-anchor="start" x="25" y="-150" font-family="FreeSans" font-size="10.00">mpqc::lcao::FockBuilder</text>
<text text-anchor="middle" x="83.5" y="-139" font-family="FreeSans" font-size="10.00">&lt; Tile, Policy &gt;</text>
</a>
</g>
</g>
<!-- Node3&#45;&gt;Node2 -->
<g id="edge2_Node000002_Node000003" class="edge">
<title>Node3&#45;&gt;Node2</title>
<g id="a_edge2_Node000002_Node000003"><a xlink:title=" ">
<path fill="none" stroke="#63b8ff" d="M83.5,-121.54C83.5,-112.96 83.5,-103.61 83.5,-96.16"/>
<polygon fill="#63b8ff" stroke="#63b8ff" points="80,-121.8 83.5,-131.8 87,-121.8 80,-121.8"/>
</a>
</g>
</g>
<!-- Node4 -->
<g id="Node000004" class="node">
<title>Node4</title>
<g id="a_Node000004"><a xlink:href="classmpqc_1_1_described_class.html" target="_top" xlink:title=" ">
<polygon fill="white" stroke="#666666" points="146,-217 21,-217 21,-198 146,-198 146,-217"/>
<text text-anchor="middle" x="83.5" y="-205" font-family="FreeSans" font-size="10.00">mpqc::DescribedClass</text>
</a>
</g>
</g>
<!-- Node4&#45;&gt;Node3 -->
<g id="edge3_Node000003_Node000004" class="edge">
<title>Node4&#45;&gt;Node3</title>
<g id="a_edge3_Node000003_Node000004"><a xlink:title=" ">
<path fill="none" stroke="#63b8ff" d="M83.5,-187.65C83.5,-179.36 83.5,-169.78 83.5,-162.11"/>
<polygon fill="#63b8ff" stroke="#63b8ff" points="80,-187.87 83.5,-197.87 87,-187.87 80,-187.87"/>
</a>
</g>
</g>
<!-- Node5 -->
<g id="Node000005" class="node">
<title>Node5</title>
<g id="a_Node000005"><a xlink:href="classmpqc_1_1enable__shared__from__this.html" target="_top" xlink:title=" ">
<polygon fill="white" stroke="#666666" points="166.5,-283 0.5,-283 0.5,-253 166.5,-253 166.5,-283"/>
<text text-anchor="start" x="8.5" y="-271" font-family="FreeSans" font-size="10.00">mpqc::enable_shared</text>
<text text-anchor="middle" x="83.5" y="-260" font-family="FreeSans" font-size="10.00">_from_this&lt; DescribedClass &gt;</text>
</a>
</g>
</g>
<!-- Node5&#45;&gt;Node4 -->
<g id="edge4_Node000004_Node000005" class="edge">
<title>Node5&#45;&gt;Node4</title>
<g id="a_edge4_Node000004_Node000005"><a xlink:title=" ">
<path fill="none" stroke="#63b8ff" d="M83.5,-242.75C83.5,-233.72 83.5,-224.03 83.5,-217.27"/>
<polygon fill="#63b8ff" stroke="#63b8ff" points="80,-242.84 83.5,-252.84 87,-242.84 80,-242.84"/>
</a>
</g>
</g>
<!-- Node6 -->
<g id="Node000006" class="node">
<title>Node6</title>
<g id="a_Node000006"><a xlink:href="classmpqc_1_1detail_1_1virt__base__of__enable__shared__from__this.html" target="_top" xlink:title="helper class for mpqc::enable_shared_from_this">
<polygon fill="white" stroke="#666666" points="152,-360 15,-360 15,-319 152,-319 152,-360"/>
<text text-anchor="start" x="23" y="-348" font-family="FreeSans" font-size="10.00">mpqc::detail::virt</text>
<text text-anchor="start" x="23" y="-337" font-family="FreeSans" font-size="10.00">_base_of_enable_shared</text>
<text text-anchor="middle" x="83.5" y="-326" font-family="FreeSans" font-size="10.00">_from_this</text>
</a>
</g>
</g>
<!-- Node6&#45;&gt;Node5 -->
<g id="edge5_Node000005_Node000006" class="edge">
<title>Node6&#45;&gt;Node5</title>
<g id="a_edge5_Node000005_Node000006"><a xlink:title=" ">
<path fill="none" stroke="#63b8ff" d="M83.5,-308.66C83.5,-299.76 83.5,-290.42 83.5,-283.04"/>
<polygon fill="#63b8ff" stroke="#63b8ff" points="80,-308.77 83.5,-318.77 87,-308.77 80,-308.77"/>
</a>
</g>
</g>
<!-- Node7 -->
<g id="Node000007" class="node">
<title>Node7</title>
<g id="a_Node000007"><a xlink:title=" ">
<polygon fill="white" stroke="#666666" points="152,-448 15,-448 15,-396 152,-396 152,-448"/>
<text text-anchor="start" x="23" y="-436" font-family="FreeSans" font-size="10.00">std::enable_shared</text>
<text text-anchor="start" x="23" y="-425" font-family="FreeSans" font-size="10.00">_from_this&lt; virt_base</text>
<text text-anchor="start" x="23" y="-414" font-family="FreeSans" font-size="10.00">_of_enable_shared_from</text>
<text text-anchor="middle" x="83.5" y="-403" font-family="FreeSans" font-size="10.00">_this &gt;</text>
</a>
</g>
</g>
<!-- Node7&#45;&gt;Node6 -->
<g id="edge6_Node000006_Node000007" class="edge">
<title>Node7&#45;&gt;Node6</title>
<g id="a_edge6_Node000006_Node000007"><a xlink:title=" ">
<path fill="none" stroke="#63b8ff" d="M83.5,-385.87C83.5,-377.05 83.5,-367.9 83.5,-360.15"/>
<polygon fill="#63b8ff" stroke="#63b8ff" points="80,-385.97 83.5,-395.97 87,-385.97 80,-385.97"/>
</a>
</g>
</g>
</g>
</svg>
