<?xml version="1.0" encoding="UTF-8" standalone="no"?>
<!DOCTYPE svg PUBLIC "-//W3C//DTD SVG 1.1//EN"
 "http://www.w3.org/Graphics/SVG/1.1/DTD/svg11.dtd">
<!-- Generated by graphviz version 2.43.0 (0)
 -->
<!-- Title: mpqc::lcao::ClrDfJCadfKFockBuilder&lt; Tile, Policy, DirectArray &gt; Pages: 1 -->
<!--zoomable 456 -->

<svg id="main" version="1.1" xmlns="http://www.w3.org/2000/svg" xmlns:xlink="http://www.w3.org/1999/xlink" xml:space="preserve" onload="init(evt)">
<style type="text/css"><![CDATA[
.node, .edge {opacity: 0.7;}
.node.selected, .edge.selected {opacity: 1;}
.edge:hover path { stroke: red; }
.edge:hover polygon { stroke: red; fill: red; }
]]></style>

<defs>
  <circle id="rim" cx="0" cy="0" r="7"/>
  <circle id="rim2" cx="0" cy="0" r="3.5"/>
  <g id="zoomPlus">
    <use xlink:href="#rim" fill="#404040"><set attributeName="fill" to="#808080" begin="zoomplus.mouseover" end="zoomplus.mouseout"/></use>
    <path d="M-4,0h8M0,-4v8" fill="none" stroke="white" stroke-width="1.5" pointer-events="none"/>
  </g>
  <g id="zoomMin">
    <use xlink:href="#rim" fill="#404040"><set attributeName="fill" to="#808080" begin="zoomminus.mouseover" end="zoomminus.mouseout"/></use>
    <path d="M-4,0h8" fill="none" stroke="white" stroke-width="1.5" pointer-events="none"/>
  </g>
  <g id="arrowUp" transform="translate(30 24)">
    <use xlink:href="#rim"/>
    <path pointer-events="none" fill="none" stroke="white" stroke-width="1.5" d="M0,-3.0v7 M-2.5,-0.5L0,-3.0L2.5,-0.5"/>
  </g>
  <g id="arrowRight" transform="rotate(90) translate(36 -43)">
    <use xlink:href="#rim"/>
    <path pointer-events="none" fill="none" stroke="white" stroke-width="1.5" d="M0,-3.0v7 M-2.5,-0.5L0,-3.0L2.5,-0.5"/>
  </g>
  <g id="arrowDown" transform="rotate(180) translate(-30 -48)">
    <use xlink:href="#rim"/>
    <path pointer-events="none" fill="none" stroke="white" stroke-width="1.5" d="M0,-3.0v7 M-2.5,-0.5L0,-3.0L2.5,-0.5"/>
  </g>
  <g id="arrowLeft" transform="rotate(270) translate(-36 17)">
    <use xlink:href="#rim"/>
    <path pointer-events="none" fill="none" stroke="white" stroke-width="1.5" d="M0,-3.0v7 M-2.5,-0.5L0,-3.0L2.5,-0.5"/>
  </g>
  <g id="resetDef">
    <use xlink:href="#rim2" fill="#404040"><set attributeName="fill" to="#808080" begin="reset.mouseover" end="reset.mouseout"/></use>
  </g>
</defs>
<script type="application/ecmascript">
var viewWidth = 196;
var viewHeight = 456;
var sectionId = 'dynsection-0';
</script>
<script type="application/ecmascript" xlink:href="svg.min.js"/>
<svg id="graph" class="graph">
<g id="viewport">
<title>mpqc::lcao::ClrDfJCadfKFockBuilder&lt; Tile, Policy, DirectArray &gt;</title>
<!-- Node1 -->
<g id="Node000001" class="node">
<title>Node1</title>
<g id="a_Node000001"><a xlink:title=" ">
<polygon fill="#999999" stroke="#666666" points="188,-30 0,-30 0,0 188,0 188,-30"/>
<text text-anchor="start" x="8" y="-18" font-family="FreeSans" font-size="10.00">mpqc::lcao::ClrDfJCadfKFock</text>
<text text-anchor="middle" x="94" y="-7" font-family="FreeSans" font-size="10.00">Builder&lt; Tile, Policy, DirectArray &gt;</text>
</a>
</g>
</g>
<!-- Node2 -->
<g id="Node000002" class="node">
<title>Node2</title>
<g id="a_Node000002"><a xlink:href="classmpqc_1_1lcao_1_1_j_k_fock_builder.html" target="_top" xlink:title=" ">
<polygon fill="white" stroke="#666666" points="165.5,-96 22.5,-96 22.5,-66 165.5,-66 165.5,-96"/>
<text text-anchor="start" x="30.5" y="-84" font-family="FreeSans" font-size="10.00">mpqc::lcao::JKFockBuilder</text>
<text text-anchor="middle" x="94" y="-73" font-family="FreeSans" font-size="10.00">&lt; Tile, Policy &gt;</text>
</a>
</g>
</g>
<!-- Node2&#45;&gt;Node1 -->
<g id="edge1_Node000001_Node000002" class="edge">
<title>Node2&#45;&gt;Node1</title>
<g id="a_edge1_Node000001_Node000002"><a xlink:title=" ">
<path fill="none" stroke="#63b8ff" d="M94,-55.54C94,-46.96 94,-37.61 94,-30.16"/>
<polygon fill="#63b8ff" stroke="#63b8ff" points="90.5,-55.8 94,-65.8 97.5,-55.8 90.5,-55.8"/>
</a>
</g>
</g>
<!-- Node3 -->
<g id="Node000003" class="node">
<title>Node3</title>
<g id="a_Node000003"><a xlink:href="classmpqc_1_1lcao_1_1_fock_builder.html" target="_top" xlink:title=" ">
<polygon fill="white" stroke="#666666" points="160.5,-162 27.5,-162 27.5,-132 160.5,-132 160.5,-162"/>
<text text-anchor="start" x="35.5" y="-150" font-family="FreeSans" font-size="10.00">mpqc::lcao::FockBuilder</text>
<text text-anchor="middle" x="94" y="-139" font-family="FreeSans" font-size="10.00">&lt; Tile, Policy &gt;</text>
</a>
</g>
</g>
<!-- Node3&#45;&gt;Node2 -->
<g id="edge2_Node000002_Node000003" class="edge">
<title>Node3&#45;&gt;Node2</title>
<g id="a_edge2_Node000002_Node000003"><a xlink:title=" ">
<path fill="none" stroke="#63b8ff" d="M94,-121.54C94,-112.96 94,-103.61 94,-96.16"/>
<polygon fill="#63b8ff" stroke="#63b8ff" points="90.5,-121.8 94,-131.8 97.5,-121.8 90.5,-121.8"/>
</a>
</g>
</g>
<!-- Node4 -->
<g id="Node000004" class="node">
<title>Node4</title>
<g id="a_Node000004"><a xlink:href="classmpqc_1_1_described_class.html" target="_top" xlink:title=" ">
<polygon fill="white" stroke="#666666" points="156.5,-217 31.5,-217 31.5,-198 156.5,-198 156.5,-217"/>
<text text-anchor="middle" x="94" y="-205" font-family="FreeSans" font-size="10.00">mpqc::DescribedClass</text>
</a>
</g>
</g>
<!-- Node4&#45;&gt;Node3 -->
<g id="edge3_Node000003_Node000004" class="edge">
<title>Node4&#45;&gt;Node3</title>
<g id="a_edge3_Node000003_Node000004"><a xlink:title=" ">
<path fill="none" stroke="#63b8ff" d="M94,-187.65C94,-179.36 94,-169.78 94,-162.11"/>
<polygon fill="#63b8ff" stroke="#63b8ff" points="90.5,-187.87 94,-197.87 97.5,-187.87 90.5,-187.87"/>
</a>
</g>
</g>
<!-- Node5 -->
<g id="Node000005" class="node">
<title>Node5</title>
<g id="a_Node000005"><a xlink:href="classmpqc_1_1enable__shared__from__this.html" target="_top" xlink:title=" ">
<polygon fill="white" stroke="#666666" points="177,-283 11,-283 11,-253 177,-253 177,-283"/>
<text text-anchor="start" x="19" y="-271" font-family="FreeSans" font-size="10.00">mpqc::enable_shared</text>
<text text-anchor="middle" x="94" y="-260" font-family="FreeSans" font-size="10.00">_from_this&lt; DescribedClass &gt;</text>
</a>
</g>
</g>
<!-- Node5&#45;&gt;Node4 -->
<g id="edge4_Node000004_Node000005" class="edge">
<title>Node5&#45;&gt;Node4</title>
<g id="a_edge4_Node000004_Node000005"><a xlink:title=" ">
<path fill="none" stroke="#63b8ff" d="M94,-242.75C94,-233.72 94,-224.03 94,-217.27"/>
<polygon fill="#63b8ff" stroke="#63b8ff" points="90.5,-242.84 94,-252.84 97.5,-242.84 90.5,-242.84"/>
</a>
</g>
</g>
<!-- Node6 -->
<g id="Node000006" class="node">
<title>Node6</title>
<g id="a_Node000006"><a xlink:href="classmpqc_1_1detail_1_1virt__base__of__enable__shared__from__this.html" target="_top" xlink:title="helper class for mpqc::enable_shared_from_this">
<polygon fill="white" stroke="#666666" points="162.5,-360 25.5,-360 25.5,-319 162.5,-319 162.5,-360"/>
<text text-anchor="start" x="33.5" y="-348" font-family="FreeSans" font-size="10.00">mpqc::detail::virt</text>
<text text-anchor="start" x="33.5" y="-337" font-family="FreeSans" font-size="10.00">_base_of_enable_shared</text>
<text text-anchor="middle" x="94" y="-326" font-family="FreeSans" font-size="10.00">_from_this</text>
</a>
</g>
</g>
<!-- Node6&#45;&gt;Node5 -->
<g id="edge5_Node000005_Node000006" class="edge">
<title>Node6&#45;&gt;Node5</title>
<g id="a_edge5_Node000005_Node000006"><a xlink:title=" ">
<path fill="none" stroke="#63b8ff" d="M94,-308.66C94,-299.76 94,-290.42 94,-283.04"/>
<polygon fill="#63b8ff" stroke="#63b8ff" points="90.5,-308.77 94,-318.77 97.5,-308.77 90.5,-308.77"/>
</a>
</g>
</g>
<!-- Node7 -->
<g id="Node000007" class="node">
<title>Node7</title>
<g id="a_Node000007"><a xlink:title=" ">
<polygon fill="white" stroke="#666666" points="162.5,-448 25.5,-448 25.5,-396 162.5,-396 162.5,-448"/>
<text text-anchor="start" x="33.5" y="-436" font-family="FreeSans" font-size="10.00">std::enable_shared</text>
<text text-anchor="start" x="33.5" y="-425" font-family="FreeSans" font-size="10.00">_from_this&lt; virt_base</text>
<text text-anchor="start" x="33.5" y="-414" font-family="FreeSans" font-size="10.00">_of_enable_shared_from</text>
<text text-anchor="middle" x="94" y="-403" font-family="FreeSans" font-size="10.00">_this &gt;</text>
</a>
</g>
</g>
<!-- Node7&#45;&gt;Node6 -->
<g id="edge6_Node000006_Node000007" class="edge">
<title>Node7&#45;&gt;Node6</title>
<g id="a_edge6_Node000006_Node000007"><a xlink:title=" ">
<path fill="none" stroke="#63b8ff" d="M94,-385.87C94,-377.05 94,-367.9 94,-360.15"/>
<polygon fill="#63b8ff" stroke="#63b8ff" points="90.5,-385.97 94,-395.97 97.5,-385.97 90.5,-385.97"/>
</a>
</g>
</g>
</g>
</svg>

<g id="navigator" transform="translate(0 0)" fill="#404254">
  <rect fill="#f2f5e9" fill-opacity="0.5" stroke="#606060" stroke-width=".5" x="0" y="0" width="60" height="60"/>
  <use id="zoomplus" xlink:href="#zoomPlus" x="17" y="9" onmousedown="handleZoom(evt,'in')"/>
  <use id="zoomminus" xlink:href="#zoomMin" x="42" y="9" onmousedown="handleZoom(evt,'out')"/>
  <use id="reset" xlink:href="#resetDef" x="30" y="36" onmousedown="handleReset()"/>
   <use id="arrowup" xlink:href="#arrowUp" x="0" y="0" onmousedown="handlePan(0,-1)"/>
  <use id="arrowright" xlink:href="#arrowRight" x="0" y="0" onmousedown="handlePan(1,0)"/>
  <use id="arrowdown" xlink:href="#arrowDown" x="0" y="0" onmousedown="handlePan(0,1)"/>
  <use id="arrowleft" xlink:href="#arrowLeft" x="0" y="0" onmousedown="handlePan(-1,0)"/>
</g>
<svg viewBox="0 0 15 15" width="100%" height="30px" preserveAspectRatio="xMaxYMin meet">
 <g id="arrow_out" transform="scale(0.3 0.3)">
  <a xlink:href="classmpqc_1_1lcao_1_1_clr_df_j_cadf_k_fock_builder__coll__graph_org.svg" target="_base">
   <rect id="button" ry="5" rx="5" y="6" x="6" height="38" width="38"
        fill="#f2f5e9" fill-opacity="0.5" stroke="#606060" stroke-width="1.0"/>
   <path id="arrow"
     d="M 11.500037,31.436501 C 11.940474,20.09759 22.043105,11.32322 32.158766,21.979434 L 37.068811,17.246167 C 37.068811,17.246167 37.088388,32 37.088388,32 L 22.160133,31.978069 C 22.160133,31.978069 26.997745,27.140456 26.997745,27.140456 C 18.528582,18.264221 13.291696,25.230495 11.500037,31.436501 z"
     style="fill:#404040;"/>
  </a>
 </g>
</svg>

<style type='text/css'>
<![CDATA[
[data-mouse-over-selected='false'] { opacity: 0.7; }
[data-mouse-over-selected='true']  { opacity: 1.0; }
]]>
</style>
<script type="application/ecmascript"><![CDATA[
document.addEventListener('DOMContentLoaded', (event) => {
  highlightEdges();
  highlightAdjacentNodes();
});
]]></script>
</svg>
