<?xml version="1.0" encoding="UTF-8" standalone="no"?>
<!DOCTYPE svg PUBLIC "-//W3C//DTD SVG 1.1//EN"
 "http://www.w3.org/Graphics/SVG/1.1/DTD/svg11.dtd">
<!-- Generated by graphviz version 2.43.0 (0)
 -->
<!-- Title: mpqc::lcao::WavefunctionWorld Pages: 1 -->
<svg width="174pt" height="379pt"
 viewBox="0.00 0.00 174.00 379.00" xmlns="http://www.w3.org/2000/svg" xmlns:xlink="http://www.w3.org/1999/xlink">
<g id="graph0" class="graph" transform="scale(1 1) rotate(0) translate(4 375)">
<title>mpqc::lcao::WavefunctionWorld</title>
<!-- Node1 -->
<g id="Node000001" class="node">
<title>Node1</title>
<g id="a_Node000001"><a xlink:title="specialization of mpqc::WavefunctionWorld to the LCAO case">
<polygon fill="#999999" stroke="#666666" points="154.5,-30 11.5,-30 11.5,0 154.5,0 154.5,-30"/>
<text text-anchor="start" x="19.5" y="-18" font-family="FreeSans" font-size="10.00">mpqc::lcao::Wavefunction</text>
<text text-anchor="middle" x="83" y="-7" font-family="FreeSans" font-size="10.00">World</text>
</a>
</g>
</g>
<!-- Node2 -->
<g id="Node000002" class="node">
<title>Node2</title>
<g id="a_Node000002"><a xlink:href="classmpqc_1_1_wavefunction_world.html" target="_top" xlink:title="It provides an execution context (madness::World) and a set of atoms.">
<polygon fill="white" stroke="#666666" points="155,-85 11,-85 11,-66 155,-66 155,-85"/>
<text text-anchor="middle" x="83" y="-73" font-family="FreeSans" font-size="10.00">mpqc::WavefunctionWorld</text>
</a>
</g>
</g>
<!-- Node2&#45;&gt;Node1 -->
<g id="edge1_Node000001_Node000002" class="edge">
<title>Node2&#45;&gt;Node1</title>
<g id="a_edge1_Node000001_Node000002"><a xlink:title=" ">
<path fill="none" stroke="#63b8ff" d="M83,-55.65C83,-47.36 83,-37.78 83,-30.11"/>
<polygon fill="#63b8ff" stroke="#63b8ff" points="79.5,-55.87 83,-65.87 86.5,-55.87 79.5,-55.87"/>
</a>
</g>
</g>
<!-- Node3 -->
<g id="Node000003" class="node">
<title>Node3</title>
<g id="a_Node000003"><a xlink:href="classmpqc_1_1_described_class.html" target="_top" xlink:title=" ">
<polygon fill="white" stroke="#666666" points="145.5,-140 20.5,-140 20.5,-121 145.5,-121 145.5,-140"/>
<text text-anchor="middle" x="83" y="-128" font-family="FreeSans" font-size="10.00">mpqc::DescribedClass</text>
</a>
</g>
</g>
<!-- Node3&#45;&gt;Node2 -->
<g id="edge2_Node000002_Node000003" class="edge">
<title>Node3&#45;&gt;Node2</title>
<g id="a_edge2_Node000002_Node000003"><a xlink:title=" ">
<path fill="none" stroke="#63b8ff" d="M83,-110.66C83,-101.93 83,-91.99 83,-85.09"/>
<polygon fill="#63b8ff" stroke="#63b8ff" points="79.5,-110.75 83,-120.75 86.5,-110.75 79.5,-110.75"/>
</a>
</g>
</g>
<!-- Node4 -->
<g id="Node000004" class="node">
<title>Node4</title>
<g id="a_Node000004"><a xlink:href="classmpqc_1_1enable__shared__from__this.html" target="_top" xlink:title=" ">
<polygon fill="white" stroke="#666666" points="166,-206 0,-206 0,-176 166,-176 166,-206"/>
<text text-anchor="start" x="8" y="-194" font-family="FreeSans" font-size="10.00">mpqc::enable_shared</text>
<text text-anchor="middle" x="83" y="-183" font-family="FreeSans" font-size="10.00">_from_this&lt; DescribedClass &gt;</text>
</a>
</g>
</g>
<!-- Node4&#45;&gt;Node3 -->
<g id="edge3_Node000003_Node000004" class="edge">
<title>Node4&#45;&gt;Node3</title>
<g id="a_edge3_Node000003_Node000004"><a xlink:title=" ">
<path fill="none" stroke="#63b8ff" d="M83,-165.75C83,-156.72 83,-147.03 83,-140.27"/>
<polygon fill="#63b8ff" stroke="#63b8ff" points="79.5,-165.84 83,-175.84 86.5,-165.84 79.5,-165.84"/>
</a>
</g>
</g>
<!-- Node5 -->
<g id="Node000005" class="node">
<title>Node5</title>
<g id="a_Node000005"><a xlink:href="classmpqc_1_1detail_1_1virt__base__of__enable__shared__from__this.html" target="_top" xlink:title="helper class for mpqc::enable_shared_from_this">
<polygon fill="white" stroke="#666666" points="151.5,-283 14.5,-283 14.5,-242 151.5,-242 151.5,-283"/>
<text text-anchor="start" x="22.5" y="-271" font-family="FreeSans" font-size="10.00">mpqc::detail::virt</text>
<text text-anchor="start" x="22.5" y="-260" font-family="FreeSans" font-size="10.00">_base_of_enable_shared</text>
<text text-anchor="middle" x="83" y="-249" font-family="FreeSans" font-size="10.00">_from_this</text>
</a>
</g>
</g>
<!-- Node5&#45;&gt;Node4 -->
<g id="edge4_Node000004_Node000005" class="edge">
<title>Node5&#45;&gt;Node4</title>
<g id="a_edge4_Node000004_Node000005"><a xlink:title=" ">
<path fill="none" stroke="#63b8ff" d="M83,-231.66C83,-222.76 83,-213.42 83,-206.04"/>
<polygon fill="#63b8ff" stroke="#63b8ff" points="79.5,-231.77 83,-241.77 86.5,-231.77 79.5,-231.77"/>
</a>
</g>
</g>
<!-- Node6 -->
<g id="Node000006" class="node">
<title>Node6</title>
<g id="a_Node000006"><a xlink:title=" ">
<polygon fill="white" stroke="#666666" points="151.5,-371 14.5,-371 14.5,-319 151.5,-319 151.5,-371"/>
<text text-anchor="start" x="22.5" y="-359" font-family="FreeSans" font-size="10.00">std::enable_shared</text>
<text text-anchor="start" x="22.5" y="-348" font-family="FreeSans" font-size="10.00">_from_this&lt; virt_base</text>
<text text-anchor="start" x="22.5" y="-337" font-family="FreeSans" font-size="10.00">_of_enable_shared_from</text>
<text text-anchor="middle" x="83" y="-326" font-family="FreeSans" font-size="10.00">_this &gt;</text>
</a>
</g>
</g>
<!-- Node6&#45;&gt;Node5 -->
<g id="edge5_Node000005_Node000006" class="edge">
<title>Node6&#45;&gt;Node5</title>
<g id="a_edge5_Node000005_Node000006"><a xlink:title=" ">
<path fill="none" stroke="#63b8ff" d="M83,-308.87C83,-300.05 83,-290.9 83,-283.15"/>
<polygon fill="#63b8ff" stroke="#63b8ff" points="79.5,-308.97 83,-318.97 86.5,-308.97 79.5,-308.97"/>
</a>
</g>
</g>
</g>
</svg>
