<?xml version="1.0" encoding="UTF-8" standalone="no"?>
<!DOCTYPE svg PUBLIC "-//W3C//DTD SVG 1.1//EN"
 "http://www.w3.org/Graphics/SVG/1.1/DTD/svg11.dtd">
<!-- Generated by graphviz version 2.43.0 (0)
 -->
<!-- Title: mpqc::lcao::model::AOFactory&lt; Tile, Policy &gt; Pages: 1 -->
<!--zoomable 236 -->

<svg id="main" version="1.1" xmlns="http://www.w3.org/2000/svg" xmlns:xlink="http://www.w3.org/1999/xlink" xml:space="preserve" onload="init(evt)">
<style type="text/css"><![CDATA[
.node, .edge {opacity: 0.7;}
.node.selected, .edge.selected {opacity: 1;}
.edge:hover path { stroke: red; }
.edge:hover polygon { stroke: red; fill: red; }
]]></style>

<defs>
  <circle id="rim" cx="0" cy="0" r="7"/>
  <circle id="rim2" cx="0" cy="0" r="3.5"/>
  <g id="zoomPlus">
    <use xlink:href="#rim" fill="#404040"><set attributeName="fill" to="#808080" begin="zoomplus.mouseover" end="zoomplus.mouseout"/></use>
    <path d="M-4,0h8M0,-4v8" fill="none" stroke="white" stroke-width="1.5" pointer-events="none"/>
  </g>
  <g id="zoomMin">
    <use xlink:href="#rim" fill="#404040"><set attributeName="fill" to="#808080" begin="zoomminus.mouseover" end="zoomminus.mouseout"/></use>
    <path d="M-4,0h8" fill="none" stroke="white" stroke-width="1.5" pointer-events="none"/>
  </g>
  <g id="arrowUp" transform="translate(30 24)">
    <use xlink:href="#rim"/>
    <path pointer-events="none" fill="none" stroke="white" stroke-width="1.5" d="M0,-3.0v7 M-2.5,-0.5L0,-3.0L2.5,-0.5"/>
  </g>
  <g id="arrowRight" transform="rotate(90) translate(36 -43)">
    <use xlink:href="#rim"/>
    <path pointer-events="none" fill="none" stroke="white" stroke-width="1.5" d="M0,-3.0v7 M-2.5,-0.5L0,-3.0L2.5,-0.5"/>
  </g>
  <g id="arrowDown" transform="rotate(180) translate(-30 -48)">
    <use xlink:href="#rim"/>
    <path pointer-events="none" fill="none" stroke="white" stroke-width="1.5" d="M0,-3.0v7 M-2.5,-0.5L0,-3.0L2.5,-0.5"/>
  </g>
  <g id="arrowLeft" transform="rotate(270) translate(-36 17)">
    <use xlink:href="#rim"/>
    <path pointer-events="none" fill="none" stroke="white" stroke-width="1.5" d="M0,-3.0v7 M-2.5,-0.5L0,-3.0L2.5,-0.5"/>
  </g>
  <g id="resetDef">
    <use xlink:href="#rim2" fill="#404040"><set attributeName="fill" to="#808080" begin="reset.mouseover" end="reset.mouseout"/></use>
  </g>
</defs>
<script type="application/ecmascript">
var viewWidth = 1463;
var viewHeight = 236;
var sectionId = 'dynsection-0';
</script>
<script type="application/ecmascript" xlink:href="svg.min.js"/>
<svg id="graph" class="graph">
<g id="viewport">
<title>mpqc::lcao::model::AOFactory&lt; Tile, Policy &gt;</title>
<!-- Node1 -->
<g id="Node000001" class="node">
<title>Node1</title>
<g id="a_Node000001"><a xlink:title="Model AO integral factory using user&#45;provided many&#45;body Hamiltonian and metric.">
<polygon fill="#999999" stroke="#666666" points="1455,-130 1313,-130 1313,-100 1455,-100 1455,-130"/>
<text text-anchor="start" x="1321" y="-118" font-family="FreeSans" font-size="10.00">mpqc::lcao::model::</text>
<text text-anchor="middle" x="1384" y="-107" font-family="FreeSans" font-size="10.00">AOFactory&lt; Tile, Policy &gt;</text>
</a>
</g>
</g>
<!-- Node2 -->
<g id="Node000002" class="node">
<title>Node2</title>
<g id="a_Node000002"><a xlink:href="classmpqc_1_1lcao_1_1_a_o_factory.html" target="_top" xlink:title="Abstract AO integral factory.">
<polygon fill="white" stroke="#666666" points="1276,-130 1151,-130 1151,-100 1276,-100 1276,-130"/>
<text text-anchor="start" x="1159" y="-118" font-family="FreeSans" font-size="10.00">mpqc::lcao::AOFactory</text>
<text text-anchor="middle" x="1213.5" y="-107" font-family="FreeSans" font-size="10.00">&lt; Tile, Policy &gt;</text>
</a>
</g>
</g>
<!-- Node2&#45;&gt;Node1 -->
<g id="edge1_Node000001_Node000002" class="edge">
<title>Node2&#45;&gt;Node1</title>
<g id="a_edge1_Node000001_Node000002"><a xlink:title=" ">
<path fill="none" stroke="#63b8ff" d="M1286.48,-115C1295.26,-115 1304.21,-115 1312.96,-115"/>
<polygon fill="#63b8ff" stroke="#63b8ff" points="1286.29,-111.5 1276.29,-115 1286.29,-118.5 1286.29,-111.5"/>
</a>
</g>
</g>
<!-- Node3 -->
<g id="Node000003" class="node">
<title>Node3</title>
<g id="a_Node000003"><a xlink:title=" ">
<polygon fill="white" stroke="#666666" points="1114,-135.5 987,-135.5 987,-94.5 1114,-94.5 1114,-135.5"/>
<text text-anchor="start" x="995" y="-123.5" font-family="FreeSans" font-size="10.00">mpqc::lcao::Factory</text>
<text text-anchor="start" x="995" y="-112.5" font-family="FreeSans" font-size="10.00">::OrbitalFactoryBase</text>
<text text-anchor="middle" x="1050.5" y="-101.5" font-family="FreeSans" font-size="10.00">&lt; Array, DirectArray &gt;</text>
</a>
</g>
</g>
<!-- Node3&#45;&gt;Node2 -->
<g id="edge2_Node000002_Node000003" class="edge">
<title>Node3&#45;&gt;Node2</title>
<g id="a_edge2_Node000002_Node000003"><a xlink:title=" ">
<path fill="none" stroke="#63b8ff" d="M1124.45,-115C1133.24,-115 1142.15,-115 1150.76,-115"/>
<polygon fill="#63b8ff" stroke="#63b8ff" points="1124.21,-111.5 1114.21,-115 1124.21,-118.5 1124.21,-111.5"/>
</a>
</g>
</g>
<!-- Node4 -->
<g id="Node000004" class="node">
<title>Node4</title>
<g id="a_Node000004"><a xlink:href="classmpqc_1_1lcao_1_1_factory.html" target="_top" xlink:title="Abstract integral factory.">
<polygon fill="white" stroke="#666666" points="862.5,-198.5 751.5,-198.5 751.5,-179.5 862.5,-179.5 862.5,-198.5"/>
<text text-anchor="middle" x="807" y="-186.5" font-family="FreeSans" font-size="10.00">mpqc::lcao::Factory</text>
</a>
</g>
</g>
<!-- Node4&#45;&gt;Node3 -->
<g id="edge3_Node000003_Node000004" class="edge">
<title>Node4&#45;&gt;Node3</title>
<g id="a_edge3_Node000003_Node000004"><a xlink:title=" ">
<path fill="none" stroke="#63b8ff" d="M862.11,-177.21C893.61,-169.86 933.91,-159.6 969,-148 979.9,-144.4 991.42,-140.03 1002.24,-135.66"/>
<polygon fill="#63b8ff" stroke="#63b8ff" points="861.17,-173.84 852.21,-179.5 862.74,-180.66 861.17,-173.84"/>
</a>
</g>
</g>
<!-- Node5 -->
<g id="Node000005" class="node">
<title>Node5</title>
<g id="a_Node000005"><a xlink:href="classmpqc_1_1_described_class.html" target="_top" xlink:title=" ">
<polygon fill="white" stroke="#666666" points="690.5,-211.5 565.5,-211.5 565.5,-192.5 690.5,-192.5 690.5,-211.5"/>
<text text-anchor="middle" x="628" y="-199.5" font-family="FreeSans" font-size="10.00">mpqc::DescribedClass</text>
</a>
</g>
</g>
<!-- Node5&#45;&gt;Node4 -->
<g id="edge4_Node000004_Node000005" class="edge">
<title>Node5&#45;&gt;Node4</title>
<g id="a_edge4_Node000004_Node000005"><a xlink:title=" ">
<path fill="none" stroke="#63b8ff" d="M701.18,-196.7C717.89,-195.47 735.39,-194.19 751.21,-193.02"/>
<polygon fill="#63b8ff" stroke="#63b8ff" points="700.62,-193.23 690.91,-197.45 701.14,-200.21 700.62,-193.23"/>
</a>
</g>
</g>
<!-- Node6 -->
<g id="Node000006" class="node">
<title>Node6</title>
<g id="a_Node000006"><a xlink:href="classmpqc_1_1enable__shared__from__this.html" target="_top" xlink:title=" ">
<polygon fill="white" stroke="#666666" points="514,-217 348,-217 348,-187 514,-187 514,-217"/>
<text text-anchor="start" x="356" y="-205" font-family="FreeSans" font-size="10.00">mpqc::enable_shared</text>
<text text-anchor="middle" x="431" y="-194" font-family="FreeSans" font-size="10.00">_from_this&lt; DescribedClass &gt;</text>
</a>
</g>
</g>
<!-- Node6&#45;&gt;Node5 -->
<g id="edge5_Node000005_Node000006" class="edge">
<title>Node6&#45;&gt;Node5</title>
<g id="a_edge5_Node000005_Node000006"><a xlink:title=" ">
<path fill="none" stroke="#63b8ff" d="M524.25,-202C538.21,-202 552.31,-202 565.41,-202"/>
<polygon fill="#63b8ff" stroke="#63b8ff" points="524.13,-198.5 514.13,-202 524.13,-205.5 524.13,-198.5"/>
</a>
</g>
</g>
<!-- Node7 -->
<g id="Node000007" class="node">
<title>Node7</title>
<g id="a_Node000007"><a xlink:href="classmpqc_1_1detail_1_1virt__base__of__enable__shared__from__this.html" target="_top" xlink:title="helper class for mpqc::enable_shared_from_this">
<polygon fill="white" stroke="#666666" points="311,-222.5 174,-222.5 174,-181.5 311,-181.5 311,-222.5"/>
<text text-anchor="start" x="182" y="-210.5" font-family="FreeSans" font-size="10.00">mpqc::detail::virt</text>
<text text-anchor="start" x="182" y="-199.5" font-family="FreeSans" font-size="10.00">_base_of_enable_shared</text>
<text text-anchor="middle" x="242.5" y="-188.5" font-family="FreeSans" font-size="10.00">_from_this</text>
</a>
</g>
</g>
<!-- Node7&#45;&gt;Node6 -->
<g id="edge6_Node000006_Node000007" class="edge">
<title>Node7&#45;&gt;Node6</title>
<g id="a_edge6_Node000006_Node000007"><a xlink:title=" ">
<path fill="none" stroke="#63b8ff" d="M321.25,-202C329.98,-202 338.91,-202 347.7,-202"/>
<polygon fill="#63b8ff" stroke="#63b8ff" points="321.09,-198.5 311.09,-202 321.09,-205.5 321.09,-198.5"/>
</a>
</g>
</g>
<!-- Node8 -->
<g id="Node000008" class="node">
<title>Node8</title>
<g id="a_Node000008"><a xlink:title=" ">
<polygon fill="white" stroke="#666666" points="137,-228 0,-228 0,-176 137,-176 137,-228"/>
<text text-anchor="start" x="8" y="-216" font-family="FreeSans" font-size="10.00">std::enable_shared</text>
<text text-anchor="start" x="8" y="-205" font-family="FreeSans" font-size="10.00">_from_this&lt; virt_base</text>
<text text-anchor="start" x="8" y="-194" font-family="FreeSans" font-size="10.00">_of_enable_shared_from</text>
<text text-anchor="middle" x="68.5" y="-183" font-family="FreeSans" font-size="10.00">_this &gt;</text>
</a>
</g>
</g>
<!-- Node8&#45;&gt;Node7 -->
<g id="edge7_Node000007_Node000008" class="edge">
<title>Node8&#45;&gt;Node7</title>
<g id="a_edge7_Node000007_Node000008"><a xlink:title=" ">
<path fill="none" stroke="#63b8ff" d="M147.63,-202C156.35,-202 165.17,-202 173.73,-202"/>
<polygon fill="#63b8ff" stroke="#63b8ff" points="147.48,-198.5 137.48,-202 147.48,-205.5 147.48,-198.5"/>
</a>
</g>
</g>
<!-- Node9 -->
<g id="Node000009" class="node">
<title>Node9</title>
<g id="a_Node000009"><a xlink:href="classmpqc_1_1_formula_registry.html" target="_top" xlink:title=" ">
<polygon fill="white" stroke="#666666" points="872,-158 742,-158 742,-128 872,-128 872,-158"/>
<text text-anchor="start" x="750" y="-146" font-family="FreeSans" font-size="10.00">mpqc::FormulaRegistry</text>
<text text-anchor="middle" x="807" y="-135" font-family="FreeSans" font-size="10.00">&lt; TArray &gt;</text>
</a>
</g>
</g>
<!-- Node9&#45;&gt;Node3 -->
<g id="edge8_Node000003_Node000009" class="edge">
<title>Node9&#45;&gt;Node3</title>
<g id="a_edge8_Node000003_Node000009"><a xlink:title=" ">
<path fill="none" stroke="#9a32cd" stroke-dasharray="5,2" d="M882.27,-134.39C915.74,-130.51 954.82,-125.98 986.79,-122.27"/>
<polygon fill="#9a32cd" stroke="#9a32cd" points="881.61,-130.94 872.08,-135.57 882.42,-137.89 881.61,-130.94"/>
</a>
</g>
<text text-anchor="middle" x="929.5" y="-136" font-family="FreeSans" font-size="10.00" fill="grey"> registry_</text>
</g>
<!-- Node10 -->
<g id="Node000010" class="node">
<title>Node10</title>
<g id="a_Node000010"><a xlink:href="classmpqc_1_1_formula_registry_base.html" target="_top" xlink:title=" ">
<polygon fill="white" stroke="#666666" points="705,-74.5 551,-74.5 551,-55.5 705,-55.5 705,-74.5"/>
<text text-anchor="middle" x="628" y="-62.5" font-family="FreeSans" font-size="10.00">mpqc::FormulaRegistryBase</text>
</a>
</g>
</g>
<!-- Node10&#45;&gt;Node9 -->
<g id="edge9_Node000009_Node000010" class="edge">
<title>Node10&#45;&gt;Node9</title>
<g id="a_edge9_Node000009_Node000010"><a xlink:title=" ">
<path fill="none" stroke="#63b8ff" d="M683.98,-77.82C691.25,-80.4 698.44,-83.44 705,-87 724.11,-97.37 723.31,-107.9 742,-119 747.51,-122.27 753.54,-125.23 759.63,-127.86"/>
<polygon fill="#63b8ff" stroke="#63b8ff" points="684.67,-74.36 674.08,-74.58 682.49,-81.02 684.67,-74.36"/>
</a>
</g>
</g>
<!-- Node12 -->
<g id="Node000012" class="node">
<title>Node12</title>
<g id="a_Node000012"><a xlink:href="classmpqc_1_1_formula_registry.html" target="_top" xlink:title=" ">
<polygon fill="white" stroke="#666666" points="872,-55 742,-55 742,-25 872,-25 872,-55"/>
<text text-anchor="start" x="750" y="-43" font-family="FreeSans" font-size="10.00">mpqc::FormulaRegistry</text>
<text text-anchor="middle" x="807" y="-32" font-family="FreeSans" font-size="10.00">&lt; TArrayVector &gt;</text>
</a>
</g>
</g>
<!-- Node10&#45;&gt;Node12 -->
<g id="edge12_Node000012_Node000010" class="edge">
<title>Node10&#45;&gt;Node12</title>
<g id="a_edge12_Node000012_Node000010"><a xlink:title=" ">
<path fill="none" stroke="#63b8ff" d="M706.33,-54.08C718.23,-52.4 730.41,-50.68 741.97,-49.04"/>
<polygon fill="#63b8ff" stroke="#63b8ff" points="705.83,-50.61 696.42,-55.48 706.81,-57.54 705.83,-50.61"/>
</a>
</g>
</g>
<!-- Node14 -->
<g id="Node000014" class="node">
<title>Node14</title>
<g id="a_Node000014"><a xlink:href="classmpqc_1_1_formula_registry.html" target="_top" xlink:title=" ">
<polygon fill="white" stroke="#666666" points="872,-110 742,-110 742,-80 872,-80 872,-110"/>
<text text-anchor="start" x="750" y="-98" font-family="FreeSans" font-size="10.00">mpqc::FormulaRegistry</text>
<text text-anchor="middle" x="807" y="-87" font-family="FreeSans" font-size="10.00">&lt; mpqc::DirectArray &gt;</text>
</a>
</g>
</g>
<!-- Node10&#45;&gt;Node14 -->
<g id="edge15_Node000014_Node000010" class="edge">
<title>Node10&#45;&gt;Node14</title>
<g id="a_edge15_Node000014_Node000010"><a xlink:title=" ">
<path fill="none" stroke="#63b8ff" d="M706.34,-76.09C712.32,-77.04 718.26,-78.02 724,-79 729.72,-79.98 735.65,-81.04 741.59,-82.14"/>
<polygon fill="#63b8ff" stroke="#63b8ff" points="706.69,-72.6 696.27,-74.52 705.61,-79.52 706.69,-72.6"/>
</a>
</g>
</g>
<!-- Node11 -->
<g id="Node000011" class="node">
<title>Node11</title>
<g id="a_Node000011"><a xlink:href="classmpqc_1_1utility_1_1_registry.html" target="_top" xlink:title="a syntactically&#45;sweet wrapper of std::map, not thread_safe for writing">
<polygon fill="white" stroke="#666666" points="690,-174 566,-174 566,-144 690,-144 690,-174"/>
<text text-anchor="start" x="574" y="-162" font-family="FreeSans" font-size="10.00">mpqc::utility::Registry</text>
<text text-anchor="middle" x="628" y="-151" font-family="FreeSans" font-size="10.00">&lt; Key, Value &gt;</text>
</a>
</g>
</g>
<!-- Node11&#45;&gt;Node9 -->
<g id="edge10_Node000009_Node000011" class="edge">
<title>Node11&#45;&gt;Node9</title>
<g id="a_edge10_Node000009_Node000011"><a xlink:title=" ">
<path fill="none" stroke="#63b8ff" d="M700.72,-152.52C714.38,-151.28 728.59,-150 741.99,-148.79"/>
<polygon fill="#63b8ff" stroke="#63b8ff" points="700.05,-149.06 690.41,-153.45 700.68,-156.03 700.05,-149.06"/>
</a>
</g>
</g>
<!-- Node12&#45;&gt;Node3 -->
<g id="edge11_Node000003_Node000012" class="edge">
<title>Node12&#45;&gt;Node3</title>
<g id="a_edge11_Node000003_Node000012"><a xlink:title=" ">
<path fill="none" stroke="#9a32cd" stroke-dasharray="5,2" d="M873.86,-57.74C903.14,-65.9 937.93,-75.98 969,-86 977.06,-88.6 985.52,-91.48 993.8,-94.39"/>
<polygon fill="#9a32cd" stroke="#9a32cd" points="874.73,-54.35 864.16,-55.05 872.86,-61.09 874.73,-54.35"/>
</a>
</g>
<text text-anchor="middle" x="929.5" y="-89" font-family="FreeSans" font-size="10.00" fill="grey"> vregistry_</text>
</g>
<!-- Node13 -->
<g id="Node000013" class="node">
<title>Node13</title>
<g id="a_Node000013"><a xlink:href="classmpqc_1_1utility_1_1_registry.html" target="_top" xlink:title="a syntactically&#45;sweet wrapper of std::map, not thread_safe for writing">
<polygon fill="white" stroke="#666666" points="690,-30 566,-30 566,0 690,0 690,-30"/>
<text text-anchor="start" x="574" y="-18" font-family="FreeSans" font-size="10.00">mpqc::utility::Registry</text>
<text text-anchor="middle" x="628" y="-7" font-family="FreeSans" font-size="10.00">&lt; Key, Value &gt;</text>
</a>
</g>
</g>
<!-- Node13&#45;&gt;Node12 -->
<g id="edge13_Node000012_Node000013" class="edge">
<title>Node13&#45;&gt;Node12</title>
<g id="a_edge13_Node000012_Node000013"><a xlink:title=" ">
<path fill="none" stroke="#63b8ff" d="M700.32,-25.07C714.1,-27.02 728.46,-29.05 741.99,-30.96"/>
<polygon fill="#63b8ff" stroke="#63b8ff" points="700.8,-21.61 690.41,-23.67 699.82,-28.54 700.8,-21.61"/>
</a>
</g>
</g>
<!-- Node14&#45;&gt;Node3 -->
<g id="edge14_Node000003_Node000014" class="edge">
<title>Node14&#45;&gt;Node3</title>
<g id="a_edge14_Node000003_Node000014"><a xlink:title=" ">
<path fill="none" stroke="#9a32cd" stroke-dasharray="5,2" d="M882.53,-99.42C909.76,-101.21 940.79,-103.46 969,-106 974.74,-106.52 980.71,-107.1 986.68,-107.71"/>
<polygon fill="#9a32cd" stroke="#9a32cd" points="882.5,-95.91 872.29,-98.76 882.04,-102.9 882.5,-95.91"/>
</a>
</g>
<text text-anchor="middle" x="929.5" y="-109" font-family="FreeSans" font-size="10.00" fill="grey"> direct_registry_</text>
</g>
<!-- Node15 -->
<g id="Node000015" class="node">
<title>Node15</title>
<g id="a_Node000015"><a xlink:href="classmpqc_1_1utility_1_1_registry.html" target="_top" xlink:title="a syntactically&#45;sweet wrapper of std::map, not thread_safe for writing">
<polygon fill="white" stroke="#666666" points="690,-126 566,-126 566,-96 690,-96 690,-126"/>
<text text-anchor="start" x="574" y="-114" font-family="FreeSans" font-size="10.00">mpqc::utility::Registry</text>
<text text-anchor="middle" x="628" y="-103" font-family="FreeSans" font-size="10.00">&lt; Key, Value &gt;</text>
</a>
</g>
</g>
<!-- Node15&#45;&gt;Node14 -->
<g id="edge16_Node000014_Node000015" class="edge">
<title>Node15&#45;&gt;Node14</title>
<g id="a_edge16_Node000014_Node000015"><a xlink:title=" ">
<path fill="none" stroke="#63b8ff" d="M700.72,-104.52C714.38,-103.28 728.59,-102 741.99,-100.79"/>
<polygon fill="#63b8ff" stroke="#63b8ff" points="700.05,-101.06 690.41,-105.45 700.68,-108.03 700.05,-101.06"/>
</a>
</g>
</g>
</g>
</svg>

<g id="navigator" transform="translate(0 0)" fill="#404254">
  <rect fill="#f2f5e9" fill-opacity="0.5" stroke="#606060" stroke-width=".5" x="0" y="0" width="60" height="60"/>
  <use id="zoomplus" xlink:href="#zoomPlus" x="17" y="9" onmousedown="handleZoom(evt,'in')"/>
  <use id="zoomminus" xlink:href="#zoomMin" x="42" y="9" onmousedown="handleZoom(evt,'out')"/>
  <use id="reset" xlink:href="#resetDef" x="30" y="36" onmousedown="handleReset()"/>
   <use id="arrowup" xlink:href="#arrowUp" x="0" y="0" onmousedown="handlePan(0,-1)"/>
  <use id="arrowright" xlink:href="#arrowRight" x="0" y="0" onmousedown="handlePan(1,0)"/>
  <use id="arrowdown" xlink:href="#arrowDown" x="0" y="0" onmousedown="handlePan(0,1)"/>
  <use id="arrowleft" xlink:href="#arrowLeft" x="0" y="0" onmousedown="handlePan(-1,0)"/>
</g>
<svg viewBox="0 0 15 15" width="100%" height="30px" preserveAspectRatio="xMaxYMin meet">
 <g id="arrow_out" transform="scale(0.3 0.3)">
  <a xlink:href="classmpqc_1_1lcao_1_1model_1_1_a_o_factory__coll__graph_org.svg" target="_base">
   <rect id="button" ry="5" rx="5" y="6" x="6" height="38" width="38"
        fill="#f2f5e9" fill-opacity="0.5" stroke="#606060" stroke-width="1.0"/>
   <path id="arrow"
     d="M 11.500037,31.436501 C 11.940474,20.09759 22.043105,11.32322 32.158766,21.979434 L 37.068811,17.246167 C 37.068811,17.246167 37.088388,32 37.088388,32 L 22.160133,31.978069 C 22.160133,31.978069 26.997745,27.140456 26.997745,27.140456 C 18.528582,18.264221 13.291696,25.230495 11.500037,31.436501 z"
     style="fill:#404040;"/>
  </a>
 </g>
</svg>

<style type='text/css'>
<![CDATA[
[data-mouse-over-selected='false'] { opacity: 0.7; }
[data-mouse-over-selected='true']  { opacity: 1.0; }
]]>
</style>
<script type="application/ecmascript"><![CDATA[
document.addEventListener('DOMContentLoaded', (event) => {
  highlightEdges();
  highlightAdjacentNodes();
});
]]></script>
</svg>
