<?xml version="1.0" encoding="UTF-8" standalone="no"?>
<!DOCTYPE svg PUBLIC "-//W3C//DTD SVG 1.1//EN"
 "http://www.w3.org/Graphics/SVG/1.1/DTD/svg11.dtd">
<!-- Generated by graphviz version 2.43.0 (0)
 -->
<!-- Title: mpqc::ExcitationEnergy Pages: 1 -->
<!--zoomable 123 -->

<svg id="main" version="1.1" xmlns="http://www.w3.org/2000/svg" xmlns:xlink="http://www.w3.org/1999/xlink" xml:space="preserve" onload="init(evt)">
<style type="text/css"><![CDATA[
.node, .edge {opacity: 0.7;}
.node.selected, .edge.selected {opacity: 1;}
.edge:hover path { stroke: red; }
.edge:hover polygon { stroke: red; fill: red; }
]]></style>

<defs>
  <circle id="rim" cx="0" cy="0" r="7"/>
  <circle id="rim2" cx="0" cy="0" r="3.5"/>
  <g id="zoomPlus">
    <use xlink:href="#rim" fill="#404040"><set attributeName="fill" to="#808080" begin="zoomplus.mouseover" end="zoomplus.mouseout"/></use>
    <path d="M-4,0h8M0,-4v8" fill="none" stroke="white" stroke-width="1.5" pointer-events="none"/>
  </g>
  <g id="zoomMin">
    <use xlink:href="#rim" fill="#404040"><set attributeName="fill" to="#808080" begin="zoomminus.mouseover" end="zoomminus.mouseout"/></use>
    <path d="M-4,0h8" fill="none" stroke="white" stroke-width="1.5" pointer-events="none"/>
  </g>
  <g id="arrowUp" transform="translate(30 24)">
    <use xlink:href="#rim"/>
    <path pointer-events="none" fill="none" stroke="white" stroke-width="1.5" d="M0,-3.0v7 M-2.5,-0.5L0,-3.0L2.5,-0.5"/>
  </g>
  <g id="arrowRight" transform="rotate(90) translate(36 -43)">
    <use xlink:href="#rim"/>
    <path pointer-events="none" fill="none" stroke="white" stroke-width="1.5" d="M0,-3.0v7 M-2.5,-0.5L0,-3.0L2.5,-0.5"/>
  </g>
  <g id="arrowDown" transform="rotate(180) translate(-30 -48)">
    <use xlink:href="#rim"/>
    <path pointer-events="none" fill="none" stroke="white" stroke-width="1.5" d="M0,-3.0v7 M-2.5,-0.5L0,-3.0L2.5,-0.5"/>
  </g>
  <g id="arrowLeft" transform="rotate(270) translate(-36 17)">
    <use xlink:href="#rim"/>
    <path pointer-events="none" fill="none" stroke="white" stroke-width="1.5" d="M0,-3.0v7 M-2.5,-0.5L0,-3.0L2.5,-0.5"/>
  </g>
  <g id="resetDef">
    <use xlink:href="#rim2" fill="#404040"><set attributeName="fill" to="#808080" begin="reset.mouseover" end="reset.mouseout"/></use>
  </g>
</defs>
<script type="application/ecmascript">
var viewWidth = 1449;
var viewHeight = 123;
var sectionId = 'dynsection-0';
</script>
<script type="application/ecmascript" xlink:href="svg.min.js"/>
<svg id="graph" class="graph">
<g id="viewport">
<title>mpqc::ExcitationEnergy</title>
<!-- Node1 -->
<g id="Node000001" class="node">
<title>Node1</title>
<g id="a_Node000001"><a xlink:title=" ">
<polygon fill="#999999" stroke="#666666" points="1441,-77 1309,-77 1309,-58 1441,-58 1441,-77"/>
<text text-anchor="middle" x="1375" y="-65" font-family="FreeSans" font-size="10.00">mpqc::ExcitationEnergy</text>
</a>
</g>
</g>
<!-- Node2 -->
<g id="Node000002" class="node">
<title>Node2</title>
<g id="a_Node000002"><a xlink:title=" ">
<polygon fill="white" stroke="#666666" points="1273,-88 1115,-88 1115,-47 1273,-47 1273,-88"/>
<text text-anchor="start" x="1123" y="-76" font-family="FreeSans" font-size="10.00">mpqc::WavefunctionProperty</text>
<text text-anchor="start" x="1123" y="-65" font-family="FreeSans" font-size="10.00">&lt; std::vector&lt; std::complex</text>
<text text-anchor="middle" x="1194" y="-54" font-family="FreeSans" font-size="10.00">&lt; double &gt; &gt; &gt;</text>
</a>
</g>
</g>
<!-- Node2&#45;&gt;Node1 -->
<g id="edge1_Node000001_Node000002" class="edge">
<title>Node2&#45;&gt;Node1</title>
<g id="a_edge1_Node000001_Node000002"><a xlink:title=" ">
<path fill="none" stroke="#63b8ff" d="M1283.3,-67.5C1291.88,-67.5 1300.47,-67.5 1308.76,-67.5"/>
<polygon fill="#63b8ff" stroke="#63b8ff" points="1283.25,-64 1273.25,-67.5 1283.25,-71 1283.25,-64"/>
</a>
</g>
</g>
<!-- Node3 -->
<g id="Node000003" class="node">
<title>Node3</title>
<g id="a_Node000003"><a xlink:href="classmpqc_1_1math_1_1_taylor_expansion_function.html" target="_top" xlink:title=" ">
<polygon fill="white" stroke="#666666" points="1079,-106.5 910,-106.5 910,-76.5 1079,-76.5 1079,-106.5"/>
<text text-anchor="start" x="918" y="-94.5" font-family="FreeSans" font-size="10.00">mpqc::math::TaylorExpansion</text>
<text text-anchor="middle" x="994.5" y="-83.5" font-family="FreeSans" font-size="10.00">Function&lt; Value, Parameters &gt;</text>
</a>
</g>
</g>
<!-- Node3&#45;&gt;Node2 -->
<g id="edge2_Node000002_Node000003" class="edge">
<title>Node3&#45;&gt;Node2</title>
<g id="a_edge2_Node000002_Node000003"><a xlink:title=" ">
<path fill="none" stroke="#63b8ff" d="M1089.25,-80.11C1097.79,-79.07 1106.38,-78.03 1114.77,-77.01"/>
<polygon fill="#63b8ff" stroke="#63b8ff" points="1088.76,-76.64 1079.26,-81.32 1089.61,-83.59 1088.76,-76.64"/>
</a>
</g>
</g>
<!-- Node4 -->
<g id="Node000004" class="node">
<title>Node4</title>
<g id="a_Node000004"><a xlink:href="classmpqc_1_1math_1_1_function.html" target="_top" xlink:title=" ">
<polygon fill="white" stroke="#666666" points="874,-115 709,-115 709,-74 874,-74 874,-115"/>
<text text-anchor="start" x="717" y="-103" font-family="FreeSans" font-size="10.00">mpqc::math::Function</text>
<text text-anchor="start" x="717" y="-92" font-family="FreeSans" font-size="10.00">&lt; TaylorExpansionCoefficients</text>
<text text-anchor="middle" x="791.5" y="-81" font-family="FreeSans" font-size="10.00">&lt; Value &gt;, Parameters &gt;</text>
</a>
</g>
</g>
<!-- Node4&#45;&gt;Node3 -->
<g id="edge3_Node000003_Node000004" class="edge">
<title>Node4&#45;&gt;Node3</title>
<g id="a_edge3_Node000003_Node000004"><a xlink:title=" ">
<path fill="none" stroke="#63b8ff" d="M884.51,-93.13C892.96,-93 901.49,-92.87 909.86,-92.75"/>
<polygon fill="#63b8ff" stroke="#63b8ff" points="884.2,-89.63 874.25,-93.28 884.31,-96.63 884.2,-89.63"/>
</a>
</g>
</g>
<!-- Node5 -->
<g id="Node000005" class="node">
<title>Node5</title>
<g id="a_Node000005"><a xlink:href="classmpqc_1_1_property.html" target="_top" xlink:title="An abstract property that can be computed by MPQC as a Task.">
<polygon fill="white" stroke="#666666" points="1040,-56 949,-56 949,-37 1040,-37 1040,-56"/>
<text text-anchor="middle" x="994.5" y="-44" font-family="FreeSans" font-size="10.00">mpqc::Property</text>
</a>
</g>
</g>
<!-- Node5&#45;&gt;Node2 -->
<g id="edge4_Node000002_Node000005" class="edge">
<title>Node5&#45;&gt;Node2</title>
<g id="a_edge4_Node000002_Node000005"><a xlink:title=" ">
<path fill="none" stroke="#63b8ff" d="M1050.41,-52.34C1070.29,-54.45 1093.13,-56.88 1114.63,-59.17"/>
<polygon fill="#63b8ff" stroke="#63b8ff" points="1050.63,-48.84 1040.32,-51.27 1049.89,-55.8 1050.63,-48.84"/>
</a>
</g>
</g>
<!-- Node6 -->
<g id="Node000006" class="node">
<title>Node6</title>
<g id="a_Node000006"><a xlink:href="classmpqc_1_1_task.html" target="_top" xlink:title=" ">
<polygon fill="white" stroke="#666666" points="827,-56 756,-56 756,-37 827,-37 827,-56"/>
<text text-anchor="middle" x="791.5" y="-44" font-family="FreeSans" font-size="10.00">mpqc::Task</text>
</a>
</g>
</g>
<!-- Node6&#45;&gt;Node5 -->
<g id="edge5_Node000005_Node000006" class="edge">
<title>Node6&#45;&gt;Node5</title>
<g id="a_edge5_Node000005_Node000006"><a xlink:title=" ">
<path fill="none" stroke="#63b8ff" d="M837.39,-46.5C870.62,-46.5 915.67,-46.5 948.84,-46.5"/>
<polygon fill="#63b8ff" stroke="#63b8ff" points="837.05,-43 827.05,-46.5 837.05,-50 837.05,-43"/>
</a>
</g>
</g>
<!-- Node7 -->
<g id="Node000007" class="node">
<title>Node7</title>
<g id="a_Node000007"><a xlink:href="classmpqc_1_1_described_class.html" target="_top" xlink:title=" ">
<polygon fill="white" stroke="#666666" points="673,-56 548,-56 548,-37 673,-37 673,-56"/>
<text text-anchor="middle" x="610.5" y="-44" font-family="FreeSans" font-size="10.00">mpqc::DescribedClass</text>
</a>
</g>
</g>
<!-- Node7&#45;&gt;Node6 -->
<g id="edge6_Node000006_Node000007" class="edge">
<title>Node7&#45;&gt;Node6</title>
<g id="a_edge6_Node000006_Node000007"><a xlink:title=" ">
<path fill="none" stroke="#63b8ff" d="M683.32,-46.5C708.36,-46.5 735.33,-46.5 755.94,-46.5"/>
<polygon fill="#63b8ff" stroke="#63b8ff" points="683.1,-43 673.1,-46.5 683.1,-50 683.1,-43"/>
</a>
</g>
</g>
<!-- Node8 -->
<g id="Node000008" class="node">
<title>Node8</title>
<g id="a_Node000008"><a xlink:href="classmpqc_1_1enable__shared__from__this.html" target="_top" xlink:title=" ">
<polygon fill="white" stroke="#666666" points="512,-61.5 346,-61.5 346,-31.5 512,-31.5 512,-61.5"/>
<text text-anchor="start" x="354" y="-49.5" font-family="FreeSans" font-size="10.00">mpqc::enable_shared</text>
<text text-anchor="middle" x="429" y="-38.5" font-family="FreeSans" font-size="10.00">_from_this&lt; DescribedClass &gt;</text>
</a>
</g>
</g>
<!-- Node8&#45;&gt;Node7 -->
<g id="edge7_Node000007_Node000008" class="edge">
<title>Node8&#45;&gt;Node7</title>
<g id="a_edge7_Node000007_Node000008"><a xlink:title=" ">
<path fill="none" stroke="#63b8ff" d="M522.28,-46.5C530.93,-46.5 539.55,-46.5 547.82,-46.5"/>
<polygon fill="#63b8ff" stroke="#63b8ff" points="522.13,-43 512.13,-46.5 522.13,-50 522.13,-43"/>
</a>
</g>
</g>
<!-- Node9 -->
<g id="Node000009" class="node">
<title>Node9</title>
<g id="a_Node000009"><a xlink:href="classmpqc_1_1detail_1_1virt__base__of__enable__shared__from__this.html" target="_top" xlink:title="helper class for mpqc::enable_shared_from_this">
<polygon fill="white" stroke="#666666" points="310,-67 173,-67 173,-26 310,-26 310,-67"/>
<text text-anchor="start" x="181" y="-55" font-family="FreeSans" font-size="10.00">mpqc::detail::virt</text>
<text text-anchor="start" x="181" y="-44" font-family="FreeSans" font-size="10.00">_base_of_enable_shared</text>
<text text-anchor="middle" x="241.5" y="-33" font-family="FreeSans" font-size="10.00">_from_this</text>
</a>
</g>
</g>
<!-- Node9&#45;&gt;Node8 -->
<g id="edge8_Node000008_Node000009" class="edge">
<title>Node9&#45;&gt;Node8</title>
<g id="a_edge8_Node000008_Node000009"><a xlink:title=" ">
<path fill="none" stroke="#63b8ff" d="M320.43,-46.5C328.86,-46.5 337.45,-46.5 345.92,-46.5"/>
<polygon fill="#63b8ff" stroke="#63b8ff" points="320.26,-43 310.26,-46.5 320.26,-50 320.26,-43"/>
</a>
</g>
</g>
<!-- Node10 -->
<g id="Node000010" class="node">
<title>Node10</title>
<g id="a_Node000010"><a xlink:title=" ">
<polygon fill="white" stroke="#666666" points="137,-72.5 0,-72.5 0,-20.5 137,-20.5 137,-72.5"/>
<text text-anchor="start" x="8" y="-60.5" font-family="FreeSans" font-size="10.00">std::enable_shared</text>
<text text-anchor="start" x="8" y="-49.5" font-family="FreeSans" font-size="10.00">_from_this&lt; virt_base</text>
<text text-anchor="start" x="8" y="-38.5" font-family="FreeSans" font-size="10.00">_of_enable_shared_from</text>
<text text-anchor="middle" x="68.5" y="-27.5" font-family="FreeSans" font-size="10.00">_this &gt;</text>
</a>
</g>
</g>
<!-- Node10&#45;&gt;Node9 -->
<g id="edge9_Node000009_Node000010" class="edge">
<title>Node10&#45;&gt;Node9</title>
<g id="a_edge9_Node000009_Node000010"><a xlink:title=" ">
<path fill="none" stroke="#63b8ff" d="M147.1,-46.5C155.69,-46.5 164.39,-46.5 172.85,-46.5"/>
<polygon fill="#63b8ff" stroke="#63b8ff" points="147.08,-43 137.08,-46.5 147.08,-50 147.08,-43"/>
</a>
</g>
</g>
<!-- Node11 -->
<g id="Node000011" class="node">
<title>Node11</title>
<g id="a_Node000011"><a xlink:href="classmpqc_1_1_key_val_1_1_writable.html" target="_top" xlink:title="base class for objects that can write themselves to a KeyVal">
<polygon fill="white" stroke="#666666" points="856.5,-19 726.5,-19 726.5,0 856.5,0 856.5,-19"/>
<text text-anchor="middle" x="791.5" y="-7" font-family="FreeSans" font-size="10.00">mpqc::KeyVal::Writable</text>
</a>
</g>
</g>
<!-- Node11&#45;&gt;Node5 -->
<g id="edge10_Node000005_Node000011" class="edge">
<title>Node11&#45;&gt;Node5</title>
<g id="a_edge10_Node000005_Node000011"><a xlink:title=" ">
<path fill="none" stroke="#63b8ff" d="M854.37,-20.89C884.87,-26.5 920.96,-33.15 948.74,-38.26"/>
<polygon fill="#63b8ff" stroke="#63b8ff" points="854.73,-17.4 844.26,-19.03 853.46,-24.28 854.73,-17.4"/>
</a>
</g>
</g>
</g>
</svg>

<g id="navigator" transform="translate(0 0)" fill="#404254">
  <rect fill="#f2f5e9" fill-opacity="0.5" stroke="#606060" stroke-width=".5" x="0" y="0" width="60" height="60"/>
  <use id="zoomplus" xlink:href="#zoomPlus" x="17" y="9" onmousedown="handleZoom(evt,'in')"/>
  <use id="zoomminus" xlink:href="#zoomMin" x="42" y="9" onmousedown="handleZoom(evt,'out')"/>
  <use id="reset" xlink:href="#resetDef" x="30" y="36" onmousedown="handleReset()"/>
   <use id="arrowup" xlink:href="#arrowUp" x="0" y="0" onmousedown="handlePan(0,-1)"/>
  <use id="arrowright" xlink:href="#arrowRight" x="0" y="0" onmousedown="handlePan(1,0)"/>
  <use id="arrowdown" xlink:href="#arrowDown" x="0" y="0" onmousedown="handlePan(0,1)"/>
  <use id="arrowleft" xlink:href="#arrowLeft" x="0" y="0" onmousedown="handlePan(-1,0)"/>
</g>
<svg viewBox="0 0 15 15" width="100%" height="30px" preserveAspectRatio="xMaxYMin meet">
 <g id="arrow_out" transform="scale(0.3 0.3)">
  <a xlink:href="classmpqc_1_1_excitation_energy__coll__graph_org.svg" target="_base">
   <rect id="button" ry="5" rx="5" y="6" x="6" height="38" width="38"
        fill="#f2f5e9" fill-opacity="0.5" stroke="#606060" stroke-width="1.0"/>
   <path id="arrow"
     d="M 11.500037,31.436501 C 11.940474,20.09759 22.043105,11.32322 32.158766,21.979434 L 37.068811,17.246167 C 37.068811,17.246167 37.088388,32 37.088388,32 L 22.160133,31.978069 C 22.160133,31.978069 26.997745,27.140456 26.997745,27.140456 C 18.528582,18.264221 13.291696,25.230495 11.500037,31.436501 z"
     style="fill:#404040;"/>
  </a>
 </g>
</svg>

<style type='text/css'>
<![CDATA[
[data-mouse-over-selected='false'] { opacity: 0.7; }
[data-mouse-over-selected='true']  { opacity: 1.0; }
]]>
</style>
<script type="application/ecmascript"><![CDATA[
document.addEventListener('DOMContentLoaded', (event) => {
  highlightEdges();
  highlightAdjacentNodes();
});
]]></script>
</svg>
