<?xml version="1.0" encoding="UTF-8" standalone="no"?>
<!DOCTYPE svg PUBLIC "-//W3C//DTD SVG 1.1//EN"
 "http://www.w3.org/Graphics/SVG/1.1/DTD/svg11.dtd">
<!-- Generated by graphviz version 2.43.0 (0)
 -->
<!-- Title: mpqc::RDM&lt; Tile, Policy &gt; Pages: 1 -->
<svg width="1509pt" height="123pt"
 viewBox="0.00 0.00 1509.00 123.00" xmlns="http://www.w3.org/2000/svg" xmlns:xlink="http://www.w3.org/1999/xlink">
<g id="graph0" class="graph" transform="scale(1 1) rotate(0) translate(4 119)">
<title>mpqc::RDM&lt; Tile, Policy &gt;</title>
<!-- Node1 -->
<g id="Node000001" class="node">
<title>Node1</title>
<g id="a_Node000001"><a xlink:title=" ">
<polygon fill="#999999" stroke="#666666" points="1501,-77 1352,-77 1352,-58 1501,-58 1501,-77"/>
<text text-anchor="middle" x="1426.5" y="-65" font-family="FreeSans" font-size="10.00">mpqc::RDM&lt; Tile, Policy &gt;</text>
</a>
</g>
</g>
<!-- Node2 -->
<g id="Node000002" class="node">
<title>Node2</title>
<g id="a_Node000002"><a xlink:title=" ">
<polygon fill="white" stroke="#666666" points="1316,-88 1115,-88 1115,-47 1316,-47 1316,-88"/>
<text text-anchor="start" x="1123" y="-76" font-family="FreeSans" font-size="10.00">mpqc::WavefunctionProperty</text>
<text text-anchor="start" x="1123" y="-65" font-family="FreeSans" font-size="10.00">&lt; std::vector&lt; std::vector</text>
<text text-anchor="middle" x="1215.5" y="-54" font-family="FreeSans" font-size="10.00">&lt; TA::DistArray&lt; Tile, Policy &gt; &gt; &gt; &gt;</text>
</a>
</g>
</g>
<!-- Node2&#45;&gt;Node1 -->
<g id="edge1_Node000001_Node000002" class="edge">
<title>Node2&#45;&gt;Node1</title>
<g id="a_edge1_Node000001_Node000002"><a xlink:title=" ">
<path fill="none" stroke="#63b8ff" d="M1326.31,-67.5C1335,-67.5 1343.64,-67.5 1351.99,-67.5"/>
<polygon fill="#63b8ff" stroke="#63b8ff" points="1326.1,-64 1316.1,-67.5 1326.1,-71 1326.1,-64"/>
</a>
</g>
</g>
<!-- Node3 -->
<g id="Node000003" class="node">
<title>Node3</title>
<g id="a_Node000003"><a xlink:href="classmpqc_1_1math_1_1_taylor_expansion_function.html" target="_top" xlink:title=" ">
<polygon fill="white" stroke="#666666" points="1079,-106.5 910,-106.5 910,-76.5 1079,-76.5 1079,-106.5"/>
<text text-anchor="start" x="918" y="-94.5" font-family="FreeSans" font-size="10.00">mpqc::math::TaylorExpansion</text>
<text text-anchor="middle" x="994.5" y="-83.5" font-family="FreeSans" font-size="10.00">Function&lt; Value, Parameters &gt;</text>
</a>
</g>
</g>
<!-- Node3&#45;&gt;Node2 -->
<g id="edge2_Node000002_Node000003" class="edge">
<title>Node3&#45;&gt;Node2</title>
<g id="a_edge2_Node000002_Node000003"><a xlink:title=" ">
<path fill="none" stroke="#63b8ff" d="M1089.37,-81.21C1097.75,-80.29 1106.25,-79.36 1114.67,-78.44"/>
<polygon fill="#63b8ff" stroke="#63b8ff" points="1088.79,-77.76 1079.23,-82.32 1089.55,-84.71 1088.79,-77.76"/>
</a>
</g>
</g>
<!-- Node4 -->
<g id="Node000004" class="node">
<title>Node4</title>
<g id="a_Node000004"><a xlink:href="classmpqc_1_1math_1_1_function.html" target="_top" xlink:title=" ">
<polygon fill="white" stroke="#666666" points="874,-115 709,-115 709,-74 874,-74 874,-115"/>
<text text-anchor="start" x="717" y="-103" font-family="FreeSans" font-size="10.00">mpqc::math::Function</text>
<text text-anchor="start" x="717" y="-92" font-family="FreeSans" font-size="10.00">&lt; TaylorExpansionCoefficients</text>
<text text-anchor="middle" x="791.5" y="-81" font-family="FreeSans" font-size="10.00">&lt; Value &gt;, Parameters &gt;</text>
</a>
</g>
</g>
<!-- Node4&#45;&gt;Node3 -->
<g id="edge3_Node000003_Node000004" class="edge">
<title>Node4&#45;&gt;Node3</title>
<g id="a_edge3_Node000003_Node000004"><a xlink:title=" ">
<path fill="none" stroke="#63b8ff" d="M884.51,-93.13C892.96,-93 901.49,-92.87 909.86,-92.75"/>
<polygon fill="#63b8ff" stroke="#63b8ff" points="884.2,-89.63 874.25,-93.28 884.31,-96.63 884.2,-89.63"/>
</a>
</g>
</g>
<!-- Node5 -->
<g id="Node000005" class="node">
<title>Node5</title>
<g id="a_Node000005"><a xlink:href="classmpqc_1_1_property.html" target="_top" xlink:title="An abstract property that can be computed by MPQC as a Task.">
<polygon fill="white" stroke="#666666" points="1040,-56 949,-56 949,-37 1040,-37 1040,-56"/>
<text text-anchor="middle" x="994.5" y="-44" font-family="FreeSans" font-size="10.00">mpqc::Property</text>
</a>
</g>
</g>
<!-- Node5&#45;&gt;Node2 -->
<g id="edge4_Node000002_Node000005" class="edge">
<title>Node5&#45;&gt;Node2</title>
<g id="a_edge4_Node000002_Node000005"><a xlink:title=" ">
<path fill="none" stroke="#63b8ff" d="M1050.05,-51.73C1069.7,-53.61 1092.53,-55.8 1114.82,-57.94"/>
<polygon fill="#63b8ff" stroke="#63b8ff" points="1050.37,-48.25 1040.08,-50.77 1049.7,-55.21 1050.37,-48.25"/>
</a>
</g>
</g>
<!-- Node6 -->
<g id="Node000006" class="node">
<title>Node6</title>
<g id="a_Node000006"><a xlink:href="classmpqc_1_1_task.html" target="_top" xlink:title=" ">
<polygon fill="white" stroke="#666666" points="827,-56 756,-56 756,-37 827,-37 827,-56"/>
<text text-anchor="middle" x="791.5" y="-44" font-family="FreeSans" font-size="10.00">mpqc::Task</text>
</a>
</g>
</g>
<!-- Node6&#45;&gt;Node5 -->
<g id="edge5_Node000005_Node000006" class="edge">
<title>Node6&#45;&gt;Node5</title>
<g id="a_edge5_Node000005_Node000006"><a xlink:title=" ">
<path fill="none" stroke="#63b8ff" d="M837.39,-46.5C870.62,-46.5 915.67,-46.5 948.84,-46.5"/>
<polygon fill="#63b8ff" stroke="#63b8ff" points="837.05,-43 827.05,-46.5 837.05,-50 837.05,-43"/>
</a>
</g>
</g>
<!-- Node7 -->
<g id="Node000007" class="node">
<title>Node7</title>
<g id="a_Node000007"><a xlink:href="classmpqc_1_1_described_class.html" target="_top" xlink:title=" ">
<polygon fill="white" stroke="#666666" points="673,-56 548,-56 548,-37 673,-37 673,-56"/>
<text text-anchor="middle" x="610.5" y="-44" font-family="FreeSans" font-size="10.00">mpqc::DescribedClass</text>
</a>
</g>
</g>
<!-- Node7&#45;&gt;Node6 -->
<g id="edge6_Node000006_Node000007" class="edge">
<title>Node7&#45;&gt;Node6</title>
<g id="a_edge6_Node000006_Node000007"><a xlink:title=" ">
<path fill="none" stroke="#63b8ff" d="M683.32,-46.5C708.36,-46.5 735.33,-46.5 755.94,-46.5"/>
<polygon fill="#63b8ff" stroke="#63b8ff" points="683.1,-43 673.1,-46.5 683.1,-50 683.1,-43"/>
</a>
</g>
</g>
<!-- Node8 -->
<g id="Node000008" class="node">
<title>Node8</title>
<g id="a_Node000008"><a xlink:href="classmpqc_1_1enable__shared__from__this.html" target="_top" xlink:title=" ">
<polygon fill="white" stroke="#666666" points="512,-61.5 346,-61.5 346,-31.5 512,-31.5 512,-61.5"/>
<text text-anchor="start" x="354" y="-49.5" font-family="FreeSans" font-size="10.00">mpqc::enable_shared</text>
<text text-anchor="middle" x="429" y="-38.5" font-family="FreeSans" font-size="10.00">_from_this&lt; DescribedClass &gt;</text>
</a>
</g>
</g>
<!-- Node8&#45;&gt;Node7 -->
<g id="edge7_Node000007_Node000008" class="edge">
<title>Node8&#45;&gt;Node7</title>
<g id="a_edge7_Node000007_Node000008"><a xlink:title=" ">
<path fill="none" stroke="#63b8ff" d="M522.28,-46.5C530.93,-46.5 539.55,-46.5 547.82,-46.5"/>
<polygon fill="#63b8ff" stroke="#63b8ff" points="522.13,-43 512.13,-46.5 522.13,-50 522.13,-43"/>
</a>
</g>
</g>
<!-- Node9 -->
<g id="Node000009" class="node">
<title>Node9</title>
<g id="a_Node000009"><a xlink:href="classmpqc_1_1detail_1_1virt__base__of__enable__shared__from__this.html" target="_top" xlink:title="helper class for mpqc::enable_shared_from_this">
<polygon fill="white" stroke="#666666" points="310,-67 173,-67 173,-26 310,-26 310,-67"/>
<text text-anchor="start" x="181" y="-55" font-family="FreeSans" font-size="10.00">mpqc::detail::virt</text>
<text text-anchor="start" x="181" y="-44" font-family="FreeSans" font-size="10.00">_base_of_enable_shared</text>
<text text-anchor="middle" x="241.5" y="-33" font-family="FreeSans" font-size="10.00">_from_this</text>
</a>
</g>
</g>
<!-- Node9&#45;&gt;Node8 -->
<g id="edge8_Node000008_Node000009" class="edge">
<title>Node9&#45;&gt;Node8</title>
<g id="a_edge8_Node000008_Node000009"><a xlink:title=" ">
<path fill="none" stroke="#63b8ff" d="M320.43,-46.5C328.86,-46.5 337.45,-46.5 345.92,-46.5"/>
<polygon fill="#63b8ff" stroke="#63b8ff" points="320.26,-43 310.26,-46.5 320.26,-50 320.26,-43"/>
</a>
</g>
</g>
<!-- Node10 -->
<g id="Node000010" class="node">
<title>Node10</title>
<g id="a_Node000010"><a xlink:title=" ">
<polygon fill="white" stroke="#666666" points="137,-72.5 0,-72.5 0,-20.5 137,-20.5 137,-72.5"/>
<text text-anchor="start" x="8" y="-60.5" font-family="FreeSans" font-size="10.00">std::enable_shared</text>
<text text-anchor="start" x="8" y="-49.5" font-family="FreeSans" font-size="10.00">_from_this&lt; virt_base</text>
<text text-anchor="start" x="8" y="-38.5" font-family="FreeSans" font-size="10.00">_of_enable_shared_from</text>
<text text-anchor="middle" x="68.5" y="-27.5" font-family="FreeSans" font-size="10.00">_this &gt;</text>
</a>
</g>
</g>
<!-- Node10&#45;&gt;Node9 -->
<g id="edge9_Node000009_Node000010" class="edge">
<title>Node10&#45;&gt;Node9</title>
<g id="a_edge9_Node000009_Node000010"><a xlink:title=" ">
<path fill="none" stroke="#63b8ff" d="M147.1,-46.5C155.69,-46.5 164.39,-46.5 172.85,-46.5"/>
<polygon fill="#63b8ff" stroke="#63b8ff" points="147.08,-43 137.08,-46.5 147.08,-50 147.08,-43"/>
</a>
</g>
</g>
<!-- Node11 -->
<g id="Node000011" class="node">
<title>Node11</title>
<g id="a_Node000011"><a xlink:href="classmpqc_1_1_key_val_1_1_writable.html" target="_top" xlink:title="base class for objects that can write themselves to a KeyVal">
<polygon fill="white" stroke="#666666" points="856.5,-19 726.5,-19 726.5,0 856.5,0 856.5,-19"/>
<text text-anchor="middle" x="791.5" y="-7" font-family="FreeSans" font-size="10.00">mpqc::KeyVal::Writable</text>
</a>
</g>
</g>
<!-- Node11&#45;&gt;Node5 -->
<g id="edge10_Node000005_Node000011" class="edge">
<title>Node11&#45;&gt;Node5</title>
<g id="a_edge10_Node000005_Node000011"><a xlink:title=" ">
<path fill="none" stroke="#63b8ff" d="M854.37,-20.89C884.87,-26.5 920.96,-33.15 948.74,-38.26"/>
<polygon fill="#63b8ff" stroke="#63b8ff" points="854.73,-17.4 844.26,-19.03 853.46,-24.28 854.73,-17.4"/>
</a>
</g>
</g>
</g>
</svg>
