<?xml version="1.0" encoding="UTF-8" standalone="no"?>
<!DOCTYPE svg PUBLIC "-//W3C//DTD SVG 1.1//EN"
 "http://www.w3.org/Graphics/SVG/1.1/DTD/svg11.dtd">
<!-- Generated by graphviz version 2.43.0 (0)
 -->
<!-- Title: mpqc::WavefunctionProperty&lt; Value &gt; Pages: 1 -->
<svg width="448pt" height="456pt"
 viewBox="0.00 0.00 448.00 456.00" xmlns="http://www.w3.org/2000/svg" xmlns:xlink="http://www.w3.org/1999/xlink">
<g id="graph0" class="graph" transform="scale(1 1) rotate(0) translate(4 452)">
<title>mpqc::WavefunctionProperty&lt; Value &gt;</title>
<!-- Node1 -->
<g id="Node000001" class="node">
<title>Node1</title>
<g id="a_Node000001"><a xlink:title="WavefunctionProperty is a Property that can &quot;visit&quot; Wavefunction.">
<polygon fill="#999999" stroke="#666666" points="276,-30 118,-30 118,0 276,0 276,-30"/>
<text text-anchor="start" x="126" y="-18" font-family="FreeSans" font-size="10.00">mpqc::WavefunctionProperty</text>
<text text-anchor="middle" x="197" y="-7" font-family="FreeSans" font-size="10.00">&lt; Value &gt;</text>
</a>
</g>
</g>
<!-- Node2 -->
<g id="Node000002" class="node">
<title>Node2</title>
<g id="a_Node000002"><a xlink:href="classmpqc_1_1math_1_1_taylor_expansion_function.html" target="_top" xlink:title=" ">
<polygon fill="white" stroke="#666666" points="220,-96 0,-96 0,-66 220,-66 220,-96"/>
<text text-anchor="start" x="8" y="-84" font-family="FreeSans" font-size="10.00">mpqc::math::TaylorExpansion</text>
<text text-anchor="middle" x="110" y="-73" font-family="FreeSans" font-size="10.00">Function&lt; Value, MolecularCoordinates &gt;</text>
</a>
</g>
</g>
<!-- Node2&#45;&gt;Node1 -->
<g id="edge1_Node000001_Node000002" class="edge">
<title>Node2&#45;&gt;Node1</title>
<g id="a_edge1_Node000001_Node000002"><a xlink:title=" ">
<path fill="none" stroke="#63b8ff" d="M137.52,-59.75C150.61,-50.13 165.93,-38.86 177.75,-30.16"/>
<polygon fill="#63b8ff" stroke="#63b8ff" points="135.29,-57.05 129.31,-65.8 139.44,-62.69 135.29,-57.05"/>
</a>
</g>
</g>
<!-- Node3 -->
<g id="Node000003" class="node">
<title>Node3</title>
<g id="a_Node000003"><a xlink:href="classmpqc_1_1math_1_1_function.html" target="_top" xlink:title="Function maps Parameters to a Value.">
<polygon fill="white" stroke="#666666" points="174,-162 46,-162 46,-132 174,-132 174,-162"/>
<text text-anchor="start" x="54" y="-150" font-family="FreeSans" font-size="10.00">mpqc::math::Function</text>
<text text-anchor="middle" x="110" y="-139" font-family="FreeSans" font-size="10.00">&lt; Value, Parameters &gt;</text>
</a>
</g>
</g>
<!-- Node3&#45;&gt;Node2 -->
<g id="edge2_Node000002_Node000003" class="edge">
<title>Node3&#45;&gt;Node2</title>
<g id="a_edge2_Node000002_Node000003"><a xlink:title=" ">
<path fill="none" stroke="#63b8ff" d="M110,-121.54C110,-112.96 110,-103.61 110,-96.16"/>
<polygon fill="#63b8ff" stroke="#63b8ff" points="106.5,-121.8 110,-131.8 113.5,-121.8 106.5,-121.8"/>
</a>
</g>
</g>
<!-- Node4 -->
<g id="Node000004" class="node">
<title>Node4</title>
<g id="a_Node000004"><a xlink:href="classmpqc_1_1_property.html" target="_top" xlink:title="An abstract property that can be computed by MPQC as a Task.">
<polygon fill="white" stroke="#666666" points="329.5,-90.5 238.5,-90.5 238.5,-71.5 329.5,-71.5 329.5,-90.5"/>
<text text-anchor="middle" x="284" y="-78.5" font-family="FreeSans" font-size="10.00">mpqc::Property</text>
</a>
</g>
</g>
<!-- Node4&#45;&gt;Node1 -->
<g id="edge3_Node000001_Node000004" class="edge">
<title>Node4&#45;&gt;Node1</title>
<g id="a_edge3_Node000001_Node000004"><a xlink:title=" ">
<path fill="none" stroke="#63b8ff" d="M264.04,-65.32C249.67,-54.74 230.38,-40.56 216.19,-30.12"/>
<polygon fill="#63b8ff" stroke="#63b8ff" points="262.14,-68.26 272.27,-71.37 266.29,-62.62 262.14,-68.26"/>
</a>
</g>
</g>
<!-- Node5 -->
<g id="Node000005" class="node">
<title>Node5</title>
<g id="a_Node000005"><a xlink:href="classmpqc_1_1_task.html" target="_top" xlink:title=" ">
<polygon fill="white" stroke="#666666" points="291.5,-156.5 220.5,-156.5 220.5,-137.5 291.5,-137.5 291.5,-156.5"/>
<text text-anchor="middle" x="256" y="-144.5" font-family="FreeSans" font-size="10.00">mpqc::Task</text>
</a>
</g>
</g>
<!-- Node5&#45;&gt;Node4 -->
<g id="edge4_Node000004_Node000005" class="edge">
<title>Node5&#45;&gt;Node4</title>
<g id="a_edge4_Node000004_Node000005"><a xlink:title=" ">
<path fill="none" stroke="#63b8ff" d="M263.79,-128.18C269.1,-116.05 275.9,-100.51 280.1,-90.91"/>
<polygon fill="#63b8ff" stroke="#63b8ff" points="260.58,-126.8 259.78,-137.37 266.99,-129.61 260.58,-126.8"/>
</a>
</g>
</g>
<!-- Node6 -->
<g id="Node000006" class="node">
<title>Node6</title>
<g id="a_Node000006"><a xlink:href="classmpqc_1_1_described_class.html" target="_top" xlink:title=" ">
<polygon fill="white" stroke="#666666" points="318.5,-217 193.5,-217 193.5,-198 318.5,-198 318.5,-217"/>
<text text-anchor="middle" x="256" y="-205" font-family="FreeSans" font-size="10.00">mpqc::DescribedClass</text>
</a>
</g>
</g>
<!-- Node6&#45;&gt;Node5 -->
<g id="edge5_Node000005_Node000006" class="edge">
<title>Node6&#45;&gt;Node5</title>
<g id="a_edge5_Node000005_Node000006"><a xlink:title=" ">
<path fill="none" stroke="#63b8ff" d="M256,-187.66C256,-177.24 256,-164.8 256,-156.67"/>
<polygon fill="#63b8ff" stroke="#63b8ff" points="252.5,-187.87 256,-197.87 259.5,-187.87 252.5,-187.87"/>
</a>
</g>
</g>
<!-- Node7 -->
<g id="Node000007" class="node">
<title>Node7</title>
<g id="a_Node000007"><a xlink:href="classmpqc_1_1enable__shared__from__this.html" target="_top" xlink:title=" ">
<polygon fill="white" stroke="#666666" points="339,-283 173,-283 173,-253 339,-253 339,-283"/>
<text text-anchor="start" x="181" y="-271" font-family="FreeSans" font-size="10.00">mpqc::enable_shared</text>
<text text-anchor="middle" x="256" y="-260" font-family="FreeSans" font-size="10.00">_from_this&lt; DescribedClass &gt;</text>
</a>
</g>
</g>
<!-- Node7&#45;&gt;Node6 -->
<g id="edge6_Node000006_Node000007" class="edge">
<title>Node7&#45;&gt;Node6</title>
<g id="a_edge6_Node000006_Node000007"><a xlink:title=" ">
<path fill="none" stroke="#63b8ff" d="M256,-242.75C256,-233.72 256,-224.03 256,-217.27"/>
<polygon fill="#63b8ff" stroke="#63b8ff" points="252.5,-242.84 256,-252.84 259.5,-242.84 252.5,-242.84"/>
</a>
</g>
</g>
<!-- Node8 -->
<g id="Node000008" class="node">
<title>Node8</title>
<g id="a_Node000008"><a xlink:href="classmpqc_1_1detail_1_1virt__base__of__enable__shared__from__this.html" target="_top" xlink:title="helper class for mpqc::enable_shared_from_this">
<polygon fill="white" stroke="#666666" points="324.5,-360 187.5,-360 187.5,-319 324.5,-319 324.5,-360"/>
<text text-anchor="start" x="195.5" y="-348" font-family="FreeSans" font-size="10.00">mpqc::detail::virt</text>
<text text-anchor="start" x="195.5" y="-337" font-family="FreeSans" font-size="10.00">_base_of_enable_shared</text>
<text text-anchor="middle" x="256" y="-326" font-family="FreeSans" font-size="10.00">_from_this</text>
</a>
</g>
</g>
<!-- Node8&#45;&gt;Node7 -->
<g id="edge7_Node000007_Node000008" class="edge">
<title>Node8&#45;&gt;Node7</title>
<g id="a_edge7_Node000007_Node000008"><a xlink:title=" ">
<path fill="none" stroke="#63b8ff" d="M256,-308.66C256,-299.76 256,-290.42 256,-283.04"/>
<polygon fill="#63b8ff" stroke="#63b8ff" points="252.5,-308.77 256,-318.77 259.5,-308.77 252.5,-308.77"/>
</a>
</g>
</g>
<!-- Node9 -->
<g id="Node000009" class="node">
<title>Node9</title>
<g id="a_Node000009"><a xlink:title=" ">
<polygon fill="white" stroke="#666666" points="324.5,-448 187.5,-448 187.5,-396 324.5,-396 324.5,-448"/>
<text text-anchor="start" x="195.5" y="-436" font-family="FreeSans" font-size="10.00">std::enable_shared</text>
<text text-anchor="start" x="195.5" y="-425" font-family="FreeSans" font-size="10.00">_from_this&lt; virt_base</text>
<text text-anchor="start" x="195.5" y="-414" font-family="FreeSans" font-size="10.00">_of_enable_shared_from</text>
<text text-anchor="middle" x="256" y="-403" font-family="FreeSans" font-size="10.00">_this &gt;</text>
</a>
</g>
</g>
<!-- Node9&#45;&gt;Node8 -->
<g id="edge8_Node000008_Node000009" class="edge">
<title>Node9&#45;&gt;Node8</title>
<g id="a_edge8_Node000008_Node000009"><a xlink:title=" ">
<path fill="none" stroke="#63b8ff" d="M256,-385.87C256,-377.05 256,-367.9 256,-360.15"/>
<polygon fill="#63b8ff" stroke="#63b8ff" points="252.5,-385.97 256,-395.97 259.5,-385.97 252.5,-385.97"/>
</a>
</g>
</g>
<!-- Node10 -->
<g id="Node000010" class="node">
<title>Node10</title>
<g id="a_Node000010"><a xlink:href="classmpqc_1_1_key_val_1_1_writable.html" target="_top" xlink:title="base class for objects that can write themselves to a KeyVal">
<polygon fill="white" stroke="#666666" points="440,-156.5 310,-156.5 310,-137.5 440,-137.5 440,-156.5"/>
<text text-anchor="middle" x="375" y="-144.5" font-family="FreeSans" font-size="10.00">mpqc::KeyVal::Writable</text>
</a>
</g>
</g>
<!-- Node10&#45;&gt;Node4 -->
<g id="edge9_Node000004_Node000010" class="edge">
<title>Node10&#45;&gt;Node4</title>
<g id="a_edge9_Node000004_Node000010"><a xlink:title=" ">
<path fill="none" stroke="#63b8ff" d="M354.15,-131.33C336.3,-118.78 311.2,-101.13 296.37,-90.7"/>
<polygon fill="#63b8ff" stroke="#63b8ff" points="352.53,-134.48 362.73,-137.37 356.56,-128.75 352.53,-134.48"/>
</a>
</g>
</g>
</g>
</svg>
