<?xml version="1.0" encoding="UTF-8" standalone="no"?>
<!DOCTYPE svg PUBLIC "-//W3C//DTD SVG 1.1//EN"
 "http://www.w3.org/Graphics/SVG/1.1/DTD/svg11.dtd">
<!-- Generated by graphviz version 2.43.0 (0)
 -->
<!-- Title: mpqc::lcao::integrals::ResultExpr Pages: 1 -->
<svg width="150pt" height="335pt"
 viewBox="0.00 0.00 150.00 335.00" xmlns="http://www.w3.org/2000/svg" xmlns:xlink="http://www.w3.org/1999/xlink">
<g id="graph0" class="graph" transform="scale(1 1) rotate(0) translate(4 331)">
<title>mpqc::lcao::integrals::ResultExpr</title>
<!-- Node1 -->
<g id="Node000001" class="node">
<title>Node1</title>
<g id="a_Node000001"><a xlink:title="class for result expressions e.g. (i j a b) or">
<polygon fill="#999999" stroke="#666666" points="130.5,-30 11.5,-30 11.5,0 130.5,0 130.5,-30"/>
<text text-anchor="start" x="19.5" y="-18" font-family="FreeSans" font-size="10.00">mpqc::lcao::integrals</text>
<text text-anchor="middle" x="71" y="-7" font-family="FreeSans" font-size="10.00">::ResultExpr</text>
</a>
</g>
</g>
<!-- Node2 -->
<g id="Node000002" class="node">
<title>Node2</title>
<g id="a_Node000002"><a xlink:href="classmpqc_1_1lcao_1_1integrals_1_1_direct_expr.html" target="_top" xlink:title="parent class for all direct expressions">
<polygon fill="white" stroke="#666666" points="130.5,-96 11.5,-96 11.5,-66 130.5,-66 130.5,-96"/>
<text text-anchor="start" x="19.5" y="-84" font-family="FreeSans" font-size="10.00">mpqc::lcao::integrals</text>
<text text-anchor="middle" x="71" y="-73" font-family="FreeSans" font-size="10.00">::DirectExpr</text>
</a>
</g>
</g>
<!-- Node2&#45;&gt;Node1 -->
<g id="edge1_Node000001_Node000002" class="edge">
<title>Node2&#45;&gt;Node1</title>
<g id="a_edge1_Node000001_Node000002"><a xlink:title=" ">
<path fill="none" stroke="#63b8ff" d="M71,-55.54C71,-46.96 71,-37.61 71,-30.16"/>
<polygon fill="#63b8ff" stroke="#63b8ff" points="67.5,-55.8 71,-65.8 74.5,-55.8 67.5,-55.8"/>
</a>
</g>
</g>
<!-- Node3 -->
<g id="Node000003" class="node">
<title>Node3</title>
<g id="a_Node000003"><a xlink:href="classmpqc_1_1enable__shared__from__this.html" target="_top" xlink:title=" ">
<polygon fill="white" stroke="#666666" points="142,-162 0,-162 0,-132 142,-132 142,-162"/>
<text text-anchor="start" x="8" y="-150" font-family="FreeSans" font-size="10.00">mpqc::enable_shared</text>
<text text-anchor="middle" x="71" y="-139" font-family="FreeSans" font-size="10.00">_from_this&lt; DirectExpr &gt;</text>
</a>
</g>
</g>
<!-- Node3&#45;&gt;Node2 -->
<g id="edge2_Node000002_Node000003" class="edge">
<title>Node3&#45;&gt;Node2</title>
<g id="a_edge2_Node000002_Node000003"><a xlink:title=" ">
<path fill="none" stroke="#63b8ff" d="M71,-121.54C71,-112.96 71,-103.61 71,-96.16"/>
<polygon fill="#63b8ff" stroke="#63b8ff" points="67.5,-121.8 71,-131.8 74.5,-121.8 67.5,-121.8"/>
</a>
</g>
</g>
<!-- Node4 -->
<g id="Node000004" class="node">
<title>Node4</title>
<g id="a_Node000004"><a xlink:href="classmpqc_1_1detail_1_1virt__base__of__enable__shared__from__this.html" target="_top" xlink:title="helper class for mpqc::enable_shared_from_this">
<polygon fill="white" stroke="#666666" points="139.5,-239 2.5,-239 2.5,-198 139.5,-198 139.5,-239"/>
<text text-anchor="start" x="10.5" y="-227" font-family="FreeSans" font-size="10.00">mpqc::detail::virt</text>
<text text-anchor="start" x="10.5" y="-216" font-family="FreeSans" font-size="10.00">_base_of_enable_shared</text>
<text text-anchor="middle" x="71" y="-205" font-family="FreeSans" font-size="10.00">_from_this</text>
</a>
</g>
</g>
<!-- Node4&#45;&gt;Node3 -->
<g id="edge3_Node000003_Node000004" class="edge">
<title>Node4&#45;&gt;Node3</title>
<g id="a_edge3_Node000003_Node000004"><a xlink:title=" ">
<path fill="none" stroke="#63b8ff" d="M71,-187.66C71,-178.76 71,-169.42 71,-162.04"/>
<polygon fill="#63b8ff" stroke="#63b8ff" points="67.5,-187.77 71,-197.77 74.5,-187.77 67.5,-187.77"/>
</a>
</g>
</g>
<!-- Node5 -->
<g id="Node000005" class="node">
<title>Node5</title>
<g id="a_Node000005"><a xlink:title=" ">
<polygon fill="white" stroke="#666666" points="139.5,-327 2.5,-327 2.5,-275 139.5,-275 139.5,-327"/>
<text text-anchor="start" x="10.5" y="-315" font-family="FreeSans" font-size="10.00">std::enable_shared</text>
<text text-anchor="start" x="10.5" y="-304" font-family="FreeSans" font-size="10.00">_from_this&lt; virt_base</text>
<text text-anchor="start" x="10.5" y="-293" font-family="FreeSans" font-size="10.00">_of_enable_shared_from</text>
<text text-anchor="middle" x="71" y="-282" font-family="FreeSans" font-size="10.00">_this &gt;</text>
</a>
</g>
</g>
<!-- Node5&#45;&gt;Node4 -->
<g id="edge4_Node000004_Node000005" class="edge">
<title>Node5&#45;&gt;Node4</title>
<g id="a_edge4_Node000004_Node000005"><a xlink:title=" ">
<path fill="none" stroke="#63b8ff" d="M71,-264.87C71,-256.05 71,-246.9 71,-239.15"/>
<polygon fill="#63b8ff" stroke="#63b8ff" points="67.5,-264.97 71,-274.97 74.5,-264.97 67.5,-264.97"/>
</a>
</g>
</g>
</g>
</svg>
