<?xml version="1.0" encoding="UTF-8" standalone="no"?>
<!DOCTYPE svg PUBLIC "-//W3C//DTD SVG 1.1//EN"
 "http://www.w3.org/Graphics/SVG/1.1/DTD/svg11.dtd">
<!-- Generated by graphviz version 2.43.0 (0)
 -->
<!-- Title: mpqc::lcao::AOWavefunction&lt; Tile, Policy &gt; Pages: 1 -->
<svg width="300pt" height="434pt"
 viewBox="0.00 0.00 300.00 434.00" xmlns="http://www.w3.org/2000/svg" xmlns:xlink="http://www.w3.org/1999/xlink">

<svg id="main" version="1.1" xmlns="http://www.w3.org/2000/svg" xmlns:xlink="http://www.w3.org/1999/xlink" xml:space="preserve" onload="init(evt)">
<style type="text/css"><![CDATA[
.node, .edge {opacity: 0.7;}
.node.selected, .edge.selected {opacity: 1;}
.edge:hover path { stroke: red; }
.edge:hover polygon { stroke: red; fill: red; }
]]></style>
<script type="application/ecmascript" xlink:href="svg.min.js"/>
<svg id="graph" class="graph">
<g id="graph0" class="graph" transform="scale(1 1) rotate(0) translate(4 430)">
<title>mpqc::lcao::AOWavefunction&lt; Tile, Policy &gt;</title>
<!-- Node1 -->
<g id="Node000001" class="node">
<title>Node1</title>
<g id="a_Node000001"><a xlink:title="AOWavefunction is a Wavefunction&lt;&gt; with an abstract AOFactory&lt;&gt;">
<polygon fill="#999999" stroke="#666666" points="233.5,-30 76.5,-30 76.5,0 233.5,0 233.5,-30"/>
<text text-anchor="start" x="84.5" y="-18" font-family="FreeSans" font-size="10.00">mpqc::lcao::AOWavefunction</text>
<text text-anchor="middle" x="155" y="-7" font-family="FreeSans" font-size="10.00">&lt; Tile, Policy &gt;</text>
</a>
</g>
</g>
<!-- Node2 -->
<g id="Node000002" class="node">
<title>Node2</title>
<g id="a_Node000002"><a xlink:href="classmpqc_1_1lcao_1_1_wavefunction.html" target="_top" xlink:title=" ">
<polygon fill="white" stroke="#666666" points="226.5,-85 83.5,-85 83.5,-66 226.5,-66 226.5,-85"/>
<text text-anchor="middle" x="155" y="-73" font-family="FreeSans" font-size="10.00">mpqc::lcao::Wavefunction</text>
</a>
</g>
</g>
<!-- Node2&#45;&gt;Node1 -->
<g id="edge1_Node000001_Node000002" class="edge">
<title>Node2&#45;&gt;Node1</title>
<g id="a_edge1_Node000001_Node000002"><a xlink:title=" ">
<path fill="none" stroke="#63b8ff" d="M155,-55.65C155,-47.36 155,-37.78 155,-30.11"/>
<polygon fill="#63b8ff" stroke="#63b8ff" points="151.5,-55.87 155,-65.87 158.5,-55.87 151.5,-55.87"/>
</a>
</g>
</g>
<!-- Node3 -->
<g id="Node000003" class="node">
<title>Node3</title>
<g id="a_Node000003"><a xlink:href="classmpqc_1_1_wavefunction.html" target="_top" xlink:title=" ">
<polygon fill="white" stroke="#666666" points="213,-140 97,-140 97,-121 213,-121 213,-140"/>
<text text-anchor="middle" x="155" y="-128" font-family="FreeSans" font-size="10.00">mpqc::Wavefunction</text>
</a>
</g>
</g>
<!-- Node3&#45;&gt;Node2 -->
<g id="edge2_Node000002_Node000003" class="edge">
<title>Node3&#45;&gt;Node2</title>
<g id="a_edge2_Node000002_Node000003"><a xlink:title=" ">
<path fill="none" stroke="#63b8ff" d="M155,-110.66C155,-101.93 155,-91.99 155,-85.09"/>
<polygon fill="#63b8ff" stroke="#63b8ff" points="151.5,-110.75 155,-120.75 158.5,-110.75 151.5,-110.75"/>
</a>
</g>
</g>
<!-- Node4 -->
<g id="Node000004" class="node">
<title>Node4</title>
<g id="a_Node000004"><a xlink:href="classmpqc_1_1_described_class.html" target="_top" xlink:title=" ">
<polygon fill="white" stroke="#666666" points="145.5,-195 20.5,-195 20.5,-176 145.5,-176 145.5,-195"/>
<text text-anchor="middle" x="83" y="-183" font-family="FreeSans" font-size="10.00">mpqc::DescribedClass</text>
</a>
</g>
</g>
<!-- Node4&#45;&gt;Node3 -->
<g id="edge3_Node000003_Node000004" class="edge">
<title>Node4&#45;&gt;Node3</title>
<g id="a_edge3_Node000003_Node000004"><a xlink:title=" ">
<path fill="none" stroke="#63b8ff" d="M102.87,-169.88C115.82,-160.34 132.3,-148.21 143.22,-140.17"/>
<polygon fill="#63b8ff" stroke="#63b8ff" points="100.55,-167.24 94.57,-175.98 104.7,-172.88 100.55,-167.24"/>
</a>
</g>
</g>
<!-- Node5 -->
<g id="Node000005" class="node">
<title>Node5</title>
<g id="a_Node000005"><a xlink:href="classmpqc_1_1enable__shared__from__this.html" target="_top" xlink:title=" ">
<polygon fill="white" stroke="#666666" points="166,-261 0,-261 0,-231 166,-231 166,-261"/>
<text text-anchor="start" x="8" y="-249" font-family="FreeSans" font-size="10.00">mpqc::enable_shared</text>
<text text-anchor="middle" x="83" y="-238" font-family="FreeSans" font-size="10.00">_from_this&lt; DescribedClass &gt;</text>
</a>
</g>
</g>
<!-- Node5&#45;&gt;Node4 -->
<g id="edge4_Node000004_Node000005" class="edge">
<title>Node5&#45;&gt;Node4</title>
<g id="a_edge4_Node000004_Node000005"><a xlink:title=" ">
<path fill="none" stroke="#63b8ff" d="M83,-220.75C83,-211.72 83,-202.03 83,-195.27"/>
<polygon fill="#63b8ff" stroke="#63b8ff" points="79.5,-220.84 83,-230.84 86.5,-220.84 79.5,-220.84"/>
</a>
</g>
</g>
<!-- Node6 -->
<g id="Node000006" class="node">
<title>Node6</title>
<g id="a_Node000006"><a xlink:href="classmpqc_1_1detail_1_1virt__base__of__enable__shared__from__this.html" target="_top" xlink:title="helper class for mpqc::enable_shared_from_this">
<polygon fill="white" stroke="#666666" points="151.5,-338 14.5,-338 14.5,-297 151.5,-297 151.5,-338"/>
<text text-anchor="start" x="22.5" y="-326" font-family="FreeSans" font-size="10.00">mpqc::detail::virt</text>
<text text-anchor="start" x="22.5" y="-315" font-family="FreeSans" font-size="10.00">_base_of_enable_shared</text>
<text text-anchor="middle" x="83" y="-304" font-family="FreeSans" font-size="10.00">_from_this</text>
</a>
</g>
</g>
<!-- Node6&#45;&gt;Node5 -->
<g id="edge5_Node000005_Node000006" class="edge">
<title>Node6&#45;&gt;Node5</title>
<g id="a_edge5_Node000005_Node000006"><a xlink:title=" ">
<path fill="none" stroke="#63b8ff" d="M83,-286.66C83,-277.76 83,-268.42 83,-261.04"/>
<polygon fill="#63b8ff" stroke="#63b8ff" points="79.5,-286.77 83,-296.77 86.5,-286.77 79.5,-286.77"/>
</a>
</g>
</g>
<!-- Node7 -->
<g id="Node000007" class="node">
<title>Node7</title>
<g id="a_Node000007"><a xlink:title=" ">
<polygon fill="white" stroke="#666666" points="151.5,-426 14.5,-426 14.5,-374 151.5,-374 151.5,-426"/>
<text text-anchor="start" x="22.5" y="-414" font-family="FreeSans" font-size="10.00">std::enable_shared</text>
<text text-anchor="start" x="22.5" y="-403" font-family="FreeSans" font-size="10.00">_from_this&lt; virt_base</text>
<text text-anchor="start" x="22.5" y="-392" font-family="FreeSans" font-size="10.00">_of_enable_shared_from</text>
<text text-anchor="middle" x="83" y="-381" font-family="FreeSans" font-size="10.00">_this &gt;</text>
</a>
</g>
</g>
<!-- Node7&#45;&gt;Node6 -->
<g id="edge6_Node000006_Node000007" class="edge">
<title>Node7&#45;&gt;Node6</title>
<g id="a_edge6_Node000006_Node000007"><a xlink:title=" ">
<path fill="none" stroke="#63b8ff" d="M83,-363.87C83,-355.05 83,-345.9 83,-338.15"/>
<polygon fill="#63b8ff" stroke="#63b8ff" points="79.5,-363.97 83,-373.97 86.5,-363.97 79.5,-363.97"/>
</a>
</g>
</g>
<!-- Node8 -->
<g id="Node000008" class="node">
<title>Node8</title>
<g id="a_Node000008"><a xlink:href="classmpqc_1_1utility_1_1_observer.html" target="_top" xlink:title="helps to set up messaging between objects via the Observer pattern">
<polygon fill="white" stroke="#666666" points="292,-195 164,-195 164,-176 292,-176 292,-195"/>
<text text-anchor="middle" x="228" y="-183" font-family="FreeSans" font-size="10.00">mpqc::utility::Observer</text>
</a>
</g>
</g>
<!-- Node8&#45;&gt;Node3 -->
<g id="edge7_Node000003_Node000008" class="edge">
<title>Node8&#45;&gt;Node3</title>
<g id="a_edge7_Node000003_Node000008"><a xlink:title=" ">
<path fill="none" stroke="#63b8ff" d="M207.86,-169.88C194.72,-160.34 178.02,-148.21 166.94,-140.17"/>
<polygon fill="#63b8ff" stroke="#63b8ff" points="206.12,-172.94 216.27,-175.98 210.24,-167.28 206.12,-172.94"/>
</a>
</g>
</g>
</g>
</svg>
</svg>

<style type='text/css'>
<![CDATA[
[data-mouse-over-selected='false'] { opacity: 0.7; }
[data-mouse-over-selected='true']  { opacity: 1.0; }
]]>
</style>
<script type="application/ecmascript"><![CDATA[
document.addEventListener('DOMContentLoaded', (event) => {
  highlightEdges();
  highlightAdjacentNodes();
});
]]></script>
</svg>
