<?xml version="1.0" encoding="UTF-8" standalone="no"?>
<!DOCTYPE svg PUBLIC "-//W3C//DTD SVG 1.1//EN"
 "http://www.w3.org/Graphics/SVG/1.1/DTD/svg11.dtd">
<!-- Generated by graphviz version 2.43.0 (0)
 -->
<!-- Title: mpqc::mra::SPSolver&lt; Basis, Tile, Policy &gt; Pages: 1 -->
<svg width="422pt" height="445pt"
 viewBox="0.00 0.00 422.00 445.00" xmlns="http://www.w3.org/2000/svg" xmlns:xlink="http://www.w3.org/1999/xlink">
<g id="graph0" class="graph" transform="scale(1 1) rotate(0) translate(4 441)">
<title>mpqc::mra::SPSolver&lt; Basis, Tile, Policy &gt;</title>
<!-- Node1 -->
<g id="Node000001" class="node">
<title>Node1</title>
<g id="a_Node000001"><a xlink:title=" ">
<polygon fill="#999999" stroke="#666666" points="304.5,-30 179.5,-30 179.5,0 304.5,0 304.5,-30"/>
<text text-anchor="start" x="187.5" y="-18" font-family="FreeSans" font-size="10.00">mpqc::mra::SPSolver</text>
<text text-anchor="middle" x="242" y="-7" font-family="FreeSans" font-size="10.00">&lt; Basis, Tile, Policy &gt;</text>
</a>
</g>
</g>
<!-- Node2 -->
<g id="Node000002" class="node">
<title>Node2</title>
<g id="a_Node000002"><a xlink:href="classmpqc_1_1mra_1_1_wavefunction.html" target="_top" xlink:title=" ">
<polygon fill="white" stroke="#666666" points="226,-90.5 84,-90.5 84,-71.5 226,-71.5 226,-90.5"/>
<text text-anchor="middle" x="155" y="-78.5" font-family="FreeSans" font-size="10.00">mpqc::mra::Wavefunction</text>
</a>
</g>
</g>
<!-- Node2&#45;&gt;Node1 -->
<g id="edge1_Node000001_Node000002" class="edge">
<title>Node2&#45;&gt;Node1</title>
<g id="a_edge1_Node000001_Node000002"><a xlink:title=" ">
<path fill="none" stroke="#63b8ff" d="M174.96,-65.32C189.33,-54.74 208.62,-40.56 222.81,-30.12"/>
<polygon fill="#63b8ff" stroke="#63b8ff" points="172.71,-62.62 166.73,-71.37 176.86,-68.26 172.71,-62.62"/>
</a>
</g>
</g>
<!-- Node3 -->
<g id="Node000003" class="node">
<title>Node3</title>
<g id="a_Node000003"><a xlink:href="classmpqc_1_1_wavefunction.html" target="_top" xlink:title=" ">
<polygon fill="white" stroke="#666666" points="213,-151 97,-151 97,-132 213,-132 213,-151"/>
<text text-anchor="middle" x="155" y="-139" font-family="FreeSans" font-size="10.00">mpqc::Wavefunction</text>
</a>
</g>
</g>
<!-- Node3&#45;&gt;Node2 -->
<g id="edge2_Node000002_Node000003" class="edge">
<title>Node3&#45;&gt;Node2</title>
<g id="a_edge2_Node000002_Node000003"><a xlink:title=" ">
<path fill="none" stroke="#63b8ff" d="M155,-121.66C155,-111.24 155,-98.8 155,-90.67"/>
<polygon fill="#63b8ff" stroke="#63b8ff" points="151.5,-121.87 155,-131.87 158.5,-121.87 151.5,-121.87"/>
</a>
</g>
</g>
<!-- Node4 -->
<g id="Node000004" class="node">
<title>Node4</title>
<g id="a_Node000004"><a xlink:href="classmpqc_1_1_described_class.html" target="_top" xlink:title=" ">
<polygon fill="white" stroke="#666666" points="145.5,-206 20.5,-206 20.5,-187 145.5,-187 145.5,-206"/>
<text text-anchor="middle" x="83" y="-194" font-family="FreeSans" font-size="10.00">mpqc::DescribedClass</text>
</a>
</g>
</g>
<!-- Node4&#45;&gt;Node3 -->
<g id="edge3_Node000003_Node000004" class="edge">
<title>Node4&#45;&gt;Node3</title>
<g id="a_edge3_Node000003_Node000004"><a xlink:title=" ">
<path fill="none" stroke="#63b8ff" d="M102.87,-180.88C115.82,-171.34 132.3,-159.21 143.22,-151.17"/>
<polygon fill="#63b8ff" stroke="#63b8ff" points="100.55,-178.24 94.57,-186.98 104.7,-183.88 100.55,-178.24"/>
</a>
</g>
</g>
<!-- Node5 -->
<g id="Node000005" class="node">
<title>Node5</title>
<g id="a_Node000005"><a xlink:href="classmpqc_1_1enable__shared__from__this.html" target="_top" xlink:title=" ">
<polygon fill="white" stroke="#666666" points="166,-272 0,-272 0,-242 166,-242 166,-272"/>
<text text-anchor="start" x="8" y="-260" font-family="FreeSans" font-size="10.00">mpqc::enable_shared</text>
<text text-anchor="middle" x="83" y="-249" font-family="FreeSans" font-size="10.00">_from_this&lt; DescribedClass &gt;</text>
</a>
</g>
</g>
<!-- Node5&#45;&gt;Node4 -->
<g id="edge4_Node000004_Node000005" class="edge">
<title>Node5&#45;&gt;Node4</title>
<g id="a_edge4_Node000004_Node000005"><a xlink:title=" ">
<path fill="none" stroke="#63b8ff" d="M83,-231.75C83,-222.72 83,-213.03 83,-206.27"/>
<polygon fill="#63b8ff" stroke="#63b8ff" points="79.5,-231.84 83,-241.84 86.5,-231.84 79.5,-231.84"/>
</a>
</g>
</g>
<!-- Node6 -->
<g id="Node000006" class="node">
<title>Node6</title>
<g id="a_Node000006"><a xlink:href="classmpqc_1_1detail_1_1virt__base__of__enable__shared__from__this.html" target="_top" xlink:title="helper class for mpqc::enable_shared_from_this">
<polygon fill="white" stroke="#666666" points="151.5,-349 14.5,-349 14.5,-308 151.5,-308 151.5,-349"/>
<text text-anchor="start" x="22.5" y="-337" font-family="FreeSans" font-size="10.00">mpqc::detail::virt</text>
<text text-anchor="start" x="22.5" y="-326" font-family="FreeSans" font-size="10.00">_base_of_enable_shared</text>
<text text-anchor="middle" x="83" y="-315" font-family="FreeSans" font-size="10.00">_from_this</text>
</a>
</g>
</g>
<!-- Node6&#45;&gt;Node5 -->
<g id="edge5_Node000005_Node000006" class="edge">
<title>Node6&#45;&gt;Node5</title>
<g id="a_edge5_Node000005_Node000006"><a xlink:title=" ">
<path fill="none" stroke="#63b8ff" d="M83,-297.66C83,-288.76 83,-279.42 83,-272.04"/>
<polygon fill="#63b8ff" stroke="#63b8ff" points="79.5,-297.77 83,-307.77 86.5,-297.77 79.5,-297.77"/>
</a>
</g>
</g>
<!-- Node7 -->
<g id="Node000007" class="node">
<title>Node7</title>
<g id="a_Node000007"><a xlink:title=" ">
<polygon fill="white" stroke="#666666" points="151.5,-437 14.5,-437 14.5,-385 151.5,-385 151.5,-437"/>
<text text-anchor="start" x="22.5" y="-425" font-family="FreeSans" font-size="10.00">std::enable_shared</text>
<text text-anchor="start" x="22.5" y="-414" font-family="FreeSans" font-size="10.00">_from_this&lt; virt_base</text>
<text text-anchor="start" x="22.5" y="-403" font-family="FreeSans" font-size="10.00">_of_enable_shared_from</text>
<text text-anchor="middle" x="83" y="-392" font-family="FreeSans" font-size="10.00">_this &gt;</text>
</a>
</g>
</g>
<!-- Node7&#45;&gt;Node6 -->
<g id="edge6_Node000006_Node000007" class="edge">
<title>Node7&#45;&gt;Node6</title>
<g id="a_edge6_Node000006_Node000007"><a xlink:title=" ">
<path fill="none" stroke="#63b8ff" d="M83,-374.87C83,-366.05 83,-356.9 83,-349.15"/>
<polygon fill="#63b8ff" stroke="#63b8ff" points="79.5,-374.97 83,-384.97 86.5,-374.97 79.5,-374.97"/>
</a>
</g>
</g>
<!-- Node8 -->
<g id="Node000008" class="node">
<title>Node8</title>
<g id="a_Node000008"><a xlink:href="classmpqc_1_1utility_1_1_observer.html" target="_top" xlink:title="helps to set up messaging between objects via the Observer pattern">
<polygon fill="white" stroke="#666666" points="292,-206 164,-206 164,-187 292,-187 292,-206"/>
<text text-anchor="middle" x="228" y="-194" font-family="FreeSans" font-size="10.00">mpqc::utility::Observer</text>
</a>
</g>
</g>
<!-- Node8&#45;&gt;Node3 -->
<g id="edge7_Node000003_Node000008" class="edge">
<title>Node8&#45;&gt;Node3</title>
<g id="a_edge7_Node000003_Node000008"><a xlink:title=" ">
<path fill="none" stroke="#63b8ff" d="M207.86,-180.88C194.72,-171.34 178.02,-159.21 166.94,-151.17"/>
<polygon fill="#63b8ff" stroke="#63b8ff" points="206.12,-183.94 216.27,-186.98 210.24,-178.28 206.12,-183.94"/>
</a>
</g>
</g>
<!-- Node9 -->
<g id="Node000009" class="node">
<title>Node9</title>
<g id="a_Node000009"><a xlink:href="classmpqc_1_1_provides.html" target="_top" xlink:title=" ">
<polygon fill="white" stroke="#666666" points="414,-96 244,-96 244,-66 414,-66 414,-96"/>
<text text-anchor="start" x="252" y="-84" font-family="FreeSans" font-size="10.00">mpqc::Provides&lt; Energy,</text>
<text text-anchor="middle" x="329" y="-73" font-family="FreeSans" font-size="10.00"> PopulatedSPSpace&lt; Basis &gt; &gt;</text>
</a>
</g>
</g>
<!-- Node9&#45;&gt;Node1 -->
<g id="edge8_Node000001_Node000009" class="edge">
<title>Node9&#45;&gt;Node1</title>
<g id="a_edge8_Node000001_Node000009"><a xlink:title=" ">
<path fill="none" stroke="#63b8ff" d="M301.48,-59.75C288.39,-50.13 273.07,-38.86 261.25,-30.16"/>
<polygon fill="#63b8ff" stroke="#63b8ff" points="299.56,-62.69 309.69,-65.8 303.71,-57.05 299.56,-62.69"/>
</a>
</g>
</g>
</g>
</svg>
