<?xml version="1.0" encoding="UTF-8" standalone="no"?>
<!DOCTYPE svg PUBLIC "-//W3C//DTD SVG 1.1//EN"
 "http://www.w3.org/Graphics/SVG/1.1/DTD/svg11.dtd">
<!-- Generated by graphviz version 2.43.0 (0)
 -->
<!-- Title: mpqc::lcao::ci::sCI&lt; Tile, Policy &gt; Pages: 1 -->
<svg width="1363pt" height="136pt"
 viewBox="0.00 0.00 1363.00 135.50" xmlns="http://www.w3.org/2000/svg" xmlns:xlink="http://www.w3.org/1999/xlink">
<g id="graph0" class="graph" transform="scale(1 1) rotate(0) translate(4 131.5)">
<title>mpqc::lcao::ci::sCI&lt; Tile, Policy &gt;</title>
<!-- Node1 -->
<g id="Node000001" class="node">
<title>Node1</title>
<g id="a_Node000001"><a xlink:title=" ">
<polygon fill="#999999" stroke="#666666" points="1355,-84.5 1250,-84.5 1250,-54.5 1355,-54.5 1355,-84.5"/>
<text text-anchor="start" x="1258" y="-72.5" font-family="FreeSans" font-size="10.00">mpqc::lcao::ci::sCI</text>
<text text-anchor="middle" x="1302.5" y="-61.5" font-family="FreeSans" font-size="10.00">&lt; Tile, Policy &gt;</text>
</a>
</g>
</g>
<!-- Node2 -->
<g id="Node000002" class="node">
<title>Node2</title>
<g id="a_Node000002"><a xlink:href="classmpqc_1_1lcao_1_1_l_c_a_o_wavefunction.html" target="_top" xlink:title="LCAOWavefunction is a Wavefunction with an LCAOFactory.">
<polygon fill="white" stroke="#666666" points="1214,-127.5 1045,-127.5 1045,-97.5 1214,-97.5 1214,-127.5"/>
<text text-anchor="start" x="1053" y="-115.5" font-family="FreeSans" font-size="10.00">mpqc::lcao::LCAOWavefunction</text>
<text text-anchor="middle" x="1129.5" y="-104.5" font-family="FreeSans" font-size="10.00">&lt; Tile, Policy &gt;</text>
</a>
</g>
</g>
<!-- Node2&#45;&gt;Node1 -->
<g id="edge1_Node000001_Node000002" class="edge">
<title>Node2&#45;&gt;Node1</title>
<g id="a_edge1_Node000001_Node000002"><a xlink:title=" ">
<path fill="none" stroke="#63b8ff" d="M1200.02,-95.02C1216.72,-90.82 1234.26,-86.41 1249.97,-82.46"/>
<polygon fill="#63b8ff" stroke="#63b8ff" points="1199.15,-91.63 1190.31,-97.46 1200.86,-98.42 1199.15,-91.63"/>
</a>
</g>
</g>
<!-- Node3 -->
<g id="Node000003" class="node">
<title>Node3</title>
<g id="a_Node000003"><a xlink:href="classmpqc_1_1lcao_1_1_wavefunction.html" target="_top" xlink:title=" ">
<polygon fill="white" stroke="#666666" points="1008,-121 865,-121 865,-102 1008,-102 1008,-121"/>
<text text-anchor="middle" x="936.5" y="-109" font-family="FreeSans" font-size="10.00">mpqc::lcao::Wavefunction</text>
</a>
</g>
</g>
<!-- Node3&#45;&gt;Node2 -->
<g id="edge2_Node000002_Node000003" class="edge">
<title>Node3&#45;&gt;Node2</title>
<g id="a_edge2_Node000002_Node000003"><a xlink:title=" ">
<path fill="none" stroke="#63b8ff" d="M1018.33,-111.92C1027.14,-111.97 1036.12,-112.02 1044.96,-112.06"/>
<polygon fill="#63b8ff" stroke="#63b8ff" points="1018.1,-108.42 1008.08,-111.87 1018.06,-115.42 1018.1,-108.42"/>
</a>
</g>
</g>
<!-- Node4 -->
<g id="Node000004" class="node">
<title>Node4</title>
<g id="a_Node000004"><a xlink:href="classmpqc_1_1_wavefunction.html" target="_top" xlink:title=" ">
<polygon fill="white" stroke="#666666" points="828,-121 712,-121 712,-102 828,-102 828,-121"/>
<text text-anchor="middle" x="770" y="-109" font-family="FreeSans" font-size="10.00">mpqc::Wavefunction</text>
</a>
</g>
</g>
<!-- Node4&#45;&gt;Node3 -->
<g id="edge3_Node000003_Node000004" class="edge">
<title>Node4&#45;&gt;Node3</title>
<g id="a_edge3_Node000003_Node000004"><a xlink:title=" ">
<path fill="none" stroke="#63b8ff" d="M838.25,-111.5C847.04,-111.5 856.06,-111.5 864.9,-111.5"/>
<polygon fill="#63b8ff" stroke="#63b8ff" points="838.07,-108 828.07,-111.5 838.07,-115 838.07,-108"/>
</a>
</g>
</g>
<!-- Node5 -->
<g id="Node000005" class="node">
<title>Node5</title>
<g id="a_Node000005"><a xlink:href="classmpqc_1_1_described_class.html" target="_top" xlink:title=" ">
<polygon fill="white" stroke="#666666" points="674.5,-83 549.5,-83 549.5,-64 674.5,-64 674.5,-83"/>
<text text-anchor="middle" x="612" y="-71" font-family="FreeSans" font-size="10.00">mpqc::DescribedClass</text>
</a>
</g>
</g>
<!-- Node5&#45;&gt;Node4 -->
<g id="edge4_Node000004_Node000005" class="edge">
<title>Node5&#45;&gt;Node4</title>
<g id="a_edge4_Node000004_Node000005"><a xlink:title=" ">
<path fill="none" stroke="#63b8ff" d="M662.13,-85.47C683.99,-90.79 709.38,-96.98 729.92,-101.98"/>
<polygon fill="#63b8ff" stroke="#63b8ff" points="662.91,-82.06 652.37,-83.09 661.25,-88.86 662.91,-82.06"/>
</a>
</g>
</g>
<!-- Node10 -->
<g id="Node000010" class="node">
<title>Node10</title>
<g id="a_Node000010"><a xlink:href="classmpqc_1_1_multistate_impl_base.html" target="_top" xlink:title=" ">
<polygon fill="white" stroke="#666666" points="1009,-80 864,-80 864,-61 1009,-61 1009,-80"/>
<text text-anchor="middle" x="936.5" y="-68" font-family="FreeSans" font-size="10.00">mpqc::MultistateImplBase</text>
</a>
</g>
</g>
<!-- Node5&#45;&gt;Node10 -->
<g id="edge10_Node000010_Node000005" class="edge">
<title>Node5&#45;&gt;Node10</title>
<g id="a_edge10_Node000010_Node000005"><a xlink:title=" ">
<path fill="none" stroke="#63b8ff" d="M684.86,-72.83C738.16,-72.34 810.51,-71.66 863.78,-71.17"/>
<polygon fill="#63b8ff" stroke="#63b8ff" points="684.77,-69.33 674.8,-72.93 684.83,-76.33 684.77,-69.33"/>
</a>
</g>
</g>
<!-- Node6 -->
<g id="Node000006" class="node">
<title>Node6</title>
<g id="a_Node000006"><a xlink:href="classmpqc_1_1enable__shared__from__this.html" target="_top" xlink:title=" ">
<polygon fill="white" stroke="#666666" points="512,-88.5 346,-88.5 346,-58.5 512,-58.5 512,-88.5"/>
<text text-anchor="start" x="354" y="-76.5" font-family="FreeSans" font-size="10.00">mpqc::enable_shared</text>
<text text-anchor="middle" x="429" y="-65.5" font-family="FreeSans" font-size="10.00">_from_this&lt; DescribedClass &gt;</text>
</a>
</g>
</g>
<!-- Node6&#45;&gt;Node5 -->
<g id="edge5_Node000005_Node000006" class="edge">
<title>Node6&#45;&gt;Node5</title>
<g id="a_edge5_Node000005_Node000006"><a xlink:title=" ">
<path fill="none" stroke="#63b8ff" d="M522.04,-73.5C531.28,-73.5 540.5,-73.5 549.31,-73.5"/>
<polygon fill="#63b8ff" stroke="#63b8ff" points="522.03,-70 512.03,-73.5 522.03,-77 522.03,-70"/>
</a>
</g>
</g>
<!-- Node7 -->
<g id="Node000007" class="node">
<title>Node7</title>
<g id="a_Node000007"><a xlink:href="classmpqc_1_1detail_1_1virt__base__of__enable__shared__from__this.html" target="_top" xlink:title="helper class for mpqc::enable_shared_from_this">
<polygon fill="white" stroke="#666666" points="310,-94 173,-94 173,-53 310,-53 310,-94"/>
<text text-anchor="start" x="181" y="-82" font-family="FreeSans" font-size="10.00">mpqc::detail::virt</text>
<text text-anchor="start" x="181" y="-71" font-family="FreeSans" font-size="10.00">_base_of_enable_shared</text>
<text text-anchor="middle" x="241.5" y="-60" font-family="FreeSans" font-size="10.00">_from_this</text>
</a>
</g>
</g>
<!-- Node7&#45;&gt;Node6 -->
<g id="edge6_Node000006_Node000007" class="edge">
<title>Node7&#45;&gt;Node6</title>
<g id="a_edge6_Node000006_Node000007"><a xlink:title=" ">
<path fill="none" stroke="#63b8ff" d="M320.43,-73.5C328.86,-73.5 337.45,-73.5 345.92,-73.5"/>
<polygon fill="#63b8ff" stroke="#63b8ff" points="320.26,-70 310.26,-73.5 320.26,-77 320.26,-70"/>
</a>
</g>
</g>
<!-- Node8 -->
<g id="Node000008" class="node">
<title>Node8</title>
<g id="a_Node000008"><a xlink:title=" ">
<polygon fill="white" stroke="#666666" points="137,-99.5 0,-99.5 0,-47.5 137,-47.5 137,-99.5"/>
<text text-anchor="start" x="8" y="-87.5" font-family="FreeSans" font-size="10.00">std::enable_shared</text>
<text text-anchor="start" x="8" y="-76.5" font-family="FreeSans" font-size="10.00">_from_this&lt; virt_base</text>
<text text-anchor="start" x="8" y="-65.5" font-family="FreeSans" font-size="10.00">_of_enable_shared_from</text>
<text text-anchor="middle" x="68.5" y="-54.5" font-family="FreeSans" font-size="10.00">_this &gt;</text>
</a>
</g>
</g>
<!-- Node8&#45;&gt;Node7 -->
<g id="edge7_Node000007_Node000008" class="edge">
<title>Node8&#45;&gt;Node7</title>
<g id="a_edge7_Node000007_Node000008"><a xlink:title=" ">
<path fill="none" stroke="#63b8ff" d="M147.1,-73.5C155.69,-73.5 164.39,-73.5 172.85,-73.5"/>
<polygon fill="#63b8ff" stroke="#63b8ff" points="147.08,-70 137.08,-73.5 147.08,-77 147.08,-70"/>
</a>
</g>
</g>
<!-- Node9 -->
<g id="Node000009" class="node">
<title>Node9</title>
<g id="a_Node000009"><a xlink:href="classmpqc_1_1utility_1_1_observer.html" target="_top" xlink:title="helps to set up messaging between objects via the Observer pattern">
<polygon fill="white" stroke="#666666" points="676,-121 548,-121 548,-102 676,-102 676,-121"/>
<text text-anchor="middle" x="612" y="-109" font-family="FreeSans" font-size="10.00">mpqc::utility::Observer</text>
</a>
</g>
</g>
<!-- Node9&#45;&gt;Node4 -->
<g id="edge8_Node000004_Node000009" class="edge">
<title>Node9&#45;&gt;Node4</title>
<g id="a_edge8_Node000004_Node000009"><a xlink:title=" ">
<path fill="none" stroke="#63b8ff" d="M686.08,-111.5C694.72,-111.5 703.43,-111.5 711.81,-111.5"/>
<polygon fill="#63b8ff" stroke="#63b8ff" points="686,-108 676,-111.5 686,-115 686,-108"/>
</a>
</g>
</g>
<!-- Node10&#45;&gt;Node1 -->
<g id="edge9_Node000001_Node000010" class="edge">
<title>Node10&#45;&gt;Node1</title>
<g id="a_edge9_Node000001_Node000010"><a xlink:title=" ">
<path fill="none" stroke="#63b8ff" d="M1019.62,-70.27C1090.29,-70.08 1190.05,-69.81 1249.99,-69.64"/>
<polygon fill="#63b8ff" stroke="#63b8ff" points="1019.4,-66.77 1009.41,-70.3 1019.42,-73.77 1019.4,-66.77"/>
</a>
</g>
</g>
<!-- Node11 -->
<g id="Node000011" class="node">
<title>Node11</title>
<g id="a_Node000011"><a xlink:href="classmpqc_1_1_provides.html" target="_top" xlink:title=" ">
<polygon fill="white" stroke="#666666" points="1199.5,-41 1059.5,-41 1059.5,0 1199.5,0 1199.5,-41"/>
<text text-anchor="start" x="1067.5" y="-29" font-family="FreeSans" font-size="10.00">mpqc::Provides&lt; Energy,</text>
<text text-anchor="start" x="1067.5" y="-18" font-family="FreeSans" font-size="10.00"> ExcitationEnergy, RDM</text>
<text text-anchor="middle" x="1129.5" y="-7" font-family="FreeSans" font-size="10.00">&lt; Tile, Policy &gt; &gt;</text>
</a>
</g>
</g>
<!-- Node11&#45;&gt;Node1 -->
<g id="edge11_Node000001_Node000011" class="edge">
<title>Node11&#45;&gt;Node1</title>
<g id="a_edge11_Node000001_Node000011"><a xlink:title=" ">
<path fill="none" stroke="#63b8ff" d="M1209.47,-43.13C1223.16,-47.05 1237.08,-51.04 1249.81,-54.69"/>
<polygon fill="#63b8ff" stroke="#63b8ff" points="1210.14,-39.68 1199.56,-40.29 1208.21,-46.41 1210.14,-39.68"/>
</a>
</g>
</g>
</g>
</svg>
