<?xml version="1.0" encoding="UTF-8" standalone="no"?>
<!DOCTYPE svg PUBLIC "-//W3C//DTD SVG 1.1//EN"
 "http://www.w3.org/Graphics/SVG/1.1/DTD/svg11.dtd">
<!-- Generated by graphviz version 2.43.0 (0)
 -->
<!-- Title: mpqc::lcao::pbc::DirectFockBuilder&lt; Tile, Policy &gt; Pages: 1 -->
<svg width="351pt" height="98pt"
 viewBox="0.00 0.00 351.00 97.50" xmlns="http://www.w3.org/2000/svg" xmlns:xlink="http://www.w3.org/1999/xlink">
<g id="graph0" class="graph" transform="scale(1 1) rotate(0) translate(4 93.5)">
<title>mpqc::lcao::pbc::DirectFockBuilder&lt; Tile, Policy &gt;</title>
<!-- Node1 -->
<g id="Node000001" class="node">
<title>Node1</title>
<g id="a_Node000001"><a xlink:title=" ">
<polygon fill="#999999" stroke="#666666" points="343,-62.5 192,-62.5 192,-32.5 343,-32.5 343,-62.5"/>
<text text-anchor="start" x="200" y="-50.5" font-family="FreeSans" font-size="10.00">mpqc::lcao::pbc::DirectFock</text>
<text text-anchor="middle" x="267.5" y="-39.5" font-family="FreeSans" font-size="10.00">Builder&lt; Tile, Policy &gt;</text>
</a>
</g>
</g>
<!-- Node2 -->
<g id="Node000002" class="node">
<title>Node2</title>
<g id="a_Node000002"><a xlink:href="classmpqc_1_1lcao_1_1pbc_1_1_fock_builder.html" target="_top" xlink:title=" ">
<polygon fill="white" stroke="#666666" points="156,-89.5 0,-89.5 0,-59.5 156,-59.5 156,-89.5"/>
<text text-anchor="start" x="8" y="-77.5" font-family="FreeSans" font-size="10.00">mpqc::lcao::pbc::FockBuilder</text>
<text text-anchor="middle" x="78" y="-66.5" font-family="FreeSans" font-size="10.00">&lt; Tile, Policy &gt;</text>
</a>
</g>
</g>
<!-- Node2&#45;&gt;Node1 -->
<g id="edge1_Node000001_Node000002" class="edge">
<title>Node2&#45;&gt;Node1</title>
<g id="a_edge1_Node000001_Node000002"><a xlink:title=" ">
<path fill="none" stroke="#63b8ff" d="M166.12,-61.96C174.71,-60.72 183.38,-59.47 191.84,-58.25"/>
<polygon fill="#63b8ff" stroke="#63b8ff" points="165.47,-58.51 156.08,-63.4 166.47,-65.44 165.47,-58.51"/>
</a>
</g>
</g>
<!-- Node3 -->
<g id="Node000003" class="node">
<title>Node3</title>
<g id="a_Node000003"><a xlink:title=" ">
<polygon fill="white" stroke="#666666" points="141,-41 15,-41 15,0 141,0 141,-41"/>
<text text-anchor="start" x="23" y="-29" font-family="FreeSans" font-size="10.00">madness::WorldObject</text>
<text text-anchor="start" x="23" y="-18" font-family="FreeSans" font-size="10.00">&lt; DirectFockBuilder&lt;</text>
<text text-anchor="middle" x="78" y="-7" font-family="FreeSans" font-size="10.00"> Tile, Policy &gt; &gt;</text>
</a>
</g>
</g>
<!-- Node3&#45;&gt;Node1 -->
<g id="edge2_Node000001_Node000003" class="edge">
<title>Node3&#45;&gt;Node1</title>
<g id="a_edge2_Node000001_Node000003"><a xlink:title=" ">
<path fill="none" stroke="#63b8ff" d="M151.21,-30.9C164.5,-32.81 178.41,-34.82 191.78,-36.74"/>
<polygon fill="#63b8ff" stroke="#63b8ff" points="151.57,-27.41 141.17,-29.45 150.57,-34.34 151.57,-27.41"/>
</a>
</g>
</g>
</g>
</svg>
