<?xml version="1.0" encoding="UTF-8" standalone="no"?>
<!DOCTYPE svg PUBLIC "-//W3C//DTD SVG 1.1//EN"
 "http://www.w3.org/Graphics/SVG/1.1/DTD/svg11.dtd">
<!-- Generated by graphviz version 2.43.0 (0)
 -->
<!-- Title: mpqc::lcao::cc::CCSD_SO&lt; Tile, Policy &gt; Pages: 1 -->
<svg width="1584pt" height="202pt"
 viewBox="0.00 0.00 1584.00 202.00" xmlns="http://www.w3.org/2000/svg" xmlns:xlink="http://www.w3.org/1999/xlink">
<g id="graph0" class="graph" transform="scale(1 1) rotate(0) translate(4 198)">
<title>mpqc::lcao::cc::CCSD_SO&lt; Tile, Policy &gt;</title>
<!-- Node1 -->
<g id="Node000001" class="node">
<title>Node1</title>
<g id="a_Node000001"><a xlink:title=" ">
<polygon fill="#999999" stroke="#666666" points="1576,-96 1457,-96 1457,-66 1576,-66 1576,-96"/>
<text text-anchor="start" x="1465" y="-84" font-family="FreeSans" font-size="10.00">mpqc::lcao::cc::CCSD</text>
<text text-anchor="middle" x="1516.5" y="-73" font-family="FreeSans" font-size="10.00">_SO&lt; Tile, Policy &gt;</text>
</a>
</g>
</g>
<!-- Node2 -->
<g id="Node000002" class="node">
<title>Node2</title>
<g id="a_Node000002"><a xlink:href="classmpqc_1_1lcao_1_1_l_c_a_o_wavefunction.html" target="_top" xlink:title="LCAOWavefunction is a Wavefunction with an LCAOFactory.">
<polygon fill="white" stroke="#666666" points="1336,-156 1167,-156 1167,-126 1336,-126 1336,-156"/>
<text text-anchor="start" x="1175" y="-144" font-family="FreeSans" font-size="10.00">mpqc::lcao::LCAOWavefunction</text>
<text text-anchor="middle" x="1251.5" y="-133" font-family="FreeSans" font-size="10.00">&lt; Tile, Policy &gt;</text>
</a>
</g>
</g>
<!-- Node2&#45;&gt;Node1 -->
<g id="edge1_Node000001_Node000002" class="edge">
<title>Node2&#45;&gt;Node1</title>
<g id="a_edge1_Node000001_Node000002"><a xlink:title=" ">
<path fill="none" stroke="#63b8ff" d="M1336.03,-123.91C1368.28,-117.1 1405.42,-108.99 1439,-101 1445.54,-99.44 1452.39,-97.75 1459.17,-96.03"/>
<polygon fill="#63b8ff" stroke="#63b8ff" points="1335.25,-120.5 1326.19,-125.98 1336.7,-127.35 1335.25,-120.5"/>
</a>
</g>
</g>
<!-- Node3 -->
<g id="Node000003" class="node">
<title>Node3</title>
<g id="a_Node000003"><a xlink:href="classmpqc_1_1lcao_1_1_wavefunction.html" target="_top" xlink:title=" ">
<polygon fill="white" stroke="#666666" points="1026.5,-152.5 883.5,-152.5 883.5,-133.5 1026.5,-133.5 1026.5,-152.5"/>
<text text-anchor="middle" x="955" y="-140.5" font-family="FreeSans" font-size="10.00">mpqc::lcao::Wavefunction</text>
</a>
</g>
</g>
<!-- Node3&#45;&gt;Node2 -->
<g id="edge2_Node000002_Node000003" class="edge">
<title>Node3&#45;&gt;Node2</title>
<g id="a_edge2_Node000002_Node000003"><a xlink:title=" ">
<path fill="none" stroke="#63b8ff" d="M1036.63,-142.45C1077.1,-142.18 1126.07,-141.85 1166.93,-141.57"/>
<polygon fill="#63b8ff" stroke="#63b8ff" points="1036.52,-138.95 1026.54,-142.52 1036.56,-145.95 1036.52,-138.95"/>
</a>
</g>
</g>
<!-- Node4 -->
<g id="Node000004" class="node">
<title>Node4</title>
<g id="a_Node000004"><a xlink:href="classmpqc_1_1_wavefunction.html" target="_top" xlink:title=" ">
<polygon fill="white" stroke="#666666" points="832,-152.5 716,-152.5 716,-133.5 832,-133.5 832,-152.5"/>
<text text-anchor="middle" x="774" y="-140.5" font-family="FreeSans" font-size="10.00">mpqc::Wavefunction</text>
</a>
</g>
</g>
<!-- Node4&#45;&gt;Node3 -->
<g id="edge3_Node000003_Node000004" class="edge">
<title>Node4&#45;&gt;Node3</title>
<g id="a_edge3_Node000003_Node000004"><a xlink:title=" ">
<path fill="none" stroke="#63b8ff" d="M842.22,-143C855.64,-143 869.76,-143 883.29,-143"/>
<polygon fill="#63b8ff" stroke="#63b8ff" points="842.13,-139.5 832.13,-143 842.13,-146.5 842.13,-139.5"/>
</a>
</g>
</g>
<!-- Node5 -->
<g id="Node000005" class="node">
<title>Node5</title>
<g id="a_Node000005"><a xlink:href="classmpqc_1_1_described_class.html" target="_top" xlink:title=" ">
<polygon fill="white" stroke="#666666" points="677.5,-177.5 552.5,-177.5 552.5,-158.5 677.5,-158.5 677.5,-177.5"/>
<text text-anchor="middle" x="615" y="-165.5" font-family="FreeSans" font-size="10.00">mpqc::DescribedClass</text>
</a>
</g>
</g>
<!-- Node5&#45;&gt;Node4 -->
<g id="edge4_Node000004_Node000005" class="edge">
<title>Node5&#45;&gt;Node4</title>
<g id="a_edge4_Node000004_Node000005"><a xlink:title=" ">
<path fill="none" stroke="#63b8ff" d="M685.8,-156.89C695.88,-155.28 706.16,-153.64 715.95,-152.08"/>
<polygon fill="#63b8ff" stroke="#63b8ff" points="685.13,-153.45 675.8,-158.48 686.23,-160.36 685.13,-153.45"/>
</a>
</g>
</g>
<!-- Node6 -->
<g id="Node000006" class="node">
<title>Node6</title>
<g id="a_Node000006"><a xlink:href="classmpqc_1_1enable__shared__from__this.html" target="_top" xlink:title=" ">
<polygon fill="white" stroke="#666666" points="514,-183 348,-183 348,-153 514,-153 514,-183"/>
<text text-anchor="start" x="356" y="-171" font-family="FreeSans" font-size="10.00">mpqc::enable_shared</text>
<text text-anchor="middle" x="431" y="-160" font-family="FreeSans" font-size="10.00">_from_this&lt; DescribedClass &gt;</text>
</a>
</g>
</g>
<!-- Node6&#45;&gt;Node5 -->
<g id="edge5_Node000005_Node000006" class="edge">
<title>Node6&#45;&gt;Node5</title>
<g id="a_edge5_Node000005_Node000006"><a xlink:title=" ">
<path fill="none" stroke="#63b8ff" d="M524.45,-168C533.9,-168 543.33,-168 552.32,-168"/>
<polygon fill="#63b8ff" stroke="#63b8ff" points="524.21,-164.5 514.21,-168 524.21,-171.5 524.21,-164.5"/>
</a>
</g>
</g>
<!-- Node7 -->
<g id="Node000007" class="node">
<title>Node7</title>
<g id="a_Node000007"><a xlink:href="classmpqc_1_1detail_1_1virt__base__of__enable__shared__from__this.html" target="_top" xlink:title="helper class for mpqc::enable_shared_from_this">
<polygon fill="white" stroke="#666666" points="311,-188.5 174,-188.5 174,-147.5 311,-147.5 311,-188.5"/>
<text text-anchor="start" x="182" y="-176.5" font-family="FreeSans" font-size="10.00">mpqc::detail::virt</text>
<text text-anchor="start" x="182" y="-165.5" font-family="FreeSans" font-size="10.00">_base_of_enable_shared</text>
<text text-anchor="middle" x="242.5" y="-154.5" font-family="FreeSans" font-size="10.00">_from_this</text>
</a>
</g>
</g>
<!-- Node7&#45;&gt;Node6 -->
<g id="edge6_Node000006_Node000007" class="edge">
<title>Node7&#45;&gt;Node6</title>
<g id="a_edge6_Node000006_Node000007"><a xlink:title=" ">
<path fill="none" stroke="#63b8ff" d="M321.25,-168C329.98,-168 338.91,-168 347.7,-168"/>
<polygon fill="#63b8ff" stroke="#63b8ff" points="321.09,-164.5 311.09,-168 321.09,-171.5 321.09,-164.5"/>
</a>
</g>
</g>
<!-- Node8 -->
<g id="Node000008" class="node">
<title>Node8</title>
<g id="a_Node000008"><a xlink:title=" ">
<polygon fill="white" stroke="#666666" points="137,-194 0,-194 0,-142 137,-142 137,-194"/>
<text text-anchor="start" x="8" y="-182" font-family="FreeSans" font-size="10.00">std::enable_shared</text>
<text text-anchor="start" x="8" y="-171" font-family="FreeSans" font-size="10.00">_from_this&lt; virt_base</text>
<text text-anchor="start" x="8" y="-160" font-family="FreeSans" font-size="10.00">_of_enable_shared_from</text>
<text text-anchor="middle" x="68.5" y="-149" font-family="FreeSans" font-size="10.00">_this &gt;</text>
</a>
</g>
</g>
<!-- Node8&#45;&gt;Node7 -->
<g id="edge7_Node000007_Node000008" class="edge">
<title>Node8&#45;&gt;Node7</title>
<g id="a_edge7_Node000007_Node000008"><a xlink:title=" ">
<path fill="none" stroke="#63b8ff" d="M147.63,-168C156.35,-168 165.17,-168 173.73,-168"/>
<polygon fill="#63b8ff" stroke="#63b8ff" points="147.48,-164.5 137.48,-168 147.48,-171.5 147.48,-164.5"/>
</a>
</g>
</g>
<!-- Node9 -->
<g id="Node000009" class="node">
<title>Node9</title>
<g id="a_Node000009"><a xlink:href="classmpqc_1_1utility_1_1_observer.html" target="_top" xlink:title="helps to set up messaging between objects via the Observer pattern">
<polygon fill="white" stroke="#666666" points="679,-140.5 551,-140.5 551,-121.5 679,-121.5 679,-140.5"/>
<text text-anchor="middle" x="615" y="-128.5" font-family="FreeSans" font-size="10.00">mpqc::utility::Observer</text>
</a>
</g>
</g>
<!-- Node9&#45;&gt;Node4 -->
<g id="edge8_Node000004_Node000009" class="edge">
<title>Node9&#45;&gt;Node4</title>
<g id="a_edge8_Node000004_Node000009"><a xlink:title=" ">
<path fill="none" stroke="#63b8ff" d="M689.41,-136.61C698.32,-137.29 707.32,-137.98 715.94,-138.64"/>
<polygon fill="#63b8ff" stroke="#63b8ff" points="689.64,-133.12 679.41,-135.85 689.11,-140.1 689.64,-133.12"/>
</a>
</g>
</g>
<!-- Node10 -->
<g id="Node000010" class="node">
<title>Node10</title>
<g id="a_Node000010"><a xlink:href="classmpqc_1_1_provides.html" target="_top" xlink:title=" ">
<polygon fill="white" stroke="#666666" points="1325.5,-104.5 1177.5,-104.5 1177.5,-85.5 1325.5,-85.5 1325.5,-104.5"/>
<text text-anchor="middle" x="1251.5" y="-92.5" font-family="FreeSans" font-size="10.00">mpqc::Provides&lt; Energy &gt;</text>
</a>
</g>
</g>
<!-- Node10&#45;&gt;Node1 -->
<g id="edge9_Node000001_Node000010" class="edge">
<title>Node10&#45;&gt;Node1</title>
<g id="a_edge9_Node000001_Node000010"><a xlink:title=" ">
<path fill="none" stroke="#63b8ff" d="M1335.87,-90.56C1375.19,-88.47 1421.17,-86.02 1456.76,-84.13"/>
<polygon fill="#63b8ff" stroke="#63b8ff" points="1335.56,-87.07 1325.76,-91.1 1335.93,-94.06 1335.56,-87.07"/>
</a>
</g>
</g>
<!-- Node11 -->
<g id="Node000011" class="node">
<title>Node11</title>
<g id="a_Node000011"><a xlink:href="classmpqc_1_1_key_val.html" target="_top" xlink:title="KeyVal specifies C++ primitive data (booleans, integers, reals, string) and user&#45;defined objects obta...">
<polygon fill="white" stroke="#666666" points="1293,-67.5 1210,-67.5 1210,-48.5 1293,-48.5 1293,-67.5"/>
<text text-anchor="middle" x="1251.5" y="-55.5" font-family="FreeSans" font-size="10.00">mpqc::KeyVal</text>
</a>
</g>
</g>
<!-- Node11&#45;&gt;Node1 -->
<g id="edge10_Node000001_Node000011" class="edge">
<title>Node11&#45;&gt;Node1</title>
<g id="a_edge10_Node000001_Node000011"><a xlink:title=" ">
<path fill="none" stroke="#9a32cd" stroke-dasharray="5,2" d="M1303.5,-60.2C1341.04,-62.08 1393.28,-65.25 1439,-70 1444.74,-70.6 1450.71,-71.3 1456.67,-72.07"/>
<polygon fill="#9a32cd" stroke="#9a32cd" points="1303.48,-56.69 1293.32,-59.7 1303.14,-63.69 1303.48,-56.69"/>
</a>
</g>
<text text-anchor="middle" x="1396.5" y="-73" font-family="FreeSans" font-size="10.00" fill="grey"> kv_</text>
</g>
<!-- Node12 -->
<g id="Node000012" class="node">
<title>Node12</title>
<g id="a_Node000012"><a xlink:href="structmpqc_1_1_key_val_1_1dummy__validator__t.html" target="_top" xlink:title=" ">
<polygon fill="white" stroke="#666666" points="1018,-115 892,-115 892,-85 1018,-85 1018,-115"/>
<text text-anchor="start" x="900" y="-103" font-family="FreeSans" font-size="10.00">mpqc::KeyVal::dummy</text>
<text text-anchor="middle" x="955" y="-92" font-family="FreeSans" font-size="10.00">_validator_t</text>
</a>
</g>
</g>
<!-- Node12&#45;&gt;Node11 -->
<g id="edge11_Node000011_Node000012" class="edge">
<title>Node12&#45;&gt;Node11</title>
<g id="a_edge11_Node000011_Node000012"><a xlink:title=" ">
<path fill="none" stroke="#9a32cd" stroke-dasharray="5,2" d="M1028.15,-89.71C1085.25,-81.57 1162.93,-70.49 1209.74,-63.81"/>
<polygon fill="#9a32cd" stroke="#9a32cd" points="1027.5,-86.27 1018.1,-91.14 1028.49,-93.2 1027.5,-86.27"/>
</a>
</g>
<text text-anchor="middle" x="1104" y="-88" font-family="FreeSans" font-size="10.00" fill="grey"> dummy_validator</text>
</g>
<!-- Node13 -->
<g id="Node000013" class="node">
<title>Node13</title>
<g id="a_Node000013"><a xlink:href="structmpqc_1_1_key_val_1_1is__nonnegative__t.html" target="_top" xlink:title=" ">
<polygon fill="white" stroke="#666666" points="1041,-66.5 869,-66.5 869,-47.5 1041,-47.5 1041,-66.5"/>
<text text-anchor="middle" x="955" y="-54.5" font-family="FreeSans" font-size="10.00">mpqc::KeyVal::is_nonnegative_t</text>
</a>
</g>
</g>
<!-- Node13&#45;&gt;Node11 -->
<g id="edge12_Node000011_Node000013" class="edge">
<title>Node13&#45;&gt;Node11</title>
<g id="a_edge12_Node000011_Node000013"><a xlink:title=" ">
<path fill="none" stroke="#9a32cd" stroke-dasharray="5,2" d="M1051.39,-57.32C1104.91,-57.51 1168.9,-57.72 1209.62,-57.86"/>
<polygon fill="#9a32cd" stroke="#9a32cd" points="1051.19,-53.82 1041.18,-57.29 1051.17,-60.82 1051.19,-53.82"/>
</a>
</g>
<text text-anchor="middle" x="1104" y="-60" font-family="FreeSans" font-size="10.00" fill="grey"> is_nonnegative</text>
</g>
<!-- Node14 -->
<g id="Node000014" class="node">
<title>Node14</title>
<g id="a_Node000014"><a xlink:href="structmpqc_1_1_key_val_1_1is__positive__t.html" target="_top" xlink:title=" ">
<polygon fill="white" stroke="#666666" points="1030,-29.5 880,-29.5 880,-10.5 1030,-10.5 1030,-29.5"/>
<text text-anchor="middle" x="955" y="-17.5" font-family="FreeSans" font-size="10.00">mpqc::KeyVal::is_positive_t</text>
</a>
</g>
</g>
<!-- Node14&#45;&gt;Node11 -->
<g id="edge13_Node000011_Node000014" class="edge">
<title>Node14&#45;&gt;Node11</title>
<g id="a_edge13_Node000011_Node000014"><a xlink:title=" ">
<path fill="none" stroke="#9a32cd" stroke-dasharray="5,2" d="M1040.62,-28.85C1074.38,-32.59 1113.57,-37.19 1149,-42 1168.98,-44.71 1191.09,-48.15 1209.57,-51.14"/>
<polygon fill="#9a32cd" stroke="#9a32cd" points="1040.65,-25.33 1030.33,-27.72 1039.89,-32.29 1040.65,-25.33"/>
</a>
</g>
<text text-anchor="middle" x="1104" y="-45" font-family="FreeSans" font-size="10.00" fill="grey"> is_positive</text>
</g>
<!-- Node15 -->
<g id="Node000015" class="node">
<title>Node15</title>
<g id="a_Node000015"><a xlink:href="classmpqc_1_1_direct_array.html" target="_top" xlink:title=" ">
<polygon fill="white" stroke="#666666" points="1308,-30 1195,-30 1195,0 1308,0 1308,-30"/>
<text text-anchor="start" x="1203" y="-18" font-family="FreeSans" font-size="10.00">mpqc::DirectArray&lt;</text>
<text text-anchor="middle" x="1251.5" y="-7" font-family="FreeSans" font-size="10.00"> Tile, Policy &gt;</text>
</a>
</g>
</g>
<!-- Node15&#45;&gt;Node1 -->
<g id="edge14_Node000001_Node000015" class="edge">
<title>Node15&#45;&gt;Node1</title>
<g id="a_edge14_Node000001_Node000015"><a xlink:title=" ">
<path fill="none" stroke="#9a32cd" stroke-dasharray="5,2" d="M1318.3,-22.84C1354.41,-28.09 1399.7,-36.22 1439,-48 1454.52,-52.65 1471.1,-59.55 1484.85,-65.84"/>
<polygon fill="#9a32cd" stroke="#9a32cd" points="1318.76,-19.37 1308.37,-21.44 1317.78,-26.3 1318.76,-19.37"/>
</a>
</g>
<text text-anchor="middle" x="1396.5" y="-51" font-family="FreeSans" font-size="10.00" fill="grey"> direct_ao_array_</text>
</g>
</g>
</svg>
