<?xml version="1.0" encoding="UTF-8" standalone="no"?>
<!DOCTYPE svg PUBLIC "-//W3C//DTD SVG 1.1//EN"
 "http://www.w3.org/Graphics/SVG/1.1/DTD/svg11.dtd">
<!-- Generated by graphviz version 2.43.0 (0)
 -->
<!-- Title: mpqc::math::SingleStateDavidsonEigensolver&lt; D &gt; Pages: 1 -->
<svg width="222pt" height="171pt"
 viewBox="0.00 0.00 222.00 171.00" xmlns="http://www.w3.org/2000/svg" xmlns:xlink="http://www.w3.org/1999/xlink">
<g id="graph0" class="graph" transform="scale(1 1) rotate(0) translate(4 167)">
<title>mpqc::math::SingleStateDavidsonEigensolver&lt; D &gt;</title>
<!-- Node1 -->
<g id="Node000001" class="node">
<title>Node1</title>
<g id="a_Node000001"><a xlink:title=" ">
<polygon fill="#999999" stroke="#666666" points="198,-30 16,-30 16,0 198,0 198,-30"/>
<text text-anchor="start" x="24" y="-18" font-family="FreeSans" font-size="10.00">mpqc::math::SingleStateDavidson</text>
<text text-anchor="middle" x="107" y="-7" font-family="FreeSans" font-size="10.00">Eigensolver&lt; D &gt;</text>
</a>
</g>
</g>
<!-- Node2 -->
<g id="Node000002" class="node">
<title>Node2</title>
<g id="a_Node000002"><a xlink:href="classmpqc_1_1math_1_1_davidson_eigensolver.html" target="_top" xlink:title="Davidson Eigensolver.">
<polygon fill="white" stroke="#666666" points="214,-86 0,-86 0,-67 214,-67 214,-86"/>
<text text-anchor="middle" x="107" y="-74" font-family="FreeSans" font-size="10.00">mpqc::math::DavidsonEigensolver&lt; D &gt;</text>
</a>
</g>
</g>
<!-- Node2&#45;&gt;Node1 -->
<g id="edge1_Node000001_Node000002" class="edge">
<title>Node2&#45;&gt;Node1</title>
<g id="a_edge1_Node000001_Node000002"><a xlink:title=" ">
<path fill="none" stroke="#63b8ff" d="M107,-56.73C107,-48.09 107,-38 107,-30.02"/>
<polygon fill="#63b8ff" stroke="#63b8ff" points="103.5,-56.98 107,-66.98 110.5,-56.98 103.5,-56.98"/>
</a>
</g>
</g>
<!-- Node3 -->
<g id="Node000003" class="node">
<title>Node3</title>
<g id="a_Node000003"><a xlink:title=" ">
<polygon fill="white" stroke="#666666" points="173,-163 41,-163 41,-133 173,-133 173,-163"/>
<text text-anchor="start" x="49" y="-151" font-family="FreeSans" font-size="10.00">Eigen::Matrix&lt; numeric</text>
<text text-anchor="middle" x="107" y="-140" font-family="FreeSans" font-size="10.00">_type &gt;</text>
</a>
</g>
</g>
<!-- Node3&#45;&gt;Node2 -->
<g id="edge2_Node000002_Node000003" class="edge">
<title>Node3&#45;&gt;Node2</title>
<g id="a_edge2_Node000002_Node000003"><a xlink:title=" ">
<path fill="none" stroke="#9a32cd" stroke-dasharray="5,2" d="M107,-122.56C107,-109.95 107,-95.35 107,-86.27"/>
<polygon fill="#9a32cd" stroke="#9a32cd" points="103.5,-122.94 107,-132.94 110.5,-122.94 103.5,-122.94"/>
</a>
</g>
<text text-anchor="middle" x="134.5" y="-107" font-family="FreeSans" font-size="10.00" fill="grey"> subspace_</text>
</g>
</g>
</svg>
