<?xml version="1.0" encoding="UTF-8" standalone="no"?>
<!DOCTYPE svg PUBLIC "-//W3C//DTD SVG 1.1//EN"
 "http://www.w3.org/Graphics/SVG/1.1/DTD/svg11.dtd">
<!-- Generated by graphviz version 2.43.0 (0)
 -->
<!-- Title: mpqc::lcao::DfRHF&lt; Tile, Policy &gt; Pages: 1 -->
<svg width="1541pt" height="150pt"
 viewBox="0.00 0.00 1541.00 149.50" xmlns="http://www.w3.org/2000/svg" xmlns:xlink="http://www.w3.org/1999/xlink">
<g id="graph0" class="graph" transform="scale(1 1) rotate(0) translate(4 145.5)">
<title>mpqc::lcao::DfRHF&lt; Tile, Policy &gt;</title>
<!-- Node1 -->
<g id="Node000001" class="node">
<title>Node1</title>
<g id="a_Node000001"><a xlink:title=" ">
<polygon fill="#999999" stroke="#666666" points="1533,-78.5 1417,-78.5 1417,-48.5 1533,-48.5 1533,-78.5"/>
<text text-anchor="start" x="1425" y="-66.5" font-family="FreeSans" font-size="10.00">mpqc::lcao::DfRHF&lt;</text>
<text text-anchor="middle" x="1475" y="-55.5" font-family="FreeSans" font-size="10.00"> Tile, Policy &gt;</text>
</a>
</g>
</g>
<!-- Node2 -->
<g id="Node000002" class="node">
<title>Node2</title>
<g id="a_Node000002"><a xlink:href="classmpqc_1_1lcao_1_1_s_d.html" target="_top" xlink:title="General Single&#45;Determinant Wavefunction.">
<polygon fill="white" stroke="#666666" points="1381,-78.5 1259,-78.5 1259,-48.5 1381,-48.5 1381,-78.5"/>
<text text-anchor="start" x="1267" y="-66.5" font-family="FreeSans" font-size="10.00">mpqc::lcao::SD&lt; Tile,</text>
<text text-anchor="middle" x="1320" y="-55.5" font-family="FreeSans" font-size="10.00"> Policy &gt;</text>
</a>
</g>
</g>
<!-- Node2&#45;&gt;Node1 -->
<g id="edge1_Node000001_Node000002" class="edge">
<title>Node2&#45;&gt;Node1</title>
<g id="a_edge1_Node000001_Node000002"><a xlink:title=" ">
<path fill="none" stroke="#63b8ff" d="M1391.3,-63.5C1399.79,-63.5 1408.38,-63.5 1416.64,-63.5"/>
<polygon fill="#63b8ff" stroke="#63b8ff" points="1391.03,-60 1381.03,-63.5 1391.03,-67 1391.03,-60"/>
</a>
</g>
</g>
<!-- Node3 -->
<g id="Node000003" class="node">
<title>Node3</title>
<g id="a_Node000003"><a xlink:href="classmpqc_1_1lcao_1_1_a_o_wavefunction.html" target="_top" xlink:title="AOWavefunction is a Wavefunction&lt;&gt; with an abstract AOFactory&lt;&gt;">
<polygon fill="white" stroke="#666666" points="1211.5,-111.5 1054.5,-111.5 1054.5,-81.5 1211.5,-81.5 1211.5,-111.5"/>
<text text-anchor="start" x="1062.5" y="-99.5" font-family="FreeSans" font-size="10.00">mpqc::lcao::AOWavefunction</text>
<text text-anchor="middle" x="1133" y="-88.5" font-family="FreeSans" font-size="10.00">&lt; Tile, Policy &gt;</text>
</a>
</g>
</g>
<!-- Node3&#45;&gt;Node2 -->
<g id="edge2_Node000002_Node000003" class="edge">
<title>Node3&#45;&gt;Node2</title>
<g id="a_edge2_Node000002_Node000003"><a xlink:title=" ">
<path fill="none" stroke="#63b8ff" d="M1221.73,-80.85C1234.34,-78.6 1247.07,-76.33 1258.98,-74.21"/>
<polygon fill="#63b8ff" stroke="#63b8ff" points="1220.88,-77.45 1211.65,-82.65 1222.11,-84.34 1220.88,-77.45"/>
</a>
</g>
</g>
<!-- Node4 -->
<g id="Node000004" class="node">
<title>Node4</title>
<g id="a_Node000004"><a xlink:href="classmpqc_1_1lcao_1_1_wavefunction.html" target="_top" xlink:title=" ">
<polygon fill="white" stroke="#666666" points="1007,-106 864,-106 864,-87 1007,-87 1007,-106"/>
<text text-anchor="middle" x="935.5" y="-94" font-family="FreeSans" font-size="10.00">mpqc::lcao::Wavefunction</text>
</a>
</g>
</g>
<!-- Node4&#45;&gt;Node3 -->
<g id="edge3_Node000003_Node000004" class="edge">
<title>Node4&#45;&gt;Node3</title>
<g id="a_edge3_Node000003_Node000004"><a xlink:title=" ">
<path fill="none" stroke="#63b8ff" d="M1017.25,-96.5C1029.48,-96.5 1042.08,-96.5 1054.24,-96.5"/>
<polygon fill="#63b8ff" stroke="#63b8ff" points="1017.08,-93 1007.08,-96.5 1017.08,-100 1017.08,-93"/>
</a>
</g>
</g>
<!-- Node5 -->
<g id="Node000005" class="node">
<title>Node5</title>
<g id="a_Node000005"><a xlink:href="classmpqc_1_1_wavefunction.html" target="_top" xlink:title=" ">
<polygon fill="white" stroke="#666666" points="828,-106 712,-106 712,-87 828,-87 828,-106"/>
<text text-anchor="middle" x="770" y="-94" font-family="FreeSans" font-size="10.00">mpqc::Wavefunction</text>
</a>
</g>
</g>
<!-- Node5&#45;&gt;Node4 -->
<g id="edge4_Node000004_Node000005" class="edge">
<title>Node5&#45;&gt;Node4</title>
<g id="a_edge4_Node000004_Node000005"><a xlink:title=" ">
<path fill="none" stroke="#63b8ff" d="M838.32,-96.5C846.74,-96.5 855.36,-96.5 863.83,-96.5"/>
<polygon fill="#63b8ff" stroke="#63b8ff" points="838.18,-93 828.18,-96.5 838.18,-100 838.18,-93"/>
</a>
</g>
</g>
<!-- Node6 -->
<g id="Node000006" class="node">
<title>Node6</title>
<g id="a_Node000006"><a xlink:href="classmpqc_1_1_described_class.html" target="_top" xlink:title=" ">
<polygon fill="white" stroke="#666666" points="674.5,-125 549.5,-125 549.5,-106 674.5,-106 674.5,-125"/>
<text text-anchor="middle" x="612" y="-113" font-family="FreeSans" font-size="10.00">mpqc::DescribedClass</text>
</a>
</g>
</g>
<!-- Node6&#45;&gt;Node5 -->
<g id="edge5_Node000005_Node000006" class="edge">
<title>Node6&#45;&gt;Node5</title>
<g id="a_edge5_Node000005_Node000006"><a xlink:title=" ">
<path fill="none" stroke="#63b8ff" d="M684.82,-106.75C693.88,-105.65 703.06,-104.53 711.85,-103.46"/>
<polygon fill="#63b8ff" stroke="#63b8ff" points="684.16,-103.31 674.66,-107.99 685.01,-110.26 684.16,-103.31"/>
</a>
</g>
</g>
<!-- Node7 -->
<g id="Node000007" class="node">
<title>Node7</title>
<g id="a_Node000007"><a xlink:href="classmpqc_1_1enable__shared__from__this.html" target="_top" xlink:title=" ">
<polygon fill="white" stroke="#666666" points="512,-130.5 346,-130.5 346,-100.5 512,-100.5 512,-130.5"/>
<text text-anchor="start" x="354" y="-118.5" font-family="FreeSans" font-size="10.00">mpqc::enable_shared</text>
<text text-anchor="middle" x="429" y="-107.5" font-family="FreeSans" font-size="10.00">_from_this&lt; DescribedClass &gt;</text>
</a>
</g>
</g>
<!-- Node7&#45;&gt;Node6 -->
<g id="edge6_Node000006_Node000007" class="edge">
<title>Node7&#45;&gt;Node6</title>
<g id="a_edge6_Node000006_Node000007"><a xlink:title=" ">
<path fill="none" stroke="#63b8ff" d="M522.04,-115.5C531.28,-115.5 540.5,-115.5 549.31,-115.5"/>
<polygon fill="#63b8ff" stroke="#63b8ff" points="522.03,-112 512.03,-115.5 522.03,-119 522.03,-112"/>
</a>
</g>
</g>
<!-- Node8 -->
<g id="Node000008" class="node">
<title>Node8</title>
<g id="a_Node000008"><a xlink:href="classmpqc_1_1detail_1_1virt__base__of__enable__shared__from__this.html" target="_top" xlink:title="helper class for mpqc::enable_shared_from_this">
<polygon fill="white" stroke="#666666" points="310,-136 173,-136 173,-95 310,-95 310,-136"/>
<text text-anchor="start" x="181" y="-124" font-family="FreeSans" font-size="10.00">mpqc::detail::virt</text>
<text text-anchor="start" x="181" y="-113" font-family="FreeSans" font-size="10.00">_base_of_enable_shared</text>
<text text-anchor="middle" x="241.5" y="-102" font-family="FreeSans" font-size="10.00">_from_this</text>
</a>
</g>
</g>
<!-- Node8&#45;&gt;Node7 -->
<g id="edge7_Node000007_Node000008" class="edge">
<title>Node8&#45;&gt;Node7</title>
<g id="a_edge7_Node000007_Node000008"><a xlink:title=" ">
<path fill="none" stroke="#63b8ff" d="M320.43,-115.5C328.86,-115.5 337.45,-115.5 345.92,-115.5"/>
<polygon fill="#63b8ff" stroke="#63b8ff" points="320.26,-112 310.26,-115.5 320.26,-119 320.26,-112"/>
</a>
</g>
</g>
<!-- Node9 -->
<g id="Node000009" class="node">
<title>Node9</title>
<g id="a_Node000009"><a xlink:title=" ">
<polygon fill="white" stroke="#666666" points="137,-141.5 0,-141.5 0,-89.5 137,-89.5 137,-141.5"/>
<text text-anchor="start" x="8" y="-129.5" font-family="FreeSans" font-size="10.00">std::enable_shared</text>
<text text-anchor="start" x="8" y="-118.5" font-family="FreeSans" font-size="10.00">_from_this&lt; virt_base</text>
<text text-anchor="start" x="8" y="-107.5" font-family="FreeSans" font-size="10.00">_of_enable_shared_from</text>
<text text-anchor="middle" x="68.5" y="-96.5" font-family="FreeSans" font-size="10.00">_this &gt;</text>
</a>
</g>
</g>
<!-- Node9&#45;&gt;Node8 -->
<g id="edge8_Node000008_Node000009" class="edge">
<title>Node9&#45;&gt;Node8</title>
<g id="a_edge8_Node000008_Node000009"><a xlink:title=" ">
<path fill="none" stroke="#63b8ff" d="M147.1,-115.5C155.69,-115.5 164.39,-115.5 172.85,-115.5"/>
<polygon fill="#63b8ff" stroke="#63b8ff" points="147.08,-112 137.08,-115.5 147.08,-119 147.08,-112"/>
</a>
</g>
</g>
<!-- Node10 -->
<g id="Node000010" class="node">
<title>Node10</title>
<g id="a_Node000010"><a xlink:href="classmpqc_1_1utility_1_1_observer.html" target="_top" xlink:title="helps to set up messaging between objects via the Observer pattern">
<polygon fill="white" stroke="#666666" points="676,-88 548,-88 548,-69 676,-69 676,-88"/>
<text text-anchor="middle" x="612" y="-76" font-family="FreeSans" font-size="10.00">mpqc::utility::Observer</text>
</a>
</g>
</g>
<!-- Node10&#45;&gt;Node5 -->
<g id="edge9_Node000005_Node000010" class="edge">
<title>Node10&#45;&gt;Node5</title>
<g id="a_edge9_Node000005_Node000010"><a xlink:title=" ">
<path fill="none" stroke="#63b8ff" d="M686.08,-86.93C694.72,-87.93 703.43,-88.93 711.81,-89.9"/>
<polygon fill="#63b8ff" stroke="#63b8ff" points="686.34,-83.44 676,-85.77 685.53,-90.39 686.34,-83.44"/>
</a>
</g>
</g>
<!-- Node11 -->
<g id="Node000011" class="node">
<title>Node11</title>
<g id="a_Node000011"><a xlink:href="classmpqc_1_1_provides.html" target="_top" xlink:title=" ">
<polygon fill="white" stroke="#666666" points="1223,-63 1043,-63 1043,0 1223,0 1223,-63"/>
<text text-anchor="start" x="1051" y="-51" font-family="FreeSans" font-size="10.00">mpqc::Provides&lt; Energy,</text>
<text text-anchor="start" x="1051" y="-40" font-family="FreeSans" font-size="10.00"> CanonicalOrbitalSpace</text>
<text text-anchor="start" x="1051" y="-29" font-family="FreeSans" font-size="10.00">&lt; Tile, Policy &gt;, PopulatedOrbital</text>
<text text-anchor="start" x="1051" y="-18" font-family="FreeSans" font-size="10.00">Space&lt; Tile, Policy &gt;, detail</text>
<text text-anchor="middle" x="1133" y="-7" font-family="FreeSans" font-size="10.00">::FockMatrix&lt; Tile, Policy &gt; &gt;</text>
</a>
</g>
</g>
<!-- Node11&#45;&gt;Node2 -->
<g id="edge10_Node000002_Node000011" class="edge">
<title>Node11&#45;&gt;Node2</title>
<g id="a_edge10_Node000002_Node000011"><a xlink:title=" ">
<path fill="none" stroke="#63b8ff" d="M1233.18,-48.66C1241.96,-50.17 1250.65,-51.68 1258.95,-53.11"/>
<polygon fill="#63b8ff" stroke="#63b8ff" points="1233.7,-45.19 1223.25,-46.94 1232.51,-52.09 1233.7,-45.19"/>
</a>
</g>
</g>
</g>
</svg>
