<?xml version="1.0" encoding="UTF-8" standalone="no"?>
<!DOCTYPE svg PUBLIC "-//W3C//DTD SVG 1.1//EN"
 "http://www.w3.org/Graphics/SVG/1.1/DTD/svg11.dtd">
<!-- Generated by graphviz version 2.43.0 (0)
 -->
<!-- Title: mpqc::lcao::gaussian::AOFactory&lt; Tile, Policy &gt; Pages: 1 -->
<svg width="1587pt" height="240pt"
 viewBox="0.00 0.00 1587.00 240.00" xmlns="http://www.w3.org/2000/svg" xmlns:xlink="http://www.w3.org/1999/xlink">
<g id="graph0" class="graph" transform="scale(1 1) rotate(0) translate(4 236)">
<title>mpqc::lcao::gaussian::AOFactory&lt; Tile, Policy &gt;</title>
<!-- Node1 -->
<g id="Node000001" class="node">
<title>Node1</title>
<g id="a_Node000001"><a xlink:title="Gaussian AO integral factory using ab initio Hamiltonians.">
<polygon fill="#999999" stroke="#666666" points="1579,-197 1431,-197 1431,-167 1579,-167 1579,-197"/>
<text text-anchor="start" x="1439" y="-185" font-family="FreeSans" font-size="10.00">mpqc::lcao::gaussian</text>
<text text-anchor="middle" x="1505" y="-174" font-family="FreeSans" font-size="10.00">::AOFactory&lt; Tile, Policy &gt;</text>
</a>
</g>
</g>
<!-- Node2 -->
<g id="Node000002" class="node">
<title>Node2</title>
<g id="a_Node000002"><a xlink:href="classmpqc_1_1lcao_1_1_a_o_factory.html" target="_top" xlink:title="Abstract AO integral factory.">
<polygon fill="white" stroke="#666666" points="1394,-175 1269,-175 1269,-145 1394,-145 1394,-175"/>
<text text-anchor="start" x="1277" y="-163" font-family="FreeSans" font-size="10.00">mpqc::lcao::AOFactory</text>
<text text-anchor="middle" x="1331.5" y="-152" font-family="FreeSans" font-size="10.00">&lt; Tile, Policy &gt;</text>
</a>
</g>
</g>
<!-- Node2&#45;&gt;Node1 -->
<g id="edge1_Node000001_Node000002" class="edge">
<title>Node2&#45;&gt;Node1</title>
<g id="a_edge1_Node000001_Node000002"><a xlink:title=" ">
<path fill="none" stroke="#63b8ff" d="M1404.51,-169.24C1413.2,-170.35 1422.08,-171.49 1430.79,-172.61"/>
<polygon fill="#63b8ff" stroke="#63b8ff" points="1404.78,-165.74 1394.42,-167.94 1403.89,-172.69 1404.78,-165.74"/>
</a>
</g>
</g>
<!-- Node3 -->
<g id="Node000003" class="node">
<title>Node3</title>
<g id="a_Node000003"><a xlink:title=" ">
<polygon fill="white" stroke="#666666" points="1114,-174.5 987,-174.5 987,-133.5 1114,-133.5 1114,-174.5"/>
<text text-anchor="start" x="995" y="-162.5" font-family="FreeSans" font-size="10.00">mpqc::lcao::Factory</text>
<text text-anchor="start" x="995" y="-151.5" font-family="FreeSans" font-size="10.00">::OrbitalFactoryBase</text>
<text text-anchor="middle" x="1050.5" y="-140.5" font-family="FreeSans" font-size="10.00">&lt; Array, DirectArray &gt;</text>
</a>
</g>
</g>
<!-- Node3&#45;&gt;Node2 -->
<g id="edge2_Node000002_Node000003" class="edge">
<title>Node3&#45;&gt;Node2</title>
<g id="a_edge2_Node000002_Node000003"><a xlink:title=" ">
<path fill="none" stroke="#63b8ff" d="M1124.35,-155.57C1169.16,-156.53 1225.95,-157.75 1268.58,-158.67"/>
<polygon fill="#63b8ff" stroke="#63b8ff" points="1124.19,-152.06 1114.11,-155.35 1124.04,-159.06 1124.19,-152.06"/>
</a>
</g>
</g>
<!-- Node4 -->
<g id="Node000004" class="node">
<title>Node4</title>
<g id="a_Node000004"><a xlink:href="classmpqc_1_1lcao_1_1_factory.html" target="_top" xlink:title="Abstract integral factory.">
<polygon fill="white" stroke="#666666" points="862.5,-214.5 751.5,-214.5 751.5,-195.5 862.5,-195.5 862.5,-214.5"/>
<text text-anchor="middle" x="807" y="-202.5" font-family="FreeSans" font-size="10.00">mpqc::lcao::Factory</text>
</a>
</g>
</g>
<!-- Node4&#45;&gt;Node3 -->
<g id="edge3_Node000003_Node000004" class="edge">
<title>Node4&#45;&gt;Node3</title>
<g id="a_edge3_Node000003_Node000004"><a xlink:title=" ">
<path fill="none" stroke="#63b8ff" d="M863.2,-193.34C900.03,-185.56 948.54,-175.32 986.82,-167.24"/>
<polygon fill="#63b8ff" stroke="#63b8ff" points="862.2,-189.98 853.14,-195.47 863.65,-196.83 862.2,-189.98"/>
</a>
</g>
</g>
<!-- Node16 -->
<g id="Node000016" class="node">
<title>Node16</title>
<g id="a_Node000016"><a xlink:href="classmpqc_1_1lcao_1_1gaussian_1_1_gaussian_factory.html" target="_top" xlink:title=" ">
<polygon fill="white" stroke="#666666" points="1251,-219 1132,-219 1132,-189 1251,-189 1251,-219"/>
<text text-anchor="start" x="1140" y="-207" font-family="FreeSans" font-size="10.00">mpqc::lcao::gaussian</text>
<text text-anchor="middle" x="1191.5" y="-196" font-family="FreeSans" font-size="10.00">::GaussianFactory</text>
</a>
</g>
</g>
<!-- Node4&#45;&gt;Node16 -->
<g id="edge18_Node000016_Node000004" class="edge">
<title>Node4&#45;&gt;Node16</title>
<g id="a_edge18_Node000016_Node000004"><a xlink:title=" ">
<path fill="none" stroke="#63b8ff" d="M873.18,-204.83C945.71,-204.64 1061.88,-204.34 1131.72,-204.15"/>
<polygon fill="#63b8ff" stroke="#63b8ff" points="872.79,-201.33 862.8,-204.86 872.81,-208.33 872.79,-201.33"/>
</a>
</g>
</g>
<!-- Node5 -->
<g id="Node000005" class="node">
<title>Node5</title>
<g id="a_Node000005"><a xlink:href="classmpqc_1_1_described_class.html" target="_top" xlink:title=" ">
<polygon fill="white" stroke="#666666" points="690.5,-215.5 565.5,-215.5 565.5,-196.5 690.5,-196.5 690.5,-215.5"/>
<text text-anchor="middle" x="628" y="-203.5" font-family="FreeSans" font-size="10.00">mpqc::DescribedClass</text>
</a>
</g>
</g>
<!-- Node5&#45;&gt;Node4 -->
<g id="edge4_Node000004_Node000005" class="edge">
<title>Node5&#45;&gt;Node4</title>
<g id="a_edge4_Node000004_Node000005"><a xlink:title=" ">
<path fill="none" stroke="#63b8ff" d="M701.18,-205.59C717.89,-205.5 735.39,-205.4 751.21,-205.31"/>
<polygon fill="#63b8ff" stroke="#63b8ff" points="700.89,-202.09 690.91,-205.65 700.93,-209.09 700.89,-202.09"/>
</a>
</g>
</g>
<!-- Node6 -->
<g id="Node000006" class="node">
<title>Node6</title>
<g id="a_Node000006"><a xlink:href="classmpqc_1_1enable__shared__from__this.html" target="_top" xlink:title=" ">
<polygon fill="white" stroke="#666666" points="514,-221 348,-221 348,-191 514,-191 514,-221"/>
<text text-anchor="start" x="356" y="-209" font-family="FreeSans" font-size="10.00">mpqc::enable_shared</text>
<text text-anchor="middle" x="431" y="-198" font-family="FreeSans" font-size="10.00">_from_this&lt; DescribedClass &gt;</text>
</a>
</g>
</g>
<!-- Node6&#45;&gt;Node5 -->
<g id="edge5_Node000005_Node000006" class="edge">
<title>Node6&#45;&gt;Node5</title>
<g id="a_edge5_Node000005_Node000006"><a xlink:title=" ">
<path fill="none" stroke="#63b8ff" d="M524.25,-206C538.21,-206 552.31,-206 565.41,-206"/>
<polygon fill="#63b8ff" stroke="#63b8ff" points="524.13,-202.5 514.13,-206 524.13,-209.5 524.13,-202.5"/>
</a>
</g>
</g>
<!-- Node7 -->
<g id="Node000007" class="node">
<title>Node7</title>
<g id="a_Node000007"><a xlink:href="classmpqc_1_1detail_1_1virt__base__of__enable__shared__from__this.html" target="_top" xlink:title="helper class for mpqc::enable_shared_from_this">
<polygon fill="white" stroke="#666666" points="311,-226.5 174,-226.5 174,-185.5 311,-185.5 311,-226.5"/>
<text text-anchor="start" x="182" y="-214.5" font-family="FreeSans" font-size="10.00">mpqc::detail::virt</text>
<text text-anchor="start" x="182" y="-203.5" font-family="FreeSans" font-size="10.00">_base_of_enable_shared</text>
<text text-anchor="middle" x="242.5" y="-192.5" font-family="FreeSans" font-size="10.00">_from_this</text>
</a>
</g>
</g>
<!-- Node7&#45;&gt;Node6 -->
<g id="edge6_Node000006_Node000007" class="edge">
<title>Node7&#45;&gt;Node6</title>
<g id="a_edge6_Node000006_Node000007"><a xlink:title=" ">
<path fill="none" stroke="#63b8ff" d="M321.25,-206C329.98,-206 338.91,-206 347.7,-206"/>
<polygon fill="#63b8ff" stroke="#63b8ff" points="321.09,-202.5 311.09,-206 321.09,-209.5 321.09,-202.5"/>
</a>
</g>
</g>
<!-- Node8 -->
<g id="Node000008" class="node">
<title>Node8</title>
<g id="a_Node000008"><a xlink:title=" ">
<polygon fill="white" stroke="#666666" points="137,-232 0,-232 0,-180 137,-180 137,-232"/>
<text text-anchor="start" x="8" y="-220" font-family="FreeSans" font-size="10.00">std::enable_shared</text>
<text text-anchor="start" x="8" y="-209" font-family="FreeSans" font-size="10.00">_from_this&lt; virt_base</text>
<text text-anchor="start" x="8" y="-198" font-family="FreeSans" font-size="10.00">_of_enable_shared_from</text>
<text text-anchor="middle" x="68.5" y="-187" font-family="FreeSans" font-size="10.00">_this &gt;</text>
</a>
</g>
</g>
<!-- Node8&#45;&gt;Node7 -->
<g id="edge7_Node000007_Node000008" class="edge">
<title>Node8&#45;&gt;Node7</title>
<g id="a_edge7_Node000007_Node000008"><a xlink:title=" ">
<path fill="none" stroke="#63b8ff" d="M147.63,-206C156.35,-206 165.17,-206 173.73,-206"/>
<polygon fill="#63b8ff" stroke="#63b8ff" points="147.48,-202.5 137.48,-206 147.48,-209.5 147.48,-202.5"/>
</a>
</g>
</g>
<!-- Node9 -->
<g id="Node000009" class="node">
<title>Node9</title>
<g id="a_Node000009"><a xlink:href="classmpqc_1_1_formula_registry.html" target="_top" xlink:title=" ">
<polygon fill="white" stroke="#666666" points="872,-128 742,-128 742,-98 872,-98 872,-128"/>
<text text-anchor="start" x="750" y="-116" font-family="FreeSans" font-size="10.00">mpqc::FormulaRegistry</text>
<text text-anchor="middle" x="807" y="-105" font-family="FreeSans" font-size="10.00">&lt; TArray &gt;</text>
</a>
</g>
</g>
<!-- Node9&#45;&gt;Node3 -->
<g id="edge8_Node000003_Node000009" class="edge">
<title>Node9&#45;&gt;Node3</title>
<g id="a_edge8_Node000003_Node000009"><a xlink:title=" ">
<path fill="none" stroke="#9a32cd" stroke-dasharray="5,2" d="M882.58,-123.91C909.82,-128.07 940.84,-133.02 969,-138 974.75,-139.02 980.73,-140.12 986.71,-141.25"/>
<polygon fill="#9a32cd" stroke="#9a32cd" points="882.76,-120.4 872.35,-122.36 881.71,-127.32 882.76,-120.4"/>
</a>
</g>
<text text-anchor="middle" x="929.5" y="-141" font-family="FreeSans" font-size="10.00" fill="grey"> registry_</text>
</g>
<!-- Node10 -->
<g id="Node000010" class="node">
<title>Node10</title>
<g id="a_Node000010"><a xlink:href="classmpqc_1_1_formula_registry_base.html" target="_top" xlink:title=" ">
<polygon fill="white" stroke="#666666" points="705,-122.5 551,-122.5 551,-103.5 705,-103.5 705,-122.5"/>
<text text-anchor="middle" x="628" y="-110.5" font-family="FreeSans" font-size="10.00">mpqc::FormulaRegistryBase</text>
</a>
</g>
</g>
<!-- Node10&#45;&gt;Node9 -->
<g id="edge9_Node000009_Node000010" class="edge">
<title>Node10&#45;&gt;Node9</title>
<g id="a_edge9_Node000009_Node000010"><a xlink:title=" ">
<path fill="none" stroke="#63b8ff" d="M715.21,-113C724.21,-113 733.23,-113 741.92,-113"/>
<polygon fill="#63b8ff" stroke="#63b8ff" points="715.09,-109.5 705.09,-113 715.09,-116.5 715.09,-109.5"/>
</a>
</g>
</g>
<!-- Node12 -->
<g id="Node000012" class="node">
<title>Node12</title>
<g id="a_Node000012"><a xlink:href="classmpqc_1_1_formula_registry.html" target="_top" xlink:title=" ">
<polygon fill="white" stroke="#666666" points="872,-176 742,-176 742,-146 872,-146 872,-176"/>
<text text-anchor="start" x="750" y="-164" font-family="FreeSans" font-size="10.00">mpqc::FormulaRegistry</text>
<text text-anchor="middle" x="807" y="-153" font-family="FreeSans" font-size="10.00">&lt; TArrayVector &gt;</text>
</a>
</g>
</g>
<!-- Node10&#45;&gt;Node12 -->
<g id="edge12_Node000012_Node000010" class="edge">
<title>Node10&#45;&gt;Node12</title>
<g id="a_edge12_Node000012_Node000010"><a xlink:title=" ">
<path fill="none" stroke="#63b8ff" d="M674.32,-125.29C697.51,-131.58 725.95,-139.29 750.46,-145.94"/>
<polygon fill="#63b8ff" stroke="#63b8ff" points="674.96,-121.84 664.39,-122.6 673.13,-128.59 674.96,-121.84"/>
</a>
</g>
</g>
<!-- Node14 -->
<g id="Node000014" class="node">
<title>Node14</title>
<g id="a_Node000014"><a xlink:href="classmpqc_1_1_formula_registry.html" target="_top" xlink:title=" ">
<polygon fill="white" stroke="#666666" points="872,-80 742,-80 742,-50 872,-50 872,-80"/>
<text text-anchor="start" x="750" y="-68" font-family="FreeSans" font-size="10.00">mpqc::FormulaRegistry</text>
<text text-anchor="middle" x="807" y="-57" font-family="FreeSans" font-size="10.00">&lt; mpqc::DirectArray &gt;</text>
</a>
</g>
</g>
<!-- Node10&#45;&gt;Node14 -->
<g id="edge15_Node000014_Node000010" class="edge">
<title>Node10&#45;&gt;Node14</title>
<g id="a_edge15_Node000014_Node000010"><a xlink:title=" ">
<path fill="none" stroke="#63b8ff" d="M674.32,-100.71C697.51,-94.42 725.95,-86.71 750.46,-80.06"/>
<polygon fill="#63b8ff" stroke="#63b8ff" points="673.13,-97.41 664.39,-103.4 674.96,-104.16 673.13,-97.41"/>
</a>
</g>
</g>
<!-- Node11 -->
<g id="Node000011" class="node">
<title>Node11</title>
<g id="a_Node000011"><a xlink:href="classmpqc_1_1utility_1_1_registry.html" target="_top" xlink:title="a syntactically&#45;sweet wrapper of std::map, not thread_safe for writing">
<polygon fill="white" stroke="#666666" points="690,-78 566,-78 566,-48 690,-48 690,-78"/>
<text text-anchor="start" x="574" y="-66" font-family="FreeSans" font-size="10.00">mpqc::utility::Registry</text>
<text text-anchor="middle" x="628" y="-55" font-family="FreeSans" font-size="10.00">&lt; Key, Value &gt;</text>
</a>
</g>
</g>
<!-- Node11&#45;&gt;Node9 -->
<g id="edge10_Node000009_Node000011" class="edge">
<title>Node11&#45;&gt;Node9</title>
<g id="a_edge10_Node000009_Node000011"><a xlink:title=" ">
<path fill="none" stroke="#63b8ff" d="M691.98,-80.79C711.82,-86.39 733.52,-92.53 752.63,-97.92"/>
<polygon fill="#63b8ff" stroke="#63b8ff" points="692.68,-77.35 682.11,-78 690.78,-84.09 692.68,-77.35"/>
</a>
</g>
</g>
<!-- Node12&#45;&gt;Node3 -->
<g id="edge11_Node000003_Node000012" class="edge">
<title>Node12&#45;&gt;Node3</title>
<g id="a_edge11_Node000003_Node000012"><a xlink:title=" ">
<path fill="none" stroke="#9a32cd" stroke-dasharray="5,2" d="M882.68,-155.32C885.15,-155.2 887.59,-155.1 890,-155 921.96,-153.73 957.55,-153.4 986.98,-153.43"/>
<polygon fill="#9a32cd" stroke="#9a32cd" points="882.23,-151.84 872.43,-155.88 882.61,-158.83 882.23,-151.84"/>
</a>
</g>
<text text-anchor="middle" x="929.5" y="-158" font-family="FreeSans" font-size="10.00" fill="grey"> vregistry_</text>
</g>
<!-- Node13 -->
<g id="Node000013" class="node">
<title>Node13</title>
<g id="a_Node000013"><a xlink:href="classmpqc_1_1utility_1_1_registry.html" target="_top" xlink:title="a syntactically&#45;sweet wrapper of std::map, not thread_safe for writing">
<polygon fill="white" stroke="#666666" points="690,-178 566,-178 566,-148 690,-148 690,-178"/>
<text text-anchor="start" x="574" y="-166" font-family="FreeSans" font-size="10.00">mpqc::utility::Registry</text>
<text text-anchor="middle" x="628" y="-155" font-family="FreeSans" font-size="10.00">&lt; Key, Value &gt;</text>
</a>
</g>
</g>
<!-- Node13&#45;&gt;Node12 -->
<g id="edge13_Node000012_Node000013" class="edge">
<title>Node13&#45;&gt;Node12</title>
<g id="a_edge13_Node000012_Node000013"><a xlink:title=" ">
<path fill="none" stroke="#63b8ff" d="M700.72,-162.19C714.38,-162.04 728.59,-161.87 741.99,-161.72"/>
<polygon fill="#63b8ff" stroke="#63b8ff" points="700.37,-158.69 690.41,-162.31 700.45,-165.69 700.37,-158.69"/>
</a>
</g>
</g>
<!-- Node14&#45;&gt;Node3 -->
<g id="edge14_Node000003_Node000014" class="edge">
<title>Node14&#45;&gt;Node3</title>
<g id="a_edge14_Node000003_Node000014"><a xlink:title=" ">
<path fill="none" stroke="#9a32cd" stroke-dasharray="5,2" d="M882.22,-81.96C909.92,-89.27 941.35,-98.75 969,-110 984.93,-116.48 1001.75,-125.33 1015.87,-133.39"/>
<polygon fill="#9a32cd" stroke="#9a32cd" points="882.75,-78.49 872.2,-79.37 881,-85.26 882.75,-78.49"/>
</a>
</g>
<text text-anchor="middle" x="929.5" y="-113" font-family="FreeSans" font-size="10.00" fill="grey"> direct_registry_</text>
</g>
<!-- Node15 -->
<g id="Node000015" class="node">
<title>Node15</title>
<g id="a_Node000015"><a xlink:href="classmpqc_1_1utility_1_1_registry.html" target="_top" xlink:title="a syntactically&#45;sweet wrapper of std::map, not thread_safe for writing">
<polygon fill="white" stroke="#666666" points="690,-30 566,-30 566,0 690,0 690,-30"/>
<text text-anchor="start" x="574" y="-18" font-family="FreeSans" font-size="10.00">mpqc::utility::Registry</text>
<text text-anchor="middle" x="628" y="-7" font-family="FreeSans" font-size="10.00">&lt; Key, Value &gt;</text>
</a>
</g>
</g>
<!-- Node15&#45;&gt;Node14 -->
<g id="edge16_Node000014_Node000015" class="edge">
<title>Node15&#45;&gt;Node14</title>
<g id="a_edge16_Node000014_Node000015"><a xlink:title=" ">
<path fill="none" stroke="#63b8ff" d="M691.98,-32.79C711.82,-38.39 733.52,-44.53 752.63,-49.92"/>
<polygon fill="#63b8ff" stroke="#63b8ff" points="692.68,-29.35 682.11,-30 690.78,-36.09 692.68,-29.35"/>
</a>
</g>
</g>
<!-- Node16&#45;&gt;Node1 -->
<g id="edge17_Node000001_Node000016" class="edge">
<title>Node16&#45;&gt;Node1</title>
<g id="a_edge17_Node000001_Node000016"><a xlink:title=" ">
<path fill="none" stroke="#63b8ff" d="M1261.22,-199.15C1311.48,-195.6 1379.57,-190.79 1430.85,-187.17"/>
<polygon fill="#63b8ff" stroke="#63b8ff" points="1260.82,-195.67 1251.09,-199.86 1261.31,-202.65 1260.82,-195.67"/>
</a>
</g>
</g>
</g>
</svg>
