<?xml version="1.0" encoding="UTF-8" standalone="no"?>
<!DOCTYPE svg PUBLIC "-//W3C//DTD SVG 1.1//EN"
 "http://www.w3.org/Graphics/SVG/1.1/DTD/svg11.dtd">
<!-- Generated by graphviz version 2.43.0 (0)
 -->
<!-- Title: mpqc::lcao::DFRMP2F12&lt; Tile, Policy &gt; Pages: 1 -->
<svg width="414pt" height="566pt"
 viewBox="0.00 0.00 414.00 566.00" xmlns="http://www.w3.org/2000/svg" xmlns:xlink="http://www.w3.org/1999/xlink">
<g id="graph0" class="graph" transform="scale(1 1) rotate(0) translate(4 562)">
<title>mpqc::lcao::DFRMP2F12&lt; Tile, Policy &gt;</title>
<!-- Node1 -->
<g id="Node000001" class="node">
<title>Node1</title>
<g id="a_Node000001"><a xlink:title="MP2F12 method for closed shell with DF.">
<polygon fill="#999999" stroke="#666666" points="310.5,-30 175.5,-30 175.5,0 310.5,0 310.5,-30"/>
<text text-anchor="start" x="183.5" y="-18" font-family="FreeSans" font-size="10.00">mpqc::lcao::DFRMP2F12</text>
<text text-anchor="middle" x="243" y="-7" font-family="FreeSans" font-size="10.00">&lt; Tile, Policy &gt;</text>
</a>
</g>
</g>
<!-- Node2 -->
<g id="Node000002" class="node">
<title>Node2</title>
<g id="a_Node000002"><a xlink:href="classmpqc_1_1lcao_1_1_r_m_p2_f12.html" target="_top" xlink:title="MP2F12 method for closed shell.">
<polygon fill="white" stroke="#666666" points="304,-96 182,-96 182,-66 304,-66 304,-96"/>
<text text-anchor="start" x="190" y="-84" font-family="FreeSans" font-size="10.00">mpqc::lcao::RMP2F12</text>
<text text-anchor="middle" x="243" y="-73" font-family="FreeSans" font-size="10.00">&lt; Tile, Policy &gt;</text>
</a>
</g>
</g>
<!-- Node2&#45;&gt;Node1 -->
<g id="edge1_Node000001_Node000002" class="edge">
<title>Node2&#45;&gt;Node1</title>
<g id="a_edge1_Node000001_Node000002"><a xlink:title=" ">
<path fill="none" stroke="#63b8ff" d="M243,-55.54C243,-46.96 243,-37.61 243,-30.16"/>
<polygon fill="#63b8ff" stroke="#63b8ff" points="239.5,-55.8 243,-65.8 246.5,-55.8 239.5,-55.8"/>
</a>
</g>
</g>
<!-- Node3 -->
<g id="Node000003" class="node">
<title>Node3</title>
<g id="a_Node000003"><a xlink:href="classmpqc_1_1lcao_1_1_l_c_a_o_wavefunction.html" target="_top" xlink:title="LCAOWavefunction is a Wavefunction with an LCAOFactory.">
<polygon fill="white" stroke="#666666" points="239.5,-162 70.5,-162 70.5,-132 239.5,-132 239.5,-162"/>
<text text-anchor="start" x="78.5" y="-150" font-family="FreeSans" font-size="10.00">mpqc::lcao::LCAOWavefunction</text>
<text text-anchor="middle" x="155" y="-139" font-family="FreeSans" font-size="10.00">&lt; Tile, Policy &gt;</text>
</a>
</g>
</g>
<!-- Node3&#45;&gt;Node2 -->
<g id="edge2_Node000002_Node000003" class="edge">
<title>Node3&#45;&gt;Node2</title>
<g id="a_edge2_Node000002_Node000003"><a xlink:title=" ">
<path fill="none" stroke="#63b8ff" d="M182.84,-125.75C196.07,-116.13 211.57,-104.86 223.52,-96.16"/>
<polygon fill="#63b8ff" stroke="#63b8ff" points="180.56,-123.08 174.53,-131.8 184.68,-128.75 180.56,-123.08"/>
</a>
</g>
</g>
<!-- Node4 -->
<g id="Node000004" class="node">
<title>Node4</title>
<g id="a_Node000004"><a xlink:href="classmpqc_1_1lcao_1_1_wavefunction.html" target="_top" xlink:title=" ">
<polygon fill="white" stroke="#666666" points="226.5,-217 83.5,-217 83.5,-198 226.5,-198 226.5,-217"/>
<text text-anchor="middle" x="155" y="-205" font-family="FreeSans" font-size="10.00">mpqc::lcao::Wavefunction</text>
</a>
</g>
</g>
<!-- Node4&#45;&gt;Node3 -->
<g id="edge3_Node000003_Node000004" class="edge">
<title>Node4&#45;&gt;Node3</title>
<g id="a_edge3_Node000003_Node000004"><a xlink:title=" ">
<path fill="none" stroke="#63b8ff" d="M155,-187.65C155,-179.36 155,-169.78 155,-162.11"/>
<polygon fill="#63b8ff" stroke="#63b8ff" points="151.5,-187.87 155,-197.87 158.5,-187.87 151.5,-187.87"/>
</a>
</g>
</g>
<!-- Node5 -->
<g id="Node000005" class="node">
<title>Node5</title>
<g id="a_Node000005"><a xlink:href="classmpqc_1_1_wavefunction.html" target="_top" xlink:title=" ">
<polygon fill="white" stroke="#666666" points="213,-272 97,-272 97,-253 213,-253 213,-272"/>
<text text-anchor="middle" x="155" y="-260" font-family="FreeSans" font-size="10.00">mpqc::Wavefunction</text>
</a>
</g>
</g>
<!-- Node5&#45;&gt;Node4 -->
<g id="edge4_Node000004_Node000005" class="edge">
<title>Node5&#45;&gt;Node4</title>
<g id="a_edge4_Node000004_Node000005"><a xlink:title=" ">
<path fill="none" stroke="#63b8ff" d="M155,-242.66C155,-233.93 155,-223.99 155,-217.09"/>
<polygon fill="#63b8ff" stroke="#63b8ff" points="151.5,-242.75 155,-252.75 158.5,-242.75 151.5,-242.75"/>
</a>
</g>
</g>
<!-- Node6 -->
<g id="Node000006" class="node">
<title>Node6</title>
<g id="a_Node000006"><a xlink:href="classmpqc_1_1_described_class.html" target="_top" xlink:title=" ">
<polygon fill="white" stroke="#666666" points="145.5,-327 20.5,-327 20.5,-308 145.5,-308 145.5,-327"/>
<text text-anchor="middle" x="83" y="-315" font-family="FreeSans" font-size="10.00">mpqc::DescribedClass</text>
</a>
</g>
</g>
<!-- Node6&#45;&gt;Node5 -->
<g id="edge5_Node000005_Node000006" class="edge">
<title>Node6&#45;&gt;Node5</title>
<g id="a_edge5_Node000005_Node000006"><a xlink:title=" ">
<path fill="none" stroke="#63b8ff" d="M102.87,-301.88C115.82,-292.34 132.3,-280.21 143.22,-272.17"/>
<polygon fill="#63b8ff" stroke="#63b8ff" points="100.55,-299.24 94.57,-307.98 104.7,-304.88 100.55,-299.24"/>
</a>
</g>
</g>
<!-- Node7 -->
<g id="Node000007" class="node">
<title>Node7</title>
<g id="a_Node000007"><a xlink:href="classmpqc_1_1enable__shared__from__this.html" target="_top" xlink:title=" ">
<polygon fill="white" stroke="#666666" points="166,-393 0,-393 0,-363 166,-363 166,-393"/>
<text text-anchor="start" x="8" y="-381" font-family="FreeSans" font-size="10.00">mpqc::enable_shared</text>
<text text-anchor="middle" x="83" y="-370" font-family="FreeSans" font-size="10.00">_from_this&lt; DescribedClass &gt;</text>
</a>
</g>
</g>
<!-- Node7&#45;&gt;Node6 -->
<g id="edge6_Node000006_Node000007" class="edge">
<title>Node7&#45;&gt;Node6</title>
<g id="a_edge6_Node000006_Node000007"><a xlink:title=" ">
<path fill="none" stroke="#63b8ff" d="M83,-352.75C83,-343.72 83,-334.03 83,-327.27"/>
<polygon fill="#63b8ff" stroke="#63b8ff" points="79.5,-352.84 83,-362.84 86.5,-352.84 79.5,-352.84"/>
</a>
</g>
</g>
<!-- Node8 -->
<g id="Node000008" class="node">
<title>Node8</title>
<g id="a_Node000008"><a xlink:href="classmpqc_1_1detail_1_1virt__base__of__enable__shared__from__this.html" target="_top" xlink:title="helper class for mpqc::enable_shared_from_this">
<polygon fill="white" stroke="#666666" points="151.5,-470 14.5,-470 14.5,-429 151.5,-429 151.5,-470"/>
<text text-anchor="start" x="22.5" y="-458" font-family="FreeSans" font-size="10.00">mpqc::detail::virt</text>
<text text-anchor="start" x="22.5" y="-447" font-family="FreeSans" font-size="10.00">_base_of_enable_shared</text>
<text text-anchor="middle" x="83" y="-436" font-family="FreeSans" font-size="10.00">_from_this</text>
</a>
</g>
</g>
<!-- Node8&#45;&gt;Node7 -->
<g id="edge7_Node000007_Node000008" class="edge">
<title>Node8&#45;&gt;Node7</title>
<g id="a_edge7_Node000007_Node000008"><a xlink:title=" ">
<path fill="none" stroke="#63b8ff" d="M83,-418.66C83,-409.76 83,-400.42 83,-393.04"/>
<polygon fill="#63b8ff" stroke="#63b8ff" points="79.5,-418.77 83,-428.77 86.5,-418.77 79.5,-418.77"/>
</a>
</g>
</g>
<!-- Node9 -->
<g id="Node000009" class="node">
<title>Node9</title>
<g id="a_Node000009"><a xlink:title=" ">
<polygon fill="white" stroke="#666666" points="151.5,-558 14.5,-558 14.5,-506 151.5,-506 151.5,-558"/>
<text text-anchor="start" x="22.5" y="-546" font-family="FreeSans" font-size="10.00">std::enable_shared</text>
<text text-anchor="start" x="22.5" y="-535" font-family="FreeSans" font-size="10.00">_from_this&lt; virt_base</text>
<text text-anchor="start" x="22.5" y="-524" font-family="FreeSans" font-size="10.00">_of_enable_shared_from</text>
<text text-anchor="middle" x="83" y="-513" font-family="FreeSans" font-size="10.00">_this &gt;</text>
</a>
</g>
</g>
<!-- Node9&#45;&gt;Node8 -->
<g id="edge8_Node000008_Node000009" class="edge">
<title>Node9&#45;&gt;Node8</title>
<g id="a_edge8_Node000008_Node000009"><a xlink:title=" ">
<path fill="none" stroke="#63b8ff" d="M83,-495.87C83,-487.05 83,-477.9 83,-470.15"/>
<polygon fill="#63b8ff" stroke="#63b8ff" points="79.5,-495.97 83,-505.97 86.5,-495.97 79.5,-495.97"/>
</a>
</g>
</g>
<!-- Node10 -->
<g id="Node000010" class="node">
<title>Node10</title>
<g id="a_Node000010"><a xlink:href="classmpqc_1_1utility_1_1_observer.html" target="_top" xlink:title="helps to set up messaging between objects via the Observer pattern">
<polygon fill="white" stroke="#666666" points="292,-327 164,-327 164,-308 292,-308 292,-327"/>
<text text-anchor="middle" x="228" y="-315" font-family="FreeSans" font-size="10.00">mpqc::utility::Observer</text>
</a>
</g>
</g>
<!-- Node10&#45;&gt;Node5 -->
<g id="edge9_Node000005_Node000010" class="edge">
<title>Node10&#45;&gt;Node5</title>
<g id="a_edge9_Node000005_Node000010"><a xlink:title=" ">
<path fill="none" stroke="#63b8ff" d="M207.86,-301.88C194.72,-292.34 178.02,-280.21 166.94,-272.17"/>
<polygon fill="#63b8ff" stroke="#63b8ff" points="206.12,-304.94 216.27,-307.98 210.24,-299.28 206.12,-304.94"/>
</a>
</g>
</g>
<!-- Node11 -->
<g id="Node000011" class="node">
<title>Node11</title>
<g id="a_Node000011"><a xlink:href="classmpqc_1_1_provides.html" target="_top" xlink:title=" ">
<polygon fill="white" stroke="#666666" points="406,-156.5 258,-156.5 258,-137.5 406,-137.5 406,-156.5"/>
<text text-anchor="middle" x="332" y="-144.5" font-family="FreeSans" font-size="10.00">mpqc::Provides&lt; Energy &gt;</text>
</a>
</g>
</g>
<!-- Node11&#45;&gt;Node2 -->
<g id="edge10_Node000002_Node000011" class="edge">
<title>Node11&#45;&gt;Node2</title>
<g id="a_edge10_Node000002_Node000011"><a xlink:title=" ">
<path fill="none" stroke="#63b8ff" d="M311.58,-131.32C296.88,-120.74 277.15,-106.56 262.63,-96.12"/>
<polygon fill="#63b8ff" stroke="#63b8ff" points="309.83,-134.37 320,-137.37 313.92,-128.69 309.83,-134.37"/>
</a>
</g>
</g>
</g>
</svg>
