<?xml version="1.0" encoding="UTF-8" standalone="no"?>
<!DOCTYPE svg PUBLIC "-//W3C//DTD SVG 1.1//EN"
 "http://www.w3.org/Graphics/SVG/1.1/DTD/svg11.dtd">
<!-- Generated by graphviz version 2.43.0 (0)
 -->
<!-- Title: mpqc::math::RealSolidHarmonic Pages: 1 -->
<svg width="182pt" height="148pt"
 viewBox="0.00 0.00 182.00 148.00" xmlns="http://www.w3.org/2000/svg" xmlns:xlink="http://www.w3.org/1999/xlink">
<g id="graph0" class="graph" transform="scale(1 1) rotate(0) translate(4 144)">
<title>mpqc::math::RealSolidHarmonic</title>
<!-- Node1 -->
<g id="Node000001" class="node">
<title>Node1</title>
<g id="a_Node000001"><a xlink:title=" ">
<polygon fill="#999999" stroke="#666666" points="174,-19 0,-19 0,0 174,0 174,-19"/>
<text text-anchor="middle" x="87" y="-7" font-family="FreeSans" font-size="10.00">mpqc::math::RealSolidHarmonic</text>
</a>
</g>
</g>
<!-- Node2 -->
<g id="Node000002" class="node">
<title>Node2</title>
<g id="a_Node000002"><a xlink:href="classmpqc_1_1math_1_1_real_spherical_harmonic.html" target="_top" xlink:title=" ">
<polygon fill="white" stroke="#666666" points="161,-85 13,-85 13,-55 161,-55 161,-85"/>
<text text-anchor="start" x="21" y="-73" font-family="FreeSans" font-size="10.00">mpqc::math::RealSpherical</text>
<text text-anchor="middle" x="87" y="-62" font-family="FreeSans" font-size="10.00">Harmonic</text>
</a>
</g>
</g>
<!-- Node2&#45;&gt;Node1 -->
<g id="edge1_Node000001_Node000002" class="edge">
<title>Node2&#45;&gt;Node1</title>
<g id="a_edge1_Node000001_Node000002"><a xlink:title=" ">
<path fill="none" stroke="#8b1a1a" d="M87,-44.75C87,-35.72 87,-26.03 87,-19.27"/>
<polygon fill="#8b1a1a" stroke="#8b1a1a" points="83.5,-44.84 87,-54.84 90.5,-44.84 83.5,-44.84"/>
</a>
</g>
</g>
<!-- Node3 -->
<g id="Node000003" class="node">
<title>Node3</title>
<g id="a_Node000003"><a xlink:href="classmpqc_1_1math_1_1_spherical_harmonic.html" target="_top" xlink:title=" ">
<polygon fill="white" stroke="#666666" points="173.5,-140 0.5,-140 0.5,-121 173.5,-121 173.5,-140"/>
<text text-anchor="middle" x="87" y="-128" font-family="FreeSans" font-size="10.00">mpqc::math::SphericalHarmonic</text>
</a>
</g>
</g>
<!-- Node3&#45;&gt;Node2 -->
<g id="edge2_Node000002_Node000003" class="edge">
<title>Node3&#45;&gt;Node2</title>
<g id="a_edge2_Node000002_Node000003"><a xlink:title=" ">
<path fill="none" stroke="darkgreen" d="M87,-110.65C87,-102.36 87,-92.78 87,-85.11"/>
<polygon fill="darkgreen" stroke="darkgreen" points="83.5,-110.87 87,-120.87 90.5,-110.87 83.5,-110.87"/>
</a>
</g>
</g>
</g>
</svg>
