<?xml version="1.0" encoding="UTF-8" standalone="no"?>
<!DOCTYPE svg PUBLIC "-//W3C//DTD SVG 1.1//EN"
 "http://www.w3.org/Graphics/SVG/1.1/DTD/svg11.dtd">
<!-- Generated by graphviz version 2.43.0 (0)
 -->
<!-- Title: mpqc/chemistry/molecule/cluster.cpp Pages: 1 -->
<svg width="1094pt" height="533pt"
 viewBox="0.00 0.00 1094.00 533.00" xmlns="http://www.w3.org/2000/svg" xmlns:xlink="http://www.w3.org/1999/xlink">
<g id="graph0" class="graph" transform="scale(1 1) rotate(0) translate(4 529)">
<title>mpqc/chemistry/molecule/cluster.cpp</title>
<!-- Node1 -->
<g id="Node000001" class="node">
<title>Node1</title>
<g id="a_Node000001"><a xlink:title=" ">
<polygon fill="#999999" stroke="#666666" points="871.5,-525 728.5,-525 728.5,-495 871.5,-495 871.5,-525"/>
<text text-anchor="start" x="736.5" y="-513" font-family="FreeSans" font-size="10.00">mpqc/chemistry/molecule</text>
<text text-anchor="middle" x="800" y="-502" font-family="FreeSans" font-size="10.00">/cluster.cpp</text>
</a>
</g>
</g>
<!-- Node2 -->
<g id="Node000002" class="node">
<title>Node2</title>
<g id="a_Node000002"><a xlink:href="cluster_8h.html" target="_top" xlink:title=" ">
<polygon fill="white" stroke="#666666" points="742.5,-459 599.5,-459 599.5,-429 742.5,-429 742.5,-459"/>
<text text-anchor="start" x="607.5" y="-447" font-family="FreeSans" font-size="10.00">mpqc/chemistry/molecule</text>
<text text-anchor="middle" x="671" y="-436" font-family="FreeSans" font-size="10.00">/cluster.h</text>
</a>
</g>
</g>
<!-- Node1&#45;&gt;Node2 -->
<g id="edge1_Node000001_Node000002" class="edge">
<title>Node1&#45;&gt;Node2</title>
<g id="a_edge1_Node000001_Node000002"><a xlink:title=" ">
<path fill="none" stroke="#63b8ff" d="M771.69,-494.95C753.12,-485.74 728.64,-473.6 708.46,-463.59"/>
<polygon fill="#63b8ff" stroke="#63b8ff" points="709.76,-460.32 699.24,-459.01 706.65,-466.59 709.76,-460.32"/>
</a>
</g>
</g>
<!-- Node8 -->
<g id="Node000008" class="node">
<title>Node8</title>
<g id="a_Node000008"><a xlink:href="assert_8h.html" target="_top" xlink:title=" ">
<polygon fill="white" stroke="#666666" points="827.5,-189.5 696.5,-189.5 696.5,-170.5 827.5,-170.5 827.5,-189.5"/>
<text text-anchor="middle" x="762" y="-177.5" font-family="FreeSans" font-size="10.00">mpqc/util/misc/assert.h</text>
</a>
</g>
</g>
<!-- Node1&#45;&gt;Node8 -->
<g id="edge34_Node000001_Node000008" class="edge">
<title>Node1&#45;&gt;Node8</title>
<g id="a_edge34_Node000001_Node000008"><a xlink:title=" ">
<path fill="none" stroke="#63b8ff" d="M818.44,-494.81C844.51,-472.99 889,-428.51 889,-379 889,-379 889,-379 889,-311 889,-274.46 893.13,-259.3 870,-231 854.75,-212.34 830.98,-200.3 809.61,-192.73"/>
<polygon fill="#63b8ff" stroke="#63b8ff" points="810.6,-189.37 800.01,-189.56 808.4,-196.02 810.6,-189.37"/>
</a>
</g>
</g>
<!-- Node3 -->
<g id="Node000003" class="node">
<title>Node3</title>
<g id="a_Node000003"><a xlink:href="cluster__concept_8h.html" target="_top" xlink:title=" ">
<polygon fill="white" stroke="#666666" points="642.5,-393 499.5,-393 499.5,-363 642.5,-363 642.5,-393"/>
<text text-anchor="start" x="507.5" y="-381" font-family="FreeSans" font-size="10.00">mpqc/chemistry/molecule</text>
<text text-anchor="middle" x="571" y="-370" font-family="FreeSans" font-size="10.00">/cluster_concept.h</text>
</a>
</g>
</g>
<!-- Node2&#45;&gt;Node3 -->
<g id="edge2_Node000002_Node000003" class="edge">
<title>Node2&#45;&gt;Node3</title>
<g id="a_edge2_Node000002_Node000003"><a xlink:title=" ">
<path fill="none" stroke="#63b8ff" d="M648.81,-428.8C634.95,-419.93 616.93,-408.39 601.71,-398.66"/>
<polygon fill="#63b8ff" stroke="#63b8ff" points="603.44,-395.61 593.13,-393.16 599.67,-401.5 603.44,-395.61"/>
</a>
</g>
</g>
<!-- Node4 -->
<g id="Node000004" class="node">
<title>Node4</title>
<g id="a_Node000004"><a xlink:href="chemistry_2molecule_2fwd_8h.html" target="_top" xlink:title=" ">
<polygon fill="white" stroke="#666666" points="837.5,-327 694.5,-327 694.5,-297 837.5,-297 837.5,-327"/>
<text text-anchor="start" x="702.5" y="-315" font-family="FreeSans" font-size="10.00">mpqc/chemistry/molecule</text>
<text text-anchor="middle" x="766" y="-304" font-family="FreeSans" font-size="10.00">/fwd.h</text>
</a>
</g>
</g>
<!-- Node2&#45;&gt;Node4 -->
<g id="edge31_Node000002_Node000004" class="edge">
<title>Node2&#45;&gt;Node4</title>
<g id="a_edge31_Node000002_Node000004"><a xlink:title=" ">
<path fill="none" stroke="#63b8ff" d="M681.35,-428.84C697.77,-406.37 729.93,-362.36 749.54,-335.53"/>
<polygon fill="#63b8ff" stroke="#63b8ff" points="752.59,-337.28 755.67,-327.14 746.94,-333.15 752.59,-337.28"/>
</a>
</g>
</g>
<!-- Node16 -->
<g id="Node000016" class="node">
<title>Node16</title>
<g id="a_Node000016"><a xlink:title=" ">
<polygon fill="#e0e0e0" stroke="#999999" points="705.5,-19 658.5,-19 658.5,0 705.5,0 705.5,-19"/>
<text text-anchor="middle" x="682" y="-7" font-family="FreeSans" font-size="10.00">vector</text>
</a>
</g>
</g>
<!-- Node2&#45;&gt;Node16 -->
<g id="edge33_Node000002_Node000016" class="edge">
<title>Node2&#45;&gt;Node16</title>
<g id="a_edge33_Node000002_Node000016"><a xlink:title=" ">
<path fill="none" stroke="#63b8ff" d="M599.19,-436.58C426.09,-420.14 0,-373.52 0,-313 0,-313 0,-313 0,-118.5 0,-52.19 509.45,-19.83 647.73,-12.26"/>
<polygon fill="#63b8ff" stroke="#63b8ff" points="648.33,-15.74 658.13,-11.7 647.95,-8.75 648.33,-15.74"/>
</a>
</g>
</g>
<!-- Node26 -->
<g id="Node000026" class="node">
<title>Node26</title>
<g id="a_Node000026"><a xlink:title=" ">
<polygon fill="#e0e0e0" stroke="#999999" points="676,-321.5 628,-321.5 628,-302.5 676,-302.5 676,-321.5"/>
<text text-anchor="middle" x="652" y="-309.5" font-family="FreeSans" font-size="10.00">iosfwd</text>
</a>
</g>
</g>
<!-- Node2&#45;&gt;Node26 -->
<g id="edge32_Node000002_Node000026" class="edge">
<title>Node2&#45;&gt;Node26</title>
<g id="a_edge32_Node000002_Node000026"><a xlink:title=" ">
<path fill="none" stroke="#63b8ff" d="M668.93,-428.84C665.5,-405.34 658.61,-358.26 654.77,-331.93"/>
<polygon fill="#63b8ff" stroke="#63b8ff" points="658.19,-331.14 653.28,-321.75 651.26,-332.15 658.19,-331.14"/>
</a>
</g>
</g>
<!-- Node3&#45;&gt;Node4 -->
<g id="edge3_Node000003_Node000004" class="edge">
<title>Node3&#45;&gt;Node4</title>
<g id="a_edge3_Node000003_Node000004"><a xlink:title=" ">
<path fill="none" stroke="#63b8ff" d="M613.79,-362.95C643.13,-353.33 682.24,-340.49 713.47,-330.24"/>
<polygon fill="#63b8ff" stroke="#63b8ff" points="714.9,-333.46 723.31,-327.01 712.71,-326.81 714.9,-333.46"/>
</a>
</g>
</g>
<!-- Node5 -->
<g id="Node000005" class="node">
<title>Node5</title>
<g id="a_Node000005"><a xlink:href="eigen_8h.html" target="_top" xlink:title=" ">
<polygon fill="white" stroke="#666666" points="610,-327 494,-327 494,-297 610,-297 610,-327"/>
<text text-anchor="start" x="502" y="-315" font-family="FreeSans" font-size="10.00">mpqc/math/external</text>
<text text-anchor="middle" x="552" y="-304" font-family="FreeSans" font-size="10.00">/eigen/eigen.h</text>
</a>
</g>
</g>
<!-- Node3&#45;&gt;Node5 -->
<g id="edge4_Node000003_Node000005" class="edge">
<title>Node3&#45;&gt;Node5</title>
<g id="a_edge4_Node000003_Node000005"><a xlink:title=" ">
<path fill="none" stroke="#63b8ff" d="M566.78,-362.8C564.52,-355.17 561.67,-345.57 559.08,-336.84"/>
<polygon fill="#63b8ff" stroke="#63b8ff" points="562.41,-335.75 556.2,-327.16 555.7,-337.75 562.41,-335.75"/>
</a>
</g>
</g>
<!-- Node13 -->
<g id="Node000013" class="node">
<title>Node13</title>
<g id="a_Node000013"><a xlink:href="memory.html" target="_top" xlink:title=" ">
<polygon fill="white" stroke="#666666" points="381,-74 323,-74 323,-55 381,-55 381,-74"/>
<text text-anchor="middle" x="352" y="-62" font-family="FreeSans" font-size="10.00">memory</text>
</a>
</g>
</g>
<!-- Node3&#45;&gt;Node13 -->
<g id="edge30_Node000003_Node000013" class="edge">
<title>Node3&#45;&gt;Node13</title>
<g id="a_edge30_Node000003_Node000013"><a xlink:title=" ">
<path fill="none" stroke="#63b8ff" d="M499.39,-374.43C354.03,-367.26 38,-340.88 38,-247 38,-247 38,-247 38,-179 38,-121.2 228.56,-84.57 312.78,-71.21"/>
<polygon fill="#63b8ff" stroke="#63b8ff" points="313.4,-74.66 322.74,-69.66 312.32,-67.74 313.4,-74.66"/>
</a>
</g>
</g>
<!-- Node3&#45;&gt;Node26 -->
<g id="edge29_Node000003_Node000026" class="edge">
<title>Node3&#45;&gt;Node26</title>
<g id="a_edge29_Node000003_Node000026"><a xlink:title=" ">
<path fill="none" stroke="#63b8ff" d="M588.98,-362.8C601.98,-352.53 619.51,-338.67 632.79,-328.18"/>
<polygon fill="#63b8ff" stroke="#63b8ff" points="635.13,-330.79 640.81,-321.84 630.79,-325.3 635.13,-330.79"/>
</a>
</g>
</g>
<!-- Node6 -->
<g id="Node000006" class="node">
<title>Node6</title>
<g id="a_Node000006"><a xlink:title=" ">
<polygon fill="#e0e0e0" stroke="#999999" points="727,-255.5 625,-255.5 625,-236.5 727,-236.5 727,-255.5"/>
<text text-anchor="middle" x="676" y="-243.5" font-family="FreeSans" font-size="10.00">madness/config.h</text>
</a>
</g>
</g>
<!-- Node5&#45;&gt;Node6 -->
<g id="edge5_Node000005_Node000006" class="edge">
<title>Node5&#45;&gt;Node6</title>
<g id="a_edge5_Node000005_Node000006"><a xlink:title=" ">
<path fill="none" stroke="#63b8ff" d="M579.21,-296.95C600.48,-285.98 629.82,-270.83 650.61,-260.11"/>
<polygon fill="#63b8ff" stroke="#63b8ff" points="652.22,-263.21 659.5,-255.52 649.01,-256.99 652.22,-263.21"/>
</a>
</g>
</g>
<!-- Node7 -->
<g id="Node000007" class="node">
<title>Node7</title>
<g id="a_Node000007"><a xlink:href="complex_8h.html" target="_top" xlink:title=" ">
<polygon fill="white" stroke="#666666" points="473,-255.5 323,-255.5 323,-236.5 473,-236.5 473,-255.5"/>
<text text-anchor="middle" x="398" y="-243.5" font-family="FreeSans" font-size="10.00">mpqc/math/core/complex.h</text>
</a>
</g>
</g>
<!-- Node5&#45;&gt;Node7 -->
<g id="edge6_Node000005_Node000007" class="edge">
<title>Node5&#45;&gt;Node7</title>
<g id="a_edge6_Node000005_Node000007"><a xlink:title=" ">
<path fill="none" stroke="#63b8ff" d="M518.2,-296.95C491.2,-285.73 453.7,-270.15 427.81,-259.39"/>
<polygon fill="#63b8ff" stroke="#63b8ff" points="429.07,-256.12 418.49,-255.52 426.39,-262.59 429.07,-256.12"/>
</a>
</g>
</g>
<!-- Node9 -->
<g id="Node000009" class="node">
<title>Node9</title>
<g id="a_Node000009"><a xlink:title=" ">
<polygon fill="#e0e0e0" stroke="#999999" points="688.5,-129 571.5,-129 571.5,-110 688.5,-110 688.5,-129"/>
<text text-anchor="middle" x="630" y="-117" font-family="FreeSans" font-size="10.00">mpqc/mpqc_config.h</text>
</a>
</g>
</g>
<!-- Node5&#45;&gt;Node9 -->
<g id="edge25_Node000005_Node000009" class="edge">
<title>Node5&#45;&gt;Node9</title>
<g id="a_edge25_Node000005_Node000009"><a xlink:title=" ">
<path fill="none" stroke="#63b8ff" d="M559.57,-296.59C564.79,-286.62 571.87,-273.03 578,-261 592.9,-231.78 599.55,-225.73 611,-195 617.83,-176.66 623.07,-154.89 626.3,-139.63"/>
<polygon fill="#63b8ff" stroke="#63b8ff" points="629.82,-139.9 628.37,-129.4 622.96,-138.51 629.82,-139.9"/>
</a>
</g>
</g>
<!-- Node24 -->
<g id="Node000024" class="node">
<title>Node24</title>
<g id="a_Node000024"><a xlink:href="math_2external_2eigen_2fwd_8h.html" target="_top" xlink:title=" ">
<polygon fill="white" stroke="#666666" points="861,-261 745,-261 745,-231 861,-231 861,-261"/>
<text text-anchor="start" x="753" y="-249" font-family="FreeSans" font-size="10.00">mpqc/math/external</text>
<text text-anchor="middle" x="803" y="-238" font-family="FreeSans" font-size="10.00">/eigen/fwd.h</text>
</a>
</g>
</g>
<!-- Node5&#45;&gt;Node24 -->
<g id="edge26_Node000005_Node000024" class="edge">
<title>Node5&#45;&gt;Node24</title>
<g id="a_edge26_Node000005_Node000024"><a xlink:title=" ">
<path fill="none" stroke="#63b8ff" d="M607.08,-296.95C645.74,-287.1 697.59,-273.88 738.23,-263.51"/>
<polygon fill="#63b8ff" stroke="#63b8ff" points="739.22,-266.87 748.05,-261.01 737.49,-260.09 739.22,-266.87"/>
</a>
</g>
</g>
<!-- Node25 -->
<g id="Node000025" class="node">
<title>Node25</title>
<g id="a_Node000025"><a xlink:title=" ">
<polygon fill="#e0e0e0" stroke="#999999" points="568.5,-255.5 491.5,-255.5 491.5,-236.5 568.5,-236.5 568.5,-255.5"/>
<text text-anchor="middle" x="530" y="-243.5" font-family="FreeSans" font-size="10.00">Eigen/Dense</text>
</a>
</g>
</g>
<!-- Node5&#45;&gt;Node25 -->
<g id="edge28_Node000005_Node000025" class="edge">
<title>Node5&#45;&gt;Node25</title>
<g id="a_edge28_Node000005_Node000025"><a xlink:title=" ">
<path fill="none" stroke="#63b8ff" d="M547.12,-296.8C543.96,-287.6 539.81,-275.53 536.39,-265.58"/>
<polygon fill="#63b8ff" stroke="#63b8ff" points="539.6,-264.16 533.04,-255.84 532.98,-266.44 539.6,-264.16"/>
</a>
</g>
</g>
<!-- Node7&#45;&gt;Node8 -->
<g id="edge7_Node000007_Node000008" class="edge">
<title>Node7&#45;&gt;Node8</title>
<g id="a_edge7_Node000007_Node000008"><a xlink:title=" ">
<path fill="none" stroke="#63b8ff" d="M446.71,-236.44C513.18,-224.75 632.16,-203.83 703.42,-191.3"/>
<polygon fill="#63b8ff" stroke="#63b8ff" points="704.33,-194.69 713.58,-189.51 703.12,-187.8 704.33,-194.69"/>
</a>
</g>
</g>
<!-- Node19 -->
<g id="Node000019" class="node">
<title>Node19</title>
<g id="a_Node000019"><a xlink:title=" ">
<polygon fill="#e0e0e0" stroke="#999999" points="135.5,-189.5 66.5,-189.5 66.5,-170.5 135.5,-170.5 135.5,-189.5"/>
<text text-anchor="middle" x="101" y="-177.5" font-family="FreeSans" font-size="10.00">Eigen/Core</text>
</a>
</g>
</g>
<!-- Node7&#45;&gt;Node19 -->
<g id="edge20_Node000007_Node000019" class="edge">
<title>Node7&#45;&gt;Node19</title>
<g id="a_edge20_Node000007_Node000019"><a xlink:title=" ">
<path fill="none" stroke="#63b8ff" d="M345.77,-236.45C294.34,-227.62 213.73,-212.67 145,-195 142.16,-194.27 139.24,-193.46 136.31,-192.62"/>
<polygon fill="#63b8ff" stroke="#63b8ff" points="137.04,-189.18 126.45,-189.64 135.01,-195.88 137.04,-189.18"/>
</a>
</g>
</g>
<!-- Node20 -->
<g id="Node000020" class="node">
<title>Node20</title>
<g id="a_Node000020"><a xlink:title=" ">
<polygon fill="#e0e0e0" stroke="#999999" points="276,-195 154,-195 154,-165 276,-165 276,-195"/>
<text text-anchor="start" x="162" y="-183" font-family="FreeSans" font-size="10.00">boost/container/small</text>
<text text-anchor="middle" x="215" y="-172" font-family="FreeSans" font-size="10.00">_vector.hpp</text>
</a>
</g>
</g>
<!-- Node7&#45;&gt;Node20 -->
<g id="edge21_Node000007_Node000020" class="edge">
<title>Node7&#45;&gt;Node20</title>
<g id="a_edge21_Node000007_Node000020"><a xlink:title=" ">
<path fill="none" stroke="#63b8ff" d="M373.32,-236.37C345.68,-226.7 300.14,-210.77 264.98,-198.48"/>
<polygon fill="#63b8ff" stroke="#63b8ff" points="265.96,-195.11 255.36,-195.12 263.65,-201.72 265.96,-195.11"/>
</a>
</g>
</g>
<!-- Node21 -->
<g id="Node000021" class="node">
<title>Node21</title>
<g id="a_Node000021"><a xlink:title=" ">
<polygon fill="#e0e0e0" stroke="#999999" points="437.5,-195 294.5,-195 294.5,-165 437.5,-165 437.5,-195"/>
<text text-anchor="start" x="302.5" y="-183" font-family="FreeSans" font-size="10.00">boost/numeric/conversion</text>
<text text-anchor="middle" x="366" y="-172" font-family="FreeSans" font-size="10.00">/cast.hpp</text>
</a>
</g>
</g>
<!-- Node7&#45;&gt;Node21 -->
<g id="edge22_Node000007_Node000021" class="edge">
<title>Node7&#45;&gt;Node21</title>
<g id="a_edge22_Node000007_Node000021"><a xlink:title=" ">
<path fill="none" stroke="#63b8ff" d="M393.68,-236.37C389.62,-228.24 383.35,-215.69 377.8,-204.59"/>
<polygon fill="#63b8ff" stroke="#63b8ff" points="380.78,-202.74 373.18,-195.36 374.52,-205.87 380.78,-202.74"/>
</a>
</g>
</g>
<!-- Node22 -->
<g id="Node000022" class="node">
<title>Node22</title>
<g id="a_Node000022"><a xlink:title=" ">
<polygon fill="#e0e0e0" stroke="#999999" points="514.5,-189.5 455.5,-189.5 455.5,-170.5 514.5,-170.5 514.5,-189.5"/>
<text text-anchor="middle" x="485" y="-177.5" font-family="FreeSans" font-size="10.00">complex</text>
</a>
</g>
</g>
<!-- Node7&#45;&gt;Node22 -->
<g id="edge23_Node000007_Node000022" class="edge">
<title>Node7&#45;&gt;Node22</title>
<g id="a_edge23_Node000007_Node000022"><a xlink:title=" ">
<path fill="none" stroke="#63b8ff" d="M409.73,-236.37C423.87,-225.97 447.86,-208.32 464.95,-195.75"/>
<polygon fill="#63b8ff" stroke="#63b8ff" points="467.19,-198.44 473.17,-189.7 463.05,-192.81 467.19,-198.44"/>
</a>
</g>
</g>
<!-- Node23 -->
<g id="Node000023" class="node">
<title>Node23</title>
<g id="a_Node000023"><a xlink:title=" ">
<polygon fill="#e0e0e0" stroke="#999999" points="601.5,-189.5 532.5,-189.5 532.5,-170.5 601.5,-170.5 601.5,-189.5"/>
<text text-anchor="middle" x="567" y="-177.5" font-family="FreeSans" font-size="10.00">type_traits</text>
</a>
</g>
</g>
<!-- Node7&#45;&gt;Node23 -->
<g id="edge24_Node000007_Node000023" class="edge">
<title>Node7&#45;&gt;Node23</title>
<g id="a_edge24_Node000007_Node000023"><a xlink:title=" ">
<path fill="none" stroke="#63b8ff" d="M420.79,-236.37C450.1,-225.27 501.2,-205.92 534.56,-193.28"/>
<polygon fill="#63b8ff" stroke="#63b8ff" points="536.19,-196.41 544.3,-189.6 533.71,-189.86 536.19,-196.41"/>
</a>
</g>
</g>
<!-- Node8&#45;&gt;Node9 -->
<g id="edge8_Node000008_Node000009" class="edge">
<title>Node8&#45;&gt;Node9</title>
<g id="a_edge8_Node000008_Node000009"><a xlink:title=" ">
<path fill="none" stroke="#63b8ff" d="M742.81,-170.49C720.61,-160.66 683.88,-144.38 658.38,-133.08"/>
<polygon fill="#63b8ff" stroke="#63b8ff" points="659.78,-129.87 649.22,-129.02 656.94,-136.27 659.78,-129.87"/>
</a>
</g>
</g>
<!-- Node10 -->
<g id="Node000010" class="node">
<title>Node10</title>
<g id="a_Node000010"><a xlink:title=" ">
<polygon fill="#e0e0e0" stroke="#999999" points="759,-129 707,-129 707,-110 759,-110 759,-129"/>
<text text-anchor="middle" x="733" y="-117" font-family="FreeSans" font-size="10.00">cassert</text>
</a>
</g>
</g>
<!-- Node8&#45;&gt;Node10 -->
<g id="edge9_Node000008_Node000010" class="edge">
<title>Node8&#45;&gt;Node10</title>
<g id="a_edge9_Node000008_Node000010"><a xlink:title=" ">
<path fill="none" stroke="#63b8ff" d="M757.72,-170.37C753.57,-161.99 747.13,-149.01 741.87,-138.39"/>
<polygon fill="#63b8ff" stroke="#63b8ff" points="744.87,-136.57 737.3,-129.17 738.6,-139.68 744.87,-136.57"/>
</a>
</g>
</g>
<!-- Node11 -->
<g id="Node000011" class="node">
<title>Node11</title>
<g id="a_Node000011"><a xlink:href="exception_8h.html" target="_top" xlink:title=" ">
<polygon fill="white" stroke="#666666" points="923,-129 777,-129 777,-110 923,-110 923,-129"/>
<text text-anchor="middle" x="850" y="-117" font-family="FreeSans" font-size="10.00">mpqc/util/core/exception.h</text>
</a>
</g>
</g>
<!-- Node8&#45;&gt;Node11 -->
<g id="edge10_Node000008_Node000011" class="edge">
<title>Node8&#45;&gt;Node11</title>
<g id="a_edge10_Node000008_Node000011"><a xlink:title=" ">
<path fill="none" stroke="#63b8ff" d="M774.98,-170.37C789.02,-161.04 811.63,-146.01 828.36,-134.88"/>
<polygon fill="#63b8ff" stroke="#63b8ff" points="830.57,-137.62 836.96,-129.17 826.7,-131.79 830.57,-137.62"/>
</a>
</g>
</g>
<!-- Node12 -->
<g id="Node000012" class="node">
<title>Node12</title>
<g id="a_Node000012"><a xlink:title=" ">
<polygon fill="#e0e0e0" stroke="#999999" points="763.5,-74 710.5,-74 710.5,-55 763.5,-55 763.5,-74"/>
<text text-anchor="middle" x="737" y="-62" font-family="FreeSans" font-size="10.00">string.h</text>
</a>
</g>
</g>
<!-- Node11&#45;&gt;Node12 -->
<g id="edge11_Node000011_Node000012" class="edge">
<title>Node11&#45;&gt;Node12</title>
<g id="a_edge11_Node000011_Node000012"><a xlink:title=" ">
<path fill="none" stroke="#63b8ff" d="M831.84,-109.98C813.75,-101.5 785.72,-88.35 764.81,-78.54"/>
<polygon fill="#63b8ff" stroke="#63b8ff" points="766.03,-75.25 755.49,-74.17 763.05,-81.59 766.03,-75.25"/>
</a>
</g>
</g>
<!-- Node11&#45;&gt;Node13 -->
<g id="edge12_Node000011_Node000013" class="edge">
<title>Node11&#45;&gt;Node13</title>
<g id="a_edge12_Node000011_Node000013"><a xlink:title=" ">
<path fill="none" stroke="#63b8ff" d="M776.79,-110.71C669.84,-99.33 474.58,-78.55 391.31,-69.68"/>
<polygon fill="#63b8ff" stroke="#63b8ff" points="391.57,-66.19 381.26,-68.61 390.83,-73.15 391.57,-66.19"/>
</a>
</g>
</g>
<!-- Node14 -->
<g id="Node000014" class="node">
<title>Node14</title>
<g id="a_Node000014"><a xlink:title=" ">
<polygon fill="#e0e0e0" stroke="#999999" points="838,-74 782,-74 782,-55 838,-55 838,-74"/>
<text text-anchor="middle" x="810" y="-62" font-family="FreeSans" font-size="10.00">sstream</text>
</a>
</g>
</g>
<!-- Node11&#45;&gt;Node14 -->
<g id="edge14_Node000011_Node000014" class="edge">
<title>Node11&#45;&gt;Node14</title>
<g id="a_edge14_Node000011_Node000014"><a xlink:title=" ">
<path fill="none" stroke="#63b8ff" d="M843.39,-109.75C837.74,-102.26 829.46,-91.28 822.55,-82.13"/>
<polygon fill="#63b8ff" stroke="#63b8ff" points="825.3,-79.96 816.48,-74.09 819.71,-84.18 825.3,-79.96"/>
</a>
</g>
</g>
<!-- Node15 -->
<g id="Node000015" class="node">
<title>Node15</title>
<g id="a_Node000015"><a xlink:title=" ">
<polygon fill="#e0e0e0" stroke="#999999" points="921.5,-74 856.5,-74 856.5,-55 921.5,-55 921.5,-74"/>
<text text-anchor="middle" x="889" y="-62" font-family="FreeSans" font-size="10.00">stdexcept</text>
</a>
</g>
</g>
<!-- Node11&#45;&gt;Node15 -->
<g id="edge15_Node000011_Node000015" class="edge">
<title>Node11&#45;&gt;Node15</title>
<g id="a_edge15_Node000011_Node000015"><a xlink:title=" ">
<path fill="none" stroke="#63b8ff" d="M856.44,-109.75C861.89,-102.34 869.86,-91.5 876.56,-82.41"/>
<polygon fill="#63b8ff" stroke="#63b8ff" points="879.57,-84.22 882.68,-74.09 873.93,-80.07 879.57,-84.22"/>
</a>
</g>
</g>
<!-- Node11&#45;&gt;Node16 -->
<g id="edge16_Node000011_Node000016" class="edge">
<title>Node11&#45;&gt;Node16</title>
<g id="a_edge16_Node000011_Node000016"><a xlink:title=" ">
<path fill="none" stroke="#63b8ff" d="M776.82,-110.89C750.28,-104.73 721.95,-93.7 702,-74 690.06,-62.21 685.23,-43.37 683.28,-29.27"/>
<polygon fill="#63b8ff" stroke="#63b8ff" points="686.75,-28.79 682.26,-19.2 679.79,-29.5 686.75,-28.79"/>
</a>
</g>
</g>
<!-- Node17 -->
<g id="Node000017" class="node">
<title>Node17</title>
<g id="a_Node000017"><a xlink:href="backtrace_8h.html" target="_top" xlink:title=" ">
<polygon fill="white" stroke="#666666" points="1086,-74 940,-74 940,-55 1086,-55 1086,-74"/>
<text text-anchor="middle" x="1013" y="-62" font-family="FreeSans" font-size="10.00">mpqc/util/core/backtrace.h</text>
</a>
</g>
</g>
<!-- Node11&#45;&gt;Node17 -->
<g id="edge17_Node000011_Node000017" class="edge">
<title>Node11&#45;&gt;Node17</title>
<g id="a_edge17_Node000011_Node000017"><a xlink:title=" ">
<path fill="none" stroke="#63b8ff" d="M876.19,-109.98C903.44,-101.13 946.3,-87.19 976.78,-77.28"/>
<polygon fill="#63b8ff" stroke="#63b8ff" points="978.18,-80.5 986.61,-74.08 976.01,-73.85 978.18,-80.5"/>
</a>
</g>
</g>
<!-- Node13&#45;&gt;Node13 -->
<g id="edge13_Node000013_Node000013" class="edge">
<title>Node13&#45;&gt;Node13</title>
<g id="a_edge13_Node000013_Node000013"><a xlink:title=" ">
<path fill="none" stroke="#63b8ff" d="M374.24,-74.07C387.06,-76.02 399,-72.83 399,-64.5 399,-58.45 392.7,-55.11 384.34,-54.48"/>
<polygon fill="#63b8ff" stroke="#63b8ff" points="384.08,-50.99 374.24,-54.93 384.39,-57.98 384.08,-50.99"/>
</a>
</g>
</g>
<!-- Node17&#45;&gt;Node16 -->
<g id="edge19_Node000017_Node000016" class="edge">
<title>Node17&#45;&gt;Node16</title>
<g id="a_edge19_Node000017_Node000016"><a xlink:title=" ">
<path fill="none" stroke="#63b8ff" d="M959.82,-54.98C891,-43.97 773.13,-25.09 715.59,-15.88"/>
<polygon fill="#63b8ff" stroke="#63b8ff" points="716,-12.4 705.57,-14.27 714.89,-19.31 716,-12.4"/>
</a>
</g>
</g>
<!-- Node18 -->
<g id="Node000018" class="node">
<title>Node18</title>
<g id="a_Node000018"><a xlink:title=" ">
<polygon fill="#e0e0e0" stroke="#999999" points="1035,-19 991,-19 991,0 1035,0 1035,-19"/>
<text text-anchor="middle" x="1013" y="-7" font-family="FreeSans" font-size="10.00">string</text>
</a>
</g>
</g>
<!-- Node17&#45;&gt;Node18 -->
<g id="edge18_Node000017_Node000018" class="edge">
<title>Node17&#45;&gt;Node18</title>
<g id="a_edge18_Node000017_Node000018"><a xlink:title=" ">
<path fill="none" stroke="#63b8ff" d="M1013,-54.75C1013,-47.8 1013,-37.85 1013,-29.13"/>
<polygon fill="#63b8ff" stroke="#63b8ff" points="1016.5,-29.09 1013,-19.09 1009.5,-29.09 1016.5,-29.09"/>
</a>
</g>
</g>
<!-- Node24&#45;&gt;Node9 -->
<g id="edge27_Node000024_Node000009" class="edge">
<title>Node24&#45;&gt;Node9</title>
<g id="a_edge27_Node000024_Node000009"><a xlink:title=" ">
<path fill="none" stroke="#63b8ff" d="M756.75,-230.91C734.54,-222.7 708.39,-210.81 688,-195 667.64,-179.21 650.42,-154.73 640.16,-138.18"/>
<polygon fill="#63b8ff" stroke="#63b8ff" points="643.09,-136.26 634.95,-129.48 637.08,-139.86 643.09,-136.26"/>
</a>
</g>
</g>
</g>
</svg>
