<?xml version="1.0" encoding="UTF-8" standalone="no"?>
<!DOCTYPE svg PUBLIC "-//W3C//DTD SVG 1.1//EN"
 "http://www.w3.org/Graphics/SVG/1.1/DTD/svg11.dtd">
<!-- Generated by graphviz version 2.43.0 (0)
 -->
<!-- Title: mpqc/chemistry/molecule/cluster.h Pages: 1 -->
<svg width="997pt" height="467pt"
 viewBox="0.00 0.00 996.50 467.00" xmlns="http://www.w3.org/2000/svg" xmlns:xlink="http://www.w3.org/1999/xlink">
<g id="graph0" class="graph" transform="scale(1 1) rotate(0) translate(4 463)">
<title>mpqc/chemistry/molecule/cluster.h</title>
<!-- Node1 -->
<g id="Node000001" class="node">
<title>Node1</title>
<g id="a_Node000001"><a xlink:title=" ">
<polygon fill="#999999" stroke="#666666" points="398,-459 255,-459 255,-429 398,-429 398,-459"/>
<text text-anchor="start" x="263" y="-447" font-family="FreeSans" font-size="10.00">mpqc/chemistry/molecule</text>
<text text-anchor="middle" x="326.5" y="-436" font-family="FreeSans" font-size="10.00">/cluster.h</text>
</a>
</g>
</g>
<!-- Node2 -->
<g id="Node000002" class="node">
<title>Node2</title>
<g id="a_Node000002"><a xlink:href="cluster__concept_8h.html" target="_top" xlink:title=" ">
<polygon fill="white" stroke="#666666" points="348,-393 205,-393 205,-363 348,-363 348,-393"/>
<text text-anchor="start" x="213" y="-381" font-family="FreeSans" font-size="10.00">mpqc/chemistry/molecule</text>
<text text-anchor="middle" x="276.5" y="-370" font-family="FreeSans" font-size="10.00">/cluster_concept.h</text>
</a>
</g>
</g>
<!-- Node1&#45;&gt;Node2 -->
<g id="edge1_Node000001_Node000002" class="edge">
<title>Node1&#45;&gt;Node2</title>
<g id="a_edge1_Node000001_Node000002"><a xlink:title=" ">
<path fill="none" stroke="#63b8ff" d="M315.4,-428.8C309.06,-420.68 300.96,-410.31 293.8,-401.15"/>
<polygon fill="#63b8ff" stroke="#63b8ff" points="296.48,-398.89 287.57,-393.16 290.96,-403.2 296.48,-398.89"/>
</a>
</g>
</g>
<!-- Node3 -->
<g id="Node000003" class="node">
<title>Node3</title>
<g id="a_Node000003"><a xlink:href="chemistry_2molecule_2fwd_8h.html" target="_top" xlink:title=" ">
<polygon fill="white" stroke="#666666" points="143,-327 0,-327 0,-297 143,-297 143,-327"/>
<text text-anchor="start" x="8" y="-315" font-family="FreeSans" font-size="10.00">mpqc/chemistry/molecule</text>
<text text-anchor="middle" x="71.5" y="-304" font-family="FreeSans" font-size="10.00">/fwd.h</text>
</a>
</g>
</g>
<!-- Node1&#45;&gt;Node3 -->
<g id="edge30_Node000001_Node000003" class="edge">
<title>Node1&#45;&gt;Node3</title>
<g id="a_edge30_Node000001_Node000003"><a xlink:title=" ">
<path fill="none" stroke="#63b8ff" d="M283.05,-428.98C257.07,-419.97 223.73,-407.3 195.5,-393 160.69,-375.37 123.41,-350.4 98.92,-333.07"/>
<polygon fill="#63b8ff" stroke="#63b8ff" points="100.68,-330.02 90.51,-327.06 96.61,-335.72 100.68,-330.02"/>
</a>
</g>
</g>
<!-- Node15 -->
<g id="Node000015" class="node">
<title>Node15</title>
<g id="a_Node000015"><a xlink:title=" ">
<polygon fill="#e0e0e0" stroke="#999999" points="582,-19 535,-19 535,0 582,0 582,-19"/>
<text text-anchor="middle" x="558.5" y="-7" font-family="FreeSans" font-size="10.00">vector</text>
</a>
</g>
</g>
<!-- Node1&#45;&gt;Node15 -->
<g id="edge32_Node000001_Node000015" class="edge">
<title>Node1&#45;&gt;Node15</title>
<g id="a_edge32_Node000001_Node000015"><a xlink:title=" ">
<path fill="none" stroke="#63b8ff" d="M398.29,-443.88C569.67,-444.04 988.5,-432.25 988.5,-313 988.5,-313 988.5,-313 988.5,-118.5 988.5,-36.91 693.62,-16.39 592.24,-11.74"/>
<polygon fill="#63b8ff" stroke="#63b8ff" points="592.37,-8.25 582.23,-11.31 592.07,-15.24 592.37,-8.25"/>
</a>
</g>
</g>
<!-- Node25 -->
<g id="Node000025" class="node">
<title>Node25</title>
<g id="a_Node000025"><a xlink:title=" ">
<polygon fill="#e0e0e0" stroke="#999999" points="400.5,-321.5 352.5,-321.5 352.5,-302.5 400.5,-302.5 400.5,-321.5"/>
<text text-anchor="middle" x="376.5" y="-309.5" font-family="FreeSans" font-size="10.00">iosfwd</text>
</a>
</g>
</g>
<!-- Node1&#45;&gt;Node25 -->
<g id="edge31_Node000001_Node000025" class="edge">
<title>Node1&#45;&gt;Node25</title>
<g id="a_edge31_Node000001_Node000025"><a xlink:title=" ">
<path fill="none" stroke="#63b8ff" d="M337.03,-428.8C343.75,-419.14 352.17,-405.83 357.5,-393 365.87,-372.87 371.02,-348.28 373.81,-331.72"/>
<polygon fill="#63b8ff" stroke="#63b8ff" points="377.29,-332.11 375.37,-321.69 370.37,-331.03 377.29,-332.11"/>
</a>
</g>
</g>
<!-- Node2&#45;&gt;Node3 -->
<g id="edge2_Node000002_Node000003" class="edge">
<title>Node2&#45;&gt;Node3</title>
<g id="a_edge2_Node000002_Node000003"><a xlink:title=" ">
<path fill="none" stroke="#63b8ff" d="M231.51,-362.95C200.54,-353.28 159.2,-340.38 126.3,-330.11"/>
<polygon fill="#63b8ff" stroke="#63b8ff" points="126.97,-326.65 116.38,-327.01 124.89,-333.33 126.97,-326.65"/>
</a>
</g>
</g>
<!-- Node4 -->
<g id="Node000004" class="node">
<title>Node4</title>
<g id="a_Node000004"><a xlink:href="eigen_8h.html" target="_top" xlink:title=" ">
<polygon fill="white" stroke="#666666" points="334.5,-327 218.5,-327 218.5,-297 334.5,-297 334.5,-327"/>
<text text-anchor="start" x="226.5" y="-315" font-family="FreeSans" font-size="10.00">mpqc/math/external</text>
<text text-anchor="middle" x="276.5" y="-304" font-family="FreeSans" font-size="10.00">/eigen/eigen.h</text>
</a>
</g>
</g>
<!-- Node2&#45;&gt;Node4 -->
<g id="edge3_Node000002_Node000004" class="edge">
<title>Node2&#45;&gt;Node4</title>
<g id="a_edge3_Node000002_Node000004"><a xlink:title=" ">
<path fill="none" stroke="#63b8ff" d="M276.5,-362.8C276.5,-355.34 276.5,-345.99 276.5,-337.41"/>
<polygon fill="#63b8ff" stroke="#63b8ff" points="280,-337.16 276.5,-327.16 273,-337.16 280,-337.16"/>
</a>
</g>
</g>
<!-- Node12 -->
<g id="Node000012" class="node">
<title>Node12</title>
<g id="a_Node000012"><a xlink:href="memory.html" target="_top" xlink:title=" ">
<polygon fill="white" stroke="#666666" points="190.5,-74 132.5,-74 132.5,-55 190.5,-55 190.5,-74"/>
<text text-anchor="middle" x="161.5" y="-62" font-family="FreeSans" font-size="10.00">memory</text>
</a>
</g>
</g>
<!-- Node2&#45;&gt;Node12 -->
<g id="edge29_Node000002_Node000012" class="edge">
<title>Node2&#45;&gt;Node12</title>
<g id="a_edge29_Node000002_Node000012"><a xlink:title=" ">
<path fill="none" stroke="#63b8ff" d="M252.16,-362.98C238.29,-354.06 221.37,-341.48 209.5,-327 184.55,-296.56 171.5,-286.36 171.5,-247 171.5,-247 171.5,-247 171.5,-179 171.5,-145.48 167.12,-106.6 164.16,-84.15"/>
<polygon fill="#63b8ff" stroke="#63b8ff" points="167.59,-83.45 162.77,-74.02 160.66,-84.4 167.59,-83.45"/>
</a>
</g>
</g>
<!-- Node2&#45;&gt;Node25 -->
<g id="edge28_Node000002_Node000025" class="edge">
<title>Node2&#45;&gt;Node25</title>
<g id="a_edge28_Node000002_Node000025"><a xlink:title=" ">
<path fill="none" stroke="#63b8ff" d="M298.69,-362.8C315.3,-352.17 337.9,-337.7 354.47,-327.1"/>
<polygon fill="#63b8ff" stroke="#63b8ff" points="356.44,-330 362.97,-321.66 352.66,-324.1 356.44,-330"/>
</a>
</g>
</g>
<!-- Node5 -->
<g id="Node000005" class="node">
<title>Node5</title>
<g id="a_Node000005"><a xlink:title=" ">
<polygon fill="#e0e0e0" stroke="#999999" points="785.5,-255.5 683.5,-255.5 683.5,-236.5 785.5,-236.5 785.5,-255.5"/>
<text text-anchor="middle" x="734.5" y="-243.5" font-family="FreeSans" font-size="10.00">madness/config.h</text>
</a>
</g>
</g>
<!-- Node4&#45;&gt;Node5 -->
<g id="edge4_Node000004_Node000005" class="edge">
<title>Node4&#45;&gt;Node5</title>
<g id="a_edge4_Node000004_Node000005"><a xlink:title=" ">
<path fill="none" stroke="#63b8ff" d="M334.54,-298.51C337.57,-297.97 340.57,-297.46 343.5,-297 489.65,-273.84 528.62,-285.86 674.5,-261 679.9,-260.08 685.55,-258.97 691.12,-257.77"/>
<polygon fill="#63b8ff" stroke="#63b8ff" points="692.01,-261.16 701.01,-255.57 690.49,-254.33 692.01,-261.16"/>
</a>
</g>
</g>
<!-- Node6 -->
<g id="Node000006" class="node">
<title>Node6</title>
<g id="a_Node000006"><a xlink:href="complex_8h.html" target="_top" xlink:title=" ">
<polygon fill="white" stroke="#666666" points="665.5,-255.5 515.5,-255.5 515.5,-236.5 665.5,-236.5 665.5,-255.5"/>
<text text-anchor="middle" x="590.5" y="-243.5" font-family="FreeSans" font-size="10.00">mpqc/math/core/complex.h</text>
</a>
</g>
</g>
<!-- Node4&#45;&gt;Node6 -->
<g id="edge5_Node000004_Node000006" class="edge">
<title>Node4&#45;&gt;Node6</title>
<g id="a_edge5_Node000004_Node000006"><a xlink:title=" ">
<path fill="none" stroke="#63b8ff" d="M334.6,-298.84C337.61,-298.21 340.59,-297.6 343.5,-297 410.65,-283.19 488.15,-267.55 538.16,-257.5"/>
<polygon fill="#63b8ff" stroke="#63b8ff" points="538.97,-260.9 548.09,-255.5 537.59,-254.04 538.97,-260.9"/>
</a>
</g>
</g>
<!-- Node8 -->
<g id="Node000008" class="node">
<title>Node8</title>
<g id="a_Node000008"><a xlink:title=" ">
<polygon fill="#e0e0e0" stroke="#999999" points="317,-129 200,-129 200,-110 317,-110 317,-129"/>
<text text-anchor="middle" x="258.5" y="-117" font-family="FreeSans" font-size="10.00">mpqc/mpqc_config.h</text>
</a>
</g>
</g>
<!-- Node4&#45;&gt;Node8 -->
<g id="edge24_Node000004_Node000008" class="edge">
<title>Node4&#45;&gt;Node8</title>
<g id="a_edge24_Node000004_Node000008"><a xlink:title=" ">
<path fill="none" stroke="#63b8ff" d="M257.21,-296.63C246.87,-287.68 235.12,-275.18 229.5,-261 212.74,-218.7 234.66,-165.23 248.6,-138.07"/>
<polygon fill="#63b8ff" stroke="#63b8ff" points="251.81,-139.49 253.45,-129.03 245.64,-136.18 251.81,-139.49"/>
</a>
</g>
</g>
<!-- Node23 -->
<g id="Node000023" class="node">
<title>Node23</title>
<g id="a_Node000023"><a xlink:href="math_2external_2eigen_2fwd_8h.html" target="_top" xlink:title=" ">
<polygon fill="white" stroke="#666666" points="449.5,-261 333.5,-261 333.5,-231 449.5,-231 449.5,-261"/>
<text text-anchor="start" x="341.5" y="-249" font-family="FreeSans" font-size="10.00">mpqc/math/external</text>
<text text-anchor="middle" x="391.5" y="-238" font-family="FreeSans" font-size="10.00">/eigen/fwd.h</text>
</a>
</g>
</g>
<!-- Node4&#45;&gt;Node23 -->
<g id="edge25_Node000004_Node000023" class="edge">
<title>Node4&#45;&gt;Node23</title>
<g id="a_edge25_Node000004_Node000023"><a xlink:title=" ">
<path fill="none" stroke="#63b8ff" d="M301.74,-296.95C318.07,-287.87 339.52,-275.93 357.37,-266"/>
<polygon fill="#63b8ff" stroke="#63b8ff" points="359.29,-268.93 366.32,-261.01 355.88,-262.82 359.29,-268.93"/>
</a>
</g>
</g>
<!-- Node24 -->
<g id="Node000024" class="node">
<title>Node24</title>
<g id="a_Node000024"><a xlink:title=" ">
<polygon fill="#e0e0e0" stroke="#999999" points="315,-255.5 238,-255.5 238,-236.5 315,-236.5 315,-255.5"/>
<text text-anchor="middle" x="276.5" y="-243.5" font-family="FreeSans" font-size="10.00">Eigen/Dense</text>
</a>
</g>
</g>
<!-- Node4&#45;&gt;Node24 -->
<g id="edge27_Node000004_Node000024" class="edge">
<title>Node4&#45;&gt;Node24</title>
<g id="a_edge27_Node000004_Node000024"><a xlink:title=" ">
<path fill="none" stroke="#63b8ff" d="M276.5,-296.8C276.5,-287.7 276.5,-275.79 276.5,-265.9"/>
<polygon fill="#63b8ff" stroke="#63b8ff" points="280,-265.84 276.5,-255.84 273,-265.84 280,-265.84"/>
</a>
</g>
</g>
<!-- Node7 -->
<g id="Node000007" class="node">
<title>Node7</title>
<g id="a_Node000007"><a xlink:href="assert_8h.html" target="_top" xlink:title=" ">
<polygon fill="white" stroke="#666666" points="407,-189.5 276,-189.5 276,-170.5 407,-170.5 407,-189.5"/>
<text text-anchor="middle" x="341.5" y="-177.5" font-family="FreeSans" font-size="10.00">mpqc/util/misc/assert.h</text>
</a>
</g>
</g>
<!-- Node6&#45;&gt;Node7 -->
<g id="edge6_Node000006_Node000007" class="edge">
<title>Node6&#45;&gt;Node7</title>
<g id="a_edge6_Node000006_Node000007"><a xlink:title=" ">
<path fill="none" stroke="#63b8ff" d="M557.18,-236.44C512.64,-224.99 433.64,-204.68 384.61,-192.08"/>
<polygon fill="#63b8ff" stroke="#63b8ff" points="385.18,-188.61 374.63,-189.51 383.44,-195.39 385.18,-188.61"/>
</a>
</g>
</g>
<!-- Node18 -->
<g id="Node000018" class="node">
<title>Node18</title>
<g id="a_Node000018"><a xlink:title=" ">
<polygon fill="#e0e0e0" stroke="#999999" points="960,-189.5 891,-189.5 891,-170.5 960,-170.5 960,-189.5"/>
<text text-anchor="middle" x="925.5" y="-177.5" font-family="FreeSans" font-size="10.00">Eigen/Core</text>
</a>
</g>
</g>
<!-- Node6&#45;&gt;Node18 -->
<g id="edge19_Node000006_Node000018" class="edge">
<title>Node6&#45;&gt;Node18</title>
<g id="a_edge19_Node000006_Node000018"><a xlink:title=" ">
<path fill="none" stroke="#63b8ff" d="M641.45,-236.47C722.01,-222.96 870.89,-197.87 882.5,-195 885.45,-194.27 888.5,-193.44 891.54,-192.56"/>
<polygon fill="#63b8ff" stroke="#63b8ff" points="892.59,-195.9 901.12,-189.62 890.53,-189.21 892.59,-195.9"/>
</a>
</g>
</g>
<!-- Node19 -->
<g id="Node000019" class="node">
<title>Node19</title>
<g id="a_Node000019"><a xlink:title=" ">
<polygon fill="#e0e0e0" stroke="#999999" points="547.5,-195 425.5,-195 425.5,-165 547.5,-165 547.5,-195"/>
<text text-anchor="start" x="433.5" y="-183" font-family="FreeSans" font-size="10.00">boost/container/small</text>
<text text-anchor="middle" x="486.5" y="-172" font-family="FreeSans" font-size="10.00">_vector.hpp</text>
</a>
</g>
</g>
<!-- Node6&#45;&gt;Node19 -->
<g id="edge20_Node000006_Node000019" class="edge">
<title>Node6&#45;&gt;Node19</title>
<g id="a_edge20_Node000006_Node000019"><a xlink:title=" ">
<path fill="none" stroke="#63b8ff" d="M576.47,-236.37C561.57,-227.2 537.51,-212.39 518.02,-200.4"/>
<polygon fill="#63b8ff" stroke="#63b8ff" points="519.79,-197.38 509.44,-195.12 516.12,-203.34 519.79,-197.38"/>
</a>
</g>
</g>
<!-- Node20 -->
<g id="Node000020" class="node">
<title>Node20</title>
<g id="a_Node000020"><a xlink:title=" ">
<polygon fill="#e0e0e0" stroke="#999999" points="709,-195 566,-195 566,-165 709,-165 709,-195"/>
<text text-anchor="start" x="574" y="-183" font-family="FreeSans" font-size="10.00">boost/numeric/conversion</text>
<text text-anchor="middle" x="637.5" y="-172" font-family="FreeSans" font-size="10.00">/cast.hpp</text>
</a>
</g>
</g>
<!-- Node6&#45;&gt;Node20 -->
<g id="edge21_Node000006_Node000020" class="edge">
<title>Node6&#45;&gt;Node20</title>
<g id="a_edge21_Node000006_Node000020"><a xlink:title=" ">
<path fill="none" stroke="#63b8ff" d="M596.84,-236.37C602.99,-227.99 612.59,-214.93 620.91,-203.59"/>
<polygon fill="#63b8ff" stroke="#63b8ff" points="623.86,-205.49 626.95,-195.36 618.21,-201.35 623.86,-205.49"/>
</a>
</g>
</g>
<!-- Node21 -->
<g id="Node000021" class="node">
<title>Node21</title>
<g id="a_Node000021"><a xlink:title=" ">
<polygon fill="#e0e0e0" stroke="#999999" points="786,-189.5 727,-189.5 727,-170.5 786,-170.5 786,-189.5"/>
<text text-anchor="middle" x="756.5" y="-177.5" font-family="FreeSans" font-size="10.00">complex</text>
</a>
</g>
</g>
<!-- Node6&#45;&gt;Node21 -->
<g id="edge22_Node000006_Node000021" class="edge">
<title>Node6&#45;&gt;Node21</title>
<g id="a_edge22_Node000006_Node000021"><a xlink:title=" ">
<path fill="none" stroke="#63b8ff" d="M612.89,-236.37C641.68,-225.27 691.87,-205.92 724.64,-193.28"/>
<polygon fill="#63b8ff" stroke="#63b8ff" points="726.13,-196.46 734.2,-189.6 723.61,-189.93 726.13,-196.46"/>
</a>
</g>
</g>
<!-- Node22 -->
<g id="Node000022" class="node">
<title>Node22</title>
<g id="a_Node000022"><a xlink:title=" ">
<polygon fill="#e0e0e0" stroke="#999999" points="873,-189.5 804,-189.5 804,-170.5 873,-170.5 873,-189.5"/>
<text text-anchor="middle" x="838.5" y="-177.5" font-family="FreeSans" font-size="10.00">type_traits</text>
</a>
</g>
</g>
<!-- Node6&#45;&gt;Node22 -->
<g id="edge23_Node000006_Node000022" class="edge">
<title>Node6&#45;&gt;Node22</title>
<g id="a_edge23_Node000006_Node000022"><a xlink:title=" ">
<path fill="none" stroke="#63b8ff" d="M629.27,-236.46C670.66,-227.13 738.06,-211.33 795.5,-195 798.1,-194.26 800.78,-193.47 803.47,-192.65"/>
<polygon fill="#63b8ff" stroke="#63b8ff" points="804.64,-195.95 813.13,-189.61 802.54,-189.27 804.64,-195.95"/>
</a>
</g>
</g>
<!-- Node7&#45;&gt;Node8 -->
<g id="edge7_Node000007_Node000008" class="edge">
<title>Node7&#45;&gt;Node8</title>
<g id="a_edge7_Node000007_Node000008"><a xlink:title=" ">
<path fill="none" stroke="#63b8ff" d="M329.25,-170.37C316.14,-161.12 295.08,-146.28 279.35,-135.19"/>
<polygon fill="#63b8ff" stroke="#63b8ff" points="280.99,-132.07 270.8,-129.17 276.95,-137.79 280.99,-132.07"/>
</a>
</g>
</g>
<!-- Node9 -->
<g id="Node000009" class="node">
<title>Node9</title>
<g id="a_Node000009"><a xlink:title=" ">
<polygon fill="#e0e0e0" stroke="#999999" points="556.5,-129 504.5,-129 504.5,-110 556.5,-110 556.5,-129"/>
<text text-anchor="middle" x="530.5" y="-117" font-family="FreeSans" font-size="10.00">cassert</text>
</a>
</g>
</g>
<!-- Node7&#45;&gt;Node9 -->
<g id="edge8_Node000007_Node000009" class="edge">
<title>Node7&#45;&gt;Node9</title>
<g id="a_edge8_Node000007_Node000009"><a xlink:title=" ">
<path fill="none" stroke="#63b8ff" d="M368.98,-170.49C402.11,-160.24 457.88,-142.98 494.44,-131.66"/>
<polygon fill="#63b8ff" stroke="#63b8ff" points="495.69,-134.94 504.2,-128.64 493.62,-128.25 495.69,-134.94"/>
</a>
</g>
</g>
<!-- Node10 -->
<g id="Node000010" class="node">
<title>Node10</title>
<g id="a_Node000010"><a xlink:href="exception_8h.html" target="_top" xlink:title=" ">
<polygon fill="white" stroke="#666666" points="486.5,-129 340.5,-129 340.5,-110 486.5,-110 486.5,-129"/>
<text text-anchor="middle" x="413.5" y="-117" font-family="FreeSans" font-size="10.00">mpqc/util/core/exception.h</text>
</a>
</g>
</g>
<!-- Node7&#45;&gt;Node10 -->
<g id="edge9_Node000007_Node000010" class="edge">
<title>Node7&#45;&gt;Node10</title>
<g id="a_edge9_Node000007_Node000010"><a xlink:title=" ">
<path fill="none" stroke="#63b8ff" d="M352.12,-170.37C363.4,-161.21 381.42,-146.56 395.03,-135.51"/>
<polygon fill="#63b8ff" stroke="#63b8ff" points="397.28,-138.19 402.83,-129.17 392.86,-132.76 397.28,-138.19"/>
</a>
</g>
</g>
<!-- Node11 -->
<g id="Node000011" class="node">
<title>Node11</title>
<g id="a_Node000011"><a xlink:title=" ">
<polygon fill="#e0e0e0" stroke="#999999" points="640,-74 587,-74 587,-55 640,-55 640,-74"/>
<text text-anchor="middle" x="613.5" y="-62" font-family="FreeSans" font-size="10.00">string.h</text>
</a>
</g>
</g>
<!-- Node10&#45;&gt;Node11 -->
<g id="edge10_Node000010_Node000011" class="edge">
<title>Node10&#45;&gt;Node11</title>
<g id="a_edge10_Node000010_Node000011"><a xlink:title=" ">
<path fill="none" stroke="#63b8ff" d="M445.63,-109.98C481.46,-100.49 539.3,-85.16 576.86,-75.21"/>
<polygon fill="#63b8ff" stroke="#63b8ff" points="578.12,-78.5 586.89,-72.55 576.32,-71.73 578.12,-78.5"/>
</a>
</g>
</g>
<!-- Node10&#45;&gt;Node12 -->
<g id="edge11_Node000010_Node000012" class="edge">
<title>Node10&#45;&gt;Node12</title>
<g id="a_edge11_Node000010_Node000012"><a xlink:title=" ">
<path fill="none" stroke="#63b8ff" d="M373.01,-109.98C325.67,-100.03 247.84,-83.66 200.95,-73.8"/>
<polygon fill="#63b8ff" stroke="#63b8ff" points="201.37,-70.31 190.87,-71.68 199.93,-77.16 201.37,-70.31"/>
</a>
</g>
</g>
<!-- Node13 -->
<g id="Node000013" class="node">
<title>Node13</title>
<g id="a_Node000013"><a xlink:title=" ">
<polygon fill="#e0e0e0" stroke="#999999" points="446.5,-74 390.5,-74 390.5,-55 446.5,-55 446.5,-74"/>
<text text-anchor="middle" x="418.5" y="-62" font-family="FreeSans" font-size="10.00">sstream</text>
</a>
</g>
</g>
<!-- Node10&#45;&gt;Node13 -->
<g id="edge13_Node000010_Node000013" class="edge">
<title>Node10&#45;&gt;Node13</title>
<g id="a_edge13_Node000010_Node000013"><a xlink:title=" ">
<path fill="none" stroke="#63b8ff" d="M414.33,-109.75C414.98,-102.8 415.92,-92.85 416.74,-84.13"/>
<polygon fill="#63b8ff" stroke="#63b8ff" points="420.23,-84.37 417.69,-74.09 413.27,-83.72 420.23,-84.37"/>
</a>
</g>
</g>
<!-- Node14 -->
<g id="Node000014" class="node">
<title>Node14</title>
<g id="a_Node000014"><a xlink:title=" ">
<polygon fill="#e0e0e0" stroke="#999999" points="530,-74 465,-74 465,-55 530,-55 530,-74"/>
<text text-anchor="middle" x="497.5" y="-62" font-family="FreeSans" font-size="10.00">stdexcept</text>
</a>
</g>
</g>
<!-- Node10&#45;&gt;Node14 -->
<g id="edge14_Node000010_Node000014" class="edge">
<title>Node10&#45;&gt;Node14</title>
<g id="a_edge14_Node000010_Node000014"><a xlink:title=" ">
<path fill="none" stroke="#63b8ff" d="M427,-109.98C439.9,-101.84 459.6,-89.41 474.9,-79.76"/>
<polygon fill="#63b8ff" stroke="#63b8ff" points="477.17,-82.47 483.76,-74.17 473.43,-76.55 477.17,-82.47"/>
</a>
</g>
</g>
<!-- Node10&#45;&gt;Node15 -->
<g id="edge15_Node000010_Node000015" class="edge">
<title>Node10&#45;&gt;Node15</title>
<g id="a_edge15_Node000010_Node000015"><a xlink:title=" ">
<path fill="none" stroke="#63b8ff" d="M471.24,-109.96C495.22,-103.68 521.58,-92.82 539.5,-74 551.02,-61.9 555.59,-43.1 557.38,-29.09"/>
<polygon fill="#63b8ff" stroke="#63b8ff" points="560.87,-29.38 558.3,-19.11 553.9,-28.74 560.87,-29.38"/>
</a>
</g>
</g>
<!-- Node16 -->
<g id="Node000016" class="node">
<title>Node16</title>
<g id="a_Node000016"><a xlink:href="backtrace_8h.html" target="_top" xlink:title=" ">
<polygon fill="white" stroke="#666666" points="372.5,-74 226.5,-74 226.5,-55 372.5,-55 372.5,-74"/>
<text text-anchor="middle" x="299.5" y="-62" font-family="FreeSans" font-size="10.00">mpqc/util/core/backtrace.h</text>
</a>
</g>
</g>
<!-- Node10&#45;&gt;Node16 -->
<g id="edge16_Node000010_Node000016" class="edge">
<title>Node10&#45;&gt;Node16</title>
<g id="a_edge16_Node000010_Node000016"><a xlink:title=" ">
<path fill="none" stroke="#63b8ff" d="M395.18,-109.98C376.84,-101.46 348.39,-88.23 327.27,-78.41"/>
<polygon fill="#63b8ff" stroke="#63b8ff" points="328.69,-75.21 318.15,-74.17 325.74,-81.56 328.69,-75.21"/>
</a>
</g>
</g>
<!-- Node12&#45;&gt;Node12 -->
<g id="edge12_Node000012_Node000012" class="edge">
<title>Node12&#45;&gt;Node12</title>
<g id="a_edge12_Node000012_Node000012"><a xlink:title=" ">
<path fill="none" stroke="#63b8ff" d="M183.74,-74.07C196.56,-76.02 208.5,-72.83 208.5,-64.5 208.5,-58.45 202.2,-55.11 193.84,-54.48"/>
<polygon fill="#63b8ff" stroke="#63b8ff" points="193.58,-50.99 183.74,-54.93 193.89,-57.98 193.58,-50.99"/>
</a>
</g>
</g>
<!-- Node16&#45;&gt;Node15 -->
<g id="edge18_Node000016_Node000015" class="edge">
<title>Node16&#45;&gt;Node15</title>
<g id="a_edge18_Node000016_Node000015"><a xlink:title=" ">
<path fill="none" stroke="#63b8ff" d="M341.11,-54.98C392.16,-44.54 477.71,-27.03 524.83,-17.39"/>
<polygon fill="#63b8ff" stroke="#63b8ff" points="525.73,-20.78 534.83,-15.34 524.33,-13.92 525.73,-20.78"/>
</a>
</g>
</g>
<!-- Node17 -->
<g id="Node000017" class="node">
<title>Node17</title>
<g id="a_Node000017"><a xlink:title=" ">
<polygon fill="#e0e0e0" stroke="#999999" points="321.5,-19 277.5,-19 277.5,0 321.5,0 321.5,-19"/>
<text text-anchor="middle" x="299.5" y="-7" font-family="FreeSans" font-size="10.00">string</text>
</a>
</g>
</g>
<!-- Node16&#45;&gt;Node17 -->
<g id="edge17_Node000016_Node000017" class="edge">
<title>Node16&#45;&gt;Node17</title>
<g id="a_edge17_Node000016_Node000017"><a xlink:title=" ">
<path fill="none" stroke="#63b8ff" d="M299.5,-54.75C299.5,-47.8 299.5,-37.85 299.5,-29.13"/>
<polygon fill="#63b8ff" stroke="#63b8ff" points="303,-29.09 299.5,-19.09 296,-29.09 303,-29.09"/>
</a>
</g>
</g>
<!-- Node23&#45;&gt;Node8 -->
<g id="edge26_Node000023_Node000008" class="edge">
<title>Node23&#45;&gt;Node8</title>
<g id="a_edge26_Node000023_Node000008"><a xlink:title=" ">
<path fill="none" stroke="#63b8ff" d="M342.63,-230.92C312.26,-221.15 277.21,-207.67 267.5,-195 255.4,-179.2 254.53,-155.73 255.8,-139.37"/>
<polygon fill="#63b8ff" stroke="#63b8ff" points="259.29,-139.69 256.91,-129.36 252.33,-138.92 259.29,-139.69"/>
</a>
</g>
</g>
</g>
</svg>
