<?xml version="1.0" encoding="UTF-8" standalone="no"?>
<!DOCTYPE svg PUBLIC "-//W3C//DTD SVG 1.1//EN"
 "http://www.w3.org/Graphics/SVG/1.1/DTD/svg11.dtd">
<!-- Generated by graphviz version 2.43.0 (0)
 -->
<!-- Title: mpqc/chemistry/molecule/clustering_functions.h Pages: 1 -->
<svg width="473pt" height="104pt"
 viewBox="0.00 0.00 473.00 104.00" xmlns="http://www.w3.org/2000/svg" xmlns:xlink="http://www.w3.org/1999/xlink">

<svg id="main" version="1.1" xmlns="http://www.w3.org/2000/svg" xmlns:xlink="http://www.w3.org/1999/xlink" xml:space="preserve" onload="init(evt)">
<style type="text/css"><![CDATA[
.node, .edge {opacity: 0.7;}
.node.selected, .edge.selected {opacity: 1;}
.edge:hover path { stroke: red; }
.edge:hover polygon { stroke: red; fill: red; }
]]></style>
<script type="application/ecmascript" xlink:href="svg.min.js"/>
<svg id="graph" class="graph">
<g id="graph0" class="graph" transform="scale(1 1) rotate(0) translate(4 100)">
<title>mpqc/chemistry/molecule/clustering_functions.h</title>
<!-- Node1 -->
<g id="Node000001" class="node">
<title>Node1</title>
<g id="a_Node000001"><a xlink:title=" ">
<polygon fill="#999999" stroke="#666666" points="304,-96 161,-96 161,-66 304,-66 304,-96"/>
<text text-anchor="start" x="169" y="-84" font-family="FreeSans" font-size="10.00">mpqc/chemistry/molecule</text>
<text text-anchor="middle" x="232.5" y="-73" font-family="FreeSans" font-size="10.00">/clustering_functions.h</text>
</a>
</g>
</g>
<!-- Node2 -->
<g id="Node000002" class="node">
<title>Node2</title>
<g id="a_Node000002"><a xlink:href="clustering__functions_8cpp.html" target="_top" xlink:title=" ">
<polygon fill="white" stroke="#666666" points="143,-30 0,-30 0,0 143,0 143,-30"/>
<text text-anchor="start" x="8" y="-18" font-family="FreeSans" font-size="10.00">mpqc/chemistry/molecule</text>
<text text-anchor="middle" x="71.5" y="-7" font-family="FreeSans" font-size="10.00">/clustering_functions.cpp</text>
</a>
</g>
</g>
<!-- Node1&#45;&gt;Node2 -->
<g id="edge1_Node000001_Node000002" class="edge">
<title>Node1&#45;&gt;Node2</title>
<g id="a_edge1_Node000001_Node000002"><a xlink:title=" ">
<path fill="none" stroke="#63b8ff" d="M187.69,-62.19C162.13,-52.02 130.53,-39.47 106.75,-30.01"/>
<polygon fill="#63b8ff" stroke="#63b8ff" points="186.58,-65.51 197.17,-65.95 189.17,-59.01 186.58,-65.51"/>
</a>
</g>
</g>
<!-- Node3 -->
<g id="Node000003" class="node">
<title>Node3</title>
<g id="a_Node000003"><a xlink:href="unit__cell_8cpp.html" target="_top" xlink:title=" ">
<polygon fill="white" stroke="#666666" points="304,-30 161,-30 161,0 304,0 304,-30"/>
<text text-anchor="start" x="169" y="-18" font-family="FreeSans" font-size="10.00">mpqc/chemistry/molecule</text>
<text text-anchor="middle" x="232.5" y="-7" font-family="FreeSans" font-size="10.00">/lattice/unit_cell.cpp</text>
</a>
</g>
</g>
<!-- Node1&#45;&gt;Node3 -->
<g id="edge2_Node000001_Node000003" class="edge">
<title>Node1&#45;&gt;Node3</title>
<g id="a_edge2_Node000001_Node000003"><a xlink:title=" ">
<path fill="none" stroke="#63b8ff" d="M232.5,-55.54C232.5,-46.96 232.5,-37.61 232.5,-30.16"/>
<polygon fill="#63b8ff" stroke="#63b8ff" points="229,-55.8 232.5,-65.8 236,-55.8 229,-55.8"/>
</a>
</g>
</g>
<!-- Node4 -->
<g id="Node000004" class="node">
<title>Node4</title>
<g id="a_Node000004"><a xlink:href="molecule_8cpp.html" target="_top" xlink:title=" ">
<polygon fill="white" stroke="#666666" points="465,-30 322,-30 322,0 465,0 465,-30"/>
<text text-anchor="start" x="330" y="-18" font-family="FreeSans" font-size="10.00">mpqc/chemistry/molecule</text>
<text text-anchor="middle" x="393.5" y="-7" font-family="FreeSans" font-size="10.00">/molecule.cpp</text>
</a>
</g>
</g>
<!-- Node1&#45;&gt;Node4 -->
<g id="edge3_Node000001_Node000004" class="edge">
<title>Node1&#45;&gt;Node4</title>
<g id="a_edge3_Node000001_Node000004"><a xlink:title=" ">
<path fill="none" stroke="#63b8ff" d="M277.31,-62.19C302.87,-52.02 334.47,-39.47 358.25,-30.01"/>
<polygon fill="#63b8ff" stroke="#63b8ff" points="275.83,-59.01 267.83,-65.95 278.42,-65.51 275.83,-59.01"/>
</a>
</g>
</g>
</g>
</svg>
</svg>

<style type='text/css'>
<![CDATA[
[data-mouse-over-selected='false'] { opacity: 0.7; }
[data-mouse-over-selected='true']  { opacity: 1.0; }
]]>
</style>
<script type="application/ecmascript"><![CDATA[
document.addEventListener('DOMContentLoaded', (event) => {
  highlightEdges();
  highlightAdjacentNodes();
});
]]></script>
</svg>
