<?xml version="1.0" encoding="UTF-8" standalone="no"?>
<!DOCTYPE svg PUBLIC "-//W3C//DTD SVG 1.1//EN"
 "http://www.w3.org/Graphics/SVG/1.1/DTD/svg11.dtd">
<!-- Generated by graphviz version 2.43.0 (0)
 -->
<!-- Title: mpqc/math/mra/context.h Pages: 1 -->
<!--zoomable 401 -->

<svg id="main" version="1.1" xmlns="http://www.w3.org/2000/svg" xmlns:xlink="http://www.w3.org/1999/xlink" xml:space="preserve" onload="init(evt)">
<style type="text/css"><![CDATA[
.node, .edge {opacity: 0.7;}
.node.selected, .edge.selected {opacity: 1;}
.edge:hover path { stroke: red; }
.edge:hover polygon { stroke: red; fill: red; }
]]></style>

<defs>
  <circle id="rim" cx="0" cy="0" r="7"/>
  <circle id="rim2" cx="0" cy="0" r="3.5"/>
  <g id="zoomPlus">
    <use xlink:href="#rim" fill="#404040"><set attributeName="fill" to="#808080" begin="zoomplus.mouseover" end="zoomplus.mouseout"/></use>
    <path d="M-4,0h8M0,-4v8" fill="none" stroke="white" stroke-width="1.5" pointer-events="none"/>
  </g>
  <g id="zoomMin">
    <use xlink:href="#rim" fill="#404040"><set attributeName="fill" to="#808080" begin="zoomminus.mouseover" end="zoomminus.mouseout"/></use>
    <path d="M-4,0h8" fill="none" stroke="white" stroke-width="1.5" pointer-events="none"/>
  </g>
  <g id="arrowUp" transform="translate(30 24)">
    <use xlink:href="#rim"/>
    <path pointer-events="none" fill="none" stroke="white" stroke-width="1.5" d="M0,-3.0v7 M-2.5,-0.5L0,-3.0L2.5,-0.5"/>
  </g>
  <g id="arrowRight" transform="rotate(90) translate(36 -43)">
    <use xlink:href="#rim"/>
    <path pointer-events="none" fill="none" stroke="white" stroke-width="1.5" d="M0,-3.0v7 M-2.5,-0.5L0,-3.0L2.5,-0.5"/>
  </g>
  <g id="arrowDown" transform="rotate(180) translate(-30 -48)">
    <use xlink:href="#rim"/>
    <path pointer-events="none" fill="none" stroke="white" stroke-width="1.5" d="M0,-3.0v7 M-2.5,-0.5L0,-3.0L2.5,-0.5"/>
  </g>
  <g id="arrowLeft" transform="rotate(270) translate(-36 17)">
    <use xlink:href="#rim"/>
    <path pointer-events="none" fill="none" stroke="white" stroke-width="1.5" d="M0,-3.0v7 M-2.5,-0.5L0,-3.0L2.5,-0.5"/>
  </g>
  <g id="resetDef">
    <use xlink:href="#rim2" fill="#404040"><set attributeName="fill" to="#808080" begin="reset.mouseover" end="reset.mouseout"/></use>
  </g>
</defs>
<script type="application/ecmascript">
var viewWidth = 2577;
var viewHeight = 401;
var sectionId = 'dynsection-0';
</script>
<script type="application/ecmascript" xlink:href="svg.min.js"/>
<svg id="graph" class="graph">
<g id="viewport">
<title>mpqc/math/mra/context.h</title>
<!-- Node1 -->
<g id="Node000001" class="node">
<title>Node1</title>
<g id="a_Node000001"><a xlink:title=" ">
<polygon fill="#999999" stroke="#666666" points="2322.5,-393 2179.5,-393 2179.5,-374 2322.5,-374 2322.5,-393"/>
<text text-anchor="middle" x="2251" y="-381" font-family="FreeSans" font-size="10.00">mpqc/math/mra/context.h</text>
</a>
</g>
</g>
<!-- Node2 -->
<g id="Node000002" class="node">
<title>Node2</title>
<g id="a_Node000002"><a xlink:href="math_2mra_2fwd_8h.html" target="_top" xlink:title=" ">
<polygon fill="white" stroke="#666666" points="829,-338 705,-338 705,-319 829,-319 829,-338"/>
<text text-anchor="middle" x="767" y="-326" font-family="FreeSans" font-size="10.00">mpqc/math/mra/fwd.h</text>
</a>
</g>
</g>
<!-- Node1&#45;&gt;Node2 -->
<g id="edge1_Node000001_Node000002" class="edge">
<title>Node1&#45;&gt;Node2</title>
<g id="a_edge1_Node000001_Node000002"><a xlink:title=" ">
<path fill="none" stroke="#63b8ff" d="M2179.2,-382.46C1972.68,-381.87 1359.19,-376.78 839.64,-338.05"/>
<polygon fill="#63b8ff" stroke="#63b8ff" points="839.54,-334.53 829.31,-337.27 839.02,-341.51 839.54,-334.53"/>
</a>
</g>
</g>
<!-- Node3 -->
<g id="Node000003" class="node">
<title>Node3</title>
<g id="a_Node000003"><a xlink:href="src_2mpqc_2util_2keyval_2keyval_8h.html" target="_top" xlink:title=" ">
<polygon fill="white" stroke="#666666" points="989,-338 847,-338 847,-319 989,-319 989,-338"/>
<text text-anchor="middle" x="918" y="-326" font-family="FreeSans" font-size="10.00">mpqc/util/keyval/keyval.h</text>
</a>
</g>
</g>
<!-- Node1&#45;&gt;Node3 -->
<g id="edge2_Node000001_Node000003" class="edge">
<title>Node1&#45;&gt;Node3</title>
<g id="a_edge2_Node000001_Node000003"><a xlink:title=" ">
<path fill="none" stroke="#63b8ff" d="M2179.33,-379.65C1950.89,-370.57 1240.78,-342.33 999.32,-332.73"/>
<polygon fill="#63b8ff" stroke="#63b8ff" points="999.34,-329.23 989.21,-332.33 999.06,-336.23 999.34,-329.23"/>
</a>
</g>
</g>
<!-- Node4 -->
<g id="Node000004" class="node">
<title>Node4</title>
<g id="a_Node000004"><a xlink:title=" ">
<polygon fill="#e0e0e0" stroke="#999999" points="2253,-79.5 2211,-79.5 2211,-60.5 2253,-60.5 2253,-79.5"/>
<text text-anchor="middle" x="2232" y="-67.5" font-family="FreeSans" font-size="10.00">array</text>
</a>
</g>
</g>
<!-- Node1&#45;&gt;Node4 -->
<g id="edge57_Node000001_Node000004" class="edge">
<title>Node1&#45;&gt;Node4</title>
<g id="a_edge57_Node000001_Node000004"><a xlink:title=" ">
<path fill="none" stroke="#63b8ff" d="M2251,-373.96C2251,-355.05 2251,-308.21 2251,-269 2251,-269 2251,-269 2251,-201 2251,-161.04 2242.1,-114.9 2236.49,-89.75"/>
<polygon fill="#63b8ff" stroke="#63b8ff" points="2239.84,-88.72 2234.18,-79.76 2233.02,-90.29 2239.84,-88.72"/>
</a>
</g>
</g>
<!-- Node43 -->
<g id="Node000043" class="node">
<title>Node43</title>
<g id="a_Node000043"><a xlink:title=" ">
<polygon fill="#e0e0e0" stroke="#999999" points="2394.5,-338 2279.5,-338 2279.5,-319 2394.5,-319 2394.5,-338"/>
<text text-anchor="middle" x="2337" y="-326" font-family="FreeSans" font-size="10.00">madness/mra/mra.h</text>
</a>
</g>
</g>
<!-- Node1&#45;&gt;Node43 -->
<g id="edge55_Node000001_Node000043" class="edge">
<title>Node1&#45;&gt;Node43</title>
<g id="a_edge55_Node000001_Node000043"><a xlink:title=" ">
<path fill="none" stroke="#63b8ff" d="M2264.82,-373.98C2278.15,-365.77 2298.58,-353.18 2314.31,-343.49"/>
<polygon fill="#63b8ff" stroke="#63b8ff" points="2316.25,-346.4 2322.93,-338.17 2312.58,-340.44 2316.25,-346.4"/>
</a>
</g>
</g>
<!-- Node44 -->
<g id="Node000044" class="node">
<title>Node44</title>
<g id="a_Node000044"><a xlink:title=" ">
<polygon fill="#e0e0e0" stroke="#999999" points="2569,-338 2413,-338 2413,-319 2569,-319 2569,-338"/>
<text text-anchor="middle" x="2491" y="-326" font-family="FreeSans" font-size="10.00">madness/mra/funcdefaults.h</text>
</a>
</g>
</g>
<!-- Node1&#45;&gt;Node44 -->
<g id="edge56_Node000001_Node000044" class="edge">
<title>Node1&#45;&gt;Node44</title>
<g id="a_edge56_Node000001_Node000044"><a xlink:title=" ">
<path fill="none" stroke="#63b8ff" d="M2289.56,-373.98C2331.07,-364.82 2397.21,-350.21 2442.29,-340.26"/>
<polygon fill="#63b8ff" stroke="#63b8ff" points="2443.13,-343.66 2452.14,-338.08 2441.62,-336.82 2443.13,-343.66"/>
</a>
</g>
</g>
<!-- Node3&#45;&gt;Node4 -->
<g id="edge3_Node000003_Node000004" class="edge">
<title>Node3&#45;&gt;Node4</title>
<g id="a_edge3_Node000003_Node000004"><a xlink:title=" ">
<path fill="none" stroke="#63b8ff" d="M989.17,-327.47C1251.05,-327.03 2148.25,-322.65 2194,-283 2222.97,-257.89 2229.91,-136.95 2231.53,-89.84"/>
<polygon fill="#63b8ff" stroke="#63b8ff" points="2235.03,-89.89 2231.83,-79.79 2228.03,-89.68 2235.03,-89.89"/>
</a>
</g>
</g>
<!-- Node5 -->
<g id="Node000005" class="node">
<title>Node5</title>
<g id="a_Node000005"><a xlink:title=" ">
<polygon fill="#e0e0e0" stroke="#999999" points="52,-277.5 0,-277.5 0,-258.5 52,-258.5 52,-277.5"/>
<text text-anchor="middle" x="26" y="-265.5" font-family="FreeSans" font-size="10.00">cassert</text>
</a>
</g>
</g>
<!-- Node3&#45;&gt;Node5 -->
<g id="edge4_Node000003_Node000005" class="edge">
<title>Node3&#45;&gt;Node5</title>
<g id="a_edge4_Node000003_Node000005"><a xlink:title=" ">
<path fill="none" stroke="#63b8ff" d="M846.92,-319.73C843.91,-319.47 840.92,-319.22 838,-319 665.65,-305.86 229.93,-319.61 61,-283 58.63,-282.49 56.2,-281.83 53.8,-281.07"/>
<polygon fill="#63b8ff" stroke="#63b8ff" points="54.76,-277.7 44.16,-277.6 52.38,-284.28 54.76,-277.7"/>
</a>
</g>
</g>
<!-- Node6 -->
<g id="Node000006" class="node">
<title>Node6</title>
<g id="a_Node000006"><a xlink:title=" ">
<polygon fill="#e0e0e0" stroke="#999999" points="129.5,-277.5 70.5,-277.5 70.5,-258.5 129.5,-258.5 129.5,-277.5"/>
<text text-anchor="middle" x="100" y="-265.5" font-family="FreeSans" font-size="10.00">complex</text>
</a>
</g>
</g>
<!-- Node3&#45;&gt;Node6 -->
<g id="edge5_Node000003_Node000006" class="edge">
<title>Node3&#45;&gt;Node6</title>
<g id="a_edge5_Node000003_Node000006"><a xlink:title=" ">
<path fill="none" stroke="#63b8ff" d="M846.92,-319.75C843.91,-319.48 840.92,-319.23 838,-319 530.1,-294.67 447.87,-338.28 144,-283 140.31,-282.33 136.51,-281.44 132.74,-280.43"/>
<polygon fill="#63b8ff" stroke="#63b8ff" points="133.59,-277.03 123.01,-277.54 131.6,-283.74 133.59,-277.03"/>
</a>
</g>
</g>
<!-- Node7 -->
<g id="Node000007" class="node">
<title>Node7</title>
<g id="a_Node000007"><a xlink:title=" ">
<polygon fill="#e0e0e0" stroke="#999999" points="258,-211.5 198,-211.5 198,-192.5 258,-192.5 258,-211.5"/>
<text text-anchor="middle" x="228" y="-199.5" font-family="FreeSans" font-size="10.00">iostream</text>
</a>
</g>
</g>
<!-- Node3&#45;&gt;Node7 -->
<g id="edge6_Node000003_Node000007" class="edge">
<title>Node3&#45;&gt;Node7</title>
<g id="a_edge6_Node000003_Node000007"><a xlink:title=" ">
<path fill="none" stroke="#63b8ff" d="M846.91,-319.82C843.9,-319.53 840.92,-319.26 838,-319 725.49,-309.03 436.48,-323.38 331,-283 328.57,-282.07 276.44,-241.16 247.3,-218.22"/>
<polygon fill="#63b8ff" stroke="#63b8ff" points="249.09,-215.17 239.07,-211.73 244.76,-220.67 249.09,-215.17"/>
</a>
</g>
</g>
<!-- Node8 -->
<g id="Node000008" class="node">
<title>Node8</title>
<g id="a_Node000008"><a xlink:title=" ">
<polygon fill="#e0e0e0" stroke="#999999" points="218,-277.5 186,-277.5 186,-258.5 218,-258.5 218,-277.5"/>
<text text-anchor="middle" x="202" y="-265.5" font-family="FreeSans" font-size="10.00">list</text>
</a>
</g>
</g>
<!-- Node3&#45;&gt;Node8 -->
<g id="edge7_Node000003_Node000008" class="edge">
<title>Node3&#45;&gt;Node8</title>
<g id="a_edge7_Node000003_Node000008"><a xlink:title=" ">
<path fill="none" stroke="#63b8ff" d="M846.92,-319.77C843.91,-319.5 840.92,-319.24 838,-319 702.45,-307.81 357.54,-321.2 227,-283 225.95,-282.69 224.9,-282.33 223.85,-281.94"/>
<polygon fill="#63b8ff" stroke="#63b8ff" points="225.27,-278.74 214.74,-277.59 222.25,-285.06 225.27,-278.74"/>
</a>
</g>
</g>
<!-- Node9 -->
<g id="Node000009" class="node">
<title>Node9</title>
<g id="a_Node000009"><a xlink:title=" ">
<polygon fill="#e0e0e0" stroke="#999999" points="282,-277.5 236,-277.5 236,-258.5 282,-258.5 282,-277.5"/>
<text text-anchor="middle" x="259" y="-265.5" font-family="FreeSans" font-size="10.00">locale</text>
</a>
</g>
</g>
<!-- Node3&#45;&gt;Node9 -->
<g id="edge8_Node000003_Node000009" class="edge">
<title>Node3&#45;&gt;Node9</title>
<g id="a_edge8_Node000003_Node000009"><a xlink:title=" ">
<path fill="none" stroke="#63b8ff" d="M846.91,-319.8C843.9,-319.52 840.92,-319.25 838,-319 597.47,-298.24 531.91,-334.28 296,-283 293.32,-282.42 290.58,-281.68 287.86,-280.84"/>
<polygon fill="#63b8ff" stroke="#63b8ff" points="288.85,-277.48 278.26,-277.52 286.56,-284.1 288.85,-277.48"/>
</a>
</g>
</g>
<!-- Node10 -->
<g id="Node000010" class="node">
<title>Node10</title>
<g id="a_Node000010"><a xlink:title=" ">
<polygon fill="#e0e0e0" stroke="#999999" points="261,-145.5 223,-145.5 223,-126.5 261,-126.5 261,-145.5"/>
<text text-anchor="middle" x="242" y="-133.5" font-family="FreeSans" font-size="10.00">map</text>
</a>
</g>
</g>
<!-- Node3&#45;&gt;Node10 -->
<g id="edge9_Node000003_Node000010" class="edge">
<title>Node3&#45;&gt;Node10</title>
<g id="a_edge9_Node000003_Node000010"><a xlink:title=" ">
<path fill="none" stroke="#63b8ff" d="M846.92,-319.76C843.91,-319.49 840.92,-319.23 838,-319 801.34,-316.06 202.29,-309.7 177,-283 163.29,-268.52 176.73,-209.62 189,-187 196.6,-173 209.54,-160.68 220.74,-151.77"/>
<polygon fill="#63b8ff" stroke="#63b8ff" points="222.97,-154.47 228.84,-145.65 218.75,-148.88 222.97,-154.47"/>
</a>
</g>
</g>
<!-- Node11 -->
<g id="Node000011" class="node">
<title>Node11</title>
<g id="a_Node000011"><a xlink:href="memory.html" target="_top" xlink:title=" ">
<polygon fill="white" stroke="#666666" points="575,-145.5 517,-145.5 517,-126.5 575,-126.5 575,-145.5"/>
<text text-anchor="middle" x="546" y="-133.5" font-family="FreeSans" font-size="10.00">memory</text>
</a>
</g>
</g>
<!-- Node3&#45;&gt;Node11 -->
<g id="edge10_Node000003_Node000011" class="edge">
<title>Node3&#45;&gt;Node11</title>
<g id="a_edge10_Node000003_Node000011"><a xlink:title=" ">
<path fill="none" stroke="#63b8ff" d="M861.3,-318.99C799.81,-309.31 708.68,-293.5 696,-283 660.52,-253.64 688.95,-220.17 657,-187 637.5,-166.76 608.3,-154.05 584.74,-146.52"/>
<polygon fill="#63b8ff" stroke="#63b8ff" points="585.62,-143.12 575.04,-143.6 583.61,-149.83 585.62,-143.12"/>
</a>
</g>
</g>
<!-- Node12 -->
<g id="Node000012" class="node">
<title>Node12</title>
<g id="a_Node000012"><a xlink:title=" ">
<polygon fill="#e0e0e0" stroke="#999999" points="332,-211.5 276,-211.5 276,-192.5 332,-192.5 332,-211.5"/>
<text text-anchor="middle" x="304" y="-199.5" font-family="FreeSans" font-size="10.00">optional</text>
</a>
</g>
</g>
<!-- Node3&#45;&gt;Node12 -->
<g id="edge12_Node000003_Node000012" class="edge">
<title>Node3&#45;&gt;Node12</title>
<g id="a_edge12_Node000003_Node000012"><a xlink:title=" ">
<path fill="none" stroke="#63b8ff" d="M846.91,-319.84C843.9,-319.55 840.92,-319.27 838,-319 733.46,-309.45 459.62,-332.4 367,-283 341.22,-269.25 322.46,-239.9 312.41,-220.83"/>
<polygon fill="#63b8ff" stroke="#63b8ff" points="315.45,-219.08 307.85,-211.7 309.19,-222.21 315.45,-219.08"/>
</a>
</g>
</g>
<!-- Node13 -->
<g id="Node000013" class="node">
<title>Node13</title>
<g id="a_Node000013"><a xlink:title=" ">
<polygon fill="#e0e0e0" stroke="#999999" points="586.5,-277.5 521.5,-277.5 521.5,-258.5 586.5,-258.5 586.5,-277.5"/>
<text text-anchor="middle" x="554" y="-265.5" font-family="FreeSans" font-size="10.00">stdexcept</text>
</a>
</g>
</g>
<!-- Node3&#45;&gt;Node13 -->
<g id="edge13_Node000003_Node000013" class="edge">
<title>Node3&#45;&gt;Node13</title>
<g id="a_edge13_Node000003_Node000013"><a xlink:title=" ">
<path fill="none" stroke="#63b8ff" d="M846.73,-319.21C766.78,-309.63 642.23,-293.8 596,-283 593.03,-282.31 589.97,-281.49 586.92,-280.61"/>
<polygon fill="#63b8ff" stroke="#63b8ff" points="587.92,-277.25 577.33,-277.62 585.84,-283.94 587.92,-277.25"/>
</a>
</g>
</g>
<!-- Node14 -->
<g id="Node000014" class="node">
<title>Node14</title>
<g id="a_Node000014"><a xlink:title=" ">
<polygon fill="#e0e0e0" stroke="#999999" points="649,-277.5 605,-277.5 605,-258.5 649,-258.5 649,-277.5"/>
<text text-anchor="middle" x="627" y="-265.5" font-family="FreeSans" font-size="10.00">string</text>
</a>
</g>
</g>
<!-- Node3&#45;&gt;Node14 -->
<g id="edge14_Node000003_Node000014" class="edge">
<title>Node3&#45;&gt;Node14</title>
<g id="a_edge14_Node000003_Node000014"><a xlink:title=" ">
<path fill="none" stroke="#63b8ff" d="M847.08,-318.97C795.45,-311.83 724.15,-300.04 663,-283 660.85,-282.4 658.65,-281.72 656.44,-280.99"/>
<polygon fill="#63b8ff" stroke="#63b8ff" points="657.54,-277.66 646.94,-277.56 655.17,-284.25 657.54,-277.66"/>
</a>
</g>
</g>
<!-- Node15 -->
<g id="Node000015" class="node">
<title>Node15</title>
<g id="a_Node000015"><a xlink:title=" ">
<polygon fill="#e0e0e0" stroke="#999999" points="924.5,-211.5 877.5,-211.5 877.5,-192.5 924.5,-192.5 924.5,-211.5"/>
<text text-anchor="middle" x="901" y="-199.5" font-family="FreeSans" font-size="10.00">vector</text>
</a>
</g>
</g>
<!-- Node3&#45;&gt;Node15 -->
<g id="edge15_Node000003_Node000015" class="edge">
<title>Node3&#45;&gt;Node15</title>
<g id="a_edge15_Node000003_Node000015"><a xlink:title=" ">
<path fill="none" stroke="#63b8ff" d="M911.11,-318.93C904.73,-310.4 895.69,-296.65 892,-283 886.42,-262.39 890.7,-237.9 895.07,-221.49"/>
<polygon fill="#63b8ff" stroke="#63b8ff" points="898.52,-222.15 897.98,-211.57 891.8,-220.18 898.52,-222.15"/>
</a>
</g>
</g>
<!-- Node16 -->
<g id="Node000016" class="node">
<title>Node16</title>
<g id="a_Node000016"><a xlink:title=" ">
<polygon fill="#e0e0e0" stroke="#999999" points="845,-277.5 705,-277.5 705,-258.5 845,-258.5 845,-277.5"/>
<text text-anchor="middle" x="775" y="-265.5" font-family="FreeSans" font-size="10.00">boost/core/demangle.hpp</text>
</a>
</g>
</g>
<!-- Node3&#45;&gt;Node16 -->
<g id="edge16_Node000003_Node000016" class="edge">
<title>Node3&#45;&gt;Node16</title>
<g id="a_edge16_Node000003_Node000016"><a xlink:title=" ">
<path fill="none" stroke="#63b8ff" d="M897.21,-318.99C873.06,-309.12 833.02,-292.73 805.38,-281.43"/>
<polygon fill="#63b8ff" stroke="#63b8ff" points="806.4,-278.06 795.82,-277.52 803.75,-284.54 806.4,-278.06"/>
</a>
</g>
</g>
<!-- Node17 -->
<g id="Node000017" class="node">
<title>Node17</title>
<g id="a_Node000017"><a xlink:title=" ">
<polygon fill="#e0e0e0" stroke="#999999" points="831.5,-79.5 714.5,-79.5 714.5,-60.5 831.5,-60.5 831.5,-79.5"/>
<text text-anchor="middle" x="773" y="-67.5" font-family="FreeSans" font-size="10.00">mpqc/mpqc_config.h</text>
</a>
</g>
</g>
<!-- Node3&#45;&gt;Node17 -->
<g id="edge17_Node000003_Node000017" class="edge">
<title>Node3&#45;&gt;Node17</title>
<g id="a_edge17_Node000003_Node000017"><a xlink:title=" ">
<path fill="none" stroke="#63b8ff" d="M989.24,-325.96C1174.28,-321.62 1657.47,-307.94 1681,-283 1690.15,-273.3 1689.45,-263.31 1681,-253 1574.32,-122.81 1034.75,-83.84 841.76,-73.96"/>
<polygon fill="#63b8ff" stroke="#63b8ff" points="841.9,-70.46 831.74,-73.45 841.55,-77.45 841.9,-70.46"/>
</a>
</g>
</g>
<!-- Node18 -->
<g id="Node000018" class="node">
<title>Node18</title>
<g id="a_Node000018"><a xlink:title=" ">
<polygon fill="#e0e0e0" stroke="#999999" points="1023,-283 901,-283 901,-253 1023,-253 1023,-283"/>
<text text-anchor="start" x="909" y="-271" font-family="FreeSans" font-size="10.00">boost/container/small</text>
<text text-anchor="middle" x="962" y="-260" font-family="FreeSans" font-size="10.00">_vector.hpp</text>
</a>
</g>
</g>
<!-- Node3&#45;&gt;Node18 -->
<g id="edge18_Node000003_Node000018" class="edge">
<title>Node3&#45;&gt;Node18</title>
<g id="a_edge18_Node000003_Node000018"><a xlink:title=" ">
<path fill="none" stroke="#63b8ff" d="M924.49,-318.87C929.97,-311.59 938.04,-300.85 945.3,-291.2"/>
<polygon fill="#63b8ff" stroke="#63b8ff" points="948.17,-293.21 951.38,-283.11 942.58,-289 948.17,-293.21"/>
</a>
</g>
</g>
<!-- Node19 -->
<g id="Node000019" class="node">
<title>Node19</title>
<g id="a_Node000019"><a xlink:title=" ">
<polygon fill="#e0e0e0" stroke="#999999" points="1154.5,-283 1041.5,-283 1041.5,-253 1154.5,-253 1154.5,-283"/>
<text text-anchor="start" x="1049.5" y="-271" font-family="FreeSans" font-size="10.00">boost/property_tree</text>
<text text-anchor="middle" x="1098" y="-260" font-family="FreeSans" font-size="10.00">/info_parser.hpp</text>
</a>
</g>
</g>
<!-- Node3&#45;&gt;Node19 -->
<g id="edge19_Node000003_Node000019" class="edge">
<title>Node3&#45;&gt;Node19</title>
<g id="a_edge19_Node000003_Node000019"><a xlink:title=" ">
<path fill="none" stroke="#63b8ff" d="M944.17,-318.99C970.53,-310.43 1011.93,-296.97 1045.15,-286.18"/>
<polygon fill="#63b8ff" stroke="#63b8ff" points="1046.3,-289.48 1054.73,-283.06 1044.13,-282.83 1046.3,-289.48"/>
</a>
</g>
</g>
<!-- Node20 -->
<g id="Node000020" class="node">
<title>Node20</title>
<g id="a_Node000020"><a xlink:title=" ">
<polygon fill="#e0e0e0" stroke="#999999" points="1285.5,-283 1172.5,-283 1172.5,-253 1285.5,-253 1285.5,-283"/>
<text text-anchor="start" x="1180.5" y="-271" font-family="FreeSans" font-size="10.00">boost/property_tree</text>
<text text-anchor="middle" x="1229" y="-260" font-family="FreeSans" font-size="10.00">/json_parser.hpp</text>
</a>
</g>
</g>
<!-- Node3&#45;&gt;Node20 -->
<g id="edge20_Node000003_Node000020" class="edge">
<title>Node3&#45;&gt;Node20</title>
<g id="a_edge20_Node000003_Node000020"><a xlink:title=" ">
<path fill="none" stroke="#63b8ff" d="M967.35,-318.97C1014.76,-310.69 1088.66,-297.51 1162.55,-283.05"/>
<polygon fill="#63b8ff" stroke="#63b8ff" points="1163.36,-286.46 1172.5,-281.1 1162.01,-279.59 1163.36,-286.46"/>
</a>
</g>
</g>
<!-- Node21 -->
<g id="Node000021" class="node">
<title>Node21</title>
<g id="a_Node000021"><a xlink:title=" ">
<polygon fill="#e0e0e0" stroke="#999999" points="1416.5,-283 1303.5,-283 1303.5,-253 1416.5,-253 1416.5,-283"/>
<text text-anchor="start" x="1311.5" y="-271" font-family="FreeSans" font-size="10.00">boost/property_tree</text>
<text text-anchor="middle" x="1360" y="-260" font-family="FreeSans" font-size="10.00">/ptree.hpp</text>
</a>
</g>
</g>
<!-- Node3&#45;&gt;Node21 -->
<g id="edge21_Node000003_Node000021" class="edge">
<title>Node3&#45;&gt;Node21</title>
<g id="a_edge21_Node000003_Node000021"><a xlink:title=" ">
<path fill="none" stroke="#63b8ff" d="M989.31,-321.02C1062.91,-313.88 1181.26,-301.18 1293.08,-283.05"/>
<polygon fill="#63b8ff" stroke="#63b8ff" points="1293.88,-286.47 1303.18,-281.4 1292.75,-279.56 1293.88,-286.47"/>
</a>
</g>
</g>
<!-- Node22 -->
<g id="Node000022" class="node">
<title>Node22</title>
<g id="a_Node000022"><a xlink:title=" ">
<polygon fill="#e0e0e0" stroke="#999999" points="1547.5,-283 1434.5,-283 1434.5,-253 1547.5,-253 1547.5,-283"/>
<text text-anchor="start" x="1442.5" y="-271" font-family="FreeSans" font-size="10.00">boost/property_tree</text>
<text text-anchor="middle" x="1491" y="-260" font-family="FreeSans" font-size="10.00">/xml_parser.hpp</text>
</a>
</g>
</g>
<!-- Node3&#45;&gt;Node22 -->
<g id="edge22_Node000003_Node000022" class="edge">
<title>Node3&#45;&gt;Node22</title>
<g id="a_edge22_Node000003_Node000022"><a xlink:title=" ">
<path fill="none" stroke="#63b8ff" d="M989.27,-323.98C1085.67,-318.61 1263.07,-306.58 1424.11,-283"/>
<polygon fill="#63b8ff" stroke="#63b8ff" points="1424.82,-286.44 1434.2,-281.51 1423.79,-279.51 1424.82,-286.44"/>
</a>
</g>
</g>
<!-- Node23 -->
<g id="Node000023" class="node">
<title>Node23</title>
<g id="a_Node000023"><a xlink:title=" ">
<polygon fill="#e0e0e0" stroke="#999999" points="1672.5,-283 1565.5,-283 1565.5,-253 1672.5,-253 1672.5,-283"/>
<text text-anchor="start" x="1573.5" y="-271" font-family="FreeSans" font-size="10.00">boost/serialization</text>
<text text-anchor="middle" x="1619" y="-260" font-family="FreeSans" font-size="10.00">/export.hpp</text>
</a>
</g>
</g>
<!-- Node3&#45;&gt;Node23 -->
<g id="edge23_Node000003_Node000023" class="edge">
<title>Node3&#45;&gt;Node23</title>
<g id="a_edge23_Node000003_Node000023"><a xlink:title=" ">
<path fill="none" stroke="#63b8ff" d="M989.18,-325.99C1105.59,-322.77 1344.02,-312.98 1555.44,-282.91"/>
<polygon fill="#63b8ff" stroke="#63b8ff" points="1556.09,-286.35 1565.48,-281.46 1555.09,-279.42 1556.09,-286.35"/>
</a>
</g>
</g>
<!-- Node24 -->
<g id="Node000024" class="node">
<title>Node24</title>
<g id="a_Node000024"><a xlink:href="exenv_8h.html" target="_top" xlink:title=" ">
<polygon fill="white" stroke="#666666" points="503.5,-277.5 376.5,-277.5 376.5,-258.5 503.5,-258.5 503.5,-277.5"/>
<text text-anchor="middle" x="440" y="-265.5" font-family="FreeSans" font-size="10.00">mpqc/util/core/exenv.h</text>
</a>
</g>
</g>
<!-- Node3&#45;&gt;Node24 -->
<g id="edge24_Node000003_Node000024" class="edge">
<title>Node3&#45;&gt;Node24</title>
<g id="a_edge24_Node000003_Node000024"><a xlink:title=" ">
<path fill="none" stroke="#63b8ff" d="M846.74,-319.84C734.68,-307.78 528.28,-285.47 512,-283 505.15,-281.96 497.96,-280.73 490.88,-279.44"/>
<polygon fill="#63b8ff" stroke="#63b8ff" points="491.12,-275.92 480.64,-277.51 489.82,-282.8 491.12,-275.92"/>
</a>
</g>
</g>
<!-- Node33 -->
<g id="Node000033" class="node">
<title>Node33</title>
<g id="a_Node000033"><a xlink:href="util_2keyval_2fwd_8h.html" target="_top" xlink:title=" ">
<polygon fill="white" stroke="#666666" points="1856.5,-277.5 1729.5,-277.5 1729.5,-258.5 1856.5,-258.5 1856.5,-277.5"/>
<text text-anchor="middle" x="1793" y="-265.5" font-family="FreeSans" font-size="10.00">mpqc/util/keyval/fwd.h</text>
</a>
</g>
</g>
<!-- Node3&#45;&gt;Node33 -->
<g id="edge42_Node000003_Node000033" class="edge">
<title>Node3&#45;&gt;Node33</title>
<g id="a_edge42_Node000003_Node000033"><a xlink:title=" ">
<path fill="none" stroke="#63b8ff" d="M989.15,-326.43C1128.78,-323.69 1448.32,-314.26 1715,-283 1723.35,-282.02 1732.15,-280.71 1740.72,-279.29"/>
<polygon fill="#63b8ff" stroke="#63b8ff" points="1741.38,-282.73 1750.63,-277.57 1740.18,-275.83 1741.38,-282.73"/>
</a>
</g>
</g>
<!-- Node34 -->
<g id="Node000034" class="node">
<title>Node34</title>
<g id="a_Node000034"><a xlink:href="predicates_8h.html" target="_top" xlink:title=" ">
<polygon fill="white" stroke="#666666" points="2029,-277.5 1875,-277.5 1875,-258.5 2029,-258.5 2029,-277.5"/>
<text text-anchor="middle" x="1952" y="-265.5" font-family="FreeSans" font-size="10.00">mpqc/util/meta/predicates.h</text>
</a>
</g>
</g>
<!-- Node3&#45;&gt;Node34 -->
<g id="edge43_Node000003_Node000034" class="edge">
<title>Node3&#45;&gt;Node34</title>
<g id="a_edge43_Node000003_Node000034"><a xlink:title=" ">
<path fill="none" stroke="#63b8ff" d="M989.27,-326.94C1147.45,-325.08 1539.69,-317.11 1866,-283 1875.6,-282 1885.76,-280.62 1895.61,-279.13"/>
<polygon fill="#63b8ff" stroke="#63b8ff" points="1896.38,-282.55 1905.71,-277.53 1895.29,-275.63 1896.38,-282.55"/>
</a>
</g>
</g>
<!-- Node41 -->
<g id="Node000041" class="node">
<title>Node41</title>
<g id="a_Node000041"><a xlink:href="stream_8h.html" target="_top" xlink:title=" ">
<polygon fill="white" stroke="#666666" points="2184.5,-277.5 2047.5,-277.5 2047.5,-258.5 2184.5,-258.5 2184.5,-277.5"/>
<text text-anchor="middle" x="2116" y="-265.5" font-family="FreeSans" font-size="10.00">mpqc/util/meta/stream.h</text>
</a>
</g>
</g>
<!-- Node3&#45;&gt;Node41 -->
<g id="edge53_Node000003_Node000041" class="edge">
<title>Node3&#45;&gt;Node41</title>
<g id="a_edge53_Node000003_Node000041"><a xlink:title=" ">
<path fill="none" stroke="#63b8ff" d="M989.01,-328.07C1166.47,-328.75 1643.36,-326.05 2038,-283 2046.55,-282.07 2055.58,-280.75 2064.34,-279.3"/>
<polygon fill="#63b8ff" stroke="#63b8ff" points="2065.2,-282.71 2074.46,-277.55 2064.01,-275.81 2065.2,-282.71"/>
</a>
</g>
</g>
<!-- Node11&#45;&gt;Node11 -->
<g id="edge11_Node000011_Node000011" class="edge">
<title>Node11&#45;&gt;Node11</title>
<g id="a_edge11_Node000011_Node000011"><a xlink:title=" ">
<path fill="none" stroke="#63b8ff" d="M560.92,-145.66C576.1,-151.34 593,-148.12 593,-136 593,-126.53 582.69,-122.5 570.93,-123.89"/>
<polygon fill="#63b8ff" stroke="#63b8ff" points="569.8,-120.57 560.92,-126.34 571.46,-127.37 569.8,-120.57"/>
</a>
</g>
</g>
<!-- Node24&#45;&gt;Node7 -->
<g id="edge37_Node000024_Node000007" class="edge">
<title>Node24&#45;&gt;Node7</title>
<g id="a_edge37_Node000024_Node000007"><a xlink:title=" ">
<path fill="none" stroke="#63b8ff" d="M408.25,-258.47C373.41,-248.97 315.93,-232.84 267,-217 264.89,-216.32 262.72,-215.59 260.53,-214.85"/>
<polygon fill="#63b8ff" stroke="#63b8ff" points="261.61,-211.52 251.01,-211.53 259.31,-218.13 261.61,-211.52"/>
</a>
</g>
</g>
<!-- Node24&#45;&gt;Node11 -->
<g id="edge38_Node000024_Node000011" class="edge">
<title>Node24&#45;&gt;Node11</title>
<g id="a_edge38_Node000024_Node000011"><a xlink:title=" ">
<path fill="none" stroke="#63b8ff" d="M449.72,-258.24C460.18,-248.61 477.06,-232.42 490,-217 507.12,-196.59 524.33,-171.09 535.06,-154.44"/>
<polygon fill="#63b8ff" stroke="#63b8ff" points="538.16,-156.08 540.58,-145.77 532.26,-152.32 538.16,-156.08"/>
</a>
</g>
</g>
<!-- Node24&#45;&gt;Node12 -->
<g id="edge39_Node000024_Node000012" class="edge">
<title>Node24&#45;&gt;Node12</title>
<g id="a_edge39_Node000024_Node000012"><a xlink:title=" ">
<path fill="none" stroke="#63b8ff" d="M421.66,-258.37C398.54,-247.49 358.59,-228.69 331.73,-216.05"/>
<polygon fill="#63b8ff" stroke="#63b8ff" points="333.02,-212.79 322.49,-211.7 330.04,-219.12 333.02,-212.79"/>
</a>
</g>
</g>
<!-- Node24&#45;&gt;Node15 -->
<g id="edge41_Node000024_Node000015" class="edge">
<title>Node24&#45;&gt;Node15</title>
<g id="a_edge41_Node000024_Node000015"><a xlink:title=" ">
<path fill="none" stroke="#63b8ff" d="M480.63,-258.44C490.84,-256.47 501.8,-254.51 512,-253 667.12,-230.01 710.23,-252.38 863,-217 865.67,-216.38 868.41,-215.63 871.13,-214.79"/>
<polygon fill="#63b8ff" stroke="#63b8ff" points="872.43,-218.05 880.78,-211.52 870.18,-211.42 872.43,-218.05"/>
</a>
</g>
</g>
<!-- Node24&#45;&gt;Node17 -->
<g id="edge28_Node000024_Node000017" class="edge">
<title>Node24&#45;&gt;Node17</title>
<g id="a_edge28_Node000024_Node000017"><a xlink:title=" ">
<path fill="none" stroke="#63b8ff" d="M481.02,-258.44C491.12,-256.49 501.93,-254.55 512,-253 582.29,-242.2 782.62,-270.04 830,-217 837.5,-208.6 843.96,-153.75 829,-121 822.24,-106.21 808.78,-93.97 796.74,-85.29"/>
<polygon fill="#63b8ff" stroke="#63b8ff" points="798.6,-82.32 788.35,-79.63 794.68,-88.12 798.6,-82.32"/>
</a>
</g>
</g>
<!-- Node25 -->
<g id="Node000025" class="node">
<title>Node25</title>
<g id="a_Node000025"><a xlink:href="math_2external_2tiledarray_2fwd_8h.html" target="_top" xlink:title=" ">
<polygon fill="white" stroke="#666666" points="821,-217 705,-217 705,-187 821,-187 821,-217"/>
<text text-anchor="start" x="713" y="-205" font-family="FreeSans" font-size="10.00">mpqc/math/external</text>
<text text-anchor="middle" x="763" y="-194" font-family="FreeSans" font-size="10.00">/tiledarray/fwd.h</text>
</a>
</g>
</g>
<!-- Node24&#45;&gt;Node25 -->
<g id="edge25_Node000024_Node000025" class="edge">
<title>Node24&#45;&gt;Node25</title>
<g id="a_edge25_Node000024_Node000025"><a xlink:title=" ">
<path fill="none" stroke="#63b8ff" d="M483.23,-258.44C537.4,-247.7 630.88,-229.18 694.75,-216.52"/>
<polygon fill="#63b8ff" stroke="#63b8ff" points="695.61,-219.92 704.74,-214.54 694.25,-213.05 695.61,-219.92"/>
</a>
</g>
</g>
<!-- Node27 -->
<g id="Node000027" class="node">
<title>Node27</title>
<g id="a_Node000027"><a xlink:href="formio_8h.html" target="_top" xlink:title=" ">
<polygon fill="white" stroke="#666666" points="481.5,-211.5 350.5,-211.5 350.5,-192.5 481.5,-192.5 481.5,-211.5"/>
<text text-anchor="middle" x="416" y="-199.5" font-family="FreeSans" font-size="10.00">mpqc/util/core/formio.h</text>
</a>
</g>
</g>
<!-- Node24&#45;&gt;Node27 -->
<g id="edge29_Node000024_Node000027" class="edge">
<title>Node24&#45;&gt;Node27</title>
<g id="a_edge29_Node000024_Node000027"><a xlink:title=" ">
<path fill="none" stroke="#63b8ff" d="M436.76,-258.37C433.24,-248.97 427.5,-233.67 422.95,-221.53"/>
<polygon fill="#63b8ff" stroke="#63b8ff" points="426.13,-220.04 419.34,-211.91 419.57,-222.5 426.13,-220.04"/>
</a>
</g>
</g>
<!-- Node31 -->
<g id="Node000031" class="node">
<title>Node31</title>
<g id="a_Node000031"><a xlink:title=" ">
<polygon fill="#e0e0e0" stroke="#999999" points="587.5,-211.5 538.5,-211.5 538.5,-192.5 587.5,-192.5 587.5,-211.5"/>
<text text-anchor="middle" x="563" y="-199.5" font-family="FreeSans" font-size="10.00">cstdlib</text>
</a>
</g>
</g>
<!-- Node24&#45;&gt;Node31 -->
<g id="edge36_Node000024_Node000031" class="edge">
<title>Node24&#45;&gt;Node31</title>
<g id="a_edge36_Node000024_Node000031"><a xlink:title=" ">
<path fill="none" stroke="#63b8ff" d="M456.59,-258.37C477.31,-247.59 513,-229.02 537.28,-216.38"/>
<polygon fill="#63b8ff" stroke="#63b8ff" points="539.03,-219.42 546.28,-211.7 535.8,-213.21 539.03,-219.42"/>
</a>
</g>
</g>
<!-- Node32 -->
<g id="Node000032" class="node">
<title>Node32</title>
<g id="a_Node000032"><a xlink:title=" ">
<polygon fill="#e0e0e0" stroke="#999999" points="648.5,-211.5 605.5,-211.5 605.5,-192.5 648.5,-192.5 648.5,-211.5"/>
<text text-anchor="middle" x="627" y="-199.5" font-family="FreeSans" font-size="10.00">stack</text>
</a>
</g>
</g>
<!-- Node24&#45;&gt;Node32 -->
<g id="edge40_Node000024_Node000032" class="edge">
<title>Node24&#45;&gt;Node32</title>
<g id="a_edge40_Node000024_Node000032"><a xlink:title=" ">
<path fill="none" stroke="#63b8ff" d="M470.26,-258.42C501.95,-249.17 553,-233.54 596,-217 597.18,-216.55 598.38,-216.07 599.58,-215.58"/>
<polygon fill="#63b8ff" stroke="#63b8ff" points="600.97,-218.79 608.79,-211.64 598.22,-212.36 600.97,-218.79"/>
</a>
</g>
</g>
<!-- Node25&#45;&gt;Node17 -->
<g id="edge26_Node000025_Node000017" class="edge">
<title>Node25&#45;&gt;Node17</title>
<g id="a_edge26_Node000025_Node000017"><a xlink:title=" ">
<path fill="none" stroke="#63b8ff" d="M743.71,-186.63C733.37,-177.68 721.62,-165.18 716,-151 711.09,-138.6 710.5,-133.15 716,-121 722.78,-106.04 736.48,-93.79 748.75,-85.16"/>
<polygon fill="#63b8ff" stroke="#63b8ff" points="750.88,-87.95 757.32,-79.53 747.04,-82.1 750.88,-87.95"/>
</a>
</g>
</g>
<!-- Node26 -->
<g id="Node000026" class="node">
<title>Node26</title>
<g id="a_Node000026"><a xlink:title=" ">
<polygon fill="#e0e0e0" stroke="#999999" points="820.5,-145.5 725.5,-145.5 725.5,-126.5 820.5,-126.5 820.5,-145.5"/>
<text text-anchor="middle" x="773" y="-133.5" font-family="FreeSans" font-size="10.00">tiledarray_fwd.h</text>
</a>
</g>
</g>
<!-- Node25&#45;&gt;Node26 -->
<g id="edge27_Node000025_Node000026" class="edge">
<title>Node25&#45;&gt;Node26</title>
<g id="a_edge27_Node000025_Node000026"><a xlink:title=" ">
<path fill="none" stroke="#63b8ff" d="M765.22,-186.8C766.64,-177.7 768.5,-165.79 770.05,-155.9"/>
<polygon fill="#63b8ff" stroke="#63b8ff" points="773.53,-156.26 771.62,-145.84 766.62,-155.18 773.53,-156.26"/>
</a>
</g>
</g>
<!-- Node27&#45;&gt;Node10 -->
<g id="edge31_Node000027_Node000010" class="edge">
<title>Node27&#45;&gt;Node10</title>
<g id="a_edge31_Node000027_Node000010"><a xlink:title=" ">
<path fill="none" stroke="#63b8ff" d="M392.53,-192.37C360.87,-180.72 304.53,-160 270.48,-147.48"/>
<polygon fill="#63b8ff" stroke="#63b8ff" points="271.69,-144.19 261.09,-144.02 269.27,-150.76 271.69,-144.19"/>
</a>
</g>
</g>
<!-- Node27&#45;&gt;Node11 -->
<g id="edge32_Node000027_Node000011" class="edge">
<title>Node27&#45;&gt;Node11</title>
<g id="a_edge32_Node000027_Node000011"><a xlink:title=" ">
<path fill="none" stroke="#63b8ff" d="M433.53,-192.37C455.53,-181.54 493.49,-162.85 519.15,-150.22"/>
<polygon fill="#63b8ff" stroke="#63b8ff" points="520.9,-153.26 528.33,-145.7 517.81,-146.98 520.9,-153.26"/>
</a>
</g>
</g>
<!-- Node28 -->
<g id="Node000028" class="node">
<title>Node28</title>
<g id="a_Node000028"><a xlink:title=" ">
<polygon fill="#e0e0e0" stroke="#999999" points="499,-145.5 451,-145.5 451,-126.5 499,-126.5 499,-145.5"/>
<text text-anchor="middle" x="475" y="-133.5" font-family="FreeSans" font-size="10.00">iosfwd</text>
</a>
</g>
</g>
<!-- Node27&#45;&gt;Node28 -->
<g id="edge30_Node000027_Node000028" class="edge">
<title>Node27&#45;&gt;Node28</title>
<g id="a_edge30_Node000027_Node000028"><a xlink:title=" ">
<path fill="none" stroke="#63b8ff" d="M423.96,-192.37C433.14,-182.4 448.46,-165.79 459.92,-153.36"/>
<polygon fill="#63b8ff" stroke="#63b8ff" points="462.59,-155.63 466.79,-145.91 457.44,-150.89 462.59,-155.63"/>
</a>
</g>
</g>
<!-- Node29 -->
<g id="Node000029" class="node">
<title>Node29</title>
<g id="a_Node000029"><a xlink:href="scope.html" target="_top" xlink:title=" ">
<polygon fill="white" stroke="#666666" points="433,-151 327,-151 327,-121 433,-121 433,-151"/>
<text text-anchor="start" x="335" y="-139" font-family="FreeSans" font-size="10.00">mpqc/util/external</text>
<text text-anchor="middle" x="380" y="-128" font-family="FreeSans" font-size="10.00">/c++/scope</text>
</a>
</g>
</g>
<!-- Node27&#45;&gt;Node29 -->
<g id="edge33_Node000027_Node000029" class="edge">
<title>Node27&#45;&gt;Node29</title>
<g id="a_edge33_Node000027_Node000029"><a xlink:title=" ">
<path fill="none" stroke="#63b8ff" d="M411.14,-192.37C406.53,-184.16 399.37,-171.44 393.08,-160.26"/>
<polygon fill="#63b8ff" stroke="#63b8ff" points="396.03,-158.36 388.08,-151.36 389.93,-161.79 396.03,-158.36"/>
</a>
</g>
</g>
<!-- Node29&#45;&gt;Node17 -->
<g id="edge34_Node000029_Node000017" class="edge">
<title>Node29&#45;&gt;Node17</title>
<g id="a_edge34_Node000029_Node000017"><a xlink:title=" ">
<path fill="none" stroke="#63b8ff" d="M433.05,-122.76C436.07,-122.14 439.07,-121.55 442,-121 532.32,-104 637.35,-88.93 704.46,-79.88"/>
<polygon fill="#63b8ff" stroke="#63b8ff" points="705.04,-83.34 714.49,-78.54 704.11,-76.4 705.04,-83.34"/>
</a>
</g>
</g>
<!-- Node30 -->
<g id="Node000030" class="node">
<title>Node30</title>
<g id="a_Node000030"><a xlink:title=" ">
<polygon fill="#e0e0e0" stroke="#999999" points="402.5,-79.5 357.5,-79.5 357.5,-60.5 402.5,-60.5 402.5,-79.5"/>
<text text-anchor="middle" x="380" y="-67.5" font-family="FreeSans" font-size="10.00">utility</text>
</a>
</g>
</g>
<!-- Node29&#45;&gt;Node30 -->
<g id="edge35_Node000029_Node000030" class="edge">
<title>Node29&#45;&gt;Node30</title>
<g id="a_edge35_Node000029_Node000030"><a xlink:title=" ">
<path fill="none" stroke="#63b8ff" d="M380,-120.8C380,-111.7 380,-99.79 380,-89.9"/>
<polygon fill="#63b8ff" stroke="#63b8ff" points="383.5,-89.84 380,-79.84 376.5,-89.84 383.5,-89.84"/>
</a>
</g>
</g>
<!-- Node35 -->
<g id="Node000035" class="node">
<title>Node35</title>
<g id="a_Node000035"><a xlink:href="get__type_8h.html" target="_top" xlink:title=" ">
<polygon fill="white" stroke="#666666" points="2007,-217 1897,-217 1897,-187 2007,-187 2007,-217"/>
<text text-anchor="start" x="1905" y="-205" font-family="FreeSans" font-size="10.00">mpqc/util/meta/get</text>
<text text-anchor="middle" x="1952" y="-194" font-family="FreeSans" font-size="10.00">_type.h</text>
</a>
</g>
</g>
<!-- Node34&#45;&gt;Node35 -->
<g id="edge44_Node000034_Node000035" class="edge">
<title>Node34&#45;&gt;Node35</title>
<g id="a_edge44_Node000034_Node000035"><a xlink:title=" ">
<path fill="none" stroke="#63b8ff" d="M1952,-258.37C1952,-250.49 1952,-238.45 1952,-227.6"/>
<polygon fill="#63b8ff" stroke="#63b8ff" points="1955.5,-227.36 1952,-217.36 1948.5,-227.36 1955.5,-227.36"/>
</a>
</g>
</g>
<!-- Node36 -->
<g id="Node000036" class="node">
<title>Node36</title>
<g id="a_Node000036"><a xlink:href="type__traits_8h.html" target="_top" xlink:title=" ">
<polygon fill="white" stroke="#666666" points="1991,-145.5 1913,-145.5 1913,-126.5 1991,-126.5 1991,-145.5"/>
<text text-anchor="middle" x="1952" y="-133.5" font-family="FreeSans" font-size="10.00">type_traits.h</text>
</a>
</g>
</g>
<!-- Node35&#45;&gt;Node36 -->
<g id="edge45_Node000035_Node000036" class="edge">
<title>Node35&#45;&gt;Node36</title>
<g id="a_edge45_Node000035_Node000036"><a xlink:title=" ">
<path fill="none" stroke="#63b8ff" d="M1952,-186.8C1952,-177.7 1952,-165.79 1952,-155.9"/>
<polygon fill="#63b8ff" stroke="#63b8ff" points="1955.5,-155.84 1952,-145.84 1948.5,-155.84 1955.5,-155.84"/>
</a>
</g>
</g>
<!-- Node36&#45;&gt;Node4 -->
<g id="edge46_Node000036_Node000004" class="edge">
<title>Node36&#45;&gt;Node4</title>
<g id="a_edge46_Node000036_Node000004"><a xlink:title=" ">
<path fill="none" stroke="#63b8ff" d="M1991.29,-130.11C2041.16,-123.23 2129.45,-108.8 2202,-85 2203.4,-84.54 2204.82,-84.03 2206.24,-83.49"/>
<polygon fill="#63b8ff" stroke="#63b8ff" points="2207.63,-86.7 2215.47,-79.57 2204.9,-80.26 2207.63,-86.7"/>
</a>
</g>
</g>
<!-- Node37 -->
<g id="Node000037" class="node">
<title>Node37</title>
<g id="a_Node000037"><a xlink:title=" ">
<polygon fill="#e0e0e0" stroke="#999999" points="1961,-19 1911,-19 1911,0 1961,0 1961,-19"/>
<text text-anchor="middle" x="1936" y="-7" font-family="FreeSans" font-size="10.00">atomic</text>
</a>
</g>
</g>
<!-- Node36&#45;&gt;Node37 -->
<g id="edge47_Node000036_Node000037" class="edge">
<title>Node36&#45;&gt;Node37</title>
<g id="a_edge47_Node000036_Node000037"><a xlink:title=" ">
<path fill="none" stroke="#63b8ff" d="M1912.74,-128.64C1887.29,-122.26 1855.99,-109.65 1840,-85 1832.74,-73.81 1832.82,-66.24 1840,-55 1853.4,-34.02 1879.52,-22.78 1901.14,-16.85"/>
<polygon fill="#63b8ff" stroke="#63b8ff" points="1902.13,-20.21 1911,-14.41 1900.45,-13.41 1902.13,-20.21"/>
</a>
</g>
</g>
<!-- Node38 -->
<g id="Node000038" class="node">
<title>Node38</title>
<g id="a_Node000038"><a xlink:title=" ">
<polygon fill="#e0e0e0" stroke="#999999" points="2192.5,-79.5 2123.5,-79.5 2123.5,-60.5 2192.5,-60.5 2192.5,-79.5"/>
<text text-anchor="middle" x="2158" y="-67.5" font-family="FreeSans" font-size="10.00">type_traits</text>
</a>
</g>
</g>
<!-- Node36&#45;&gt;Node38 -->
<g id="edge48_Node000036_Node000038" class="edge">
<title>Node36&#45;&gt;Node38</title>
<g id="a_edge48_Node000036_Node000038"><a xlink:title=" ">
<path fill="none" stroke="#63b8ff" d="M1979.83,-126.49C2012.12,-116.6 2066.95,-99.74 2114,-85 2116.41,-84.24 2118.89,-83.46 2121.39,-82.67"/>
<polygon fill="#63b8ff" stroke="#63b8ff" points="2122.54,-85.98 2131.02,-79.63 2120.43,-79.31 2122.54,-85.98"/>
</a>
</g>
</g>
<!-- Node39 -->
<g id="Node000039" class="node">
<title>Node39</title>
<g id="a_Node000039"><a xlink:href="atomic_8h.html" target="_top" xlink:title=" ">
<polygon fill="white" stroke="#666666" points="2105,-85 1999,-85 1999,-55 2105,-55 2105,-85"/>
<text text-anchor="start" x="2007" y="-73" font-family="FreeSans" font-size="10.00">mpqc/util/external</text>
<text text-anchor="middle" x="2052" y="-62" font-family="FreeSans" font-size="10.00">/c++/atomic.h</text>
</a>
</g>
</g>
<!-- Node36&#45;&gt;Node39 -->
<g id="edge49_Node000036_Node000039" class="edge">
<title>Node36&#45;&gt;Node39</title>
<g id="a_edge49_Node000036_Node000039"><a xlink:title=" ">
<path fill="none" stroke="#63b8ff" d="M1965.49,-126.37C1979.75,-117.24 2002.74,-102.53 2021.44,-90.56"/>
<polygon fill="#63b8ff" stroke="#63b8ff" points="2023.41,-93.45 2029.94,-85.12 2019.63,-87.56 2023.41,-93.45"/>
</a>
</g>
</g>
<!-- Node40 -->
<g id="Node000040" class="node">
<title>Node40</title>
<g id="a_Node000040"><a xlink:href="sfinae_8h.html" target="_top" xlink:title=" ">
<polygon fill="white" stroke="#666666" points="1981,-79.5 1849,-79.5 1849,-60.5 1981,-60.5 1981,-79.5"/>
<text text-anchor="middle" x="1915" y="-67.5" font-family="FreeSans" font-size="10.00">mpqc/util/meta/sfinae.h</text>
</a>
</g>
</g>
<!-- Node36&#45;&gt;Node40 -->
<g id="edge51_Node000036_Node000040" class="edge">
<title>Node36&#45;&gt;Node40</title>
<g id="a_edge51_Node000036_Node000040"><a xlink:title=" ">
<path fill="none" stroke="#63b8ff" d="M1942.22,-126.37C1934.71,-116.88 1925.28,-101.36 1919.35,-89.16"/>
<polygon fill="#63b8ff" stroke="#63b8ff" points="1922.51,-87.67 1915.3,-79.91 1916.1,-90.47 1922.51,-87.67"/>
</a>
</g>
</g>
<!-- Node39&#45;&gt;Node37 -->
<g id="edge50_Node000039_Node000037" class="edge">
<title>Node39&#45;&gt;Node37</title>
<g id="a_edge50_Node000039_Node000037"><a xlink:title=" ">
<path fill="none" stroke="#63b8ff" d="M2024.22,-54.99C2005.38,-45.49 1980.65,-33.02 1962.16,-23.69"/>
<polygon fill="#63b8ff" stroke="#63b8ff" points="1963.64,-20.52 1953.13,-19.14 1960.48,-26.77 1963.64,-20.52"/>
</a>
</g>
</g>
<!-- Node40&#45;&gt;Node36 -->
<g id="edge52_Node000040_Node000036" class="edge">
<title>Node40&#45;&gt;Node36</title>
<g id="a_edge52_Node000040_Node000036"><a xlink:title=" ">
<path fill="none" stroke="#63b8ff" d="M1924.99,-79.91C1932.54,-89.51 1941.96,-105.05 1947.82,-117.18"/>
<polygon fill="#63b8ff" stroke="#63b8ff" points="1944.61,-118.58 1951.8,-126.37 1951.04,-115.8 1944.61,-118.58"/>
</a>
</g>
</g>
<!-- Node42 -->
<g id="Node000042" class="node">
<title>Node42</title>
<g id="a_Node000042"><a xlink:title=" ">
<polygon fill="#e0e0e0" stroke="#999999" points="2174,-217 2058,-217 2058,-187 2174,-187 2174,-217"/>
<text text-anchor="start" x="2066" y="-205" font-family="FreeSans" font-size="10.00">madness/world/type</text>
<text text-anchor="middle" x="2116" y="-194" font-family="FreeSans" font-size="10.00">_traits.h</text>
</a>
</g>
</g>
<!-- Node41&#45;&gt;Node42 -->
<g id="edge54_Node000041_Node000042" class="edge">
<title>Node41&#45;&gt;Node42</title>
<g id="a_edge54_Node000041_Node000042"><a xlink:title=" ">
<path fill="none" stroke="#63b8ff" d="M2116,-258.37C2116,-250.49 2116,-238.45 2116,-227.6"/>
<polygon fill="#63b8ff" stroke="#63b8ff" points="2119.5,-227.36 2116,-217.36 2112.5,-227.36 2119.5,-227.36"/>
</a>
</g>
</g>
</g>
</svg>

<g id="navigator" transform="translate(0 0)" fill="#404254">
  <rect fill="#f2f5e9" fill-opacity="0.5" stroke="#606060" stroke-width=".5" x="0" y="0" width="60" height="60"/>
  <use id="zoomplus" xlink:href="#zoomPlus" x="17" y="9" onmousedown="handleZoom(evt,'in')"/>
  <use id="zoomminus" xlink:href="#zoomMin" x="42" y="9" onmousedown="handleZoom(evt,'out')"/>
  <use id="reset" xlink:href="#resetDef" x="30" y="36" onmousedown="handleReset()"/>
   <use id="arrowup" xlink:href="#arrowUp" x="0" y="0" onmousedown="handlePan(0,-1)"/>
  <use id="arrowright" xlink:href="#arrowRight" x="0" y="0" onmousedown="handlePan(1,0)"/>
  <use id="arrowdown" xlink:href="#arrowDown" x="0" y="0" onmousedown="handlePan(0,1)"/>
  <use id="arrowleft" xlink:href="#arrowLeft" x="0" y="0" onmousedown="handlePan(-1,0)"/>
</g>
<svg viewBox="0 0 15 15" width="100%" height="30px" preserveAspectRatio="xMaxYMin meet">
 <g id="arrow_out" transform="scale(0.3 0.3)">
  <a xlink:href="context_8h__incl_org.svg" target="_base">
   <rect id="button" ry="5" rx="5" y="6" x="6" height="38" width="38"
        fill="#f2f5e9" fill-opacity="0.5" stroke="#606060" stroke-width="1.0"/>
   <path id="arrow"
     d="M 11.500037,31.436501 C 11.940474,20.09759 22.043105,11.32322 32.158766,21.979434 L 37.068811,17.246167 C 37.068811,17.246167 37.088388,32 37.088388,32 L 22.160133,31.978069 C 22.160133,31.978069 26.997745,27.140456 26.997745,27.140456 C 18.528582,18.264221 13.291696,25.230495 11.500037,31.436501 z"
     style="fill:#404040;"/>
  </a>
 </g>
</svg>

<style type='text/css'>
<![CDATA[
[data-mouse-over-selected='false'] { opacity: 0.7; }
[data-mouse-over-selected='true']  { opacity: 1.0; }
]]>
</style>
<script type="application/ecmascript"><![CDATA[
document.addEventListener('DOMContentLoaded', (event) => {
  highlightEdges();
  highlightAdjacentNodes();
});
]]></script>
</svg>
