<?xml version="1.0" encoding="UTF-8" standalone="no"?>
<!DOCTYPE svg PUBLIC "-//W3C//DTD SVG 1.1//EN"
 "http://www.w3.org/Graphics/SVG/1.1/DTD/svg11.dtd">
<!-- Generated by graphviz version 2.43.0 (0)
 -->
<!-- Title: mpqc/math/mra/context.h Pages: 1 -->
<svg width="850pt" height="423pt"
 viewBox="0.00 0.00 849.50 423.00" xmlns="http://www.w3.org/2000/svg" xmlns:xlink="http://www.w3.org/1999/xlink">
<g id="graph0" class="graph" transform="scale(1 1) rotate(0) translate(4 419)">
<title>mpqc/math/mra/context.h</title>
<!-- Node1 -->
<g id="Node000001" class="node">
<title>Node1</title>
<g id="a_Node000001"><a xlink:title=" ">
<polygon fill="#999999" stroke="#666666" points="541.5,-415 398.5,-415 398.5,-396 541.5,-396 541.5,-415"/>
<text text-anchor="middle" x="470" y="-403" font-family="FreeSans" font-size="10.00">mpqc/math/mra/context.h</text>
</a>
</g>
</g>
<!-- Node2 -->
<g id="Node000002" class="node">
<title>Node2</title>
<g id="a_Node000002"><a xlink:href="solver__1c__v2_8ipp.html" target="_top" xlink:title=" ">
<polygon fill="white" stroke="#666666" points="160,-228 28,-228 28,-198 160,-198 160,-228"/>
<text text-anchor="start" x="36" y="-216" font-family="FreeSans" font-size="10.00">mpqc/chemistry/qc/mra</text>
<text text-anchor="middle" x="94" y="-205" font-family="FreeSans" font-size="10.00">/scf/solver_1c_v2.ipp</text>
</a>
</g>
</g>
<!-- Node1&#45;&gt;Node2 -->
<g id="edge1_Node000001_Node000002" class="edge">
<title>Node1&#45;&gt;Node2</title>
<g id="a_edge1_Node000001_Node000002"><a xlink:title=" ">
<path fill="none" stroke="#63b8ff" d="M388.15,-403.4C305.36,-397.55 180.28,-374.74 113,-294 97.28,-275.14 94.11,-245.51 93.72,-228.09"/>
<polygon fill="#63b8ff" stroke="#63b8ff" points="388.08,-406.91 398.29,-404.05 388.53,-399.92 388.08,-406.91"/>
</a>
</g>
</g>
<!-- Node4 -->
<g id="Node000004" class="node">
<title>Node4</title>
<g id="a_Node000004"><a xlink:href="op_8cpp.html" target="_top" xlink:title=" ">
<polygon fill="white" stroke="#666666" points="668,-360 536,-360 536,-330 668,-330 668,-360"/>
<text text-anchor="start" x="544" y="-348" font-family="FreeSans" font-size="10.00">mpqc/chemistry/qc/mra</text>
<text text-anchor="middle" x="602" y="-337" font-family="FreeSans" font-size="10.00">/wfn/op.cpp</text>
</a>
</g>
</g>
<!-- Node1&#45;&gt;Node4 -->
<g id="edge3_Node000001_Node000004" class="edge">
<title>Node1&#45;&gt;Node4</title>
<g id="a_edge3_Node000001_Node000004"><a xlink:title=" ">
<path fill="none" stroke="#63b8ff" d="M498.59,-391.83C519.71,-382.47 548.44,-369.74 570.27,-360.06"/>
<polygon fill="#63b8ff" stroke="#63b8ff" points="496.92,-388.74 489.19,-395.99 499.75,-395.14 496.92,-388.74"/>
</a>
</g>
</g>
<!-- Node5 -->
<g id="Node000005" class="node">
<title>Node5</title>
<g id="a_Node000005"><a xlink:href="sp_8ipp.html" target="_top" xlink:title=" ">
<polygon fill="white" stroke="#666666" points="686,-228 554,-228 554,-198 686,-198 686,-228"/>
<text text-anchor="start" x="562" y="-216" font-family="FreeSans" font-size="10.00">mpqc/chemistry/qc/mra</text>
<text text-anchor="middle" x="620" y="-205" font-family="FreeSans" font-size="10.00">/wfn/sp.ipp</text>
</a>
</g>
</g>
<!-- Node1&#45;&gt;Node5 -->
<g id="edge4_Node000001_Node000005" class="edge">
<title>Node1&#45;&gt;Node5</title>
<g id="a_edge4_Node000001_Node000005"><a xlink:title=" ">
<path fill="none" stroke="#63b8ff" d="M482.94,-387.36C494.42,-372.21 511.7,-349.54 527,-330 555.97,-293.02 590.75,-249.99 608.44,-228.2"/>
<polygon fill="#63b8ff" stroke="#63b8ff" points="479.85,-385.65 476.61,-395.73 485.43,-389.87 479.85,-385.65"/>
</a>
</g>
</g>
<!-- Node8 -->
<g id="Node000008" class="node">
<title>Node8</title>
<g id="a_Node000008"><a xlink:href="chemistry_2qc_2mra_2wfn_2util_8h.html" target="_top" xlink:title=" ">
<polygon fill="white" stroke="#666666" points="404,-294 272,-294 272,-264 404,-264 404,-294"/>
<text text-anchor="start" x="280" y="-282" font-family="FreeSans" font-size="10.00">mpqc/chemistry/qc/mra</text>
<text text-anchor="middle" x="338" y="-271" font-family="FreeSans" font-size="10.00">/wfn/util.h</text>
</a>
</g>
</g>
<!-- Node1&#45;&gt;Node8 -->
<g id="edge9_Node000001_Node000008" class="edge">
<title>Node1&#45;&gt;Node8</title>
<g id="a_edge9_Node000001_Node000008"><a xlink:title=" ">
<path fill="none" stroke="#63b8ff" d="M459.13,-387.13C448.58,-371.14 431.5,-347.34 413,-330 398.04,-315.98 378.75,-303.22 363.48,-294.1"/>
<polygon fill="#63b8ff" stroke="#63b8ff" points="456.45,-389.44 464.8,-395.95 462.33,-385.65 456.45,-389.44"/>
</a>
</g>
</g>
<!-- Node10 -->
<g id="Node000010" class="node">
<title>Node10</title>
<g id="a_Node000010"><a xlink:href="mra_2wfn_2wfn_8cpp.html" target="_top" xlink:title=" ">
<polygon fill="white" stroke="#666666" points="536,-228 404,-228 404,-198 536,-198 536,-228"/>
<text text-anchor="start" x="412" y="-216" font-family="FreeSans" font-size="10.00">mpqc/chemistry/qc/mra</text>
<text text-anchor="middle" x="470" y="-205" font-family="FreeSans" font-size="10.00">/wfn/wfn.cpp</text>
</a>
</g>
</g>
<!-- Node1&#45;&gt;Node10 -->
<g id="edge15_Node000001_Node000010" class="edge">
<title>Node1&#45;&gt;Node10</title>
<g id="a_edge15_Node000001_Node000010"><a xlink:title=" ">
<path fill="none" stroke="#63b8ff" d="M470,-385.6C470,-347.44 470,-261.91 470,-228.12"/>
<polygon fill="#63b8ff" stroke="#63b8ff" points="466.5,-385.82 470,-395.82 473.5,-385.82 466.5,-385.82"/>
</a>
</g>
</g>
<!-- Node11 -->
<g id="Node000011" class="node">
<title>Node11</title>
<g id="a_Node000011"><a xlink:href="src_2mpqc_2chemistry_2qc_2mra_2wfn_2wfn_8h.html" target="_top" xlink:title=" ">
<polygon fill="white" stroke="#666666" points="404,-360 272,-360 272,-330 404,-330 404,-360"/>
<text text-anchor="start" x="280" y="-348" font-family="FreeSans" font-size="10.00">mpqc/chemistry/qc/mra</text>
<text text-anchor="middle" x="338" y="-337" font-family="FreeSans" font-size="10.00">/wfn/wfn.h</text>
</a>
</g>
</g>
<!-- Node1&#45;&gt;Node11 -->
<g id="edge16_Node000001_Node000011" class="edge">
<title>Node1&#45;&gt;Node11</title>
<g id="a_edge16_Node000001_Node000011"><a xlink:title=" ">
<path fill="none" stroke="#63b8ff" d="M441.41,-391.83C420.29,-382.47 391.56,-369.74 369.73,-360.06"/>
<polygon fill="#63b8ff" stroke="#63b8ff" points="440.25,-395.14 450.81,-395.99 443.08,-388.74 440.25,-395.14"/>
</a>
</g>
</g>
<!-- Node13 -->
<g id="Node000013" class="node">
<title>Node13</title>
<g id="a_Node000013"><a xlink:href="context_8cpp.html" target="_top" xlink:title=" ">
<polygon fill="white" stroke="#666666" points="841.5,-354.5 686.5,-354.5 686.5,-335.5 841.5,-335.5 841.5,-354.5"/>
<text text-anchor="middle" x="764" y="-342.5" font-family="FreeSans" font-size="10.00">mpqc/math/mra/context.cpp</text>
</a>
</g>
</g>
<!-- Node1&#45;&gt;Node13 -->
<g id="edge23_Node000001_Node000013" class="edge">
<title>Node1&#45;&gt;Node13</title>
<g id="a_edge23_Node000001_Node000013"><a xlink:title=" ">
<path fill="none" stroke="#63b8ff" d="M522.6,-394.03C579.34,-382.74 668.59,-364.98 721.2,-354.52"/>
<polygon fill="#63b8ff" stroke="#63b8ff" points="521.87,-390.61 512.75,-395.99 523.24,-397.47 521.87,-390.61"/>
</a>
</g>
</g>
<!-- Node3 -->
<g id="Node000003" class="node">
<title>Node3</title>
<g id="a_Node000003"><a xlink:href="solver_8cpp.html" target="_top" xlink:title=" ">
<polygon fill="white" stroke="#666666" points="160,-30 28,-30 28,0 160,0 160,-30"/>
<text text-anchor="start" x="36" y="-18" font-family="FreeSans" font-size="10.00">mpqc/chemistry/qc/mra</text>
<text text-anchor="middle" x="94" y="-7" font-family="FreeSans" font-size="10.00">/scf/solver.cpp</text>
</a>
</g>
</g>
<!-- Node2&#45;&gt;Node3 -->
<g id="edge2_Node000002_Node000003" class="edge">
<title>Node2&#45;&gt;Node3</title>
<g id="a_edge2_Node000002_Node000003"><a xlink:title=" ">
<path fill="none" stroke="#63b8ff" d="M94,-187.89C94,-146.58 94,-63.48 94,-30.23"/>
<polygon fill="#63b8ff" stroke="#63b8ff" points="90.5,-187.9 94,-197.9 97.5,-187.9 90.5,-187.9"/>
</a>
</g>
</g>
<!-- Node6 -->
<g id="Node000006" class="node">
<title>Node6</title>
<g id="a_Node000006"><a xlink:href="chemistry_2qc_2mra_2wfn_2sp_8h.html" target="_top" xlink:title=" ">
<polygon fill="white" stroke="#666666" points="686,-162 554,-162 554,-132 686,-132 686,-162"/>
<text text-anchor="start" x="562" y="-150" font-family="FreeSans" font-size="10.00">mpqc/chemistry/qc/mra</text>
<text text-anchor="middle" x="620" y="-139" font-family="FreeSans" font-size="10.00">/wfn/sp.h</text>
</a>
</g>
</g>
<!-- Node5&#45;&gt;Node6 -->
<g id="edge5_Node000005_Node000006" class="edge">
<title>Node5&#45;&gt;Node6</title>
<g id="a_edge5_Node000005_Node000006"><a xlink:title=" ">
<path fill="none" stroke="#63b8ff" d="M613.43,-187.83C613.02,-179.17 613.31,-169.7 614.29,-162.16"/>
<polygon fill="#63b8ff" stroke="#63b8ff" points="609.95,-188.13 614.28,-197.8 616.92,-187.54 609.95,-188.13"/>
</a>
</g>
</g>
<!-- Node6&#45;&gt;Node5 -->
<g id="edge8_Node000006_Node000005" class="edge">
<title>Node6&#45;&gt;Node5</title>
<g id="a_edge8_Node000006_Node000005"><a xlink:title=" ">
<path fill="none" stroke="#63b8ff" d="M626.57,-172.13C626.98,-180.78 626.7,-190.26 625.72,-197.8"/>
<polygon fill="#63b8ff" stroke="#63b8ff" points="630.05,-171.83 625.71,-162.16 623.08,-172.43 630.05,-171.83"/>
</a>
</g>
</g>
<!-- Node7 -->
<g id="Node000007" class="node">
<title>Node7</title>
<g id="a_Node000007"><a xlink:href="solver_8ipp.html" target="_top" xlink:title=" ">
<polygon fill="white" stroke="#666666" points="348,-96 216,-96 216,-66 348,-66 348,-96"/>
<text text-anchor="start" x="224" y="-84" font-family="FreeSans" font-size="10.00">mpqc/chemistry/qc/mra</text>
<text text-anchor="middle" x="282" y="-73" font-family="FreeSans" font-size="10.00">/scf/solver.ipp</text>
</a>
</g>
</g>
<!-- Node6&#45;&gt;Node7 -->
<g id="edge6_Node000006_Node000007" class="edge">
<title>Node6&#45;&gt;Node7</title>
<g id="a_edge6_Node000006_Node000007"><a xlink:title=" ">
<path fill="none" stroke="#63b8ff" d="M543.64,-131.54C484.82,-120.4 404.34,-105.16 348.22,-94.54"/>
<polygon fill="#63b8ff" stroke="#63b8ff" points="543.15,-135.01 553.63,-133.43 544.45,-128.13 543.15,-135.01"/>
</a>
</g>
</g>
<!-- Node7&#45;&gt;Node3 -->
<g id="edge7_Node000007_Node000003" class="edge">
<title>Node7&#45;&gt;Node3</title>
<g id="a_edge7_Node000007_Node000003"><a xlink:title=" ">
<path fill="none" stroke="#63b8ff" d="M231.25,-62.72C201.13,-52.47 163.42,-39.63 135.16,-30.01"/>
<polygon fill="#63b8ff" stroke="#63b8ff" points="230.15,-66.05 240.74,-65.95 232.4,-59.42 230.15,-66.05"/>
</a>
</g>
</g>
<!-- Node8&#45;&gt;Node2 -->
<g id="edge11_Node000008_Node000002" class="edge">
<title>Node8&#45;&gt;Node2</title>
<g id="a_edge11_Node000008_Node000002"><a xlink:title=" ">
<path fill="none" stroke="#63b8ff" d="M274.66,-261.39C235.16,-251.03 184.9,-237.84 147.42,-228.01"/>
<polygon fill="#63b8ff" stroke="#63b8ff" points="273.89,-264.8 284.45,-263.95 275.67,-258.03 273.89,-264.8"/>
</a>
</g>
</g>
<!-- Node8&#45;&gt;Node5 -->
<g id="edge12_Node000008_Node000005" class="edge">
<title>Node8&#45;&gt;Node5</title>
<g id="a_edge12_Node000008_Node000005"><a xlink:title=" ">
<path fill="none" stroke="#63b8ff" d="M409.76,-261.71C455.62,-251.31 514.49,-237.95 558.26,-228.01"/>
<polygon fill="#63b8ff" stroke="#63b8ff" points="408.86,-258.33 399.89,-263.95 410.41,-265.15 408.86,-258.33"/>
</a>
</g>
</g>
<!-- Node8&#45;&gt;Node7 -->
<g id="edge10_Node000008_Node000007" class="edge">
<title>Node8&#45;&gt;Node7</title>
<g id="a_edge10_Node000008_Node000007"><a xlink:title=" ">
<path fill="none" stroke="#63b8ff" d="M350.02,-254.54C356.66,-238.5 362.55,-216.82 357,-198 344.92,-157.06 313.38,-116.97 295.28,-96.34"/>
<polygon fill="#63b8ff" stroke="#63b8ff" points="346.8,-253.16 345.88,-263.72 353.18,-256.04 346.8,-253.16"/>
</a>
</g>
</g>
<!-- Node9 -->
<g id="Node000009" class="node">
<title>Node9</title>
<g id="a_Node000009"><a xlink:href="chemistry_2qc_2mra_2wfn_2util_8cpp.html" target="_top" xlink:title=" ">
<polygon fill="white" stroke="#666666" points="348,-228 216,-228 216,-198 348,-198 348,-228"/>
<text text-anchor="start" x="224" y="-216" font-family="FreeSans" font-size="10.00">mpqc/chemistry/qc/mra</text>
<text text-anchor="middle" x="282" y="-205" font-family="FreeSans" font-size="10.00">/wfn/util.cpp</text>
</a>
</g>
</g>
<!-- Node8&#45;&gt;Node9 -->
<g id="edge13_Node000008_Node000009" class="edge">
<title>Node8&#45;&gt;Node9</title>
<g id="a_edge13_Node000008_Node000009"><a xlink:title=" ">
<path fill="none" stroke="#63b8ff" d="M318.83,-256.09C310.74,-246.85 301.56,-236.36 294.39,-228.16"/>
<polygon fill="#63b8ff" stroke="#63b8ff" points="316.35,-258.58 325.57,-263.8 321.62,-253.97 316.35,-258.58"/>
</a>
</g>
</g>
<!-- Node8&#45;&gt;Node10 -->
<g id="edge14_Node000008_Node000010" class="edge">
<title>Node8&#45;&gt;Node10</title>
<g id="a_edge14_Node000008_Node000010"><a xlink:title=" ">
<path fill="none" stroke="#63b8ff" d="M376.13,-259.51C396.84,-249.47 422.03,-237.26 441.1,-228.01"/>
<polygon fill="#63b8ff" stroke="#63b8ff" points="374.44,-256.44 366.97,-263.95 377.49,-262.74 374.44,-256.44"/>
</a>
</g>
</g>
<!-- Node11&#45;&gt;Node3 -->
<g id="edge17_Node000011_Node000003" class="edge">
<title>Node11&#45;&gt;Node3</title>
<g id="a_edge17_Node000011_Node000003"><a xlink:title=" ">
<path fill="none" stroke="#63b8ff" d="M261.92,-334.71C217.19,-327.41 160.31,-314.87 113,-294 56.7,-269.17 0,-275.53 0,-214 0,-214 0,-214 0,-146 0,-95.87 46.47,-51.96 74.07,-30.31"/>
<polygon fill="#63b8ff" stroke="#63b8ff" points="261.43,-338.18 271.86,-336.28 262.52,-331.26 261.43,-338.18"/>
</a>
</g>
</g>
<!-- Node11&#45;&gt;Node8 -->
<g id="edge21_Node000011_Node000008" class="edge">
<title>Node11&#45;&gt;Node8</title>
<g id="a_edge21_Node000011_Node000008"><a xlink:title=" ">
<path fill="none" stroke="#63b8ff" d="M338,-319.54C338,-310.96 338,-301.61 338,-294.16"/>
<polygon fill="#63b8ff" stroke="#63b8ff" points="334.5,-319.8 338,-329.8 341.5,-319.8 334.5,-319.8"/>
</a>
</g>
</g>
<!-- Node11&#45;&gt;Node10 -->
<g id="edge22_Node000011_Node000010" class="edge">
<title>Node11&#45;&gt;Node10</title>
<g id="a_edge22_Node000011_Node000010"><a xlink:title=" ">
<path fill="none" stroke="#63b8ff" d="M372.56,-324.66C386,-316.23 401.02,-305.62 413,-294 433.82,-273.82 452.12,-245.16 462.07,-228.19"/>
<polygon fill="#63b8ff" stroke="#63b8ff" points="370.72,-321.68 364.01,-329.88 374.37,-327.66 370.72,-321.68"/>
</a>
</g>
</g>
<!-- Node12 -->
<g id="Node000012" class="node">
<title>Node12</title>
<g id="a_Node000012"><a xlink:href="solver_8h.html" target="_top" xlink:title=" ">
<polygon fill="white" stroke="#666666" points="254,-294 122,-294 122,-264 254,-264 254,-294"/>
<text text-anchor="start" x="130" y="-282" font-family="FreeSans" font-size="10.00">mpqc/chemistry/qc/mra</text>
<text text-anchor="middle" x="188" y="-271" font-family="FreeSans" font-size="10.00">/scf/solver.h</text>
</a>
</g>
</g>
<!-- Node11&#45;&gt;Node12 -->
<g id="edge18_Node000011_Node000012" class="edge">
<title>Node11&#45;&gt;Node12</title>
<g id="a_edge18_Node000011_Node000012"><a xlink:title=" ">
<path fill="none" stroke="#63b8ff" d="M295.62,-325.92C271.92,-315.8 242.81,-303.38 220.84,-294.01"/>
<polygon fill="#63b8ff" stroke="#63b8ff" points="294.51,-329.25 305.08,-329.95 297.26,-322.81 294.51,-329.25"/>
</a>
</g>
</g>
<!-- Node12&#45;&gt;Node2 -->
<g id="edge20_Node000012_Node000002" class="edge">
<title>Node12&#45;&gt;Node2</title>
<g id="a_edge20_Node000012_Node000002"><a xlink:title=" ">
<path fill="none" stroke="#63b8ff" d="M158.67,-258.03C144.44,-248.34 127.69,-236.94 114.8,-228.16"/>
<polygon fill="#63b8ff" stroke="#63b8ff" points="156.9,-261.06 167.14,-263.8 160.84,-255.28 156.9,-261.06"/>
</a>
</g>
</g>
<!-- Node12&#45;&gt;Node7 -->
<g id="edge19_Node000012_Node000007" class="edge">
<title>Node12&#45;&gt;Node7</title>
<g id="a_edge19_Node000012_Node000007"><a xlink:title=" ">
<path fill="none" stroke="#63b8ff" d="M191.55,-253.69C194.45,-237.47 199.35,-215.92 207,-198 223.95,-158.3 254.14,-117.08 270.58,-96.1"/>
<polygon fill="#63b8ff" stroke="#63b8ff" points="188.03,-253.52 189.85,-263.96 194.94,-254.66 188.03,-253.52"/>
</a>
</g>
</g>
</g>
</svg>
