<?xml version="1.0" encoding="UTF-8" standalone="no"?>
<!DOCTYPE svg PUBLIC "-//W3C//DTD SVG 1.1//EN"
 "http://www.w3.org/Graphics/SVG/1.1/DTD/svg11.dtd">
<!-- Generated by graphviz version 2.43.0 (0)
 -->
<!-- Title: mpqc/util/core/cuda.cpp Pages: 1 -->
<!--zoomable 269 -->

<svg id="main" version="1.1" xmlns="http://www.w3.org/2000/svg" xmlns:xlink="http://www.w3.org/1999/xlink" xml:space="preserve" onload="init(evt)">
<style type="text/css"><![CDATA[
.node, .edge {opacity: 0.7;}
.node.selected, .edge.selected {opacity: 1;}
.edge:hover path { stroke: red; }
.edge:hover polygon { stroke: red; fill: red; }
]]></style>

<defs>
  <circle id="rim" cx="0" cy="0" r="7"/>
  <circle id="rim2" cx="0" cy="0" r="3.5"/>
  <g id="zoomPlus">
    <use xlink:href="#rim" fill="#404040"><set attributeName="fill" to="#808080" begin="zoomplus.mouseover" end="zoomplus.mouseout"/></use>
    <path d="M-4,0h8M0,-4v8" fill="none" stroke="white" stroke-width="1.5" pointer-events="none"/>
  </g>
  <g id="zoomMin">
    <use xlink:href="#rim" fill="#404040"><set attributeName="fill" to="#808080" begin="zoomminus.mouseover" end="zoomminus.mouseout"/></use>
    <path d="M-4,0h8" fill="none" stroke="white" stroke-width="1.5" pointer-events="none"/>
  </g>
  <g id="arrowUp" transform="translate(30 24)">
    <use xlink:href="#rim"/>
    <path pointer-events="none" fill="none" stroke="white" stroke-width="1.5" d="M0,-3.0v7 M-2.5,-0.5L0,-3.0L2.5,-0.5"/>
  </g>
  <g id="arrowRight" transform="rotate(90) translate(36 -43)">
    <use xlink:href="#rim"/>
    <path pointer-events="none" fill="none" stroke="white" stroke-width="1.5" d="M0,-3.0v7 M-2.5,-0.5L0,-3.0L2.5,-0.5"/>
  </g>
  <g id="arrowDown" transform="rotate(180) translate(-30 -48)">
    <use xlink:href="#rim"/>
    <path pointer-events="none" fill="none" stroke="white" stroke-width="1.5" d="M0,-3.0v7 M-2.5,-0.5L0,-3.0L2.5,-0.5"/>
  </g>
  <g id="arrowLeft" transform="rotate(270) translate(-36 17)">
    <use xlink:href="#rim"/>
    <path pointer-events="none" fill="none" stroke="white" stroke-width="1.5" d="M0,-3.0v7 M-2.5,-0.5L0,-3.0L2.5,-0.5"/>
  </g>
  <g id="resetDef">
    <use xlink:href="#rim2" fill="#404040"><set attributeName="fill" to="#808080" begin="reset.mouseover" end="reset.mouseout"/></use>
  </g>
</defs>
<script type="application/ecmascript">
var viewWidth = 859;
var viewHeight = 269;
var sectionId = 'dynsection-0';
</script>
<script type="application/ecmascript" xlink:href="svg.min.js"/>
<svg id="graph" class="graph">
<g id="viewport">
<title>mpqc/util/core/cuda.cpp</title>
<!-- Node1 -->
<g id="Node000001" class="node">
<title>Node1</title>
<g id="a_Node000001"><a xlink:title=" ">
<polygon fill="#999999" stroke="#666666" points="590.5,-261 457.5,-261 457.5,-242 590.5,-242 590.5,-261"/>
<text text-anchor="middle" x="524" y="-249" font-family="FreeSans" font-size="10.00">mpqc/util/core/cuda.cpp</text>
</a>
</g>
</g>
<!-- Node2 -->
<g id="Node000002" class="node">
<title>Node2</title>
<g id="a_Node000002"><a xlink:href="cuda_8h.html" target="_top" xlink:title=" ">
<polygon fill="white" stroke="#666666" points="235,-206 113,-206 113,-187 235,-187 235,-206"/>
<text text-anchor="middle" x="174" y="-194" font-family="FreeSans" font-size="10.00">mpqc/util/core/cuda.h</text>
</a>
</g>
</g>
<!-- Node1&#45;&gt;Node2 -->
<g id="edge1_Node000001_Node000002" class="edge">
<title>Node1&#45;&gt;Node2</title>
<g id="a_edge1_Node000001_Node000002"><a xlink:title=" ">
<path fill="none" stroke="#63b8ff" d="M467.77,-241.98C405.86,-232.61 306.41,-217.55 240.64,-207.59"/>
<polygon fill="#63b8ff" stroke="#63b8ff" points="240.8,-204.07 230.38,-206.04 239.75,-211 240.8,-204.07"/>
</a>
</g>
</g>
<!-- Node3 -->
<g id="Node000003" class="node">
<title>Node3</title>
<g id="a_Node000003"><a xlink:href="log_8h.html" target="_top" xlink:title=" ">
<polygon fill="white" stroke="#666666" points="144.5,-145.5 31.5,-145.5 31.5,-126.5 144.5,-126.5 144.5,-145.5"/>
<text text-anchor="middle" x="88" y="-133.5" font-family="FreeSans" font-size="10.00">mpqc/util/core/log.h</text>
</a>
</g>
</g>
<!-- Node1&#45;&gt;Node3 -->
<g id="edge24_Node000001_Node000003" class="edge">
<title>Node1&#45;&gt;Node3</title>
<g id="a_edge24_Node000001_Node000003"><a xlink:title=" ">
<path fill="none" stroke="#63b8ff" d="M491.23,-241.97C413.41,-221.71 217.54,-170.72 130.65,-148.1"/>
<polygon fill="#63b8ff" stroke="#63b8ff" points="131.41,-144.68 120.85,-145.55 129.65,-151.46 131.41,-144.68"/>
</a>
</g>
</g>
<!-- Node6 -->
<g id="Node000006" class="node">
<title>Node6</title>
<g id="a_Node000006"><a xlink:href="exenv_8h.html" target="_top" xlink:title=" ">
<polygon fill="white" stroke="#666666" points="587.5,-206 460.5,-206 460.5,-187 587.5,-187 587.5,-206"/>
<text text-anchor="middle" x="524" y="-194" font-family="FreeSans" font-size="10.00">mpqc/util/core/exenv.h</text>
</a>
</g>
</g>
<!-- Node1&#45;&gt;Node6 -->
<g id="edge5_Node000001_Node000006" class="edge">
<title>Node1&#45;&gt;Node6</title>
<g id="a_edge5_Node000001_Node000006"><a xlink:title=" ">
<path fill="none" stroke="#63b8ff" d="M524,-241.75C524,-234.8 524,-224.85 524,-216.13"/>
<polygon fill="#63b8ff" stroke="#63b8ff" points="527.5,-216.09 524,-206.09 520.5,-216.09 527.5,-216.09"/>
</a>
</g>
</g>
<!-- Node16 -->
<g id="Node000016" class="node">
<title>Node16</title>
<g id="a_Node000016"><a xlink:title=" ">
<polygon fill="#e0e0e0" stroke="#999999" points="850.5,-145.5 801.5,-145.5 801.5,-126.5 850.5,-126.5 850.5,-145.5"/>
<text text-anchor="middle" x="826" y="-133.5" font-family="FreeSans" font-size="10.00">cstdlib</text>
</a>
</g>
</g>
<!-- Node1&#45;&gt;Node16 -->
<g id="edge25_Node000001_Node000016" class="edge">
<title>Node1&#45;&gt;Node16</title>
<g id="a_edge25_Node000001_Node000016"><a xlink:title=" ">
<path fill="none" stroke="#63b8ff" d="M538.01,-241.79C563.18,-226.26 615.25,-194.7 635,-187 702.1,-160.83 724.47,-173.15 793,-151 794.63,-150.47 796.29,-149.9 797.95,-149.29"/>
<polygon fill="#63b8ff" stroke="#63b8ff" points="799.35,-152.5 807.37,-145.58 796.78,-145.99 799.35,-152.5"/>
</a>
</g>
</g>
<!-- Node21 -->
<g id="Node000021" class="node">
<title>Node21</title>
<g id="a_Node000021"><a xlink:title=" ">
<polygon fill="#e0e0e0" stroke="#999999" points="688,-206 644,-206 644,-187 688,-187 688,-206"/>
<text text-anchor="middle" x="666" y="-194" font-family="FreeSans" font-size="10.00">regex</text>
</a>
</g>
</g>
<!-- Node1&#45;&gt;Node21 -->
<g id="edge26_Node000001_Node000021" class="edge">
<title>Node1&#45;&gt;Node21</title>
<g id="a_edge26_Node000001_Node000021"><a xlink:title=" ">
<path fill="none" stroke="#63b8ff" d="M546.81,-241.98C570.45,-233.16 607.58,-219.31 634.11,-209.4"/>
<polygon fill="#63b8ff" stroke="#63b8ff" points="635.57,-212.6 643.71,-205.82 633.12,-206.04 635.57,-212.6"/>
</a>
</g>
</g>
<!-- Node2&#45;&gt;Node3 -->
<g id="edge2_Node000002_Node000003" class="edge">
<title>Node2&#45;&gt;Node3</title>
<g id="a_edge2_Node000002_Node000003"><a xlink:title=" ">
<path fill="none" stroke="#63b8ff" d="M161.31,-186.87C147.59,-177.54 125.5,-162.51 109.15,-151.38"/>
<polygon fill="#63b8ff" stroke="#63b8ff" points="110.98,-148.4 100.74,-145.67 107.04,-154.19 110.98,-148.4"/>
</a>
</g>
</g>
<!-- Node4 -->
<g id="Node000004" class="node">
<title>Node4</title>
<g id="a_Node000004"><a xlink:title=" ">
<polygon fill="#e0e0e0" stroke="#999999" points="46,-79.5 0,-79.5 0,-60.5 46,-60.5 46,-79.5"/>
<text text-anchor="middle" x="23" y="-67.5" font-family="FreeSans" font-size="10.00">cstdio</text>
</a>
</g>
</g>
<!-- Node3&#45;&gt;Node4 -->
<g id="edge3_Node000003_Node000004" class="edge">
<title>Node3&#45;&gt;Node4</title>
<g id="a_edge3_Node000003_Node000004"><a xlink:title=" ">
<path fill="none" stroke="#63b8ff" d="M79.23,-126.37C69.02,-116.31 51.92,-99.48 39.26,-87.01"/>
<polygon fill="#63b8ff" stroke="#63b8ff" points="41.63,-84.43 32.04,-79.91 36.71,-89.42 41.63,-84.43"/>
</a>
</g>
</g>
<!-- Node5 -->
<g id="Node000005" class="node">
<title>Node5</title>
<g id="a_Node000005"><a xlink:title=" ">
<polygon fill="#e0e0e0" stroke="#999999" points="121.5,-79.5 64.5,-79.5 64.5,-60.5 121.5,-60.5 121.5,-79.5"/>
<text text-anchor="middle" x="93" y="-67.5" font-family="FreeSans" font-size="10.00">ostream</text>
</a>
</g>
</g>
<!-- Node3&#45;&gt;Node5 -->
<g id="edge4_Node000003_Node000005" class="edge">
<title>Node3&#45;&gt;Node5</title>
<g id="a_edge4_Node000003_Node000005"><a xlink:title=" ">
<path fill="none" stroke="#63b8ff" d="M88.67,-126.37C89.4,-117.07 90.58,-101.98 91.52,-89.9"/>
<polygon fill="#63b8ff" stroke="#63b8ff" points="95.01,-90.15 92.3,-79.91 88.04,-89.6 95.01,-90.15"/>
</a>
</g>
</g>
<!-- Node7 -->
<g id="Node000007" class="node">
<title>Node7</title>
<g id="a_Node000007"><a xlink:href="math_2external_2tiledarray_2fwd_8h.html" target="_top" xlink:title=" ">
<polygon fill="white" stroke="#666666" points="279,-151 163,-151 163,-121 279,-121 279,-151"/>
<text text-anchor="start" x="171" y="-139" font-family="FreeSans" font-size="10.00">mpqc/math/external</text>
<text text-anchor="middle" x="221" y="-128" font-family="FreeSans" font-size="10.00">/tiledarray/fwd.h</text>
</a>
</g>
</g>
<!-- Node6&#45;&gt;Node7 -->
<g id="edge6_Node000006_Node000007" class="edge">
<title>Node6&#45;&gt;Node7</title>
<g id="a_edge6_Node000006_Node000007"><a xlink:title=" ">
<path fill="none" stroke="#63b8ff" d="M479.71,-186.99C433.21,-178.05 357.96,-163.57 293,-151 291.73,-150.76 290.46,-150.51 289.17,-150.26"/>
<polygon fill="#63b8ff" stroke="#63b8ff" points="289.64,-146.78 279.16,-148.32 288.31,-153.66 289.64,-146.78"/>
</a>
</g>
</g>
<!-- Node8 -->
<g id="Node000008" class="node">
<title>Node8</title>
<g id="a_Node000008"><a xlink:title=" ">
<polygon fill="#e0e0e0" stroke="#999999" points="365.5,-19 248.5,-19 248.5,0 365.5,0 365.5,-19"/>
<text text-anchor="middle" x="307" y="-7" font-family="FreeSans" font-size="10.00">mpqc/mpqc_config.h</text>
</a>
</g>
</g>
<!-- Node6&#45;&gt;Node8 -->
<g id="edge9_Node000006_Node000008" class="edge">
<title>Node6&#45;&gt;Node8</title>
<g id="a_edge9_Node000006_Node000008"><a xlink:title=" ">
<path fill="none" stroke="#63b8ff" d="M460.47,-189.08C409.63,-182.57 343.98,-170.61 326,-151 295.17,-117.38 299.02,-58.8 303.5,-29.03"/>
<polygon fill="#63b8ff" stroke="#63b8ff" points="306.95,-29.58 305.17,-19.13 300.05,-28.41 306.95,-29.58"/>
</a>
</g>
</g>
<!-- Node10 -->
<g id="Node000010" class="node">
<title>Node10</title>
<g id="a_Node000010"><a xlink:href="formio_8h.html" target="_top" xlink:title=" ">
<polygon fill="white" stroke="#666666" points="466.5,-145.5 335.5,-145.5 335.5,-126.5 466.5,-126.5 466.5,-145.5"/>
<text text-anchor="middle" x="401" y="-133.5" font-family="FreeSans" font-size="10.00">mpqc/util/core/formio.h</text>
</a>
</g>
</g>
<!-- Node6&#45;&gt;Node10 -->
<g id="edge10_Node000006_Node000010" class="edge">
<title>Node6&#45;&gt;Node10</title>
<g id="a_edge10_Node000006_Node000010"><a xlink:title=" ">
<path fill="none" stroke="#63b8ff" d="M506.11,-186.99C485.62,-177.25 451.81,-161.16 428.08,-149.88"/>
<polygon fill="#63b8ff" stroke="#63b8ff" points="429.44,-146.65 418.91,-145.52 426.43,-152.97 429.44,-146.65"/>
</a>
</g>
</g>
<!-- Node13 -->
<g id="Node000013" class="node">
<title>Node13</title>
<g id="a_Node000013"><a xlink:href="memory.html" target="_top" xlink:title=" ">
<polygon fill="white" stroke="#666666" points="639,-79.5 581,-79.5 581,-60.5 639,-60.5 639,-79.5"/>
<text text-anchor="middle" x="610" y="-67.5" font-family="FreeSans" font-size="10.00">memory</text>
</a>
</g>
</g>
<!-- Node6&#45;&gt;Node13 -->
<g id="edge20_Node000006_Node000013" class="edge">
<title>Node6&#45;&gt;Node13</title>
<g id="a_edge20_Node000006_Node000013"><a xlink:title=" ">
<path fill="none" stroke="#63b8ff" d="M519.56,-186.96C512.63,-172.32 501.27,-141.98 514,-121 521.31,-108.94 553.05,-93.84 578.05,-83.4"/>
<polygon fill="#63b8ff" stroke="#63b8ff" points="579.65,-86.53 587.58,-79.51 577,-80.05 579.65,-86.53"/>
</a>
</g>
</g>
<!-- Node6&#45;&gt;Node16 -->
<g id="edge18_Node000006_Node000016" class="edge">
<title>Node6&#45;&gt;Node16</title>
<g id="a_edge18_Node000006_Node000016"><a xlink:title=" ">
<path fill="none" stroke="#63b8ff" d="M586.07,-186.97C653.06,-177.46 755.21,-161.97 793,-151 794.68,-150.51 796.4,-149.96 798.11,-149.37"/>
<polygon fill="#63b8ff" stroke="#63b8ff" points="799.71,-152.5 807.78,-145.64 797.19,-145.97 799.71,-152.5"/>
</a>
</g>
</g>
<!-- Node17 -->
<g id="Node000017" class="node">
<title>Node17</title>
<g id="a_Node000017"><a xlink:title=" ">
<polygon fill="#e0e0e0" stroke="#999999" points="583,-145.5 523,-145.5 523,-126.5 583,-126.5 583,-145.5"/>
<text text-anchor="middle" x="553" y="-133.5" font-family="FreeSans" font-size="10.00">iostream</text>
</a>
</g>
</g>
<!-- Node6&#45;&gt;Node17 -->
<g id="edge19_Node000006_Node000017" class="edge">
<title>Node6&#45;&gt;Node17</title>
<g id="a_edge19_Node000006_Node000017"><a xlink:title=" ">
<path fill="none" stroke="#63b8ff" d="M528.28,-186.87C532.43,-178.49 538.87,-165.51 544.13,-154.89"/>
<polygon fill="#63b8ff" stroke="#63b8ff" points="547.4,-156.18 548.7,-145.67 541.13,-153.07 547.4,-156.18"/>
</a>
</g>
</g>
<!-- Node18 -->
<g id="Node000018" class="node">
<title>Node18</title>
<g id="a_Node000018"><a xlink:title=" ">
<polygon fill="#e0e0e0" stroke="#999999" points="657,-145.5 601,-145.5 601,-126.5 657,-126.5 657,-145.5"/>
<text text-anchor="middle" x="629" y="-133.5" font-family="FreeSans" font-size="10.00">optional</text>
</a>
</g>
</g>
<!-- Node6&#45;&gt;Node18 -->
<g id="edge21_Node000006_Node000018" class="edge">
<title>Node6&#45;&gt;Node18</title>
<g id="a_edge21_Node000006_Node000018"><a xlink:title=" ">
<path fill="none" stroke="#63b8ff" d="M539.49,-186.87C556.63,-177.32 584.47,-161.81 604.56,-150.62"/>
<polygon fill="#63b8ff" stroke="#63b8ff" points="606.41,-153.59 613.44,-145.67 603,-147.48 606.41,-153.59"/>
</a>
</g>
</g>
<!-- Node19 -->
<g id="Node000019" class="node">
<title>Node19</title>
<g id="a_Node000019"><a xlink:title=" ">
<polygon fill="#e0e0e0" stroke="#999999" points="718.5,-145.5 675.5,-145.5 675.5,-126.5 718.5,-126.5 718.5,-145.5"/>
<text text-anchor="middle" x="697" y="-133.5" font-family="FreeSans" font-size="10.00">stack</text>
</a>
</g>
</g>
<!-- Node6&#45;&gt;Node19 -->
<g id="edge22_Node000006_Node000019" class="edge">
<title>Node6&#45;&gt;Node19</title>
<g id="a_edge22_Node000006_Node000019"><a xlink:title=" ">
<path fill="none" stroke="#63b8ff" d="M555.11,-186.92C584.13,-178.65 628.46,-165.3 666,-151 667.21,-150.54 668.44,-150.05 669.68,-149.55"/>
<polygon fill="#63b8ff" stroke="#63b8ff" points="671.3,-152.66 679.12,-145.51 668.55,-146.23 671.3,-152.66"/>
</a>
</g>
</g>
<!-- Node20 -->
<g id="Node000020" class="node">
<title>Node20</title>
<g id="a_Node000020"><a xlink:title=" ">
<polygon fill="#e0e0e0" stroke="#999999" points="783.5,-145.5 736.5,-145.5 736.5,-126.5 783.5,-126.5 783.5,-145.5"/>
<text text-anchor="middle" x="760" y="-133.5" font-family="FreeSans" font-size="10.00">vector</text>
</a>
</g>
</g>
<!-- Node6&#45;&gt;Node20 -->
<g id="edge23_Node000006_Node000020" class="edge">
<title>Node6&#45;&gt;Node20</title>
<g id="a_edge23_Node000006_Node000020"><a xlink:title=" ">
<path fill="none" stroke="#63b8ff" d="M575.58,-186.93C617.03,-179.39 676.47,-167.1 727,-151 728.63,-150.48 730.29,-149.91 731.96,-149.31"/>
<polygon fill="#63b8ff" stroke="#63b8ff" points="733.35,-152.52 741.38,-145.61 730.79,-146.01 733.35,-152.52"/>
</a>
</g>
</g>
<!-- Node7&#45;&gt;Node8 -->
<g id="edge7_Node000007_Node000008" class="edge">
<title>Node7&#45;&gt;Node8</title>
<g id="a_edge7_Node000007_Node000008"><a xlink:title=" ">
<path fill="none" stroke="#63b8ff" d="M202.55,-120.93C183.37,-104.55 158.19,-76.96 174,-55 188.94,-34.25 214.01,-23.03 238.38,-17.02"/>
<polygon fill="#63b8ff" stroke="#63b8ff" points="239.37,-20.39 248.39,-14.82 237.87,-13.55 239.37,-20.39"/>
</a>
</g>
</g>
<!-- Node9 -->
<g id="Node000009" class="node">
<title>Node9</title>
<g id="a_Node000009"><a xlink:title=" ">
<polygon fill="#e0e0e0" stroke="#999999" points="278.5,-79.5 183.5,-79.5 183.5,-60.5 278.5,-60.5 278.5,-79.5"/>
<text text-anchor="middle" x="231" y="-67.5" font-family="FreeSans" font-size="10.00">tiledarray_fwd.h</text>
</a>
</g>
</g>
<!-- Node7&#45;&gt;Node9 -->
<g id="edge8_Node000007_Node000009" class="edge">
<title>Node7&#45;&gt;Node9</title>
<g id="a_edge8_Node000007_Node000009"><a xlink:title=" ">
<path fill="none" stroke="#63b8ff" d="M223.22,-120.8C224.64,-111.7 226.5,-99.79 228.05,-89.9"/>
<polygon fill="#63b8ff" stroke="#63b8ff" points="231.53,-90.26 229.62,-79.84 224.62,-89.18 231.53,-90.26"/>
</a>
</g>
</g>
<!-- Node11 -->
<g id="Node000011" class="node">
<title>Node11</title>
<g id="a_Node000011"><a xlink:title=" ">
<polygon fill="#e0e0e0" stroke="#999999" points="383,-79.5 335,-79.5 335,-60.5 383,-60.5 383,-79.5"/>
<text text-anchor="middle" x="359" y="-67.5" font-family="FreeSans" font-size="10.00">iosfwd</text>
</a>
</g>
</g>
<!-- Node10&#45;&gt;Node11 -->
<g id="edge11_Node000010_Node000011" class="edge">
<title>Node10&#45;&gt;Node11</title>
<g id="a_edge11_Node000010_Node000011"><a xlink:title=" ">
<path fill="none" stroke="#63b8ff" d="M395.34,-126.37C388.98,-116.69 378.52,-100.74 370.44,-88.44"/>
<polygon fill="#63b8ff" stroke="#63b8ff" points="373.26,-86.35 364.84,-79.91 367.4,-90.19 373.26,-86.35"/>
</a>
</g>
</g>
<!-- Node12 -->
<g id="Node000012" class="node">
<title>Node12</title>
<g id="a_Node000012"><a xlink:title=" ">
<polygon fill="#e0e0e0" stroke="#999999" points="439,-79.5 401,-79.5 401,-60.5 439,-60.5 439,-79.5"/>
<text text-anchor="middle" x="420" y="-67.5" font-family="FreeSans" font-size="10.00">map</text>
</a>
</g>
</g>
<!-- Node10&#45;&gt;Node12 -->
<g id="edge12_Node000010_Node000012" class="edge">
<title>Node10&#45;&gt;Node12</title>
<g id="a_edge12_Node000010_Node000012"><a xlink:title=" ">
<path fill="none" stroke="#63b8ff" d="M403.56,-126.37C406.35,-116.97 410.89,-101.67 414.5,-89.53"/>
<polygon fill="#63b8ff" stroke="#63b8ff" points="417.87,-90.49 417.36,-79.91 411.15,-88.5 417.87,-90.49"/>
</a>
</g>
</g>
<!-- Node10&#45;&gt;Node13 -->
<g id="edge13_Node000010_Node000013" class="edge">
<title>Node10&#45;&gt;Node13</title>
<g id="a_edge13_Node000010_Node000013"><a xlink:title=" ">
<path fill="none" stroke="#63b8ff" d="M432.72,-126.43C467.2,-116.94 523.83,-100.9 572,-85 573.9,-84.37 575.85,-83.71 577.82,-83.03"/>
<polygon fill="#63b8ff" stroke="#63b8ff" points="579.34,-86.2 587.58,-79.55 576.99,-79.61 579.34,-86.2"/>
</a>
</g>
</g>
<!-- Node14 -->
<g id="Node000014" class="node">
<title>Node14</title>
<g id="a_Node000014"><a xlink:href="scope.html" target="_top" xlink:title=" ">
<polygon fill="white" stroke="#666666" points="563,-85 457,-85 457,-55 563,-55 563,-85"/>
<text text-anchor="start" x="465" y="-73" font-family="FreeSans" font-size="10.00">mpqc/util/external</text>
<text text-anchor="middle" x="510" y="-62" font-family="FreeSans" font-size="10.00">/c++/scope</text>
</a>
</g>
</g>
<!-- Node10&#45;&gt;Node14 -->
<g id="edge15_Node000010_Node000014" class="edge">
<title>Node10&#45;&gt;Node14</title>
<g id="a_edge15_Node000010_Node000014"><a xlink:title=" ">
<path fill="none" stroke="#63b8ff" d="M415.7,-126.37C431.39,-117.16 456.76,-102.26 477.24,-90.24"/>
<polygon fill="#63b8ff" stroke="#63b8ff" points="479.11,-93.2 485.96,-85.12 475.56,-87.16 479.11,-93.2"/>
</a>
</g>
</g>
<!-- Node13&#45;&gt;Node13 -->
<g id="edge14_Node000013_Node000013" class="edge">
<title>Node13&#45;&gt;Node13</title>
<g id="a_edge14_Node000013_Node000013"><a xlink:title=" ">
<path fill="none" stroke="#63b8ff" d="M627.35,-79.53C641.85,-83.61 657,-80.43 657,-70 657,-62.01 648.12,-58.28 637.45,-58.8"/>
<polygon fill="#63b8ff" stroke="#63b8ff" points="636.65,-55.38 627.35,-60.47 637.79,-62.29 636.65,-55.38"/>
</a>
</g>
</g>
<!-- Node14&#45;&gt;Node8 -->
<g id="edge16_Node000014_Node000008" class="edge">
<title>Node14&#45;&gt;Node8</title>
<g id="a_edge16_Node000014_Node000008"><a xlink:title=" ">
<path fill="none" stroke="#63b8ff" d="M461.38,-54.99C426.19,-44.85 379.24,-31.32 346.4,-21.85"/>
<polygon fill="#63b8ff" stroke="#63b8ff" points="347.26,-18.46 336.68,-19.05 345.32,-25.19 347.26,-18.46"/>
</a>
</g>
</g>
<!-- Node15 -->
<g id="Node000015" class="node">
<title>Node15</title>
<g id="a_Node000015"><a xlink:title=" ">
<polygon fill="#e0e0e0" stroke="#999999" points="532.5,-19 487.5,-19 487.5,0 532.5,0 532.5,-19"/>
<text text-anchor="middle" x="510" y="-7" font-family="FreeSans" font-size="10.00">utility</text>
</a>
</g>
</g>
<!-- Node14&#45;&gt;Node15 -->
<g id="edge17_Node000014_Node000015" class="edge">
<title>Node14&#45;&gt;Node15</title>
<g id="a_edge17_Node000014_Node000015"><a xlink:title=" ">
<path fill="none" stroke="#63b8ff" d="M510,-54.84C510,-47.21 510,-37.7 510,-29.45"/>
<polygon fill="#63b8ff" stroke="#63b8ff" points="513.5,-29.27 510,-19.27 506.5,-29.27 513.5,-29.27"/>
</a>
</g>
</g>
</g>
</svg>

<g id="navigator" transform="translate(0 0)" fill="#404254">
  <rect fill="#f2f5e9" fill-opacity="0.5" stroke="#606060" stroke-width=".5" x="0" y="0" width="60" height="60"/>
  <use id="zoomplus" xlink:href="#zoomPlus" x="17" y="9" onmousedown="handleZoom(evt,'in')"/>
  <use id="zoomminus" xlink:href="#zoomMin" x="42" y="9" onmousedown="handleZoom(evt,'out')"/>
  <use id="reset" xlink:href="#resetDef" x="30" y="36" onmousedown="handleReset()"/>
   <use id="arrowup" xlink:href="#arrowUp" x="0" y="0" onmousedown="handlePan(0,-1)"/>
  <use id="arrowright" xlink:href="#arrowRight" x="0" y="0" onmousedown="handlePan(1,0)"/>
  <use id="arrowdown" xlink:href="#arrowDown" x="0" y="0" onmousedown="handlePan(0,1)"/>
  <use id="arrowleft" xlink:href="#arrowLeft" x="0" y="0" onmousedown="handlePan(-1,0)"/>
</g>
<svg viewBox="0 0 15 15" width="100%" height="30px" preserveAspectRatio="xMaxYMin meet">
 <g id="arrow_out" transform="scale(0.3 0.3)">
  <a xlink:href="cuda_8cpp__incl_org.svg" target="_base">
   <rect id="button" ry="5" rx="5" y="6" x="6" height="38" width="38"
        fill="#f2f5e9" fill-opacity="0.5" stroke="#606060" stroke-width="1.0"/>
   <path id="arrow"
     d="M 11.500037,31.436501 C 11.940474,20.09759 22.043105,11.32322 32.158766,21.979434 L 37.068811,17.246167 C 37.068811,17.246167 37.088388,32 37.088388,32 L 22.160133,31.978069 C 22.160133,31.978069 26.997745,27.140456 26.997745,27.140456 C 18.528582,18.264221 13.291696,25.230495 11.500037,31.436501 z"
     style="fill:#404040;"/>
  </a>
 </g>
</svg>

<style type='text/css'>
<![CDATA[
[data-mouse-over-selected='false'] { opacity: 0.7; }
[data-mouse-over-selected='true']  { opacity: 1.0; }
]]>
</style>
<script type="application/ecmascript"><![CDATA[
document.addEventListener('DOMContentLoaded', (event) => {
  highlightEdges();
  highlightAdjacentNodes();
});
]]></script>
</svg>
