<?xml version="1.0" encoding="UTF-8" standalone="no"?>
<!DOCTYPE svg PUBLIC "-//W3C//DTD SVG 1.1//EN"
 "http://www.w3.org/Graphics/SVG/1.1/DTD/svg11.dtd">
<!-- Generated by graphviz version 2.43.0 (0)
 -->
<!-- Title: mpqc/math/linalg/davidson_solver.h Pages: 1 -->
<!--zoomable 368 -->

<svg id="main" version="1.1" xmlns="http://www.w3.org/2000/svg" xmlns:xlink="http://www.w3.org/1999/xlink" xml:space="preserve" onload="init(evt)">
<style type="text/css"><![CDATA[
.node, .edge {opacity: 0.7;}
.node.selected, .edge.selected {opacity: 1;}
.edge:hover path { stroke: red; }
.edge:hover polygon { stroke: red; fill: red; }
]]></style>

<defs>
  <circle id="rim" cx="0" cy="0" r="7"/>
  <circle id="rim2" cx="0" cy="0" r="3.5"/>
  <g id="zoomPlus">
    <use xlink:href="#rim" fill="#404040"><set attributeName="fill" to="#808080" begin="zoomplus.mouseover" end="zoomplus.mouseout"/></use>
    <path d="M-4,0h8M0,-4v8" fill="none" stroke="white" stroke-width="1.5" pointer-events="none"/>
  </g>
  <g id="zoomMin">
    <use xlink:href="#rim" fill="#404040"><set attributeName="fill" to="#808080" begin="zoomminus.mouseover" end="zoomminus.mouseout"/></use>
    <path d="M-4,0h8" fill="none" stroke="white" stroke-width="1.5" pointer-events="none"/>
  </g>
  <g id="arrowUp" transform="translate(30 24)">
    <use xlink:href="#rim"/>
    <path pointer-events="none" fill="none" stroke="white" stroke-width="1.5" d="M0,-3.0v7 M-2.5,-0.5L0,-3.0L2.5,-0.5"/>
  </g>
  <g id="arrowRight" transform="rotate(90) translate(36 -43)">
    <use xlink:href="#rim"/>
    <path pointer-events="none" fill="none" stroke="white" stroke-width="1.5" d="M0,-3.0v7 M-2.5,-0.5L0,-3.0L2.5,-0.5"/>
  </g>
  <g id="arrowDown" transform="rotate(180) translate(-30 -48)">
    <use xlink:href="#rim"/>
    <path pointer-events="none" fill="none" stroke="white" stroke-width="1.5" d="M0,-3.0v7 M-2.5,-0.5L0,-3.0L2.5,-0.5"/>
  </g>
  <g id="arrowLeft" transform="rotate(270) translate(-36 17)">
    <use xlink:href="#rim"/>
    <path pointer-events="none" fill="none" stroke="white" stroke-width="1.5" d="M0,-3.0v7 M-2.5,-0.5L0,-3.0L2.5,-0.5"/>
  </g>
  <g id="resetDef">
    <use xlink:href="#rim2" fill="#404040"><set attributeName="fill" to="#808080" begin="reset.mouseover" end="reset.mouseout"/></use>
  </g>
</defs>
<script type="application/ecmascript">
var viewWidth = 1774;
var viewHeight = 368;
var sectionId = 'dynsection-1';
</script>
<script type="application/ecmascript" xlink:href="svg.min.js"/>
<svg id="graph" class="graph">
<g id="viewport">
<title>mpqc/math/linalg/davidson_solver.h</title>
<!-- Node1 -->
<g id="Node000001" class="node">
<title>Node1</title>
<g id="a_Node000001"><a xlink:title=" ">
<polygon fill="#999999" stroke="#666666" points="1221.94,-360 1072.94,-360 1072.94,-330 1221.94,-330 1221.94,-360"/>
<text text-anchor="start" x="1080.94" y="-348" font-family="FreeSans" font-size="10.00">mpqc/math/linalg/davidson</text>
<text text-anchor="middle" x="1147.44" y="-337" font-family="FreeSans" font-size="10.00">_solver.h</text>
</a>
</g>
</g>
<!-- Node2 -->
<g id="Node000002" class="node">
<title>Node2</title>
<g id="a_Node000002"><a xlink:href="cck_8h.html" target="_top" xlink:title=" ">
<polygon fill="white" stroke="#666666" points="232.94,-294 99.94,-294 99.94,-264 232.94,-264 232.94,-294"/>
<text text-anchor="start" x="107.94" y="-282" font-family="FreeSans" font-size="10.00">mpqc/chemistry/qc/lcao</text>
<text text-anchor="middle" x="166.44" y="-271" font-family="FreeSans" font-size="10.00">/cc/cck.h</text>
</a>
</g>
</g>
<!-- Node1&#45;&gt;Node2 -->
<g id="edge1_Node000001_Node000002" class="edge">
<title>Node1&#45;&gt;Node2</title>
<g id="a_edge1_Node000001_Node000002"><a xlink:title=" ">
<path fill="none" stroke="#63b8ff" d="M1062.87,-338.48C871.06,-325.97 406.27,-295.65 233.01,-284.34"/>
<polygon fill="#63b8ff" stroke="#63b8ff" points="1062.69,-341.98 1072.9,-339.14 1063.15,-334.99 1062.69,-341.98"/>
</a>
</g>
</g>
<!-- Node11 -->
<g id="Node000011" class="node">
<title>Node11</title>
<g id="a_Node000011"><a xlink:href="eom__ip__ccsd_8h.html" target="_top" xlink:title=" ">
<polygon fill="white" stroke="#666666" points="1037.94,-162 904.94,-162 904.94,-132 1037.94,-132 1037.94,-162"/>
<text text-anchor="start" x="912.94" y="-150" font-family="FreeSans" font-size="10.00">mpqc/chemistry/qc/lcao</text>
<text text-anchor="middle" x="971.44" y="-139" font-family="FreeSans" font-size="10.00">/cc/eom/eom_ip_ccsd.h</text>
</a>
</g>
</g>
<!-- Node1&#45;&gt;Node11 -->
<g id="edge19_Node000001_Node000011" class="edge">
<title>Node1&#45;&gt;Node11</title>
<g id="a_edge19_Node000001_Node000011"><a xlink:title=" ">
<path fill="none" stroke="#63b8ff" d="M1099.81,-326.03C1059.25,-307.95 1003.39,-275.84 976.44,-228 964.83,-207.39 966.43,-178.87 968.82,-162.04"/>
<polygon fill="#63b8ff" stroke="#63b8ff" points="1098.42,-329.24 1108.99,-330 1101.2,-322.81 1098.42,-329.24"/>
</a>
</g>
</g>
<!-- Node14 -->
<g id="Node000014" class="node">
<title>Node14</title>
<g id="a_Node000014"><a xlink:href="eom__preconditioner_8h.html" target="_top" xlink:title=" ">
<polygon fill="white" stroke="#666666" points="902.44,-294 738.44,-294 738.44,-264 902.44,-264 902.44,-294"/>
<text text-anchor="start" x="746.44" y="-282" font-family="FreeSans" font-size="10.00">mpqc/chemistry/qc/lcao</text>
<text text-anchor="middle" x="820.44" y="-271" font-family="FreeSans" font-size="10.00">/cc/eom/eom_preconditioner.h</text>
</a>
</g>
</g>
<!-- Node1&#45;&gt;Node14 -->
<g id="edge22_Node000001_Node000014" class="edge">
<title>Node1&#45;&gt;Node14</title>
<g id="a_edge22_Node000001_Node000014"><a xlink:title=" ">
<path fill="none" stroke="#63b8ff" d="M1065.56,-327.98C1012.19,-317.53 943.21,-304.03 892.03,-294.01"/>
<polygon fill="#63b8ff" stroke="#63b8ff" points="1065.19,-331.47 1075.68,-329.95 1066.54,-324.6 1065.19,-331.47"/>
</a>
</g>
</g>
<!-- Node21 -->
<g id="Node000021" class="node">
<title>Node21</title>
<g id="a_Node000021"><a xlink:href="cis_8h.html" target="_top" xlink:title=" ">
<polygon fill="white" stroke="#666666" points="1213.94,-294 1080.94,-294 1080.94,-264 1213.94,-264 1213.94,-294"/>
<text text-anchor="start" x="1088.94" y="-282" font-family="FreeSans" font-size="10.00">mpqc/chemistry/qc/lcao</text>
<text text-anchor="middle" x="1147.44" y="-271" font-family="FreeSans" font-size="10.00">/ci/cis.h</text>
</a>
</g>
</g>
<!-- Node1&#45;&gt;Node21 -->
<g id="edge34_Node000001_Node000021" class="edge">
<title>Node1&#45;&gt;Node21</title>
<g id="a_edge34_Node000001_Node000021"><a xlink:title=" ">
<path fill="none" stroke="#63b8ff" d="M1147.44,-319.54C1147.44,-310.96 1147.44,-301.61 1147.44,-294.16"/>
<polygon fill="#63b8ff" stroke="#63b8ff" points="1143.94,-319.8 1147.44,-329.8 1150.94,-319.8 1143.94,-319.8"/>
</a>
</g>
</g>
<!-- Node24 -->
<g id="Node000024" class="node">
<title>Node24</title>
<g id="a_Node000024"><a xlink:href="sci_8h.html" target="_top" xlink:title=" ">
<polygon fill="white" stroke="#666666" points="1598.94,-294 1465.94,-294 1465.94,-264 1598.94,-264 1598.94,-294"/>
<text text-anchor="start" x="1473.94" y="-282" font-family="FreeSans" font-size="10.00">mpqc/chemistry/qc/lcao</text>
<text text-anchor="middle" x="1532.44" y="-271" font-family="FreeSans" font-size="10.00">/ci/sci.h</text>
</a>
</g>
</g>
<!-- Node1&#45;&gt;Node24 -->
<g id="edge39_Node000001_Node000024" class="edge">
<title>Node1&#45;&gt;Node24</title>
<g id="a_edge39_Node000001_Node000024"><a xlink:title=" ">
<path fill="none" stroke="#63b8ff" d="M1232.28,-329.9C1302.52,-318.22 1400.96,-301.86 1465.68,-291.1"/>
<polygon fill="#63b8ff" stroke="#63b8ff" points="1231.42,-326.49 1222.13,-331.58 1232.57,-333.4 1231.42,-326.49"/>
</a>
</g>
</g>
<!-- Node29 -->
<g id="Node000029" class="node">
<title>Node29</title>
<g id="a_Node000029"><a xlink:href="davidson__solver_8cpp.html" target="_top" xlink:title=" ">
<polygon fill="white" stroke="#666666" points="1765.94,-294 1616.94,-294 1616.94,-264 1765.94,-264 1765.94,-294"/>
<text text-anchor="start" x="1624.94" y="-282" font-family="FreeSans" font-size="10.00">mpqc/math/linalg/davidson</text>
<text text-anchor="middle" x="1691.44" y="-271" font-family="FreeSans" font-size="10.00">_solver.cpp</text>
</a>
</g>
</g>
<!-- Node1&#45;&gt;Node29 -->
<g id="edge44_Node000001_Node000029" class="edge">
<title>Node1&#45;&gt;Node29</title>
<g id="a_edge44_Node000001_Node000029"><a xlink:title=" ">
<path fill="none" stroke="#63b8ff" d="M1232.42,-336.3C1325.06,-327.55 1477.58,-312.12 1608.44,-294 1611.19,-293.62 1613.99,-293.22 1616.81,-292.8"/>
<polygon fill="#63b8ff" stroke="#63b8ff" points="1231.89,-332.83 1222.26,-337.25 1232.55,-339.8 1231.89,-332.83"/>
</a>
</g>
</g>
<!-- Node30 -->
<g id="Node000030" class="node">
<title>Node30</title>
<g id="a_Node000030"><a xlink:href="ucsrmatrix_8h.html" target="_top" xlink:title=" ">
<polygon fill="white" stroke="#666666" points="1420.94,-288.5 1253.94,-288.5 1253.94,-269.5 1420.94,-269.5 1420.94,-288.5"/>
<text text-anchor="middle" x="1337.44" y="-276.5" font-family="FreeSans" font-size="10.00">mpqc/math/linalg/ucsrmatrix.h</text>
</a>
</g>
</g>
<!-- Node1&#45;&gt;Node30 -->
<g id="edge45_Node000001_Node000030" class="edge">
<title>Node1&#45;&gt;Node30</title>
<g id="a_edge45_Node000001_Node000030"><a xlink:title=" ">
<path fill="none" stroke="#63b8ff" d="M1198.69,-326.74C1235.43,-314.36 1283.32,-298.23 1312.15,-288.52"/>
<polygon fill="#63b8ff" stroke="#63b8ff" points="1197.5,-323.45 1189.14,-329.95 1199.73,-330.08 1197.5,-323.45"/>
</a>
</g>
</g>
<!-- Node3 -->
<g id="Node000003" class="node">
<title>Node3</title>
<g id="a_Node000003"><a xlink:href="cck_8ipp.html" target="_top" xlink:title=" ">
<polygon fill="white" stroke="#666666" points="232.94,-228 99.94,-228 99.94,-198 232.94,-198 232.94,-228"/>
<text text-anchor="start" x="107.94" y="-216" font-family="FreeSans" font-size="10.00">mpqc/chemistry/qc/lcao</text>
<text text-anchor="middle" x="166.44" y="-205" font-family="FreeSans" font-size="10.00">/cc/cck.ipp</text>
</a>
</g>
</g>
<!-- Node2&#45;&gt;Node3 -->
<g id="edge2_Node000002_Node000003" class="edge">
<title>Node2&#45;&gt;Node3</title>
<g id="a_edge2_Node000002_Node000003"><a xlink:title=" ">
<path fill="none" stroke="#63b8ff" d="M159.87,-253.83C159.46,-245.17 159.74,-235.7 160.72,-228.16"/>
<polygon fill="#63b8ff" stroke="#63b8ff" points="156.38,-254.13 160.72,-263.8 163.36,-253.54 156.38,-254.13"/>
</a>
</g>
</g>
<!-- Node6 -->
<g id="Node000006" class="node">
<title>Node6</title>
<g id="a_Node000006"><a xlink:href="cck__so__response_8ipp.html" target="_top" xlink:title=" ">
<polygon fill="white" stroke="#666666" points="156.44,-96 22.44,-96 22.44,-66 156.44,-66 156.44,-96"/>
<text text-anchor="start" x="30.44" y="-84" font-family="FreeSans" font-size="10.00">mpqc/chemistry/qc/lcao</text>
<text text-anchor="middle" x="89.44" y="-73" font-family="FreeSans" font-size="10.00">/cc/cck_so_response.ipp</text>
</a>
</g>
</g>
<!-- Node2&#45;&gt;Node6 -->
<g id="edge12_Node000002_Node000006" class="edge">
<title>Node2&#45;&gt;Node6</title>
<g id="a_edge12_Node000002_Node000006"><a xlink:title=" ">
<path fill="none" stroke="#63b8ff" d="M114.63,-259.74C74.94,-241.44 23.98,-209.19 4.44,-162 -0.66,-149.68 -1.89,-143.74 4.44,-132 13.13,-115.87 29.55,-104.1 45.75,-96.04"/>
<polygon fill="#63b8ff" stroke="#63b8ff" points="113.38,-263.01 123.94,-263.87 116.22,-256.61 113.38,-263.01"/>
</a>
</g>
</g>
<!-- Node7 -->
<g id="Node000007" class="node">
<title>Node7</title>
<g id="a_Node000007"><a xlink:href="eom__cck_8ipp.html" target="_top" xlink:title=" ">
<polygon fill="white" stroke="#666666" points="534.94,-228 401.94,-228 401.94,-198 534.94,-198 534.94,-228"/>
<text text-anchor="start" x="409.94" y="-216" font-family="FreeSans" font-size="10.00">mpqc/chemistry/qc/lcao</text>
<text text-anchor="middle" x="468.44" y="-205" font-family="FreeSans" font-size="10.00">/cc/eom_cck.ipp</text>
</a>
</g>
</g>
<!-- Node2&#45;&gt;Node7 -->
<g id="edge13_Node000002_Node000007" class="edge">
<title>Node2&#45;&gt;Node7</title>
<g id="a_edge13_Node000002_Node000007"><a xlink:title=" ">
<path fill="none" stroke="#63b8ff" d="M242.67,-261.84C291.88,-251.42 355.25,-237.99 402.32,-228.01"/>
<polygon fill="#63b8ff" stroke="#63b8ff" points="241.77,-258.46 232.71,-263.95 243.22,-265.31 241.77,-258.46"/>
</a>
</g>
</g>
<!-- Node8 -->
<g id="Node000008" class="node">
<title>Node8</title>
<g id="a_Node000008"><a xlink:href="cck__f12_8h.html" target="_top" xlink:title=" ">
<polygon fill="white" stroke="#666666" points="383.94,-228 250.94,-228 250.94,-198 383.94,-198 383.94,-228"/>
<text text-anchor="start" x="258.94" y="-216" font-family="FreeSans" font-size="10.00">mpqc/chemistry/qc/lcao</text>
<text text-anchor="middle" x="317.44" y="-205" font-family="FreeSans" font-size="10.00">/f12/cck_f12.h</text>
</a>
</g>
</g>
<!-- Node2&#45;&gt;Node8 -->
<g id="edge15_Node000002_Node000008" class="edge">
<title>Node2&#45;&gt;Node8</title>
<g id="a_edge15_Node000002_Node000008"><a xlink:title=" ">
<path fill="none" stroke="#63b8ff" d="M209.1,-259.92C232.96,-249.8 262.27,-237.38 284.38,-228.01"/>
<polygon fill="#63b8ff" stroke="#63b8ff" points="207.42,-256.83 199.58,-263.95 210.15,-263.28 207.42,-256.83"/>
</a>
</g>
</g>
<!-- Node3&#45;&gt;Node2 -->
<g id="edge4_Node000003_Node000002" class="edge">
<title>Node3&#45;&gt;Node2</title>
<g id="a_edge4_Node000003_Node000002"><a xlink:title=" ">
<path fill="none" stroke="#63b8ff" d="M173,-238.13C173.42,-246.78 173.14,-256.26 172.16,-263.8"/>
<polygon fill="#63b8ff" stroke="#63b8ff" points="176.49,-237.83 172.15,-228.16 169.52,-238.43 176.49,-237.83"/>
</a>
</g>
</g>
<!-- Node4 -->
<g id="Node000004" class="node">
<title>Node4</title>
<g id="a_Node000004"><a xlink:href="cck_8cpp.html" target="_top" xlink:title=" ">
<polygon fill="white" stroke="#666666" points="269.94,-30 136.94,-30 136.94,0 269.94,0 269.94,-30"/>
<text text-anchor="start" x="144.94" y="-18" font-family="FreeSans" font-size="10.00">mpqc/chemistry/qc/lcao</text>
<text text-anchor="middle" x="203.44" y="-7" font-family="FreeSans" font-size="10.00">/cc/cck.cpp</text>
</a>
</g>
</g>
<!-- Node3&#45;&gt;Node4 -->
<g id="edge3_Node000003_Node000004" class="edge">
<title>Node3&#45;&gt;Node4</title>
<g id="a_edge3_Node000003_Node000004"><a xlink:title=" ">
<path fill="none" stroke="#63b8ff" d="M174.99,-188.07C177.68,-179.89 180.46,-170.62 182.44,-162 193.41,-114.34 199.7,-56.52 202.19,-30.24"/>
<polygon fill="#63b8ff" stroke="#63b8ff" points="171.61,-187.14 171.71,-197.74 178.24,-189.4 171.61,-187.14"/>
</a>
</g>
</g>
<!-- Node5 -->
<g id="Node000005" class="node">
<title>Node5</title>
<g id="a_Node000005"><a xlink:href="cck__so_8ipp.html" target="_top" xlink:title=" ">
<polygon fill="white" stroke="#666666" points="155.94,-162 22.94,-162 22.94,-132 155.94,-132 155.94,-162"/>
<text text-anchor="start" x="30.94" y="-150" font-family="FreeSans" font-size="10.00">mpqc/chemistry/qc/lcao</text>
<text text-anchor="middle" x="89.44" y="-139" font-family="FreeSans" font-size="10.00">/cc/cck_so.ipp</text>
</a>
</g>
</g>
<!-- Node3&#45;&gt;Node5 -->
<g id="edge5_Node000003_Node000005" class="edge">
<title>Node3&#45;&gt;Node5</title>
<g id="a_edge5_Node000003_Node000005"><a xlink:title=" ">
<path fill="none" stroke="#63b8ff" d="M141.42,-191.2C129.98,-181.7 116.74,-170.69 106.48,-162.16"/>
<polygon fill="#63b8ff" stroke="#63b8ff" points="139.42,-194.1 149.35,-197.8 143.9,-188.71 139.42,-194.1"/>
</a>
</g>
</g>
<!-- Node3&#45;&gt;Node6 -->
<g id="edge11_Node000003_Node000006" class="edge">
<title>Node3&#45;&gt;Node6</title>
<g id="a_edge11_Node000003_Node000006"><a xlink:title=" ">
<path fill="none" stroke="#63b8ff" d="M171.39,-187.9C173.55,-171.19 173.79,-148.97 164.44,-132 155.6,-115.97 139.17,-104.14 123.94,-96.03"/>
<polygon fill="#63b8ff" stroke="#63b8ff" points="167.9,-187.56 169.77,-197.98 174.81,-188.66 167.9,-187.56"/>
</a>
</g>
</g>
<!-- Node5&#45;&gt;Node2 -->
<g id="edge7_Node000005_Node000002" class="edge">
<title>Node5&#45;&gt;Node2</title>
<g id="a_edge7_Node000005_Node000002"><a xlink:title=" ">
<path fill="none" stroke="#63b8ff" d="M84.09,-172.08C81.68,-188.79 81.14,-211.01 90.44,-228 99.23,-244.07 115.66,-255.84 131,-263.91"/>
<polygon fill="#63b8ff" stroke="#63b8ff" points="87.58,-172.46 85.86,-162.01 80.68,-171.25 87.58,-172.46"/>
</a>
</g>
</g>
<!-- Node5&#45;&gt;Node4 -->
<g id="edge6_Node000005_Node000004" class="edge">
<title>Node5&#45;&gt;Node4</title>
<g id="a_edge6_Node000005_Node000004"><a xlink:title=" ">
<path fill="none" stroke="#63b8ff" d="M127.55,-126.58C140.77,-118.47 154.91,-108.1 165.44,-96 182.7,-76.17 193.86,-47.13 199.36,-30.04"/>
<polygon fill="#63b8ff" stroke="#63b8ff" points="125.45,-123.75 118.59,-131.82 128.99,-129.79 125.45,-123.75"/>
</a>
</g>
</g>
<!-- Node5&#45;&gt;Node6 -->
<g id="edge8_Node000005_Node000006" class="edge">
<title>Node5&#45;&gt;Node6</title>
<g id="a_edge8_Node000005_Node000006"><a xlink:title=" ">
<path fill="none" stroke="#63b8ff" d="M89.44,-121.54C89.44,-112.96 89.44,-103.61 89.44,-96.16"/>
<polygon fill="#63b8ff" stroke="#63b8ff" points="85.94,-121.8 89.44,-131.8 92.94,-121.8 85.94,-121.8"/>
</a>
</g>
</g>
<!-- Node6&#45;&gt;Node2 -->
<g id="edge10_Node000006_Node000002" class="edge">
<title>Node6&#45;&gt;Node2</title>
<g id="a_edge10_Node000006_Node000002"><a xlink:title=" ">
<path fill="none" stroke="#63b8ff" d="M53.42,-101.19C41.43,-108.86 29.44,-119.02 22.44,-132 16.11,-143.74 17.34,-149.68 22.44,-162 43.55,-212.97 101.31,-246.52 137.08,-263.87"/>
<polygon fill="#63b8ff" stroke="#63b8ff" points="55.27,-104.16 62.07,-96.04 51.69,-98.14 55.27,-104.16"/>
</a>
</g>
</g>
<!-- Node6&#45;&gt;Node4 -->
<g id="edge9_Node000006_Node000004" class="edge">
<title>Node6&#45;&gt;Node4</title>
<g id="a_edge9_Node000006_Node000004"><a xlink:title=" ">
<path fill="none" stroke="#63b8ff" d="M123.34,-60.97C141.03,-51.03 162.31,-39.09 178.48,-30.01"/>
<polygon fill="#63b8ff" stroke="#63b8ff" points="121.46,-58.01 114.46,-65.95 124.89,-64.11 121.46,-58.01"/>
</a>
</g>
</g>
<!-- Node7&#45;&gt;Node4 -->
<g id="edge14_Node000007_Node000004" class="edge">
<title>Node7&#45;&gt;Node4</title>
<g id="a_edge14_Node000007_Node000004"><a xlink:title=" ">
<path fill="none" stroke="#63b8ff" d="M462.48,-187.89C453.14,-155.29 431.93,-97.59 392.44,-66 357.85,-38.33 309.41,-25.88 270.23,-20.32"/>
<polygon fill="#63b8ff" stroke="#63b8ff" points="459.2,-189.18 465.19,-197.91 465.95,-187.35 459.2,-189.18"/>
</a>
</g>
</g>
<!-- Node9 -->
<g id="Node000009" class="node">
<title>Node9</title>
<g id="a_Node000009"><a xlink:href="cck__f12_8ipp.html" target="_top" xlink:title=" ">
<polygon fill="white" stroke="#666666" points="383.94,-162 250.94,-162 250.94,-132 383.94,-132 383.94,-162"/>
<text text-anchor="start" x="258.94" y="-150" font-family="FreeSans" font-size="10.00">mpqc/chemistry/qc/lcao</text>
<text text-anchor="middle" x="317.44" y="-139" font-family="FreeSans" font-size="10.00">/f12/cck_f12.ipp</text>
</a>
</g>
</g>
<!-- Node8&#45;&gt;Node9 -->
<g id="edge16_Node000008_Node000009" class="edge">
<title>Node8&#45;&gt;Node9</title>
<g id="a_edge16_Node000008_Node000009"><a xlink:title=" ">
<path fill="none" stroke="#63b8ff" d="M310.87,-187.83C310.46,-179.17 310.74,-169.7 311.72,-162.16"/>
<polygon fill="#63b8ff" stroke="#63b8ff" points="307.38,-188.13 311.72,-197.8 314.36,-187.54 307.38,-188.13"/>
</a>
</g>
</g>
<!-- Node9&#45;&gt;Node8 -->
<g id="edge18_Node000009_Node000008" class="edge">
<title>Node9&#45;&gt;Node8</title>
<g id="a_edge18_Node000009_Node000008"><a xlink:title=" ">
<path fill="none" stroke="#63b8ff" d="M324,-172.13C324.42,-180.78 324.14,-190.26 323.16,-197.8"/>
<polygon fill="#63b8ff" stroke="#63b8ff" points="327.49,-171.83 323.15,-162.16 320.52,-172.43 327.49,-171.83"/>
</a>
</g>
</g>
<!-- Node10 -->
<g id="Node000010" class="node">
<title>Node10</title>
<g id="a_Node000010"><a xlink:href="cck__f12_8cpp.html" target="_top" xlink:title=" ">
<polygon fill="white" stroke="#666666" points="383.94,-96 250.94,-96 250.94,-66 383.94,-66 383.94,-96"/>
<text text-anchor="start" x="258.94" y="-84" font-family="FreeSans" font-size="10.00">mpqc/chemistry/qc/lcao</text>
<text text-anchor="middle" x="317.44" y="-73" font-family="FreeSans" font-size="10.00">/f12/cck_f12.cpp</text>
</a>
</g>
</g>
<!-- Node9&#45;&gt;Node10 -->
<g id="edge17_Node000009_Node000010" class="edge">
<title>Node9&#45;&gt;Node10</title>
<g id="a_edge17_Node000009_Node000010"><a xlink:title=" ">
<path fill="none" stroke="#63b8ff" d="M317.44,-121.54C317.44,-112.96 317.44,-103.61 317.44,-96.16"/>
<polygon fill="#63b8ff" stroke="#63b8ff" points="313.94,-121.8 317.44,-131.8 320.94,-121.8 313.94,-121.8"/>
</a>
</g>
</g>
<!-- Node12 -->
<g id="Node000012" class="node">
<title>Node12</title>
<g id="a_Node000012"><a xlink:href="eom__ip__ccsd_8ipp.html" target="_top" xlink:title=" ">
<polygon fill="white" stroke="#666666" points="633.94,-96 494.94,-96 494.94,-66 633.94,-66 633.94,-96"/>
<text text-anchor="start" x="502.94" y="-84" font-family="FreeSans" font-size="10.00">mpqc/chemistry/qc/lcao</text>
<text text-anchor="middle" x="564.44" y="-73" font-family="FreeSans" font-size="10.00">/cc/eom/eom_ip_ccsd.ipp</text>
</a>
</g>
</g>
<!-- Node11&#45;&gt;Node12 -->
<g id="edge20_Node000011_Node000012" class="edge">
<title>Node11&#45;&gt;Node12</title>
<g id="a_edge20_Node000011_Node000012"><a xlink:title=" ">
<path fill="none" stroke="#63b8ff" d="M894.81,-131.93C798.42,-115.88 698.79,-101.16 633.96,-91.84"/>
<polygon fill="#63b8ff" stroke="#63b8ff" points="894.29,-135.39 904.73,-133.59 895.45,-128.49 894.29,-135.39"/>
</a>
</g>
</g>
<!-- Node13 -->
<g id="Node000013" class="node">
<title>Node13</title>
<g id="a_Node000013"><a xlink:href="eom__ip__ccsd_8cpp.html" target="_top" xlink:title=" ">
<polygon fill="white" stroke="#666666" points="634.94,-30 493.94,-30 493.94,0 634.94,0 634.94,-30"/>
<text text-anchor="start" x="501.94" y="-18" font-family="FreeSans" font-size="10.00">mpqc/chemistry/qc/lcao</text>
<text text-anchor="middle" x="564.44" y="-7" font-family="FreeSans" font-size="10.00">/cc/eom/eom_ip_ccsd.cpp</text>
</a>
</g>
</g>
<!-- Node12&#45;&gt;Node13 -->
<g id="edge21_Node000012_Node000013" class="edge">
<title>Node12&#45;&gt;Node13</title>
<g id="a_edge21_Node000012_Node000013"><a xlink:title=" ">
<path fill="none" stroke="#63b8ff" d="M564.44,-55.54C564.44,-46.96 564.44,-37.61 564.44,-30.16"/>
<polygon fill="#63b8ff" stroke="#63b8ff" points="560.94,-55.8 564.44,-65.8 567.94,-55.8 560.94,-55.8"/>
</a>
</g>
</g>
<!-- Node14&#45;&gt;Node7 -->
<g id="edge33_Node000014_Node000007" class="edge">
<title>Node14&#45;&gt;Node7</title>
<g id="a_edge33_Node000014_Node000007"><a xlink:title=" ">
<path fill="none" stroke="#63b8ff" d="M733.15,-262.13C671.9,-250.99 591.25,-236.33 535.14,-226.13"/>
<polygon fill="#63b8ff" stroke="#63b8ff" points="732.73,-265.61 743.19,-263.95 733.98,-258.72 732.73,-265.61"/>
</a>
</g>
</g>
<!-- Node14&#45;&gt;Node12 -->
<g id="edge32_Node000014_Node000012" class="edge">
<title>Node14&#45;&gt;Node12</title>
<g id="a_edge32_Node000014_Node000012"><a xlink:title=" ">
<path fill="none" stroke="#63b8ff" d="M748.57,-261.04C694.86,-244.63 623.85,-214.35 582.44,-162 567.34,-142.91 564.38,-113.63 564.08,-96.29"/>
<polygon fill="#63b8ff" stroke="#63b8ff" points="747.8,-264.46 758.38,-263.94 749.78,-257.75 747.8,-264.46"/>
</a>
</g>
</g>
<!-- Node15 -->
<g id="Node000015" class="node">
<title>Node15</title>
<g id="a_Node000015"><a xlink:href="eom__ccsd_8ipp.html" target="_top" xlink:title=" ">
<polygon fill="white" stroke="#666666" points="1188.94,-162 1055.94,-162 1055.94,-132 1188.94,-132 1188.94,-162"/>
<text text-anchor="start" x="1063.94" y="-150" font-family="FreeSans" font-size="10.00">mpqc/chemistry/qc/lcao</text>
<text text-anchor="middle" x="1122.44" y="-139" font-family="FreeSans" font-size="10.00">/cc/eom/eom_ccsd.ipp</text>
</a>
</g>
</g>
<!-- Node14&#45;&gt;Node15 -->
<g id="edge23_Node000014_Node000015" class="edge">
<title>Node14&#45;&gt;Node15</title>
<g id="a_edge23_Node000014_Node000015"><a xlink:title=" ">
<path fill="none" stroke="#63b8ff" d="M854.14,-258.92C885.29,-241.73 933.16,-216.4 976.44,-198 1008.99,-184.17 1046.79,-171.3 1075.77,-162.09"/>
<polygon fill="#63b8ff" stroke="#63b8ff" points="852.08,-256.07 845.04,-263.98 855.48,-262.19 852.08,-256.07"/>
</a>
</g>
</g>
<!-- Node18 -->
<g id="Node000018" class="node">
<title>Node18</title>
<g id="a_Node000018"><a xlink:href="eom__ea__ccsd_8ipp.html" target="_top" xlink:title=" ">
<polygon fill="white" stroke="#666666" points="891.44,-228 749.44,-228 749.44,-198 891.44,-198 891.44,-228"/>
<text text-anchor="start" x="757.44" y="-216" font-family="FreeSans" font-size="10.00">mpqc/chemistry/qc/lcao</text>
<text text-anchor="middle" x="820.44" y="-205" font-family="FreeSans" font-size="10.00">/cc/eom/eom_ea_ccsd.ipp</text>
</a>
</g>
</g>
<!-- Node14&#45;&gt;Node18 -->
<g id="edge27_Node000014_Node000018" class="edge">
<title>Node14&#45;&gt;Node18</title>
<g id="a_edge27_Node000014_Node000018"><a xlink:title=" ">
<path fill="none" stroke="#63b8ff" d="M820.44,-253.54C820.44,-244.96 820.44,-235.61 820.44,-228.16"/>
<polygon fill="#63b8ff" stroke="#63b8ff" points="816.94,-253.8 820.44,-263.8 823.94,-253.8 816.94,-253.8"/>
</a>
</g>
</g>
<!-- Node16 -->
<g id="Node000016" class="node">
<title>Node16</title>
<g id="a_Node000016"><a xlink:href="eom__ccsd_8cpp.html" target="_top" xlink:title=" ">
<polygon fill="white" stroke="#666666" points="1339.94,-96 1206.94,-96 1206.94,-66 1339.94,-66 1339.94,-96"/>
<text text-anchor="start" x="1214.94" y="-84" font-family="FreeSans" font-size="10.00">mpqc/chemistry/qc/lcao</text>
<text text-anchor="middle" x="1273.44" y="-73" font-family="FreeSans" font-size="10.00">/cc/eom/eom_ccsd.cpp</text>
</a>
</g>
</g>
<!-- Node15&#45;&gt;Node16 -->
<g id="edge24_Node000015_Node000016" class="edge">
<title>Node15&#45;&gt;Node16</title>
<g id="a_edge24_Node000015_Node000016"><a xlink:title=" ">
<path fill="none" stroke="#63b8ff" d="M1165.1,-127.92C1188.96,-117.8 1218.27,-105.38 1240.38,-96.01"/>
<polygon fill="#63b8ff" stroke="#63b8ff" points="1163.42,-124.83 1155.58,-131.95 1166.15,-131.28 1163.42,-124.83"/>
</a>
</g>
</g>
<!-- Node17 -->
<g id="Node000017" class="node">
<title>Node17</title>
<g id="a_Node000017"><a xlink:href="eom__ccsd_8h.html" target="_top" xlink:title=" ">
<polygon fill="white" stroke="#666666" points="1188.94,-96 1055.94,-96 1055.94,-66 1188.94,-66 1188.94,-96"/>
<text text-anchor="start" x="1063.94" y="-84" font-family="FreeSans" font-size="10.00">mpqc/chemistry/qc/lcao</text>
<text text-anchor="middle" x="1122.44" y="-73" font-family="FreeSans" font-size="10.00">/cc/eom/eom_ccsd.h</text>
</a>
</g>
</g>
<!-- Node15&#45;&gt;Node17 -->
<g id="edge25_Node000015_Node000017" class="edge">
<title>Node15&#45;&gt;Node17</title>
<g id="a_edge25_Node000015_Node000017"><a xlink:title=" ">
<path fill="none" stroke="#63b8ff" d="M1115.87,-121.83C1115.46,-113.17 1115.74,-103.7 1116.72,-96.16"/>
<polygon fill="#63b8ff" stroke="#63b8ff" points="1112.38,-122.13 1116.72,-131.8 1119.36,-121.54 1112.38,-122.13"/>
</a>
</g>
</g>
<!-- Node17&#45;&gt;Node15 -->
<g id="edge26_Node000017_Node000015" class="edge">
<title>Node17&#45;&gt;Node15</title>
<g id="a_edge26_Node000017_Node000015"><a xlink:title=" ">
<path fill="none" stroke="#63b8ff" d="M1129,-106.13C1129.42,-114.78 1129.14,-124.26 1128.16,-131.8"/>
<polygon fill="#63b8ff" stroke="#63b8ff" points="1132.49,-105.83 1128.15,-96.16 1125.52,-106.43 1132.49,-105.83"/>
</a>
</g>
</g>
<!-- Node18&#45;&gt;Node11 -->
<g id="edge31_Node000018_Node000011" class="edge">
<title>Node18&#45;&gt;Node11</title>
<g id="a_edge31_Node000018_Node000011"><a xlink:title=" ">
<path fill="none" stroke="#63b8ff" d="M863.1,-193.92C886.96,-183.8 916.27,-171.38 938.38,-162.01"/>
<polygon fill="#63b8ff" stroke="#63b8ff" points="861.42,-190.83 853.58,-197.95 864.15,-197.28 861.42,-190.83"/>
</a>
</g>
</g>
<!-- Node19 -->
<g id="Node000019" class="node">
<title>Node19</title>
<g id="a_Node000019"><a xlink:href="eom__ea__ccsd_8cpp.html" target="_top" xlink:title=" ">
<polygon fill="white" stroke="#666666" points="735.44,-162 591.44,-162 591.44,-132 735.44,-132 735.44,-162"/>
<text text-anchor="start" x="599.44" y="-150" font-family="FreeSans" font-size="10.00">mpqc/chemistry/qc/lcao</text>
<text text-anchor="middle" x="663.44" y="-139" font-family="FreeSans" font-size="10.00">/cc/eom/eom_ea_ccsd.cpp</text>
</a>
</g>
</g>
<!-- Node18&#45;&gt;Node19 -->
<g id="edge28_Node000018_Node000019" class="edge">
<title>Node18&#45;&gt;Node19</title>
<g id="a_edge28_Node000018_Node000019"><a xlink:title=" ">
<path fill="none" stroke="#63b8ff" d="M776.42,-194.05C751.54,-183.91 720.9,-171.43 697.81,-162.01"/>
<polygon fill="#63b8ff" stroke="#63b8ff" points="775.4,-197.42 785.98,-197.95 778.05,-190.94 775.4,-197.42"/>
</a>
</g>
</g>
<!-- Node20 -->
<g id="Node000020" class="node">
<title>Node20</title>
<g id="a_Node000020"><a xlink:href="eom__ea__ccsd_8h.html" target="_top" xlink:title=" ">
<polygon fill="white" stroke="#666666" points="886.94,-162 753.94,-162 753.94,-132 886.94,-132 886.94,-162"/>
<text text-anchor="start" x="761.94" y="-150" font-family="FreeSans" font-size="10.00">mpqc/chemistry/qc/lcao</text>
<text text-anchor="middle" x="820.44" y="-139" font-family="FreeSans" font-size="10.00">/cc/eom/eom_ea_ccsd.h</text>
</a>
</g>
</g>
<!-- Node18&#45;&gt;Node20 -->
<g id="edge29_Node000018_Node000020" class="edge">
<title>Node18&#45;&gt;Node20</title>
<g id="a_edge29_Node000018_Node000020"><a xlink:title=" ">
<path fill="none" stroke="#63b8ff" d="M813.87,-187.83C813.46,-179.17 813.74,-169.7 814.72,-162.16"/>
<polygon fill="#63b8ff" stroke="#63b8ff" points="810.38,-188.13 814.72,-197.8 817.36,-187.54 810.38,-188.13"/>
</a>
</g>
</g>
<!-- Node20&#45;&gt;Node18 -->
<g id="edge30_Node000020_Node000018" class="edge">
<title>Node20&#45;&gt;Node18</title>
<g id="a_edge30_Node000020_Node000018"><a xlink:title=" ">
<path fill="none" stroke="#63b8ff" d="M827,-172.13C827.42,-180.78 827.14,-190.26 826.16,-197.8"/>
<polygon fill="#63b8ff" stroke="#63b8ff" points="830.49,-171.83 826.15,-162.16 823.52,-172.43 830.49,-171.83"/>
</a>
</g>
</g>
<!-- Node21&#45;&gt;Node15 -->
<g id="edge35_Node000021_Node000015" class="edge">
<title>Node21&#45;&gt;Node15</title>
<g id="a_edge35_Node000021_Node000015"><a xlink:title=" ">
<path fill="none" stroke="#63b8ff" d="M1142.76,-253.68C1137.57,-226.7 1129.38,-184.11 1125.16,-162.14"/>
<polygon fill="#63b8ff" stroke="#63b8ff" points="1139.39,-254.68 1144.72,-263.84 1146.26,-253.36 1139.39,-254.68"/>
</a>
</g>
</g>
<!-- Node22 -->
<g id="Node000022" class="node">
<title>Node22</title>
<g id="a_Node000022"><a xlink:href="cis_8cpp.html" target="_top" xlink:title=" ">
<polygon fill="white" stroke="#666666" points="1308.94,-228 1175.94,-228 1175.94,-198 1308.94,-198 1308.94,-228"/>
<text text-anchor="start" x="1183.94" y="-216" font-family="FreeSans" font-size="10.00">mpqc/chemistry/qc/lcao</text>
<text text-anchor="middle" x="1242.44" y="-205" font-family="FreeSans" font-size="10.00">/ci/cis.cpp</text>
</a>
</g>
</g>
<!-- Node21&#45;&gt;Node22 -->
<g id="edge36_Node000021_Node000022" class="edge">
<title>Node21&#45;&gt;Node22</title>
<g id="a_edge36_Node000021_Node000022"><a xlink:title=" ">
<path fill="none" stroke="#63b8ff" d="M1177.09,-258.03C1191.46,-248.34 1208.39,-236.94 1221.41,-228.16"/>
<polygon fill="#63b8ff" stroke="#63b8ff" points="1174.86,-255.31 1168.52,-263.8 1178.77,-261.11 1174.86,-255.31"/>
</a>
</g>
</g>
<!-- Node23 -->
<g id="Node000023" class="node">
<title>Node23</title>
<g id="a_Node000023"><a xlink:href="cis__d_8h.html" target="_top" xlink:title=" ">
<polygon fill="white" stroke="#666666" points="1118.94,-228 985.94,-228 985.94,-198 1118.94,-198 1118.94,-228"/>
<text text-anchor="start" x="993.94" y="-216" font-family="FreeSans" font-size="10.00">mpqc/chemistry/qc/lcao</text>
<text text-anchor="middle" x="1052.44" y="-205" font-family="FreeSans" font-size="10.00">/ci/cis_d.h</text>
</a>
</g>
</g>
<!-- Node21&#45;&gt;Node23 -->
<g id="edge37_Node000021_Node000023" class="edge">
<title>Node21&#45;&gt;Node23</title>
<g id="a_edge37_Node000021_Node000023"><a xlink:title=" ">
<path fill="none" stroke="#63b8ff" d="M1117.79,-258.03C1103.42,-248.34 1086.49,-236.94 1073.46,-228.16"/>
<polygon fill="#63b8ff" stroke="#63b8ff" points="1116.11,-261.11 1126.36,-263.8 1120.02,-255.31 1116.11,-261.11"/>
</a>
</g>
</g>
<!-- Node23&#45;&gt;Node15 -->
<g id="edge38_Node000023_Node000015" class="edge">
<title>Node23&#45;&gt;Node15</title>
<g id="a_edge38_Node000023_Node000015"><a xlink:title=" ">
<path fill="none" stroke="#63b8ff" d="M1075.49,-190.92C1085.81,-181.49 1097.71,-170.61 1106.95,-162.16"/>
<polygon fill="#63b8ff" stroke="#63b8ff" points="1072.99,-188.47 1067.97,-197.8 1077.72,-193.63 1072.99,-188.47"/>
</a>
</g>
</g>
<!-- Node25 -->
<g id="Node000025" class="node">
<title>Node25</title>
<g id="a_Node000025"><a xlink:href="sci_8ipp.html" target="_top" xlink:title=" ">
<polygon fill="white" stroke="#666666" points="1514.94,-162 1381.94,-162 1381.94,-132 1514.94,-132 1514.94,-162"/>
<text text-anchor="start" x="1389.94" y="-150" font-family="FreeSans" font-size="10.00">mpqc/chemistry/qc/lcao</text>
<text text-anchor="middle" x="1448.44" y="-139" font-family="FreeSans" font-size="10.00">/ci/sci.ipp</text>
</a>
</g>
</g>
<!-- Node24&#45;&gt;Node25 -->
<g id="edge40_Node000024_Node000025" class="edge">
<title>Node24&#45;&gt;Node25</title>
<g id="a_edge40_Node000024_Node000025"><a xlink:title=" ">
<path fill="none" stroke="#63b8ff" d="M1541.95,-254.24C1547.06,-237.4 1550.48,-214.89 1540.44,-198 1530.5,-181.28 1512.79,-169.8 1495.55,-162.11"/>
<polygon fill="#63b8ff" stroke="#63b8ff" points="1538.57,-253.29 1538.65,-263.89 1545.19,-255.56 1538.57,-253.29"/>
</a>
</g>
</g>
<!-- Node27 -->
<g id="Node000027" class="node">
<title>Node27</title>
<g id="a_Node000027"><a xlink:href="solver__1c__v2_8ipp.html" target="_top" xlink:title=" ">
<polygon fill="white" stroke="#666666" points="1719.44,-228 1587.44,-228 1587.44,-198 1719.44,-198 1719.44,-228"/>
<text text-anchor="start" x="1595.44" y="-216" font-family="FreeSans" font-size="10.00">mpqc/chemistry/qc/mra</text>
<text text-anchor="middle" x="1653.44" y="-205" font-family="FreeSans" font-size="10.00">/scf/solver_1c_v2.ipp</text>
</a>
</g>
</g>
<!-- Node24&#45;&gt;Node27 -->
<g id="edge42_Node000024_Node000027" class="edge">
<title>Node24&#45;&gt;Node27</title>
<g id="a_edge42_Node000024_Node000027"><a xlink:title=" ">
<path fill="none" stroke="#63b8ff" d="M1567.9,-259.24C1586.79,-249.25 1609.62,-237.18 1626.95,-228.01"/>
<polygon fill="#63b8ff" stroke="#63b8ff" points="1566.2,-256.19 1558.99,-263.95 1569.47,-262.37 1566.2,-256.19"/>
</a>
</g>
</g>
<!-- Node26 -->
<g id="Node000026" class="node">
<title>Node26</title>
<g id="a_Node000026"><a xlink:href="sci_8cpp.html" target="_top" xlink:title=" ">
<polygon fill="white" stroke="#666666" points="1514.94,-96 1381.94,-96 1381.94,-66 1514.94,-66 1514.94,-96"/>
<text text-anchor="start" x="1389.94" y="-84" font-family="FreeSans" font-size="10.00">mpqc/chemistry/qc/lcao</text>
<text text-anchor="middle" x="1448.44" y="-73" font-family="FreeSans" font-size="10.00">/ci/sci.cpp</text>
</a>
</g>
</g>
<!-- Node25&#45;&gt;Node26 -->
<g id="edge41_Node000025_Node000026" class="edge">
<title>Node25&#45;&gt;Node26</title>
<g id="a_edge41_Node000025_Node000026"><a xlink:title=" ">
<path fill="none" stroke="#63b8ff" d="M1448.44,-121.54C1448.44,-112.96 1448.44,-103.61 1448.44,-96.16"/>
<polygon fill="#63b8ff" stroke="#63b8ff" points="1444.94,-121.8 1448.44,-131.8 1451.94,-121.8 1444.94,-121.8"/>
</a>
</g>
</g>
<!-- Node28 -->
<g id="Node000028" class="node">
<title>Node28</title>
<g id="a_Node000028"><a xlink:href="solver_8cpp.html" target="_top" xlink:title=" ">
<polygon fill="white" stroke="#666666" points="1719.44,-162 1587.44,-162 1587.44,-132 1719.44,-132 1719.44,-162"/>
<text text-anchor="start" x="1595.44" y="-150" font-family="FreeSans" font-size="10.00">mpqc/chemistry/qc/mra</text>
<text text-anchor="middle" x="1653.44" y="-139" font-family="FreeSans" font-size="10.00">/scf/solver.cpp</text>
</a>
</g>
</g>
<!-- Node27&#45;&gt;Node28 -->
<g id="edge43_Node000027_Node000028" class="edge">
<title>Node27&#45;&gt;Node28</title>
<g id="a_edge43_Node000027_Node000028"><a xlink:title=" ">
<path fill="none" stroke="#63b8ff" d="M1653.44,-187.54C1653.44,-178.96 1653.44,-169.61 1653.44,-162.16"/>
<polygon fill="#63b8ff" stroke="#63b8ff" points="1649.94,-187.8 1653.44,-197.8 1656.94,-187.8 1649.94,-187.8"/>
</a>
</g>
</g>
<!-- Node30&#45;&gt;Node25 -->
<g id="edge46_Node000030_Node000025" class="edge">
<title>Node30&#45;&gt;Node25</title>
<g id="a_edge46_Node000030_Node000025"><a xlink:title=" ">
<path fill="none" stroke="#63b8ff" d="M1337.37,-259.24C1338.23,-241.75 1341.95,-215.76 1355.44,-198 1367.85,-181.65 1387.21,-170.03 1405.05,-162.14"/>
<polygon fill="#63b8ff" stroke="#63b8ff" points="1333.87,-259.26 1337.15,-269.34 1340.87,-259.41 1333.87,-259.26"/>
</a>
</g>
</g>
<!-- Node31 -->
<g id="Node000031" class="node">
<title>Node31</title>
<g id="a_Node000031"><a xlink:href="hamiltonian_8h.html" target="_top" xlink:title=" ">
<polygon fill="white" stroke="#666666" points="1531.94,-222.5 1364.94,-222.5 1364.94,-203.5 1531.94,-203.5 1531.94,-222.5"/>
<text text-anchor="middle" x="1448.44" y="-210.5" font-family="FreeSans" font-size="10.00">mpqc/math/fock/hamiltonian.h</text>
</a>
</g>
</g>
<!-- Node30&#45;&gt;Node31 -->
<g id="edge47_Node000030_Node000031" class="edge">
<title>Node30&#45;&gt;Node31</title>
<g id="a_edge47_Node000030_Node000031"><a xlink:title=" ">
<path fill="none" stroke="#63b8ff" d="M1361.1,-264.36C1382.95,-251.76 1414.76,-233.42 1433.35,-222.7"/>
<polygon fill="#63b8ff" stroke="#63b8ff" points="1359.32,-261.34 1352.41,-269.37 1362.82,-267.41 1359.32,-261.34"/>
</a>
</g>
</g>
<!-- Node31&#45;&gt;Node25 -->
<g id="edge48_Node000031_Node000025" class="edge">
<title>Node31&#45;&gt;Node25</title>
<g id="a_edge48_Node000031_Node000025"><a xlink:title=" ">
<path fill="none" stroke="#63b8ff" d="M1448.44,-193.35C1448.44,-183.47 1448.44,-171.51 1448.44,-162.36"/>
<polygon fill="#63b8ff" stroke="#63b8ff" points="1444.94,-193.37 1448.44,-203.37 1451.94,-193.37 1444.94,-193.37"/>
</a>
</g>
</g>
</g>
</svg>

<g id="navigator" transform="translate(0 0)" fill="#404254">
  <rect fill="#f2f5e9" fill-opacity="0.5" stroke="#606060" stroke-width=".5" x="0" y="0" width="60" height="60"/>
  <use id="zoomplus" xlink:href="#zoomPlus" x="17" y="9" onmousedown="handleZoom(evt,'in')"/>
  <use id="zoomminus" xlink:href="#zoomMin" x="42" y="9" onmousedown="handleZoom(evt,'out')"/>
  <use id="reset" xlink:href="#resetDef" x="30" y="36" onmousedown="handleReset()"/>
   <use id="arrowup" xlink:href="#arrowUp" x="0" y="0" onmousedown="handlePan(0,-1)"/>
  <use id="arrowright" xlink:href="#arrowRight" x="0" y="0" onmousedown="handlePan(1,0)"/>
  <use id="arrowdown" xlink:href="#arrowDown" x="0" y="0" onmousedown="handlePan(0,1)"/>
  <use id="arrowleft" xlink:href="#arrowLeft" x="0" y="0" onmousedown="handlePan(-1,0)"/>
</g>
<svg viewBox="0 0 15 15" width="100%" height="30px" preserveAspectRatio="xMaxYMin meet">
 <g id="arrow_out" transform="scale(0.3 0.3)">
  <a xlink:href="davidson__solver_8h__dep__incl_org.svg" target="_base">
   <rect id="button" ry="5" rx="5" y="6" x="6" height="38" width="38"
        fill="#f2f5e9" fill-opacity="0.5" stroke="#606060" stroke-width="1.0"/>
   <path id="arrow"
     d="M 11.500037,31.436501 C 11.940474,20.09759 22.043105,11.32322 32.158766,21.979434 L 37.068811,17.246167 C 37.068811,17.246167 37.088388,32 37.088388,32 L 22.160133,31.978069 C 22.160133,31.978069 26.997745,27.140456 26.997745,27.140456 C 18.528582,18.264221 13.291696,25.230495 11.500037,31.436501 z"
     style="fill:#404040;"/>
  </a>
 </g>
</svg>

<style type='text/css'>
<![CDATA[
[data-mouse-over-selected='false'] { opacity: 0.7; }
[data-mouse-over-selected='true']  { opacity: 1.0; }
]]>
</style>
<script type="application/ecmascript"><![CDATA[
document.addEventListener('DOMContentLoaded', (event) => {
  highlightEdges();
  highlightAdjacentNodes();
});
]]></script>
</svg>
