<?xml version="1.0" encoding="UTF-8" standalone="no"?>
<!DOCTYPE svg PUBLIC "-//W3C//DTD SVG 1.1//EN"
 "http://www.w3.org/Graphics/SVG/1.1/DTD/svg11.dtd">
<!-- Generated by graphviz version 2.43.0 (0)
 -->
<!-- Title: mpqc/math/tensor/clr/decomposed_tensor_subtraction.h Pages: 1 -->
<!--zoomable 742 -->

<svg id="main" version="1.1" xmlns="http://www.w3.org/2000/svg" xmlns:xlink="http://www.w3.org/1999/xlink" xml:space="preserve" onload="init(evt)">
<style type="text/css"><![CDATA[
.node, .edge {opacity: 0.7;}
.node.selected, .edge.selected {opacity: 1;}
.edge:hover path { stroke: red; }
.edge:hover polygon { stroke: red; fill: red; }
]]></style>

<defs>
  <circle id="rim" cx="0" cy="0" r="7"/>
  <circle id="rim2" cx="0" cy="0" r="3.5"/>
  <g id="zoomPlus">
    <use xlink:href="#rim" fill="#404040"><set attributeName="fill" to="#808080" begin="zoomplus.mouseover" end="zoomplus.mouseout"/></use>
    <path d="M-4,0h8M0,-4v8" fill="none" stroke="white" stroke-width="1.5" pointer-events="none"/>
  </g>
  <g id="zoomMin">
    <use xlink:href="#rim" fill="#404040"><set attributeName="fill" to="#808080" begin="zoomminus.mouseover" end="zoomminus.mouseout"/></use>
    <path d="M-4,0h8" fill="none" stroke="white" stroke-width="1.5" pointer-events="none"/>
  </g>
  <g id="arrowUp" transform="translate(30 24)">
    <use xlink:href="#rim"/>
    <path pointer-events="none" fill="none" stroke="white" stroke-width="1.5" d="M0,-3.0v7 M-2.5,-0.5L0,-3.0L2.5,-0.5"/>
  </g>
  <g id="arrowRight" transform="rotate(90) translate(36 -43)">
    <use xlink:href="#rim"/>
    <path pointer-events="none" fill="none" stroke="white" stroke-width="1.5" d="M0,-3.0v7 M-2.5,-0.5L0,-3.0L2.5,-0.5"/>
  </g>
  <g id="arrowDown" transform="rotate(180) translate(-30 -48)">
    <use xlink:href="#rim"/>
    <path pointer-events="none" fill="none" stroke="white" stroke-width="1.5" d="M0,-3.0v7 M-2.5,-0.5L0,-3.0L2.5,-0.5"/>
  </g>
  <g id="arrowLeft" transform="rotate(270) translate(-36 17)">
    <use xlink:href="#rim"/>
    <path pointer-events="none" fill="none" stroke="white" stroke-width="1.5" d="M0,-3.0v7 M-2.5,-0.5L0,-3.0L2.5,-0.5"/>
  </g>
  <g id="resetDef">
    <use xlink:href="#rim2" fill="#404040"><set attributeName="fill" to="#808080" begin="reset.mouseover" end="reset.mouseout"/></use>
  </g>
</defs>
<script type="application/ecmascript">
var viewWidth = 1135;
var viewHeight = 742;
var sectionId = 'dynsection-0';
</script>
<script type="application/ecmascript" xlink:href="svg.min.js"/>
<svg id="graph" class="graph">
<g id="viewport">
<title>mpqc/math/tensor/clr/decomposed_tensor_subtraction.h</title>
<!-- Node1 -->
<g id="Node000001" class="node">
<title>Node1</title>
<g id="a_Node000001"><a xlink:title=" ">
<polygon fill="#999999" stroke="#666666" points="453.5,-734 266.5,-734 266.5,-704 453.5,-704 453.5,-734"/>
<text text-anchor="start" x="274.5" y="-722" font-family="FreeSans" font-size="10.00">mpqc/math/tensor/clr</text>
<text text-anchor="middle" x="360" y="-711" font-family="FreeSans" font-size="10.00">/decomposed_tensor_subtraction.h</text>
</a>
</g>
</g>
<!-- Node2 -->
<g id="Node000002" class="node">
<title>Node2</title>
<g id="a_Node000002"><a xlink:href="tiledarray_8h.html" target="_top" xlink:title=" ">
<polygon fill="white" stroke="#666666" points="857.5,-519.5 732.5,-519.5 732.5,-489.5 857.5,-489.5 857.5,-519.5"/>
<text text-anchor="start" x="740.5" y="-507.5" font-family="FreeSans" font-size="10.00">mpqc/math/external</text>
<text text-anchor="middle" x="795" y="-496.5" font-family="FreeSans" font-size="10.00">/tiledarray/tiledarray.h</text>
</a>
</g>
</g>
<!-- Node1&#45;&gt;Node2 -->
<g id="edge1_Node000001_Node000002" class="edge">
<title>Node1&#45;&gt;Node2</title>
<g id="a_edge1_Node000001_Node000002"><a xlink:title=" ">
<path fill="none" stroke="#63b8ff" d="M453.75,-715.78C548.91,-708.27 693.61,-681.43 776,-591 791.07,-574.46 795.09,-548.69 795.79,-529.77"/>
<polygon fill="#63b8ff" stroke="#63b8ff" points="799.29,-529.56 795.87,-519.53 792.29,-529.51 799.29,-529.56"/>
</a>
</g>
</g>
<!-- Node4 -->
<g id="Node000004" class="node">
<title>Node4</title>
<g id="a_Node000004"><a xlink:href="decomposed__tensor_8h.html" target="_top" xlink:title=" ">
<polygon fill="white" stroke="#666666" points="383,-316 257,-316 257,-286 383,-286 383,-316"/>
<text text-anchor="start" x="265" y="-304" font-family="FreeSans" font-size="10.00">mpqc/math/tensor/clr</text>
<text text-anchor="middle" x="320" y="-293" font-family="FreeSans" font-size="10.00">/decomposed_tensor.h</text>
</a>
</g>
</g>
<!-- Node1&#45;&gt;Node4 -->
<g id="edge4_Node000001_Node000004" class="edge">
<title>Node1&#45;&gt;Node4</title>
<g id="a_edge4_Node000001_Node000004"><a xlink:title=" ">
<path fill="none" stroke="#63b8ff" d="M283.21,-703.98C177.48,-682.45 0,-637.33 0,-577 0,-577 0,-577 0,-432 0,-383.87 31.12,-375.73 73,-352 126.35,-321.77 195.32,-309.66 246.82,-304.88"/>
<polygon fill="#63b8ff" stroke="#63b8ff" points="247.21,-308.36 256.87,-304.02 246.61,-301.39 247.21,-308.36"/>
</a>
</g>
</g>
<!-- Node18 -->
<g id="Node000018" class="node">
<title>Node18</title>
<g id="a_Node000018"><a xlink:href="decomposed__tensor__addition_8h.html" target="_top" xlink:title=" ">
<polygon fill="white" stroke="#666666" points="478,-448 306,-448 306,-418 478,-418 478,-448"/>
<text text-anchor="start" x="314" y="-436" font-family="FreeSans" font-size="10.00">mpqc/math/tensor/clr</text>
<text text-anchor="middle" x="392" y="-425" font-family="FreeSans" font-size="10.00">/decomposed_tensor_addition.h</text>
</a>
</g>
</g>
<!-- Node1&#45;&gt;Node18 -->
<g id="edge22_Node000001_Node000018" class="edge">
<title>Node1&#45;&gt;Node18</title>
<g id="a_edge22_Node000001_Node000018"><a xlink:title=" ">
<path fill="none" stroke="#63b8ff" d="M305.75,-703.9C287.7,-696.34 269.53,-684.96 259,-668 249.39,-652.52 253.65,-644.42 259,-627 280.68,-556.42 338.45,-488.93 370.25,-455.61"/>
<polygon fill="#63b8ff" stroke="#63b8ff" points="372.92,-457.89 377.37,-448.27 367.89,-453.01 372.92,-457.89"/>
</a>
</g>
</g>
<!-- Node31 -->
<g id="Node000031" class="node">
<title>Node31</title>
<g id="a_Node000031"><a xlink:href="decomposed__tensor__nonintrusive__interface_8h.html" target="_top" xlink:title=" ">
<polygon fill="white" stroke="#666666" points="452,-668 268,-668 268,-627 452,-627 452,-668"/>
<text text-anchor="start" x="276" y="-656" font-family="FreeSans" font-size="10.00">mpqc/math/tensor/clr</text>
<text text-anchor="start" x="276" y="-645" font-family="FreeSans" font-size="10.00">/decomposed_tensor_nonintrusive</text>
<text text-anchor="middle" x="360" y="-634" font-family="FreeSans" font-size="10.00">_interface.h</text>
</a>
</g>
</g>
<!-- Node1&#45;&gt;Node31 -->
<g id="edge41_Node000001_Node000031" class="edge">
<title>Node1&#45;&gt;Node31</title>
<g id="a_edge41_Node000001_Node000031"><a xlink:title=" ">
<path fill="none" stroke="#63b8ff" d="M354.45,-703.94C353.47,-696.52 353.09,-687.14 353.31,-678.2"/>
<polygon fill="#63b8ff" stroke="#63b8ff" points="356.82,-678.25 353.86,-668.07 349.83,-677.87 356.82,-678.25"/>
</a>
</g>
</g>
<!-- Node36 -->
<g id="Node000036" class="node">
<title>Node36</title>
<g id="a_Node000036"><a xlink:href="decomposed__tensor__unary_8h.html" target="_top" xlink:title=" ">
<polygon fill="white" stroke="#666666" points="767,-591 609,-591 609,-561 767,-561 767,-591"/>
<text text-anchor="start" x="617" y="-579" font-family="FreeSans" font-size="10.00">mpqc/math/tensor/clr</text>
<text text-anchor="middle" x="688" y="-568" font-family="FreeSans" font-size="10.00">/decomposed_tensor_unary.h</text>
</a>
</g>
</g>
<!-- Node1&#45;&gt;Node36 -->
<g id="edge61_Node000001_Node000036" class="edge">
<title>Node1&#45;&gt;Node36</title>
<g id="a_edge61_Node000001_Node000036"><a xlink:title=" ">
<path fill="none" stroke="#63b8ff" d="M392.65,-703.96C452.42,-678.27 579.36,-623.7 645.67,-595.2"/>
<polygon fill="#63b8ff" stroke="#63b8ff" points="647.19,-598.35 655,-591.19 644.43,-591.92 647.19,-598.35"/>
</a>
</g>
</g>
<!-- Node2&#45;&gt;Node2 -->
<g id="edge2_Node000002_Node000002" class="edge">
<title>Node2&#45;&gt;Node2</title>
<g id="a_edge2_Node000002_Node000002"><a xlink:title=" ">
<path fill="none" stroke="#63b8ff" d="M857.78,-516.7C868.26,-514.99 875.5,-510.93 875.5,-504.5 875.5,-500.38 872.53,-497.24 867.64,-495.06"/>
<polygon fill="#63b8ff" stroke="#63b8ff" points="868.35,-491.62 857.78,-492.3 866.47,-498.36 868.35,-491.62"/>
</a>
</g>
</g>
<!-- Node3 -->
<g id="Node000003" class="node">
<title>Node3</title>
<g id="a_Node000003"><a xlink:title=" ">
<polygon fill="#e0e0e0" stroke="#999999" points="818.5,-129 701.5,-129 701.5,-110 818.5,-110 818.5,-129"/>
<text text-anchor="middle" x="760" y="-117" font-family="FreeSans" font-size="10.00">mpqc/mpqc_config.h</text>
</a>
</g>
</g>
<!-- Node2&#45;&gt;Node3 -->
<g id="edge3_Node000002_Node000003" class="edge">
<title>Node2&#45;&gt;Node3</title>
<g id="a_edge3_Node000002_Node000003"><a xlink:title=" ">
<path fill="none" stroke="#63b8ff" d="M857.84,-491.22C954.09,-470.58 1127,-425.51 1127,-368 1127,-368 1127,-368 1127,-239.5 1127,-188.26 1085.57,-186.38 1039,-165 971.93,-134.21 887.32,-124.24 828.95,-121.26"/>
<polygon fill="#63b8ff" stroke="#63b8ff" points="828.88,-117.75 818.74,-120.79 828.57,-124.74 828.88,-117.75"/>
</a>
</g>
</g>
<!-- Node5 -->
<g id="Node000005" class="node">
<title>Node5</title>
<g id="a_Node000005"><a xlink:title=" ">
<polygon fill="#e0e0e0" stroke="#999999" points="525.5,-250 416.5,-250 416.5,-231 525.5,-231 525.5,-250"/>
<text text-anchor="middle" x="471" y="-238" font-family="FreeSans" font-size="10.00">TiledArray/tensor.h</text>
</a>
</g>
</g>
<!-- Node4&#45;&gt;Node5 -->
<g id="edge5_Node000004_Node000005" class="edge">
<title>Node4&#45;&gt;Node5</title>
<g id="a_edge5_Node000004_Node000005"><a xlink:title=" ">
<path fill="none" stroke="#63b8ff" d="M356.17,-285.99C381.47,-276.18 414.96,-263.21 439.24,-253.81"/>
<polygon fill="#63b8ff" stroke="#63b8ff" points="440.64,-257.02 448.7,-250.14 438.11,-250.49 440.64,-257.02"/>
</a>
</g>
</g>
<!-- Node6 -->
<g id="Node000006" class="node">
<title>Node6</title>
<g id="a_Node000006"><a xlink:title=" ">
<polygon fill="#e0e0e0" stroke="#999999" points="319.5,-250 224.5,-250 224.5,-231 319.5,-231 319.5,-250"/>
<text text-anchor="middle" x="272" y="-238" font-family="FreeSans" font-size="10.00">tiledarray_fwd.h</text>
</a>
</g>
</g>
<!-- Node4&#45;&gt;Node6 -->
<g id="edge6_Node000004_Node000006" class="edge">
<title>Node4&#45;&gt;Node6</title>
<g id="a_edge6_Node000004_Node000006"><a xlink:title=" ">
<path fill="none" stroke="#63b8ff" d="M308.38,-285.84C301.56,-277.52 292.89,-266.96 285.73,-258.23"/>
<polygon fill="#63b8ff" stroke="#63b8ff" points="288.24,-255.78 279.19,-250.27 282.83,-260.22 288.24,-255.78"/>
</a>
</g>
</g>
<!-- Node7 -->
<g id="Node000007" class="node">
<title>Node7</title>
<g id="a_Node000007"><a xlink:title=" ">
<polygon fill="#e0e0e0" stroke="#999999" points="398,-250 338,-250 338,-231 398,-231 398,-250"/>
<text text-anchor="middle" x="368" y="-238" font-family="FreeSans" font-size="10.00">iostream</text>
</a>
</g>
</g>
<!-- Node4&#45;&gt;Node7 -->
<g id="edge7_Node000004_Node000007" class="edge">
<title>Node4&#45;&gt;Node7</title>
<g id="a_edge7_Node000004_Node000007"><a xlink:title=" ">
<path fill="none" stroke="#63b8ff" d="M331.62,-285.84C338.44,-277.52 347.11,-266.96 354.27,-258.23"/>
<polygon fill="#63b8ff" stroke="#63b8ff" points="357.17,-260.22 360.81,-250.27 351.76,-255.78 357.17,-260.22"/>
</a>
</g>
</g>
<!-- Node8 -->
<g id="Node000008" class="node">
<title>Node8</title>
<g id="a_Node000008"><a xlink:title=" ">
<polygon fill="#e0e0e0" stroke="#999999" points="153.5,-19 106.5,-19 106.5,0 153.5,0 153.5,-19"/>
<text text-anchor="middle" x="130" y="-7" font-family="FreeSans" font-size="10.00">vector</text>
</a>
</g>
</g>
<!-- Node4&#45;&gt;Node8 -->
<g id="edge8_Node000004_Node000008" class="edge">
<title>Node4&#45;&gt;Node8</title>
<g id="a_edge8_Node000004_Node000008"><a xlink:title=" ">
<path fill="none" stroke="#63b8ff" d="M256.79,-293.94C189.32,-283.57 92,-255.68 92,-181 92,-181 92,-181 92,-118.5 92,-85.02 108.45,-48.84 119.7,-28.01"/>
<polygon fill="#63b8ff" stroke="#63b8ff" points="122.87,-29.53 124.72,-19.1 116.76,-26.1 122.87,-29.53"/>
</a>
</g>
</g>
<!-- Node9 -->
<g id="Node000009" class="node">
<title>Node9</title>
<g id="a_Node000009"><a xlink:href="assert_8h.html" target="_top" xlink:title=" ">
<polygon fill="white" stroke="#666666" points="324.5,-189.5 193.5,-189.5 193.5,-170.5 324.5,-170.5 324.5,-189.5"/>
<text text-anchor="middle" x="259" y="-177.5" font-family="FreeSans" font-size="10.00">mpqc/util/misc/assert.h</text>
</a>
</g>
</g>
<!-- Node4&#45;&gt;Node9 -->
<g id="edge9_Node000004_Node000009" class="edge">
<title>Node4&#45;&gt;Node9</title>
<g id="a_edge9_Node000004_Node000009"><a xlink:title=" ">
<path fill="none" stroke="#63b8ff" d="M262.56,-285.95C244.16,-278.44 225.78,-267.07 215,-250 203.31,-231.48 221.65,-210.25 238.09,-196.29"/>
<polygon fill="#63b8ff" stroke="#63b8ff" points="240.71,-198.67 246.35,-189.7 236.35,-193.2 240.71,-198.67"/>
</a>
</g>
</g>
<!-- Node9&#45;&gt;Node3 -->
<g id="edge10_Node000009_Node000003" class="edge">
<title>Node9&#45;&gt;Node3</title>
<g id="a_edge10_Node000009_Node000003"><a xlink:title=" ">
<path fill="none" stroke="#63b8ff" d="M301.34,-170.48C311.98,-168.51 323.38,-166.54 334,-165 459.52,-146.76 606.89,-133.07 691.27,-125.97"/>
<polygon fill="#63b8ff" stroke="#63b8ff" points="691.57,-129.45 701.24,-125.13 690.99,-122.48 691.57,-129.45"/>
</a>
</g>
</g>
<!-- Node10 -->
<g id="Node000010" class="node">
<title>Node10</title>
<g id="a_Node000010"><a xlink:title=" ">
<polygon fill="#e0e0e0" stroke="#999999" points="402,-129 350,-129 350,-110 402,-110 402,-129"/>
<text text-anchor="middle" x="376" y="-117" font-family="FreeSans" font-size="10.00">cassert</text>
</a>
</g>
</g>
<!-- Node9&#45;&gt;Node10 -->
<g id="edge11_Node000009_Node000010" class="edge">
<title>Node9&#45;&gt;Node10</title>
<g id="a_edge11_Node000009_Node000010"><a xlink:title=" ">
<path fill="none" stroke="#63b8ff" d="M276.01,-170.49C295.42,-160.79 327.39,-144.81 349.94,-133.53"/>
<polygon fill="#63b8ff" stroke="#63b8ff" points="351.59,-136.62 358.97,-129.02 348.46,-130.36 351.59,-136.62"/>
</a>
</g>
</g>
<!-- Node11 -->
<g id="Node000011" class="node">
<title>Node11</title>
<g id="a_Node000011"><a xlink:href="exception_8h.html" target="_top" xlink:title=" ">
<polygon fill="white" stroke="#666666" points="332,-129 186,-129 186,-110 332,-110 332,-129"/>
<text text-anchor="middle" x="259" y="-117" font-family="FreeSans" font-size="10.00">mpqc/util/core/exception.h</text>
</a>
</g>
</g>
<!-- Node9&#45;&gt;Node11 -->
<g id="edge12_Node000009_Node000011" class="edge">
<title>Node9&#45;&gt;Node11</title>
<g id="a_edge12_Node000009_Node000011"><a xlink:title=" ">
<path fill="none" stroke="#63b8ff" d="M259,-170.37C259,-162.25 259,-149.81 259,-139.39"/>
<polygon fill="#63b8ff" stroke="#63b8ff" points="262.5,-139.17 259,-129.17 255.5,-139.17 262.5,-139.17"/>
</a>
</g>
</g>
<!-- Node11&#45;&gt;Node8 -->
<g id="edge18_Node000011_Node000008" class="edge">
<title>Node11&#45;&gt;Node8</title>
<g id="a_edge18_Node000011_Node000008"><a xlink:title=" ">
<path fill="none" stroke="#63b8ff" d="M214.04,-109.96C191.7,-103.56 165.92,-92.58 149,-74 137.86,-61.77 133.24,-43.25 131.33,-29.36"/>
<polygon fill="#63b8ff" stroke="#63b8ff" points="134.77,-28.62 130.28,-19.03 127.81,-29.33 134.77,-28.62"/>
</a>
</g>
</g>
<!-- Node12 -->
<g id="Node000012" class="node">
<title>Node12</title>
<g id="a_Node000012"><a xlink:title=" ">
<polygon fill="#e0e0e0" stroke="#999999" points="211.5,-74 158.5,-74 158.5,-55 211.5,-55 211.5,-74"/>
<text text-anchor="middle" x="185" y="-62" font-family="FreeSans" font-size="10.00">string.h</text>
</a>
</g>
</g>
<!-- Node11&#45;&gt;Node12 -->
<g id="edge13_Node000011_Node000012" class="edge">
<title>Node11&#45;&gt;Node12</title>
<g id="a_edge13_Node000011_Node000012"><a xlink:title=" ">
<path fill="none" stroke="#63b8ff" d="M247.11,-109.98C235.85,-101.92 218.71,-89.65 205.29,-80.03"/>
<polygon fill="#63b8ff" stroke="#63b8ff" points="207.27,-77.15 197.11,-74.17 203.2,-82.84 207.27,-77.15"/>
</a>
</g>
</g>
<!-- Node13 -->
<g id="Node000013" class="node">
<title>Node13</title>
<g id="a_Node000013"><a xlink:href="memory.html" target="_top" xlink:title=" ">
<polygon fill="white" stroke="#666666" points="288,-74 230,-74 230,-55 288,-55 288,-74"/>
<text text-anchor="middle" x="259" y="-62" font-family="FreeSans" font-size="10.00">memory</text>
</a>
</g>
</g>
<!-- Node11&#45;&gt;Node13 -->
<g id="edge14_Node000011_Node000013" class="edge">
<title>Node11&#45;&gt;Node13</title>
<g id="a_edge14_Node000011_Node000013"><a xlink:title=" ">
<path fill="none" stroke="#63b8ff" d="M259,-109.75C259,-102.8 259,-92.85 259,-84.13"/>
<polygon fill="#63b8ff" stroke="#63b8ff" points="262.5,-84.09 259,-74.09 255.5,-84.09 262.5,-84.09"/>
</a>
</g>
</g>
<!-- Node14 -->
<g id="Node000014" class="node">
<title>Node14</title>
<g id="a_Node000014"><a xlink:title=" ">
<polygon fill="#e0e0e0" stroke="#999999" points="380,-74 324,-74 324,-55 380,-55 380,-74"/>
<text text-anchor="middle" x="352" y="-62" font-family="FreeSans" font-size="10.00">sstream</text>
</a>
</g>
</g>
<!-- Node11&#45;&gt;Node14 -->
<g id="edge16_Node000011_Node000014" class="edge">
<title>Node11&#45;&gt;Node14</title>
<g id="a_edge16_Node000011_Node000014"><a xlink:title=" ">
<path fill="none" stroke="#63b8ff" d="M273.94,-109.98C288.5,-101.69 310.87,-88.94 327.93,-79.22"/>
<polygon fill="#63b8ff" stroke="#63b8ff" points="329.83,-82.16 336.79,-74.17 326.36,-76.08 329.83,-82.16"/>
</a>
</g>
</g>
<!-- Node15 -->
<g id="Node000015" class="node">
<title>Node15</title>
<g id="a_Node000015"><a xlink:title=" ">
<polygon fill="#e0e0e0" stroke="#999999" points="463.5,-74 398.5,-74 398.5,-55 463.5,-55 463.5,-74"/>
<text text-anchor="middle" x="431" y="-62" font-family="FreeSans" font-size="10.00">stdexcept</text>
</a>
</g>
</g>
<!-- Node11&#45;&gt;Node15 -->
<g id="edge17_Node000011_Node000015" class="edge">
<title>Node11&#45;&gt;Node15</title>
<g id="a_edge17_Node000011_Node000015"><a xlink:title=" ">
<path fill="none" stroke="#63b8ff" d="M286.63,-109.98C315.51,-101.09 361.01,-87.07 393.2,-77.15"/>
<polygon fill="#63b8ff" stroke="#63b8ff" points="394.62,-80.37 403.15,-74.08 392.56,-73.68 394.62,-80.37"/>
</a>
</g>
</g>
<!-- Node16 -->
<g id="Node000016" class="node">
<title>Node16</title>
<g id="a_Node000016"><a xlink:href="backtrace_8h.html" target="_top" xlink:title=" ">
<polygon fill="white" stroke="#666666" points="628,-74 482,-74 482,-55 628,-55 628,-74"/>
<text text-anchor="middle" x="555" y="-62" font-family="FreeSans" font-size="10.00">mpqc/util/core/backtrace.h</text>
</a>
</g>
</g>
<!-- Node11&#45;&gt;Node16 -->
<g id="edge19_Node000011_Node000016" class="edge">
<title>Node11&#45;&gt;Node16</title>
<g id="a_edge19_Node000011_Node000016"><a xlink:title=" ">
<path fill="none" stroke="#63b8ff" d="M306.56,-109.98C358.4,-100.7 441.39,-85.84 497.01,-75.88"/>
<polygon fill="#63b8ff" stroke="#63b8ff" points="497.84,-79.29 507.07,-74.08 496.61,-72.4 497.84,-79.29"/>
</a>
</g>
</g>
<!-- Node13&#45;&gt;Node13 -->
<g id="edge15_Node000013_Node000013" class="edge">
<title>Node13&#45;&gt;Node13</title>
<g id="a_edge15_Node000013_Node000013"><a xlink:title=" ">
<path fill="none" stroke="#63b8ff" d="M281.24,-74.07C294.06,-76.02 306,-72.83 306,-64.5 306,-58.45 299.7,-55.11 291.34,-54.48"/>
<polygon fill="#63b8ff" stroke="#63b8ff" points="291.08,-50.99 281.24,-54.93 291.39,-57.98 291.08,-50.99"/>
</a>
</g>
</g>
<!-- Node16&#45;&gt;Node8 -->
<g id="edge21_Node000016_Node000008" class="edge">
<title>Node16&#45;&gt;Node8</title>
<g id="a_edge21_Node000016_Node000008"><a xlink:title=" ">
<path fill="none" stroke="#63b8ff" d="M486.72,-54.98C394.32,-43.46 233.04,-23.35 163.49,-14.68"/>
<polygon fill="#63b8ff" stroke="#63b8ff" points="163.88,-11.2 153.53,-13.43 163.02,-18.14 163.88,-11.2"/>
</a>
</g>
</g>
<!-- Node17 -->
<g id="Node000017" class="node">
<title>Node17</title>
<g id="a_Node000017"><a xlink:title=" ">
<polygon fill="#e0e0e0" stroke="#999999" points="577,-19 533,-19 533,0 577,0 577,-19"/>
<text text-anchor="middle" x="555" y="-7" font-family="FreeSans" font-size="10.00">string</text>
</a>
</g>
</g>
<!-- Node16&#45;&gt;Node17 -->
<g id="edge20_Node000016_Node000017" class="edge">
<title>Node16&#45;&gt;Node17</title>
<g id="a_edge20_Node000016_Node000017"><a xlink:title=" ">
<path fill="none" stroke="#63b8ff" d="M555,-54.75C555,-47.8 555,-37.85 555,-29.13"/>
<polygon fill="#63b8ff" stroke="#63b8ff" points="558.5,-29.09 555,-19.09 551.5,-29.09 558.5,-29.09"/>
</a>
</g>
</g>
<!-- Node18&#45;&gt;Node4 -->
<g id="edge23_Node000018_Node000004" class="edge">
<title>Node18&#45;&gt;Node4</title>
<g id="a_edge23_Node000018_Node000004"><a xlink:title=" ">
<path fill="none" stroke="#63b8ff" d="M384.16,-417.84C371.82,-395.57 347.76,-352.13 332.87,-325.23"/>
<polygon fill="#63b8ff" stroke="#63b8ff" points="335.74,-323.19 327.83,-316.14 329.62,-326.59 335.74,-323.19"/>
</a>
</g>
</g>
<!-- Node19 -->
<g id="Node000019" class="node">
<title>Node19</title>
<g id="a_Node000019"><a xlink:href="decomposed__tensor__algebra_8h.html" target="_top" xlink:title=" ">
<polygon fill="white" stroke="#666666" points="668.5,-382 499.5,-382 499.5,-352 668.5,-352 668.5,-382"/>
<text text-anchor="start" x="507.5" y="-370" font-family="FreeSans" font-size="10.00">mpqc/math/tensor/clr</text>
<text text-anchor="middle" x="584" y="-359" font-family="FreeSans" font-size="10.00">/decomposed_tensor_algebra.h</text>
</a>
</g>
</g>
<!-- Node18&#45;&gt;Node19 -->
<g id="edge24_Node000018_Node000019" class="edge">
<title>Node18&#45;&gt;Node19</title>
<g id="a_edge24_Node000018_Node000019"><a xlink:title=" ">
<path fill="none" stroke="#63b8ff" d="M434.14,-417.95C463.02,-408.33 501.53,-395.49 532.27,-385.24"/>
<polygon fill="#63b8ff" stroke="#63b8ff" points="533.58,-388.5 541.96,-382.01 531.37,-381.85 533.58,-388.5"/>
</a>
</g>
</g>
<!-- Node19&#45;&gt;Node4 -->
<g id="edge39_Node000019_Node000004" class="edge">
<title>Node19&#45;&gt;Node4</title>
<g id="a_edge39_Node000019_Node000004"><a xlink:title=" ">
<path fill="none" stroke="#63b8ff" d="M526.06,-351.95C485.23,-342.06 430.41,-328.77 387.58,-318.38"/>
<polygon fill="#63b8ff" stroke="#63b8ff" points="388.34,-314.97 377.8,-316.01 386.69,-321.77 388.34,-314.97"/>
</a>
</g>
</g>
<!-- Node19&#45;&gt;Node5 -->
<g id="edge25_Node000019_Node000005" class="edge">
<title>Node19&#45;&gt;Node5</title>
<g id="a_edge25_Node000019_Node000005"><a xlink:title=" ">
<path fill="none" stroke="#63b8ff" d="M571.04,-351.72C549.88,-328.41 508.05,-282.33 485.78,-257.78"/>
<polygon fill="#63b8ff" stroke="#63b8ff" points="488.09,-255.12 478.78,-250.07 482.91,-259.83 488.09,-255.12"/>
</a>
</g>
</g>
<!-- Node20 -->
<g id="Node000020" class="node">
<title>Node20</title>
<g id="a_Node000020"><a xlink:href="eigen_8h.html" target="_top" xlink:title=" ">
<polygon fill="white" stroke="#666666" points="789,-316 673,-316 673,-286 789,-286 789,-316"/>
<text text-anchor="start" x="681" y="-304" font-family="FreeSans" font-size="10.00">mpqc/math/external</text>
<text text-anchor="middle" x="731" y="-293" font-family="FreeSans" font-size="10.00">/eigen/eigen.h</text>
</a>
</g>
</g>
<!-- Node19&#45;&gt;Node20 -->
<g id="edge26_Node000019_Node000020" class="edge">
<title>Node19&#45;&gt;Node20</title>
<g id="a_edge26_Node000019_Node000020"><a xlink:title=" ">
<path fill="none" stroke="#63b8ff" d="M616.26,-351.95C637.8,-342.58 666.33,-330.16 689.55,-320.05"/>
<polygon fill="#63b8ff" stroke="#63b8ff" points="691.04,-323.21 698.82,-316.01 688.25,-316.8 691.04,-323.21"/>
</a>
</g>
</g>
<!-- Node30 -->
<g id="Node000030" class="node">
<title>Node30</title>
<g id="a_Node000030"><a xlink:title=" ">
<polygon fill="#e0e0e0" stroke="#999999" points="610,-310.5 558,-310.5 558,-291.5 610,-291.5 610,-310.5"/>
<text text-anchor="middle" x="584" y="-298.5" font-family="FreeSans" font-size="10.00">blas.hh</text>
</a>
</g>
</g>
<!-- Node19&#45;&gt;Node30 -->
<g id="edge40_Node000019_Node000030" class="edge">
<title>Node19&#45;&gt;Node30</title>
<g id="a_edge40_Node000019_Node000030"><a xlink:title=" ">
<path fill="none" stroke="#63b8ff" d="M584,-351.8C584,-342.7 584,-330.79 584,-320.9"/>
<polygon fill="#63b8ff" stroke="#63b8ff" points="587.5,-320.84 584,-310.84 580.5,-320.84 587.5,-320.84"/>
</a>
</g>
</g>
<!-- Node20&#45;&gt;Node3 -->
<g id="edge35_Node000020_Node000003" class="edge">
<title>Node20&#45;&gt;Node3</title>
<g id="a_edge35_Node000020_Node000003"><a xlink:title=" ">
<path fill="none" stroke="#63b8ff" d="M789.09,-297.76C857.76,-291.63 969.37,-269.94 1022,-195 1029.66,-184.09 1030.6,-175.19 1022,-165 997.76,-136.29 898.29,-126.1 829.15,-122.48"/>
<polygon fill="#63b8ff" stroke="#63b8ff" points="828.91,-118.97 818.75,-121.98 828.57,-125.96 828.91,-118.97"/>
</a>
</g>
</g>
<!-- Node21 -->
<g id="Node000021" class="node">
<title>Node21</title>
<g id="a_Node000021"><a xlink:title=" ">
<polygon fill="#e0e0e0" stroke="#999999" points="684,-250 582,-250 582,-231 684,-231 684,-250"/>
<text text-anchor="middle" x="633" y="-238" font-family="FreeSans" font-size="10.00">madness/config.h</text>
</a>
</g>
</g>
<!-- Node20&#45;&gt;Node21 -->
<g id="edge27_Node000020_Node000021" class="edge">
<title>Node20&#45;&gt;Node21</title>
<g id="a_edge27_Node000020_Node000021"><a xlink:title=" ">
<path fill="none" stroke="#63b8ff" d="M707.28,-285.84C691.8,-276.6 671.68,-264.59 656.29,-255.4"/>
<polygon fill="#63b8ff" stroke="#63b8ff" points="657.78,-252.21 647.4,-250.09 654.19,-258.23 657.78,-252.21"/>
</a>
</g>
</g>
<!-- Node22 -->
<g id="Node000022" class="node">
<title>Node22</title>
<g id="a_Node000022"><a xlink:href="complex_8h.html" target="_top" xlink:title=" ">
<polygon fill="white" stroke="#666666" points="852,-250 702,-250 702,-231 852,-231 852,-250"/>
<text text-anchor="middle" x="777" y="-238" font-family="FreeSans" font-size="10.00">mpqc/math/core/complex.h</text>
</a>
</g>
</g>
<!-- Node20&#45;&gt;Node22 -->
<g id="edge28_Node000020_Node000022" class="edge">
<title>Node20&#45;&gt;Node22</title>
<g id="a_edge28_Node000020_Node000022"><a xlink:title=" ">
<path fill="none" stroke="#63b8ff" d="M742.14,-285.84C748.68,-277.52 756.98,-266.96 763.84,-258.23"/>
<polygon fill="#63b8ff" stroke="#63b8ff" points="766.68,-260.29 770.11,-250.27 761.17,-255.96 766.68,-260.29"/>
</a>
</g>
</g>
<!-- Node28 -->
<g id="Node000028" class="node">
<title>Node28</title>
<g id="a_Node000028"><a xlink:href="math_2external_2eigen_2fwd_8h.html" target="_top" xlink:title=" ">
<polygon fill="white" stroke="#666666" points="459,-195 343,-195 343,-165 459,-165 459,-195"/>
<text text-anchor="start" x="351" y="-183" font-family="FreeSans" font-size="10.00">mpqc/math/external</text>
<text text-anchor="middle" x="401" y="-172" font-family="FreeSans" font-size="10.00">/eigen/fwd.h</text>
</a>
</g>
</g>
<!-- Node20&#45;&gt;Node28 -->
<g id="edge36_Node000020_Node000028" class="edge">
<title>Node20&#45;&gt;Node28</title>
<g id="a_edge36_Node000020_Node000028"><a xlink:title=" ">
<path fill="none" stroke="#63b8ff" d="M679.4,-285.9C648.18,-276.82 607.8,-264.1 573,-250 555.5,-242.91 552.31,-238.53 535,-231 507.96,-219.24 477.18,-207.63 451.94,-198.56"/>
<polygon fill="#63b8ff" stroke="#63b8ff" points="452.8,-195.15 442.21,-195.09 450.45,-201.75 452.8,-195.15"/>
</a>
</g>
</g>
<!-- Node29 -->
<g id="Node000029" class="node">
<title>Node29</title>
<g id="a_Node000029"><a xlink:title=" ">
<polygon fill="#e0e0e0" stroke="#999999" points="1098.5,-250 1021.5,-250 1021.5,-231 1098.5,-231 1098.5,-250"/>
<text text-anchor="middle" x="1060" y="-238" font-family="FreeSans" font-size="10.00">Eigen/Dense</text>
</a>
</g>
</g>
<!-- Node20&#45;&gt;Node29 -->
<g id="edge38_Node000020_Node000029" class="edge">
<title>Node20&#45;&gt;Node29</title>
<g id="a_edge38_Node000020_Node000029"><a xlink:title=" ">
<path fill="none" stroke="#63b8ff" d="M789.06,-289.68C852.19,-278.45 951.96,-260.71 1011.2,-250.18"/>
<polygon fill="#63b8ff" stroke="#63b8ff" points="1011.82,-253.62 1021.06,-248.42 1010.6,-246.73 1011.82,-253.62"/>
</a>
</g>
</g>
<!-- Node22&#45;&gt;Node9 -->
<g id="edge29_Node000022_Node000009" class="edge">
<title>Node22&#45;&gt;Node9</title>
<g id="a_edge29_Node000022_Node000009"><a xlink:title=" ">
<path fill="none" stroke="#63b8ff" d="M701.89,-231.9C698.89,-231.59 695.92,-231.29 693,-231 533.45,-214.93 492.74,-217.73 334,-195 326.62,-193.94 318.85,-192.67 311.23,-191.34"/>
<polygon fill="#63b8ff" stroke="#63b8ff" points="311.8,-187.88 301.34,-189.55 310.56,-194.77 311.8,-187.88"/>
</a>
</g>
</g>
<!-- Node23 -->
<g id="Node000023" class="node">
<title>Node23</title>
<g id="a_Node000023"><a xlink:title=" ">
<polygon fill="#e0e0e0" stroke="#999999" points="633.5,-189.5 564.5,-189.5 564.5,-170.5 633.5,-170.5 633.5,-189.5"/>
<text text-anchor="middle" x="599" y="-177.5" font-family="FreeSans" font-size="10.00">Eigen/Core</text>
</a>
</g>
</g>
<!-- Node22&#45;&gt;Node23 -->
<g id="edge30_Node000022_Node000023" class="edge">
<title>Node22&#45;&gt;Node23</title>
<g id="a_edge30_Node000022_Node000023"><a xlink:title=" ">
<path fill="none" stroke="#63b8ff" d="M751.12,-230.99C720.4,-220.9 669.02,-204.01 634.58,-192.69"/>
<polygon fill="#63b8ff" stroke="#63b8ff" points="635.51,-189.31 624.91,-189.52 633.32,-195.96 635.51,-189.31"/>
</a>
</g>
</g>
<!-- Node24 -->
<g id="Node000024" class="node">
<title>Node24</title>
<g id="a_Node000024"><a xlink:title=" ">
<polygon fill="#e0e0e0" stroke="#999999" points="774,-195 652,-195 652,-165 774,-165 774,-195"/>
<text text-anchor="start" x="660" y="-183" font-family="FreeSans" font-size="10.00">boost/container/small</text>
<text text-anchor="middle" x="713" y="-172" font-family="FreeSans" font-size="10.00">_vector.hpp</text>
</a>
</g>
</g>
<!-- Node22&#45;&gt;Node24 -->
<g id="edge31_Node000022_Node000024" class="edge">
<title>Node22&#45;&gt;Node24</title>
<g id="a_edge31_Node000022_Node000024"><a xlink:title=" ">
<path fill="none" stroke="#63b8ff" d="M767.56,-230.87C759.27,-223.3 746.89,-211.98 736.01,-202.04"/>
<polygon fill="#63b8ff" stroke="#63b8ff" points="738.18,-199.28 728.44,-195.11 733.46,-204.44 738.18,-199.28"/>
</a>
</g>
</g>
<!-- Node25 -->
<g id="Node000025" class="node">
<title>Node25</title>
<g id="a_Node000025"><a xlink:title=" ">
<polygon fill="#e0e0e0" stroke="#999999" points="935.5,-195 792.5,-195 792.5,-165 935.5,-165 935.5,-195"/>
<text text-anchor="start" x="800.5" y="-183" font-family="FreeSans" font-size="10.00">boost/numeric/conversion</text>
<text text-anchor="middle" x="864" y="-172" font-family="FreeSans" font-size="10.00">/cast.hpp</text>
</a>
</g>
</g>
<!-- Node22&#45;&gt;Node25 -->
<g id="edge32_Node000022_Node000025" class="edge">
<title>Node22&#45;&gt;Node25</title>
<g id="a_edge32_Node000022_Node000025"><a xlink:title=" ">
<path fill="none" stroke="#63b8ff" d="M789.84,-230.87C801.53,-223 819.25,-211.09 834.43,-200.89"/>
<polygon fill="#63b8ff" stroke="#63b8ff" points="836.66,-203.6 843.01,-195.11 832.76,-197.79 836.66,-203.6"/>
</a>
</g>
</g>
<!-- Node26 -->
<g id="Node000026" class="node">
<title>Node26</title>
<g id="a_Node000026"><a xlink:title=" ">
<polygon fill="#e0e0e0" stroke="#999999" points="1012.5,-189.5 953.5,-189.5 953.5,-170.5 1012.5,-170.5 1012.5,-189.5"/>
<text text-anchor="middle" x="983" y="-177.5" font-family="FreeSans" font-size="10.00">complex</text>
</a>
</g>
</g>
<!-- Node22&#45;&gt;Node26 -->
<g id="edge33_Node000022_Node000026" class="edge">
<title>Node22&#45;&gt;Node26</title>
<g id="a_edge33_Node000022_Node000026"><a xlink:title=" ">
<path fill="none" stroke="#63b8ff" d="M813.33,-230.92C847.55,-222.6 900.12,-209.18 945,-195 946.91,-194.4 948.87,-193.75 950.83,-193.09"/>
<polygon fill="#63b8ff" stroke="#63b8ff" points="952.35,-196.27 960.62,-189.64 950.02,-189.66 952.35,-196.27"/>
</a>
</g>
</g>
<!-- Node27 -->
<g id="Node000027" class="node">
<title>Node27</title>
<g id="a_Node000027"><a xlink:title=" ">
<polygon fill="#e0e0e0" stroke="#999999" points="546.5,-189.5 477.5,-189.5 477.5,-170.5 546.5,-170.5 546.5,-189.5"/>
<text text-anchor="middle" x="512" y="-177.5" font-family="FreeSans" font-size="10.00">type_traits</text>
</a>
</g>
</g>
<!-- Node22&#45;&gt;Node27 -->
<g id="edge34_Node000022_Node000027" class="edge">
<title>Node22&#45;&gt;Node27</title>
<g id="a_edge34_Node000022_Node000027"><a xlink:title=" ">
<path fill="none" stroke="#63b8ff" d="M726.61,-230.98C681.59,-222.97 613.97,-210.01 556,-195 553.16,-194.27 550.24,-193.45 547.31,-192.61"/>
<polygon fill="#63b8ff" stroke="#63b8ff" points="548.04,-189.17 537.46,-189.62 546.01,-195.87 548.04,-189.17"/>
</a>
</g>
</g>
<!-- Node28&#45;&gt;Node3 -->
<g id="edge37_Node000028_Node000003" class="edge">
<title>Node28&#45;&gt;Node3</title>
<g id="a_edge37_Node000028_Node000003"><a xlink:title=" ">
<path fill="none" stroke="#63b8ff" d="M459.07,-166.66C462.08,-166.09 465.08,-165.53 468,-165 544.21,-151.24 632.12,-138.23 691.4,-129.87"/>
<polygon fill="#63b8ff" stroke="#63b8ff" points="691.98,-133.33 701.4,-128.47 691.01,-126.39 691.98,-133.33"/>
</a>
</g>
</g>
<!-- Node31&#45;&gt;Node1 -->
<g id="edge57_Node000031_Node000001" class="edge">
<title>Node31&#45;&gt;Node1</title>
<g id="a_edge57_Node000031_Node000001"><a xlink:title=" ">
<path fill="none" stroke="#63b8ff" d="M366.14,-668.07C366.83,-676.1 366.93,-685.47 366.46,-693.91"/>
<polygon fill="#63b8ff" stroke="#63b8ff" points="362.97,-693.66 365.55,-703.94 369.94,-694.29 362.97,-693.66"/>
</a>
</g>
</g>
<!-- Node31&#45;&gt;Node18 -->
<g id="edge42_Node000031_Node000018" class="edge">
<title>Node31&#45;&gt;Node18</title>
<g id="a_edge42_Node000031_Node000018"><a xlink:title=" ">
<path fill="none" stroke="#63b8ff" d="M356.02,-626.82C354.08,-616.25 351.96,-602.97 351,-591 349.93,-577.71 348.93,-574.17 351,-561 356.86,-523.79 371.81,-482.61 381.95,-457.52"/>
<polygon fill="#63b8ff" stroke="#63b8ff" points="385.25,-458.7 385.83,-448.12 378.78,-456.03 385.25,-458.7"/>
</a>
</g>
</g>
<!-- Node31&#45;&gt;Node19 -->
<g id="edge43_Node000031_Node000019" class="edge">
<title>Node31&#45;&gt;Node19</title>
<g id="a_edge43_Node000031_Node000019"><a xlink:title=" ">
<path fill="none" stroke="#63b8ff" d="M452.14,-627.73C479.7,-619.36 508.96,-607.53 533,-591 591.31,-550.91 595.33,-518.34 603,-448 604.45,-434.75 605.41,-431.11 603,-418 601.35,-409.04 598.18,-399.6 594.89,-391.37"/>
<polygon fill="#63b8ff" stroke="#63b8ff" points="598.05,-389.87 590.91,-382.04 591.61,-392.61 598.05,-389.87"/>
</a>
</g>
</g>
<!-- Node32 -->
<g id="Node000032" class="node">
<title>Node32</title>
<g id="a_Node000032"><a xlink:href="decomposed__tensor__binary_8h.html" target="_top" xlink:title=" ">
<polygon fill="white" stroke="#666666" points="189.5,-448 28.5,-448 28.5,-418 189.5,-418 189.5,-448"/>
<text text-anchor="start" x="36.5" y="-436" font-family="FreeSans" font-size="10.00">mpqc/math/tensor/clr</text>
<text text-anchor="middle" x="109" y="-425" font-family="FreeSans" font-size="10.00">/decomposed_tensor_binary.h</text>
</a>
</g>
</g>
<!-- Node31&#45;&gt;Node32 -->
<g id="edge44_Node000031_Node000032" class="edge">
<title>Node31&#45;&gt;Node32</title>
<g id="a_edge44_Node000031_Node000032"><a xlink:title=" ">
<path fill="none" stroke="#63b8ff" d="M272.36,-626.96C248.44,-618.68 223.71,-607.08 204,-591 159.7,-554.87 130.83,-492.25 117.52,-458.03"/>
<polygon fill="#63b8ff" stroke="#63b8ff" points="120.69,-456.51 113.89,-448.39 114.14,-458.98 120.69,-456.51"/>
</a>
</g>
</g>
<!-- Node33 -->
<g id="Node000033" class="node">
<title>Node33</title>
<g id="a_Node000033"><a xlink:href="decomposed__tensor__gemm_8h.html" target="_top" xlink:title=" ">
<polygon fill="white" stroke="#666666" points="524,-591 360,-591 360,-561 524,-561 524,-591"/>
<text text-anchor="start" x="368" y="-579" font-family="FreeSans" font-size="10.00">mpqc/math/tensor/clr</text>
<text text-anchor="middle" x="442" y="-568" font-family="FreeSans" font-size="10.00">/decomposed_tensor_gemm.h</text>
</a>
</g>
</g>
<!-- Node31&#45;&gt;Node33 -->
<g id="edge46_Node000031_Node000033" class="edge">
<title>Node31&#45;&gt;Node33</title>
<g id="a_edge46_Node000031_Node000033"><a xlink:title=" ">
<path fill="none" stroke="#63b8ff" d="M383.28,-626.77C393.99,-617.69 406.71,-606.91 417.56,-597.71"/>
<polygon fill="#63b8ff" stroke="#63b8ff" points="420.07,-600.17 425.44,-591.04 415.55,-594.83 420.07,-600.17"/>
</a>
</g>
</g>
<!-- Node35 -->
<g id="Node000035" class="node">
<title>Node35</title>
<g id="a_Node000035"><a xlink:href="decomposed__tensor__multiplication_8h.html" target="_top" xlink:title=" ">
<polygon fill="white" stroke="#666666" points="292,-382 92,-382 92,-352 292,-352 292,-382"/>
<text text-anchor="start" x="100" y="-370" font-family="FreeSans" font-size="10.00">mpqc/math/tensor/clr</text>
<text text-anchor="middle" x="192" y="-359" font-family="FreeSans" font-size="10.00">/decomposed_tensor_multiplication.h</text>
</a>
</g>
</g>
<!-- Node31&#45;&gt;Node35 -->
<g id="edge55_Node000031_Node000035" class="edge">
<title>Node31&#45;&gt;Node35</title>
<g id="a_edge55_Node000031_Node000035"><a xlink:title=" ">
<path fill="none" stroke="#63b8ff" d="M348.19,-626.92C317.96,-576.81 237.93,-444.15 205.72,-390.75"/>
<polygon fill="#63b8ff" stroke="#63b8ff" points="208.62,-388.77 200.46,-382.02 202.63,-392.39 208.62,-388.77"/>
</a>
</g>
</g>
<!-- Node31&#45;&gt;Node36 -->
<g id="edge58_Node000031_Node000036" class="edge">
<title>Node31&#45;&gt;Node36</title>
<g id="a_edge58_Node000031_Node000036"><a xlink:title=" ">
<path fill="none" stroke="#63b8ff" d="M452.24,-626.96C502.66,-616.27 564.34,-603.2 611.97,-593.11"/>
<polygon fill="#63b8ff" stroke="#63b8ff" points="612.85,-596.5 621.91,-591 611.4,-589.65 612.85,-596.5"/>
</a>
</g>
</g>
<!-- Node32&#45;&gt;Node4 -->
<g id="edge45_Node000032_Node000004" class="edge">
<title>Node32&#45;&gt;Node4</title>
<g id="a_edge45_Node000032_Node000004"><a xlink:title=" ">
<path fill="none" stroke="#63b8ff" d="M97.1,-417.81C84.15,-400.57 67.27,-371.4 83,-352 103.39,-326.86 184.94,-313.88 246.74,-307.52"/>
<polygon fill="#63b8ff" stroke="#63b8ff" points="247.26,-310.99 256.86,-306.52 246.57,-304.02 247.26,-310.99"/>
</a>
</g>
</g>
<!-- Node33&#45;&gt;Node2 -->
<g id="edge47_Node000033_Node000002" class="edge">
<title>Node33&#45;&gt;Node2</title>
<g id="a_edge47_Node000033_Node000002"><a xlink:title=" ">
<path fill="none" stroke="#63b8ff" d="M513.43,-560.94C574.22,-548.97 661.13,-531.86 722.28,-519.82"/>
<polygon fill="#63b8ff" stroke="#63b8ff" points="723.11,-523.22 732.24,-517.86 721.76,-516.35 723.11,-523.22"/>
</a>
</g>
</g>
<!-- Node33&#45;&gt;Node4 -->
<g id="edge48_Node000033_Node000004" class="edge">
<title>Node33&#45;&gt;Node4</title>
<g id="a_edge48_Node000033_Node000004"><a xlink:title=" ">
<path fill="none" stroke="#63b8ff" d="M414.32,-560.88C379.14,-541.13 320.19,-501.59 297,-448 291.7,-435.76 295.7,-431.27 297,-418 300.17,-385.75 308.17,-349.18 313.84,-325.87"/>
<polygon fill="#63b8ff" stroke="#63b8ff" points="317.24,-326.7 316.26,-316.15 310.45,-325.01 317.24,-326.7"/>
</a>
</g>
</g>
<!-- Node33&#45;&gt;Node18 -->
<g id="edge49_Node000033_Node000018" class="edge">
<title>Node33&#45;&gt;Node18</title>
<g id="a_edge49_Node000033_Node000018"><a xlink:title=" ">
<path fill="none" stroke="#63b8ff" d="M420.04,-560.94C408.46,-552.17 395.36,-539.75 389,-525 379.85,-503.79 382.12,-477.14 385.76,-458.18"/>
<polygon fill="#63b8ff" stroke="#63b8ff" points="389.21,-458.77 387.92,-448.26 382.37,-457.28 389.21,-458.77"/>
</a>
</g>
</g>
<!-- Node33&#45;&gt;Node19 -->
<g id="edge50_Node000033_Node000019" class="edge">
<title>Node33&#45;&gt;Node19</title>
<g id="a_edge50_Node000033_Node000019"><a xlink:title=" ">
<path fill="none" stroke="#63b8ff" d="M509.43,-560.97C529.56,-553.53 549.76,-542.2 563,-525 592.69,-486.43 591.36,-426.15 587.72,-392.61"/>
<polygon fill="#63b8ff" stroke="#63b8ff" points="591.15,-391.82 586.43,-382.33 584.2,-392.69 591.15,-391.82"/>
</a>
</g>
</g>
<!-- Node34 -->
<g id="Node000034" class="node">
<title>Node34</title>
<g id="a_Node000034"><a xlink:href="decomposed__tensor__gemm__helper_8h.html" target="_top" xlink:title=" ">
<polygon fill="white" stroke="#666666" points="553.5,-525 398.5,-525 398.5,-484 553.5,-484 553.5,-525"/>
<text text-anchor="start" x="406.5" y="-513" font-family="FreeSans" font-size="10.00">mpqc/math/tensor/clr</text>
<text text-anchor="start" x="406.5" y="-502" font-family="FreeSans" font-size="10.00">/decomposed_tensor_gemm</text>
<text text-anchor="middle" x="476" y="-491" font-family="FreeSans" font-size="10.00">_helper.h</text>
</a>
</g>
</g>
<!-- Node33&#45;&gt;Node34 -->
<g id="edge51_Node000033_Node000034" class="edge">
<title>Node33&#45;&gt;Node34</title>
<g id="a_edge51_Node000033_Node000034"><a xlink:title=" ">
<path fill="none" stroke="#63b8ff" d="M448.88,-560.94C452.62,-553.28 457.4,-543.52 461.89,-534.33"/>
<polygon fill="#63b8ff" stroke="#63b8ff" points="465.17,-535.59 466.42,-525.07 458.89,-532.52 465.17,-535.59"/>
</a>
</g>
</g>
<!-- Node34&#45;&gt;Node4 -->
<g id="edge52_Node000034_Node000004" class="edge">
<title>Node34&#45;&gt;Node4</title>
<g id="a_edge52_Node000034_Node000004"><a xlink:title=" ">
<path fill="none" stroke="#63b8ff" d="M484.81,-483.67C491.45,-465.56 497.75,-438.56 487,-418 462.09,-370.36 407.71,-338.35 367.75,-320.23"/>
<polygon fill="#63b8ff" stroke="#63b8ff" points="369,-316.96 358.44,-316.14 366.19,-323.37 369,-316.96"/>
</a>
</g>
</g>
<!-- Node34&#45;&gt;Node18 -->
<g id="edge53_Node000034_Node000018" class="edge">
<title>Node34&#45;&gt;Node18</title>
<g id="a_edge53_Node000034_Node000018"><a xlink:title=" ">
<path fill="none" stroke="#63b8ff" d="M452.15,-483.77C441.07,-474.6 427.9,-463.7 416.71,-454.44"/>
<polygon fill="#63b8ff" stroke="#63b8ff" points="418.9,-451.72 408.97,-448.04 414.44,-457.11 418.9,-451.72"/>
</a>
</g>
</g>
<!-- Node34&#45;&gt;Node19 -->
<g id="edge54_Node000034_Node000019" class="edge">
<title>Node34&#45;&gt;Node19</title>
<g id="a_edge54_Node000034_Node000019"><a xlink:title=" ">
<path fill="none" stroke="#63b8ff" d="M491.7,-483.8C511.47,-459 545.33,-416.52 566.08,-390.48"/>
<polygon fill="#63b8ff" stroke="#63b8ff" points="569.08,-392.33 572.58,-382.33 563.61,-387.97 569.08,-392.33"/>
</a>
</g>
</g>
<!-- Node35&#45;&gt;Node4 -->
<g id="edge56_Node000035_Node000004" class="edge">
<title>Node35&#45;&gt;Node4</title>
<g id="a_edge56_Node000035_Node000004"><a xlink:title=" ">
<path fill="none" stroke="#63b8ff" d="M220.09,-351.95C238.51,-342.74 262.81,-330.6 282.83,-320.59"/>
<polygon fill="#63b8ff" stroke="#63b8ff" points="284.6,-323.61 291.98,-316.01 281.47,-317.35 284.6,-323.61"/>
</a>
</g>
</g>
<!-- Node36&#45;&gt;Node4 -->
<g id="edge59_Node000036_Node000004" class="edge">
<title>Node36&#45;&gt;Node4</title>
<g id="a_edge59_Node000036_Node000004"><a xlink:title=" ">
<path fill="none" stroke="#63b8ff" d="M692.71,-560.99C704.82,-522.1 732.39,-411.76 678,-352 659.16,-331.3 492.66,-315.16 393.49,-307.29"/>
<polygon fill="#63b8ff" stroke="#63b8ff" points="393.47,-303.77 383.22,-306.48 392.92,-310.75 393.47,-303.77"/>
</a>
</g>
</g>
<!-- Node36&#45;&gt;Node19 -->
<g id="edge60_Node000036_Node000019" class="edge">
<title>Node36&#45;&gt;Node19</title>
<g id="a_edge60_Node000036_Node000019"><a xlink:title=" ">
<path fill="none" stroke="#63b8ff" d="M685.34,-560.63C679.52,-531.81 663.78,-465.67 634,-418 627.36,-407.37 618.06,-397.27 609.29,-388.96"/>
<polygon fill="#63b8ff" stroke="#63b8ff" points="611.54,-386.28 601.79,-382.15 606.84,-391.47 611.54,-386.28"/>
</a>
</g>
</g>
</g>
</svg>

<g id="navigator" transform="translate(0 0)" fill="#404254">
  <rect fill="#f2f5e9" fill-opacity="0.5" stroke="#606060" stroke-width=".5" x="0" y="0" width="60" height="60"/>
  <use id="zoomplus" xlink:href="#zoomPlus" x="17" y="9" onmousedown="handleZoom(evt,'in')"/>
  <use id="zoomminus" xlink:href="#zoomMin" x="42" y="9" onmousedown="handleZoom(evt,'out')"/>
  <use id="reset" xlink:href="#resetDef" x="30" y="36" onmousedown="handleReset()"/>
   <use id="arrowup" xlink:href="#arrowUp" x="0" y="0" onmousedown="handlePan(0,-1)"/>
  <use id="arrowright" xlink:href="#arrowRight" x="0" y="0" onmousedown="handlePan(1,0)"/>
  <use id="arrowdown" xlink:href="#arrowDown" x="0" y="0" onmousedown="handlePan(0,1)"/>
  <use id="arrowleft" xlink:href="#arrowLeft" x="0" y="0" onmousedown="handlePan(-1,0)"/>
</g>
<svg viewBox="0 0 15 15" width="100%" height="30px" preserveAspectRatio="xMaxYMin meet">
 <g id="arrow_out" transform="scale(0.3 0.3)">
  <a xlink:href="decomposed__tensor__subtraction_8h__incl_org.svg" target="_base">
   <rect id="button" ry="5" rx="5" y="6" x="6" height="38" width="38"
        fill="#f2f5e9" fill-opacity="0.5" stroke="#606060" stroke-width="1.0"/>
   <path id="arrow"
     d="M 11.500037,31.436501 C 11.940474,20.09759 22.043105,11.32322 32.158766,21.979434 L 37.068811,17.246167 C 37.068811,17.246167 37.088388,32 37.088388,32 L 22.160133,31.978069 C 22.160133,31.978069 26.997745,27.140456 26.997745,27.140456 C 18.528582,18.264221 13.291696,25.230495 11.500037,31.436501 z"
     style="fill:#404040;"/>
  </a>
 </g>
</svg>

<style type='text/css'>
<![CDATA[
[data-mouse-over-selected='false'] { opacity: 0.7; }
[data-mouse-over-selected='true']  { opacity: 1.0; }
]]>
</style>
<script type="application/ecmascript"><![CDATA[
document.addEventListener('DOMContentLoaded', (event) => {
  highlightEdges();
  highlightAdjacentNodes();
});
]]></script>
</svg>
