<?xml version="1.0" encoding="UTF-8" standalone="no"?>
<!DOCTYPE svg PUBLIC "-//W3C//DTD SVG 1.1//EN"
 "http://www.w3.org/Graphics/SVG/1.1/DTD/svg11.dtd">
<!-- Generated by graphviz version 2.43.0 (0)
 -->
<!-- Title: mpqc/math/tensor/clr/decomposed_tensor_multiplication.h Pages: 1 -->
<svg width="920pt" height="324pt"
 viewBox="0.00 0.00 919.50 324.00" xmlns="http://www.w3.org/2000/svg" xmlns:xlink="http://www.w3.org/1999/xlink">
<g id="graph0" class="graph" transform="scale(1 1) rotate(0) translate(4 320)">
<title>mpqc/math/tensor/clr/decomposed_tensor_multiplication.h</title>
<!-- Node1 -->
<g id="Node000001" class="node">
<title>Node1</title>
<g id="a_Node000001"><a xlink:title=" ">
<polygon fill="#999999" stroke="#666666" points="370.5,-316 170.5,-316 170.5,-286 370.5,-286 370.5,-316"/>
<text text-anchor="start" x="178.5" y="-304" font-family="FreeSans" font-size="10.00">mpqc/math/tensor/clr</text>
<text text-anchor="middle" x="270.5" y="-293" font-family="FreeSans" font-size="10.00">/decomposed_tensor_multiplication.h</text>
</a>
</g>
</g>
<!-- Node2 -->
<g id="Node000002" class="node">
<title>Node2</title>
<g id="a_Node000002"><a xlink:href="decomposed__tensor_8h.html" target="_top" xlink:title=" ">
<polygon fill="white" stroke="#666666" points="333.5,-250 207.5,-250 207.5,-220 333.5,-220 333.5,-250"/>
<text text-anchor="start" x="215.5" y="-238" font-family="FreeSans" font-size="10.00">mpqc/math/tensor/clr</text>
<text text-anchor="middle" x="270.5" y="-227" font-family="FreeSans" font-size="10.00">/decomposed_tensor.h</text>
</a>
</g>
</g>
<!-- Node1&#45;&gt;Node2 -->
<g id="edge1_Node000001_Node000002" class="edge">
<title>Node1&#45;&gt;Node2</title>
<g id="a_edge1_Node000001_Node000002"><a xlink:title=" ">
<path fill="none" stroke="#63b8ff" d="M270.5,-285.8C270.5,-278.34 270.5,-268.99 270.5,-260.41"/>
<polygon fill="#63b8ff" stroke="#63b8ff" points="274,-260.16 270.5,-250.16 267,-260.16 274,-260.16"/>
</a>
</g>
</g>
<!-- Node3 -->
<g id="Node000003" class="node">
<title>Node3</title>
<g id="a_Node000003"><a xlink:title=" ">
<polygon fill="#e0e0e0" stroke="#999999" points="109,-184 0,-184 0,-165 109,-165 109,-184"/>
<text text-anchor="middle" x="54.5" y="-172" font-family="FreeSans" font-size="10.00">TiledArray/tensor.h</text>
</a>
</g>
</g>
<!-- Node2&#45;&gt;Node3 -->
<g id="edge2_Node000002_Node000003" class="edge">
<title>Node2&#45;&gt;Node3</title>
<g id="a_edge2_Node000002_Node000003"><a xlink:title=" ">
<path fill="none" stroke="#63b8ff" d="M218.76,-219.99C181.16,-209.8 130.94,-196.2 95.97,-186.73"/>
<polygon fill="#63b8ff" stroke="#63b8ff" points="96.65,-183.29 86.08,-184.05 94.82,-190.05 96.65,-183.29"/>
</a>
</g>
</g>
<!-- Node4 -->
<g id="Node000004" class="node">
<title>Node4</title>
<g id="a_Node000004"><a xlink:title=" ">
<polygon fill="#e0e0e0" stroke="#999999" points="222,-184 127,-184 127,-165 222,-165 222,-184"/>
<text text-anchor="middle" x="174.5" y="-172" font-family="FreeSans" font-size="10.00">tiledarray_fwd.h</text>
</a>
</g>
</g>
<!-- Node2&#45;&gt;Node4 -->
<g id="edge3_Node000002_Node000004" class="edge">
<title>Node2&#45;&gt;Node4</title>
<g id="a_edge3_Node000002_Node000004"><a xlink:title=" ">
<path fill="none" stroke="#63b8ff" d="M247.26,-219.84C232.1,-210.6 212.39,-198.59 197.31,-189.4"/>
<polygon fill="#63b8ff" stroke="#63b8ff" points="198.96,-186.31 188.6,-184.09 195.32,-192.29 198.96,-186.31"/>
</a>
</g>
</g>
<!-- Node5 -->
<g id="Node000005" class="node">
<title>Node5</title>
<g id="a_Node000005"><a xlink:title=" ">
<polygon fill="#e0e0e0" stroke="#999999" points="300.5,-184 240.5,-184 240.5,-165 300.5,-165 300.5,-184"/>
<text text-anchor="middle" x="270.5" y="-172" font-family="FreeSans" font-size="10.00">iostream</text>
</a>
</g>
</g>
<!-- Node2&#45;&gt;Node5 -->
<g id="edge4_Node000002_Node000005" class="edge">
<title>Node2&#45;&gt;Node5</title>
<g id="a_edge4_Node000002_Node000005"><a xlink:title=" ">
<path fill="none" stroke="#63b8ff" d="M270.5,-219.84C270.5,-212.21 270.5,-202.7 270.5,-194.45"/>
<polygon fill="#63b8ff" stroke="#63b8ff" points="274,-194.27 270.5,-184.27 267,-194.27 274,-194.27"/>
</a>
</g>
</g>
<!-- Node6 -->
<g id="Node000006" class="node">
<title>Node6</title>
<g id="a_Node000006"><a xlink:title=" ">
<polygon fill="#e0e0e0" stroke="#999999" points="437,-19 390,-19 390,0 437,0 437,-19"/>
<text text-anchor="middle" x="413.5" y="-7" font-family="FreeSans" font-size="10.00">vector</text>
</a>
</g>
</g>
<!-- Node2&#45;&gt;Node6 -->
<g id="edge5_Node000002_Node000006" class="edge">
<title>Node2&#45;&gt;Node6</title>
<g id="a_edge5_Node000002_Node000006"><a xlink:title=" ">
<path fill="none" stroke="#63b8ff" d="M282.86,-219.66C290.94,-209.94 301.44,-196.62 309.5,-184 329.4,-152.84 328.81,-141.9 347.5,-110 364.97,-80.18 387.68,-47 401.39,-27.49"/>
<polygon fill="#63b8ff" stroke="#63b8ff" points="404.42,-29.26 407.34,-19.08 398.71,-25.22 404.42,-29.26"/>
</a>
</g>
</g>
<!-- Node7 -->
<g id="Node000007" class="node">
<title>Node7</title>
<g id="a_Node000007"><a xlink:href="assert_8h.html" target="_top" xlink:title=" ">
<polygon fill="white" stroke="#666666" points="536,-184 405,-184 405,-165 536,-165 536,-184"/>
<text text-anchor="middle" x="470.5" y="-172" font-family="FreeSans" font-size="10.00">mpqc/util/misc/assert.h</text>
</a>
</g>
</g>
<!-- Node2&#45;&gt;Node7 -->
<g id="edge6_Node000002_Node000007" class="edge">
<title>Node2&#45;&gt;Node7</title>
<g id="a_edge6_Node000002_Node000007"><a xlink:title=" ">
<path fill="none" stroke="#63b8ff" d="M318.4,-219.99C352.92,-209.89 398.92,-196.44 431.27,-186.98"/>
<polygon fill="#63b8ff" stroke="#63b8ff" points="432.64,-190.22 441.26,-184.05 430.68,-183.5 432.64,-190.22"/>
</a>
</g>
</g>
<!-- Node8 -->
<g id="Node000008" class="node">
<title>Node8</title>
<g id="a_Node000008"><a xlink:title=" ">
<polygon fill="#e0e0e0" stroke="#999999" points="474,-129 357,-129 357,-110 474,-110 474,-129"/>
<text text-anchor="middle" x="415.5" y="-117" font-family="FreeSans" font-size="10.00">mpqc/mpqc_config.h</text>
</a>
</g>
</g>
<!-- Node7&#45;&gt;Node8 -->
<g id="edge7_Node000007_Node000008" class="edge">
<title>Node7&#45;&gt;Node8</title>
<g id="a_edge7_Node000007_Node000008"><a xlink:title=" ">
<path fill="none" stroke="#63b8ff" d="M461.42,-164.75C453.41,-157.03 441.54,-145.6 431.88,-136.28"/>
<polygon fill="#63b8ff" stroke="#63b8ff" points="434.04,-133.51 424.41,-129.09 429.19,-138.55 434.04,-133.51"/>
</a>
</g>
</g>
<!-- Node9 -->
<g id="Node000009" class="node">
<title>Node9</title>
<g id="a_Node000009"><a xlink:title=" ">
<polygon fill="#e0e0e0" stroke="#999999" points="544.5,-129 492.5,-129 492.5,-110 544.5,-110 544.5,-129"/>
<text text-anchor="middle" x="518.5" y="-117" font-family="FreeSans" font-size="10.00">cassert</text>
</a>
</g>
</g>
<!-- Node7&#45;&gt;Node9 -->
<g id="edge8_Node000007_Node000009" class="edge">
<title>Node7&#45;&gt;Node9</title>
<g id="a_edge8_Node000007_Node000009"><a xlink:title=" ">
<path fill="none" stroke="#63b8ff" d="M478.43,-164.75C485.35,-157.11 495.57,-145.82 503.95,-136.56"/>
<polygon fill="#63b8ff" stroke="#63b8ff" points="506.6,-138.85 510.72,-129.09 501.41,-134.15 506.6,-138.85"/>
</a>
</g>
</g>
<!-- Node10 -->
<g id="Node000010" class="node">
<title>Node10</title>
<g id="a_Node000010"><a xlink:href="exception_8h.html" target="_top" xlink:title=" ">
<polygon fill="white" stroke="#666666" points="708.5,-129 562.5,-129 562.5,-110 708.5,-110 708.5,-129"/>
<text text-anchor="middle" x="635.5" y="-117" font-family="FreeSans" font-size="10.00">mpqc/util/core/exception.h</text>
</a>
</g>
</g>
<!-- Node7&#45;&gt;Node10 -->
<g id="edge9_Node000007_Node000010" class="edge">
<title>Node7&#45;&gt;Node10</title>
<g id="a_edge9_Node000007_Node000010"><a xlink:title=" ">
<path fill="none" stroke="#63b8ff" d="M497.01,-164.98C524.71,-156.09 568.36,-142.07 599.24,-132.15"/>
<polygon fill="#63b8ff" stroke="#63b8ff" points="600.33,-135.47 608.78,-129.08 598.19,-128.81 600.33,-135.47"/>
</a>
</g>
</g>
<!-- Node10&#45;&gt;Node6 -->
<g id="edge15_Node000010_Node000006" class="edge">
<title>Node10&#45;&gt;Node6</title>
<g id="a_edge15_Node000010_Node000006"><a xlink:title=" ">
<path fill="none" stroke="#63b8ff" d="M562.46,-110.16C512.61,-103.07 452.34,-91.25 433.5,-74 421.12,-62.67 416.35,-43.77 414.54,-29.52"/>
<polygon fill="#63b8ff" stroke="#63b8ff" points="418.01,-28.99 413.63,-19.34 411.03,-29.61 418.01,-28.99"/>
</a>
</g>
</g>
<!-- Node11 -->
<g id="Node000011" class="node">
<title>Node11</title>
<g id="a_Node000011"><a xlink:title=" ">
<polygon fill="#e0e0e0" stroke="#999999" points="495,-74 442,-74 442,-55 495,-55 495,-74"/>
<text text-anchor="middle" x="468.5" y="-62" font-family="FreeSans" font-size="10.00">string.h</text>
</a>
</g>
</g>
<!-- Node10&#45;&gt;Node11 -->
<g id="edge10_Node000010_Node000011" class="edge">
<title>Node10&#45;&gt;Node11</title>
<g id="a_edge10_Node000010_Node000011"><a xlink:title=" ">
<path fill="none" stroke="#63b8ff" d="M608.67,-109.98C580.55,-101.06 536.19,-86.98 504.92,-77.06"/>
<polygon fill="#63b8ff" stroke="#63b8ff" points="505.86,-73.68 495.26,-73.99 503.74,-80.36 505.86,-73.68"/>
</a>
</g>
</g>
<!-- Node12 -->
<g id="Node000012" class="node">
<title>Node12</title>
<g id="a_Node000012"><a xlink:href="memory.html" target="_top" xlink:title=" ">
<polygon fill="white" stroke="#666666" points="571.5,-74 513.5,-74 513.5,-55 571.5,-55 571.5,-74"/>
<text text-anchor="middle" x="542.5" y="-62" font-family="FreeSans" font-size="10.00">memory</text>
</a>
</g>
</g>
<!-- Node10&#45;&gt;Node12 -->
<g id="edge11_Node000010_Node000012" class="edge">
<title>Node10&#45;&gt;Node12</title>
<g id="a_edge11_Node000010_Node000012"><a xlink:title=" ">
<path fill="none" stroke="#63b8ff" d="M620.56,-109.98C606,-101.69 583.63,-88.94 566.57,-79.22"/>
<polygon fill="#63b8ff" stroke="#63b8ff" points="568.14,-76.08 557.71,-74.17 564.67,-82.16 568.14,-76.08"/>
</a>
</g>
</g>
<!-- Node13 -->
<g id="Node000013" class="node">
<title>Node13</title>
<g id="a_Node000013"><a xlink:title=" ">
<polygon fill="#e0e0e0" stroke="#999999" points="663.5,-74 607.5,-74 607.5,-55 663.5,-55 663.5,-74"/>
<text text-anchor="middle" x="635.5" y="-62" font-family="FreeSans" font-size="10.00">sstream</text>
</a>
</g>
</g>
<!-- Node10&#45;&gt;Node13 -->
<g id="edge13_Node000010_Node000013" class="edge">
<title>Node10&#45;&gt;Node13</title>
<g id="a_edge13_Node000010_Node000013"><a xlink:title=" ">
<path fill="none" stroke="#63b8ff" d="M635.5,-109.75C635.5,-102.8 635.5,-92.85 635.5,-84.13"/>
<polygon fill="#63b8ff" stroke="#63b8ff" points="639,-84.09 635.5,-74.09 632,-84.09 639,-84.09"/>
</a>
</g>
</g>
<!-- Node14 -->
<g id="Node000014" class="node">
<title>Node14</title>
<g id="a_Node000014"><a xlink:title=" ">
<polygon fill="#e0e0e0" stroke="#999999" points="747,-74 682,-74 682,-55 747,-55 747,-74"/>
<text text-anchor="middle" x="714.5" y="-62" font-family="FreeSans" font-size="10.00">stdexcept</text>
</a>
</g>
</g>
<!-- Node10&#45;&gt;Node14 -->
<g id="edge14_Node000010_Node000014" class="edge">
<title>Node10&#45;&gt;Node14</title>
<g id="a_edge14_Node000010_Node000014"><a xlink:title=" ">
<path fill="none" stroke="#63b8ff" d="M648.19,-109.98C660.33,-101.84 678.86,-89.41 693.25,-79.76"/>
<polygon fill="#63b8ff" stroke="#63b8ff" points="695.22,-82.65 701.58,-74.17 691.32,-76.84 695.22,-82.65"/>
</a>
</g>
</g>
<!-- Node15 -->
<g id="Node000015" class="node">
<title>Node15</title>
<g id="a_Node000015"><a xlink:href="backtrace_8h.html" target="_top" xlink:title=" ">
<polygon fill="white" stroke="#666666" points="911.5,-74 765.5,-74 765.5,-55 911.5,-55 911.5,-74"/>
<text text-anchor="middle" x="838.5" y="-62" font-family="FreeSans" font-size="10.00">mpqc/util/core/backtrace.h</text>
</a>
</g>
</g>
<!-- Node10&#45;&gt;Node15 -->
<g id="edge16_Node000010_Node000015" class="edge">
<title>Node10&#45;&gt;Node15</title>
<g id="a_edge16_Node000010_Node000015"><a xlink:title=" ">
<path fill="none" stroke="#63b8ff" d="M668.12,-109.98C702.79,-100.93 757.76,-86.58 795.85,-76.64"/>
<polygon fill="#63b8ff" stroke="#63b8ff" points="796.84,-79.99 805.63,-74.08 795.07,-73.22 796.84,-79.99"/>
</a>
</g>
</g>
<!-- Node12&#45;&gt;Node12 -->
<g id="edge12_Node000012_Node000012" class="edge">
<title>Node12&#45;&gt;Node12</title>
<g id="a_edge12_Node000012_Node000012"><a xlink:title=" ">
<path fill="none" stroke="#63b8ff" d="M564.74,-74.07C577.56,-76.02 589.5,-72.83 589.5,-64.5 589.5,-58.45 583.2,-55.11 574.84,-54.48"/>
<polygon fill="#63b8ff" stroke="#63b8ff" points="574.58,-50.99 564.74,-54.93 574.89,-57.98 574.58,-50.99"/>
</a>
</g>
</g>
<!-- Node15&#45;&gt;Node6 -->
<g id="edge18_Node000015_Node000006" class="edge">
<title>Node15&#45;&gt;Node6</title>
<g id="a_edge18_Node000015_Node000006"><a xlink:title=" ">
<path fill="none" stroke="#63b8ff" d="M770.22,-54.98C677.82,-43.46 516.54,-23.35 446.99,-14.68"/>
<polygon fill="#63b8ff" stroke="#63b8ff" points="447.38,-11.2 437.03,-13.43 446.52,-18.14 447.38,-11.2"/>
</a>
</g>
</g>
<!-- Node16 -->
<g id="Node000016" class="node">
<title>Node16</title>
<g id="a_Node000016"><a xlink:title=" ">
<polygon fill="#e0e0e0" stroke="#999999" points="860.5,-19 816.5,-19 816.5,0 860.5,0 860.5,-19"/>
<text text-anchor="middle" x="838.5" y="-7" font-family="FreeSans" font-size="10.00">string</text>
</a>
</g>
</g>
<!-- Node15&#45;&gt;Node16 -->
<g id="edge17_Node000015_Node000016" class="edge">
<title>Node15&#45;&gt;Node16</title>
<g id="a_edge17_Node000015_Node000016"><a xlink:title=" ">
<path fill="none" stroke="#63b8ff" d="M838.5,-54.75C838.5,-47.8 838.5,-37.85 838.5,-29.13"/>
<polygon fill="#63b8ff" stroke="#63b8ff" points="842,-29.09 838.5,-19.09 835,-29.09 842,-29.09"/>
</a>
</g>
</g>
</g>
</svg>
