<?xml version="1.0" encoding="UTF-8" standalone="no"?>
<!DOCTYPE svg PUBLIC "-//W3C//DTD SVG 1.1//EN"
 "http://www.w3.org/Graphics/SVG/1.1/DTD/svg11.dtd">
<!-- Generated by graphviz version 2.43.0 (0)
 -->
<!-- Title: mpqc/math/tensor/clr/decomposed_tensor_algebra.cpp Pages: 1 -->
<!--zoomable 456 -->

<svg id="main" version="1.1" xmlns="http://www.w3.org/2000/svg" xmlns:xlink="http://www.w3.org/1999/xlink" xml:space="preserve" onload="init(evt)">
<style type="text/css"><![CDATA[
.node, .edge {opacity: 0.7;}
.node.selected, .edge.selected {opacity: 1;}
.edge:hover path { stroke: red; }
.edge:hover polygon { stroke: red; fill: red; }
]]></style>

<defs>
  <circle id="rim" cx="0" cy="0" r="7"/>
  <circle id="rim2" cx="0" cy="0" r="3.5"/>
  <g id="zoomPlus">
    <use xlink:href="#rim" fill="#404040"><set attributeName="fill" to="#808080" begin="zoomplus.mouseover" end="zoomplus.mouseout"/></use>
    <path d="M-4,0h8M0,-4v8" fill="none" stroke="white" stroke-width="1.5" pointer-events="none"/>
  </g>
  <g id="zoomMin">
    <use xlink:href="#rim" fill="#404040"><set attributeName="fill" to="#808080" begin="zoomminus.mouseover" end="zoomminus.mouseout"/></use>
    <path d="M-4,0h8" fill="none" stroke="white" stroke-width="1.5" pointer-events="none"/>
  </g>
  <g id="arrowUp" transform="translate(30 24)">
    <use xlink:href="#rim"/>
    <path pointer-events="none" fill="none" stroke="white" stroke-width="1.5" d="M0,-3.0v7 M-2.5,-0.5L0,-3.0L2.5,-0.5"/>
  </g>
  <g id="arrowRight" transform="rotate(90) translate(36 -43)">
    <use xlink:href="#rim"/>
    <path pointer-events="none" fill="none" stroke="white" stroke-width="1.5" d="M0,-3.0v7 M-2.5,-0.5L0,-3.0L2.5,-0.5"/>
  </g>
  <g id="arrowDown" transform="rotate(180) translate(-30 -48)">
    <use xlink:href="#rim"/>
    <path pointer-events="none" fill="none" stroke="white" stroke-width="1.5" d="M0,-3.0v7 M-2.5,-0.5L0,-3.0L2.5,-0.5"/>
  </g>
  <g id="arrowLeft" transform="rotate(270) translate(-36 17)">
    <use xlink:href="#rim"/>
    <path pointer-events="none" fill="none" stroke="white" stroke-width="1.5" d="M0,-3.0v7 M-2.5,-0.5L0,-3.0L2.5,-0.5"/>
  </g>
  <g id="resetDef">
    <use xlink:href="#rim2" fill="#404040"><set attributeName="fill" to="#808080" begin="reset.mouseover" end="reset.mouseout"/></use>
  </g>
</defs>
<script type="application/ecmascript">
var viewWidth = 1040;
var viewHeight = 456;
var sectionId = 'dynsection-0';
</script>
<script type="application/ecmascript" xlink:href="svg.min.js"/>
<svg id="graph" class="graph">
<g id="viewport">
<title>mpqc/math/tensor/clr/decomposed_tensor_algebra.cpp</title>
<!-- Node1 -->
<g id="Node000001" class="node">
<title>Node1</title>
<g id="a_Node000001"><a xlink:title=" ">
<polygon fill="#999999" stroke="#666666" points="872.18,-448 692.18,-448 692.18,-418 872.18,-418 872.18,-448"/>
<text text-anchor="start" x="700.18" y="-436" font-family="FreeSans" font-size="10.00">mpqc/math/tensor/clr</text>
<text text-anchor="middle" x="782.18" y="-425" font-family="FreeSans" font-size="10.00">/decomposed_tensor_algebra.cpp</text>
</a>
</g>
</g>
<!-- Node2 -->
<g id="Node000002" class="node">
<title>Node2</title>
<g id="a_Node000002"><a xlink:href="decomposed__tensor__algebra_8h.html" target="_top" xlink:title=" ">
<polygon fill="white" stroke="#666666" points="754.68,-382 585.68,-382 585.68,-352 754.68,-352 754.68,-382"/>
<text text-anchor="start" x="593.68" y="-370" font-family="FreeSans" font-size="10.00">mpqc/math/tensor/clr</text>
<text text-anchor="middle" x="670.18" y="-359" font-family="FreeSans" font-size="10.00">/decomposed_tensor_algebra.h</text>
</a>
</g>
</g>
<!-- Node1&#45;&gt;Node2 -->
<g id="edge1_Node000001_Node000002" class="edge">
<title>Node1&#45;&gt;Node2</title>
<g id="a_edge1_Node000001_Node000002"><a xlink:title=" ">
<path fill="none" stroke="#63b8ff" d="M757.6,-417.95C741.7,-408.87 720.8,-396.93 703.43,-387"/>
<polygon fill="#63b8ff" stroke="#63b8ff" points="705.12,-383.93 694.7,-382.01 701.65,-390.01 705.12,-383.93"/>
</a>
</g>
</g>
<!-- Node25 -->
<g id="Node000025" class="node">
<title>Node25</title>
<g id="a_Node000025"><a xlink:href="decomposed__tensor_8h.html" target="_top" xlink:title=" ">
<polygon fill="white" stroke="#666666" points="870.18,-316 744.18,-316 744.18,-286 870.18,-286 870.18,-316"/>
<text text-anchor="start" x="752.18" y="-304" font-family="FreeSans" font-size="10.00">mpqc/math/tensor/clr</text>
<text text-anchor="middle" x="807.18" y="-293" font-family="FreeSans" font-size="10.00">/decomposed_tensor.h</text>
</a>
</g>
</g>
<!-- Node1&#45;&gt;Node25 -->
<g id="edge38_Node000001_Node000025" class="edge">
<title>Node1&#45;&gt;Node25</title>
<g id="a_edge38_Node000001_Node000025"><a xlink:title=" ">
<path fill="none" stroke="#63b8ff" d="M784.91,-417.84C789.13,-395.86 797.32,-353.27 802.51,-326.3"/>
<polygon fill="#63b8ff" stroke="#63b8ff" points="806.01,-326.62 804.46,-316.14 799.14,-325.3 806.01,-326.62"/>
</a>
</g>
</g>
<!-- Node29 -->
<g id="Node000029" class="node">
<title>Node29</title>
<g id="a_Node000029"><a xlink:href="tiledarray_8h.html" target="_top" xlink:title=" ">
<polygon fill="white" stroke="#666666" points="153.68,-316 28.68,-316 28.68,-286 153.68,-286 153.68,-316"/>
<text text-anchor="start" x="36.68" y="-304" font-family="FreeSans" font-size="10.00">mpqc/math/external</text>
<text text-anchor="middle" x="91.18" y="-293" font-family="FreeSans" font-size="10.00">/tiledarray/tiledarray.h</text>
</a>
</g>
</g>
<!-- Node1&#45;&gt;Node29 -->
<g id="edge35_Node000001_Node000029" class="edge">
<title>Node1&#45;&gt;Node29</title>
<g id="a_edge35_Node000001_Node000029"><a xlink:title=" ">
<path fill="none" stroke="#63b8ff" d="M707.58,-417.96C574.08,-392.85 295.99,-340.53 163.88,-315.68"/>
<polygon fill="#63b8ff" stroke="#63b8ff" points="164.33,-312.2 153.86,-313.79 163.04,-319.08 164.33,-312.2"/>
</a>
</g>
</g>
<!-- Node30 -->
<g id="Node000030" class="node">
<title>Node30</title>
<g id="a_Node000030"><a xlink:title=" ">
<polygon fill="#e0e0e0" stroke="#999999" points="950.18,-376.5 810.18,-376.5 810.18,-357.5 950.18,-357.5 950.18,-376.5"/>
<text text-anchor="middle" x="880.18" y="-364.5" font-family="FreeSans" font-size="10.00">TiledArray/math/lapack.h</text>
</a>
</g>
</g>
<!-- Node1&#45;&gt;Node30 -->
<g id="edge39_Node000001_Node000030" class="edge">
<title>Node1&#45;&gt;Node30</title>
<g id="a_edge39_Node000001_Node000030"><a xlink:title=" ">
<path fill="none" stroke="#63b8ff" d="M803.93,-417.8C820.05,-407.27 841.95,-392.97 858.14,-382.4"/>
<polygon fill="#63b8ff" stroke="#63b8ff" points="860.47,-385.06 866.93,-376.66 856.64,-379.2 860.47,-385.06"/>
</a>
</g>
</g>
<!-- Node31 -->
<g id="Node000031" class="node">
<title>Node31</title>
<g id="a_Node000031"><a xlink:title=" ">
<polygon fill="#e0e0e0" stroke="#999999" points="1032.18,-376.5 968.18,-376.5 968.18,-357.5 1032.18,-357.5 1032.18,-376.5"/>
<text text-anchor="middle" x="1000.18" y="-364.5" font-family="FreeSans" font-size="10.00">lapack.hh</text>
</a>
</g>
</g>
<!-- Node1&#45;&gt;Node31 -->
<g id="edge40_Node000001_Node000031" class="edge">
<title>Node1&#45;&gt;Node31</title>
<g id="a_edge40_Node000001_Node000031"><a xlink:title=" ">
<path fill="none" stroke="#63b8ff" d="M834.68,-417.97C870.01,-408.33 917.57,-394.97 959.18,-382 961.49,-381.28 963.85,-380.52 966.24,-379.75"/>
<polygon fill="#63b8ff" stroke="#63b8ff" points="967.59,-382.99 975.97,-376.51 965.38,-376.35 967.59,-382.99"/>
</a>
</g>
</g>
<!-- Node3 -->
<g id="Node000003" class="node">
<title>Node3</title>
<g id="a_Node000003"><a xlink:title=" ">
<polygon fill="#e0e0e0" stroke="#999999" points="740.68,-250 631.68,-250 631.68,-231 740.68,-231 740.68,-250"/>
<text text-anchor="middle" x="686.18" y="-238" font-family="FreeSans" font-size="10.00">TiledArray/tensor.h</text>
</a>
</g>
</g>
<!-- Node2&#45;&gt;Node3 -->
<g id="edge2_Node000002_Node000003" class="edge">
<title>Node2&#45;&gt;Node3</title>
<g id="a_edge2_Node000002_Node000003"><a xlink:title=" ">
<path fill="none" stroke="#63b8ff" d="M666.95,-351.94C663.78,-335.81 660.1,-308.68 665.18,-286 667.26,-276.74 671.49,-267.14 675.61,-259.23"/>
<polygon fill="#63b8ff" stroke="#63b8ff" points="678.79,-260.72 680.6,-250.28 672.68,-257.31 678.79,-260.72"/>
</a>
</g>
</g>
<!-- Node4 -->
<g id="Node000004" class="node">
<title>Node4</title>
<g id="a_Node000004"><a xlink:href="eigen_8h.html" target="_top" xlink:title=" ">
<polygon fill="white" stroke="#666666" points="486.18,-316 370.18,-316 370.18,-286 486.18,-286 486.18,-316"/>
<text text-anchor="start" x="378.18" y="-304" font-family="FreeSans" font-size="10.00">mpqc/math/external</text>
<text text-anchor="middle" x="428.18" y="-293" font-family="FreeSans" font-size="10.00">/eigen/eigen.h</text>
</a>
</g>
</g>
<!-- Node2&#45;&gt;Node4 -->
<g id="edge3_Node000002_Node000004" class="edge">
<title>Node2&#45;&gt;Node4</title>
<g id="a_edge3_Node000002_Node000004"><a xlink:title=" ">
<path fill="none" stroke="#63b8ff" d="M617.08,-351.95C579.88,-342.12 530.03,-328.93 490.88,-318.58"/>
<polygon fill="#63b8ff" stroke="#63b8ff" points="491.73,-315.19 481.17,-316.01 489.94,-321.95 491.73,-315.19"/>
</a>
</g>
</g>
<!-- Node2&#45;&gt;Node25 -->
<g id="edge28_Node000002_Node000025" class="edge">
<title>Node2&#45;&gt;Node25</title>
<g id="a_edge28_Node000002_Node000025"><a xlink:title=" ">
<path fill="none" stroke="#63b8ff" d="M700.25,-351.95C720.15,-342.66 746.44,-330.38 767.98,-320.32"/>
<polygon fill="#63b8ff" stroke="#63b8ff" points="769.61,-323.42 777.19,-316.01 766.65,-317.07 769.61,-323.42"/>
</a>
</g>
</g>
<!-- Node28 -->
<g id="Node000028" class="node">
<title>Node28</title>
<g id="a_Node000028"><a xlink:title=" ">
<polygon fill="#e0e0e0" stroke="#999999" points="726.18,-310.5 674.18,-310.5 674.18,-291.5 726.18,-291.5 726.18,-310.5"/>
<text text-anchor="middle" x="700.18" y="-298.5" font-family="FreeSans" font-size="10.00">blas.hh</text>
</a>
</g>
</g>
<!-- Node2&#45;&gt;Node28 -->
<g id="edge34_Node000002_Node000028" class="edge">
<title>Node2&#45;&gt;Node28</title>
<g id="a_edge34_Node000002_Node000028"><a xlink:title=" ">
<path fill="none" stroke="#63b8ff" d="M676.84,-351.8C681.24,-342.41 687.05,-330.02 691.77,-319.95"/>
<polygon fill="#63b8ff" stroke="#63b8ff" points="694.96,-321.38 696.04,-310.84 688.62,-318.41 694.96,-321.38"/>
</a>
</g>
</g>
<!-- Node5 -->
<g id="Node000005" class="node">
<title>Node5</title>
<g id="a_Node000005"><a xlink:title=" ">
<polygon fill="#e0e0e0" stroke="#999999" points="518.18,-250 416.18,-250 416.18,-231 518.18,-231 518.18,-250"/>
<text text-anchor="middle" x="467.18" y="-238" font-family="FreeSans" font-size="10.00">madness/config.h</text>
</a>
</g>
</g>
<!-- Node4&#45;&gt;Node5 -->
<g id="edge4_Node000004_Node000005" class="edge">
<title>Node4&#45;&gt;Node5</title>
<g id="a_edge4_Node000004_Node000005"><a xlink:title=" ">
<path fill="none" stroke="#63b8ff" d="M437.62,-285.84C443.05,-277.69 449.92,-267.4 455.66,-258.78"/>
<polygon fill="#63b8ff" stroke="#63b8ff" points="458.7,-260.53 461.34,-250.27 452.88,-256.65 458.7,-260.53"/>
</a>
</g>
</g>
<!-- Node6 -->
<g id="Node000006" class="node">
<title>Node6</title>
<g id="a_Node000006"><a xlink:href="complex_8h.html" target="_top" xlink:title=" ">
<polygon fill="white" stroke="#666666" points="360.18,-250 210.18,-250 210.18,-231 360.18,-231 360.18,-250"/>
<text text-anchor="middle" x="285.18" y="-238" font-family="FreeSans" font-size="10.00">mpqc/math/core/complex.h</text>
</a>
</g>
</g>
<!-- Node4&#45;&gt;Node6 -->
<g id="edge5_Node000004_Node000006" class="edge">
<title>Node4&#45;&gt;Node6</title>
<g id="a_edge5_Node000004_Node000006"><a xlink:title=" ">
<path fill="none" stroke="#63b8ff" d="M393.93,-285.99C370.07,-276.23 338.54,-263.33 315.57,-253.93"/>
<polygon fill="#63b8ff" stroke="#63b8ff" points="316.88,-250.69 306.3,-250.14 314.23,-257.17 316.88,-250.69"/>
</a>
</g>
</g>
<!-- Node8 -->
<g id="Node000008" class="node">
<title>Node8</title>
<g id="a_Node000008"><a xlink:title=" ">
<polygon fill="#e0e0e0" stroke="#999999" points="346.68,-129 229.68,-129 229.68,-110 346.68,-110 346.68,-129"/>
<text text-anchor="middle" x="288.18" y="-117" font-family="FreeSans" font-size="10.00">mpqc/mpqc_config.h</text>
</a>
</g>
</g>
<!-- Node4&#45;&gt;Node8 -->
<g id="edge24_Node000004_Node000008" class="edge">
<title>Node4&#45;&gt;Node8</title>
<g id="a_edge24_Node000004_Node000008"><a xlink:title=" ">
<path fill="none" stroke="#63b8ff" d="M369.87,-293.89C267.34,-281.78 61.67,-250.97 20.18,-195 12.24,-184.29 11.56,-175.17 20.18,-165 45.25,-135.42 148.67,-125.48 219.45,-122.15"/>
<polygon fill="#63b8ff" stroke="#63b8ff" points="219.8,-125.64 229.64,-121.71 219.5,-118.65 219.8,-125.64"/>
</a>
</g>
</g>
<!-- Node23 -->
<g id="Node000023" class="node">
<title>Node23</title>
<g id="a_Node000023"><a xlink:href="math_2external_2eigen_2fwd_8h.html" target="_top" xlink:title=" ">
<polygon fill="white" stroke="#666666" points="699.18,-195 583.18,-195 583.18,-165 699.18,-165 699.18,-195"/>
<text text-anchor="start" x="591.18" y="-183" font-family="FreeSans" font-size="10.00">mpqc/math/external</text>
<text text-anchor="middle" x="641.18" y="-172" font-family="FreeSans" font-size="10.00">/eigen/fwd.h</text>
</a>
</g>
</g>
<!-- Node4&#45;&gt;Node23 -->
<g id="edge25_Node000004_Node000023" class="edge">
<title>Node4&#45;&gt;Node23</title>
<g id="a_edge25_Node000004_Node000023"><a xlink:title=" ">
<path fill="none" stroke="#63b8ff" d="M416.99,-285.86C406.52,-270.79 394.27,-246.97 407.18,-231 408.52,-229.34 504.38,-209.25 572.98,-195.04"/>
<polygon fill="#63b8ff" stroke="#63b8ff" points="573.81,-198.45 582.89,-192.99 572.39,-191.59 573.81,-198.45"/>
</a>
</g>
</g>
<!-- Node24 -->
<g id="Node000024" class="node">
<title>Node24</title>
<g id="a_Node000024"><a xlink:title=" ">
<polygon fill="#e0e0e0" stroke="#999999" points="613.68,-250 536.68,-250 536.68,-231 613.68,-231 613.68,-250"/>
<text text-anchor="middle" x="575.18" y="-238" font-family="FreeSans" font-size="10.00">Eigen/Dense</text>
</a>
</g>
</g>
<!-- Node4&#45;&gt;Node24 -->
<g id="edge27_Node000004_Node000024" class="edge">
<title>Node4&#45;&gt;Node24</title>
<g id="a_edge27_Node000004_Node000024"><a xlink:title=" ">
<path fill="none" stroke="#63b8ff" d="M463.39,-285.99C487.92,-276.23 520.34,-263.33 543.95,-253.93"/>
<polygon fill="#63b8ff" stroke="#63b8ff" points="545.48,-257.09 553.47,-250.14 542.89,-250.58 545.48,-257.09"/>
</a>
</g>
</g>
<!-- Node7 -->
<g id="Node000007" class="node">
<title>Node7</title>
<g id="a_Node000007"><a xlink:href="assert_8h.html" target="_top" xlink:title=" ">
<polygon fill="white" stroke="#666666" points="848.68,-189.5 717.68,-189.5 717.68,-170.5 848.68,-170.5 848.68,-189.5"/>
<text text-anchor="middle" x="783.18" y="-177.5" font-family="FreeSans" font-size="10.00">mpqc/util/misc/assert.h</text>
</a>
</g>
</g>
<!-- Node6&#45;&gt;Node7 -->
<g id="edge6_Node000006_Node000007" class="edge">
<title>Node6&#45;&gt;Node7</title>
<g id="a_edge6_Node000006_Node000007"><a xlink:title=" ">
<path fill="none" stroke="#63b8ff" d="M360.29,-233.42C445.04,-226.14 586.89,-212.67 708.18,-195 715.57,-193.92 723.33,-192.64 730.95,-191.3"/>
<polygon fill="#63b8ff" stroke="#63b8ff" points="731.62,-194.74 740.84,-189.51 730.38,-187.85 731.62,-194.74"/>
</a>
</g>
</g>
<!-- Node18 -->
<g id="Node000018" class="node">
<title>Node18</title>
<g id="a_Node000018"><a xlink:title=" ">
<polygon fill="#e0e0e0" stroke="#999999" points="185.68,-189.5 116.68,-189.5 116.68,-170.5 185.68,-170.5 185.68,-189.5"/>
<text text-anchor="middle" x="151.18" y="-177.5" font-family="FreeSans" font-size="10.00">Eigen/Core</text>
</a>
</g>
</g>
<!-- Node6&#45;&gt;Node18 -->
<g id="edge19_Node000006_Node000018" class="edge">
<title>Node6&#45;&gt;Node18</title>
<g id="a_edge19_Node000006_Node000018"><a xlink:title=" ">
<path fill="none" stroke="#63b8ff" d="M265.7,-230.99C243.17,-221.16 205.88,-204.88 180,-193.58"/>
<polygon fill="#63b8ff" stroke="#63b8ff" points="181.26,-190.31 170.69,-189.52 178.46,-196.73 181.26,-190.31"/>
</a>
</g>
</g>
<!-- Node19 -->
<g id="Node000019" class="node">
<title>Node19</title>
<g id="a_Node000019"><a xlink:title=" ">
<polygon fill="#e0e0e0" stroke="#999999" points="326.18,-195 204.18,-195 204.18,-165 326.18,-165 326.18,-195"/>
<text text-anchor="start" x="212.18" y="-183" font-family="FreeSans" font-size="10.00">boost/container/small</text>
<text text-anchor="middle" x="265.18" y="-172" font-family="FreeSans" font-size="10.00">_vector.hpp</text>
</a>
</g>
</g>
<!-- Node6&#45;&gt;Node19 -->
<g id="edge20_Node000006_Node000019" class="edge">
<title>Node6&#45;&gt;Node19</title>
<g id="a_edge20_Node000006_Node000019"><a xlink:title=" ">
<path fill="none" stroke="#63b8ff" d="M282.23,-230.87C279.87,-223.96 276.44,-213.93 273.28,-204.67"/>
<polygon fill="#63b8ff" stroke="#63b8ff" points="276.56,-203.44 270.01,-195.11 269.93,-205.71 276.56,-203.44"/>
</a>
</g>
</g>
<!-- Node20 -->
<g id="Node000020" class="node">
<title>Node20</title>
<g id="a_Node000020"><a xlink:title=" ">
<polygon fill="#e0e0e0" stroke="#999999" points="487.68,-195 344.68,-195 344.68,-165 487.68,-165 487.68,-195"/>
<text text-anchor="start" x="352.68" y="-183" font-family="FreeSans" font-size="10.00">boost/numeric/conversion</text>
<text text-anchor="middle" x="416.18" y="-172" font-family="FreeSans" font-size="10.00">/cast.hpp</text>
</a>
</g>
</g>
<!-- Node6&#45;&gt;Node20 -->
<g id="edge21_Node000006_Node000020" class="edge">
<title>Node6&#45;&gt;Node20</title>
<g id="a_edge21_Node000006_Node000020"><a xlink:title=" ">
<path fill="none" stroke="#63b8ff" d="M304.23,-230.99C322.84,-222.68 351.75,-209.78 375.53,-199.16"/>
<polygon fill="#63b8ff" stroke="#63b8ff" points="376.99,-202.34 384.69,-195.06 374.13,-195.95 376.99,-202.34"/>
</a>
</g>
</g>
<!-- Node21 -->
<g id="Node000021" class="node">
<title>Node21</title>
<g id="a_Node000021"><a xlink:title=" ">
<polygon fill="#e0e0e0" stroke="#999999" points="564.68,-189.5 505.68,-189.5 505.68,-170.5 564.68,-170.5 564.68,-189.5"/>
<text text-anchor="middle" x="535.18" y="-177.5" font-family="FreeSans" font-size="10.00">complex</text>
</a>
</g>
</g>
<!-- Node6&#45;&gt;Node21 -->
<g id="edge22_Node000006_Node000021" class="edge">
<title>Node6&#45;&gt;Node21</title>
<g id="a_edge22_Node000006_Node000021"><a xlink:title=" ">
<path fill="none" stroke="#63b8ff" d="M335.11,-230.96C378.16,-223.13 441.8,-210.42 496.18,-195 498.61,-194.31 501.09,-193.55 503.59,-192.75"/>
<polygon fill="#63b8ff" stroke="#63b8ff" points="504.74,-196.06 513.08,-189.53 502.49,-189.43 504.74,-196.06"/>
</a>
</g>
</g>
<!-- Node22 -->
<g id="Node000022" class="node">
<title>Node22</title>
<g id="a_Node000022"><a xlink:title=" ">
<polygon fill="#e0e0e0" stroke="#999999" points="98.68,-189.5 29.68,-189.5 29.68,-170.5 98.68,-170.5 98.68,-189.5"/>
<text text-anchor="middle" x="64.18" y="-177.5" font-family="FreeSans" font-size="10.00">type_traits</text>
</a>
</g>
</g>
<!-- Node6&#45;&gt;Node22 -->
<g id="edge23_Node000006_Node000022" class="edge">
<title>Node6&#45;&gt;Node22</title>
<g id="a_edge23_Node000006_Node000022"><a xlink:title=" ">
<path fill="none" stroke="#63b8ff" d="M247.82,-230.96C211.66,-222.51 155.4,-208.86 107.18,-195 104.58,-194.25 101.91,-193.45 99.22,-192.63"/>
<polygon fill="#63b8ff" stroke="#63b8ff" points="100.15,-189.25 89.56,-189.59 98.05,-195.93 100.15,-189.25"/>
</a>
</g>
</g>
<!-- Node7&#45;&gt;Node8 -->
<g id="edge7_Node000007_Node000008" class="edge">
<title>Node7&#45;&gt;Node8</title>
<g id="a_edge7_Node000007_Node000008"><a xlink:title=" ">
<path fill="none" stroke="#63b8ff" d="M740.84,-170.49C730.21,-168.52 718.8,-166.55 708.18,-165 584.9,-146.99 440.25,-133.28 356.9,-126.1"/>
<polygon fill="#63b8ff" stroke="#63b8ff" points="357.06,-122.6 346.8,-125.24 356.46,-129.58 357.06,-122.6"/>
</a>
</g>
</g>
<!-- Node9 -->
<g id="Node000009" class="node">
<title>Node9</title>
<g id="a_Node000009"><a xlink:title=" ">
<polygon fill="#e0e0e0" stroke="#999999" points="838.18,-129 786.18,-129 786.18,-110 838.18,-110 838.18,-129"/>
<text text-anchor="middle" x="812.18" y="-117" font-family="FreeSans" font-size="10.00">cassert</text>
</a>
</g>
</g>
<!-- Node7&#45;&gt;Node9 -->
<g id="edge8_Node000007_Node000009" class="edge">
<title>Node7&#45;&gt;Node9</title>
<g id="a_edge8_Node000007_Node000009"><a xlink:title=" ">
<path fill="none" stroke="#63b8ff" d="M787.46,-170.37C791.62,-161.99 798.05,-149.01 803.31,-138.39"/>
<polygon fill="#63b8ff" stroke="#63b8ff" points="806.58,-139.68 807.89,-129.17 800.31,-136.57 806.58,-139.68"/>
</a>
</g>
</g>
<!-- Node10 -->
<g id="Node000010" class="node">
<title>Node10</title>
<g id="a_Node000010"><a xlink:href="exception_8h.html" target="_top" xlink:title=" ">
<polygon fill="white" stroke="#666666" points="768.18,-129 622.18,-129 622.18,-110 768.18,-110 768.18,-129"/>
<text text-anchor="middle" x="695.18" y="-117" font-family="FreeSans" font-size="10.00">mpqc/util/core/exception.h</text>
</a>
</g>
</g>
<!-- Node7&#45;&gt;Node10 -->
<g id="edge9_Node000007_Node000010" class="edge">
<title>Node7&#45;&gt;Node10</title>
<g id="a_edge9_Node000007_Node000010"><a xlink:title=" ">
<path fill="none" stroke="#63b8ff" d="M770.2,-170.37C756.16,-161.04 733.55,-146.01 716.82,-134.88"/>
<polygon fill="#63b8ff" stroke="#63b8ff" points="718.49,-131.79 708.22,-129.17 714.61,-137.62 718.49,-131.79"/>
</a>
</g>
</g>
<!-- Node11 -->
<g id="Node000011" class="node">
<title>Node11</title>
<g id="a_Node000011"><a xlink:title=" ">
<polygon fill="#e0e0e0" stroke="#999999" points="854.68,-74 801.68,-74 801.68,-55 854.68,-55 854.68,-74"/>
<text text-anchor="middle" x="828.18" y="-62" font-family="FreeSans" font-size="10.00">string.h</text>
</a>
</g>
</g>
<!-- Node10&#45;&gt;Node11 -->
<g id="edge10_Node000010_Node000011" class="edge">
<title>Node10&#45;&gt;Node11</title>
<g id="a_edge10_Node000010_Node000011"><a xlink:title=" ">
<path fill="none" stroke="#63b8ff" d="M716.55,-109.98C738.33,-101.3 772.34,-87.75 797.1,-77.88"/>
<polygon fill="#63b8ff" stroke="#63b8ff" points="798.43,-81.12 806.43,-74.17 795.84,-74.62 798.43,-81.12"/>
</a>
</g>
</g>
<!-- Node12 -->
<g id="Node000012" class="node">
<title>Node12</title>
<g id="a_Node000012"><a xlink:href="memory.html" target="_top" xlink:title=" ">
<polygon fill="white" stroke="#666666" points="443.18,-74 385.18,-74 385.18,-55 443.18,-55 443.18,-74"/>
<text text-anchor="middle" x="414.18" y="-62" font-family="FreeSans" font-size="10.00">memory</text>
</a>
</g>
</g>
<!-- Node10&#45;&gt;Node12 -->
<g id="edge11_Node000010_Node000012" class="edge">
<title>Node10&#45;&gt;Node12</title>
<g id="a_edge11_Node000010_Node000012"><a xlink:title=" ">
<path fill="none" stroke="#63b8ff" d="M650.04,-109.98C595.61,-99.72 505.03,-82.64 453.4,-72.9"/>
<polygon fill="#63b8ff" stroke="#63b8ff" points="453.79,-69.41 443.31,-70.99 452.49,-76.29 453.79,-69.41"/>
</a>
</g>
</g>
<!-- Node13 -->
<g id="Node000013" class="node">
<title>Node13</title>
<g id="a_Node000013"><a xlink:title=" ">
<polygon fill="#e0e0e0" stroke="#999999" points="535.18,-74 479.18,-74 479.18,-55 535.18,-55 535.18,-74"/>
<text text-anchor="middle" x="507.18" y="-62" font-family="FreeSans" font-size="10.00">sstream</text>
</a>
</g>
</g>
<!-- Node10&#45;&gt;Node13 -->
<g id="edge13_Node000010_Node000013" class="edge">
<title>Node10&#45;&gt;Node13</title>
<g id="a_edge13_Node000010_Node000013"><a xlink:title=" ">
<path fill="none" stroke="#63b8ff" d="M664.98,-109.98C632.48,-100.82 580.72,-86.23 545.41,-76.28"/>
<polygon fill="#63b8ff" stroke="#63b8ff" points="546.04,-72.82 535.47,-73.47 544.14,-79.56 546.04,-72.82"/>
</a>
</g>
</g>
<!-- Node14 -->
<g id="Node000014" class="node">
<title>Node14</title>
<g id="a_Node000014"><a xlink:title=" ">
<polygon fill="#e0e0e0" stroke="#999999" points="618.68,-74 553.68,-74 553.68,-55 618.68,-55 618.68,-74"/>
<text text-anchor="middle" x="586.18" y="-62" font-family="FreeSans" font-size="10.00">stdexcept</text>
</a>
</g>
</g>
<!-- Node10&#45;&gt;Node14 -->
<g id="edge14_Node000010_Node000014" class="edge">
<title>Node10&#45;&gt;Node14</title>
<g id="a_edge14_Node000010_Node000014"><a xlink:title=" ">
<path fill="none" stroke="#63b8ff" d="M677.67,-109.98C660.21,-101.5 633.17,-88.35 613.01,-78.54"/>
<polygon fill="#63b8ff" stroke="#63b8ff" points="614.54,-75.4 604.01,-74.17 611.48,-81.69 614.54,-75.4"/>
</a>
</g>
</g>
<!-- Node15 -->
<g id="Node000015" class="node">
<title>Node15</title>
<g id="a_Node000015"><a xlink:title=" ">
<polygon fill="#e0e0e0" stroke="#999999" points="906.68,-19 859.68,-19 859.68,0 906.68,0 906.68,-19"/>
<text text-anchor="middle" x="883.18" y="-7" font-family="FreeSans" font-size="10.00">vector</text>
</a>
</g>
</g>
<!-- Node10&#45;&gt;Node15 -->
<g id="edge15_Node000010_Node000015" class="edge">
<title>Node10&#45;&gt;Node15</title>
<g id="a_edge15_Node000010_Node000015"><a xlink:title=" ">
<path fill="none" stroke="#63b8ff" d="M749.32,-109.97C791.95,-102.22 846.82,-89.63 863.18,-74 875.32,-62.41 880.12,-43.54 882.01,-29.38"/>
<polygon fill="#63b8ff" stroke="#63b8ff" points="885.51,-29.55 882.98,-19.26 878.54,-28.88 885.51,-29.55"/>
</a>
</g>
</g>
<!-- Node16 -->
<g id="Node000016" class="node">
<title>Node16</title>
<g id="a_Node000016"><a xlink:href="backtrace_8h.html" target="_top" xlink:title=" ">
<polygon fill="white" stroke="#666666" points="783.18,-74 637.18,-74 637.18,-55 783.18,-55 783.18,-74"/>
<text text-anchor="middle" x="710.18" y="-62" font-family="FreeSans" font-size="10.00">mpqc/util/core/backtrace.h</text>
</a>
</g>
</g>
<!-- Node10&#45;&gt;Node16 -->
<g id="edge16_Node000010_Node000016" class="edge">
<title>Node10&#45;&gt;Node16</title>
<g id="a_edge16_Node000010_Node000016"><a xlink:title=" ">
<path fill="none" stroke="#63b8ff" d="M697.66,-109.75C699.65,-102.72 702.51,-92.62 704.99,-83.84"/>
<polygon fill="#63b8ff" stroke="#63b8ff" points="708.4,-84.66 707.75,-74.09 701.66,-82.76 708.4,-84.66"/>
</a>
</g>
</g>
<!-- Node12&#45;&gt;Node12 -->
<g id="edge12_Node000012_Node000012" class="edge">
<title>Node12&#45;&gt;Node12</title>
<g id="a_edge12_Node000012_Node000012"><a xlink:title=" ">
<path fill="none" stroke="#63b8ff" d="M436.43,-74.07C449.25,-76.02 461.18,-72.83 461.18,-64.5 461.18,-58.45 454.88,-55.11 446.52,-54.48"/>
<polygon fill="#63b8ff" stroke="#63b8ff" points="446.26,-50.99 436.43,-54.93 446.57,-57.98 446.26,-50.99"/>
</a>
</g>
</g>
<!-- Node16&#45;&gt;Node15 -->
<g id="edge18_Node000016_Node000015" class="edge">
<title>Node16&#45;&gt;Node15</title>
<g id="a_edge18_Node000016_Node000015"><a xlink:title=" ">
<path fill="none" stroke="#63b8ff" d="M737.98,-54.98C768.4,-45.66 817.17,-30.72 849.68,-20.76"/>
<polygon fill="#63b8ff" stroke="#63b8ff" points="851.09,-23.99 859.63,-17.72 849.04,-17.3 851.09,-23.99"/>
</a>
</g>
</g>
<!-- Node17 -->
<g id="Node000017" class="node">
<title>Node17</title>
<g id="a_Node000017"><a xlink:title=" ">
<polygon fill="#e0e0e0" stroke="#999999" points="732.18,-19 688.18,-19 688.18,0 732.18,0 732.18,-19"/>
<text text-anchor="middle" x="710.18" y="-7" font-family="FreeSans" font-size="10.00">string</text>
</a>
</g>
</g>
<!-- Node16&#45;&gt;Node17 -->
<g id="edge17_Node000016_Node000017" class="edge">
<title>Node16&#45;&gt;Node17</title>
<g id="a_edge17_Node000016_Node000017"><a xlink:title=" ">
<path fill="none" stroke="#63b8ff" d="M710.18,-54.75C710.18,-47.8 710.18,-37.85 710.18,-29.13"/>
<polygon fill="#63b8ff" stroke="#63b8ff" points="713.68,-29.09 710.18,-19.09 706.68,-29.09 713.68,-29.09"/>
</a>
</g>
</g>
<!-- Node23&#45;&gt;Node8 -->
<g id="edge26_Node000023_Node000008" class="edge">
<title>Node23&#45;&gt;Node8</title>
<g id="a_edge26_Node000023_Node000008"><a xlink:title=" ">
<path fill="none" stroke="#63b8ff" d="M582.98,-166.83C579.67,-166.19 576.39,-165.58 573.18,-165 499.5,-151.67 414.66,-138.73 356.84,-130.27"/>
<polygon fill="#63b8ff" stroke="#63b8ff" points="357.13,-126.78 346.73,-128.8 356.12,-133.7 357.13,-126.78"/>
</a>
</g>
</g>
<!-- Node25&#45;&gt;Node3 -->
<g id="edge29_Node000025_Node000003" class="edge">
<title>Node25&#45;&gt;Node3</title>
<g id="a_edge29_Node000025_Node000003"><a xlink:title=" ">
<path fill="none" stroke="#63b8ff" d="M778.2,-285.99C758.46,-276.45 732.52,-263.9 713.21,-254.57"/>
<polygon fill="#63b8ff" stroke="#63b8ff" points="714.58,-251.34 704.05,-250.14 711.53,-257.64 714.58,-251.34"/>
</a>
</g>
</g>
<!-- Node25&#45;&gt;Node7 -->
<g id="edge33_Node000025_Node000007" class="edge">
<title>Node25&#45;&gt;Node7</title>
<g id="a_edge33_Node000025_Node000007"><a xlink:title=" ">
<path fill="none" stroke="#63b8ff" d="M800.56,-285.9C796.26,-276.06 790.95,-262.51 788.18,-250 784.49,-233.33 783.36,-213.89 783.08,-199.9"/>
<polygon fill="#63b8ff" stroke="#63b8ff" points="786.58,-199.59 783.01,-189.61 779.58,-199.64 786.58,-199.59"/>
</a>
</g>
</g>
<!-- Node25&#45;&gt;Node15 -->
<g id="edge32_Node000025_Node000015" class="edge">
<title>Node25&#45;&gt;Node15</title>
<g id="a_edge32_Node000025_Node000015"><a xlink:title=" ">
<path fill="none" stroke="#63b8ff" d="M850.08,-285.8C868.16,-277.86 888.02,-266.21 901.18,-250 921.31,-225.21 921.18,-212.93 921.18,-181 921.18,-181 921.18,-181 921.18,-118.5 921.18,-85.02 904.73,-48.84 893.48,-28.01"/>
<polygon fill="#63b8ff" stroke="#63b8ff" points="896.42,-26.1 888.47,-19.1 890.32,-29.53 896.42,-26.1"/>
</a>
</g>
</g>
<!-- Node26 -->
<g id="Node000026" class="node">
<title>Node26</title>
<g id="a_Node000026"><a xlink:title=" ">
<polygon fill="#e0e0e0" stroke="#999999" points="892.68,-250 797.68,-250 797.68,-231 892.68,-231 892.68,-250"/>
<text text-anchor="middle" x="845.18" y="-238" font-family="FreeSans" font-size="10.00">tiledarray_fwd.h</text>
</a>
</g>
</g>
<!-- Node25&#45;&gt;Node26 -->
<g id="edge30_Node000025_Node000026" class="edge">
<title>Node25&#45;&gt;Node26</title>
<g id="a_edge30_Node000025_Node000026"><a xlink:title=" ">
<path fill="none" stroke="#63b8ff" d="M816.38,-285.84C821.67,-277.69 828.36,-267.4 833.96,-258.78"/>
<polygon fill="#63b8ff" stroke="#63b8ff" points="836.98,-260.56 839.49,-250.27 831.11,-256.75 836.98,-260.56"/>
</a>
</g>
</g>
<!-- Node27 -->
<g id="Node000027" class="node">
<title>Node27</title>
<g id="a_Node000027"><a xlink:title=" ">
<polygon fill="#e0e0e0" stroke="#999999" points="1009.18,-250 949.18,-250 949.18,-231 1009.18,-231 1009.18,-250"/>
<text text-anchor="middle" x="979.18" y="-238" font-family="FreeSans" font-size="10.00">iostream</text>
</a>
</g>
</g>
<!-- Node25&#45;&gt;Node27 -->
<g id="edge31_Node000025_Node000027" class="edge">
<title>Node25&#45;&gt;Node27</title>
<g id="a_edge31_Node000025_Node000027"><a xlink:title=" ">
<path fill="none" stroke="#63b8ff" d="M848.38,-285.99C877.68,-276.02 916.6,-262.78 944.35,-253.35"/>
<polygon fill="#63b8ff" stroke="#63b8ff" points="945.69,-256.59 954.03,-250.05 943.44,-249.96 945.69,-256.59"/>
</a>
</g>
</g>
<!-- Node29&#45;&gt;Node8 -->
<g id="edge37_Node000029_Node000008" class="edge">
<title>Node29&#45;&gt;Node8</title>
<g id="a_edge37_Node000029_Node000008"><a xlink:title=" ">
<path fill="none" stroke="#63b8ff" d="M71.62,-285.99C38.07,-260.32 -23.69,-204.73 10.18,-165 36.53,-134.1 145.82,-124.56 219.27,-121.68"/>
<polygon fill="#63b8ff" stroke="#63b8ff" points="219.51,-125.17 229.38,-121.31 219.26,-118.17 219.51,-125.17"/>
</a>
</g>
</g>
<!-- Node29&#45;&gt;Node29 -->
<g id="edge36_Node000029_Node000029" class="edge">
<title>Node29&#45;&gt;Node29</title>
<g id="a_edge36_Node000029_Node000029"><a xlink:title=" ">
<path fill="none" stroke="#63b8ff" d="M153.96,-311.46C164.45,-309.99 171.68,-306.51 171.68,-301 171.68,-297.47 168.71,-294.77 163.82,-292.9"/>
<polygon fill="#63b8ff" stroke="#63b8ff" points="164.5,-289.47 153.96,-290.54 162.87,-296.28 164.5,-289.47"/>
</a>
</g>
</g>
</g>
</svg>

<g id="navigator" transform="translate(0 0)" fill="#404254">
  <rect fill="#f2f5e9" fill-opacity="0.5" stroke="#606060" stroke-width=".5" x="0" y="0" width="60" height="60"/>
  <use id="zoomplus" xlink:href="#zoomPlus" x="17" y="9" onmousedown="handleZoom(evt,'in')"/>
  <use id="zoomminus" xlink:href="#zoomMin" x="42" y="9" onmousedown="handleZoom(evt,'out')"/>
  <use id="reset" xlink:href="#resetDef" x="30" y="36" onmousedown="handleReset()"/>
   <use id="arrowup" xlink:href="#arrowUp" x="0" y="0" onmousedown="handlePan(0,-1)"/>
  <use id="arrowright" xlink:href="#arrowRight" x="0" y="0" onmousedown="handlePan(1,0)"/>
  <use id="arrowdown" xlink:href="#arrowDown" x="0" y="0" onmousedown="handlePan(0,1)"/>
  <use id="arrowleft" xlink:href="#arrowLeft" x="0" y="0" onmousedown="handlePan(-1,0)"/>
</g>
<svg viewBox="0 0 15 15" width="100%" height="30px" preserveAspectRatio="xMaxYMin meet">
 <g id="arrow_out" transform="scale(0.3 0.3)">
  <a xlink:href="decomposed__tensor__algebra_8cpp__incl_org.svg" target="_base">
   <rect id="button" ry="5" rx="5" y="6" x="6" height="38" width="38"
        fill="#f2f5e9" fill-opacity="0.5" stroke="#606060" stroke-width="1.0"/>
   <path id="arrow"
     d="M 11.500037,31.436501 C 11.940474,20.09759 22.043105,11.32322 32.158766,21.979434 L 37.068811,17.246167 C 37.068811,17.246167 37.088388,32 37.088388,32 L 22.160133,31.978069 C 22.160133,31.978069 26.997745,27.140456 26.997745,27.140456 C 18.528582,18.264221 13.291696,25.230495 11.500037,31.436501 z"
     style="fill:#404040;"/>
  </a>
 </g>
</svg>

<style type='text/css'>
<![CDATA[
[data-mouse-over-selected='false'] { opacity: 0.7; }
[data-mouse-over-selected='true']  { opacity: 1.0; }
]]>
</style>
<script type="application/ecmascript"><![CDATA[
document.addEventListener('DOMContentLoaded', (event) => {
  highlightEdges();
  highlightAdjacentNodes();
});
]]></script>
</svg>
