<?xml version="1.0" encoding="UTF-8" standalone="no"?>
<!DOCTYPE svg PUBLIC "-//W3C//DTD SVG 1.1//EN"
 "http://www.w3.org/Graphics/SVG/1.1/DTD/svg11.dtd">
<!-- Generated by graphviz version 2.43.0 (0)
 -->
<!-- Title: mpqc/chemistry/qc/lcao/scf/decomposed_rij.h Pages: 1 -->
<svg width="493pt" height="434pt"
 viewBox="0.00 0.00 492.50 434.00" xmlns="http://www.w3.org/2000/svg" xmlns:xlink="http://www.w3.org/1999/xlink">
<g id="graph0" class="graph" transform="scale(1 1) rotate(0) translate(4 430)">
<title>mpqc/chemistry/qc/lcao/scf/decomposed_rij.h</title>
<!-- Node1 -->
<g id="Node000001" class="node">
<title>Node1</title>
<g id="a_Node000001"><a xlink:title=" ">
<polygon fill="#999999" stroke="#666666" points="332.5,-426 199.5,-426 199.5,-396 332.5,-396 332.5,-426"/>
<text text-anchor="start" x="207.5" y="-414" font-family="FreeSans" font-size="10.00">mpqc/chemistry/qc/lcao</text>
<text text-anchor="middle" x="266" y="-403" font-family="FreeSans" font-size="10.00">/scf/decomposed_rij.h</text>
</a>
</g>
</g>
<!-- Node2 -->
<g id="Node000002" class="node">
<title>Node2</title>
<g id="a_Node000002"><a xlink:href="decomposed__rij_8cpp.html" target="_top" xlink:title=" ">
<polygon fill="white" stroke="#666666" points="134,-360 0,-360 0,-330 134,-330 134,-360"/>
<text text-anchor="start" x="8" y="-348" font-family="FreeSans" font-size="10.00">mpqc/chemistry/qc/lcao</text>
<text text-anchor="middle" x="67" y="-337" font-family="FreeSans" font-size="10.00">/scf/decomposed_rij.cpp</text>
</a>
</g>
</g>
<!-- Node1&#45;&gt;Node2 -->
<g id="edge1_Node000001_Node000002" class="edge">
<title>Node1&#45;&gt;Node2</title>
<g id="a_edge1_Node000001_Node000002"><a xlink:title=" ">
<path fill="none" stroke="#63b8ff" d="M212.69,-392.86C180.74,-382.58 140.62,-369.68 110.57,-360.01"/>
<polygon fill="#63b8ff" stroke="#63b8ff" points="211.74,-396.23 222.33,-395.95 213.88,-389.56 211.74,-396.23"/>
</a>
</g>
</g>
<!-- Node3 -->
<g id="Node000003" class="node">
<title>Node3</title>
<g id="a_Node000003"><a xlink:href="dfj__builder_8ipp.html" target="_top" xlink:title=" ">
<polygon fill="white" stroke="#666666" points="475.5,-294 342.5,-294 342.5,-264 475.5,-264 475.5,-294"/>
<text text-anchor="start" x="350.5" y="-282" font-family="FreeSans" font-size="10.00">mpqc/chemistry/qc/lcao</text>
<text text-anchor="middle" x="409" y="-271" font-family="FreeSans" font-size="10.00">/scf/pbc/dfj_builder.ipp</text>
</a>
</g>
</g>
<!-- Node1&#45;&gt;Node3 -->
<g id="edge2_Node000001_Node000003" class="edge">
<title>Node1&#45;&gt;Node3</title>
<g id="a_edge2_Node000001_Node000003"><a xlink:title=" ">
<path fill="none" stroke="#63b8ff" d="M292.68,-389.45C303.81,-380.63 316.74,-370.06 328,-360 352.77,-337.88 379.91,-310.34 395.65,-294.02"/>
<polygon fill="#63b8ff" stroke="#63b8ff" points="290.28,-386.88 284.58,-395.81 294.6,-392.39 290.28,-386.88"/>
</a>
</g>
</g>
<!-- Node6 -->
<g id="Node000006" class="node">
<title>Node6</title>
<g id="a_Node000006"><a xlink:href="pbc_2rhf_8ipp.html" target="_top" xlink:title=" ">
<polygon fill="white" stroke="#666666" points="333.5,-228 200.5,-228 200.5,-198 333.5,-198 333.5,-228"/>
<text text-anchor="start" x="208.5" y="-216" font-family="FreeSans" font-size="10.00">mpqc/chemistry/qc/lcao</text>
<text text-anchor="middle" x="267" y="-205" font-family="FreeSans" font-size="10.00">/scf/pbc/rhf.ipp</text>
</a>
</g>
</g>
<!-- Node1&#45;&gt;Node6 -->
<g id="edge19_Node000001_Node000006" class="edge">
<title>Node1&#45;&gt;Node6</title>
<g id="a_edge19_Node000001_Node000006"><a xlink:title=" ">
<path fill="none" stroke="#63b8ff" d="M282.68,-387.06C287.66,-378.92 292.46,-369.43 295,-360 307.81,-312.4 285.92,-254.55 273.98,-228.25"/>
<polygon fill="#63b8ff" stroke="#63b8ff" points="279.64,-385.32 277.1,-395.6 285.5,-389.15 279.64,-385.32"/>
</a>
</g>
</g>
<!-- Node12 -->
<g id="Node000012" class="node">
<title>Node12</title>
<g id="a_Node000012"><a xlink:href="ma_8h.html" target="_top" xlink:title=" ">
<polygon fill="white" stroke="#666666" points="285.5,-360 152.5,-360 152.5,-330 285.5,-330 285.5,-360"/>
<text text-anchor="start" x="160.5" y="-348" font-family="FreeSans" font-size="10.00">mpqc/chemistry/qc/lcao</text>
<text text-anchor="middle" x="219" y="-337" font-family="FreeSans" font-size="10.00">/scf/pbc/ma.h</text>
</a>
</g>
</g>
<!-- Node1&#45;&gt;Node12 -->
<g id="edge13_Node000001_Node000012" class="edge">
<title>Node1&#45;&gt;Node12</title>
<g id="a_edge13_Node000001_Node000012"><a xlink:title=" ">
<path fill="none" stroke="#63b8ff" d="M249.5,-387.53C242.81,-378.43 235.3,-368.19 229.4,-360.16"/>
<polygon fill="#63b8ff" stroke="#63b8ff" points="246.83,-389.81 255.57,-395.8 252.47,-385.66 246.83,-389.81"/>
</a>
</g>
</g>
<!-- Node4 -->
<g id="Node000004" class="node">
<title>Node4</title>
<g id="a_Node000004"><a xlink:href="dfj__builder_8h.html" target="_top" xlink:title=" ">
<polygon fill="white" stroke="#666666" points="484.5,-228 351.5,-228 351.5,-198 484.5,-198 484.5,-228"/>
<text text-anchor="start" x="359.5" y="-216" font-family="FreeSans" font-size="10.00">mpqc/chemistry/qc/lcao</text>
<text text-anchor="middle" x="418" y="-205" font-family="FreeSans" font-size="10.00">/scf/pbc/dfj_builder.h</text>
</a>
</g>
</g>
<!-- Node3&#45;&gt;Node4 -->
<g id="edge3_Node000003_Node000004" class="edge">
<title>Node3&#45;&gt;Node4</title>
<g id="a_edge3_Node000003_Node000004"><a xlink:title=" ">
<path fill="none" stroke="#63b8ff" d="M405.86,-253.54C406.67,-244.96 408.28,-235.61 410.29,-228.16"/>
<polygon fill="#63b8ff" stroke="#63b8ff" points="402.35,-253.61 405.28,-263.8 409.34,-254.01 402.35,-253.61"/>
</a>
</g>
</g>
<!-- Node3&#45;&gt;Node6 -->
<g id="edge6_Node000003_Node000006" class="edge">
<title>Node3&#45;&gt;Node6</title>
<g id="a_edge6_Node000003_Node000006"><a xlink:title=" ">
<path fill="none" stroke="#63b8ff" d="M368.58,-259.78C346.2,-249.69 318.79,-237.34 298.09,-228.01"/>
<polygon fill="#63b8ff" stroke="#63b8ff" points="367.28,-263.04 377.84,-263.95 370.16,-256.65 367.28,-263.04"/>
</a>
</g>
</g>
<!-- Node4&#45;&gt;Node3 -->
<g id="edge5_Node000004_Node000003" class="edge">
<title>Node4&#45;&gt;Node3</title>
<g id="a_edge5_Node000004_Node000003"><a xlink:title=" ">
<path fill="none" stroke="#63b8ff" d="M421.15,-238.41C420.33,-246.99 418.73,-256.34 416.72,-263.8"/>
<polygon fill="#63b8ff" stroke="#63b8ff" points="424.65,-238.35 421.72,-228.16 417.67,-237.95 424.65,-238.35"/>
</a>
</g>
</g>
<!-- Node5 -->
<g id="Node000005" class="node">
<title>Node5</title>
<g id="a_Node000005"><a xlink:href="dfj__builder_8cpp.html" target="_top" xlink:title=" ">
<polygon fill="white" stroke="#666666" points="484.5,-162 351.5,-162 351.5,-132 484.5,-132 484.5,-162"/>
<text text-anchor="start" x="359.5" y="-150" font-family="FreeSans" font-size="10.00">mpqc/chemistry/qc/lcao</text>
<text text-anchor="middle" x="418" y="-139" font-family="FreeSans" font-size="10.00">/scf/pbc/dfj_builder.cpp</text>
</a>
</g>
</g>
<!-- Node4&#45;&gt;Node5 -->
<g id="edge4_Node000004_Node000005" class="edge">
<title>Node4&#45;&gt;Node5</title>
<g id="a_edge4_Node000004_Node000005"><a xlink:title=" ">
<path fill="none" stroke="#63b8ff" d="M418,-187.54C418,-178.96 418,-169.61 418,-162.16"/>
<polygon fill="#63b8ff" stroke="#63b8ff" points="414.5,-187.8 418,-197.8 421.5,-187.8 414.5,-187.8"/>
</a>
</g>
</g>
<!-- Node7 -->
<g id="Node000007" class="node">
<title>Node7</title>
<g id="a_Node000007"><a xlink:href="pbc_2rhf_8h.html" target="_top" xlink:title=" ">
<polygon fill="white" stroke="#666666" points="333.5,-162 200.5,-162 200.5,-132 333.5,-132 333.5,-162"/>
<text text-anchor="start" x="208.5" y="-150" font-family="FreeSans" font-size="10.00">mpqc/chemistry/qc/lcao</text>
<text text-anchor="middle" x="267" y="-139" font-family="FreeSans" font-size="10.00">/scf/pbc/rhf.h</text>
</a>
</g>
</g>
<!-- Node6&#45;&gt;Node7 -->
<g id="edge7_Node000006_Node000007" class="edge">
<title>Node6&#45;&gt;Node7</title>
<g id="a_edge7_Node000006_Node000007"><a xlink:title=" ">
<path fill="none" stroke="#63b8ff" d="M260.43,-187.83C260.02,-179.17 260.31,-169.7 261.29,-162.16"/>
<polygon fill="#63b8ff" stroke="#63b8ff" points="256.95,-188.13 261.28,-197.8 263.92,-187.54 256.95,-188.13"/>
</a>
</g>
</g>
<!-- Node11 -->
<g id="Node000011" class="node">
<title>Node11</title>
<g id="a_Node000011"><a xlink:href="sd_8impl_8cpp.html" target="_top" xlink:title=" ">
<polygon fill="white" stroke="#666666" points="177.5,-162 44.5,-162 44.5,-132 177.5,-132 177.5,-162"/>
<text text-anchor="start" x="52.5" y="-150" font-family="FreeSans" font-size="10.00">mpqc/chemistry/qc/lcao</text>
<text text-anchor="middle" x="111" y="-139" font-family="FreeSans" font-size="10.00">/scf/pbc/sd.impl.cpp</text>
</a>
</g>
</g>
<!-- Node6&#45;&gt;Node11 -->
<g id="edge12_Node000006_Node000011" class="edge">
<title>Node6&#45;&gt;Node11</title>
<g id="a_edge12_Node000006_Node000011"><a xlink:title=" ">
<path fill="none" stroke="#63b8ff" d="M223.26,-194.05C198.54,-183.91 168.1,-171.43 145.16,-162.01"/>
<polygon fill="#63b8ff" stroke="#63b8ff" points="222.18,-197.4 232.77,-197.95 224.84,-190.92 222.18,-197.4"/>
</a>
</g>
</g>
<!-- Node7&#45;&gt;Node6 -->
<g id="edge9_Node000007_Node000006" class="edge">
<title>Node7&#45;&gt;Node6</title>
<g id="a_edge9_Node000007_Node000006"><a xlink:title=" ">
<path fill="none" stroke="#63b8ff" d="M273.57,-172.13C273.98,-180.78 273.7,-190.26 272.72,-197.8"/>
<polygon fill="#63b8ff" stroke="#63b8ff" points="277.05,-171.83 272.71,-162.16 270.08,-172.43 277.05,-171.83"/>
</a>
</g>
</g>
<!-- Node8 -->
<g id="Node000008" class="node">
<title>Node8</title>
<g id="a_Node000008"><a xlink:href="pbc_2rhf_8cpp.html" target="_top" xlink:title=" ">
<polygon fill="white" stroke="#666666" points="258.5,-96 125.5,-96 125.5,-66 258.5,-66 258.5,-96"/>
<text text-anchor="start" x="133.5" y="-84" font-family="FreeSans" font-size="10.00">mpqc/chemistry/qc/lcao</text>
<text text-anchor="middle" x="192" y="-73" font-family="FreeSans" font-size="10.00">/scf/pbc/rhf.cpp</text>
</a>
</g>
</g>
<!-- Node7&#45;&gt;Node8 -->
<g id="edge8_Node000007_Node000008" class="edge">
<title>Node7&#45;&gt;Node8</title>
<g id="a_edge8_Node000007_Node000008"><a xlink:title=" ">
<path fill="none" stroke="#63b8ff" d="M242.63,-125.2C231.49,-115.7 218.59,-104.69 208.6,-96.16"/>
<polygon fill="#63b8ff" stroke="#63b8ff" points="240.48,-127.97 250.36,-131.8 245.02,-122.64 240.48,-127.97"/>
</a>
</g>
</g>
<!-- Node9 -->
<g id="Node000009" class="node">
<title>Node9</title>
<g id="a_Node000009"><a xlink:href="solver_8ipp.html" target="_top" xlink:title=" ">
<polygon fill="white" stroke="#666666" points="409,-96 277,-96 277,-66 409,-66 409,-96"/>
<text text-anchor="start" x="285" y="-84" font-family="FreeSans" font-size="10.00">mpqc/chemistry/qc/mra</text>
<text text-anchor="middle" x="343" y="-73" font-family="FreeSans" font-size="10.00">/scf/solver.ipp</text>
</a>
</g>
</g>
<!-- Node7&#45;&gt;Node9 -->
<g id="edge10_Node000007_Node000009" class="edge">
<title>Node7&#45;&gt;Node9</title>
<g id="a_edge10_Node000007_Node000009"><a xlink:title=" ">
<path fill="none" stroke="#63b8ff" d="M291.7,-125.2C302.98,-115.7 316.05,-104.69 326.18,-96.16"/>
<polygon fill="#63b8ff" stroke="#63b8ff" points="289.26,-122.68 283.87,-131.8 293.77,-128.03 289.26,-122.68"/>
</a>
</g>
</g>
<!-- Node10 -->
<g id="Node000010" class="node">
<title>Node10</title>
<g id="a_Node000010"><a xlink:href="solver_8cpp.html" target="_top" xlink:title=" ">
<polygon fill="white" stroke="#666666" points="409,-30 277,-30 277,0 409,0 409,-30"/>
<text text-anchor="start" x="285" y="-18" font-family="FreeSans" font-size="10.00">mpqc/chemistry/qc/mra</text>
<text text-anchor="middle" x="343" y="-7" font-family="FreeSans" font-size="10.00">/scf/solver.cpp</text>
</a>
</g>
</g>
<!-- Node9&#45;&gt;Node10 -->
<g id="edge11_Node000009_Node000010" class="edge">
<title>Node9&#45;&gt;Node10</title>
<g id="a_edge11_Node000009_Node000010"><a xlink:title=" ">
<path fill="none" stroke="#63b8ff" d="M343,-55.54C343,-46.96 343,-37.61 343,-30.16"/>
<polygon fill="#63b8ff" stroke="#63b8ff" points="339.5,-55.8 343,-65.8 346.5,-55.8 339.5,-55.8"/>
</a>
</g>
</g>
<!-- Node12&#45;&gt;Node3 -->
<g id="edge14_Node000012_Node000003" class="edge">
<title>Node12&#45;&gt;Node3</title>
<g id="a_edge14_Node000012_Node000003"><a xlink:title=" ">
<path fill="none" stroke="#63b8ff" d="M270.29,-326.72C300.73,-316.47 338.84,-303.63 367.4,-294.01"/>
<polygon fill="#63b8ff" stroke="#63b8ff" points="269.06,-323.45 260.7,-329.95 271.29,-330.08 269.06,-323.45"/>
</a>
</g>
</g>
<!-- Node12&#45;&gt;Node6 -->
<g id="edge16_Node000012_Node000006" class="edge">
<title>Node12&#45;&gt;Node6</title>
<g id="a_edge16_Node000012_Node000006"><a xlink:title=" ">
<path fill="none" stroke="#63b8ff" d="M239.45,-322.3C246.12,-314.03 252.86,-304.15 257,-294 265.88,-272.23 267.41,-244.58 267.41,-228.14"/>
<polygon fill="#63b8ff" stroke="#63b8ff" points="236.73,-320.09 232.91,-329.97 242.06,-324.63 236.73,-320.09"/>
</a>
</g>
</g>
<!-- Node13 -->
<g id="Node000013" class="node">
<title>Node13</title>
<g id="a_Node000013"><a xlink:href="ma_8cpp.html" target="_top" xlink:title=" ">
<polygon fill="white" stroke="#666666" points="247.5,-294 114.5,-294 114.5,-264 247.5,-264 247.5,-294"/>
<text text-anchor="start" x="122.5" y="-282" font-family="FreeSans" font-size="10.00">mpqc/chemistry/qc/lcao</text>
<text text-anchor="middle" x="181" y="-271" font-family="FreeSans" font-size="10.00">/scf/pbc/ma.cpp</text>
</a>
</g>
</g>
<!-- Node12&#45;&gt;Node13 -->
<g id="edge15_Node000012_Node000013" class="edge">
<title>Node12&#45;&gt;Node13</title>
<g id="a_edge15_Node000012_Node000013"><a xlink:title=" ">
<path fill="none" stroke="#63b8ff" d="M205.32,-320.96C200,-312 194.08,-302.03 189.41,-294.16"/>
<polygon fill="#63b8ff" stroke="#63b8ff" points="202.45,-322.98 210.57,-329.8 208.47,-319.41 202.45,-322.98"/>
</a>
</g>
</g>
<!-- Node14 -->
<g id="Node000014" class="node">
<title>Node14</title>
<g id="a_Node000014"><a xlink:href="sd_8impl_8ipp.html" target="_top" xlink:title=" ">
<polygon fill="white" stroke="#666666" points="167.5,-228 34.5,-228 34.5,-198 167.5,-198 167.5,-228"/>
<text text-anchor="start" x="42.5" y="-216" font-family="FreeSans" font-size="10.00">mpqc/chemistry/qc/lcao</text>
<text text-anchor="middle" x="101" y="-205" font-family="FreeSans" font-size="10.00">/scf/pbc/sd.impl.ipp</text>
</a>
</g>
</g>
<!-- Node12&#45;&gt;Node14 -->
<g id="edge17_Node000012_Node000014" class="edge">
<title>Node12&#45;&gt;Node14</title>
<g id="a_edge17_Node000012_Node000014"><a xlink:title=" ">
<path fill="none" stroke="#63b8ff" d="M145.75,-325.96C129.88,-318.62 114.9,-308.35 105,-294 91.5,-274.42 94.25,-245.31 97.57,-228.13"/>
<polygon fill="#63b8ff" stroke="#63b8ff" points="144.6,-329.27 155.17,-329.95 147.33,-322.83 144.6,-329.27"/>
</a>
</g>
</g>
<!-- Node14&#45;&gt;Node11 -->
<g id="edge18_Node000014_Node000011" class="edge">
<title>Node14&#45;&gt;Node11</title>
<g id="a_edge18_Node000014_Node000011"><a xlink:title=" ">
<path fill="none" stroke="#63b8ff" d="M104.78,-187.83C106.13,-179.17 107.61,-169.7 108.79,-162.16"/>
<polygon fill="#63b8ff" stroke="#63b8ff" points="101.31,-187.38 103.22,-197.8 108.22,-188.46 101.31,-187.38"/>
</a>
</g>
</g>
</g>
</svg>
