<?xml version="1.0" encoding="UTF-8" standalone="no"?>
<!DOCTYPE svg PUBLIC "-//W3C//DTD SVG 1.1//EN"
 "http://www.w3.org/Graphics/SVG/1.1/DTD/svg11.dtd">
<!-- Generated by graphviz version 2.43.0 (0)
 -->
<!-- Title: mpqc/math/tensor/clr/decomposed_tensor_nonintrusive_interface.h Pages: 1 -->
<svg width="1330pt" height="676pt"
 viewBox="0.00 0.00 1329.50 676.00" xmlns="http://www.w3.org/2000/svg" xmlns:xlink="http://www.w3.org/1999/xlink">
<g id="graph0" class="graph" transform="scale(1 1) rotate(0) translate(4 672)">
<title>mpqc/math/tensor/clr/decomposed_tensor_nonintrusive_interface.h</title>
<!-- Node1 -->
<g id="Node000001" class="node">
<title>Node1</title>
<g id="a_Node000001"><a xlink:title=" ">
<polygon fill="#999999" stroke="#666666" points="919.5,-668 735.5,-668 735.5,-627 919.5,-627 919.5,-668"/>
<text text-anchor="start" x="743.5" y="-656" font-family="FreeSans" font-size="10.00">mpqc/math/tensor/clr</text>
<text text-anchor="start" x="743.5" y="-645" font-family="FreeSans" font-size="10.00">/decomposed_tensor_nonintrusive</text>
<text text-anchor="middle" x="827.5" y="-634" font-family="FreeSans" font-size="10.00">_interface.h</text>
</a>
</g>
</g>
<!-- Node2 -->
<g id="Node000002" class="node">
<title>Node2</title>
<g id="a_Node000002"><a xlink:href="decomposed__tensor__addition_8h.html" target="_top" xlink:title=" ">
<polygon fill="white" stroke="#666666" points="637.5,-448 465.5,-448 465.5,-418 637.5,-418 637.5,-448"/>
<text text-anchor="start" x="473.5" y="-436" font-family="FreeSans" font-size="10.00">mpqc/math/tensor/clr</text>
<text text-anchor="middle" x="551.5" y="-425" font-family="FreeSans" font-size="10.00">/decomposed_tensor_addition.h</text>
</a>
</g>
</g>
<!-- Node1&#45;&gt;Node2 -->
<g id="edge1_Node000001_Node000002" class="edge">
<title>Node1&#45;&gt;Node2</title>
<g id="a_edge1_Node000001_Node000002"><a xlink:title=" ">
<path fill="none" stroke="#63b8ff" d="M735.28,-637.27C672.26,-628.98 596.34,-614.44 574.5,-591 540.95,-554.99 543.02,-492.77 547.34,-458.47"/>
<polygon fill="#63b8ff" stroke="#63b8ff" points="550.83,-458.77 548.78,-448.38 543.9,-457.79 550.83,-458.77"/>
</a>
</g>
</g>
<!-- Node18 -->
<g id="Node000018" class="node">
<title>Node18</title>
<g id="a_Node000018"><a xlink:href="decomposed__tensor__algebra_8h.html" target="_top" xlink:title=" ">
<polygon fill="white" stroke="#666666" points="484,-382 315,-382 315,-352 484,-352 484,-382"/>
<text text-anchor="start" x="323" y="-370" font-family="FreeSans" font-size="10.00">mpqc/math/tensor/clr</text>
<text text-anchor="middle" x="399.5" y="-359" font-family="FreeSans" font-size="10.00">/decomposed_tensor_algebra.h</text>
</a>
</g>
</g>
<!-- Node1&#45;&gt;Node18 -->
<g id="edge37_Node000001_Node000018" class="edge">
<title>Node1&#45;&gt;Node18</title>
<g id="a_edge37_Node000001_Node000018"><a xlink:title=" ">
<path fill="none" stroke="#63b8ff" d="M735.38,-637.11C608.47,-622 390.28,-587.46 344.5,-525 334.95,-511.97 347.3,-427.03 351.5,-418 356.55,-407.14 364.93,-397.17 373.29,-389.03"/>
<polygon fill="#63b8ff" stroke="#63b8ff" points="375.84,-391.44 380.86,-382.11 371.12,-386.27 375.84,-391.44"/>
</a>
</g>
</g>
<!-- Node30 -->
<g id="Node000030" class="node">
<title>Node30</title>
<g id="a_Node000030"><a xlink:href="decomposed__tensor__binary_8h.html" target="_top" xlink:title=" ">
<polygon fill="white" stroke="#666666" points="1069,-382 908,-382 908,-352 1069,-352 1069,-382"/>
<text text-anchor="start" x="916" y="-370" font-family="FreeSans" font-size="10.00">mpqc/math/tensor/clr</text>
<text text-anchor="middle" x="988.5" y="-359" font-family="FreeSans" font-size="10.00">/decomposed_tensor_binary.h</text>
</a>
</g>
</g>
<!-- Node1&#45;&gt;Node30 -->
<g id="edge38_Node000001_Node000030" class="edge">
<title>Node1&#45;&gt;Node30</title>
<g id="a_edge38_Node000001_Node000030"><a xlink:title=" ">
<path fill="none" stroke="#63b8ff" d="M871.54,-626.84C930,-597.73 1029.37,-536.86 1059.5,-448 1063.78,-435.37 1065.64,-429.84 1059.5,-418 1052.91,-405.29 1041.44,-395.13 1029.61,-387.38"/>
<polygon fill="#63b8ff" stroke="#63b8ff" points="1031.37,-384.35 1021.01,-382.16 1027.74,-390.34 1031.37,-384.35"/>
</a>
</g>
</g>
<!-- Node31 -->
<g id="Node000031" class="node">
<title>Node31</title>
<g id="a_Node000031"><a xlink:href="decomposed__tensor__gemm_8h.html" target="_top" xlink:title=" ">
<polygon fill="white" stroke="#666666" points="747.5,-591 583.5,-591 583.5,-561 747.5,-561 747.5,-591"/>
<text text-anchor="start" x="591.5" y="-579" font-family="FreeSans" font-size="10.00">mpqc/math/tensor/clr</text>
<text text-anchor="middle" x="665.5" y="-568" font-family="FreeSans" font-size="10.00">/decomposed_tensor_gemm.h</text>
</a>
</g>
</g>
<!-- Node1&#45;&gt;Node31 -->
<g id="edge40_Node000001_Node000031" class="edge">
<title>Node1&#45;&gt;Node31</title>
<g id="a_edge40_Node000001_Node000031"><a xlink:title=" ">
<path fill="none" stroke="#63b8ff" d="M781.94,-626.96C758.61,-616.94 730.38,-604.83 707.56,-595.04"/>
<polygon fill="#63b8ff" stroke="#63b8ff" points="708.71,-591.73 698.14,-591 705.95,-598.16 708.71,-591.73"/>
</a>
</g>
</g>
<!-- Node34 -->
<g id="Node000034" class="node">
<title>Node34</title>
<g id="a_Node000034"><a xlink:href="decomposed__tensor__multiplication_8h.html" target="_top" xlink:title=" ">
<polygon fill="white" stroke="#666666" points="1307.5,-591 1107.5,-591 1107.5,-561 1307.5,-561 1307.5,-591"/>
<text text-anchor="start" x="1115.5" y="-579" font-family="FreeSans" font-size="10.00">mpqc/math/tensor/clr</text>
<text text-anchor="middle" x="1207.5" y="-568" font-family="FreeSans" font-size="10.00">/decomposed_tensor_multiplication.h</text>
</a>
</g>
</g>
<!-- Node1&#45;&gt;Node34 -->
<g id="edge51_Node000001_Node000034" class="edge">
<title>Node1&#45;&gt;Node34</title>
<g id="a_edge51_Node000001_Node000034"><a xlink:title=" ">
<path fill="none" stroke="#63b8ff" d="M919.97,-629.59C981.13,-618.4 1060.79,-603.83 1120.75,-592.87"/>
<polygon fill="#63b8ff" stroke="#63b8ff" points="1121.74,-596.24 1130.95,-591 1120.48,-589.36 1121.74,-596.24"/>
</a>
</g>
</g>
<!-- Node35 -->
<g id="Node000035" class="node">
<title>Node35</title>
<g id="a_Node000035"><a xlink:href="decomposed__tensor__subtraction_8h.html" target="_top" xlink:title=" ">
<polygon fill="white" stroke="#666666" points="973,-519.5 786,-519.5 786,-489.5 973,-489.5 973,-519.5"/>
<text text-anchor="start" x="794" y="-507.5" font-family="FreeSans" font-size="10.00">mpqc/math/tensor/clr</text>
<text text-anchor="middle" x="879.5" y="-496.5" font-family="FreeSans" font-size="10.00">/decomposed_tensor_subtraction.h</text>
</a>
</g>
</g>
<!-- Node1&#45;&gt;Node35 -->
<g id="edge53_Node000001_Node000035" class="edge">
<title>Node1&#45;&gt;Node35</title>
<g id="a_edge53_Node000001_Node000035"><a xlink:title=" ">
<path fill="none" stroke="#63b8ff" d="M829.89,-626.89C836.91,-601.29 853.32,-556.49 865.62,-529.06"/>
<polygon fill="#63b8ff" stroke="#63b8ff" points="868.88,-530.35 869.94,-519.81 862.54,-527.39 868.88,-530.35"/>
</a>
</g>
</g>
<!-- Node36 -->
<g id="Node000036" class="node">
<title>Node36</title>
<g id="a_Node000036"><a xlink:href="decomposed__tensor__unary_8h.html" target="_top" xlink:title=" ">
<polygon fill="white" stroke="#666666" points="851.5,-448 693.5,-448 693.5,-418 851.5,-418 851.5,-448"/>
<text text-anchor="start" x="701.5" y="-436" font-family="FreeSans" font-size="10.00">mpqc/math/tensor/clr</text>
<text text-anchor="middle" x="772.5" y="-425" font-family="FreeSans" font-size="10.00">/decomposed_tensor_unary.h</text>
</a>
</g>
</g>
<!-- Node1&#45;&gt;Node36 -->
<g id="edge61_Node000001_Node000036" class="edge">
<title>Node1&#45;&gt;Node36</title>
<g id="a_edge61_Node000001_Node000036"><a xlink:title=" ">
<path fill="none" stroke="#63b8ff" d="M816.55,-626.59C804.25,-603.11 784.91,-562.5 776.5,-525 771.52,-502.79 770.87,-476.79 771.26,-458.28"/>
<polygon fill="#63b8ff" stroke="#63b8ff" points="774.77,-458.19 771.6,-448.08 767.77,-457.96 774.77,-458.19"/>
</a>
</g>
</g>
<!-- Node3 -->
<g id="Node000003" class="node">
<title>Node3</title>
<g id="a_Node000003"><a xlink:href="decomposed__tensor_8h.html" target="_top" xlink:title=" ">
<polygon fill="white" stroke="#666666" points="876.5,-316 750.5,-316 750.5,-286 876.5,-286 876.5,-316"/>
<text text-anchor="start" x="758.5" y="-304" font-family="FreeSans" font-size="10.00">mpqc/math/tensor/clr</text>
<text text-anchor="middle" x="813.5" y="-293" font-family="FreeSans" font-size="10.00">/decomposed_tensor.h</text>
</a>
</g>
</g>
<!-- Node2&#45;&gt;Node3 -->
<g id="edge2_Node000002_Node000003" class="edge">
<title>Node2&#45;&gt;Node3</title>
<g id="a_edge2_Node000002_Node000003"><a xlink:title=" ">
<path fill="none" stroke="#63b8ff" d="M565.5,-417.9C583.79,-400.21 617.51,-370 651.5,-352 679.07,-337.4 711.59,-326.31 740.22,-318.34"/>
<polygon fill="#63b8ff" stroke="#63b8ff" points="741.44,-321.64 750.18,-315.65 739.61,-314.88 741.44,-321.64"/>
</a>
</g>
</g>
<!-- Node2&#45;&gt;Node18 -->
<g id="edge20_Node000002_Node000018" class="edge">
<title>Node2&#45;&gt;Node18</title>
<g id="a_edge20_Node000002_Node000018"><a xlink:title=" ">
<path fill="none" stroke="#63b8ff" d="M518.14,-417.95C495.77,-408.53 466.11,-396.04 442.04,-385.91"/>
<polygon fill="#63b8ff" stroke="#63b8ff" points="443.35,-382.67 432.78,-382.01 440.64,-389.12 443.35,-382.67"/>
</a>
</g>
</g>
<!-- Node4 -->
<g id="Node000004" class="node">
<title>Node4</title>
<g id="a_Node000004"><a xlink:title=" ">
<polygon fill="#e0e0e0" stroke="#999999" points="785,-250 676,-250 676,-231 785,-231 785,-250"/>
<text text-anchor="middle" x="730.5" y="-238" font-family="FreeSans" font-size="10.00">TiledArray/tensor.h</text>
</a>
</g>
</g>
<!-- Node3&#45;&gt;Node4 -->
<g id="edge3_Node000003_Node000004" class="edge">
<title>Node3&#45;&gt;Node4</title>
<g id="a_edge3_Node000003_Node000004"><a xlink:title=" ">
<path fill="none" stroke="#63b8ff" d="M793.41,-285.84C780.62,-276.83 764.1,-265.18 751.2,-256.09"/>
<polygon fill="#63b8ff" stroke="#63b8ff" points="753.13,-253.17 742.94,-250.27 749.09,-258.89 753.13,-253.17"/>
</a>
</g>
</g>
<!-- Node5 -->
<g id="Node000005" class="node">
<title>Node5</title>
<g id="a_Node000005"><a xlink:title=" ">
<polygon fill="#e0e0e0" stroke="#999999" points="937,-250 842,-250 842,-231 937,-231 937,-250"/>
<text text-anchor="middle" x="889.5" y="-238" font-family="FreeSans" font-size="10.00">tiledarray_fwd.h</text>
</a>
</g>
</g>
<!-- Node3&#45;&gt;Node5 -->
<g id="edge4_Node000003_Node000005" class="edge">
<title>Node3&#45;&gt;Node5</title>
<g id="a_edge4_Node000003_Node000005"><a xlink:title=" ">
<path fill="none" stroke="#63b8ff" d="M831.9,-285.84C843.38,-277 858.15,-265.63 869.86,-256.62"/>
<polygon fill="#63b8ff" stroke="#63b8ff" points="872.32,-259.14 878.11,-250.27 868.05,-253.59 872.32,-259.14"/>
</a>
</g>
</g>
<!-- Node6 -->
<g id="Node000006" class="node">
<title>Node6</title>
<g id="a_Node000006"><a xlink:title=" ">
<polygon fill="#e0e0e0" stroke="#999999" points="1015.5,-250 955.5,-250 955.5,-231 1015.5,-231 1015.5,-250"/>
<text text-anchor="middle" x="985.5" y="-238" font-family="FreeSans" font-size="10.00">iostream</text>
</a>
</g>
</g>
<!-- Node3&#45;&gt;Node6 -->
<g id="edge5_Node000003_Node000006" class="edge">
<title>Node3&#45;&gt;Node6</title>
<g id="a_edge5_Node000003_Node000006"><a xlink:title=" ">
<path fill="none" stroke="#63b8ff" d="M854.7,-285.99C884,-276.02 922.92,-262.78 950.67,-253.35"/>
<polygon fill="#63b8ff" stroke="#63b8ff" points="952.01,-256.59 960.35,-250.05 949.76,-249.96 952.01,-256.59"/>
</a>
</g>
</g>
<!-- Node7 -->
<g id="Node000007" class="node">
<title>Node7</title>
<g id="a_Node000007"><a xlink:title=" ">
<polygon fill="#e0e0e0" stroke="#999999" points="1171,-19 1124,-19 1124,0 1171,0 1171,-19"/>
<text text-anchor="middle" x="1147.5" y="-7" font-family="FreeSans" font-size="10.00">vector</text>
</a>
</g>
</g>
<!-- Node3&#45;&gt;Node7 -->
<g id="edge6_Node000003_Node000007" class="edge">
<title>Node3&#45;&gt;Node7</title>
<g id="a_edge6_Node000003_Node000007"><a xlink:title=" ">
<path fill="none" stroke="#63b8ff" d="M876.72,-290.69C973.55,-274.63 1147.5,-237.86 1147.5,-181 1147.5,-181 1147.5,-181 1147.5,-118.5 1147.5,-87.19 1147.5,-50.77 1147.5,-29.23"/>
<polygon fill="#63b8ff" stroke="#63b8ff" points="1151,-29.18 1147.5,-19.18 1144,-29.18 1151,-29.18"/>
</a>
</g>
</g>
<!-- Node8 -->
<g id="Node000008" class="node">
<title>Node8</title>
<g id="a_Node000008"><a xlink:href="assert_8h.html" target="_top" xlink:title=" ">
<polygon fill="white" stroke="#666666" points="684,-189.5 553,-189.5 553,-170.5 684,-170.5 684,-189.5"/>
<text text-anchor="middle" x="618.5" y="-177.5" font-family="FreeSans" font-size="10.00">mpqc/util/misc/assert.h</text>
</a>
</g>
</g>
<!-- Node3&#45;&gt;Node8 -->
<g id="edge7_Node000003_Node000008" class="edge">
<title>Node3&#45;&gt;Node8</title>
<g id="a_edge7_Node000003_Node000008"><a xlink:title=" ">
<path fill="none" stroke="#63b8ff" d="M813.26,-285.83C812.22,-270.29 808.17,-245.61 793.5,-231 767.32,-204.92 728.53,-192.23 694.13,-186.15"/>
<polygon fill="#63b8ff" stroke="#63b8ff" points="694.51,-182.66 684.08,-184.53 693.4,-189.57 694.51,-182.66"/>
</a>
</g>
</g>
<!-- Node9 -->
<g id="Node000009" class="node">
<title>Node9</title>
<g id="a_Node000009"><a xlink:title=" ">
<polygon fill="#e0e0e0" stroke="#999999" points="887,-129 770,-129 770,-110 887,-110 887,-129"/>
<text text-anchor="middle" x="828.5" y="-117" font-family="FreeSans" font-size="10.00">mpqc/mpqc_config.h</text>
</a>
</g>
</g>
<!-- Node8&#45;&gt;Node9 -->
<g id="edge8_Node000008_Node000009" class="edge">
<title>Node8&#45;&gt;Node9</title>
<g id="a_edge8_Node000008_Node000009"><a xlink:title=" ">
<path fill="none" stroke="#63b8ff" d="M649.04,-170.49C685.74,-160.27 747.45,-143.08 788.08,-131.76"/>
<polygon fill="#63b8ff" stroke="#63b8ff" points="789.23,-135.07 797.93,-129.02 787.35,-128.33 789.23,-135.07"/>
</a>
</g>
</g>
<!-- Node10 -->
<g id="Node000010" class="node">
<title>Node10</title>
<g id="a_Node000010"><a xlink:title=" ">
<polygon fill="#e0e0e0" stroke="#999999" points="751.5,-129 699.5,-129 699.5,-110 751.5,-110 751.5,-129"/>
<text text-anchor="middle" x="725.5" y="-117" font-family="FreeSans" font-size="10.00">cassert</text>
</a>
</g>
</g>
<!-- Node8&#45;&gt;Node10 -->
<g id="edge9_Node000008_Node000010" class="edge">
<title>Node8&#45;&gt;Node10</title>
<g id="a_edge9_Node000008_Node000010"><a xlink:title=" ">
<path fill="none" stroke="#63b8ff" d="M634.29,-170.37C651.83,-160.78 680.38,-145.17 700.87,-133.97"/>
<polygon fill="#63b8ff" stroke="#63b8ff" points="702.55,-137.04 709.65,-129.17 699.19,-130.89 702.55,-137.04"/>
</a>
</g>
</g>
<!-- Node11 -->
<g id="Node000011" class="node">
<title>Node11</title>
<g id="a_Node000011"><a xlink:href="exception_8h.html" target="_top" xlink:title=" ">
<polygon fill="white" stroke="#666666" points="681.5,-129 535.5,-129 535.5,-110 681.5,-110 681.5,-129"/>
<text text-anchor="middle" x="608.5" y="-117" font-family="FreeSans" font-size="10.00">mpqc/util/core/exception.h</text>
</a>
</g>
</g>
<!-- Node8&#45;&gt;Node11 -->
<g id="edge10_Node000008_Node000011" class="edge">
<title>Node8&#45;&gt;Node11</title>
<g id="a_edge10_Node000008_Node000011"><a xlink:title=" ">
<path fill="none" stroke="#63b8ff" d="M617.02,-170.37C615.62,-162.16 613.46,-149.54 611.67,-139.05"/>
<polygon fill="#63b8ff" stroke="#63b8ff" points="615.12,-138.43 609.98,-129.17 608.22,-139.61 615.12,-138.43"/>
</a>
</g>
</g>
<!-- Node11&#45;&gt;Node7 -->
<g id="edge16_Node000011_Node000007" class="edge">
<title>Node11&#45;&gt;Node7</title>
<g id="a_edge16_Node000011_Node000007"><a xlink:title=" ">
<path fill="none" stroke="#63b8ff" d="M585.19,-109.92C556.95,-98.3 515.48,-76.53 535.5,-55 575.02,-12.5 990.74,-10.11 1113.53,-10.34"/>
<polygon fill="#63b8ff" stroke="#63b8ff" points="1113.82,-13.84 1123.83,-10.37 1113.84,-6.84 1113.82,-13.84"/>
</a>
</g>
</g>
<!-- Node12 -->
<g id="Node000012" class="node">
<title>Node12</title>
<g id="a_Node000012"><a xlink:title=" ">
<polygon fill="#e0e0e0" stroke="#999999" points="598,-74 545,-74 545,-55 598,-55 598,-74"/>
<text text-anchor="middle" x="571.5" y="-62" font-family="FreeSans" font-size="10.00">string.h</text>
</a>
</g>
</g>
<!-- Node11&#45;&gt;Node12 -->
<g id="edge11_Node000011_Node000012" class="edge">
<title>Node11&#45;&gt;Node12</title>
<g id="a_edge11_Node000011_Node000012"><a xlink:title=" ">
<path fill="none" stroke="#63b8ff" d="M602.39,-109.75C597.22,-102.34 589.65,-91.5 583.31,-82.41"/>
<polygon fill="#63b8ff" stroke="#63b8ff" points="586.09,-80.29 577.5,-74.09 580.35,-84.29 586.09,-80.29"/>
</a>
</g>
</g>
<!-- Node13 -->
<g id="Node000013" class="node">
<title>Node13</title>
<g id="a_Node000013"><a xlink:href="memory.html" target="_top" xlink:title=" ">
<polygon fill="white" stroke="#666666" points="674.5,-74 616.5,-74 616.5,-55 674.5,-55 674.5,-74"/>
<text text-anchor="middle" x="645.5" y="-62" font-family="FreeSans" font-size="10.00">memory</text>
</a>
</g>
</g>
<!-- Node11&#45;&gt;Node13 -->
<g id="edge12_Node000011_Node000013" class="edge">
<title>Node11&#45;&gt;Node13</title>
<g id="a_edge12_Node000011_Node000013"><a xlink:title=" ">
<path fill="none" stroke="#63b8ff" d="M614.61,-109.75C619.78,-102.34 627.35,-91.5 633.69,-82.41"/>
<polygon fill="#63b8ff" stroke="#63b8ff" points="636.65,-84.29 639.5,-74.09 630.91,-80.29 636.65,-84.29"/>
</a>
</g>
</g>
<!-- Node14 -->
<g id="Node000014" class="node">
<title>Node14</title>
<g id="a_Node000014"><a xlink:title=" ">
<polygon fill="#e0e0e0" stroke="#999999" points="766.5,-74 710.5,-74 710.5,-55 766.5,-55 766.5,-74"/>
<text text-anchor="middle" x="738.5" y="-62" font-family="FreeSans" font-size="10.00">sstream</text>
</a>
</g>
</g>
<!-- Node11&#45;&gt;Node14 -->
<g id="edge14_Node000011_Node000014" class="edge">
<title>Node11&#45;&gt;Node14</title>
<g id="a_edge14_Node000011_Node000014"><a xlink:title=" ">
<path fill="none" stroke="#63b8ff" d="M629.39,-109.98C650.58,-101.34 683.63,-87.87 707.8,-78.02"/>
<polygon fill="#63b8ff" stroke="#63b8ff" points="709.29,-81.19 717.23,-74.17 706.65,-74.7 709.29,-81.19"/>
</a>
</g>
</g>
<!-- Node15 -->
<g id="Node000015" class="node">
<title>Node15</title>
<g id="a_Node000015"><a xlink:title=" ">
<polygon fill="#e0e0e0" stroke="#999999" points="850,-74 785,-74 785,-55 850,-55 850,-74"/>
<text text-anchor="middle" x="817.5" y="-62" font-family="FreeSans" font-size="10.00">stdexcept</text>
</a>
</g>
</g>
<!-- Node11&#45;&gt;Node15 -->
<g id="edge15_Node000011_Node000015" class="edge">
<title>Node11&#45;&gt;Node15</title>
<g id="a_edge15_Node000011_Node000015"><a xlink:title=" ">
<path fill="none" stroke="#63b8ff" d="M642.08,-109.98C678.17,-100.83 735.63,-86.26 774.88,-76.31"/>
<polygon fill="#63b8ff" stroke="#63b8ff" points="775.86,-79.67 784.69,-73.82 774.14,-72.89 775.86,-79.67"/>
</a>
</g>
</g>
<!-- Node16 -->
<g id="Node000016" class="node">
<title>Node16</title>
<g id="a_Node000016"><a xlink:href="backtrace_8h.html" target="_top" xlink:title=" ">
<polygon fill="white" stroke="#666666" points="1321.5,-74 1175.5,-74 1175.5,-55 1321.5,-55 1321.5,-74"/>
<text text-anchor="middle" x="1248.5" y="-62" font-family="FreeSans" font-size="10.00">mpqc/util/core/backtrace.h</text>
</a>
</g>
</g>
<!-- Node11&#45;&gt;Node16 -->
<g id="edge17_Node000011_Node000016" class="edge">
<title>Node11&#45;&gt;Node16</title>
<g id="a_edge17_Node000011_Node000016"><a xlink:title=" ">
<path fill="none" stroke="#63b8ff" d="M681.81,-110.81C684.74,-110.53 687.65,-110.26 690.5,-110 858.79,-94.57 1055.91,-79.57 1165.05,-71.53"/>
<polygon fill="#63b8ff" stroke="#63b8ff" points="1165.62,-75 1175.33,-70.78 1165.1,-68.02 1165.62,-75"/>
</a>
</g>
</g>
<!-- Node13&#45;&gt;Node13 -->
<g id="edge13_Node000013_Node000013" class="edge">
<title>Node13&#45;&gt;Node13</title>
<g id="a_edge13_Node000013_Node000013"><a xlink:title=" ">
<path fill="none" stroke="#63b8ff" d="M667.74,-74.07C680.56,-76.02 692.5,-72.83 692.5,-64.5 692.5,-58.45 686.2,-55.11 677.84,-54.48"/>
<polygon fill="#63b8ff" stroke="#63b8ff" points="677.58,-50.99 667.74,-54.93 677.89,-57.98 677.58,-50.99"/>
</a>
</g>
</g>
<!-- Node16&#45;&gt;Node7 -->
<g id="edge19_Node000016_Node000007" class="edge">
<title>Node16&#45;&gt;Node7</title>
<g id="a_edge19_Node000016_Node000007"><a xlink:title=" ">
<path fill="none" stroke="#63b8ff" d="M1232.27,-54.98C1216.32,-46.61 1191.72,-33.7 1173.12,-23.95"/>
<polygon fill="#63b8ff" stroke="#63b8ff" points="1174.5,-20.72 1164.02,-19.17 1171.25,-26.92 1174.5,-20.72"/>
</a>
</g>
</g>
<!-- Node17 -->
<g id="Node000017" class="node">
<title>Node17</title>
<g id="a_Node000017"><a xlink:title=" ">
<polygon fill="#e0e0e0" stroke="#999999" points="1270.5,-19 1226.5,-19 1226.5,0 1270.5,0 1270.5,-19"/>
<text text-anchor="middle" x="1248.5" y="-7" font-family="FreeSans" font-size="10.00">string</text>
</a>
</g>
</g>
<!-- Node16&#45;&gt;Node17 -->
<g id="edge18_Node000016_Node000017" class="edge">
<title>Node16&#45;&gt;Node17</title>
<g id="a_edge18_Node000016_Node000017"><a xlink:title=" ">
<path fill="none" stroke="#63b8ff" d="M1248.5,-54.75C1248.5,-47.8 1248.5,-37.85 1248.5,-29.13"/>
<polygon fill="#63b8ff" stroke="#63b8ff" points="1252,-29.09 1248.5,-19.09 1245,-29.09 1252,-29.09"/>
</a>
</g>
</g>
<!-- Node18&#45;&gt;Node3 -->
<g id="edge35_Node000018_Node000003" class="edge">
<title>Node18&#45;&gt;Node3</title>
<g id="a_edge35_Node000018_Node000003"><a xlink:title=" ">
<path fill="none" stroke="#63b8ff" d="M484.03,-352.93C559.31,-341.29 668.35,-324.44 740.06,-313.35"/>
<polygon fill="#63b8ff" stroke="#63b8ff" points="741.02,-316.75 750.36,-311.76 739.95,-309.83 741.02,-316.75"/>
</a>
</g>
</g>
<!-- Node18&#45;&gt;Node4 -->
<g id="edge21_Node000018_Node000004" class="edge">
<title>Node18&#45;&gt;Node4</title>
<g id="a_edge21_Node000018_Node000004"><a xlink:title=" ">
<path fill="none" stroke="#63b8ff" d="M438.54,-351.95C465.98,-342.02 503.54,-328.34 536.5,-316 593.88,-294.51 660.5,-268.75 698.86,-253.84"/>
<polygon fill="#63b8ff" stroke="#63b8ff" points="700.38,-257 708.43,-250.11 697.85,-250.48 700.38,-257"/>
</a>
</g>
</g>
<!-- Node19 -->
<g id="Node000019" class="node">
<title>Node19</title>
<g id="a_Node000019"><a xlink:href="eigen_8h.html" target="_top" xlink:title=" ">
<polygon fill="white" stroke="#666666" points="457.5,-316 341.5,-316 341.5,-286 457.5,-286 457.5,-316"/>
<text text-anchor="start" x="349.5" y="-304" font-family="FreeSans" font-size="10.00">mpqc/math/external</text>
<text text-anchor="middle" x="399.5" y="-293" font-family="FreeSans" font-size="10.00">/eigen/eigen.h</text>
</a>
</g>
</g>
<!-- Node18&#45;&gt;Node19 -->
<g id="edge22_Node000018_Node000019" class="edge">
<title>Node18&#45;&gt;Node19</title>
<g id="a_edge22_Node000018_Node000019"><a xlink:title=" ">
<path fill="none" stroke="#63b8ff" d="M399.5,-351.8C399.5,-344.34 399.5,-334.99 399.5,-326.41"/>
<polygon fill="#63b8ff" stroke="#63b8ff" points="403,-326.16 399.5,-316.16 396,-326.16 403,-326.16"/>
</a>
</g>
</g>
<!-- Node29 -->
<g id="Node000029" class="node">
<title>Node29</title>
<g id="a_Node000029"><a xlink:title=" ">
<polygon fill="#e0e0e0" stroke="#999999" points="527.5,-310.5 475.5,-310.5 475.5,-291.5 527.5,-291.5 527.5,-310.5"/>
<text text-anchor="middle" x="501.5" y="-298.5" font-family="FreeSans" font-size="10.00">blas.hh</text>
</a>
</g>
</g>
<!-- Node18&#45;&gt;Node29 -->
<g id="edge36_Node000018_Node000029" class="edge">
<title>Node18&#45;&gt;Node29</title>
<g id="a_edge36_Node000018_Node000029"><a xlink:title=" ">
<path fill="none" stroke="#63b8ff" d="M421.88,-351.95C438.91,-341.27 462.21,-326.65 479.21,-315.98"/>
<polygon fill="#63b8ff" stroke="#63b8ff" points="481.32,-318.8 487.93,-310.52 477.59,-312.87 481.32,-318.8"/>
</a>
</g>
</g>
<!-- Node19&#45;&gt;Node9 -->
<g id="edge31_Node000019_Node000009" class="edge">
<title>Node19&#45;&gt;Node9</title>
<g id="a_edge31_Node000019_Node000009"><a xlink:title=" ">
<path fill="none" stroke="#63b8ff" d="M448.17,-285.93C507.33,-268.06 609.53,-234.74 692.5,-195 715.53,-183.97 719.23,-177.49 741.5,-165 761.35,-153.87 784.29,-142.18 801.63,-133.58"/>
<polygon fill="#63b8ff" stroke="#63b8ff" points="803.21,-136.7 810.63,-129.14 800.11,-130.43 803.21,-136.7"/>
</a>
</g>
</g>
<!-- Node20 -->
<g id="Node000020" class="node">
<title>Node20</title>
<g id="a_Node000020"><a xlink:title=" ">
<polygon fill="#e0e0e0" stroke="#999999" points="266.5,-250 164.5,-250 164.5,-231 266.5,-231 266.5,-250"/>
<text text-anchor="middle" x="215.5" y="-238" font-family="FreeSans" font-size="10.00">madness/config.h</text>
</a>
</g>
</g>
<!-- Node19&#45;&gt;Node20 -->
<g id="edge23_Node000019_Node000020" class="edge">
<title>Node19&#45;&gt;Node20</title>
<g id="a_edge23_Node000019_Node000020"><a xlink:title=" ">
<path fill="none" stroke="#63b8ff" d="M355.43,-285.99C323.81,-275.94 281.72,-262.55 251.98,-253.1"/>
<polygon fill="#63b8ff" stroke="#63b8ff" points="252.99,-249.75 242.4,-250.05 250.87,-256.42 252.99,-249.75"/>
</a>
</g>
</g>
<!-- Node21 -->
<g id="Node000021" class="node">
<title>Node21</title>
<g id="a_Node000021"><a xlink:href="complex_8h.html" target="_top" xlink:title=" ">
<polygon fill="white" stroke="#666666" points="434.5,-250 284.5,-250 284.5,-231 434.5,-231 434.5,-250"/>
<text text-anchor="middle" x="359.5" y="-238" font-family="FreeSans" font-size="10.00">mpqc/math/core/complex.h</text>
</a>
</g>
</g>
<!-- Node19&#45;&gt;Node21 -->
<g id="edge24_Node000019_Node000021" class="edge">
<title>Node19&#45;&gt;Node21</title>
<g id="a_edge24_Node000019_Node000021"><a xlink:title=" ">
<path fill="none" stroke="#63b8ff" d="M389.82,-285.84C384.25,-277.69 377.21,-267.4 371.32,-258.78"/>
<polygon fill="#63b8ff" stroke="#63b8ff" points="374.03,-256.55 365.49,-250.27 368.25,-260.5 374.03,-256.55"/>
</a>
</g>
</g>
<!-- Node27 -->
<g id="Node000027" class="node">
<title>Node27</title>
<g id="a_Node000027"><a xlink:href="math_2external_2eigen_2fwd_8h.html" target="_top" xlink:title=" ">
<polygon fill="white" stroke="#666666" points="866.5,-195 750.5,-195 750.5,-165 866.5,-165 866.5,-195"/>
<text text-anchor="start" x="758.5" y="-183" font-family="FreeSans" font-size="10.00">mpqc/math/external</text>
<text text-anchor="middle" x="808.5" y="-172" font-family="FreeSans" font-size="10.00">/eigen/fwd.h</text>
</a>
</g>
</g>
<!-- Node19&#45;&gt;Node27 -->
<g id="edge32_Node000019_Node000027" class="edge">
<title>Node19&#45;&gt;Node27</title>
<g id="a_edge32_Node000019_Node000027"><a xlink:title=" ">
<path fill="none" stroke="#63b8ff" d="M457.54,-287.66C518.54,-274.6 607.82,-255.16 623.5,-250 643.35,-243.47 647.08,-238.7 666.5,-231 695.93,-219.34 729.3,-207.52 756.29,-198.3"/>
<polygon fill="#63b8ff" stroke="#63b8ff" points="757.59,-201.56 765.93,-195.03 755.34,-194.93 757.59,-201.56"/>
</a>
</g>
</g>
<!-- Node28 -->
<g id="Node000028" class="node">
<title>Node28</title>
<g id="a_Node000028"><a xlink:title=" ">
<polygon fill="#e0e0e0" stroke="#999999" points="530,-250 453,-250 453,-231 530,-231 530,-250"/>
<text text-anchor="middle" x="491.5" y="-238" font-family="FreeSans" font-size="10.00">Eigen/Dense</text>
</a>
</g>
</g>
<!-- Node19&#45;&gt;Node28 -->
<g id="edge34_Node000019_Node000028" class="edge">
<title>Node19&#45;&gt;Node28</title>
<g id="a_edge34_Node000019_Node000028"><a xlink:title=" ">
<path fill="none" stroke="#63b8ff" d="M421.77,-285.84C436.17,-276.68 454.83,-264.82 469.23,-255.66"/>
<polygon fill="#63b8ff" stroke="#63b8ff" points="471.42,-258.41 477.98,-250.09 467.67,-252.51 471.42,-258.41"/>
</a>
</g>
</g>
<!-- Node21&#45;&gt;Node8 -->
<g id="edge25_Node000021_Node000008" class="edge">
<title>Node21&#45;&gt;Node8</title>
<g id="a_edge25_Node000021_Node000008"><a xlink:title=" ">
<path fill="none" stroke="#63b8ff" d="M397.16,-230.99C443.1,-220.62 520.81,-203.07 570.86,-191.76"/>
<polygon fill="#63b8ff" stroke="#63b8ff" points="571.81,-195.13 580.79,-189.52 570.27,-188.31 571.81,-195.13"/>
</a>
</g>
</g>
<!-- Node22 -->
<g id="Node000022" class="node">
<title>Node22</title>
<g id="a_Node000022"><a xlink:title=" ">
<polygon fill="#e0e0e0" stroke="#999999" points="394,-189.5 325,-189.5 325,-170.5 394,-170.5 394,-189.5"/>
<text text-anchor="middle" x="359.5" y="-177.5" font-family="FreeSans" font-size="10.00">Eigen/Core</text>
</a>
</g>
</g>
<!-- Node21&#45;&gt;Node22 -->
<g id="edge26_Node000021_Node000022" class="edge">
<title>Node21&#45;&gt;Node22</title>
<g id="a_edge26_Node000021_Node000022"><a xlink:title=" ">
<path fill="none" stroke="#63b8ff" d="M359.5,-230.87C359.5,-222.75 359.5,-210.31 359.5,-199.89"/>
<polygon fill="#63b8ff" stroke="#63b8ff" points="363,-199.67 359.5,-189.67 356,-199.67 363,-199.67"/>
</a>
</g>
</g>
<!-- Node23 -->
<g id="Node000023" class="node">
<title>Node23</title>
<g id="a_Node000023"><a xlink:title=" ">
<polygon fill="#e0e0e0" stroke="#999999" points="534.5,-195 412.5,-195 412.5,-165 534.5,-165 534.5,-195"/>
<text text-anchor="start" x="420.5" y="-183" font-family="FreeSans" font-size="10.00">boost/container/small</text>
<text text-anchor="middle" x="473.5" y="-172" font-family="FreeSans" font-size="10.00">_vector.hpp</text>
</a>
</g>
</g>
<!-- Node21&#45;&gt;Node23 -->
<g id="edge27_Node000021_Node000023" class="edge">
<title>Node21&#45;&gt;Node23</title>
<g id="a_edge27_Node000021_Node000023"><a xlink:title=" ">
<path fill="none" stroke="#63b8ff" d="M376.32,-230.87C392.22,-222.71 416.6,-210.2 436.97,-199.75"/>
<polygon fill="#63b8ff" stroke="#63b8ff" points="438.7,-202.79 445.99,-195.11 435.5,-196.57 438.7,-202.79"/>
</a>
</g>
</g>
<!-- Node24 -->
<g id="Node000024" class="node">
<title>Node24</title>
<g id="a_Node000024"><a xlink:title=" ">
<polygon fill="#e0e0e0" stroke="#999999" points="143,-195 0,-195 0,-165 143,-165 143,-195"/>
<text text-anchor="start" x="8" y="-183" font-family="FreeSans" font-size="10.00">boost/numeric/conversion</text>
<text text-anchor="middle" x="71.5" y="-172" font-family="FreeSans" font-size="10.00">/cast.hpp</text>
</a>
</g>
</g>
<!-- Node21&#45;&gt;Node24 -->
<g id="edge28_Node000021_Node000024" class="edge">
<title>Node21&#45;&gt;Node24</title>
<g id="a_edge28_Node000021_Node000024"><a xlink:title=" ">
<path fill="none" stroke="#63b8ff" d="M317.62,-230.99C273.93,-222.12 204.39,-207.99 150.36,-197.02"/>
<polygon fill="#63b8ff" stroke="#63b8ff" points="150.96,-193.57 140.46,-195.01 149.56,-200.43 150.96,-193.57"/>
</a>
</g>
</g>
<!-- Node25 -->
<g id="Node000025" class="node">
<title>Node25</title>
<g id="a_Node000025"><a xlink:title=" ">
<polygon fill="#e0e0e0" stroke="#999999" points="220,-189.5 161,-189.5 161,-170.5 220,-170.5 220,-189.5"/>
<text text-anchor="middle" x="190.5" y="-177.5" font-family="FreeSans" font-size="10.00">complex</text>
</a>
</g>
</g>
<!-- Node21&#45;&gt;Node25 -->
<g id="edge29_Node000021_Node000025" class="edge">
<title>Node21&#45;&gt;Node25</title>
<g id="a_edge29_Node000021_Node000025"><a xlink:title=" ">
<path fill="none" stroke="#63b8ff" d="M333.83,-231C307.37,-222.18 264.95,-207.9 228.5,-195 226.66,-194.35 224.77,-193.67 222.87,-192.99"/>
<polygon fill="#63b8ff" stroke="#63b8ff" points="223.97,-189.66 213.37,-189.53 221.57,-196.24 223.97,-189.66"/>
</a>
</g>
</g>
<!-- Node26 -->
<g id="Node000026" class="node">
<title>Node26</title>
<g id="a_Node000026"><a xlink:title=" ">
<polygon fill="#e0e0e0" stroke="#999999" points="307,-189.5 238,-189.5 238,-170.5 307,-170.5 307,-189.5"/>
<text text-anchor="middle" x="272.5" y="-177.5" font-family="FreeSans" font-size="10.00">type_traits</text>
</a>
</g>
</g>
<!-- Node21&#45;&gt;Node26 -->
<g id="edge30_Node000021_Node000026" class="edge">
<title>Node21&#45;&gt;Node26</title>
<g id="a_edge30_Node000021_Node000026"><a xlink:title=" ">
<path fill="none" stroke="#63b8ff" d="M346.66,-230.87C332.78,-221.54 310.43,-206.51 293.89,-195.38"/>
<polygon fill="#63b8ff" stroke="#63b8ff" points="295.64,-192.34 285.39,-189.67 291.74,-198.15 295.64,-192.34"/>
</a>
</g>
</g>
<!-- Node27&#45;&gt;Node9 -->
<g id="edge33_Node000027_Node000009" class="edge">
<title>Node27&#45;&gt;Node9</title>
<g id="a_edge33_Node000027_Node000009"><a xlink:title=" ">
<path fill="none" stroke="#63b8ff" d="M813.34,-164.84C816.01,-157.04 819.35,-147.27 822.21,-138.89"/>
<polygon fill="#63b8ff" stroke="#63b8ff" points="825.58,-139.86 825.5,-129.27 818.96,-137.6 825.58,-139.86"/>
</a>
</g>
</g>
<!-- Node30&#45;&gt;Node3 -->
<g id="edge39_Node000030_Node000003" class="edge">
<title>Node30&#45;&gt;Node3</title>
<g id="a_edge39_Node000030_Node000003"><a xlink:title=" ">
<path fill="none" stroke="#63b8ff" d="M950.1,-351.95C923.99,-342.41 889.28,-329.71 861.37,-319.51"/>
<polygon fill="#63b8ff" stroke="#63b8ff" points="862.41,-316.16 851.81,-316.01 860,-322.73 862.41,-316.16"/>
</a>
</g>
</g>
<!-- Node31&#45;&gt;Node2 -->
<g id="edge45_Node000031_Node000002" class="edge">
<title>Node31&#45;&gt;Node2</title>
<g id="a_edge45_Node000031_Node000002"><a xlink:title=" ">
<path fill="none" stroke="#63b8ff" d="M654.15,-560.96C634.37,-536.49 593.4,-485.83 569.64,-456.43"/>
<polygon fill="#63b8ff" stroke="#63b8ff" points="572.15,-453.97 563.14,-448.4 566.71,-458.37 572.15,-453.97"/>
</a>
</g>
</g>
<!-- Node31&#45;&gt;Node3 -->
<g id="edge44_Node000031_Node000003" class="edge">
<title>Node31&#45;&gt;Node3</title>
<g id="a_edge44_Node000031_Node000003"><a xlink:title=" ">
<path fill="none" stroke="#63b8ff" d="M664.02,-560.6C661.71,-531.73 659.8,-465.5 684.5,-418 706.38,-375.92 750.14,-341.72 780.6,-321.63"/>
<polygon fill="#63b8ff" stroke="#63b8ff" points="782.68,-324.45 789.19,-316.09 778.89,-318.56 782.68,-324.45"/>
</a>
</g>
</g>
<!-- Node31&#45;&gt;Node18 -->
<g id="edge46_Node000031_Node000018" class="edge">
<title>Node31&#45;&gt;Node18</title>
<g id="a_edge46_Node000031_Node000018"><a xlink:title=" ">
<path fill="none" stroke="#63b8ff" d="M583.13,-572.99C503.3,-569.1 390.31,-557.78 362.5,-525 329.71,-486.35 361.78,-423.88 383.38,-390.59"/>
<polygon fill="#63b8ff" stroke="#63b8ff" points="386.47,-392.27 389.14,-382.01 380.66,-388.37 386.47,-392.27"/>
</a>
</g>
</g>
<!-- Node32 -->
<g id="Node000032" class="node">
<title>Node32</title>
<g id="a_Node000032"><a xlink:href="tiledarray_8h.html" target="_top" xlink:title=" ">
<polygon fill="white" stroke="#666666" points="1033,-448 908,-448 908,-418 1033,-418 1033,-448"/>
<text text-anchor="start" x="916" y="-436" font-family="FreeSans" font-size="10.00">mpqc/math/external</text>
<text text-anchor="middle" x="970.5" y="-425" font-family="FreeSans" font-size="10.00">/tiledarray/tiledarray.h</text>
</a>
</g>
</g>
<!-- Node31&#45;&gt;Node32 -->
<g id="edge41_Node000031_Node000032" class="edge">
<title>Node31&#45;&gt;Node32</title>
<g id="a_edge41_Node000031_Node000032"><a xlink:title=" ">
<path fill="none" stroke="#63b8ff" d="M747.52,-573.67C830.92,-570.38 951.96,-559.58 981.5,-525 997.31,-506.49 990.3,-477.61 982.09,-457.36"/>
<polygon fill="#63b8ff" stroke="#63b8ff" points="985.29,-455.94 978.07,-448.2 978.89,-458.76 985.29,-455.94"/>
</a>
</g>
</g>
<!-- Node33 -->
<g id="Node000033" class="node">
<title>Node33</title>
<g id="a_Node000033"><a xlink:href="decomposed__tensor__gemm__helper_8h.html" target="_top" xlink:title=" ">
<polygon fill="white" stroke="#666666" points="527,-525 372,-525 372,-484 527,-484 527,-525"/>
<text text-anchor="start" x="380" y="-513" font-family="FreeSans" font-size="10.00">mpqc/math/tensor/clr</text>
<text text-anchor="start" x="380" y="-502" font-family="FreeSans" font-size="10.00">/decomposed_tensor_gemm</text>
<text text-anchor="middle" x="449.5" y="-491" font-family="FreeSans" font-size="10.00">_helper.h</text>
</a>
</g>
</g>
<!-- Node31&#45;&gt;Node33 -->
<g id="edge47_Node000031_Node000033" class="edge">
<title>Node31&#45;&gt;Node33</title>
<g id="a_edge47_Node000031_Node000033"><a xlink:title=" ">
<path fill="none" stroke="#63b8ff" d="M621.79,-560.94C592.62,-551.55 553.61,-539 520.08,-528.21"/>
<polygon fill="#63b8ff" stroke="#63b8ff" points="520.92,-524.8 510.33,-525.07 518.78,-531.47 520.92,-524.8"/>
</a>
</g>
</g>
<!-- Node32&#45;&gt;Node9 -->
<g id="edge43_Node000032_Node000009" class="edge">
<title>Node32&#45;&gt;Node9</title>
<g id="a_edge43_Node000032_Node000009"><a xlink:title=" ">
<path fill="none" stroke="#63b8ff" d="M1029.57,-417.97C1048.13,-410.48 1066.6,-399.12 1077.5,-382 1106.78,-335.99 1077.42,-289.53 1024.5,-231 979.66,-181.41 907.16,-148.73 864.03,-132.52"/>
<polygon fill="#63b8ff" stroke="#63b8ff" points="865.11,-129.19 854.52,-129.03 862.7,-135.76 865.11,-129.19"/>
</a>
</g>
</g>
<!-- Node32&#45;&gt;Node32 -->
<g id="edge42_Node000032_Node000032" class="edge">
<title>Node32&#45;&gt;Node32</title>
<g id="a_edge42_Node000032_Node000032"><a xlink:title=" ">
<path fill="none" stroke="#63b8ff" d="M1033.28,-444.5C1043.76,-442.89 1051,-439.06 1051,-433 1051,-429.12 1048.03,-426.15 1043.14,-424.1"/>
<polygon fill="#63b8ff" stroke="#63b8ff" points="1043.84,-420.66 1033.28,-421.5 1042.06,-427.43 1043.84,-420.66"/>
</a>
</g>
</g>
<!-- Node33&#45;&gt;Node2 -->
<g id="edge49_Node000033_Node000002" class="edge">
<title>Node33&#45;&gt;Node2</title>
<g id="a_edge49_Node000033_Node000002"><a xlink:title=" ">
<path fill="none" stroke="#63b8ff" d="M478.18,-483.96C491.91,-474.6 508.33,-463.42 522.14,-454.01"/>
<polygon fill="#63b8ff" stroke="#63b8ff" points="524.49,-456.64 530.79,-448.11 520.55,-450.85 524.49,-456.64"/>
</a>
</g>
</g>
<!-- Node33&#45;&gt;Node3 -->
<g id="edge48_Node000033_Node000003" class="edge">
<title>Node33&#45;&gt;Node3</title>
<g id="a_edge48_Node000033_Node000003"><a xlink:title=" ">
<path fill="none" stroke="#63b8ff" d="M445.81,-483.94C443.42,-465.27 442.89,-437.2 456.5,-418 489.63,-371.25 645.68,-333.99 740.16,-315.25"/>
<polygon fill="#63b8ff" stroke="#63b8ff" points="741.09,-318.63 750.23,-313.27 739.75,-311.76 741.09,-318.63"/>
</a>
</g>
</g>
<!-- Node33&#45;&gt;Node18 -->
<g id="edge50_Node000033_Node000018" class="edge">
<title>Node33&#45;&gt;Node18</title>
<g id="a_edge50_Node000033_Node000018"><a xlink:title=" ">
<path fill="none" stroke="#63b8ff" d="M439.39,-483.77C434.25,-473.3 428.13,-460.13 423.5,-448 416.41,-429.44 410.04,-407.84 405.64,-391.76"/>
<polygon fill="#63b8ff" stroke="#63b8ff" points="409.02,-390.84 403.05,-382.08 402.26,-392.65 409.02,-390.84"/>
</a>
</g>
</g>
<!-- Node34&#45;&gt;Node3 -->
<g id="edge52_Node000034_Node000003" class="edge">
<title>Node34&#45;&gt;Node3</title>
<g id="a_edge52_Node000034_Node000003"><a xlink:title=" ">
<path fill="none" stroke="#63b8ff" d="M1203.78,-560.96C1192.42,-521.03 1154.18,-406.17 1077.5,-352 1047.42,-330.75 954.02,-316.69 886.85,-309.04"/>
<polygon fill="#63b8ff" stroke="#63b8ff" points="887.05,-305.54 876.72,-307.91 886.27,-312.5 887.05,-305.54"/>
</a>
</g>
</g>
<!-- Node35&#45;&gt;Node1 -->
<g id="edge57_Node000035_Node000001" class="edge">
<title>Node35&#45;&gt;Node1</title>
<g id="a_edge57_Node000035_Node000001"><a xlink:title=" ">
<path fill="none" stroke="#63b8ff" d="M878.5,-519.81C872.87,-542.62 856.69,-587.67 843.8,-617.44"/>
<polygon fill="#63b8ff" stroke="#63b8ff" points="840.46,-616.34 839.58,-626.89 846.85,-619.19 840.46,-616.34"/>
</a>
</g>
</g>
<!-- Node35&#45;&gt;Node2 -->
<g id="edge56_Node000035_Node000002" class="edge">
<title>Node35&#45;&gt;Node2</title>
<g id="a_edge56_Node000035_Node000002"><a xlink:title=" ">
<path fill="none" stroke="#63b8ff" d="M813.12,-489.44C759.44,-478.06 683.82,-462.04 627.67,-450.14"/>
<polygon fill="#63b8ff" stroke="#63b8ff" points="628.29,-446.69 617.78,-448.04 626.83,-453.54 628.29,-446.69"/>
</a>
</g>
</g>
<!-- Node35&#45;&gt;Node3 -->
<g id="edge55_Node000035_Node000003" class="edge">
<title>Node35&#45;&gt;Node3</title>
<g id="a_edge55_Node000035_Node000003"><a xlink:title=" ">
<path fill="none" stroke="#63b8ff" d="M877.11,-489.39C874.04,-472.29 868.18,-442.68 860.5,-418 850.26,-385.11 834.68,-348.47 824.3,-325.33"/>
<polygon fill="#63b8ff" stroke="#63b8ff" points="827.38,-323.67 820.06,-316.01 821.01,-326.56 827.38,-323.67"/>
</a>
</g>
</g>
<!-- Node35&#45;&gt;Node32 -->
<g id="edge54_Node000035_Node000032" class="edge">
<title>Node35&#45;&gt;Node32</title>
<g id="a_edge54_Node000035_Node000032"><a xlink:title=" ">
<path fill="none" stroke="#63b8ff" d="M897.92,-489.44C911.11,-479.36 929.09,-465.63 943.85,-454.35"/>
<polygon fill="#63b8ff" stroke="#63b8ff" points="946.29,-456.89 952.11,-448.04 942.04,-451.33 946.29,-456.89"/>
</a>
</g>
</g>
<!-- Node35&#45;&gt;Node36 -->
<g id="edge58_Node000035_Node000036" class="edge">
<title>Node35&#45;&gt;Node36</title>
<g id="a_edge58_Node000035_Node000036"><a xlink:title=" ">
<path fill="none" stroke="#63b8ff" d="M857.85,-489.44C842.04,-479.17 820.4,-465.11 802.86,-453.72"/>
<polygon fill="#63b8ff" stroke="#63b8ff" points="804.41,-450.56 794.12,-448.04 800.6,-456.43 804.41,-450.56"/>
</a>
</g>
</g>
<!-- Node36&#45;&gt;Node3 -->
<g id="edge59_Node000036_Node000003" class="edge">
<title>Node36&#45;&gt;Node3</title>
<g id="a_edge59_Node000036_Node000003"><a xlink:title=" ">
<path fill="none" stroke="#63b8ff" d="M776.97,-417.84C783.93,-395.76 797.45,-352.89 805.95,-325.94"/>
<polygon fill="#63b8ff" stroke="#63b8ff" points="809.37,-326.73 809.04,-316.14 802.69,-324.63 809.37,-326.73"/>
</a>
</g>
</g>
<!-- Node36&#45;&gt;Node18 -->
<g id="edge60_Node000036_Node000018" class="edge">
<title>Node36&#45;&gt;Node18</title>
<g id="a_edge60_Node000036_Node000018"><a xlink:title=" ">
<path fill="none" stroke="#63b8ff" d="M693.4,-418.43C634.35,-408.3 553.51,-394.42 491.56,-383.8"/>
<polygon fill="#63b8ff" stroke="#63b8ff" points="491.84,-380.29 481.39,-382.05 490.66,-387.19 491.84,-380.29"/>
</a>
</g>
</g>
</g>
</svg>
