<?xml version="1.0" encoding="UTF-8" standalone="no"?>
<!DOCTYPE svg PUBLIC "-//W3C//DTD SVG 1.1//EN"
 "http://www.w3.org/Graphics/SVG/1.1/DTD/svg11.dtd">
<!-- Generated by graphviz version 2.43.0 (0)
 -->
<!-- Title: mpqc/math/tensor/clr/decomposed_tensor_gemm_helper.h Pages: 1 -->
<!--zoomable 533 -->

<svg id="main" version="1.1" xmlns="http://www.w3.org/2000/svg" xmlns:xlink="http://www.w3.org/1999/xlink" xml:space="preserve" onload="init(evt)">
<style type="text/css"><![CDATA[
.node, .edge {opacity: 0.7;}
.node.selected, .edge.selected {opacity: 1;}
.edge:hover path { stroke: red; }
.edge:hover polygon { stroke: red; fill: red; }
]]></style>

<defs>
  <circle id="rim" cx="0" cy="0" r="7"/>
  <circle id="rim2" cx="0" cy="0" r="3.5"/>
  <g id="zoomPlus">
    <use xlink:href="#rim" fill="#404040"><set attributeName="fill" to="#808080" begin="zoomplus.mouseover" end="zoomplus.mouseout"/></use>
    <path d="M-4,0h8M0,-4v8" fill="none" stroke="white" stroke-width="1.5" pointer-events="none"/>
  </g>
  <g id="zoomMin">
    <use xlink:href="#rim" fill="#404040"><set attributeName="fill" to="#808080" begin="zoomminus.mouseover" end="zoomminus.mouseout"/></use>
    <path d="M-4,0h8" fill="none" stroke="white" stroke-width="1.5" pointer-events="none"/>
  </g>
  <g id="arrowUp" transform="translate(30 24)">
    <use xlink:href="#rim"/>
    <path pointer-events="none" fill="none" stroke="white" stroke-width="1.5" d="M0,-3.0v7 M-2.5,-0.5L0,-3.0L2.5,-0.5"/>
  </g>
  <g id="arrowRight" transform="rotate(90) translate(36 -43)">
    <use xlink:href="#rim"/>
    <path pointer-events="none" fill="none" stroke="white" stroke-width="1.5" d="M0,-3.0v7 M-2.5,-0.5L0,-3.0L2.5,-0.5"/>
  </g>
  <g id="arrowDown" transform="rotate(180) translate(-30 -48)">
    <use xlink:href="#rim"/>
    <path pointer-events="none" fill="none" stroke="white" stroke-width="1.5" d="M0,-3.0v7 M-2.5,-0.5L0,-3.0L2.5,-0.5"/>
  </g>
  <g id="arrowLeft" transform="rotate(270) translate(-36 17)">
    <use xlink:href="#rim"/>
    <path pointer-events="none" fill="none" stroke="white" stroke-width="1.5" d="M0,-3.0v7 M-2.5,-0.5L0,-3.0L2.5,-0.5"/>
  </g>
  <g id="resetDef">
    <use xlink:href="#rim2" fill="#404040"><set attributeName="fill" to="#808080" begin="reset.mouseover" end="reset.mouseout"/></use>
  </g>
</defs>
<script type="application/ecmascript">
var viewWidth = 1086;
var viewHeight = 533;
var sectionId = 'dynsection-0';
</script>
<script type="application/ecmascript" xlink:href="svg.min.js"/>
<svg id="graph" class="graph">
<g id="viewport">
<title>mpqc/math/tensor/clr/decomposed_tensor_gemm_helper.h</title>
<!-- Node1 -->
<g id="Node000001" class="node">
<title>Node1</title>
<g id="a_Node000001"><a xlink:title=" ">
<polygon fill="#999999" stroke="#666666" points="342.5,-525 187.5,-525 187.5,-484 342.5,-484 342.5,-525"/>
<text text-anchor="start" x="195.5" y="-513" font-family="FreeSans" font-size="10.00">mpqc/math/tensor/clr</text>
<text text-anchor="start" x="195.5" y="-502" font-family="FreeSans" font-size="10.00">/decomposed_tensor_gemm</text>
<text text-anchor="middle" x="265" y="-491" font-family="FreeSans" font-size="10.00">_helper.h</text>
</a>
</g>
</g>
<!-- Node2 -->
<g id="Node000002" class="node">
<title>Node2</title>
<g id="a_Node000002"><a xlink:href="decomposed__tensor_8h.html" target="_top" xlink:title=" ">
<polygon fill="white" stroke="#666666" points="229,-316 103,-316 103,-286 229,-286 229,-316"/>
<text text-anchor="start" x="111" y="-304" font-family="FreeSans" font-size="10.00">mpqc/math/tensor/clr</text>
<text text-anchor="middle" x="166" y="-293" font-family="FreeSans" font-size="10.00">/decomposed_tensor.h</text>
</a>
</g>
</g>
<!-- Node1&#45;&gt;Node2 -->
<g id="edge1_Node000001_Node000002" class="edge">
<title>Node1&#45;&gt;Node2</title>
<g id="a_edge1_Node000001_Node000002"><a xlink:title=" ">
<path fill="none" stroke="#63b8ff" d="M210.51,-483.78C194.71,-475.28 179.25,-463.61 170,-448 147.58,-410.14 153.72,-356.52 160,-325.9"/>
<polygon fill="#63b8ff" stroke="#63b8ff" points="163.42,-326.62 162.18,-316.1 156.59,-325.1 163.42,-326.62"/>
</a>
</g>
</g>
<!-- Node17 -->
<g id="Node000017" class="node">
<title>Node17</title>
<g id="a_Node000017"><a xlink:href="decomposed__tensor__addition_8h.html" target="_top" xlink:title=" ">
<polygon fill="white" stroke="#666666" points="351,-448 179,-448 179,-418 351,-418 351,-448"/>
<text text-anchor="start" x="187" y="-436" font-family="FreeSans" font-size="10.00">mpqc/math/tensor/clr</text>
<text text-anchor="middle" x="265" y="-425" font-family="FreeSans" font-size="10.00">/decomposed_tensor_addition.h</text>
</a>
</g>
</g>
<!-- Node1&#45;&gt;Node17 -->
<g id="edge19_Node000001_Node000017" class="edge">
<title>Node1&#45;&gt;Node17</title>
<g id="a_edge19_Node000001_Node000017"><a xlink:title=" ">
<path fill="none" stroke="#63b8ff" d="M265,-483.77C265,-475.85 265,-466.63 265,-458.3"/>
<polygon fill="#63b8ff" stroke="#63b8ff" points="268.5,-458.04 265,-448.04 261.5,-458.04 268.5,-458.04"/>
</a>
</g>
</g>
<!-- Node18 -->
<g id="Node000018" class="node">
<title>Node18</title>
<g id="a_Node000018"><a xlink:href="decomposed__tensor__algebra_8h.html" target="_top" xlink:title=" ">
<polygon fill="white" stroke="#666666" points="443.5,-382 274.5,-382 274.5,-352 443.5,-352 443.5,-382"/>
<text text-anchor="start" x="282.5" y="-370" font-family="FreeSans" font-size="10.00">mpqc/math/tensor/clr</text>
<text text-anchor="middle" x="359" y="-359" font-family="FreeSans" font-size="10.00">/decomposed_tensor_algebra.h</text>
</a>
</g>
</g>
<!-- Node1&#45;&gt;Node18 -->
<g id="edge38_Node000001_Node000018" class="edge">
<title>Node1&#45;&gt;Node18</title>
<g id="a_edge38_Node000001_Node000018"><a xlink:title=" ">
<path fill="none" stroke="#63b8ff" d="M319.74,-483.93C335.56,-475.44 350.97,-463.74 360,-448 369.64,-431.2 368.48,-408.96 365.43,-392.2"/>
<polygon fill="#63b8ff" stroke="#63b8ff" points="368.78,-391.12 363.24,-382.09 361.93,-392.6 368.78,-391.12"/>
</a>
</g>
</g>
<!-- Node3 -->
<g id="Node000003" class="node">
<title>Node3</title>
<g id="a_Node000003"><a xlink:title=" ">
<polygon fill="#e0e0e0" stroke="#999999" points="376.5,-250 267.5,-250 267.5,-231 376.5,-231 376.5,-250"/>
<text text-anchor="middle" x="322" y="-238" font-family="FreeSans" font-size="10.00">TiledArray/tensor.h</text>
</a>
</g>
</g>
<!-- Node2&#45;&gt;Node3 -->
<g id="edge2_Node000002_Node000003" class="edge">
<title>Node2&#45;&gt;Node3</title>
<g id="a_edge2_Node000002_Node000003"><a xlink:title=" ">
<path fill="none" stroke="#63b8ff" d="M203.37,-285.99C229.63,-276.14 264.41,-263.1 289.52,-253.68"/>
<polygon fill="#63b8ff" stroke="#63b8ff" points="290.83,-256.93 298.96,-250.14 288.37,-250.37 290.83,-256.93"/>
</a>
</g>
</g>
<!-- Node4 -->
<g id="Node000004" class="node">
<title>Node4</title>
<g id="a_Node000004"><a xlink:title=" ">
<polygon fill="#e0e0e0" stroke="#999999" points="249.5,-250 154.5,-250 154.5,-231 249.5,-231 249.5,-250"/>
<text text-anchor="middle" x="202" y="-238" font-family="FreeSans" font-size="10.00">tiledarray_fwd.h</text>
</a>
</g>
</g>
<!-- Node2&#45;&gt;Node4 -->
<g id="edge3_Node000002_Node000004" class="edge">
<title>Node2&#45;&gt;Node4</title>
<g id="a_edge3_Node000002_Node000004"><a xlink:title=" ">
<path fill="none" stroke="#63b8ff" d="M174.71,-285.84C179.67,-277.78 185.93,-267.62 191.2,-259.06"/>
<polygon fill="#63b8ff" stroke="#63b8ff" points="194.35,-260.62 196.61,-250.27 188.38,-256.95 194.35,-260.62"/>
</a>
</g>
</g>
<!-- Node5 -->
<g id="Node000005" class="node">
<title>Node5</title>
<g id="a_Node000005"><a xlink:title=" ">
<polygon fill="#e0e0e0" stroke="#999999" points="60,-250 0,-250 0,-231 60,-231 60,-250"/>
<text text-anchor="middle" x="30" y="-238" font-family="FreeSans" font-size="10.00">iostream</text>
</a>
</g>
</g>
<!-- Node2&#45;&gt;Node5 -->
<g id="edge4_Node000002_Node000005" class="edge">
<title>Node2&#45;&gt;Node5</title>
<g id="a_edge4_Node000002_Node000005"><a xlink:title=" ">
<path fill="none" stroke="#63b8ff" d="M133.42,-285.99C110.94,-276.31 81.28,-263.56 59.49,-254.18"/>
<polygon fill="#63b8ff" stroke="#63b8ff" points="60.65,-250.88 50.08,-250.14 57.89,-257.31 60.65,-250.88"/>
</a>
</g>
</g>
<!-- Node6 -->
<g id="Node000006" class="node">
<title>Node6</title>
<g id="a_Node000006"><a xlink:title=" ">
<polygon fill="#e0e0e0" stroke="#999999" points="149.5,-19 102.5,-19 102.5,0 149.5,0 149.5,-19"/>
<text text-anchor="middle" x="126" y="-7" font-family="FreeSans" font-size="10.00">vector</text>
</a>
</g>
</g>
<!-- Node2&#45;&gt;Node6 -->
<g id="edge5_Node000002_Node000006" class="edge">
<title>Node2&#45;&gt;Node6</title>
<g id="a_edge5_Node000002_Node000006"><a xlink:title=" ">
<path fill="none" stroke="#63b8ff" d="M148.69,-285.84C125.71,-265.33 88,-224.97 88,-181 88,-181 88,-181 88,-118.5 88,-85.02 104.45,-48.84 115.7,-28.01"/>
<polygon fill="#63b8ff" stroke="#63b8ff" points="118.87,-29.53 120.72,-19.1 112.76,-26.1 118.87,-29.53"/>
</a>
</g>
</g>
<!-- Node7 -->
<g id="Node000007" class="node">
<title>Node7</title>
<g id="a_Node000007"><a xlink:href="assert_8h.html" target="_top" xlink:title=" ">
<polygon fill="white" stroke="#666666" points="349.5,-189.5 218.5,-189.5 218.5,-170.5 349.5,-170.5 349.5,-189.5"/>
<text text-anchor="middle" x="284" y="-177.5" font-family="FreeSans" font-size="10.00">mpqc/util/misc/assert.h</text>
</a>
</g>
</g>
<!-- Node2&#45;&gt;Node7 -->
<g id="edge6_Node000002_Node000007" class="edge">
<title>Node2&#45;&gt;Node7</title>
<g id="a_edge6_Node000002_Node000007"><a xlink:title=" ">
<path fill="none" stroke="#63b8ff" d="M155.05,-285.91C144.98,-271.1 133.26,-247.7 145,-231 159.78,-209.98 184.28,-197.75 208.64,-190.66"/>
<polygon fill="#63b8ff" stroke="#63b8ff" points="209.53,-194.04 218.3,-188.1 207.74,-187.27 209.53,-194.04"/>
</a>
</g>
</g>
<!-- Node8 -->
<g id="Node000008" class="node">
<title>Node8</title>
<g id="a_Node000008"><a xlink:title=" ">
<polygon fill="#e0e0e0" stroke="#999999" points="533.5,-129 416.5,-129 416.5,-110 533.5,-110 533.5,-129"/>
<text text-anchor="middle" x="475" y="-117" font-family="FreeSans" font-size="10.00">mpqc/mpqc_config.h</text>
</a>
</g>
</g>
<!-- Node7&#45;&gt;Node8 -->
<g id="edge7_Node000007_Node000008" class="edge">
<title>Node7&#45;&gt;Node8</title>
<g id="a_edge7_Node000007_Node000008"><a xlink:title=" ">
<path fill="none" stroke="#63b8ff" d="M311.77,-170.49C344.87,-160.36 400.34,-143.37 437.29,-132.05"/>
<polygon fill="#63b8ff" stroke="#63b8ff" points="438.66,-135.29 447.19,-129.02 436.61,-128.6 438.66,-135.29"/>
</a>
</g>
</g>
<!-- Node9 -->
<g id="Node000009" class="node">
<title>Node9</title>
<g id="a_Node000009"><a xlink:title=" ">
<polygon fill="#e0e0e0" stroke="#999999" points="398,-129 346,-129 346,-110 398,-110 398,-129"/>
<text text-anchor="middle" x="372" y="-117" font-family="FreeSans" font-size="10.00">cassert</text>
</a>
</g>
</g>
<!-- Node7&#45;&gt;Node9 -->
<g id="edge8_Node000007_Node000009" class="edge">
<title>Node7&#45;&gt;Node9</title>
<g id="a_edge8_Node000007_Node000009"><a xlink:title=" ">
<path fill="none" stroke="#63b8ff" d="M296.98,-170.37C311.02,-161.04 333.63,-146.01 350.36,-134.88"/>
<polygon fill="#63b8ff" stroke="#63b8ff" points="352.57,-137.62 358.96,-129.17 348.7,-131.79 352.57,-137.62"/>
</a>
</g>
</g>
<!-- Node10 -->
<g id="Node000010" class="node">
<title>Node10</title>
<g id="a_Node000010"><a xlink:href="exception_8h.html" target="_top" xlink:title=" ">
<polygon fill="white" stroke="#666666" points="328,-129 182,-129 182,-110 328,-110 328,-129"/>
<text text-anchor="middle" x="255" y="-117" font-family="FreeSans" font-size="10.00">mpqc/util/core/exception.h</text>
</a>
</g>
</g>
<!-- Node7&#45;&gt;Node10 -->
<g id="edge9_Node000007_Node000010" class="edge">
<title>Node7&#45;&gt;Node10</title>
<g id="a_edge9_Node000007_Node000010"><a xlink:title=" ">
<path fill="none" stroke="#63b8ff" d="M279.72,-170.37C275.57,-161.99 269.13,-149.01 263.87,-138.39"/>
<polygon fill="#63b8ff" stroke="#63b8ff" points="266.87,-136.57 259.3,-129.17 260.6,-139.68 266.87,-136.57"/>
</a>
</g>
</g>
<!-- Node10&#45;&gt;Node6 -->
<g id="edge15_Node000010_Node000006" class="edge">
<title>Node10&#45;&gt;Node6</title>
<g id="a_edge15_Node000010_Node000006"><a xlink:title=" ">
<path fill="none" stroke="#63b8ff" d="M210.04,-109.96C187.7,-103.56 161.92,-92.58 145,-74 133.86,-61.77 129.24,-43.25 127.33,-29.36"/>
<polygon fill="#63b8ff" stroke="#63b8ff" points="130.77,-28.62 126.28,-19.03 123.81,-29.33 130.77,-28.62"/>
</a>
</g>
</g>
<!-- Node11 -->
<g id="Node000011" class="node">
<title>Node11</title>
<g id="a_Node000011"><a xlink:title=" ">
<polygon fill="#e0e0e0" stroke="#999999" points="207.5,-74 154.5,-74 154.5,-55 207.5,-55 207.5,-74"/>
<text text-anchor="middle" x="181" y="-62" font-family="FreeSans" font-size="10.00">string.h</text>
</a>
</g>
</g>
<!-- Node10&#45;&gt;Node11 -->
<g id="edge10_Node000010_Node000011" class="edge">
<title>Node10&#45;&gt;Node11</title>
<g id="a_edge10_Node000010_Node000011"><a xlink:title=" ">
<path fill="none" stroke="#63b8ff" d="M243.11,-109.98C231.85,-101.92 214.71,-89.65 201.29,-80.03"/>
<polygon fill="#63b8ff" stroke="#63b8ff" points="203.27,-77.15 193.11,-74.17 199.2,-82.84 203.27,-77.15"/>
</a>
</g>
</g>
<!-- Node12 -->
<g id="Node000012" class="node">
<title>Node12</title>
<g id="a_Node000012"><a xlink:href="memory.html" target="_top" xlink:title=" ">
<polygon fill="white" stroke="#666666" points="284,-74 226,-74 226,-55 284,-55 284,-74"/>
<text text-anchor="middle" x="255" y="-62" font-family="FreeSans" font-size="10.00">memory</text>
</a>
</g>
</g>
<!-- Node10&#45;&gt;Node12 -->
<g id="edge11_Node000010_Node000012" class="edge">
<title>Node10&#45;&gt;Node12</title>
<g id="a_edge11_Node000010_Node000012"><a xlink:title=" ">
<path fill="none" stroke="#63b8ff" d="M255,-109.75C255,-102.8 255,-92.85 255,-84.13"/>
<polygon fill="#63b8ff" stroke="#63b8ff" points="258.5,-84.09 255,-74.09 251.5,-84.09 258.5,-84.09"/>
</a>
</g>
</g>
<!-- Node13 -->
<g id="Node000013" class="node">
<title>Node13</title>
<g id="a_Node000013"><a xlink:title=" ">
<polygon fill="#e0e0e0" stroke="#999999" points="376,-74 320,-74 320,-55 376,-55 376,-74"/>
<text text-anchor="middle" x="348" y="-62" font-family="FreeSans" font-size="10.00">sstream</text>
</a>
</g>
</g>
<!-- Node10&#45;&gt;Node13 -->
<g id="edge13_Node000010_Node000013" class="edge">
<title>Node10&#45;&gt;Node13</title>
<g id="a_edge13_Node000010_Node000013"><a xlink:title=" ">
<path fill="none" stroke="#63b8ff" d="M269.94,-109.98C284.5,-101.69 306.87,-88.94 323.93,-79.22"/>
<polygon fill="#63b8ff" stroke="#63b8ff" points="325.83,-82.16 332.79,-74.17 322.36,-76.08 325.83,-82.16"/>
</a>
</g>
</g>
<!-- Node14 -->
<g id="Node000014" class="node">
<title>Node14</title>
<g id="a_Node000014"><a xlink:title=" ">
<polygon fill="#e0e0e0" stroke="#999999" points="459.5,-74 394.5,-74 394.5,-55 459.5,-55 459.5,-74"/>
<text text-anchor="middle" x="427" y="-62" font-family="FreeSans" font-size="10.00">stdexcept</text>
</a>
</g>
</g>
<!-- Node10&#45;&gt;Node14 -->
<g id="edge14_Node000010_Node000014" class="edge">
<title>Node10&#45;&gt;Node14</title>
<g id="a_edge14_Node000010_Node000014"><a xlink:title=" ">
<path fill="none" stroke="#63b8ff" d="M282.63,-109.98C311.51,-101.09 357.01,-87.07 389.2,-77.15"/>
<polygon fill="#63b8ff" stroke="#63b8ff" points="390.62,-80.37 399.15,-74.08 388.56,-73.68 390.62,-80.37"/>
</a>
</g>
</g>
<!-- Node15 -->
<g id="Node000015" class="node">
<title>Node15</title>
<g id="a_Node000015"><a xlink:href="backtrace_8h.html" target="_top" xlink:title=" ">
<polygon fill="white" stroke="#666666" points="624,-74 478,-74 478,-55 624,-55 624,-74"/>
<text text-anchor="middle" x="551" y="-62" font-family="FreeSans" font-size="10.00">mpqc/util/core/backtrace.h</text>
</a>
</g>
</g>
<!-- Node10&#45;&gt;Node15 -->
<g id="edge16_Node000010_Node000015" class="edge">
<title>Node10&#45;&gt;Node15</title>
<g id="a_edge16_Node000010_Node000015"><a xlink:title=" ">
<path fill="none" stroke="#63b8ff" d="M302.56,-109.98C354.4,-100.7 437.39,-85.84 493.01,-75.88"/>
<polygon fill="#63b8ff" stroke="#63b8ff" points="493.84,-79.29 503.07,-74.08 492.61,-72.4 493.84,-79.29"/>
</a>
</g>
</g>
<!-- Node12&#45;&gt;Node12 -->
<g id="edge12_Node000012_Node000012" class="edge">
<title>Node12&#45;&gt;Node12</title>
<g id="a_edge12_Node000012_Node000012"><a xlink:title=" ">
<path fill="none" stroke="#63b8ff" d="M277.24,-74.07C290.06,-76.02 302,-72.83 302,-64.5 302,-58.45 295.7,-55.11 287.34,-54.48"/>
<polygon fill="#63b8ff" stroke="#63b8ff" points="287.08,-50.99 277.24,-54.93 287.39,-57.98 287.08,-50.99"/>
</a>
</g>
</g>
<!-- Node15&#45;&gt;Node6 -->
<g id="edge18_Node000015_Node000006" class="edge">
<title>Node15&#45;&gt;Node6</title>
<g id="a_edge18_Node000015_Node000006"><a xlink:title=" ">
<path fill="none" stroke="#63b8ff" d="M482.72,-54.98C390.32,-43.46 229.04,-23.35 159.49,-14.68"/>
<polygon fill="#63b8ff" stroke="#63b8ff" points="159.88,-11.2 149.53,-13.43 159.02,-18.14 159.88,-11.2"/>
</a>
</g>
</g>
<!-- Node16 -->
<g id="Node000016" class="node">
<title>Node16</title>
<g id="a_Node000016"><a xlink:title=" ">
<polygon fill="#e0e0e0" stroke="#999999" points="573,-19 529,-19 529,0 573,0 573,-19"/>
<text text-anchor="middle" x="551" y="-7" font-family="FreeSans" font-size="10.00">string</text>
</a>
</g>
</g>
<!-- Node15&#45;&gt;Node16 -->
<g id="edge17_Node000015_Node000016" class="edge">
<title>Node15&#45;&gt;Node16</title>
<g id="a_edge17_Node000015_Node000016"><a xlink:title=" ">
<path fill="none" stroke="#63b8ff" d="M551,-54.75C551,-47.8 551,-37.85 551,-29.13"/>
<polygon fill="#63b8ff" stroke="#63b8ff" points="554.5,-29.09 551,-19.09 547.5,-29.09 554.5,-29.09"/>
</a>
</g>
</g>
<!-- Node17&#45;&gt;Node2 -->
<g id="edge20_Node000017_Node000002" class="edge">
<title>Node17&#45;&gt;Node2</title>
<g id="a_edge20_Node000017_Node000002"><a xlink:title=" ">
<path fill="none" stroke="#63b8ff" d="M254.22,-417.84C237.03,-395.28 203.3,-350.98 182.89,-324.18"/>
<polygon fill="#63b8ff" stroke="#63b8ff" points="185.61,-321.98 176.77,-316.14 180.04,-326.22 185.61,-321.98"/>
</a>
</g>
</g>
<!-- Node17&#45;&gt;Node18 -->
<g id="edge21_Node000017_Node000018" class="edge">
<title>Node17&#45;&gt;Node18</title>
<g id="a_edge21_Node000017_Node000018"><a xlink:title=" ">
<path fill="none" stroke="#63b8ff" d="M285.86,-417.8C298.76,-409.01 315.51,-397.61 329.73,-387.93"/>
<polygon fill="#63b8ff" stroke="#63b8ff" points="331.9,-390.69 338.2,-382.16 327.96,-384.9 331.9,-390.69"/>
</a>
</g>
</g>
<!-- Node18&#45;&gt;Node2 -->
<g id="edge36_Node000018_Node000002" class="edge">
<title>Node18&#45;&gt;Node2</title>
<g id="a_edge36_Node000018_Node000002"><a xlink:title=" ">
<path fill="none" stroke="#63b8ff" d="M316.65,-351.95C287.61,-342.33 248.9,-329.49 217.99,-319.24"/>
<polygon fill="#63b8ff" stroke="#63b8ff" points="218.85,-315.84 208.26,-316.01 216.65,-322.48 218.85,-315.84"/>
</a>
</g>
</g>
<!-- Node18&#45;&gt;Node3 -->
<g id="edge22_Node000018_Node000003" class="edge">
<title>Node18&#45;&gt;Node3</title>
<g id="a_edge22_Node000018_Node000003"><a xlink:title=" ">
<path fill="none" stroke="#63b8ff" d="M354.76,-351.72C348.01,-329.02 334.85,-284.72 327.42,-259.75"/>
<polygon fill="#63b8ff" stroke="#63b8ff" points="330.75,-258.66 324.55,-250.07 324.04,-260.65 330.75,-258.66"/>
</a>
</g>
</g>
<!-- Node19 -->
<g id="Node000019" class="node">
<title>Node19</title>
<g id="a_Node000019"><a xlink:href="eigen_8h.html" target="_top" xlink:title=" ">
<polygon fill="white" stroke="#666666" points="558,-316 442,-316 442,-286 558,-286 558,-316"/>
<text text-anchor="start" x="450" y="-304" font-family="FreeSans" font-size="10.00">mpqc/math/external</text>
<text text-anchor="middle" x="500" y="-293" font-family="FreeSans" font-size="10.00">/eigen/eigen.h</text>
</a>
</g>
</g>
<!-- Node18&#45;&gt;Node19 -->
<g id="edge23_Node000018_Node000019" class="edge">
<title>Node18&#45;&gt;Node19</title>
<g id="a_edge23_Node000018_Node000019"><a xlink:title=" ">
<path fill="none" stroke="#63b8ff" d="M389.94,-351.95C410.51,-342.62 437.73,-330.27 459.95,-320.18"/>
<polygon fill="#63b8ff" stroke="#63b8ff" points="461.47,-323.33 469.13,-316.01 458.58,-316.96 461.47,-323.33"/>
</a>
</g>
</g>
<!-- Node29 -->
<g id="Node000029" class="node">
<title>Node29</title>
<g id="a_Node000029"><a xlink:title=" ">
<polygon fill="#e0e0e0" stroke="#999999" points="628,-310.5 576,-310.5 576,-291.5 628,-291.5 628,-310.5"/>
<text text-anchor="middle" x="602" y="-298.5" font-family="FreeSans" font-size="10.00">blas.hh</text>
</a>
</g>
</g>
<!-- Node18&#45;&gt;Node29 -->
<g id="edge37_Node000018_Node000029" class="edge">
<title>Node18&#45;&gt;Node29</title>
<g id="a_edge37_Node000018_Node000029"><a xlink:title=" ">
<path fill="none" stroke="#63b8ff" d="M428.55,-351.92C469.29,-343.02 521.52,-330.48 567,-316 568.87,-315.4 570.78,-314.76 572.7,-314.08"/>
<polygon fill="#63b8ff" stroke="#63b8ff" points="574.07,-317.3 582.19,-310.5 571.6,-310.75 574.07,-317.3"/>
</a>
</g>
</g>
<!-- Node19&#45;&gt;Node8 -->
<g id="edge32_Node000019_Node000008" class="edge">
<title>Node19&#45;&gt;Node8</title>
<g id="a_edge32_Node000019_Node000008"><a xlink:title=" ">
<path fill="none" stroke="#63b8ff" d="M558.07,-287.66C561.08,-287.08 564.08,-286.52 567,-286 783.13,-247.24 1195.11,-326.18 1046,-165 1012.51,-128.8 688.09,-121.98 543.7,-120.75"/>
<polygon fill="#63b8ff" stroke="#63b8ff" points="543.65,-117.25 533.63,-120.67 543.6,-124.25 543.65,-117.25"/>
</a>
</g>
</g>
<!-- Node20 -->
<g id="Node000020" class="node">
<title>Node20</title>
<g id="a_Node000020"><a xlink:title=" ">
<polygon fill="#e0e0e0" stroke="#999999" points="630,-250 528,-250 528,-231 630,-231 630,-250"/>
<text text-anchor="middle" x="579" y="-238" font-family="FreeSans" font-size="10.00">madness/config.h</text>
</a>
</g>
</g>
<!-- Node19&#45;&gt;Node20 -->
<g id="edge24_Node000019_Node000020" class="edge">
<title>Node19&#45;&gt;Node20</title>
<g id="a_edge24_Node000019_Node000020"><a xlink:title=" ">
<path fill="none" stroke="#63b8ff" d="M519.12,-285.84C531.18,-276.91 546.71,-265.41 558.94,-256.35"/>
<polygon fill="#63b8ff" stroke="#63b8ff" points="561.21,-259.03 567.16,-250.27 557.04,-253.4 561.21,-259.03"/>
</a>
</g>
</g>
<!-- Node21 -->
<g id="Node000021" class="node">
<title>Node21</title>
<g id="a_Node000021"><a xlink:href="complex_8h.html" target="_top" xlink:title=" ">
<polygon fill="white" stroke="#666666" points="798,-250 648,-250 648,-231 798,-231 798,-250"/>
<text text-anchor="middle" x="723" y="-238" font-family="FreeSans" font-size="10.00">mpqc/math/core/complex.h</text>
</a>
</g>
</g>
<!-- Node19&#45;&gt;Node21 -->
<g id="edge25_Node000019_Node000021" class="edge">
<title>Node19&#45;&gt;Node21</title>
<g id="a_edge25_Node000019_Node000021"><a xlink:title=" ">
<path fill="none" stroke="#63b8ff" d="M553.41,-285.99C592.4,-275.76 644.53,-262.09 680.65,-252.61"/>
<polygon fill="#63b8ff" stroke="#63b8ff" points="681.61,-255.98 690.39,-250.05 679.83,-249.21 681.61,-255.98"/>
</a>
</g>
</g>
<!-- Node27 -->
<g id="Node000027" class="node">
<title>Node27</title>
<g id="a_Node000027"><a xlink:href="math_2external_2eigen_2fwd_8h.html" target="_top" xlink:title=" ">
<polygon fill="white" stroke="#666666" points="484,-195 368,-195 368,-165 484,-165 484,-195"/>
<text text-anchor="start" x="376" y="-183" font-family="FreeSans" font-size="10.00">mpqc/math/external</text>
<text text-anchor="middle" x="426" y="-172" font-family="FreeSans" font-size="10.00">/eigen/fwd.h</text>
</a>
</g>
</g>
<!-- Node19&#45;&gt;Node27 -->
<g id="edge33_Node000019_Node000027" class="edge">
<title>Node19&#45;&gt;Node27</title>
<g id="a_edge33_Node000019_Node000027"><a xlink:title=" ">
<path fill="none" stroke="#63b8ff" d="M498.46,-285.86C496.35,-271.23 491.54,-248.15 481,-231 474.14,-219.83 464.07,-209.66 454.41,-201.44"/>
<polygon fill="#63b8ff" stroke="#63b8ff" points="456.45,-198.59 446.47,-195.03 452.05,-204.04 456.45,-198.59"/>
</a>
</g>
</g>
<!-- Node28 -->
<g id="Node000028" class="node">
<title>Node28</title>
<g id="a_Node000028"><a xlink:title=" ">
<polygon fill="#e0e0e0" stroke="#999999" points="471.5,-250 394.5,-250 394.5,-231 471.5,-231 471.5,-250"/>
<text text-anchor="middle" x="433" y="-238" font-family="FreeSans" font-size="10.00">Eigen/Dense</text>
</a>
</g>
</g>
<!-- Node19&#45;&gt;Node28 -->
<g id="edge35_Node000019_Node000028" class="edge">
<title>Node19&#45;&gt;Node28</title>
<g id="a_edge35_Node000019_Node000028"><a xlink:title=" ">
<path fill="none" stroke="#63b8ff" d="M483.78,-285.84C473.76,-277.09 460.89,-265.85 450.62,-256.88"/>
<polygon fill="#63b8ff" stroke="#63b8ff" points="452.87,-254.21 443.04,-250.27 448.27,-259.48 452.87,-254.21"/>
</a>
</g>
</g>
<!-- Node21&#45;&gt;Node7 -->
<g id="edge26_Node000021_Node000007" class="edge">
<title>Node21&#45;&gt;Node7</title>
<g id="a_edge26_Node000021_Node000007"><a xlink:title=" ">
<path fill="none" stroke="#63b8ff" d="M647.87,-231.71C574.13,-223.74 458.57,-210.36 359,-195 351.89,-193.9 344.42,-192.64 337.07,-191.33"/>
<polygon fill="#63b8ff" stroke="#63b8ff" points="337.61,-187.88 327.15,-189.53 336.36,-194.76 337.61,-187.88"/>
</a>
</g>
</g>
<!-- Node22 -->
<g id="Node000022" class="node">
<title>Node22</title>
<g id="a_Node000022"><a xlink:title=" ">
<polygon fill="#e0e0e0" stroke="#999999" points="896.5,-189.5 827.5,-189.5 827.5,-170.5 896.5,-170.5 896.5,-189.5"/>
<text text-anchor="middle" x="862" y="-177.5" font-family="FreeSans" font-size="10.00">Eigen/Core</text>
</a>
</g>
</g>
<!-- Node21&#45;&gt;Node22 -->
<g id="edge27_Node000021_Node000022" class="edge">
<title>Node21&#45;&gt;Node22</title>
<g id="a_edge27_Node000021_Node000022"><a xlink:title=" ">
<path fill="none" stroke="#63b8ff" d="M743.21,-230.99C766.68,-221.12 805.61,-204.73 832.46,-193.43"/>
<polygon fill="#63b8ff" stroke="#63b8ff" points="833.9,-196.62 841.76,-189.52 831.19,-190.17 833.9,-196.62"/>
</a>
</g>
</g>
<!-- Node23 -->
<g id="Node000023" class="node">
<title>Node23</title>
<g id="a_Node000023"><a xlink:title=" ">
<polygon fill="#e0e0e0" stroke="#999999" points="1037,-195 915,-195 915,-165 1037,-165 1037,-195"/>
<text text-anchor="start" x="923" y="-183" font-family="FreeSans" font-size="10.00">boost/container/small</text>
<text text-anchor="middle" x="976" y="-172" font-family="FreeSans" font-size="10.00">_vector.hpp</text>
</a>
</g>
</g>
<!-- Node21&#45;&gt;Node23 -->
<g id="edge28_Node000021_Node000023" class="edge">
<title>Node21&#45;&gt;Node23</title>
<g id="a_edge28_Node000021_Node000023"><a xlink:title=" ">
<path fill="none" stroke="#63b8ff" d="M759.79,-230.99C797.79,-222.21 858.04,-208.27 905.3,-197.35"/>
<polygon fill="#63b8ff" stroke="#63b8ff" points="906.22,-200.73 915.18,-195.06 904.64,-193.91 906.22,-200.73"/>
</a>
</g>
</g>
<!-- Node24 -->
<g id="Node000024" class="node">
<title>Node24</title>
<g id="a_Node000024"><a xlink:title=" ">
<polygon fill="#e0e0e0" stroke="#999999" points="645.5,-195 502.5,-195 502.5,-165 645.5,-165 645.5,-195"/>
<text text-anchor="start" x="510.5" y="-183" font-family="FreeSans" font-size="10.00">boost/numeric/conversion</text>
<text text-anchor="middle" x="574" y="-172" font-family="FreeSans" font-size="10.00">/cast.hpp</text>
</a>
</g>
</g>
<!-- Node21&#45;&gt;Node24 -->
<g id="edge29_Node000021_Node000024" class="edge">
<title>Node21&#45;&gt;Node24</title>
<g id="a_edge29_Node000021_Node000024"><a xlink:title=" ">
<path fill="none" stroke="#63b8ff" d="M701.33,-230.99C679.89,-222.57 646.42,-209.43 619.17,-198.73"/>
<polygon fill="#63b8ff" stroke="#63b8ff" points="620.41,-195.46 609.82,-195.06 617.85,-201.98 620.41,-195.46"/>
</a>
</g>
</g>
<!-- Node25 -->
<g id="Node000025" class="node">
<title>Node25</title>
<g id="a_Node000025"><a xlink:title=" ">
<polygon fill="#e0e0e0" stroke="#999999" points="722.5,-189.5 663.5,-189.5 663.5,-170.5 722.5,-170.5 722.5,-189.5"/>
<text text-anchor="middle" x="693" y="-177.5" font-family="FreeSans" font-size="10.00">complex</text>
</a>
</g>
</g>
<!-- Node21&#45;&gt;Node25 -->
<g id="edge30_Node000021_Node000025" class="edge">
<title>Node21&#45;&gt;Node25</title>
<g id="a_edge30_Node000021_Node000025"><a xlink:title=" ">
<path fill="none" stroke="#63b8ff" d="M718.57,-230.87C714.23,-222.4 707.48,-209.24 702.01,-198.57"/>
<polygon fill="#63b8ff" stroke="#63b8ff" points="705.12,-196.97 697.44,-189.67 698.89,-200.16 705.12,-196.97"/>
</a>
</g>
</g>
<!-- Node26 -->
<g id="Node000026" class="node">
<title>Node26</title>
<g id="a_Node000026"><a xlink:title=" ">
<polygon fill="#e0e0e0" stroke="#999999" points="809.5,-189.5 740.5,-189.5 740.5,-170.5 809.5,-170.5 809.5,-189.5"/>
<text text-anchor="middle" x="775" y="-177.5" font-family="FreeSans" font-size="10.00">type_traits</text>
</a>
</g>
</g>
<!-- Node21&#45;&gt;Node26 -->
<g id="edge31_Node000021_Node000026" class="edge">
<title>Node21&#45;&gt;Node26</title>
<g id="a_edge31_Node000021_Node000026"><a xlink:title=" ">
<path fill="none" stroke="#63b8ff" d="M730.67,-230.87C738.51,-222.05 750.86,-208.16 760.54,-197.27"/>
<polygon fill="#63b8ff" stroke="#63b8ff" points="763.27,-199.47 767.3,-189.67 758.04,-194.82 763.27,-199.47"/>
</a>
</g>
</g>
<!-- Node27&#45;&gt;Node8 -->
<g id="edge34_Node000027_Node000008" class="edge">
<title>Node27&#45;&gt;Node8</title>
<g id="a_edge34_Node000027_Node000008"><a xlink:title=" ">
<path fill="none" stroke="#63b8ff" d="M437.86,-164.84C444.9,-156.43 453.86,-145.74 461.21,-136.96"/>
<polygon fill="#63b8ff" stroke="#63b8ff" points="463.92,-139.18 467.66,-129.27 458.55,-134.68 463.92,-139.18"/>
</a>
</g>
</g>
</g>
</svg>

<g id="navigator" transform="translate(0 0)" fill="#404254">
  <rect fill="#f2f5e9" fill-opacity="0.5" stroke="#606060" stroke-width=".5" x="0" y="0" width="60" height="60"/>
  <use id="zoomplus" xlink:href="#zoomPlus" x="17" y="9" onmousedown="handleZoom(evt,'in')"/>
  <use id="zoomminus" xlink:href="#zoomMin" x="42" y="9" onmousedown="handleZoom(evt,'out')"/>
  <use id="reset" xlink:href="#resetDef" x="30" y="36" onmousedown="handleReset()"/>
   <use id="arrowup" xlink:href="#arrowUp" x="0" y="0" onmousedown="handlePan(0,-1)"/>
  <use id="arrowright" xlink:href="#arrowRight" x="0" y="0" onmousedown="handlePan(1,0)"/>
  <use id="arrowdown" xlink:href="#arrowDown" x="0" y="0" onmousedown="handlePan(0,1)"/>
  <use id="arrowleft" xlink:href="#arrowLeft" x="0" y="0" onmousedown="handlePan(-1,0)"/>
</g>
<svg viewBox="0 0 15 15" width="100%" height="30px" preserveAspectRatio="xMaxYMin meet">
 <g id="arrow_out" transform="scale(0.3 0.3)">
  <a xlink:href="decomposed__tensor__gemm__helper_8h__incl_org.svg" target="_base">
   <rect id="button" ry="5" rx="5" y="6" x="6" height="38" width="38"
        fill="#f2f5e9" fill-opacity="0.5" stroke="#606060" stroke-width="1.0"/>
   <path id="arrow"
     d="M 11.500037,31.436501 C 11.940474,20.09759 22.043105,11.32322 32.158766,21.979434 L 37.068811,17.246167 C 37.068811,17.246167 37.088388,32 37.088388,32 L 22.160133,31.978069 C 22.160133,31.978069 26.997745,27.140456 26.997745,27.140456 C 18.528582,18.264221 13.291696,25.230495 11.500037,31.436501 z"
     style="fill:#404040;"/>
  </a>
 </g>
</svg>

<style type='text/css'>
<![CDATA[
[data-mouse-over-selected='false'] { opacity: 0.7; }
[data-mouse-over-selected='true']  { opacity: 1.0; }
]]>
</style>
<script type="application/ecmascript"><![CDATA[
document.addEventListener('DOMContentLoaded', (event) => {
  highlightEdges();
  highlightAdjacentNodes();
});
]]></script>
</svg>
