<?xml version="1.0" encoding="UTF-8" standalone="no"?>
<!DOCTYPE svg PUBLIC "-//W3C//DTD SVG 1.1//EN"
 "http://www.w3.org/Graphics/SVG/1.1/DTD/svg11.dtd">
<!-- Generated by graphviz version 2.43.0 (0)
 -->
<!-- Title: mpqc/math/tensor/clr/decomposed_tensor_unary.h Pages: 1 -->
<svg width="1086pt" height="456pt"
 viewBox="0.00 0.00 1086.39 456.00" xmlns="http://www.w3.org/2000/svg" xmlns:xlink="http://www.w3.org/1999/xlink">
<g id="graph0" class="graph" transform="scale(1 1) rotate(0) translate(4 452)">
<title>mpqc/math/tensor/clr/decomposed_tensor_unary.h</title>
<!-- Node1 -->
<g id="Node000001" class="node">
<title>Node1</title>
<g id="a_Node000001"><a xlink:title=" ">
<polygon fill="#999999" stroke="#666666" points="341,-448 183,-448 183,-418 341,-418 341,-448"/>
<text text-anchor="start" x="191" y="-436" font-family="FreeSans" font-size="10.00">mpqc/math/tensor/clr</text>
<text text-anchor="middle" x="262" y="-425" font-family="FreeSans" font-size="10.00">/decomposed_tensor_unary.h</text>
</a>
</g>
</g>
<!-- Node2 -->
<g id="Node000002" class="node">
<title>Node2</title>
<g id="a_Node000002"><a xlink:href="decomposed__tensor_8h.html" target="_top" xlink:title=" ">
<polygon fill="white" stroke="#666666" points="265,-316 139,-316 139,-286 265,-286 265,-316"/>
<text text-anchor="start" x="147" y="-304" font-family="FreeSans" font-size="10.00">mpqc/math/tensor/clr</text>
<text text-anchor="middle" x="202" y="-293" font-family="FreeSans" font-size="10.00">/decomposed_tensor.h</text>
</a>
</g>
</g>
<!-- Node1&#45;&gt;Node2 -->
<g id="edge1_Node000001_Node000002" class="edge">
<title>Node1&#45;&gt;Node2</title>
<g id="a_edge1_Node000001_Node000002"><a xlink:title=" ">
<path fill="none" stroke="#63b8ff" d="M250.73,-417.79C243.49,-408.13 234.28,-394.82 228,-382 219.14,-363.93 212.29,-342.13 207.84,-325.85"/>
<polygon fill="#63b8ff" stroke="#63b8ff" points="211.2,-324.84 205.28,-316.05 204.42,-326.61 211.2,-324.84"/>
</a>
</g>
</g>
<!-- Node17 -->
<g id="Node000017" class="node">
<title>Node17</title>
<g id="a_Node000017"><a xlink:href="decomposed__tensor__algebra_8h.html" target="_top" xlink:title=" ">
<polygon fill="white" stroke="#666666" points="406.5,-382 237.5,-382 237.5,-352 406.5,-352 406.5,-382"/>
<text text-anchor="start" x="245.5" y="-370" font-family="FreeSans" font-size="10.00">mpqc/math/tensor/clr</text>
<text text-anchor="middle" x="322" y="-359" font-family="FreeSans" font-size="10.00">/decomposed_tensor_algebra.h</text>
</a>
</g>
</g>
<!-- Node1&#45;&gt;Node17 -->
<g id="edge19_Node000001_Node000017" class="edge">
<title>Node1&#45;&gt;Node17</title>
<g id="a_edge19_Node000001_Node000017"><a xlink:title=" ">
<path fill="none" stroke="#63b8ff" d="M275.32,-417.8C283.08,-409.51 293.04,-398.89 301.76,-389.59"/>
<polygon fill="#63b8ff" stroke="#63b8ff" points="304.44,-391.85 308.72,-382.16 299.33,-387.07 304.44,-391.85"/>
</a>
</g>
</g>
<!-- Node3 -->
<g id="Node000003" class="node">
<title>Node3</title>
<g id="a_Node000003"><a xlink:title=" ">
<polygon fill="#e0e0e0" stroke="#999999" points="376.5,-250 267.5,-250 267.5,-231 376.5,-231 376.5,-250"/>
<text text-anchor="middle" x="322" y="-238" font-family="FreeSans" font-size="10.00">TiledArray/tensor.h</text>
</a>
</g>
</g>
<!-- Node2&#45;&gt;Node3 -->
<g id="edge2_Node000002_Node000003" class="edge">
<title>Node2&#45;&gt;Node3</title>
<g id="a_edge2_Node000002_Node000003"><a xlink:title=" ">
<path fill="none" stroke="#63b8ff" d="M230.74,-285.99C250.32,-276.45 276.05,-263.9 295.2,-254.57"/>
<polygon fill="#63b8ff" stroke="#63b8ff" points="296.82,-257.67 304.28,-250.14 293.76,-251.38 296.82,-257.67"/>
</a>
</g>
</g>
<!-- Node4 -->
<g id="Node000004" class="node">
<title>Node4</title>
<g id="a_Node000004"><a xlink:title=" ">
<polygon fill="#e0e0e0" stroke="#999999" points="249.5,-250 154.5,-250 154.5,-231 249.5,-231 249.5,-250"/>
<text text-anchor="middle" x="202" y="-238" font-family="FreeSans" font-size="10.00">tiledarray_fwd.h</text>
</a>
</g>
</g>
<!-- Node2&#45;&gt;Node4 -->
<g id="edge3_Node000002_Node000004" class="edge">
<title>Node2&#45;&gt;Node4</title>
<g id="a_edge3_Node000002_Node000004"><a xlink:title=" ">
<path fill="none" stroke="#63b8ff" d="M202,-285.84C202,-278.21 202,-268.7 202,-260.45"/>
<polygon fill="#63b8ff" stroke="#63b8ff" points="205.5,-260.27 202,-250.27 198.5,-260.27 205.5,-260.27"/>
</a>
</g>
</g>
<!-- Node5 -->
<g id="Node000005" class="node">
<title>Node5</title>
<g id="a_Node000005"><a xlink:title=" ">
<polygon fill="#e0e0e0" stroke="#999999" points="60,-250 0,-250 0,-231 60,-231 60,-250"/>
<text text-anchor="middle" x="30" y="-238" font-family="FreeSans" font-size="10.00">iostream</text>
</a>
</g>
</g>
<!-- Node2&#45;&gt;Node5 -->
<g id="edge4_Node000002_Node000005" class="edge">
<title>Node2&#45;&gt;Node5</title>
<g id="a_edge4_Node000002_Node000005"><a xlink:title=" ">
<path fill="none" stroke="#63b8ff" d="M160.8,-285.99C131.5,-276.02 92.58,-262.78 64.83,-253.35"/>
<polygon fill="#63b8ff" stroke="#63b8ff" points="65.74,-249.96 55.15,-250.05 63.49,-256.59 65.74,-249.96"/>
</a>
</g>
</g>
<!-- Node6 -->
<g id="Node000006" class="node">
<title>Node6</title>
<g id="a_Node000006"><a xlink:title=" ">
<polygon fill="#e0e0e0" stroke="#999999" points="149.5,-19 102.5,-19 102.5,0 149.5,0 149.5,-19"/>
<text text-anchor="middle" x="126" y="-7" font-family="FreeSans" font-size="10.00">vector</text>
</a>
</g>
</g>
<!-- Node2&#45;&gt;Node6 -->
<g id="edge5_Node000002_Node000006" class="edge">
<title>Node2&#45;&gt;Node6</title>
<g id="a_edge5_Node000002_Node000006"><a xlink:title=" ">
<path fill="none" stroke="#63b8ff" d="M173.23,-285.87C139.46,-267.01 88,-230.21 88,-181 88,-181 88,-181 88,-118.5 88,-85.02 104.45,-48.84 115.7,-28.01"/>
<polygon fill="#63b8ff" stroke="#63b8ff" points="118.87,-29.53 120.72,-19.1 112.76,-26.1 118.87,-29.53"/>
</a>
</g>
</g>
<!-- Node7 -->
<g id="Node000007" class="node">
<title>Node7</title>
<g id="a_Node000007"><a xlink:href="assert_8h.html" target="_top" xlink:title=" ">
<polygon fill="white" stroke="#666666" points="349.5,-189.5 218.5,-189.5 218.5,-170.5 349.5,-170.5 349.5,-189.5"/>
<text text-anchor="middle" x="284" y="-177.5" font-family="FreeSans" font-size="10.00">mpqc/util/misc/assert.h</text>
</a>
</g>
</g>
<!-- Node2&#45;&gt;Node7 -->
<g id="edge6_Node000002_Node000007" class="edge">
<title>Node2&#45;&gt;Node7</title>
<g id="a_edge6_Node000002_Node000007"><a xlink:title=" ">
<path fill="none" stroke="#63b8ff" d="M176.73,-285.98C155.59,-272.39 130.97,-250.96 145,-231 159.78,-209.98 184.28,-197.75 208.64,-190.66"/>
<polygon fill="#63b8ff" stroke="#63b8ff" points="209.53,-194.04 218.3,-188.1 207.74,-187.27 209.53,-194.04"/>
</a>
</g>
</g>
<!-- Node8 -->
<g id="Node000008" class="node">
<title>Node8</title>
<g id="a_Node000008"><a xlink:title=" ">
<polygon fill="#e0e0e0" stroke="#999999" points="533.5,-129 416.5,-129 416.5,-110 533.5,-110 533.5,-129"/>
<text text-anchor="middle" x="475" y="-117" font-family="FreeSans" font-size="10.00">mpqc/mpqc_config.h</text>
</a>
</g>
</g>
<!-- Node7&#45;&gt;Node8 -->
<g id="edge7_Node000007_Node000008" class="edge">
<title>Node7&#45;&gt;Node8</title>
<g id="a_edge7_Node000007_Node000008"><a xlink:title=" ">
<path fill="none" stroke="#63b8ff" d="M311.77,-170.49C344.87,-160.36 400.34,-143.37 437.29,-132.05"/>
<polygon fill="#63b8ff" stroke="#63b8ff" points="438.66,-135.29 447.19,-129.02 436.61,-128.6 438.66,-135.29"/>
</a>
</g>
</g>
<!-- Node9 -->
<g id="Node000009" class="node">
<title>Node9</title>
<g id="a_Node000009"><a xlink:title=" ">
<polygon fill="#e0e0e0" stroke="#999999" points="398,-129 346,-129 346,-110 398,-110 398,-129"/>
<text text-anchor="middle" x="372" y="-117" font-family="FreeSans" font-size="10.00">cassert</text>
</a>
</g>
</g>
<!-- Node7&#45;&gt;Node9 -->
<g id="edge8_Node000007_Node000009" class="edge">
<title>Node7&#45;&gt;Node9</title>
<g id="a_edge8_Node000007_Node000009"><a xlink:title=" ">
<path fill="none" stroke="#63b8ff" d="M296.98,-170.37C311.02,-161.04 333.63,-146.01 350.36,-134.88"/>
<polygon fill="#63b8ff" stroke="#63b8ff" points="352.57,-137.62 358.96,-129.17 348.7,-131.79 352.57,-137.62"/>
</a>
</g>
</g>
<!-- Node10 -->
<g id="Node000010" class="node">
<title>Node10</title>
<g id="a_Node000010"><a xlink:href="exception_8h.html" target="_top" xlink:title=" ">
<polygon fill="white" stroke="#666666" points="328,-129 182,-129 182,-110 328,-110 328,-129"/>
<text text-anchor="middle" x="255" y="-117" font-family="FreeSans" font-size="10.00">mpqc/util/core/exception.h</text>
</a>
</g>
</g>
<!-- Node7&#45;&gt;Node10 -->
<g id="edge9_Node000007_Node000010" class="edge">
<title>Node7&#45;&gt;Node10</title>
<g id="a_edge9_Node000007_Node000010"><a xlink:title=" ">
<path fill="none" stroke="#63b8ff" d="M279.72,-170.37C275.57,-161.99 269.13,-149.01 263.87,-138.39"/>
<polygon fill="#63b8ff" stroke="#63b8ff" points="266.87,-136.57 259.3,-129.17 260.6,-139.68 266.87,-136.57"/>
</a>
</g>
</g>
<!-- Node10&#45;&gt;Node6 -->
<g id="edge15_Node000010_Node000006" class="edge">
<title>Node10&#45;&gt;Node6</title>
<g id="a_edge15_Node000010_Node000006"><a xlink:title=" ">
<path fill="none" stroke="#63b8ff" d="M210.04,-109.96C187.7,-103.56 161.92,-92.58 145,-74 133.86,-61.77 129.24,-43.25 127.33,-29.36"/>
<polygon fill="#63b8ff" stroke="#63b8ff" points="130.77,-28.62 126.28,-19.03 123.81,-29.33 130.77,-28.62"/>
</a>
</g>
</g>
<!-- Node11 -->
<g id="Node000011" class="node">
<title>Node11</title>
<g id="a_Node000011"><a xlink:title=" ">
<polygon fill="#e0e0e0" stroke="#999999" points="207.5,-74 154.5,-74 154.5,-55 207.5,-55 207.5,-74"/>
<text text-anchor="middle" x="181" y="-62" font-family="FreeSans" font-size="10.00">string.h</text>
</a>
</g>
</g>
<!-- Node10&#45;&gt;Node11 -->
<g id="edge10_Node000010_Node000011" class="edge">
<title>Node10&#45;&gt;Node11</title>
<g id="a_edge10_Node000010_Node000011"><a xlink:title=" ">
<path fill="none" stroke="#63b8ff" d="M243.11,-109.98C231.85,-101.92 214.71,-89.65 201.29,-80.03"/>
<polygon fill="#63b8ff" stroke="#63b8ff" points="203.27,-77.15 193.11,-74.17 199.2,-82.84 203.27,-77.15"/>
</a>
</g>
</g>
<!-- Node12 -->
<g id="Node000012" class="node">
<title>Node12</title>
<g id="a_Node000012"><a xlink:href="memory.html" target="_top" xlink:title=" ">
<polygon fill="white" stroke="#666666" points="284,-74 226,-74 226,-55 284,-55 284,-74"/>
<text text-anchor="middle" x="255" y="-62" font-family="FreeSans" font-size="10.00">memory</text>
</a>
</g>
</g>
<!-- Node10&#45;&gt;Node12 -->
<g id="edge11_Node000010_Node000012" class="edge">
<title>Node10&#45;&gt;Node12</title>
<g id="a_edge11_Node000010_Node000012"><a xlink:title=" ">
<path fill="none" stroke="#63b8ff" d="M255,-109.75C255,-102.8 255,-92.85 255,-84.13"/>
<polygon fill="#63b8ff" stroke="#63b8ff" points="258.5,-84.09 255,-74.09 251.5,-84.09 258.5,-84.09"/>
</a>
</g>
</g>
<!-- Node13 -->
<g id="Node000013" class="node">
<title>Node13</title>
<g id="a_Node000013"><a xlink:title=" ">
<polygon fill="#e0e0e0" stroke="#999999" points="376,-74 320,-74 320,-55 376,-55 376,-74"/>
<text text-anchor="middle" x="348" y="-62" font-family="FreeSans" font-size="10.00">sstream</text>
</a>
</g>
</g>
<!-- Node10&#45;&gt;Node13 -->
<g id="edge13_Node000010_Node000013" class="edge">
<title>Node10&#45;&gt;Node13</title>
<g id="a_edge13_Node000010_Node000013"><a xlink:title=" ">
<path fill="none" stroke="#63b8ff" d="M269.94,-109.98C284.5,-101.69 306.87,-88.94 323.93,-79.22"/>
<polygon fill="#63b8ff" stroke="#63b8ff" points="325.83,-82.16 332.79,-74.17 322.36,-76.08 325.83,-82.16"/>
</a>
</g>
</g>
<!-- Node14 -->
<g id="Node000014" class="node">
<title>Node14</title>
<g id="a_Node000014"><a xlink:title=" ">
<polygon fill="#e0e0e0" stroke="#999999" points="459.5,-74 394.5,-74 394.5,-55 459.5,-55 459.5,-74"/>
<text text-anchor="middle" x="427" y="-62" font-family="FreeSans" font-size="10.00">stdexcept</text>
</a>
</g>
</g>
<!-- Node10&#45;&gt;Node14 -->
<g id="edge14_Node000010_Node000014" class="edge">
<title>Node10&#45;&gt;Node14</title>
<g id="a_edge14_Node000010_Node000014"><a xlink:title=" ">
<path fill="none" stroke="#63b8ff" d="M282.63,-109.98C311.51,-101.09 357.01,-87.07 389.2,-77.15"/>
<polygon fill="#63b8ff" stroke="#63b8ff" points="390.62,-80.37 399.15,-74.08 388.56,-73.68 390.62,-80.37"/>
</a>
</g>
</g>
<!-- Node15 -->
<g id="Node000015" class="node">
<title>Node15</title>
<g id="a_Node000015"><a xlink:href="backtrace_8h.html" target="_top" xlink:title=" ">
<polygon fill="white" stroke="#666666" points="624,-74 478,-74 478,-55 624,-55 624,-74"/>
<text text-anchor="middle" x="551" y="-62" font-family="FreeSans" font-size="10.00">mpqc/util/core/backtrace.h</text>
</a>
</g>
</g>
<!-- Node10&#45;&gt;Node15 -->
<g id="edge16_Node000010_Node000015" class="edge">
<title>Node10&#45;&gt;Node15</title>
<g id="a_edge16_Node000010_Node000015"><a xlink:title=" ">
<path fill="none" stroke="#63b8ff" d="M302.56,-109.98C354.4,-100.7 437.39,-85.84 493.01,-75.88"/>
<polygon fill="#63b8ff" stroke="#63b8ff" points="493.84,-79.29 503.07,-74.08 492.61,-72.4 493.84,-79.29"/>
</a>
</g>
</g>
<!-- Node12&#45;&gt;Node12 -->
<g id="edge12_Node000012_Node000012" class="edge">
<title>Node12&#45;&gt;Node12</title>
<g id="a_edge12_Node000012_Node000012"><a xlink:title=" ">
<path fill="none" stroke="#63b8ff" d="M277.24,-74.07C290.06,-76.02 302,-72.83 302,-64.5 302,-58.45 295.7,-55.11 287.34,-54.48"/>
<polygon fill="#63b8ff" stroke="#63b8ff" points="287.08,-50.99 277.24,-54.93 287.39,-57.98 287.08,-50.99"/>
</a>
</g>
</g>
<!-- Node15&#45;&gt;Node6 -->
<g id="edge18_Node000015_Node000006" class="edge">
<title>Node15&#45;&gt;Node6</title>
<g id="a_edge18_Node000015_Node000006"><a xlink:title=" ">
<path fill="none" stroke="#63b8ff" d="M482.72,-54.98C390.32,-43.46 229.04,-23.35 159.49,-14.68"/>
<polygon fill="#63b8ff" stroke="#63b8ff" points="159.88,-11.2 149.53,-13.43 159.02,-18.14 159.88,-11.2"/>
</a>
</g>
</g>
<!-- Node16 -->
<g id="Node000016" class="node">
<title>Node16</title>
<g id="a_Node000016"><a xlink:title=" ">
<polygon fill="#e0e0e0" stroke="#999999" points="573,-19 529,-19 529,0 573,0 573,-19"/>
<text text-anchor="middle" x="551" y="-7" font-family="FreeSans" font-size="10.00">string</text>
</a>
</g>
</g>
<!-- Node15&#45;&gt;Node16 -->
<g id="edge17_Node000015_Node000016" class="edge">
<title>Node15&#45;&gt;Node16</title>
<g id="a_edge17_Node000015_Node000016"><a xlink:title=" ">
<path fill="none" stroke="#63b8ff" d="M551,-54.75C551,-47.8 551,-37.85 551,-29.13"/>
<polygon fill="#63b8ff" stroke="#63b8ff" points="554.5,-29.09 551,-19.09 547.5,-29.09 554.5,-29.09"/>
</a>
</g>
</g>
<!-- Node17&#45;&gt;Node2 -->
<g id="edge34_Node000017_Node000002" class="edge">
<title>Node17&#45;&gt;Node2</title>
<g id="a_edge34_Node000017_Node000002"><a xlink:title=" ">
<path fill="none" stroke="#63b8ff" d="M295.67,-351.95C278.47,-342.78 255.82,-330.71 237.11,-320.72"/>
<polygon fill="#63b8ff" stroke="#63b8ff" points="238.74,-317.63 228.27,-316.01 235.45,-323.81 238.74,-317.63"/>
</a>
</g>
</g>
<!-- Node17&#45;&gt;Node3 -->
<g id="edge20_Node000017_Node000003" class="edge">
<title>Node17&#45;&gt;Node3</title>
<g id="a_edge20_Node000017_Node000003"><a xlink:title=" ">
<path fill="none" stroke="#63b8ff" d="M322,-351.72C322,-329.12 322,-285.12 322,-260.09"/>
<polygon fill="#63b8ff" stroke="#63b8ff" points="325.5,-260.07 322,-250.07 318.5,-260.07 325.5,-260.07"/>
</a>
</g>
</g>
<!-- Node18 -->
<g id="Node000018" class="node">
<title>Node18</title>
<g id="a_Node000018"><a xlink:href="eigen_8h.html" target="_top" xlink:title=" ">
<polygon fill="white" stroke="#666666" points="558,-316 442,-316 442,-286 558,-286 558,-316"/>
<text text-anchor="start" x="450" y="-304" font-family="FreeSans" font-size="10.00">mpqc/math/external</text>
<text text-anchor="middle" x="500" y="-293" font-family="FreeSans" font-size="10.00">/eigen/eigen.h</text>
</a>
</g>
</g>
<!-- Node17&#45;&gt;Node18 -->
<g id="edge21_Node000017_Node000018" class="edge">
<title>Node17&#45;&gt;Node18</title>
<g id="a_edge21_Node000017_Node000018"><a xlink:title=" ">
<path fill="none" stroke="#63b8ff" d="M361.06,-351.95C387.61,-342.41 422.92,-329.71 451.3,-319.51"/>
<polygon fill="#63b8ff" stroke="#63b8ff" points="452.8,-322.69 461.03,-316.01 450.43,-316.1 452.8,-322.69"/>
</a>
</g>
</g>
<!-- Node28 -->
<g id="Node000028" class="node">
<title>Node28</title>
<g id="a_Node000028"><a xlink:title=" ">
<polygon fill="#e0e0e0" stroke="#999999" points="628,-310.5 576,-310.5 576,-291.5 628,-291.5 628,-310.5"/>
<text text-anchor="middle" x="602" y="-298.5" font-family="FreeSans" font-size="10.00">blas.hh</text>
</a>
</g>
</g>
<!-- Node17&#45;&gt;Node28 -->
<g id="edge35_Node000017_Node000028" class="edge">
<title>Node17&#45;&gt;Node28</title>
<g id="a_edge35_Node000017_Node000028"><a xlink:title=" ">
<path fill="none" stroke="#63b8ff" d="M406.55,-352.6C454.19,-344.1 514.5,-331.72 567,-316 568.88,-315.44 570.8,-314.81 572.73,-314.15"/>
<polygon fill="#63b8ff" stroke="#63b8ff" points="574.07,-317.39 582.23,-310.62 571.64,-310.82 574.07,-317.39"/>
</a>
</g>
</g>
<!-- Node18&#45;&gt;Node8 -->
<g id="edge30_Node000018_Node000008" class="edge">
<title>Node18&#45;&gt;Node8</title>
<g id="a_edge30_Node000018_Node000008"><a xlink:title=" ">
<path fill="none" stroke="#63b8ff" d="M558.07,-287.66C561.08,-287.08 564.08,-286.52 567,-286 783.13,-247.24 1195.11,-326.18 1046,-165 1012.51,-128.8 688.09,-121.98 543.7,-120.75"/>
<polygon fill="#63b8ff" stroke="#63b8ff" points="543.65,-117.25 533.63,-120.67 543.6,-124.25 543.65,-117.25"/>
</a>
</g>
</g>
<!-- Node19 -->
<g id="Node000019" class="node">
<title>Node19</title>
<g id="a_Node000019"><a xlink:title=" ">
<polygon fill="#e0e0e0" stroke="#999999" points="630,-250 528,-250 528,-231 630,-231 630,-250"/>
<text text-anchor="middle" x="579" y="-238" font-family="FreeSans" font-size="10.00">madness/config.h</text>
</a>
</g>
</g>
<!-- Node18&#45;&gt;Node19 -->
<g id="edge22_Node000018_Node000019" class="edge">
<title>Node18&#45;&gt;Node19</title>
<g id="a_edge22_Node000018_Node000019"><a xlink:title=" ">
<path fill="none" stroke="#63b8ff" d="M519.12,-285.84C531.18,-276.91 546.71,-265.41 558.94,-256.35"/>
<polygon fill="#63b8ff" stroke="#63b8ff" points="561.21,-259.03 567.16,-250.27 557.04,-253.4 561.21,-259.03"/>
</a>
</g>
</g>
<!-- Node20 -->
<g id="Node000020" class="node">
<title>Node20</title>
<g id="a_Node000020"><a xlink:href="complex_8h.html" target="_top" xlink:title=" ">
<polygon fill="white" stroke="#666666" points="798,-250 648,-250 648,-231 798,-231 798,-250"/>
<text text-anchor="middle" x="723" y="-238" font-family="FreeSans" font-size="10.00">mpqc/math/core/complex.h</text>
</a>
</g>
</g>
<!-- Node18&#45;&gt;Node20 -->
<g id="edge23_Node000018_Node000020" class="edge">
<title>Node18&#45;&gt;Node20</title>
<g id="a_edge23_Node000018_Node000020"><a xlink:title=" ">
<path fill="none" stroke="#63b8ff" d="M553.41,-285.99C592.4,-275.76 644.53,-262.09 680.65,-252.61"/>
<polygon fill="#63b8ff" stroke="#63b8ff" points="681.61,-255.98 690.39,-250.05 679.83,-249.21 681.61,-255.98"/>
</a>
</g>
</g>
<!-- Node26 -->
<g id="Node000026" class="node">
<title>Node26</title>
<g id="a_Node000026"><a xlink:href="math_2external_2eigen_2fwd_8h.html" target="_top" xlink:title=" ">
<polygon fill="white" stroke="#666666" points="484,-195 368,-195 368,-165 484,-165 484,-195"/>
<text text-anchor="start" x="376" y="-183" font-family="FreeSans" font-size="10.00">mpqc/math/external</text>
<text text-anchor="middle" x="426" y="-172" font-family="FreeSans" font-size="10.00">/eigen/fwd.h</text>
</a>
</g>
</g>
<!-- Node18&#45;&gt;Node26 -->
<g id="edge31_Node000018_Node000026" class="edge">
<title>Node18&#45;&gt;Node26</title>
<g id="a_edge31_Node000018_Node000026"><a xlink:title=" ">
<path fill="none" stroke="#63b8ff" d="M498.46,-285.86C496.35,-271.23 491.54,-248.15 481,-231 474.14,-219.83 464.07,-209.66 454.41,-201.44"/>
<polygon fill="#63b8ff" stroke="#63b8ff" points="456.45,-198.59 446.47,-195.03 452.05,-204.04 456.45,-198.59"/>
</a>
</g>
</g>
<!-- Node27 -->
<g id="Node000027" class="node">
<title>Node27</title>
<g id="a_Node000027"><a xlink:title=" ">
<polygon fill="#e0e0e0" stroke="#999999" points="471.5,-250 394.5,-250 394.5,-231 471.5,-231 471.5,-250"/>
<text text-anchor="middle" x="433" y="-238" font-family="FreeSans" font-size="10.00">Eigen/Dense</text>
</a>
</g>
</g>
<!-- Node18&#45;&gt;Node27 -->
<g id="edge33_Node000018_Node000027" class="edge">
<title>Node18&#45;&gt;Node27</title>
<g id="a_edge33_Node000018_Node000027"><a xlink:title=" ">
<path fill="none" stroke="#63b8ff" d="M483.78,-285.84C473.76,-277.09 460.89,-265.85 450.62,-256.88"/>
<polygon fill="#63b8ff" stroke="#63b8ff" points="452.87,-254.21 443.04,-250.27 448.27,-259.48 452.87,-254.21"/>
</a>
</g>
</g>
<!-- Node20&#45;&gt;Node7 -->
<g id="edge24_Node000020_Node000007" class="edge">
<title>Node20&#45;&gt;Node7</title>
<g id="a_edge24_Node000020_Node000007"><a xlink:title=" ">
<path fill="none" stroke="#63b8ff" d="M647.87,-231.71C574.13,-223.74 458.57,-210.36 359,-195 351.89,-193.9 344.42,-192.64 337.07,-191.33"/>
<polygon fill="#63b8ff" stroke="#63b8ff" points="337.61,-187.88 327.15,-189.53 336.36,-194.76 337.61,-187.88"/>
</a>
</g>
</g>
<!-- Node21 -->
<g id="Node000021" class="node">
<title>Node21</title>
<g id="a_Node000021"><a xlink:title=" ">
<polygon fill="#e0e0e0" stroke="#999999" points="896.5,-189.5 827.5,-189.5 827.5,-170.5 896.5,-170.5 896.5,-189.5"/>
<text text-anchor="middle" x="862" y="-177.5" font-family="FreeSans" font-size="10.00">Eigen/Core</text>
</a>
</g>
</g>
<!-- Node20&#45;&gt;Node21 -->
<g id="edge25_Node000020_Node000021" class="edge">
<title>Node20&#45;&gt;Node21</title>
<g id="a_edge25_Node000020_Node000021"><a xlink:title=" ">
<path fill="none" stroke="#63b8ff" d="M743.21,-230.99C766.68,-221.12 805.61,-204.73 832.46,-193.43"/>
<polygon fill="#63b8ff" stroke="#63b8ff" points="833.9,-196.62 841.76,-189.52 831.19,-190.17 833.9,-196.62"/>
</a>
</g>
</g>
<!-- Node22 -->
<g id="Node000022" class="node">
<title>Node22</title>
<g id="a_Node000022"><a xlink:title=" ">
<polygon fill="#e0e0e0" stroke="#999999" points="1037,-195 915,-195 915,-165 1037,-165 1037,-195"/>
<text text-anchor="start" x="923" y="-183" font-family="FreeSans" font-size="10.00">boost/container/small</text>
<text text-anchor="middle" x="976" y="-172" font-family="FreeSans" font-size="10.00">_vector.hpp</text>
</a>
</g>
</g>
<!-- Node20&#45;&gt;Node22 -->
<g id="edge26_Node000020_Node000022" class="edge">
<title>Node20&#45;&gt;Node22</title>
<g id="a_edge26_Node000020_Node000022"><a xlink:title=" ">
<path fill="none" stroke="#63b8ff" d="M759.79,-230.99C797.79,-222.21 858.04,-208.27 905.3,-197.35"/>
<polygon fill="#63b8ff" stroke="#63b8ff" points="906.22,-200.73 915.18,-195.06 904.64,-193.91 906.22,-200.73"/>
</a>
</g>
</g>
<!-- Node23 -->
<g id="Node000023" class="node">
<title>Node23</title>
<g id="a_Node000023"><a xlink:title=" ">
<polygon fill="#e0e0e0" stroke="#999999" points="645.5,-195 502.5,-195 502.5,-165 645.5,-165 645.5,-195"/>
<text text-anchor="start" x="510.5" y="-183" font-family="FreeSans" font-size="10.00">boost/numeric/conversion</text>
<text text-anchor="middle" x="574" y="-172" font-family="FreeSans" font-size="10.00">/cast.hpp</text>
</a>
</g>
</g>
<!-- Node20&#45;&gt;Node23 -->
<g id="edge27_Node000020_Node000023" class="edge">
<title>Node20&#45;&gt;Node23</title>
<g id="a_edge27_Node000020_Node000023"><a xlink:title=" ">
<path fill="none" stroke="#63b8ff" d="M701.33,-230.99C679.89,-222.57 646.42,-209.43 619.17,-198.73"/>
<polygon fill="#63b8ff" stroke="#63b8ff" points="620.41,-195.46 609.82,-195.06 617.85,-201.98 620.41,-195.46"/>
</a>
</g>
</g>
<!-- Node24 -->
<g id="Node000024" class="node">
<title>Node24</title>
<g id="a_Node000024"><a xlink:title=" ">
<polygon fill="#e0e0e0" stroke="#999999" points="722.5,-189.5 663.5,-189.5 663.5,-170.5 722.5,-170.5 722.5,-189.5"/>
<text text-anchor="middle" x="693" y="-177.5" font-family="FreeSans" font-size="10.00">complex</text>
</a>
</g>
</g>
<!-- Node20&#45;&gt;Node24 -->
<g id="edge28_Node000020_Node000024" class="edge">
<title>Node20&#45;&gt;Node24</title>
<g id="a_edge28_Node000020_Node000024"><a xlink:title=" ">
<path fill="none" stroke="#63b8ff" d="M718.57,-230.87C714.23,-222.4 707.48,-209.24 702.01,-198.57"/>
<polygon fill="#63b8ff" stroke="#63b8ff" points="705.12,-196.97 697.44,-189.67 698.89,-200.16 705.12,-196.97"/>
</a>
</g>
</g>
<!-- Node25 -->
<g id="Node000025" class="node">
<title>Node25</title>
<g id="a_Node000025"><a xlink:title=" ">
<polygon fill="#e0e0e0" stroke="#999999" points="809.5,-189.5 740.5,-189.5 740.5,-170.5 809.5,-170.5 809.5,-189.5"/>
<text text-anchor="middle" x="775" y="-177.5" font-family="FreeSans" font-size="10.00">type_traits</text>
</a>
</g>
</g>
<!-- Node20&#45;&gt;Node25 -->
<g id="edge29_Node000020_Node000025" class="edge">
<title>Node20&#45;&gt;Node25</title>
<g id="a_edge29_Node000020_Node000025"><a xlink:title=" ">
<path fill="none" stroke="#63b8ff" d="M730.67,-230.87C738.51,-222.05 750.86,-208.16 760.54,-197.27"/>
<polygon fill="#63b8ff" stroke="#63b8ff" points="763.27,-199.47 767.3,-189.67 758.04,-194.82 763.27,-199.47"/>
</a>
</g>
</g>
<!-- Node26&#45;&gt;Node8 -->
<g id="edge32_Node000026_Node000008" class="edge">
<title>Node26&#45;&gt;Node8</title>
<g id="a_edge32_Node000026_Node000008"><a xlink:title=" ">
<path fill="none" stroke="#63b8ff" d="M437.86,-164.84C444.9,-156.43 453.86,-145.74 461.21,-136.96"/>
<polygon fill="#63b8ff" stroke="#63b8ff" points="463.92,-139.18 467.66,-129.27 458.55,-134.68 463.92,-139.18"/>
</a>
</g>
</g>
</g>
</svg>
