<?xml version="1.0" encoding="UTF-8" standalone="no"?>
<!DOCTYPE svg PUBLIC "-//W3C//DTD SVG 1.1//EN"
 "http://www.w3.org/Graphics/SVG/1.1/DTD/svg11.dtd">
<!-- Generated by graphviz version 2.43.0 (0)
 -->
<!-- Title: mpqc/math/tensor/clr/decomposed_tensor_gemm.h Pages: 1 -->
<svg width="1124pt" height="599pt"
 viewBox="0.00 0.00 1123.50 599.00" xmlns="http://www.w3.org/2000/svg" xmlns:xlink="http://www.w3.org/1999/xlink">
<g id="graph0" class="graph" transform="scale(1 1) rotate(0) translate(4 595)">
<title>mpqc/math/tensor/clr/decomposed_tensor_gemm.h</title>
<!-- Node1 -->
<g id="Node000001" class="node">
<title>Node1</title>
<g id="a_Node000001"><a xlink:title=" ">
<polygon fill="#999999" stroke="#666666" points="493.5,-591 329.5,-591 329.5,-561 493.5,-561 493.5,-591"/>
<text text-anchor="start" x="337.5" y="-579" font-family="FreeSans" font-size="10.00">mpqc/math/tensor/clr</text>
<text text-anchor="middle" x="411.5" y="-568" font-family="FreeSans" font-size="10.00">/decomposed_tensor_gemm.h</text>
</a>
</g>
</g>
<!-- Node2 -->
<g id="Node000002" class="node">
<title>Node2</title>
<g id="a_Node000002"><a xlink:href="tiledarray_8h.html" target="_top" xlink:title=" ">
<polygon fill="white" stroke="#666666" points="1030,-448 905,-448 905,-418 1030,-418 1030,-448"/>
<text text-anchor="start" x="913" y="-436" font-family="FreeSans" font-size="10.00">mpqc/math/external</text>
<text text-anchor="middle" x="967.5" y="-425" font-family="FreeSans" font-size="10.00">/tiledarray/tiledarray.h</text>
</a>
</g>
</g>
<!-- Node1&#45;&gt;Node2 -->
<g id="edge1_Node000001_Node000002" class="edge">
<title>Node1&#45;&gt;Node2</title>
<g id="a_edge1_Node000001_Node000002"><a xlink:title=" ">
<path fill="none" stroke="#63b8ff" d="M466.84,-560.96C570.06,-534.79 791.45,-478.65 901.95,-450.62"/>
<polygon fill="#63b8ff" stroke="#63b8ff" points="903.13,-453.93 911.97,-448.08 901.41,-447.15 903.13,-453.93"/>
</a>
</g>
</g>
<!-- Node4 -->
<g id="Node000004" class="node">
<title>Node4</title>
<g id="a_Node000004"><a xlink:href="decomposed__tensor_8h.html" target="_top" xlink:title=" ">
<polygon fill="white" stroke="#666666" points="314.5,-316 188.5,-316 188.5,-286 314.5,-286 314.5,-316"/>
<text text-anchor="start" x="196.5" y="-304" font-family="FreeSans" font-size="10.00">mpqc/math/tensor/clr</text>
<text text-anchor="middle" x="251.5" y="-293" font-family="FreeSans" font-size="10.00">/decomposed_tensor.h</text>
</a>
</g>
</g>
<!-- Node1&#45;&gt;Node4 -->
<g id="edge4_Node000001_Node000004" class="edge">
<title>Node1&#45;&gt;Node4</title>
<g id="a_edge4_Node000001_Node000004"><a xlink:title=" ">
<path fill="none" stroke="#63b8ff" d="M376.63,-560.91C357.47,-552.21 333.93,-539.87 315.5,-525 280.86,-497.06 269.42,-488.73 251.5,-448 233.95,-408.12 239.97,-355.97 245.82,-326.01"/>
<polygon fill="#63b8ff" stroke="#63b8ff" points="249.28,-326.55 247.92,-316.04 242.43,-325.1 249.28,-326.55"/>
</a>
</g>
</g>
<!-- Node18 -->
<g id="Node000018" class="node">
<title>Node18</title>
<g id="a_Node000018"><a xlink:href="decomposed__tensor__addition_8h.html" target="_top" xlink:title=" ">
<polygon fill="white" stroke="#666666" points="451.5,-448 279.5,-448 279.5,-418 451.5,-418 451.5,-448"/>
<text text-anchor="start" x="287.5" y="-436" font-family="FreeSans" font-size="10.00">mpqc/math/tensor/clr</text>
<text text-anchor="middle" x="365.5" y="-425" font-family="FreeSans" font-size="10.00">/decomposed_tensor_addition.h</text>
</a>
</g>
</g>
<!-- Node1&#45;&gt;Node18 -->
<g id="edge22_Node000001_Node000018" class="edge">
<title>Node1&#45;&gt;Node18</title>
<g id="a_edge22_Node000001_Node000018"><a xlink:title=" ">
<path fill="none" stroke="#63b8ff" d="M368.25,-560.95C351.51,-553.15 334.1,-541.59 324.5,-525 315.37,-509.23 318.36,-501.16 324.5,-484 328.28,-473.43 335.37,-463.48 342.6,-455.29"/>
<polygon fill="#63b8ff" stroke="#63b8ff" points="345.15,-457.68 349.47,-448.01 340.06,-452.88 345.15,-457.68"/>
</a>
</g>
</g>
<!-- Node19 -->
<g id="Node000019" class="node">
<title>Node19</title>
<g id="a_Node000019"><a xlink:href="decomposed__tensor__algebra_8h.html" target="_top" xlink:title=" ">
<polygon fill="white" stroke="#666666" points="512,-382 343,-382 343,-352 512,-352 512,-382"/>
<text text-anchor="start" x="351" y="-370" font-family="FreeSans" font-size="10.00">mpqc/math/tensor/clr</text>
<text text-anchor="middle" x="427.5" y="-359" font-family="FreeSans" font-size="10.00">/decomposed_tensor_algebra.h</text>
</a>
</g>
</g>
<!-- Node1&#45;&gt;Node19 -->
<g id="edge41_Node000001_Node000019" class="edge">
<title>Node1&#45;&gt;Node19</title>
<g id="a_edge41_Node000001_Node000019"><a xlink:title=" ">
<path fill="none" stroke="#63b8ff" d="M454.27,-560.83C470.82,-553.01 488.03,-541.47 497.5,-525 521.67,-482.99 501.49,-459.53 476.5,-418 470.1,-407.37 461.01,-397.26 452.4,-388.96"/>
<polygon fill="#63b8ff" stroke="#63b8ff" points="454.75,-386.37 445.03,-382.15 450,-391.51 454.75,-386.37"/>
</a>
</g>
</g>
<!-- Node31 -->
<g id="Node000031" class="node">
<title>Node31</title>
<g id="a_Node000031"><a xlink:href="decomposed__tensor__gemm__helper_8h.html" target="_top" xlink:title=" ">
<polygon fill="white" stroke="#666666" points="489,-525 334,-525 334,-484 489,-484 489,-525"/>
<text text-anchor="start" x="342" y="-513" font-family="FreeSans" font-size="10.00">mpqc/math/tensor/clr</text>
<text text-anchor="start" x="342" y="-502" font-family="FreeSans" font-size="10.00">/decomposed_tensor_gemm</text>
<text text-anchor="middle" x="411.5" y="-491" font-family="FreeSans" font-size="10.00">_helper.h</text>
</a>
</g>
</g>
<!-- Node1&#45;&gt;Node31 -->
<g id="edge42_Node000001_Node000031" class="edge">
<title>Node1&#45;&gt;Node31</title>
<g id="a_edge42_Node000001_Node000031"><a xlink:title=" ">
<path fill="none" stroke="#63b8ff" d="M411.5,-560.94C411.5,-553.52 411.5,-544.14 411.5,-535.2"/>
<polygon fill="#63b8ff" stroke="#63b8ff" points="415,-535.07 411.5,-525.07 408,-535.07 415,-535.07"/>
</a>
</g>
</g>
<!-- Node2&#45;&gt;Node2 -->
<g id="edge2_Node000002_Node000002" class="edge">
<title>Node2&#45;&gt;Node2</title>
<g id="a_edge2_Node000002_Node000002"><a xlink:title=" ">
<path fill="none" stroke="#63b8ff" d="M1030.28,-444.5C1040.76,-442.89 1048,-439.06 1048,-433 1048,-429.12 1045.03,-426.15 1040.14,-424.1"/>
<polygon fill="#63b8ff" stroke="#63b8ff" points="1040.84,-420.66 1030.28,-421.5 1039.06,-427.43 1040.84,-420.66"/>
</a>
</g>
</g>
<!-- Node3 -->
<g id="Node000003" class="node">
<title>Node3</title>
<g id="a_Node000003"><a xlink:title=" ">
<polygon fill="#e0e0e0" stroke="#999999" points="875,-129 758,-129 758,-110 875,-110 875,-129"/>
<text text-anchor="middle" x="816.5" y="-117" font-family="FreeSans" font-size="10.00">mpqc/mpqc_config.h</text>
</a>
</g>
</g>
<!-- Node2&#45;&gt;Node3 -->
<g id="edge3_Node000002_Node000003" class="edge">
<title>Node2&#45;&gt;Node3</title>
<g id="a_edge3_Node000002_Node000003"><a xlink:title=" ">
<path fill="none" stroke="#63b8ff" d="M1005.61,-417.86C1049.47,-398.84 1115.5,-360.48 1115.5,-302 1115.5,-302 1115.5,-302 1115.5,-239.5 1115.5,-202.33 1107.45,-187.02 1077.5,-165 1047.65,-143.05 951.88,-131.1 885.06,-125.26"/>
<polygon fill="#63b8ff" stroke="#63b8ff" points="885.27,-121.76 875.01,-124.4 884.68,-128.74 885.27,-121.76"/>
</a>
</g>
</g>
<!-- Node5 -->
<g id="Node000005" class="node">
<title>Node5</title>
<g id="a_Node000005"><a xlink:title=" ">
<polygon fill="#e0e0e0" stroke="#999999" points="405,-250 296,-250 296,-231 405,-231 405,-250"/>
<text text-anchor="middle" x="350.5" y="-238" font-family="FreeSans" font-size="10.00">TiledArray/tensor.h</text>
</a>
</g>
</g>
<!-- Node4&#45;&gt;Node5 -->
<g id="edge5_Node000004_Node000005" class="edge">
<title>Node4&#45;&gt;Node5</title>
<g id="a_edge5_Node000004_Node000005"><a xlink:title=" ">
<path fill="none" stroke="#63b8ff" d="M275.21,-285.99C290.85,-276.75 311.24,-264.7 326.86,-255.47"/>
<polygon fill="#63b8ff" stroke="#63b8ff" points="329.05,-258.24 335.88,-250.14 325.49,-252.21 329.05,-258.24"/>
</a>
</g>
</g>
<!-- Node6 -->
<g id="Node000006" class="node">
<title>Node6</title>
<g id="a_Node000006"><a xlink:title=" ">
<polygon fill="#e0e0e0" stroke="#999999" points="95,-250 0,-250 0,-231 95,-231 95,-250"/>
<text text-anchor="middle" x="47.5" y="-238" font-family="FreeSans" font-size="10.00">tiledarray_fwd.h</text>
</a>
</g>
</g>
<!-- Node4&#45;&gt;Node6 -->
<g id="edge6_Node000004_Node000006" class="edge">
<title>Node4&#45;&gt;Node6</title>
<g id="a_edge6_Node000004_Node000006"><a xlink:title=" ">
<path fill="none" stroke="#63b8ff" d="M202.64,-285.99C167.28,-275.85 120.1,-262.32 87.09,-252.85"/>
<polygon fill="#63b8ff" stroke="#63b8ff" points="87.91,-249.45 77.33,-250.05 85.98,-256.17 87.91,-249.45"/>
</a>
</g>
</g>
<!-- Node7 -->
<g id="Node000007" class="node">
<title>Node7</title>
<g id="a_Node000007"><a xlink:title=" ">
<polygon fill="#e0e0e0" stroke="#999999" points="173.5,-250 113.5,-250 113.5,-231 173.5,-231 173.5,-250"/>
<text text-anchor="middle" x="143.5" y="-238" font-family="FreeSans" font-size="10.00">iostream</text>
</a>
</g>
</g>
<!-- Node4&#45;&gt;Node7 -->
<g id="edge7_Node000004_Node000007" class="edge">
<title>Node4&#45;&gt;Node7</title>
<g id="a_edge7_Node000004_Node000007"><a xlink:title=" ">
<path fill="none" stroke="#63b8ff" d="M225.63,-285.99C208.26,-276.58 185.49,-264.24 168.33,-254.95"/>
<polygon fill="#63b8ff" stroke="#63b8ff" points="169.91,-251.82 159.45,-250.14 166.58,-257.98 169.91,-251.82"/>
</a>
</g>
</g>
<!-- Node8 -->
<g id="Node000008" class="node">
<title>Node8</title>
<g id="a_Node000008"><a xlink:title=" ">
<polygon fill="#e0e0e0" stroke="#999999" points="263,-19 216,-19 216,0 263,0 263,-19"/>
<text text-anchor="middle" x="239.5" y="-7" font-family="FreeSans" font-size="10.00">vector</text>
</a>
</g>
</g>
<!-- Node4&#45;&gt;Node8 -->
<g id="edge8_Node000004_Node000008" class="edge">
<title>Node4&#45;&gt;Node8</title>
<g id="a_edge8_Node000004_Node000008"><a xlink:title=" ">
<path fill="none" stroke="#63b8ff" d="M241.14,-285.79C226.49,-264.25 201.5,-221.56 201.5,-181 201.5,-181 201.5,-181 201.5,-118.5 201.5,-85.02 217.95,-48.84 229.2,-28.01"/>
<polygon fill="#63b8ff" stroke="#63b8ff" points="232.37,-29.53 234.22,-19.1 226.26,-26.1 232.37,-29.53"/>
</a>
</g>
</g>
<!-- Node9 -->
<g id="Node000009" class="node">
<title>Node9</title>
<g id="a_Node000009"><a xlink:href="assert_8h.html" target="_top" xlink:title=" ">
<polygon fill="white" stroke="#666666" points="361,-189.5 230,-189.5 230,-170.5 361,-170.5 361,-189.5"/>
<text text-anchor="middle" x="295.5" y="-177.5" font-family="FreeSans" font-size="10.00">mpqc/util/misc/assert.h</text>
</a>
</g>
</g>
<!-- Node4&#45;&gt;Node9 -->
<g id="edge9_Node000004_Node000009" class="edge">
<title>Node4&#45;&gt;Node9</title>
<g id="a_edge9_Node000004_Node000009"><a xlink:title=" ">
<path fill="none" stroke="#63b8ff" d="M256.72,-285.88C264.7,-264.31 279.91,-223.15 288.73,-199.31"/>
<polygon fill="#63b8ff" stroke="#63b8ff" points="292.09,-200.3 292.28,-189.71 285.53,-197.88 292.09,-200.3"/>
</a>
</g>
</g>
<!-- Node9&#45;&gt;Node3 -->
<g id="edge10_Node000009_Node000003" class="edge">
<title>Node9&#45;&gt;Node3</title>
<g id="a_edge10_Node000009_Node000003"><a xlink:title=" ">
<path fill="none" stroke="#63b8ff" d="M337.84,-170.45C348.47,-168.48 359.88,-166.52 370.5,-165 503.51,-145.99 659.98,-132.38 747.77,-125.53"/>
<polygon fill="#63b8ff" stroke="#63b8ff" points="748.16,-129.01 757.86,-124.75 747.62,-122.03 748.16,-129.01"/>
</a>
</g>
</g>
<!-- Node10 -->
<g id="Node000010" class="node">
<title>Node10</title>
<g id="a_Node000010"><a xlink:title=" ">
<polygon fill="#e0e0e0" stroke="#999999" points="478.5,-129 426.5,-129 426.5,-110 478.5,-110 478.5,-129"/>
<text text-anchor="middle" x="452.5" y="-117" font-family="FreeSans" font-size="10.00">cassert</text>
</a>
</g>
</g>
<!-- Node9&#45;&gt;Node10 -->
<g id="edge11_Node000009_Node000010" class="edge">
<title>Node9&#45;&gt;Node10</title>
<g id="a_edge11_Node000009_Node000010"><a xlink:title=" ">
<path fill="none" stroke="#63b8ff" d="M318.33,-170.49C345.07,-160.53 389.58,-143.95 419.94,-132.63"/>
<polygon fill="#63b8ff" stroke="#63b8ff" points="421.49,-135.79 429.64,-129.02 419.05,-129.23 421.49,-135.79"/>
</a>
</g>
</g>
<!-- Node11 -->
<g id="Node000011" class="node">
<title>Node11</title>
<g id="a_Node000011"><a xlink:href="exception_8h.html" target="_top" xlink:title=" ">
<polygon fill="white" stroke="#666666" points="408.5,-129 262.5,-129 262.5,-110 408.5,-110 408.5,-129"/>
<text text-anchor="middle" x="335.5" y="-117" font-family="FreeSans" font-size="10.00">mpqc/util/core/exception.h</text>
</a>
</g>
</g>
<!-- Node9&#45;&gt;Node11 -->
<g id="edge12_Node000009_Node000011" class="edge">
<title>Node9&#45;&gt;Node11</title>
<g id="a_edge12_Node000009_Node000011"><a xlink:title=" ">
<path fill="none" stroke="#63b8ff" d="M301.4,-170.37C307.25,-161.81 316.37,-148.47 323.71,-137.74"/>
<polygon fill="#63b8ff" stroke="#63b8ff" points="326.82,-139.4 329.57,-129.17 321.04,-135.45 326.82,-139.4"/>
</a>
</g>
</g>
<!-- Node11&#45;&gt;Node8 -->
<g id="edge18_Node000011_Node000008" class="edge">
<title>Node11&#45;&gt;Node8</title>
<g id="a_edge18_Node000011_Node000008"><a xlink:title=" ">
<path fill="none" stroke="#63b8ff" d="M311.02,-109.97C293.99,-102.85 272,-91.08 258.5,-74 248.36,-61.16 243.62,-43 241.41,-29.38"/>
<polygon fill="#63b8ff" stroke="#63b8ff" points="244.85,-28.7 240.09,-19.23 237.91,-29.6 244.85,-28.7"/>
</a>
</g>
</g>
<!-- Node12 -->
<g id="Node000012" class="node">
<title>Node12</title>
<g id="a_Node000012"><a xlink:title=" ">
<polygon fill="#e0e0e0" stroke="#999999" points="321,-74 268,-74 268,-55 321,-55 321,-74"/>
<text text-anchor="middle" x="294.5" y="-62" font-family="FreeSans" font-size="10.00">string.h</text>
</a>
</g>
</g>
<!-- Node11&#45;&gt;Node12 -->
<g id="edge13_Node000011_Node000012" class="edge">
<title>Node11&#45;&gt;Node12</title>
<g id="a_edge13_Node000011_Node000012"><a xlink:title=" ">
<path fill="none" stroke="#63b8ff" d="M328.73,-109.75C322.94,-102.26 314.44,-91.28 307.36,-82.13"/>
<polygon fill="#63b8ff" stroke="#63b8ff" points="310.03,-79.86 301.14,-74.09 304.49,-84.14 310.03,-79.86"/>
</a>
</g>
</g>
<!-- Node13 -->
<g id="Node000013" class="node">
<title>Node13</title>
<g id="a_Node000013"><a xlink:href="memory.html" target="_top" xlink:title=" ">
<polygon fill="white" stroke="#666666" points="397.5,-74 339.5,-74 339.5,-55 397.5,-55 397.5,-74"/>
<text text-anchor="middle" x="368.5" y="-62" font-family="FreeSans" font-size="10.00">memory</text>
</a>
</g>
</g>
<!-- Node11&#45;&gt;Node13 -->
<g id="edge14_Node000011_Node000013" class="edge">
<title>Node11&#45;&gt;Node13</title>
<g id="a_edge14_Node000011_Node000013"><a xlink:title=" ">
<path fill="none" stroke="#63b8ff" d="M340.95,-109.75C345.51,-102.42 352.17,-91.73 357.79,-82.7"/>
<polygon fill="#63b8ff" stroke="#63b8ff" points="360.84,-84.43 363.15,-74.09 354.9,-80.73 360.84,-84.43"/>
</a>
</g>
</g>
<!-- Node14 -->
<g id="Node000014" class="node">
<title>Node14</title>
<g id="a_Node000014"><a xlink:title=" ">
<polygon fill="#e0e0e0" stroke="#999999" points="489.5,-74 433.5,-74 433.5,-55 489.5,-55 489.5,-74"/>
<text text-anchor="middle" x="461.5" y="-62" font-family="FreeSans" font-size="10.00">sstream</text>
</a>
</g>
</g>
<!-- Node11&#45;&gt;Node14 -->
<g id="edge16_Node000011_Node000014" class="edge">
<title>Node11&#45;&gt;Node14</title>
<g id="a_edge16_Node000011_Node000014"><a xlink:title=" ">
<path fill="none" stroke="#63b8ff" d="M355.74,-109.98C376.2,-101.38 408.03,-87.99 431.43,-78.15"/>
<polygon fill="#63b8ff" stroke="#63b8ff" points="433.03,-81.27 440.89,-74.17 430.31,-74.82 433.03,-81.27"/>
</a>
</g>
</g>
<!-- Node15 -->
<g id="Node000015" class="node">
<title>Node15</title>
<g id="a_Node000015"><a xlink:title=" ">
<polygon fill="#e0e0e0" stroke="#999999" points="573,-74 508,-74 508,-55 573,-55 573,-74"/>
<text text-anchor="middle" x="540.5" y="-62" font-family="FreeSans" font-size="10.00">stdexcept</text>
</a>
</g>
</g>
<!-- Node11&#45;&gt;Node15 -->
<g id="edge17_Node000011_Node000015" class="edge">
<title>Node11&#45;&gt;Node15</title>
<g id="a_edge17_Node000011_Node000015"><a xlink:title=" ">
<path fill="none" stroke="#63b8ff" d="M368.44,-109.98C403.66,-100.88 459.63,-86.41 498.11,-76.46"/>
<polygon fill="#63b8ff" stroke="#63b8ff" points="499.18,-79.8 507.98,-73.91 497.43,-73.02 499.18,-79.8"/>
</a>
</g>
</g>
<!-- Node16 -->
<g id="Node000016" class="node">
<title>Node16</title>
<g id="a_Node000016"><a xlink:href="backtrace_8h.html" target="_top" xlink:title=" ">
<polygon fill="white" stroke="#666666" points="737.5,-74 591.5,-74 591.5,-55 737.5,-55 737.5,-74"/>
<text text-anchor="middle" x="664.5" y="-62" font-family="FreeSans" font-size="10.00">mpqc/util/core/backtrace.h</text>
</a>
</g>
</g>
<!-- Node11&#45;&gt;Node16 -->
<g id="edge19_Node000011_Node000016" class="edge">
<title>Node11&#45;&gt;Node16</title>
<g id="a_edge19_Node000011_Node000016"><a xlink:title=" ">
<path fill="none" stroke="#63b8ff" d="M388.36,-109.98C446.43,-100.63 539.65,-85.61 601.48,-75.65"/>
<polygon fill="#63b8ff" stroke="#63b8ff" points="602.18,-79.08 611.5,-74.04 601.07,-72.17 602.18,-79.08"/>
</a>
</g>
</g>
<!-- Node13&#45;&gt;Node13 -->
<g id="edge15_Node000013_Node000013" class="edge">
<title>Node13&#45;&gt;Node13</title>
<g id="a_edge15_Node000013_Node000013"><a xlink:title=" ">
<path fill="none" stroke="#63b8ff" d="M390.74,-74.07C403.56,-76.02 415.5,-72.83 415.5,-64.5 415.5,-58.45 409.2,-55.11 400.84,-54.48"/>
<polygon fill="#63b8ff" stroke="#63b8ff" points="400.58,-50.99 390.74,-54.93 400.89,-57.98 400.58,-50.99"/>
</a>
</g>
</g>
<!-- Node16&#45;&gt;Node8 -->
<g id="edge21_Node000016_Node000008" class="edge">
<title>Node16&#45;&gt;Node8</title>
<g id="a_edge21_Node000016_Node000008"><a xlink:title=" ">
<path fill="none" stroke="#63b8ff" d="M596.22,-54.98C503.82,-43.46 342.54,-23.35 272.99,-14.68"/>
<polygon fill="#63b8ff" stroke="#63b8ff" points="273.38,-11.2 263.03,-13.43 272.52,-18.14 273.38,-11.2"/>
</a>
</g>
</g>
<!-- Node17 -->
<g id="Node000017" class="node">
<title>Node17</title>
<g id="a_Node000017"><a xlink:title=" ">
<polygon fill="#e0e0e0" stroke="#999999" points="686.5,-19 642.5,-19 642.5,0 686.5,0 686.5,-19"/>
<text text-anchor="middle" x="664.5" y="-7" font-family="FreeSans" font-size="10.00">string</text>
</a>
</g>
</g>
<!-- Node16&#45;&gt;Node17 -->
<g id="edge20_Node000016_Node000017" class="edge">
<title>Node16&#45;&gt;Node17</title>
<g id="a_edge20_Node000016_Node000017"><a xlink:title=" ">
<path fill="none" stroke="#63b8ff" d="M664.5,-54.75C664.5,-47.8 664.5,-37.85 664.5,-29.13"/>
<polygon fill="#63b8ff" stroke="#63b8ff" points="668,-29.09 664.5,-19.09 661,-29.09 668,-29.09"/>
</a>
</g>
</g>
<!-- Node18&#45;&gt;Node4 -->
<g id="edge23_Node000018_Node000004" class="edge">
<title>Node18&#45;&gt;Node4</title>
<g id="a_edge23_Node000018_Node000004"><a xlink:title=" ">
<path fill="none" stroke="#63b8ff" d="M353.08,-417.84C333.21,-395.18 294.11,-350.6 270.64,-323.83"/>
<polygon fill="#63b8ff" stroke="#63b8ff" points="273.13,-321.35 263.9,-316.14 267.86,-325.97 273.13,-321.35"/>
</a>
</g>
</g>
<!-- Node18&#45;&gt;Node19 -->
<g id="edge24_Node000018_Node000019" class="edge">
<title>Node18&#45;&gt;Node19</title>
<g id="a_edge24_Node000018_Node000019"><a xlink:title=" ">
<path fill="none" stroke="#63b8ff" d="M379.26,-417.8C387.29,-409.51 397.57,-398.89 406.59,-389.59"/>
<polygon fill="#63b8ff" stroke="#63b8ff" points="409.33,-391.78 413.78,-382.16 404.31,-386.91 409.33,-391.78"/>
</a>
</g>
</g>
<!-- Node19&#45;&gt;Node4 -->
<g id="edge39_Node000019_Node000004" class="edge">
<title>Node19&#45;&gt;Node4</title>
<g id="a_edge39_Node000019_Node000004"><a xlink:title=" ">
<path fill="none" stroke="#63b8ff" d="M388.88,-351.95C362.63,-342.41 327.71,-329.71 299.65,-319.51"/>
<polygon fill="#63b8ff" stroke="#63b8ff" points="300.63,-316.14 290.03,-316.01 298.24,-322.72 300.63,-316.14"/>
</a>
</g>
</g>
<!-- Node19&#45;&gt;Node5 -->
<g id="edge25_Node000019_Node000005" class="edge">
<title>Node19&#45;&gt;Node5</title>
<g id="a_edge25_Node000019_Node000005"><a xlink:title=" ">
<path fill="none" stroke="#63b8ff" d="M426.97,-351.88C425.74,-334.96 421.69,-306.37 408.5,-286 400.31,-273.35 387.24,-262.86 375.58,-255.25"/>
<polygon fill="#63b8ff" stroke="#63b8ff" points="377.39,-252.26 367.04,-250.01 373.73,-258.22 377.39,-252.26"/>
</a>
</g>
</g>
<!-- Node20 -->
<g id="Node000020" class="node">
<title>Node20</title>
<g id="a_Node000020"><a xlink:href="eigen_8h.html" target="_top" xlink:title=" ">
<polygon fill="white" stroke="#666666" points="582.5,-316 466.5,-316 466.5,-286 582.5,-286 582.5,-316"/>
<text text-anchor="start" x="474.5" y="-304" font-family="FreeSans" font-size="10.00">mpqc/math/external</text>
<text text-anchor="middle" x="524.5" y="-293" font-family="FreeSans" font-size="10.00">/eigen/eigen.h</text>
</a>
</g>
</g>
<!-- Node19&#45;&gt;Node20 -->
<g id="edge26_Node000019_Node000020" class="edge">
<title>Node19&#45;&gt;Node20</title>
<g id="a_edge26_Node000019_Node000020"><a xlink:title=" ">
<path fill="none" stroke="#63b8ff" d="M449.03,-351.8C462.34,-343.01 479.63,-331.61 494.3,-321.93"/>
<polygon fill="#63b8ff" stroke="#63b8ff" points="496.61,-324.59 503.03,-316.16 492.76,-318.75 496.61,-324.59"/>
</a>
</g>
</g>
<!-- Node30 -->
<g id="Node000030" class="node">
<title>Node30</title>
<g id="a_Node000030"><a xlink:title=" ">
<polygon fill="#e0e0e0" stroke="#999999" points="399.5,-310.5 347.5,-310.5 347.5,-291.5 399.5,-291.5 399.5,-310.5"/>
<text text-anchor="middle" x="373.5" y="-298.5" font-family="FreeSans" font-size="10.00">blas.hh</text>
</a>
</g>
</g>
<!-- Node19&#45;&gt;Node30 -->
<g id="edge40_Node000019_Node000030" class="edge">
<title>Node19&#45;&gt;Node30</title>
<g id="a_edge40_Node000019_Node000030"><a xlink:title=" ">
<path fill="none" stroke="#63b8ff" d="M415.52,-351.8C407.26,-342.01 396.26,-328.98 387.59,-318.7"/>
<polygon fill="#63b8ff" stroke="#63b8ff" points="390.09,-316.23 380.96,-310.84 384.74,-320.74 390.09,-316.23"/>
</a>
</g>
</g>
<!-- Node20&#45;&gt;Node3 -->
<g id="edge35_Node000020_Node000003" class="edge">
<title>Node20&#45;&gt;Node3</title>
<g id="a_edge35_Node000020_Node000003"><a xlink:title=" ">
<path fill="none" stroke="#63b8ff" d="M582.59,-297.78C708.63,-291.58 1000.58,-269.35 1058.5,-195 1106.25,-133.71 972.7,-121.54 885.44,-119.88"/>
<polygon fill="#63b8ff" stroke="#63b8ff" points="885.36,-116.37 875.31,-119.73 885.26,-123.37 885.36,-116.37"/>
</a>
</g>
</g>
<!-- Node21 -->
<g id="Node000021" class="node">
<title>Node21</title>
<g id="a_Node000021"><a xlink:title=" ">
<polygon fill="#e0e0e0" stroke="#999999" points="567.5,-250 465.5,-250 465.5,-231 567.5,-231 567.5,-250"/>
<text text-anchor="middle" x="516.5" y="-238" font-family="FreeSans" font-size="10.00">madness/config.h</text>
</a>
</g>
</g>
<!-- Node20&#45;&gt;Node21 -->
<g id="edge27_Node000020_Node000021" class="edge">
<title>Node20&#45;&gt;Node21</title>
<g id="a_edge27_Node000020_Node000021"><a xlink:title=" ">
<path fill="none" stroke="#63b8ff" d="M522.56,-285.84C521.52,-278.21 520.22,-268.7 519.09,-260.45"/>
<polygon fill="#63b8ff" stroke="#63b8ff" points="522.52,-259.7 517.7,-250.27 515.59,-260.65 522.52,-259.7"/>
</a>
</g>
</g>
<!-- Node22 -->
<g id="Node000022" class="node">
<title>Node22</title>
<g id="a_Node000022"><a xlink:href="complex_8h.html" target="_top" xlink:title=" ">
<polygon fill="white" stroke="#666666" points="735.5,-250 585.5,-250 585.5,-231 735.5,-231 735.5,-250"/>
<text text-anchor="middle" x="660.5" y="-238" font-family="FreeSans" font-size="10.00">mpqc/math/core/complex.h</text>
</a>
</g>
</g>
<!-- Node20&#45;&gt;Node22 -->
<g id="edge28_Node000020_Node000022" class="edge">
<title>Node20&#45;&gt;Node22</title>
<g id="a_edge28_Node000020_Node000022"><a xlink:title=" ">
<path fill="none" stroke="#63b8ff" d="M557.08,-285.99C579.56,-276.31 609.22,-263.56 631.01,-254.18"/>
<polygon fill="#63b8ff" stroke="#63b8ff" points="632.61,-257.31 640.42,-250.14 629.85,-250.88 632.61,-257.31"/>
</a>
</g>
</g>
<!-- Node28 -->
<g id="Node000028" class="node">
<title>Node28</title>
<g id="a_Node000028"><a xlink:href="math_2external_2eigen_2fwd_8h.html" target="_top" xlink:title=" ">
<polygon fill="white" stroke="#666666" points="495.5,-195 379.5,-195 379.5,-165 495.5,-165 495.5,-195"/>
<text text-anchor="start" x="387.5" y="-183" font-family="FreeSans" font-size="10.00">mpqc/math/external</text>
<text text-anchor="middle" x="437.5" y="-172" font-family="FreeSans" font-size="10.00">/eigen/fwd.h</text>
</a>
</g>
</g>
<!-- Node20&#45;&gt;Node28 -->
<g id="edge36_Node000020_Node000028" class="edge">
<title>Node20&#45;&gt;Node28</title>
<g id="a_edge36_Node000020_Node000028"><a xlink:title=" ">
<path fill="none" stroke="#63b8ff" d="M497.46,-285.97C483.34,-277.36 466.88,-265.09 456.5,-250 447.35,-236.7 442.59,-219.14 440.13,-205.06"/>
<polygon fill="#63b8ff" stroke="#63b8ff" points="443.58,-204.48 438.65,-195.1 436.66,-205.5 443.58,-204.48"/>
</a>
</g>
</g>
<!-- Node29 -->
<g id="Node000029" class="node">
<title>Node29</title>
<g id="a_Node000029"><a xlink:title=" ">
<polygon fill="#e0e0e0" stroke="#999999" points="831,-250 754,-250 754,-231 831,-231 831,-250"/>
<text text-anchor="middle" x="792.5" y="-238" font-family="FreeSans" font-size="10.00">Eigen/Dense</text>
</a>
</g>
</g>
<!-- Node20&#45;&gt;Node29 -->
<g id="edge38_Node000020_Node000029" class="edge">
<title>Node20&#45;&gt;Node29</title>
<g id="a_edge38_Node000020_Node000029"><a xlink:title=" ">
<path fill="none" stroke="#63b8ff" d="M582.65,-287.31C630.88,-276.78 698.67,-261.98 744.01,-252.08"/>
<polygon fill="#63b8ff" stroke="#63b8ff" points="744.87,-255.48 753.89,-249.93 743.38,-248.64 744.87,-255.48"/>
</a>
</g>
</g>
<!-- Node22&#45;&gt;Node9 -->
<g id="edge29_Node000022_Node000009" class="edge">
<title>Node22&#45;&gt;Node9</title>
<g id="a_edge29_Node000022_Node000009"><a xlink:title=" ">
<path fill="none" stroke="#63b8ff" d="M601.26,-230.98C542.59,-222.41 450.22,-208.55 370.5,-195 363.83,-193.87 356.84,-192.63 349.92,-191.37"/>
<polygon fill="#63b8ff" stroke="#63b8ff" points="350.34,-187.89 339.88,-189.53 349.08,-194.78 350.34,-187.89"/>
</a>
</g>
</g>
<!-- Node23 -->
<g id="Node000023" class="node">
<title>Node23</title>
<g id="a_Node000023"><a xlink:title=" ">
<polygon fill="#e0e0e0" stroke="#999999" points="670,-189.5 601,-189.5 601,-170.5 670,-170.5 670,-189.5"/>
<text text-anchor="middle" x="635.5" y="-177.5" font-family="FreeSans" font-size="10.00">Eigen/Core</text>
</a>
</g>
</g>
<!-- Node22&#45;&gt;Node23 -->
<g id="edge30_Node000022_Node000023" class="edge">
<title>Node22&#45;&gt;Node23</title>
<g id="a_edge30_Node000022_Node000023"><a xlink:title=" ">
<path fill="none" stroke="#63b8ff" d="M656.81,-230.87C653.23,-222.49 647.68,-209.51 643.15,-198.89"/>
<polygon fill="#63b8ff" stroke="#63b8ff" points="646.35,-197.49 639.2,-189.67 639.92,-200.24 646.35,-197.49"/>
</a>
</g>
</g>
<!-- Node24 -->
<g id="Node000024" class="node">
<title>Node24</title>
<g id="a_Node000024"><a xlink:title=" ">
<polygon fill="#e0e0e0" stroke="#999999" points="810.5,-195 688.5,-195 688.5,-165 810.5,-165 810.5,-195"/>
<text text-anchor="start" x="696.5" y="-183" font-family="FreeSans" font-size="10.00">boost/container/small</text>
<text text-anchor="middle" x="749.5" y="-172" font-family="FreeSans" font-size="10.00">_vector.hpp</text>
</a>
</g>
</g>
<!-- Node22&#45;&gt;Node24 -->
<g id="edge31_Node000022_Node000024" class="edge">
<title>Node22&#45;&gt;Node24</title>
<g id="a_edge31_Node000022_Node000024"><a xlink:title=" ">
<path fill="none" stroke="#63b8ff" d="M673.63,-230.87C685.6,-223 703.72,-211.09 719.25,-200.89"/>
<polygon fill="#63b8ff" stroke="#63b8ff" points="721.59,-203.53 728.03,-195.11 717.75,-197.68 721.59,-203.53"/>
</a>
</g>
</g>
<!-- Node25 -->
<g id="Node000025" class="node">
<title>Node25</title>
<g id="a_Node000025"><a xlink:title=" ">
<polygon fill="#e0e0e0" stroke="#999999" points="972,-195 829,-195 829,-165 972,-165 972,-195"/>
<text text-anchor="start" x="837" y="-183" font-family="FreeSans" font-size="10.00">boost/numeric/conversion</text>
<text text-anchor="middle" x="900.5" y="-172" font-family="FreeSans" font-size="10.00">/cast.hpp</text>
</a>
</g>
</g>
<!-- Node22&#45;&gt;Node25 -->
<g id="edge32_Node000022_Node000025" class="edge">
<title>Node22&#45;&gt;Node25</title>
<g id="a_edge32_Node000022_Node000025"><a xlink:title=" ">
<path fill="none" stroke="#63b8ff" d="M695.4,-230.99C731.3,-222.24 788.13,-208.39 832.87,-197.48"/>
<polygon fill="#63b8ff" stroke="#63b8ff" points="833.91,-200.83 842.8,-195.06 832.26,-194.03 833.91,-200.83"/>
</a>
</g>
</g>
<!-- Node26 -->
<g id="Node000026" class="node">
<title>Node26</title>
<g id="a_Node000026"><a xlink:title=" ">
<polygon fill="#e0e0e0" stroke="#999999" points="1049,-189.5 990,-189.5 990,-170.5 1049,-170.5 1049,-189.5"/>
<text text-anchor="middle" x="1019.5" y="-177.5" font-family="FreeSans" font-size="10.00">complex</text>
</a>
</g>
</g>
<!-- Node22&#45;&gt;Node26 -->
<g id="edge33_Node000022_Node000026" class="edge">
<title>Node22&#45;&gt;Node26</title>
<g id="a_edge33_Node000022_Node000026"><a xlink:title=" ">
<path fill="none" stroke="#63b8ff" d="M735.55,-230.99C815.41,-221.59 936.34,-206.31 981.5,-195 984.01,-194.37 986.58,-193.64 989.14,-192.84"/>
<polygon fill="#63b8ff" stroke="#63b8ff" points="990.51,-196.07 998.85,-189.52 988.25,-189.44 990.51,-196.07"/>
</a>
</g>
</g>
<!-- Node27 -->
<g id="Node000027" class="node">
<title>Node27</title>
<g id="a_Node000027"><a xlink:title=" ">
<polygon fill="#e0e0e0" stroke="#999999" points="583,-189.5 514,-189.5 514,-170.5 583,-170.5 583,-189.5"/>
<text text-anchor="middle" x="548.5" y="-177.5" font-family="FreeSans" font-size="10.00">type_traits</text>
</a>
</g>
</g>
<!-- Node22&#45;&gt;Node27 -->
<g id="edge34_Node000022_Node000027" class="edge">
<title>Node22&#45;&gt;Node27</title>
<g id="a_edge34_Node000022_Node000027"><a xlink:title=" ">
<path fill="none" stroke="#63b8ff" d="M643.97,-230.87C625.53,-221.23 595.46,-205.53 573.99,-194.31"/>
<polygon fill="#63b8ff" stroke="#63b8ff" points="575.58,-191.19 565.09,-189.67 572.34,-197.4 575.58,-191.19"/>
</a>
</g>
</g>
<!-- Node28&#45;&gt;Node3 -->
<g id="edge37_Node000028_Node000003" class="edge">
<title>Node28&#45;&gt;Node3</title>
<g id="a_edge37_Node000028_Node000003"><a xlink:title=" ">
<path fill="none" stroke="#63b8ff" d="M495.56,-166.63C498.58,-166.06 501.57,-165.51 504.5,-165 587.84,-150.37 684.34,-137.17 747.69,-129.02"/>
<polygon fill="#63b8ff" stroke="#63b8ff" points="748.48,-132.45 757.96,-127.71 747.59,-125.51 748.48,-132.45"/>
</a>
</g>
</g>
<!-- Node31&#45;&gt;Node4 -->
<g id="edge43_Node000031_Node000004" class="edge">
<title>Node31&#45;&gt;Node4</title>
<g id="a_edge43_Node000031_Node000004"><a xlink:title=" ">
<path fill="none" stroke="#63b8ff" d="M333.69,-489.02C310,-480.83 286.12,-468.01 270.5,-448 243.07,-412.85 244.2,-357.81 247.7,-326.31"/>
<polygon fill="#63b8ff" stroke="#63b8ff" points="251.2,-326.59 249,-316.22 244.25,-325.7 251.2,-326.59"/>
</a>
</g>
</g>
<!-- Node31&#45;&gt;Node18 -->
<g id="edge44_Node000031_Node000018" class="edge">
<title>Node31&#45;&gt;Node18</title>
<g id="a_edge44_Node000031_Node000018"><a xlink:title=" ">
<path fill="none" stroke="#63b8ff" d="M398.44,-483.77C392.84,-475.31 386.27,-465.38 380.48,-456.63"/>
<polygon fill="#63b8ff" stroke="#63b8ff" points="383.23,-454.45 374.79,-448.04 377.39,-458.31 383.23,-454.45"/>
</a>
</g>
</g>
<!-- Node31&#45;&gt;Node19 -->
<g id="edge45_Node000031_Node000019" class="edge">
<title>Node31&#45;&gt;Node19</title>
<g id="a_edge45_Node000031_Node000019"><a xlink:title=" ">
<path fill="none" stroke="#63b8ff" d="M435.22,-483.87C445.03,-474.21 455.32,-461.71 460.5,-448 465.22,-435.53 464.33,-430.77 460.5,-418 457.56,-408.2 452,-398.54 446.27,-390.37"/>
<polygon fill="#63b8ff" stroke="#63b8ff" points="448.91,-388.05 440.11,-382.15 443.31,-392.25 448.91,-388.05"/>
</a>
</g>
</g>
</g>
</svg>
