<?xml version="1.0" encoding="UTF-8" standalone="no"?>
<!DOCTYPE svg PUBLIC "-//W3C//DTD SVG 1.1//EN"
 "http://www.w3.org/Graphics/SVG/1.1/DTD/svg11.dtd">
<!-- Generated by graphviz version 2.43.0 (0)
 -->
<!-- Title: mpqc/math/tensor/clr/decomposed_tensor_algebra.h Pages: 1 -->
<!--zoomable 390 -->

<svg id="main" version="1.1" xmlns="http://www.w3.org/2000/svg" xmlns:xlink="http://www.w3.org/1999/xlink" xml:space="preserve" onload="init(evt)">
<style type="text/css"><![CDATA[
.node, .edge {opacity: 0.7;}
.node.selected, .edge.selected {opacity: 1;}
.edge:hover path { stroke: red; }
.edge:hover polygon { stroke: red; fill: red; }
]]></style>

<defs>
  <circle id="rim" cx="0" cy="0" r="7"/>
  <circle id="rim2" cx="0" cy="0" r="3.5"/>
  <g id="zoomPlus">
    <use xlink:href="#rim" fill="#404040"><set attributeName="fill" to="#808080" begin="zoomplus.mouseover" end="zoomplus.mouseout"/></use>
    <path d="M-4,0h8M0,-4v8" fill="none" stroke="white" stroke-width="1.5" pointer-events="none"/>
  </g>
  <g id="zoomMin">
    <use xlink:href="#rim" fill="#404040"><set attributeName="fill" to="#808080" begin="zoomminus.mouseover" end="zoomminus.mouseout"/></use>
    <path d="M-4,0h8" fill="none" stroke="white" stroke-width="1.5" pointer-events="none"/>
  </g>
  <g id="arrowUp" transform="translate(30 24)">
    <use xlink:href="#rim"/>
    <path pointer-events="none" fill="none" stroke="white" stroke-width="1.5" d="M0,-3.0v7 M-2.5,-0.5L0,-3.0L2.5,-0.5"/>
  </g>
  <g id="arrowRight" transform="rotate(90) translate(36 -43)">
    <use xlink:href="#rim"/>
    <path pointer-events="none" fill="none" stroke="white" stroke-width="1.5" d="M0,-3.0v7 M-2.5,-0.5L0,-3.0L2.5,-0.5"/>
  </g>
  <g id="arrowDown" transform="rotate(180) translate(-30 -48)">
    <use xlink:href="#rim"/>
    <path pointer-events="none" fill="none" stroke="white" stroke-width="1.5" d="M0,-3.0v7 M-2.5,-0.5L0,-3.0L2.5,-0.5"/>
  </g>
  <g id="arrowLeft" transform="rotate(270) translate(-36 17)">
    <use xlink:href="#rim"/>
    <path pointer-events="none" fill="none" stroke="white" stroke-width="1.5" d="M0,-3.0v7 M-2.5,-0.5L0,-3.0L2.5,-0.5"/>
  </g>
  <g id="resetDef">
    <use xlink:href="#rim2" fill="#404040"><set attributeName="fill" to="#808080" begin="reset.mouseover" end="reset.mouseout"/></use>
  </g>
</defs>
<script type="application/ecmascript">
var viewWidth = 1164;
var viewHeight = 390;
var sectionId = 'dynsection-0';
</script>
<script type="application/ecmascript" xlink:href="svg.min.js"/>
<svg id="graph" class="graph">
<g id="viewport">
<title>mpqc/math/tensor/clr/decomposed_tensor_algebra.h</title>
<!-- Node1 -->
<g id="Node000001" class="node">
<title>Node1</title>
<g id="a_Node000001"><a xlink:title=" ">
<polygon fill="#999999" stroke="#666666" points="963,-382 794,-382 794,-352 963,-352 963,-382"/>
<text text-anchor="start" x="802" y="-370" font-family="FreeSans" font-size="10.00">mpqc/math/tensor/clr</text>
<text text-anchor="middle" x="878.5" y="-359" font-family="FreeSans" font-size="10.00">/decomposed_tensor_algebra.h</text>
</a>
</g>
</g>
<!-- Node2 -->
<g id="Node000002" class="node">
<title>Node2</title>
<g id="a_Node000002"><a xlink:title=" ">
<polygon fill="#e0e0e0" stroke="#999999" points="888,-250 779,-250 779,-231 888,-231 888,-250"/>
<text text-anchor="middle" x="833.5" y="-238" font-family="FreeSans" font-size="10.00">TiledArray/tensor.h</text>
</a>
</g>
</g>
<!-- Node1&#45;&gt;Node2 -->
<g id="edge1_Node000001_Node000002" class="edge">
<title>Node1&#45;&gt;Node2</title>
<g id="a_edge1_Node000001_Node000002"><a xlink:title=" ">
<path fill="none" stroke="#63b8ff" d="M870.09,-351.96C864.49,-342.16 857.31,-328.61 852.5,-316 845.52,-297.72 840.3,-275.94 837.12,-260.66"/>
<polygon fill="#63b8ff" stroke="#63b8ff" points="840.47,-259.55 835.09,-250.42 833.6,-260.91 840.47,-259.55"/>
</a>
</g>
</g>
<!-- Node3 -->
<g id="Node000003" class="node">
<title>Node3</title>
<g id="a_Node000003"><a xlink:href="eigen_8h.html" target="_top" xlink:title=" ">
<polygon fill="white" stroke="#666666" points="737.5,-316 621.5,-316 621.5,-286 737.5,-286 737.5,-316"/>
<text text-anchor="start" x="629.5" y="-304" font-family="FreeSans" font-size="10.00">mpqc/math/external</text>
<text text-anchor="middle" x="679.5" y="-293" font-family="FreeSans" font-size="10.00">/eigen/eigen.h</text>
</a>
</g>
</g>
<!-- Node1&#45;&gt;Node3 -->
<g id="edge2_Node000001_Node000003" class="edge">
<title>Node1&#45;&gt;Node3</title>
<g id="a_edge2_Node000001_Node000003"><a xlink:title=" ">
<path fill="none" stroke="#63b8ff" d="M834.83,-351.95C804.76,-342.28 764.63,-329.38 732.7,-319.11"/>
<polygon fill="#63b8ff" stroke="#63b8ff" points="733.66,-315.74 723.07,-316.01 731.52,-322.41 733.66,-315.74"/>
</a>
</g>
</g>
<!-- Node24 -->
<g id="Node000024" class="node">
<title>Node24</title>
<g id="a_Node000024"><a xlink:href="decomposed__tensor_8h.html" target="_top" xlink:title=" ">
<polygon fill="white" stroke="#666666" points="987.5,-316 861.5,-316 861.5,-286 987.5,-286 987.5,-316"/>
<text text-anchor="start" x="869.5" y="-304" font-family="FreeSans" font-size="10.00">mpqc/math/tensor/clr</text>
<text text-anchor="middle" x="924.5" y="-293" font-family="FreeSans" font-size="10.00">/decomposed_tensor.h</text>
</a>
</g>
</g>
<!-- Node1&#45;&gt;Node24 -->
<g id="edge27_Node000001_Node000024" class="edge">
<title>Node1&#45;&gt;Node24</title>
<g id="a_edge27_Node000001_Node000024"><a xlink:title=" ">
<path fill="none" stroke="#63b8ff" d="M888.71,-351.8C894.49,-343.76 901.84,-333.53 908.38,-324.43"/>
<polygon fill="#63b8ff" stroke="#63b8ff" points="911.33,-326.33 914.32,-316.16 905.64,-322.24 911.33,-326.33"/>
</a>
</g>
</g>
<!-- Node27 -->
<g id="Node000027" class="node">
<title>Node27</title>
<g id="a_Node000027"><a xlink:title=" ">
<polygon fill="#e0e0e0" stroke="#999999" points="1057.5,-310.5 1005.5,-310.5 1005.5,-291.5 1057.5,-291.5 1057.5,-310.5"/>
<text text-anchor="middle" x="1031.5" y="-298.5" font-family="FreeSans" font-size="10.00">blas.hh</text>
</a>
</g>
</g>
<!-- Node1&#45;&gt;Node27 -->
<g id="edge33_Node000001_Node000027" class="edge">
<title>Node1&#45;&gt;Node27</title>
<g id="a_edge33_Node000001_Node000027"><a xlink:title=" ">
<path fill="none" stroke="#63b8ff" d="M912.08,-351.95C938.91,-340.73 976.16,-325.15 1001.89,-314.39"/>
<polygon fill="#63b8ff" stroke="#63b8ff" points="1003.26,-317.61 1011.14,-310.52 1000.56,-311.15 1003.26,-317.61"/>
</a>
</g>
</g>
<!-- Node4 -->
<g id="Node000004" class="node">
<title>Node4</title>
<g id="a_Node000004"><a xlink:title=" ">
<polygon fill="#e0e0e0" stroke="#999999" points="588.5,-250 486.5,-250 486.5,-231 588.5,-231 588.5,-250"/>
<text text-anchor="middle" x="537.5" y="-238" font-family="FreeSans" font-size="10.00">madness/config.h</text>
</a>
</g>
</g>
<!-- Node3&#45;&gt;Node4 -->
<g id="edge3_Node000003_Node000004" class="edge">
<title>Node3&#45;&gt;Node4</title>
<g id="a_edge3_Node000003_Node000004"><a xlink:title=" ">
<path fill="none" stroke="#63b8ff" d="M645.49,-285.99C621.9,-276.27 590.76,-263.44 567.98,-254.06"/>
<polygon fill="#63b8ff" stroke="#63b8ff" points="569.05,-250.71 558.47,-250.14 566.38,-257.18 569.05,-250.71"/>
</a>
</g>
</g>
<!-- Node5 -->
<g id="Node000005" class="node">
<title>Node5</title>
<g id="a_Node000005"><a xlink:href="complex_8h.html" target="_top" xlink:title=" ">
<polygon fill="white" stroke="#666666" points="387.5,-250 237.5,-250 237.5,-231 387.5,-231 387.5,-250"/>
<text text-anchor="middle" x="312.5" y="-238" font-family="FreeSans" font-size="10.00">mpqc/math/core/complex.h</text>
</a>
</g>
</g>
<!-- Node3&#45;&gt;Node5 -->
<g id="edge4_Node000003_Node000005" class="edge">
<title>Node3&#45;&gt;Node5</title>
<g id="a_edge4_Node000003_Node000005"><a xlink:title=" ">
<path fill="none" stroke="#63b8ff" d="M621.35,-290.73C554.4,-280.06 444.83,-262.59 375.79,-251.59"/>
<polygon fill="#63b8ff" stroke="#63b8ff" points="376.33,-248.13 365.91,-250.01 375.23,-255.04 376.33,-248.13"/>
</a>
</g>
</g>
<!-- Node7 -->
<g id="Node000007" class="node">
<title>Node7</title>
<g id="a_Node000007"><a xlink:title=" ">
<polygon fill="#e0e0e0" stroke="#999999" points="842,-129 725,-129 725,-110 842,-110 842,-129"/>
<text text-anchor="middle" x="783.5" y="-117" font-family="FreeSans" font-size="10.00">mpqc/mpqc_config.h</text>
</a>
</g>
</g>
<!-- Node3&#45;&gt;Node7 -->
<g id="edge23_Node000003_Node000007" class="edge">
<title>Node3&#45;&gt;Node7</title>
<g id="a_edge23_Node000003_Node000007"><a xlink:title=" ">
<path fill="none" stroke="#63b8ff" d="M683.94,-285.94C693.65,-255.66 717.08,-185.41 731.5,-165 739.64,-153.48 751.42,-143.07 761.71,-135.22"/>
<polygon fill="#63b8ff" stroke="#63b8ff" points="763.87,-137.98 769.89,-129.26 759.75,-132.32 763.87,-137.98"/>
</a>
</g>
</g>
<!-- Node22 -->
<g id="Node000022" class="node">
<title>Node22</title>
<g id="a_Node000022"><a xlink:href="math_2external_2eigen_2fwd_8h.html" target="_top" xlink:title=" ">
<polygon fill="white" stroke="#666666" points="856.5,-195 740.5,-195 740.5,-165 856.5,-165 856.5,-195"/>
<text text-anchor="start" x="748.5" y="-183" font-family="FreeSans" font-size="10.00">mpqc/math/external</text>
<text text-anchor="middle" x="798.5" y="-172" font-family="FreeSans" font-size="10.00">/eigen/fwd.h</text>
</a>
</g>
</g>
<!-- Node3&#45;&gt;Node22 -->
<g id="edge24_Node000003_Node000022" class="edge">
<title>Node3&#45;&gt;Node22</title>
<g id="a_edge24_Node000003_Node000022"><a xlink:title=" ">
<path fill="none" stroke="#63b8ff" d="M693.62,-285.88C714.28,-265.22 752.93,-226.57 777.1,-202.4"/>
<polygon fill="#63b8ff" stroke="#63b8ff" points="779.8,-204.65 784.4,-195.1 774.85,-199.7 779.8,-204.65"/>
</a>
</g>
</g>
<!-- Node23 -->
<g id="Node000023" class="node">
<title>Node23</title>
<g id="a_Node000023"><a xlink:title=" ">
<polygon fill="#e0e0e0" stroke="#999999" points="684,-250 607,-250 607,-231 684,-231 684,-250"/>
<text text-anchor="middle" x="645.5" y="-238" font-family="FreeSans" font-size="10.00">Eigen/Dense</text>
</a>
</g>
</g>
<!-- Node3&#45;&gt;Node23 -->
<g id="edge26_Node000003_Node000023" class="edge">
<title>Node3&#45;&gt;Node23</title>
<g id="a_edge26_Node000003_Node000023"><a xlink:title=" ">
<path fill="none" stroke="#63b8ff" d="M671.27,-285.84C666.59,-277.78 660.68,-267.62 655.7,-259.06"/>
<polygon fill="#63b8ff" stroke="#63b8ff" points="658.65,-257.15 650.59,-250.27 652.59,-260.67 658.65,-257.15"/>
</a>
</g>
</g>
<!-- Node6 -->
<g id="Node000006" class="node">
<title>Node6</title>
<g id="a_Node000006"><a xlink:href="assert_8h.html" target="_top" xlink:title=" ">
<polygon fill="white" stroke="#666666" points="684,-189.5 553,-189.5 553,-170.5 684,-170.5 684,-189.5"/>
<text text-anchor="middle" x="618.5" y="-177.5" font-family="FreeSans" font-size="10.00">mpqc/util/misc/assert.h</text>
</a>
</g>
</g>
<!-- Node5&#45;&gt;Node6 -->
<g id="edge5_Node000005_Node000006" class="edge">
<title>Node5&#45;&gt;Node6</title>
<g id="a_edge5_Node000005_Node000006"><a xlink:title=" ">
<path fill="none" stroke="#63b8ff" d="M357,-230.99C411.84,-220.51 505,-202.7 564.06,-191.41"/>
<polygon fill="#63b8ff" stroke="#63b8ff" points="564.79,-194.83 573.95,-189.52 563.47,-187.96 564.79,-194.83"/>
</a>
</g>
</g>
<!-- Node17 -->
<g id="Node000017" class="node">
<title>Node17</title>
<g id="a_Node000017"><a xlink:title=" ">
<polygon fill="#e0e0e0" stroke="#999999" points="233,-189.5 164,-189.5 164,-170.5 233,-170.5 233,-189.5"/>
<text text-anchor="middle" x="198.5" y="-177.5" font-family="FreeSans" font-size="10.00">Eigen/Core</text>
</a>
</g>
</g>
<!-- Node5&#45;&gt;Node17 -->
<g id="edge18_Node000005_Node000017" class="edge">
<title>Node5&#45;&gt;Node17</title>
<g id="a_edge18_Node000005_Node000017"><a xlink:title=" ">
<path fill="none" stroke="#63b8ff" d="M295.68,-230.87C276.9,-221.23 246.3,-205.53 224.45,-194.31"/>
<polygon fill="#63b8ff" stroke="#63b8ff" points="225.89,-191.12 215.39,-189.67 222.69,-197.35 225.89,-191.12"/>
</a>
</g>
</g>
<!-- Node18 -->
<g id="Node000018" class="node">
<title>Node18</title>
<g id="a_Node000018"><a xlink:title=" ">
<polygon fill="#e0e0e0" stroke="#999999" points="373.5,-195 251.5,-195 251.5,-165 373.5,-165 373.5,-195"/>
<text text-anchor="start" x="259.5" y="-183" font-family="FreeSans" font-size="10.00">boost/container/small</text>
<text text-anchor="middle" x="312.5" y="-172" font-family="FreeSans" font-size="10.00">_vector.hpp</text>
</a>
</g>
</g>
<!-- Node5&#45;&gt;Node18 -->
<g id="edge19_Node000005_Node000018" class="edge">
<title>Node5&#45;&gt;Node18</title>
<g id="a_edge19_Node000005_Node000018"><a xlink:title=" ">
<path fill="none" stroke="#63b8ff" d="M312.5,-230.87C312.5,-224.11 312.5,-214.35 312.5,-205.26"/>
<polygon fill="#63b8ff" stroke="#63b8ff" points="316,-205.11 312.5,-195.11 309,-205.11 316,-205.11"/>
</a>
</g>
</g>
<!-- Node19 -->
<g id="Node000019" class="node">
<title>Node19</title>
<g id="a_Node000019"><a xlink:title=" ">
<polygon fill="#e0e0e0" stroke="#999999" points="535,-195 392,-195 392,-165 535,-165 535,-195"/>
<text text-anchor="start" x="400" y="-183" font-family="FreeSans" font-size="10.00">boost/numeric/conversion</text>
<text text-anchor="middle" x="463.5" y="-172" font-family="FreeSans" font-size="10.00">/cast.hpp</text>
</a>
</g>
</g>
<!-- Node5&#45;&gt;Node19 -->
<g id="edge20_Node000005_Node000019" class="edge">
<title>Node5&#45;&gt;Node19</title>
<g id="a_edge20_Node000005_Node000019"><a xlink:title=" ">
<path fill="none" stroke="#63b8ff" d="M334.46,-230.99C356.19,-222.57 390.11,-209.43 417.72,-198.73"/>
<polygon fill="#63b8ff" stroke="#63b8ff" points="419.14,-201.94 427.2,-195.06 416.61,-195.41 419.14,-201.94"/>
</a>
</g>
</g>
<!-- Node20 -->
<g id="Node000020" class="node">
<title>Node20</title>
<g id="a_Node000020"><a xlink:title=" ">
<polygon fill="#e0e0e0" stroke="#999999" points="59,-189.5 0,-189.5 0,-170.5 59,-170.5 59,-189.5"/>
<text text-anchor="middle" x="29.5" y="-177.5" font-family="FreeSans" font-size="10.00">complex</text>
</a>
</g>
</g>
<!-- Node5&#45;&gt;Node20 -->
<g id="edge21_Node000005_Node000020" class="edge">
<title>Node5&#45;&gt;Node20</title>
<g id="a_edge21_Node000005_Node000020"><a xlink:title=" ">
<path fill="none" stroke="#63b8ff" d="M248.63,-231C198.79,-223.63 128.08,-211.53 67.5,-195 65.07,-194.34 62.57,-193.58 60.07,-192.78"/>
<polygon fill="#63b8ff" stroke="#63b8ff" points="61.19,-189.46 50.59,-189.51 58.9,-196.08 61.19,-189.46"/>
</a>
</g>
</g>
<!-- Node21 -->
<g id="Node000021" class="node">
<title>Node21</title>
<g id="a_Node000021"><a xlink:title=" ">
<polygon fill="#e0e0e0" stroke="#999999" points="146,-189.5 77,-189.5 77,-170.5 146,-170.5 146,-189.5"/>
<text text-anchor="middle" x="111.5" y="-177.5" font-family="FreeSans" font-size="10.00">type_traits</text>
</a>
</g>
</g>
<!-- Node5&#45;&gt;Node21 -->
<g id="edge22_Node000005_Node000021" class="edge">
<title>Node5&#45;&gt;Node21</title>
<g id="a_edge22_Node000005_Node000021"><a xlink:title=" ">
<path fill="none" stroke="#63b8ff" d="M280.61,-230.92C248.62,-222.23 198,-208.2 154.5,-195 152.07,-194.26 149.56,-193.49 147.04,-192.7"/>
<polygon fill="#63b8ff" stroke="#63b8ff" points="147.96,-189.31 137.37,-189.61 145.83,-195.98 147.96,-189.31"/>
</a>
</g>
</g>
<!-- Node6&#45;&gt;Node7 -->
<g id="edge6_Node000006_Node000007" class="edge">
<title>Node6&#45;&gt;Node7</title>
<g id="a_edge6_Node000006_Node000007"><a xlink:title=" ">
<path fill="none" stroke="#63b8ff" d="M642.49,-170.49C670.72,-160.49 717.78,-143.8 749.69,-132.49"/>
<polygon fill="#63b8ff" stroke="#63b8ff" points="751.22,-135.66 759.48,-129.02 748.88,-129.06 751.22,-135.66"/>
</a>
</g>
</g>
<!-- Node8 -->
<g id="Node000008" class="node">
<title>Node8</title>
<g id="a_Node000008"><a xlink:title=" ">
<polygon fill="#e0e0e0" stroke="#999999" points="542.5,-129 490.5,-129 490.5,-110 542.5,-110 542.5,-129"/>
<text text-anchor="middle" x="516.5" y="-117" font-family="FreeSans" font-size="10.00">cassert</text>
</a>
</g>
</g>
<!-- Node6&#45;&gt;Node8 -->
<g id="edge7_Node000006_Node000008" class="edge">
<title>Node6&#45;&gt;Node8</title>
<g id="a_edge7_Node000006_Node000008"><a xlink:title=" ">
<path fill="none" stroke="#63b8ff" d="M603.45,-170.37C586.88,-160.86 560,-145.45 540.51,-134.27"/>
<polygon fill="#63b8ff" stroke="#63b8ff" points="542.03,-131.11 531.61,-129.17 538.55,-137.18 542.03,-131.11"/>
</a>
</g>
</g>
<!-- Node9 -->
<g id="Node000009" class="node">
<title>Node9</title>
<g id="a_Node000009"><a xlink:href="exception_8h.html" target="_top" xlink:title=" ">
<polygon fill="white" stroke="#666666" points="706.5,-129 560.5,-129 560.5,-110 706.5,-110 706.5,-129"/>
<text text-anchor="middle" x="633.5" y="-117" font-family="FreeSans" font-size="10.00">mpqc/util/core/exception.h</text>
</a>
</g>
</g>
<!-- Node6&#45;&gt;Node9 -->
<g id="edge8_Node000006_Node000009" class="edge">
<title>Node6&#45;&gt;Node9</title>
<g id="a_edge8_Node000006_Node000009"><a xlink:title=" ">
<path fill="none" stroke="#63b8ff" d="M620.71,-170.37C622.82,-162.16 626.05,-149.54 628.74,-139.05"/>
<polygon fill="#63b8ff" stroke="#63b8ff" points="632.18,-139.72 631.28,-129.17 625.4,-137.98 632.18,-139.72"/>
</a>
</g>
</g>
<!-- Node10 -->
<g id="Node000010" class="node">
<title>Node10</title>
<g id="a_Node000010"><a xlink:title=" ">
<polygon fill="#e0e0e0" stroke="#999999" points="586,-74 533,-74 533,-55 586,-55 586,-74"/>
<text text-anchor="middle" x="559.5" y="-62" font-family="FreeSans" font-size="10.00">string.h</text>
</a>
</g>
</g>
<!-- Node9&#45;&gt;Node10 -->
<g id="edge9_Node000009_Node000010" class="edge">
<title>Node9&#45;&gt;Node10</title>
<g id="a_edge9_Node000009_Node000010"><a xlink:title=" ">
<path fill="none" stroke="#63b8ff" d="M621.61,-109.98C610.35,-101.92 593.21,-89.65 579.79,-80.03"/>
<polygon fill="#63b8ff" stroke="#63b8ff" points="581.77,-77.15 571.61,-74.17 577.7,-82.84 581.77,-77.15"/>
</a>
</g>
</g>
<!-- Node11 -->
<g id="Node000011" class="node">
<title>Node11</title>
<g id="a_Node000011"><a xlink:href="memory.html" target="_top" xlink:title=" ">
<polygon fill="white" stroke="#666666" points="662.5,-74 604.5,-74 604.5,-55 662.5,-55 662.5,-74"/>
<text text-anchor="middle" x="633.5" y="-62" font-family="FreeSans" font-size="10.00">memory</text>
</a>
</g>
</g>
<!-- Node9&#45;&gt;Node11 -->
<g id="edge10_Node000009_Node000011" class="edge">
<title>Node9&#45;&gt;Node11</title>
<g id="a_edge10_Node000009_Node000011"><a xlink:title=" ">
<path fill="none" stroke="#63b8ff" d="M633.5,-109.75C633.5,-102.8 633.5,-92.85 633.5,-84.13"/>
<polygon fill="#63b8ff" stroke="#63b8ff" points="637,-84.09 633.5,-74.09 630,-84.09 637,-84.09"/>
</a>
</g>
</g>
<!-- Node12 -->
<g id="Node000012" class="node">
<title>Node12</title>
<g id="a_Node000012"><a xlink:title=" ">
<polygon fill="#e0e0e0" stroke="#999999" points="754.5,-74 698.5,-74 698.5,-55 754.5,-55 754.5,-74"/>
<text text-anchor="middle" x="726.5" y="-62" font-family="FreeSans" font-size="10.00">sstream</text>
</a>
</g>
</g>
<!-- Node9&#45;&gt;Node12 -->
<g id="edge12_Node000009_Node000012" class="edge">
<title>Node9&#45;&gt;Node12</title>
<g id="a_edge12_Node000009_Node000012"><a xlink:title=" ">
<path fill="none" stroke="#63b8ff" d="M648.44,-109.98C663,-101.69 685.37,-88.94 702.43,-79.22"/>
<polygon fill="#63b8ff" stroke="#63b8ff" points="704.33,-82.16 711.29,-74.17 700.86,-76.08 704.33,-82.16"/>
</a>
</g>
</g>
<!-- Node13 -->
<g id="Node000013" class="node">
<title>Node13</title>
<g id="a_Node000013"><a xlink:title=" ">
<polygon fill="#e0e0e0" stroke="#999999" points="838,-74 773,-74 773,-55 838,-55 838,-74"/>
<text text-anchor="middle" x="805.5" y="-62" font-family="FreeSans" font-size="10.00">stdexcept</text>
</a>
</g>
</g>
<!-- Node9&#45;&gt;Node13 -->
<g id="edge13_Node000009_Node000013" class="edge">
<title>Node9&#45;&gt;Node13</title>
<g id="a_edge13_Node000009_Node000013"><a xlink:title=" ">
<path fill="none" stroke="#63b8ff" d="M661.13,-109.98C690.01,-101.09 735.51,-87.07 767.7,-77.15"/>
<polygon fill="#63b8ff" stroke="#63b8ff" points="769.12,-80.37 777.65,-74.08 767.06,-73.68 769.12,-80.37"/>
</a>
</g>
</g>
<!-- Node14 -->
<g id="Node000014" class="node">
<title>Node14</title>
<g id="a_Node000014"><a xlink:title=" ">
<polygon fill="#e0e0e0" stroke="#999999" points="890,-19 843,-19 843,0 890,0 890,-19"/>
<text text-anchor="middle" x="866.5" y="-7" font-family="FreeSans" font-size="10.00">vector</text>
</a>
</g>
</g>
<!-- Node9&#45;&gt;Node14 -->
<g id="edge14_Node000009_Node000014" class="edge">
<title>Node9&#45;&gt;Node14</title>
<g id="a_edge14_Node000009_Node000014"><a xlink:title=" ">
<path fill="none" stroke="#63b8ff" d="M706.63,-111.13C759.88,-104.34 826.09,-92.48 846.5,-74 858.94,-62.74 863.7,-43.82 865.49,-29.56"/>
<polygon fill="#63b8ff" stroke="#63b8ff" points="869,-29.62 866.38,-19.36 862.03,-29.01 869,-29.62"/>
</a>
</g>
</g>
<!-- Node15 -->
<g id="Node000015" class="node">
<title>Node15</title>
<g id="a_Node000015"><a xlink:href="backtrace_8h.html" target="_top" xlink:title=" ">
<polygon fill="white" stroke="#666666" points="514.5,-74 368.5,-74 368.5,-55 514.5,-55 514.5,-74"/>
<text text-anchor="middle" x="441.5" y="-62" font-family="FreeSans" font-size="10.00">mpqc/util/core/backtrace.h</text>
</a>
</g>
</g>
<!-- Node9&#45;&gt;Node15 -->
<g id="edge15_Node000009_Node000015" class="edge">
<title>Node9&#45;&gt;Node15</title>
<g id="a_edge15_Node000009_Node000015"><a xlink:title=" ">
<path fill="none" stroke="#63b8ff" d="M602.65,-109.98C570,-100.97 518.3,-86.7 482.3,-76.76"/>
<polygon fill="#63b8ff" stroke="#63b8ff" points="483.16,-73.37 472.59,-74.08 481.3,-80.12 483.16,-73.37"/>
</a>
</g>
</g>
<!-- Node11&#45;&gt;Node11 -->
<g id="edge11_Node000011_Node000011" class="edge">
<title>Node11&#45;&gt;Node11</title>
<g id="a_edge11_Node000011_Node000011"><a xlink:title=" ">
<path fill="none" stroke="#63b8ff" d="M655.74,-74.07C668.56,-76.02 680.5,-72.83 680.5,-64.5 680.5,-58.45 674.2,-55.11 665.84,-54.48"/>
<polygon fill="#63b8ff" stroke="#63b8ff" points="665.58,-50.99 655.74,-54.93 665.89,-57.98 665.58,-50.99"/>
</a>
</g>
</g>
<!-- Node15&#45;&gt;Node14 -->
<g id="edge17_Node000015_Node000014" class="edge">
<title>Node15&#45;&gt;Node14</title>
<g id="a_edge17_Node000015_Node000014"><a xlink:title=" ">
<path fill="none" stroke="#63b8ff" d="M509.78,-54.98C602.18,-43.46 763.46,-23.35 833.01,-14.68"/>
<polygon fill="#63b8ff" stroke="#63b8ff" points="833.48,-18.14 842.97,-13.43 832.62,-11.2 833.48,-18.14"/>
</a>
</g>
</g>
<!-- Node16 -->
<g id="Node000016" class="node">
<title>Node16</title>
<g id="a_Node000016"><a xlink:title=" ">
<polygon fill="#e0e0e0" stroke="#999999" points="463.5,-19 419.5,-19 419.5,0 463.5,0 463.5,-19"/>
<text text-anchor="middle" x="441.5" y="-7" font-family="FreeSans" font-size="10.00">string</text>
</a>
</g>
</g>
<!-- Node15&#45;&gt;Node16 -->
<g id="edge16_Node000015_Node000016" class="edge">
<title>Node15&#45;&gt;Node16</title>
<g id="a_edge16_Node000015_Node000016"><a xlink:title=" ">
<path fill="none" stroke="#63b8ff" d="M441.5,-54.75C441.5,-47.8 441.5,-37.85 441.5,-29.13"/>
<polygon fill="#63b8ff" stroke="#63b8ff" points="445,-29.09 441.5,-19.09 438,-29.09 445,-29.09"/>
</a>
</g>
</g>
<!-- Node22&#45;&gt;Node7 -->
<g id="edge25_Node000022_Node000007" class="edge">
<title>Node22&#45;&gt;Node7</title>
<g id="a_edge25_Node000022_Node000007"><a xlink:title=" ">
<path fill="none" stroke="#63b8ff" d="M794.87,-164.84C792.89,-157.13 790.42,-147.49 788.29,-139.17"/>
<polygon fill="#63b8ff" stroke="#63b8ff" points="791.62,-138.08 785.75,-129.27 784.84,-139.82 791.62,-138.08"/>
</a>
</g>
</g>
<!-- Node24&#45;&gt;Node2 -->
<g id="edge28_Node000024_Node000002" class="edge">
<title>Node24&#45;&gt;Node2</title>
<g id="a_edge28_Node000024_Node000002"><a xlink:title=" ">
<path fill="none" stroke="#63b8ff" d="M902.47,-285.84C888.23,-276.68 869.77,-264.82 855.53,-255.66"/>
<polygon fill="#63b8ff" stroke="#63b8ff" points="857.17,-252.56 846.87,-250.09 853.39,-258.45 857.17,-252.56"/>
</a>
</g>
</g>
<!-- Node24&#45;&gt;Node6 -->
<g id="edge32_Node000024_Node000006" class="edge">
<title>Node24&#45;&gt;Node6</title>
<g id="a_edge32_Node000024_Node000006"><a xlink:title=" ">
<path fill="none" stroke="#63b8ff" d="M922.83,-286C920.15,-270.12 913.37,-244.68 896.5,-231 880.87,-218.32 771.01,-201.35 694.17,-190.8"/>
<polygon fill="#63b8ff" stroke="#63b8ff" points="694.41,-187.3 684.03,-189.42 693.47,-194.23 694.41,-187.3"/>
</a>
</g>
</g>
<!-- Node24&#45;&gt;Node14 -->
<g id="edge31_Node000024_Node000014" class="edge">
<title>Node24&#45;&gt;Node14</title>
<g id="a_edge31_Node000024_Node000014"><a xlink:title=" ">
<path fill="none" stroke="#63b8ff" d="M964.33,-285.81C981.71,-277.77 1000.94,-266.05 1013.5,-250 1033.1,-224.95 1032.5,-212.81 1032.5,-181 1032.5,-181 1032.5,-181 1032.5,-118.5 1032.5,-56.04 948.9,-27.84 900.36,-16.73"/>
<polygon fill="#63b8ff" stroke="#63b8ff" points="900.8,-13.24 890.28,-14.55 899.32,-20.09 900.8,-13.24"/>
</a>
</g>
</g>
<!-- Node25 -->
<g id="Node000025" class="node">
<title>Node25</title>
<g id="a_Node000025"><a xlink:title=" ">
<polygon fill="#e0e0e0" stroke="#999999" points="1156,-250 1061,-250 1061,-231 1156,-231 1156,-250"/>
<text text-anchor="middle" x="1108.5" y="-238" font-family="FreeSans" font-size="10.00">tiledarray_fwd.h</text>
</a>
</g>
</g>
<!-- Node24&#45;&gt;Node25 -->
<g id="edge29_Node000024_Node000025" class="edge">
<title>Node24&#45;&gt;Node25</title>
<g id="a_edge29_Node000024_Node000025"><a xlink:title=" ">
<path fill="none" stroke="#63b8ff" d="M968.57,-285.99C1000.19,-275.94 1042.28,-262.55 1072.02,-253.1"/>
<polygon fill="#63b8ff" stroke="#63b8ff" points="1073.13,-256.42 1081.6,-250.05 1071.01,-249.75 1073.13,-256.42"/>
</a>
</g>
</g>
<!-- Node26 -->
<g id="Node000026" class="node">
<title>Node26</title>
<g id="a_Node000026"><a xlink:title=" ">
<polygon fill="#e0e0e0" stroke="#999999" points="1004.5,-250 944.5,-250 944.5,-231 1004.5,-231 1004.5,-250"/>
<text text-anchor="middle" x="974.5" y="-238" font-family="FreeSans" font-size="10.00">iostream</text>
</a>
</g>
</g>
<!-- Node24&#45;&gt;Node26 -->
<g id="edge30_Node000024_Node000026" class="edge">
<title>Node24&#45;&gt;Node26</title>
<g id="a_edge30_Node000024_Node000026"><a xlink:title=" ">
<path fill="none" stroke="#63b8ff" d="M936.6,-285.84C943.79,-277.43 952.93,-266.74 960.43,-257.96"/>
<polygon fill="#63b8ff" stroke="#63b8ff" points="963.17,-260.14 967.01,-250.27 957.85,-255.59 963.17,-260.14"/>
</a>
</g>
</g>
</g>
</svg>

<g id="navigator" transform="translate(0 0)" fill="#404254">
  <rect fill="#f2f5e9" fill-opacity="0.5" stroke="#606060" stroke-width=".5" x="0" y="0" width="60" height="60"/>
  <use id="zoomplus" xlink:href="#zoomPlus" x="17" y="9" onmousedown="handleZoom(evt,'in')"/>
  <use id="zoomminus" xlink:href="#zoomMin" x="42" y="9" onmousedown="handleZoom(evt,'out')"/>
  <use id="reset" xlink:href="#resetDef" x="30" y="36" onmousedown="handleReset()"/>
   <use id="arrowup" xlink:href="#arrowUp" x="0" y="0" onmousedown="handlePan(0,-1)"/>
  <use id="arrowright" xlink:href="#arrowRight" x="0" y="0" onmousedown="handlePan(1,0)"/>
  <use id="arrowdown" xlink:href="#arrowDown" x="0" y="0" onmousedown="handlePan(0,1)"/>
  <use id="arrowleft" xlink:href="#arrowLeft" x="0" y="0" onmousedown="handlePan(-1,0)"/>
</g>
<svg viewBox="0 0 15 15" width="100%" height="30px" preserveAspectRatio="xMaxYMin meet">
 <g id="arrow_out" transform="scale(0.3 0.3)">
  <a xlink:href="decomposed__tensor__algebra_8h__incl_org.svg" target="_base">
   <rect id="button" ry="5" rx="5" y="6" x="6" height="38" width="38"
        fill="#f2f5e9" fill-opacity="0.5" stroke="#606060" stroke-width="1.0"/>
   <path id="arrow"
     d="M 11.500037,31.436501 C 11.940474,20.09759 22.043105,11.32322 32.158766,21.979434 L 37.068811,17.246167 C 37.068811,17.246167 37.088388,32 37.088388,32 L 22.160133,31.978069 C 22.160133,31.978069 26.997745,27.140456 26.997745,27.140456 C 18.528582,18.264221 13.291696,25.230495 11.500037,31.436501 z"
     style="fill:#404040;"/>
  </a>
 </g>
</svg>

<style type='text/css'>
<![CDATA[
[data-mouse-over-selected='false'] { opacity: 0.7; }
[data-mouse-over-selected='true']  { opacity: 1.0; }
]]>
</style>
<script type="application/ecmascript"><![CDATA[
document.addEventListener('DOMContentLoaded', (event) => {
  highlightEdges();
  highlightAdjacentNodes();
});
]]></script>
</svg>
