<?xml version="1.0" encoding="UTF-8" standalone="no"?>
<!DOCTYPE svg PUBLIC "-//W3C//DTD SVG 1.1//EN"
 "http://www.w3.org/Graphics/SVG/1.1/DTD/svg11.dtd">
<!-- Generated by graphviz version 2.43.0 (0)
 -->
<!-- Title: mpqc/chemistry/qc/lcao/mbpt/denom.h Pages: 1 -->
<svg width="803pt" height="401pt"
 viewBox="0.00 0.00 803.00 401.00" xmlns="http://www.w3.org/2000/svg" xmlns:xlink="http://www.w3.org/1999/xlink">
<g id="graph0" class="graph" transform="scale(1 1) rotate(0) translate(4 397)">
<title>mpqc/chemistry/qc/lcao/mbpt/denom.h</title>
<!-- Node1 -->
<g id="Node000001" class="node">
<title>Node1</title>
<g id="a_Node000001"><a xlink:title=" ">
<polygon fill="#999999" stroke="#666666" points="328,-393 195,-393 195,-363 328,-363 328,-393"/>
<text text-anchor="start" x="203" y="-381" font-family="FreeSans" font-size="10.00">mpqc/chemistry/qc/lcao</text>
<text text-anchor="middle" x="261.5" y="-370" font-family="FreeSans" font-size="10.00">/mbpt/denom.h</text>
</a>
</g>
</g>
<!-- Node2 -->
<g id="Node000002" class="node">
<title>Node2</title>
<g id="a_Node000002"><a xlink:href="tiledarray_8h.html" target="_top" xlink:title=" ">
<polygon fill="white" stroke="#666666" points="134,-327 9,-327 9,-297 134,-297 134,-327"/>
<text text-anchor="start" x="17" y="-315" font-family="FreeSans" font-size="10.00">mpqc/math/external</text>
<text text-anchor="middle" x="71.5" y="-304" font-family="FreeSans" font-size="10.00">/tiledarray/tiledarray.h</text>
</a>
</g>
</g>
<!-- Node1&#45;&gt;Node2 -->
<g id="edge1_Node000001_Node000002" class="edge">
<title>Node1&#45;&gt;Node2</title>
<g id="a_edge1_Node000001_Node000002"><a xlink:title=" ">
<path fill="none" stroke="#63b8ff" d="M219.8,-362.95C191.22,-353.33 153.11,-340.49 122.69,-330.24"/>
<polygon fill="#63b8ff" stroke="#63b8ff" points="123.69,-326.89 113.1,-327.01 121.46,-333.52 123.69,-326.89"/>
</a>
</g>
</g>
<!-- Node4 -->
<g id="Node000004" class="node">
<title>Node4</title>
<g id="a_Node000004"><a xlink:href="eigen_8h.html" target="_top" xlink:title=" ">
<polygon fill="white" stroke="#666666" points="319.5,-327 203.5,-327 203.5,-297 319.5,-297 319.5,-327"/>
<text text-anchor="start" x="211.5" y="-315" font-family="FreeSans" font-size="10.00">mpqc/math/external</text>
<text text-anchor="middle" x="261.5" y="-304" font-family="FreeSans" font-size="10.00">/eigen/eigen.h</text>
</a>
</g>
</g>
<!-- Node1&#45;&gt;Node4 -->
<g id="edge4_Node000001_Node000004" class="edge">
<title>Node1&#45;&gt;Node4</title>
<g id="a_edge4_Node000001_Node000004"><a xlink:title=" ">
<path fill="none" stroke="#63b8ff" d="M261.5,-362.8C261.5,-355.34 261.5,-345.99 261.5,-337.41"/>
<polygon fill="#63b8ff" stroke="#63b8ff" points="265,-337.16 261.5,-327.16 258,-337.16 265,-337.16"/>
</a>
</g>
</g>
<!-- Node24 -->
<g id="Node000024" class="node">
<title>Node24</title>
<g id="a_Node000024"><a xlink:title=" ">
<polygon fill="#e0e0e0" stroke="#999999" points="447.5,-327 337.5,-327 337.5,-297 447.5,-297 447.5,-327"/>
<text text-anchor="start" x="345.5" y="-315" font-family="FreeSans" font-size="10.00">range/v3/algorithm</text>
<text text-anchor="middle" x="392.5" y="-304" font-family="FreeSans" font-size="10.00">/copy.hpp</text>
</a>
</g>
</g>
<!-- Node1&#45;&gt;Node24 -->
<g id="edge29_Node000001_Node000024" class="edge">
<title>Node1&#45;&gt;Node24</title>
<g id="a_edge29_Node000001_Node000024"><a xlink:title=" ">
<path fill="none" stroke="#63b8ff" d="M290.25,-362.95C309.19,-353.7 334.19,-341.49 354.73,-331.45"/>
<polygon fill="#63b8ff" stroke="#63b8ff" points="356.37,-334.55 363.82,-327.01 353.3,-328.26 356.37,-334.55"/>
</a>
</g>
</g>
<!-- Node2&#45;&gt;Node2 -->
<g id="edge2_Node000002_Node000002" class="edge">
<title>Node2&#45;&gt;Node2</title>
<g id="a_edge2_Node000002_Node000002"><a xlink:title=" ">
<path fill="none" stroke="#63b8ff" d="M134.28,-323.5C144.76,-321.89 152,-318.06 152,-312 152,-308.12 149.03,-305.15 144.14,-303.1"/>
<polygon fill="#63b8ff" stroke="#63b8ff" points="144.84,-299.66 134.28,-300.5 143.06,-306.43 144.84,-299.66"/>
</a>
</g>
</g>
<!-- Node3 -->
<g id="Node000003" class="node">
<title>Node3</title>
<g id="a_Node000003"><a xlink:title=" ">
<polygon fill="#e0e0e0" stroke="#999999" points="117,-129 0,-129 0,-110 117,-110 117,-129"/>
<text text-anchor="middle" x="58.5" y="-117" font-family="FreeSans" font-size="10.00">mpqc/mpqc_config.h</text>
</a>
</g>
</g>
<!-- Node2&#45;&gt;Node3 -->
<g id="edge3_Node000002_Node000003" class="edge">
<title>Node2&#45;&gt;Node3</title>
<g id="a_edge3_Node000002_Node000003"><a xlink:title=" ">
<path fill="none" stroke="#63b8ff" d="M55.47,-296.99C46.23,-287.81 35.49,-274.95 30.5,-261 16.13,-220.82 18.68,-206 30.5,-165 33.37,-155.06 39.18,-145.2 44.78,-137.29"/>
<polygon fill="#63b8ff" stroke="#63b8ff" points="47.58,-139.39 50.83,-129.3 42,-135.16 47.58,-139.39"/>
</a>
</g>
</g>
<!-- Node4&#45;&gt;Node3 -->
<g id="edge25_Node000004_Node000003" class="edge">
<title>Node4&#45;&gt;Node3</title>
<g id="a_edge25_Node000004_Node000003"><a xlink:title=" ">
<path fill="none" stroke="#63b8ff" d="M203.28,-303.2C153.59,-295.27 87.56,-281.25 70.5,-261 41.27,-226.3 48.07,-168.21 54.06,-138.78"/>
<polygon fill="#63b8ff" stroke="#63b8ff" points="57.47,-139.53 56.23,-129.01 50.64,-138.01 57.47,-139.53"/>
</a>
</g>
</g>
<!-- Node5 -->
<g id="Node000005" class="node">
<title>Node5</title>
<g id="a_Node000005"><a xlink:title=" ">
<polygon fill="#e0e0e0" stroke="#999999" points="489.5,-255.5 387.5,-255.5 387.5,-236.5 489.5,-236.5 489.5,-255.5"/>
<text text-anchor="middle" x="438.5" y="-243.5" font-family="FreeSans" font-size="10.00">madness/config.h</text>
</a>
</g>
</g>
<!-- Node4&#45;&gt;Node5 -->
<g id="edge5_Node000004_Node000005" class="edge">
<title>Node4&#45;&gt;Node5</title>
<g id="a_edge5_Node000004_Node000005"><a xlink:title=" ">
<path fill="none" stroke="#63b8ff" d="M300.34,-296.95C331.79,-285.58 375.62,-269.74 405.41,-258.96"/>
<polygon fill="#63b8ff" stroke="#63b8ff" points="406.73,-262.21 414.94,-255.52 404.35,-255.63 406.73,-262.21"/>
</a>
</g>
</g>
<!-- Node6 -->
<g id="Node000006" class="node">
<title>Node6</title>
<g id="a_Node000006"><a xlink:href="complex_8h.html" target="_top" xlink:title=" ">
<polygon fill="white" stroke="#666666" points="369.5,-255.5 219.5,-255.5 219.5,-236.5 369.5,-236.5 369.5,-255.5"/>
<text text-anchor="middle" x="294.5" y="-243.5" font-family="FreeSans" font-size="10.00">mpqc/math/core/complex.h</text>
</a>
</g>
</g>
<!-- Node4&#45;&gt;Node6 -->
<g id="edge6_Node000004_Node000006" class="edge">
<title>Node4&#45;&gt;Node6</title>
<g id="a_edge6_Node000004_Node000006"><a xlink:title=" ">
<path fill="none" stroke="#63b8ff" d="M268.82,-296.8C273.67,-287.41 280.05,-275.02 285.25,-264.95"/>
<polygon fill="#63b8ff" stroke="#63b8ff" points="288.47,-266.34 289.94,-255.84 282.25,-263.13 288.47,-266.34"/>
</a>
</g>
</g>
<!-- Node22 -->
<g id="Node000022" class="node">
<title>Node22</title>
<g id="a_Node000022"><a xlink:href="math_2external_2eigen_2fwd_8h.html" target="_top" xlink:title=" ">
<polygon fill="white" stroke="#666666" points="195.5,-261 79.5,-261 79.5,-231 195.5,-231 195.5,-261"/>
<text text-anchor="start" x="87.5" y="-249" font-family="FreeSans" font-size="10.00">mpqc/math/external</text>
<text text-anchor="middle" x="137.5" y="-238" font-family="FreeSans" font-size="10.00">/eigen/fwd.h</text>
</a>
</g>
</g>
<!-- Node4&#45;&gt;Node22 -->
<g id="edge26_Node000004_Node000022" class="edge">
<title>Node4&#45;&gt;Node22</title>
<g id="a_edge26_Node000004_Node000022"><a xlink:title=" ">
<path fill="none" stroke="#63b8ff" d="M234.29,-296.95C216.52,-287.78 193.12,-275.71 173.78,-265.72"/>
<polygon fill="#63b8ff" stroke="#63b8ff" points="175.14,-262.49 164.65,-261.01 171.93,-268.71 175.14,-262.49"/>
</a>
</g>
</g>
<!-- Node23 -->
<g id="Node000023" class="node">
<title>Node23</title>
<g id="a_Node000023"><a xlink:title=" ">
<polygon fill="#e0e0e0" stroke="#999999" points="585,-255.5 508,-255.5 508,-236.5 585,-236.5 585,-255.5"/>
<text text-anchor="middle" x="546.5" y="-243.5" font-family="FreeSans" font-size="10.00">Eigen/Dense</text>
</a>
</g>
</g>
<!-- Node4&#45;&gt;Node23 -->
<g id="edge28_Node000004_Node000023" class="edge">
<title>Node4&#45;&gt;Node23</title>
<g id="a_edge28_Node000004_Node000023"><a xlink:title=" ">
<path fill="none" stroke="#63b8ff" d="M319.65,-298.85C386.97,-284.76 489.78,-263.19 498.5,-261 501.89,-260.15 505.39,-259.22 508.9,-258.26"/>
<polygon fill="#63b8ff" stroke="#63b8ff" points="510,-261.59 518.68,-255.5 508.1,-254.85 510,-261.59"/>
</a>
</g>
</g>
<!-- Node7 -->
<g id="Node000007" class="node">
<title>Node7</title>
<g id="a_Node000007"><a xlink:href="assert_8h.html" target="_top" xlink:title=" ">
<polygon fill="white" stroke="#666666" points="242,-189.5 111,-189.5 111,-170.5 242,-170.5 242,-189.5"/>
<text text-anchor="middle" x="176.5" y="-177.5" font-family="FreeSans" font-size="10.00">mpqc/util/misc/assert.h</text>
</a>
</g>
</g>
<!-- Node6&#45;&gt;Node7 -->
<g id="edge7_Node000006_Node000007" class="edge">
<title>Node6&#45;&gt;Node7</title>
<g id="a_edge7_Node000006_Node000007"><a xlink:title=" ">
<path fill="none" stroke="#63b8ff" d="M278.59,-236.37C258.79,-225.63 224.77,-207.18 201.49,-194.55"/>
<polygon fill="#63b8ff" stroke="#63b8ff" points="203,-191.39 192.54,-189.7 199.66,-197.54 203,-191.39"/>
</a>
</g>
</g>
<!-- Node17 -->
<g id="Node000017" class="node">
<title>Node17</title>
<g id="a_Node000017"><a xlink:title=" ">
<polygon fill="#e0e0e0" stroke="#999999" points="329,-189.5 260,-189.5 260,-170.5 329,-170.5 329,-189.5"/>
<text text-anchor="middle" x="294.5" y="-177.5" font-family="FreeSans" font-size="10.00">Eigen/Core</text>
</a>
</g>
</g>
<!-- Node6&#45;&gt;Node17 -->
<g id="edge20_Node000006_Node000017" class="edge">
<title>Node6&#45;&gt;Node17</title>
<g id="a_edge20_Node000006_Node000017"><a xlink:title=" ">
<path fill="none" stroke="#63b8ff" d="M294.5,-236.37C294.5,-227.16 294.5,-212.29 294.5,-200.27"/>
<polygon fill="#63b8ff" stroke="#63b8ff" points="298,-199.91 294.5,-189.91 291,-199.91 298,-199.91"/>
</a>
</g>
</g>
<!-- Node18 -->
<g id="Node000018" class="node">
<title>Node18</title>
<g id="a_Node000018"><a xlink:title=" ">
<polygon fill="#e0e0e0" stroke="#999999" points="469.5,-195 347.5,-195 347.5,-165 469.5,-165 469.5,-195"/>
<text text-anchor="start" x="355.5" y="-183" font-family="FreeSans" font-size="10.00">boost/container/small</text>
<text text-anchor="middle" x="408.5" y="-172" font-family="FreeSans" font-size="10.00">_vector.hpp</text>
</a>
</g>
</g>
<!-- Node6&#45;&gt;Node18 -->
<g id="edge21_Node000006_Node000018" class="edge">
<title>Node6&#45;&gt;Node18</title>
<g id="a_edge21_Node000006_Node000018"><a xlink:title=" ">
<path fill="none" stroke="#63b8ff" d="M309.87,-236.37C326.36,-227.11 353.06,-212.12 374.52,-200.07"/>
<polygon fill="#63b8ff" stroke="#63b8ff" points="376.35,-203.06 383.36,-195.12 372.92,-196.96 376.35,-203.06"/>
</a>
</g>
</g>
<!-- Node19 -->
<g id="Node000019" class="node">
<title>Node19</title>
<g id="a_Node000019"><a xlink:title=" ">
<polygon fill="#e0e0e0" stroke="#999999" points="631,-195 488,-195 488,-165 631,-165 631,-195"/>
<text text-anchor="start" x="496" y="-183" font-family="FreeSans" font-size="10.00">boost/numeric/conversion</text>
<text text-anchor="middle" x="559.5" y="-172" font-family="FreeSans" font-size="10.00">/cast.hpp</text>
</a>
</g>
</g>
<!-- Node6&#45;&gt;Node19 -->
<g id="edge22_Node000006_Node000019" class="edge">
<title>Node6&#45;&gt;Node19</title>
<g id="a_edge22_Node000006_Node000019"><a xlink:title=" ">
<path fill="none" stroke="#63b8ff" d="M329.96,-236.44C371.17,-226.48 440.09,-209.84 491.68,-197.38"/>
<polygon fill="#63b8ff" stroke="#63b8ff" points="492.53,-200.77 501.43,-195.02 490.89,-193.97 492.53,-200.77"/>
</a>
</g>
</g>
<!-- Node20 -->
<g id="Node000020" class="node">
<title>Node20</title>
<g id="a_Node000020"><a xlink:title=" ">
<polygon fill="#e0e0e0" stroke="#999999" points="708,-189.5 649,-189.5 649,-170.5 708,-170.5 708,-189.5"/>
<text text-anchor="middle" x="678.5" y="-177.5" font-family="FreeSans" font-size="10.00">complex</text>
</a>
</g>
</g>
<!-- Node6&#45;&gt;Node20 -->
<g id="edge23_Node000006_Node000020" class="edge">
<title>Node6&#45;&gt;Node20</title>
<g id="a_edge23_Node000006_Node000020"><a xlink:title=" ">
<path fill="none" stroke="#63b8ff" d="M344.21,-236.47C355.48,-234.61 367.39,-232.69 378.5,-231 494.7,-213.34 526.46,-223.48 640.5,-195 643.01,-194.37 645.58,-193.64 648.14,-192.84"/>
<polygon fill="#63b8ff" stroke="#63b8ff" points="649.51,-196.07 657.85,-189.53 647.25,-189.44 649.51,-196.07"/>
</a>
</g>
</g>
<!-- Node21 -->
<g id="Node000021" class="node">
<title>Node21</title>
<g id="a_Node000021"><a xlink:title=" ">
<polygon fill="#e0e0e0" stroke="#999999" points="795,-189.5 726,-189.5 726,-170.5 795,-170.5 795,-189.5"/>
<text text-anchor="middle" x="760.5" y="-177.5" font-family="FreeSans" font-size="10.00">type_traits</text>
</a>
</g>
</g>
<!-- Node6&#45;&gt;Node21 -->
<g id="edge24_Node000006_Node000021" class="edge">
<title>Node6&#45;&gt;Node21</title>
<g id="a_edge24_Node000006_Node000021"><a xlink:title=" ">
<path fill="none" stroke="#63b8ff" d="M342.84,-236.44C354.5,-234.51 366.93,-232.58 378.5,-231 528.63,-210.54 569.32,-226.63 717.5,-195 720.72,-194.31 724.05,-193.47 727.35,-192.55"/>
<polygon fill="#63b8ff" stroke="#63b8ff" points="728.53,-195.85 737.09,-189.6 726.5,-189.15 728.53,-195.85"/>
</a>
</g>
</g>
<!-- Node7&#45;&gt;Node3 -->
<g id="edge8_Node000007_Node000003" class="edge">
<title>Node7&#45;&gt;Node3</title>
<g id="a_edge8_Node000007_Node000003"><a xlink:title=" ">
<path fill="none" stroke="#63b8ff" d="M159.34,-170.49C139.77,-160.79 107.53,-144.81 84.78,-133.53"/>
<polygon fill="#63b8ff" stroke="#63b8ff" points="86.19,-130.32 75.68,-129.02 83.08,-136.59 86.19,-130.32"/>
</a>
</g>
</g>
<!-- Node8 -->
<g id="Node000008" class="node">
<title>Node8</title>
<g id="a_Node000008"><a xlink:title=" ">
<polygon fill="#e0e0e0" stroke="#999999" points="194.5,-129 142.5,-129 142.5,-110 194.5,-110 194.5,-129"/>
<text text-anchor="middle" x="168.5" y="-117" font-family="FreeSans" font-size="10.00">cassert</text>
</a>
</g>
</g>
<!-- Node7&#45;&gt;Node8 -->
<g id="edge9_Node000007_Node000008" class="edge">
<title>Node7&#45;&gt;Node8</title>
<g id="a_edge9_Node000007_Node000008"><a xlink:title=" ">
<path fill="none" stroke="#63b8ff" d="M175.32,-170.37C174.21,-162.25 172.51,-149.81 171.08,-139.39"/>
<polygon fill="#63b8ff" stroke="#63b8ff" points="174.51,-138.6 169.69,-129.17 167.57,-139.55 174.51,-138.6"/>
</a>
</g>
</g>
<!-- Node9 -->
<g id="Node000009" class="node">
<title>Node9</title>
<g id="a_Node000009"><a xlink:href="exception_8h.html" target="_top" xlink:title=" ">
<polygon fill="white" stroke="#666666" points="358.5,-129 212.5,-129 212.5,-110 358.5,-110 358.5,-129"/>
<text text-anchor="middle" x="285.5" y="-117" font-family="FreeSans" font-size="10.00">mpqc/util/core/exception.h</text>
</a>
</g>
</g>
<!-- Node7&#45;&gt;Node9 -->
<g id="edge10_Node000007_Node000009" class="edge">
<title>Node7&#45;&gt;Node9</title>
<g id="a_edge10_Node000007_Node000009"><a xlink:title=" ">
<path fill="none" stroke="#63b8ff" d="M192.58,-170.37C210.45,-160.78 239.54,-145.17 260.41,-133.97"/>
<polygon fill="#63b8ff" stroke="#63b8ff" points="262.19,-136.98 269.35,-129.17 258.88,-130.81 262.19,-136.98"/>
</a>
</g>
</g>
<!-- Node10 -->
<g id="Node000010" class="node">
<title>Node10</title>
<g id="a_Node000010"><a xlink:title=" ">
<polygon fill="#e0e0e0" stroke="#999999" points="106,-74 53,-74 53,-55 106,-55 106,-74"/>
<text text-anchor="middle" x="79.5" y="-62" font-family="FreeSans" font-size="10.00">string.h</text>
</a>
</g>
</g>
<!-- Node9&#45;&gt;Node10 -->
<g id="edge11_Node000009_Node000010" class="edge">
<title>Node9&#45;&gt;Node10</title>
<g id="a_edge11_Node000009_Node000010"><a xlink:title=" ">
<path fill="none" stroke="#63b8ff" d="M252.4,-109.98C215.13,-100.4 154.74,-84.86 116.09,-74.91"/>
<polygon fill="#63b8ff" stroke="#63b8ff" points="116.84,-71.49 106.28,-72.39 115.09,-78.27 116.84,-71.49"/>
</a>
</g>
</g>
<!-- Node11 -->
<g id="Node000011" class="node">
<title>Node11</title>
<g id="a_Node000011"><a xlink:href="memory.html" target="_top" xlink:title=" ">
<polygon fill="white" stroke="#666666" points="182.5,-74 124.5,-74 124.5,-55 182.5,-55 182.5,-74"/>
<text text-anchor="middle" x="153.5" y="-62" font-family="FreeSans" font-size="10.00">memory</text>
</a>
</g>
</g>
<!-- Node9&#45;&gt;Node11 -->
<g id="edge12_Node000009_Node000011" class="edge">
<title>Node9&#45;&gt;Node11</title>
<g id="a_edge12_Node000009_Node000011"><a xlink:title=" ">
<path fill="none" stroke="#63b8ff" d="M264.29,-109.98C242.77,-101.34 209.22,-87.87 184.67,-78.02"/>
<polygon fill="#63b8ff" stroke="#63b8ff" points="185.68,-74.65 175.09,-74.17 183.07,-81.14 185.68,-74.65"/>
</a>
</g>
</g>
<!-- Node12 -->
<g id="Node000012" class="node">
<title>Node12</title>
<g id="a_Node000012"><a xlink:title=" ">
<polygon fill="#e0e0e0" stroke="#999999" points="274.5,-74 218.5,-74 218.5,-55 274.5,-55 274.5,-74"/>
<text text-anchor="middle" x="246.5" y="-62" font-family="FreeSans" font-size="10.00">sstream</text>
</a>
</g>
</g>
<!-- Node9&#45;&gt;Node12 -->
<g id="edge14_Node000009_Node000012" class="edge">
<title>Node9&#45;&gt;Node12</title>
<g id="a_edge14_Node000009_Node000012"><a xlink:title=" ">
<path fill="none" stroke="#63b8ff" d="M279.06,-109.75C273.61,-102.34 265.64,-91.5 258.94,-82.41"/>
<polygon fill="#63b8ff" stroke="#63b8ff" points="261.57,-80.07 252.82,-74.09 255.93,-84.22 261.57,-80.07"/>
</a>
</g>
</g>
<!-- Node13 -->
<g id="Node000013" class="node">
<title>Node13</title>
<g id="a_Node000013"><a xlink:title=" ">
<polygon fill="#e0e0e0" stroke="#999999" points="358,-74 293,-74 293,-55 358,-55 358,-74"/>
<text text-anchor="middle" x="325.5" y="-62" font-family="FreeSans" font-size="10.00">stdexcept</text>
</a>
</g>
</g>
<!-- Node9&#45;&gt;Node13 -->
<g id="edge15_Node000009_Node000013" class="edge">
<title>Node9&#45;&gt;Node13</title>
<g id="a_edge15_Node000009_Node000013"><a xlink:title=" ">
<path fill="none" stroke="#63b8ff" d="M292.11,-109.75C297.76,-102.26 306.04,-91.28 312.95,-82.13"/>
<polygon fill="#63b8ff" stroke="#63b8ff" points="315.79,-84.18 319.02,-74.09 310.2,-79.96 315.79,-84.18"/>
</a>
</g>
</g>
<!-- Node14 -->
<g id="Node000014" class="node">
<title>Node14</title>
<g id="a_Node000014"><a xlink:title=" ">
<polygon fill="#e0e0e0" stroke="#999999" points="429,-19 382,-19 382,0 429,0 429,-19"/>
<text text-anchor="middle" x="405.5" y="-7" font-family="FreeSans" font-size="10.00">vector</text>
</a>
</g>
</g>
<!-- Node9&#45;&gt;Node14 -->
<g id="edge16_Node000009_Node000014" class="edge">
<title>Node9&#45;&gt;Node14</title>
<g id="a_edge16_Node000009_Node000014"><a xlink:title=" ">
<path fill="none" stroke="#63b8ff" d="M308.45,-109.98C326.16,-102.54 350.43,-90.37 367.5,-74 380.95,-61.1 391.36,-42.44 397.85,-28.68"/>
<polygon fill="#63b8ff" stroke="#63b8ff" points="401.16,-29.85 402.04,-19.29 394.77,-27 401.16,-29.85"/>
</a>
</g>
</g>
<!-- Node15 -->
<g id="Node000015" class="node">
<title>Node15</title>
<g id="a_Node000015"><a xlink:href="backtrace_8h.html" target="_top" xlink:title=" ">
<polygon fill="white" stroke="#666666" points="560.5,-74 414.5,-74 414.5,-55 560.5,-55 560.5,-74"/>
<text text-anchor="middle" x="487.5" y="-62" font-family="FreeSans" font-size="10.00">mpqc/util/core/backtrace.h</text>
</a>
</g>
</g>
<!-- Node9&#45;&gt;Node15 -->
<g id="edge17_Node000009_Node000015" class="edge">
<title>Node9&#45;&gt;Node15</title>
<g id="a_edge17_Node000009_Node000015"><a xlink:title=" ">
<path fill="none" stroke="#63b8ff" d="M317.95,-109.98C352.46,-100.93 407.16,-86.58 445.06,-76.64"/>
<polygon fill="#63b8ff" stroke="#63b8ff" points="446.01,-80.01 454.79,-74.08 444.23,-73.23 446.01,-80.01"/>
</a>
</g>
</g>
<!-- Node11&#45;&gt;Node11 -->
<g id="edge13_Node000011_Node000011" class="edge">
<title>Node11&#45;&gt;Node11</title>
<g id="a_edge13_Node000011_Node000011"><a xlink:title=" ">
<path fill="none" stroke="#63b8ff" d="M175.74,-74.07C188.56,-76.02 200.5,-72.83 200.5,-64.5 200.5,-58.45 194.2,-55.11 185.84,-54.48"/>
<polygon fill="#63b8ff" stroke="#63b8ff" points="185.58,-50.99 175.74,-54.93 185.89,-57.98 185.58,-50.99"/>
</a>
</g>
</g>
<!-- Node15&#45;&gt;Node14 -->
<g id="edge19_Node000015_Node000014" class="edge">
<title>Node15&#45;&gt;Node14</title>
<g id="a_edge19_Node000015_Node000014"><a xlink:title=" ">
<path fill="none" stroke="#63b8ff" d="M474.33,-54.98C461.73,-46.84 442.5,-34.41 427.56,-24.76"/>
<polygon fill="#63b8ff" stroke="#63b8ff" points="429.21,-21.66 418.91,-19.17 425.41,-27.54 429.21,-21.66"/>
</a>
</g>
</g>
<!-- Node16 -->
<g id="Node000016" class="node">
<title>Node16</title>
<g id="a_Node000016"><a xlink:title=" ">
<polygon fill="#e0e0e0" stroke="#999999" points="509.5,-19 465.5,-19 465.5,0 509.5,0 509.5,-19"/>
<text text-anchor="middle" x="487.5" y="-7" font-family="FreeSans" font-size="10.00">string</text>
</a>
</g>
</g>
<!-- Node15&#45;&gt;Node16 -->
<g id="edge18_Node000015_Node000016" class="edge">
<title>Node15&#45;&gt;Node16</title>
<g id="a_edge18_Node000015_Node000016"><a xlink:title=" ">
<path fill="none" stroke="#63b8ff" d="M487.5,-54.75C487.5,-47.8 487.5,-37.85 487.5,-29.13"/>
<polygon fill="#63b8ff" stroke="#63b8ff" points="491,-29.09 487.5,-19.09 484,-29.09 491,-29.09"/>
</a>
</g>
</g>
<!-- Node22&#45;&gt;Node3 -->
<g id="edge27_Node000022_Node000003" class="edge">
<title>Node22&#45;&gt;Node3</title>
<g id="a_edge27_Node000022_Node000003"><a xlink:title=" ">
<path fill="none" stroke="#63b8ff" d="M126.71,-230.83C119.35,-220.96 109.51,-207.4 101.5,-195 89.27,-176.07 76.51,-153.56 68.1,-138.28"/>
<polygon fill="#63b8ff" stroke="#63b8ff" points="71.11,-136.49 63.25,-129.39 64.97,-139.84 71.11,-136.49"/>
</a>
</g>
</g>
</g>
</svg>
