<?xml version="1.0" encoding="UTF-8" standalone="no"?>
<!DOCTYPE svg PUBLIC "-//W3C//DTD SVG 1.1//EN"
 "http://www.w3.org/Graphics/SVG/1.1/DTD/svg11.dtd">
<!-- Generated by graphviz version 2.43.0 (0)
 -->
<!-- Title: mpqc/chemistry/qc/lcao/scf/density_builder.h Pages: 1 -->
<!--zoomable 467 -->

<svg id="main" version="1.1" xmlns="http://www.w3.org/2000/svg" xmlns:xlink="http://www.w3.org/1999/xlink" xml:space="preserve" onload="init(evt)">
<style type="text/css"><![CDATA[
.node, .edge {opacity: 0.7;}
.node.selected, .edge.selected {opacity: 1;}
.edge:hover path { stroke: red; }
.edge:hover polygon { stroke: red; fill: red; }
]]></style>

<defs>
  <circle id="rim" cx="0" cy="0" r="7"/>
  <circle id="rim2" cx="0" cy="0" r="3.5"/>
  <g id="zoomPlus">
    <use xlink:href="#rim" fill="#404040"><set attributeName="fill" to="#808080" begin="zoomplus.mouseover" end="zoomplus.mouseout"/></use>
    <path d="M-4,0h8M0,-4v8" fill="none" stroke="white" stroke-width="1.5" pointer-events="none"/>
  </g>
  <g id="zoomMin">
    <use xlink:href="#rim" fill="#404040"><set attributeName="fill" to="#808080" begin="zoomminus.mouseover" end="zoomminus.mouseout"/></use>
    <path d="M-4,0h8" fill="none" stroke="white" stroke-width="1.5" pointer-events="none"/>
  </g>
  <g id="arrowUp" transform="translate(30 24)">
    <use xlink:href="#rim"/>
    <path pointer-events="none" fill="none" stroke="white" stroke-width="1.5" d="M0,-3.0v7 M-2.5,-0.5L0,-3.0L2.5,-0.5"/>
  </g>
  <g id="arrowRight" transform="rotate(90) translate(36 -43)">
    <use xlink:href="#rim"/>
    <path pointer-events="none" fill="none" stroke="white" stroke-width="1.5" d="M0,-3.0v7 M-2.5,-0.5L0,-3.0L2.5,-0.5"/>
  </g>
  <g id="arrowDown" transform="rotate(180) translate(-30 -48)">
    <use xlink:href="#rim"/>
    <path pointer-events="none" fill="none" stroke="white" stroke-width="1.5" d="M0,-3.0v7 M-2.5,-0.5L0,-3.0L2.5,-0.5"/>
  </g>
  <g id="arrowLeft" transform="rotate(270) translate(-36 17)">
    <use xlink:href="#rim"/>
    <path pointer-events="none" fill="none" stroke="white" stroke-width="1.5" d="M0,-3.0v7 M-2.5,-0.5L0,-3.0L2.5,-0.5"/>
  </g>
  <g id="resetDef">
    <use xlink:href="#rim2" fill="#404040"><set attributeName="fill" to="#808080" begin="reset.mouseover" end="reset.mouseout"/></use>
  </g>
</defs>
<script type="application/ecmascript">
var viewWidth = 830;
var viewHeight = 467;
var sectionId = 'dynsection-1';
</script>
<script type="application/ecmascript" xlink:href="svg.min.js"/>
<svg id="graph" class="graph">
<g id="viewport">
<title>mpqc/chemistry/qc/lcao/scf/density_builder.h</title>
<!-- Node1 -->
<g id="Node000001" class="node">
<title>Node1</title>
<g id="a_Node000001"><a xlink:title=" ">
<polygon fill="#999999" stroke="#666666" points="622.5,-459 489.5,-459 489.5,-429 622.5,-429 622.5,-459"/>
<text text-anchor="start" x="497.5" y="-447" font-family="FreeSans" font-size="10.00">mpqc/chemistry/qc/lcao</text>
<text text-anchor="middle" x="556" y="-436" font-family="FreeSans" font-size="10.00">/scf/density_builder.h</text>
</a>
</g>
</g>
<!-- Node2 -->
<g id="Node000002" class="node">
<title>Node2</title>
<g id="a_Node000002"><a xlink:href="eigen__solve__density__builder_8h.html" target="_top" xlink:title=" ">
<polygon fill="white" stroke="#666666" points="548.5,-393 411.5,-393 411.5,-352 548.5,-352 548.5,-393"/>
<text text-anchor="start" x="419.5" y="-381" font-family="FreeSans" font-size="10.00">mpqc/chemistry/qc/lcao</text>
<text text-anchor="start" x="419.5" y="-370" font-family="FreeSans" font-size="10.00">/scf/eigen_solve_density</text>
<text text-anchor="middle" x="480" y="-359" font-family="FreeSans" font-size="10.00">_builder.h</text>
</a>
</g>
</g>
<!-- Node1&#45;&gt;Node2 -->
<g id="edge1_Node000001_Node000002" class="edge">
<title>Node1&#45;&gt;Node2</title>
<g id="a_edge1_Node000001_Node000002"><a xlink:title=" ">
<path fill="none" stroke="#63b8ff" d="M532.99,-421.96C522.95,-412.78 511.25,-402.08 501.4,-393.07"/>
<polygon fill="#63b8ff" stroke="#63b8ff" points="530.88,-424.77 540.62,-428.94 535.6,-419.6 530.88,-424.77"/>
</a>
</g>
</g>
<!-- Node19 -->
<g id="Node000019" class="node">
<title>Node19</title>
<g id="a_Node000019"><a xlink:href="purification__density__builder_8h.html" target="_top" xlink:title=" ">
<polygon fill="white" stroke="#666666" points="699.5,-393 566.5,-393 566.5,-352 699.5,-352 699.5,-393"/>
<text text-anchor="start" x="574.5" y="-381" font-family="FreeSans" font-size="10.00">mpqc/chemistry/qc/lcao</text>
<text text-anchor="start" x="574.5" y="-370" font-family="FreeSans" font-size="10.00">/scf/purification_density</text>
<text text-anchor="middle" x="633" y="-359" font-family="FreeSans" font-size="10.00">_builder.h</text>
</a>
</g>
</g>
<!-- Node1&#45;&gt;Node19 -->
<g id="edge22_Node000001_Node000019" class="edge">
<title>Node1&#45;&gt;Node19</title>
<g id="a_edge22_Node000001_Node000019"><a xlink:title=" ">
<path fill="none" stroke="#63b8ff" d="M579.01,-422.23C589.25,-412.99 601.24,-402.17 611.31,-393.07"/>
<polygon fill="#63b8ff" stroke="#63b8ff" points="576.66,-419.64 571.58,-428.94 581.35,-424.83 576.66,-419.64"/>
</a>
</g>
</g>
<!-- Node3 -->
<g id="Node000003" class="node">
<title>Node3</title>
<g id="a_Node000003"><a xlink:href="eigen__solve__density__builder_8ipp.html" target="_top" xlink:title=" ">
<polygon fill="white" stroke="#666666" points="473.5,-316 336.5,-316 336.5,-275 473.5,-275 473.5,-316"/>
<text text-anchor="start" x="344.5" y="-304" font-family="FreeSans" font-size="10.00">mpqc/chemistry/qc/lcao</text>
<text text-anchor="start" x="344.5" y="-293" font-family="FreeSans" font-size="10.00">/scf/eigen_solve_density</text>
<text text-anchor="middle" x="405" y="-282" font-family="FreeSans" font-size="10.00">_builder.ipp</text>
</a>
</g>
</g>
<!-- Node2&#45;&gt;Node3 -->
<g id="edge2_Node000002_Node000003" class="edge">
<title>Node2&#45;&gt;Node3</title>
<g id="a_edge2_Node000002_Node000003"><a xlink:title=" ">
<path fill="none" stroke="#63b8ff" d="M446.8,-344.79C436.86,-335.32 426.55,-324.84 418.56,-316.07"/>
<polygon fill="#63b8ff" stroke="#63b8ff" points="444.58,-347.51 454.27,-351.79 449.37,-342.4 444.58,-347.51"/>
</a>
</g>
</g>
<!-- Node5 -->
<g id="Node000005" class="node">
<title>Node5</title>
<g id="a_Node000005"><a xlink:href="sd_8ipp.html" target="_top" xlink:title=" ">
<polygon fill="white" stroke="#666666" points="624.5,-310.5 491.5,-310.5 491.5,-280.5 624.5,-280.5 624.5,-310.5"/>
<text text-anchor="start" x="499.5" y="-298.5" font-family="FreeSans" font-size="10.00">mpqc/chemistry/qc/lcao</text>
<text text-anchor="middle" x="558" y="-287.5" font-family="FreeSans" font-size="10.00">/scf/sd.ipp</text>
</a>
</g>
</g>
<!-- Node2&#45;&gt;Node5 -->
<g id="edge5_Node000002_Node000005" class="edge">
<title>Node2&#45;&gt;Node5</title>
<g id="a_edge5_Node000002_Node000005"><a xlink:title=" ">
<path fill="none" stroke="#63b8ff" d="M508.01,-344.57C519.85,-333.18 533.16,-320.39 543.06,-310.86"/>
<polygon fill="#63b8ff" stroke="#63b8ff" points="505.28,-342.34 500.49,-351.79 510.13,-347.39 505.28,-342.34"/>
</a>
</g>
</g>
<!-- Node3&#45;&gt;Node2 -->
<g id="edge4_Node000003_Node000002" class="edge">
<title>Node3&#45;&gt;Node2</title>
<g id="a_edge4_Node000003_Node000002"><a xlink:title=" ">
<path fill="none" stroke="#63b8ff" d="M438.05,-323.07C447.98,-332.53 458.31,-343.01 466.32,-351.79"/>
<polygon fill="#63b8ff" stroke="#63b8ff" points="440.28,-320.35 430.59,-316.07 435.49,-325.46 440.28,-320.35"/>
</a>
</g>
</g>
<!-- Node4 -->
<g id="Node000004" class="node">
<title>Node4</title>
<g id="a_Node000004"><a xlink:href="eigen__solve__density__builder_8cpp.html" target="_top" xlink:title=" ">
<polygon fill="white" stroke="#666666" points="322.5,-239 185.5,-239 185.5,-198 322.5,-198 322.5,-239"/>
<text text-anchor="start" x="193.5" y="-227" font-family="FreeSans" font-size="10.00">mpqc/chemistry/qc/lcao</text>
<text text-anchor="start" x="193.5" y="-216" font-family="FreeSans" font-size="10.00">/scf/eigen_solve_density</text>
<text text-anchor="middle" x="254" y="-205" font-family="FreeSans" font-size="10.00">_builder.cpp</text>
</a>
</g>
</g>
<!-- Node3&#45;&gt;Node4 -->
<g id="edge3_Node000003_Node000004" class="edge">
<title>Node3&#45;&gt;Node4</title>
<g id="a_edge3_Node000003_Node000004"><a xlink:title=" ">
<path fill="none" stroke="#63b8ff" d="M356.58,-270.45C336.15,-260.3 312.68,-248.64 293.34,-239.04"/>
<polygon fill="#63b8ff" stroke="#63b8ff" points="355.21,-273.68 365.72,-274.99 358.32,-267.41 355.21,-273.68"/>
</a>
</g>
</g>
<!-- Node6 -->
<g id="Node000006" class="node">
<title>Node6</title>
<g id="a_Node000006"><a xlink:href="sd_8cpp.html" target="_top" xlink:title=" ">
<polygon fill="white" stroke="#666666" points="473.5,-233.5 340.5,-233.5 340.5,-203.5 473.5,-203.5 473.5,-233.5"/>
<text text-anchor="start" x="348.5" y="-221.5" font-family="FreeSans" font-size="10.00">mpqc/chemistry/qc/lcao</text>
<text text-anchor="middle" x="407" y="-210.5" font-family="FreeSans" font-size="10.00">/scf/sd.cpp</text>
</a>
</g>
</g>
<!-- Node5&#45;&gt;Node6 -->
<g id="edge6_Node000005_Node000006" class="edge">
<title>Node5&#45;&gt;Node6</title>
<g id="a_edge6_Node000005_Node000006"><a xlink:title=" ">
<path fill="none" stroke="#63b8ff" d="M520.64,-275.94C494.23,-262.83 459.39,-245.52 435.27,-233.54"/>
<polygon fill="#63b8ff" stroke="#63b8ff" points="519.08,-279.08 529.6,-280.39 522.2,-272.81 519.08,-279.08"/>
</a>
</g>
</g>
<!-- Node7 -->
<g id="Node000007" class="node">
<title>Node7</title>
<g id="a_Node000007"><a xlink:href="sd_8h.html" target="_top" xlink:title=" ">
<polygon fill="white" stroke="#666666" points="624.5,-233.5 491.5,-233.5 491.5,-203.5 624.5,-203.5 624.5,-233.5"/>
<text text-anchor="start" x="499.5" y="-221.5" font-family="FreeSans" font-size="10.00">mpqc/chemistry/qc/lcao</text>
<text text-anchor="middle" x="558" y="-210.5" font-family="FreeSans" font-size="10.00">/scf/sd.h</text>
</a>
</g>
</g>
<!-- Node5&#45;&gt;Node7 -->
<g id="edge7_Node000005_Node000007" class="edge">
<title>Node5&#45;&gt;Node7</title>
<g id="a_edge7_Node000005_Node000007"><a xlink:title=" ">
<path fill="none" stroke="#63b8ff" d="M551.65,-270.41C550.89,-258.24 551.21,-243.9 552.6,-233.54"/>
<polygon fill="#63b8ff" stroke="#63b8ff" points="548.17,-270.76 552.59,-280.39 555.14,-270.11 548.17,-270.76"/>
</a>
</g>
</g>
<!-- Node7&#45;&gt;Node5 -->
<g id="edge19_Node000007_Node000005" class="edge">
<title>Node7&#45;&gt;Node5</title>
<g id="a_edge19_Node000007_Node000005"><a xlink:title=" ">
<path fill="none" stroke="#63b8ff" d="M564.35,-243.51C565.11,-255.68 564.79,-270.02 563.41,-280.39"/>
<polygon fill="#63b8ff" stroke="#63b8ff" points="567.83,-243.17 563.4,-233.54 560.86,-243.83 567.83,-243.17"/>
</a>
</g>
</g>
<!-- Node8 -->
<g id="Node000008" class="node">
<title>Node8</title>
<g id="a_Node000008"><a xlink:href="pao__to__pno__mp2_8ipp.html" target="_top" xlink:title=" ">
<polygon fill="white" stroke="#666666" points="314.5,-162 165.5,-162 165.5,-132 314.5,-132 314.5,-162"/>
<text text-anchor="start" x="173.5" y="-150" font-family="FreeSans" font-size="10.00">mpqc/chemistry/qc/lcao</text>
<text text-anchor="middle" x="240" y="-139" font-family="FreeSans" font-size="10.00">/mbpt/pao_to_pno_mp2.ipp</text>
</a>
</g>
</g>
<!-- Node7&#45;&gt;Node8 -->
<g id="edge8_Node000007_Node000008" class="edge">
<title>Node7&#45;&gt;Node8</title>
<g id="a_edge8_Node000007_Node000008"><a xlink:title=" ">
<path fill="none" stroke="#63b8ff" d="M494.58,-200.99C490.33,-199.96 486.11,-198.95 482,-198 425.26,-184.87 360.65,-171.6 312.47,-162.04"/>
<polygon fill="#63b8ff" stroke="#63b8ff" points="493.97,-204.44 504.52,-203.44 495.64,-197.65 493.97,-204.44"/>
</a>
</g>
</g>
<!-- Node11 -->
<g id="Node000011" class="node">
<title>Node11</title>
<g id="a_Node000011"><a xlink:href="rhf_8h.html" target="_top" xlink:title=" ">
<polygon fill="white" stroke="#666666" points="624.5,-162 491.5,-162 491.5,-132 624.5,-132 624.5,-162"/>
<text text-anchor="start" x="499.5" y="-150" font-family="FreeSans" font-size="10.00">mpqc/chemistry/qc/lcao</text>
<text text-anchor="middle" x="558" y="-139" font-family="FreeSans" font-size="10.00">/scf/rhf.h</text>
</a>
</g>
</g>
<!-- Node7&#45;&gt;Node11 -->
<g id="edge12_Node000007_Node000011" class="edge">
<title>Node7&#45;&gt;Node11</title>
<g id="a_edge12_Node000007_Node000011"><a xlink:title=" ">
<path fill="none" stroke="#63b8ff" d="M558,-193.25C558,-182.81 558,-170.99 558,-162.04"/>
<polygon fill="#63b8ff" stroke="#63b8ff" points="554.5,-193.44 558,-203.44 561.5,-193.44 554.5,-193.44"/>
</a>
</g>
</g>
<!-- Node18 -->
<g id="Node000018" class="node">
<title>Node18</title>
<g id="a_Node000018"><a xlink:href="solver_8ipp.html" target="_top" xlink:title=" ">
<polygon fill="white" stroke="#666666" points="822,-162 690,-162 690,-132 822,-132 822,-162"/>
<text text-anchor="start" x="698" y="-150" font-family="FreeSans" font-size="10.00">mpqc/chemistry/qc/mra</text>
<text text-anchor="middle" x="756" y="-139" font-family="FreeSans" font-size="10.00">/scf/solver.ipp</text>
</a>
</g>
</g>
<!-- Node7&#45;&gt;Node18 -->
<g id="edge20_Node000007_Node000018" class="edge">
<title>Node7&#45;&gt;Node18</title>
<g id="a_edge20_Node000007_Node000018"><a xlink:title=" ">
<path fill="none" stroke="#63b8ff" d="M607.67,-200.07C641.15,-188.31 684.74,-173.01 715.99,-162.04"/>
<polygon fill="#63b8ff" stroke="#63b8ff" points="606.34,-196.82 598.07,-203.44 608.66,-203.43 606.34,-196.82"/>
</a>
</g>
</g>
<!-- Node9 -->
<g id="Node000009" class="node">
<title>Node9</title>
<g id="a_Node000009"><a xlink:href="pao__to__pno__mp2_8cpp.html" target="_top" xlink:title=" ">
<polygon fill="white" stroke="#666666" points="152,-96 0,-96 0,-66 152,-66 152,-96"/>
<text text-anchor="start" x="8" y="-84" font-family="FreeSans" font-size="10.00">mpqc/chemistry/qc/lcao</text>
<text text-anchor="middle" x="76" y="-73" font-family="FreeSans" font-size="10.00">/mbpt/pao_to_pno_mp2.cpp</text>
</a>
</g>
</g>
<!-- Node8&#45;&gt;Node9 -->
<g id="edge9_Node000008_Node000009" class="edge">
<title>Node8&#45;&gt;Node9</title>
<g id="a_edge9_Node000008_Node000009"><a xlink:title=" ">
<path fill="none" stroke="#63b8ff" d="M194.36,-128.19C168.31,-118.02 136.13,-105.47 111.91,-96.01"/>
<polygon fill="#63b8ff" stroke="#63b8ff" points="193.42,-131.58 204.01,-131.95 195.97,-125.06 193.42,-131.58"/>
</a>
</g>
</g>
<!-- Node10 -->
<g id="Node000010" class="node">
<title>Node10</title>
<g id="a_Node000010"><a xlink:href="pao__to__pno__mp2_8h.html" target="_top" xlink:title=" ">
<polygon fill="white" stroke="#666666" points="310,-96 170,-96 170,-66 310,-66 310,-96"/>
<text text-anchor="start" x="178" y="-84" font-family="FreeSans" font-size="10.00">mpqc/chemistry/qc/lcao</text>
<text text-anchor="middle" x="240" y="-73" font-family="FreeSans" font-size="10.00">/mbpt/pao_to_pno_mp2.h</text>
</a>
</g>
</g>
<!-- Node8&#45;&gt;Node10 -->
<g id="edge10_Node000008_Node000010" class="edge">
<title>Node8&#45;&gt;Node10</title>
<g id="a_edge10_Node000008_Node000010"><a xlink:title=" ">
<path fill="none" stroke="#63b8ff" d="M233.43,-121.83C233.02,-113.17 233.31,-103.7 234.29,-96.16"/>
<polygon fill="#63b8ff" stroke="#63b8ff" points="229.95,-122.13 234.28,-131.8 236.92,-121.54 229.95,-122.13"/>
</a>
</g>
</g>
<!-- Node10&#45;&gt;Node8 -->
<g id="edge11_Node000010_Node000008" class="edge">
<title>Node10&#45;&gt;Node8</title>
<g id="a_edge11_Node000010_Node000008"><a xlink:title=" ">
<path fill="none" stroke="#63b8ff" d="M246.57,-106.13C246.98,-114.78 246.7,-124.26 245.72,-131.8"/>
<polygon fill="#63b8ff" stroke="#63b8ff" points="250.05,-105.83 245.71,-96.16 243.08,-106.43 250.05,-105.83"/>
</a>
</g>
</g>
<!-- Node12 -->
<g id="Node000012" class="node">
<title>Node12</title>
<g id="a_Node000012"><a xlink:href="scf_8h.html" target="_top" xlink:title=" ">
<polygon fill="white" stroke="#666666" points="473.5,-96 328.5,-96 328.5,-66 473.5,-66 473.5,-96"/>
<text text-anchor="start" x="336.5" y="-84" font-family="FreeSans" font-size="10.00">/home/runner/work/mpqc4</text>
<text text-anchor="middle" x="401" y="-73" font-family="FreeSans" font-size="10.00">/mpqc4/python/src/scf.h</text>
</a>
</g>
</g>
<!-- Node11&#45;&gt;Node12 -->
<g id="edge13_Node000011_Node000012" class="edge">
<title>Node11&#45;&gt;Node12</title>
<g id="a_edge13_Node000011_Node000012"><a xlink:title=" ">
<path fill="none" stroke="#63b8ff" d="M513.98,-128.05C489.1,-117.91 458.47,-105.43 435.37,-96.01"/>
<polygon fill="#63b8ff" stroke="#63b8ff" points="512.96,-131.42 523.55,-131.95 515.61,-124.94 512.96,-131.42"/>
</a>
</g>
</g>
<!-- Node14 -->
<g id="Node000014" class="node">
<title>Node14</title>
<g id="a_Node000014"><a xlink:href="rhf_8ipp.html" target="_top" xlink:title=" ">
<polygon fill="white" stroke="#666666" points="624.5,-96 491.5,-96 491.5,-66 624.5,-66 624.5,-96"/>
<text text-anchor="start" x="499.5" y="-84" font-family="FreeSans" font-size="10.00">mpqc/chemistry/qc/lcao</text>
<text text-anchor="middle" x="558" y="-73" font-family="FreeSans" font-size="10.00">/scf/rhf.ipp</text>
</a>
</g>
</g>
<!-- Node11&#45;&gt;Node14 -->
<g id="edge15_Node000011_Node000014" class="edge">
<title>Node11&#45;&gt;Node14</title>
<g id="a_edge15_Node000011_Node000014"><a xlink:title=" ">
<path fill="none" stroke="#63b8ff" d="M558,-121.54C558,-112.96 558,-103.61 558,-96.16"/>
<polygon fill="#63b8ff" stroke="#63b8ff" points="554.5,-121.8 558,-131.8 561.5,-121.8 554.5,-121.8"/>
</a>
</g>
</g>
<!-- Node16 -->
<g id="Node000016" class="node">
<title>Node16</title>
<g id="a_Node000016"><a xlink:href="solver__1c__v2_8ipp.html" target="_top" xlink:title=" ">
<polygon fill="white" stroke="#666666" points="775,-96 643,-96 643,-66 775,-66 775,-96"/>
<text text-anchor="start" x="651" y="-84" font-family="FreeSans" font-size="10.00">mpqc/chemistry/qc/mra</text>
<text text-anchor="middle" x="709" y="-73" font-family="FreeSans" font-size="10.00">/scf/solver_1c_v2.ipp</text>
</a>
</g>
</g>
<!-- Node11&#45;&gt;Node16 -->
<g id="edge17_Node000011_Node000016" class="edge">
<title>Node11&#45;&gt;Node16</title>
<g id="a_edge17_Node000011_Node000016"><a xlink:title=" ">
<path fill="none" stroke="#63b8ff" d="M600.66,-127.92C624.53,-117.8 653.83,-105.38 675.94,-96.01"/>
<polygon fill="#63b8ff" stroke="#63b8ff" points="598.98,-124.83 591.14,-131.95 601.71,-131.28 598.98,-124.83"/>
</a>
</g>
</g>
<!-- Node13 -->
<g id="Node000013" class="node">
<title>Node13</title>
<g id="a_Node000013"><a xlink:href="mpqc_8cc.html" target="_top" xlink:title=" ">
<polygon fill="white" stroke="#666666" points="473,-30 323,-30 323,0 473,0 473,-30"/>
<text text-anchor="start" x="331" y="-18" font-family="FreeSans" font-size="10.00">/home/runner/work/mpqc4</text>
<text text-anchor="middle" x="398" y="-7" font-family="FreeSans" font-size="10.00">/mpqc4/python/src/mpqc.cc</text>
</a>
</g>
</g>
<!-- Node12&#45;&gt;Node13 -->
<g id="edge14_Node000012_Node000013" class="edge">
<title>Node12&#45;&gt;Node13</title>
<g id="a_edge14_Node000012_Node000013"><a xlink:title=" ">
<path fill="none" stroke="#63b8ff" d="M399.85,-55.54C399.45,-46.96 399.01,-37.61 398.66,-30.16"/>
<polygon fill="#63b8ff" stroke="#63b8ff" points="396.37,-55.97 400.33,-65.8 403.36,-55.64 396.37,-55.97"/>
</a>
</g>
</g>
<!-- Node15 -->
<g id="Node000015" class="node">
<title>Node15</title>
<g id="a_Node000015"><a xlink:href="rhf_8cpp.html" target="_top" xlink:title=" ">
<polygon fill="white" stroke="#666666" points="624.5,-30 491.5,-30 491.5,0 624.5,0 624.5,-30"/>
<text text-anchor="start" x="499.5" y="-18" font-family="FreeSans" font-size="10.00">mpqc/chemistry/qc/lcao</text>
<text text-anchor="middle" x="558" y="-7" font-family="FreeSans" font-size="10.00">/scf/rhf.cpp</text>
</a>
</g>
</g>
<!-- Node14&#45;&gt;Node15 -->
<g id="edge16_Node000014_Node000015" class="edge">
<title>Node14&#45;&gt;Node15</title>
<g id="a_edge16_Node000014_Node000015"><a xlink:title=" ">
<path fill="none" stroke="#63b8ff" d="M558,-55.54C558,-46.96 558,-37.61 558,-30.16"/>
<polygon fill="#63b8ff" stroke="#63b8ff" points="554.5,-55.8 558,-65.8 561.5,-55.8 554.5,-55.8"/>
</a>
</g>
</g>
<!-- Node17 -->
<g id="Node000017" class="node">
<title>Node17</title>
<g id="a_Node000017"><a xlink:href="solver_8cpp.html" target="_top" xlink:title=" ">
<polygon fill="white" stroke="#666666" points="822,-30 690,-30 690,0 822,0 822,-30"/>
<text text-anchor="start" x="698" y="-18" font-family="FreeSans" font-size="10.00">mpqc/chemistry/qc/mra</text>
<text text-anchor="middle" x="756" y="-7" font-family="FreeSans" font-size="10.00">/scf/solver.cpp</text>
</a>
</g>
</g>
<!-- Node16&#45;&gt;Node17 -->
<g id="edge18_Node000016_Node000017" class="edge">
<title>Node16&#45;&gt;Node17</title>
<g id="a_edge18_Node000016_Node000017"><a xlink:title=" ">
<path fill="none" stroke="#63b8ff" d="M725.5,-57.53C732.19,-48.43 739.7,-38.19 745.6,-30.16"/>
<polygon fill="#63b8ff" stroke="#63b8ff" points="722.53,-55.66 719.43,-65.8 728.17,-59.81 722.53,-55.66"/>
</a>
</g>
</g>
<!-- Node18&#45;&gt;Node17 -->
<g id="edge21_Node000018_Node000017" class="edge">
<title>Node18&#45;&gt;Node17</title>
<g id="a_edge21_Node000018_Node000017"><a xlink:title=" ">
<path fill="none" stroke="#63b8ff" d="M771.9,-123.36C776.78,-115.13 781.52,-105.51 784,-96 787.37,-83.1 787.37,-78.9 784,-66 780.58,-52.91 772.89,-39.61 766.44,-30.03"/>
<polygon fill="#63b8ff" stroke="#63b8ff" points="768.84,-121.65 766.44,-131.97 774.75,-125.4 768.84,-121.65"/>
</a>
</g>
</g>
<!-- Node19&#45;&gt;Node5 -->
<g id="edge26_Node000019_Node000005" class="edge">
<title>Node19&#45;&gt;Node5</title>
<g id="a_edge26_Node000019_Node000005"><a xlink:title=" ">
<path fill="none" stroke="#63b8ff" d="M606.07,-344.57C594.68,-333.18 581.89,-320.39 572.36,-310.86"/>
<polygon fill="#63b8ff" stroke="#63b8ff" points="603.75,-347.2 613.29,-351.79 608.7,-342.25 603.75,-347.2"/>
</a>
</g>
</g>
<!-- Node20 -->
<g id="Node000020" class="node">
<title>Node20</title>
<g id="a_Node000020"><a xlink:href="purification__density__builder_8ipp.html" target="_top" xlink:title=" ">
<polygon fill="white" stroke="#666666" points="775.5,-316 642.5,-316 642.5,-275 775.5,-275 775.5,-316"/>
<text text-anchor="start" x="650.5" y="-304" font-family="FreeSans" font-size="10.00">mpqc/chemistry/qc/lcao</text>
<text text-anchor="start" x="650.5" y="-293" font-family="FreeSans" font-size="10.00">/scf/purification_density</text>
<text text-anchor="middle" x="709" y="-282" font-family="FreeSans" font-size="10.00">_builder.ipp</text>
</a>
</g>
</g>
<!-- Node19&#45;&gt;Node20 -->
<g id="edge23_Node000019_Node000020" class="edge">
<title>Node19&#45;&gt;Node20</title>
<g id="a_edge23_Node000019_Node000020"><a xlink:title=" ">
<path fill="none" stroke="#63b8ff" d="M653.84,-344.51C662.92,-335.11 673.58,-324.76 683.15,-316.07"/>
<polygon fill="#63b8ff" stroke="#63b8ff" points="651.28,-342.13 646.94,-351.79 656.36,-346.94 651.28,-342.13"/>
</a>
</g>
</g>
<!-- Node20&#45;&gt;Node19 -->
<g id="edge25_Node000020_Node000019" class="edge">
<title>Node20&#45;&gt;Node19</title>
<g id="a_edge25_Node000020_Node000019"><a xlink:title=" ">
<path fill="none" stroke="#63b8ff" d="M688.3,-323.35C679.23,-332.73 668.57,-343.1 658.99,-351.79"/>
<polygon fill="#63b8ff" stroke="#63b8ff" points="690.85,-325.74 695.18,-316.07 685.76,-320.93 690.85,-325.74"/>
</a>
</g>
</g>
<!-- Node21 -->
<g id="Node000021" class="node">
<title>Node21</title>
<g id="a_Node000021"><a xlink:href="purification__density__builder_8cpp.html" target="_top" xlink:title=" ">
<polygon fill="white" stroke="#666666" points="775.5,-239 642.5,-239 642.5,-198 775.5,-198 775.5,-239"/>
<text text-anchor="start" x="650.5" y="-227" font-family="FreeSans" font-size="10.00">mpqc/chemistry/qc/lcao</text>
<text text-anchor="start" x="650.5" y="-216" font-family="FreeSans" font-size="10.00">/scf/purification_density</text>
<text text-anchor="middle" x="709" y="-205" font-family="FreeSans" font-size="10.00">_builder.cpp</text>
</a>
</g>
</g>
<!-- Node20&#45;&gt;Node21 -->
<g id="edge24_Node000020_Node000021" class="edge">
<title>Node20&#45;&gt;Node21</title>
<g id="a_edge24_Node000020_Node000021"><a xlink:title=" ">
<path fill="none" stroke="#63b8ff" d="M709,-264.69C709,-256.08 709,-246.9 709,-239.07"/>
<polygon fill="#63b8ff" stroke="#63b8ff" points="705.5,-264.79 709,-274.79 712.5,-264.79 705.5,-264.79"/>
</a>
</g>
</g>
</g>
</svg>

<g id="navigator" transform="translate(0 0)" fill="#404254">
  <rect fill="#f2f5e9" fill-opacity="0.5" stroke="#606060" stroke-width=".5" x="0" y="0" width="60" height="60"/>
  <use id="zoomplus" xlink:href="#zoomPlus" x="17" y="9" onmousedown="handleZoom(evt,'in')"/>
  <use id="zoomminus" xlink:href="#zoomMin" x="42" y="9" onmousedown="handleZoom(evt,'out')"/>
  <use id="reset" xlink:href="#resetDef" x="30" y="36" onmousedown="handleReset()"/>
   <use id="arrowup" xlink:href="#arrowUp" x="0" y="0" onmousedown="handlePan(0,-1)"/>
  <use id="arrowright" xlink:href="#arrowRight" x="0" y="0" onmousedown="handlePan(1,0)"/>
  <use id="arrowdown" xlink:href="#arrowDown" x="0" y="0" onmousedown="handlePan(0,1)"/>
  <use id="arrowleft" xlink:href="#arrowLeft" x="0" y="0" onmousedown="handlePan(-1,0)"/>
</g>
<svg viewBox="0 0 15 15" width="100%" height="30px" preserveAspectRatio="xMaxYMin meet">
 <g id="arrow_out" transform="scale(0.3 0.3)">
  <a xlink:href="density__builder_8h__dep__incl_org.svg" target="_base">
   <rect id="button" ry="5" rx="5" y="6" x="6" height="38" width="38"
        fill="#f2f5e9" fill-opacity="0.5" stroke="#606060" stroke-width="1.0"/>
   <path id="arrow"
     d="M 11.500037,31.436501 C 11.940474,20.09759 22.043105,11.32322 32.158766,21.979434 L 37.068811,17.246167 C 37.068811,17.246167 37.088388,32 37.088388,32 L 22.160133,31.978069 C 22.160133,31.978069 26.997745,27.140456 26.997745,27.140456 C 18.528582,18.264221 13.291696,25.230495 11.500037,31.436501 z"
     style="fill:#404040;"/>
  </a>
 </g>
</svg>

<style type='text/css'>
<![CDATA[
[data-mouse-over-selected='false'] { opacity: 0.7; }
[data-mouse-over-selected='true']  { opacity: 1.0; }
]]>
</style>
<script type="application/ecmascript"><![CDATA[
document.addEventListener('DOMContentLoaded', (event) => {
  highlightEdges();
  highlightAdjacentNodes();
});
]]></script>
</svg>
