<?xml version="1.0" encoding="UTF-8" standalone="no"?>
<!DOCTYPE svg PUBLIC "-//W3C//DTD SVG 1.1//EN"
 "http://www.w3.org/Graphics/SVG/1.1/DTD/svg11.dtd">
<!-- Generated by graphviz version 2.43.0 (0)
 -->
<!-- Title: mpqc/util/core/deref.h Pages: 1 -->
<svg width="162pt" height="83pt"
 viewBox="0.00 0.00 161.50 82.58" xmlns="http://www.w3.org/2000/svg" xmlns:xlink="http://www.w3.org/1999/xlink">

<svg id="main" version="1.1" xmlns="http://www.w3.org/2000/svg" xmlns:xlink="http://www.w3.org/1999/xlink" xml:space="preserve" onload="init(evt)">
<style type="text/css"><![CDATA[
.node, .edge {opacity: 0.7;}
.node.selected, .edge.selected {opacity: 1;}
.edge:hover path { stroke: red; }
.edge:hover polygon { stroke: red; fill: red; }
]]></style>
<script type="application/ecmascript" xlink:href="svg.min.js"/>
<svg id="graph" class="graph">
<g id="graph0" class="graph" transform="scale(1 1) rotate(0) translate(4 78.58)">
<title>mpqc/util/core/deref.h</title>
<!-- Node1 -->
<g id="Node000001" class="node">
<title>Node1</title>
<g id="a_Node000001"><a xlink:title=" ">
<polygon fill="#999999" stroke="#666666" points="125.5,-74.58 2.5,-74.58 2.5,-55.58 125.5,-55.58 125.5,-74.58"/>
<text text-anchor="middle" x="64" y="-62.58" font-family="FreeSans" font-size="10.00">mpqc/util/core/deref.h</text>
</a>
</g>
</g>
<!-- Node2 -->
<g id="Node000002" class="node">
<title>Node2</title>
<g id="a_Node000002"><a xlink:title=" ">
<polygon fill="#e0e0e0" stroke="#999999" points="52,-19.58 0,-19.58 0,-0.58 52,-0.58 52,-19.58"/>
<text text-anchor="middle" x="26" y="-7.58" font-family="FreeSans" font-size="10.00">cassert</text>
</a>
</g>
</g>
<!-- Node1&#45;&gt;Node2 -->
<g id="edge1_Node000001_Node000002" class="edge">
<title>Node1&#45;&gt;Node2</title>
<g id="a_edge1_Node000001_Node000002"><a xlink:title=" ">
<path fill="none" stroke="#63b8ff" d="M57.73,-55.33C52.41,-47.92 44.64,-37.08 38.12,-27.99"/>
<polygon fill="#63b8ff" stroke="#63b8ff" points="40.83,-25.75 32.16,-19.67 35.14,-29.83 40.83,-25.75"/>
</a>
</g>
</g>
<!-- Node3 -->
<g id="Node000003" class="node">
<title>Node3</title>
<g id="a_Node000003"><a xlink:href="functional.html" target="_top" xlink:title=" ">
<polygon fill="white" stroke="#666666" points="135.5,-19.58 70.5,-19.58 70.5,-0.58 135.5,-0.58 135.5,-19.58"/>
<text text-anchor="middle" x="103" y="-7.58" font-family="FreeSans" font-size="10.00">functional</text>
</a>
</g>
</g>
<!-- Node1&#45;&gt;Node3 -->
<g id="edge2_Node000001_Node000003" class="edge">
<title>Node1&#45;&gt;Node3</title>
<g id="a_edge2_Node000001_Node000003"><a xlink:title=" ">
<path fill="none" stroke="#63b8ff" d="M70.44,-55.33C75.89,-47.92 83.86,-37.08 90.56,-27.99"/>
<polygon fill="#63b8ff" stroke="#63b8ff" points="93.57,-29.8 96.68,-19.67 87.93,-25.65 93.57,-29.8"/>
</a>
</g>
</g>
<!-- Node3&#45;&gt;Node3 -->
<g id="edge3_Node000003_Node000003" class="edge">
<title>Node3&#45;&gt;Node3</title>
<g id="a_edge3_Node000003_Node000003"><a xlink:title=" ">
<path fill="none" stroke="#63b8ff" d="M126.64,-19.61C140.51,-21.64 153.5,-18.46 153.5,-10.08 153.5,-3.79 146.19,-0.43 136.69,0"/>
<polygon fill="#63b8ff" stroke="#63b8ff" points="136.43,3.49 126.64,-0.55 136.81,-3.5 136.43,3.49"/>
</a>
</g>
</g>
</g>
</svg>
</svg>

<style type='text/css'>
<![CDATA[
[data-mouse-over-selected='false'] { opacity: 0.7; }
[data-mouse-over-selected='true']  { opacity: 1.0; }
]]>
</style>
<script type="application/ecmascript"><![CDATA[
document.addEventListener('DOMContentLoaded', (event) => {
  highlightEdges();
  highlightAdjacentNodes();
});
]]></script>
</svg>
