<?xml version="1.0" encoding="UTF-8" standalone="no"?>
<!DOCTYPE svg PUBLIC "-//W3C//DTD SVG 1.1//EN"
 "http://www.w3.org/Graphics/SVG/1.1/DTD/svg11.dtd">
<!-- Generated by graphviz version 2.43.0 (0)
 -->
<!-- Title: mpqc/chemistry/qc/lcao/scf/dfj4ck_fock_builder.h Pages: 1 -->
<svg width="479pt" height="170pt"
 viewBox="0.00 0.00 478.50 170.00" xmlns="http://www.w3.org/2000/svg" xmlns:xlink="http://www.w3.org/1999/xlink">
<g id="graph0" class="graph" transform="scale(1 1) rotate(0) translate(4 166)">
<title>mpqc/chemistry/qc/lcao/scf/dfj4ck_fock_builder.h</title>
<!-- Node1 -->
<g id="Node000001" class="node">
<title>Node1</title>
<g id="a_Node000001"><a xlink:title=" ">
<polygon fill="#999999" stroke="#666666" points="315,-162 175,-162 175,-132 315,-132 315,-162"/>
<text text-anchor="start" x="183" y="-150" font-family="FreeSans" font-size="10.00">mpqc/chemistry/qc/lcao</text>
<text text-anchor="middle" x="245" y="-139" font-family="FreeSans" font-size="10.00">/scf/dfj4ck_fock_builder.h</text>
</a>
</g>
</g>
<!-- Node2 -->
<g id="Node000002" class="node">
<title>Node2</title>
<g id="a_Node000002"><a xlink:href="dfj4ck__fock__builder_8cpp.html" target="_top" xlink:title=" ">
<polygon fill="white" stroke="#666666" points="152,-96 0,-96 0,-66 152,-66 152,-96"/>
<text text-anchor="start" x="8" y="-84" font-family="FreeSans" font-size="10.00">mpqc/chemistry/qc/lcao</text>
<text text-anchor="middle" x="76" y="-73" font-family="FreeSans" font-size="10.00">/scf/dfj4ck_fock_builder.cpp</text>
</a>
</g>
</g>
<!-- Node1&#45;&gt;Node2 -->
<g id="edge1_Node000001_Node000002" class="edge">
<title>Node1&#45;&gt;Node2</title>
<g id="a_edge1_Node000001_Node000002"><a xlink:title=" ">
<path fill="none" stroke="#63b8ff" d="M198.32,-128.32C171.42,-118.14 138.08,-105.51 113,-96.01"/>
<polygon fill="#63b8ff" stroke="#63b8ff" points="197.32,-131.69 207.91,-131.95 199.8,-125.14 197.32,-131.69"/>
</a>
</g>
</g>
<!-- Node3 -->
<g id="Node000003" class="node">
<title>Node3</title>
<g id="a_Node000003"><a xlink:href="dfj4ck__fock__builder_8ipp.html" target="_top" xlink:title=" ">
<polygon fill="white" stroke="#666666" points="319.5,-96 170.5,-96 170.5,-66 319.5,-66 319.5,-96"/>
<text text-anchor="start" x="178.5" y="-84" font-family="FreeSans" font-size="10.00">mpqc/chemistry/qc/lcao</text>
<text text-anchor="middle" x="245" y="-73" font-family="FreeSans" font-size="10.00">/scf/dfj4ck_fock_builder.ipp</text>
</a>
</g>
</g>
<!-- Node1&#45;&gt;Node3 -->
<g id="edge2_Node000001_Node000003" class="edge">
<title>Node1&#45;&gt;Node3</title>
<g id="a_edge2_Node000001_Node000003"><a xlink:title=" ">
<path fill="none" stroke="#63b8ff" d="M238.43,-121.83C238.02,-113.17 238.31,-103.7 239.29,-96.16"/>
<polygon fill="#63b8ff" stroke="#63b8ff" points="234.95,-122.13 239.28,-131.8 241.92,-121.54 234.95,-122.13"/>
</a>
</g>
</g>
<!-- Node4 -->
<g id="Node000004" class="node">
<title>Node4</title>
<g id="a_Node000004"><a xlink:href="rhf_8ipp.html" target="_top" xlink:title=" ">
<polygon fill="white" stroke="#666666" points="470.5,-96 337.5,-96 337.5,-66 470.5,-66 470.5,-96"/>
<text text-anchor="start" x="345.5" y="-84" font-family="FreeSans" font-size="10.00">mpqc/chemistry/qc/lcao</text>
<text text-anchor="middle" x="404" y="-73" font-family="FreeSans" font-size="10.00">/scf/rhf.ipp</text>
</a>
</g>
</g>
<!-- Node1&#45;&gt;Node4 -->
<g id="edge4_Node000001_Node000004" class="edge">
<title>Node1&#45;&gt;Node4</title>
<g id="a_edge4_Node000001_Node000004"><a xlink:title=" ">
<path fill="none" stroke="#63b8ff" d="M289.25,-128.19C314.5,-118.02 345.7,-105.47 369.19,-96.01"/>
<polygon fill="#63b8ff" stroke="#63b8ff" points="287.86,-124.97 279.89,-131.95 290.48,-131.47 287.86,-124.97"/>
</a>
</g>
</g>
<!-- Node3&#45;&gt;Node1 -->
<g id="edge3_Node000003_Node000001" class="edge">
<title>Node3&#45;&gt;Node1</title>
<g id="a_edge3_Node000003_Node000001"><a xlink:title=" ">
<path fill="none" stroke="#63b8ff" d="M251.57,-106.13C251.98,-114.78 251.7,-124.26 250.72,-131.8"/>
<polygon fill="#63b8ff" stroke="#63b8ff" points="255.05,-105.83 250.71,-96.16 248.08,-106.43 255.05,-105.83"/>
</a>
</g>
</g>
<!-- Node5 -->
<g id="Node000005" class="node">
<title>Node5</title>
<g id="a_Node000005"><a xlink:href="rhf_8cpp.html" target="_top" xlink:title=" ">
<polygon fill="white" stroke="#666666" points="470.5,-30 337.5,-30 337.5,0 470.5,0 470.5,-30"/>
<text text-anchor="start" x="345.5" y="-18" font-family="FreeSans" font-size="10.00">mpqc/chemistry/qc/lcao</text>
<text text-anchor="middle" x="404" y="-7" font-family="FreeSans" font-size="10.00">/scf/rhf.cpp</text>
</a>
</g>
</g>
<!-- Node4&#45;&gt;Node5 -->
<g id="edge5_Node000004_Node000005" class="edge">
<title>Node4&#45;&gt;Node5</title>
<g id="a_edge5_Node000004_Node000005"><a xlink:title=" ">
<path fill="none" stroke="#63b8ff" d="M404,-55.54C404,-46.96 404,-37.61 404,-30.16"/>
<polygon fill="#63b8ff" stroke="#63b8ff" points="400.5,-55.8 404,-65.8 407.5,-55.8 400.5,-55.8"/>
</a>
</g>
</g>
</g>
</svg>
