<?xml version="1.0" encoding="UTF-8" standalone="no"?>
<!DOCTYPE svg PUBLIC "-//W3C//DTD SVG 1.1//EN"
 "http://www.w3.org/Graphics/SVG/1.1/DTD/svg11.dtd">
<!-- Generated by graphviz version 2.43.0 (0)
 -->
<!-- Title: mpqc/math/solvers/diis.h Pages: 1 -->
<!--zoomable 412 -->

<svg id="main" version="1.1" xmlns="http://www.w3.org/2000/svg" xmlns:xlink="http://www.w3.org/1999/xlink" xml:space="preserve" onload="init(evt)">
<style type="text/css"><![CDATA[
.node, .edge {opacity: 0.7;}
.node.selected, .edge.selected {opacity: 1;}
.edge:hover path { stroke: red; }
.edge:hover polygon { stroke: red; fill: red; }
]]></style>

<defs>
  <circle id="rim" cx="0" cy="0" r="7"/>
  <circle id="rim2" cx="0" cy="0" r="3.5"/>
  <g id="zoomPlus">
    <use xlink:href="#rim" fill="#404040"><set attributeName="fill" to="#808080" begin="zoomplus.mouseover" end="zoomplus.mouseout"/></use>
    <path d="M-4,0h8M0,-4v8" fill="none" stroke="white" stroke-width="1.5" pointer-events="none"/>
  </g>
  <g id="zoomMin">
    <use xlink:href="#rim" fill="#404040"><set attributeName="fill" to="#808080" begin="zoomminus.mouseover" end="zoomminus.mouseout"/></use>
    <path d="M-4,0h8" fill="none" stroke="white" stroke-width="1.5" pointer-events="none"/>
  </g>
  <g id="arrowUp" transform="translate(30 24)">
    <use xlink:href="#rim"/>
    <path pointer-events="none" fill="none" stroke="white" stroke-width="1.5" d="M0,-3.0v7 M-2.5,-0.5L0,-3.0L2.5,-0.5"/>
  </g>
  <g id="arrowRight" transform="rotate(90) translate(36 -43)">
    <use xlink:href="#rim"/>
    <path pointer-events="none" fill="none" stroke="white" stroke-width="1.5" d="M0,-3.0v7 M-2.5,-0.5L0,-3.0L2.5,-0.5"/>
  </g>
  <g id="arrowDown" transform="rotate(180) translate(-30 -48)">
    <use xlink:href="#rim"/>
    <path pointer-events="none" fill="none" stroke="white" stroke-width="1.5" d="M0,-3.0v7 M-2.5,-0.5L0,-3.0L2.5,-0.5"/>
  </g>
  <g id="arrowLeft" transform="rotate(270) translate(-36 17)">
    <use xlink:href="#rim"/>
    <path pointer-events="none" fill="none" stroke="white" stroke-width="1.5" d="M0,-3.0v7 M-2.5,-0.5L0,-3.0L2.5,-0.5"/>
  </g>
  <g id="resetDef">
    <use xlink:href="#rim2" fill="#404040"><set attributeName="fill" to="#808080" begin="reset.mouseover" end="reset.mouseout"/></use>
  </g>
</defs>
<script type="application/ecmascript">
var viewWidth = 2414;
var viewHeight = 412;
var sectionId = 'dynsection-0';
</script>
<script type="application/ecmascript" xlink:href="svg.min.js"/>
<svg id="graph" class="graph">
<g id="viewport">
<title>mpqc/math/solvers/diis.h</title>
<!-- Node1 -->
<g id="Node000001" class="node">
<title>Node1</title>
<g id="a_Node000001"><a xlink:title=" ">
<polygon fill="#999999" stroke="#666666" points="455.32,-404 315.32,-404 315.32,-385 455.32,-385 455.32,-404"/>
<text text-anchor="middle" x="385.32" y="-392" font-family="FreeSans" font-size="10.00">mpqc/math/solvers/diis.h</text>
</a>
</g>
</g>
<!-- Node2 -->
<g id="Node000002" class="node">
<title>Node2</title>
<g id="a_Node000002"><a xlink:title=" ">
<polygon fill="#e0e0e0" stroke="#999999" points="304.32,-349 170.32,-349 170.32,-319 304.32,-319 304.32,-349"/>
<text text-anchor="start" x="178.32" y="-337" font-family="FreeSans" font-size="10.00">TiledArray/math/solvers</text>
<text text-anchor="middle" x="237.32" y="-326" font-family="FreeSans" font-size="10.00">/diis.h</text>
</a>
</g>
</g>
<!-- Node1&#45;&gt;Node2 -->
<g id="edge1_Node000001_Node000002" class="edge">
<title>Node1&#45;&gt;Node2</title>
<g id="a_edge1_Node000001_Node000002"><a xlink:title=" ">
<path fill="none" stroke="#63b8ff" d="M363.8,-384.99C342.59,-376.61 309.54,-363.55 282.54,-352.87"/>
<polygon fill="#63b8ff" stroke="#63b8ff" points="283.48,-349.49 272.9,-349.06 280.91,-356 283.48,-349.49"/>
</a>
</g>
</g>
<!-- Node3 -->
<g id="Node000003" class="node">
<title>Node3</title>
<g id="a_Node000003"><a xlink:href="tiledarray_8h.html" target="_top" xlink:title=" ">
<polygon fill="white" stroke="#666666" points="447.82,-349 322.82,-349 322.82,-319 447.82,-319 447.82,-349"/>
<text text-anchor="start" x="330.82" y="-337" font-family="FreeSans" font-size="10.00">mpqc/math/external</text>
<text text-anchor="middle" x="385.32" y="-326" font-family="FreeSans" font-size="10.00">/tiledarray/tiledarray.h</text>
</a>
</g>
</g>
<!-- Node1&#45;&gt;Node3 -->
<g id="edge2_Node000001_Node000003" class="edge">
<title>Node1&#45;&gt;Node3</title>
<g id="a_edge2_Node000001_Node000003"><a xlink:title=" ">
<path fill="none" stroke="#63b8ff" d="M385.32,-384.87C385.32,-378.11 385.32,-368.35 385.32,-359.26"/>
<polygon fill="#63b8ff" stroke="#63b8ff" points="388.82,-359.11 385.32,-349.11 381.82,-359.11 388.82,-359.11"/>
</a>
</g>
</g>
<!-- Node5 -->
<g id="Node000005" class="node">
<title>Node5</title>
<g id="a_Node000005"><a xlink:href="src_2mpqc_2util_2keyval_2keyval_8h.html" target="_top" xlink:title=" ">
<polygon fill="white" stroke="#666666" points="1024.32,-343.5 882.32,-343.5 882.32,-324.5 1024.32,-324.5 1024.32,-343.5"/>
<text text-anchor="middle" x="953.32" y="-331.5" font-family="FreeSans" font-size="10.00">mpqc/util/keyval/keyval.h</text>
</a>
</g>
</g>
<!-- Node1&#45;&gt;Node5 -->
<g id="edge5_Node000001_Node000005" class="edge">
<title>Node1&#45;&gt;Node5</title>
<g id="a_edge5_Node000001_Node000005"><a xlink:title=" ">
<path fill="none" stroke="#63b8ff" d="M455.53,-386.27C561.02,-375.4 759.91,-354.92 871.71,-343.4"/>
<polygon fill="#63b8ff" stroke="#63b8ff" points="872.33,-346.86 881.92,-342.35 871.61,-339.9 872.33,-346.86"/>
</a>
</g>
</g>
<!-- Node3&#45;&gt;Node3 -->
<g id="edge3_Node000003_Node000003" class="edge">
<title>Node3&#45;&gt;Node3</title>
<g id="a_edge3_Node000003_Node000003"><a xlink:title=" ">
<path fill="none" stroke="#63b8ff" d="M448.09,-344.46C458.58,-342.99 465.82,-339.51 465.82,-334 465.82,-330.47 462.85,-327.77 457.96,-325.9"/>
<polygon fill="#63b8ff" stroke="#63b8ff" points="458.63,-322.47 448.09,-323.54 457,-329.28 458.63,-322.47"/>
</a>
</g>
</g>
<!-- Node4 -->
<g id="Node000004" class="node">
<title>Node4</title>
<g id="a_Node000004"><a xlink:title=" ">
<polygon fill="#e0e0e0" stroke="#999999" points="1300.82,-79.5 1183.82,-79.5 1183.82,-60.5 1300.82,-60.5 1300.82,-79.5"/>
<text text-anchor="middle" x="1242.32" y="-67.5" font-family="FreeSans" font-size="10.00">mpqc/mpqc_config.h</text>
</a>
</g>
</g>
<!-- Node3&#45;&gt;Node4 -->
<g id="edge4_Node000003_Node000004" class="edge">
<title>Node3&#45;&gt;Node4</title>
<g id="a_edge4_Node000003_Node000004"><a xlink:title=" ">
<path fill="none" stroke="#63b8ff" d="M322.54,-320.5C319.42,-319.97 316.34,-319.47 313.32,-319 245.44,-308.44 51.97,-334.32 6.32,-283 -2.55,-273.04 -1.49,-263.81 6.32,-253 60.86,-177.45 116.11,-213.94 205.32,-187 312.04,-154.77 337.34,-139.26 447.32,-121 713.17,-76.86 1034.95,-70.95 1173.46,-70.64"/>
<polygon fill="#63b8ff" stroke="#63b8ff" points="1173.51,-74.14 1183.51,-70.63 1173.5,-67.14 1173.51,-74.14"/>
</a>
</g>
</g>
<!-- Node5&#45;&gt;Node4 -->
<g id="edge20_Node000005_Node000004" class="edge">
<title>Node5&#45;&gt;Node4</title>
<g id="a_edge20_Node000005_Node000004"><a xlink:title=" ">
<path fill="none" stroke="#63b8ff" d="M882.31,-331.02C695.35,-325.47 202.21,-308.48 178.32,-283 169.2,-273.27 171.79,-264.63 178.32,-253 205.83,-203.94 233.18,-205.48 286.32,-187 451.17,-129.68 983,-88.7 1173.57,-75.53"/>
<polygon fill="#63b8ff" stroke="#63b8ff" points="1174,-79.01 1183.74,-74.83 1173.52,-72.03 1174,-79.01"/>
</a>
</g>
</g>
<!-- Node6 -->
<g id="Node000006" class="node">
<title>Node6</title>
<g id="a_Node000006"><a xlink:title=" ">
<polygon fill="#e0e0e0" stroke="#999999" points="2006.32,-79.5 1964.32,-79.5 1964.32,-60.5 2006.32,-60.5 2006.32,-79.5"/>
<text text-anchor="middle" x="1985.32" y="-67.5" font-family="FreeSans" font-size="10.00">array</text>
</a>
</g>
</g>
<!-- Node5&#45;&gt;Node6 -->
<g id="edge6_Node000005_Node000006" class="edge">
<title>Node5&#45;&gt;Node6</title>
<g id="a_edge6_Node000005_Node000006"><a xlink:title=" ">
<path fill="none" stroke="#63b8ff" d="M1024.61,-332.02C1249.69,-328.6 1932.41,-315.58 1966.32,-283 2019.53,-231.88 2001.29,-131.51 1990.69,-89.84"/>
<polygon fill="#63b8ff" stroke="#63b8ff" points="1994,-88.69 1988.02,-79.94 1987.24,-90.5 1994,-88.69"/>
</a>
</g>
</g>
<!-- Node7 -->
<g id="Node000007" class="node">
<title>Node7</title>
<g id="a_Node000007"><a xlink:title=" ">
<polygon fill="#e0e0e0" stroke="#999999" points="2237.32,-277.5 2185.32,-277.5 2185.32,-258.5 2237.32,-258.5 2237.32,-277.5"/>
<text text-anchor="middle" x="2211.32" y="-265.5" font-family="FreeSans" font-size="10.00">cassert</text>
</a>
</g>
</g>
<!-- Node5&#45;&gt;Node7 -->
<g id="edge7_Node000005_Node000007" class="edge">
<title>Node5&#45;&gt;Node7</title>
<g id="a_edge7_Node000005_Node000007"><a xlink:title=" ">
<path fill="none" stroke="#63b8ff" d="M1024.51,-333.25C1251.21,-333.53 1954.35,-330.47 2176.32,-283 2178.69,-282.49 2181.11,-281.84 2183.52,-281.09"/>
<polygon fill="#63b8ff" stroke="#63b8ff" points="2184.93,-284.3 2193.16,-277.62 2182.56,-277.71 2184.93,-284.3"/>
</a>
</g>
</g>
<!-- Node8 -->
<g id="Node000008" class="node">
<title>Node8</title>
<g id="a_Node000008"><a xlink:title=" ">
<polygon fill="#e0e0e0" stroke="#999999" points="74.82,-277.5 15.82,-277.5 15.82,-258.5 74.82,-258.5 74.82,-277.5"/>
<text text-anchor="middle" x="45.32" y="-265.5" font-family="FreeSans" font-size="10.00">complex</text>
</a>
</g>
</g>
<!-- Node5&#45;&gt;Node8 -->
<g id="edge8_Node000005_Node000008" class="edge">
<title>Node5&#45;&gt;Node8</title>
<g id="a_edge8_Node000005_Node000008"><a xlink:title=" ">
<path fill="none" stroke="#63b8ff" d="M882.14,-331.17C703.69,-326.22 240.75,-311.02 89.32,-283 85.63,-282.32 81.82,-281.42 78.06,-280.4"/>
<polygon fill="#63b8ff" stroke="#63b8ff" points="78.91,-277 68.33,-277.52 76.92,-283.72 78.91,-277"/>
</a>
</g>
</g>
<!-- Node9 -->
<g id="Node000009" class="node">
<title>Node9</title>
<g id="a_Node000009"><a xlink:title=" ">
<polygon fill="#e0e0e0" stroke="#999999" points="682.32,-211.5 622.32,-211.5 622.32,-192.5 682.32,-192.5 682.32,-211.5"/>
<text text-anchor="middle" x="652.32" y="-199.5" font-family="FreeSans" font-size="10.00">iostream</text>
</a>
</g>
</g>
<!-- Node5&#45;&gt;Node9 -->
<g id="edge9_Node000005_Node000009" class="edge">
<title>Node5&#45;&gt;Node9</title>
<g id="a_edge9_Node000005_Node000009"><a xlink:title=" ">
<path fill="none" stroke="#63b8ff" d="M882.15,-330.89C698.53,-325.11 221.49,-307.76 198.32,-283 189.2,-273.27 189.42,-262.93 198.32,-253 225.72,-222.42 506,-208.59 612,-204.43"/>
<polygon fill="#63b8ff" stroke="#63b8ff" points="612.43,-207.91 622.29,-204.03 612.16,-200.92 612.43,-207.91"/>
</a>
</g>
</g>
<!-- Node10 -->
<g id="Node000010" class="node">
<title>Node10</title>
<g id="a_Node000010"><a xlink:title=" ">
<polygon fill="#e0e0e0" stroke="#999999" points="239.32,-277.5 207.32,-277.5 207.32,-258.5 239.32,-258.5 239.32,-277.5"/>
<text text-anchor="middle" x="223.32" y="-265.5" font-family="FreeSans" font-size="10.00">list</text>
</a>
</g>
</g>
<!-- Node5&#45;&gt;Node10 -->
<g id="edge10_Node000005_Node000010" class="edge">
<title>Node5&#45;&gt;Node10</title>
<g id="a_edge10_Node000005_Node000010"><a xlink:title=" ">
<path fill="none" stroke="#63b8ff" d="M882.3,-331.89C727.77,-328.83 365.51,-318.05 248.32,-283 247.27,-282.69 246.21,-282.32 245.17,-281.92"/>
<polygon fill="#63b8ff" stroke="#63b8ff" points="246.6,-278.73 236.07,-277.55 243.57,-285.04 246.6,-278.73"/>
</a>
</g>
</g>
<!-- Node11 -->
<g id="Node000011" class="node">
<title>Node11</title>
<g id="a_Node000011"><a xlink:title=" ">
<polygon fill="#e0e0e0" stroke="#999999" points="303.32,-277.5 257.32,-277.5 257.32,-258.5 303.32,-258.5 303.32,-277.5"/>
<text text-anchor="middle" x="280.32" y="-265.5" font-family="FreeSans" font-size="10.00">locale</text>
</a>
</g>
</g>
<!-- Node5&#45;&gt;Node11 -->
<g id="edge11_Node000005_Node000011" class="edge">
<title>Node5&#45;&gt;Node11</title>
<g id="a_edge11_Node000005_Node000011"><a xlink:title=" ">
<path fill="none" stroke="#63b8ff" d="M882.23,-330.44C738.62,-324.79 418.57,-309.58 312.32,-283 310.37,-282.51 308.4,-281.92 306.44,-281.26"/>
<polygon fill="#63b8ff" stroke="#63b8ff" points="307.47,-277.9 296.88,-277.5 304.91,-284.42 307.47,-277.9"/>
</a>
</g>
</g>
<!-- Node12 -->
<g id="Node000012" class="node">
<title>Node12</title>
<g id="a_Node000012"><a xlink:title=" ">
<polygon fill="#e0e0e0" stroke="#999999" points="1734.32,-145.5 1696.32,-145.5 1696.32,-126.5 1734.32,-126.5 1734.32,-145.5"/>
<text text-anchor="middle" x="1715.32" y="-133.5" font-family="FreeSans" font-size="10.00">map</text>
</a>
</g>
</g>
<!-- Node5&#45;&gt;Node12 -->
<g id="edge12_Node000005_Node000012" class="edge">
<title>Node5&#45;&gt;Node12</title>
<g id="a_edge12_Node000005_Node000012"><a xlink:title=" ">
<path fill="none" stroke="#63b8ff" d="M1024.49,-332.34C1206.2,-330.11 1677.17,-320.71 1736.32,-283 1774.74,-258.5 1791.12,-228.51 1772.32,-187 1765.54,-172.04 1751.84,-159.79 1739.56,-151.16"/>
<polygon fill="#63b8ff" stroke="#63b8ff" points="1741.28,-148.1 1731,-145.53 1737.43,-153.95 1741.28,-148.1"/>
</a>
</g>
</g>
<!-- Node13 -->
<g id="Node000013" class="node">
<title>Node13</title>
<g id="a_Node000013"><a xlink:href="memory.html" target="_top" xlink:title=" ">
<polygon fill="white" stroke="#666666" points="1191.32,-145.5 1133.32,-145.5 1133.32,-126.5 1191.32,-126.5 1191.32,-145.5"/>
<text text-anchor="middle" x="1162.32" y="-133.5" font-family="FreeSans" font-size="10.00">memory</text>
</a>
</g>
</g>
<!-- Node5&#45;&gt;Node13 -->
<g id="edge13_Node000005_Node000013" class="edge">
<title>Node5&#45;&gt;Node13</title>
<g id="a_edge13_Node000005_Node000013"><a xlink:title=" ">
<path fill="none" stroke="#63b8ff" d="M882.22,-330.96C696.92,-325.29 211.85,-308.12 188.32,-283 179.2,-273.27 179.64,-263.13 188.32,-253 250.34,-180.6 949.08,-146.11 1123.2,-138.6"/>
<polygon fill="#63b8ff" stroke="#63b8ff" points="1123.36,-142.09 1133.2,-138.17 1123.06,-135.1 1123.36,-142.09"/>
</a>
</g>
</g>
<!-- Node14 -->
<g id="Node000014" class="node">
<title>Node14</title>
<g id="a_Node000014"><a xlink:title=" ">
<polygon fill="#e0e0e0" stroke="#999999" points="1697.32,-211.5 1641.32,-211.5 1641.32,-192.5 1697.32,-192.5 1697.32,-211.5"/>
<text text-anchor="middle" x="1669.32" y="-199.5" font-family="FreeSans" font-size="10.00">optional</text>
</a>
</g>
</g>
<!-- Node5&#45;&gt;Node14 -->
<g id="edge15_Node000005_Node000014" class="edge">
<title>Node5&#45;&gt;Node14</title>
<g id="a_edge15_Node000005_Node000014"><a xlink:title=" ">
<path fill="none" stroke="#63b8ff" d="M1024.32,-333.6C1201.29,-334.35 1651.04,-331.43 1696.32,-283 1712.68,-265.49 1697.13,-237.72 1683.75,-219.93"/>
<polygon fill="#63b8ff" stroke="#63b8ff" points="1686.11,-217.27 1677.14,-211.65 1680.64,-221.64 1686.11,-217.27"/>
</a>
</g>
</g>
<!-- Node15 -->
<g id="Node000015" class="node">
<title>Node15</title>
<g id="a_Node000015"><a xlink:title=" ">
<polygon fill="#e0e0e0" stroke="#999999" points="386.82,-277.5 321.82,-277.5 321.82,-258.5 386.82,-258.5 386.82,-277.5"/>
<text text-anchor="middle" x="354.32" y="-265.5" font-family="FreeSans" font-size="10.00">stdexcept</text>
</a>
</g>
</g>
<!-- Node5&#45;&gt;Node15 -->
<g id="edge16_Node000005_Node000015" class="edge">
<title>Node5&#45;&gt;Node15</title>
<g id="a_edge16_Node000005_Node000015"><a xlink:title=" ">
<path fill="none" stroke="#63b8ff" d="M882.2,-331.88C775.56,-329.02 568.35,-318.88 396.32,-283 393.08,-282.33 389.75,-281.48 386.44,-280.55"/>
<polygon fill="#63b8ff" stroke="#63b8ff" points="387.31,-277.15 376.72,-277.54 385.24,-283.84 387.31,-277.15"/>
</a>
</g>
</g>
<!-- Node16 -->
<g id="Node000016" class="node">
<title>Node16</title>
<g id="a_Node000016"><a xlink:title=" ">
<polygon fill="#e0e0e0" stroke="#999999" points="449.32,-277.5 405.32,-277.5 405.32,-258.5 449.32,-258.5 449.32,-277.5"/>
<text text-anchor="middle" x="427.32" y="-265.5" font-family="FreeSans" font-size="10.00">string</text>
</a>
</g>
</g>
<!-- Node5&#45;&gt;Node16 -->
<g id="edge17_Node000005_Node000016" class="edge">
<title>Node5&#45;&gt;Node16</title>
<g id="a_edge17_Node000005_Node000016"><a xlink:title=" ">
<path fill="none" stroke="#63b8ff" d="M881.94,-332.96C784.55,-331.31 605.34,-322.49 458.32,-283 456.63,-282.55 454.92,-282.01 453.21,-281.42"/>
<polygon fill="#63b8ff" stroke="#63b8ff" points="454.27,-278.07 443.68,-277.58 451.65,-284.56 454.27,-278.07"/>
</a>
</g>
</g>
<!-- Node17 -->
<g id="Node000017" class="node">
<title>Node17</title>
<g id="a_Node000017"><a xlink:title=" ">
<polygon fill="#e0e0e0" stroke="#999999" points="1762.82,-211.5 1715.82,-211.5 1715.82,-192.5 1762.82,-192.5 1762.82,-211.5"/>
<text text-anchor="middle" x="1739.32" y="-199.5" font-family="FreeSans" font-size="10.00">vector</text>
</a>
</g>
</g>
<!-- Node5&#45;&gt;Node17 -->
<g id="edge18_Node000005_Node000017" class="edge">
<title>Node5&#45;&gt;Node17</title>
<g id="a_edge18_Node000005_Node000017"><a xlink:title=" ">
<path fill="none" stroke="#63b8ff" d="M1024.44,-332.8C1202.99,-331.67 1659.73,-324.69 1713.32,-283 1731.92,-268.53 1737.4,-240.5 1738.91,-221.77"/>
<polygon fill="#63b8ff" stroke="#63b8ff" points="1742.41,-221.91 1739.41,-211.74 1735.42,-221.55 1742.41,-221.91"/>
</a>
</g>
</g>
<!-- Node18 -->
<g id="Node000018" class="node">
<title>Node18</title>
<g id="a_Node000018"><a xlink:title=" ">
<polygon fill="#e0e0e0" stroke="#999999" points="607.32,-277.5 467.32,-277.5 467.32,-258.5 607.32,-258.5 607.32,-277.5"/>
<text text-anchor="middle" x="537.32" y="-265.5" font-family="FreeSans" font-size="10.00">boost/core/demangle.hpp</text>
</a>
</g>
</g>
<!-- Node5&#45;&gt;Node18 -->
<g id="edge19_Node000005_Node000018" class="edge">
<title>Node5&#45;&gt;Node18</title>
<g id="a_edge19_Node000005_Node000018"><a xlink:title=" ">
<path fill="none" stroke="#63b8ff" d="M892.36,-324.48C824.79,-314.92 712.64,-298.68 616.32,-283 609.13,-281.83 601.59,-280.56 594.14,-279.27"/>
<polygon fill="#63b8ff" stroke="#63b8ff" points="594.52,-275.78 584.07,-277.51 593.31,-282.68 594.52,-275.78"/>
</a>
</g>
</g>
<!-- Node19 -->
<g id="Node000019" class="node">
<title>Node19</title>
<g id="a_Node000019"><a xlink:title=" ">
<polygon fill="#e0e0e0" stroke="#999999" points="747.32,-283 625.32,-283 625.32,-253 747.32,-253 747.32,-283"/>
<text text-anchor="start" x="633.32" y="-271" font-family="FreeSans" font-size="10.00">boost/container/small</text>
<text text-anchor="middle" x="686.32" y="-260" font-family="FreeSans" font-size="10.00">_vector.hpp</text>
</a>
</g>
</g>
<!-- Node5&#45;&gt;Node19 -->
<g id="edge21_Node000005_Node000019" class="edge">
<title>Node5&#45;&gt;Node19</title>
<g id="a_edge21_Node000005_Node000019"><a xlink:title=" ">
<path fill="none" stroke="#63b8ff" d="M917.58,-324.44C876.07,-314.48 806.62,-297.84 754.65,-285.38"/>
<polygon fill="#63b8ff" stroke="#63b8ff" points="755.37,-281.95 744.83,-283.02 753.73,-288.76 755.37,-281.95"/>
</a>
</g>
</g>
<!-- Node20 -->
<g id="Node000020" class="node">
<title>Node20</title>
<g id="a_Node000020"><a xlink:title=" ">
<polygon fill="#e0e0e0" stroke="#999999" points="878.82,-283 765.82,-283 765.82,-253 878.82,-253 878.82,-283"/>
<text text-anchor="start" x="773.82" y="-271" font-family="FreeSans" font-size="10.00">boost/property_tree</text>
<text text-anchor="middle" x="822.32" y="-260" font-family="FreeSans" font-size="10.00">/info_parser.hpp</text>
</a>
</g>
</g>
<!-- Node5&#45;&gt;Node20 -->
<g id="edge22_Node000005_Node000020" class="edge">
<title>Node5&#45;&gt;Node20</title>
<g id="a_edge22_Node000005_Node000020"><a xlink:title=" ">
<path fill="none" stroke="#63b8ff" d="M935.65,-324.37C916.45,-314.99 885.2,-299.72 860.37,-287.59"/>
<polygon fill="#63b8ff" stroke="#63b8ff" points="861.73,-284.36 851.21,-283.12 858.66,-290.65 861.73,-284.36"/>
</a>
</g>
</g>
<!-- Node21 -->
<g id="Node000021" class="node">
<title>Node21</title>
<g id="a_Node000021"><a xlink:title=" ">
<polygon fill="#e0e0e0" stroke="#999999" points="1009.82,-283 896.82,-283 896.82,-253 1009.82,-253 1009.82,-283"/>
<text text-anchor="start" x="904.82" y="-271" font-family="FreeSans" font-size="10.00">boost/property_tree</text>
<text text-anchor="middle" x="953.32" y="-260" font-family="FreeSans" font-size="10.00">/json_parser.hpp</text>
</a>
</g>
</g>
<!-- Node5&#45;&gt;Node21 -->
<g id="edge23_Node000005_Node000021" class="edge">
<title>Node5&#45;&gt;Node21</title>
<g id="a_edge23_Node000005_Node000021"><a xlink:title=" ">
<path fill="none" stroke="#63b8ff" d="M953.32,-324.37C953.32,-316.49 953.32,-304.45 953.32,-293.6"/>
<polygon fill="#63b8ff" stroke="#63b8ff" points="956.82,-293.36 953.32,-283.36 949.82,-293.36 956.82,-293.36"/>
</a>
</g>
</g>
<!-- Node22 -->
<g id="Node000022" class="node">
<title>Node22</title>
<g id="a_Node000022"><a xlink:title=" ">
<polygon fill="#e0e0e0" stroke="#999999" points="1140.82,-283 1027.82,-283 1027.82,-253 1140.82,-253 1140.82,-283"/>
<text text-anchor="start" x="1035.82" y="-271" font-family="FreeSans" font-size="10.00">boost/property_tree</text>
<text text-anchor="middle" x="1084.32" y="-260" font-family="FreeSans" font-size="10.00">/ptree.hpp</text>
</a>
</g>
</g>
<!-- Node5&#45;&gt;Node22 -->
<g id="edge24_Node000005_Node000022" class="edge">
<title>Node5&#45;&gt;Node22</title>
<g id="a_edge24_Node000005_Node000022"><a xlink:title=" ">
<path fill="none" stroke="#63b8ff" d="M970.98,-324.37C990.18,-314.99 1021.43,-299.72 1046.26,-287.59"/>
<polygon fill="#63b8ff" stroke="#63b8ff" points="1047.97,-290.65 1055.42,-283.12 1044.9,-284.36 1047.97,-290.65"/>
</a>
</g>
</g>
<!-- Node23 -->
<g id="Node000023" class="node">
<title>Node23</title>
<g id="a_Node000023"><a xlink:title=" ">
<polygon fill="#e0e0e0" stroke="#999999" points="1271.82,-283 1158.82,-283 1158.82,-253 1271.82,-253 1271.82,-283"/>
<text text-anchor="start" x="1166.82" y="-271" font-family="FreeSans" font-size="10.00">boost/property_tree</text>
<text text-anchor="middle" x="1215.32" y="-260" font-family="FreeSans" font-size="10.00">/xml_parser.hpp</text>
</a>
</g>
</g>
<!-- Node5&#45;&gt;Node23 -->
<g id="edge25_Node000005_Node000023" class="edge">
<title>Node5&#45;&gt;Node23</title>
<g id="a_edge25_Node000005_Node000023"><a xlink:title=" ">
<path fill="none" stroke="#63b8ff" d="M988.38,-324.44C1029.16,-314.47 1097.42,-297.8 1148.44,-285.34"/>
<polygon fill="#63b8ff" stroke="#63b8ff" points="1149.52,-288.68 1158.4,-282.9 1147.86,-281.88 1149.52,-288.68"/>
</a>
</g>
</g>
<!-- Node24 -->
<g id="Node000024" class="node">
<title>Node24</title>
<g id="a_Node000024"><a xlink:title=" ">
<polygon fill="#e0e0e0" stroke="#999999" points="1396.82,-283 1289.82,-283 1289.82,-253 1396.82,-253 1396.82,-283"/>
<text text-anchor="start" x="1297.82" y="-271" font-family="FreeSans" font-size="10.00">boost/serialization</text>
<text text-anchor="middle" x="1343.32" y="-260" font-family="FreeSans" font-size="10.00">/export.hpp</text>
</a>
</g>
</g>
<!-- Node5&#45;&gt;Node24 -->
<g id="edge26_Node000005_Node000024" class="edge">
<title>Node5&#45;&gt;Node24</title>
<g id="a_edge26_Node000005_Node000024"><a xlink:title=" ">
<path fill="none" stroke="#63b8ff" d="M1018.27,-324.48C1082.41,-315.76 1183.48,-301.17 1279.7,-283.23"/>
<polygon fill="#63b8ff" stroke="#63b8ff" points="1280.41,-286.66 1289.6,-281.37 1279.12,-279.78 1280.41,-286.66"/>
</a>
</g>
</g>
<!-- Node25 -->
<g id="Node000025" class="node">
<title>Node25</title>
<g id="a_Node000025"><a xlink:href="exenv_8h.html" target="_top" xlink:title=" ">
<polygon fill="white" stroke="#666666" points="1686.82,-277.5 1559.82,-277.5 1559.82,-258.5 1686.82,-258.5 1686.82,-277.5"/>
<text text-anchor="middle" x="1623.32" y="-265.5" font-family="FreeSans" font-size="10.00">mpqc/util/core/exenv.h</text>
</a>
</g>
</g>
<!-- Node5&#45;&gt;Node25 -->
<g id="edge27_Node000005_Node000025" class="edge">
<title>Node5&#45;&gt;Node25</title>
<g id="a_edge27_Node000005_Node000025"><a xlink:title=" ">
<path fill="none" stroke="#63b8ff" d="M1024.47,-329.56C1136.81,-323.56 1361.95,-309.25 1551.32,-283 1558.51,-282 1566.08,-280.75 1573.49,-279.42"/>
<polygon fill="#63b8ff" stroke="#63b8ff" points="1574.27,-282.83 1583.46,-277.55 1572.98,-275.95 1574.27,-282.83"/>
</a>
</g>
</g>
<!-- Node34 -->
<g id="Node000034" class="node">
<title>Node34</title>
<g id="a_Node000034"><a xlink:href="util_2keyval_2fwd_8h.html" target="_top" xlink:title=" ">
<polygon fill="white" stroke="#666666" points="1541.82,-277.5 1414.82,-277.5 1414.82,-258.5 1541.82,-258.5 1541.82,-277.5"/>
<text text-anchor="middle" x="1478.32" y="-265.5" font-family="FreeSans" font-size="10.00">mpqc/util/keyval/fwd.h</text>
</a>
</g>
</g>
<!-- Node5&#45;&gt;Node34 -->
<g id="edge45_Node000005_Node000034" class="edge">
<title>Node5&#45;&gt;Node34</title>
<g id="a_edge45_Node000005_Node000034"><a xlink:title=" ">
<path fill="none" stroke="#63b8ff" d="M1024.56,-326.96C1113.99,-318.96 1271.97,-303.44 1406.32,-283 1413.17,-281.96 1420.36,-280.73 1427.44,-279.43"/>
<polygon fill="#63b8ff" stroke="#63b8ff" points="1428.49,-282.79 1437.67,-277.51 1427.2,-275.92 1428.49,-282.79"/>
</a>
</g>
</g>
<!-- Node35 -->
<g id="Node000035" class="node">
<title>Node35</title>
<g id="a_Node000035"><a xlink:href="predicates_8h.html" target="_top" xlink:title=" ">
<polygon fill="white" stroke="#666666" points="2167.32,-277.5 2013.32,-277.5 2013.32,-258.5 2167.32,-258.5 2167.32,-277.5"/>
<text text-anchor="middle" x="2090.32" y="-265.5" font-family="FreeSans" font-size="10.00">mpqc/util/meta/predicates.h</text>
</a>
</g>
</g>
<!-- Node5&#45;&gt;Node35 -->
<g id="edge46_Node000005_Node000035" class="edge">
<title>Node5&#45;&gt;Node35</title>
<g id="a_edge46_Node000005_Node000035"><a xlink:title=" ">
<path fill="none" stroke="#63b8ff" d="M1024.53,-332.17C1193.9,-329.63 1633.91,-319.74 1999.32,-283 2009.68,-281.96 2020.67,-280.54 2031.28,-279"/>
<polygon fill="#63b8ff" stroke="#63b8ff" points="2031.95,-282.44 2041.32,-277.5 2030.91,-275.52 2031.95,-282.44"/>
</a>
</g>
</g>
<!-- Node42 -->
<g id="Node000042" class="node">
<title>Node42</title>
<g id="a_Node000042"><a xlink:href="stream_8h.html" target="_top" xlink:title=" ">
<polygon fill="white" stroke="#666666" points="1956.82,-277.5 1819.82,-277.5 1819.82,-258.5 1956.82,-258.5 1956.82,-277.5"/>
<text text-anchor="middle" x="1888.32" y="-265.5" font-family="FreeSans" font-size="10.00">mpqc/util/meta/stream.h</text>
</a>
</g>
</g>
<!-- Node5&#45;&gt;Node42 -->
<g id="edge56_Node000005_Node000042" class="edge">
<title>Node5&#45;&gt;Node42</title>
<g id="a_edge56_Node000005_Node000042"><a xlink:title=" ">
<path fill="none" stroke="#63b8ff" d="M1024.51,-331.43C1171.06,-327.63 1516.93,-315.69 1805.32,-283 1814.38,-281.97 1823.96,-280.61 1833.26,-279.15"/>
<polygon fill="#63b8ff" stroke="#63b8ff" points="1833.91,-282.59 1843.21,-277.52 1832.78,-275.68 1833.91,-282.59"/>
</a>
</g>
</g>
<!-- Node13&#45;&gt;Node13 -->
<g id="edge14_Node000013_Node000013" class="edge">
<title>Node13&#45;&gt;Node13</title>
<g id="a_edge14_Node000013_Node000013"><a xlink:title=" ">
<path fill="none" stroke="#63b8ff" d="M1177.24,-145.66C1192.42,-151.34 1209.32,-148.12 1209.32,-136 1209.32,-126.53 1199,-122.5 1187.25,-123.89"/>
<polygon fill="#63b8ff" stroke="#63b8ff" points="1186.12,-120.57 1177.24,-126.34 1187.78,-127.37 1186.12,-120.57"/>
</a>
</g>
</g>
<!-- Node25&#45;&gt;Node4 -->
<g id="edge31_Node000025_Node000004" class="edge">
<title>Node25&#45;&gt;Node4</title>
<g id="a_edge31_Node000025_Node000004"><a xlink:title=" ">
<path fill="none" stroke="#63b8ff" d="M1580.77,-258.41C1525.53,-246.96 1434.66,-226.97 1422.32,-217 1385.37,-187.14 1410.48,-152.95 1375.32,-121 1354.11,-101.73 1324.76,-89.65 1299.03,-82.21"/>
<polygon fill="#63b8ff" stroke="#63b8ff" points="1299.94,-78.83 1289.37,-79.58 1298.1,-85.58 1299.94,-78.83"/>
</a>
</g>
</g>
<!-- Node25&#45;&gt;Node9 -->
<g id="edge40_Node000025_Node000009" class="edge">
<title>Node25&#45;&gt;Node9</title>
<g id="a_edge40_Node000025_Node000009"><a xlink:title=" ">
<path fill="none" stroke="#63b8ff" d="M1584.61,-258.47C1573.87,-256.38 1562.18,-254.35 1551.32,-253 1221.27,-211.93 818.84,-204.59 692.33,-203.28"/>
<polygon fill="#63b8ff" stroke="#63b8ff" points="692.36,-199.78 682.33,-203.19 692.29,-206.78 692.36,-199.78"/>
</a>
</g>
</g>
<!-- Node25&#45;&gt;Node13 -->
<g id="edge41_Node000025_Node000013" class="edge">
<title>Node25&#45;&gt;Node13</title>
<g id="a_edge41_Node000025_Node000013"><a xlink:title=" ">
<path fill="none" stroke="#63b8ff" d="M1583.07,-258.47C1572.75,-256.48 1561.65,-254.5 1551.32,-253 1469.57,-241.1 1243.57,-271.3 1181.32,-217 1164.03,-201.92 1160.96,-174.26 1161.07,-155.75"/>
<polygon fill="#63b8ff" stroke="#63b8ff" points="1164.57,-155.72 1161.45,-145.6 1157.58,-155.46 1164.57,-155.72"/>
</a>
</g>
</g>
<!-- Node25&#45;&gt;Node14 -->
<g id="edge42_Node000025_Node000014" class="edge">
<title>Node25&#45;&gt;Node14</title>
<g id="a_edge42_Node000025_Node000014"><a xlink:title=" ">
<path fill="none" stroke="#63b8ff" d="M1629.52,-258.37C1636.54,-248.59 1648.17,-232.42 1657.04,-220.08"/>
<polygon fill="#63b8ff" stroke="#63b8ff" points="1659.92,-222.07 1662.92,-211.91 1654.24,-217.98 1659.92,-222.07"/>
</a>
</g>
</g>
<!-- Node25&#45;&gt;Node17 -->
<g id="edge44_Node000025_Node000017" class="edge">
<title>Node25&#45;&gt;Node17</title>
<g id="a_edge44_Node000025_Node000017"><a xlink:title=" ">
<path fill="none" stroke="#63b8ff" d="M1638.96,-258.37C1658.42,-247.63 1691.86,-229.18 1714.75,-216.55"/>
<polygon fill="#63b8ff" stroke="#63b8ff" points="1716.48,-219.59 1723.55,-211.7 1713.1,-213.47 1716.48,-219.59"/>
</a>
</g>
</g>
<!-- Node26 -->
<g id="Node000026" class="node">
<title>Node26</title>
<g id="a_Node000026"><a xlink:href="math_2external_2tiledarray_2fwd_8h.html" target="_top" xlink:title=" ">
<polygon fill="white" stroke="#666666" points="1306.32,-217 1190.32,-217 1190.32,-187 1306.32,-187 1306.32,-217"/>
<text text-anchor="start" x="1198.32" y="-205" font-family="FreeSans" font-size="10.00">mpqc/math/external</text>
<text text-anchor="middle" x="1248.32" y="-194" font-family="FreeSans" font-size="10.00">/tiledarray/fwd.h</text>
</a>
</g>
</g>
<!-- Node25&#45;&gt;Node26 -->
<g id="edge28_Node000025_Node000026" class="edge">
<title>Node25&#45;&gt;Node26</title>
<g id="a_edge28_Node000025_Node000026"><a xlink:title=" ">
<path fill="none" stroke="#63b8ff" d="M1581.11,-258.5C1571.34,-256.61 1560.98,-254.68 1551.32,-253 1450.36,-235.46 1422.02,-235.63 1316.62,-216.99"/>
<polygon fill="#63b8ff" stroke="#63b8ff" points="1316.98,-213.5 1306.52,-215.19 1315.75,-220.39 1316.98,-213.5"/>
</a>
</g>
</g>
<!-- Node28 -->
<g id="Node000028" class="node">
<title>Node28</title>
<g id="a_Node000028"><a xlink:href="formio_8h.html" target="_top" xlink:title=" ">
<polygon fill="white" stroke="#666666" points="1561.82,-211.5 1430.82,-211.5 1430.82,-192.5 1561.82,-192.5 1561.82,-211.5"/>
<text text-anchor="middle" x="1496.32" y="-199.5" font-family="FreeSans" font-size="10.00">mpqc/util/core/formio.h</text>
</a>
</g>
</g>
<!-- Node25&#45;&gt;Node28 -->
<g id="edge32_Node000025_Node000028" class="edge">
<title>Node25&#45;&gt;Node28</title>
<g id="a_edge32_Node000025_Node000028"><a xlink:title=" ">
<path fill="none" stroke="#63b8ff" d="M1606.19,-258.37C1584.7,-247.54 1547.62,-228.85 1522.54,-216.22"/>
<polygon fill="#63b8ff" stroke="#63b8ff" points="1524.08,-213.07 1513.58,-211.7 1520.93,-219.32 1524.08,-213.07"/>
</a>
</g>
</g>
<!-- Node32 -->
<g id="Node000032" class="node">
<title>Node32</title>
<g id="a_Node000032"><a xlink:title=" ">
<polygon fill="#e0e0e0" stroke="#999999" points="1373.82,-211.5 1324.82,-211.5 1324.82,-192.5 1373.82,-192.5 1373.82,-211.5"/>
<text text-anchor="middle" x="1349.32" y="-199.5" font-family="FreeSans" font-size="10.00">cstdlib</text>
</a>
</g>
</g>
<!-- Node25&#45;&gt;Node32 -->
<g id="edge39_Node000025_Node000032" class="edge">
<title>Node25&#45;&gt;Node32</title>
<g id="a_edge39_Node000025_Node000032"><a xlink:title=" ">
<path fill="none" stroke="#63b8ff" d="M1579.65,-258.44C1522.01,-247.02 1423.72,-227.07 1388.32,-217 1385.89,-216.31 1383.41,-215.55 1380.91,-214.75"/>
<polygon fill="#63b8ff" stroke="#63b8ff" points="1382.02,-211.42 1371.42,-211.52 1379.76,-218.05 1382.02,-211.42"/>
</a>
</g>
</g>
<!-- Node33 -->
<g id="Node000033" class="node">
<title>Node33</title>
<g id="a_Node000033"><a xlink:title=" ">
<polygon fill="#e0e0e0" stroke="#999999" points="1622.82,-211.5 1579.82,-211.5 1579.82,-192.5 1622.82,-192.5 1622.82,-211.5"/>
<text text-anchor="middle" x="1601.32" y="-199.5" font-family="FreeSans" font-size="10.00">stack</text>
</a>
</g>
</g>
<!-- Node25&#45;&gt;Node33 -->
<g id="edge43_Node000025_Node000033" class="edge">
<title>Node25&#45;&gt;Node33</title>
<g id="a_edge43_Node000025_Node000033"><a xlink:title=" ">
<path fill="none" stroke="#63b8ff" d="M1620.35,-258.37C1617.12,-248.97 1611.86,-233.67 1607.69,-221.53"/>
<polygon fill="#63b8ff" stroke="#63b8ff" points="1610.94,-220.22 1604.38,-211.91 1604.32,-222.5 1610.94,-220.22"/>
</a>
</g>
</g>
<!-- Node26&#45;&gt;Node4 -->
<g id="edge29_Node000026_Node000004" class="edge">
<title>Node26&#45;&gt;Node4</title>
<g id="a_edge29_Node000026_Node000004"><a xlink:title=" ">
<path fill="none" stroke="#63b8ff" d="M1247.66,-186.84C1246.58,-163.34 1244.4,-116.26 1243.19,-89.93"/>
<polygon fill="#63b8ff" stroke="#63b8ff" points="1246.68,-89.58 1242.72,-79.75 1239.68,-89.9 1246.68,-89.58"/>
</a>
</g>
</g>
<!-- Node27 -->
<g id="Node000027" class="node">
<title>Node27</title>
<g id="a_Node000027"><a xlink:title=" ">
<polygon fill="#e0e0e0" stroke="#999999" points="1365.82,-145.5 1270.82,-145.5 1270.82,-126.5 1365.82,-126.5 1365.82,-145.5"/>
<text text-anchor="middle" x="1318.32" y="-133.5" font-family="FreeSans" font-size="10.00">tiledarray_fwd.h</text>
</a>
</g>
</g>
<!-- Node26&#45;&gt;Node27 -->
<g id="edge30_Node000026_Node000027" class="edge">
<title>Node26&#45;&gt;Node27</title>
<g id="a_edge30_Node000026_Node000027"><a xlink:title=" ">
<path fill="none" stroke="#63b8ff" d="M1263.85,-186.8C1274.87,-176.72 1289.67,-163.19 1301.05,-152.78"/>
<polygon fill="#63b8ff" stroke="#63b8ff" points="1303.62,-155.18 1308.64,-145.84 1298.9,-150.01 1303.62,-155.18"/>
</a>
</g>
</g>
<!-- Node28&#45;&gt;Node12 -->
<g id="edge34_Node000028_Node000012" class="edge">
<title>Node28&#45;&gt;Node12</title>
<g id="a_edge34_Node000028_Node000012"><a xlink:title=" ">
<path fill="none" stroke="#63b8ff" d="M1525.85,-192.37C1567.94,-180.07 1644.67,-157.65 1686.41,-145.45"/>
<polygon fill="#63b8ff" stroke="#63b8ff" points="1687.6,-148.74 1696.22,-142.58 1685.64,-142.03 1687.6,-148.74"/>
</a>
</g>
</g>
<!-- Node28&#45;&gt;Node13 -->
<g id="edge35_Node000028_Node000013" class="edge">
<title>Node28&#45;&gt;Node13</title>
<g id="a_edge35_Node000028_Node000013"><a xlink:title=" ">
<path fill="none" stroke="#63b8ff" d="M1451.62,-192.44C1385.78,-179.82 1263.8,-156.45 1201.36,-144.48"/>
<polygon fill="#63b8ff" stroke="#63b8ff" points="1201.99,-141.04 1191.51,-142.59 1200.67,-147.91 1201.99,-141.04"/>
</a>
</g>
</g>
<!-- Node29 -->
<g id="Node000029" class="node">
<title>Node29</title>
<g id="a_Node000029"><a xlink:title=" ">
<polygon fill="#e0e0e0" stroke="#999999" points="1478.32,-145.5 1430.32,-145.5 1430.32,-126.5 1478.32,-126.5 1478.32,-145.5"/>
<text text-anchor="middle" x="1454.32" y="-133.5" font-family="FreeSans" font-size="10.00">iosfwd</text>
</a>
</g>
</g>
<!-- Node28&#45;&gt;Node29 -->
<g id="edge33_Node000028_Node000029" class="edge">
<title>Node28&#45;&gt;Node29</title>
<g id="a_edge33_Node000028_Node000029"><a xlink:title=" ">
<path fill="none" stroke="#63b8ff" d="M1490.65,-192.37C1484.3,-182.69 1473.83,-166.74 1465.76,-154.44"/>
<polygon fill="#63b8ff" stroke="#63b8ff" points="1468.57,-152.35 1460.16,-145.91 1462.72,-156.19 1468.57,-152.35"/>
</a>
</g>
</g>
<!-- Node30 -->
<g id="Node000030" class="node">
<title>Node30</title>
<g id="a_Node000030"><a xlink:href="scope.html" target="_top" xlink:title=" ">
<polygon fill="white" stroke="#666666" points="1602.32,-151 1496.32,-151 1496.32,-121 1602.32,-121 1602.32,-151"/>
<text text-anchor="start" x="1504.32" y="-139" font-family="FreeSans" font-size="10.00">mpqc/util/external</text>
<text text-anchor="middle" x="1549.32" y="-128" font-family="FreeSans" font-size="10.00">/c++/scope</text>
</a>
</g>
</g>
<!-- Node28&#45;&gt;Node30 -->
<g id="edge36_Node000028_Node000030" class="edge">
<title>Node28&#45;&gt;Node30</title>
<g id="a_edge36_Node000028_Node000030"><a xlink:title=" ">
<path fill="none" stroke="#63b8ff" d="M1503.46,-192.37C1510.47,-183.91 1521.43,-170.67 1530.89,-159.25"/>
<polygon fill="#63b8ff" stroke="#63b8ff" points="1533.74,-161.29 1537.42,-151.36 1528.35,-156.83 1533.74,-161.29"/>
</a>
</g>
</g>
<!-- Node30&#45;&gt;Node4 -->
<g id="edge37_Node000030_Node000004" class="edge">
<title>Node30&#45;&gt;Node4</title>
<g id="a_edge37_Node000030_Node000004"><a xlink:title=" ">
<path fill="none" stroke="#63b8ff" d="M1496.23,-122.94C1493.22,-122.28 1490.23,-121.63 1487.32,-121 1421.4,-106.83 1345.3,-91.45 1295.62,-81.55"/>
<polygon fill="#63b8ff" stroke="#63b8ff" points="1296.24,-78.1 1285.74,-79.58 1294.87,-84.97 1296.24,-78.1"/>
</a>
</g>
</g>
<!-- Node31 -->
<g id="Node000031" class="node">
<title>Node31</title>
<g id="a_Node000031"><a xlink:title=" ">
<polygon fill="#e0e0e0" stroke="#999999" points="1571.82,-79.5 1526.82,-79.5 1526.82,-60.5 1571.82,-60.5 1571.82,-79.5"/>
<text text-anchor="middle" x="1549.32" y="-67.5" font-family="FreeSans" font-size="10.00">utility</text>
</a>
</g>
</g>
<!-- Node30&#45;&gt;Node31 -->
<g id="edge38_Node000030_Node000031" class="edge">
<title>Node30&#45;&gt;Node31</title>
<g id="a_edge38_Node000030_Node000031"><a xlink:title=" ">
<path fill="none" stroke="#63b8ff" d="M1549.32,-120.8C1549.32,-111.7 1549.32,-99.79 1549.32,-89.9"/>
<polygon fill="#63b8ff" stroke="#63b8ff" points="1552.82,-89.84 1549.32,-79.84 1545.82,-89.84 1552.82,-89.84"/>
</a>
</g>
</g>
<!-- Node36 -->
<g id="Node000036" class="node">
<title>Node36</title>
<g id="a_Node000036"><a xlink:href="get__type_8h.html" target="_top" xlink:title=" ">
<polygon fill="white" stroke="#666666" points="2145.32,-217 2035.32,-217 2035.32,-187 2145.32,-187 2145.32,-217"/>
<text text-anchor="start" x="2043.32" y="-205" font-family="FreeSans" font-size="10.00">mpqc/util/meta/get</text>
<text text-anchor="middle" x="2090.32" y="-194" font-family="FreeSans" font-size="10.00">_type.h</text>
</a>
</g>
</g>
<!-- Node35&#45;&gt;Node36 -->
<g id="edge47_Node000035_Node000036" class="edge">
<title>Node35&#45;&gt;Node36</title>
<g id="a_edge47_Node000035_Node000036"><a xlink:title=" ">
<path fill="none" stroke="#63b8ff" d="M2090.32,-258.37C2090.32,-250.49 2090.32,-238.45 2090.32,-227.6"/>
<polygon fill="#63b8ff" stroke="#63b8ff" points="2093.82,-227.36 2090.32,-217.36 2086.82,-227.36 2093.82,-227.36"/>
</a>
</g>
</g>
<!-- Node37 -->
<g id="Node000037" class="node">
<title>Node37</title>
<g id="a_Node000037"><a xlink:href="type__traits_8h.html" target="_top" xlink:title=" ">
<polygon fill="white" stroke="#666666" points="2129.32,-145.5 2051.32,-145.5 2051.32,-126.5 2129.32,-126.5 2129.32,-145.5"/>
<text text-anchor="middle" x="2090.32" y="-133.5" font-family="FreeSans" font-size="10.00">type_traits.h</text>
</a>
</g>
</g>
<!-- Node36&#45;&gt;Node37 -->
<g id="edge48_Node000036_Node000037" class="edge">
<title>Node36&#45;&gt;Node37</title>
<g id="a_edge48_Node000036_Node000037"><a xlink:title=" ">
<path fill="none" stroke="#63b8ff" d="M2090.32,-186.8C2090.32,-177.7 2090.32,-165.79 2090.32,-155.9"/>
<polygon fill="#63b8ff" stroke="#63b8ff" points="2093.82,-155.84 2090.32,-145.84 2086.82,-155.84 2093.82,-155.84"/>
</a>
</g>
</g>
<!-- Node37&#45;&gt;Node6 -->
<g id="edge49_Node000037_Node000006" class="edge">
<title>Node37&#45;&gt;Node6</title>
<g id="a_edge49_Node000037_Node000006"><a xlink:title=" ">
<path fill="none" stroke="#63b8ff" d="M2076.16,-126.37C2058.78,-115.78 2029.07,-97.67 2008.38,-85.06"/>
<polygon fill="#63b8ff" stroke="#63b8ff" points="2009.95,-81.92 1999.59,-79.7 2006.3,-87.89 2009.95,-81.92"/>
</a>
</g>
</g>
<!-- Node38 -->
<g id="Node000038" class="node">
<title>Node38</title>
<g id="a_Node000038"><a xlink:title=" ">
<polygon fill="#e0e0e0" stroke="#999999" points="2292.32,-19 2242.32,-19 2242.32,0 2292.32,0 2292.32,-19"/>
<text text-anchor="middle" x="2267.32" y="-7" font-family="FreeSans" font-size="10.00">atomic</text>
</a>
</g>
</g>
<!-- Node37&#45;&gt;Node38 -->
<g id="edge50_Node000037_Node000038" class="edge">
<title>Node37&#45;&gt;Node38</title>
<g id="a_edge50_Node000037_Node000038"><a xlink:title=" ">
<path fill="none" stroke="#63b8ff" d="M2129.49,-130.81C2181.72,-124.33 2269.87,-109.93 2289.32,-85 2302.35,-68.29 2291.09,-44.02 2280.45,-27.77"/>
<polygon fill="#63b8ff" stroke="#63b8ff" points="2283.07,-25.4 2274.45,-19.24 2277.35,-29.44 2283.07,-25.4"/>
</a>
</g>
</g>
<!-- Node39 -->
<g id="Node000039" class="node">
<title>Node39</title>
<g id="a_Node000039"><a xlink:title=" ">
<polygon fill="#e0e0e0" stroke="#999999" points="2405.82,-79.5 2336.82,-79.5 2336.82,-60.5 2405.82,-60.5 2405.82,-79.5"/>
<text text-anchor="middle" x="2371.32" y="-67.5" font-family="FreeSans" font-size="10.00">type_traits</text>
</a>
</g>
</g>
<!-- Node37&#45;&gt;Node39 -->
<g id="edge51_Node000037_Node000039" class="edge">
<title>Node37&#45;&gt;Node39</title>
<g id="a_edge51_Node000037_Node000039"><a xlink:title=" ">
<path fill="none" stroke="#63b8ff" d="M2129.49,-127.38C2175.77,-118.19 2254.97,-101.86 2322.32,-85 2325.72,-84.15 2329.25,-83.22 2332.78,-82.27"/>
<polygon fill="#63b8ff" stroke="#63b8ff" points="2333.94,-85.58 2342.64,-79.54 2332.07,-78.83 2333.94,-85.58"/>
</a>
</g>
</g>
<!-- Node40 -->
<g id="Node000040" class="node">
<title>Node40</title>
<g id="a_Node000040"><a xlink:href="atomic_8h.html" target="_top" xlink:title=" ">
<polygon fill="white" stroke="#666666" points="2280.32,-85 2174.32,-85 2174.32,-55 2280.32,-55 2280.32,-85"/>
<text text-anchor="start" x="2182.32" y="-73" font-family="FreeSans" font-size="10.00">mpqc/util/external</text>
<text text-anchor="middle" x="2227.32" y="-62" font-family="FreeSans" font-size="10.00">/c++/atomic.h</text>
</a>
</g>
</g>
<!-- Node37&#45;&gt;Node40 -->
<g id="edge52_Node000037_Node000040" class="edge">
<title>Node37&#45;&gt;Node40</title>
<g id="a_edge52_Node000037_Node000040"><a xlink:title=" ">
<path fill="none" stroke="#63b8ff" d="M2108.79,-126.37C2128.96,-116.95 2161.84,-101.59 2187.86,-89.43"/>
<polygon fill="#63b8ff" stroke="#63b8ff" points="2189.52,-92.52 2197.1,-85.12 2186.56,-86.18 2189.52,-92.52"/>
</a>
</g>
</g>
<!-- Node41 -->
<g id="Node000041" class="node">
<title>Node41</title>
<g id="a_Node000041"><a xlink:href="sfinae_8h.html" target="_top" xlink:title=" ">
<polygon fill="white" stroke="#666666" points="2156.32,-79.5 2024.32,-79.5 2024.32,-60.5 2156.32,-60.5 2156.32,-79.5"/>
<text text-anchor="middle" x="2090.32" y="-67.5" font-family="FreeSans" font-size="10.00">mpqc/util/meta/sfinae.h</text>
</a>
</g>
</g>
<!-- Node37&#45;&gt;Node41 -->
<g id="edge54_Node000037_Node000041" class="edge">
<title>Node37&#45;&gt;Node41</title>
<g id="a_edge54_Node000037_Node000041"><a xlink:title=" ">
<path fill="none" stroke="#63b8ff" d="M2085.53,-126.37C2083.54,-117.07 2083.06,-101.98 2084.1,-89.9"/>
<polygon fill="#63b8ff" stroke="#63b8ff" points="2087.58,-90.29 2085.47,-79.91 2080.64,-89.34 2087.58,-90.29"/>
</a>
</g>
</g>
<!-- Node40&#45;&gt;Node38 -->
<g id="edge53_Node000040_Node000038" class="edge">
<title>Node40&#45;&gt;Node38</title>
<g id="a_edge53_Node000040_Node000038"><a xlink:title=" ">
<path fill="none" stroke="#63b8ff" d="M2237,-54.84C2242.57,-46.69 2249.61,-36.4 2255.5,-27.78"/>
<polygon fill="#63b8ff" stroke="#63b8ff" points="2258.57,-29.5 2261.32,-19.27 2252.79,-25.55 2258.57,-29.5"/>
</a>
</g>
</g>
<!-- Node41&#45;&gt;Node37 -->
<g id="edge55_Node000041_Node000037" class="edge">
<title>Node41&#45;&gt;Node37</title>
<g id="a_edge55_Node000041_Node000037"><a xlink:title=" ">
<path fill="none" stroke="#63b8ff" d="M2095.16,-79.91C2097.12,-89.32 2097.57,-104.43 2096.51,-116.45"/>
<polygon fill="#63b8ff" stroke="#63b8ff" points="2093.04,-115.98 2095.1,-126.37 2099.97,-116.96 2093.04,-115.98"/>
</a>
</g>
</g>
<!-- Node43 -->
<g id="Node000043" class="node">
<title>Node43</title>
<g id="a_Node000043"><a xlink:title=" ">
<polygon fill="#e0e0e0" stroke="#999999" points="1946.32,-217 1830.32,-217 1830.32,-187 1946.32,-187 1946.32,-217"/>
<text text-anchor="start" x="1838.32" y="-205" font-family="FreeSans" font-size="10.00">madness/world/type</text>
<text text-anchor="middle" x="1888.32" y="-194" font-family="FreeSans" font-size="10.00">_traits.h</text>
</a>
</g>
</g>
<!-- Node42&#45;&gt;Node43 -->
<g id="edge57_Node000042_Node000043" class="edge">
<title>Node42&#45;&gt;Node43</title>
<g id="a_edge57_Node000042_Node000043"><a xlink:title=" ">
<path fill="none" stroke="#63b8ff" d="M1888.32,-258.37C1888.32,-250.49 1888.32,-238.45 1888.32,-227.6"/>
<polygon fill="#63b8ff" stroke="#63b8ff" points="1891.82,-227.36 1888.32,-217.36 1884.82,-227.36 1891.82,-227.36"/>
</a>
</g>
</g>
</g>
</svg>

<g id="navigator" transform="translate(0 0)" fill="#404254">
  <rect fill="#f2f5e9" fill-opacity="0.5" stroke="#606060" stroke-width=".5" x="0" y="0" width="60" height="60"/>
  <use id="zoomplus" xlink:href="#zoomPlus" x="17" y="9" onmousedown="handleZoom(evt,'in')"/>
  <use id="zoomminus" xlink:href="#zoomMin" x="42" y="9" onmousedown="handleZoom(evt,'out')"/>
  <use id="reset" xlink:href="#resetDef" x="30" y="36" onmousedown="handleReset()"/>
   <use id="arrowup" xlink:href="#arrowUp" x="0" y="0" onmousedown="handlePan(0,-1)"/>
  <use id="arrowright" xlink:href="#arrowRight" x="0" y="0" onmousedown="handlePan(1,0)"/>
  <use id="arrowdown" xlink:href="#arrowDown" x="0" y="0" onmousedown="handlePan(0,1)"/>
  <use id="arrowleft" xlink:href="#arrowLeft" x="0" y="0" onmousedown="handlePan(-1,0)"/>
</g>
<svg viewBox="0 0 15 15" width="100%" height="30px" preserveAspectRatio="xMaxYMin meet">
 <g id="arrow_out" transform="scale(0.3 0.3)">
  <a xlink:href="diis_8h__incl_org.svg" target="_base">
   <rect id="button" ry="5" rx="5" y="6" x="6" height="38" width="38"
        fill="#f2f5e9" fill-opacity="0.5" stroke="#606060" stroke-width="1.0"/>
   <path id="arrow"
     d="M 11.500037,31.436501 C 11.940474,20.09759 22.043105,11.32322 32.158766,21.979434 L 37.068811,17.246167 C 37.068811,17.246167 37.088388,32 37.088388,32 L 22.160133,31.978069 C 22.160133,31.978069 26.997745,27.140456 26.997745,27.140456 C 18.528582,18.264221 13.291696,25.230495 11.500037,31.436501 z"
     style="fill:#404040;"/>
  </a>
 </g>
</svg>

<style type='text/css'>
<![CDATA[
[data-mouse-over-selected='false'] { opacity: 0.7; }
[data-mouse-over-selected='true']  { opacity: 1.0; }
]]>
</style>
<script type="application/ecmascript"><![CDATA[
document.addEventListener('DOMContentLoaded', (event) => {
  highlightEdges();
  highlightAdjacentNodes();
});
]]></script>
</svg>
