<?xml version="1.0" encoding="UTF-8" standalone="no"?>
<!DOCTYPE svg PUBLIC "-//W3C//DTD SVG 1.1//EN"
 "http://www.w3.org/Graphics/SVG/1.1/DTD/svg11.dtd">
<!-- Generated by graphviz version 2.43.0 (0)
 -->
<!-- Title: mpqc/math/solvers/diis.cpp Pages: 1 -->
<svg width="2414pt" height="467pt"
 viewBox="0.00 0.00 2413.71 467.00" xmlns="http://www.w3.org/2000/svg" xmlns:xlink="http://www.w3.org/1999/xlink">
<g id="graph0" class="graph" transform="scale(1 1) rotate(0) translate(4 463)">
<title>mpqc/math/solvers/diis.cpp</title>
<!-- Node1 -->
<g id="Node000001" class="node">
<title>Node1</title>
<g id="a_Node000001"><a xlink:title=" ">
<polygon fill="#999999" stroke="#666666" points="946.71,-459 795.71,-459 795.71,-440 946.71,-440 946.71,-459"/>
<text text-anchor="middle" x="871.21" y="-447" font-family="FreeSans" font-size="10.00">mpqc/math/solvers/diis.cpp</text>
</a>
</g>
</g>
<!-- Node2 -->
<g id="Node000002" class="node">
<title>Node2</title>
<g id="a_Node000002"><a xlink:href="diis_8h.html" target="_top" xlink:title=" ">
<polygon fill="white" stroke="#666666" points="859.21,-404 719.21,-404 719.21,-385 859.21,-385 859.21,-404"/>
<text text-anchor="middle" x="789.21" y="-392" font-family="FreeSans" font-size="10.00">mpqc/math/solvers/diis.h</text>
</a>
</g>
</g>
<!-- Node1&#45;&gt;Node2 -->
<g id="edge1_Node000001_Node000002" class="edge">
<title>Node1&#45;&gt;Node2</title>
<g id="a_edge1_Node000001_Node000002"><a xlink:title=" ">
<path fill="none" stroke="#63b8ff" d="M858.03,-439.98C845.44,-431.84 826.2,-419.41 811.27,-409.76"/>
<polygon fill="#63b8ff" stroke="#63b8ff" points="812.92,-406.66 802.62,-404.17 809.12,-412.54 812.92,-406.66"/>
</a>
</g>
</g>
<!-- Node45 -->
<g id="Node000045" class="node">
<title>Node45</title>
<g id="a_Node000045"><a xlink:href="forcelink_8h.html" target="_top" xlink:title=" ">
<polygon fill="white" stroke="#666666" points="1029.21,-404 877.21,-404 877.21,-385 1029.21,-385 1029.21,-404"/>
<text text-anchor="middle" x="953.21" y="-392" font-family="FreeSans" font-size="10.00">mpqc/util/keyval/forcelink.h</text>
</a>
</g>
</g>
<!-- Node1&#45;&gt;Node45 -->
<g id="edge59_Node000001_Node000045" class="edge">
<title>Node1&#45;&gt;Node45</title>
<g id="a_edge59_Node000001_Node000045"><a xlink:title=" ">
<path fill="none" stroke="#63b8ff" d="M884.38,-439.98C896.98,-431.84 916.21,-419.41 931.15,-409.76"/>
<polygon fill="#63b8ff" stroke="#63b8ff" points="933.3,-412.54 939.79,-404.17 929.5,-406.66 933.3,-412.54"/>
</a>
</g>
</g>
<!-- Node3 -->
<g id="Node000003" class="node">
<title>Node3</title>
<g id="a_Node000003"><a xlink:title=" ">
<polygon fill="#e0e0e0" stroke="#999999" points="856.21,-349 722.21,-349 722.21,-319 856.21,-319 856.21,-349"/>
<text text-anchor="start" x="730.21" y="-337" font-family="FreeSans" font-size="10.00">TiledArray/math/solvers</text>
<text text-anchor="middle" x="789.21" y="-326" font-family="FreeSans" font-size="10.00">/diis.h</text>
</a>
</g>
</g>
<!-- Node2&#45;&gt;Node3 -->
<g id="edge2_Node000002_Node000003" class="edge">
<title>Node2&#45;&gt;Node3</title>
<g id="a_edge2_Node000002_Node000003"><a xlink:title=" ">
<path fill="none" stroke="#63b8ff" d="M789.21,-384.87C789.21,-378.11 789.21,-368.35 789.21,-359.26"/>
<polygon fill="#63b8ff" stroke="#63b8ff" points="792.71,-359.11 789.21,-349.11 785.71,-359.11 792.71,-359.11"/>
</a>
</g>
</g>
<!-- Node4 -->
<g id="Node000004" class="node">
<title>Node4</title>
<g id="a_Node000004"><a xlink:href="tiledarray_8h.html" target="_top" xlink:title=" ">
<polygon fill="white" stroke="#666666" points="367.71,-349 242.71,-349 242.71,-319 367.71,-319 367.71,-349"/>
<text text-anchor="start" x="250.71" y="-337" font-family="FreeSans" font-size="10.00">mpqc/math/external</text>
<text text-anchor="middle" x="305.21" y="-326" font-family="FreeSans" font-size="10.00">/tiledarray/tiledarray.h</text>
</a>
</g>
</g>
<!-- Node2&#45;&gt;Node4 -->
<g id="edge3_Node000002_Node000004" class="edge">
<title>Node2&#45;&gt;Node4</title>
<g id="a_edge3_Node000002_Node000004"><a xlink:title=" ">
<path fill="none" stroke="#63b8ff" d="M719.09,-385.02C628.18,-374.04 470.4,-354.97 378.14,-343.81"/>
<polygon fill="#63b8ff" stroke="#63b8ff" points="378.39,-340.32 368.04,-342.59 377.55,-347.27 378.39,-340.32"/>
</a>
</g>
</g>
<!-- Node6 -->
<g id="Node000006" class="node">
<title>Node6</title>
<g id="a_Node000006"><a xlink:href="src_2mpqc_2util_2keyval_2keyval_8h.html" target="_top" xlink:title=" ">
<polygon fill="white" stroke="#666666" points="1024.21,-343.5 882.21,-343.5 882.21,-324.5 1024.21,-324.5 1024.21,-343.5"/>
<text text-anchor="middle" x="953.21" y="-331.5" font-family="FreeSans" font-size="10.00">mpqc/util/keyval/keyval.h</text>
</a>
</g>
</g>
<!-- Node2&#45;&gt;Node6 -->
<g id="edge6_Node000002_Node000006" class="edge">
<title>Node2&#45;&gt;Node6</title>
<g id="a_edge6_Node000002_Node000006"><a xlink:title=" ">
<path fill="none" stroke="#63b8ff" d="M813.06,-384.99C841.11,-374.99 887.88,-358.3 919.6,-346.99"/>
<polygon fill="#63b8ff" stroke="#63b8ff" points="921.09,-350.17 929.33,-343.52 918.74,-343.58 921.09,-350.17"/>
</a>
</g>
</g>
<!-- Node4&#45;&gt;Node4 -->
<g id="edge4_Node000004_Node000004" class="edge">
<title>Node4&#45;&gt;Node4</title>
<g id="a_edge4_Node000004_Node000004"><a xlink:title=" ">
<path fill="none" stroke="#63b8ff" d="M367.99,-344.46C378.47,-342.99 385.71,-339.51 385.71,-334 385.71,-330.47 382.74,-327.77 377.85,-325.9"/>
<polygon fill="#63b8ff" stroke="#63b8ff" points="378.53,-322.47 367.99,-323.54 376.9,-329.28 378.53,-322.47"/>
</a>
</g>
</g>
<!-- Node5 -->
<g id="Node000005" class="node">
<title>Node5</title>
<g id="a_Node000005"><a xlink:title=" ">
<polygon fill="#e0e0e0" stroke="#999999" points="1300.71,-79.5 1183.71,-79.5 1183.71,-60.5 1300.71,-60.5 1300.71,-79.5"/>
<text text-anchor="middle" x="1242.21" y="-67.5" font-family="FreeSans" font-size="10.00">mpqc/mpqc_config.h</text>
</a>
</g>
</g>
<!-- Node4&#45;&gt;Node5 -->
<g id="edge5_Node000004_Node000005" class="edge">
<title>Node4&#45;&gt;Node5</title>
<g id="a_edge5_Node000004_Node000005"><a xlink:title=" ">
<path fill="none" stroke="#63b8ff" d="M242.61,-331.68C164.03,-328.55 35.88,-318.05 6.21,-283 -2.41,-272.82 -1.6,-263.81 6.21,-253 60.75,-177.45 116,-213.94 205.21,-187 311.93,-154.77 337.23,-139.26 447.21,-121 713.07,-76.86 1034.84,-70.95 1173.35,-70.64"/>
<polygon fill="#63b8ff" stroke="#63b8ff" points="1173.4,-74.14 1183.4,-70.63 1173.39,-67.14 1173.4,-74.14"/>
</a>
</g>
</g>
<!-- Node6&#45;&gt;Node5 -->
<g id="edge21_Node000006_Node000005" class="edge">
<title>Node6&#45;&gt;Node5</title>
<g id="a_edge21_Node000006_Node000005"><a xlink:title=" ">
<path fill="none" stroke="#63b8ff" d="M905.37,-324.45C892.38,-322.39 878.29,-320.38 865.21,-319 789.19,-310.98 230.82,-338.45 178.21,-283 169.03,-273.33 171.69,-264.63 178.21,-253 205.72,-203.94 233.08,-205.48 286.21,-187 451.06,-129.68 982.89,-88.7 1173.47,-75.53"/>
<polygon fill="#63b8ff" stroke="#63b8ff" points="1173.9,-79.01 1183.63,-74.83 1173.42,-72.03 1173.9,-79.01"/>
</a>
</g>
</g>
<!-- Node7 -->
<g id="Node000007" class="node">
<title>Node7</title>
<g id="a_Node000007"><a xlink:title=" ">
<polygon fill="#e0e0e0" stroke="#999999" points="2006.21,-79.5 1964.21,-79.5 1964.21,-60.5 2006.21,-60.5 2006.21,-79.5"/>
<text text-anchor="middle" x="1985.21" y="-67.5" font-family="FreeSans" font-size="10.00">array</text>
</a>
</g>
</g>
<!-- Node6&#45;&gt;Node7 -->
<g id="edge7_Node000006_Node000007" class="edge">
<title>Node6&#45;&gt;Node7</title>
<g id="a_edge7_Node000006_Node000007"><a xlink:title=" ">
<path fill="none" stroke="#63b8ff" d="M1024.5,-332.02C1249.59,-328.6 1932.3,-315.58 1966.21,-283 2019.42,-231.88 2001.18,-131.51 1990.58,-89.84"/>
<polygon fill="#63b8ff" stroke="#63b8ff" points="1993.89,-88.69 1987.92,-79.94 1987.13,-90.5 1993.89,-88.69"/>
</a>
</g>
</g>
<!-- Node8 -->
<g id="Node000008" class="node">
<title>Node8</title>
<g id="a_Node000008"><a xlink:title=" ">
<polygon fill="#e0e0e0" stroke="#999999" points="2237.21,-277.5 2185.21,-277.5 2185.21,-258.5 2237.21,-258.5 2237.21,-277.5"/>
<text text-anchor="middle" x="2211.21" y="-265.5" font-family="FreeSans" font-size="10.00">cassert</text>
</a>
</g>
</g>
<!-- Node6&#45;&gt;Node8 -->
<g id="edge8_Node000006_Node000008" class="edge">
<title>Node6&#45;&gt;Node8</title>
<g id="a_edge8_Node000006_Node000008"><a xlink:title=" ">
<path fill="none" stroke="#63b8ff" d="M1024.4,-333.25C1251.1,-333.53 1954.25,-330.47 2176.21,-283 2178.58,-282.49 2181.01,-281.84 2183.41,-281.09"/>
<polygon fill="#63b8ff" stroke="#63b8ff" points="2184.83,-284.3 2193.05,-277.62 2182.45,-277.71 2184.83,-284.3"/>
</a>
</g>
</g>
<!-- Node9 -->
<g id="Node000009" class="node">
<title>Node9</title>
<g id="a_Node000009"><a xlink:title=" ">
<polygon fill="#e0e0e0" stroke="#999999" points="74.71,-277.5 15.71,-277.5 15.71,-258.5 74.71,-258.5 74.71,-277.5"/>
<text text-anchor="middle" x="45.21" y="-265.5" font-family="FreeSans" font-size="10.00">complex</text>
</a>
</g>
</g>
<!-- Node6&#45;&gt;Node9 -->
<g id="edge9_Node000006_Node000009" class="edge">
<title>Node6&#45;&gt;Node9</title>
<g id="a_edge9_Node000006_Node000009"><a xlink:title=" ">
<path fill="none" stroke="#63b8ff" d="M905.84,-324.47C892.72,-322.38 878.44,-320.36 865.21,-319 521.75,-283.82 429.06,-343.86 89.21,-283 85.52,-282.34 81.71,-281.45 77.95,-280.45"/>
<polygon fill="#63b8ff" stroke="#63b8ff" points="78.8,-277.05 68.21,-277.57 76.81,-283.76 78.8,-277.05"/>
</a>
</g>
</g>
<!-- Node10 -->
<g id="Node000010" class="node">
<title>Node10</title>
<g id="a_Node000010"><a xlink:title=" ">
<polygon fill="#e0e0e0" stroke="#999999" points="682.21,-211.5 622.21,-211.5 622.21,-192.5 682.21,-192.5 682.21,-211.5"/>
<text text-anchor="middle" x="652.21" y="-199.5" font-family="FreeSans" font-size="10.00">iostream</text>
</a>
</g>
</g>
<!-- Node6&#45;&gt;Node10 -->
<g id="edge10_Node000006_Node000010" class="edge">
<title>Node6&#45;&gt;Node10</title>
<g id="a_edge10_Node000006_Node000010"><a xlink:title=" ">
<path fill="none" stroke="#63b8ff" d="M905.37,-324.46C892.38,-322.4 878.28,-320.39 865.21,-319 791.4,-311.16 249.26,-336.88 198.21,-283 189.04,-273.32 189.31,-262.93 198.21,-253 225.61,-222.42 505.9,-208.59 611.9,-204.43"/>
<polygon fill="#63b8ff" stroke="#63b8ff" points="612.32,-207.91 622.18,-204.03 612.06,-200.92 612.32,-207.91"/>
</a>
</g>
</g>
<!-- Node11 -->
<g id="Node000011" class="node">
<title>Node11</title>
<g id="a_Node000011"><a xlink:title=" ">
<polygon fill="#e0e0e0" stroke="#999999" points="239.21,-277.5 207.21,-277.5 207.21,-258.5 239.21,-258.5 239.21,-277.5"/>
<text text-anchor="middle" x="223.21" y="-265.5" font-family="FreeSans" font-size="10.00">list</text>
</a>
</g>
</g>
<!-- Node6&#45;&gt;Node11 -->
<g id="edge11_Node000006_Node000011" class="edge">
<title>Node6&#45;&gt;Node11</title>
<g id="a_edge11_Node000006_Node000011"><a xlink:title=" ">
<path fill="none" stroke="#63b8ff" d="M904.91,-324.43C892.04,-322.39 878.13,-320.4 865.21,-319 728.66,-304.19 380.04,-321.53 248.21,-283 247.16,-282.69 246.1,-282.34 245.05,-281.94"/>
<polygon fill="#63b8ff" stroke="#63b8ff" points="246.48,-278.74 235.95,-277.59 243.46,-285.06 246.48,-278.74"/>
</a>
</g>
</g>
<!-- Node12 -->
<g id="Node000012" class="node">
<title>Node12</title>
<g id="a_Node000012"><a xlink:title=" ">
<polygon fill="#e0e0e0" stroke="#999999" points="303.21,-277.5 257.21,-277.5 257.21,-258.5 303.21,-258.5 303.21,-277.5"/>
<text text-anchor="middle" x="280.21" y="-265.5" font-family="FreeSans" font-size="10.00">locale</text>
</a>
</g>
</g>
<!-- Node6&#45;&gt;Node12 -->
<g id="edge12_Node000006_Node000012" class="edge">
<title>Node6&#45;&gt;Node12</title>
<g id="a_edge12_Node000006_Node000012"><a xlink:title=" ">
<path fill="none" stroke="#63b8ff" d="M904.9,-324.49C892.04,-322.45 878.12,-320.44 865.21,-319 620.44,-291.62 551.52,-341.24 312.21,-283 310.26,-282.53 308.29,-281.94 306.32,-281.28"/>
<polygon fill="#63b8ff" stroke="#63b8ff" points="307.35,-277.93 296.77,-277.54 304.8,-284.45 307.35,-277.93"/>
</a>
</g>
</g>
<!-- Node13 -->
<g id="Node000013" class="node">
<title>Node13</title>
<g id="a_Node000013"><a xlink:title=" ">
<polygon fill="#e0e0e0" stroke="#999999" points="1734.21,-145.5 1696.21,-145.5 1696.21,-126.5 1734.21,-126.5 1734.21,-145.5"/>
<text text-anchor="middle" x="1715.21" y="-133.5" font-family="FreeSans" font-size="10.00">map</text>
</a>
</g>
</g>
<!-- Node6&#45;&gt;Node13 -->
<g id="edge13_Node000006_Node000013" class="edge">
<title>Node6&#45;&gt;Node13</title>
<g id="a_edge13_Node000006_Node000013"><a xlink:title=" ">
<path fill="none" stroke="#63b8ff" d="M1024.38,-332.34C1206.09,-330.11 1677.06,-320.71 1736.21,-283 1774.63,-258.5 1791.01,-228.51 1772.21,-187 1765.43,-172.04 1751.73,-159.79 1739.46,-151.16"/>
<polygon fill="#63b8ff" stroke="#63b8ff" points="1741.17,-148.1 1730.89,-145.53 1737.32,-153.95 1741.17,-148.1"/>
</a>
</g>
</g>
<!-- Node14 -->
<g id="Node000014" class="node">
<title>Node14</title>
<g id="a_Node000014"><a xlink:href="memory.html" target="_top" xlink:title=" ">
<polygon fill="white" stroke="#666666" points="1191.21,-145.5 1133.21,-145.5 1133.21,-126.5 1191.21,-126.5 1191.21,-145.5"/>
<text text-anchor="middle" x="1162.21" y="-133.5" font-family="FreeSans" font-size="10.00">memory</text>
</a>
</g>
</g>
<!-- Node6&#45;&gt;Node14 -->
<g id="edge14_Node000006_Node000014" class="edge">
<title>Node6&#45;&gt;Node14</title>
<g id="a_edge14_Node000006_Node000014"><a xlink:title=" ">
<path fill="none" stroke="#63b8ff" d="M905.37,-324.46C892.38,-322.39 878.28,-320.38 865.21,-319 790.3,-311.07 240.04,-337.66 188.21,-283 179.03,-273.32 179.53,-263.13 188.21,-253 250.23,-180.6 948.97,-146.11 1123.09,-138.6"/>
<polygon fill="#63b8ff" stroke="#63b8ff" points="1123.25,-142.09 1133.1,-138.17 1122.96,-135.1 1123.25,-142.09"/>
</a>
</g>
</g>
<!-- Node15 -->
<g id="Node000015" class="node">
<title>Node15</title>
<g id="a_Node000015"><a xlink:title=" ">
<polygon fill="#e0e0e0" stroke="#999999" points="1697.21,-211.5 1641.21,-211.5 1641.21,-192.5 1697.21,-192.5 1697.21,-211.5"/>
<text text-anchor="middle" x="1669.21" y="-199.5" font-family="FreeSans" font-size="10.00">optional</text>
</a>
</g>
</g>
<!-- Node6&#45;&gt;Node15 -->
<g id="edge16_Node000006_Node000015" class="edge">
<title>Node6&#45;&gt;Node15</title>
<g id="a_edge16_Node000006_Node000015"><a xlink:title=" ">
<path fill="none" stroke="#63b8ff" d="M1024.21,-333.6C1201.18,-334.35 1650.93,-331.43 1696.21,-283 1712.58,-265.49 1697.02,-237.72 1683.65,-219.93"/>
<polygon fill="#63b8ff" stroke="#63b8ff" points="1686.01,-217.27 1677.03,-211.65 1680.54,-221.64 1686.01,-217.27"/>
</a>
</g>
</g>
<!-- Node16 -->
<g id="Node000016" class="node">
<title>Node16</title>
<g id="a_Node000016"><a xlink:title=" ">
<polygon fill="#e0e0e0" stroke="#999999" points="386.71,-277.5 321.71,-277.5 321.71,-258.5 386.71,-258.5 386.71,-277.5"/>
<text text-anchor="middle" x="354.21" y="-265.5" font-family="FreeSans" font-size="10.00">stdexcept</text>
</a>
</g>
</g>
<!-- Node6&#45;&gt;Node16 -->
<g id="edge17_Node000006_Node000016" class="edge">
<title>Node6&#45;&gt;Node16</title>
<g id="a_edge17_Node000006_Node000016"><a xlink:title=" ">
<path fill="none" stroke="#63b8ff" d="M903.97,-324.44C891.36,-322.45 877.81,-320.48 865.21,-319 657.58,-294.56 601.13,-324.37 396.21,-283 392.97,-282.35 389.63,-281.52 386.32,-280.59"/>
<polygon fill="#63b8ff" stroke="#63b8ff" points="387.19,-277.19 376.6,-277.59 385.13,-283.88 387.19,-277.19"/>
</a>
</g>
</g>
<!-- Node17 -->
<g id="Node000017" class="node">
<title>Node17</title>
<g id="a_Node000017"><a xlink:title=" ">
<polygon fill="#e0e0e0" stroke="#999999" points="449.21,-277.5 405.21,-277.5 405.21,-258.5 449.21,-258.5 449.21,-277.5"/>
<text text-anchor="middle" x="427.21" y="-265.5" font-family="FreeSans" font-size="10.00">string</text>
</a>
</g>
</g>
<!-- Node6&#45;&gt;Node17 -->
<g id="edge18_Node000006_Node000017" class="edge">
<title>Node6&#45;&gt;Node17</title>
<g id="a_edge18_Node000006_Node000017"><a xlink:title=" ">
<path fill="none" stroke="#63b8ff" d="M903.5,-324.47C891.02,-322.5 877.64,-320.54 865.21,-319 684.98,-296.72 633.88,-329.02 458.21,-283 456.52,-282.56 454.81,-282.03 453.1,-281.44"/>
<polygon fill="#63b8ff" stroke="#63b8ff" points="454.15,-278.09 443.56,-277.62 451.54,-284.59 454.15,-278.09"/>
</a>
</g>
</g>
<!-- Node18 -->
<g id="Node000018" class="node">
<title>Node18</title>
<g id="a_Node000018"><a xlink:title=" ">
<polygon fill="#e0e0e0" stroke="#999999" points="1762.71,-211.5 1715.71,-211.5 1715.71,-192.5 1762.71,-192.5 1762.71,-211.5"/>
<text text-anchor="middle" x="1739.21" y="-199.5" font-family="FreeSans" font-size="10.00">vector</text>
</a>
</g>
</g>
<!-- Node6&#45;&gt;Node18 -->
<g id="edge19_Node000006_Node000018" class="edge">
<title>Node6&#45;&gt;Node18</title>
<g id="a_edge19_Node000006_Node000018"><a xlink:title=" ">
<path fill="none" stroke="#63b8ff" d="M1024.33,-332.8C1202.88,-331.67 1659.62,-324.69 1713.21,-283 1731.81,-268.53 1737.29,-240.5 1738.8,-221.77"/>
<polygon fill="#63b8ff" stroke="#63b8ff" points="1742.3,-221.91 1739.31,-211.74 1735.31,-221.55 1742.3,-221.91"/>
</a>
</g>
</g>
<!-- Node19 -->
<g id="Node000019" class="node">
<title>Node19</title>
<g id="a_Node000019"><a xlink:title=" ">
<polygon fill="#e0e0e0" stroke="#999999" points="607.21,-277.5 467.21,-277.5 467.21,-258.5 607.21,-258.5 607.21,-277.5"/>
<text text-anchor="middle" x="537.21" y="-265.5" font-family="FreeSans" font-size="10.00">boost/core/demangle.hpp</text>
</a>
</g>
</g>
<!-- Node6&#45;&gt;Node19 -->
<g id="edge20_Node000006_Node000019" class="edge">
<title>Node6&#45;&gt;Node19</title>
<g id="a_edge20_Node000006_Node000019"><a xlink:title=" ">
<path fill="none" stroke="#63b8ff" d="M900.18,-324.44C888.65,-322.61 876.53,-320.72 865.21,-319 754.66,-302.22 726.61,-300.76 616.21,-283 609.02,-281.84 601.48,-280.58 594.02,-279.29"/>
<polygon fill="#63b8ff" stroke="#63b8ff" points="594.41,-275.81 583.95,-277.54 593.2,-282.7 594.41,-275.81"/>
</a>
</g>
</g>
<!-- Node20 -->
<g id="Node000020" class="node">
<title>Node20</title>
<g id="a_Node000020"><a xlink:title=" ">
<polygon fill="#e0e0e0" stroke="#999999" points="747.21,-283 625.21,-283 625.21,-253 747.21,-253 747.21,-283"/>
<text text-anchor="start" x="633.21" y="-271" font-family="FreeSans" font-size="10.00">boost/container/small</text>
<text text-anchor="middle" x="686.21" y="-260" font-family="FreeSans" font-size="10.00">_vector.hpp</text>
</a>
</g>
</g>
<!-- Node6&#45;&gt;Node20 -->
<g id="edge22_Node000006_Node000020" class="edge">
<title>Node6&#45;&gt;Node20</title>
<g id="a_edge22_Node000006_Node000020"><a xlink:title=" ">
<path fill="none" stroke="#63b8ff" d="M917.48,-324.44C875.96,-314.48 806.52,-297.84 754.54,-285.38"/>
<polygon fill="#63b8ff" stroke="#63b8ff" points="755.26,-281.95 744.72,-283.02 753.63,-288.76 755.26,-281.95"/>
</a>
</g>
</g>
<!-- Node21 -->
<g id="Node000021" class="node">
<title>Node21</title>
<g id="a_Node000021"><a xlink:title=" ">
<polygon fill="#e0e0e0" stroke="#999999" points="878.71,-283 765.71,-283 765.71,-253 878.71,-253 878.71,-283"/>
<text text-anchor="start" x="773.71" y="-271" font-family="FreeSans" font-size="10.00">boost/property_tree</text>
<text text-anchor="middle" x="822.21" y="-260" font-family="FreeSans" font-size="10.00">/info_parser.hpp</text>
</a>
</g>
</g>
<!-- Node6&#45;&gt;Node21 -->
<g id="edge23_Node000006_Node000021" class="edge">
<title>Node6&#45;&gt;Node21</title>
<g id="a_edge23_Node000006_Node000021"><a xlink:title=" ">
<path fill="none" stroke="#63b8ff" d="M935.54,-324.37C916.34,-314.99 885.09,-299.72 860.26,-287.59"/>
<polygon fill="#63b8ff" stroke="#63b8ff" points="861.62,-284.36 851.1,-283.12 858.55,-290.65 861.62,-284.36"/>
</a>
</g>
</g>
<!-- Node22 -->
<g id="Node000022" class="node">
<title>Node22</title>
<g id="a_Node000022"><a xlink:title=" ">
<polygon fill="#e0e0e0" stroke="#999999" points="1009.71,-283 896.71,-283 896.71,-253 1009.71,-253 1009.71,-283"/>
<text text-anchor="start" x="904.71" y="-271" font-family="FreeSans" font-size="10.00">boost/property_tree</text>
<text text-anchor="middle" x="953.21" y="-260" font-family="FreeSans" font-size="10.00">/json_parser.hpp</text>
</a>
</g>
</g>
<!-- Node6&#45;&gt;Node22 -->
<g id="edge24_Node000006_Node000022" class="edge">
<title>Node6&#45;&gt;Node22</title>
<g id="a_edge24_Node000006_Node000022"><a xlink:title=" ">
<path fill="none" stroke="#63b8ff" d="M953.21,-324.37C953.21,-316.49 953.21,-304.45 953.21,-293.6"/>
<polygon fill="#63b8ff" stroke="#63b8ff" points="956.71,-293.36 953.21,-283.36 949.71,-293.36 956.71,-293.36"/>
</a>
</g>
</g>
<!-- Node23 -->
<g id="Node000023" class="node">
<title>Node23</title>
<g id="a_Node000023"><a xlink:title=" ">
<polygon fill="#e0e0e0" stroke="#999999" points="1140.71,-283 1027.71,-283 1027.71,-253 1140.71,-253 1140.71,-283"/>
<text text-anchor="start" x="1035.71" y="-271" font-family="FreeSans" font-size="10.00">boost/property_tree</text>
<text text-anchor="middle" x="1084.21" y="-260" font-family="FreeSans" font-size="10.00">/ptree.hpp</text>
</a>
</g>
</g>
<!-- Node6&#45;&gt;Node23 -->
<g id="edge25_Node000006_Node000023" class="edge">
<title>Node6&#45;&gt;Node23</title>
<g id="a_edge25_Node000006_Node000023"><a xlink:title=" ">
<path fill="none" stroke="#63b8ff" d="M970.88,-324.37C990.07,-314.99 1021.32,-299.72 1046.15,-287.59"/>
<polygon fill="#63b8ff" stroke="#63b8ff" points="1047.87,-290.65 1055.32,-283.12 1044.79,-284.36 1047.87,-290.65"/>
</a>
</g>
</g>
<!-- Node24 -->
<g id="Node000024" class="node">
<title>Node24</title>
<g id="a_Node000024"><a xlink:title=" ">
<polygon fill="#e0e0e0" stroke="#999999" points="1271.71,-283 1158.71,-283 1158.71,-253 1271.71,-253 1271.71,-283"/>
<text text-anchor="start" x="1166.71" y="-271" font-family="FreeSans" font-size="10.00">boost/property_tree</text>
<text text-anchor="middle" x="1215.21" y="-260" font-family="FreeSans" font-size="10.00">/xml_parser.hpp</text>
</a>
</g>
</g>
<!-- Node6&#45;&gt;Node24 -->
<g id="edge26_Node000006_Node000024" class="edge">
<title>Node6&#45;&gt;Node24</title>
<g id="a_edge26_Node000006_Node000024"><a xlink:title=" ">
<path fill="none" stroke="#63b8ff" d="M988.27,-324.44C1029.06,-314.47 1097.31,-297.8 1148.33,-285.34"/>
<polygon fill="#63b8ff" stroke="#63b8ff" points="1149.41,-288.68 1158.29,-282.9 1147.75,-281.88 1149.41,-288.68"/>
</a>
</g>
</g>
<!-- Node25 -->
<g id="Node000025" class="node">
<title>Node25</title>
<g id="a_Node000025"><a xlink:title=" ">
<polygon fill="#e0e0e0" stroke="#999999" points="1396.71,-283 1289.71,-283 1289.71,-253 1396.71,-253 1396.71,-283"/>
<text text-anchor="start" x="1297.71" y="-271" font-family="FreeSans" font-size="10.00">boost/serialization</text>
<text text-anchor="middle" x="1343.21" y="-260" font-family="FreeSans" font-size="10.00">/export.hpp</text>
</a>
</g>
</g>
<!-- Node6&#45;&gt;Node25 -->
<g id="edge27_Node000006_Node000025" class="edge">
<title>Node6&#45;&gt;Node25</title>
<g id="a_edge27_Node000006_Node000025"><a xlink:title=" ">
<path fill="none" stroke="#63b8ff" d="M1017.33,-324.49C1081.23,-315.71 1182.34,-301.04 1279.63,-283.03"/>
<polygon fill="#63b8ff" stroke="#63b8ff" points="1280.45,-286.43 1289.64,-281.16 1279.17,-279.55 1280.45,-286.43"/>
</a>
</g>
</g>
<!-- Node26 -->
<g id="Node000026" class="node">
<title>Node26</title>
<g id="a_Node000026"><a xlink:href="exenv_8h.html" target="_top" xlink:title=" ">
<polygon fill="white" stroke="#666666" points="1686.71,-277.5 1559.71,-277.5 1559.71,-258.5 1686.71,-258.5 1686.71,-277.5"/>
<text text-anchor="middle" x="1623.21" y="-265.5" font-family="FreeSans" font-size="10.00">mpqc/util/core/exenv.h</text>
</a>
</g>
</g>
<!-- Node6&#45;&gt;Node26 -->
<g id="edge28_Node000006_Node000026" class="edge">
<title>Node6&#45;&gt;Node26</title>
<g id="a_edge28_Node000006_Node000026"><a xlink:title=" ">
<path fill="none" stroke="#63b8ff" d="M1024.24,-329.49C1136.37,-323.4 1361.13,-308.97 1550.21,-283 1557.59,-281.99 1565.35,-280.72 1572.94,-279.36"/>
<polygon fill="#63b8ff" stroke="#63b8ff" points="1573.59,-282.8 1582.79,-277.54 1572.32,-275.92 1573.59,-282.8"/>
</a>
</g>
</g>
<!-- Node35 -->
<g id="Node000035" class="node">
<title>Node35</title>
<g id="a_Node000035"><a xlink:href="util_2keyval_2fwd_8h.html" target="_top" xlink:title=" ">
<polygon fill="white" stroke="#666666" points="1541.71,-277.5 1414.71,-277.5 1414.71,-258.5 1541.71,-258.5 1541.71,-277.5"/>
<text text-anchor="middle" x="1478.21" y="-265.5" font-family="FreeSans" font-size="10.00">mpqc/util/keyval/fwd.h</text>
</a>
</g>
</g>
<!-- Node6&#45;&gt;Node35 -->
<g id="edge46_Node000006_Node000035" class="edge">
<title>Node6&#45;&gt;Node35</title>
<g id="a_edge46_Node000006_Node000035"><a xlink:title=" ">
<path fill="none" stroke="#63b8ff" d="M1024.29,-326.89C1113.51,-318.83 1271.13,-303.24 1405.21,-283 1412.07,-281.96 1419.26,-280.75 1426.35,-279.47"/>
<polygon fill="#63b8ff" stroke="#63b8ff" points="1427.42,-282.83 1436.61,-277.57 1426.14,-275.95 1427.42,-282.83"/>
</a>
</g>
</g>
<!-- Node36 -->
<g id="Node000036" class="node">
<title>Node36</title>
<g id="a_Node000036"><a xlink:href="predicates_8h.html" target="_top" xlink:title=" ">
<polygon fill="white" stroke="#666666" points="2167.21,-277.5 2013.21,-277.5 2013.21,-258.5 2167.21,-258.5 2167.21,-277.5"/>
<text text-anchor="middle" x="2090.21" y="-265.5" font-family="FreeSans" font-size="10.00">mpqc/util/meta/predicates.h</text>
</a>
</g>
</g>
<!-- Node6&#45;&gt;Node36 -->
<g id="edge47_Node000006_Node000036" class="edge">
<title>Node6&#45;&gt;Node36</title>
<g id="a_edge47_Node000006_Node000036"><a xlink:title=" ">
<path fill="none" stroke="#63b8ff" d="M1024.42,-332.17C1193.79,-329.63 1633.81,-319.74 1999.21,-283 2009.57,-281.96 2020.56,-280.54 2031.18,-279"/>
<polygon fill="#63b8ff" stroke="#63b8ff" points="2031.84,-282.44 2041.21,-277.5 2030.8,-275.52 2031.84,-282.44"/>
</a>
</g>
</g>
<!-- Node43 -->
<g id="Node000043" class="node">
<title>Node43</title>
<g id="a_Node000043"><a xlink:href="stream_8h.html" target="_top" xlink:title=" ">
<polygon fill="white" stroke="#666666" points="1956.71,-277.5 1819.71,-277.5 1819.71,-258.5 1956.71,-258.5 1956.71,-277.5"/>
<text text-anchor="middle" x="1888.21" y="-265.5" font-family="FreeSans" font-size="10.00">mpqc/util/meta/stream.h</text>
</a>
</g>
</g>
<!-- Node6&#45;&gt;Node43 -->
<g id="edge57_Node000006_Node000043" class="edge">
<title>Node6&#45;&gt;Node43</title>
<g id="a_edge57_Node000006_Node000043"><a xlink:title=" ">
<path fill="none" stroke="#63b8ff" d="M1024.4,-331.43C1170.96,-327.63 1516.82,-315.69 1805.21,-283 1814.27,-281.97 1823.85,-280.61 1833.15,-279.15"/>
<polygon fill="#63b8ff" stroke="#63b8ff" points="1833.8,-282.59 1843.1,-277.52 1832.67,-275.68 1833.8,-282.59"/>
</a>
</g>
</g>
<!-- Node14&#45;&gt;Node14 -->
<g id="edge15_Node000014_Node000014" class="edge">
<title>Node14&#45;&gt;Node14</title>
<g id="a_edge15_Node000014_Node000014"><a xlink:title=" ">
<path fill="none" stroke="#63b8ff" d="M1177.13,-145.66C1192.31,-151.34 1209.21,-148.12 1209.21,-136 1209.21,-126.53 1198.89,-122.5 1187.14,-123.89"/>
<polygon fill="#63b8ff" stroke="#63b8ff" points="1186.01,-120.57 1177.13,-126.34 1187.67,-127.37 1186.01,-120.57"/>
</a>
</g>
</g>
<!-- Node26&#45;&gt;Node5 -->
<g id="edge32_Node000026_Node000005" class="edge">
<title>Node26&#45;&gt;Node5</title>
<g id="a_edge32_Node000026_Node000005"><a xlink:title=" ">
<path fill="none" stroke="#63b8ff" d="M1580.45,-258.43C1524.93,-246.99 1433.61,-227.01 1421.21,-217 1384.24,-187.16 1409.33,-152.99 1374.21,-121 1353.18,-101.84 1324.08,-89.78 1298.55,-82.31"/>
<polygon fill="#63b8ff" stroke="#63b8ff" points="1299.17,-78.85 1288.6,-79.58 1297.31,-85.6 1299.17,-78.85"/>
</a>
</g>
</g>
<!-- Node26&#45;&gt;Node10 -->
<g id="edge41_Node000026_Node000010" class="edge">
<title>Node26&#45;&gt;Node10</title>
<g id="a_edge41_Node000026_Node000010"><a xlink:title=" ">
<path fill="none" stroke="#63b8ff" d="M1583.96,-258.47C1573.08,-256.38 1561.22,-254.36 1550.21,-253 1220.85,-212.43 819.45,-204.76 692.61,-203.33"/>
<polygon fill="#63b8ff" stroke="#63b8ff" points="692.61,-199.83 682.57,-203.22 692.53,-206.83 692.61,-199.83"/>
</a>
</g>
</g>
<!-- Node26&#45;&gt;Node14 -->
<g id="edge42_Node000026_Node000014" class="edge">
<title>Node26&#45;&gt;Node14</title>
<g id="a_edge42_Node000026_Node000014"><a xlink:title=" ">
<path fill="none" stroke="#63b8ff" d="M1582.39,-258.48C1571.93,-256.49 1560.68,-254.51 1550.21,-253 1468.66,-241.23 1243.29,-271.17 1181.21,-217 1163.93,-201.92 1160.85,-174.26 1160.96,-155.75"/>
<polygon fill="#63b8ff" stroke="#63b8ff" points="1164.46,-155.72 1161.34,-145.6 1157.47,-155.46 1164.46,-155.72"/>
</a>
</g>
</g>
<!-- Node26&#45;&gt;Node15 -->
<g id="edge43_Node000026_Node000015" class="edge">
<title>Node26&#45;&gt;Node15</title>
<g id="a_edge43_Node000026_Node000015"><a xlink:title=" ">
<path fill="none" stroke="#63b8ff" d="M1629.41,-258.37C1636.44,-248.59 1648.06,-232.42 1656.93,-220.08"/>
<polygon fill="#63b8ff" stroke="#63b8ff" points="1659.81,-222.07 1662.81,-211.91 1654.13,-217.98 1659.81,-222.07"/>
</a>
</g>
</g>
<!-- Node26&#45;&gt;Node18 -->
<g id="edge45_Node000026_Node000018" class="edge">
<title>Node26&#45;&gt;Node18</title>
<g id="a_edge45_Node000026_Node000018"><a xlink:title=" ">
<path fill="none" stroke="#63b8ff" d="M1638.85,-258.37C1658.31,-247.63 1691.75,-229.18 1714.64,-216.55"/>
<polygon fill="#63b8ff" stroke="#63b8ff" points="1716.38,-219.59 1723.44,-211.7 1712.99,-213.47 1716.38,-219.59"/>
</a>
</g>
</g>
<!-- Node27 -->
<g id="Node000027" class="node">
<title>Node27</title>
<g id="a_Node000027"><a xlink:href="math_2external_2tiledarray_2fwd_8h.html" target="_top" xlink:title=" ">
<polygon fill="white" stroke="#666666" points="1306.21,-217 1190.21,-217 1190.21,-187 1306.21,-187 1306.21,-217"/>
<text text-anchor="start" x="1198.21" y="-205" font-family="FreeSans" font-size="10.00">mpqc/math/external</text>
<text text-anchor="middle" x="1248.21" y="-194" font-family="FreeSans" font-size="10.00">/tiledarray/fwd.h</text>
</a>
</g>
</g>
<!-- Node26&#45;&gt;Node27 -->
<g id="edge29_Node000026_Node000027" class="edge">
<title>Node26&#45;&gt;Node27</title>
<g id="a_edge29_Node000026_Node000027"><a xlink:title=" ">
<path fill="none" stroke="#63b8ff" d="M1580.02,-258.44C1570.23,-256.58 1559.87,-254.67 1550.21,-253 1449.23,-235.59 1420.88,-235.78 1316.3,-217.14"/>
<polygon fill="#63b8ff" stroke="#63b8ff" points="1316.74,-213.66 1306.28,-215.33 1315.5,-220.55 1316.74,-213.66"/>
</a>
</g>
</g>
<!-- Node29 -->
<g id="Node000029" class="node">
<title>Node29</title>
<g id="a_Node000029"><a xlink:href="formio_8h.html" target="_top" xlink:title=" ">
<polygon fill="white" stroke="#666666" points="1561.71,-211.5 1430.71,-211.5 1430.71,-192.5 1561.71,-192.5 1561.71,-211.5"/>
<text text-anchor="middle" x="1496.21" y="-199.5" font-family="FreeSans" font-size="10.00">mpqc/util/core/formio.h</text>
</a>
</g>
</g>
<!-- Node26&#45;&gt;Node29 -->
<g id="edge33_Node000026_Node000029" class="edge">
<title>Node26&#45;&gt;Node29</title>
<g id="a_edge33_Node000026_Node000029"><a xlink:title=" ">
<path fill="none" stroke="#63b8ff" d="M1606.08,-258.37C1584.59,-247.54 1547.51,-228.85 1522.44,-216.22"/>
<polygon fill="#63b8ff" stroke="#63b8ff" points="1523.98,-213.07 1513.47,-211.7 1520.83,-219.32 1523.98,-213.07"/>
</a>
</g>
</g>
<!-- Node33 -->
<g id="Node000033" class="node">
<title>Node33</title>
<g id="a_Node000033"><a xlink:title=" ">
<polygon fill="#e0e0e0" stroke="#999999" points="1373.71,-211.5 1324.71,-211.5 1324.71,-192.5 1373.71,-192.5 1373.71,-211.5"/>
<text text-anchor="middle" x="1349.21" y="-199.5" font-family="FreeSans" font-size="10.00">cstdlib</text>
</a>
</g>
</g>
<!-- Node26&#45;&gt;Node33 -->
<g id="edge40_Node000026_Node000033" class="edge">
<title>Node26&#45;&gt;Node33</title>
<g id="a_edge40_Node000026_Node000033"><a xlink:title=" ">
<path fill="none" stroke="#63b8ff" d="M1579.54,-258.44C1521.9,-247.02 1423.61,-227.07 1388.21,-217 1385.79,-216.31 1383.3,-215.55 1380.81,-214.75"/>
<polygon fill="#63b8ff" stroke="#63b8ff" points="1381.91,-211.42 1371.31,-211.52 1379.66,-218.05 1381.91,-211.42"/>
</a>
</g>
</g>
<!-- Node34 -->
<g id="Node000034" class="node">
<title>Node34</title>
<g id="a_Node000034"><a xlink:title=" ">
<polygon fill="#e0e0e0" stroke="#999999" points="1622.71,-211.5 1579.71,-211.5 1579.71,-192.5 1622.71,-192.5 1622.71,-211.5"/>
<text text-anchor="middle" x="1601.21" y="-199.5" font-family="FreeSans" font-size="10.00">stack</text>
</a>
</g>
</g>
<!-- Node26&#45;&gt;Node34 -->
<g id="edge44_Node000026_Node000034" class="edge">
<title>Node26&#45;&gt;Node34</title>
<g id="a_edge44_Node000026_Node000034"><a xlink:title=" ">
<path fill="none" stroke="#63b8ff" d="M1620.24,-258.37C1617.01,-248.97 1611.75,-233.67 1607.58,-221.53"/>
<polygon fill="#63b8ff" stroke="#63b8ff" points="1610.83,-220.22 1604.27,-211.91 1604.21,-222.5 1610.83,-220.22"/>
</a>
</g>
</g>
<!-- Node27&#45;&gt;Node5 -->
<g id="edge30_Node000027_Node000005" class="edge">
<title>Node27&#45;&gt;Node5</title>
<g id="a_edge30_Node000027_Node000005"><a xlink:title=" ">
<path fill="none" stroke="#63b8ff" d="M1247.55,-186.84C1246.47,-163.34 1244.3,-116.26 1243.08,-89.93"/>
<polygon fill="#63b8ff" stroke="#63b8ff" points="1246.57,-89.58 1242.61,-79.75 1239.58,-89.9 1246.57,-89.58"/>
</a>
</g>
</g>
<!-- Node28 -->
<g id="Node000028" class="node">
<title>Node28</title>
<g id="a_Node000028"><a xlink:title=" ">
<polygon fill="#e0e0e0" stroke="#999999" points="1365.71,-145.5 1270.71,-145.5 1270.71,-126.5 1365.71,-126.5 1365.71,-145.5"/>
<text text-anchor="middle" x="1318.21" y="-133.5" font-family="FreeSans" font-size="10.00">tiledarray_fwd.h</text>
</a>
</g>
</g>
<!-- Node27&#45;&gt;Node28 -->
<g id="edge31_Node000027_Node000028" class="edge">
<title>Node27&#45;&gt;Node28</title>
<g id="a_edge31_Node000027_Node000028"><a xlink:title=" ">
<path fill="none" stroke="#63b8ff" d="M1263.74,-186.8C1274.76,-176.72 1289.56,-163.19 1300.95,-152.78"/>
<polygon fill="#63b8ff" stroke="#63b8ff" points="1303.52,-155.18 1308.53,-145.84 1298.79,-150.01 1303.52,-155.18"/>
</a>
</g>
</g>
<!-- Node29&#45;&gt;Node13 -->
<g id="edge35_Node000029_Node000013" class="edge">
<title>Node29&#45;&gt;Node13</title>
<g id="a_edge35_Node000029_Node000013"><a xlink:title=" ">
<path fill="none" stroke="#63b8ff" d="M1525.74,-192.37C1567.83,-180.07 1644.56,-157.65 1686.3,-145.45"/>
<polygon fill="#63b8ff" stroke="#63b8ff" points="1687.5,-148.74 1696.11,-142.58 1685.53,-142.03 1687.5,-148.74"/>
</a>
</g>
</g>
<!-- Node29&#45;&gt;Node14 -->
<g id="edge36_Node000029_Node000014" class="edge">
<title>Node29&#45;&gt;Node14</title>
<g id="a_edge36_Node000029_Node000014"><a xlink:title=" ">
<path fill="none" stroke="#63b8ff" d="M1451.51,-192.44C1385.67,-179.82 1263.69,-156.45 1201.25,-144.48"/>
<polygon fill="#63b8ff" stroke="#63b8ff" points="1201.88,-141.04 1191.4,-142.59 1200.56,-147.91 1201.88,-141.04"/>
</a>
</g>
</g>
<!-- Node30 -->
<g id="Node000030" class="node">
<title>Node30</title>
<g id="a_Node000030"><a xlink:title=" ">
<polygon fill="#e0e0e0" stroke="#999999" points="1478.21,-145.5 1430.21,-145.5 1430.21,-126.5 1478.21,-126.5 1478.21,-145.5"/>
<text text-anchor="middle" x="1454.21" y="-133.5" font-family="FreeSans" font-size="10.00">iosfwd</text>
</a>
</g>
</g>
<!-- Node29&#45;&gt;Node30 -->
<g id="edge34_Node000029_Node000030" class="edge">
<title>Node29&#45;&gt;Node30</title>
<g id="a_edge34_Node000029_Node000030"><a xlink:title=" ">
<path fill="none" stroke="#63b8ff" d="M1490.54,-192.37C1484.19,-182.69 1473.72,-166.74 1465.65,-154.44"/>
<polygon fill="#63b8ff" stroke="#63b8ff" points="1468.46,-152.35 1460.05,-145.91 1462.61,-156.19 1468.46,-152.35"/>
</a>
</g>
</g>
<!-- Node31 -->
<g id="Node000031" class="node">
<title>Node31</title>
<g id="a_Node000031"><a xlink:href="scope.html" target="_top" xlink:title=" ">
<polygon fill="white" stroke="#666666" points="1602.21,-151 1496.21,-151 1496.21,-121 1602.21,-121 1602.21,-151"/>
<text text-anchor="start" x="1504.21" y="-139" font-family="FreeSans" font-size="10.00">mpqc/util/external</text>
<text text-anchor="middle" x="1549.21" y="-128" font-family="FreeSans" font-size="10.00">/c++/scope</text>
</a>
</g>
</g>
<!-- Node29&#45;&gt;Node31 -->
<g id="edge37_Node000029_Node000031" class="edge">
<title>Node29&#45;&gt;Node31</title>
<g id="a_edge37_Node000029_Node000031"><a xlink:title=" ">
<path fill="none" stroke="#63b8ff" d="M1503.36,-192.37C1510.36,-183.91 1521.33,-170.67 1530.78,-159.25"/>
<polygon fill="#63b8ff" stroke="#63b8ff" points="1533.63,-161.29 1537.32,-151.36 1528.24,-156.83 1533.63,-161.29"/>
</a>
</g>
</g>
<!-- Node31&#45;&gt;Node5 -->
<g id="edge38_Node000031_Node000005" class="edge">
<title>Node31&#45;&gt;Node5</title>
<g id="a_edge38_Node000031_Node000005"><a xlink:title=" ">
<path fill="none" stroke="#63b8ff" d="M1496.12,-122.94C1493.11,-122.28 1490.12,-121.63 1487.21,-121 1421.29,-106.83 1345.19,-91.45 1295.51,-81.55"/>
<polygon fill="#63b8ff" stroke="#63b8ff" points="1296.13,-78.1 1285.64,-79.58 1294.76,-84.97 1296.13,-78.1"/>
</a>
</g>
</g>
<!-- Node32 -->
<g id="Node000032" class="node">
<title>Node32</title>
<g id="a_Node000032"><a xlink:title=" ">
<polygon fill="#e0e0e0" stroke="#999999" points="1571.71,-79.5 1526.71,-79.5 1526.71,-60.5 1571.71,-60.5 1571.71,-79.5"/>
<text text-anchor="middle" x="1549.21" y="-67.5" font-family="FreeSans" font-size="10.00">utility</text>
</a>
</g>
</g>
<!-- Node31&#45;&gt;Node32 -->
<g id="edge39_Node000031_Node000032" class="edge">
<title>Node31&#45;&gt;Node32</title>
<g id="a_edge39_Node000031_Node000032"><a xlink:title=" ">
<path fill="none" stroke="#63b8ff" d="M1549.21,-120.8C1549.21,-111.7 1549.21,-99.79 1549.21,-89.9"/>
<polygon fill="#63b8ff" stroke="#63b8ff" points="1552.71,-89.84 1549.21,-79.84 1545.71,-89.84 1552.71,-89.84"/>
</a>
</g>
</g>
<!-- Node37 -->
<g id="Node000037" class="node">
<title>Node37</title>
<g id="a_Node000037"><a xlink:href="get__type_8h.html" target="_top" xlink:title=" ">
<polygon fill="white" stroke="#666666" points="2145.21,-217 2035.21,-217 2035.21,-187 2145.21,-187 2145.21,-217"/>
<text text-anchor="start" x="2043.21" y="-205" font-family="FreeSans" font-size="10.00">mpqc/util/meta/get</text>
<text text-anchor="middle" x="2090.21" y="-194" font-family="FreeSans" font-size="10.00">_type.h</text>
</a>
</g>
</g>
<!-- Node36&#45;&gt;Node37 -->
<g id="edge48_Node000036_Node000037" class="edge">
<title>Node36&#45;&gt;Node37</title>
<g id="a_edge48_Node000036_Node000037"><a xlink:title=" ">
<path fill="none" stroke="#63b8ff" d="M2090.21,-258.37C2090.21,-250.49 2090.21,-238.45 2090.21,-227.6"/>
<polygon fill="#63b8ff" stroke="#63b8ff" points="2093.71,-227.36 2090.21,-217.36 2086.71,-227.36 2093.71,-227.36"/>
</a>
</g>
</g>
<!-- Node38 -->
<g id="Node000038" class="node">
<title>Node38</title>
<g id="a_Node000038"><a xlink:href="type__traits_8h.html" target="_top" xlink:title=" ">
<polygon fill="white" stroke="#666666" points="2129.21,-145.5 2051.21,-145.5 2051.21,-126.5 2129.21,-126.5 2129.21,-145.5"/>
<text text-anchor="middle" x="2090.21" y="-133.5" font-family="FreeSans" font-size="10.00">type_traits.h</text>
</a>
</g>
</g>
<!-- Node37&#45;&gt;Node38 -->
<g id="edge49_Node000037_Node000038" class="edge">
<title>Node37&#45;&gt;Node38</title>
<g id="a_edge49_Node000037_Node000038"><a xlink:title=" ">
<path fill="none" stroke="#63b8ff" d="M2090.21,-186.8C2090.21,-177.7 2090.21,-165.79 2090.21,-155.9"/>
<polygon fill="#63b8ff" stroke="#63b8ff" points="2093.71,-155.84 2090.21,-145.84 2086.71,-155.84 2093.71,-155.84"/>
</a>
</g>
</g>
<!-- Node38&#45;&gt;Node7 -->
<g id="edge50_Node000038_Node000007" class="edge">
<title>Node38&#45;&gt;Node7</title>
<g id="a_edge50_Node000038_Node000007"><a xlink:title=" ">
<path fill="none" stroke="#63b8ff" d="M2076.05,-126.37C2058.67,-115.78 2028.97,-97.67 2008.28,-85.06"/>
<polygon fill="#63b8ff" stroke="#63b8ff" points="2009.84,-81.92 1999.48,-79.7 2006.2,-87.89 2009.84,-81.92"/>
</a>
</g>
</g>
<!-- Node39 -->
<g id="Node000039" class="node">
<title>Node39</title>
<g id="a_Node000039"><a xlink:title=" ">
<polygon fill="#e0e0e0" stroke="#999999" points="2292.21,-19 2242.21,-19 2242.21,0 2292.21,0 2292.21,-19"/>
<text text-anchor="middle" x="2267.21" y="-7" font-family="FreeSans" font-size="10.00">atomic</text>
</a>
</g>
</g>
<!-- Node38&#45;&gt;Node39 -->
<g id="edge51_Node000038_Node000039" class="edge">
<title>Node38&#45;&gt;Node39</title>
<g id="a_edge51_Node000038_Node000039"><a xlink:title=" ">
<path fill="none" stroke="#63b8ff" d="M2129.38,-130.81C2181.62,-124.33 2269.77,-109.93 2289.21,-85 2302.24,-68.29 2290.98,-44.02 2280.34,-27.77"/>
<polygon fill="#63b8ff" stroke="#63b8ff" points="2282.96,-25.4 2274.34,-19.24 2277.24,-29.44 2282.96,-25.4"/>
</a>
</g>
</g>
<!-- Node40 -->
<g id="Node000040" class="node">
<title>Node40</title>
<g id="a_Node000040"><a xlink:title=" ">
<polygon fill="#e0e0e0" stroke="#999999" points="2405.71,-79.5 2336.71,-79.5 2336.71,-60.5 2405.71,-60.5 2405.71,-79.5"/>
<text text-anchor="middle" x="2371.21" y="-67.5" font-family="FreeSans" font-size="10.00">type_traits</text>
</a>
</g>
</g>
<!-- Node38&#45;&gt;Node40 -->
<g id="edge52_Node000038_Node000040" class="edge">
<title>Node38&#45;&gt;Node40</title>
<g id="a_edge52_Node000038_Node000040"><a xlink:title=" ">
<path fill="none" stroke="#63b8ff" d="M2129.39,-127.38C2175.66,-118.19 2254.86,-101.86 2322.21,-85 2325.62,-84.15 2329.14,-83.22 2332.68,-82.27"/>
<polygon fill="#63b8ff" stroke="#63b8ff" points="2333.83,-85.58 2342.53,-79.54 2331.96,-78.83 2333.83,-85.58"/>
</a>
</g>
</g>
<!-- Node41 -->
<g id="Node000041" class="node">
<title>Node41</title>
<g id="a_Node000041"><a xlink:href="atomic_8h.html" target="_top" xlink:title=" ">
<polygon fill="white" stroke="#666666" points="2280.21,-85 2174.21,-85 2174.21,-55 2280.21,-55 2280.21,-85"/>
<text text-anchor="start" x="2182.21" y="-73" font-family="FreeSans" font-size="10.00">mpqc/util/external</text>
<text text-anchor="middle" x="2227.21" y="-62" font-family="FreeSans" font-size="10.00">/c++/atomic.h</text>
</a>
</g>
</g>
<!-- Node38&#45;&gt;Node41 -->
<g id="edge53_Node000038_Node000041" class="edge">
<title>Node38&#45;&gt;Node41</title>
<g id="a_edge53_Node000038_Node000041"><a xlink:title=" ">
<path fill="none" stroke="#63b8ff" d="M2108.68,-126.37C2128.85,-116.95 2161.73,-101.59 2187.75,-89.43"/>
<polygon fill="#63b8ff" stroke="#63b8ff" points="2189.41,-92.52 2196.99,-85.12 2186.45,-86.18 2189.41,-92.52"/>
</a>
</g>
</g>
<!-- Node42 -->
<g id="Node000042" class="node">
<title>Node42</title>
<g id="a_Node000042"><a xlink:href="sfinae_8h.html" target="_top" xlink:title=" ">
<polygon fill="white" stroke="#666666" points="2156.21,-79.5 2024.21,-79.5 2024.21,-60.5 2156.21,-60.5 2156.21,-79.5"/>
<text text-anchor="middle" x="2090.21" y="-67.5" font-family="FreeSans" font-size="10.00">mpqc/util/meta/sfinae.h</text>
</a>
</g>
</g>
<!-- Node38&#45;&gt;Node42 -->
<g id="edge55_Node000038_Node000042" class="edge">
<title>Node38&#45;&gt;Node42</title>
<g id="a_edge55_Node000038_Node000042"><a xlink:title=" ">
<path fill="none" stroke="#63b8ff" d="M2085.42,-126.37C2083.43,-117.07 2082.96,-101.98 2083.99,-89.9"/>
<polygon fill="#63b8ff" stroke="#63b8ff" points="2087.47,-90.29 2085.36,-79.91 2080.53,-89.34 2087.47,-90.29"/>
</a>
</g>
</g>
<!-- Node41&#45;&gt;Node39 -->
<g id="edge54_Node000041_Node000039" class="edge">
<title>Node41&#45;&gt;Node39</title>
<g id="a_edge54_Node000041_Node000039"><a xlink:title=" ">
<path fill="none" stroke="#63b8ff" d="M2236.89,-54.84C2242.46,-46.69 2249.5,-36.4 2255.39,-27.78"/>
<polygon fill="#63b8ff" stroke="#63b8ff" points="2258.46,-29.5 2261.21,-19.27 2252.68,-25.55 2258.46,-29.5"/>
</a>
</g>
</g>
<!-- Node42&#45;&gt;Node38 -->
<g id="edge56_Node000042_Node000038" class="edge">
<title>Node42&#45;&gt;Node38</title>
<g id="a_edge56_Node000042_Node000038"><a xlink:title=" ">
<path fill="none" stroke="#63b8ff" d="M2095.05,-79.91C2097.01,-89.32 2097.46,-104.43 2096.4,-116.45"/>
<polygon fill="#63b8ff" stroke="#63b8ff" points="2092.93,-115.98 2095,-126.37 2099.86,-116.96 2092.93,-115.98"/>
</a>
</g>
</g>
<!-- Node44 -->
<g id="Node000044" class="node">
<title>Node44</title>
<g id="a_Node000044"><a xlink:title=" ">
<polygon fill="#e0e0e0" stroke="#999999" points="1946.21,-217 1830.21,-217 1830.21,-187 1946.21,-187 1946.21,-217"/>
<text text-anchor="start" x="1838.21" y="-205" font-family="FreeSans" font-size="10.00">madness/world/type</text>
<text text-anchor="middle" x="1888.21" y="-194" font-family="FreeSans" font-size="10.00">_traits.h</text>
</a>
</g>
</g>
<!-- Node43&#45;&gt;Node44 -->
<g id="edge58_Node000043_Node000044" class="edge">
<title>Node43&#45;&gt;Node44</title>
<g id="a_edge58_Node000043_Node000044"><a xlink:title=" ">
<path fill="none" stroke="#63b8ff" d="M1888.21,-258.37C1888.21,-250.49 1888.21,-238.45 1888.21,-227.6"/>
<polygon fill="#63b8ff" stroke="#63b8ff" points="1891.71,-227.36 1888.21,-217.36 1884.71,-227.36 1891.71,-227.36"/>
</a>
</g>
</g>
<!-- Node45&#45;&gt;Node6 -->
<g id="edge60_Node000045_Node000006" class="edge">
<title>Node45&#45;&gt;Node6</title>
<g id="a_edge60_Node000045_Node000006"><a xlink:title=" ">
<path fill="none" stroke="#63b8ff" d="M953.21,-384.87C953.21,-376.75 953.21,-364.31 953.21,-353.89"/>
<polygon fill="#63b8ff" stroke="#63b8ff" points="956.71,-353.67 953.21,-343.67 949.71,-353.67 956.71,-353.67"/>
</a>
</g>
</g>
</g>
</svg>
