<?xml version="1.0" encoding="UTF-8" standalone="no"?>
<!DOCTYPE svg PUBLIC "-//W3C//DTD SVG 1.1//EN"
 "http://www.w3.org/Graphics/SVG/1.1/DTD/svg11.dtd">
<!-- Generated by graphviz version 2.43.0 (0)
 -->
<!-- Title: mpqc/chemistry/qc/lcao/integrals Pages: 1 -->
<svg width="411pt" height="196pt"
 viewBox="0.00 0.00 411.34 196.00" xmlns="http://www.w3.org/2000/svg" xmlns:xlink="http://www.w3.org/1999/xlink">
<g id="graph0" class="graph" transform="scale(1 1) rotate(0) translate(4 192)">
<title>mpqc/chemistry/qc/lcao/integrals</title>
<g id="clust1" class="cluster">
<title>clusterdir_f442f60972c0f9169917a25cab152b2a</title>
<g id="a_clust1"><a xlink:href="dir_f442f60972c0f9169917a25cab152b2a.html" target="_top" xlink:title="lcao">
<polygon fill="#daedff" stroke="#7f7f7f" stroke-dasharray="5,2" points="8,-8 8,-180 302,-180 302,-8 8,-8"/>
<text text-anchor="middle" x="155" y="-168" font-family="FreeSans" font-size="10.00">lcao</text>
</a>
</g>
</g>
<g id="clust2" class="cluster">
<title>clusterdir_b3025fc6edd0cbb07d65f3b6940386b4</title>
<g id="a_clust2"><a xlink:href="dir_b3025fc6edd0cbb07d65f3b6940386b4.html" target="_top">
<polygon fill="#daedff" stroke="#404040" stroke-width="2" points="114,-63 114,-153 294,-153 294,-63 114,-63"/>
</a>
</g>
</g>
<!-- dir_50885d8df49e326e988828eb2c569376 -->
<g id="node1" class="node">
<title>dir_50885d8df49e326e988828eb2c569376</title>
<g id="a_node1"><a xlink:href="dir_50885d8df49e326e988828eb2c569376.html" target="_top" xlink:title="basis">
<polygon fill="#4ea9ff" stroke="red" points="145,-35 103,-35 103,-16 145,-16 145,-35"/>
<text text-anchor="middle" x="124" y="-23" font-family="FreeSans" font-size="10.00">basis</text>
</a>
</g>
</g>
<!-- dir_ccca7abcd5dfb15bb9fa9e68acbdf5bb -->
<g id="node2" class="node">
<title>dir_ccca7abcd5dfb15bb9fa9e68acbdf5bb</title>
<g id="a_node2"><a xlink:href="dir_ccca7abcd5dfb15bb9fa9e68acbdf5bb.html" target="_top" xlink:title="expression">
<polygon fill="#4ea9ff" stroke="#404040" points="106,-90 36,-90 36,-71 106,-71 106,-90"/>
<text text-anchor="middle" x="71" y="-78" font-family="FreeSans" font-size="10.00">expression</text>
</a>
</g>
</g>
<!-- dir_26ae4716acfbd12584c5080db53ae013 -->
<g id="node3" class="node">
<title>dir_26ae4716acfbd12584c5080db53ae013</title>
<g id="a_node3"><a xlink:href="dir_26ae4716acfbd12584c5080db53ae013.html" target="_top" xlink:title="factory">
<polygon fill="#4ea9ff" stroke="red" points="214.5,-35 163.5,-35 163.5,-16 214.5,-16 214.5,-35"/>
<text text-anchor="middle" x="189" y="-23" font-family="FreeSans" font-size="10.00">factory</text>
</a>
</g>
</g>
<!-- dir_b3025fc6edd0cbb07d65f3b6940386b4 -->
<g id="node4" class="node">
<title>dir_b3025fc6edd0cbb07d65f3b6940386b4</title>
<text text-anchor="middle" x="152" y="-133" font-family="FreeSans" font-size="10.00">integrals</text>
</g>
<!-- dir_b3025fc6edd0cbb07d65f3b6940386b4&#45;&gt;dir_50885d8df49e326e988828eb2c569376 -->
<g id="edge3" class="edge">
<title>dir_b3025fc6edd0cbb07d65f3b6940386b4&#45;&gt;dir_50885d8df49e326e988828eb2c569376</title>
<g id="a_edge3"><a xlink:href="dir_000030_000000.html" target="_top">
<path fill="none" stroke="#63b8ff" d="M122.24,-133.21C92.58,-130.15 48.45,-120.4 27,-90 20.08,-80.19 20.17,-72.87 27,-63 41.67,-41.8 70.32,-32.9 92.69,-29.17"/>
<polygon fill="#63b8ff" stroke="#63b8ff" points="93.35,-32.61 102.77,-27.76 92.38,-25.68 93.35,-32.61"/>
</a>
</g>
<g id="a_edge3&#45;headlabel"><a xlink:href="dir_000030_000000.html" target="_top" xlink:title="6">
<text text-anchor="middle" x="90.18" y="-33.42" font-family="FreeSans" font-size="10.00" fill="#63b8ff">6</text>
</a>
</g>
</g>
<!-- dir_b3025fc6edd0cbb07d65f3b6940386b4&#45;&gt;dir_ccca7abcd5dfb15bb9fa9e68acbdf5bb -->
<g id="edge5" class="edge">
<title>dir_b3025fc6edd0cbb07d65f3b6940386b4&#45;&gt;dir_ccca7abcd5dfb15bb9fa9e68acbdf5bb</title>
<g id="a_edge5"><a xlink:href="dir_000030_000019.html" target="_top">
<path fill="none" stroke="#63b8ff" d="M138.99,-125.98C126.54,-117.84 107.54,-105.41 92.79,-95.76"/>
<polygon fill="#63b8ff" stroke="#63b8ff" points="94.54,-92.72 84.25,-90.17 90.7,-98.57 94.54,-92.72"/>
</a>
</g>
<g id="a_edge5&#45;headlabel"><a xlink:href="dir_000030_000019.html" target="_top" xlink:title="4">
<text text-anchor="middle" x="99.1" y="-89.81" font-family="FreeSans" font-size="10.00" fill="#63b8ff">4</text>
</a>
</g>
</g>
<!-- dir_d946b3cf75307c147057fc3ec8fab139 -->
<g id="node6" class="node">
<title>dir_d946b3cf75307c147057fc3ec8fab139</title>
<g id="a_node6"><a xlink:href="dir_d946b3cf75307c147057fc3ec8fab139.html" target="_top" xlink:title="screening">
<polygon fill="#4ea9ff" stroke="#404040" points="216,-90 152,-90 152,-71 216,-71 216,-90"/>
<text text-anchor="middle" x="184" y="-78" font-family="FreeSans" font-size="10.00">screening</text>
</a>
</g>
</g>
<!-- dir_b3025fc6edd0cbb07d65f3b6940386b4&#45;&gt;dir_d946b3cf75307c147057fc3ec8fab139 -->
<g id="edge6" class="edge">
<title>dir_b3025fc6edd0cbb07d65f3b6940386b4&#45;&gt;dir_d946b3cf75307c147057fc3ec8fab139</title>
<g id="a_edge6"><a xlink:href="dir_000030_000059.html" target="_top">
<path fill="none" stroke="#63b8ff" d="M157.28,-125.75C161.71,-118.42 168.16,-107.73 173.62,-98.7"/>
<polygon fill="#63b8ff" stroke="#63b8ff" points="176.64,-100.46 178.81,-90.09 170.65,-96.84 176.64,-100.46"/>
</a>
</g>
<g id="a_edge6&#45;headlabel"><a xlink:href="dir_000030_000059.html" target="_top" xlink:title="5">
<text text-anchor="middle" x="177.21" y="-102.5" font-family="FreeSans" font-size="10.00" fill="#63b8ff">5</text>
</a>
</g>
</g>
<!-- dir_048f7c5b69cb7e1832edab50eaa5c4ea -->
<g id="node7" class="node">
<title>dir_048f7c5b69cb7e1832edab50eaa5c4ea</title>
<g id="a_node7"><a xlink:href="dir_048f7c5b69cb7e1832edab50eaa5c4ea.html" target="_top" xlink:title="util">
<polygon fill="#daedff" stroke="red" stroke-dasharray="5,2" points="342,-35 310,-35 310,-16 342,-16 342,-35"/>
<text text-anchor="middle" x="326" y="-23" font-family="FreeSans" font-size="10.00">util</text>
</a>
</g>
</g>
<!-- dir_b3025fc6edd0cbb07d65f3b6940386b4&#45;&gt;dir_048f7c5b69cb7e1832edab50eaa5c4ea -->
<g id="edge1" class="edge">
<title>dir_b3025fc6edd0cbb07d65f3b6940386b4&#45;&gt;dir_048f7c5b69cb7e1832edab50eaa5c4ea</title>
<g id="a_edge1"><a xlink:href="dir_000030_000068.html" target="_top">
<path fill="none" stroke="#63b8ff" d="M166.3,-125.86C181.05,-116.94 204.68,-102.58 225,-90 232.63,-85.27 276.26,-57.82 303.62,-40.59"/>
<polygon fill="#63b8ff" stroke="#63b8ff" points="305.61,-43.48 312.2,-35.19 301.88,-37.56 305.61,-43.48"/>
</a>
</g>
<g id="a_edge1&#45;headlabel"><a xlink:href="dir_000030_000068.html" target="_top" xlink:title="32">
<text text-anchor="middle" x="304.08" y="-45.3" font-family="FreeSans" font-size="10.00" fill="#63b8ff">32</text>
</a>
</g>
</g>
<!-- dir_05301f9ba83e223c2c24bb4e5a915266 -->
<g id="node8" class="node">
<title>dir_05301f9ba83e223c2c24bb4e5a915266</title>
<g id="a_node8"><a xlink:href="dir_05301f9ba83e223c2c24bb4e5a915266.html" target="_top" xlink:title="math">
<polygon fill="#daedff" stroke="red" stroke-dasharray="5,2" points="402,-35 360,-35 360,-16 402,-16 402,-35"/>
<text text-anchor="middle" x="381" y="-23" font-family="FreeSans" font-size="10.00">math</text>
</a>
</g>
</g>
<!-- dir_b3025fc6edd0cbb07d65f3b6940386b4&#45;&gt;dir_05301f9ba83e223c2c24bb4e5a915266 -->
<g id="edge2" class="edge">
<title>dir_b3025fc6edd0cbb07d65f3b6940386b4&#45;&gt;dir_05301f9ba83e223c2c24bb4e5a915266</title>
<g id="a_edge2"><a xlink:href="dir_000030_000037.html" target="_top">
<path fill="none" stroke="#63b8ff" d="M176.63,-125.89C198.92,-117.74 232.39,-104.6 260,-90 279.29,-79.8 281.91,-73.56 301,-63 316.89,-54.21 335.28,-45.71 350.43,-39.13"/>
<polygon fill="#63b8ff" stroke="#63b8ff" points="352.03,-42.25 359.85,-35.09 349.28,-35.81 352.03,-42.25"/>
</a>
</g>
<g id="a_edge2&#45;headlabel"><a xlink:href="dir_000030_000037.html" target="_top" xlink:title="22">
<text text-anchor="middle" x="349.84" y="-43.77" font-family="FreeSans" font-size="10.00" fill="#63b8ff">22</text>
</a>
</g>
</g>
<!-- dir_79e09b370f6f9aca9214ea225a19a126 -->
<g id="node9" class="node">
<title>dir_79e09b370f6f9aca9214ea225a19a126</title>
<g id="a_node9"><a xlink:href="dir_79e09b370f6f9aca9214ea225a19a126.html" target="_top" xlink:title="molecule">
<polygon fill="#daedff" stroke="red" stroke-dasharray="5,2" points="372,-90 310,-90 310,-71 372,-71 372,-90"/>
<text text-anchor="middle" x="341" y="-78" font-family="FreeSans" font-size="10.00">molecule</text>
</a>
</g>
</g>
<!-- dir_b3025fc6edd0cbb07d65f3b6940386b4&#45;&gt;dir_79e09b370f6f9aca9214ea225a19a126 -->
<g id="edge4" class="edge">
<title>dir_b3025fc6edd0cbb07d65f3b6940386b4&#45;&gt;dir_79e09b370f6f9aca9214ea225a19a126</title>
<g id="a_edge4"><a xlink:href="dir_000030_000043.html" target="_top">
<path fill="none" stroke="#63b8ff" d="M181.53,-126.22C213.61,-117.22 265.04,-102.8 300.79,-92.78"/>
<polygon fill="#63b8ff" stroke="#63b8ff" points="301.74,-96.14 310.42,-90.07 299.85,-89.4 301.74,-96.14"/>
</a>
</g>
<g id="a_edge4&#45;headlabel"><a xlink:href="dir_000030_000043.html" target="_top" xlink:title="3">
<text text-anchor="middle" x="299.05" y="-97.35" font-family="FreeSans" font-size="10.00" fill="#63b8ff">3</text>
</a>
</g>
</g>
<!-- dir_e598daacd2e6ac0a75818526167e47d2 -->
<g id="node5" class="node">
<title>dir_e598daacd2e6ac0a75818526167e47d2</title>
<g id="a_node5"><a xlink:href="dir_e598daacd2e6ac0a75818526167e47d2.html" target="_top" xlink:title="density_fitting">
<polygon fill="#4ea9ff" stroke="#404040" points="286,-145 200,-145 200,-126 286,-126 286,-145"/>
<text text-anchor="middle" x="243" y="-133" font-family="FreeSans" font-size="10.00">density_fitting</text>
</a>
</g>
</g>
<!-- dir_e598daacd2e6ac0a75818526167e47d2&#45;&gt;dir_50885d8df49e326e988828eb2c569376 -->
<g id="edge9" class="edge">
<title>dir_e598daacd2e6ac0a75818526167e47d2&#45;&gt;dir_50885d8df49e326e988828eb2c569376</title>
<g id="a_edge9"><a xlink:href="dir_000013_000000.html" target="_top">
<path fill="none" stroke="#63b8ff" d="M205.05,-125.95C184.06,-119.39 159.06,-108.26 143,-90 132.19,-77.71 127.53,-59.49 125.52,-45.71"/>
<polygon fill="#63b8ff" stroke="#63b8ff" points="128.96,-44.96 124.38,-35.41 122,-45.73 128.96,-44.96"/>
</a>
</g>
<g id="a_edge9&#45;headlabel"><a xlink:href="dir_000013_000000.html" target="_top" xlink:title="1">
<text text-anchor="middle" x="132.18" y="-45.72" font-family="FreeSans" font-size="10.00" fill="#63b8ff">1</text>
</a>
</g>
</g>
<!-- dir_e598daacd2e6ac0a75818526167e47d2&#45;&gt;dir_d946b3cf75307c147057fc3ec8fab139 -->
<g id="edge11" class="edge">
<title>dir_e598daacd2e6ac0a75818526167e47d2&#45;&gt;dir_d946b3cf75307c147057fc3ec8fab139</title>
<g id="a_edge11"><a xlink:href="dir_000013_000059.html" target="_top">
<path fill="none" stroke="#63b8ff" d="M233.52,-125.98C224.8,-118.15 211.66,-106.34 201.1,-96.86"/>
<polygon fill="#63b8ff" stroke="#63b8ff" points="203.43,-94.25 193.65,-90.17 198.75,-99.46 203.43,-94.25"/>
</a>
</g>
<g id="a_edge11&#45;headlabel"><a xlink:href="dir_000013_000059.html" target="_top" xlink:title="1">
<text text-anchor="middle" x="208" y="-92.04" font-family="FreeSans" font-size="10.00" fill="#63b8ff">1</text>
</a>
</g>
</g>
<!-- dir_e598daacd2e6ac0a75818526167e47d2&#45;&gt;dir_048f7c5b69cb7e1832edab50eaa5c4ea -->
<g id="edge7" class="edge">
<title>dir_e598daacd2e6ac0a75818526167e47d2&#45;&gt;dir_048f7c5b69cb7e1832edab50eaa5c4ea</title>
<g id="a_edge7"><a xlink:href="dir_000013_000068.html" target="_top">
<path fill="none" stroke="#63b8ff" d="M286.22,-133.3C318.09,-129.86 359.51,-119.51 381,-90 388.06,-80.3 386.67,-73.57 381,-63 374.61,-51.09 362.43,-42.4 351.15,-36.5"/>
<polygon fill="#63b8ff" stroke="#63b8ff" points="352.57,-33.3 342.04,-32.19 349.58,-39.63 352.57,-33.3"/>
</a>
</g>
<g id="a_edge7&#45;headlabel"><a xlink:href="dir_000013_000068.html" target="_top" xlink:title="2">
<text text-anchor="middle" x="357.04" y="-29.77" font-family="FreeSans" font-size="10.00" fill="#63b8ff">2</text>
</a>
</g>
</g>
<!-- dir_e598daacd2e6ac0a75818526167e47d2&#45;&gt;dir_05301f9ba83e223c2c24bb4e5a915266 -->
<g id="edge8" class="edge">
<title>dir_e598daacd2e6ac0a75818526167e47d2&#45;&gt;dir_05301f9ba83e223c2c24bb4e5a915266</title>
<g id="a_edge8"><a xlink:href="dir_000013_000037.html" target="_top">
<path fill="none" stroke="#63b8ff" d="M286.08,-127.93C326.81,-120.73 383.62,-107.79 397,-90 407.01,-76.69 400.33,-57.83 392.78,-44.12"/>
<polygon fill="#63b8ff" stroke="#63b8ff" points="395.54,-41.93 387.36,-35.2 389.56,-45.57 395.54,-41.93"/>
</a>
</g>
<g id="a_edge8&#45;headlabel"><a xlink:href="dir_000013_000037.html" target="_top" xlink:title="3">
<text text-anchor="middle" x="399.84" y="-41.02" font-family="FreeSans" font-size="10.00" fill="#63b8ff">3</text>
</a>
</g>
</g>
<!-- dir_e598daacd2e6ac0a75818526167e47d2&#45;&gt;dir_79e09b370f6f9aca9214ea225a19a126 -->
<g id="edge10" class="edge">
<title>dir_e598daacd2e6ac0a75818526167e47d2&#45;&gt;dir_79e09b370f6f9aca9214ea225a19a126</title>
<g id="a_edge10"><a xlink:href="dir_000013_000043.html" target="_top">
<path fill="none" stroke="#63b8ff" d="M258.75,-125.98C274.23,-117.61 298.09,-104.7 316.14,-94.95"/>
<polygon fill="#63b8ff" stroke="#63b8ff" points="317.84,-98.01 324.97,-90.17 314.51,-91.85 317.84,-98.01"/>
</a>
</g>
<g id="a_edge10&#45;headlabel"><a xlink:href="dir_000013_000043.html" target="_top" xlink:title="1">
<text text-anchor="middle" x="316.03" y="-99.71" font-family="FreeSans" font-size="10.00" fill="#63b8ff">1</text>
</a>
</g>
</g>
<!-- dir_d946b3cf75307c147057fc3ec8fab139&#45;&gt;dir_50885d8df49e326e988828eb2c569376 -->
<g id="edge15" class="edge">
<title>dir_d946b3cf75307c147057fc3ec8fab139&#45;&gt;dir_50885d8df49e326e988828eb2c569376</title>
<g id="a_edge15"><a xlink:href="dir_000059_000000.html" target="_top">
<path fill="none" stroke="#63b8ff" d="M174.36,-70.98C165.49,-63.15 152.13,-51.34 141.39,-41.86"/>
<polygon fill="#63b8ff" stroke="#63b8ff" points="143.63,-39.17 133.82,-35.17 138.99,-44.41 143.63,-39.17"/>
</a>
</g>
<g id="a_edge15&#45;headlabel"><a xlink:href="dir_000059_000000.html" target="_top" xlink:title="1">
<text text-anchor="middle" x="148.2" y="-36.92" font-family="FreeSans" font-size="10.00" fill="#63b8ff">1</text>
</a>
</g>
</g>
<!-- dir_d946b3cf75307c147057fc3ec8fab139&#45;&gt;dir_26ae4716acfbd12584c5080db53ae013 -->
<g id="edge14" class="edge">
<title>dir_d946b3cf75307c147057fc3ec8fab139&#45;&gt;dir_26ae4716acfbd12584c5080db53ae013</title>
<g id="a_edge14"><a xlink:href="dir_000059_000024.html" target="_top">
<path fill="none" stroke="#63b8ff" d="M184.83,-70.75C185.48,-63.8 186.42,-53.85 187.24,-45.13"/>
<polygon fill="#63b8ff" stroke="#63b8ff" points="190.73,-45.37 188.19,-35.09 183.77,-44.72 190.73,-45.37"/>
</a>
</g>
<g id="a_edge14&#45;headlabel"><a xlink:href="dir_000059_000024.html" target="_top" xlink:title="1">
<text text-anchor="middle" x="193.22" y="-46.72" font-family="FreeSans" font-size="10.00" fill="#63b8ff">1</text>
</a>
</g>
</g>
<!-- dir_d946b3cf75307c147057fc3ec8fab139&#45;&gt;dir_048f7c5b69cb7e1832edab50eaa5c4ea -->
<g id="edge12" class="edge">
<title>dir_d946b3cf75307c147057fc3ec8fab139&#45;&gt;dir_048f7c5b69cb7e1832edab50eaa5c4ea</title>
<g id="a_edge12"><a xlink:href="dir_000059_000068.html" target="_top">
<path fill="none" stroke="#63b8ff" d="M207.92,-70.94C234.2,-61.52 275.61,-46.58 300.37,-37.12"/>
<polygon fill="#63b8ff" stroke="#63b8ff" points="301.82,-40.32 309.87,-33.44 299.29,-33.79 301.82,-40.32"/>
</a>
</g>
<g id="a_edge12&#45;headlabel"><a xlink:href="dir_000059_000068.html" target="_top" xlink:title="16">
<text text-anchor="middle" x="299.49" y="-41.77" font-family="FreeSans" font-size="10.00" fill="#63b8ff">16</text>
</a>
</g>
</g>
<!-- dir_d946b3cf75307c147057fc3ec8fab139&#45;&gt;dir_05301f9ba83e223c2c24bb4e5a915266 -->
<g id="edge13" class="edge">
<title>dir_d946b3cf75307c147057fc3ec8fab139&#45;&gt;dir_05301f9ba83e223c2c24bb4e5a915266</title>
<g id="a_edge13"><a xlink:href="dir_000059_000037.html" target="_top">
<path fill="none" stroke="#63b8ff" d="M216.06,-71.12C247.73,-62.8 297.82,-49.55 349.95,-35.26"/>
<polygon fill="#63b8ff" stroke="#63b8ff" points="350.99,-38.6 359.71,-32.58 349.14,-31.85 350.99,-38.6"/>
</a>
</g>
<g id="a_edge13&#45;headlabel"><a xlink:href="dir_000059_000037.html" target="_top" xlink:title="4">
<text text-anchor="middle" x="348.28" y="-39.79" font-family="FreeSans" font-size="10.00" fill="#63b8ff">4</text>
</a>
</g>
</g>
</g>
</svg>
