<?xml version="1.0" encoding="UTF-8" standalone="no"?>
<!DOCTYPE svg PUBLIC "-//W3C//DTD SVG 1.1//EN"
 "http://www.w3.org/Graphics/SVG/1.1/DTD/svg11.dtd">
<!-- Generated by graphviz version 2.43.0 (0)
 -->
<!-- Title: mpqc/math/external Pages: 1 -->
<svg width="352pt" height="196pt"
 viewBox="0.00 0.00 352.30 196.00" xmlns="http://www.w3.org/2000/svg" xmlns:xlink="http://www.w3.org/1999/xlink">

<svg id="main" version="1.1" xmlns="http://www.w3.org/2000/svg" xmlns:xlink="http://www.w3.org/1999/xlink" xml:space="preserve" onload="init(evt)">
<style type="text/css"><![CDATA[
.node, .edge {opacity: 0.7;}
.node.selected, .edge.selected {opacity: 1;}
.edge:hover path { stroke: red; }
.edge:hover polygon { stroke: red; fill: red; }
]]></style>
<script type="application/ecmascript" xlink:href="svg.min.js"/>
<svg id="graph" class="graph">
<g id="graph0" class="graph" transform="scale(1 1) rotate(0) translate(4 192)">
<title>mpqc/math/external</title>
<g id="clust1" class="cluster">
<title>clusterdir_05301f9ba83e223c2c24bb4e5a915266</title>
<g id="a_clust1"><a xlink:href="dir_05301f9ba83e223c2c24bb4e5a915266.html" target="_top" xlink:title="math">
<polygon fill="#daedff" stroke="#7f7f7f" stroke-dasharray="5,2" points="8,-8 8,-180 300,-180 300,-8 8,-8"/>
<text text-anchor="middle" x="154" y="-168" font-family="FreeSans" font-size="10.00">math</text>
</a>
</g>
</g>
<g id="clust2" class="cluster">
<title>clusterdir_c25531fec42ff271fb7c42451740592a</title>
<g id="a_clust2"><a xlink:href="dir_c25531fec42ff271fb7c42451740592a.html" target="_top">
<polygon fill="#daedff" stroke="#404040" stroke-width="2" points="16,-63 16,-153 246,-153 246,-63 16,-63"/>
</a>
</g>
</g>
<!-- dir_ecd5cca06cf60044dd6272e0521a038c -->
<g id="node1" class="node">
<title>dir_ecd5cca06cf60044dd6272e0521a038c</title>
<g id="a_node1"><a xlink:href="dir_ecd5cca06cf60044dd6272e0521a038c.html" target="_top" xlink:title="core">
<polygon fill="#4ea9ff" stroke="#404040" points="154,-35 116,-35 116,-16 154,-16 154,-35"/>
<text text-anchor="middle" x="135" y="-23" font-family="FreeSans" font-size="10.00">core</text>
</a>
</g>
</g>
<!-- dir_5d90b985b1cf1d0695e37f64e4d15325 -->
<g id="node2" class="node">
<title>dir_5d90b985b1cf1d0695e37f64e4d15325</title>
<g id="a_node2"><a xlink:href="dir_5d90b985b1cf1d0695e37f64e4d15325.html" target="_top" xlink:title="fock">
<polygon fill="#4ea9ff" stroke="#404040" points="292,-90 254,-90 254,-71 292,-71 292,-90"/>
<text text-anchor="middle" x="273" y="-78" font-family="FreeSans" font-size="10.00">fock</text>
</a>
</g>
</g>
<!-- dir_c25531fec42ff271fb7c42451740592a -->
<g id="node3" class="node">
<title>dir_c25531fec42ff271fb7c42451740592a</title>
<text text-anchor="middle" x="209" y="-133" font-family="FreeSans" font-size="10.00">external</text>
</g>
<!-- dir_8ad618cb0783e0796deaea5a3b3a922d -->
<g id="node4" class="node">
<title>dir_8ad618cb0783e0796deaea5a3b3a922d</title>
<g id="a_node4"><a xlink:href="dir_8ad618cb0783e0796deaea5a3b3a922d.html" target="_top" xlink:title="eigen">
<polygon fill="#4ea9ff" stroke="#404040" points="157,-90 113,-90 113,-71 157,-71 157,-90"/>
<text text-anchor="middle" x="135" y="-78" font-family="FreeSans" font-size="10.00">eigen</text>
</a>
</g>
</g>
<!-- dir_8ad618cb0783e0796deaea5a3b3a922d&#45;&gt;dir_ecd5cca06cf60044dd6272e0521a038c -->
<g id="edge2" class="edge">
<title>dir_8ad618cb0783e0796deaea5a3b3a922d&#45;&gt;dir_ecd5cca06cf60044dd6272e0521a038c</title>
<g id="a_edge2"><a xlink:href="dir_000017_000010.html" target="_top">
<path fill="none" stroke="#63b8ff" d="M135,-70.75C135,-63.8 135,-53.85 135,-45.13"/>
<polygon fill="#63b8ff" stroke="#63b8ff" points="138.5,-45.09 135,-35.09 131.5,-45.09 138.5,-45.09"/>
</a>
</g>
<g id="a_edge2&#45;headlabel"><a xlink:href="dir_000017_000010.html" target="_top" xlink:title="1">
<text text-anchor="middle" x="141.34" y="-46.18" font-family="FreeSans" font-size="10.00" fill="#63b8ff">1</text>
</a>
</g>
</g>
<!-- dir_048f7c5b69cb7e1832edab50eaa5c4ea -->
<g id="node7" class="node">
<title>dir_048f7c5b69cb7e1832edab50eaa5c4ea</title>
<g id="a_node7"><a xlink:href="dir_048f7c5b69cb7e1832edab50eaa5c4ea.html" target="_top" xlink:title="util">
<polygon fill="#daedff" stroke="red" stroke-dasharray="5,2" points="340,-35 308,-35 308,-16 340,-16 340,-35"/>
<text text-anchor="middle" x="324" y="-23" font-family="FreeSans" font-size="10.00">util</text>
</a>
</g>
</g>
<!-- dir_8ad618cb0783e0796deaea5a3b3a922d&#45;&gt;dir_048f7c5b69cb7e1832edab50eaa5c4ea -->
<g id="edge1" class="edge">
<title>dir_8ad618cb0783e0796deaea5a3b3a922d&#45;&gt;dir_048f7c5b69cb7e1832edab50eaa5c4ea</title>
<g id="a_edge1"><a xlink:href="dir_000017_000068.html" target="_top">
<path fill="none" stroke="#63b8ff" d="M146.41,-70.96C150.78,-68.05 155.93,-65.02 161,-63 218.1,-40.23 239.86,-52.57 298.25,-36.49"/>
<polygon fill="#63b8ff" stroke="#63b8ff" points="299.34,-39.82 307.95,-33.66 297.37,-33.11 299.34,-39.82"/>
</a>
</g>
<g id="a_edge1&#45;headlabel"><a xlink:href="dir_000017_000068.html" target="_top" xlink:title="2">
<text text-anchor="middle" x="296.68" y="-41.06" font-family="FreeSans" font-size="10.00" fill="#63b8ff">2</text>
</a>
</g>
</g>
<!-- dir_26e69608ed8038330a2832a6075af293 -->
<g id="node5" class="node">
<title>dir_26e69608ed8038330a2832a6075af293</title>
<g id="a_node5"><a xlink:href="dir_26e69608ed8038330a2832a6075af293.html" target="_top" xlink:title="sequant">
<polygon fill="#4ea9ff" stroke="#404040" points="162,-145 106,-145 106,-126 162,-126 162,-145"/>
<text text-anchor="middle" x="134" y="-133" font-family="FreeSans" font-size="10.00">sequant</text>
</a>
</g>
</g>
<!-- dir_26e69608ed8038330a2832a6075af293&#45;&gt;dir_5d90b985b1cf1d0695e37f64e4d15325 -->
<g id="edge4" class="edge">
<title>dir_26e69608ed8038330a2832a6075af293&#45;&gt;dir_5d90b985b1cf1d0695e37f64e4d15325</title>
<g id="a_edge4"><a xlink:href="dir_000060_000025.html" target="_top">
<path fill="none" stroke="#63b8ff" d="M156.33,-125.98C180.29,-116.85 218.39,-102.32 244.49,-92.37"/>
<polygon fill="#63b8ff" stroke="#63b8ff" points="245.76,-95.63 253.86,-88.8 243.26,-89.09 245.76,-95.63"/>
</a>
</g>
<g id="a_edge4&#45;headlabel"><a xlink:href="dir_000060_000025.html" target="_top" xlink:title="2">
<text text-anchor="middle" x="243.41" y="-97.07" font-family="FreeSans" font-size="10.00" fill="#63b8ff">2</text>
</a>
</g>
</g>
<!-- dir_26e69608ed8038330a2832a6075af293&#45;&gt;dir_048f7c5b69cb7e1832edab50eaa5c4ea -->
<g id="edge3" class="edge">
<title>dir_26e69608ed8038330a2832a6075af293&#45;&gt;dir_048f7c5b69cb7e1832edab50eaa5c4ea</title>
<g id="a_edge3"><a xlink:href="dir_000060_000068.html" target="_top">
<path fill="none" stroke="#63b8ff" d="M162.28,-127.98C165.22,-127.31 168.17,-126.64 171,-126 243.38,-109.69 287.54,-147.84 334,-90 344.24,-77.26 339.49,-58.31 333.55,-44.43"/>
<polygon fill="#63b8ff" stroke="#63b8ff" points="336.69,-42.89 329.21,-35.38 330.38,-45.91 336.69,-42.89"/>
</a>
</g>
<g id="a_edge3&#45;headlabel"><a xlink:href="dir_000060_000068.html" target="_top" xlink:title="1">
<text text-anchor="middle" x="340.8" y="-42.4" font-family="FreeSans" font-size="10.00" fill="#63b8ff">1</text>
</a>
</g>
</g>
<!-- dir_4cce056aca6ccf45b279b561034142c0 -->
<g id="node6" class="node">
<title>dir_4cce056aca6ccf45b279b561034142c0</title>
<g id="a_node6"><a xlink:href="dir_4cce056aca6ccf45b279b561034142c0.html" target="_top" xlink:title="tiledarray">
<polygon fill="#4ea9ff" stroke="#404040" points="88,-145 24,-145 24,-126 88,-126 88,-145"/>
<text text-anchor="middle" x="56" y="-133" font-family="FreeSans" font-size="10.00">tiledarray</text>
</a>
</g>
</g>
<!-- dir_4cce056aca6ccf45b279b561034142c0&#45;&gt;dir_8ad618cb0783e0796deaea5a3b3a922d -->
<g id="edge6" class="edge">
<title>dir_4cce056aca6ccf45b279b561034142c0&#45;&gt;dir_8ad618cb0783e0796deaea5a3b3a922d</title>
<g id="a_edge6"><a xlink:href="dir_000065_000017.html" target="_top">
<path fill="none" stroke="#63b8ff" d="M68.69,-125.98C80.83,-117.84 99.36,-105.41 113.75,-95.76"/>
<polygon fill="#63b8ff" stroke="#63b8ff" points="115.72,-98.65 122.08,-90.17 111.82,-92.84 115.72,-98.65"/>
</a>
</g>
<g id="a_edge6&#45;headlabel"><a xlink:href="dir_000065_000017.html" target="_top" xlink:title="1">
<text text-anchor="middle" x="114.32" y="-100.51" font-family="FreeSans" font-size="10.00" fill="#63b8ff">1</text>
</a>
</g>
</g>
<!-- dir_4cce056aca6ccf45b279b561034142c0&#45;&gt;dir_048f7c5b69cb7e1832edab50eaa5c4ea -->
<g id="edge5" class="edge">
<title>dir_4cce056aca6ccf45b279b561034142c0&#45;&gt;dir_048f7c5b69cb7e1832edab50eaa5c4ea</title>
<g id="a_edge5"><a xlink:href="dir_000065_000068.html" target="_top">
<path fill="none" stroke="#63b8ff" d="M88.21,-127.72C91.18,-127.13 94.14,-126.54 97,-126 188.73,-108.52 233.73,-151.5 304,-90 316.63,-78.95 321.37,-60.01 323.1,-45.68"/>
<polygon fill="#63b8ff" stroke="#63b8ff" points="326.61,-45.67 323.94,-35.42 319.64,-45.1 326.61,-45.67"/>
</a>
</g>
<g id="a_edge5&#45;headlabel"><a xlink:href="dir_000065_000068.html" target="_top" xlink:title="8">
<text text-anchor="middle" x="329.15" y="-46.99" font-family="FreeSans" font-size="10.00" fill="#63b8ff">8</text>
</a>
</g>
</g>
</g>
</svg>
</svg>

<style type='text/css'>
<![CDATA[
[data-mouse-over-selected='false'] { opacity: 0.7; }
[data-mouse-over-selected='true']  { opacity: 1.0; }
]]>
</style>
<script type="application/ecmascript"><![CDATA[
document.addEventListener('DOMContentLoaded', (event) => {
  highlightEdges();
  highlightAdjacentNodes();
});
]]></script>
</svg>
