<?xml version="1.0" encoding="UTF-8" standalone="no"?>
<!DOCTYPE svg PUBLIC "-//W3C//DTD SVG 1.1//EN"
 "http://www.w3.org/Graphics/SVG/1.1/DTD/svg11.dtd">
<!-- Generated by graphviz version 2.43.0 (0)
 -->
<!-- Title: mpqc/chemistry Pages: 1 -->
<svg width="239pt" height="251pt"
 viewBox="0.00 0.00 239.00 251.00" xmlns="http://www.w3.org/2000/svg" xmlns:xlink="http://www.w3.org/1999/xlink">

<svg id="main" version="1.1" xmlns="http://www.w3.org/2000/svg" xmlns:xlink="http://www.w3.org/1999/xlink" xml:space="preserve" onload="init(evt)">
<style type="text/css"><![CDATA[
.node, .edge {opacity: 0.7;}
.node.selected, .edge.selected {opacity: 1;}
.edge:hover path { stroke: red; }
.edge:hover polygon { stroke: red; fill: red; }
]]></style>
<script type="application/ecmascript" xlink:href="svg.min.js"/>
<svg id="graph" class="graph">
<g id="graph0" class="graph" transform="scale(1 1) rotate(0) translate(4 247)">
<title>mpqc/chemistry</title>
<g id="clust1" class="cluster">
<title>clusterdir_a73ae959862e3c8fc311100b0f57a4ae</title>
<g id="a_clust1"><a xlink:href="dir_a73ae959862e3c8fc311100b0f57a4ae.html" target="_top" xlink:title="mpqc">
<polygon fill="#daedff" stroke="#404040" stroke-dasharray="5,2" points="8,-8 8,-235 223,-235 223,-8 8,-8"/>
<text text-anchor="middle" x="115.5" y="-223" font-family="FreeSans" font-size="10.00">mpqc</text>
</a>
</g>
</g>
<g id="clust2" class="cluster">
<title>clusterdir_d7346f86f79c2c85c25b0625ba0ec21c</title>
<g id="a_clust2"><a xlink:href="dir_d7346f86f79c2c85c25b0625ba0ec21c.html" target="_top">
<polygon fill="#daedff" stroke="#404040" stroke-width="2" points="16,-63 16,-208 145,-208 145,-63 16,-63"/>
</a>
</g>
</g>
<!-- dir_048f7c5b69cb7e1832edab50eaa5c4ea -->
<g id="node1" class="node">
<title>dir_048f7c5b69cb7e1832edab50eaa5c4ea</title>
<g id="a_node1"><a xlink:href="dir_048f7c5b69cb7e1832edab50eaa5c4ea.html" target="_top" xlink:title="util">
<polygon fill="#4ea9ff" stroke="red" points="128,-35 96,-35 96,-16 128,-16 128,-35"/>
<text text-anchor="middle" x="112" y="-23" font-family="FreeSans" font-size="10.00">util</text>
</a>
</g>
</g>
<!-- dir_05301f9ba83e223c2c24bb4e5a915266 -->
<g id="node2" class="node">
<title>dir_05301f9ba83e223c2c24bb4e5a915266</title>
<g id="a_node2"><a xlink:href="dir_05301f9ba83e223c2c24bb4e5a915266.html" target="_top" xlink:title="math">
<polygon fill="#4ea9ff" stroke="red" points="195,-90 153,-90 153,-71 195,-71 195,-90"/>
<text text-anchor="middle" x="174" y="-78" font-family="FreeSans" font-size="10.00">math</text>
</a>
</g>
</g>
<!-- dir_d7346f86f79c2c85c25b0625ba0ec21c -->
<g id="node3" class="node">
<title>dir_d7346f86f79c2c85c25b0625ba0ec21c</title>
<text text-anchor="middle" x="104" y="-188" font-family="FreeSans" font-size="10.00">chemistry</text>
</g>
<!-- dir_79e09b370f6f9aca9214ea225a19a126 -->
<g id="node4" class="node">
<title>dir_79e09b370f6f9aca9214ea225a19a126</title>
<g id="a_node4"><a xlink:href="dir_79e09b370f6f9aca9214ea225a19a126.html" target="_top" xlink:title="molecule">
<polygon fill="#4ea9ff" stroke="#404040" points="129,-145 67,-145 67,-126 129,-126 129,-145"/>
<text text-anchor="middle" x="98" y="-133" font-family="FreeSans" font-size="10.00">molecule</text>
</a>
</g>
</g>
<!-- dir_79e09b370f6f9aca9214ea225a19a126&#45;&gt;dir_048f7c5b69cb7e1832edab50eaa5c4ea -->
<g id="edge1" class="edge">
<title>dir_79e09b370f6f9aca9214ea225a19a126&#45;&gt;dir_048f7c5b69cb7e1832edab50eaa5c4ea</title>
<g id="a_edge1"><a xlink:href="dir_000043_000068.html" target="_top">
<path fill="none" stroke="#63b8ff" d="M99.15,-125.66C101.41,-108.17 106.52,-68.8 109.57,-45.27"/>
<polygon fill="#63b8ff" stroke="#63b8ff" points="113.06,-45.53 110.88,-35.16 106.12,-44.63 113.06,-45.53"/>
</a>
</g>
<g id="a_edge1&#45;headlabel"><a xlink:href="dir_000043_000068.html" target="_top" xlink:title="33">
<text text-anchor="middle" x="115.42" y="-46.96" font-family="FreeSans" font-size="10.00" fill="#63b8ff">33</text>
</a>
</g>
</g>
<!-- dir_79e09b370f6f9aca9214ea225a19a126&#45;&gt;dir_05301f9ba83e223c2c24bb4e5a915266 -->
<g id="edge2" class="edge">
<title>dir_79e09b370f6f9aca9214ea225a19a126&#45;&gt;dir_05301f9ba83e223c2c24bb4e5a915266</title>
<g id="a_edge2"><a xlink:href="dir_000043_000037.html" target="_top">
<path fill="none" stroke="#63b8ff" d="M110.21,-125.98C121.78,-117.92 139.38,-105.65 153.16,-96.03"/>
<polygon fill="#63b8ff" stroke="#63b8ff" points="155.37,-98.76 161.57,-90.17 151.36,-93.02 155.37,-98.76"/>
</a>
</g>
<g id="a_edge2&#45;headlabel"><a xlink:href="dir_000043_000037.html" target="_top" xlink:title="7">
<text text-anchor="middle" x="154.04" y="-100.65" font-family="FreeSans" font-size="10.00" fill="#63b8ff">7</text>
</a>
</g>
</g>
<!-- dir_072b070bc725d6a2db76c22b2c6e8476 -->
<g id="node6" class="node">
<title>dir_072b070bc725d6a2db76c22b2c6e8476</title>
<g id="a_node6"><a xlink:href="dir_072b070bc725d6a2db76c22b2c6e8476.html" target="_top" xlink:title="units">
<polygon fill="#4ea9ff" stroke="#404040" points="92.5,-90 51.5,-90 51.5,-71 92.5,-71 92.5,-90"/>
<text text-anchor="middle" x="72" y="-78" font-family="FreeSans" font-size="10.00">units</text>
</a>
</g>
</g>
<!-- dir_79e09b370f6f9aca9214ea225a19a126&#45;&gt;dir_072b070bc725d6a2db76c22b2c6e8476 -->
<g id="edge3" class="edge">
<title>dir_79e09b370f6f9aca9214ea225a19a126&#45;&gt;dir_072b070bc725d6a2db76c22b2c6e8476</title>
<g id="a_edge3"><a xlink:href="dir_000043_000066.html" target="_top">
<path fill="none" stroke="#63b8ff" d="M93.71,-125.75C90.19,-118.57 85.09,-108.18 80.72,-99.27"/>
<polygon fill="#63b8ff" stroke="#63b8ff" points="83.76,-97.53 76.21,-90.09 77.48,-100.61 83.76,-97.53"/>
</a>
</g>
<g id="a_edge3&#45;headlabel"><a xlink:href="dir_000043_000066.html" target="_top" xlink:title="3">
<text text-anchor="middle" x="87.89" y="-97" font-family="FreeSans" font-size="10.00" fill="#63b8ff">3</text>
</a>
</g>
</g>
<!-- dir_b7d60659f4c775e2e7e62ef587a4dca3 -->
<g id="node5" class="node">
<title>dir_b7d60659f4c775e2e7e62ef587a4dca3</title>
<g id="a_node5"><a xlink:href="dir_b7d60659f4c775e2e7e62ef587a4dca3.html" target="_top" xlink:title="qc">
<polygon fill="#4ea9ff" stroke="#404040" points="53.5,-200 24.5,-200 24.5,-181 53.5,-181 53.5,-200"/>
<text text-anchor="middle" x="39" y="-188" font-family="FreeSans" font-size="10.00">qc</text>
</a>
</g>
</g>
<!-- dir_b7d60659f4c775e2e7e62ef587a4dca3&#45;&gt;dir_048f7c5b69cb7e1832edab50eaa5c4ea -->
<g id="edge4" class="edge">
<title>dir_b7d60659f4c775e2e7e62ef587a4dca3&#45;&gt;dir_048f7c5b69cb7e1832edab50eaa5c4ea</title>
<g id="a_edge4"><a xlink:href="dir_000055_000068.html" target="_top">
<path fill="none" stroke="#63b8ff" d="M53.9,-183.92C82.2,-173.26 141.62,-150.58 150,-145 178.5,-126 191.04,-121.71 204,-90 208.54,-78.89 210.74,-72.93 204,-63 189.4,-41.5 159.94,-32.66 138.27,-29.03"/>
<polygon fill="#63b8ff" stroke="#63b8ff" points="138.75,-25.57 128.36,-27.64 137.77,-32.5 138.75,-25.57"/>
</a>
</g>
<g id="a_edge4&#45;headlabel"><a xlink:href="dir_000055_000068.html" target="_top" xlink:title="278">
<text text-anchor="middle" x="142.71" y="-20.76" font-family="FreeSans" font-size="10.00" fill="#63b8ff">278</text>
</a>
</g>
</g>
<!-- dir_b7d60659f4c775e2e7e62ef587a4dca3&#45;&gt;dir_05301f9ba83e223c2c24bb4e5a915266 -->
<g id="edge5" class="edge">
<title>dir_b7d60659f4c775e2e7e62ef587a4dca3&#45;&gt;dir_05301f9ba83e223c2c24bb4e5a915266</title>
<g id="a_edge5"><a xlink:href="dir_000055_000037.html" target="_top">
<path fill="none" stroke="#63b8ff" d="M53.62,-183.52C79.51,-172.85 131.35,-151.06 138,-145 151.74,-132.49 161.55,-113.48 167.42,-99.52"/>
<polygon fill="#63b8ff" stroke="#63b8ff" points="170.76,-100.61 171.15,-90.02 164.24,-98.05 170.76,-100.61"/>
</a>
</g>
<g id="a_edge5&#45;headlabel"><a xlink:href="dir_000055_000037.html" target="_top" xlink:title="315">
<text text-anchor="middle" x="172.09" y="-102.49" font-family="FreeSans" font-size="10.00" fill="#63b8ff">315</text>
</a>
</g>
</g>
<!-- dir_b7d60659f4c775e2e7e62ef587a4dca3&#45;&gt;dir_79e09b370f6f9aca9214ea225a19a126 -->
<g id="edge7" class="edge">
<title>dir_b7d60659f4c775e2e7e62ef587a4dca3&#45;&gt;dir_79e09b370f6f9aca9214ea225a19a126</title>
<g id="a_edge7"><a xlink:href="dir_000055_000043.html" target="_top">
<path fill="none" stroke="#63b8ff" d="M48.48,-180.98C57.2,-173.15 70.34,-161.34 80.9,-151.86"/>
<polygon fill="#63b8ff" stroke="#63b8ff" points="83.25,-154.46 88.35,-145.17 78.57,-149.25 83.25,-154.46"/>
</a>
</g>
<g id="a_edge7&#45;headlabel"><a xlink:href="dir_000055_000043.html" target="_top" xlink:title="44">
<text text-anchor="middle" x="82.47" y="-156.47" font-family="FreeSans" font-size="10.00" fill="#63b8ff">44</text>
</a>
</g>
</g>
<!-- dir_b7d60659f4c775e2e7e62ef587a4dca3&#45;&gt;dir_072b070bc725d6a2db76c22b2c6e8476 -->
<g id="edge6" class="edge">
<title>dir_b7d60659f4c775e2e7e62ef587a4dca3&#45;&gt;dir_072b070bc725d6a2db76c22b2c6e8476</title>
<g id="a_edge6"><a xlink:href="dir_000055_000066.html" target="_top">
<path fill="none" stroke="#63b8ff" d="M41.54,-180.86C45.15,-168.63 51.99,-145.58 58,-126 60.65,-117.38 63.64,-107.83 66.18,-99.8"/>
<polygon fill="#63b8ff" stroke="#63b8ff" points="69.59,-100.61 69.28,-90.02 62.92,-98.49 69.59,-100.61"/>
</a>
</g>
<g id="a_edge6&#45;headlabel"><a xlink:href="dir_000055_000066.html" target="_top" xlink:title="8">
<text text-anchor="middle" x="71.21" y="-102.39" font-family="FreeSans" font-size="10.00" fill="#63b8ff">8</text>
</a>
</g>
</g>
<!-- dir_072b070bc725d6a2db76c22b2c6e8476&#45;&gt;dir_048f7c5b69cb7e1832edab50eaa5c4ea -->
<g id="edge8" class="edge">
<title>dir_072b070bc725d6a2db76c22b2c6e8476&#45;&gt;dir_048f7c5b69cb7e1832edab50eaa5c4ea</title>
<g id="a_edge8"><a xlink:href="dir_000066_000068.html" target="_top">
<path fill="none" stroke="#63b8ff" d="M78.61,-70.75C84.26,-63.26 92.54,-52.28 99.45,-43.13"/>
<polygon fill="#63b8ff" stroke="#63b8ff" points="102.29,-45.18 105.52,-35.09 96.7,-40.96 102.29,-45.18"/>
</a>
</g>
<g id="a_edge8&#45;headlabel"><a xlink:href="dir_000066_000068.html" target="_top" xlink:title="2">
<text text-anchor="middle" x="102.39" y="-47.26" font-family="FreeSans" font-size="10.00" fill="#63b8ff">2</text>
</a>
</g>
</g>
</g>
</svg>
</svg>

<style type='text/css'>
<![CDATA[
[data-mouse-over-selected='false'] { opacity: 0.7; }
[data-mouse-over-selected='true']  { opacity: 1.0; }
]]>
</style>
<script type="application/ecmascript"><![CDATA[
document.addEventListener('DOMContentLoaded', (event) => {
  highlightEdges();
  highlightAdjacentNodes();
});
]]></script>
</svg>
