<?xml version="1.0" encoding="UTF-8" standalone="no"?>
<!DOCTYPE svg PUBLIC "-//W3C//DTD SVG 1.1//EN"
 "http://www.w3.org/Graphics/SVG/1.1/DTD/svg11.dtd">
<!-- Generated by graphviz version 2.43.0 (0)
 -->
<!-- Title: mpqc/chemistry/molecule Pages: 1 -->
<svg width="210pt" height="196pt"
 viewBox="0.00 0.00 210.00 196.00" xmlns="http://www.w3.org/2000/svg" xmlns:xlink="http://www.w3.org/1999/xlink">
<g id="graph0" class="graph" transform="scale(1 1) rotate(0) translate(4 192)">
<title>mpqc/chemistry/molecule</title>
<g id="clust1" class="cluster">
<title>clusterdir_d7346f86f79c2c85c25b0625ba0ec21c</title>
<g id="a_clust1"><a xlink:href="dir_d7346f86f79c2c85c25b0625ba0ec21c.html" target="_top" xlink:title="chemistry">
<polygon fill="#daedff" stroke="#7f7f7f" stroke-dasharray="5,2" points="8,-8 8,-180 102,-180 102,-8 8,-8"/>
<text text-anchor="middle" x="55" y="-168" font-family="FreeSans" font-size="10.00">chemistry</text>
</a>
</g>
</g>
<g id="clust2" class="cluster">
<title>clusterdir_79e09b370f6f9aca9214ea225a19a126</title>
<g id="a_clust2"><a xlink:href="dir_79e09b370f6f9aca9214ea225a19a126.html" target="_top">
<polygon fill="#daedff" stroke="#404040" stroke-width="2" points="16,-63 16,-153 94,-153 94,-63 16,-63"/>
</a>
</g>
</g>
<!-- dir_072b070bc725d6a2db76c22b2c6e8476 -->
<g id="node1" class="node">
<title>dir_072b070bc725d6a2db76c22b2c6e8476</title>
<g id="a_node1"><a xlink:href="dir_072b070bc725d6a2db76c22b2c6e8476.html" target="_top" xlink:title="units">
<polygon fill="#4ea9ff" stroke="#404040" points="69.5,-35 28.5,-35 28.5,-16 69.5,-16 69.5,-35"/>
<text text-anchor="middle" x="49" y="-23" font-family="FreeSans" font-size="10.00">units</text>
</a>
</g>
</g>
<!-- dir_79e09b370f6f9aca9214ea225a19a126 -->
<g id="node2" class="node">
<title>dir_79e09b370f6f9aca9214ea225a19a126</title>
<text text-anchor="middle" x="55" y="-133" font-family="FreeSans" font-size="10.00">molecule</text>
</g>
<!-- dir_79e09b370f6f9aca9214ea225a19a126&#45;&gt;dir_072b070bc725d6a2db76c22b2c6e8476 -->
<g id="edge3" class="edge">
<title>dir_79e09b370f6f9aca9214ea225a19a126&#45;&gt;dir_072b070bc725d6a2db76c22b2c6e8476</title>
<g id="a_edge3"><a xlink:href="dir_000043_000066.html" target="_top">
<path fill="none" stroke="#63b8ff" d="M48.11,-125.93C41.73,-117.4 32.69,-103.65 29,-90 25.86,-78.42 26.02,-74.63 29,-63 30.68,-56.45 33.8,-49.82 37.08,-44.03"/>
<polygon fill="#63b8ff" stroke="#63b8ff" points="40.23,-45.6 42.54,-35.26 34.29,-41.9 40.23,-45.6"/>
</a>
</g>
<g id="a_edge3&#45;headlabel"><a xlink:href="dir_000043_000066.html" target="_top" xlink:title="3">
<text text-anchor="middle" x="40.74" y="-47.66" font-family="FreeSans" font-size="10.00" fill="#63b8ff">3</text>
</a>
</g>
</g>
<!-- dir_dbe2a2c0967868ccba3a0f52aa7a09d1 -->
<g id="node3" class="node">
<title>dir_dbe2a2c0967868ccba3a0f52aa7a09d1</title>
<g id="a_node3"><a xlink:href="dir_dbe2a2c0967868ccba3a0f52aa7a09d1.html" target="_top" xlink:title="lattice">
<polygon fill="#4ea9ff" stroke="#404040" points="85.5,-90 38.5,-90 38.5,-71 85.5,-71 85.5,-90"/>
<text text-anchor="middle" x="62" y="-78" font-family="FreeSans" font-size="10.00">lattice</text>
</a>
</g>
</g>
<!-- dir_79e09b370f6f9aca9214ea225a19a126&#45;&gt;dir_dbe2a2c0967868ccba3a0f52aa7a09d1 -->
<g id="edge4" class="edge">
<title>dir_79e09b370f6f9aca9214ea225a19a126&#45;&gt;dir_dbe2a2c0967868ccba3a0f52aa7a09d1</title>
<g id="a_edge4"><a xlink:href="dir_000043_000032.html" target="_top">
<path fill="none" stroke="#63b8ff" d="M56.16,-125.75C57.07,-118.8 58.39,-108.85 59.54,-100.13"/>
<polygon fill="#63b8ff" stroke="#63b8ff" points="63.03,-100.46 60.87,-90.09 56.09,-99.54 63.03,-100.46"/>
</a>
</g>
<g id="a_edge4&#45;headlabel"><a xlink:href="dir_000043_000032.html" target="_top" xlink:title="1">
<text text-anchor="middle" x="65.37" y="-101.9" font-family="FreeSans" font-size="10.00" fill="#63b8ff">1</text>
</a>
</g>
</g>
<!-- dir_048f7c5b69cb7e1832edab50eaa5c4ea -->
<g id="node4" class="node">
<title>dir_048f7c5b69cb7e1832edab50eaa5c4ea</title>
<g id="a_node4"><a xlink:href="dir_048f7c5b69cb7e1832edab50eaa5c4ea.html" target="_top" xlink:title="util">
<polygon fill="#daedff" stroke="red" stroke-dasharray="5,2" points="142,-35 110,-35 110,-16 142,-16 142,-35"/>
<text text-anchor="middle" x="126" y="-23" font-family="FreeSans" font-size="10.00">util</text>
</a>
</g>
</g>
<!-- dir_79e09b370f6f9aca9214ea225a19a126&#45;&gt;dir_048f7c5b69cb7e1832edab50eaa5c4ea -->
<g id="edge1" class="edge">
<title>dir_79e09b370f6f9aca9214ea225a19a126&#45;&gt;dir_048f7c5b69cb7e1832edab50eaa5c4ea</title>
<g id="a_edge1"><a xlink:href="dir_000043_000068.html" target="_top">
<path fill="none" stroke="#63b8ff" d="M63.78,-125.85C72.2,-117.25 84.93,-103.46 94,-90 103.8,-75.46 112.58,-57.51 118.45,-44.41"/>
<polygon fill="#63b8ff" stroke="#63b8ff" points="121.72,-45.66 122.5,-35.1 115.3,-42.87 121.72,-45.66"/>
</a>
</g>
<g id="a_edge1&#45;headlabel"><a xlink:href="dir_000043_000068.html" target="_top" xlink:title="33">
<text text-anchor="middle" x="122.89" y="-47.59" font-family="FreeSans" font-size="10.00" fill="#63b8ff">33</text>
</a>
</g>
</g>
<!-- dir_05301f9ba83e223c2c24bb4e5a915266 -->
<g id="node5" class="node">
<title>dir_05301f9ba83e223c2c24bb4e5a915266</title>
<g id="a_node5"><a xlink:href="dir_05301f9ba83e223c2c24bb4e5a915266.html" target="_top" xlink:title="math">
<polygon fill="#daedff" stroke="red" stroke-dasharray="5,2" points="202,-35 160,-35 160,-16 202,-16 202,-35"/>
<text text-anchor="middle" x="181" y="-23" font-family="FreeSans" font-size="10.00">math</text>
</a>
</g>
</g>
<!-- dir_79e09b370f6f9aca9214ea225a19a126&#45;&gt;dir_05301f9ba83e223c2c24bb4e5a915266 -->
<g id="edge2" class="edge">
<title>dir_79e09b370f6f9aca9214ea225a19a126&#45;&gt;dir_05301f9ba83e223c2c24bb4e5a915266</title>
<g id="a_edge2"><a xlink:href="dir_000043_000037.html" target="_top">
<path fill="none" stroke="#63b8ff" d="M68.02,-125.81C80.66,-117.19 100.19,-103.37 116,-90 133.96,-74.81 153.04,-55.78 165.85,-42.53"/>
<polygon fill="#63b8ff" stroke="#63b8ff" points="168.56,-44.76 172.95,-35.12 163.5,-39.92 168.56,-44.76"/>
</a>
</g>
<g id="a_edge2&#45;headlabel"><a xlink:href="dir_000043_000037.html" target="_top" xlink:title="7">
<text text-anchor="middle" x="168.13" y="-46.82" font-family="FreeSans" font-size="10.00" fill="#63b8ff">7</text>
</a>
</g>
</g>
<!-- dir_dbe2a2c0967868ccba3a0f52aa7a09d1&#45;&gt;dir_072b070bc725d6a2db76c22b2c6e8476 -->
<g id="edge7" class="edge">
<title>dir_dbe2a2c0967868ccba3a0f52aa7a09d1&#45;&gt;dir_072b070bc725d6a2db76c22b2c6e8476</title>
<g id="a_edge7"><a xlink:href="dir_000032_000066.html" target="_top">
<path fill="none" stroke="#63b8ff" d="M59.85,-70.75C58.13,-63.72 55.65,-53.62 53.5,-44.84"/>
<polygon fill="#63b8ff" stroke="#63b8ff" points="56.89,-43.97 51.11,-35.09 50.09,-45.63 56.89,-43.97"/>
</a>
</g>
<g id="a_edge7&#45;headlabel"><a xlink:href="dir_000032_000066.html" target="_top" xlink:title="1">
<text text-anchor="middle" x="60.5" y="-44.28" font-family="FreeSans" font-size="10.00" fill="#63b8ff">1</text>
</a>
</g>
</g>
<!-- dir_dbe2a2c0967868ccba3a0f52aa7a09d1&#45;&gt;dir_048f7c5b69cb7e1832edab50eaa5c4ea -->
<g id="edge5" class="edge">
<title>dir_dbe2a2c0967868ccba3a0f52aa7a09d1&#45;&gt;dir_048f7c5b69cb7e1832edab50eaa5c4ea</title>
<g id="a_edge5"><a xlink:href="dir_000032_000068.html" target="_top">
<path fill="none" stroke="#63b8ff" d="M72.28,-70.98C81.84,-63.07 96.28,-51.11 107.78,-41.58"/>
<polygon fill="#63b8ff" stroke="#63b8ff" points="110.06,-44.24 115.53,-35.17 105.6,-38.85 110.06,-44.24"/>
</a>
</g>
<g id="a_edge5&#45;headlabel"><a xlink:href="dir_000032_000068.html" target="_top" xlink:title="8">
<text text-anchor="middle" x="109.1" y="-46.22" font-family="FreeSans" font-size="10.00" fill="#63b8ff">8</text>
</a>
</g>
</g>
<!-- dir_dbe2a2c0967868ccba3a0f52aa7a09d1&#45;&gt;dir_05301f9ba83e223c2c24bb4e5a915266 -->
<g id="edge6" class="edge">
<title>dir_dbe2a2c0967868ccba3a0f52aa7a09d1&#45;&gt;dir_05301f9ba83e223c2c24bb4e5a915266</title>
<g id="a_edge6"><a xlink:href="dir_000032_000037.html" target="_top">
<path fill="none" stroke="#63b8ff" d="M81.12,-70.98C100.35,-62.42 130.23,-49.11 152.31,-39.28"/>
<polygon fill="#63b8ff" stroke="#63b8ff" points="153.82,-42.44 161.53,-35.17 150.97,-36.04 153.82,-42.44"/>
</a>
</g>
<g id="a_edge6&#45;headlabel"><a xlink:href="dir_000032_000037.html" target="_top" xlink:title="3">
<text text-anchor="middle" x="151.69" y="-43.99" font-family="FreeSans" font-size="10.00" fill="#63b8ff">3</text>
</a>
</g>
</g>
</g>
</svg>
