<?xml version="1.0" encoding="UTF-8" standalone="no"?>
<!DOCTYPE svg PUBLIC "-//W3C//DTD SVG 1.1//EN"
 "http://www.w3.org/Graphics/SVG/1.1/DTD/svg11.dtd">
<!-- Generated by graphviz version 2.43.0 (0)
 -->
<!-- Title: mpqc/chemistry/qc/lcao/cc Pages: 1 -->
<!--zoomable 196 -->

<svg id="main" version="1.1" xmlns="http://www.w3.org/2000/svg" xmlns:xlink="http://www.w3.org/1999/xlink" xml:space="preserve" onload="init(evt)">
<style type="text/css"><![CDATA[
.node, .edge {opacity: 0.7;}
.node.selected, .edge.selected {opacity: 1;}
.edge:hover path { stroke: red; }
.edge:hover polygon { stroke: red; fill: red; }
]]></style>

<defs>
  <circle id="rim" cx="0" cy="0" r="7"/>
  <circle id="rim2" cx="0" cy="0" r="3.5"/>
  <g id="zoomPlus">
    <use xlink:href="#rim" fill="#404040"><set attributeName="fill" to="#808080" begin="zoomplus.mouseover" end="zoomplus.mouseout"/></use>
    <path d="M-4,0h8M0,-4v8" fill="none" stroke="white" stroke-width="1.5" pointer-events="none"/>
  </g>
  <g id="zoomMin">
    <use xlink:href="#rim" fill="#404040"><set attributeName="fill" to="#808080" begin="zoomminus.mouseover" end="zoomminus.mouseout"/></use>
    <path d="M-4,0h8" fill="none" stroke="white" stroke-width="1.5" pointer-events="none"/>
  </g>
  <g id="arrowUp" transform="translate(30 24)">
    <use xlink:href="#rim"/>
    <path pointer-events="none" fill="none" stroke="white" stroke-width="1.5" d="M0,-3.0v7 M-2.5,-0.5L0,-3.0L2.5,-0.5"/>
  </g>
  <g id="arrowRight" transform="rotate(90) translate(36 -43)">
    <use xlink:href="#rim"/>
    <path pointer-events="none" fill="none" stroke="white" stroke-width="1.5" d="M0,-3.0v7 M-2.5,-0.5L0,-3.0L2.5,-0.5"/>
  </g>
  <g id="arrowDown" transform="rotate(180) translate(-30 -48)">
    <use xlink:href="#rim"/>
    <path pointer-events="none" fill="none" stroke="white" stroke-width="1.5" d="M0,-3.0v7 M-2.5,-0.5L0,-3.0L2.5,-0.5"/>
  </g>
  <g id="arrowLeft" transform="rotate(270) translate(-36 17)">
    <use xlink:href="#rim"/>
    <path pointer-events="none" fill="none" stroke="white" stroke-width="1.5" d="M0,-3.0v7 M-2.5,-0.5L0,-3.0L2.5,-0.5"/>
  </g>
  <g id="resetDef">
    <use xlink:href="#rim2" fill="#404040"><set attributeName="fill" to="#808080" begin="reset.mouseover" end="reset.mouseout"/></use>
  </g>
</defs>
<script type="application/ecmascript">
var viewWidth = 737;
var viewHeight = 196;
var sectionId = 'dynsection-0';
</script>
<script type="application/ecmascript" xlink:href="svg.min.js"/>
<svg id="graph" class="graph">
<g id="viewport">
<title>mpqc/chemistry/qc/lcao/cc</title>
<g id="clust1" class="cluster">
<title>clusterdir_f442f60972c0f9169917a25cab152b2a</title>
<g id="a_clust1"><a xlink:href="dir_f442f60972c0f9169917a25cab152b2a.html" target="_top" xlink:title="lcao">
<polygon fill="#daedff" stroke="#7f7f7f" stroke-dasharray="5,2" points="165.36,-8 165.36,-180 595.36,-180 595.36,-8 165.36,-8"/>
<text text-anchor="middle" x="380.36" y="-168" font-family="FreeSans" font-size="10.00">lcao</text>
</a>
</g>
</g>
<g id="clust2" class="cluster">
<title>clusterdir_883994cb03b5f2e5348eff3099e61ac2</title>
<g id="a_clust2"><a xlink:href="dir_883994cb03b5f2e5348eff3099e61ac2.html" target="_top">
<polygon fill="#daedff" stroke="#404040" stroke-width="2" points="173.36,-63 173.36,-153 266.36,-153 266.36,-63 173.36,-63"/>
</a>
</g>
</g>
<!-- dir_084478967d5724d8613f7cb2a1dd1c1e -->
<g id="node1" class="node">
<title>dir_084478967d5724d8613f7cb2a1dd1c1e</title>
<g id="a_node1"><a xlink:href="dir_084478967d5724d8613f7cb2a1dd1c1e.html" target="_top" xlink:title="wfn">
<polygon fill="#4ea9ff" stroke="#404040" points="309.86,-90 274.86,-90 274.86,-71 309.86,-71 309.86,-90"/>
<text text-anchor="middle" x="292.36" y="-78" font-family="FreeSans" font-size="10.00">wfn</text>
</a>
</g>
</g>
<!-- dir_1c197e94b3211013e52a1ec28efd4d65 -->
<g id="node2" class="node">
<title>dir_1c197e94b3211013e52a1ec28efd4d65</title>
<g id="a_node2"><a xlink:href="dir_1c197e94b3211013e52a1ec28efd4d65.html" target="_top" xlink:title="mbpt">
<polygon fill="#4ea9ff" stroke="red" points="370.36,-90 328.36,-90 328.36,-71 370.36,-71 370.36,-90"/>
<text text-anchor="middle" x="349.36" y="-78" font-family="FreeSans" font-size="10.00">mbpt</text>
</a>
</g>
</g>
<!-- dir_26ae4716acfbd12584c5080db53ae013 -->
<g id="node3" class="node">
<title>dir_26ae4716acfbd12584c5080db53ae013</title>
<g id="a_node3"><a xlink:href="dir_26ae4716acfbd12584c5080db53ae013.html" target="_top" xlink:title="factory">
<polygon fill="#4ea9ff" stroke="red" points="439.86,-90 388.86,-90 388.86,-71 439.86,-71 439.86,-90"/>
<text text-anchor="middle" x="414.36" y="-78" font-family="FreeSans" font-size="10.00">factory</text>
</a>
</g>
</g>
<!-- dir_b3025fc6edd0cbb07d65f3b6940386b4 -->
<g id="node4" class="node">
<title>dir_b3025fc6edd0cbb07d65f3b6940386b4</title>
<g id="a_node4"><a xlink:href="dir_b3025fc6edd0cbb07d65f3b6940386b4.html" target="_top" xlink:title="integrals">
<polygon fill="#4ea9ff" stroke="red" points="516.86,-90 457.86,-90 457.86,-71 516.86,-71 516.86,-90"/>
<text text-anchor="middle" x="487.36" y="-78" font-family="FreeSans" font-size="10.00">integrals</text>
</a>
</g>
</g>
<!-- dir_ccca7abcd5dfb15bb9fa9e68acbdf5bb -->
<g id="node5" class="node">
<title>dir_ccca7abcd5dfb15bb9fa9e68acbdf5bb</title>
<g id="a_node5"><a xlink:href="dir_ccca7abcd5dfb15bb9fa9e68acbdf5bb.html" target="_top" xlink:title="expression">
<polygon fill="#4ea9ff" stroke="#404040" points="455.36,-35 385.36,-35 385.36,-16 455.36,-16 455.36,-35"/>
<text text-anchor="middle" x="420.36" y="-23" font-family="FreeSans" font-size="10.00">expression</text>
</a>
</g>
</g>
<!-- dir_df3125d2ade78274bdfc2ee26337a54d -->
<g id="node6" class="node">
<title>dir_df3125d2ade78274bdfc2ee26337a54d</title>
<g id="a_node6"><a xlink:href="dir_df3125d2ade78274bdfc2ee26337a54d.html" target="_top" xlink:title="scf">
<polygon fill="#4ea9ff" stroke="red" points="586.86,-90 555.86,-90 555.86,-71 586.86,-71 586.86,-90"/>
<text text-anchor="middle" x="571.36" y="-78" font-family="FreeSans" font-size="10.00">scf</text>
</a>
</g>
</g>
<!-- dir_dc0d4b9cc7953cccd658fb5e254eaf2b -->
<g id="node7" class="node">
<title>dir_dc0d4b9cc7953cccd658fb5e254eaf2b</title>
<g id="a_node7"><a xlink:href="dir_dc0d4b9cc7953cccd658fb5e254eaf2b.html" target="_top" xlink:title="ci">
<polygon fill="#4ea9ff" stroke="#404040" points="251.86,-35 222.86,-35 222.86,-16 251.86,-16 251.86,-35"/>
<text text-anchor="middle" x="237.36" y="-23" font-family="FreeSans" font-size="10.00">ci</text>
</a>
</g>
</g>
<!-- dir_883994cb03b5f2e5348eff3099e61ac2 -->
<g id="node8" class="node">
<title>dir_883994cb03b5f2e5348eff3099e61ac2</title>
<text text-anchor="middle" x="243.36" y="-133" font-family="FreeSans" font-size="10.00">cc</text>
</g>
<!-- dir_883994cb03b5f2e5348eff3099e61ac2&#45;&gt;dir_084478967d5724d8613f7cb2a1dd1c1e -->
<g id="edge3" class="edge">
<title>dir_883994cb03b5f2e5348eff3099e61ac2&#45;&gt;dir_084478967d5724d8613f7cb2a1dd1c1e</title>
<g id="a_edge3"><a xlink:href="dir_000004_000070.html" target="_top">
<path fill="none" stroke="#63b8ff" d="M251.46,-125.75C258.52,-118.11 268.95,-106.82 277.51,-97.56"/>
<polygon fill="#63b8ff" stroke="#63b8ff" points="280.2,-99.81 284.42,-90.09 275.07,-95.06 280.2,-99.81"/>
</a>
</g>
<g id="a_edge3&#45;headlabel"><a xlink:href="dir_000004_000070.html" target="_top" xlink:title="6">
<text text-anchor="middle" x="279.85" y="-101.87" font-family="FreeSans" font-size="10.00" fill="#63b8ff">6</text>
</a>
</g>
</g>
<!-- dir_883994cb03b5f2e5348eff3099e61ac2&#45;&gt;dir_1c197e94b3211013e52a1ec28efd4d65 -->
<g id="edge4" class="edge">
<title>dir_883994cb03b5f2e5348eff3099e61ac2&#45;&gt;dir_1c197e94b3211013e52a1ec28efd4d65</title>
<g id="a_edge4"><a xlink:href="dir_000004_000038.html" target="_top">
<path fill="none" stroke="#63b8ff" d="M258.1,-127.13C274.9,-118.73 302.67,-104.85 323.17,-94.6"/>
<polygon fill="#63b8ff" stroke="#63b8ff" points="324.92,-97.64 332.3,-90.03 321.79,-91.38 324.92,-97.64"/>
</a>
</g>
<g id="a_edge4&#45;headlabel"><a xlink:href="dir_000004_000038.html" target="_top" xlink:title="4">
<text text-anchor="middle" x="322.97" y="-99.28" font-family="FreeSans" font-size="10.00" fill="#63b8ff">4</text>
</a>
</g>
</g>
<!-- dir_883994cb03b5f2e5348eff3099e61ac2&#45;&gt;dir_26ae4716acfbd12584c5080db53ae013 -->
<g id="edge5" class="edge">
<title>dir_883994cb03b5f2e5348eff3099e61ac2&#45;&gt;dir_26ae4716acfbd12584c5080db53ae013</title>
<g id="a_edge5"><a xlink:href="dir_000004_000024.html" target="_top">
<path fill="none" stroke="#63b8ff" d="M257.94,-129.98C284.45,-121.77 341.23,-104.17 378.59,-92.59"/>
<polygon fill="#63b8ff" stroke="#63b8ff" points="380.06,-95.8 388.58,-89.49 377.99,-89.11 380.06,-95.8"/>
</a>
</g>
<g id="a_edge5&#45;headlabel"><a xlink:href="dir_000004_000024.html" target="_top" xlink:title="9">
<text text-anchor="middle" x="377.47" y="-97.07" font-family="FreeSans" font-size="10.00" fill="#63b8ff">9</text>
</a>
</g>
</g>
<!-- dir_883994cb03b5f2e5348eff3099e61ac2&#45;&gt;dir_b3025fc6edd0cbb07d65f3b6940386b4 -->
<g id="edge9" class="edge">
<title>dir_883994cb03b5f2e5348eff3099e61ac2&#45;&gt;dir_b3025fc6edd0cbb07d65f3b6940386b4</title>
<g id="a_edge9"><a xlink:href="dir_000004_000030.html" target="_top">
<path fill="none" stroke="#63b8ff" d="M258.36,-131.3C290.97,-124.33 370.96,-107.2 447.68,-90.36"/>
<polygon fill="#63b8ff" stroke="#63b8ff" points="448.48,-93.77 457.5,-88.2 446.98,-86.93 448.48,-93.77"/>
</a>
</g>
<g id="a_edge9&#45;headlabel"><a xlink:href="dir_000004_000030.html" target="_top" xlink:title="8">
<text text-anchor="middle" x="445.58" y="-94.81" font-family="FreeSans" font-size="10.00" fill="#63b8ff">8</text>
</a>
</g>
</g>
<!-- dir_883994cb03b5f2e5348eff3099e61ac2&#45;&gt;dir_ccca7abcd5dfb15bb9fa9e68acbdf5bb -->
<g id="edge11" class="edge">
<title>dir_883994cb03b5f2e5348eff3099e61ac2&#45;&gt;dir_ccca7abcd5dfb15bb9fa9e68acbdf5bb</title>
<g id="a_edge11"><a xlink:href="dir_000004_000019.html" target="_top">
<path fill="none" stroke="#63b8ff" d="M257.89,-134.57C310.69,-134.5 491.13,-131.2 526.36,-90 534.16,-80.88 533.33,-72.77 526.36,-63 512.5,-43.56 487.57,-34.37 465.37,-30.07"/>
<polygon fill="#63b8ff" stroke="#63b8ff" points="465.85,-26.6 455.41,-28.42 464.71,-33.51 465.85,-26.6"/>
</a>
</g>
<g id="a_edge11&#45;headlabel"><a xlink:href="dir_000004_000019.html" target="_top" xlink:title="8">
<text text-anchor="middle" x="469.86" y="-21.89" font-family="FreeSans" font-size="10.00" fill="#63b8ff">8</text>
</a>
</g>
</g>
<!-- dir_883994cb03b5f2e5348eff3099e61ac2&#45;&gt;dir_df3125d2ade78274bdfc2ee26337a54d -->
<g id="edge12" class="edge">
<title>dir_883994cb03b5f2e5348eff3099e61ac2&#45;&gt;dir_df3125d2ade78274bdfc2ee26337a54d</title>
<g id="a_edge12"><a xlink:href="dir_000004_000057.html" target="_top">
<path fill="none" stroke="#63b8ff" d="M258.06,-132.98C301.62,-128.33 433.72,-113.19 541.36,-90 542.82,-89.69 544.31,-89.34 545.81,-88.98"/>
<polygon fill="#63b8ff" stroke="#63b8ff" points="546.81,-92.33 555.58,-86.38 545.02,-85.57 546.81,-92.33"/>
</a>
</g>
<g id="a_edge12&#45;headlabel"><a xlink:href="dir_000004_000057.html" target="_top" xlink:title="2">
<text text-anchor="middle" x="544.07" y="-93.5" font-family="FreeSans" font-size="10.00" fill="#63b8ff">2</text>
</a>
</g>
</g>
<!-- dir_bad689be6b83273e12a2461ee8accc6e -->
<g id="node9" class="node">
<title>dir_bad689be6b83273e12a2461ee8accc6e</title>
<g id="a_node9"><a xlink:href="dir_bad689be6b83273e12a2461ee8accc6e.html" target="_top" xlink:title="eom">
<polygon fill="#4ea9ff" stroke="#404040" points="256.36,-90 218.36,-90 218.36,-71 256.36,-71 256.36,-90"/>
<text text-anchor="middle" x="237.36" y="-78" font-family="FreeSans" font-size="10.00">eom</text>
</a>
</g>
</g>
<!-- dir_883994cb03b5f2e5348eff3099e61ac2&#45;&gt;dir_bad689be6b83273e12a2461ee8accc6e -->
<g id="edge10" class="edge">
<title>dir_883994cb03b5f2e5348eff3099e61ac2&#45;&gt;dir_bad689be6b83273e12a2461ee8accc6e</title>
<g id="a_edge10"><a xlink:href="dir_000004_000018.html" target="_top">
<path fill="none" stroke="#63b8ff" d="M242.37,-125.75C241.59,-118.8 240.46,-108.85 239.47,-100.13"/>
<polygon fill="#63b8ff" stroke="#63b8ff" points="242.94,-99.63 238.34,-90.09 235.98,-100.42 242.94,-99.63"/>
</a>
</g>
<g id="a_edge10&#45;headlabel"><a xlink:href="dir_000004_000018.html" target="_top" xlink:title="1">
<text text-anchor="middle" x="246.17" y="-100.38" font-family="FreeSans" font-size="10.00" fill="#63b8ff">1</text>
</a>
</g>
</g>
<!-- dir_048f7c5b69cb7e1832edab50eaa5c4ea -->
<g id="node11" class="node">
<title>dir_048f7c5b69cb7e1832edab50eaa5c4ea</title>
<g id="a_node11"><a xlink:href="dir_048f7c5b69cb7e1832edab50eaa5c4ea.html" target="_top" xlink:title="util">
<polygon fill="#daedff" stroke="red" stroke-dasharray="5,2" points="103.36,-35 71.36,-35 71.36,-16 103.36,-16 103.36,-35"/>
<text text-anchor="middle" x="87.36" y="-23" font-family="FreeSans" font-size="10.00">util</text>
</a>
</g>
</g>
<!-- dir_883994cb03b5f2e5348eff3099e61ac2&#45;&gt;dir_048f7c5b69cb7e1832edab50eaa5c4ea -->
<g id="edge1" class="edge">
<title>dir_883994cb03b5f2e5348eff3099e61ac2&#45;&gt;dir_048f7c5b69cb7e1832edab50eaa5c4ea</title>
<g id="a_edge1"><a xlink:href="dir_000004_000068.html" target="_top">
<path fill="none" stroke="#63b8ff" d="M228.77,-126.02C214.04,-117.35 190.76,-103.28 171.36,-90 148.24,-74.17 122.7,-54.53 105.92,-41.32"/>
<polygon fill="#63b8ff" stroke="#63b8ff" points="108.01,-38.51 98,-35.05 103.67,-44 108.01,-38.51"/>
</a>
</g>
<g id="a_edge1&#45;headlabel"><a xlink:href="dir_000004_000068.html" target="_top" xlink:title="26">
<text text-anchor="middle" x="112.59" y="-36.02" font-family="FreeSans" font-size="10.00" fill="#63b8ff">26</text>
</a>
</g>
</g>
<!-- dir_05301f9ba83e223c2c24bb4e5a915266 -->
<g id="node12" class="node">
<title>dir_05301f9ba83e223c2c24bb4e5a915266</title>
<g id="a_node12"><a xlink:href="dir_05301f9ba83e223c2c24bb4e5a915266.html" target="_top" xlink:title="math">
<polygon fill="#daedff" stroke="red" stroke-dasharray="5,2" points="729.36,-35 687.36,-35 687.36,-16 729.36,-16 729.36,-35"/>
<text text-anchor="middle" x="708.36" y="-23" font-family="FreeSans" font-size="10.00">math</text>
</a>
</g>
</g>
<!-- dir_883994cb03b5f2e5348eff3099e61ac2&#45;&gt;dir_05301f9ba83e223c2c24bb4e5a915266 -->
<g id="edge2" class="edge">
<title>dir_883994cb03b5f2e5348eff3099e61ac2&#45;&gt;dir_05301f9ba83e223c2c24bb4e5a915266</title>
<g id="a_edge2"><a xlink:href="dir_000004_000037.html" target="_top">
<path fill="none" stroke="#63b8ff" d="M258.11,-133.81C319.63,-130.78 555.77,-117.54 624.36,-90 651.24,-79.21 677.01,-57.46 692.76,-42.45"/>
<polygon fill="#63b8ff" stroke="#63b8ff" points="695.35,-44.81 700.04,-35.31 690.45,-39.82 695.35,-44.81"/>
</a>
</g>
<g id="a_edge2&#45;headlabel"><a xlink:href="dir_000004_000037.html" target="_top" xlink:title="50">
<text text-anchor="middle" x="694.78" y="-46.85" font-family="FreeSans" font-size="10.00" fill="#63b8ff">50</text>
</a>
</g>
</g>
<!-- dir_398e8fc132009079a592f5169fb543be -->
<g id="node13" class="node">
<title>dir_398e8fc132009079a592f5169fb543be</title>
<g id="a_node13"><a xlink:href="dir_398e8fc132009079a592f5169fb543be.html" target="_top" xlink:title="cc">
<polygon fill="#daedff" stroke="#7f7f7f" points="43.86,-90 14.86,-90 14.86,-71 43.86,-71 43.86,-90"/>
<text text-anchor="middle" x="29.36" y="-78" font-family="FreeSans" font-size="10.00">cc</text>
</a>
</g>
</g>
<!-- dir_883994cb03b5f2e5348eff3099e61ac2&#45;&gt;dir_398e8fc132009079a592f5169fb543be -->
<g id="edge6" class="edge">
<title>dir_883994cb03b5f2e5348eff3099e61ac2&#45;&gt;dir_398e8fc132009079a592f5169fb543be</title>
<g id="a_edge6"><a xlink:href="dir_000004_000003.html" target="_top">
<path fill="none" stroke="#63b8ff" d="M228.37,-128.61C225.73,-127.67 222.98,-126.76 220.36,-126 150.45,-105.66 128.22,-110.28 53.83,-89.79"/>
<polygon fill="#63b8ff" stroke="#63b8ff" points="54.57,-86.36 43.99,-87.02 52.67,-93.09 54.57,-86.36"/>
</a>
</g>
<g id="a_edge6&#45;headlabel"><a xlink:href="dir_000004_000003.html" target="_top" xlink:title="6">
<text text-anchor="middle" x="58.8" y="-82.1" font-family="FreeSans" font-size="10.00" fill="#63b8ff">6</text>
</a>
</g>
</g>
<!-- dir_79e09b370f6f9aca9214ea225a19a126 -->
<g id="node14" class="node">
<title>dir_79e09b370f6f9aca9214ea225a19a126</title>
<g id="a_node14"><a xlink:href="dir_79e09b370f6f9aca9214ea225a19a126.html" target="_top" xlink:title="molecule">
<polygon fill="#daedff" stroke="red" stroke-dasharray="5,2" points="124.36,-90 62.36,-90 62.36,-71 124.36,-71 124.36,-90"/>
<text text-anchor="middle" x="93.36" y="-78" font-family="FreeSans" font-size="10.00">molecule</text>
</a>
</g>
</g>
<!-- dir_883994cb03b5f2e5348eff3099e61ac2&#45;&gt;dir_79e09b370f6f9aca9214ea225a19a126 -->
<g id="edge7" class="edge">
<title>dir_883994cb03b5f2e5348eff3099e61ac2&#45;&gt;dir_79e09b370f6f9aca9214ea225a19a126</title>
<g id="a_edge7"><a xlink:href="dir_000004_000043.html" target="_top">
<path fill="none" stroke="#63b8ff" d="M228.78,-129.07C225.99,-128.04 223.09,-126.98 220.36,-126 189.12,-114.75 153.42,-102.28 127.85,-93.41"/>
<polygon fill="#63b8ff" stroke="#63b8ff" points="128.83,-90.04 118.23,-90.07 126.53,-96.65 128.83,-90.04"/>
</a>
</g>
<g id="a_edge7&#45;headlabel"><a xlink:href="dir_000004_000043.html" target="_top" xlink:title="1">
<text text-anchor="middle" x="133.15" y="-86.03" font-family="FreeSans" font-size="10.00" fill="#63b8ff">1</text>
</a>
</g>
</g>
<!-- dir_a7213113f97575cf4c1220ecd9faa952 -->
<g id="node15" class="node">
<title>dir_a7213113f97575cf4c1220ecd9faa952</title>
<g id="a_node15"><a xlink:href="dir_a7213113f97575cf4c1220ecd9faa952.html" target="_top" xlink:title="wfn">
<polygon fill="#daedff" stroke="#7f7f7f" points="156.86,-35 121.86,-35 121.86,-16 156.86,-16 156.86,-35"/>
<text text-anchor="middle" x="139.36" y="-23" font-family="FreeSans" font-size="10.00">wfn</text>
</a>
</g>
</g>
<!-- dir_883994cb03b5f2e5348eff3099e61ac2&#45;&gt;dir_a7213113f97575cf4c1220ecd9faa952 -->
<g id="edge8" class="edge">
<title>dir_883994cb03b5f2e5348eff3099e61ac2&#45;&gt;dir_a7213113f97575cf4c1220ecd9faa952</title>
<g id="a_edge8"><a xlink:href="dir_000004_000072.html" target="_top">
<path fill="none" stroke="#63b8ff" d="M234.85,-125.66C217.32,-107.46 176.97,-65.55 154.74,-42.47"/>
<polygon fill="#63b8ff" stroke="#63b8ff" points="157.16,-39.93 147.7,-35.16 152.12,-44.79 157.16,-39.93"/>
</a>
</g>
<g id="a_edge8&#45;headlabel"><a xlink:href="dir_000004_000072.html" target="_top" xlink:title="4">
<text text-anchor="middle" x="161.7" y="-38.05" font-family="FreeSans" font-size="10.00" fill="#63b8ff">4</text>
</a>
</g>
</g>
<!-- dir_dfad333b26ae1d260f0bd4d9efde2293 -->
<g id="node16" class="node">
<title>dir_dfad333b26ae1d260f0bd4d9efde2293</title>
<g id="a_node16"><a xlink:href="dir_dfad333b26ae1d260f0bd4d9efde2293.html" target="_top" xlink:title="properties">
<polygon fill="#daedff" stroke="#7f7f7f" points="669.36,-35 603.36,-35 603.36,-16 669.36,-16 669.36,-35"/>
<text text-anchor="middle" x="636.36" y="-23" font-family="FreeSans" font-size="10.00">properties</text>
</a>
</g>
</g>
<!-- dir_883994cb03b5f2e5348eff3099e61ac2&#45;&gt;dir_dfad333b26ae1d260f0bd4d9efde2293 -->
<g id="edge13" class="edge">
<title>dir_883994cb03b5f2e5348eff3099e61ac2&#45;&gt;dir_dfad333b26ae1d260f0bd4d9efde2293</title>
<g id="a_edge13"><a xlink:href="dir_000004_000051.html" target="_top">
<path fill="none" stroke="#63b8ff" d="M257.88,-134.36C317.34,-133.56 541.81,-128.02 599.36,-90 615.3,-79.47 625.25,-59.55 630.76,-44.82"/>
<polygon fill="#63b8ff" stroke="#63b8ff" points="634.12,-45.81 634.02,-35.21 627.49,-43.56 634.12,-45.81"/>
</a>
</g>
<g id="a_edge13&#45;headlabel"><a xlink:href="dir_000004_000051.html" target="_top" xlink:title="14">
<text text-anchor="middle" x="635.66" y="-47.62" font-family="FreeSans" font-size="10.00" fill="#63b8ff">14</text>
</a>
</g>
</g>
<!-- dir_bad689be6b83273e12a2461ee8accc6e&#45;&gt;dir_ccca7abcd5dfb15bb9fa9e68acbdf5bb -->
<g id="edge17" class="edge">
<title>dir_bad689be6b83273e12a2461ee8accc6e&#45;&gt;dir_ccca7abcd5dfb15bb9fa9e68acbdf5bb</title>
<g id="a_edge17"><a xlink:href="dir_000018_000019.html" target="_top">
<path fill="none" stroke="#63b8ff" d="M247.59,-70.83C251.39,-67.98 255.88,-65.02 260.36,-63 297.05,-46.47 341.95,-37.07 374.84,-31.97"/>
<polygon fill="#63b8ff" stroke="#63b8ff" points="375.68,-35.38 385.07,-30.45 374.66,-28.45 375.68,-35.38"/>
</a>
</g>
<g id="a_edge17&#45;headlabel"><a xlink:href="dir_000018_000019.html" target="_top" xlink:title="1">
<text text-anchor="middle" x="372.54" y="-36.21" font-family="FreeSans" font-size="10.00" fill="#63b8ff">1</text>
</a>
</g>
</g>
<!-- dir_bad689be6b83273e12a2461ee8accc6e&#45;&gt;dir_dc0d4b9cc7953cccd658fb5e254eaf2b -->
<g id="edge18" class="edge">
<title>dir_bad689be6b83273e12a2461ee8accc6e&#45;&gt;dir_dc0d4b9cc7953cccd658fb5e254eaf2b</title>
<g id="a_edge18"><a xlink:href="dir_000018_000006.html" target="_top">
<path fill="none" stroke="#63b8ff" d="M237.36,-70.75C237.36,-63.8 237.36,-53.85 237.36,-45.13"/>
<polygon fill="#63b8ff" stroke="#63b8ff" points="240.86,-45.09 237.36,-35.09 233.86,-45.09 240.86,-45.09"/>
</a>
</g>
<g id="a_edge18&#45;headlabel"><a xlink:href="dir_000018_000006.html" target="_top" xlink:title="4">
<text text-anchor="middle" x="243.7" y="-46.18" font-family="FreeSans" font-size="10.00" fill="#63b8ff">4</text>
</a>
</g>
</g>
<!-- dir_bad689be6b83273e12a2461ee8accc6e&#45;&gt;dir_048f7c5b69cb7e1832edab50eaa5c4ea -->
<g id="edge14" class="edge">
<title>dir_bad689be6b83273e12a2461ee8accc6e&#45;&gt;dir_048f7c5b69cb7e1832edab50eaa5c4ea</title>
<g id="a_edge14"><a xlink:href="dir_000018_000068.html" target="_top">
<path fill="none" stroke="#63b8ff" d="M218.06,-72.68C191.31,-63.23 142.89,-46.12 113.09,-35.59"/>
<polygon fill="#63b8ff" stroke="#63b8ff" points="113.98,-32.19 103.39,-32.16 111.65,-38.79 113.98,-32.19"/>
</a>
</g>
<g id="a_edge14&#45;headlabel"><a xlink:href="dir_000018_000068.html" target="_top" xlink:title="3">
<text text-anchor="middle" x="118.32" y="-28.21" font-family="FreeSans" font-size="10.00" fill="#63b8ff">3</text>
</a>
</g>
</g>
<!-- dir_bad689be6b83273e12a2461ee8accc6e&#45;&gt;dir_05301f9ba83e223c2c24bb4e5a915266 -->
<g id="edge15" class="edge">
<title>dir_bad689be6b83273e12a2461ee8accc6e&#45;&gt;dir_05301f9ba83e223c2c24bb4e5a915266</title>
<g id="a_edge15"><a xlink:href="dir_000018_000037.html" target="_top">
<path fill="none" stroke="#63b8ff" d="M246.97,-70.78C250.86,-67.77 255.55,-64.73 260.36,-63 345.16,-32.56 571.41,-49.69 677.04,-34.7"/>
<polygon fill="#63b8ff" stroke="#63b8ff" points="677.86,-38.12 687.19,-33.09 676.76,-31.2 677.86,-38.12"/>
</a>
</g>
<g id="a_edge15&#45;headlabel"><a xlink:href="dir_000018_000037.html" target="_top" xlink:title="5">
<text text-anchor="middle" x="674.75" y="-38.98" font-family="FreeSans" font-size="10.00" fill="#63b8ff">5</text>
</a>
</g>
</g>
<!-- dir_bad689be6b83273e12a2461ee8accc6e&#45;&gt;dir_a7213113f97575cf4c1220ecd9faa952 -->
<g id="edge16" class="edge">
<title>dir_bad689be6b83273e12a2461ee8accc6e&#45;&gt;dir_a7213113f97575cf4c1220ecd9faa952</title>
<g id="a_edge16"><a xlink:href="dir_000018_000072.html" target="_top">
<path fill="none" stroke="#63b8ff" d="M221.62,-70.98C206.14,-62.61 182.27,-49.7 164.23,-39.95"/>
<polygon fill="#63b8ff" stroke="#63b8ff" points="165.86,-36.85 155.4,-35.17 162.53,-43.01 165.86,-36.85"/>
</a>
</g>
<g id="a_edge16&#45;headlabel"><a xlink:href="dir_000018_000072.html" target="_top" xlink:title="3">
<text text-anchor="middle" x="170.37" y="-33.56" font-family="FreeSans" font-size="10.00" fill="#63b8ff">3</text>
</a>
</g>
</g>
<!-- dir_bad689be6b83273e12a2461ee8accc6e&#45;&gt;dir_dfad333b26ae1d260f0bd4d9efde2293 -->
<g id="edge19" class="edge">
<title>dir_bad689be6b83273e12a2461ee8accc6e&#45;&gt;dir_dfad333b26ae1d260f0bd4d9efde2293</title>
<g id="a_edge19"><a xlink:href="dir_000018_000051.html" target="_top">
<path fill="none" stroke="#63b8ff" d="M246.99,-70.82C250.87,-67.82 255.57,-64.76 260.36,-63 399.07,-12 447.79,-56.13 593.15,-35.84"/>
<polygon fill="#63b8ff" stroke="#63b8ff" points="593.95,-39.26 603.33,-34.34 592.92,-32.33 593.95,-39.26"/>
</a>
</g>
<g id="a_edge19&#45;headlabel"><a xlink:href="dir_000018_000051.html" target="_top" xlink:title="4">
<text text-anchor="middle" x="590.8" y="-40.09" font-family="FreeSans" font-size="10.00" fill="#63b8ff">4</text>
</a>
</g>
</g>
<!-- dir_ff423f169c3ac5160724f267ca66d205 -->
<g id="node10" class="node">
<title>dir_ff423f169c3ac5160724f267ca66d205</title>
<g id="a_node10"><a xlink:href="dir_ff423f169c3ac5160724f267ca66d205.html" target="_top" xlink:title="pt">
<polygon fill="#4ea9ff" stroke="#404040" points="210.86,-145 181.86,-145 181.86,-126 210.86,-126 210.86,-145"/>
<text text-anchor="middle" x="196.36" y="-133" font-family="FreeSans" font-size="10.00">pt</text>
</a>
</g>
</g>
<!-- dir_ff423f169c3ac5160724f267ca66d205&#45;&gt;dir_048f7c5b69cb7e1832edab50eaa5c4ea -->
<g id="edge20" class="edge">
<title>dir_ff423f169c3ac5160724f267ca66d205&#45;&gt;dir_048f7c5b69cb7e1832edab50eaa5c4ea</title>
<g id="a_edge20"><a xlink:href="dir_000052_000068.html" target="_top">
<path fill="none" stroke="#63b8ff" d="M181.65,-133.37C140.79,-129.89 27.49,-117.87 5.36,-90 -2.1,-80.6 -1.17,-73.06 5.36,-63 17.61,-44.14 42.1,-34.95 61.14,-30.51"/>
<polygon fill="#63b8ff" stroke="#63b8ff" points="61.94,-33.92 71.05,-28.51 60.55,-27.06 61.94,-33.92"/>
</a>
</g>
<g id="a_edge20&#45;headlabel"><a xlink:href="dir_000052_000068.html" target="_top" xlink:title="1">
<text text-anchor="middle" x="58.98" y="-34.92" font-family="FreeSans" font-size="10.00" fill="#63b8ff">1</text>
</a>
</g>
</g>
<!-- dir_ff423f169c3ac5160724f267ca66d205&#45;&gt;dir_05301f9ba83e223c2c24bb4e5a915266 -->
<g id="edge21" class="edge">
<title>dir_ff423f169c3ac5160724f267ca66d205&#45;&gt;dir_05301f9ba83e223c2c24bb4e5a915266</title>
<g id="a_edge21"><a xlink:href="dir_000052_000037.html" target="_top">
<path fill="none" stroke="#63b8ff" d="M210.92,-128.7C214,-127.66 217.26,-126.69 220.36,-126 385.58,-89.48 444.44,-158.03 599.36,-90 615.79,-82.79 614.39,-72.87 629.36,-63 644.47,-53.04 662.73,-44.41 677.89,-38.05"/>
<polygon fill="#63b8ff" stroke="#63b8ff" points="679.4,-41.21 687.34,-34.2 676.76,-34.73 679.4,-41.21"/>
</a>
</g>
<g id="a_edge21&#45;headlabel"><a xlink:href="dir_000052_000037.html" target="_top" xlink:title="4">
<text text-anchor="middle" x="677.14" y="-42.7" font-family="FreeSans" font-size="10.00" fill="#63b8ff">4</text>
</a>
</g>
</g>
</g>
</svg>

<g id="navigator" transform="translate(0 0)" fill="#404254">
  <rect fill="#f2f5e9" fill-opacity="0.5" stroke="#606060" stroke-width=".5" x="0" y="0" width="60" height="60"/>
  <use id="zoomplus" xlink:href="#zoomPlus" x="17" y="9" onmousedown="handleZoom(evt,'in')"/>
  <use id="zoomminus" xlink:href="#zoomMin" x="42" y="9" onmousedown="handleZoom(evt,'out')"/>
  <use id="reset" xlink:href="#resetDef" x="30" y="36" onmousedown="handleReset()"/>
   <use id="arrowup" xlink:href="#arrowUp" x="0" y="0" onmousedown="handlePan(0,-1)"/>
  <use id="arrowright" xlink:href="#arrowRight" x="0" y="0" onmousedown="handlePan(1,0)"/>
  <use id="arrowdown" xlink:href="#arrowDown" x="0" y="0" onmousedown="handlePan(0,1)"/>
  <use id="arrowleft" xlink:href="#arrowLeft" x="0" y="0" onmousedown="handlePan(-1,0)"/>
</g>
<svg viewBox="0 0 15 15" width="100%" height="30px" preserveAspectRatio="xMaxYMin meet">
 <g id="arrow_out" transform="scale(0.3 0.3)">
  <a xlink:href="dir_883994cb03b5f2e5348eff3099e61ac2_dep_org.svg" target="_base">
   <rect id="button" ry="5" rx="5" y="6" x="6" height="38" width="38"
        fill="#f2f5e9" fill-opacity="0.5" stroke="#606060" stroke-width="1.0"/>
   <path id="arrow"
     d="M 11.500037,31.436501 C 11.940474,20.09759 22.043105,11.32322 32.158766,21.979434 L 37.068811,17.246167 C 37.068811,17.246167 37.088388,32 37.088388,32 L 22.160133,31.978069 C 22.160133,31.978069 26.997745,27.140456 26.997745,27.140456 C 18.528582,18.264221 13.291696,25.230495 11.500037,31.436501 z"
     style="fill:#404040;"/>
  </a>
 </g>
</svg>

<style type='text/css'>
<![CDATA[
[data-mouse-over-selected='false'] { opacity: 0.7; }
[data-mouse-over-selected='true']  { opacity: 1.0; }
]]>
</style>
<script type="application/ecmascript"><![CDATA[
document.addEventListener('DOMContentLoaded', (event) => {
  highlightEdges();
  highlightAdjacentNodes();
});
]]></script>
</svg>
