<?xml version="1.0" encoding="UTF-8" standalone="no"?>
<!DOCTYPE svg PUBLIC "-//W3C//DTD SVG 1.1//EN"
 "http://www.w3.org/Graphics/SVG/1.1/DTD/svg11.dtd">
<!-- Generated by graphviz version 2.43.0 (0)
 -->
<!-- Title: mpqc/chemistry/qc Pages: 1 -->
<svg width="332pt" height="306pt"
 viewBox="0.00 0.00 331.68 306.00" xmlns="http://www.w3.org/2000/svg" xmlns:xlink="http://www.w3.org/1999/xlink">

<svg id="main" version="1.1" xmlns="http://www.w3.org/2000/svg" xmlns:xlink="http://www.w3.org/1999/xlink" xml:space="preserve" onload="init(evt)">
<style type="text/css"><![CDATA[
.node, .edge {opacity: 0.7;}
.node.selected, .edge.selected {opacity: 1;}
.edge:hover path { stroke: red; }
.edge:hover polygon { stroke: red; fill: red; }
]]></style>
<script type="application/ecmascript" xlink:href="svg.min.js"/>
<svg id="graph" class="graph">
<g id="graph0" class="graph" transform="scale(1 1) rotate(0) translate(4 302)">
<title>mpqc/chemistry/qc</title>
<g id="clust1" class="cluster">
<title>clusterdir_d7346f86f79c2c85c25b0625ba0ec21c</title>
<g id="a_clust1"><a xlink:href="dir_d7346f86f79c2c85c25b0625ba0ec21c.html" target="_top" xlink:title="chemistry">
<polygon fill="#daedff" stroke="#7f7f7f" stroke-dasharray="5,2" points="8,-8 8,-290 246,-290 246,-8 8,-8"/>
<text text-anchor="middle" x="127" y="-278" font-family="FreeSans" font-size="10.00">chemistry</text>
</a>
</g>
</g>
<g id="clust2" class="cluster">
<title>clusterdir_b7d60659f4c775e2e7e62ef587a4dca3</title>
<g id="a_clust2"><a xlink:href="dir_b7d60659f4c775e2e7e62ef587a4dca3.html" target="_top">
<polygon fill="#daedff" stroke="#404040" stroke-width="2" points="68,-63 68,-263 238,-263 238,-63 68,-63"/>
</a>
</g>
</g>
<!-- dir_072b070bc725d6a2db76c22b2c6e8476 -->
<g id="node1" class="node">
<title>dir_072b070bc725d6a2db76c22b2c6e8476</title>
<g id="a_node1"><a xlink:href="dir_072b070bc725d6a2db76c22b2c6e8476.html" target="_top" xlink:title="units">
<polygon fill="#4ea9ff" stroke="#404040" points="57.5,-35 16.5,-35 16.5,-16 57.5,-16 57.5,-35"/>
<text text-anchor="middle" x="37" y="-23" font-family="FreeSans" font-size="10.00">units</text>
</a>
</g>
</g>
<!-- dir_79e09b370f6f9aca9214ea225a19a126 -->
<g id="node2" class="node">
<title>dir_79e09b370f6f9aca9214ea225a19a126</title>
<g id="a_node2"><a xlink:href="dir_79e09b370f6f9aca9214ea225a19a126.html" target="_top" xlink:title="molecule">
<polygon fill="#4ea9ff" stroke="red" points="138,-35 76,-35 76,-16 138,-16 138,-35"/>
<text text-anchor="middle" x="107" y="-23" font-family="FreeSans" font-size="10.00">molecule</text>
</a>
</g>
</g>
<!-- dir_b7d60659f4c775e2e7e62ef587a4dca3 -->
<g id="node3" class="node">
<title>dir_b7d60659f4c775e2e7e62ef587a4dca3</title>
<text text-anchor="middle" x="206" y="-243" font-family="FreeSans" font-size="10.00">qc</text>
</g>
<!-- dir_398e8fc132009079a592f5169fb543be -->
<g id="node4" class="node">
<title>dir_398e8fc132009079a592f5169fb543be</title>
<g id="a_node4"><a xlink:href="dir_398e8fc132009079a592f5169fb543be.html" target="_top" xlink:title="cc">
<polygon fill="#4ea9ff" stroke="#404040" points="229.5,-145 200.5,-145 200.5,-126 229.5,-126 229.5,-145"/>
<text text-anchor="middle" x="215" y="-133" font-family="FreeSans" font-size="10.00">cc</text>
</a>
</g>
</g>
<!-- dir_048f7c5b69cb7e1832edab50eaa5c4ea -->
<g id="node9" class="node">
<title>dir_048f7c5b69cb7e1832edab50eaa5c4ea</title>
<g id="a_node9"><a xlink:href="dir_048f7c5b69cb7e1832edab50eaa5c4ea.html" target="_top" xlink:title="util">
<polygon fill="#daedff" stroke="red" stroke-dasharray="5,2" points="286,-35 254,-35 254,-16 286,-16 286,-35"/>
<text text-anchor="middle" x="270" y="-23" font-family="FreeSans" font-size="10.00">util</text>
</a>
</g>
</g>
<!-- dir_398e8fc132009079a592f5169fb543be&#45;&gt;dir_048f7c5b69cb7e1832edab50eaa5c4ea -->
<g id="edge1" class="edge">
<title>dir_398e8fc132009079a592f5169fb543be&#45;&gt;dir_048f7c5b69cb7e1832edab50eaa5c4ea</title>
<g id="a_edge1"><a xlink:href="dir_000003_000068.html" target="_top">
<path fill="none" stroke="#63b8ff" d="M217.97,-125.88C222.84,-112.17 233.15,-84.75 245,-63 248.57,-56.45 253.03,-49.62 257.19,-43.66"/>
<polygon fill="#63b8ff" stroke="#63b8ff" points="260.29,-45.33 263.31,-35.18 254.62,-41.24 260.29,-45.33"/>
</a>
</g>
<g id="a_edge1&#45;headlabel"><a xlink:href="dir_000003_000068.html" target="_top" xlink:title="4">
<text text-anchor="middle" x="260.49" y="-47.41" font-family="FreeSans" font-size="10.00" fill="#63b8ff">4</text>
</a>
</g>
</g>
<!-- dir_05301f9ba83e223c2c24bb4e5a915266 -->
<g id="node10" class="node">
<title>dir_05301f9ba83e223c2c24bb4e5a915266</title>
<g id="a_node10"><a xlink:href="dir_05301f9ba83e223c2c24bb4e5a915266.html" target="_top" xlink:title="math">
<polygon fill="#daedff" stroke="red" stroke-dasharray="5,2" points="296,-90 254,-90 254,-71 296,-71 296,-90"/>
<text text-anchor="middle" x="275" y="-78" font-family="FreeSans" font-size="10.00">math</text>
</a>
</g>
</g>
<!-- dir_398e8fc132009079a592f5169fb543be&#45;&gt;dir_05301f9ba83e223c2c24bb4e5a915266 -->
<g id="edge2" class="edge">
<title>dir_398e8fc132009079a592f5169fb543be&#45;&gt;dir_05301f9ba83e223c2c24bb4e5a915266</title>
<g id="a_edge2"><a xlink:href="dir_000003_000037.html" target="_top">
<path fill="none" stroke="#63b8ff" d="M224.64,-125.98C233.51,-118.15 246.87,-106.34 257.61,-96.86"/>
<polygon fill="#63b8ff" stroke="#63b8ff" points="260.01,-99.41 265.18,-90.17 255.37,-94.17 260.01,-99.41"/>
</a>
</g>
<g id="a_edge2&#45;headlabel"><a xlink:href="dir_000003_000037.html" target="_top" xlink:title="1">
<text text-anchor="middle" x="259.19" y="-101.42" font-family="FreeSans" font-size="10.00" fill="#63b8ff">1</text>
</a>
</g>
</g>
<!-- dir_f442f60972c0f9169917a25cab152b2a -->
<g id="node5" class="node">
<title>dir_f442f60972c0f9169917a25cab152b2a</title>
<g id="a_node5"><a xlink:href="dir_f442f60972c0f9169917a25cab152b2a.html" target="_top" xlink:title="lcao">
<polygon fill="#4ea9ff" stroke="#404040" points="185.5,-200 148.5,-200 148.5,-181 185.5,-181 185.5,-200"/>
<text text-anchor="middle" x="167" y="-188" font-family="FreeSans" font-size="10.00">lcao</text>
</a>
</g>
</g>
<!-- dir_f442f60972c0f9169917a25cab152b2a&#45;&gt;dir_072b070bc725d6a2db76c22b2c6e8476 -->
<g id="edge5" class="edge">
<title>dir_f442f60972c0f9169917a25cab152b2a&#45;&gt;dir_072b070bc725d6a2db76c22b2c6e8476</title>
<g id="a_edge5"><a xlink:href="dir_000033_000066.html" target="_top">
<path fill="none" stroke="#63b8ff" d="M148.47,-182.44C124.92,-173.14 86.11,-156.6 76,-145 50.82,-116.12 41.82,-70.57 38.66,-45.17"/>
<polygon fill="#63b8ff" stroke="#63b8ff" points="42.12,-44.63 37.58,-35.06 35.16,-45.37 42.12,-44.63"/>
</a>
</g>
<g id="a_edge5&#45;headlabel"><a xlink:href="dir_000033_000066.html" target="_top" xlink:title="6">
<text text-anchor="middle" x="45.32" y="-45.41" font-family="FreeSans" font-size="10.00" fill="#63b8ff">6</text>
</a>
</g>
</g>
<!-- dir_f442f60972c0f9169917a25cab152b2a&#45;&gt;dir_79e09b370f6f9aca9214ea225a19a126 -->
<g id="edge7" class="edge">
<title>dir_f442f60972c0f9169917a25cab152b2a&#45;&gt;dir_79e09b370f6f9aca9214ea225a19a126</title>
<g id="a_edge7"><a xlink:href="dir_000033_000043.html" target="_top">
<path fill="none" stroke="#63b8ff" d="M148.3,-181.75C126.88,-172.45 93.85,-156.64 87,-145 68.31,-113.21 84.96,-68.83 97.06,-44.4"/>
<polygon fill="#63b8ff" stroke="#63b8ff" points="100.32,-45.73 101.85,-35.24 94.12,-42.48 100.32,-45.73"/>
</a>
</g>
<g id="a_edge7&#45;headlabel"><a xlink:href="dir_000033_000043.html" target="_top" xlink:title="41">
<text text-anchor="middle" x="101.17" y="-47.73" font-family="FreeSans" font-size="10.00" fill="#63b8ff">41</text>
</a>
</g>
</g>
<!-- dir_f442f60972c0f9169917a25cab152b2a&#45;&gt;dir_398e8fc132009079a592f5169fb543be -->
<g id="edge6" class="edge">
<title>dir_f442f60972c0f9169917a25cab152b2a&#45;&gt;dir_398e8fc132009079a592f5169fb543be</title>
<g id="a_edge6"><a xlink:href="dir_000033_000003.html" target="_top">
<path fill="none" stroke="#63b8ff" d="M174.93,-180.75C181.85,-173.11 192.07,-161.82 200.45,-152.56"/>
<polygon fill="#63b8ff" stroke="#63b8ff" points="203.1,-154.85 207.22,-145.09 197.91,-150.15 203.1,-154.85"/>
</a>
</g>
<g id="a_edge6&#45;headlabel"><a xlink:href="dir_000033_000003.html" target="_top" xlink:title="6">
<text text-anchor="middle" x="202.79" y="-156.92" font-family="FreeSans" font-size="10.00" fill="#63b8ff">6</text>
</a>
</g>
</g>
<!-- dir_dfad333b26ae1d260f0bd4d9efde2293 -->
<g id="node7" class="node">
<title>dir_dfad333b26ae1d260f0bd4d9efde2293</title>
<g id="a_node7"><a xlink:href="dir_dfad333b26ae1d260f0bd4d9efde2293.html" target="_top" xlink:title="properties">
<polygon fill="#4ea9ff" stroke="#404040" points="162,-145 96,-145 96,-126 162,-126 162,-145"/>
<text text-anchor="middle" x="129" y="-133" font-family="FreeSans" font-size="10.00">properties</text>
</a>
</g>
</g>
<!-- dir_f442f60972c0f9169917a25cab152b2a&#45;&gt;dir_dfad333b26ae1d260f0bd4d9efde2293 -->
<g id="edge9" class="edge">
<title>dir_f442f60972c0f9169917a25cab152b2a&#45;&gt;dir_dfad333b26ae1d260f0bd4d9efde2293</title>
<g id="a_edge9"><a xlink:href="dir_000033_000051.html" target="_top">
<path fill="none" stroke="#63b8ff" d="M155.56,-180.75C148.8,-173.49 140.83,-162.95 135.14,-153.98"/>
<polygon fill="#63b8ff" stroke="#63b8ff" points="138.05,-152.01 130.03,-145.09 131.98,-155.5 138.05,-152.01"/>
</a>
</g>
<g id="a_edge9&#45;headlabel"><a xlink:href="dir_000033_000051.html" target="_top" xlink:title="34">
<text text-anchor="middle" x="142.3" y="-151.21" font-family="FreeSans" font-size="10.00" fill="#63b8ff">34</text>
</a>
</g>
</g>
<!-- dir_a7213113f97575cf4c1220ecd9faa952 -->
<g id="node8" class="node">
<title>dir_a7213113f97575cf4c1220ecd9faa952</title>
<g id="a_node8"><a xlink:href="dir_a7213113f97575cf4c1220ecd9faa952.html" target="_top" xlink:title="wfn">
<polygon fill="#4ea9ff" stroke="#404040" points="146.5,-90 111.5,-90 111.5,-71 146.5,-71 146.5,-90"/>
<text text-anchor="middle" x="129" y="-78" font-family="FreeSans" font-size="10.00">wfn</text>
</a>
</g>
</g>
<!-- dir_f442f60972c0f9169917a25cab152b2a&#45;&gt;dir_a7213113f97575cf4c1220ecd9faa952 -->
<g id="edge8" class="edge">
<title>dir_f442f60972c0f9169917a25cab152b2a&#45;&gt;dir_a7213113f97575cf4c1220ecd9faa952</title>
<g id="a_edge8"><a xlink:href="dir_000033_000072.html" target="_top">
<path fill="none" stroke="#63b8ff" d="M169.79,-180.92C173.38,-168.36 178.34,-144.48 171,-126 166.48,-114.63 157.53,-104.48 149.04,-96.76"/>
<polygon fill="#63b8ff" stroke="#63b8ff" points="151.11,-93.92 141.21,-90.14 146.59,-99.27 151.11,-93.92"/>
</a>
</g>
<g id="a_edge8&#45;headlabel"><a xlink:href="dir_000033_000072.html" target="_top" xlink:title="17">
<text text-anchor="middle" x="155.68" y="-91.57" font-family="FreeSans" font-size="10.00" fill="#63b8ff">17</text>
</a>
</g>
</g>
<!-- dir_f442f60972c0f9169917a25cab152b2a&#45;&gt;dir_048f7c5b69cb7e1832edab50eaa5c4ea -->
<g id="edge3" class="edge">
<title>dir_f442f60972c0f9169917a25cab152b2a&#45;&gt;dir_048f7c5b69cb7e1832edab50eaa5c4ea</title>
<g id="a_edge3"><a xlink:href="dir_000033_000068.html" target="_top">
<path fill="none" stroke="#63b8ff" d="M185.5,-183.79C218.55,-172.37 286.03,-143.13 305,-90 309.03,-78.7 309.48,-74.13 305,-63 301.78,-54.98 295.86,-47.73 289.79,-41.85"/>
<polygon fill="#63b8ff" stroke="#63b8ff" points="292.04,-39.16 282.22,-35.17 287.4,-44.41 292.04,-39.16"/>
</a>
</g>
<g id="a_edge3&#45;headlabel"><a xlink:href="dir_000033_000068.html" target="_top" xlink:title="240">
<text text-anchor="middle" x="296.61" y="-36.91" font-family="FreeSans" font-size="10.00" fill="#63b8ff">240</text>
</a>
</g>
</g>
<!-- dir_f442f60972c0f9169917a25cab152b2a&#45;&gt;dir_05301f9ba83e223c2c24bb4e5a915266 -->
<g id="edge4" class="edge">
<title>dir_f442f60972c0f9169917a25cab152b2a&#45;&gt;dir_05301f9ba83e223c2c24bb4e5a915266</title>
<g id="a_edge4"><a xlink:href="dir_000033_000037.html" target="_top">
<path fill="none" stroke="#63b8ff" d="M185.63,-181.25C201.33,-173.59 223.61,-160.98 239,-145 251.75,-131.76 261.61,-113.14 267.76,-99.49"/>
<polygon fill="#63b8ff" stroke="#63b8ff" points="271.02,-100.76 271.72,-90.19 264.58,-98.01 271.02,-100.76"/>
</a>
</g>
<g id="a_edge4&#45;headlabel"><a xlink:href="dir_000033_000037.html" target="_top" xlink:title="289">
<text text-anchor="middle" x="272.22" y="-102.68" font-family="FreeSans" font-size="10.00" fill="#63b8ff">289</text>
</a>
</g>
</g>
<!-- dir_0d45d2e8b90b2e13790098682c5a071c -->
<g id="node6" class="node">
<title>dir_0d45d2e8b90b2e13790098682c5a071c</title>
<g id="a_node6"><a xlink:href="dir_0d45d2e8b90b2e13790098682c5a071c.html" target="_top" xlink:title="mra">
<polygon fill="#4ea9ff" stroke="#404040" points="156,-255 120,-255 120,-236 156,-236 156,-255"/>
<text text-anchor="middle" x="138" y="-243" font-family="FreeSans" font-size="10.00">mra</text>
</a>
</g>
</g>
<!-- dir_0d45d2e8b90b2e13790098682c5a071c&#45;&gt;dir_072b070bc725d6a2db76c22b2c6e8476 -->
<g id="edge15" class="edge">
<title>dir_0d45d2e8b90b2e13790098682c5a071c&#45;&gt;dir_072b070bc725d6a2db76c22b2c6e8476</title>
<g id="a_edge15"><a xlink:href="dir_000046_000066.html" target="_top">
<path fill="none" stroke="#63b8ff" d="M128.89,-235.88C106.71,-214.07 50.83,-153.91 38,-90 35.04,-75.27 34.95,-58.23 35.51,-45.51"/>
<polygon fill="#63b8ff" stroke="#63b8ff" points="39.02,-45.43 36.15,-35.23 32.04,-45 39.02,-45.43"/>
</a>
</g>
<g id="a_edge15&#45;headlabel"><a xlink:href="dir_000046_000066.html" target="_top" xlink:title="1">
<text text-anchor="middle" x="41.63" y="-46.69" font-family="FreeSans" font-size="10.00" fill="#63b8ff">1</text>
</a>
</g>
</g>
<!-- dir_0d45d2e8b90b2e13790098682c5a071c&#45;&gt;dir_f442f60972c0f9169917a25cab152b2a -->
<g id="edge13" class="edge">
<title>dir_0d45d2e8b90b2e13790098682c5a071c&#45;&gt;dir_f442f60972c0f9169917a25cab152b2a</title>
<g id="a_edge13"><a xlink:href="dir_000046_000033.html" target="_top">
<path fill="none" stroke="#63b8ff" d="M142.79,-235.75C146.76,-228.49 152.53,-217.95 157.43,-208.98"/>
<polygon fill="#63b8ff" stroke="#63b8ff" points="160.57,-210.54 162.3,-200.09 154.43,-207.18 160.57,-210.54"/>
</a>
</g>
<g id="a_edge13&#45;headlabel"><a xlink:href="dir_000046_000033.html" target="_top" xlink:title="17">
<text text-anchor="middle" x="161.34" y="-212.56" font-family="FreeSans" font-size="10.00" fill="#63b8ff">17</text>
</a>
</g>
</g>
<!-- dir_0d45d2e8b90b2e13790098682c5a071c&#45;&gt;dir_dfad333b26ae1d260f0bd4d9efde2293 -->
<g id="edge11" class="edge">
<title>dir_0d45d2e8b90b2e13790098682c5a071c&#45;&gt;dir_dfad333b26ae1d260f0bd4d9efde2293</title>
<g id="a_edge11"><a xlink:href="dir_000046_000051.html" target="_top">
<path fill="none" stroke="#63b8ff" d="M137.26,-235.66C135.81,-218.17 132.53,-178.8 130.56,-155.27"/>
<polygon fill="#63b8ff" stroke="#63b8ff" points="134.04,-154.83 129.72,-145.16 127.06,-155.41 134.04,-154.83"/>
</a>
</g>
<g id="a_edge11&#45;headlabel"><a xlink:href="dir_000046_000051.html" target="_top" xlink:title="2">
<text text-anchor="middle" x="137.17" y="-155.68" font-family="FreeSans" font-size="10.00" fill="#63b8ff">2</text>
</a>
</g>
</g>
<!-- dir_0d45d2e8b90b2e13790098682c5a071c&#45;&gt;dir_a7213113f97575cf4c1220ecd9faa952 -->
<g id="edge14" class="edge">
<title>dir_0d45d2e8b90b2e13790098682c5a071c&#45;&gt;dir_a7213113f97575cf4c1220ecd9faa952</title>
<g id="a_edge14"><a xlink:href="dir_000046_000072.html" target="_top">
<path fill="none" stroke="#63b8ff" d="M131.67,-235.75C120.06,-219.08 95.74,-181.23 87,-145 85.02,-136.79 83.88,-133.85 87,-126 91.52,-114.63 100.47,-104.48 108.96,-96.76"/>
<polygon fill="#63b8ff" stroke="#63b8ff" points="111.41,-99.27 116.79,-90.14 106.89,-93.92 111.41,-99.27"/>
</a>
</g>
<g id="a_edge14&#45;headlabel"><a xlink:href="dir_000046_000072.html" target="_top" xlink:title="2">
<text text-anchor="middle" x="110.5" y="-101.25" font-family="FreeSans" font-size="10.00" fill="#63b8ff">2</text>
</a>
</g>
</g>
<!-- dir_0d45d2e8b90b2e13790098682c5a071c&#45;&gt;dir_048f7c5b69cb7e1832edab50eaa5c4ea -->
<g id="edge10" class="edge">
<title>dir_0d45d2e8b90b2e13790098682c5a071c&#45;&gt;dir_048f7c5b69cb7e1832edab50eaa5c4ea</title>
<g id="a_edge10"><a xlink:href="dir_000046_000068.html" target="_top">
<path fill="none" stroke="#63b8ff" d="M156.12,-238.75C176.28,-231.77 209.15,-218.57 233,-200 282.18,-161.71 300.03,-149.05 320,-90 323.84,-78.63 325.44,-73.7 320,-63 314.69,-52.54 304.82,-44.37 295.24,-38.43"/>
<polygon fill="#63b8ff" stroke="#63b8ff" points="296.75,-35.26 286.31,-33.42 293.32,-41.37 296.75,-35.26"/>
</a>
</g>
<g id="a_edge10&#45;headlabel"><a xlink:href="dir_000046_000068.html" target="_top" xlink:title="11">
<text text-anchor="middle" x="301.27" y="-32.04" font-family="FreeSans" font-size="10.00" fill="#63b8ff">11</text>
</a>
</g>
</g>
<!-- dir_0d45d2e8b90b2e13790098682c5a071c&#45;&gt;dir_05301f9ba83e223c2c24bb4e5a915266 -->
<g id="edge12" class="edge">
<title>dir_0d45d2e8b90b2e13790098682c5a071c&#45;&gt;dir_05301f9ba83e223c2c24bb4e5a915266</title>
<g id="a_edge12"><a xlink:href="dir_000046_000037.html" target="_top">
<path fill="none" stroke="#63b8ff" d="M154.41,-235.97C181.06,-221.22 233.42,-188.33 260,-145 268.25,-131.56 271.96,-113.96 273.63,-100.69"/>
<polygon fill="#63b8ff" stroke="#63b8ff" points="277.15,-100.66 274.64,-90.37 270.18,-99.98 277.15,-100.66"/>
</a>
</g>
<g id="a_edge12&#45;headlabel"><a xlink:href="dir_000046_000037.html" target="_top" xlink:title="15">
<text text-anchor="middle" x="279.63" y="-102.02" font-family="FreeSans" font-size="10.00" fill="#63b8ff">15</text>
</a>
</g>
</g>
<!-- dir_dfad333b26ae1d260f0bd4d9efde2293&#45;&gt;dir_79e09b370f6f9aca9214ea225a19a126 -->
<g id="edge18" class="edge">
<title>dir_dfad333b26ae1d260f0bd4d9efde2293&#45;&gt;dir_79e09b370f6f9aca9214ea225a19a126</title>
<g id="a_edge18"><a xlink:href="dir_000051_000043.html" target="_top">
<path fill="none" stroke="#63b8ff" d="M121.85,-125.97C115.23,-117.48 105.85,-103.75 102,-90 97.9,-75.34 99.66,-58.08 102.15,-45.26"/>
<polygon fill="#63b8ff" stroke="#63b8ff" points="105.61,-45.84 104.41,-35.31 98.79,-44.29 105.61,-45.84"/>
</a>
</g>
<g id="a_edge18&#45;headlabel"><a xlink:href="dir_000051_000043.html" target="_top" xlink:title="2">
<text text-anchor="middle" x="107.59" y="-47.47" font-family="FreeSans" font-size="10.00" fill="#63b8ff">2</text>
</a>
</g>
</g>
<!-- dir_dfad333b26ae1d260f0bd4d9efde2293&#45;&gt;dir_f442f60972c0f9169917a25cab152b2a -->
<g id="edge20" class="edge">
<title>dir_dfad333b26ae1d260f0bd4d9efde2293&#45;&gt;dir_f442f60972c0f9169917a25cab152b2a</title>
<g id="a_edge20"><a xlink:href="dir_000051_000033.html" target="_top">
<path fill="none" stroke="#63b8ff" d="M140.29,-145.09C147.03,-152.29 155,-162.82 160.73,-171.82"/>
<polygon fill="#63b8ff" stroke="#63b8ff" points="157.86,-173.84 165.89,-180.75 163.92,-170.34 157.86,-173.84"/>
</a>
</g>
<g id="a_edge20&#45;headlabel"><a xlink:href="dir_000051_000033.html" target="_top" xlink:title="1">
<text text-anchor="middle" x="153.6" y="-169.65" font-family="FreeSans" font-size="10.00" fill="#63b8ff">1</text>
</a>
</g>
</g>
<!-- dir_dfad333b26ae1d260f0bd4d9efde2293&#45;&gt;dir_a7213113f97575cf4c1220ecd9faa952 -->
<g id="edge19" class="edge">
<title>dir_dfad333b26ae1d260f0bd4d9efde2293&#45;&gt;dir_a7213113f97575cf4c1220ecd9faa952</title>
<g id="a_edge19"><a xlink:href="dir_000051_000072.html" target="_top">
<path fill="none" stroke="#63b8ff" d="M129,-125.75C129,-118.8 129,-108.85 129,-100.13"/>
<polygon fill="#63b8ff" stroke="#63b8ff" points="132.5,-100.09 129,-90.09 125.5,-100.09 132.5,-100.09"/>
</a>
</g>
<g id="a_edge19&#45;headlabel"><a xlink:href="dir_000051_000072.html" target="_top" xlink:title="1">
<text text-anchor="middle" x="135.34" y="-101.18" font-family="FreeSans" font-size="10.00" fill="#63b8ff">1</text>
</a>
</g>
</g>
<!-- dir_dfad333b26ae1d260f0bd4d9efde2293&#45;&gt;dir_048f7c5b69cb7e1832edab50eaa5c4ea -->
<g id="edge16" class="edge">
<title>dir_dfad333b26ae1d260f0bd4d9efde2293&#45;&gt;dir_048f7c5b69cb7e1832edab50eaa5c4ea</title>
<g id="a_edge16"><a xlink:href="dir_000051_000068.html" target="_top">
<path fill="none" stroke="#63b8ff" d="M140.54,-125.66C164.72,-107.14 220.94,-64.08 250.71,-41.28"/>
<polygon fill="#63b8ff" stroke="#63b8ff" points="252.89,-44.02 258.7,-35.16 248.63,-38.46 252.89,-44.02"/>
</a>
</g>
<g id="a_edge16&#45;headlabel"><a xlink:href="dir_000051_000068.html" target="_top" xlink:title="13">
<text text-anchor="middle" x="251.76" y="-45.96" font-family="FreeSans" font-size="10.00" fill="#63b8ff">13</text>
</a>
</g>
</g>
<!-- dir_dfad333b26ae1d260f0bd4d9efde2293&#45;&gt;dir_05301f9ba83e223c2c24bb4e5a915266 -->
<g id="edge17" class="edge">
<title>dir_dfad333b26ae1d260f0bd4d9efde2293&#45;&gt;dir_05301f9ba83e223c2c24bb4e5a915266</title>
<g id="a_edge17"><a xlink:href="dir_000051_000037.html" target="_top">
<path fill="none" stroke="#63b8ff" d="M152.46,-125.98C177.44,-116.92 217.08,-102.53 244.48,-92.58"/>
<polygon fill="#63b8ff" stroke="#63b8ff" points="245.76,-95.84 253.97,-89.13 243.38,-89.26 245.76,-95.84"/>
</a>
</g>
<g id="a_edge17&#45;headlabel"><a xlink:href="dir_000051_000037.html" target="_top" xlink:title="10">
<text text-anchor="middle" x="243.35" y="-97.23" font-family="FreeSans" font-size="10.00" fill="#63b8ff">10</text>
</a>
</g>
</g>
<!-- dir_a7213113f97575cf4c1220ecd9faa952&#45;&gt;dir_072b070bc725d6a2db76c22b2c6e8476 -->
<g id="edge22" class="edge">
<title>dir_a7213113f97575cf4c1220ecd9faa952&#45;&gt;dir_072b070bc725d6a2db76c22b2c6e8476</title>
<g id="a_edge22"><a xlink:href="dir_000072_000066.html" target="_top">
<path fill="none" stroke="#63b8ff" d="M118.06,-70.74C114.6,-68.13 110.72,-65.34 107,-63 93.38,-54.42 77.51,-46.03 64.34,-39.46"/>
<polygon fill="#63b8ff" stroke="#63b8ff" points="65.81,-36.28 55.29,-35.02 62.72,-42.56 65.81,-36.28"/>
</a>
</g>
<g id="a_edge22&#45;headlabel"><a xlink:href="dir_000072_000066.html" target="_top" xlink:title="1">
<text text-anchor="middle" x="70.28" y="-32.81" font-family="FreeSans" font-size="10.00" fill="#63b8ff">1</text>
</a>
</g>
</g>
<!-- dir_a7213113f97575cf4c1220ecd9faa952&#45;&gt;dir_79e09b370f6f9aca9214ea225a19a126 -->
<g id="edge23" class="edge">
<title>dir_a7213113f97575cf4c1220ecd9faa952&#45;&gt;dir_79e09b370f6f9aca9214ea225a19a126</title>
<g id="a_edge23"><a xlink:href="dir_000072_000043.html" target="_top">
<path fill="none" stroke="#63b8ff" d="M125.37,-70.75C122.42,-63.65 118.17,-53.4 114.49,-44.56"/>
<polygon fill="#63b8ff" stroke="#63b8ff" points="117.63,-42.98 110.57,-35.09 111.17,-45.67 117.63,-42.98"/>
</a>
</g>
<g id="a_edge23&#45;headlabel"><a xlink:href="dir_000072_000043.html" target="_top" xlink:title="1">
<text text-anchor="middle" x="121.63" y="-42.71" font-family="FreeSans" font-size="10.00" fill="#63b8ff">1</text>
</a>
</g>
</g>
<!-- dir_a7213113f97575cf4c1220ecd9faa952&#45;&gt;dir_048f7c5b69cb7e1832edab50eaa5c4ea -->
<g id="edge21" class="edge">
<title>dir_a7213113f97575cf4c1220ecd9faa952&#45;&gt;dir_048f7c5b69cb7e1832edab50eaa5c4ea</title>
<g id="a_edge21"><a xlink:href="dir_000072_000068.html" target="_top">
<path fill="none" stroke="#63b8ff" d="M146.66,-71.46C153.02,-68.67 160.29,-65.58 167,-63 200.21,-50.21 211.65,-48.98 244.13,-37.12"/>
<polygon fill="#63b8ff" stroke="#63b8ff" points="245.75,-40.25 253.89,-33.47 243.3,-33.69 245.75,-40.25"/>
</a>
</g>
<g id="a_edge21&#45;headlabel"><a xlink:href="dir_000072_000068.html" target="_top" xlink:title="10">
<text text-anchor="middle" x="243.37" y="-41.67" font-family="FreeSans" font-size="10.00" fill="#63b8ff">10</text>
</a>
</g>
</g>
</g>
</svg>
</svg>

<style type='text/css'>
<![CDATA[
[data-mouse-over-selected='false'] { opacity: 0.7; }
[data-mouse-over-selected='true']  { opacity: 1.0; }
]]>
</style>
<script type="application/ecmascript"><![CDATA[
document.addEventListener('DOMContentLoaded', (event) => {
  highlightEdges();
  highlightAdjacentNodes();
});
]]></script>
</svg>
