<?xml version="1.0" encoding="UTF-8" standalone="no"?>
<!DOCTYPE svg PUBLIC "-//W3C//DTD SVG 1.1//EN"
 "http://www.w3.org/Graphics/SVG/1.1/DTD/svg11.dtd">
<!-- Generated by graphviz version 2.43.0 (0)
 -->
<!-- Title: mpqc/chemistry/qc/lcao/factory Pages: 1 -->
<svg width="653pt" height="196pt"
 viewBox="0.00 0.00 652.50 196.00" xmlns="http://www.w3.org/2000/svg" xmlns:xlink="http://www.w3.org/1999/xlink">
<g id="graph0" class="graph" transform="scale(1 1) rotate(0) translate(4 192)">
<title>mpqc/chemistry/qc/lcao/factory</title>
<g id="clust1" class="cluster">
<title>clusterdir_f442f60972c0f9169917a25cab152b2a</title>
<g id="a_clust1"><a xlink:href="dir_f442f60972c0f9169917a25cab152b2a.html" target="_top" xlink:title="lcao">
<polygon fill="#daedff" stroke="#7f7f7f" stroke-dasharray="5,2" points="102,-8 102,-180 375,-180 375,-8 102,-8"/>
<text text-anchor="middle" x="238.5" y="-168" font-family="FreeSans" font-size="10.00">lcao</text>
</a>
</g>
</g>
<g id="clust2" class="cluster">
<title>clusterdir_26ae4716acfbd12584c5080db53ae013</title>
<g id="a_clust2"><a xlink:href="dir_26ae4716acfbd12584c5080db53ae013.html" target="_top">
<polygon fill="#daedff" stroke="#404040" stroke-width="2" points="211,-63 211,-153 353,-153 353,-63 211,-63"/>
</a>
</g>
</g>
<!-- dir_084478967d5724d8613f7cb2a1dd1c1e -->
<g id="node1" class="node">
<title>dir_084478967d5724d8613f7cb2a1dd1c1e</title>
<g id="a_node1"><a xlink:href="dir_084478967d5724d8613f7cb2a1dd1c1e.html" target="_top" xlink:title="wfn">
<polygon fill="#4ea9ff" stroke="#404040" points="180.5,-90 145.5,-90 145.5,-71 180.5,-71 180.5,-90"/>
<text text-anchor="middle" x="163" y="-78" font-family="FreeSans" font-size="10.00">wfn</text>
</a>
</g>
</g>
<!-- dir_50885d8df49e326e988828eb2c569376 -->
<g id="node2" class="node">
<title>dir_50885d8df49e326e988828eb2c569376</title>
<g id="a_node2"><a xlink:href="dir_50885d8df49e326e988828eb2c569376.html" target="_top" xlink:title="basis">
<polygon fill="#4ea9ff" stroke="red" points="152,-35 110,-35 110,-16 152,-16 152,-35"/>
<text text-anchor="middle" x="131" y="-23" font-family="FreeSans" font-size="10.00">basis</text>
</a>
</g>
</g>
<!-- dir_b3025fc6edd0cbb07d65f3b6940386b4 -->
<g id="node3" class="node">
<title>dir_b3025fc6edd0cbb07d65f3b6940386b4</title>
<g id="a_node3"><a xlink:href="dir_b3025fc6edd0cbb07d65f3b6940386b4.html" target="_top" xlink:title="integrals">
<polygon fill="#4ea9ff" stroke="red" points="229.5,-35 170.5,-35 170.5,-16 229.5,-16 229.5,-35"/>
<text text-anchor="middle" x="200" y="-23" font-family="FreeSans" font-size="10.00">integrals</text>
</a>
</g>
</g>
<!-- dir_ccca7abcd5dfb15bb9fa9e68acbdf5bb -->
<g id="node4" class="node">
<title>dir_ccca7abcd5dfb15bb9fa9e68acbdf5bb</title>
<g id="a_node4"><a xlink:href="dir_ccca7abcd5dfb15bb9fa9e68acbdf5bb.html" target="_top" xlink:title="expression">
<polygon fill="#4ea9ff" stroke="#404040" points="367,-35 297,-35 297,-16 367,-16 367,-35"/>
<text text-anchor="middle" x="332" y="-23" font-family="FreeSans" font-size="10.00">expression</text>
</a>
</g>
</g>
<!-- dir_df3125d2ade78274bdfc2ee26337a54d -->
<g id="node5" class="node">
<title>dir_df3125d2ade78274bdfc2ee26337a54d</title>
<g id="a_node5"><a xlink:href="dir_df3125d2ade78274bdfc2ee26337a54d.html" target="_top" xlink:title="scf">
<polygon fill="#4ea9ff" stroke="red" points="278.5,-35 247.5,-35 247.5,-16 278.5,-16 278.5,-35"/>
<text text-anchor="middle" x="263" y="-23" font-family="FreeSans" font-size="10.00">scf</text>
</a>
</g>
</g>
<!-- dir_26ae4716acfbd12584c5080db53ae013 -->
<g id="node6" class="node">
<title>dir_26ae4716acfbd12584c5080db53ae013</title>
<text text-anchor="middle" x="280" y="-133" font-family="FreeSans" font-size="10.00">factory</text>
</g>
<!-- dir_26ae4716acfbd12584c5080db53ae013&#45;&gt;dir_084478967d5724d8613f7cb2a1dd1c1e -->
<g id="edge4" class="edge">
<title>dir_26ae4716acfbd12584c5080db53ae013&#45;&gt;dir_084478967d5724d8613f7cb2a1dd1c1e</title>
<g id="a_edge4"><a xlink:href="dir_000024_000070.html" target="_top">
<path fill="none" stroke="#63b8ff" d="M261.2,-125.98C241.93,-117.26 211.78,-103.6 189.97,-93.72"/>
<polygon fill="#63b8ff" stroke="#63b8ff" points="191.16,-90.41 180.6,-89.47 188.27,-96.79 191.16,-90.41"/>
</a>
</g>
<g id="a_edge4&#45;headlabel"><a xlink:href="dir_000024_000070.html" target="_top" xlink:title="1">
<text text-anchor="middle" x="195.6" y="-86.81" font-family="FreeSans" font-size="10.00" fill="#63b8ff">1</text>
</a>
</g>
</g>
<!-- dir_26ae4716acfbd12584c5080db53ae013&#45;&gt;dir_50885d8df49e326e988828eb2c569376 -->
<g id="edge5" class="edge">
<title>dir_26ae4716acfbd12584c5080db53ae013&#45;&gt;dir_50885d8df49e326e988828eb2c569376</title>
<g id="a_edge5"><a xlink:href="dir_000024_000000.html" target="_top">
<path fill="none" stroke="#63b8ff" d="M254.44,-134.55C221.64,-133.11 165.59,-125.23 137,-90 127.08,-77.77 126.33,-59.54 127.62,-45.74"/>
<polygon fill="#63b8ff" stroke="#63b8ff" points="131.14,-45.81 129.03,-35.43 124.21,-44.86 131.14,-45.81"/>
</a>
</g>
<g id="a_edge5&#45;headlabel"><a xlink:href="dir_000024_000000.html" target="_top" xlink:title="19">
<text text-anchor="middle" x="133.47" y="-47.26" font-family="FreeSans" font-size="10.00" fill="#63b8ff">19</text>
</a>
</g>
</g>
<!-- dir_26ae4716acfbd12584c5080db53ae013&#45;&gt;dir_b3025fc6edd0cbb07d65f3b6940386b4 -->
<g id="edge9" class="edge">
<title>dir_26ae4716acfbd12584c5080db53ae013&#45;&gt;dir_b3025fc6edd0cbb07d65f3b6940386b4</title>
<g id="a_edge9"><a xlink:href="dir_000024_000030.html" target="_top">
<path fill="none" stroke="#63b8ff" d="M257.78,-125.93C242.18,-118.72 222.17,-106.88 211,-90 202.22,-76.73 199.8,-58.62 199.38,-45.13"/>
<polygon fill="#63b8ff" stroke="#63b8ff" points="202.88,-45.1 199.41,-35.09 195.88,-45.08 202.88,-45.1"/>
</a>
</g>
<g id="a_edge9&#45;headlabel"><a xlink:href="dir_000024_000030.html" target="_top" xlink:title="29">
<text text-anchor="middle" x="205.71" y="-46.2" font-family="FreeSans" font-size="10.00" fill="#63b8ff">29</text>
</a>
</g>
</g>
<!-- dir_26ae4716acfbd12584c5080db53ae013&#45;&gt;dir_ccca7abcd5dfb15bb9fa9e68acbdf5bb -->
<g id="edge11" class="edge">
<title>dir_26ae4716acfbd12584c5080db53ae013&#45;&gt;dir_ccca7abcd5dfb15bb9fa9e68acbdf5bb</title>
<g id="a_edge11"><a xlink:href="dir_000024_000019.html" target="_top">
<path fill="none" stroke="#63b8ff" d="M305.81,-126.48C322.81,-119.7 343.74,-108.14 354,-90 362.4,-75.15 354.02,-56.54 345.29,-43.32"/>
<polygon fill="#63b8ff" stroke="#63b8ff" points="348.08,-41.2 339.4,-35.13 342.41,-45.29 348.08,-41.2"/>
</a>
</g>
<g id="a_edge11&#45;headlabel"><a xlink:href="dir_000024_000019.html" target="_top" xlink:title="23">
<text text-anchor="middle" x="352.49" y="-39.96" font-family="FreeSans" font-size="10.00" fill="#63b8ff">23</text>
</a>
</g>
</g>
<!-- dir_c847bef7ec4c27743bf259a287b994bb -->
<g id="node7" class="node">
<title>dir_c847bef7ec4c27743bf259a287b994bb</title>
<g id="a_node7"><a xlink:href="dir_c847bef7ec4c27743bf259a287b994bb.html" target="_top" xlink:title="gaussian">
<polygon fill="#4ea9ff" stroke="#404040" points="345,-90 285,-90 285,-71 345,-71 345,-90"/>
<text text-anchor="middle" x="315" y="-78" font-family="FreeSans" font-size="10.00">gaussian</text>
</a>
</g>
</g>
<!-- dir_26ae4716acfbd12584c5080db53ae013&#45;&gt;dir_c847bef7ec4c27743bf259a287b994bb -->
<g id="edge10" class="edge">
<title>dir_26ae4716acfbd12584c5080db53ae013&#45;&gt;dir_c847bef7ec4c27743bf259a287b994bb</title>
<g id="a_edge10"><a xlink:href="dir_000024_000028.html" target="_top">
<path fill="none" stroke="#63b8ff" d="M285.78,-125.75C290.62,-118.42 297.68,-107.73 303.64,-98.7"/>
<polygon fill="#63b8ff" stroke="#63b8ff" points="306.74,-100.36 309.33,-90.09 300.9,-96.5 306.74,-100.36"/>
</a>
</g>
<g id="a_edge10&#45;headlabel"><a xlink:href="dir_000024_000028.html" target="_top" xlink:title="8">
<text text-anchor="middle" x="307.13" y="-102.43" font-family="FreeSans" font-size="10.00" fill="#63b8ff">8</text>
</a>
</g>
</g>
<!-- dir_5274b656e9b81a4219272fcff4780738 -->
<g id="node8" class="node">
<title>dir_5274b656e9b81a4219272fcff4780738</title>
<g id="a_node8"><a xlink:href="dir_5274b656e9b81a4219272fcff4780738.html" target="_top" xlink:title="model">
<polygon fill="#4ea9ff" stroke="#404040" points="266.5,-90 219.5,-90 219.5,-71 266.5,-71 266.5,-90"/>
<text text-anchor="middle" x="243" y="-78" font-family="FreeSans" font-size="10.00">model</text>
</a>
</g>
</g>
<!-- dir_26ae4716acfbd12584c5080db53ae013&#45;&gt;dir_5274b656e9b81a4219272fcff4780738 -->
<g id="edge6" class="edge">
<title>dir_26ae4716acfbd12584c5080db53ae013&#45;&gt;dir_5274b656e9b81a4219272fcff4780738</title>
<g id="a_edge6"><a xlink:href="dir_000024_000042.html" target="_top">
<path fill="none" stroke="#63b8ff" d="M273.89,-125.75C268.72,-118.34 261.15,-107.5 254.81,-98.41"/>
<polygon fill="#63b8ff" stroke="#63b8ff" points="257.59,-96.29 249,-90.09 251.85,-100.29 257.59,-96.29"/>
</a>
</g>
<g id="a_edge6&#45;headlabel"><a xlink:href="dir_000024_000042.html" target="_top" xlink:title="3">
<text text-anchor="middle" x="261.98" y="-95.11" font-family="FreeSans" font-size="10.00" fill="#63b8ff">3</text>
</a>
</g>
</g>
<!-- dir_048f7c5b69cb7e1832edab50eaa5c4ea -->
<g id="node9" class="node">
<title>dir_048f7c5b69cb7e1832edab50eaa5c4ea</title>
<g id="a_node9"><a xlink:href="dir_048f7c5b69cb7e1832edab50eaa5c4ea.html" target="_top" xlink:title="util">
<polygon fill="#daedff" stroke="red" stroke-dasharray="5,2" points="32,-35 0,-35 0,-16 32,-16 32,-35"/>
<text text-anchor="middle" x="16" y="-23" font-family="FreeSans" font-size="10.00">util</text>
</a>
</g>
</g>
<!-- dir_26ae4716acfbd12584c5080db53ae013&#45;&gt;dir_048f7c5b69cb7e1832edab50eaa5c4ea -->
<g id="edge1" class="edge">
<title>dir_26ae4716acfbd12584c5080db53ae013&#45;&gt;dir_048f7c5b69cb7e1832edab50eaa5c4ea</title>
<g id="a_edge1"><a xlink:href="dir_000024_000068.html" target="_top">
<path fill="none" stroke="#63b8ff" d="M254.28,-133.6C214.02,-131.19 134.76,-122.36 77,-90 56.46,-78.49 38.55,-57.84 27.55,-43.22"/>
<polygon fill="#63b8ff" stroke="#63b8ff" points="30.32,-41.08 21.62,-35.03 24.65,-45.18 30.32,-41.08"/>
</a>
</g>
<g id="a_edge1&#45;headlabel"><a xlink:href="dir_000024_000068.html" target="_top" xlink:title="36">
<text text-anchor="middle" x="34.73" y="-39.83" font-family="FreeSans" font-size="10.00" fill="#63b8ff">36</text>
</a>
</g>
</g>
<!-- dir_05301f9ba83e223c2c24bb4e5a915266 -->
<g id="node10" class="node">
<title>dir_05301f9ba83e223c2c24bb4e5a915266</title>
<g id="a_node10"><a xlink:href="dir_05301f9ba83e223c2c24bb4e5a915266.html" target="_top" xlink:title="math">
<polygon fill="#daedff" stroke="red" stroke-dasharray="5,2" points="92,-35 50,-35 50,-16 92,-16 92,-35"/>
<text text-anchor="middle" x="71" y="-23" font-family="FreeSans" font-size="10.00">math</text>
</a>
</g>
</g>
<!-- dir_26ae4716acfbd12584c5080db53ae013&#45;&gt;dir_05301f9ba83e223c2c24bb4e5a915266 -->
<g id="edge2" class="edge">
<title>dir_26ae4716acfbd12584c5080db53ae013&#45;&gt;dir_05301f9ba83e223c2c24bb4e5a915266</title>
<g id="a_edge2"><a xlink:href="dir_000024_000037.html" target="_top">
<path fill="none" stroke="#63b8ff" d="M254.48,-135.1C216.07,-134.65 143.12,-128.33 98,-90 84.75,-78.74 77.84,-59.83 74.35,-45.56"/>
<polygon fill="#63b8ff" stroke="#63b8ff" points="77.69,-44.43 72.22,-35.36 70.83,-45.86 77.69,-44.43"/>
</a>
</g>
<g id="a_edge2&#45;headlabel"><a xlink:href="dir_000024_000037.html" target="_top" xlink:title="25">
<text text-anchor="middle" x="81.2" y="-44.87" font-family="FreeSans" font-size="10.00" fill="#63b8ff">25</text>
</a>
</g>
</g>
<!-- dir_072b070bc725d6a2db76c22b2c6e8476 -->
<g id="node11" class="node">
<title>dir_072b070bc725d6a2db76c22b2c6e8476</title>
<g id="a_node11"><a xlink:href="dir_072b070bc725d6a2db76c22b2c6e8476.html" target="_top" xlink:title="units">
<polygon fill="#daedff" stroke="#7f7f7f" points="510.5,-35 469.5,-35 469.5,-16 510.5,-16 510.5,-35"/>
<text text-anchor="middle" x="490" y="-23" font-family="FreeSans" font-size="10.00">units</text>
</a>
</g>
</g>
<!-- dir_26ae4716acfbd12584c5080db53ae013&#45;&gt;dir_072b070bc725d6a2db76c22b2c6e8476 -->
<g id="edge3" class="edge">
<title>dir_26ae4716acfbd12584c5080db53ae013&#45;&gt;dir_072b070bc725d6a2db76c22b2c6e8476</title>
<g id="a_edge3"><a xlink:href="dir_000024_000066.html" target="_top">
<path fill="none" stroke="#63b8ff" d="M305.86,-127.48C331.39,-120.02 371.12,-106.96 403,-90 428.73,-76.32 455.37,-55.76 472.28,-41.77"/>
<polygon fill="#63b8ff" stroke="#63b8ff" points="474.78,-44.24 480.18,-35.13 470.28,-38.89 474.78,-44.24"/>
</a>
</g>
<g id="a_edge3&#45;headlabel"><a xlink:href="dir_000024_000066.html" target="_top" xlink:title="3">
<text text-anchor="middle" x="473.86" y="-46.23" font-family="FreeSans" font-size="10.00" fill="#63b8ff">3</text>
</a>
</g>
</g>
<!-- dir_79e09b370f6f9aca9214ea225a19a126 -->
<g id="node12" class="node">
<title>dir_79e09b370f6f9aca9214ea225a19a126</title>
<g id="a_node12"><a xlink:href="dir_79e09b370f6f9aca9214ea225a19a126.html" target="_top" xlink:title="molecule">
<polygon fill="#daedff" stroke="red" stroke-dasharray="5,2" points="591,-35 529,-35 529,-16 591,-16 591,-35"/>
<text text-anchor="middle" x="560" y="-23" font-family="FreeSans" font-size="10.00">molecule</text>
</a>
</g>
</g>
<!-- dir_26ae4716acfbd12584c5080db53ae013&#45;&gt;dir_79e09b370f6f9aca9214ea225a19a126 -->
<g id="edge7" class="edge">
<title>dir_26ae4716acfbd12584c5080db53ae013&#45;&gt;dir_79e09b370f6f9aca9214ea225a19a126</title>
<g id="a_edge7"><a xlink:href="dir_000024_000043.html" target="_top">
<path fill="none" stroke="#63b8ff" d="M305.63,-128.82C336.96,-121.5 391.33,-107.61 436,-90 472.35,-75.67 512.2,-54.14 536.66,-40.2"/>
<polygon fill="#63b8ff" stroke="#63b8ff" points="538.63,-43.11 545.55,-35.09 535.13,-37.04 538.63,-43.11"/>
</a>
</g>
<g id="a_edge7&#45;headlabel"><a xlink:href="dir_000024_000043.html" target="_top" xlink:title="18">
<text text-anchor="middle" x="536.93" y="-44.86" font-family="FreeSans" font-size="10.00" fill="#63b8ff">18</text>
</a>
</g>
</g>
<!-- dir_a7213113f97575cf4c1220ecd9faa952 -->
<g id="node13" class="node">
<title>dir_a7213113f97575cf4c1220ecd9faa952</title>
<g id="a_node13"><a xlink:href="dir_a7213113f97575cf4c1220ecd9faa952.html" target="_top" xlink:title="wfn">
<polygon fill="#daedff" stroke="#7f7f7f" points="644.5,-35 609.5,-35 609.5,-16 644.5,-16 644.5,-35"/>
<text text-anchor="middle" x="627" y="-23" font-family="FreeSans" font-size="10.00">wfn</text>
</a>
</g>
</g>
<!-- dir_26ae4716acfbd12584c5080db53ae013&#45;&gt;dir_a7213113f97575cf4c1220ecd9faa952 -->
<g id="edge8" class="edge">
<title>dir_26ae4716acfbd12584c5080db53ae013&#45;&gt;dir_a7213113f97575cf4c1220ecd9faa952</title>
<g id="a_edge8"><a xlink:href="dir_000024_000072.html" target="_top">
<path fill="none" stroke="#63b8ff" d="M305.58,-130.23C343.53,-123.56 416.75,-109.39 477,-90 521.26,-75.76 570.54,-53.62 600.14,-39.6"/>
<polygon fill="#63b8ff" stroke="#63b8ff" points="601.87,-42.65 609.38,-35.18 598.85,-36.33 601.87,-42.65"/>
</a>
</g>
<g id="a_edge8&#45;headlabel"><a xlink:href="dir_000024_000072.html" target="_top" xlink:title="7">
<text text-anchor="middle" x="599.85" y="-44.26" font-family="FreeSans" font-size="10.00" fill="#63b8ff">7</text>
</a>
</g>
</g>
<!-- dir_dfad333b26ae1d260f0bd4d9efde2293 -->
<g id="node14" class="node">
<title>dir_dfad333b26ae1d260f0bd4d9efde2293</title>
<g id="a_node14"><a xlink:href="dir_dfad333b26ae1d260f0bd4d9efde2293.html" target="_top" xlink:title="properties">
<polygon fill="#daedff" stroke="#7f7f7f" points="451,-35 385,-35 385,-16 451,-16 451,-35"/>
<text text-anchor="middle" x="418" y="-23" font-family="FreeSans" font-size="10.00">properties</text>
</a>
</g>
</g>
<!-- dir_26ae4716acfbd12584c5080db53ae013&#45;&gt;dir_dfad333b26ae1d260f0bd4d9efde2293 -->
<g id="edge12" class="edge">
<title>dir_26ae4716acfbd12584c5080db53ae013&#45;&gt;dir_dfad333b26ae1d260f0bd4d9efde2293</title>
<g id="a_edge12"><a xlink:href="dir_000024_000051.html" target="_top">
<path fill="none" stroke="#63b8ff" d="M305.52,-127.66C327.03,-120.89 357.63,-108.79 379,-90 393.25,-77.47 403.97,-58.47 410.53,-44.51"/>
<polygon fill="#63b8ff" stroke="#63b8ff" points="413.88,-45.57 414.72,-35.01 407.48,-42.75 413.88,-45.57"/>
</a>
</g>
<g id="a_edge12&#45;headlabel"><a xlink:href="dir_000024_000051.html" target="_top" xlink:title="4">
<text text-anchor="middle" x="415.03" y="-47.51" font-family="FreeSans" font-size="10.00" fill="#63b8ff">4</text>
</a>
</g>
</g>
<!-- dir_c847bef7ec4c27743bf259a287b994bb&#45;&gt;dir_50885d8df49e326e988828eb2c569376 -->
<g id="edge16" class="edge">
<title>dir_c847bef7ec4c27743bf259a287b994bb&#45;&gt;dir_50885d8df49e326e988828eb2c569376</title>
<g id="a_edge16"><a xlink:href="dir_000028_000000.html" target="_top">
<path fill="none" stroke="#63b8ff" d="M296.58,-71C290.16,-68.22 282.84,-65.27 276,-63 226.48,-46.56 212.5,-48.12 162,-35 161.9,-34.97 161.8,-34.95 161.71,-34.92"/>
<polygon fill="#63b8ff" stroke="#63b8ff" points="162.89,-31.62 152.33,-32.43 161.09,-38.38 162.89,-31.62"/>
</a>
</g>
<g id="a_edge16&#45;headlabel"><a xlink:href="dir_000028_000000.html" target="_top" xlink:title="10">
<text text-anchor="middle" x="167.09" y="-27.3" font-family="FreeSans" font-size="10.00" fill="#63b8ff">10</text>
</a>
</g>
</g>
<!-- dir_c847bef7ec4c27743bf259a287b994bb&#45;&gt;dir_b3025fc6edd0cbb07d65f3b6940386b4 -->
<g id="edge19" class="edge">
<title>dir_c847bef7ec4c27743bf259a287b994bb&#45;&gt;dir_b3025fc6edd0cbb07d65f3b6940386b4</title>
<g id="a_edge19"><a xlink:href="dir_000028_000030.html" target="_top">
<path fill="none" stroke="#63b8ff" d="M296.52,-70.98C278.02,-62.46 249.32,-49.23 228.02,-39.41"/>
<polygon fill="#63b8ff" stroke="#63b8ff" points="229.36,-36.18 218.81,-35.17 226.43,-42.53 229.36,-36.18"/>
</a>
</g>
<g id="a_edge19&#45;headlabel"><a xlink:href="dir_000028_000030.html" target="_top" xlink:title="18">
<text text-anchor="middle" x="233.81" y="-32.6" font-family="FreeSans" font-size="10.00" fill="#63b8ff">18</text>
</a>
</g>
</g>
<!-- dir_c847bef7ec4c27743bf259a287b994bb&#45;&gt;dir_ccca7abcd5dfb15bb9fa9e68acbdf5bb -->
<g id="edge20" class="edge">
<title>dir_c847bef7ec4c27743bf259a287b994bb&#45;&gt;dir_ccca7abcd5dfb15bb9fa9e68acbdf5bb</title>
<g id="a_edge20"><a xlink:href="dir_000028_000019.html" target="_top">
<path fill="none" stroke="#63b8ff" d="M317.81,-70.75C320.06,-63.72 323.3,-53.62 326.12,-44.84"/>
<polygon fill="#63b8ff" stroke="#63b8ff" points="329.52,-45.68 329.25,-35.09 322.86,-43.54 329.52,-45.68"/>
</a>
</g>
<g id="a_edge20&#45;headlabel"><a xlink:href="dir_000028_000019.html" target="_top" xlink:title="7">
<text text-anchor="middle" x="331.13" y="-47.47" font-family="FreeSans" font-size="10.00" fill="#63b8ff">7</text>
</a>
</g>
</g>
<!-- dir_c847bef7ec4c27743bf259a287b994bb&#45;&gt;dir_df3125d2ade78274bdfc2ee26337a54d -->
<g id="edge21" class="edge">
<title>dir_c847bef7ec4c27743bf259a287b994bb&#45;&gt;dir_df3125d2ade78274bdfc2ee26337a54d</title>
<g id="a_edge21"><a xlink:href="dir_000028_000057.html" target="_top">
<path fill="none" stroke="#63b8ff" d="M306.41,-70.75C298.84,-63.03 287.62,-51.6 278.49,-42.28"/>
<polygon fill="#63b8ff" stroke="#63b8ff" points="280.93,-39.78 271.43,-35.09 275.93,-44.68 280.93,-39.78"/>
</a>
</g>
<g id="a_edge21&#45;headlabel"><a xlink:href="dir_000028_000057.html" target="_top" xlink:title="1">
<text text-anchor="middle" x="285.47" y="-37.85" font-family="FreeSans" font-size="10.00" fill="#63b8ff">1</text>
</a>
</g>
</g>
<!-- dir_c847bef7ec4c27743bf259a287b994bb&#45;&gt;dir_048f7c5b69cb7e1832edab50eaa5c4ea -->
<g id="edge13" class="edge">
<title>dir_c847bef7ec4c27743bf259a287b994bb&#45;&gt;dir_048f7c5b69cb7e1832edab50eaa5c4ea</title>
<g id="a_edge13"><a xlink:href="dir_000028_000068.html" target="_top">
<path fill="none" stroke="#63b8ff" d="M297.51,-70.86C290.91,-67.93 283.25,-64.92 276,-63 177.41,-36.84 145.5,-56.98 42.16,-34.78"/>
<polygon fill="#63b8ff" stroke="#63b8ff" points="42.79,-31.34 32.27,-32.58 41.26,-38.17 42.79,-31.34"/>
</a>
</g>
<g id="a_edge13&#45;headlabel"><a xlink:href="dir_000028_000068.html" target="_top" xlink:title="14">
<text text-anchor="middle" x="46.91" y="-26.85" font-family="FreeSans" font-size="10.00" fill="#63b8ff">14</text>
</a>
</g>
</g>
<!-- dir_c847bef7ec4c27743bf259a287b994bb&#45;&gt;dir_05301f9ba83e223c2c24bb4e5a915266 -->
<g id="edge14" class="edge">
<title>dir_c847bef7ec4c27743bf259a287b994bb&#45;&gt;dir_05301f9ba83e223c2c24bb4e5a915266</title>
<g id="a_edge14"><a xlink:href="dir_000028_000037.html" target="_top">
<path fill="none" stroke="#63b8ff" d="M297.08,-70.83C290.57,-67.98 283.07,-65.02 276,-63 202.15,-41.91 177.95,-52.35 102.16,-35.76"/>
<polygon fill="#63b8ff" stroke="#63b8ff" points="102.67,-32.29 92.14,-33.48 101.11,-39.12 102.67,-32.29"/>
</a>
</g>
<g id="a_edge14&#45;headlabel"><a xlink:href="dir_000028_000037.html" target="_top" xlink:title="12">
<text text-anchor="middle" x="106.8" y="-27.82" font-family="FreeSans" font-size="10.00" fill="#63b8ff">12</text>
</a>
</g>
</g>
<!-- dir_c847bef7ec4c27743bf259a287b994bb&#45;&gt;dir_072b070bc725d6a2db76c22b2c6e8476 -->
<g id="edge15" class="edge">
<title>dir_c847bef7ec4c27743bf259a287b994bb&#45;&gt;dir_072b070bc725d6a2db76c22b2c6e8476</title>
<g id="a_edge15"><a xlink:href="dir_000028_000066.html" target="_top">
<path fill="none" stroke="#63b8ff" d="M343.12,-70.98C374.94,-61.35 426.6,-45.7 459.41,-35.76"/>
<polygon fill="#63b8ff" stroke="#63b8ff" points="460.79,-39 469.35,-32.75 458.76,-32.3 460.79,-39"/>
</a>
</g>
<g id="a_edge15&#45;headlabel"><a xlink:href="dir_000028_000066.html" target="_top" xlink:title="2">
<text text-anchor="middle" x="458.18" y="-40.26" font-family="FreeSans" font-size="10.00" fill="#63b8ff">2</text>
</a>
</g>
</g>
<!-- dir_c847bef7ec4c27743bf259a287b994bb&#45;&gt;dir_79e09b370f6f9aca9214ea225a19a126 -->
<g id="edge17" class="edge">
<title>dir_c847bef7ec4c27743bf259a287b994bb&#45;&gt;dir_79e09b370f6f9aca9214ea225a19a126</title>
<g id="a_edge17"><a xlink:href="dir_000028_000043.html" target="_top">
<path fill="none" stroke="#63b8ff" d="M345.04,-73C388.7,-63.56 469.83,-46.01 518.96,-35.38"/>
<polygon fill="#63b8ff" stroke="#63b8ff" points="519.91,-38.75 528.94,-33.22 518.43,-31.91 519.91,-38.75"/>
</a>
</g>
<g id="a_edge17&#45;headlabel"><a xlink:href="dir_000028_000043.html" target="_top" xlink:title="7">
<text text-anchor="middle" x="516.99" y="-39.79" font-family="FreeSans" font-size="10.00" fill="#63b8ff">7</text>
</a>
</g>
</g>
<!-- dir_c847bef7ec4c27743bf259a287b994bb&#45;&gt;dir_a7213113f97575cf4c1220ecd9faa952 -->
<g id="edge18" class="edge">
<title>dir_c847bef7ec4c27743bf259a287b994bb&#45;&gt;dir_a7213113f97575cf4c1220ecd9faa952</title>
<g id="a_edge18"><a xlink:href="dir_000028_000072.html" target="_top">
<path fill="none" stroke="#63b8ff" d="M345.24,-76.29C395.91,-70.59 501.25,-57.35 599.59,-34.75"/>
<polygon fill="#63b8ff" stroke="#63b8ff" points="600.44,-38.15 609.39,-32.46 598.85,-31.33 600.44,-38.15"/>
</a>
</g>
<g id="a_edge18&#45;headlabel"><a xlink:href="dir_000028_000072.html" target="_top" xlink:title="3">
<text text-anchor="middle" x="597.59" y="-39.23" font-family="FreeSans" font-size="10.00" fill="#63b8ff">3</text>
</a>
</g>
</g>
<!-- dir_c847bef7ec4c27743bf259a287b994bb&#45;&gt;dir_dfad333b26ae1d260f0bd4d9efde2293 -->
<g id="edge22" class="edge">
<title>dir_c847bef7ec4c27743bf259a287b994bb&#45;&gt;dir_dfad333b26ae1d260f0bd4d9efde2293</title>
<g id="a_edge22"><a xlink:href="dir_000028_000051.html" target="_top">
<path fill="none" stroke="#63b8ff" d="M331.55,-70.98C347.89,-62.57 373.13,-49.59 392.13,-39.81"/>
<polygon fill="#63b8ff" stroke="#63b8ff" points="393.86,-42.86 401.15,-35.17 390.66,-36.63 393.86,-42.86"/>
</a>
</g>
<g id="a_edge22&#45;headlabel"><a xlink:href="dir_000028_000051.html" target="_top" xlink:title="1">
<text text-anchor="middle" x="391.96" y="-44.53" font-family="FreeSans" font-size="10.00" fill="#63b8ff">1</text>
</a>
</g>
</g>
<!-- dir_5274b656e9b81a4219272fcff4780738&#45;&gt;dir_50885d8df49e326e988828eb2c569376 -->
<g id="edge25" class="edge">
<title>dir_5274b656e9b81a4219272fcff4780738&#45;&gt;dir_50885d8df49e326e988828eb2c569376</title>
<g id="a_edge25"><a xlink:href="dir_000042_000000.html" target="_top">
<path fill="none" stroke="#63b8ff" d="M229.76,-70.89C225.45,-68.23 220.59,-65.37 216,-63 198.51,-53.96 178.29,-45.21 161.95,-38.55"/>
<polygon fill="#63b8ff" stroke="#63b8ff" points="162.93,-35.17 152.35,-34.68 160.32,-41.66 162.93,-35.17"/>
</a>
</g>
<g id="a_edge25&#45;headlabel"><a xlink:href="dir_000042_000000.html" target="_top" xlink:title="1">
<text text-anchor="middle" x="167.32" y="-31.37" font-family="FreeSans" font-size="10.00" fill="#63b8ff">1</text>
</a>
</g>
</g>
<!-- dir_5274b656e9b81a4219272fcff4780738&#45;&gt;dir_b3025fc6edd0cbb07d65f3b6940386b4 -->
<g id="edge26" class="edge">
<title>dir_5274b656e9b81a4219272fcff4780738&#45;&gt;dir_b3025fc6edd0cbb07d65f3b6940386b4</title>
<g id="a_edge26"><a xlink:href="dir_000042_000030.html" target="_top">
<path fill="none" stroke="#63b8ff" d="M235.9,-70.75C229.83,-63.26 220.91,-52.28 213.49,-43.13"/>
<polygon fill="#63b8ff" stroke="#63b8ff" points="215.99,-40.65 206.97,-35.09 210.55,-45.06 215.99,-40.65"/>
</a>
</g>
<g id="a_edge26&#45;headlabel"><a xlink:href="dir_000042_000030.html" target="_top" xlink:title="2">
<text text-anchor="middle" x="220.46" y="-39.15" font-family="FreeSans" font-size="10.00" fill="#63b8ff">2</text>
</a>
</g>
</g>
<!-- dir_5274b656e9b81a4219272fcff4780738&#45;&gt;dir_ccca7abcd5dfb15bb9fa9e68acbdf5bb -->
<g id="edge27" class="edge">
<title>dir_5274b656e9b81a4219272fcff4780738&#45;&gt;dir_ccca7abcd5dfb15bb9fa9e68acbdf5bb</title>
<g id="a_edge27"><a xlink:href="dir_000042_000019.html" target="_top">
<path fill="none" stroke="#63b8ff" d="M257.3,-70.98C271.1,-62.77 292.24,-50.18 308.51,-40.49"/>
<polygon fill="#63b8ff" stroke="#63b8ff" points="310.64,-43.29 317.44,-35.17 307.06,-37.28 310.64,-43.29"/>
</a>
</g>
<g id="a_edge27&#45;headlabel"><a xlink:href="dir_000042_000019.html" target="_top" xlink:title="2">
<text text-anchor="middle" x="309" y="-45.07" font-family="FreeSans" font-size="10.00" fill="#63b8ff">2</text>
</a>
</g>
</g>
<!-- dir_5274b656e9b81a4219272fcff4780738&#45;&gt;dir_048f7c5b69cb7e1832edab50eaa5c4ea -->
<g id="edge23" class="edge">
<title>dir_5274b656e9b81a4219272fcff4780738&#45;&gt;dir_048f7c5b69cb7e1832edab50eaa5c4ea</title>
<g id="a_edge23"><a xlink:href="dir_000042_000068.html" target="_top">
<path fill="none" stroke="#63b8ff" d="M231.15,-70.88C226.61,-67.95 221.26,-64.94 216,-63 144.99,-36.79 119.45,-52.61 41.76,-34.74"/>
<polygon fill="#63b8ff" stroke="#63b8ff" points="42.56,-31.34 32.02,-32.39 40.92,-38.14 42.56,-31.34"/>
</a>
</g>
<g id="a_edge23&#45;headlabel"><a xlink:href="dir_000042_000068.html" target="_top" xlink:title="2">
<text text-anchor="middle" x="46.72" y="-26.92" font-family="FreeSans" font-size="10.00" fill="#63b8ff">2</text>
</a>
</g>
</g>
<!-- dir_5274b656e9b81a4219272fcff4780738&#45;&gt;dir_05301f9ba83e223c2c24bb4e5a915266 -->
<g id="edge24" class="edge">
<title>dir_5274b656e9b81a4219272fcff4780738&#45;&gt;dir_05301f9ba83e223c2c24bb4e5a915266</title>
<g id="a_edge24"><a xlink:href="dir_000042_000037.html" target="_top">
<path fill="none" stroke="#63b8ff" d="M230.8,-70.92C226.31,-68.07 221.08,-65.09 216,-63 169.08,-43.67 151.98,-48.62 101.92,-35.91"/>
<polygon fill="#63b8ff" stroke="#63b8ff" points="102.74,-32.51 92.18,-33.33 100.95,-39.28 102.74,-32.51"/>
</a>
</g>
<g id="a_edge24&#45;headlabel"><a xlink:href="dir_000042_000037.html" target="_top" xlink:title="1">
<text text-anchor="middle" x="106.95" y="-28.19" font-family="FreeSans" font-size="10.00" fill="#63b8ff">1</text>
</a>
</g>
</g>
<!-- dir_5274b656e9b81a4219272fcff4780738&#45;&gt;dir_dfad333b26ae1d260f0bd4d9efde2293 -->
<g id="edge28" class="edge">
<title>dir_5274b656e9b81a4219272fcff4780738&#45;&gt;dir_dfad333b26ae1d260f0bd4d9efde2293</title>
<g id="a_edge28"><a xlink:href="dir_000042_000051.html" target="_top">
<path fill="none" stroke="#63b8ff" d="M258.47,-70.91C263.91,-68.13 270.12,-65.2 276,-63 293.96,-56.29 339.95,-44.84 374.76,-36.55"/>
<polygon fill="#63b8ff" stroke="#63b8ff" points="375.78,-39.9 384.71,-34.2 374.17,-33.09 375.78,-39.9"/>
</a>
</g>
<g id="a_edge28&#45;headlabel"><a xlink:href="dir_000042_000051.html" target="_top" xlink:title="2">
<text text-anchor="middle" x="372.94" y="-41" font-family="FreeSans" font-size="10.00" fill="#63b8ff">2</text>
</a>
</g>
</g>
</g>
</svg>
