<?xml version="1.0" encoding="UTF-8" standalone="no"?>
<!DOCTYPE svg PUBLIC "-//W3C//DTD SVG 1.1//EN"
 "http://www.w3.org/Graphics/SVG/1.1/DTD/svg11.dtd">
<!-- Generated by graphviz version 2.43.0 (0)
 -->
<!-- Title: mpqc/chemistry/qc/lcao/external Pages: 1 -->
<svg width="295pt" height="141pt"
 viewBox="0.00 0.00 295.00 141.00" xmlns="http://www.w3.org/2000/svg" xmlns:xlink="http://www.w3.org/1999/xlink">
<g id="graph0" class="graph" transform="scale(1 1) rotate(0) translate(4 137)">
<title>mpqc/chemistry/qc/lcao/external</title>
<g id="clust1" class="cluster">
<title>clusterdir_f442f60972c0f9169917a25cab152b2a</title>
<g id="a_clust1"><a xlink:href="dir_f442f60972c0f9169917a25cab152b2a.html" target="_top" xlink:title="lcao">
<polygon fill="#daedff" stroke="#7f7f7f" stroke-dasharray="5,2" points="8,-8 8,-125 185,-125 185,-8 8,-8"/>
<text text-anchor="middle" x="96.5" y="-113" font-family="FreeSans" font-size="10.00">lcao</text>
</a>
</g>
</g>
<g id="clust2" class="cluster">
<title>clusterdir_c118af5b70dd510ddfb5d0eff77b4cfc</title>
<g id="a_clust2"><a xlink:href="dir_c118af5b70dd510ddfb5d0eff77b4cfc.html" target="_top">
<polygon fill="#daedff" stroke="#404040" stroke-width="2" points="38,-63 38,-98 177,-98 177,-63 38,-63"/>
</a>
</g>
</g>
<!-- dir_50885d8df49e326e988828eb2c569376 -->
<g id="node1" class="node">
<title>dir_50885d8df49e326e988828eb2c569376</title>
<g id="a_node1"><a xlink:href="dir_50885d8df49e326e988828eb2c569376.html" target="_top" xlink:title="basis">
<polygon fill="#4ea9ff" stroke="red" points="58,-35 16,-35 16,-16 58,-16 58,-35"/>
<text text-anchor="middle" x="37" y="-23" font-family="FreeSans" font-size="10.00">basis</text>
</a>
</g>
</g>
<!-- dir_26ae4716acfbd12584c5080db53ae013 -->
<g id="node2" class="node">
<title>dir_26ae4716acfbd12584c5080db53ae013</title>
<g id="a_node2"><a xlink:href="dir_26ae4716acfbd12584c5080db53ae013.html" target="_top" xlink:title="factory">
<polygon fill="#4ea9ff" stroke="red" points="127.5,-35 76.5,-35 76.5,-16 127.5,-16 127.5,-35"/>
<text text-anchor="middle" x="102" y="-23" font-family="FreeSans" font-size="10.00">factory</text>
</a>
</g>
</g>
<!-- dir_df3125d2ade78274bdfc2ee26337a54d -->
<g id="node3" class="node">
<title>dir_df3125d2ade78274bdfc2ee26337a54d</title>
<g id="a_node3"><a xlink:href="dir_df3125d2ade78274bdfc2ee26337a54d.html" target="_top" xlink:title="scf">
<polygon fill="#4ea9ff" stroke="red" points="176.5,-35 145.5,-35 145.5,-16 176.5,-16 176.5,-35"/>
<text text-anchor="middle" x="161" y="-23" font-family="FreeSans" font-size="10.00">scf</text>
</a>
</g>
</g>
<!-- dir_c118af5b70dd510ddfb5d0eff77b4cfc -->
<g id="node4" class="node">
<title>dir_c118af5b70dd510ddfb5d0eff77b4cfc</title>
<text text-anchor="middle" x="140" y="-78" font-family="FreeSans" font-size="10.00">external</text>
</g>
<!-- dir_8de9eef9346e623a77a99ec4c989c57d -->
<g id="node5" class="node">
<title>dir_8de9eef9346e623a77a99ec4c989c57d</title>
<g id="a_node5"><a xlink:href="dir_8de9eef9346e623a77a99ec4c989c57d.html" target="_top" xlink:title="libintx">
<polygon fill="#4ea9ff" stroke="#404040" points="93.5,-90 46.5,-90 46.5,-71 93.5,-71 93.5,-90"/>
<text text-anchor="middle" x="70" y="-78" font-family="FreeSans" font-size="10.00">libintx</text>
</a>
</g>
</g>
<!-- dir_8de9eef9346e623a77a99ec4c989c57d&#45;&gt;dir_50885d8df49e326e988828eb2c569376 -->
<g id="edge4" class="edge">
<title>dir_8de9eef9346e623a77a99ec4c989c57d&#45;&gt;dir_50885d8df49e326e988828eb2c569376</title>
<g id="a_edge4"><a xlink:href="dir_000034_000000.html" target="_top">
<path fill="none" stroke="#63b8ff" d="M64.55,-70.75C59.99,-63.42 53.33,-52.73 47.71,-43.7"/>
<polygon fill="#63b8ff" stroke="#63b8ff" points="50.6,-41.73 42.35,-35.09 44.66,-45.43 50.6,-41.73"/>
</a>
</g>
<g id="a_edge4&#45;headlabel"><a xlink:href="dir_000034_000000.html" target="_top" xlink:title="2">
<text text-anchor="middle" x="54.91" y="-40.78" font-family="FreeSans" font-size="10.00" fill="#63b8ff">2</text>
</a>
</g>
</g>
<!-- dir_8de9eef9346e623a77a99ec4c989c57d&#45;&gt;dir_26ae4716acfbd12584c5080db53ae013 -->
<g id="edge3" class="edge">
<title>dir_8de9eef9346e623a77a99ec4c989c57d&#45;&gt;dir_26ae4716acfbd12584c5080db53ae013</title>
<g id="a_edge3"><a xlink:href="dir_000034_000024.html" target="_top">
<path fill="none" stroke="#63b8ff" d="M75.28,-70.75C79.71,-63.42 86.16,-52.73 91.62,-43.7"/>
<polygon fill="#63b8ff" stroke="#63b8ff" points="94.64,-45.46 96.81,-35.09 88.65,-41.84 94.64,-45.46"/>
</a>
</g>
<g id="a_edge3&#45;headlabel"><a xlink:href="dir_000034_000024.html" target="_top" xlink:title="1">
<text text-anchor="middle" x="95.21" y="-47.5" font-family="FreeSans" font-size="10.00" fill="#63b8ff">1</text>
</a>
</g>
</g>
<!-- dir_8de9eef9346e623a77a99ec4c989c57d&#45;&gt;dir_df3125d2ade78274bdfc2ee26337a54d -->
<g id="edge5" class="edge">
<title>dir_8de9eef9346e623a77a99ec4c989c57d&#45;&gt;dir_df3125d2ade78274bdfc2ee26337a54d</title>
<g id="a_edge5"><a xlink:href="dir_000034_000057.html" target="_top">
<path fill="none" stroke="#63b8ff" d="M84.62,-70.98C98.86,-62.69 120.75,-49.94 137.45,-40.22"/>
<polygon fill="#63b8ff" stroke="#63b8ff" points="139.23,-43.23 146.11,-35.17 135.71,-37.18 139.23,-43.23"/>
</a>
</g>
<g id="a_edge5&#45;headlabel"><a xlink:href="dir_000034_000057.html" target="_top" xlink:title="1">
<text text-anchor="middle" x="137.56" y="-44.99" font-family="FreeSans" font-size="10.00" fill="#63b8ff">1</text>
</a>
</g>
</g>
<!-- dir_048f7c5b69cb7e1832edab50eaa5c4ea -->
<g id="node6" class="node">
<title>dir_048f7c5b69cb7e1832edab50eaa5c4ea</title>
<g id="a_node6"><a xlink:href="dir_048f7c5b69cb7e1832edab50eaa5c4ea.html" target="_top" xlink:title="util">
<polygon fill="#daedff" stroke="red" stroke-dasharray="5,2" points="227,-35 195,-35 195,-16 227,-16 227,-35"/>
<text text-anchor="middle" x="211" y="-23" font-family="FreeSans" font-size="10.00">util</text>
</a>
</g>
</g>
<!-- dir_8de9eef9346e623a77a99ec4c989c57d&#45;&gt;dir_048f7c5b69cb7e1832edab50eaa5c4ea -->
<g id="edge1" class="edge">
<title>dir_8de9eef9346e623a77a99ec4c989c57d&#45;&gt;dir_048f7c5b69cb7e1832edab50eaa5c4ea</title>
<g id="a_edge1"><a xlink:href="dir_000034_000068.html" target="_top">
<path fill="none" stroke="#63b8ff" d="M85.89,-70.96C91.25,-68.24 97.31,-65.33 103,-63 137.29,-48.94 149.26,-48.46 185.06,-36.28"/>
<polygon fill="#63b8ff" stroke="#63b8ff" points="186.41,-39.51 194.7,-32.91 184.1,-32.9 186.41,-39.51"/>
</a>
</g>
<g id="a_edge1&#45;headlabel"><a xlink:href="dir_000034_000068.html" target="_top" xlink:title="6">
<text text-anchor="middle" x="183.95" y="-40.87" font-family="FreeSans" font-size="10.00" fill="#63b8ff">6</text>
</a>
</g>
</g>
<!-- dir_05301f9ba83e223c2c24bb4e5a915266 -->
<g id="node7" class="node">
<title>dir_05301f9ba83e223c2c24bb4e5a915266</title>
<g id="a_node7"><a xlink:href="dir_05301f9ba83e223c2c24bb4e5a915266.html" target="_top" xlink:title="math">
<polygon fill="#daedff" stroke="red" stroke-dasharray="5,2" points="287,-35 245,-35 245,-16 287,-16 287,-35"/>
<text text-anchor="middle" x="266" y="-23" font-family="FreeSans" font-size="10.00">math</text>
</a>
</g>
</g>
<!-- dir_8de9eef9346e623a77a99ec4c989c57d&#45;&gt;dir_05301f9ba83e223c2c24bb4e5a915266 -->
<g id="edge2" class="edge">
<title>dir_8de9eef9346e623a77a99ec4c989c57d&#45;&gt;dir_05301f9ba83e223c2c24bb4e5a915266</title>
<g id="a_edge2"><a xlink:href="dir_000034_000037.html" target="_top">
<path fill="none" stroke="#63b8ff" d="M85.09,-70.94C90.59,-68.09 96.95,-65.11 103,-63 157.14,-44.12 175.49,-48.89 234.85,-35.1"/>
<polygon fill="#63b8ff" stroke="#63b8ff" points="235.84,-38.46 244.74,-32.72 234.2,-31.65 235.84,-38.46"/>
</a>
</g>
<g id="a_edge2&#45;headlabel"><a xlink:href="dir_000034_000037.html" target="_top" xlink:title="3">
<text text-anchor="middle" x="233.01" y="-39.56" font-family="FreeSans" font-size="10.00" fill="#63b8ff">3</text>
</a>
</g>
</g>
</g>
</svg>
