<?xml version="1.0" encoding="UTF-8" standalone="no"?>
<!DOCTYPE svg PUBLIC "-//W3C//DTD SVG 1.1//EN"
 "http://www.w3.org/Graphics/SVG/1.1/DTD/svg11.dtd">
<!-- Generated by graphviz version 2.43.0 (0)
 -->
<!-- Title: mpqc/math Pages: 1 -->
<svg width="554pt" height="471pt"
 viewBox="0.00 0.00 554.00 471.00" xmlns="http://www.w3.org/2000/svg" xmlns:xlink="http://www.w3.org/1999/xlink">
<g id="graph0" class="graph" transform="scale(1 1) rotate(0) translate(4 467)">
<title>mpqc/math</title>
<g id="clust1" class="cluster">
<title>clusterdir_a73ae959862e3c8fc311100b0f57a4ae</title>
<g id="a_clust1"><a xlink:href="dir_a73ae959862e3c8fc311100b0f57a4ae.html" target="_top" xlink:title="mpqc">
<polygon fill="#daedff" stroke="#404040" stroke-dasharray="5,2" points="8,-8 8,-455 538,-455 538,-8 8,-8"/>
<text text-anchor="middle" x="273" y="-443" font-family="FreeSans" font-size="10.00">mpqc</text>
</a>
</g>
</g>
<g id="clust2" class="cluster">
<title>clusterdir_05301f9ba83e223c2c24bb4e5a915266</title>
<g id="a_clust2"><a xlink:href="dir_05301f9ba83e223c2c24bb4e5a915266.html" target="_top">
<polygon fill="#daedff" stroke="#404040" stroke-width="2" points="16,-63 16,-428 336,-428 336,-63 16,-63"/>
</a>
</g>
</g>
<!-- dir_048f7c5b69cb7e1832edab50eaa5c4ea -->
<g id="node1" class="node">
<title>dir_048f7c5b69cb7e1832edab50eaa5c4ea</title>
<g id="a_node1"><a xlink:href="dir_048f7c5b69cb7e1832edab50eaa5c4ea.html" target="_top" xlink:title="util">
<polygon fill="#4ea9ff" stroke="red" points="455,-35 423,-35 423,-16 455,-16 455,-35"/>
<text text-anchor="middle" x="439" y="-23" font-family="FreeSans" font-size="10.00">util</text>
</a>
</g>
</g>
<!-- dir_d7346f86f79c2c85c25b0625ba0ec21c -->
<g id="node2" class="node">
<title>dir_d7346f86f79c2c85c25b0625ba0ec21c</title>
<g id="a_node2"><a xlink:href="dir_d7346f86f79c2c85c25b0625ba0ec21c.html" target="_top" xlink:title="chemistry">
<polygon fill="#4ea9ff" stroke="red" points="409.5,-90 344.5,-90 344.5,-71 409.5,-71 409.5,-90"/>
<text text-anchor="middle" x="377" y="-78" font-family="FreeSans" font-size="10.00">chemistry</text>
</a>
</g>
</g>
<!-- dir_05301f9ba83e223c2c24bb4e5a915266 -->
<g id="node3" class="node">
<title>dir_05301f9ba83e223c2c24bb4e5a915266</title>
<text text-anchor="middle" x="307" y="-408" font-family="FreeSans" font-size="10.00">math</text>
</g>
<!-- dir_0485669393e5fe34eabff84d01fbf64f -->
<g id="node4" class="node">
<title>dir_0485669393e5fe34eabff84d01fbf64f</title>
<g id="a_node4"><a xlink:href="dir_0485669393e5fe34eabff84d01fbf64f.html" target="_top" xlink:title="clustering">
<polygon fill="#4ea9ff" stroke="#404040" points="149.5,-365 84.5,-365 84.5,-346 149.5,-346 149.5,-365"/>
<text text-anchor="middle" x="117" y="-353" font-family="FreeSans" font-size="10.00">clustering</text>
</a>
</g>
</g>
<!-- dir_c25531fec42ff271fb7c42451740592a -->
<g id="node6" class="node">
<title>dir_c25531fec42ff271fb7c42451740592a</title>
<g id="a_node6"><a xlink:href="dir_c25531fec42ff271fb7c42451740592a.html" target="_top" xlink:title="external">
<polygon fill="#4ea9ff" stroke="#404040" points="219.5,-310 162.5,-310 162.5,-291 219.5,-291 219.5,-310"/>
<text text-anchor="middle" x="191" y="-298" font-family="FreeSans" font-size="10.00">external</text>
</a>
</g>
</g>
<!-- dir_0485669393e5fe34eabff84d01fbf64f&#45;&gt;dir_c25531fec42ff271fb7c42451740592a -->
<g id="edge1" class="edge">
<title>dir_0485669393e5fe34eabff84d01fbf64f&#45;&gt;dir_c25531fec42ff271fb7c42451740592a</title>
<g id="a_edge1"><a xlink:href="dir_000008_000021.html" target="_top">
<path fill="none" stroke="#63b8ff" d="M128.89,-345.98C140.15,-337.92 157.29,-325.65 170.71,-316.03"/>
<polygon fill="#63b8ff" stroke="#63b8ff" points="172.8,-318.84 178.89,-310.17 168.73,-313.15 172.8,-318.84"/>
</a>
</g>
<g id="a_edge1&#45;headlabel"><a xlink:href="dir_000008_000021.html" target="_top" xlink:title="3">
<text text-anchor="middle" x="171.53" y="-320.74" font-family="FreeSans" font-size="10.00" fill="#63b8ff">3</text>
</a>
</g>
</g>
<!-- dir_ecd5cca06cf60044dd6272e0521a038c -->
<g id="node5" class="node">
<title>dir_ecd5cca06cf60044dd6272e0521a038c</title>
<g id="a_node5"><a xlink:href="dir_ecd5cca06cf60044dd6272e0521a038c.html" target="_top" xlink:title="core">
<polygon fill="#4ea9ff" stroke="#404040" points="160,-255 122,-255 122,-236 160,-236 160,-255"/>
<text text-anchor="middle" x="141" y="-243" font-family="FreeSans" font-size="10.00">core</text>
</a>
</g>
</g>
<!-- dir_ecd5cca06cf60044dd6272e0521a038c&#45;&gt;dir_048f7c5b69cb7e1832edab50eaa5c4ea -->
<g id="edge2" class="edge">
<title>dir_ecd5cca06cf60044dd6272e0521a038c&#45;&gt;dir_048f7c5b69cb7e1832edab50eaa5c4ea</title>
<g id="a_edge2"><a xlink:href="dir_000010_000068.html" target="_top">
<path fill="none" stroke="#63b8ff" d="M138.37,-235.7C130.21,-206.32 108.59,-110.77 157,-63 192.72,-27.75 349.54,-25.47 412.6,-26.02"/>
<polygon fill="#63b8ff" stroke="#63b8ff" points="412.86,-29.53 422.9,-26.15 412.94,-22.53 412.86,-29.53"/>
</a>
</g>
<g id="a_edge2&#45;headlabel"><a xlink:href="dir_000010_000068.html" target="_top" xlink:title="4">
<text text-anchor="middle" x="409.23" y="-29.82" font-family="FreeSans" font-size="10.00" fill="#63b8ff">4</text>
</a>
</g>
</g>
<!-- dir_5d90b985b1cf1d0695e37f64e4d15325 -->
<g id="node7" class="node">
<title>dir_5d90b985b1cf1d0695e37f64e4d15325</title>
<g id="a_node7"><a xlink:href="dir_5d90b985b1cf1d0695e37f64e4d15325.html" target="_top" xlink:title="fock">
<polygon fill="#4ea9ff" stroke="#404040" points="256,-200 218,-200 218,-181 256,-181 256,-200"/>
<text text-anchor="middle" x="237" y="-188" font-family="FreeSans" font-size="10.00">fock</text>
</a>
</g>
</g>
<!-- dir_ecd5cca06cf60044dd6272e0521a038c&#45;&gt;dir_5d90b985b1cf1d0695e37f64e4d15325 -->
<g id="edge3" class="edge">
<title>dir_ecd5cca06cf60044dd6272e0521a038c&#45;&gt;dir_5d90b985b1cf1d0695e37f64e4d15325</title>
<g id="a_edge3"><a xlink:href="dir_000010_000025.html" target="_top">
<path fill="none" stroke="#63b8ff" d="M151.31,-235.98C165.15,-227.28 189.55,-213.69 208.89,-203.81"/>
<polygon fill="#63b8ff" stroke="#63b8ff" points="210.53,-206.91 217.91,-199.3 207.4,-200.64 210.53,-206.91"/>
</a>
</g>
<g id="a_edge3&#45;headlabel"><a xlink:href="dir_000010_000025.html" target="_top" xlink:title="1">
<text text-anchor="middle" x="208.59" y="-208.55" font-family="FreeSans" font-size="10.00" fill="#63b8ff">1</text>
</a>
</g>
</g>
<!-- dir_c25531fec42ff271fb7c42451740592a&#45;&gt;dir_048f7c5b69cb7e1832edab50eaa5c4ea -->
<g id="edge4" class="edge">
<title>dir_c25531fec42ff271fb7c42451740592a&#45;&gt;dir_048f7c5b69cb7e1832edab50eaa5c4ea</title>
<g id="a_edge4"><a xlink:href="dir_000021_000068.html" target="_top">
<path fill="none" stroke="#63b8ff" d="M219.1,-290.85C285.97,-269.88 449,-216.2 449,-191.5 449,-191.5 449,-191.5 449,-134.5 449,-103.06 444.75,-66.68 441.79,-45.19"/>
<polygon fill="#63b8ff" stroke="#63b8ff" points="445.23,-44.56 440.35,-35.15 438.3,-45.55 445.23,-44.56"/>
</a>
</g>
<g id="a_edge4&#45;headlabel"><a xlink:href="dir_000021_000068.html" target="_top" xlink:title="11">
<text text-anchor="middle" x="448.55" y="-45.21" font-family="FreeSans" font-size="10.00" fill="#63b8ff">11</text>
</a>
</g>
</g>
<!-- dir_c25531fec42ff271fb7c42451740592a&#45;&gt;dir_ecd5cca06cf60044dd6272e0521a038c -->
<g id="edge5" class="edge">
<title>dir_c25531fec42ff271fb7c42451740592a&#45;&gt;dir_ecd5cca06cf60044dd6272e0521a038c</title>
<g id="a_edge5"><a xlink:href="dir_000021_000010.html" target="_top">
<path fill="none" stroke="#63b8ff" d="M182.74,-290.75C175.54,-283.11 164.89,-271.82 156.15,-262.56"/>
<polygon fill="#63b8ff" stroke="#63b8ff" points="158.51,-259.96 149.1,-255.09 153.42,-264.76 158.51,-259.96"/>
</a>
</g>
<g id="a_edge5&#45;headlabel"><a xlink:href="dir_000021_000010.html" target="_top" xlink:title="1">
<text text-anchor="middle" x="163.04" y="-258.13" font-family="FreeSans" font-size="10.00" fill="#63b8ff">1</text>
</a>
</g>
</g>
<!-- dir_c25531fec42ff271fb7c42451740592a&#45;&gt;dir_5d90b985b1cf1d0695e37f64e4d15325 -->
<g id="edge6" class="edge">
<title>dir_c25531fec42ff271fb7c42451740592a&#45;&gt;dir_5d90b985b1cf1d0695e37f64e4d15325</title>
<g id="a_edge6"><a xlink:href="dir_000021_000025.html" target="_top">
<path fill="none" stroke="#63b8ff" d="M190.85,-290.66C195.12,-272.85 211.95,-232.37 224.41,-209.01"/>
<polygon fill="#63b8ff" stroke="#63b8ff" points="227.54,-210.58 229.43,-200.16 221.45,-207.13 227.54,-210.58"/>
</a>
</g>
<g id="a_edge6&#45;headlabel"><a xlink:href="dir_000021_000025.html" target="_top" xlink:title="2">
<text text-anchor="middle" x="228.24" y="-212.61" font-family="FreeSans" font-size="10.00" fill="#63b8ff">2</text>
</a>
</g>
</g>
<!-- dir_5d90b985b1cf1d0695e37f64e4d15325&#45;&gt;dir_048f7c5b69cb7e1832edab50eaa5c4ea -->
<g id="edge7" class="edge">
<title>dir_5d90b985b1cf1d0695e37f64e4d15325&#45;&gt;dir_048f7c5b69cb7e1832edab50eaa5c4ea</title>
<g id="a_edge7"><a xlink:href="dir_000025_000068.html" target="_top">
<path fill="none" stroke="#63b8ff" d="M256.03,-181.29C297.91,-162.9 396.14,-117.82 419,-90 429.43,-77.3 434.45,-59.12 436.84,-45.46"/>
<polygon fill="#63b8ff" stroke="#63b8ff" points="440.35,-45.67 438.3,-35.28 433.42,-44.68 440.35,-45.67"/>
</a>
</g>
<g id="a_edge7&#45;headlabel"><a xlink:href="dir_000025_000068.html" target="_top" xlink:title="35">
<text text-anchor="middle" x="442.65" y="-47.13" font-family="FreeSans" font-size="10.00" fill="#63b8ff">35</text>
</a>
</g>
</g>
<!-- dir_5d90b985b1cf1d0695e37f64e4d15325&#45;&gt;dir_d7346f86f79c2c85c25b0625ba0ec21c -->
<g id="edge9" class="edge">
<title>dir_5d90b985b1cf1d0695e37f64e4d15325&#45;&gt;dir_d7346f86f79c2c85c25b0625ba0ec21c</title>
<g id="a_edge9"><a xlink:href="dir_000025_000005.html" target="_top">
<path fill="none" stroke="#63b8ff" d="M248.46,-180.66C272.47,-162.14 328.29,-119.08 357.85,-96.28"/>
<polygon fill="#63b8ff" stroke="#63b8ff" points="360,-99.04 365.78,-90.16 355.72,-93.5 360,-99.04"/>
</a>
</g>
<g id="a_edge9&#45;headlabel"><a xlink:href="dir_000025_000005.html" target="_top" xlink:title="1">
<text text-anchor="middle" x="358.88" y="-100.98" font-family="FreeSans" font-size="10.00" fill="#63b8ff">1</text>
</a>
</g>
</g>
<!-- dir_5d90b985b1cf1d0695e37f64e4d15325&#45;&gt;dir_ecd5cca06cf60044dd6272e0521a038c -->
<g id="edge11" class="edge">
<title>dir_5d90b985b1cf1d0695e37f64e4d15325&#45;&gt;dir_ecd5cca06cf60044dd6272e0521a038c</title>
<g id="a_edge11"><a xlink:href="dir_000025_000010.html" target="_top">
<path fill="none" stroke="#63b8ff" d="M226.63,-200.06C212.78,-208.76 188.44,-222.32 169.13,-232.18"/>
<polygon fill="#63b8ff" stroke="#63b8ff" points="167.5,-229.08 160.12,-236.68 170.63,-235.34 167.5,-229.08"/>
</a>
</g>
<g id="a_edge11&#45;headlabel"><a xlink:href="dir_000025_000010.html" target="_top" xlink:title="1">
<text text-anchor="middle" x="169.45" y="-222.43" font-family="FreeSans" font-size="10.00" fill="#63b8ff">1</text>
</a>
</g>
</g>
<!-- dir_5d90b985b1cf1d0695e37f64e4d15325&#45;&gt;dir_c25531fec42ff271fb7c42451740592a -->
<g id="edge8" class="edge">
<title>dir_5d90b985b1cf1d0695e37f64e4d15325&#45;&gt;dir_c25531fec42ff271fb7c42451740592a</title>
<g id="a_edge8"><a xlink:href="dir_000025_000021.html" target="_top">
<path fill="none" stroke="#63b8ff" d="M237.19,-200.16C233.01,-217.81 216.2,-258.28 203.71,-281.76"/>
<polygon fill="#63b8ff" stroke="#63b8ff" points="200.55,-280.23 198.68,-290.66 206.65,-283.68 200.55,-280.23"/>
</a>
</g>
<g id="a_edge8&#45;headlabel"><a xlink:href="dir_000025_000021.html" target="_top" xlink:title="2">
<text text-anchor="middle" x="199.85" y="-273.21" font-family="FreeSans" font-size="10.00" fill="#63b8ff">2</text>
</a>
</g>
</g>
<!-- dir_d84798368d86ff105f719b6c993cd50d -->
<g id="node9" class="node">
<title>dir_d84798368d86ff105f719b6c993cd50d</title>
<g id="a_node9"><a xlink:href="dir_d84798368d86ff105f719b6c993cd50d.html" target="_top" xlink:title="groups">
<polygon fill="#4ea9ff" stroke="#404040" points="269,-145 219,-145 219,-126 269,-126 269,-145"/>
<text text-anchor="middle" x="244" y="-133" font-family="FreeSans" font-size="10.00">groups</text>
</a>
</g>
</g>
<!-- dir_5d90b985b1cf1d0695e37f64e4d15325&#45;&gt;dir_d84798368d86ff105f719b6c993cd50d -->
<g id="edge10" class="edge">
<title>dir_5d90b985b1cf1d0695e37f64e4d15325&#45;&gt;dir_d84798368d86ff105f719b6c993cd50d</title>
<g id="a_edge10"><a xlink:href="dir_000025_000029.html" target="_top">
<path fill="none" stroke="#63b8ff" d="M238.16,-180.75C239.07,-173.8 240.39,-163.85 241.54,-155.13"/>
<polygon fill="#63b8ff" stroke="#63b8ff" points="245.03,-155.46 242.87,-145.09 238.09,-154.54 245.03,-155.46"/>
</a>
</g>
<g id="a_edge10&#45;headlabel"><a xlink:href="dir_000025_000029.html" target="_top" xlink:title="1">
<text text-anchor="middle" x="247.37" y="-156.9" font-family="FreeSans" font-size="10.00" fill="#63b8ff">1</text>
</a>
</g>
</g>
<!-- dir_fc0f92aab8390c5ae0b797c56a1a4a7f -->
<g id="node10" class="node">
<title>dir_fc0f92aab8390c5ae0b797c56a1a4a7f</title>
<g id="a_node10"><a xlink:href="dir_fc0f92aab8390c5ae0b797c56a1a4a7f.html" target="_top" xlink:title="linalg">
<polygon fill="#4ea9ff" stroke="#404040" points="201,-145 157,-145 157,-126 201,-126 201,-145"/>
<text text-anchor="middle" x="179" y="-133" font-family="FreeSans" font-size="10.00">linalg</text>
</a>
</g>
</g>
<!-- dir_5d90b985b1cf1d0695e37f64e4d15325&#45;&gt;dir_fc0f92aab8390c5ae0b797c56a1a4a7f -->
<g id="edge12" class="edge">
<title>dir_5d90b985b1cf1d0695e37f64e4d15325&#45;&gt;dir_fc0f92aab8390c5ae0b797c56a1a4a7f</title>
<g id="a_edge12"><a xlink:href="dir_000025_000035.html" target="_top">
<path fill="none" stroke="#63b8ff" d="M227.68,-180.98C219.19,-173.23 206.44,-161.58 196.12,-152.14"/>
<polygon fill="#63b8ff" stroke="#63b8ff" points="198.23,-149.33 188.49,-145.17 193.51,-154.5 198.23,-149.33"/>
</a>
</g>
<g id="a_edge12&#45;headlabel"><a xlink:href="dir_000025_000035.html" target="_top" xlink:title="2">
<text text-anchor="middle" x="202.8" y="-147.16" font-family="FreeSans" font-size="10.00" fill="#63b8ff">2</text>
</a>
</g>
</g>
<!-- dir_6e1e2646fc6adb53d984c60fded19ab0 -->
<g id="node8" class="node">
<title>dir_6e1e2646fc6adb53d984c60fded19ab0</title>
<g id="a_node8"><a xlink:href="dir_6e1e2646fc6adb53d984c60fded19ab0.html" target="_top" xlink:title="function">
<polygon fill="#4ea9ff" stroke="#404040" points="268,-420 212,-420 212,-401 268,-401 268,-420"/>
<text text-anchor="middle" x="240" y="-408" font-family="FreeSans" font-size="10.00">function</text>
</a>
</g>
</g>
<!-- dir_6e1e2646fc6adb53d984c60fded19ab0&#45;&gt;dir_048f7c5b69cb7e1832edab50eaa5c4ea -->
<g id="edge13" class="edge">
<title>dir_6e1e2646fc6adb53d984c60fded19ab0&#45;&gt;dir_048f7c5b69cb7e1832edab50eaa5c4ea</title>
<g id="a_edge13"><a xlink:href="dir_000026_000068.html" target="_top">
<path fill="none" stroke="#63b8ff" d="M268.24,-402.78C271.19,-402.15 274.15,-401.54 277,-401 329.33,-391.03 474.83,-401.11 514,-365 535.32,-345.34 529,-330.5 529,-301.5 529,-301.5 529,-301.5 529,-134.5 529,-102.03 533.97,-88.6 514,-63 501.83,-47.4 481.29,-38.05 464.77,-32.73"/>
<polygon fill="#63b8ff" stroke="#63b8ff" points="465.7,-29.35 455.12,-29.91 463.74,-36.07 465.7,-29.35"/>
</a>
</g>
<g id="a_edge13&#45;headlabel"><a xlink:href="dir_000026_000068.html" target="_top" xlink:title="5">
<text text-anchor="middle" x="469.95" y="-25.14" font-family="FreeSans" font-size="10.00" fill="#63b8ff">5</text>
</a>
</g>
</g>
<!-- dir_d84798368d86ff105f719b6c993cd50d&#45;&gt;dir_048f7c5b69cb7e1832edab50eaa5c4ea -->
<g id="edge14" class="edge">
<title>dir_d84798368d86ff105f719b6c993cd50d&#45;&gt;dir_048f7c5b69cb7e1832edab50eaa5c4ea</title>
<g id="a_edge14"><a xlink:href="dir_000029_000068.html" target="_top">
<path fill="none" stroke="#63b8ff" d="M252.96,-125.91C268.66,-111.26 302.64,-81.25 336,-63 360.89,-49.38 391.84,-39.22 413.29,-33.12"/>
<polygon fill="#63b8ff" stroke="#63b8ff" points="414.27,-36.48 422.98,-30.46 412.41,-29.73 414.27,-36.48"/>
</a>
</g>
<g id="a_edge14&#45;headlabel"><a xlink:href="dir_000029_000068.html" target="_top" xlink:title="7">
<text text-anchor="middle" x="411.55" y="-37.67" font-family="FreeSans" font-size="10.00" fill="#63b8ff">7</text>
</a>
</g>
</g>
<!-- dir_d84798368d86ff105f719b6c993cd50d&#45;&gt;dir_c25531fec42ff271fb7c42451740592a -->
<g id="edge15" class="edge">
<title>dir_d84798368d86ff105f719b6c993cd50d&#45;&gt;dir_c25531fec42ff271fb7c42451740592a</title>
<g id="a_edge15"><a xlink:href="dir_000029_000021.html" target="_top">
<path fill="none" stroke="#63b8ff" d="M234.94,-145.12C226.76,-153.48 215.09,-166.93 209,-181 201.41,-198.53 195.45,-251.88 192.68,-280.65"/>
<polygon fill="#63b8ff" stroke="#63b8ff" points="189.19,-280.38 191.75,-290.66 196.16,-281.02 189.19,-280.38"/>
</a>
</g>
<g id="a_edge15&#45;headlabel"><a xlink:href="dir_000029_000021.html" target="_top" xlink:title="1">
<text text-anchor="middle" x="186.7" y="-274.04" font-family="FreeSans" font-size="10.00" fill="#63b8ff">1</text>
</a>
</g>
</g>
<!-- dir_fc0f92aab8390c5ae0b797c56a1a4a7f&#45;&gt;dir_048f7c5b69cb7e1832edab50eaa5c4ea -->
<g id="edge16" class="edge">
<title>dir_fc0f92aab8390c5ae0b797c56a1a4a7f&#45;&gt;dir_048f7c5b69cb7e1832edab50eaa5c4ea</title>
<g id="a_edge16"><a xlink:href="dir_000035_000068.html" target="_top">
<path fill="none" stroke="#63b8ff" d="M173.79,-125.81C165.68,-111 152.46,-80.78 168,-63 199.69,-26.76 351.27,-25.03 412.88,-25.88"/>
<polygon fill="#63b8ff" stroke="#63b8ff" points="412.9,-29.38 422.96,-26.05 413.02,-22.38 412.9,-29.38"/>
</a>
</g>
<g id="a_edge16&#45;headlabel"><a xlink:href="dir_000035_000068.html" target="_top" xlink:title="19">
<text text-anchor="middle" x="409.26" y="-29.66" font-family="FreeSans" font-size="10.00" fill="#63b8ff">19</text>
</a>
</g>
</g>
<!-- dir_fc0f92aab8390c5ae0b797c56a1a4a7f&#45;&gt;dir_d7346f86f79c2c85c25b0625ba0ec21c -->
<g id="edge19" class="edge">
<title>dir_fc0f92aab8390c5ae0b797c56a1a4a7f&#45;&gt;dir_d7346f86f79c2c85c25b0625ba0ec21c</title>
<g id="a_edge19"><a xlink:href="dir_000035_000005.html" target="_top">
<path fill="none" stroke="#63b8ff" d="M201.01,-128.44C204.03,-127.62 207.09,-126.79 210,-126 252.39,-114.54 300.9,-101.64 334.67,-92.69"/>
<polygon fill="#63b8ff" stroke="#63b8ff" points="335.88,-95.99 344.65,-90.05 334.09,-89.22 335.88,-95.99"/>
</a>
</g>
<g id="a_edge19&#45;headlabel"><a xlink:href="dir_000035_000005.html" target="_top" xlink:title="1">
<text text-anchor="middle" x="333.14" y="-97.15" font-family="FreeSans" font-size="10.00" fill="#63b8ff">1</text>
</a>
</g>
</g>
<!-- dir_fc0f92aab8390c5ae0b797c56a1a4a7f&#45;&gt;dir_ecd5cca06cf60044dd6272e0521a038c -->
<g id="edge20" class="edge">
<title>dir_fc0f92aab8390c5ae0b797c56a1a4a7f&#45;&gt;dir_ecd5cca06cf60044dd6272e0521a038c</title>
<g id="a_edge20"><a xlink:href="dir_000035_000010.html" target="_top">
<path fill="none" stroke="#63b8ff" d="M175.95,-145.16C169.8,-162.66 155.76,-202.56 147.47,-226.12"/>
<polygon fill="#63b8ff" stroke="#63b8ff" points="144.13,-225.07 144.11,-235.66 150.73,-227.39 144.13,-225.07"/>
</a>
</g>
<g id="a_edge20&#45;headlabel"><a xlink:href="dir_000035_000010.html" target="_top" xlink:title="1">
<text text-anchor="middle" x="142.64" y="-218.23" font-family="FreeSans" font-size="10.00" fill="#63b8ff">1</text>
</a>
</g>
</g>
<!-- dir_fc0f92aab8390c5ae0b797c56a1a4a7f&#45;&gt;dir_c25531fec42ff271fb7c42451740592a -->
<g id="edge18" class="edge">
<title>dir_fc0f92aab8390c5ae0b797c56a1a4a7f&#45;&gt;dir_c25531fec42ff271fb7c42451740592a</title>
<g id="a_edge18"><a xlink:href="dir_000035_000021.html" target="_top">
<path fill="none" stroke="#63b8ff" d="M179.65,-145.31C181.52,-170.79 186.99,-245.03 189.59,-280.37"/>
<polygon fill="#63b8ff" stroke="#63b8ff" points="186.13,-281.02 190.35,-290.74 193.11,-280.51 186.13,-281.02"/>
</a>
</g>
<g id="a_edge18&#45;headlabel"><a xlink:href="dir_000035_000021.html" target="_top" xlink:title="24">
<text text-anchor="middle" x="183.03" y="-275.14" font-family="FreeSans" font-size="10.00" fill="#63b8ff">24</text>
</a>
</g>
</g>
<!-- dir_9dc2ceee363acf2a9866a9055e59ebdc -->
<g id="node14" class="node">
<title>dir_9dc2ceee363acf2a9866a9055e59ebdc</title>
<g id="a_node14"><a xlink:href="dir_9dc2ceee363acf2a9866a9055e59ebdc.html" target="_top" xlink:title="tensor">
<polygon fill="#4ea9ff" stroke="#404040" points="224.5,-90 177.5,-90 177.5,-71 224.5,-71 224.5,-90"/>
<text text-anchor="middle" x="201" y="-78" font-family="FreeSans" font-size="10.00">tensor</text>
</a>
</g>
</g>
<!-- dir_fc0f92aab8390c5ae0b797c56a1a4a7f&#45;&gt;dir_9dc2ceee363acf2a9866a9055e59ebdc -->
<g id="edge17" class="edge">
<title>dir_fc0f92aab8390c5ae0b797c56a1a4a7f&#45;&gt;dir_9dc2ceee363acf2a9866a9055e59ebdc</title>
<g id="a_edge17"><a xlink:href="dir_000035_000063.html" target="_top">
<path fill="none" stroke="#63b8ff" d="M177.47,-125.75C178.92,-118.49 182.89,-107.95 187.35,-98.98"/>
<polygon fill="#63b8ff" stroke="#63b8ff" points="190.5,-100.53 192.3,-90.09 184.38,-97.12 190.5,-100.53"/>
</a>
</g>
<g id="a_edge17&#45;headlabel"><a xlink:href="dir_000035_000063.html" target="_top" xlink:title="7">
<text text-anchor="middle" x="191.23" y="-102.55" font-family="FreeSans" font-size="10.00" fill="#63b8ff">7</text>
</a>
</g>
</g>
<!-- dir_7ee86449a259efb771a06d887fb7b093 -->
<g id="node11" class="node">
<title>dir_7ee86449a259efb771a06d887fb7b093</title>
<g id="a_node11"><a xlink:href="dir_7ee86449a259efb771a06d887fb7b093.html" target="_top" xlink:title="mra">
<polygon fill="#4ea9ff" stroke="#404040" points="138,-420 102,-420 102,-401 138,-401 138,-420"/>
<text text-anchor="middle" x="120" y="-408" font-family="FreeSans" font-size="10.00">mra</text>
</a>
</g>
</g>
<!-- dir_7ee86449a259efb771a06d887fb7b093&#45;&gt;dir_048f7c5b69cb7e1832edab50eaa5c4ea -->
<g id="edge21" class="edge">
<title>dir_7ee86449a259efb771a06d887fb7b093&#45;&gt;dir_048f7c5b69cb7e1832edab50eaa5c4ea</title>
<g id="a_edge21"><a xlink:href="dir_000047_000068.html" target="_top">
<path fill="none" stroke="#63b8ff" d="M138.24,-406.44C215.15,-393.29 509,-340.49 509,-301.5 509,-301.5 509,-301.5 509,-134.5 509,-100.84 503.36,-90.54 484,-63 478.05,-54.54 469.62,-46.99 461.67,-40.98"/>
<polygon fill="#63b8ff" stroke="#63b8ff" points="463.54,-38.02 453.36,-35.1 459.49,-43.73 463.54,-38.02"/>
</a>
</g>
<g id="a_edge21&#45;headlabel"><a xlink:href="dir_000047_000068.html" target="_top" xlink:title="8">
<text text-anchor="middle" x="468.11" y="-35.28" font-family="FreeSans" font-size="10.00" fill="#63b8ff">8</text>
</a>
</g>
</g>
<!-- dir_7ee86449a259efb771a06d887fb7b093&#45;&gt;dir_ecd5cca06cf60044dd6272e0521a038c -->
<g id="edge25" class="edge">
<title>dir_7ee86449a259efb771a06d887fb7b093&#45;&gt;dir_ecd5cca06cf60044dd6272e0521a038c</title>
<g id="a_edge25"><a xlink:href="dir_000047_000010.html" target="_top">
<path fill="none" stroke="#63b8ff" d="M103.97,-400.95C91.59,-393.35 75.35,-380.97 68,-365 64.47,-357.33 65.37,-354.03 68,-346 78.99,-312.45 106.07,-280.87 123.98,-262.62"/>
<polygon fill="#63b8ff" stroke="#63b8ff" points="126.82,-264.74 131.47,-255.22 121.9,-259.76 126.82,-264.74"/>
</a>
</g>
<g id="a_edge25&#45;headlabel"><a xlink:href="dir_000047_000010.html" target="_top" xlink:title="2">
<text text-anchor="middle" x="126.26" y="-266.78" font-family="FreeSans" font-size="10.00" fill="#63b8ff">2</text>
</a>
</g>
</g>
<!-- dir_7ee86449a259efb771a06d887fb7b093&#45;&gt;dir_c25531fec42ff271fb7c42451740592a -->
<g id="edge24" class="edge">
<title>dir_7ee86449a259efb771a06d887fb7b093&#45;&gt;dir_c25531fec42ff271fb7c42451740592a</title>
<g id="a_edge24"><a xlink:href="dir_000047_000021.html" target="_top">
<path fill="none" stroke="#63b8ff" d="M106.22,-400.93C88.45,-388.78 61.38,-365.82 75,-346 92.21,-320.97 125.58,-310.01 152.13,-305.22"/>
<polygon fill="#63b8ff" stroke="#63b8ff" points="152.95,-308.63 162.29,-303.62 151.86,-301.72 152.95,-308.63"/>
</a>
</g>
<g id="a_edge24&#45;headlabel"><a xlink:href="dir_000047_000021.html" target="_top" xlink:title="2">
<text text-anchor="middle" x="149.84" y="-309.5" font-family="FreeSans" font-size="10.00" fill="#63b8ff">2</text>
</a>
</g>
</g>
<!-- dir_7ee86449a259efb771a06d887fb7b093&#45;&gt;dir_5d90b985b1cf1d0695e37f64e4d15325 -->
<g id="edge22" class="edge">
<title>dir_7ee86449a259efb771a06d887fb7b093&#45;&gt;dir_5d90b985b1cf1d0695e37f64e4d15325</title>
<g id="a_edge22"><a xlink:href="dir_000047_000025.html" target="_top">
<path fill="none" stroke="#63b8ff" d="M138.35,-407.9C163.52,-404.63 208.02,-394.72 229,-365 246.25,-340.56 241.57,-249.78 238.59,-210.18"/>
<polygon fill="#63b8ff" stroke="#63b8ff" points="242.06,-209.75 237.78,-200.06 235.09,-210.31 242.06,-209.75"/>
</a>
</g>
<g id="a_edge22&#45;headlabel"><a xlink:href="dir_000047_000025.html" target="_top" xlink:title="2">
<text text-anchor="middle" x="245.18" y="-210.6" font-family="FreeSans" font-size="10.00" fill="#63b8ff">2</text>
</a>
</g>
</g>
<!-- dir_7ee86449a259efb771a06d887fb7b093&#45;&gt;dir_fc0f92aab8390c5ae0b797c56a1a4a7f -->
<g id="edge26" class="edge">
<title>dir_7ee86449a259efb771a06d887fb7b093&#45;&gt;dir_fc0f92aab8390c5ae0b797c56a1a4a7f</title>
<g id="a_edge26"><a xlink:href="dir_000047_000035.html" target="_top">
<path fill="none" stroke="#63b8ff" d="M101.9,-401.27C88.15,-393.92 70.25,-381.73 62,-365 58.26,-357.43 60.53,-354.32 62,-346 76.07,-266.16 136.36,-186.64 164.47,-153.09"/>
<polygon fill="#63b8ff" stroke="#63b8ff" points="167.35,-155.11 171.18,-145.23 162.02,-150.56 167.35,-155.11"/>
</a>
</g>
<g id="a_edge26&#45;headlabel"><a xlink:href="dir_000047_000035.html" target="_top" xlink:title="1">
<text text-anchor="middle" x="167.17" y="-157.19" font-family="FreeSans" font-size="10.00" fill="#63b8ff">1</text>
</a>
</g>
</g>
<!-- dir_9f950fb105749c4d077c1743d20ec2e1 -->
<g id="node12" class="node">
<title>dir_9f950fb105749c4d077c1743d20ec2e1</title>
<g id="a_node12"><a xlink:href="dir_9f950fb105749c4d077c1743d20ec2e1.html" target="_top" xlink:title="quadrature">
<polygon fill="#4ea9ff" stroke="#404040" points="328,-365 258,-365 258,-346 328,-346 328,-365"/>
<text text-anchor="middle" x="293" y="-353" font-family="FreeSans" font-size="10.00">quadrature</text>
</a>
</g>
</g>
<!-- dir_7ee86449a259efb771a06d887fb7b093&#45;&gt;dir_9f950fb105749c4d077c1743d20ec2e1 -->
<g id="edge23" class="edge">
<title>dir_7ee86449a259efb771a06d887fb7b093&#45;&gt;dir_9f950fb105749c4d077c1743d20ec2e1</title>
<g id="a_edge23"><a xlink:href="dir_000047_000056.html" target="_top">
<path fill="none" stroke="#63b8ff" d="M138.19,-403.93C165.86,-395.45 219.15,-379.12 255.39,-368.02"/>
<polygon fill="#63b8ff" stroke="#63b8ff" points="256.59,-371.32 265.12,-365.04 254.54,-364.62 256.59,-371.32"/>
</a>
</g>
<g id="a_edge23&#45;headlabel"><a xlink:href="dir_000047_000056.html" target="_top" xlink:title="1">
<text text-anchor="middle" x="253.98" y="-372.58" font-family="FreeSans" font-size="10.00" fill="#63b8ff">1</text>
</a>
</g>
</g>
<!-- dir_9f950fb105749c4d077c1743d20ec2e1&#45;&gt;dir_048f7c5b69cb7e1832edab50eaa5c4ea -->
<g id="edge27" class="edge">
<title>dir_9f950fb105749c4d077c1743d20ec2e1&#45;&gt;dir_048f7c5b69cb7e1832edab50eaa5c4ea</title>
<g id="a_edge27"><a xlink:href="dir_000056_000068.html" target="_top">
<path fill="none" stroke="#63b8ff" d="M328.33,-346.81C379.52,-335.51 468.82,-315.23 474,-310 494.41,-289.4 489,-275.5 489,-246.5 489,-246.5 489,-246.5 489,-134.5 489,-102.03 489.16,-91.72 474,-63 469.91,-55.25 463.68,-47.99 457.61,-42.02"/>
<polygon fill="#63b8ff" stroke="#63b8ff" points="459.92,-39.38 450.18,-35.21 455.19,-44.54 459.92,-39.38"/>
</a>
</g>
<g id="a_edge27&#45;headlabel"><a xlink:href="dir_000056_000068.html" target="_top" xlink:title="2">
<text text-anchor="middle" x="464.48" y="-37.22" font-family="FreeSans" font-size="10.00" fill="#63b8ff">2</text>
</a>
</g>
</g>
<!-- dir_9f950fb105749c4d077c1743d20ec2e1&#45;&gt;dir_c25531fec42ff271fb7c42451740592a -->
<g id="edge28" class="edge">
<title>dir_9f950fb105749c4d077c1743d20ec2e1&#45;&gt;dir_c25531fec42ff271fb7c42451740592a</title>
<g id="a_edge28"><a xlink:href="dir_000056_000021.html" target="_top">
<path fill="none" stroke="#63b8ff" d="M276.61,-345.98C260.43,-337.57 235.43,-324.59 216.62,-314.81"/>
<polygon fill="#63b8ff" stroke="#63b8ff" points="218.17,-311.68 207.69,-310.17 214.95,-317.89 218.17,-311.68"/>
</a>
</g>
<g id="a_edge28&#45;headlabel"><a xlink:href="dir_000056_000021.html" target="_top" xlink:title="1">
<text text-anchor="middle" x="222.67" y="-308.31" font-family="FreeSans" font-size="10.00" fill="#63b8ff">1</text>
</a>
</g>
</g>
<!-- dir_afd9131481ea41d479ca5a92cc5ea3f0 -->
<g id="node13" class="node">
<title>dir_afd9131481ea41d479ca5a92cc5ea3f0</title>
<g id="a_node13"><a xlink:href="dir_afd9131481ea41d479ca5a92cc5ea3f0.html" target="_top" xlink:title="solvers">
<polygon fill="#4ea9ff" stroke="#404040" points="220,-365 168,-365 168,-346 220,-346 220,-365"/>
<text text-anchor="middle" x="194" y="-353" font-family="FreeSans" font-size="10.00">solvers</text>
</a>
</g>
</g>
<!-- dir_afd9131481ea41d479ca5a92cc5ea3f0&#45;&gt;dir_048f7c5b69cb7e1832edab50eaa5c4ea -->
<g id="edge29" class="edge">
<title>dir_afd9131481ea41d479ca5a92cc5ea3f0&#45;&gt;dir_048f7c5b69cb7e1832edab50eaa5c4ea</title>
<g id="a_edge29"><a xlink:href="dir_000061_000068.html" target="_top">
<path fill="none" stroke="#63b8ff" d="M220.37,-349.98C289.2,-337.44 469,-299.59 469,-246.5 469,-246.5 469,-246.5 469,-134.5 469,-101.87 456.13,-65.65 447.25,-44.55"/>
<polygon fill="#63b8ff" stroke="#63b8ff" points="450.39,-42.99 443.17,-35.23 443.98,-45.8 450.39,-42.99"/>
</a>
</g>
<g id="a_edge29&#45;headlabel"><a xlink:href="dir_000061_000068.html" target="_top" xlink:title="2">
<text text-anchor="middle" x="454.43" y="-42.64" font-family="FreeSans" font-size="10.00" fill="#63b8ff">2</text>
</a>
</g>
</g>
<!-- dir_afd9131481ea41d479ca5a92cc5ea3f0&#45;&gt;dir_c25531fec42ff271fb7c42451740592a -->
<g id="edge30" class="edge">
<title>dir_afd9131481ea41d479ca5a92cc5ea3f0&#45;&gt;dir_c25531fec42ff271fb7c42451740592a</title>
<g id="a_edge30"><a xlink:href="dir_000061_000021.html" target="_top">
<path fill="none" stroke="#63b8ff" d="M193.5,-345.75C193.11,-338.8 192.55,-328.85 192.05,-320.13"/>
<polygon fill="#63b8ff" stroke="#63b8ff" points="195.55,-319.88 191.49,-310.09 188.56,-320.27 195.55,-319.88"/>
</a>
</g>
<g id="a_edge30&#45;headlabel"><a xlink:href="dir_000061_000021.html" target="_top" xlink:title="1">
<text text-anchor="middle" x="198.58" y="-320.8" font-family="FreeSans" font-size="10.00" fill="#63b8ff">1</text>
</a>
</g>
</g>
<!-- dir_9dc2ceee363acf2a9866a9055e59ebdc&#45;&gt;dir_048f7c5b69cb7e1832edab50eaa5c4ea -->
<g id="edge31" class="edge">
<title>dir_9dc2ceee363acf2a9866a9055e59ebdc&#45;&gt;dir_048f7c5b69cb7e1832edab50eaa5c4ea</title>
<g id="a_edge31"><a xlink:href="dir_000063_000068.html" target="_top">
<path fill="none" stroke="#63b8ff" d="M213.34,-70.93C218.06,-68.01 223.6,-64.99 229,-63 292.47,-39.67 372.34,-31.05 412.85,-28.02"/>
<polygon fill="#63b8ff" stroke="#63b8ff" points="413.22,-31.51 422.95,-27.33 412.74,-24.52 413.22,-31.51"/>
</a>
</g>
<g id="a_edge31&#45;headlabel"><a xlink:href="dir_000063_000068.html" target="_top" xlink:title="3">
<text text-anchor="middle" x="409.83" y="-32.09" font-family="FreeSans" font-size="10.00" fill="#63b8ff">3</text>
</a>
</g>
</g>
<!-- dir_9dc2ceee363acf2a9866a9055e59ebdc&#45;&gt;dir_c25531fec42ff271fb7c42451740592a -->
<g id="edge32" class="edge">
<title>dir_9dc2ceee363acf2a9866a9055e59ebdc&#45;&gt;dir_c25531fec42ff271fb7c42451740592a</title>
<g id="a_edge32"><a xlink:href="dir_000063_000021.html" target="_top">
<path fill="none" stroke="#63b8ff" d="M186.9,-90.05C174.94,-97.98 158.16,-110.83 148,-126 119.45,-168.62 120.87,-185.3 113,-236 111.7,-244.34 108.76,-247.7 113,-255 121.75,-270.07 137.74,-280.47 152.97,-287.39"/>
<polygon fill="#63b8ff" stroke="#63b8ff" points="151.7,-290.66 162.28,-291.27 154.39,-284.2 151.7,-290.66"/>
</a>
</g>
<g id="a_edge32&#45;headlabel"><a xlink:href="dir_000063_000021.html" target="_top" xlink:title="15">
<text text-anchor="middle" x="147.29" y="-289.4" font-family="FreeSans" font-size="10.00" fill="#63b8ff">15</text>
</a>
</g>
</g>
<!-- dir_9dc2ceee363acf2a9866a9055e59ebdc&#45;&gt;dir_fc0f92aab8390c5ae0b797c56a1a4a7f -->
<g id="edge33" class="edge">
<title>dir_9dc2ceee363acf2a9866a9055e59ebdc&#45;&gt;dir_fc0f92aab8390c5ae0b797c56a1a4a7f</title>
<g id="a_edge33"><a xlink:href="dir_000063_000035.html" target="_top">
<path fill="none" stroke="#63b8ff" d="M202.57,-90.09C201.15,-97.29 197.21,-107.82 192.75,-116.82"/>
<polygon fill="#63b8ff" stroke="#63b8ff" points="189.58,-115.3 187.8,-125.75 195.71,-118.7 189.58,-115.3"/>
</a>
</g>
<g id="a_edge33&#45;headlabel"><a xlink:href="dir_000063_000035.html" target="_top" xlink:title="1">
<text text-anchor="middle" x="188.84" y="-108.28" font-family="FreeSans" font-size="10.00" fill="#63b8ff">1</text>
</a>
</g>
</g>
</g>
</svg>
