<?xml version="1.0" encoding="UTF-8" standalone="no"?>
<!DOCTYPE svg PUBLIC "-//W3C//DTD SVG 1.1//EN"
 "http://www.w3.org/Graphics/SVG/1.1/DTD/svg11.dtd">
<!-- Generated by graphviz version 2.43.0 (0)
 -->
<!-- Title: mpqc Pages: 1 -->
<svg width="168pt" height="169pt"
 viewBox="0.00 0.00 168.00 169.00" xmlns="http://www.w3.org/2000/svg" xmlns:xlink="http://www.w3.org/1999/xlink">
<g id="graph0" class="graph" transform="scale(1 1) rotate(0) translate(4 165)">
<title>mpqc</title>
<g id="clust1" class="cluster">
<title>clusterdir_a73ae959862e3c8fc311100b0f57a4ae</title>
<g id="a_clust1"><a xlink:href="dir_a73ae959862e3c8fc311100b0f57a4ae.html" target="_top">
<polygon fill="#daedff" stroke="#404040" stroke-width="2" points="8,-8 8,-153 152,-153 152,-8 8,-8"/>
</a>
</g>
</g>
<!-- dir_a73ae959862e3c8fc311100b0f57a4ae -->
<g id="node1" class="node">
<title>dir_a73ae959862e3c8fc311100b0f57a4ae</title>
<text text-anchor="middle" x="122" y="-133" font-family="FreeSans" font-size="10.00">mpqc</text>
</g>
<!-- dir_d7346f86f79c2c85c25b0625ba0ec21c -->
<g id="node2" class="node">
<title>dir_d7346f86f79c2c85c25b0625ba0ec21c</title>
<g id="a_node2"><a xlink:href="dir_d7346f86f79c2c85c25b0625ba0ec21c.html" target="_top" xlink:title="chemistry">
<polygon fill="#4ea9ff" stroke="#404040" points="81.5,-145 16.5,-145 16.5,-126 81.5,-126 81.5,-145"/>
<text text-anchor="middle" x="49" y="-133" font-family="FreeSans" font-size="10.00">chemistry</text>
</a>
</g>
</g>
<!-- dir_05301f9ba83e223c2c24bb4e5a915266 -->
<g id="node3" class="node">
<title>dir_05301f9ba83e223c2c24bb4e5a915266</title>
<g id="a_node3"><a xlink:href="dir_05301f9ba83e223c2c24bb4e5a915266.html" target="_top" xlink:title="math">
<polygon fill="#4ea9ff" stroke="#404040" points="70,-90 28,-90 28,-71 70,-71 70,-90"/>
<text text-anchor="middle" x="49" y="-78" font-family="FreeSans" font-size="10.00">math</text>
</a>
</g>
</g>
<!-- dir_d7346f86f79c2c85c25b0625ba0ec21c&#45;&gt;dir_05301f9ba83e223c2c24bb4e5a915266 -->
<g id="edge2" class="edge">
<title>dir_d7346f86f79c2c85c25b0625ba0ec21c&#45;&gt;dir_05301f9ba83e223c2c24bb4e5a915266</title>
<g id="a_edge2"><a xlink:href="dir_000005_000037.html" target="_top">
<path fill="none" stroke="#63b8ff" d="M43.83,-125.75C42.34,-118.8 41.9,-108.85 42.52,-100.13"/>
<polygon fill="#63b8ff" stroke="#63b8ff" points="46.01,-100.47 43.87,-90.09 39.07,-99.53 46.01,-100.47"/>
</a>
</g>
<g id="a_edge2&#45;headlabel"><a xlink:href="dir_000005_000037.html" target="_top" xlink:title="322">
<text text-anchor="middle" x="48.34" y="-101.91" font-family="FreeSans" font-size="10.00" fill="#63b8ff">322</text>
</a>
</g>
</g>
<!-- dir_048f7c5b69cb7e1832edab50eaa5c4ea -->
<g id="node4" class="node">
<title>dir_048f7c5b69cb7e1832edab50eaa5c4ea</title>
<g id="a_node4"><a xlink:href="dir_048f7c5b69cb7e1832edab50eaa5c4ea.html" target="_top" xlink:title="util">
<polygon fill="#4ea9ff" stroke="#404040" points="65,-35 33,-35 33,-16 65,-16 65,-35"/>
<text text-anchor="middle" x="49" y="-23" font-family="FreeSans" font-size="10.00">util</text>
</a>
</g>
</g>
<!-- dir_d7346f86f79c2c85c25b0625ba0ec21c&#45;&gt;dir_048f7c5b69cb7e1832edab50eaa5c4ea -->
<g id="edge1" class="edge">
<title>dir_d7346f86f79c2c85c25b0625ba0ec21c&#45;&gt;dir_048f7c5b69cb7e1832edab50eaa5c4ea</title>
<g id="a_edge1"><a xlink:href="dir_000005_000068.html" target="_top">
<path fill="none" stroke="#63b8ff" d="M57.21,-125.8C64.54,-117.38 74.75,-103.9 79,-90 84.1,-73.33 74.14,-55.47 64.35,-42.95"/>
<polygon fill="#63b8ff" stroke="#63b8ff" points="66.93,-40.58 57.8,-35.22 61.59,-45.11 66.93,-40.58"/>
</a>
</g>
<g id="a_edge1&#45;headlabel"><a xlink:href="dir_000005_000068.html" target="_top" xlink:title="313">
<text text-anchor="middle" x="71.42" y="-38.98" font-family="FreeSans" font-size="10.00" fill="#63b8ff">313</text>
</a>
</g>
</g>
<!-- dir_05301f9ba83e223c2c24bb4e5a915266&#45;&gt;dir_d7346f86f79c2c85c25b0625ba0ec21c -->
<g id="edge4" class="edge">
<title>dir_05301f9ba83e223c2c24bb4e5a915266&#45;&gt;dir_d7346f86f79c2c85c25b0625ba0ec21c</title>
<g id="a_edge4"><a xlink:href="dir_000037_000005.html" target="_top">
<path fill="none" stroke="#63b8ff" d="M54.13,-90.09C55.64,-96.99 56.09,-106.93 55.49,-115.66"/>
<polygon fill="#63b8ff" stroke="#63b8ff" points="52,-115.38 54.17,-125.75 58.94,-116.29 52,-115.38"/>
</a>
</g>
<g id="a_edge4&#45;headlabel"><a xlink:href="dir_000037_000005.html" target="_top" xlink:title="2">
<text text-anchor="middle" x="49.65" y="-108.94" font-family="FreeSans" font-size="10.00" fill="#63b8ff">2</text>
</a>
</g>
</g>
<!-- dir_05301f9ba83e223c2c24bb4e5a915266&#45;&gt;dir_048f7c5b69cb7e1832edab50eaa5c4ea -->
<g id="edge3" class="edge">
<title>dir_05301f9ba83e223c2c24bb4e5a915266&#45;&gt;dir_048f7c5b69cb7e1832edab50eaa5c4ea</title>
<g id="a_edge3"><a xlink:href="dir_000037_000068.html" target="_top">
<path fill="none" stroke="#63b8ff" d="M43.83,-70.75C42.34,-63.8 41.9,-53.85 42.52,-45.13"/>
<polygon fill="#63b8ff" stroke="#63b8ff" points="46.01,-45.47 43.87,-35.09 39.07,-44.53 46.01,-45.47"/>
</a>
</g>
<g id="a_edge3&#45;headlabel"><a xlink:href="dir_000037_000068.html" target="_top" xlink:title="96">
<text text-anchor="middle" x="48.34" y="-46.91" font-family="FreeSans" font-size="10.00" fill="#63b8ff">96</text>
</a>
</g>
</g>
<!-- dir_048f7c5b69cb7e1832edab50eaa5c4ea&#45;&gt;dir_05301f9ba83e223c2c24bb4e5a915266 -->
<g id="edge5" class="edge">
<title>dir_048f7c5b69cb7e1832edab50eaa5c4ea&#45;&gt;dir_05301f9ba83e223c2c24bb4e5a915266</title>
<g id="a_edge5"><a xlink:href="dir_000068_000037.html" target="_top">
<path fill="none" stroke="#63b8ff" d="M54.13,-35.09C55.64,-41.99 56.09,-51.93 55.49,-60.66"/>
<polygon fill="#63b8ff" stroke="#63b8ff" points="52,-60.38 54.17,-70.75 58.94,-61.29 52,-60.38"/>
</a>
</g>
<g id="a_edge5&#45;headlabel"><a xlink:href="dir_000068_000037.html" target="_top" xlink:title="1">
<text text-anchor="middle" x="49.65" y="-53.94" font-family="FreeSans" font-size="10.00" fill="#63b8ff">1</text>
</a>
</g>
</g>
</g>
</svg>
