<?xml version="1.0" encoding="UTF-8" standalone="no"?>
<!DOCTYPE svg PUBLIC "-//W3C//DTD SVG 1.1//EN"
 "http://www.w3.org/Graphics/SVG/1.1/DTD/svg11.dtd">
<!-- Generated by graphviz version 2.43.0 (0)
 -->
<!-- Title: mpqc/chemistry/qc/lcao/mbpt Pages: 1 -->
<!--zoomable 196 -->

<svg id="main" version="1.1" xmlns="http://www.w3.org/2000/svg" xmlns:xlink="http://www.w3.org/1999/xlink" xml:space="preserve" onload="init(evt)">
<style type="text/css"><![CDATA[
.node, .edge {opacity: 0.7;}
.node.selected, .edge.selected {opacity: 1;}
.edge:hover path { stroke: red; }
.edge:hover polygon { stroke: red; fill: red; }
]]></style>

<defs>
  <circle id="rim" cx="0" cy="0" r="7"/>
  <circle id="rim2" cx="0" cy="0" r="3.5"/>
  <g id="zoomPlus">
    <use xlink:href="#rim" fill="#404040"><set attributeName="fill" to="#808080" begin="zoomplus.mouseover" end="zoomplus.mouseout"/></use>
    <path d="M-4,0h8M0,-4v8" fill="none" stroke="white" stroke-width="1.5" pointer-events="none"/>
  </g>
  <g id="zoomMin">
    <use xlink:href="#rim" fill="#404040"><set attributeName="fill" to="#808080" begin="zoomminus.mouseover" end="zoomminus.mouseout"/></use>
    <path d="M-4,0h8" fill="none" stroke="white" stroke-width="1.5" pointer-events="none"/>
  </g>
  <g id="arrowUp" transform="translate(30 24)">
    <use xlink:href="#rim"/>
    <path pointer-events="none" fill="none" stroke="white" stroke-width="1.5" d="M0,-3.0v7 M-2.5,-0.5L0,-3.0L2.5,-0.5"/>
  </g>
  <g id="arrowRight" transform="rotate(90) translate(36 -43)">
    <use xlink:href="#rim"/>
    <path pointer-events="none" fill="none" stroke="white" stroke-width="1.5" d="M0,-3.0v7 M-2.5,-0.5L0,-3.0L2.5,-0.5"/>
  </g>
  <g id="arrowDown" transform="rotate(180) translate(-30 -48)">
    <use xlink:href="#rim"/>
    <path pointer-events="none" fill="none" stroke="white" stroke-width="1.5" d="M0,-3.0v7 M-2.5,-0.5L0,-3.0L2.5,-0.5"/>
  </g>
  <g id="arrowLeft" transform="rotate(270) translate(-36 17)">
    <use xlink:href="#rim"/>
    <path pointer-events="none" fill="none" stroke="white" stroke-width="1.5" d="M0,-3.0v7 M-2.5,-0.5L0,-3.0L2.5,-0.5"/>
  </g>
  <g id="resetDef">
    <use xlink:href="#rim2" fill="#404040"><set attributeName="fill" to="#808080" begin="reset.mouseover" end="reset.mouseout"/></use>
  </g>
</defs>
<script type="application/ecmascript">
var viewWidth = 534;
var viewHeight = 196;
var sectionId = 'dynsection-0';
</script>
<script type="application/ecmascript" xlink:href="svg.min.js"/>
<svg id="graph" class="graph">
<g id="viewport">
<title>mpqc/chemistry/qc/lcao/mbpt</title>
<g id="clust1" class="cluster">
<title>clusterdir_f442f60972c0f9169917a25cab152b2a</title>
<g id="a_clust1"><a xlink:href="dir_f442f60972c0f9169917a25cab152b2a.html" target="_top" xlink:title="lcao">
<polygon fill="#daedff" stroke="#7f7f7f" stroke-dasharray="5,2" points="8,-8 8,-180 294,-180 294,-8 8,-8"/>
<text text-anchor="middle" x="151" y="-168" font-family="FreeSans" font-size="10.00">lcao</text>
</a>
</g>
</g>
<g id="clust2" class="cluster">
<title>clusterdir_1c197e94b3211013e52a1ec28efd4d65</title>
<g id="a_clust2"><a xlink:href="dir_1c197e94b3211013e52a1ec28efd4d65.html" target="_top">
<polygon fill="#daedff" stroke="#404040" stroke-width="2" points="100,-63 100,-153 158,-153 158,-63 100,-63"/>
</a>
</g>
</g>
<!-- dir_084478967d5724d8613f7cb2a1dd1c1e -->
<g id="node1" class="node">
<title>dir_084478967d5724d8613f7cb2a1dd1c1e</title>
<g id="a_node1"><a xlink:href="dir_084478967d5724d8613f7cb2a1dd1c1e.html" target="_top" xlink:title="wfn">
<polygon fill="#4ea9ff" stroke="#404040" points="91.5,-90 56.5,-90 56.5,-71 91.5,-71 91.5,-90"/>
<text text-anchor="middle" x="74" y="-78" font-family="FreeSans" font-size="10.00">wfn</text>
</a>
</g>
</g>
<!-- dir_26ae4716acfbd12584c5080db53ae013 -->
<g id="node2" class="node">
<title>dir_26ae4716acfbd12584c5080db53ae013</title>
<g id="a_node2"><a xlink:href="dir_26ae4716acfbd12584c5080db53ae013.html" target="_top" xlink:title="factory">
<polygon fill="#4ea9ff" stroke="red" points="151.5,-35 100.5,-35 100.5,-16 151.5,-16 151.5,-35"/>
<text text-anchor="middle" x="126" y="-23" font-family="FreeSans" font-size="10.00">factory</text>
</a>
</g>
</g>
<!-- dir_b3025fc6edd0cbb07d65f3b6940386b4 -->
<g id="node3" class="node">
<title>dir_b3025fc6edd0cbb07d65f3b6940386b4</title>
<g id="a_node3"><a xlink:href="dir_b3025fc6edd0cbb07d65f3b6940386b4.html" target="_top" xlink:title="integrals">
<polygon fill="#4ea9ff" stroke="red" points="80.5,-35 21.5,-35 21.5,-16 80.5,-16 80.5,-35"/>
<text text-anchor="middle" x="51" y="-23" font-family="FreeSans" font-size="10.00">integrals</text>
</a>
</g>
</g>
<!-- dir_ccca7abcd5dfb15bb9fa9e68acbdf5bb -->
<g id="node4" class="node">
<title>dir_ccca7abcd5dfb15bb9fa9e68acbdf5bb</title>
<g id="a_node4"><a xlink:href="dir_ccca7abcd5dfb15bb9fa9e68acbdf5bb.html" target="_top" xlink:title="expression">
<polygon fill="#4ea9ff" stroke="#404040" points="236,-90 166,-90 166,-71 236,-71 236,-90"/>
<text text-anchor="middle" x="201" y="-78" font-family="FreeSans" font-size="10.00">expression</text>
</a>
</g>
</g>
<!-- dir_df3125d2ade78274bdfc2ee26337a54d -->
<g id="node5" class="node">
<title>dir_df3125d2ade78274bdfc2ee26337a54d</title>
<g id="a_node5"><a xlink:href="dir_df3125d2ade78274bdfc2ee26337a54d.html" target="_top" xlink:title="scf">
<polygon fill="#4ea9ff" stroke="red" points="285.5,-90 254.5,-90 254.5,-71 285.5,-71 285.5,-90"/>
<text text-anchor="middle" x="270" y="-78" font-family="FreeSans" font-size="10.00">scf</text>
</a>
</g>
</g>
<!-- dir_1c197e94b3211013e52a1ec28efd4d65 -->
<g id="node6" class="node">
<title>dir_1c197e94b3211013e52a1ec28efd4d65</title>
<text text-anchor="middle" x="129" y="-133" font-family="FreeSans" font-size="10.00">mbpt</text>
</g>
<!-- dir_1c197e94b3211013e52a1ec28efd4d65&#45;&gt;dir_084478967d5724d8613f7cb2a1dd1c1e -->
<g id="edge3" class="edge">
<title>dir_1c197e94b3211013e52a1ec28efd4d65&#45;&gt;dir_084478967d5724d8613f7cb2a1dd1c1e</title>
<g id="a_edge3"><a xlink:href="dir_000038_000070.html" target="_top">
<path fill="none" stroke="#63b8ff" d="M119.92,-125.75C111.91,-118.03 100.04,-106.6 90.38,-97.28"/>
<polygon fill="#63b8ff" stroke="#63b8ff" points="92.54,-94.51 82.91,-90.09 87.69,-99.55 92.54,-94.51"/>
</a>
</g>
<g id="a_edge3&#45;headlabel"><a xlink:href="dir_000038_000070.html" target="_top" xlink:title="7">
<text text-anchor="middle" x="97.1" y="-92.46" font-family="FreeSans" font-size="10.00" fill="#63b8ff">7</text>
</a>
</g>
</g>
<!-- dir_1c197e94b3211013e52a1ec28efd4d65&#45;&gt;dir_26ae4716acfbd12584c5080db53ae013 -->
<g id="edge4" class="edge">
<title>dir_1c197e94b3211013e52a1ec28efd4d65&#45;&gt;dir_26ae4716acfbd12584c5080db53ae013</title>
<g id="a_edge4"><a xlink:href="dir_000038_000024.html" target="_top">
<path fill="none" stroke="#63b8ff" d="M107.9,-129.6C88.26,-123.79 60.09,-111.99 47,-90 40.86,-79.69 40.53,-73.11 47,-63 52.23,-54.82 72.14,-45.65 90.66,-38.54"/>
<polygon fill="#63b8ff" stroke="#63b8ff" points="91.97,-41.79 100.13,-35.03 89.54,-35.23 91.97,-41.79"/>
</a>
</g>
<g id="a_edge4&#45;headlabel"><a xlink:href="dir_000038_000024.html" target="_top" xlink:title="5">
<text text-anchor="middle" x="89.59" y="-43.2" font-family="FreeSans" font-size="10.00" fill="#63b8ff">5</text>
</a>
</g>
</g>
<!-- dir_1c197e94b3211013e52a1ec28efd4d65&#45;&gt;dir_b3025fc6edd0cbb07d65f3b6940386b4 -->
<g id="edge7" class="edge">
<title>dir_1c197e94b3211013e52a1ec28efd4d65&#45;&gt;dir_b3025fc6edd0cbb07d65f3b6940386b4</title>
<g id="a_edge7"><a xlink:href="dir_000038_000030.html" target="_top">
<path fill="none" stroke="#63b8ff" d="M107.93,-130.7C86.38,-125.58 53.99,-114.14 39,-90 30.41,-76.18 35.41,-57.64 41.35,-44.16"/>
<polygon fill="#63b8ff" stroke="#63b8ff" points="44.58,-45.52 45.87,-35 38.31,-42.42 44.58,-45.52"/>
</a>
</g>
<g id="a_edge7&#45;headlabel"><a xlink:href="dir_000038_000030.html" target="_top" xlink:title="5">
<text text-anchor="middle" x="45.54" y="-47.5" font-family="FreeSans" font-size="10.00" fill="#63b8ff">5</text>
</a>
</g>
</g>
<!-- dir_1c197e94b3211013e52a1ec28efd4d65&#45;&gt;dir_ccca7abcd5dfb15bb9fa9e68acbdf5bb -->
<g id="edge8" class="edge">
<title>dir_1c197e94b3211013e52a1ec28efd4d65&#45;&gt;dir_ccca7abcd5dfb15bb9fa9e68acbdf5bb</title>
<g id="a_edge8"><a xlink:href="dir_000038_000019.html" target="_top">
<path fill="none" stroke="#63b8ff" d="M140.57,-125.98C151.42,-118 167.88,-105.88 180.88,-96.31"/>
<polygon fill="#63b8ff" stroke="#63b8ff" points="183.24,-98.92 189.22,-90.17 179.09,-93.28 183.24,-98.92"/>
</a>
</g>
<g id="a_edge8&#45;headlabel"><a xlink:href="dir_000038_000019.html" target="_top" xlink:title="1">
<text text-anchor="middle" x="182.03" y="-100.83" font-family="FreeSans" font-size="10.00" fill="#63b8ff">1</text>
</a>
</g>
</g>
<!-- dir_1c197e94b3211013e52a1ec28efd4d65&#45;&gt;dir_df3125d2ade78274bdfc2ee26337a54d -->
<g id="edge9" class="edge">
<title>dir_1c197e94b3211013e52a1ec28efd4d65&#45;&gt;dir_df3125d2ade78274bdfc2ee26337a54d</title>
<g id="a_edge9"><a xlink:href="dir_000038_000057.html" target="_top">
<path fill="none" stroke="#63b8ff" d="M150.11,-126.57C175.45,-117.04 217.9,-101.08 244.9,-90.94"/>
<polygon fill="#63b8ff" stroke="#63b8ff" points="246.29,-94.15 254.42,-87.36 243.83,-87.6 246.29,-94.15"/>
</a>
</g>
<g id="a_edge9&#45;headlabel"><a xlink:href="dir_000038_000057.html" target="_top" xlink:title="3">
<text text-anchor="middle" x="243.93" y="-95.57" font-family="FreeSans" font-size="10.00" fill="#63b8ff">3</text>
</a>
</g>
</g>
<!-- dir_5650b273d5add66acffa938a5ee80710 -->
<g id="node7" class="node">
<title>dir_5650b273d5add66acffa938a5ee80710</title>
<g id="a_node7"><a xlink:href="dir_5650b273d5add66acffa938a5ee80710.html" target="_top" xlink:title="pno">
<polygon fill="#4ea9ff" stroke="#404040" points="146.5,-90 111.5,-90 111.5,-71 146.5,-71 146.5,-90"/>
<text text-anchor="middle" x="129" y="-78" font-family="FreeSans" font-size="10.00">pno</text>
</a>
</g>
</g>
<!-- dir_1c197e94b3211013e52a1ec28efd4d65&#45;&gt;dir_5650b273d5add66acffa938a5ee80710 -->
<g id="edge5" class="edge">
<title>dir_1c197e94b3211013e52a1ec28efd4d65&#45;&gt;dir_5650b273d5add66acffa938a5ee80710</title>
<g id="a_edge5"><a xlink:href="dir_000038_000050.html" target="_top">
<path fill="none" stroke="#63b8ff" d="M129,-125.75C129,-118.8 129,-108.85 129,-100.13"/>
<polygon fill="#63b8ff" stroke="#63b8ff" points="132.5,-100.09 129,-90.09 125.5,-100.09 132.5,-100.09"/>
</a>
</g>
<g id="a_edge5&#45;headlabel"><a xlink:href="dir_000038_000050.html" target="_top" xlink:title="8">
<text text-anchor="middle" x="135.34" y="-101.18" font-family="FreeSans" font-size="10.00" fill="#63b8ff">8</text>
</a>
</g>
</g>
<!-- dir_048f7c5b69cb7e1832edab50eaa5c4ea -->
<g id="node8" class="node">
<title>dir_048f7c5b69cb7e1832edab50eaa5c4ea</title>
<g id="a_node8"><a xlink:href="dir_048f7c5b69cb7e1832edab50eaa5c4ea.html" target="_top" xlink:title="util">
<polygon fill="#daedff" stroke="red" stroke-dasharray="5,2" points="334,-35 302,-35 302,-16 334,-16 334,-35"/>
<text text-anchor="middle" x="318" y="-23" font-family="FreeSans" font-size="10.00">util</text>
</a>
</g>
</g>
<!-- dir_1c197e94b3211013e52a1ec28efd4d65&#45;&gt;dir_048f7c5b69cb7e1832edab50eaa5c4ea -->
<g id="edge1" class="edge">
<title>dir_1c197e94b3211013e52a1ec28efd4d65&#45;&gt;dir_048f7c5b69cb7e1832edab50eaa5c4ea</title>
<g id="a_edge1"><a xlink:href="dir_000038_000068.html" target="_top">
<path fill="none" stroke="#63b8ff" d="M150.26,-135.08C185.69,-134.85 256.94,-129.15 298,-90 310.15,-78.42 314.95,-59.55 316.83,-45.38"/>
<polygon fill="#63b8ff" stroke="#63b8ff" points="320.33,-45.55 317.8,-35.26 313.36,-44.88 320.33,-45.55"/>
</a>
</g>
<g id="a_edge1&#45;headlabel"><a xlink:href="dir_000038_000068.html" target="_top" xlink:title="30">
<text text-anchor="middle" x="322.81" y="-46.9" font-family="FreeSans" font-size="10.00" fill="#63b8ff">30</text>
</a>
</g>
</g>
<!-- dir_05301f9ba83e223c2c24bb4e5a915266 -->
<g id="node9" class="node">
<title>dir_05301f9ba83e223c2c24bb4e5a915266</title>
<g id="a_node9"><a xlink:href="dir_05301f9ba83e223c2c24bb4e5a915266.html" target="_top" xlink:title="math">
<polygon fill="#daedff" stroke="red" stroke-dasharray="5,2" points="394,-35 352,-35 352,-16 394,-16 394,-35"/>
<text text-anchor="middle" x="373" y="-23" font-family="FreeSans" font-size="10.00">math</text>
</a>
</g>
</g>
<!-- dir_1c197e94b3211013e52a1ec28efd4d65&#45;&gt;dir_05301f9ba83e223c2c24bb4e5a915266 -->
<g id="edge2" class="edge">
<title>dir_1c197e94b3211013e52a1ec28efd4d65&#45;&gt;dir_05301f9ba83e223c2c24bb4e5a915266</title>
<g id="a_edge2"><a xlink:href="dir_000038_000037.html" target="_top">
<path fill="none" stroke="#63b8ff" d="M150.14,-133.89C187.21,-131.92 265.21,-123.75 320,-90 338.65,-78.51 353.9,-58.16 363.17,-43.59"/>
<polygon fill="#63b8ff" stroke="#63b8ff" points="366.19,-45.37 368.38,-35 360.2,-41.74 366.19,-45.37"/>
</a>
</g>
<g id="a_edge2&#45;headlabel"><a xlink:href="dir_000038_000037.html" target="_top" xlink:title="34">
<text text-anchor="middle" x="366.75" y="-47.42" font-family="FreeSans" font-size="10.00" fill="#63b8ff">34</text>
</a>
</g>
</g>
<!-- dir_79e09b370f6f9aca9214ea225a19a126 -->
<g id="node10" class="node">
<title>dir_79e09b370f6f9aca9214ea225a19a126</title>
<g id="a_node10"><a xlink:href="dir_79e09b370f6f9aca9214ea225a19a126.html" target="_top" xlink:title="molecule">
<polygon fill="#daedff" stroke="red" stroke-dasharray="5,2" points="442,-90 380,-90 380,-71 442,-71 442,-90"/>
<text text-anchor="middle" x="411" y="-78" font-family="FreeSans" font-size="10.00">molecule</text>
</a>
</g>
</g>
<!-- dir_1c197e94b3211013e52a1ec28efd4d65&#45;&gt;dir_79e09b370f6f9aca9214ea225a19a126 -->
<g id="edge6" class="edge">
<title>dir_1c197e94b3211013e52a1ec28efd4d65&#45;&gt;dir_79e09b370f6f9aca9214ea225a19a126</title>
<g id="a_edge6"><a xlink:href="dir_000038_000043.html" target="_top">
<path fill="none" stroke="#63b8ff" d="M150.25,-130.52C191.72,-122.74 286.39,-104.99 366,-90 367.09,-89.79 368.2,-89.59 369.32,-89.37"/>
<polygon fill="#63b8ff" stroke="#63b8ff" points="370.35,-92.74 379.53,-87.45 369.05,-85.86 370.35,-92.74"/>
</a>
</g>
<g id="a_edge6&#45;headlabel"><a xlink:href="dir_000038_000043.html" target="_top" xlink:title="1">
<text text-anchor="middle" x="367.35" y="-93.7" font-family="FreeSans" font-size="10.00" fill="#63b8ff">1</text>
</a>
</g>
</g>
<!-- dir_dfad333b26ae1d260f0bd4d9efde2293 -->
<g id="node11" class="node">
<title>dir_dfad333b26ae1d260f0bd4d9efde2293</title>
<g id="a_node11"><a xlink:href="dir_dfad333b26ae1d260f0bd4d9efde2293.html" target="_top" xlink:title="properties">
<polygon fill="#daedff" stroke="#7f7f7f" points="526,-90 460,-90 460,-71 526,-71 526,-90"/>
<text text-anchor="middle" x="493" y="-78" font-family="FreeSans" font-size="10.00">properties</text>
</a>
</g>
</g>
<!-- dir_1c197e94b3211013e52a1ec28efd4d65&#45;&gt;dir_dfad333b26ae1d260f0bd4d9efde2293 -->
<g id="edge10" class="edge">
<title>dir_1c197e94b3211013e52a1ec28efd4d65&#45;&gt;dir_dfad333b26ae1d260f0bd4d9efde2293</title>
<g id="a_edge10"><a xlink:href="dir_000038_000051.html" target="_top">
<path fill="none" stroke="#63b8ff" d="M150.17,-132.04C200.35,-126.1 330.67,-110.12 449.57,-90.16"/>
<polygon fill="#63b8ff" stroke="#63b8ff" points="450.29,-93.58 459.56,-88.46 449.12,-86.68 450.29,-93.58"/>
</a>
</g>
<g id="a_edge10&#45;headlabel"><a xlink:href="dir_000038_000051.html" target="_top" xlink:title="3">
<text text-anchor="middle" x="447.22" y="-94.48" font-family="FreeSans" font-size="10.00" fill="#63b8ff">3</text>
</a>
</g>
</g>
<!-- dir_5650b273d5add66acffa938a5ee80710&#45;&gt;dir_26ae4716acfbd12584c5080db53ae013 -->
<g id="edge13" class="edge">
<title>dir_5650b273d5add66acffa938a5ee80710&#45;&gt;dir_26ae4716acfbd12584c5080db53ae013</title>
<g id="a_edge13"><a xlink:href="dir_000050_000024.html" target="_top">
<path fill="none" stroke="#63b8ff" d="M128.5,-70.75C128.11,-63.8 127.55,-53.85 127.05,-45.13"/>
<polygon fill="#63b8ff" stroke="#63b8ff" points="130.55,-44.88 126.49,-35.09 123.56,-45.27 130.55,-44.88"/>
</a>
</g>
<g id="a_edge13&#45;headlabel"><a xlink:href="dir_000050_000024.html" target="_top" xlink:title="2">
<text text-anchor="middle" x="133.58" y="-45.8" font-family="FreeSans" font-size="10.00" fill="#63b8ff">2</text>
</a>
</g>
</g>
<!-- dir_5650b273d5add66acffa938a5ee80710&#45;&gt;dir_b3025fc6edd0cbb07d65f3b6940386b4 -->
<g id="edge14" class="edge">
<title>dir_5650b273d5add66acffa938a5ee80710&#45;&gt;dir_b3025fc6edd0cbb07d65f3b6940386b4</title>
<g id="a_edge14"><a xlink:href="dir_000050_000030.html" target="_top">
<path fill="none" stroke="#63b8ff" d="M117.91,-70.96C114.45,-68.36 110.6,-65.52 107,-63 96.12,-55.38 83.77,-47.28 73.44,-40.65"/>
<polygon fill="#63b8ff" stroke="#63b8ff" points="75.29,-37.68 64.98,-35.25 71.53,-43.58 75.29,-37.68"/>
</a>
</g>
<g id="a_edge14&#45;headlabel"><a xlink:href="dir_000050_000030.html" target="_top" xlink:title="1">
<text text-anchor="middle" x="79.85" y="-34.72" font-family="FreeSans" font-size="10.00" fill="#63b8ff">1</text>
</a>
</g>
</g>
<!-- dir_5650b273d5add66acffa938a5ee80710&#45;&gt;dir_048f7c5b69cb7e1832edab50eaa5c4ea -->
<g id="edge11" class="edge">
<title>dir_5650b273d5add66acffa938a5ee80710&#45;&gt;dir_048f7c5b69cb7e1832edab50eaa5c4ea</title>
<g id="a_edge11"><a xlink:href="dir_000050_000068.html" target="_top">
<path fill="none" stroke="#63b8ff" d="M138.19,-70.72C141.65,-67.86 145.78,-64.92 150,-63 207.97,-36.66 231.6,-52.67 292.3,-36.44"/>
<polygon fill="#63b8ff" stroke="#63b8ff" points="293.31,-39.79 301.96,-33.67 291.38,-33.06 293.31,-39.79"/>
</a>
</g>
<g id="a_edge11&#45;headlabel"><a xlink:href="dir_000050_000068.html" target="_top" xlink:title="14">
<text text-anchor="middle" x="290.63" y="-41.01" font-family="FreeSans" font-size="10.00" fill="#63b8ff">14</text>
</a>
</g>
</g>
<!-- dir_5650b273d5add66acffa938a5ee80710&#45;&gt;dir_05301f9ba83e223c2c24bb4e5a915266 -->
<g id="edge12" class="edge">
<title>dir_5650b273d5add66acffa938a5ee80710&#45;&gt;dir_05301f9ba83e223c2c24bb4e5a915266</title>
<g id="a_edge12"><a xlink:href="dir_000050_000037.html" target="_top">
<path fill="none" stroke="#63b8ff" d="M137.73,-70.97C141.27,-67.98 145.57,-64.9 150,-63 226.78,-30.08 256.1,-51.4 341.89,-34.91"/>
<polygon fill="#63b8ff" stroke="#63b8ff" points="342.68,-38.32 351.78,-32.89 341.28,-31.46 342.68,-38.32"/>
</a>
</g>
<g id="a_edge12&#45;headlabel"><a xlink:href="dir_000050_000037.html" target="_top" xlink:title="23">
<text text-anchor="middle" x="339.73" y="-39.32" font-family="FreeSans" font-size="10.00" fill="#63b8ff">23</text>
</a>
</g>
</g>
</g>
</svg>

<g id="navigator" transform="translate(0 0)" fill="#404254">
  <rect fill="#f2f5e9" fill-opacity="0.5" stroke="#606060" stroke-width=".5" x="0" y="0" width="60" height="60"/>
  <use id="zoomplus" xlink:href="#zoomPlus" x="17" y="9" onmousedown="handleZoom(evt,'in')"/>
  <use id="zoomminus" xlink:href="#zoomMin" x="42" y="9" onmousedown="handleZoom(evt,'out')"/>
  <use id="reset" xlink:href="#resetDef" x="30" y="36" onmousedown="handleReset()"/>
   <use id="arrowup" xlink:href="#arrowUp" x="0" y="0" onmousedown="handlePan(0,-1)"/>
  <use id="arrowright" xlink:href="#arrowRight" x="0" y="0" onmousedown="handlePan(1,0)"/>
  <use id="arrowdown" xlink:href="#arrowDown" x="0" y="0" onmousedown="handlePan(0,1)"/>
  <use id="arrowleft" xlink:href="#arrowLeft" x="0" y="0" onmousedown="handlePan(-1,0)"/>
</g>
<svg viewBox="0 0 15 15" width="100%" height="30px" preserveAspectRatio="xMaxYMin meet">
 <g id="arrow_out" transform="scale(0.3 0.3)">
  <a xlink:href="dir_1c197e94b3211013e52a1ec28efd4d65_dep_org.svg" target="_base">
   <rect id="button" ry="5" rx="5" y="6" x="6" height="38" width="38"
        fill="#f2f5e9" fill-opacity="0.5" stroke="#606060" stroke-width="1.0"/>
   <path id="arrow"
     d="M 11.500037,31.436501 C 11.940474,20.09759 22.043105,11.32322 32.158766,21.979434 L 37.068811,17.246167 C 37.068811,17.246167 37.088388,32 37.088388,32 L 22.160133,31.978069 C 22.160133,31.978069 26.997745,27.140456 26.997745,27.140456 C 18.528582,18.264221 13.291696,25.230495 11.500037,31.436501 z"
     style="fill:#404040;"/>
  </a>
 </g>
</svg>

<style type='text/css'>
<![CDATA[
[data-mouse-over-selected='false'] { opacity: 0.7; }
[data-mouse-over-selected='true']  { opacity: 1.0; }
]]>
</style>
<script type="application/ecmascript"><![CDATA[
document.addEventListener('DOMContentLoaded', (event) => {
  highlightEdges();
  highlightAdjacentNodes();
});
]]></script>
</svg>
