<?xml version="1.0" encoding="UTF-8" standalone="no"?>
<!DOCTYPE svg PUBLIC "-//W3C//DTD SVG 1.1//EN"
 "http://www.w3.org/Graphics/SVG/1.1/DTD/svg11.dtd">
<!-- Generated by graphviz version 2.43.0 (0)
 -->
<!-- Title: mpqc/chemistry/qc/lcao/factory/gaussian Pages: 1 -->
<!--zoomable 117 -->

<svg id="main" version="1.1" xmlns="http://www.w3.org/2000/svg" xmlns:xlink="http://www.w3.org/1999/xlink" xml:space="preserve" onload="init(evt)">
<style type="text/css"><![CDATA[
.node, .edge {opacity: 0.7;}
.node.selected, .edge.selected {opacity: 1;}
.edge:hover path { stroke: red; }
.edge:hover polygon { stroke: red; fill: red; }
]]></style>

<defs>
  <circle id="rim" cx="0" cy="0" r="7"/>
  <circle id="rim2" cx="0" cy="0" r="3.5"/>
  <g id="zoomPlus">
    <use xlink:href="#rim" fill="#404040"><set attributeName="fill" to="#808080" begin="zoomplus.mouseover" end="zoomplus.mouseout"/></use>
    <path d="M-4,0h8M0,-4v8" fill="none" stroke="white" stroke-width="1.5" pointer-events="none"/>
  </g>
  <g id="zoomMin">
    <use xlink:href="#rim" fill="#404040"><set attributeName="fill" to="#808080" begin="zoomminus.mouseover" end="zoomminus.mouseout"/></use>
    <path d="M-4,0h8" fill="none" stroke="white" stroke-width="1.5" pointer-events="none"/>
  </g>
  <g id="arrowUp" transform="translate(30 24)">
    <use xlink:href="#rim"/>
    <path pointer-events="none" fill="none" stroke="white" stroke-width="1.5" d="M0,-3.0v7 M-2.5,-0.5L0,-3.0L2.5,-0.5"/>
  </g>
  <g id="arrowRight" transform="rotate(90) translate(36 -43)">
    <use xlink:href="#rim"/>
    <path pointer-events="none" fill="none" stroke="white" stroke-width="1.5" d="M0,-3.0v7 M-2.5,-0.5L0,-3.0L2.5,-0.5"/>
  </g>
  <g id="arrowDown" transform="rotate(180) translate(-30 -48)">
    <use xlink:href="#rim"/>
    <path pointer-events="none" fill="none" stroke="white" stroke-width="1.5" d="M0,-3.0v7 M-2.5,-0.5L0,-3.0L2.5,-0.5"/>
  </g>
  <g id="arrowLeft" transform="rotate(270) translate(-36 17)">
    <use xlink:href="#rim"/>
    <path pointer-events="none" fill="none" stroke="white" stroke-width="1.5" d="M0,-3.0v7 M-2.5,-0.5L0,-3.0L2.5,-0.5"/>
  </g>
  <g id="resetDef">
    <use xlink:href="#rim2" fill="#404040"><set attributeName="fill" to="#808080" begin="reset.mouseover" end="reset.mouseout"/></use>
  </g>
</defs>
<script type="application/ecmascript">
var viewWidth = 653;
var viewHeight = 117;
var sectionId = 'dynsection-0';
</script>
<script type="application/ecmascript" xlink:href="svg.min.js"/>
<svg id="graph" class="graph">
<g id="viewport">
<title>mpqc/chemistry/qc/lcao/factory/gaussian</title>
<g id="clust1" class="cluster">
<title>clusterdir_26ae4716acfbd12584c5080db53ae013</title>
<g id="a_clust1"><a xlink:href="dir_26ae4716acfbd12584c5080db53ae013.html" target="_top" xlink:title="factory">
<polygon fill="#daedff" stroke="#7f7f7f" stroke-dasharray="5,2" points="256,-47 256,-101 332,-101 332,-47 256,-47"/>
<text text-anchor="middle" x="294" y="-89" font-family="FreeSans" font-size="10.00">factory</text>
</a>
</g>
</g>
<!-- dir_c847bef7ec4c27743bf259a287b994bb -->
<g id="node1" class="node">
<title>dir_c847bef7ec4c27743bf259a287b994bb</title>
<g id="a_node1"><a xlink:href="dir_c847bef7ec4c27743bf259a287b994bb.html" target="_top" xlink:title="gaussian">
<polygon fill="#daedff" stroke="#404040" stroke-width="2" points="324,-74 264,-74 264,-55 324,-55 324,-74"/>
<text text-anchor="middle" x="294" y="-62" font-family="FreeSans" font-size="10.00">gaussian</text>
</a>
</g>
</g>
<!-- dir_048f7c5b69cb7e1832edab50eaa5c4ea -->
<g id="node2" class="node">
<title>dir_048f7c5b69cb7e1832edab50eaa5c4ea</title>
<g id="a_node2"><a xlink:href="dir_048f7c5b69cb7e1832edab50eaa5c4ea.html" target="_top" xlink:title="util">
<polygon fill="#daedff" stroke="red" stroke-dasharray="5,2" points="32,-19 0,-19 0,0 32,0 32,-19"/>
<text text-anchor="middle" x="16" y="-7" font-family="FreeSans" font-size="10.00">util</text>
</a>
</g>
</g>
<!-- dir_c847bef7ec4c27743bf259a287b994bb&#45;&gt;dir_048f7c5b69cb7e1832edab50eaa5c4ea -->
<g id="edge1" class="edge">
<title>dir_c847bef7ec4c27743bf259a287b994bb&#45;&gt;dir_048f7c5b69cb7e1832edab50eaa5c4ea</title>
<g id="a_edge1"><a xlink:href="dir_000028_000068.html" target="_top">
<path fill="none" stroke="#63b8ff" d="M263.69,-59.7C217.67,-53.61 127.31,-40.35 41.88,-18.87"/>
<polygon fill="#63b8ff" stroke="#63b8ff" points="42.58,-15.44 32.03,-16.35 40.85,-22.22 42.58,-15.44"/>
</a>
</g>
<g id="a_edge1&#45;headlabel"><a xlink:href="dir_000028_000068.html" target="_top" xlink:title="14">
<text text-anchor="middle" x="46.77" y="-11.08" font-family="FreeSans" font-size="10.00" fill="#63b8ff">14</text>
</a>
</g>
</g>
<!-- dir_05301f9ba83e223c2c24bb4e5a915266 -->
<g id="node3" class="node">
<title>dir_05301f9ba83e223c2c24bb4e5a915266</title>
<g id="a_node3"><a xlink:href="dir_05301f9ba83e223c2c24bb4e5a915266.html" target="_top" xlink:title="math">
<polygon fill="#daedff" stroke="red" stroke-dasharray="5,2" points="92,-19 50,-19 50,0 92,0 92,-19"/>
<text text-anchor="middle" x="71" y="-7" font-family="FreeSans" font-size="10.00">math</text>
</a>
</g>
</g>
<!-- dir_c847bef7ec4c27743bf259a287b994bb&#45;&gt;dir_05301f9ba83e223c2c24bb4e5a915266 -->
<g id="edge2" class="edge">
<title>dir_c847bef7ec4c27743bf259a287b994bb&#45;&gt;dir_05301f9ba83e223c2c24bb4e5a915266</title>
<g id="a_edge2"><a xlink:href="dir_000028_000037.html" target="_top">
<path fill="none" stroke="#63b8ff" d="M263.8,-57.02C227.65,-49.16 165.06,-35.22 102.33,-19.25"/>
<polygon fill="#63b8ff" stroke="#63b8ff" points="102.83,-15.76 92.27,-16.67 101.09,-22.54 102.83,-15.76"/>
</a>
</g>
<g id="a_edge2&#45;headlabel"><a xlink:href="dir_000028_000037.html" target="_top" xlink:title="12">
<text text-anchor="middle" x="107.01" y="-11.4" font-family="FreeSans" font-size="10.00" fill="#63b8ff">12</text>
</a>
</g>
</g>
<!-- dir_072b070bc725d6a2db76c22b2c6e8476 -->
<g id="node4" class="node">
<title>dir_072b070bc725d6a2db76c22b2c6e8476</title>
<g id="a_node4"><a xlink:href="dir_072b070bc725d6a2db76c22b2c6e8476.html" target="_top" xlink:title="units">
<polygon fill="#daedff" stroke="#7f7f7f" points="151.5,-19 110.5,-19 110.5,0 151.5,0 151.5,-19"/>
<text text-anchor="middle" x="131" y="-7" font-family="FreeSans" font-size="10.00">units</text>
</a>
</g>
</g>
<!-- dir_c847bef7ec4c27743bf259a287b994bb&#45;&gt;dir_072b070bc725d6a2db76c22b2c6e8476 -->
<g id="edge3" class="edge">
<title>dir_c847bef7ec4c27743bf259a287b994bb&#45;&gt;dir_072b070bc725d6a2db76c22b2c6e8476</title>
<g id="a_edge3"><a xlink:href="dir_000028_000066.html" target="_top">
<path fill="none" stroke="#63b8ff" d="M267.81,-54.98C238.87,-45.57 192.3,-30.43 161.67,-20.47"/>
<polygon fill="#63b8ff" stroke="#63b8ff" points="162.53,-17.07 151.94,-17.31 160.37,-23.73 162.53,-17.07"/>
</a>
</g>
<g id="a_edge3&#45;headlabel"><a xlink:href="dir_000028_000066.html" target="_top" xlink:title="2">
<text text-anchor="middle" x="166.83" y="-12.98" font-family="FreeSans" font-size="10.00" fill="#63b8ff">2</text>
</a>
</g>
</g>
<!-- dir_50885d8df49e326e988828eb2c569376 -->
<g id="node5" class="node">
<title>dir_50885d8df49e326e988828eb2c569376</title>
<g id="a_node5"><a xlink:href="dir_50885d8df49e326e988828eb2c569376.html" target="_top" xlink:title="basis">
<polygon fill="#daedff" stroke="red" stroke-dasharray="5,2" points="212,-19 170,-19 170,0 212,0 212,-19"/>
<text text-anchor="middle" x="191" y="-7" font-family="FreeSans" font-size="10.00">basis</text>
</a>
</g>
</g>
<!-- dir_c847bef7ec4c27743bf259a287b994bb&#45;&gt;dir_50885d8df49e326e988828eb2c569376 -->
<g id="edge4" class="edge">
<title>dir_c847bef7ec4c27743bf259a287b994bb&#45;&gt;dir_50885d8df49e326e988828eb2c569376</title>
<g id="a_edge4"><a xlink:href="dir_000028_000000.html" target="_top">
<path fill="none" stroke="#63b8ff" d="M277.45,-54.98C261.11,-46.57 235.87,-33.59 216.87,-23.81"/>
<polygon fill="#63b8ff" stroke="#63b8ff" points="218.34,-20.63 207.85,-19.17 215.14,-26.86 218.34,-20.63"/>
</a>
</g>
<g id="a_edge4&#45;headlabel"><a xlink:href="dir_000028_000000.html" target="_top" xlink:title="10">
<text text-anchor="middle" x="222.84" y="-17.25" font-family="FreeSans" font-size="10.00" fill="#63b8ff">10</text>
</a>
</g>
</g>
<!-- dir_79e09b370f6f9aca9214ea225a19a126 -->
<g id="node6" class="node">
<title>dir_79e09b370f6f9aca9214ea225a19a126</title>
<g id="a_node6"><a xlink:href="dir_79e09b370f6f9aca9214ea225a19a126.html" target="_top" xlink:title="molecule">
<polygon fill="#daedff" stroke="red" stroke-dasharray="5,2" points="292,-19 230,-19 230,0 292,0 292,-19"/>
<text text-anchor="middle" x="261" y="-7" font-family="FreeSans" font-size="10.00">molecule</text>
</a>
</g>
</g>
<!-- dir_c847bef7ec4c27743bf259a287b994bb&#45;&gt;dir_79e09b370f6f9aca9214ea225a19a126 -->
<g id="edge5" class="edge">
<title>dir_c847bef7ec4c27743bf259a287b994bb&#45;&gt;dir_79e09b370f6f9aca9214ea225a19a126</title>
<g id="a_edge5"><a xlink:href="dir_000028_000043.html" target="_top">
<path fill="none" stroke="#63b8ff" d="M288.55,-54.75C283.99,-47.42 277.33,-36.73 271.71,-27.7"/>
<polygon fill="#63b8ff" stroke="#63b8ff" points="274.6,-25.73 266.35,-19.09 268.66,-29.43 274.6,-25.73"/>
</a>
</g>
<g id="a_edge5&#45;headlabel"><a xlink:href="dir_000028_000043.html" target="_top" xlink:title="7">
<text text-anchor="middle" x="278.91" y="-24.78" font-family="FreeSans" font-size="10.00" fill="#63b8ff">7</text>
</a>
</g>
</g>
<!-- dir_a7213113f97575cf4c1220ecd9faa952 -->
<g id="node7" class="node">
<title>dir_a7213113f97575cf4c1220ecd9faa952</title>
<g id="a_node7"><a xlink:href="dir_a7213113f97575cf4c1220ecd9faa952.html" target="_top" xlink:title="wfn">
<polygon fill="#daedff" stroke="#7f7f7f" points="345.5,-19 310.5,-19 310.5,0 345.5,0 345.5,-19"/>
<text text-anchor="middle" x="328" y="-7" font-family="FreeSans" font-size="10.00">wfn</text>
</a>
</g>
</g>
<!-- dir_c847bef7ec4c27743bf259a287b994bb&#45;&gt;dir_a7213113f97575cf4c1220ecd9faa952 -->
<g id="edge6" class="edge">
<title>dir_c847bef7ec4c27743bf259a287b994bb&#45;&gt;dir_a7213113f97575cf4c1220ecd9faa952</title>
<g id="a_edge6"><a xlink:href="dir_000028_000072.html" target="_top">
<path fill="none" stroke="#63b8ff" d="M299.61,-54.75C304.32,-47.42 311.17,-36.73 316.97,-27.7"/>
<polygon fill="#63b8ff" stroke="#63b8ff" points="320.04,-29.4 322.49,-19.09 314.14,-25.62 320.04,-29.4"/>
</a>
</g>
<g id="a_edge6&#45;headlabel"><a xlink:href="dir_000028_000072.html" target="_top" xlink:title="3">
<text text-anchor="middle" x="320.49" y="-31.45" font-family="FreeSans" font-size="10.00" fill="#63b8ff">3</text>
</a>
</g>
</g>
<!-- dir_b3025fc6edd0cbb07d65f3b6940386b4 -->
<g id="node8" class="node">
<title>dir_b3025fc6edd0cbb07d65f3b6940386b4</title>
<g id="a_node8"><a xlink:href="dir_b3025fc6edd0cbb07d65f3b6940386b4.html" target="_top" xlink:title="integrals">
<polygon fill="#daedff" stroke="red" stroke-dasharray="5,2" points="422.5,-19 363.5,-19 363.5,0 422.5,0 422.5,-19"/>
<text text-anchor="middle" x="393" y="-7" font-family="FreeSans" font-size="10.00">integrals</text>
</a>
</g>
</g>
<!-- dir_c847bef7ec4c27743bf259a287b994bb&#45;&gt;dir_b3025fc6edd0cbb07d65f3b6940386b4 -->
<g id="edge7" class="edge">
<title>dir_c847bef7ec4c27743bf259a287b994bb&#45;&gt;dir_b3025fc6edd0cbb07d65f3b6940386b4</title>
<g id="a_edge7"><a xlink:href="dir_000028_000030.html" target="_top">
<path fill="none" stroke="#63b8ff" d="M309.91,-54.98C325.55,-46.61 349.66,-33.7 367.88,-23.95"/>
<polygon fill="#63b8ff" stroke="#63b8ff" points="369.64,-26.98 376.8,-19.17 366.34,-20.8 369.64,-26.98"/>
</a>
</g>
<g id="a_edge7&#45;headlabel"><a xlink:href="dir_000028_000030.html" target="_top" xlink:title="18">
<text text-anchor="middle" x="367.81" y="-28.68" font-family="FreeSans" font-size="10.00" fill="#63b8ff">18</text>
</a>
</g>
</g>
<!-- dir_ccca7abcd5dfb15bb9fa9e68acbdf5bb -->
<g id="node9" class="node">
<title>dir_ccca7abcd5dfb15bb9fa9e68acbdf5bb</title>
<g id="a_node9"><a xlink:href="dir_ccca7abcd5dfb15bb9fa9e68acbdf5bb.html" target="_top" xlink:title="expression">
<polygon fill="#daedff" stroke="#7f7f7f" points="511,-19 441,-19 441,0 511,0 511,-19"/>
<text text-anchor="middle" x="476" y="-7" font-family="FreeSans" font-size="10.00">expression</text>
</a>
</g>
</g>
<!-- dir_c847bef7ec4c27743bf259a287b994bb&#45;&gt;dir_ccca7abcd5dfb15bb9fa9e68acbdf5bb -->
<g id="edge8" class="edge">
<title>dir_c847bef7ec4c27743bf259a287b994bb&#45;&gt;dir_ccca7abcd5dfb15bb9fa9e68acbdf5bb</title>
<g id="a_edge8"><a xlink:href="dir_000028_000019.html" target="_top">
<path fill="none" stroke="#63b8ff" d="M323.24,-54.98C354.06,-46.01 402.78,-31.82 436.89,-21.89"/>
<polygon fill="#63b8ff" stroke="#63b8ff" points="437.91,-25.24 446.53,-19.08 435.95,-18.52 437.91,-25.24"/>
</a>
</g>
<g id="a_edge8&#45;headlabel"><a xlink:href="dir_000028_000019.html" target="_top" xlink:title="7">
<text text-anchor="middle" x="435.25" y="-26.47" font-family="FreeSans" font-size="10.00" fill="#63b8ff">7</text>
</a>
</g>
</g>
<!-- dir_df3125d2ade78274bdfc2ee26337a54d -->
<g id="node10" class="node">
<title>dir_df3125d2ade78274bdfc2ee26337a54d</title>
<g id="a_node10"><a xlink:href="dir_df3125d2ade78274bdfc2ee26337a54d.html" target="_top" xlink:title="scf">
<polygon fill="#daedff" stroke="red" stroke-dasharray="5,2" points="560.5,-19 529.5,-19 529.5,0 560.5,0 560.5,-19"/>
<text text-anchor="middle" x="545" y="-7" font-family="FreeSans" font-size="10.00">scf</text>
</a>
</g>
</g>
<!-- dir_c847bef7ec4c27743bf259a287b994bb&#45;&gt;dir_df3125d2ade78274bdfc2ee26337a54d -->
<g id="edge9" class="edge">
<title>dir_c847bef7ec4c27743bf259a287b994bb&#45;&gt;dir_df3125d2ade78274bdfc2ee26337a54d</title>
<g id="a_edge9"><a xlink:href="dir_000028_000057.html" target="_top">
<path fill="none" stroke="#63b8ff" d="M324.27,-58.86C366.12,-52.16 444.11,-38.64 519.8,-18.72"/>
<polygon fill="#63b8ff" stroke="#63b8ff" points="520.74,-22.09 529.5,-16.13 518.93,-15.33 520.74,-22.09"/>
</a>
</g>
<g id="a_edge9&#45;headlabel"><a xlink:href="dir_000028_000057.html" target="_top" xlink:title="1">
<text text-anchor="middle" x="518" y="-23.26" font-family="FreeSans" font-size="10.00" fill="#63b8ff">1</text>
</a>
</g>
</g>
<!-- dir_dfad333b26ae1d260f0bd4d9efde2293 -->
<g id="node11" class="node">
<title>dir_dfad333b26ae1d260f0bd4d9efde2293</title>
<g id="a_node11"><a xlink:href="dir_dfad333b26ae1d260f0bd4d9efde2293.html" target="_top" xlink:title="properties">
<polygon fill="#daedff" stroke="#7f7f7f" points="645,-19 579,-19 579,0 645,0 645,-19"/>
<text text-anchor="middle" x="612" y="-7" font-family="FreeSans" font-size="10.00">properties</text>
</a>
</g>
</g>
<!-- dir_c847bef7ec4c27743bf259a287b994bb&#45;&gt;dir_dfad333b26ae1d260f0bd4d9efde2293 -->
<g id="edge10" class="edge">
<title>dir_c847bef7ec4c27743bf259a287b994bb&#45;&gt;dir_dfad333b26ae1d260f0bd4d9efde2293</title>
<g id="a_edge10"><a xlink:href="dir_000028_000051.html" target="_top">
<path fill="none" stroke="#63b8ff" d="M324.29,-59.02C373.42,-51.67 473.77,-36.28 568.52,-19.21"/>
<polygon fill="#63b8ff" stroke="#63b8ff" points="569.34,-22.62 578.55,-17.39 568.09,-15.73 569.34,-22.62"/>
</a>
</g>
<g id="a_edge10&#45;headlabel"><a xlink:href="dir_000028_000051.html" target="_top" xlink:title="1">
<text text-anchor="middle" x="566.31" y="-23.56" font-family="FreeSans" font-size="10.00" fill="#63b8ff">1</text>
</a>
</g>
</g>
</g>
</svg>

<g id="navigator" transform="translate(0 0)" fill="#404254">
  <rect fill="#f2f5e9" fill-opacity="0.5" stroke="#606060" stroke-width=".5" x="0" y="0" width="60" height="60"/>
  <use id="zoomplus" xlink:href="#zoomPlus" x="17" y="9" onmousedown="handleZoom(evt,'in')"/>
  <use id="zoomminus" xlink:href="#zoomMin" x="42" y="9" onmousedown="handleZoom(evt,'out')"/>
  <use id="reset" xlink:href="#resetDef" x="30" y="36" onmousedown="handleReset()"/>
   <use id="arrowup" xlink:href="#arrowUp" x="0" y="0" onmousedown="handlePan(0,-1)"/>
  <use id="arrowright" xlink:href="#arrowRight" x="0" y="0" onmousedown="handlePan(1,0)"/>
  <use id="arrowdown" xlink:href="#arrowDown" x="0" y="0" onmousedown="handlePan(0,1)"/>
  <use id="arrowleft" xlink:href="#arrowLeft" x="0" y="0" onmousedown="handlePan(-1,0)"/>
</g>
<svg viewBox="0 0 15 15" width="100%" height="30px" preserveAspectRatio="xMaxYMin meet">
 <g id="arrow_out" transform="scale(0.3 0.3)">
  <a xlink:href="dir_c847bef7ec4c27743bf259a287b994bb_dep_org.svg" target="_base">
   <rect id="button" ry="5" rx="5" y="6" x="6" height="38" width="38"
        fill="#f2f5e9" fill-opacity="0.5" stroke="#606060" stroke-width="1.0"/>
   <path id="arrow"
     d="M 11.500037,31.436501 C 11.940474,20.09759 22.043105,11.32322 32.158766,21.979434 L 37.068811,17.246167 C 37.068811,17.246167 37.088388,32 37.088388,32 L 22.160133,31.978069 C 22.160133,31.978069 26.997745,27.140456 26.997745,27.140456 C 18.528582,18.264221 13.291696,25.230495 11.500037,31.436501 z"
     style="fill:#404040;"/>
  </a>
 </g>
</svg>

<style type='text/css'>
<![CDATA[
[data-mouse-over-selected='false'] { opacity: 0.7; }
[data-mouse-over-selected='true']  { opacity: 1.0; }
]]>
</style>
<script type="application/ecmascript"><![CDATA[
document.addEventListener('DOMContentLoaded', (event) => {
  highlightEdges();
  highlightAdjacentNodes();
});
]]></script>
</svg>
