<?xml version="1.0" encoding="UTF-8" standalone="no"?>
<!DOCTYPE svg PUBLIC "-//W3C//DTD SVG 1.1//EN"
 "http://www.w3.org/Graphics/SVG/1.1/DTD/svg11.dtd">
<!-- Generated by graphviz version 2.43.0 (0)
 -->
<!-- Title: mpqc/math/mra Pages: 1 -->
<svg width="394pt" height="133pt"
 viewBox="0.00 0.00 394.00 133.00" xmlns="http://www.w3.org/2000/svg" xmlns:xlink="http://www.w3.org/1999/xlink">
<g id="graph0" class="graph" transform="scale(1 1) rotate(0) translate(4 129)">
<title>mpqc/math/mra</title>
<g id="clust1" class="cluster">
<title>clusterdir_05301f9ba83e223c2c24bb4e5a915266</title>
<g id="a_clust1"><a xlink:href="dir_05301f9ba83e223c2c24bb4e5a915266.html" target="_top" xlink:title="math">
<polygon fill="#daedff" stroke="#7f7f7f" stroke-dasharray="5,2" points="8,-8 8,-117 344,-117 344,-8 8,-8"/>
<text text-anchor="middle" x="176" y="-105" font-family="FreeSans" font-size="10.00">math</text>
</a>
</g>
</g>
<!-- dir_5d90b985b1cf1d0695e37f64e4d15325 -->
<g id="node1" class="node">
<title>dir_5d90b985b1cf1d0695e37f64e4d15325</title>
<g id="a_node1"><a xlink:href="dir_5d90b985b1cf1d0695e37f64e4d15325.html" target="_top" xlink:title="fock">
<polygon fill="#4ea9ff" stroke="#404040" points="54,-35 16,-35 16,-16 54,-16 54,-35"/>
<text text-anchor="middle" x="35" y="-23" font-family="FreeSans" font-size="10.00">fock</text>
</a>
</g>
</g>
<!-- dir_9f950fb105749c4d077c1743d20ec2e1 -->
<g id="node2" class="node">
<title>dir_9f950fb105749c4d077c1743d20ec2e1</title>
<g id="a_node2"><a xlink:href="dir_9f950fb105749c4d077c1743d20ec2e1.html" target="_top" xlink:title="quadrature">
<polygon fill="#4ea9ff" stroke="#404040" points="142,-35 72,-35 72,-16 142,-16 142,-35"/>
<text text-anchor="middle" x="107" y="-23" font-family="FreeSans" font-size="10.00">quadrature</text>
</a>
</g>
</g>
<!-- dir_c25531fec42ff271fb7c42451740592a -->
<g id="node3" class="node">
<title>dir_c25531fec42ff271fb7c42451740592a</title>
<g id="a_node3"><a xlink:href="dir_c25531fec42ff271fb7c42451740592a.html" target="_top" xlink:title="external">
<polygon fill="#4ea9ff" stroke="red" points="217.5,-35 160.5,-35 160.5,-16 217.5,-16 217.5,-35"/>
<text text-anchor="middle" x="189" y="-23" font-family="FreeSans" font-size="10.00">external</text>
</a>
</g>
</g>
<!-- dir_ecd5cca06cf60044dd6272e0521a038c -->
<g id="node4" class="node">
<title>dir_ecd5cca06cf60044dd6272e0521a038c</title>
<g id="a_node4"><a xlink:href="dir_ecd5cca06cf60044dd6272e0521a038c.html" target="_top" xlink:title="core">
<polygon fill="#4ea9ff" stroke="#404040" points="274,-35 236,-35 236,-16 274,-16 274,-35"/>
<text text-anchor="middle" x="255" y="-23" font-family="FreeSans" font-size="10.00">core</text>
</a>
</g>
</g>
<!-- dir_fc0f92aab8390c5ae0b797c56a1a4a7f -->
<g id="node5" class="node">
<title>dir_fc0f92aab8390c5ae0b797c56a1a4a7f</title>
<g id="a_node5"><a xlink:href="dir_fc0f92aab8390c5ae0b797c56a1a4a7f.html" target="_top" xlink:title="linalg">
<polygon fill="#4ea9ff" stroke="#404040" points="336,-35 292,-35 292,-16 336,-16 336,-35"/>
<text text-anchor="middle" x="314" y="-23" font-family="FreeSans" font-size="10.00">linalg</text>
</a>
</g>
</g>
<!-- dir_7ee86449a259efb771a06d887fb7b093 -->
<g id="node6" class="node">
<title>dir_7ee86449a259efb771a06d887fb7b093</title>
<g id="a_node6"><a xlink:href="dir_7ee86449a259efb771a06d887fb7b093.html" target="_top" xlink:title="mra">
<polygon fill="#daedff" stroke="#404040" stroke-width="2" points="240,-90 204,-90 204,-71 240,-71 240,-90"/>
<text text-anchor="middle" x="222" y="-78" font-family="FreeSans" font-size="10.00">mra</text>
</a>
</g>
</g>
<!-- dir_7ee86449a259efb771a06d887fb7b093&#45;&gt;dir_5d90b985b1cf1d0695e37f64e4d15325 -->
<g id="edge2" class="edge">
<title>dir_7ee86449a259efb771a06d887fb7b093&#45;&gt;dir_5d90b985b1cf1d0695e37f64e4d15325</title>
<g id="a_edge2"><a xlink:href="dir_000047_000025.html" target="_top">
<path fill="none" stroke="#63b8ff" d="M203.84,-74.56C175.89,-66.92 120.42,-51.64 64.05,-35.26"/>
<polygon fill="#63b8ff" stroke="#63b8ff" points="64.84,-31.85 54.26,-32.41 62.88,-38.57 64.84,-31.85"/>
</a>
</g>
<g id="a_edge2&#45;headlabel"><a xlink:href="dir_000047_000025.html" target="_top" xlink:title="2">
<text text-anchor="middle" x="69.09" y="-27.63" font-family="FreeSans" font-size="10.00" fill="#63b8ff">2</text>
</a>
</g>
</g>
<!-- dir_7ee86449a259efb771a06d887fb7b093&#45;&gt;dir_9f950fb105749c4d077c1743d20ec2e1 -->
<g id="edge3" class="edge">
<title>dir_7ee86449a259efb771a06d887fb7b093&#45;&gt;dir_9f950fb105749c4d077c1743d20ec2e1</title>
<g id="a_edge3"><a xlink:href="dir_000047_000056.html" target="_top">
<path fill="none" stroke="#63b8ff" d="M203.78,-71.1C185.21,-62.55 156.19,-49.17 134.76,-39.29"/>
<polygon fill="#63b8ff" stroke="#63b8ff" points="136.06,-36.04 125.52,-35.03 133.13,-42.4 136.06,-36.04"/>
</a>
</g>
<g id="a_edge3&#45;headlabel"><a xlink:href="dir_000047_000056.html" target="_top" xlink:title="1">
<text text-anchor="middle" x="140.52" y="-32.47" font-family="FreeSans" font-size="10.00" fill="#63b8ff">1</text>
</a>
</g>
</g>
<!-- dir_7ee86449a259efb771a06d887fb7b093&#45;&gt;dir_c25531fec42ff271fb7c42451740592a -->
<g id="edge4" class="edge">
<title>dir_7ee86449a259efb771a06d887fb7b093&#45;&gt;dir_c25531fec42ff271fb7c42451740592a</title>
<g id="a_edge4"><a xlink:href="dir_000047_000021.html" target="_top">
<path fill="none" stroke="#63b8ff" d="M216.55,-70.75C211.99,-63.42 205.33,-52.73 199.71,-43.7"/>
<polygon fill="#63b8ff" stroke="#63b8ff" points="202.6,-41.73 194.35,-35.09 196.66,-45.43 202.6,-41.73"/>
</a>
</g>
<g id="a_edge4&#45;headlabel"><a xlink:href="dir_000047_000021.html" target="_top" xlink:title="2">
<text text-anchor="middle" x="206.91" y="-40.78" font-family="FreeSans" font-size="10.00" fill="#63b8ff">2</text>
</a>
</g>
</g>
<!-- dir_7ee86449a259efb771a06d887fb7b093&#45;&gt;dir_ecd5cca06cf60044dd6272e0521a038c -->
<g id="edge5" class="edge">
<title>dir_7ee86449a259efb771a06d887fb7b093&#45;&gt;dir_ecd5cca06cf60044dd6272e0521a038c</title>
<g id="a_edge5"><a xlink:href="dir_000047_000010.html" target="_top">
<path fill="none" stroke="#63b8ff" d="M227.45,-70.75C232.01,-63.42 238.67,-52.73 244.29,-43.7"/>
<polygon fill="#63b8ff" stroke="#63b8ff" points="247.34,-45.43 249.65,-35.09 241.4,-41.73 247.34,-45.43"/>
</a>
</g>
<g id="a_edge5&#45;headlabel"><a xlink:href="dir_000047_000010.html" target="_top" xlink:title="2">
<text text-anchor="middle" x="247.85" y="-47.48" font-family="FreeSans" font-size="10.00" fill="#63b8ff">2</text>
</a>
</g>
</g>
<!-- dir_7ee86449a259efb771a06d887fb7b093&#45;&gt;dir_fc0f92aab8390c5ae0b797c56a1a4a7f -->
<g id="edge6" class="edge">
<title>dir_7ee86449a259efb771a06d887fb7b093&#45;&gt;dir_fc0f92aab8390c5ae0b797c56a1a4a7f</title>
<g id="a_edge6"><a xlink:href="dir_000047_000035.html" target="_top">
<path fill="none" stroke="#63b8ff" d="M236.78,-70.98C251.18,-62.69 273.31,-49.94 290.19,-40.22"/>
<polygon fill="#63b8ff" stroke="#63b8ff" points="292.03,-43.19 298.95,-35.17 288.54,-37.13 292.03,-43.19"/>
</a>
</g>
<g id="a_edge6&#45;headlabel"><a xlink:href="dir_000047_000035.html" target="_top" xlink:title="1">
<text text-anchor="middle" x="290.33" y="-44.95" font-family="FreeSans" font-size="10.00" fill="#63b8ff">1</text>
</a>
</g>
</g>
<!-- dir_048f7c5b69cb7e1832edab50eaa5c4ea -->
<g id="node7" class="node">
<title>dir_048f7c5b69cb7e1832edab50eaa5c4ea</title>
<g id="a_node7"><a xlink:href="dir_048f7c5b69cb7e1832edab50eaa5c4ea.html" target="_top" xlink:title="util">
<polygon fill="#daedff" stroke="red" stroke-dasharray="5,2" points="386,-35 354,-35 354,-16 386,-16 386,-35"/>
<text text-anchor="middle" x="370" y="-23" font-family="FreeSans" font-size="10.00">util</text>
</a>
</g>
</g>
<!-- dir_7ee86449a259efb771a06d887fb7b093&#45;&gt;dir_048f7c5b69cb7e1832edab50eaa5c4ea -->
<g id="edge1" class="edge">
<title>dir_7ee86449a259efb771a06d887fb7b093&#45;&gt;dir_048f7c5b69cb7e1832edab50eaa5c4ea</title>
<g id="a_edge1"><a xlink:href="dir_000047_000068.html" target="_top">
<path fill="none" stroke="#63b8ff" d="M240,-73.33C262.74,-65.49 303.28,-51.39 344.14,-36.39"/>
<polygon fill="#63b8ff" stroke="#63b8ff" points="345.51,-39.61 353.68,-32.87 343.09,-33.04 345.51,-39.61"/>
</a>
</g>
<g id="a_edge1&#45;headlabel"><a xlink:href="dir_000047_000068.html" target="_top" xlink:title="8">
<text text-anchor="middle" x="343.12" y="-41.02" font-family="FreeSans" font-size="10.00" fill="#63b8ff">8</text>
</a>
</g>
</g>
</g>
</svg>
