<?xml version="1.0" encoding="UTF-8" standalone="no"?>
<!DOCTYPE svg PUBLIC "-//W3C//DTD SVG 1.1//EN"
 "http://www.w3.org/Graphics/SVG/1.1/DTD/svg11.dtd">
<!-- Generated by graphviz version 2.43.0 (0)
 -->
<!-- Title: mpqc/chemistry/qc/lcao/scf Pages: 1 -->
<!--zoomable 141 -->

<svg id="main" version="1.1" xmlns="http://www.w3.org/2000/svg" xmlns:xlink="http://www.w3.org/1999/xlink" xml:space="preserve" onload="init(evt)">
<style type="text/css"><![CDATA[
.node, .edge {opacity: 0.7;}
.node.selected, .edge.selected {opacity: 1;}
.edge:hover path { stroke: red; }
.edge:hover polygon { stroke: red; fill: red; }
]]></style>

<defs>
  <circle id="rim" cx="0" cy="0" r="7"/>
  <circle id="rim2" cx="0" cy="0" r="3.5"/>
  <g id="zoomPlus">
    <use xlink:href="#rim" fill="#404040"><set attributeName="fill" to="#808080" begin="zoomplus.mouseover" end="zoomplus.mouseout"/></use>
    <path d="M-4,0h8M0,-4v8" fill="none" stroke="white" stroke-width="1.5" pointer-events="none"/>
  </g>
  <g id="zoomMin">
    <use xlink:href="#rim" fill="#404040"><set attributeName="fill" to="#808080" begin="zoomminus.mouseover" end="zoomminus.mouseout"/></use>
    <path d="M-4,0h8" fill="none" stroke="white" stroke-width="1.5" pointer-events="none"/>
  </g>
  <g id="arrowUp" transform="translate(30 24)">
    <use xlink:href="#rim"/>
    <path pointer-events="none" fill="none" stroke="white" stroke-width="1.5" d="M0,-3.0v7 M-2.5,-0.5L0,-3.0L2.5,-0.5"/>
  </g>
  <g id="arrowRight" transform="rotate(90) translate(36 -43)">
    <use xlink:href="#rim"/>
    <path pointer-events="none" fill="none" stroke="white" stroke-width="1.5" d="M0,-3.0v7 M-2.5,-0.5L0,-3.0L2.5,-0.5"/>
  </g>
  <g id="arrowDown" transform="rotate(180) translate(-30 -48)">
    <use xlink:href="#rim"/>
    <path pointer-events="none" fill="none" stroke="white" stroke-width="1.5" d="M0,-3.0v7 M-2.5,-0.5L0,-3.0L2.5,-0.5"/>
  </g>
  <g id="arrowLeft" transform="rotate(270) translate(-36 17)">
    <use xlink:href="#rim"/>
    <path pointer-events="none" fill="none" stroke="white" stroke-width="1.5" d="M0,-3.0v7 M-2.5,-0.5L0,-3.0L2.5,-0.5"/>
  </g>
  <g id="resetDef">
    <use xlink:href="#rim2" fill="#404040"><set attributeName="fill" to="#808080" begin="reset.mouseover" end="reset.mouseout"/></use>
  </g>
</defs>
<script type="application/ecmascript">
var viewWidth = 689;
var viewHeight = 141;
var sectionId = 'dynsection-0';
</script>
<script type="application/ecmascript" xlink:href="svg.min.js"/>
<svg id="graph" class="graph">
<g id="viewport">
<title>mpqc/chemistry/qc/lcao/scf</title>
<g id="clust1" class="cluster">
<title>clusterdir_f442f60972c0f9169917a25cab152b2a</title>
<g id="a_clust1"><a xlink:href="dir_f442f60972c0f9169917a25cab152b2a.html" target="_top" xlink:title="lcao">
<polygon fill="#daedff" stroke="#7f7f7f" stroke-dasharray="5,2" points="8,-8 8,-125 355,-125 355,-8 8,-8"/>
<text text-anchor="middle" x="181.5" y="-113" font-family="FreeSans" font-size="10.00">lcao</text>
</a>
</g>
</g>
<g id="clust2" class="cluster">
<title>clusterdir_df3125d2ade78274bdfc2ee26337a54d</title>
<g id="a_clust2"><a xlink:href="dir_df3125d2ade78274bdfc2ee26337a54d.html" target="_top">
<polygon fill="#daedff" stroke="#404040" stroke-width="2" points="158,-63 158,-98 347,-98 347,-63 158,-63"/>
</a>
</g>
</g>
<!-- dir_084478967d5724d8613f7cb2a1dd1c1e -->
<g id="node1" class="node">
<title>dir_084478967d5724d8613f7cb2a1dd1c1e</title>
<g id="a_node1"><a xlink:href="dir_084478967d5724d8613f7cb2a1dd1c1e.html" target="_top" xlink:title="wfn">
<polygon fill="#4ea9ff" stroke="#404040" points="139.5,-35 104.5,-35 104.5,-16 139.5,-16 139.5,-35"/>
<text text-anchor="middle" x="122" y="-23" font-family="FreeSans" font-size="10.00">wfn</text>
</a>
</g>
</g>
<!-- dir_26ae4716acfbd12584c5080db53ae013 -->
<g id="node2" class="node">
<title>dir_26ae4716acfbd12584c5080db53ae013</title>
<g id="a_node2"><a xlink:href="dir_26ae4716acfbd12584c5080db53ae013.html" target="_top" xlink:title="factory">
<polygon fill="#4ea9ff" stroke="red" points="208.5,-35 157.5,-35 157.5,-16 208.5,-16 208.5,-35"/>
<text text-anchor="middle" x="183" y="-23" font-family="FreeSans" font-size="10.00">factory</text>
</a>
</g>
</g>
<!-- dir_50885d8df49e326e988828eb2c569376 -->
<g id="node3" class="node">
<title>dir_50885d8df49e326e988828eb2c569376</title>
<g id="a_node3"><a xlink:href="dir_50885d8df49e326e988828eb2c569376.html" target="_top" xlink:title="basis">
<polygon fill="#4ea9ff" stroke="red" points="269,-35 227,-35 227,-16 269,-16 269,-35"/>
<text text-anchor="middle" x="248" y="-23" font-family="FreeSans" font-size="10.00">basis</text>
</a>
</g>
</g>
<!-- dir_b3025fc6edd0cbb07d65f3b6940386b4 -->
<g id="node4" class="node">
<title>dir_b3025fc6edd0cbb07d65f3b6940386b4</title>
<g id="a_node4"><a xlink:href="dir_b3025fc6edd0cbb07d65f3b6940386b4.html" target="_top" xlink:title="integrals">
<polygon fill="#4ea9ff" stroke="red" points="346.5,-35 287.5,-35 287.5,-16 346.5,-16 346.5,-35"/>
<text text-anchor="middle" x="317" y="-23" font-family="FreeSans" font-size="10.00">integrals</text>
</a>
</g>
</g>
<!-- dir_ccca7abcd5dfb15bb9fa9e68acbdf5bb -->
<g id="node5" class="node">
<title>dir_ccca7abcd5dfb15bb9fa9e68acbdf5bb</title>
<g id="a_node5"><a xlink:href="dir_ccca7abcd5dfb15bb9fa9e68acbdf5bb.html" target="_top" xlink:title="expression">
<polygon fill="#4ea9ff" stroke="#404040" points="86,-35 16,-35 16,-16 86,-16 86,-35"/>
<text text-anchor="middle" x="51" y="-23" font-family="FreeSans" font-size="10.00">expression</text>
</a>
</g>
</g>
<!-- dir_df3125d2ade78274bdfc2ee26337a54d -->
<g id="node6" class="node">
<title>dir_df3125d2ade78274bdfc2ee26337a54d</title>
<text text-anchor="middle" x="234" y="-78" font-family="FreeSans" font-size="10.00">scf</text>
</g>
<!-- dir_df3125d2ade78274bdfc2ee26337a54d&#45;&gt;dir_084478967d5724d8613f7cb2a1dd1c1e -->
<g id="edge4" class="edge">
<title>dir_df3125d2ade78274bdfc2ee26337a54d&#45;&gt;dir_084478967d5724d8613f7cb2a1dd1c1e</title>
<g id="a_edge4"><a xlink:href="dir_000057_000070.html" target="_top">
<path fill="none" stroke="#63b8ff" d="M222.07,-70.98C218.02,-68.26 213.4,-65.35 209,-63 189.67,-52.68 166.79,-43.18 149.35,-36.46"/>
<polygon fill="#63b8ff" stroke="#63b8ff" points="150.37,-33.11 139.77,-32.84 147.89,-39.65 150.37,-33.11"/>
</a>
</g>
<g id="a_edge4&#45;headlabel"><a xlink:href="dir_000057_000070.html" target="_top" xlink:title="12">
<text text-anchor="middle" x="154.73" y="-29.22" font-family="FreeSans" font-size="10.00" fill="#63b8ff">12</text>
</a>
</g>
</g>
<!-- dir_df3125d2ade78274bdfc2ee26337a54d&#45;&gt;dir_26ae4716acfbd12584c5080db53ae013 -->
<g id="edge5" class="edge">
<title>dir_df3125d2ade78274bdfc2ee26337a54d&#45;&gt;dir_26ae4716acfbd12584c5080db53ae013</title>
<g id="a_edge5"><a xlink:href="dir_000057_000024.html" target="_top">
<path fill="none" stroke="#63b8ff" d="M225.58,-70.75C218.23,-63.11 207.37,-51.82 198.46,-42.56"/>
<polygon fill="#63b8ff" stroke="#63b8ff" points="200.72,-39.87 191.26,-35.09 195.68,-44.72 200.72,-39.87"/>
</a>
</g>
<g id="a_edge5&#45;headlabel"><a xlink:href="dir_000057_000024.html" target="_top" xlink:title="45">
<text text-anchor="middle" x="205.26" y="-37.99" font-family="FreeSans" font-size="10.00" fill="#63b8ff">45</text>
</a>
</g>
</g>
<!-- dir_df3125d2ade78274bdfc2ee26337a54d&#45;&gt;dir_50885d8df49e326e988828eb2c569376 -->
<g id="edge6" class="edge">
<title>dir_df3125d2ade78274bdfc2ee26337a54d&#45;&gt;dir_50885d8df49e326e988828eb2c569376</title>
<g id="a_edge6"><a xlink:href="dir_000057_000000.html" target="_top">
<path fill="none" stroke="#63b8ff" d="M236.31,-70.75C238.17,-63.72 240.84,-53.62 243.15,-44.84"/>
<polygon fill="#63b8ff" stroke="#63b8ff" points="246.56,-45.65 245.73,-35.09 239.79,-43.86 246.56,-45.65"/>
</a>
</g>
<g id="a_edge6&#45;headlabel"><a xlink:href="dir_000057_000000.html" target="_top" xlink:title="14">
<text text-anchor="middle" x="248.39" y="-47.35" font-family="FreeSans" font-size="10.00" fill="#63b8ff">14</text>
</a>
</g>
</g>
<!-- dir_df3125d2ade78274bdfc2ee26337a54d&#45;&gt;dir_b3025fc6edd0cbb07d65f3b6940386b4 -->
<g id="edge8" class="edge">
<title>dir_df3125d2ade78274bdfc2ee26337a54d&#45;&gt;dir_b3025fc6edd0cbb07d65f3b6940386b4</title>
<g id="a_edge8"><a xlink:href="dir_000057_000030.html" target="_top">
<path fill="none" stroke="#63b8ff" d="M246.94,-70.88C250.81,-68.33 255.07,-65.54 259,-63 270.6,-55.52 283.6,-47.33 294.35,-40.6"/>
<polygon fill="#63b8ff" stroke="#63b8ff" points="296.49,-43.38 303.12,-35.12 292.78,-37.45 296.49,-43.38"/>
</a>
</g>
<g id="a_edge8&#45;headlabel"><a xlink:href="dir_000057_000030.html" target="_top" xlink:title="22">
<text text-anchor="middle" x="294.95" y="-45.2" font-family="FreeSans" font-size="10.00" fill="#63b8ff">22</text>
</a>
</g>
</g>
<!-- dir_df3125d2ade78274bdfc2ee26337a54d&#45;&gt;dir_ccca7abcd5dfb15bb9fa9e68acbdf5bb -->
<g id="edge9" class="edge">
<title>dir_df3125d2ade78274bdfc2ee26337a54d&#45;&gt;dir_ccca7abcd5dfb15bb9fa9e68acbdf5bb</title>
<g id="a_edge9"><a xlink:href="dir_000057_000019.html" target="_top">
<path fill="none" stroke="#63b8ff" d="M222.79,-70.87C218.64,-68.02 213.78,-65.05 209,-63 198.61,-58.54 139.06,-45.31 96.13,-36.07"/>
<polygon fill="#63b8ff" stroke="#63b8ff" points="96.67,-32.6 86.15,-33.93 95.2,-39.45 96.67,-32.6"/>
</a>
</g>
<g id="a_edge9&#45;headlabel"><a xlink:href="dir_000057_000019.html" target="_top" xlink:title="6">
<text text-anchor="middle" x="100.78" y="-28.08" font-family="FreeSans" font-size="10.00" fill="#63b8ff">6</text>
</a>
</g>
</g>
<!-- dir_048f7c5b69cb7e1832edab50eaa5c4ea -->
<g id="node9" class="node">
<title>dir_048f7c5b69cb7e1832edab50eaa5c4ea</title>
<g id="a_node9"><a xlink:href="dir_048f7c5b69cb7e1832edab50eaa5c4ea.html" target="_top" xlink:title="util">
<polygon fill="#daedff" stroke="red" stroke-dasharray="5,2" points="621,-35 589,-35 589,-16 621,-16 621,-35"/>
<text text-anchor="middle" x="605" y="-23" font-family="FreeSans" font-size="10.00">util</text>
</a>
</g>
</g>
<!-- dir_df3125d2ade78274bdfc2ee26337a54d&#45;&gt;dir_048f7c5b69cb7e1832edab50eaa5c4ea -->
<g id="edge1" class="edge">
<title>dir_df3125d2ade78274bdfc2ee26337a54d&#45;&gt;dir_048f7c5b69cb7e1832edab50eaa5c4ea</title>
<g id="a_edge1"><a xlink:href="dir_000057_000068.html" target="_top">
<path fill="none" stroke="#63b8ff" d="M244.57,-70.84C248.81,-67.84 253.89,-64.78 259,-63 391.2,-16.95 437.77,-62.35 578.87,-34.68"/>
<polygon fill="#63b8ff" stroke="#63b8ff" points="579.66,-38.09 588.75,-32.65 578.25,-31.23 579.66,-38.09"/>
</a>
</g>
<g id="a_edge1&#45;headlabel"><a xlink:href="dir_000057_000068.html" target="_top" xlink:title="48">
<text text-anchor="middle" x="576.71" y="-39.09" font-family="FreeSans" font-size="10.00" fill="#63b8ff">48</text>
</a>
</g>
</g>
<!-- dir_05301f9ba83e223c2c24bb4e5a915266 -->
<g id="node10" class="node">
<title>dir_05301f9ba83e223c2c24bb4e5a915266</title>
<g id="a_node10"><a xlink:href="dir_05301f9ba83e223c2c24bb4e5a915266.html" target="_top" xlink:title="math">
<polygon fill="#daedff" stroke="red" stroke-dasharray="5,2" points="681,-35 639,-35 639,-16 681,-16 681,-35"/>
<text text-anchor="middle" x="660" y="-23" font-family="FreeSans" font-size="10.00">math</text>
</a>
</g>
</g>
<!-- dir_df3125d2ade78274bdfc2ee26337a54d&#45;&gt;dir_05301f9ba83e223c2c24bb4e5a915266 -->
<g id="edge2" class="edge">
<title>dir_df3125d2ade78274bdfc2ee26337a54d&#45;&gt;dir_05301f9ba83e223c2c24bb4e5a915266</title>
<g id="a_edge2"><a xlink:href="dir_000057_000037.html" target="_top">
<path fill="none" stroke="#63b8ff" d="M244.56,-70.81C248.8,-67.8 253.88,-64.75 259,-63 412.41,-10.56 465.13,-61.82 628.9,-34.78"/>
<polygon fill="#63b8ff" stroke="#63b8ff" points="629.56,-38.22 638.82,-33.07 628.37,-31.32 629.56,-38.22"/>
</a>
</g>
<g id="a_edge2&#45;headlabel"><a xlink:href="dir_000057_000037.html" target="_top" xlink:title="90">
<text text-anchor="middle" x="626.5" y="-39.13" font-family="FreeSans" font-size="10.00" fill="#63b8ff">90</text>
</a>
</g>
</g>
<!-- dir_072b070bc725d6a2db76c22b2c6e8476 -->
<g id="node11" class="node">
<title>dir_072b070bc725d6a2db76c22b2c6e8476</title>
<g id="a_node11"><a xlink:href="dir_072b070bc725d6a2db76c22b2c6e8476.html" target="_top" xlink:title="units">
<polygon fill="#daedff" stroke="#7f7f7f" points="490.5,-35 449.5,-35 449.5,-16 490.5,-16 490.5,-35"/>
<text text-anchor="middle" x="470" y="-23" font-family="FreeSans" font-size="10.00">units</text>
</a>
</g>
</g>
<!-- dir_df3125d2ade78274bdfc2ee26337a54d&#45;&gt;dir_072b070bc725d6a2db76c22b2c6e8476 -->
<g id="edge3" class="edge">
<title>dir_df3125d2ade78274bdfc2ee26337a54d&#45;&gt;dir_072b070bc725d6a2db76c22b2c6e8476</title>
<g id="a_edge3"><a xlink:href="dir_000057_000066.html" target="_top">
<path fill="none" stroke="#63b8ff" d="M245.13,-70.67C249.27,-67.8 254.15,-64.87 259,-63 331.97,-34.83 358.4,-50.96 439.29,-34.82"/>
<polygon fill="#63b8ff" stroke="#63b8ff" points="440.36,-38.17 449.43,-32.69 438.92,-31.32 440.36,-38.17"/>
</a>
</g>
<g id="a_edge3&#45;headlabel"><a xlink:href="dir_000057_000066.html" target="_top" xlink:title="2">
<text text-anchor="middle" x="437.43" y="-39.19" font-family="FreeSans" font-size="10.00" fill="#63b8ff">2</text>
</a>
</g>
</g>
<!-- dir_79e09b370f6f9aca9214ea225a19a126 -->
<g id="node12" class="node">
<title>dir_79e09b370f6f9aca9214ea225a19a126</title>
<g id="a_node12"><a xlink:href="dir_79e09b370f6f9aca9214ea225a19a126.html" target="_top" xlink:title="molecule">
<polygon fill="#daedff" stroke="red" stroke-dasharray="5,2" points="571,-35 509,-35 509,-16 571,-16 571,-35"/>
<text text-anchor="middle" x="540" y="-23" font-family="FreeSans" font-size="10.00">molecule</text>
</a>
</g>
</g>
<!-- dir_df3125d2ade78274bdfc2ee26337a54d&#45;&gt;dir_79e09b370f6f9aca9214ea225a19a126 -->
<g id="edge7" class="edge">
<title>dir_df3125d2ade78274bdfc2ee26337a54d&#45;&gt;dir_79e09b370f6f9aca9214ea225a19a126</title>
<g id="a_edge7"><a xlink:href="dir_000057_000043.html" target="_top">
<path fill="none" stroke="#63b8ff" d="M244.6,-70.92C248.84,-67.92 253.92,-64.85 259,-63 357.34,-27.16 391.58,-50.96 498.71,-35.02"/>
<polygon fill="#63b8ff" stroke="#63b8ff" points="499.27,-38.47 508.61,-33.46 498.19,-31.55 499.27,-38.47"/>
</a>
</g>
<g id="a_edge7&#45;headlabel"><a xlink:href="dir_000057_000043.html" target="_top" xlink:title="9">
<text text-anchor="middle" x="496.16" y="-39.33" font-family="FreeSans" font-size="10.00" fill="#63b8ff">9</text>
</a>
</g>
</g>
<!-- dir_dfad333b26ae1d260f0bd4d9efde2293 -->
<g id="node13" class="node">
<title>dir_dfad333b26ae1d260f0bd4d9efde2293</title>
<g id="a_node13"><a xlink:href="dir_dfad333b26ae1d260f0bd4d9efde2293.html" target="_top" xlink:title="properties">
<polygon fill="#daedff" stroke="#7f7f7f" points="431,-35 365,-35 365,-16 431,-16 431,-35"/>
<text text-anchor="middle" x="398" y="-23" font-family="FreeSans" font-size="10.00">properties</text>
</a>
</g>
</g>
<!-- dir_df3125d2ade78274bdfc2ee26337a54d&#45;&gt;dir_dfad333b26ae1d260f0bd4d9efde2293 -->
<g id="edge10" class="edge">
<title>dir_df3125d2ade78274bdfc2ee26337a54d&#45;&gt;dir_dfad333b26ae1d260f0bd4d9efde2293</title>
<g id="a_edge10"><a xlink:href="dir_000057_000051.html" target="_top">
<path fill="none" stroke="#63b8ff" d="M245.25,-70.95C249.4,-68.1 254.25,-65.12 259,-63 276.11,-55.36 320.98,-44.12 355.15,-36.14"/>
<polygon fill="#63b8ff" stroke="#63b8ff" points="355.97,-39.54 364.92,-33.88 354.39,-32.72 355.97,-39.54"/>
</a>
</g>
<g id="a_edge10&#45;headlabel"><a xlink:href="dir_000057_000051.html" target="_top" xlink:title="4">
<text text-anchor="middle" x="353.11" y="-40.62" font-family="FreeSans" font-size="10.00" fill="#63b8ff">4</text>
</a>
</g>
</g>
<!-- dir_61f5b52bd64e43d8b3f91e787ea6b377 -->
<g id="node7" class="node">
<title>dir_61f5b52bd64e43d8b3f91e787ea6b377</title>
<g id="a_node7"><a xlink:href="dir_61f5b52bd64e43d8b3f91e787ea6b377.html" target="_top" xlink:title="pbc">
<polygon fill="#4ea9ff" stroke="#404040" points="200,-90 166,-90 166,-71 200,-71 200,-90"/>
<text text-anchor="middle" x="183" y="-78" font-family="FreeSans" font-size="10.00">pbc</text>
</a>
</g>
</g>
<!-- dir_61f5b52bd64e43d8b3f91e787ea6b377&#45;&gt;dir_084478967d5724d8613f7cb2a1dd1c1e -->
<g id="edge14" class="edge">
<title>dir_61f5b52bd64e43d8b3f91e787ea6b377&#45;&gt;dir_084478967d5724d8613f7cb2a1dd1c1e</title>
<g id="a_edge14"><a xlink:href="dir_000049_000070.html" target="_top">
<path fill="none" stroke="#63b8ff" d="M173.2,-70.98C164.18,-63.15 150.59,-51.34 139.68,-41.86"/>
<polygon fill="#63b8ff" stroke="#63b8ff" points="141.82,-39.09 131.98,-35.17 137.23,-44.37 141.82,-39.09"/>
</a>
</g>
<g id="a_edge14&#45;headlabel"><a xlink:href="dir_000049_000070.html" target="_top" xlink:title="4">
<text text-anchor="middle" x="146.4" y="-36.8" font-family="FreeSans" font-size="10.00" fill="#63b8ff">4</text>
</a>
</g>
</g>
<!-- dir_61f5b52bd64e43d8b3f91e787ea6b377&#45;&gt;dir_26ae4716acfbd12584c5080db53ae013 -->
<g id="edge15" class="edge">
<title>dir_61f5b52bd64e43d8b3f91e787ea6b377&#45;&gt;dir_26ae4716acfbd12584c5080db53ae013</title>
<g id="a_edge15"><a xlink:href="dir_000049_000024.html" target="_top">
<path fill="none" stroke="#63b8ff" d="M183,-70.75C183,-63.8 183,-53.85 183,-45.13"/>
<polygon fill="#63b8ff" stroke="#63b8ff" points="186.5,-45.09 183,-35.09 179.5,-45.09 186.5,-45.09"/>
</a>
</g>
<g id="a_edge15&#45;headlabel"><a xlink:href="dir_000049_000024.html" target="_top" xlink:title="25">
<text text-anchor="middle" x="189.34" y="-46.18" font-family="FreeSans" font-size="10.00" fill="#63b8ff">25</text>
</a>
</g>
</g>
<!-- dir_61f5b52bd64e43d8b3f91e787ea6b377&#45;&gt;dir_50885d8df49e326e988828eb2c569376 -->
<g id="edge16" class="edge">
<title>dir_61f5b52bd64e43d8b3f91e787ea6b377&#45;&gt;dir_50885d8df49e326e988828eb2c569376</title>
<g id="a_edge16"><a xlink:href="dir_000049_000000.html" target="_top">
<path fill="none" stroke="#63b8ff" d="M193.44,-70.98C203.15,-63.07 217.82,-51.11 229.5,-41.58"/>
<polygon fill="#63b8ff" stroke="#63b8ff" points="231.83,-44.2 237.37,-35.17 227.4,-38.78 231.83,-44.2"/>
</a>
</g>
<g id="a_edge16&#45;headlabel"><a xlink:href="dir_000049_000000.html" target="_top" xlink:title="3">
<text text-anchor="middle" x="230.84" y="-46.17" font-family="FreeSans" font-size="10.00" fill="#63b8ff">3</text>
</a>
</g>
</g>
<!-- dir_61f5b52bd64e43d8b3f91e787ea6b377&#45;&gt;dir_b3025fc6edd0cbb07d65f3b6940386b4 -->
<g id="edge18" class="edge">
<title>dir_61f5b52bd64e43d8b3f91e787ea6b377&#45;&gt;dir_b3025fc6edd0cbb07d65f3b6940386b4</title>
<g id="a_edge18"><a xlink:href="dir_000049_000030.html" target="_top">
<path fill="none" stroke="#63b8ff" d="M195.86,-70.85C200.24,-68.12 205.23,-65.24 210,-63 231.68,-52.83 257.01,-44.06 277.58,-37.67"/>
<polygon fill="#63b8ff" stroke="#63b8ff" points="278.7,-40.98 287.25,-34.73 276.67,-34.29 278.7,-40.98"/>
</a>
</g>
<g id="a_edge18&#45;headlabel"><a xlink:href="dir_000049_000030.html" target="_top" xlink:title="4">
<text text-anchor="middle" x="276.09" y="-42.25" font-family="FreeSans" font-size="10.00" fill="#63b8ff">4</text>
</a>
</g>
</g>
<!-- dir_61f5b52bd64e43d8b3f91e787ea6b377&#45;&gt;dir_ccca7abcd5dfb15bb9fa9e68acbdf5bb -->
<g id="edge19" class="edge">
<title>dir_61f5b52bd64e43d8b3f91e787ea6b377&#45;&gt;dir_ccca7abcd5dfb15bb9fa9e68acbdf5bb</title>
<g id="a_edge19"><a xlink:href="dir_000049_000019.html" target="_top">
<path fill="none" stroke="#63b8ff" d="M165.74,-72.57C144.43,-64.01 107.78,-49.3 81.64,-38.8"/>
<polygon fill="#63b8ff" stroke="#63b8ff" points="82.77,-35.49 72.19,-35.01 80.17,-41.98 82.77,-35.49"/>
</a>
</g>
<g id="a_edge19&#45;headlabel"><a xlink:href="dir_000049_000019.html" target="_top" xlink:title="1">
<text text-anchor="middle" x="87.17" y="-31.69" font-family="FreeSans" font-size="10.00" fill="#63b8ff">1</text>
</a>
</g>
</g>
<!-- dir_61f5b52bd64e43d8b3f91e787ea6b377&#45;&gt;dir_048f7c5b69cb7e1832edab50eaa5c4ea -->
<g id="edge11" class="edge">
<title>dir_61f5b52bd64e43d8b3f91e787ea6b377&#45;&gt;dir_048f7c5b69cb7e1832edab50eaa5c4ea</title>
<g id="a_edge11"><a xlink:href="dir_000049_000068.html" target="_top">
<path fill="none" stroke="#63b8ff" d="M194.24,-70.99C198.88,-67.92 204.46,-64.79 210,-63 363.89,-13.36 416.38,-65.89 578.91,-34.65"/>
<polygon fill="#63b8ff" stroke="#63b8ff" points="579.64,-38.07 588.76,-32.68 578.26,-31.21 579.64,-38.07"/>
</a>
</g>
<g id="a_edge11&#45;headlabel"><a xlink:href="dir_000049_000068.html" target="_top" xlink:title="11">
<text text-anchor="middle" x="576.67" y="-39.06" font-family="FreeSans" font-size="10.00" fill="#63b8ff">11</text>
</a>
</g>
</g>
<!-- dir_61f5b52bd64e43d8b3f91e787ea6b377&#45;&gt;dir_05301f9ba83e223c2c24bb4e5a915266 -->
<g id="edge12" class="edge">
<title>dir_61f5b52bd64e43d8b3f91e787ea6b377&#45;&gt;dir_05301f9ba83e223c2c24bb4e5a915266</title>
<g id="a_edge12"><a xlink:href="dir_000049_000037.html" target="_top">
<path fill="none" stroke="#63b8ff" d="M194.23,-70.96C198.87,-67.89 204.45,-64.76 210,-63 385.17,-7.36 443.6,-64.8 628.76,-34.79"/>
<polygon fill="#63b8ff" stroke="#63b8ff" points="629.54,-38.21 638.82,-33.09 628.38,-31.31 629.54,-38.21"/>
</a>
</g>
<g id="a_edge12&#45;headlabel"><a xlink:href="dir_000049_000037.html" target="_top" xlink:title="13">
<text text-anchor="middle" x="626.47" y="-39.11" font-family="FreeSans" font-size="10.00" fill="#63b8ff">13</text>
</a>
</g>
</g>
<!-- dir_61f5b52bd64e43d8b3f91e787ea6b377&#45;&gt;dir_072b070bc725d6a2db76c22b2c6e8476 -->
<g id="edge13" class="edge">
<title>dir_61f5b52bd64e43d8b3f91e787ea6b377&#45;&gt;dir_072b070bc725d6a2db76c22b2c6e8476</title>
<g id="a_edge13"><a xlink:href="dir_000049_000066.html" target="_top">
<path fill="none" stroke="#63b8ff" d="M194.55,-70.94C199.14,-67.95 204.6,-64.88 210,-63 304.22,-30.22 337,-53.74 439.32,-34.75"/>
<polygon fill="#63b8ff" stroke="#63b8ff" points="440.3,-38.13 449.45,-32.78 438.96,-31.26 440.3,-38.13"/>
</a>
</g>
<g id="a_edge13&#45;headlabel"><a xlink:href="dir_000049_000066.html" target="_top" xlink:title="1">
<text text-anchor="middle" x="437.32" y="-39.1" font-family="FreeSans" font-size="10.00" fill="#63b8ff">1</text>
</a>
</g>
</g>
<!-- dir_61f5b52bd64e43d8b3f91e787ea6b377&#45;&gt;dir_79e09b370f6f9aca9214ea225a19a126 -->
<g id="edge17" class="edge">
<title>dir_61f5b52bd64e43d8b3f91e787ea6b377&#45;&gt;dir_79e09b370f6f9aca9214ea225a19a126</title>
<g id="a_edge17"><a xlink:href="dir_000049_000043.html" target="_top">
<path fill="none" stroke="#63b8ff" d="M194.52,-70.87C199.11,-67.87 204.58,-64.81 210,-63 329.7,-23.01 369.98,-53.1 498.4,-35.03"/>
<polygon fill="#63b8ff" stroke="#63b8ff" points="499.24,-38.45 508.62,-33.52 498.21,-31.52 499.24,-38.45"/>
</a>
</g>
<g id="a_edge17&#45;headlabel"><a xlink:href="dir_000049_000043.html" target="_top" xlink:title="6">
<text text-anchor="middle" x="496.1" y="-39.28" font-family="FreeSans" font-size="10.00" fill="#63b8ff">6</text>
</a>
</g>
</g>
<!-- dir_61f5b52bd64e43d8b3f91e787ea6b377&#45;&gt;dir_dfad333b26ae1d260f0bd4d9efde2293 -->
<g id="edge20" class="edge">
<title>dir_61f5b52bd64e43d8b3f91e787ea6b377&#45;&gt;dir_dfad333b26ae1d260f0bd4d9efde2293</title>
<g id="a_edge20"><a xlink:href="dir_000049_000051.html" target="_top">
<path fill="none" stroke="#63b8ff" d="M194.88,-70.95C199.42,-68.04 204.77,-65.01 210,-63 269.82,-39.99 290.9,-47.54 354.66,-35.77"/>
<polygon fill="#63b8ff" stroke="#63b8ff" points="355.67,-39.14 364.82,-33.8 354.34,-32.27 355.67,-39.14"/>
</a>
</g>
<g id="a_edge20&#45;headlabel"><a xlink:href="dir_000049_000051.html" target="_top" xlink:title="1">
<text text-anchor="middle" x="352.68" y="-40.11" font-family="FreeSans" font-size="10.00" fill="#63b8ff">1</text>
</a>
</g>
</g>
<!-- dir_1481610eb435d906d0a3c5aee4b203ba -->
<g id="node8" class="node">
<title>dir_1481610eb435d906d0a3c5aee4b203ba</title>
<g id="a_node8"><a xlink:href="dir_1481610eb435d906d0a3c5aee4b203ba.html" target="_top" xlink:title="purification">
<polygon fill="#4ea9ff" stroke="#404040" points="338.5,-90 267.5,-90 267.5,-71 338.5,-71 338.5,-90"/>
<text text-anchor="middle" x="303" y="-78" font-family="FreeSans" font-size="10.00">purification</text>
</a>
</g>
</g>
<!-- dir_1481610eb435d906d0a3c5aee4b203ba&#45;&gt;dir_048f7c5b69cb7e1832edab50eaa5c4ea -->
<g id="edge21" class="edge">
<title>dir_1481610eb435d906d0a3c5aee4b203ba&#45;&gt;dir_048f7c5b69cb7e1832edab50eaa5c4ea</title>
<g id="a_edge21"><a xlink:href="dir_000053_000068.html" target="_top">
<path fill="none" stroke="#63b8ff" d="M338.8,-75.7C390.1,-69.84 487.52,-57.13 579.01,-34.86"/>
<polygon fill="#63b8ff" stroke="#63b8ff" points="580.12,-38.19 588.98,-32.39 578.43,-31.4 580.12,-38.19"/>
</a>
</g>
<g id="a_edge21&#45;headlabel"><a xlink:href="dir_000053_000068.html" target="_top" xlink:title="2">
<text text-anchor="middle" x="577.31" y="-39.31" font-family="FreeSans" font-size="10.00" fill="#63b8ff">2</text>
</a>
</g>
</g>
<!-- dir_1481610eb435d906d0a3c5aee4b203ba&#45;&gt;dir_05301f9ba83e223c2c24bb4e5a915266 -->
<g id="edge22" class="edge">
<title>dir_1481610eb435d906d0a3c5aee4b203ba&#45;&gt;dir_05301f9ba83e223c2c24bb4e5a915266</title>
<g id="a_edge22"><a xlink:href="dir_000053_000037.html" target="_top">
<path fill="none" stroke="#63b8ff" d="M338.6,-76.31C397.21,-70.71 517.78,-57.67 628.77,-34.99"/>
<polygon fill="#63b8ff" stroke="#63b8ff" points="629.71,-38.37 638.79,-32.91 628.28,-31.52 629.71,-38.37"/>
</a>
</g>
<g id="a_edge22&#45;headlabel"><a xlink:href="dir_000053_000037.html" target="_top" xlink:title="3">
<text text-anchor="middle" x="626.76" y="-39.38" font-family="FreeSans" font-size="10.00" fill="#63b8ff">3</text>
</a>
</g>
</g>
</g>
</svg>

<g id="navigator" transform="translate(0 0)" fill="#404254">
  <rect fill="#f2f5e9" fill-opacity="0.5" stroke="#606060" stroke-width=".5" x="0" y="0" width="60" height="60"/>
  <use id="zoomplus" xlink:href="#zoomPlus" x="17" y="9" onmousedown="handleZoom(evt,'in')"/>
  <use id="zoomminus" xlink:href="#zoomMin" x="42" y="9" onmousedown="handleZoom(evt,'out')"/>
  <use id="reset" xlink:href="#resetDef" x="30" y="36" onmousedown="handleReset()"/>
   <use id="arrowup" xlink:href="#arrowUp" x="0" y="0" onmousedown="handlePan(0,-1)"/>
  <use id="arrowright" xlink:href="#arrowRight" x="0" y="0" onmousedown="handlePan(1,0)"/>
  <use id="arrowdown" xlink:href="#arrowDown" x="0" y="0" onmousedown="handlePan(0,1)"/>
  <use id="arrowleft" xlink:href="#arrowLeft" x="0" y="0" onmousedown="handlePan(-1,0)"/>
</g>
<svg viewBox="0 0 15 15" width="100%" height="30px" preserveAspectRatio="xMaxYMin meet">
 <g id="arrow_out" transform="scale(0.3 0.3)">
  <a xlink:href="dir_df3125d2ade78274bdfc2ee26337a54d_dep_org.svg" target="_base">
   <rect id="button" ry="5" rx="5" y="6" x="6" height="38" width="38"
        fill="#f2f5e9" fill-opacity="0.5" stroke="#606060" stroke-width="1.0"/>
   <path id="arrow"
     d="M 11.500037,31.436501 C 11.940474,20.09759 22.043105,11.32322 32.158766,21.979434 L 37.068811,17.246167 C 37.068811,17.246167 37.088388,32 37.088388,32 L 22.160133,31.978069 C 22.160133,31.978069 26.997745,27.140456 26.997745,27.140456 C 18.528582,18.264221 13.291696,25.230495 11.500037,31.436501 z"
     style="fill:#404040;"/>
  </a>
 </g>
</svg>

<style type='text/css'>
<![CDATA[
[data-mouse-over-selected='false'] { opacity: 0.7; }
[data-mouse-over-selected='true']  { opacity: 1.0; }
]]>
</style>
<script type="application/ecmascript"><![CDATA[
document.addEventListener('DOMContentLoaded', (event) => {
  highlightEdges();
  highlightAdjacentNodes();
});
]]></script>
</svg>
