<?xml version="1.0" encoding="UTF-8" standalone="no"?>
<!DOCTYPE svg PUBLIC "-//W3C//DTD SVG 1.1//EN"
 "http://www.w3.org/Graphics/SVG/1.1/DTD/svg11.dtd">
<!-- Generated by graphviz version 2.43.0 (0)
 -->
<!-- Title: mpqc/chemistry/qc/lcao/scf/pbc Pages: 1 -->
<!--zoomable 117 -->

<svg id="main" version="1.1" xmlns="http://www.w3.org/2000/svg" xmlns:xlink="http://www.w3.org/1999/xlink" xml:space="preserve" onload="init(evt)">
<style type="text/css"><![CDATA[
.node, .edge {opacity: 0.7;}
.node.selected, .edge.selected {opacity: 1;}
.edge:hover path { stroke: red; }
.edge:hover polygon { stroke: red; fill: red; }
]]></style>

<defs>
  <circle id="rim" cx="0" cy="0" r="7"/>
  <circle id="rim2" cx="0" cy="0" r="3.5"/>
  <g id="zoomPlus">
    <use xlink:href="#rim" fill="#404040"><set attributeName="fill" to="#808080" begin="zoomplus.mouseover" end="zoomplus.mouseout"/></use>
    <path d="M-4,0h8M0,-4v8" fill="none" stroke="white" stroke-width="1.5" pointer-events="none"/>
  </g>
  <g id="zoomMin">
    <use xlink:href="#rim" fill="#404040"><set attributeName="fill" to="#808080" begin="zoomminus.mouseover" end="zoomminus.mouseout"/></use>
    <path d="M-4,0h8" fill="none" stroke="white" stroke-width="1.5" pointer-events="none"/>
  </g>
  <g id="arrowUp" transform="translate(30 24)">
    <use xlink:href="#rim"/>
    <path pointer-events="none" fill="none" stroke="white" stroke-width="1.5" d="M0,-3.0v7 M-2.5,-0.5L0,-3.0L2.5,-0.5"/>
  </g>
  <g id="arrowRight" transform="rotate(90) translate(36 -43)">
    <use xlink:href="#rim"/>
    <path pointer-events="none" fill="none" stroke="white" stroke-width="1.5" d="M0,-3.0v7 M-2.5,-0.5L0,-3.0L2.5,-0.5"/>
  </g>
  <g id="arrowDown" transform="rotate(180) translate(-30 -48)">
    <use xlink:href="#rim"/>
    <path pointer-events="none" fill="none" stroke="white" stroke-width="1.5" d="M0,-3.0v7 M-2.5,-0.5L0,-3.0L2.5,-0.5"/>
  </g>
  <g id="arrowLeft" transform="rotate(270) translate(-36 17)">
    <use xlink:href="#rim"/>
    <path pointer-events="none" fill="none" stroke="white" stroke-width="1.5" d="M0,-3.0v7 M-2.5,-0.5L0,-3.0L2.5,-0.5"/>
  </g>
  <g id="resetDef">
    <use xlink:href="#rim2" fill="#404040"><set attributeName="fill" to="#808080" begin="reset.mouseover" end="reset.mouseout"/></use>
  </g>
</defs>
<script type="application/ecmascript">
var viewWidth = 672;
var viewHeight = 117;
var sectionId = 'dynsection-0';
</script>
<script type="application/ecmascript" xlink:href="svg.min.js"/>
<svg id="graph" class="graph">
<g id="viewport">
<title>mpqc/chemistry/qc/lcao/scf/pbc</title>
<g id="clust1" class="cluster">
<title>clusterdir_df3125d2ade78274bdfc2ee26337a54d</title>
<g id="a_clust1"><a xlink:href="dir_df3125d2ade78274bdfc2ee26337a54d.html" target="_top" xlink:title="scf">
<polygon fill="#daedff" stroke="#7f7f7f" stroke-dasharray="5,2" points="255,-47 255,-101 305,-101 305,-47 255,-47"/>
<text text-anchor="middle" x="280" y="-89" font-family="FreeSans" font-size="10.00">scf</text>
</a>
</g>
</g>
<!-- dir_61f5b52bd64e43d8b3f91e787ea6b377 -->
<g id="node1" class="node">
<title>dir_61f5b52bd64e43d8b3f91e787ea6b377</title>
<g id="a_node1"><a xlink:href="dir_61f5b52bd64e43d8b3f91e787ea6b377.html" target="_top" xlink:title="pbc">
<polygon fill="#daedff" stroke="#404040" stroke-width="2" points="297,-74 263,-74 263,-55 297,-55 297,-74"/>
<text text-anchor="middle" x="280" y="-62" font-family="FreeSans" font-size="10.00">pbc</text>
</a>
</g>
</g>
<!-- dir_048f7c5b69cb7e1832edab50eaa5c4ea -->
<g id="node2" class="node">
<title>dir_048f7c5b69cb7e1832edab50eaa5c4ea</title>
<g id="a_node2"><a xlink:href="dir_048f7c5b69cb7e1832edab50eaa5c4ea.html" target="_top" xlink:title="util">
<polygon fill="#daedff" stroke="red" stroke-dasharray="5,2" points="32,-19 0,-19 0,0 32,0 32,-19"/>
<text text-anchor="middle" x="16" y="-7" font-family="FreeSans" font-size="10.00">util</text>
</a>
</g>
</g>
<!-- dir_61f5b52bd64e43d8b3f91e787ea6b377&#45;&gt;dir_048f7c5b69cb7e1832edab50eaa5c4ea -->
<g id="edge1" class="edge">
<title>dir_61f5b52bd64e43d8b3f91e787ea6b377&#45;&gt;dir_048f7c5b69cb7e1832edab50eaa5c4ea</title>
<g id="a_edge1"><a xlink:href="dir_000049_000068.html" target="_top">
<path fill="none" stroke="#63b8ff" d="M262.71,-61.15C224.53,-55.79 130.03,-41.5 41.91,-18.91"/>
<polygon fill="#63b8ff" stroke="#63b8ff" points="42.59,-15.47 32.03,-16.33 40.83,-22.24 42.59,-15.47"/>
</a>
</g>
<g id="a_edge1&#45;headlabel"><a xlink:href="dir_000049_000068.html" target="_top" xlink:title="11">
<text text-anchor="middle" x="46.79" y="-11.13" font-family="FreeSans" font-size="10.00" fill="#63b8ff">11</text>
</a>
</g>
</g>
<!-- dir_05301f9ba83e223c2c24bb4e5a915266 -->
<g id="node3" class="node">
<title>dir_05301f9ba83e223c2c24bb4e5a915266</title>
<g id="a_node3"><a xlink:href="dir_05301f9ba83e223c2c24bb4e5a915266.html" target="_top" xlink:title="math">
<polygon fill="#daedff" stroke="red" stroke-dasharray="5,2" points="92,-19 50,-19 50,0 92,0 92,-19"/>
<text text-anchor="middle" x="71" y="-7" font-family="FreeSans" font-size="10.00">math</text>
</a>
</g>
</g>
<!-- dir_61f5b52bd64e43d8b3f91e787ea6b377&#45;&gt;dir_05301f9ba83e223c2c24bb4e5a915266 -->
<g id="edge2" class="edge">
<title>dir_61f5b52bd64e43d8b3f91e787ea6b377&#45;&gt;dir_05301f9ba83e223c2c24bb4e5a915266</title>
<g id="a_edge2"><a xlink:href="dir_000049_000037.html" target="_top">
<path fill="none" stroke="#63b8ff" d="M262.92,-59.45C232.58,-52.21 167.08,-36.4 102.26,-19.27"/>
<polygon fill="#63b8ff" stroke="#63b8ff" points="102.85,-15.81 92.28,-16.62 101.05,-22.57 102.85,-15.81"/>
</a>
</g>
<g id="a_edge2&#45;headlabel"><a xlink:href="dir_000049_000037.html" target="_top" xlink:title="13">
<text text-anchor="middle" x="107.05" y="-11.48" font-family="FreeSans" font-size="10.00" fill="#63b8ff">13</text>
</a>
</g>
</g>
<!-- dir_072b070bc725d6a2db76c22b2c6e8476 -->
<g id="node4" class="node">
<title>dir_072b070bc725d6a2db76c22b2c6e8476</title>
<g id="a_node4"><a xlink:href="dir_072b070bc725d6a2db76c22b2c6e8476.html" target="_top" xlink:title="units">
<polygon fill="#daedff" stroke="#7f7f7f" points="151.5,-19 110.5,-19 110.5,0 151.5,0 151.5,-19"/>
<text text-anchor="middle" x="131" y="-7" font-family="FreeSans" font-size="10.00">units</text>
</a>
</g>
</g>
<!-- dir_61f5b52bd64e43d8b3f91e787ea6b377&#45;&gt;dir_072b070bc725d6a2db76c22b2c6e8476 -->
<g id="edge3" class="edge">
<title>dir_61f5b52bd64e43d8b3f91e787ea6b377&#45;&gt;dir_072b070bc725d6a2db76c22b2c6e8476</title>
<g id="a_edge3"><a xlink:href="dir_000049_000066.html" target="_top">
<path fill="none" stroke="#63b8ff" d="M262.91,-57.42C238.18,-48.63 192.06,-32.22 161.44,-21.33"/>
<polygon fill="#63b8ff" stroke="#63b8ff" points="162.29,-17.92 151.7,-17.86 159.95,-24.51 162.29,-17.92"/>
</a>
</g>
<g id="a_edge3&#45;headlabel"><a xlink:href="dir_000049_000066.html" target="_top" xlink:title="1">
<text text-anchor="middle" x="166.63" y="-13.95" font-family="FreeSans" font-size="10.00" fill="#63b8ff">1</text>
</a>
</g>
</g>
<!-- dir_084478967d5724d8613f7cb2a1dd1c1e -->
<g id="node5" class="node">
<title>dir_084478967d5724d8613f7cb2a1dd1c1e</title>
<g id="a_node5"><a xlink:href="dir_084478967d5724d8613f7cb2a1dd1c1e.html" target="_top" xlink:title="wfn">
<polygon fill="#daedff" stroke="#7f7f7f" points="204.5,-19 169.5,-19 169.5,0 204.5,0 204.5,-19"/>
<text text-anchor="middle" x="187" y="-7" font-family="FreeSans" font-size="10.00">wfn</text>
</a>
</g>
</g>
<!-- dir_61f5b52bd64e43d8b3f91e787ea6b377&#45;&gt;dir_084478967d5724d8613f7cb2a1dd1c1e -->
<g id="edge4" class="edge">
<title>dir_61f5b52bd64e43d8b3f91e787ea6b377&#45;&gt;dir_084478967d5724d8613f7cb2a1dd1c1e</title>
<g id="a_edge4"><a xlink:href="dir_000049_000070.html" target="_top">
<path fill="none" stroke="#63b8ff" d="M265.06,-54.98C250.5,-46.69 228.13,-33.94 211.07,-24.22"/>
<polygon fill="#63b8ff" stroke="#63b8ff" points="212.64,-21.08 202.21,-19.17 209.17,-27.16 212.64,-21.08"/>
</a>
</g>
<g id="a_edge4&#45;headlabel"><a xlink:href="dir_000049_000070.html" target="_top" xlink:title="4">
<text text-anchor="middle" x="217.16" y="-17.89" font-family="FreeSans" font-size="10.00" fill="#63b8ff">4</text>
</a>
</g>
</g>
<!-- dir_26ae4716acfbd12584c5080db53ae013 -->
<g id="node6" class="node">
<title>dir_26ae4716acfbd12584c5080db53ae013</title>
<g id="a_node6"><a xlink:href="dir_26ae4716acfbd12584c5080db53ae013.html" target="_top" xlink:title="factory">
<polygon fill="#daedff" stroke="red" stroke-dasharray="5,2" points="273.5,-19 222.5,-19 222.5,0 273.5,0 273.5,-19"/>
<text text-anchor="middle" x="248" y="-7" font-family="FreeSans" font-size="10.00">factory</text>
</a>
</g>
</g>
<!-- dir_61f5b52bd64e43d8b3f91e787ea6b377&#45;&gt;dir_26ae4716acfbd12584c5080db53ae013 -->
<g id="edge5" class="edge">
<title>dir_61f5b52bd64e43d8b3f91e787ea6b377&#45;&gt;dir_26ae4716acfbd12584c5080db53ae013</title>
<g id="a_edge5"><a xlink:href="dir_000049_000024.html" target="_top">
<path fill="none" stroke="#63b8ff" d="M274.72,-54.75C270.29,-47.42 263.84,-36.73 258.38,-27.7"/>
<polygon fill="#63b8ff" stroke="#63b8ff" points="261.35,-25.84 253.19,-19.09 255.36,-29.46 261.35,-25.84"/>
</a>
</g>
<g id="a_edge5&#45;headlabel"><a xlink:href="dir_000049_000024.html" target="_top" xlink:title="25">
<text text-anchor="middle" x="265.64" y="-24.95" font-family="FreeSans" font-size="10.00" fill="#63b8ff">25</text>
</a>
</g>
</g>
<!-- dir_50885d8df49e326e988828eb2c569376 -->
<g id="node7" class="node">
<title>dir_50885d8df49e326e988828eb2c569376</title>
<g id="a_node7"><a xlink:href="dir_50885d8df49e326e988828eb2c569376.html" target="_top" xlink:title="basis">
<polygon fill="#daedff" stroke="red" stroke-dasharray="5,2" points="334,-19 292,-19 292,0 334,0 334,-19"/>
<text text-anchor="middle" x="313" y="-7" font-family="FreeSans" font-size="10.00">basis</text>
</a>
</g>
</g>
<!-- dir_61f5b52bd64e43d8b3f91e787ea6b377&#45;&gt;dir_50885d8df49e326e988828eb2c569376 -->
<g id="edge6" class="edge">
<title>dir_61f5b52bd64e43d8b3f91e787ea6b377&#45;&gt;dir_50885d8df49e326e988828eb2c569376</title>
<g id="a_edge6"><a xlink:href="dir_000049_000000.html" target="_top">
<path fill="none" stroke="#63b8ff" d="M285.45,-54.75C290.01,-47.42 296.67,-36.73 302.29,-27.7"/>
<polygon fill="#63b8ff" stroke="#63b8ff" points="305.34,-29.43 307.65,-19.09 299.4,-25.73 305.34,-29.43"/>
</a>
</g>
<g id="a_edge6&#45;headlabel"><a xlink:href="dir_000049_000000.html" target="_top" xlink:title="3">
<text text-anchor="middle" x="305.85" y="-31.48" font-family="FreeSans" font-size="10.00" fill="#63b8ff">3</text>
</a>
</g>
</g>
<!-- dir_79e09b370f6f9aca9214ea225a19a126 -->
<g id="node8" class="node">
<title>dir_79e09b370f6f9aca9214ea225a19a126</title>
<g id="a_node8"><a xlink:href="dir_79e09b370f6f9aca9214ea225a19a126.html" target="_top" xlink:title="molecule">
<polygon fill="#daedff" stroke="red" stroke-dasharray="5,2" points="414,-19 352,-19 352,0 414,0 414,-19"/>
<text text-anchor="middle" x="383" y="-7" font-family="FreeSans" font-size="10.00">molecule</text>
</a>
</g>
</g>
<!-- dir_61f5b52bd64e43d8b3f91e787ea6b377&#45;&gt;dir_79e09b370f6f9aca9214ea225a19a126 -->
<g id="edge7" class="edge">
<title>dir_61f5b52bd64e43d8b3f91e787ea6b377&#45;&gt;dir_79e09b370f6f9aca9214ea225a19a126</title>
<g id="a_edge7"><a xlink:href="dir_000049_000043.html" target="_top">
<path fill="none" stroke="#63b8ff" d="M296.55,-54.98C312.89,-46.57 338.13,-33.59 357.13,-23.81"/>
<polygon fill="#63b8ff" stroke="#63b8ff" points="358.86,-26.86 366.15,-19.17 355.66,-20.63 358.86,-26.86"/>
</a>
</g>
<g id="a_edge7&#45;headlabel"><a xlink:href="dir_000049_000043.html" target="_top" xlink:title="6">
<text text-anchor="middle" x="356.96" y="-28.53" font-family="FreeSans" font-size="10.00" fill="#63b8ff">6</text>
</a>
</g>
</g>
<!-- dir_b3025fc6edd0cbb07d65f3b6940386b4 -->
<g id="node9" class="node">
<title>dir_b3025fc6edd0cbb07d65f3b6940386b4</title>
<g id="a_node9"><a xlink:href="dir_b3025fc6edd0cbb07d65f3b6940386b4.html" target="_top" xlink:title="integrals">
<polygon fill="#daedff" stroke="red" stroke-dasharray="5,2" points="491.5,-19 432.5,-19 432.5,0 491.5,0 491.5,-19"/>
<text text-anchor="middle" x="462" y="-7" font-family="FreeSans" font-size="10.00">integrals</text>
</a>
</g>
</g>
<!-- dir_61f5b52bd64e43d8b3f91e787ea6b377&#45;&gt;dir_b3025fc6edd0cbb07d65f3b6940386b4 -->
<g id="edge8" class="edge">
<title>dir_61f5b52bd64e43d8b3f91e787ea6b377&#45;&gt;dir_b3025fc6edd0cbb07d65f3b6940386b4</title>
<g id="a_edge8"><a xlink:href="dir_000049_000030.html" target="_top">
<path fill="none" stroke="#63b8ff" d="M297.12,-58.51C325.63,-50.21 383.56,-33.34 422.58,-21.98"/>
<polygon fill="#63b8ff" stroke="#63b8ff" points="423.93,-25.23 432.56,-19.07 421.98,-18.51 423.93,-25.23"/>
</a>
</g>
<g id="a_edge8&#45;headlabel"><a xlink:href="dir_000049_000030.html" target="_top" xlink:title="4">
<text text-anchor="middle" x="421.28" y="-26.46" font-family="FreeSans" font-size="10.00" fill="#63b8ff">4</text>
</a>
</g>
</g>
<!-- dir_ccca7abcd5dfb15bb9fa9e68acbdf5bb -->
<g id="node10" class="node">
<title>dir_ccca7abcd5dfb15bb9fa9e68acbdf5bb</title>
<g id="a_node10"><a xlink:href="dir_ccca7abcd5dfb15bb9fa9e68acbdf5bb.html" target="_top" xlink:title="expression">
<polygon fill="#daedff" stroke="#7f7f7f" points="580,-19 510,-19 510,0 580,0 580,-19"/>
<text text-anchor="middle" x="545" y="-7" font-family="FreeSans" font-size="10.00">expression</text>
</a>
</g>
</g>
<!-- dir_61f5b52bd64e43d8b3f91e787ea6b377&#45;&gt;dir_ccca7abcd5dfb15bb9fa9e68acbdf5bb -->
<g id="edge9" class="edge">
<title>dir_61f5b52bd64e43d8b3f91e787ea6b377&#45;&gt;dir_ccca7abcd5dfb15bb9fa9e68acbdf5bb</title>
<g id="a_edge9"><a xlink:href="dir_000049_000019.html" target="_top">
<path fill="none" stroke="#63b8ff" d="M297.39,-60.02C337.99,-51.9 440.1,-31.48 499.75,-19.55"/>
<polygon fill="#63b8ff" stroke="#63b8ff" points="500.54,-22.96 509.66,-17.57 499.16,-16.1 500.54,-22.96"/>
</a>
</g>
<g id="a_edge9&#45;headlabel"><a xlink:href="dir_000049_000019.html" target="_top" xlink:title="1">
<text text-anchor="middle" x="497.57" y="-23.95" font-family="FreeSans" font-size="10.00" fill="#63b8ff">1</text>
</a>
</g>
</g>
<!-- dir_dfad333b26ae1d260f0bd4d9efde2293 -->
<g id="node11" class="node">
<title>dir_dfad333b26ae1d260f0bd4d9efde2293</title>
<g id="a_node11"><a xlink:href="dir_dfad333b26ae1d260f0bd4d9efde2293.html" target="_top" xlink:title="properties">
<polygon fill="#daedff" stroke="#7f7f7f" points="664,-19 598,-19 598,0 664,0 664,-19"/>
<text text-anchor="middle" x="631" y="-7" font-family="FreeSans" font-size="10.00">properties</text>
</a>
</g>
</g>
<!-- dir_61f5b52bd64e43d8b3f91e787ea6b377&#45;&gt;dir_dfad333b26ae1d260f0bd4d9efde2293 -->
<g id="edge10" class="edge">
<title>dir_61f5b52bd64e43d8b3f91e787ea6b377&#45;&gt;dir_dfad333b26ae1d260f0bd4d9efde2293</title>
<g id="a_edge10"><a xlink:href="dir_000049_000051.html" target="_top">
<path fill="none" stroke="#63b8ff" d="M297.14,-61.38C342.68,-55.67 470.65,-39.15 587.39,-19.2"/>
<polygon fill="#63b8ff" stroke="#63b8ff" points="588.3,-22.59 597.56,-17.45 587.11,-15.69 588.3,-22.59"/>
</a>
</g>
<g id="a_edge10&#45;headlabel"><a xlink:href="dir_000049_000051.html" target="_top" xlink:title="1">
<text text-anchor="middle" x="585.24" y="-23.5" font-family="FreeSans" font-size="10.00" fill="#63b8ff">1</text>
</a>
</g>
</g>
</g>
</svg>

<g id="navigator" transform="translate(0 0)" fill="#404254">
  <rect fill="#f2f5e9" fill-opacity="0.5" stroke="#606060" stroke-width=".5" x="0" y="0" width="60" height="60"/>
  <use id="zoomplus" xlink:href="#zoomPlus" x="17" y="9" onmousedown="handleZoom(evt,'in')"/>
  <use id="zoomminus" xlink:href="#zoomMin" x="42" y="9" onmousedown="handleZoom(evt,'out')"/>
  <use id="reset" xlink:href="#resetDef" x="30" y="36" onmousedown="handleReset()"/>
   <use id="arrowup" xlink:href="#arrowUp" x="0" y="0" onmousedown="handlePan(0,-1)"/>
  <use id="arrowright" xlink:href="#arrowRight" x="0" y="0" onmousedown="handlePan(1,0)"/>
  <use id="arrowdown" xlink:href="#arrowDown" x="0" y="0" onmousedown="handlePan(0,1)"/>
  <use id="arrowleft" xlink:href="#arrowLeft" x="0" y="0" onmousedown="handlePan(-1,0)"/>
</g>
<svg viewBox="0 0 15 15" width="100%" height="30px" preserveAspectRatio="xMaxYMin meet">
 <g id="arrow_out" transform="scale(0.3 0.3)">
  <a xlink:href="dir_61f5b52bd64e43d8b3f91e787ea6b377_dep_org.svg" target="_base">
   <rect id="button" ry="5" rx="5" y="6" x="6" height="38" width="38"
        fill="#f2f5e9" fill-opacity="0.5" stroke="#606060" stroke-width="1.0"/>
   <path id="arrow"
     d="M 11.500037,31.436501 C 11.940474,20.09759 22.043105,11.32322 32.158766,21.979434 L 37.068811,17.246167 C 37.068811,17.246167 37.088388,32 37.088388,32 L 22.160133,31.978069 C 22.160133,31.978069 26.997745,27.140456 26.997745,27.140456 C 18.528582,18.264221 13.291696,25.230495 11.500037,31.436501 z"
     style="fill:#404040;"/>
  </a>
 </g>
</svg>

<style type='text/css'>
<![CDATA[
[data-mouse-over-selected='false'] { opacity: 0.7; }
[data-mouse-over-selected='true']  { opacity: 1.0; }
]]>
</style>
<script type="application/ecmascript"><![CDATA[
document.addEventListener('DOMContentLoaded', (event) => {
  highlightEdges();
  highlightAdjacentNodes();
});
]]></script>
</svg>
