<?xml version="1.0" encoding="UTF-8" standalone="no"?>
<!DOCTYPE svg PUBLIC "-//W3C//DTD SVG 1.1//EN"
 "http://www.w3.org/Graphics/SVG/1.1/DTD/svg11.dtd">
<!-- Generated by graphviz version 2.43.0 (0)
 -->
<!-- Title: mpqc/chemistry/qc/lcao/wfn Pages: 1 -->
<svg width="680pt" height="133pt"
 viewBox="0.00 0.00 680.00 133.00" xmlns="http://www.w3.org/2000/svg" xmlns:xlink="http://www.w3.org/1999/xlink">
<g id="graph0" class="graph" transform="scale(1 1) rotate(0) translate(4 129)">
<title>mpqc/chemistry/qc/lcao/wfn</title>
<g id="clust1" class="cluster">
<title>clusterdir_f442f60972c0f9169917a25cab152b2a</title>
<g id="a_clust1"><a xlink:href="dir_f442f60972c0f9169917a25cab152b2a.html" target="_top" xlink:title="lcao">
<polygon fill="#daedff" stroke="#7f7f7f" stroke-dasharray="5,2" points="8,-8 8,-117 352,-117 352,-8 8,-8"/>
<text text-anchor="middle" x="180" y="-105" font-family="FreeSans" font-size="10.00">lcao</text>
</a>
</g>
</g>
<!-- dir_26ae4716acfbd12584c5080db53ae013 -->
<g id="node1" class="node">
<title>dir_26ae4716acfbd12584c5080db53ae013</title>
<g id="a_node1"><a xlink:href="dir_26ae4716acfbd12584c5080db53ae013.html" target="_top" xlink:title="factory">
<polygon fill="#4ea9ff" stroke="red" points="67.5,-35 16.5,-35 16.5,-16 67.5,-16 67.5,-35"/>
<text text-anchor="middle" x="42" y="-23" font-family="FreeSans" font-size="10.00">factory</text>
</a>
</g>
</g>
<!-- dir_50885d8df49e326e988828eb2c569376 -->
<g id="node2" class="node">
<title>dir_50885d8df49e326e988828eb2c569376</title>
<g id="a_node2"><a xlink:href="dir_50885d8df49e326e988828eb2c569376.html" target="_top" xlink:title="basis">
<polygon fill="#4ea9ff" stroke="red" points="128,-35 86,-35 86,-16 128,-16 128,-35"/>
<text text-anchor="middle" x="107" y="-23" font-family="FreeSans" font-size="10.00">basis</text>
</a>
</g>
</g>
<!-- dir_b3025fc6edd0cbb07d65f3b6940386b4 -->
<g id="node3" class="node">
<title>dir_b3025fc6edd0cbb07d65f3b6940386b4</title>
<g id="a_node3"><a xlink:href="dir_b3025fc6edd0cbb07d65f3b6940386b4.html" target="_top" xlink:title="integrals">
<polygon fill="#4ea9ff" stroke="red" points="205.5,-35 146.5,-35 146.5,-16 205.5,-16 205.5,-35"/>
<text text-anchor="middle" x="176" y="-23" font-family="FreeSans" font-size="10.00">integrals</text>
</a>
</g>
</g>
<!-- dir_ccca7abcd5dfb15bb9fa9e68acbdf5bb -->
<g id="node4" class="node">
<title>dir_ccca7abcd5dfb15bb9fa9e68acbdf5bb</title>
<g id="a_node4"><a xlink:href="dir_ccca7abcd5dfb15bb9fa9e68acbdf5bb.html" target="_top" xlink:title="expression">
<polygon fill="#4ea9ff" stroke="#404040" points="294,-35 224,-35 224,-16 294,-16 294,-35"/>
<text text-anchor="middle" x="259" y="-23" font-family="FreeSans" font-size="10.00">expression</text>
</a>
</g>
</g>
<!-- dir_df3125d2ade78274bdfc2ee26337a54d -->
<g id="node5" class="node">
<title>dir_df3125d2ade78274bdfc2ee26337a54d</title>
<g id="a_node5"><a xlink:href="dir_df3125d2ade78274bdfc2ee26337a54d.html" target="_top" xlink:title="scf">
<polygon fill="#4ea9ff" stroke="red" points="343.5,-35 312.5,-35 312.5,-16 343.5,-16 343.5,-35"/>
<text text-anchor="middle" x="328" y="-23" font-family="FreeSans" font-size="10.00">scf</text>
</a>
</g>
</g>
<!-- dir_084478967d5724d8613f7cb2a1dd1c1e -->
<g id="node6" class="node">
<title>dir_084478967d5724d8613f7cb2a1dd1c1e</title>
<g id="a_node6"><a xlink:href="dir_084478967d5724d8613f7cb2a1dd1c1e.html" target="_top" xlink:title="wfn">
<polygon fill="#daedff" stroke="#404040" stroke-width="2" points="343.5,-90 308.5,-90 308.5,-71 343.5,-71 343.5,-90"/>
<text text-anchor="middle" x="326" y="-78" font-family="FreeSans" font-size="10.00">wfn</text>
</a>
</g>
</g>
<!-- dir_084478967d5724d8613f7cb2a1dd1c1e&#45;&gt;dir_26ae4716acfbd12584c5080db53ae013 -->
<g id="edge3" class="edge">
<title>dir_084478967d5724d8613f7cb2a1dd1c1e&#45;&gt;dir_26ae4716acfbd12584c5080db53ae013</title>
<g id="a_edge3"><a xlink:href="dir_000070_000024.html" target="_top">
<path fill="none" stroke="#63b8ff" d="M308.42,-76.74C269.01,-70.47 170.42,-54.34 77.42,-34.97"/>
<polygon fill="#63b8ff" stroke="#63b8ff" points="78.08,-31.53 67.57,-32.9 76.64,-38.38 78.08,-31.53"/>
</a>
</g>
<g id="a_edge3&#45;headlabel"><a xlink:href="dir_000070_000024.html" target="_top" xlink:title="14">
<text text-anchor="middle" x="82.18" y="-26.99" font-family="FreeSans" font-size="10.00" fill="#63b8ff">14</text>
</a>
</g>
</g>
<!-- dir_084478967d5724d8613f7cb2a1dd1c1e&#45;&gt;dir_50885d8df49e326e988828eb2c569376 -->
<g id="edge4" class="edge">
<title>dir_084478967d5724d8613f7cb2a1dd1c1e&#45;&gt;dir_50885d8df49e326e988828eb2c569376</title>
<g id="a_edge4"><a xlink:href="dir_000070_000000.html" target="_top">
<path fill="none" stroke="#63b8ff" d="M308.32,-75.53C274.95,-68 200.4,-50.93 138,-35 137.9,-34.97 137.8,-34.95 137.71,-34.92"/>
<polygon fill="#63b8ff" stroke="#63b8ff" points="138.88,-31.62 128.32,-32.45 137.1,-38.38 138.88,-31.62"/>
</a>
</g>
<g id="a_edge4&#45;headlabel"><a xlink:href="dir_000070_000000.html" target="_top" xlink:title="2">
<text text-anchor="middle" x="143.08" y="-27.29" font-family="FreeSans" font-size="10.00" fill="#63b8ff">2</text>
</a>
</g>
</g>
<!-- dir_084478967d5724d8613f7cb2a1dd1c1e&#45;&gt;dir_b3025fc6edd0cbb07d65f3b6940386b4 -->
<g id="edge7" class="edge">
<title>dir_084478967d5724d8613f7cb2a1dd1c1e&#45;&gt;dir_b3025fc6edd0cbb07d65f3b6940386b4</title>
<g id="a_edge7"><a xlink:href="dir_000070_000030.html" target="_top">
<path fill="none" stroke="#63b8ff" d="M308.5,-73.32C284.3,-64.77 240.15,-49.16 209.49,-38.33"/>
<polygon fill="#63b8ff" stroke="#63b8ff" points="210.65,-35.03 200.06,-35 208.32,-41.63 210.65,-35.03"/>
</a>
</g>
<g id="a_edge7&#45;headlabel"><a xlink:href="dir_000070_000030.html" target="_top" xlink:title="9">
<text text-anchor="middle" x="214.99" y="-31.05" font-family="FreeSans" font-size="10.00" fill="#63b8ff">9</text>
</a>
</g>
</g>
<!-- dir_084478967d5724d8613f7cb2a1dd1c1e&#45;&gt;dir_ccca7abcd5dfb15bb9fa9e68acbdf5bb -->
<g id="edge8" class="edge">
<title>dir_084478967d5724d8613f7cb2a1dd1c1e&#45;&gt;dir_ccca7abcd5dfb15bb9fa9e68acbdf5bb</title>
<g id="a_edge8"><a xlink:href="dir_000070_000019.html" target="_top">
<path fill="none" stroke="#63b8ff" d="M315.24,-70.98C305.23,-63.07 290.11,-51.11 278.07,-41.58"/>
<polygon fill="#63b8ff" stroke="#63b8ff" points="279.97,-38.63 269.96,-35.17 275.63,-44.12 279.97,-38.63"/>
</a>
</g>
<g id="a_edge8&#45;headlabel"><a xlink:href="dir_000070_000019.html" target="_top" xlink:title="1">
<text text-anchor="middle" x="284.56" y="-36.13" font-family="FreeSans" font-size="10.00" fill="#63b8ff">1</text>
</a>
</g>
</g>
<!-- dir_084478967d5724d8613f7cb2a1dd1c1e&#45;&gt;dir_df3125d2ade78274bdfc2ee26337a54d -->
<g id="edge9" class="edge">
<title>dir_084478967d5724d8613f7cb2a1dd1c1e&#45;&gt;dir_df3125d2ade78274bdfc2ee26337a54d</title>
<g id="a_edge9"><a xlink:href="dir_000070_000057.html" target="_top">
<path fill="none" stroke="#63b8ff" d="M326.33,-70.75C326.59,-63.8 326.97,-53.85 327.3,-45.13"/>
<polygon fill="#63b8ff" stroke="#63b8ff" points="330.8,-45.21 327.68,-35.09 323.8,-44.95 330.8,-45.21"/>
</a>
</g>
<g id="a_edge9&#45;headlabel"><a xlink:href="dir_000070_000057.html" target="_top" xlink:title="4">
<text text-anchor="middle" x="333.5" y="-46.41" font-family="FreeSans" font-size="10.00" fill="#63b8ff">4</text>
</a>
</g>
</g>
<!-- dir_048f7c5b69cb7e1832edab50eaa5c4ea -->
<g id="node7" class="node">
<title>dir_048f7c5b69cb7e1832edab50eaa5c4ea</title>
<g id="a_node7"><a xlink:href="dir_048f7c5b69cb7e1832edab50eaa5c4ea.html" target="_top" xlink:title="util">
<polygon fill="#daedff" stroke="red" stroke-dasharray="5,2" points="394,-35 362,-35 362,-16 394,-16 394,-35"/>
<text text-anchor="middle" x="378" y="-23" font-family="FreeSans" font-size="10.00">util</text>
</a>
</g>
</g>
<!-- dir_084478967d5724d8613f7cb2a1dd1c1e&#45;&gt;dir_048f7c5b69cb7e1832edab50eaa5c4ea -->
<g id="edge1" class="edge">
<title>dir_084478967d5724d8613f7cb2a1dd1c1e&#45;&gt;dir_048f7c5b69cb7e1832edab50eaa5c4ea</title>
<g id="a_edge1"><a xlink:href="dir_000070_000068.html" target="_top">
<path fill="none" stroke="#63b8ff" d="M334.59,-70.75C342.16,-63.03 353.38,-51.6 362.51,-42.28"/>
<polygon fill="#63b8ff" stroke="#63b8ff" points="365.07,-44.68 369.57,-35.09 360.07,-39.78 365.07,-44.68"/>
</a>
</g>
<g id="a_edge1&#45;headlabel"><a xlink:href="dir_000070_000068.html" target="_top" xlink:title="17">
<text text-anchor="middle" x="364.58" y="-46.73" font-family="FreeSans" font-size="10.00" fill="#63b8ff">17</text>
</a>
</g>
</g>
<!-- dir_05301f9ba83e223c2c24bb4e5a915266 -->
<g id="node8" class="node">
<title>dir_05301f9ba83e223c2c24bb4e5a915266</title>
<g id="a_node8"><a xlink:href="dir_05301f9ba83e223c2c24bb4e5a915266.html" target="_top" xlink:title="math">
<polygon fill="#daedff" stroke="red" stroke-dasharray="5,2" points="454,-35 412,-35 412,-16 454,-16 454,-35"/>
<text text-anchor="middle" x="433" y="-23" font-family="FreeSans" font-size="10.00">math</text>
</a>
</g>
</g>
<!-- dir_084478967d5724d8613f7cb2a1dd1c1e&#45;&gt;dir_05301f9ba83e223c2c24bb4e5a915266 -->
<g id="edge2" class="edge">
<title>dir_084478967d5724d8613f7cb2a1dd1c1e&#45;&gt;dir_05301f9ba83e223c2c24bb4e5a915266</title>
<g id="a_edge2"><a xlink:href="dir_000070_000037.html" target="_top">
<path fill="none" stroke="#63b8ff" d="M343.19,-70.98C360.25,-62.54 386.63,-49.47 406.4,-39.68"/>
<polygon fill="#63b8ff" stroke="#63b8ff" points="408.09,-42.75 415.5,-35.17 404.98,-36.47 408.09,-42.75"/>
</a>
</g>
<g id="a_edge2&#45;headlabel"><a xlink:href="dir_000070_000037.html" target="_top" xlink:title="18">
<text text-anchor="middle" x="406.13" y="-44.39" font-family="FreeSans" font-size="10.00" fill="#63b8ff">18</text>
</a>
</g>
</g>
<!-- dir_79e09b370f6f9aca9214ea225a19a126 -->
<g id="node9" class="node">
<title>dir_79e09b370f6f9aca9214ea225a19a126</title>
<g id="a_node9"><a xlink:href="dir_79e09b370f6f9aca9214ea225a19a126.html" target="_top" xlink:title="molecule">
<polygon fill="#daedff" stroke="red" stroke-dasharray="5,2" points="534,-35 472,-35 472,-16 534,-16 534,-35"/>
<text text-anchor="middle" x="503" y="-23" font-family="FreeSans" font-size="10.00">molecule</text>
</a>
</g>
</g>
<!-- dir_084478967d5724d8613f7cb2a1dd1c1e&#45;&gt;dir_79e09b370f6f9aca9214ea225a19a126 -->
<g id="edge5" class="edge">
<title>dir_084478967d5724d8613f7cb2a1dd1c1e&#45;&gt;dir_79e09b370f6f9aca9214ea225a19a126</title>
<g id="a_edge5"><a xlink:href="dir_000070_000043.html" target="_top">
<path fill="none" stroke="#63b8ff" d="M343.62,-74.22C371.71,-65.81 427.31,-49.16 464.83,-37.93"/>
<polygon fill="#63b8ff" stroke="#63b8ff" points="465.84,-41.28 474.42,-35.06 463.84,-34.57 465.84,-41.28"/>
</a>
</g>
<g id="a_edge5&#45;headlabel"><a xlink:href="dir_000070_000043.html" target="_top" xlink:title="4">
<text text-anchor="middle" x="463.22" y="-42.53" font-family="FreeSans" font-size="10.00" fill="#63b8ff">4</text>
</a>
</g>
</g>
<!-- dir_a7213113f97575cf4c1220ecd9faa952 -->
<g id="node10" class="node">
<title>dir_a7213113f97575cf4c1220ecd9faa952</title>
<g id="a_node10"><a xlink:href="dir_a7213113f97575cf4c1220ecd9faa952.html" target="_top" xlink:title="wfn">
<polygon fill="#daedff" stroke="#7f7f7f" points="587.5,-35 552.5,-35 552.5,-16 587.5,-16 587.5,-35"/>
<text text-anchor="middle" x="570" y="-23" font-family="FreeSans" font-size="10.00">wfn</text>
</a>
</g>
</g>
<!-- dir_084478967d5724d8613f7cb2a1dd1c1e&#45;&gt;dir_a7213113f97575cf4c1220ecd9faa952 -->
<g id="edge6" class="edge">
<title>dir_084478967d5724d8613f7cb2a1dd1c1e&#45;&gt;dir_a7213113f97575cf4c1220ecd9faa952</title>
<g id="a_edge6"><a xlink:href="dir_000070_000072.html" target="_top">
<path fill="none" stroke="#63b8ff" d="M343.58,-76.53C379.24,-70.36 462.79,-55.25 542.64,-34.85"/>
<polygon fill="#63b8ff" stroke="#63b8ff" points="543.55,-38.23 552.36,-32.34 541.8,-31.46 543.55,-38.23"/>
</a>
</g>
<g id="a_edge6&#45;headlabel"><a xlink:href="dir_000070_000072.html" target="_top" xlink:title="4">
<text text-anchor="middle" x="540.78" y="-39.38" font-family="FreeSans" font-size="10.00" fill="#63b8ff">4</text>
</a>
</g>
</g>
<!-- dir_dfad333b26ae1d260f0bd4d9efde2293 -->
<g id="node11" class="node">
<title>dir_dfad333b26ae1d260f0bd4d9efde2293</title>
<g id="a_node11"><a xlink:href="dir_dfad333b26ae1d260f0bd4d9efde2293.html" target="_top" xlink:title="properties">
<polygon fill="#daedff" stroke="#7f7f7f" points="672,-35 606,-35 606,-16 672,-16 672,-35"/>
<text text-anchor="middle" x="639" y="-23" font-family="FreeSans" font-size="10.00">properties</text>
</a>
</g>
</g>
<!-- dir_084478967d5724d8613f7cb2a1dd1c1e&#45;&gt;dir_dfad333b26ae1d260f0bd4d9efde2293 -->
<g id="edge10" class="edge">
<title>dir_084478967d5724d8613f7cb2a1dd1c1e&#45;&gt;dir_dfad333b26ae1d260f0bd4d9efde2293</title>
<g id="a_edge10"><a xlink:href="dir_000070_000051.html" target="_top">
<path fill="none" stroke="#63b8ff" d="M343.8,-76.81C385.78,-70.42 494.48,-53.58 595.49,-35.22"/>
<polygon fill="#63b8ff" stroke="#63b8ff" points="596.34,-38.63 605.55,-33.39 595.08,-31.74 596.34,-38.63"/>
</a>
</g>
<g id="a_edge10&#45;headlabel"><a xlink:href="dir_000070_000051.html" target="_top" xlink:title="1">
<text text-anchor="middle" x="593.32" y="-39.56" font-family="FreeSans" font-size="10.00" fill="#63b8ff">1</text>
</a>
</g>
</g>
</g>
</svg>
