<?xml version="1.0" encoding="UTF-8" standalone="no"?>
<!DOCTYPE svg PUBLIC "-//W3C//DTD SVG 1.1//EN"
 "http://www.w3.org/Graphics/SVG/1.1/DTD/svg11.dtd">
<!-- Generated by graphviz version 2.43.0 (0)
 -->
<!-- Title: mpqc/math/external/tiledarray/dist_array_vector.h Pages: 1 -->
<svg width="1176pt" height="280pt"
 viewBox="0.00 0.00 1176.00 280.00" xmlns="http://www.w3.org/2000/svg" xmlns:xlink="http://www.w3.org/1999/xlink">
<g id="graph0" class="graph" transform="scale(1 1) rotate(0) translate(4 276)">
<title>mpqc/math/external/tiledarray/dist_array_vector.h</title>
<!-- Node1 -->
<g id="Node000001" class="node">
<title>Node1</title>
<g id="a_Node000001"><a xlink:title=" ">
<polygon fill="#999999" stroke="#666666" points="746,-272 627,-272 627,-231 746,-231 746,-272"/>
<text text-anchor="start" x="635" y="-260" font-family="FreeSans" font-size="10.00">mpqc/math/external</text>
<text text-anchor="start" x="635" y="-249" font-family="FreeSans" font-size="10.00">/tiledarray/dist_array</text>
<text text-anchor="middle" x="686.5" y="-238" font-family="FreeSans" font-size="10.00">_vector.h</text>
</a>
</g>
</g>
<!-- Node2 -->
<g id="Node000002" class="node">
<title>Node2</title>
<g id="a_Node000002"><a xlink:href="math_2external_2tiledarray_2fwd_8h.html" target="_top" xlink:title=" ">
<polygon fill="white" stroke="#666666" points="190.5,-195 74.5,-195 74.5,-165 190.5,-165 190.5,-195"/>
<text text-anchor="start" x="82.5" y="-183" font-family="FreeSans" font-size="10.00">mpqc/math/external</text>
<text text-anchor="middle" x="132.5" y="-172" font-family="FreeSans" font-size="10.00">/tiledarray/fwd.h</text>
</a>
</g>
</g>
<!-- Node1&#45;&gt;Node2 -->
<g id="edge1_Node000001_Node000002" class="edge">
<title>Node1&#45;&gt;Node2</title>
<g id="a_edge1_Node000001_Node000002"><a xlink:title=" ">
<path fill="none" stroke="#63b8ff" d="M626.66,-245.48C536.43,-237.51 360.04,-220.39 200.54,-195.07"/>
<polygon fill="#63b8ff" stroke="#63b8ff" points="200.97,-191.6 190.54,-193.47 199.86,-198.51 200.97,-191.6"/>
</a>
</g>
</g>
<!-- Node5 -->
<g id="Node000005" class="node">
<title>Node5</title>
<g id="a_Node000005"><a xlink:href="assert_8h.html" target="_top" xlink:title=" ">
<polygon fill="white" stroke="#666666" points="340,-189.5 209,-189.5 209,-170.5 340,-170.5 340,-189.5"/>
<text text-anchor="middle" x="274.5" y="-177.5" font-family="FreeSans" font-size="10.00">mpqc/util/misc/assert.h</text>
</a>
</g>
</g>
<!-- Node1&#45;&gt;Node5 -->
<g id="edge4_Node000001_Node000005" class="edge">
<title>Node1&#45;&gt;Node5</title>
<g id="a_edge4_Node000001_Node000005"><a xlink:title=" ">
<path fill="none" stroke="#63b8ff" d="M626.78,-241.06C559.36,-230.31 446.45,-212.03 349.5,-195 342.93,-193.85 336.03,-192.6 329.2,-191.35"/>
<polygon fill="#63b8ff" stroke="#63b8ff" points="329.76,-187.89 319.29,-189.52 328.49,-194.78 329.76,-187.89"/>
</a>
</g>
</g>
<!-- Node15 -->
<g id="Node000015" class="node">
<title>Node15</title>
<g id="a_Node000015"><a xlink:title=" ">
<polygon fill="#e0e0e0" stroke="#999999" points="484.5,-189.5 358.5,-189.5 358.5,-170.5 484.5,-170.5 484.5,-189.5"/>
<text text-anchor="middle" x="421.5" y="-177.5" font-family="FreeSans" font-size="10.00">TiledArray/dist_array.h</text>
</a>
</g>
</g>
<!-- Node1&#45;&gt;Node15 -->
<g id="edge17_Node000001_Node000015" class="edge">
<title>Node1&#45;&gt;Node15</title>
<g id="a_edge17_Node000001_Node000015"><a xlink:title=" ">
<path fill="none" stroke="#63b8ff" d="M626.7,-234.82C577.13,-221.82 507.9,-203.66 463.89,-192.12"/>
<polygon fill="#63b8ff" stroke="#63b8ff" points="464.64,-188.7 454.08,-189.55 462.87,-195.47 464.64,-188.7"/>
</a>
</g>
</g>
<!-- Node16 -->
<g id="Node000016" class="node">
<title>Node16</title>
<g id="a_Node000016"><a xlink:title=" ">
<polygon fill="#e0e0e0" stroke="#999999" points="604,-189.5 503,-189.5 503,-170.5 604,-170.5 604,-189.5"/>
<text text-anchor="middle" x="553.5" y="-177.5" font-family="FreeSans" font-size="10.00">TiledArray/error.h</text>
</a>
</g>
</g>
<!-- Node1&#45;&gt;Node16 -->
<g id="edge18_Node000001_Node000016" class="edge">
<title>Node1&#45;&gt;Node16</title>
<g id="a_edge18_Node000001_Node000016"><a xlink:title=" ">
<path fill="none" stroke="#63b8ff" d="M649.1,-230.96C626.65,-219.22 598.69,-204.61 578.82,-194.23"/>
<polygon fill="#63b8ff" stroke="#63b8ff" points="580.26,-191.03 569.77,-189.5 577.01,-197.24 580.26,-191.03"/>
</a>
</g>
</g>
<!-- Node17 -->
<g id="Node000017" class="node">
<title>Node17</title>
<g id="a_Node000017"><a xlink:title=" ">
<polygon fill="#e0e0e0" stroke="#999999" points="750.5,-195 622.5,-195 622.5,-165 750.5,-165 750.5,-195"/>
<text text-anchor="start" x="630.5" y="-183" font-family="FreeSans" font-size="10.00">TiledArray/expressions</text>
<text text-anchor="middle" x="686.5" y="-172" font-family="FreeSans" font-size="10.00">/expr.h</text>
</a>
</g>
</g>
<!-- Node1&#45;&gt;Node17 -->
<g id="edge19_Node000001_Node000017" class="edge">
<title>Node1&#45;&gt;Node17</title>
<g id="a_edge19_Node000001_Node000017"><a xlink:title=" ">
<path fill="none" stroke="#63b8ff" d="M686.5,-230.77C686.5,-222.85 686.5,-213.63 686.5,-205.3"/>
<polygon fill="#63b8ff" stroke="#63b8ff" points="690,-205.04 686.5,-195.04 683,-205.04 690,-205.04"/>
</a>
</g>
</g>
<!-- Node18 -->
<g id="Node000018" class="node">
<title>Node18</title>
<g id="a_Node000018"><a xlink:title=" ">
<polygon fill="#e0e0e0" stroke="#999999" points="896.5,-195 768.5,-195 768.5,-165 896.5,-165 896.5,-195"/>
<text text-anchor="start" x="776.5" y="-183" font-family="FreeSans" font-size="10.00">TiledArray/expressions</text>
<text text-anchor="middle" x="832.5" y="-172" font-family="FreeSans" font-size="10.00">/tsr_expr.h</text>
</a>
</g>
</g>
<!-- Node1&#45;&gt;Node18 -->
<g id="edge20_Node000001_Node000018" class="edge">
<title>Node1&#45;&gt;Node18</title>
<g id="a_edge20_Node000001_Node000018"><a xlink:title=" ">
<path fill="none" stroke="#63b8ff" d="M727.56,-230.96C748.24,-221.11 773.17,-209.24 793.55,-199.54"/>
<polygon fill="#63b8ff" stroke="#63b8ff" points="795.33,-202.57 802.85,-195.11 792.32,-196.25 795.33,-202.57"/>
</a>
</g>
</g>
<!-- Node19 -->
<g id="Node000019" class="node">
<title>Node19</title>
<g id="a_Node000019"><a xlink:title=" ">
<polygon fill="#e0e0e0" stroke="#999999" points="1040,-195 915,-195 915,-165 1040,-165 1040,-195"/>
<text text-anchor="start" x="923" y="-183" font-family="FreeSans" font-size="10.00">TiledArray/math/linalg</text>
<text text-anchor="middle" x="977.5" y="-172" font-family="FreeSans" font-size="10.00">/basic.h</text>
</a>
</g>
</g>
<!-- Node1&#45;&gt;Node19 -->
<g id="edge21_Node000001_Node000019" class="edge">
<title>Node1&#45;&gt;Node19</title>
<g id="a_edge21_Node000001_Node000019"><a xlink:title=" ">
<path fill="none" stroke="#63b8ff" d="M746.09,-236.27C793.23,-225.01 859.1,-209.28 908.52,-197.47"/>
<polygon fill="#63b8ff" stroke="#63b8ff" points="909.57,-200.82 918.49,-195.09 907.95,-194.01 909.57,-200.82"/>
</a>
</g>
</g>
<!-- Node20 -->
<g id="Node000020" class="node">
<title>Node20</title>
<g id="a_Node000020"><a xlink:title=" ">
<polygon fill="#e0e0e0" stroke="#999999" points="1105,-189.5 1058,-189.5 1058,-170.5 1105,-170.5 1105,-189.5"/>
<text text-anchor="middle" x="1081.5" y="-177.5" font-family="FreeSans" font-size="10.00">cmath</text>
</a>
</g>
</g>
<!-- Node1&#45;&gt;Node20 -->
<g id="edge22_Node000001_Node000020" class="edge">
<title>Node1&#45;&gt;Node20</title>
<g id="a_edge22_Node000001_Node000020"><a xlink:title=" ">
<path fill="none" stroke="#63b8ff" d="M746.31,-246.16C819.11,-239.79 945.25,-225.21 1049.5,-195 1051.18,-194.51 1052.89,-193.96 1054.6,-193.35"/>
<polygon fill="#63b8ff" stroke="#63b8ff" points="1056.2,-196.49 1064.2,-189.55 1053.61,-189.98 1056.2,-196.49"/>
</a>
</g>
</g>
<!-- Node21 -->
<g id="Node000021" class="node">
<title>Node21</title>
<g id="a_Node000021"><a xlink:title=" ">
<polygon fill="#e0e0e0" stroke="#999999" points="1168,-189.5 1123,-189.5 1123,-170.5 1168,-170.5 1168,-189.5"/>
<text text-anchor="middle" x="1145.5" y="-177.5" font-family="FreeSans" font-size="10.00">utility</text>
</a>
</g>
</g>
<!-- Node1&#45;&gt;Node21 -->
<g id="edge23_Node000001_Node000021" class="edge">
<title>Node1&#45;&gt;Node21</title>
<g id="a_edge23_Node000001_Node000021"><a xlink:title=" ">
<path fill="none" stroke="#63b8ff" d="M746.11,-248.31C829.84,-243.99 986.38,-231.37 1114.5,-195 1116.14,-194.53 1117.81,-194 1119.47,-193.41"/>
<polygon fill="#63b8ff" stroke="#63b8ff" points="1120.83,-196.63 1128.79,-189.63 1118.2,-190.14 1120.83,-196.63"/>
</a>
</g>
</g>
<!-- Node3 -->
<g id="Node000003" class="node">
<title>Node3</title>
<g id="a_Node000003"><a xlink:title=" ">
<polygon fill="#e0e0e0" stroke="#999999" points="230,-129 113,-129 113,-110 230,-110 230,-129"/>
<text text-anchor="middle" x="171.5" y="-117" font-family="FreeSans" font-size="10.00">mpqc/mpqc_config.h</text>
</a>
</g>
</g>
<!-- Node2&#45;&gt;Node3 -->
<g id="edge2_Node000002_Node000003" class="edge">
<title>Node2&#45;&gt;Node3</title>
<g id="a_edge2_Node000002_Node000003"><a xlink:title=" ">
<path fill="none" stroke="#63b8ff" d="M141.94,-164.84C147.37,-156.69 154.23,-146.4 159.98,-137.78"/>
<polygon fill="#63b8ff" stroke="#63b8ff" points="163.02,-139.53 165.66,-129.27 157.2,-135.65 163.02,-139.53"/>
</a>
</g>
</g>
<!-- Node4 -->
<g id="Node000004" class="node">
<title>Node4</title>
<g id="a_Node000004"><a xlink:title=" ">
<polygon fill="#e0e0e0" stroke="#999999" points="95,-129 0,-129 0,-110 95,-110 95,-129"/>
<text text-anchor="middle" x="47.5" y="-117" font-family="FreeSans" font-size="10.00">tiledarray_fwd.h</text>
</a>
</g>
</g>
<!-- Node2&#45;&gt;Node4 -->
<g id="edge3_Node000002_Node000004" class="edge">
<title>Node2&#45;&gt;Node4</title>
<g id="a_edge3_Node000002_Node000004"><a xlink:title=" ">
<path fill="none" stroke="#63b8ff" d="M111.92,-164.84C98.83,-155.83 81.91,-144.18 68.7,-135.09"/>
<polygon fill="#63b8ff" stroke="#63b8ff" points="70.46,-132.05 60.24,-129.27 66.49,-137.82 70.46,-132.05"/>
</a>
</g>
</g>
<!-- Node5&#45;&gt;Node3 -->
<g id="edge5_Node000005_Node000003" class="edge">
<title>Node5&#45;&gt;Node3</title>
<g id="a_edge5_Node000005_Node000003"><a xlink:title=" ">
<path fill="none" stroke="#63b8ff" d="M259.3,-170.37C242.49,-160.82 215.18,-145.31 195.48,-134.12"/>
<polygon fill="#63b8ff" stroke="#63b8ff" points="197.18,-131.06 186.76,-129.17 193.73,-137.15 197.18,-131.06"/>
</a>
</g>
</g>
<!-- Node6 -->
<g id="Node000006" class="node">
<title>Node6</title>
<g id="a_Node000006"><a xlink:title=" ">
<polygon fill="#e0e0e0" stroke="#999999" points="300.5,-129 248.5,-129 248.5,-110 300.5,-110 300.5,-129"/>
<text text-anchor="middle" x="274.5" y="-117" font-family="FreeSans" font-size="10.00">cassert</text>
</a>
</g>
</g>
<!-- Node5&#45;&gt;Node6 -->
<g id="edge6_Node000005_Node000006" class="edge">
<title>Node5&#45;&gt;Node6</title>
<g id="a_edge6_Node000005_Node000006"><a xlink:title=" ">
<path fill="none" stroke="#63b8ff" d="M274.5,-170.37C274.5,-162.25 274.5,-149.81 274.5,-139.39"/>
<polygon fill="#63b8ff" stroke="#63b8ff" points="278,-139.17 274.5,-129.17 271,-139.17 278,-139.17"/>
</a>
</g>
</g>
<!-- Node7 -->
<g id="Node000007" class="node">
<title>Node7</title>
<g id="a_Node000007"><a xlink:href="exception_8h.html" target="_top" xlink:title=" ">
<polygon fill="white" stroke="#666666" points="464.5,-129 318.5,-129 318.5,-110 464.5,-110 464.5,-129"/>
<text text-anchor="middle" x="391.5" y="-117" font-family="FreeSans" font-size="10.00">mpqc/util/core/exception.h</text>
</a>
</g>
</g>
<!-- Node5&#45;&gt;Node7 -->
<g id="edge7_Node000005_Node000007" class="edge">
<title>Node5&#45;&gt;Node7</title>
<g id="a_edge7_Node000005_Node000007"><a xlink:title=" ">
<path fill="none" stroke="#63b8ff" d="M291.51,-170.49C310.92,-160.79 342.89,-144.81 365.44,-133.53"/>
<polygon fill="#63b8ff" stroke="#63b8ff" points="367.09,-136.62 374.47,-129.02 363.96,-130.36 367.09,-136.62"/>
</a>
</g>
</g>
<!-- Node8 -->
<g id="Node000008" class="node">
<title>Node8</title>
<g id="a_Node000008"><a xlink:title=" ">
<polygon fill="#e0e0e0" stroke="#999999" points="211,-74 158,-74 158,-55 211,-55 211,-74"/>
<text text-anchor="middle" x="184.5" y="-62" font-family="FreeSans" font-size="10.00">string.h</text>
</a>
</g>
</g>
<!-- Node7&#45;&gt;Node8 -->
<g id="edge8_Node000007_Node000008" class="edge">
<title>Node7&#45;&gt;Node8</title>
<g id="a_edge8_Node000007_Node000008"><a xlink:title=" ">
<path fill="none" stroke="#63b8ff" d="M358.24,-109.98C320.68,-100.37 259.76,-84.77 220.94,-74.83"/>
<polygon fill="#63b8ff" stroke="#63b8ff" points="221.65,-71.4 211.09,-72.31 219.91,-78.18 221.65,-71.4"/>
</a>
</g>
</g>
<!-- Node9 -->
<g id="Node000009" class="node">
<title>Node9</title>
<g id="a_Node000009"><a xlink:href="memory.html" target="_top" xlink:title=" ">
<polygon fill="white" stroke="#666666" points="287.5,-74 229.5,-74 229.5,-55 287.5,-55 287.5,-74"/>
<text text-anchor="middle" x="258.5" y="-62" font-family="FreeSans" font-size="10.00">memory</text>
</a>
</g>
</g>
<!-- Node7&#45;&gt;Node9 -->
<g id="edge9_Node000007_Node000009" class="edge">
<title>Node7&#45;&gt;Node9</title>
<g id="a_edge9_Node000007_Node000009"><a xlink:title=" ">
<path fill="none" stroke="#63b8ff" d="M370.13,-109.98C348.35,-101.3 314.34,-87.75 289.58,-77.88"/>
<polygon fill="#63b8ff" stroke="#63b8ff" points="290.84,-74.62 280.26,-74.17 288.25,-81.12 290.84,-74.62"/>
</a>
</g>
</g>
<!-- Node10 -->
<g id="Node000010" class="node">
<title>Node10</title>
<g id="a_Node000010"><a xlink:title=" ">
<polygon fill="#e0e0e0" stroke="#999999" points="379.5,-74 323.5,-74 323.5,-55 379.5,-55 379.5,-74"/>
<text text-anchor="middle" x="351.5" y="-62" font-family="FreeSans" font-size="10.00">sstream</text>
</a>
</g>
</g>
<!-- Node7&#45;&gt;Node10 -->
<g id="edge11_Node000007_Node000010" class="edge">
<title>Node7&#45;&gt;Node10</title>
<g id="a_edge11_Node000007_Node000010"><a xlink:title=" ">
<path fill="none" stroke="#63b8ff" d="M384.89,-109.75C379.24,-102.26 370.96,-91.28 364.05,-82.13"/>
<polygon fill="#63b8ff" stroke="#63b8ff" points="366.8,-79.96 357.98,-74.09 361.21,-84.18 366.8,-79.96"/>
</a>
</g>
</g>
<!-- Node11 -->
<g id="Node000011" class="node">
<title>Node11</title>
<g id="a_Node000011"><a xlink:title=" ">
<polygon fill="#e0e0e0" stroke="#999999" points="463,-74 398,-74 398,-55 463,-55 463,-74"/>
<text text-anchor="middle" x="430.5" y="-62" font-family="FreeSans" font-size="10.00">stdexcept</text>
</a>
</g>
</g>
<!-- Node7&#45;&gt;Node11 -->
<g id="edge12_Node000007_Node000011" class="edge">
<title>Node7&#45;&gt;Node11</title>
<g id="a_edge12_Node000007_Node000011"><a xlink:title=" ">
<path fill="none" stroke="#63b8ff" d="M397.94,-109.75C403.39,-102.34 411.36,-91.5 418.06,-82.41"/>
<polygon fill="#63b8ff" stroke="#63b8ff" points="421.07,-84.22 424.18,-74.09 415.43,-80.07 421.07,-84.22"/>
</a>
</g>
</g>
<!-- Node12 -->
<g id="Node000012" class="node">
<title>Node12</title>
<g id="a_Node000012"><a xlink:title=" ">
<polygon fill="#e0e0e0" stroke="#999999" points="534,-19 487,-19 487,0 534,0 534,-19"/>
<text text-anchor="middle" x="510.5" y="-7" font-family="FreeSans" font-size="10.00">vector</text>
</a>
</g>
</g>
<!-- Node7&#45;&gt;Node12 -->
<g id="edge13_Node000007_Node000012" class="edge">
<title>Node7&#45;&gt;Node12</title>
<g id="a_edge13_Node000007_Node000012"><a xlink:title=" ">
<path fill="none" stroke="#63b8ff" d="M413.48,-109.96C430.75,-102.43 454.63,-90.16 471.5,-74 485.05,-61.02 495.77,-42.37 502.51,-28.63"/>
<polygon fill="#63b8ff" stroke="#63b8ff" points="505.82,-29.81 506.87,-19.27 499.48,-26.85 505.82,-29.81"/>
</a>
</g>
</g>
<!-- Node13 -->
<g id="Node000013" class="node">
<title>Node13</title>
<g id="a_Node000013"><a xlink:href="backtrace_8h.html" target="_top" xlink:title=" ">
<polygon fill="white" stroke="#666666" points="665.5,-74 519.5,-74 519.5,-55 665.5,-55 665.5,-74"/>
<text text-anchor="middle" x="592.5" y="-62" font-family="FreeSans" font-size="10.00">mpqc/util/core/backtrace.h</text>
</a>
</g>
</g>
<!-- Node7&#45;&gt;Node13 -->
<g id="edge14_Node000007_Node000013" class="edge">
<title>Node7&#45;&gt;Node13</title>
<g id="a_edge14_Node000007_Node000013"><a xlink:title=" ">
<path fill="none" stroke="#63b8ff" d="M423.79,-109.98C458.12,-100.93 512.56,-86.58 550.27,-76.64"/>
<polygon fill="#63b8ff" stroke="#63b8ff" points="551.18,-80.02 559.95,-74.08 549.39,-73.25 551.18,-80.02"/>
</a>
</g>
</g>
<!-- Node9&#45;&gt;Node9 -->
<g id="edge10_Node000009_Node000009" class="edge">
<title>Node9&#45;&gt;Node9</title>
<g id="a_edge10_Node000009_Node000009"><a xlink:title=" ">
<path fill="none" stroke="#63b8ff" d="M280.74,-74.07C293.56,-76.02 305.5,-72.83 305.5,-64.5 305.5,-58.45 299.2,-55.11 290.84,-54.48"/>
<polygon fill="#63b8ff" stroke="#63b8ff" points="290.58,-50.99 280.74,-54.93 290.89,-57.98 290.58,-50.99"/>
</a>
</g>
</g>
<!-- Node13&#45;&gt;Node12 -->
<g id="edge16_Node000013_Node000012" class="edge">
<title>Node13&#45;&gt;Node12</title>
<g id="a_edge16_Node000013_Node000012"><a xlink:title=" ">
<path fill="none" stroke="#63b8ff" d="M579.33,-54.98C566.73,-46.84 547.5,-34.41 532.56,-24.76"/>
<polygon fill="#63b8ff" stroke="#63b8ff" points="534.21,-21.66 523.91,-19.17 530.41,-27.54 534.21,-21.66"/>
</a>
</g>
</g>
<!-- Node14 -->
<g id="Node000014" class="node">
<title>Node14</title>
<g id="a_Node000014"><a xlink:title=" ">
<polygon fill="#e0e0e0" stroke="#999999" points="614.5,-19 570.5,-19 570.5,0 614.5,0 614.5,-19"/>
<text text-anchor="middle" x="592.5" y="-7" font-family="FreeSans" font-size="10.00">string</text>
</a>
</g>
</g>
<!-- Node13&#45;&gt;Node14 -->
<g id="edge15_Node000013_Node000014" class="edge">
<title>Node13&#45;&gt;Node14</title>
<g id="a_edge15_Node000013_Node000014"><a xlink:title=" ">
<path fill="none" stroke="#63b8ff" d="M592.5,-54.75C592.5,-47.8 592.5,-37.85 592.5,-29.13"/>
<polygon fill="#63b8ff" stroke="#63b8ff" points="596,-29.09 592.5,-19.09 589,-29.09 596,-29.09"/>
</a>
</g>
</g>
</g>
</svg>
