<?xml version="1.0" encoding="UTF-8" standalone="no"?>
<!DOCTYPE svg PUBLIC "-//W3C//DTD SVG 1.1//EN"
 "http://www.w3.org/Graphics/SVG/1.1/DTD/svg11.dtd">
<!-- Generated by graphviz version 2.43.0 (0)
 -->
<!-- Title: mpqc/chemistry/qc/lcao/cc/eom/eom_ea_ccsd.h Pages: 1 -->
<svg width="308pt" height="302pt"
 viewBox="0.00 0.00 307.50 302.00" xmlns="http://www.w3.org/2000/svg" xmlns:xlink="http://www.w3.org/1999/xlink">
<g id="graph0" class="graph" transform="scale(1 1) rotate(0) translate(4 298)">
<title>mpqc/chemistry/qc/lcao/cc/eom/eom_ea_ccsd.h</title>
<!-- Node1 -->
<g id="Node000001" class="node">
<title>Node1</title>
<g id="a_Node000001"><a xlink:title=" ">
<polygon fill="#999999" stroke="#666666" points="216.5,-294 83.5,-294 83.5,-264 216.5,-264 216.5,-294"/>
<text text-anchor="start" x="91.5" y="-282" font-family="FreeSans" font-size="10.00">mpqc/chemistry/qc/lcao</text>
<text text-anchor="middle" x="150" y="-271" font-family="FreeSans" font-size="10.00">/cc/eom/eom_ea_ccsd.h</text>
</a>
</g>
</g>
<!-- Node2 -->
<g id="Node000002" class="node">
<title>Node2</title>
<g id="a_Node000002"><a xlink:href="eom__ea__ccsd_8ipp.html" target="_top" xlink:title=" ">
<polygon fill="white" stroke="#666666" points="221,-228 79,-228 79,-198 221,-198 221,-228"/>
<text text-anchor="start" x="87" y="-216" font-family="FreeSans" font-size="10.00">mpqc/chemistry/qc/lcao</text>
<text text-anchor="middle" x="150" y="-205" font-family="FreeSans" font-size="10.00">/cc/eom/eom_ea_ccsd.ipp</text>
</a>
</g>
</g>
<!-- Node1&#45;&gt;Node2 -->
<g id="edge1_Node000001_Node000002" class="edge">
<title>Node1&#45;&gt;Node2</title>
<g id="a_edge1_Node000001_Node000002"><a xlink:title=" ">
<path fill="none" stroke="#63b8ff" d="M143.43,-253.83C143.02,-245.17 143.31,-235.7 144.29,-228.16"/>
<polygon fill="#63b8ff" stroke="#63b8ff" points="139.95,-254.13 144.28,-263.8 146.92,-253.54 139.95,-254.13"/>
</a>
</g>
</g>
<!-- Node2&#45;&gt;Node1 -->
<g id="edge3_Node000002_Node000001" class="edge">
<title>Node2&#45;&gt;Node1</title>
<g id="a_edge3_Node000002_Node000001"><a xlink:title=" ">
<path fill="none" stroke="#63b8ff" d="M156.57,-238.13C156.98,-246.78 156.7,-256.26 155.72,-263.8"/>
<polygon fill="#63b8ff" stroke="#63b8ff" points="160.05,-237.83 155.71,-228.16 153.08,-238.43 160.05,-237.83"/>
</a>
</g>
</g>
<!-- Node3 -->
<g id="Node000003" class="node">
<title>Node3</title>
<g id="a_Node000003"><a xlink:href="eom__ea__ccsd_8cpp.html" target="_top" xlink:title=" ">
<polygon fill="white" stroke="#666666" points="144,-162 0,-162 0,-132 144,-132 144,-162"/>
<text text-anchor="start" x="8" y="-150" font-family="FreeSans" font-size="10.00">mpqc/chemistry/qc/lcao</text>
<text text-anchor="middle" x="72" y="-139" font-family="FreeSans" font-size="10.00">/cc/eom/eom_ea_ccsd.cpp</text>
</a>
</g>
</g>
<!-- Node2&#45;&gt;Node3 -->
<g id="edge2_Node000002_Node000003" class="edge">
<title>Node2&#45;&gt;Node3</title>
<g id="a_edge2_Node000002_Node000003"><a xlink:title=" ">
<path fill="none" stroke="#63b8ff" d="M124.65,-191.2C113.07,-181.7 99.65,-170.69 89.26,-162.16"/>
<polygon fill="#63b8ff" stroke="#63b8ff" points="122.74,-194.16 132.69,-197.8 127.18,-188.75 122.74,-194.16"/>
</a>
</g>
</g>
<!-- Node4 -->
<g id="Node000004" class="node">
<title>Node4</title>
<g id="a_Node000004"><a xlink:href="eom__ip__ccsd_8h.html" target="_top" xlink:title=" ">
<polygon fill="white" stroke="#666666" points="295.5,-162 162.5,-162 162.5,-132 295.5,-132 295.5,-162"/>
<text text-anchor="start" x="170.5" y="-150" font-family="FreeSans" font-size="10.00">mpqc/chemistry/qc/lcao</text>
<text text-anchor="middle" x="229" y="-139" font-family="FreeSans" font-size="10.00">/cc/eom/eom_ip_ccsd.h</text>
</a>
</g>
</g>
<!-- Node2&#45;&gt;Node4 -->
<g id="edge4_Node000002_Node000004" class="edge">
<title>Node2&#45;&gt;Node4</title>
<g id="a_edge4_Node000002_Node000004"><a xlink:title=" ">
<path fill="none" stroke="#63b8ff" d="M175.33,-191.48C187.14,-181.91 200.89,-170.77 211.52,-162.16"/>
<polygon fill="#63b8ff" stroke="#63b8ff" points="173.1,-188.78 167.53,-197.8 177.51,-194.22 173.1,-188.78"/>
</a>
</g>
</g>
<!-- Node5 -->
<g id="Node000005" class="node">
<title>Node5</title>
<g id="a_Node000005"><a xlink:href="eom__ip__ccsd_8ipp.html" target="_top" xlink:title=" ">
<polygon fill="white" stroke="#666666" points="298.5,-96 159.5,-96 159.5,-66 298.5,-66 298.5,-96"/>
<text text-anchor="start" x="167.5" y="-84" font-family="FreeSans" font-size="10.00">mpqc/chemistry/qc/lcao</text>
<text text-anchor="middle" x="229" y="-73" font-family="FreeSans" font-size="10.00">/cc/eom/eom_ip_ccsd.ipp</text>
</a>
</g>
</g>
<!-- Node4&#45;&gt;Node5 -->
<g id="edge5_Node000004_Node000005" class="edge">
<title>Node4&#45;&gt;Node5</title>
<g id="a_edge5_Node000004_Node000005"><a xlink:title=" ">
<path fill="none" stroke="#63b8ff" d="M229,-121.54C229,-112.96 229,-103.61 229,-96.16"/>
<polygon fill="#63b8ff" stroke="#63b8ff" points="225.5,-121.8 229,-131.8 232.5,-121.8 225.5,-121.8"/>
</a>
</g>
</g>
<!-- Node6 -->
<g id="Node000006" class="node">
<title>Node6</title>
<g id="a_Node000006"><a xlink:href="eom__ip__ccsd_8cpp.html" target="_top" xlink:title=" ">
<polygon fill="white" stroke="#666666" points="299.5,-30 158.5,-30 158.5,0 299.5,0 299.5,-30"/>
<text text-anchor="start" x="166.5" y="-18" font-family="FreeSans" font-size="10.00">mpqc/chemistry/qc/lcao</text>
<text text-anchor="middle" x="229" y="-7" font-family="FreeSans" font-size="10.00">/cc/eom/eom_ip_ccsd.cpp</text>
</a>
</g>
</g>
<!-- Node5&#45;&gt;Node6 -->
<g id="edge6_Node000005_Node000006" class="edge">
<title>Node5&#45;&gt;Node6</title>
<g id="a_edge6_Node000005_Node000006"><a xlink:title=" ">
<path fill="none" stroke="#63b8ff" d="M229,-55.54C229,-46.96 229,-37.61 229,-30.16"/>
<polygon fill="#63b8ff" stroke="#63b8ff" points="225.5,-55.8 229,-65.8 232.5,-55.8 225.5,-55.8"/>
</a>
</g>
</g>
</g>
</svg>
