<?xml version="1.0" encoding="UTF-8" standalone="no"?>
<!DOCTYPE svg PUBLIC "-//W3C//DTD SVG 1.1//EN"
 "http://www.w3.org/Graphics/SVG/1.1/DTD/svg11.dtd">
<!-- Generated by graphviz version 2.43.0 (0)
 -->
<!-- Title: mpqc/util/core/exception.cpp Pages: 1 -->
<svg width="1209pt" height="269pt"
 viewBox="0.00 0.00 1209.00 269.00" xmlns="http://www.w3.org/2000/svg" xmlns:xlink="http://www.w3.org/1999/xlink">
<g id="graph0" class="graph" transform="scale(1 1) rotate(0) translate(4 265)">
<title>mpqc/util/core/exception.cpp</title>
<!-- Node1 -->
<g id="Node000001" class="node">
<title>Node1</title>
<g id="a_Node000001"><a xlink:title=" ">
<polygon fill="#999999" stroke="#666666" points="559,-261 401,-261 401,-242 559,-242 559,-261"/>
<text text-anchor="middle" x="480" y="-249" font-family="FreeSans" font-size="10.00">mpqc/util/core/exception.cpp</text>
</a>
</g>
</g>
<!-- Node2 -->
<g id="Node000002" class="node">
<title>Node2</title>
<g id="a_Node000002"><a xlink:href="exception_8h.html" target="_top" xlink:title=" ">
<polygon fill="white" stroke="#666666" points="393,-206 247,-206 247,-187 393,-187 393,-206"/>
<text text-anchor="middle" x="320" y="-194" font-family="FreeSans" font-size="10.00">mpqc/util/core/exception.h</text>
</a>
</g>
</g>
<!-- Node1&#45;&gt;Node2 -->
<g id="edge1_Node000001_Node000002" class="edge">
<title>Node1&#45;&gt;Node2</title>
<g id="a_edge1_Node000001_Node000002"><a xlink:title=" ">
<path fill="none" stroke="#63b8ff" d="M454.29,-241.98C427.55,-233.13 385.47,-219.19 355.55,-209.28"/>
<polygon fill="#63b8ff" stroke="#63b8ff" points="356.5,-205.9 345.91,-206.08 354.3,-212.55 356.5,-205.9"/>
</a>
</g>
</g>
<!-- Node4 -->
<g id="Node000004" class="node">
<title>Node4</title>
<g id="a_Node000004"><a xlink:href="memory.html" target="_top" xlink:title=" ">
<polygon fill="white" stroke="#666666" points="533,-79.5 475,-79.5 475,-60.5 533,-60.5 533,-79.5"/>
<text text-anchor="middle" x="504" y="-67.5" font-family="FreeSans" font-size="10.00">memory</text>
</a>
</g>
</g>
<!-- Node1&#45;&gt;Node4 -->
<g id="edge13_Node000001_Node000004" class="edge">
<title>Node1&#45;&gt;Node4</title>
<g id="a_edge13_Node000001_Node000004"><a xlink:title=" ">
<path fill="none" stroke="#63b8ff" d="M481.16,-241.84C484.84,-214.3 496.34,-128.26 501.48,-89.84"/>
<polygon fill="#63b8ff" stroke="#63b8ff" points="505,-89.95 502.85,-79.57 498.06,-89.02 505,-89.95"/>
</a>
</g>
</g>
<!-- Node5 -->
<g id="Node000005" class="node">
<title>Node5</title>
<g id="a_Node000005"><a xlink:title=" ">
<polygon fill="#e0e0e0" stroke="#999999" points="56,-145.5 0,-145.5 0,-126.5 56,-126.5 56,-145.5"/>
<text text-anchor="middle" x="28" y="-133.5" font-family="FreeSans" font-size="10.00">sstream</text>
</a>
</g>
</g>
<!-- Node1&#45;&gt;Node5 -->
<g id="edge15_Node000001_Node000005" class="edge">
<title>Node1&#45;&gt;Node5</title>
<g id="a_edge15_Node000001_Node000005"><a xlink:title=" ">
<path fill="none" stroke="#63b8ff" d="M422.36,-242C373.05,-234.22 300.37,-221.58 238,-206 159.73,-186.44 141.2,-177.51 65,-151 63.35,-150.43 61.66,-149.83 59.96,-149.22"/>
<polygon fill="#63b8ff" stroke="#63b8ff" points="60.83,-145.81 50.23,-145.63 58.41,-152.37 60.83,-145.81"/>
</a>
</g>
</g>
<!-- Node6 -->
<g id="Node000006" class="node">
<title>Node6</title>
<g id="a_Node000006"><a xlink:title=" ">
<polygon fill="#e0e0e0" stroke="#999999" points="451.5,-145.5 386.5,-145.5 386.5,-126.5 451.5,-126.5 451.5,-145.5"/>
<text text-anchor="middle" x="419" y="-133.5" font-family="FreeSans" font-size="10.00">stdexcept</text>
</a>
</g>
</g>
<!-- Node1&#45;&gt;Node6 -->
<g id="edge14_Node000001_Node000006" class="edge">
<title>Node1&#45;&gt;Node6</title>
<g id="a_edge14_Node000001_Node000006"><a xlink:title=" ">
<path fill="none" stroke="#63b8ff" d="M475.42,-241.97C465.48,-223.48 441.79,-179.4 428.48,-154.64"/>
<polygon fill="#63b8ff" stroke="#63b8ff" points="431.46,-152.78 423.64,-145.63 425.29,-156.1 431.46,-152.78"/>
</a>
</g>
</g>
<!-- Node10 -->
<g id="Node000010" class="node">
<title>Node10</title>
<g id="a_Node000010"><a xlink:title=" ">
<polygon fill="#e0e0e0" stroke="#999999" points="555.5,-206 508.5,-206 508.5,-187 555.5,-187 555.5,-206"/>
<text text-anchor="middle" x="532" y="-194" font-family="FreeSans" font-size="10.00">cerrno</text>
</a>
</g>
</g>
<!-- Node1&#45;&gt;Node10 -->
<g id="edge11_Node000001_Node000010" class="edge">
<title>Node1&#45;&gt;Node10</title>
<g id="a_edge11_Node000001_Node000010"><a xlink:title=" ">
<path fill="none" stroke="#63b8ff" d="M488.59,-241.75C496.16,-234.03 507.38,-222.6 516.51,-213.28"/>
<polygon fill="#63b8ff" stroke="#63b8ff" points="519.07,-215.68 523.57,-206.09 514.07,-210.78 519.07,-215.68"/>
</a>
</g>
</g>
<!-- Node11 -->
<g id="Node000011" class="node">
<title>Node11</title>
<g id="a_Node000011"><a xlink:title=" ">
<polygon fill="#e0e0e0" stroke="#999999" points="624,-206 574,-206 574,-187 624,-187 624,-206"/>
<text text-anchor="middle" x="599" y="-194" font-family="FreeSans" font-size="10.00">cstring</text>
</a>
</g>
</g>
<!-- Node1&#45;&gt;Node11 -->
<g id="edge12_Node000001_Node000011" class="edge">
<title>Node1&#45;&gt;Node11</title>
<g id="a_edge12_Node000001_Node000011"><a xlink:title=" ">
<path fill="none" stroke="#63b8ff" d="M499.12,-241.98C518.35,-233.42 548.23,-220.11 570.31,-210.28"/>
<polygon fill="#63b8ff" stroke="#63b8ff" points="571.82,-213.44 579.53,-206.17 568.97,-207.04 571.82,-213.44"/>
</a>
</g>
</g>
<!-- Node12 -->
<g id="Node000012" class="node">
<title>Node12</title>
<g id="a_Node000012"><a xlink:href="exenv_8h.html" target="_top" xlink:title=" ">
<polygon fill="white" stroke="#666666" points="806,-206 752,-206 752,-187 806,-187 806,-206"/>
<text text-anchor="middle" x="779" y="-194" font-family="FreeSans" font-size="10.00">exenv.h</text>
</a>
</g>
</g>
<!-- Node1&#45;&gt;Node12 -->
<g id="edge16_Node000001_Node000012" class="edge">
<title>Node1&#45;&gt;Node12</title>
<g id="a_edge16_Node000001_Node000012"><a xlink:title=" ">
<path fill="none" stroke="#63b8ff" d="M528.04,-241.98C587.47,-231.45 687.4,-213.74 741.49,-204.15"/>
<polygon fill="#63b8ff" stroke="#63b8ff" points="742.44,-207.54 751.67,-202.34 741.22,-200.64 742.44,-207.54"/>
</a>
</g>
</g>
<!-- Node3 -->
<g id="Node000003" class="node">
<title>Node3</title>
<g id="a_Node000003"><a xlink:title=" ">
<polygon fill="#e0e0e0" stroke="#999999" points="127.5,-145.5 74.5,-145.5 74.5,-126.5 127.5,-126.5 127.5,-145.5"/>
<text text-anchor="middle" x="101" y="-133.5" font-family="FreeSans" font-size="10.00">string.h</text>
</a>
</g>
</g>
<!-- Node2&#45;&gt;Node3 -->
<g id="edge2_Node000002_Node000003" class="edge">
<title>Node2&#45;&gt;Node3</title>
<g id="a_edge2_Node000002_Node000003"><a xlink:title=" ">
<path fill="none" stroke="#63b8ff" d="M278.14,-186.97C240.77,-178.97 184.72,-166.01 137,-151 135.13,-150.41 133.22,-149.77 131.29,-149.11"/>
<polygon fill="#63b8ff" stroke="#63b8ff" points="132.37,-145.77 121.77,-145.62 129.96,-152.35 132.37,-145.77"/>
</a>
</g>
</g>
<!-- Node2&#45;&gt;Node4 -->
<g id="edge3_Node000002_Node000004" class="edge">
<title>Node2&#45;&gt;Node4</title>
<g id="a_edge3_Node000002_Node000004"><a xlink:title=" ">
<path fill="none" stroke="#63b8ff" d="M324.61,-186.92C333.2,-171.67 353.09,-139.69 378,-121 404.04,-101.47 438.73,-88.44 465.12,-80.6"/>
<polygon fill="#63b8ff" stroke="#63b8ff" points="466.13,-83.95 474.79,-77.84 464.21,-77.22 466.13,-83.95"/>
</a>
</g>
</g>
<!-- Node2&#45;&gt;Node5 -->
<g id="edge5_Node000002_Node000005" class="edge">
<title>Node2&#45;&gt;Node5</title>
<g id="a_edge5_Node000002_Node000005"><a xlink:title=" ">
<path fill="none" stroke="#63b8ff" d="M250.5,-186.99C198.78,-179.78 126.77,-167.91 65,-151 62.71,-150.37 60.36,-149.66 58.01,-148.89"/>
<polygon fill="#63b8ff" stroke="#63b8ff" points="59.11,-145.57 48.52,-145.55 56.79,-152.17 59.11,-145.57"/>
</a>
</g>
</g>
<!-- Node2&#45;&gt;Node6 -->
<g id="edge6_Node000002_Node000006" class="edge">
<title>Node2&#45;&gt;Node6</title>
<g id="a_edge6_Node000002_Node000006"><a xlink:title=" ">
<path fill="none" stroke="#63b8ff" d="M334.61,-186.87C350.69,-177.36 376.78,-161.95 395.7,-150.77"/>
<polygon fill="#63b8ff" stroke="#63b8ff" points="397.5,-153.77 404.33,-145.67 393.94,-147.74 397.5,-153.77"/>
</a>
</g>
</g>
<!-- Node7 -->
<g id="Node000007" class="node">
<title>Node7</title>
<g id="a_Node000007"><a xlink:title=" ">
<polygon fill="#e0e0e0" stroke="#999999" points="343.5,-79.5 296.5,-79.5 296.5,-60.5 343.5,-60.5 343.5,-79.5"/>
<text text-anchor="middle" x="320" y="-67.5" font-family="FreeSans" font-size="10.00">vector</text>
</a>
</g>
</g>
<!-- Node2&#45;&gt;Node7 -->
<g id="edge7_Node000002_Node000007" class="edge">
<title>Node2&#45;&gt;Node7</title>
<g id="a_edge7_Node000002_Node000007"><a xlink:title=" ">
<path fill="none" stroke="#63b8ff" d="M320,-186.94C320,-167.04 320,-117.26 320,-89.85"/>
<polygon fill="#63b8ff" stroke="#63b8ff" points="323.5,-89.62 320,-79.62 316.5,-89.62 323.5,-89.62"/>
</a>
</g>
</g>
<!-- Node8 -->
<g id="Node000008" class="node">
<title>Node8</title>
<g id="a_Node000008"><a xlink:href="backtrace_8h.html" target="_top" xlink:title=" ">
<polygon fill="white" stroke="#666666" points="292,-145.5 146,-145.5 146,-126.5 292,-126.5 292,-145.5"/>
<text text-anchor="middle" x="219" y="-133.5" font-family="FreeSans" font-size="10.00">mpqc/util/core/backtrace.h</text>
</a>
</g>
</g>
<!-- Node2&#45;&gt;Node8 -->
<g id="edge8_Node000002_Node000008" class="edge">
<title>Node2&#45;&gt;Node8</title>
<g id="a_edge8_Node000002_Node000008"><a xlink:title=" ">
<path fill="none" stroke="#63b8ff" d="M305.1,-186.87C288.69,-177.36 262.07,-161.95 242.77,-150.77"/>
<polygon fill="#63b8ff" stroke="#63b8ff" points="244.37,-147.65 233.96,-145.67 240.86,-153.71 244.37,-147.65"/>
</a>
</g>
</g>
<!-- Node4&#45;&gt;Node4 -->
<g id="edge4_Node000004_Node000004" class="edge">
<title>Node4&#45;&gt;Node4</title>
<g id="a_edge4_Node000004_Node000004"><a xlink:title=" ">
<path fill="none" stroke="#63b8ff" d="M521.35,-79.53C535.85,-83.61 551,-80.43 551,-70 551,-62.01 542.12,-58.28 531.45,-58.8"/>
<polygon fill="#63b8ff" stroke="#63b8ff" points="530.65,-55.38 521.35,-60.47 531.79,-62.29 530.65,-55.38"/>
</a>
</g>
</g>
<!-- Node8&#45;&gt;Node7 -->
<g id="edge10_Node000008_Node000007" class="edge">
<title>Node8&#45;&gt;Node7</title>
<g id="a_edge10_Node000008_Node000007"><a xlink:title=" ">
<path fill="none" stroke="#63b8ff" d="M232.62,-126.37C249.34,-115.78 277.91,-97.67 297.81,-85.06"/>
<polygon fill="#63b8ff" stroke="#63b8ff" points="299.7,-88.01 306.27,-79.7 295.95,-82.1 299.7,-88.01"/>
</a>
</g>
</g>
<!-- Node9 -->
<g id="Node000009" class="node">
<title>Node9</title>
<g id="a_Node000009"><a xlink:title=" ">
<polygon fill="#e0e0e0" stroke="#999999" points="241,-79.5 197,-79.5 197,-60.5 241,-60.5 241,-79.5"/>
<text text-anchor="middle" x="219" y="-67.5" font-family="FreeSans" font-size="10.00">string</text>
</a>
</g>
</g>
<!-- Node8&#45;&gt;Node9 -->
<g id="edge9_Node000008_Node000009" class="edge">
<title>Node8&#45;&gt;Node9</title>
<g id="a_edge9_Node000008_Node000009"><a xlink:title=" ">
<path fill="none" stroke="#63b8ff" d="M219,-126.37C219,-117.16 219,-102.29 219,-90.27"/>
<polygon fill="#63b8ff" stroke="#63b8ff" points="222.5,-89.91 219,-79.91 215.5,-89.91 222.5,-89.91"/>
</a>
</g>
</g>
<!-- Node12&#45;&gt;Node4 -->
<g id="edge30_Node000012_Node000004" class="edge">
<title>Node12&#45;&gt;Node4</title>
<g id="a_edge30_Node000012_Node000004"><a xlink:title=" ">
<path fill="none" stroke="#63b8ff" d="M751.99,-194.85C711.02,-192.77 631.93,-184.34 575,-151 548.53,-135.5 526.65,-106.69 514.47,-88.2"/>
<polygon fill="#63b8ff" stroke="#63b8ff" points="517.32,-86.17 509.01,-79.6 511.41,-89.92 517.32,-86.17"/>
</a>
</g>
</g>
<!-- Node12&#45;&gt;Node7 -->
<g id="edge33_Node000012_Node000007" class="edge">
<title>Node12&#45;&gt;Node7</title>
<g id="a_edge33_Node000012_Node000007"><a xlink:title=" ">
<path fill="none" stroke="#63b8ff" d="M751.86,-192.4C706.37,-186.78 612.12,-173.41 535,-151 500.92,-141.1 494.18,-133.6 461,-121 424.29,-107.06 381.77,-92.15 353.1,-82.27"/>
<polygon fill="#63b8ff" stroke="#63b8ff" points="354.16,-78.94 343.57,-79 351.89,-85.56 354.16,-78.94"/>
</a>
</g>
</g>
<!-- Node13 -->
<g id="Node000013" class="node">
<title>Node13</title>
<g id="a_Node000013"><a xlink:href="math_2external_2tiledarray_2fwd_8h.html" target="_top" xlink:title=" ">
<polygon fill="white" stroke="#666666" points="700,-151 584,-151 584,-121 700,-121 700,-151"/>
<text text-anchor="start" x="592" y="-139" font-family="FreeSans" font-size="10.00">mpqc/math/external</text>
<text text-anchor="middle" x="642" y="-128" font-family="FreeSans" font-size="10.00">/tiledarray/fwd.h</text>
</a>
</g>
</g>
<!-- Node12&#45;&gt;Node13 -->
<g id="edge17_Node000012_Node000013" class="edge">
<title>Node12&#45;&gt;Node13</title>
<g id="a_edge17_Node000012_Node000013"><a xlink:title=" ">
<path fill="none" stroke="#63b8ff" d="M759.08,-186.99C739.53,-178.65 709.12,-165.66 684.19,-155.02"/>
<polygon fill="#63b8ff" stroke="#63b8ff" points="685.51,-151.77 674.94,-151.06 682.76,-158.21 685.51,-151.77"/>
</a>
</g>
</g>
<!-- Node14 -->
<g id="Node000014" class="node">
<title>Node14</title>
<g id="a_Node000014"><a xlink:title=" ">
<polygon fill="#e0e0e0" stroke="#999999" points="932.5,-19 815.5,-19 815.5,0 932.5,0 932.5,-19"/>
<text text-anchor="middle" x="874" y="-7" font-family="FreeSans" font-size="10.00">mpqc/mpqc_config.h</text>
</a>
</g>
</g>
<!-- Node12&#45;&gt;Node14 -->
<g id="edge20_Node000012_Node000014" class="edge">
<title>Node12&#45;&gt;Node14</title>
<g id="a_edge20_Node000012_Node000014"><a xlink:title=" ">
<path fill="none" stroke="#63b8ff" d="M805.47,-186.89C822.44,-179.95 843.39,-168.43 855,-151 879.83,-113.73 878.96,-58.47 876.38,-29.62"/>
<polygon fill="#63b8ff" stroke="#63b8ff" points="879.83,-28.88 875.28,-19.31 872.87,-29.63 879.83,-28.88"/>
</a>
</g>
</g>
<!-- Node16 -->
<g id="Node000016" class="node">
<title>Node16</title>
<g id="a_Node000016"><a xlink:href="formio_8h.html" target="_top" xlink:title=" ">
<polygon fill="white" stroke="#666666" points="1168.5,-145.5 1037.5,-145.5 1037.5,-126.5 1168.5,-126.5 1168.5,-145.5"/>
<text text-anchor="middle" x="1103" y="-133.5" font-family="FreeSans" font-size="10.00">mpqc/util/core/formio.h</text>
</a>
</g>
</g>
<!-- Node12&#45;&gt;Node16 -->
<g id="edge21_Node000012_Node000016" class="edge">
<title>Node12&#45;&gt;Node16</title>
<g id="a_edge21_Node000012_Node000016"><a xlink:title=" ">
<path fill="none" stroke="#63b8ff" d="M806.02,-190.79C851.89,-182.77 947.92,-165.89 1029,-151 1035.25,-149.85 1041.78,-148.64 1048.28,-147.42"/>
<polygon fill="#63b8ff" stroke="#63b8ff" points="1049.22,-150.81 1058.4,-145.52 1047.93,-143.93 1049.22,-150.81"/>
</a>
</g>
</g>
<!-- Node21 -->
<g id="Node000021" class="node">
<title>Node21</title>
<g id="a_Node000021"><a xlink:title=" ">
<polygon fill="#e0e0e0" stroke="#999999" points="767.5,-145.5 718.5,-145.5 718.5,-126.5 767.5,-126.5 767.5,-145.5"/>
<text text-anchor="middle" x="743" y="-133.5" font-family="FreeSans" font-size="10.00">cstdlib</text>
</a>
</g>
</g>
<!-- Node12&#45;&gt;Node21 -->
<g id="edge28_Node000012_Node000021" class="edge">
<title>Node12&#45;&gt;Node21</title>
<g id="a_edge28_Node000012_Node000021"><a xlink:title=" ">
<path fill="none" stroke="#63b8ff" d="M773.69,-186.87C768.42,-178.31 760.21,-164.97 753.61,-154.24"/>
<polygon fill="#63b8ff" stroke="#63b8ff" points="756.56,-152.35 748.33,-145.67 750.59,-156.02 756.56,-152.35"/>
</a>
</g>
</g>
<!-- Node22 -->
<g id="Node000022" class="node">
<title>Node22</title>
<g id="a_Node000022"><a xlink:title=" ">
<polygon fill="#e0e0e0" stroke="#999999" points="846,-145.5 786,-145.5 786,-126.5 846,-126.5 846,-145.5"/>
<text text-anchor="middle" x="816" y="-133.5" font-family="FreeSans" font-size="10.00">iostream</text>
</a>
</g>
</g>
<!-- Node12&#45;&gt;Node22 -->
<g id="edge29_Node000012_Node000022" class="edge">
<title>Node12&#45;&gt;Node22</title>
<g id="a_edge29_Node000012_Node000022"><a xlink:title=" ">
<path fill="none" stroke="#63b8ff" d="M784.46,-186.87C789.87,-178.31 798.31,-164.97 805.1,-154.24"/>
<polygon fill="#63b8ff" stroke="#63b8ff" points="808.13,-155.99 810.52,-145.67 802.21,-152.25 808.13,-155.99"/>
</a>
</g>
</g>
<!-- Node23 -->
<g id="Node000023" class="node">
<title>Node23</title>
<g id="a_Node000023"><a xlink:title=" ">
<polygon fill="#e0e0e0" stroke="#999999" points="958,-145.5 902,-145.5 902,-126.5 958,-126.5 958,-145.5"/>
<text text-anchor="middle" x="930" y="-133.5" font-family="FreeSans" font-size="10.00">optional</text>
</a>
</g>
</g>
<!-- Node12&#45;&gt;Node23 -->
<g id="edge31_Node000012_Node000023" class="edge">
<title>Node12&#45;&gt;Node23</title>
<g id="a_edge31_Node000012_Node000023"><a xlink:title=" ">
<path fill="none" stroke="#63b8ff" d="M800.96,-186.99C826.68,-177.03 869.48,-160.45 898.68,-149.13"/>
<polygon fill="#63b8ff" stroke="#63b8ff" points="899.96,-152.39 908.02,-145.52 897.43,-145.87 899.96,-152.39"/>
</a>
</g>
</g>
<!-- Node24 -->
<g id="Node000024" class="node">
<title>Node24</title>
<g id="a_Node000024"><a xlink:title=" ">
<polygon fill="#e0e0e0" stroke="#999999" points="1019.5,-145.5 976.5,-145.5 976.5,-126.5 1019.5,-126.5 1019.5,-145.5"/>
<text text-anchor="middle" x="998" y="-133.5" font-family="FreeSans" font-size="10.00">stack</text>
</a>
</g>
</g>
<!-- Node12&#45;&gt;Node24 -->
<g id="edge32_Node000012_Node000024" class="edge">
<title>Node12&#45;&gt;Node24</title>
<g id="a_edge32_Node000012_Node000024"><a xlink:title=" ">
<path fill="none" stroke="#63b8ff" d="M806.23,-190.76C843.22,-183.93 911.12,-170.03 967,-151 968.4,-150.52 969.82,-150.01 971.24,-149.46"/>
<polygon fill="#63b8ff" stroke="#63b8ff" points="972.65,-152.67 980.53,-145.59 969.95,-146.21 972.65,-152.67"/>
</a>
</g>
</g>
<!-- Node13&#45;&gt;Node14 -->
<g id="edge18_Node000013_Node000014" class="edge">
<title>Node13&#45;&gt;Node14</title>
<g id="a_edge18_Node000013_Node000014"><a xlink:title=" ">
<path fill="none" stroke="#63b8ff" d="M668.16,-120.96C713.21,-96.79 804.82,-47.63 849.03,-23.9"/>
<polygon fill="#63b8ff" stroke="#63b8ff" points="850.8,-26.92 857.96,-19.11 847.49,-20.75 850.8,-26.92"/>
</a>
</g>
</g>
<!-- Node15 -->
<g id="Node000015" class="node">
<title>Node15</title>
<g id="a_Node000015"><a xlink:title=" ">
<polygon fill="#e0e0e0" stroke="#999999" points="689.5,-79.5 594.5,-79.5 594.5,-60.5 689.5,-60.5 689.5,-79.5"/>
<text text-anchor="middle" x="642" y="-67.5" font-family="FreeSans" font-size="10.00">tiledarray_fwd.h</text>
</a>
</g>
</g>
<!-- Node13&#45;&gt;Node15 -->
<g id="edge19_Node000013_Node000015" class="edge">
<title>Node13&#45;&gt;Node15</title>
<g id="a_edge19_Node000013_Node000015"><a xlink:title=" ">
<path fill="none" stroke="#63b8ff" d="M642,-120.8C642,-111.7 642,-99.79 642,-89.9"/>
<polygon fill="#63b8ff" stroke="#63b8ff" points="645.5,-89.84 642,-79.84 638.5,-89.84 645.5,-89.84"/>
</a>
</g>
</g>
<!-- Node16&#45;&gt;Node4 -->
<g id="edge24_Node000016_Node000004" class="edge">
<title>Node16&#45;&gt;Node4</title>
<g id="a_edge24_Node000016_Node000004"><a xlink:title=" ">
<path fill="none" stroke="#63b8ff" d="M1062.03,-126.45C1051.31,-124.43 1039.76,-122.45 1029,-121 833.23,-94.6 781.99,-109.65 586,-85 571.96,-83.23 556.64,-80.77 543.1,-78.4"/>
<polygon fill="#63b8ff" stroke="#63b8ff" points="543.59,-74.93 533.13,-76.62 542.36,-81.82 543.59,-74.93"/>
</a>
</g>
</g>
<!-- Node17 -->
<g id="Node000017" class="node">
<title>Node17</title>
<g id="a_Node000017"><a xlink:title=" ">
<polygon fill="#e0e0e0" stroke="#999999" points="1021,-79.5 973,-79.5 973,-60.5 1021,-60.5 1021,-79.5"/>
<text text-anchor="middle" x="997" y="-67.5" font-family="FreeSans" font-size="10.00">iosfwd</text>
</a>
</g>
</g>
<!-- Node16&#45;&gt;Node17 -->
<g id="edge22_Node000016_Node000017" class="edge">
<title>Node16&#45;&gt;Node17</title>
<g id="a_edge22_Node000016_Node000017"><a xlink:title=" ">
<path fill="none" stroke="#63b8ff" d="M1088.7,-126.37C1071.08,-115.73 1040.91,-97.51 1020.01,-84.89"/>
<polygon fill="#63b8ff" stroke="#63b8ff" points="1021.78,-81.87 1011.41,-79.7 1018.16,-87.86 1021.78,-81.87"/>
</a>
</g>
</g>
<!-- Node18 -->
<g id="Node000018" class="node">
<title>Node18</title>
<g id="a_Node000018"><a xlink:title=" ">
<polygon fill="#e0e0e0" stroke="#999999" points="1077,-79.5 1039,-79.5 1039,-60.5 1077,-60.5 1077,-79.5"/>
<text text-anchor="middle" x="1058" y="-67.5" font-family="FreeSans" font-size="10.00">map</text>
</a>
</g>
</g>
<!-- Node16&#45;&gt;Node18 -->
<g id="edge23_Node000016_Node000018" class="edge">
<title>Node16&#45;&gt;Node18</title>
<g id="a_edge23_Node000016_Node000018"><a xlink:title=" ">
<path fill="none" stroke="#63b8ff" d="M1096.93,-126.37C1090.13,-116.69 1078.91,-100.74 1070.26,-88.44"/>
<polygon fill="#63b8ff" stroke="#63b8ff" points="1072.88,-86.07 1064.26,-79.91 1067.15,-90.1 1072.88,-86.07"/>
</a>
</g>
</g>
<!-- Node19 -->
<g id="Node000019" class="node">
<title>Node19</title>
<g id="a_Node000019"><a xlink:href="scope.html" target="_top" xlink:title=" ">
<polygon fill="white" stroke="#666666" points="1201,-85 1095,-85 1095,-55 1201,-55 1201,-85"/>
<text text-anchor="start" x="1103" y="-73" font-family="FreeSans" font-size="10.00">mpqc/util/external</text>
<text text-anchor="middle" x="1148" y="-62" font-family="FreeSans" font-size="10.00">/c++/scope</text>
</a>
</g>
</g>
<!-- Node16&#45;&gt;Node19 -->
<g id="edge25_Node000016_Node000019" class="edge">
<title>Node16&#45;&gt;Node19</title>
<g id="a_edge25_Node000016_Node000019"><a xlink:title=" ">
<path fill="none" stroke="#63b8ff" d="M1109.07,-126.37C1114.96,-117.99 1124.15,-104.93 1132.12,-93.59"/>
<polygon fill="#63b8ff" stroke="#63b8ff" points="1135.01,-95.55 1137.9,-85.36 1129.29,-91.53 1135.01,-95.55"/>
</a>
</g>
</g>
<!-- Node19&#45;&gt;Node14 -->
<g id="edge26_Node000019_Node000014" class="edge">
<title>Node19&#45;&gt;Node14</title>
<g id="a_edge26_Node000019_Node000014"><a xlink:title=" ">
<path fill="none" stroke="#63b8ff" d="M1094.91,-56.96C1091.9,-56.29 1088.91,-55.63 1086,-55 1031.23,-43.07 968.37,-29.95 925.41,-21.06"/>
<polygon fill="#63b8ff" stroke="#63b8ff" points="925.98,-17.61 915.47,-19.01 924.56,-24.46 925.98,-17.61"/>
</a>
</g>
</g>
<!-- Node20 -->
<g id="Node000020" class="node">
<title>Node20</title>
<g id="a_Node000020"><a xlink:title=" ">
<polygon fill="#e0e0e0" stroke="#999999" points="1170.5,-19 1125.5,-19 1125.5,0 1170.5,0 1170.5,-19"/>
<text text-anchor="middle" x="1148" y="-7" font-family="FreeSans" font-size="10.00">utility</text>
</a>
</g>
</g>
<!-- Node19&#45;&gt;Node20 -->
<g id="edge27_Node000019_Node000020" class="edge">
<title>Node19&#45;&gt;Node20</title>
<g id="a_edge27_Node000019_Node000020"><a xlink:title=" ">
<path fill="none" stroke="#63b8ff" d="M1148,-54.84C1148,-47.21 1148,-37.7 1148,-29.45"/>
<polygon fill="#63b8ff" stroke="#63b8ff" points="1151.5,-29.27 1148,-19.27 1144.5,-29.27 1151.5,-29.27"/>
</a>
</g>
</g>
</g>
</svg>
