<?xml version="1.0" encoding="UTF-8" standalone="no"?>
<!DOCTYPE svg PUBLIC "-//W3C//DTD SVG 1.1//EN"
 "http://www.w3.org/Graphics/SVG/1.1/DTD/svg11.dtd">
<!-- Generated by graphviz version 2.43.0 (0)
 -->
<!-- Title: mpqc/util/core/exception.h Pages: 1 -->
<svg width="516pt" height="137pt"
 viewBox="0.00 0.00 515.50 137.00" xmlns="http://www.w3.org/2000/svg" xmlns:xlink="http://www.w3.org/1999/xlink">
<g id="graph0" class="graph" transform="scale(1 1) rotate(0) translate(4 133)">
<title>mpqc/util/core/exception.h</title>
<!-- Node1 -->
<g id="Node000001" class="node">
<title>Node1</title>
<g id="a_Node000001"><a xlink:title=" ">
<polygon fill="#999999" stroke="#666666" points="305.5,-129 159.5,-129 159.5,-110 305.5,-110 305.5,-129"/>
<text text-anchor="middle" x="232.5" y="-117" font-family="FreeSans" font-size="10.00">mpqc/util/core/exception.h</text>
</a>
</g>
</g>
<!-- Node2 -->
<g id="Node000002" class="node">
<title>Node2</title>
<g id="a_Node000002"><a xlink:title=" ">
<polygon fill="#e0e0e0" stroke="#999999" points="53,-74 0,-74 0,-55 53,-55 53,-74"/>
<text text-anchor="middle" x="26.5" y="-62" font-family="FreeSans" font-size="10.00">string.h</text>
</a>
</g>
</g>
<!-- Node1&#45;&gt;Node2 -->
<g id="edge1_Node000001_Node000002" class="edge">
<title>Node1&#45;&gt;Node2</title>
<g id="a_edge1_Node000001_Node000002"><a xlink:title=" ">
<path fill="none" stroke="#63b8ff" d="M199.4,-109.98C162.13,-100.4 101.74,-84.86 63.09,-74.91"/>
<polygon fill="#63b8ff" stroke="#63b8ff" points="63.84,-71.49 53.28,-72.39 62.09,-78.27 63.84,-71.49"/>
</a>
</g>
</g>
<!-- Node3 -->
<g id="Node000003" class="node">
<title>Node3</title>
<g id="a_Node000003"><a xlink:href="memory.html" target="_top" xlink:title=" ">
<polygon fill="white" stroke="#666666" points="129.5,-74 71.5,-74 71.5,-55 129.5,-55 129.5,-74"/>
<text text-anchor="middle" x="100.5" y="-62" font-family="FreeSans" font-size="10.00">memory</text>
</a>
</g>
</g>
<!-- Node1&#45;&gt;Node3 -->
<g id="edge2_Node000001_Node000003" class="edge">
<title>Node1&#45;&gt;Node3</title>
<g id="a_edge2_Node000001_Node000003"><a xlink:title=" ">
<path fill="none" stroke="#63b8ff" d="M211.29,-109.98C189.77,-101.34 156.22,-87.87 131.67,-78.02"/>
<polygon fill="#63b8ff" stroke="#63b8ff" points="132.68,-74.65 122.09,-74.17 130.07,-81.14 132.68,-74.65"/>
</a>
</g>
</g>
<!-- Node4 -->
<g id="Node000004" class="node">
<title>Node4</title>
<g id="a_Node000004"><a xlink:title=" ">
<polygon fill="#e0e0e0" stroke="#999999" points="221.5,-74 165.5,-74 165.5,-55 221.5,-55 221.5,-74"/>
<text text-anchor="middle" x="193.5" y="-62" font-family="FreeSans" font-size="10.00">sstream</text>
</a>
</g>
</g>
<!-- Node1&#45;&gt;Node4 -->
<g id="edge4_Node000001_Node000004" class="edge">
<title>Node1&#45;&gt;Node4</title>
<g id="a_edge4_Node000001_Node000004"><a xlink:title=" ">
<path fill="none" stroke="#63b8ff" d="M226.06,-109.75C220.61,-102.34 212.64,-91.5 205.94,-82.41"/>
<polygon fill="#63b8ff" stroke="#63b8ff" points="208.57,-80.07 199.82,-74.09 202.93,-84.22 208.57,-80.07"/>
</a>
</g>
</g>
<!-- Node5 -->
<g id="Node000005" class="node">
<title>Node5</title>
<g id="a_Node000005"><a xlink:title=" ">
<polygon fill="#e0e0e0" stroke="#999999" points="305,-74 240,-74 240,-55 305,-55 305,-74"/>
<text text-anchor="middle" x="272.5" y="-62" font-family="FreeSans" font-size="10.00">stdexcept</text>
</a>
</g>
</g>
<!-- Node1&#45;&gt;Node5 -->
<g id="edge5_Node000001_Node000005" class="edge">
<title>Node1&#45;&gt;Node5</title>
<g id="a_edge5_Node000001_Node000005"><a xlink:title=" ">
<path fill="none" stroke="#63b8ff" d="M239.11,-109.75C244.76,-102.26 253.04,-91.28 259.95,-82.13"/>
<polygon fill="#63b8ff" stroke="#63b8ff" points="262.79,-84.18 266.02,-74.09 257.2,-79.96 262.79,-84.18"/>
</a>
</g>
</g>
<!-- Node6 -->
<g id="Node000006" class="node">
<title>Node6</title>
<g id="a_Node000006"><a xlink:title=" ">
<polygon fill="#e0e0e0" stroke="#999999" points="376,-19 329,-19 329,0 376,0 376,-19"/>
<text text-anchor="middle" x="352.5" y="-7" font-family="FreeSans" font-size="10.00">vector</text>
</a>
</g>
</g>
<!-- Node1&#45;&gt;Node6 -->
<g id="edge6_Node000001_Node000006" class="edge">
<title>Node1&#45;&gt;Node6</title>
<g id="a_edge6_Node000001_Node000006"><a xlink:title=" ">
<path fill="none" stroke="#63b8ff" d="M255.12,-109.86C272.58,-102.36 296.54,-90.16 313.5,-74 327.08,-61.06 337.79,-42.4 344.53,-28.65"/>
<polygon fill="#63b8ff" stroke="#63b8ff" points="347.84,-29.82 348.88,-19.28 341.49,-26.87 347.84,-29.82"/>
</a>
</g>
</g>
<!-- Node7 -->
<g id="Node000007" class="node">
<title>Node7</title>
<g id="a_Node000007"><a xlink:href="backtrace_8h.html" target="_top" xlink:title=" ">
<polygon fill="white" stroke="#666666" points="507.5,-74 361.5,-74 361.5,-55 507.5,-55 507.5,-74"/>
<text text-anchor="middle" x="434.5" y="-62" font-family="FreeSans" font-size="10.00">mpqc/util/core/backtrace.h</text>
</a>
</g>
</g>
<!-- Node1&#45;&gt;Node7 -->
<g id="edge7_Node000001_Node000007" class="edge">
<title>Node1&#45;&gt;Node7</title>
<g id="a_edge7_Node000001_Node000007"><a xlink:title=" ">
<path fill="none" stroke="#63b8ff" d="M264.95,-109.98C299.46,-100.93 354.16,-86.58 392.06,-76.64"/>
<polygon fill="#63b8ff" stroke="#63b8ff" points="393.01,-80.01 401.79,-74.08 391.23,-73.23 393.01,-80.01"/>
</a>
</g>
</g>
<!-- Node3&#45;&gt;Node3 -->
<g id="edge3_Node000003_Node000003" class="edge">
<title>Node3&#45;&gt;Node3</title>
<g id="a_edge3_Node000003_Node000003"><a xlink:title=" ">
<path fill="none" stroke="#63b8ff" d="M122.74,-74.07C135.56,-76.02 147.5,-72.83 147.5,-64.5 147.5,-58.45 141.2,-55.11 132.84,-54.48"/>
<polygon fill="#63b8ff" stroke="#63b8ff" points="132.58,-50.99 122.74,-54.93 132.89,-57.98 132.58,-50.99"/>
</a>
</g>
</g>
<!-- Node7&#45;&gt;Node6 -->
<g id="edge9_Node000007_Node000006" class="edge">
<title>Node7&#45;&gt;Node6</title>
<g id="a_edge9_Node000007_Node000006"><a xlink:title=" ">
<path fill="none" stroke="#63b8ff" d="M421.33,-54.98C408.73,-46.84 389.5,-34.41 374.56,-24.76"/>
<polygon fill="#63b8ff" stroke="#63b8ff" points="376.21,-21.66 365.91,-19.17 372.41,-27.54 376.21,-21.66"/>
</a>
</g>
</g>
<!-- Node8 -->
<g id="Node000008" class="node">
<title>Node8</title>
<g id="a_Node000008"><a xlink:title=" ">
<polygon fill="#e0e0e0" stroke="#999999" points="456.5,-19 412.5,-19 412.5,0 456.5,0 456.5,-19"/>
<text text-anchor="middle" x="434.5" y="-7" font-family="FreeSans" font-size="10.00">string</text>
</a>
</g>
</g>
<!-- Node7&#45;&gt;Node8 -->
<g id="edge8_Node000007_Node000008" class="edge">
<title>Node7&#45;&gt;Node8</title>
<g id="a_edge8_Node000007_Node000008"><a xlink:title=" ">
<path fill="none" stroke="#63b8ff" d="M434.5,-54.75C434.5,-47.8 434.5,-37.85 434.5,-29.13"/>
<polygon fill="#63b8ff" stroke="#63b8ff" points="438,-29.09 434.5,-19.09 431,-29.09 438,-29.09"/>
</a>
</g>
</g>
</g>
</svg>
