<?xml version="1.0" encoding="UTF-8" standalone="no"?>
<!DOCTYPE svg PUBLIC "-//W3C//DTD SVG 1.1//EN"
 "http://www.w3.org/Graphics/SVG/1.1/DTD/svg11.dtd">
<!-- Generated by graphviz version 2.43.0 (0)
 -->
<!-- Title: mpqc/chemistry/qc/properties/excitation_energy.h Pages: 1 -->
<!--zoomable 368 -->

<svg id="main" version="1.1" xmlns="http://www.w3.org/2000/svg" xmlns:xlink="http://www.w3.org/1999/xlink" xml:space="preserve" onload="init(evt)">
<style type="text/css"><![CDATA[
.node, .edge {opacity: 0.7;}
.node.selected, .edge.selected {opacity: 1;}
.edge:hover path { stroke: red; }
.edge:hover polygon { stroke: red; fill: red; }
]]></style>

<defs>
  <circle id="rim" cx="0" cy="0" r="7"/>
  <circle id="rim2" cx="0" cy="0" r="3.5"/>
  <g id="zoomPlus">
    <use xlink:href="#rim" fill="#404040"><set attributeName="fill" to="#808080" begin="zoomplus.mouseover" end="zoomplus.mouseout"/></use>
    <path d="M-4,0h8M0,-4v8" fill="none" stroke="white" stroke-width="1.5" pointer-events="none"/>
  </g>
  <g id="zoomMin">
    <use xlink:href="#rim" fill="#404040"><set attributeName="fill" to="#808080" begin="zoomminus.mouseover" end="zoomminus.mouseout"/></use>
    <path d="M-4,0h8" fill="none" stroke="white" stroke-width="1.5" pointer-events="none"/>
  </g>
  <g id="arrowUp" transform="translate(30 24)">
    <use xlink:href="#rim"/>
    <path pointer-events="none" fill="none" stroke="white" stroke-width="1.5" d="M0,-3.0v7 M-2.5,-0.5L0,-3.0L2.5,-0.5"/>
  </g>
  <g id="arrowRight" transform="rotate(90) translate(36 -43)">
    <use xlink:href="#rim"/>
    <path pointer-events="none" fill="none" stroke="white" stroke-width="1.5" d="M0,-3.0v7 M-2.5,-0.5L0,-3.0L2.5,-0.5"/>
  </g>
  <g id="arrowDown" transform="rotate(180) translate(-30 -48)">
    <use xlink:href="#rim"/>
    <path pointer-events="none" fill="none" stroke="white" stroke-width="1.5" d="M0,-3.0v7 M-2.5,-0.5L0,-3.0L2.5,-0.5"/>
  </g>
  <g id="arrowLeft" transform="rotate(270) translate(-36 17)">
    <use xlink:href="#rim"/>
    <path pointer-events="none" fill="none" stroke="white" stroke-width="1.5" d="M0,-3.0v7 M-2.5,-0.5L0,-3.0L2.5,-0.5"/>
  </g>
  <g id="resetDef">
    <use xlink:href="#rim2" fill="#404040"><set attributeName="fill" to="#808080" begin="reset.mouseover" end="reset.mouseout"/></use>
  </g>
</defs>
<script type="application/ecmascript">
var viewWidth = 1629;
var viewHeight = 368;
var sectionId = 'dynsection-1';
</script>
<script type="application/ecmascript" xlink:href="svg.min.js"/>
<svg id="graph" class="graph">
<g id="viewport">
<title>mpqc/chemistry/qc/properties/excitation_energy.h</title>
<!-- Node1 -->
<g id="Node000001" class="node">
<title>Node1</title>
<g id="a_Node000001"><a xlink:title=" ">
<polygon fill="#999999" stroke="#666666" points="1207.5,-360 1045.5,-360 1045.5,-330 1207.5,-330 1207.5,-360"/>
<text text-anchor="start" x="1053.5" y="-348" font-family="FreeSans" font-size="10.00">mpqc/chemistry/qc/properties</text>
<text text-anchor="middle" x="1126.5" y="-337" font-family="FreeSans" font-size="10.00">/excitation_energy.h</text>
</a>
</g>
</g>
<!-- Node2 -->
<g id="Node000002" class="node">
<title>Node2</title>
<g id="a_Node000002"><a xlink:href="cck_8h.html" target="_top" xlink:title=" ">
<polygon fill="white" stroke="#666666" points="497,-294 364,-294 364,-264 497,-264 497,-294"/>
<text text-anchor="start" x="372" y="-282" font-family="FreeSans" font-size="10.00">mpqc/chemistry/qc/lcao</text>
<text text-anchor="middle" x="430.5" y="-271" font-family="FreeSans" font-size="10.00">/cc/cck.h</text>
</a>
</g>
</g>
<!-- Node1&#45;&gt;Node2 -->
<g id="edge1_Node000001_Node000002" class="edge">
<title>Node1&#45;&gt;Node2</title>
<g id="a_edge1_Node000001_Node000002"><a xlink:title=" ">
<path fill="none" stroke="#63b8ff" d="M1035.3,-335.61C893.27,-322.55 622.56,-297.66 497.23,-286.14"/>
<polygon fill="#63b8ff" stroke="#63b8ff" points="1035.02,-339.1 1045.3,-336.53 1035.66,-332.13 1035.02,-339.1"/>
</a>
</g>
</g>
<!-- Node11 -->
<g id="Node000011" class="node">
<title>Node11</title>
<g id="a_Node000011"><a xlink:href="eom__ccsd_8h.html" target="_top" xlink:title=" ">
<polygon fill="white" stroke="#666666" points="1085,-228 952,-228 952,-198 1085,-198 1085,-228"/>
<text text-anchor="start" x="960" y="-216" font-family="FreeSans" font-size="10.00">mpqc/chemistry/qc/lcao</text>
<text text-anchor="middle" x="1018.5" y="-205" font-family="FreeSans" font-size="10.00">/cc/eom/eom_ccsd.h</text>
</a>
</g>
</g>
<!-- Node1&#45;&gt;Node11 -->
<g id="edge19_Node000001_Node000011" class="edge">
<title>Node1&#45;&gt;Node11</title>
<g id="a_edge19_Node000001_Node000011"><a xlink:title=" ">
<path fill="none" stroke="#63b8ff" d="M1108.35,-322.15C1086.1,-295.38 1049.07,-250.79 1030.25,-228.14"/>
<polygon fill="#63b8ff" stroke="#63b8ff" points="1105.65,-324.38 1114.74,-329.84 1111.04,-319.91 1105.65,-324.38"/>
</a>
</g>
</g>
<!-- Node12 -->
<g id="Node000012" class="node">
<title>Node12</title>
<g id="a_Node000012"><a xlink:href="eom__ccsd_8ipp.html" target="_top" xlink:title=" ">
<polygon fill="white" stroke="#666666" points="988,-162 855,-162 855,-132 988,-132 988,-162"/>
<text text-anchor="start" x="863" y="-150" font-family="FreeSans" font-size="10.00">mpqc/chemistry/qc/lcao</text>
<text text-anchor="middle" x="921.5" y="-139" font-family="FreeSans" font-size="10.00">/cc/eom/eom_ccsd.ipp</text>
</a>
</g>
</g>
<!-- Node1&#45;&gt;Node12 -->
<g id="edge23_Node000001_Node000012" class="edge">
<title>Node1&#45;&gt;Node12</title>
<g id="a_edge23_Node000001_Node000012"><a xlink:title=" ">
<path fill="none" stroke="#63b8ff" d="M1079.17,-326.05C1037.1,-307.69 977.06,-275.15 942.5,-228 927.98,-208.2 923.49,-179.15 922.11,-162.05"/>
<polygon fill="#63b8ff" stroke="#63b8ff" points="1077.81,-329.28 1088.39,-329.97 1080.55,-322.84 1077.81,-329.28"/>
</a>
</g>
</g>
<!-- Node14 -->
<g id="Node000014" class="node">
<title>Node14</title>
<g id="a_Node000014"><a xlink:href="eom__ea__ccsd_8h.html" target="_top" xlink:title=" ">
<polygon fill="white" stroke="#666666" points="1241,-294 1108,-294 1108,-264 1241,-264 1241,-294"/>
<text text-anchor="start" x="1116" y="-282" font-family="FreeSans" font-size="10.00">mpqc/chemistry/qc/lcao</text>
<text text-anchor="middle" x="1174.5" y="-271" font-family="FreeSans" font-size="10.00">/cc/eom/eom_ea_ccsd.h</text>
</a>
</g>
</g>
<!-- Node1&#45;&gt;Node14 -->
<g id="edge24_Node000001_Node000014" class="edge">
<title>Node1&#45;&gt;Node14</title>
<g id="a_edge24_Node000001_Node000014"><a xlink:title=" ">
<path fill="none" stroke="#63b8ff" d="M1143.36,-321.53C1150.18,-312.43 1157.85,-302.19 1163.88,-294.16"/>
<polygon fill="#63b8ff" stroke="#63b8ff" points="1140.35,-319.7 1137.15,-329.8 1145.95,-323.9 1140.35,-319.7"/>
</a>
</g>
</g>
<!-- Node17 -->
<g id="Node000017" class="node">
<title>Node17</title>
<g id="a_Node000017"><a xlink:href="eom__ip__ccsd_8h.html" target="_top" xlink:title=" ">
<polygon fill="white" stroke="#666666" points="1302,-162 1169,-162 1169,-132 1302,-132 1302,-162"/>
<text text-anchor="start" x="1177" y="-150" font-family="FreeSans" font-size="10.00">mpqc/chemistry/qc/lcao</text>
<text text-anchor="middle" x="1235.5" y="-139" font-family="FreeSans" font-size="10.00">/cc/eom/eom_ip_ccsd.h</text>
</a>
</g>
</g>
<!-- Node1&#45;&gt;Node17 -->
<g id="edge31_Node000001_Node000017" class="edge">
<title>Node1&#45;&gt;Node17</title>
<g id="a_edge31_Node000001_Node000017"><a xlink:title=" ">
<path fill="none" stroke="#63b8ff" d="M1207.26,-325.97C1223.62,-318.66 1239,-308.4 1249.5,-294 1278.76,-253.88 1255.32,-190.17 1242.49,-162.08"/>
<polygon fill="#63b8ff" stroke="#63b8ff" points="1205.48,-322.92 1197.55,-329.95 1208.13,-329.4 1205.48,-322.92"/>
</a>
</g>
</g>
<!-- Node20 -->
<g id="Node000020" class="node">
<title>Node20</title>
<g id="a_Node000020"><a xlink:href="cis_8h.html" target="_top" xlink:title=" ">
<polygon fill="white" stroke="#666666" points="847,-294 714,-294 714,-264 847,-264 847,-294"/>
<text text-anchor="start" x="722" y="-282" font-family="FreeSans" font-size="10.00">mpqc/chemistry/qc/lcao</text>
<text text-anchor="middle" x="780.5" y="-271" font-family="FreeSans" font-size="10.00">/ci/cis.h</text>
</a>
</g>
</g>
<!-- Node1&#45;&gt;Node20 -->
<g id="edge32_Node000001_Node000020" class="edge">
<title>Node1&#45;&gt;Node20</title>
<g id="a_edge32_Node000001_Node000020"><a xlink:title=" ">
<path fill="none" stroke="#63b8ff" d="M1040.39,-328.07C980.64,-317.02 902.21,-302.51 847.2,-292.34"/>
<polygon fill="#63b8ff" stroke="#63b8ff" points="1040.1,-331.58 1050.57,-329.95 1041.37,-324.69 1040.1,-331.58"/>
</a>
</g>
</g>
<!-- Node23 -->
<g id="Node000023" class="node">
<title>Node23</title>
<g id="a_Node000023"><a xlink:href="sci_8h.html" target="_top" xlink:title=" ">
<polygon fill="white" stroke="#666666" points="1440,-294 1307,-294 1307,-264 1440,-264 1440,-294"/>
<text text-anchor="start" x="1315" y="-282" font-family="FreeSans" font-size="10.00">mpqc/chemistry/qc/lcao</text>
<text text-anchor="middle" x="1373.5" y="-271" font-family="FreeSans" font-size="10.00">/ci/sci.h</text>
</a>
</g>
</g>
<!-- Node1&#45;&gt;Node23 -->
<g id="edge37_Node000001_Node000023" class="edge">
<title>Node1&#45;&gt;Node23</title>
<g id="a_edge37_Node000001_Node000023"><a xlink:title=" ">
<path fill="none" stroke="#63b8ff" d="M1190.62,-327.39C1230.6,-317.03 1281.48,-303.84 1319.42,-294.01"/>
<polygon fill="#63b8ff" stroke="#63b8ff" points="1189.51,-324.06 1180.71,-329.95 1191.26,-330.83 1189.51,-324.06"/>
</a>
</g>
</g>
<!-- Node28 -->
<g id="Node000028" class="node">
<title>Node28</title>
<g id="a_Node000028"><a xlink:href="excitation__energy_8cpp.html" target="_top" xlink:title=" ">
<polygon fill="white" stroke="#666666" points="1620.5,-294 1458.5,-294 1458.5,-264 1620.5,-264 1620.5,-294"/>
<text text-anchor="start" x="1466.5" y="-282" font-family="FreeSans" font-size="10.00">mpqc/chemistry/qc/properties</text>
<text text-anchor="middle" x="1539.5" y="-271" font-family="FreeSans" font-size="10.00">/excitation_energy.cpp</text>
</a>
</g>
</g>
<!-- Node1&#45;&gt;Node28 -->
<g id="edge42_Node000001_Node000028" class="edge">
<title>Node1&#45;&gt;Node28</title>
<g id="a_edge42_Node000001_Node000028"><a xlink:title=" ">
<path fill="none" stroke="#63b8ff" d="M1217.98,-329.86C1282.65,-319.85 1371.39,-306.12 1449.5,-294 1452.31,-293.56 1455.17,-293.12 1458.07,-292.67"/>
<polygon fill="#63b8ff" stroke="#63b8ff" points="1217.16,-326.44 1207.81,-331.43 1218.23,-333.36 1217.16,-326.44"/>
</a>
</g>
</g>
<!-- Node3 -->
<g id="Node000003" class="node">
<title>Node3</title>
<g id="a_Node000003"><a xlink:href="cck_8ipp.html" target="_top" xlink:title=" ">
<polygon fill="white" stroke="#666666" points="497,-228 364,-228 364,-198 497,-198 497,-228"/>
<text text-anchor="start" x="372" y="-216" font-family="FreeSans" font-size="10.00">mpqc/chemistry/qc/lcao</text>
<text text-anchor="middle" x="430.5" y="-205" font-family="FreeSans" font-size="10.00">/cc/cck.ipp</text>
</a>
</g>
</g>
<!-- Node2&#45;&gt;Node3 -->
<g id="edge2_Node000002_Node000003" class="edge">
<title>Node2&#45;&gt;Node3</title>
<g id="a_edge2_Node000002_Node000003"><a xlink:title=" ">
<path fill="none" stroke="#63b8ff" d="M423.93,-253.83C423.52,-245.17 423.81,-235.7 424.79,-228.16"/>
<polygon fill="#63b8ff" stroke="#63b8ff" points="420.45,-254.13 424.78,-263.8 427.42,-253.54 420.45,-254.13"/>
</a>
</g>
</g>
<!-- Node6 -->
<g id="Node000006" class="node">
<title>Node6</title>
<g id="a_Node000006"><a xlink:href="cck__so__response_8ipp.html" target="_top" xlink:title=" ">
<polygon fill="white" stroke="#666666" points="554.5,-96 420.5,-96 420.5,-66 554.5,-66 554.5,-96"/>
<text text-anchor="start" x="428.5" y="-84" font-family="FreeSans" font-size="10.00">mpqc/chemistry/qc/lcao</text>
<text text-anchor="middle" x="487.5" y="-73" font-family="FreeSans" font-size="10.00">/cc/cck_so_response.ipp</text>
</a>
</g>
</g>
<!-- Node2&#45;&gt;Node6 -->
<g id="edge12_Node000002_Node000006" class="edge">
<title>Node2&#45;&gt;Node6</title>
<g id="a_edge12_Node000002_Node000006"><a xlink:title=" ">
<path fill="none" stroke="#63b8ff" d="M466.29,-258.47C478,-250.82 489.67,-240.75 496.5,-228 519.76,-184.54 497.72,-123.63 489.32,-96.28"/>
<polygon fill="#63b8ff" stroke="#63b8ff" points="464.15,-255.68 457.41,-263.85 467.78,-261.66 464.15,-255.68"/>
</a>
</g>
</g>
<!-- Node7 -->
<g id="Node000007" class="node">
<title>Node7</title>
<g id="a_Node000007"><a xlink:href="eom__cck_8ipp.html" target="_top" xlink:title=" ">
<polygon fill="white" stroke="#666666" points="284,-96 151,-96 151,-66 284,-66 284,-96"/>
<text text-anchor="start" x="159" y="-84" font-family="FreeSans" font-size="10.00">mpqc/chemistry/qc/lcao</text>
<text text-anchor="middle" x="217.5" y="-73" font-family="FreeSans" font-size="10.00">/cc/eom_cck.ipp</text>
</a>
</g>
</g>
<!-- Node2&#45;&gt;Node7 -->
<g id="edge13_Node000002_Node000007" class="edge">
<title>Node2&#45;&gt;Node7</title>
<g id="a_edge13_Node000002_Node000007"><a xlink:title=" ">
<path fill="none" stroke="#63b8ff" d="M393.57,-258.94C378.59,-250.41 361.54,-239.66 347.5,-228 296.84,-185.95 248.3,-123.79 227.77,-96.14"/>
<polygon fill="#63b8ff" stroke="#63b8ff" points="392.15,-262.15 402.59,-263.95 395.55,-256.03 392.15,-262.15"/>
</a>
</g>
</g>
<!-- Node8 -->
<g id="Node000008" class="node">
<title>Node8</title>
<g id="a_Node000008"><a xlink:href="cck__f12_8h.html" target="_top" xlink:title=" ">
<polygon fill="white" stroke="#666666" points="182,-228 49,-228 49,-198 182,-198 182,-228"/>
<text text-anchor="start" x="57" y="-216" font-family="FreeSans" font-size="10.00">mpqc/chemistry/qc/lcao</text>
<text text-anchor="middle" x="115.5" y="-205" font-family="FreeSans" font-size="10.00">/f12/cck_f12.h</text>
</a>
</g>
</g>
<!-- Node2&#45;&gt;Node8 -->
<g id="edge15_Node000002_Node000008" class="edge">
<title>Node2&#45;&gt;Node8</title>
<g id="a_edge15_Node000002_Node000008"><a xlink:title=" ">
<path fill="none" stroke="#63b8ff" d="M353.76,-262.41C301.28,-251.75 232.4,-237.75 182.21,-227.55"/>
<polygon fill="#63b8ff" stroke="#63b8ff" points="353.2,-265.87 363.7,-264.43 354.59,-259.01 353.2,-265.87"/>
</a>
</g>
</g>
<!-- Node3&#45;&gt;Node2 -->
<g id="edge4_Node000003_Node000002" class="edge">
<title>Node3&#45;&gt;Node2</title>
<g id="a_edge4_Node000003_Node000002"><a xlink:title=" ">
<path fill="none" stroke="#63b8ff" d="M437.07,-238.13C437.48,-246.78 437.2,-256.26 436.22,-263.8"/>
<polygon fill="#63b8ff" stroke="#63b8ff" points="440.55,-237.83 436.21,-228.16 433.58,-238.43 440.55,-237.83"/>
</a>
</g>
</g>
<!-- Node4 -->
<g id="Node000004" class="node">
<title>Node4</title>
<g id="a_Node000004"><a xlink:href="cck_8cpp.html" target="_top" xlink:title=" ">
<polygon fill="white" stroke="#666666" points="412,-30 279,-30 279,0 412,0 412,-30"/>
<text text-anchor="start" x="287" y="-18" font-family="FreeSans" font-size="10.00">mpqc/chemistry/qc/lcao</text>
<text text-anchor="middle" x="345.5" y="-7" font-family="FreeSans" font-size="10.00">/cc/cck.cpp</text>
</a>
</g>
</g>
<!-- Node3&#45;&gt;Node4 -->
<g id="edge3_Node000003_Node000004" class="edge">
<title>Node3&#45;&gt;Node4</title>
<g id="a_edge3_Node000003_Node000004"><a xlink:title=" ">
<path fill="none" stroke="#63b8ff" d="M356,-193.96C340.42,-186.63 325.89,-176.37 316.5,-162 289.08,-120.03 319.87,-57.83 336.4,-30.16"/>
<polygon fill="#63b8ff" stroke="#63b8ff" points="354.7,-197.21 365.27,-197.94 357.46,-190.78 354.7,-197.21"/>
</a>
</g>
</g>
<!-- Node5 -->
<g id="Node000005" class="node">
<title>Node5</title>
<g id="a_Node000005"><a xlink:href="cck__so_8ipp.html" target="_top" xlink:title=" ">
<polygon fill="white" stroke="#666666" points="459,-162 326,-162 326,-132 459,-132 459,-162"/>
<text text-anchor="start" x="334" y="-150" font-family="FreeSans" font-size="10.00">mpqc/chemistry/qc/lcao</text>
<text text-anchor="middle" x="392.5" y="-139" font-family="FreeSans" font-size="10.00">/cc/cck_so.ipp</text>
</a>
</g>
</g>
<!-- Node3&#45;&gt;Node5 -->
<g id="edge5_Node000003_Node000005" class="edge">
<title>Node3&#45;&gt;Node5</title>
<g id="a_edge5_Node000003_Node000005"><a xlink:title=" ">
<path fill="none" stroke="#63b8ff" d="M416.82,-188.96C411.5,-180 405.58,-170.03 400.91,-162.16"/>
<polygon fill="#63b8ff" stroke="#63b8ff" points="413.95,-190.98 422.07,-197.8 419.97,-187.41 413.95,-190.98"/>
</a>
</g>
</g>
<!-- Node3&#45;&gt;Node6 -->
<g id="edge11_Node000003_Node000006" class="edge">
<title>Node3&#45;&gt;Node6</title>
<g id="a_edge11_Node000003_Node000006"><a xlink:title=" ">
<path fill="none" stroke="#63b8ff" d="M449.94,-189.67C456.31,-181.42 462.92,-171.71 467.5,-162 477.77,-140.25 483.17,-112.59 485.67,-96.15"/>
<polygon fill="#63b8ff" stroke="#63b8ff" points="447.04,-187.69 443.49,-197.67 452.49,-192.08 447.04,-187.69"/>
</a>
</g>
</g>
<!-- Node5&#45;&gt;Node2 -->
<g id="edge7_Node000005_Node000002" class="edge">
<title>Node5&#45;&gt;Node2</title>
<g id="a_edge7_Node000005_Node000002"><a xlink:title=" ">
<path fill="none" stroke="#63b8ff" d="M370.5,-169.96C357,-186.2 344.12,-208.75 354.5,-228 363.19,-244.13 379.61,-255.9 394.97,-263.96"/>
<polygon fill="#63b8ff" stroke="#63b8ff" points="373.47,-171.89 377.5,-162.09 368.24,-167.24 373.47,-171.89"/>
</a>
</g>
</g>
<!-- Node5&#45;&gt;Node4 -->
<g id="edge6_Node000005_Node000004" class="edge">
<title>Node5&#45;&gt;Node4</title>
<g id="a_edge6_Node000005_Node000004"><a xlink:title=" ">
<path fill="none" stroke="#63b8ff" d="M383.96,-122.39C374.23,-95.46 358.63,-52.31 350.61,-30.14"/>
<polygon fill="#63b8ff" stroke="#63b8ff" points="380.69,-123.63 387.38,-131.84 387.27,-121.25 380.69,-123.63"/>
</a>
</g>
</g>
<!-- Node5&#45;&gt;Node6 -->
<g id="edge8_Node000005_Node000006" class="edge">
<title>Node5&#45;&gt;Node6</title>
<g id="a_edge8_Node000005_Node000006"><a xlink:title=" ">
<path fill="none" stroke="#63b8ff" d="M422.15,-126.03C436.52,-116.34 453.45,-104.94 466.48,-96.16"/>
<polygon fill="#63b8ff" stroke="#63b8ff" points="419.92,-123.31 413.58,-131.8 423.83,-129.11 419.92,-123.31"/>
</a>
</g>
</g>
<!-- Node6&#45;&gt;Node2 -->
<g id="edge10_Node000006_Node000002" class="edge">
<title>Node6&#45;&gt;Node2</title>
<g id="a_edge10_Node000006_Node000002"><a xlink:title=" ">
<path fill="none" stroke="#63b8ff" d="M504.45,-105.2C519.59,-135.36 535.49,-188.79 514.5,-228 505.93,-244 489.73,-255.77 473.74,-263.85"/>
<polygon fill="#63b8ff" stroke="#63b8ff" points="507.45,-103.4 499.6,-96.28 501.3,-106.74 507.45,-103.4"/>
</a>
</g>
</g>
<!-- Node6&#45;&gt;Node4 -->
<g id="edge9_Node000006_Node000004" class="edge">
<title>Node6&#45;&gt;Node4</title>
<g id="a_edge9_Node000006_Node000004"><a xlink:title=" ">
<path fill="none" stroke="#63b8ff" d="M447.08,-61.78C424.7,-51.69 397.29,-39.34 376.59,-30.01"/>
<polygon fill="#63b8ff" stroke="#63b8ff" points="445.78,-65.04 456.34,-65.95 448.66,-58.65 445.78,-65.04"/>
</a>
</g>
</g>
<!-- Node7&#45;&gt;Node4 -->
<g id="edge14_Node000007_Node000004" class="edge">
<title>Node7&#45;&gt;Node4</title>
<g id="a_edge14_Node000007_Node000004"><a xlink:title=" ">
<path fill="none" stroke="#63b8ff" d="M254.74,-61.38C274.77,-51.36 299.07,-39.22 317.48,-30.01"/>
<polygon fill="#63b8ff" stroke="#63b8ff" points="252.97,-58.35 245.59,-65.95 256.1,-64.61 252.97,-58.35"/>
</a>
</g>
</g>
<!-- Node9 -->
<g id="Node000009" class="node">
<title>Node9</title>
<g id="a_Node000009"><a xlink:href="cck__f12_8ipp.html" target="_top" xlink:title=" ">
<polygon fill="white" stroke="#666666" points="182,-162 49,-162 49,-132 182,-132 182,-162"/>
<text text-anchor="start" x="57" y="-150" font-family="FreeSans" font-size="10.00">mpqc/chemistry/qc/lcao</text>
<text text-anchor="middle" x="115.5" y="-139" font-family="FreeSans" font-size="10.00">/f12/cck_f12.ipp</text>
</a>
</g>
</g>
<!-- Node8&#45;&gt;Node9 -->
<g id="edge16_Node000008_Node000009" class="edge">
<title>Node8&#45;&gt;Node9</title>
<g id="a_edge16_Node000008_Node000009"><a xlink:title=" ">
<path fill="none" stroke="#63b8ff" d="M108.93,-187.83C108.52,-179.17 108.81,-169.7 109.79,-162.16"/>
<polygon fill="#63b8ff" stroke="#63b8ff" points="105.45,-188.13 109.78,-197.8 112.42,-187.54 105.45,-188.13"/>
</a>
</g>
</g>
<!-- Node9&#45;&gt;Node8 -->
<g id="edge18_Node000009_Node000008" class="edge">
<title>Node9&#45;&gt;Node8</title>
<g id="a_edge18_Node000009_Node000008"><a xlink:title=" ">
<path fill="none" stroke="#63b8ff" d="M122.07,-172.13C122.48,-180.78 122.2,-190.26 121.22,-197.8"/>
<polygon fill="#63b8ff" stroke="#63b8ff" points="125.55,-171.83 121.21,-162.16 118.58,-172.43 125.55,-171.83"/>
</a>
</g>
</g>
<!-- Node10 -->
<g id="Node000010" class="node">
<title>Node10</title>
<g id="a_Node000010"><a xlink:href="cck__f12_8cpp.html" target="_top" xlink:title=" ">
<polygon fill="white" stroke="#666666" points="133,-96 0,-96 0,-66 133,-66 133,-96"/>
<text text-anchor="start" x="8" y="-84" font-family="FreeSans" font-size="10.00">mpqc/chemistry/qc/lcao</text>
<text text-anchor="middle" x="66.5" y="-73" font-family="FreeSans" font-size="10.00">/f12/cck_f12.cpp</text>
</a>
</g>
</g>
<!-- Node9&#45;&gt;Node10 -->
<g id="edge17_Node000009_Node000010" class="edge">
<title>Node9&#45;&gt;Node10</title>
<g id="a_edge17_Node000009_Node000010"><a xlink:title=" ">
<path fill="none" stroke="#63b8ff" d="M98.51,-123.81C91.49,-114.64 83.56,-104.28 77.34,-96.16"/>
<polygon fill="#63b8ff" stroke="#63b8ff" points="95.77,-125.98 104.63,-131.8 101.33,-121.73 95.77,-125.98"/>
</a>
</g>
</g>
<!-- Node11&#45;&gt;Node12 -->
<g id="edge20_Node000011_Node000012" class="edge">
<title>Node11&#45;&gt;Node12</title>
<g id="a_edge20_Node000011_Node000012"><a xlink:title=" ">
<path fill="none" stroke="#63b8ff" d="M982.99,-192.69C967.2,-182.82 949.49,-171.01 937.04,-162.01"/>
<polygon fill="#63b8ff" stroke="#63b8ff" points="981.17,-195.68 991.51,-197.95 984.84,-189.73 981.17,-195.68"/>
</a>
</g>
</g>
<!-- Node12&#45;&gt;Node11 -->
<g id="edge22_Node000012_Node000011" class="edge">
<title>Node12&#45;&gt;Node11</title>
<g id="a_edge22_Node000012_Node000011"><a xlink:title=" ">
<path fill="none" stroke="#63b8ff" d="M957.57,-167.66C973.1,-177.39 990.4,-188.93 1002.69,-197.8"/>
<polygon fill="#63b8ff" stroke="#63b8ff" points="959.03,-164.44 948.68,-162.16 955.35,-170.4 959.03,-164.44"/>
</a>
</g>
</g>
<!-- Node13 -->
<g id="Node000013" class="node">
<title>Node13</title>
<g id="a_Node000013"><a xlink:href="eom__ccsd_8cpp.html" target="_top" xlink:title=" ">
<polygon fill="white" stroke="#666666" points="988,-96 855,-96 855,-66 988,-66 988,-96"/>
<text text-anchor="start" x="863" y="-84" font-family="FreeSans" font-size="10.00">mpqc/chemistry/qc/lcao</text>
<text text-anchor="middle" x="921.5" y="-73" font-family="FreeSans" font-size="10.00">/cc/eom/eom_ccsd.cpp</text>
</a>
</g>
</g>
<!-- Node12&#45;&gt;Node13 -->
<g id="edge21_Node000012_Node000013" class="edge">
<title>Node12&#45;&gt;Node13</title>
<g id="a_edge21_Node000012_Node000013"><a xlink:title=" ">
<path fill="none" stroke="#63b8ff" d="M921.5,-121.54C921.5,-112.96 921.5,-103.61 921.5,-96.16"/>
<polygon fill="#63b8ff" stroke="#63b8ff" points="918,-121.8 921.5,-131.8 925,-121.8 918,-121.8"/>
</a>
</g>
</g>
<!-- Node15 -->
<g id="Node000015" class="node">
<title>Node15</title>
<g id="a_Node000015"><a xlink:href="eom__ea__ccsd_8ipp.html" target="_top" xlink:title=" ">
<polygon fill="white" stroke="#666666" points="1245.5,-228 1103.5,-228 1103.5,-198 1245.5,-198 1245.5,-228"/>
<text text-anchor="start" x="1111.5" y="-216" font-family="FreeSans" font-size="10.00">mpqc/chemistry/qc/lcao</text>
<text text-anchor="middle" x="1174.5" y="-205" font-family="FreeSans" font-size="10.00">/cc/eom/eom_ea_ccsd.ipp</text>
</a>
</g>
</g>
<!-- Node14&#45;&gt;Node15 -->
<g id="edge25_Node000014_Node000015" class="edge">
<title>Node14&#45;&gt;Node15</title>
<g id="a_edge25_Node000014_Node000015"><a xlink:title=" ">
<path fill="none" stroke="#63b8ff" d="M1167.93,-253.83C1167.52,-245.17 1167.81,-235.7 1168.79,-228.16"/>
<polygon fill="#63b8ff" stroke="#63b8ff" points="1164.45,-254.13 1168.78,-263.8 1171.42,-253.54 1164.45,-254.13"/>
</a>
</g>
</g>
<!-- Node15&#45;&gt;Node14 -->
<g id="edge27_Node000015_Node000014" class="edge">
<title>Node15&#45;&gt;Node14</title>
<g id="a_edge27_Node000015_Node000014"><a xlink:title=" ">
<path fill="none" stroke="#63b8ff" d="M1181.07,-238.13C1181.48,-246.78 1181.2,-256.26 1180.22,-263.8"/>
<polygon fill="#63b8ff" stroke="#63b8ff" points="1184.55,-237.83 1180.21,-228.16 1177.58,-238.43 1184.55,-237.83"/>
</a>
</g>
</g>
<!-- Node16 -->
<g id="Node000016" class="node">
<title>Node16</title>
<g id="a_Node000016"><a xlink:href="eom__ea__ccsd_8cpp.html" target="_top" xlink:title=" ">
<polygon fill="white" stroke="#666666" points="1150.5,-162 1006.5,-162 1006.5,-132 1150.5,-132 1150.5,-162"/>
<text text-anchor="start" x="1014.5" y="-150" font-family="FreeSans" font-size="10.00">mpqc/chemistry/qc/lcao</text>
<text text-anchor="middle" x="1078.5" y="-139" font-family="FreeSans" font-size="10.00">/cc/eom/eom_ea_ccsd.cpp</text>
</a>
</g>
</g>
<!-- Node15&#45;&gt;Node16 -->
<g id="edge26_Node000015_Node000016" class="edge">
<title>Node15&#45;&gt;Node16</title>
<g id="a_edge26_Node000015_Node000016"><a xlink:title=" ">
<path fill="none" stroke="#63b8ff" d="M1144.54,-192.03C1130.01,-182.34 1112.91,-170.94 1099.75,-162.16"/>
<polygon fill="#63b8ff" stroke="#63b8ff" points="1142.93,-195.16 1153.19,-197.8 1146.82,-189.34 1142.93,-195.16"/>
</a>
</g>
</g>
<!-- Node15&#45;&gt;Node17 -->
<g id="edge28_Node000015_Node000017" class="edge">
<title>Node15&#45;&gt;Node17</title>
<g id="a_edge28_Node000015_Node000017"><a xlink:title=" ">
<path fill="none" stroke="#63b8ff" d="M1195.12,-190.37C1203.99,-181.06 1214.11,-170.44 1222,-162.16"/>
<polygon fill="#63b8ff" stroke="#63b8ff" points="1192.4,-188.14 1188.04,-197.8 1197.47,-192.97 1192.4,-188.14"/>
</a>
</g>
</g>
<!-- Node18 -->
<g id="Node000018" class="node">
<title>Node18</title>
<g id="a_Node000018"><a xlink:href="eom__ip__ccsd_8ipp.html" target="_top" xlink:title=" ">
<polygon fill="white" stroke="#666666" points="1305,-96 1166,-96 1166,-66 1305,-66 1305,-96"/>
<text text-anchor="start" x="1174" y="-84" font-family="FreeSans" font-size="10.00">mpqc/chemistry/qc/lcao</text>
<text text-anchor="middle" x="1235.5" y="-73" font-family="FreeSans" font-size="10.00">/cc/eom/eom_ip_ccsd.ipp</text>
</a>
</g>
</g>
<!-- Node17&#45;&gt;Node18 -->
<g id="edge29_Node000017_Node000018" class="edge">
<title>Node17&#45;&gt;Node18</title>
<g id="a_edge29_Node000017_Node000018"><a xlink:title=" ">
<path fill="none" stroke="#63b8ff" d="M1235.5,-121.54C1235.5,-112.96 1235.5,-103.61 1235.5,-96.16"/>
<polygon fill="#63b8ff" stroke="#63b8ff" points="1232,-121.8 1235.5,-131.8 1239,-121.8 1232,-121.8"/>
</a>
</g>
</g>
<!-- Node19 -->
<g id="Node000019" class="node">
<title>Node19</title>
<g id="a_Node000019"><a xlink:href="eom__ip__ccsd_8cpp.html" target="_top" xlink:title=" ">
<polygon fill="white" stroke="#666666" points="1306,-30 1165,-30 1165,0 1306,0 1306,-30"/>
<text text-anchor="start" x="1173" y="-18" font-family="FreeSans" font-size="10.00">mpqc/chemistry/qc/lcao</text>
<text text-anchor="middle" x="1235.5" y="-7" font-family="FreeSans" font-size="10.00">/cc/eom/eom_ip_ccsd.cpp</text>
</a>
</g>
</g>
<!-- Node18&#45;&gt;Node19 -->
<g id="edge30_Node000018_Node000019" class="edge">
<title>Node18&#45;&gt;Node19</title>
<g id="a_edge30_Node000018_Node000019"><a xlink:title=" ">
<path fill="none" stroke="#63b8ff" d="M1235.5,-55.54C1235.5,-46.96 1235.5,-37.61 1235.5,-30.16"/>
<polygon fill="#63b8ff" stroke="#63b8ff" points="1232,-55.8 1235.5,-65.8 1239,-55.8 1232,-55.8"/>
</a>
</g>
</g>
<!-- Node20&#45;&gt;Node12 -->
<g id="edge33_Node000020_Node000012" class="edge">
<title>Node20&#45;&gt;Node12</title>
<g id="a_edge33_Node000020_Node000012"><a xlink:title=" ">
<path fill="none" stroke="#63b8ff" d="M762.01,-255.48C750.38,-238.41 739.75,-215.07 752.5,-198 765.13,-181.09 813.26,-167.88 854.94,-159.3"/>
<polygon fill="#63b8ff" stroke="#63b8ff" points="759.35,-257.76 768.07,-263.77 765,-253.63 759.35,-257.76"/>
</a>
</g>
</g>
<!-- Node21 -->
<g id="Node000021" class="node">
<title>Node21</title>
<g id="a_Node000021"><a xlink:href="cis_8cpp.html" target="_top" xlink:title=" ">
<polygon fill="white" stroke="#666666" points="895,-228 762,-228 762,-198 895,-198 895,-228"/>
<text text-anchor="start" x="770" y="-216" font-family="FreeSans" font-size="10.00">mpqc/chemistry/qc/lcao</text>
<text text-anchor="middle" x="828.5" y="-205" font-family="FreeSans" font-size="10.00">/ci/cis.cpp</text>
</a>
</g>
</g>
<!-- Node20&#45;&gt;Node21 -->
<g id="edge34_Node000020_Node000021" class="edge">
<title>Node20&#45;&gt;Node21</title>
<g id="a_edge34_Node000020_Node000021"><a xlink:title=" ">
<path fill="none" stroke="#63b8ff" d="M797.36,-255.53C804.18,-246.43 811.85,-236.19 817.88,-228.16"/>
<polygon fill="#63b8ff" stroke="#63b8ff" points="794.35,-253.7 791.15,-263.8 799.95,-257.9 794.35,-253.7"/>
</a>
</g>
</g>
<!-- Node22 -->
<g id="Node000022" class="node">
<title>Node22</title>
<g id="a_Node000022"><a xlink:href="cis__d_8h.html" target="_top" xlink:title=" ">
<polygon fill="white" stroke="#666666" points="705,-228 572,-228 572,-198 705,-198 705,-228"/>
<text text-anchor="start" x="580" y="-216" font-family="FreeSans" font-size="10.00">mpqc/chemistry/qc/lcao</text>
<text text-anchor="middle" x="638.5" y="-205" font-family="FreeSans" font-size="10.00">/ci/cis_d.h</text>
</a>
</g>
</g>
<!-- Node20&#45;&gt;Node22 -->
<g id="edge35_Node000020_Node000022" class="edge">
<title>Node20&#45;&gt;Node22</title>
<g id="a_edge35_Node000020_Node000022"><a xlink:title=" ">
<path fill="none" stroke="#63b8ff" d="M740.08,-259.78C717.7,-249.69 690.29,-237.34 669.59,-228.01"/>
<polygon fill="#63b8ff" stroke="#63b8ff" points="738.78,-263.04 749.34,-263.95 741.66,-256.65 738.78,-263.04"/>
</a>
</g>
</g>
<!-- Node22&#45;&gt;Node12 -->
<g id="edge36_Node000022_Node000012" class="edge">
<title>Node22&#45;&gt;Node12</title>
<g id="a_edge36_Node000022_Node000012"><a xlink:title=" ">
<path fill="none" stroke="#63b8ff" d="M710.52,-195.71C756.54,-185.31 815.61,-171.95 859.54,-162.01"/>
<polygon fill="#63b8ff" stroke="#63b8ff" points="709.59,-192.34 700.61,-197.95 711.13,-199.16 709.59,-192.34"/>
</a>
</g>
</g>
<!-- Node24 -->
<g id="Node000024" class="node">
<title>Node24</title>
<g id="a_Node000024"><a xlink:href="sci_8ipp.html" target="_top" xlink:title=" ">
<polygon fill="white" stroke="#666666" points="1450,-228 1317,-228 1317,-198 1450,-198 1450,-228"/>
<text text-anchor="start" x="1325" y="-216" font-family="FreeSans" font-size="10.00">mpqc/chemistry/qc/lcao</text>
<text text-anchor="middle" x="1383.5" y="-205" font-family="FreeSans" font-size="10.00">/ci/sci.ipp</text>
</a>
</g>
</g>
<!-- Node23&#45;&gt;Node24 -->
<g id="edge38_Node000023_Node000024" class="edge">
<title>Node23&#45;&gt;Node24</title>
<g id="a_edge38_Node000023_Node000024"><a xlink:title=" ">
<path fill="none" stroke="#63b8ff" d="M1377.28,-253.83C1378.63,-245.17 1380.11,-235.7 1381.29,-228.16"/>
<polygon fill="#63b8ff" stroke="#63b8ff" points="1373.81,-253.38 1375.72,-263.8 1380.72,-254.46 1373.81,-253.38"/>
</a>
</g>
</g>
<!-- Node26 -->
<g id="Node000026" class="node">
<title>Node26</title>
<g id="a_Node000026"><a xlink:href="solver__1c__v2_8ipp.html" target="_top" xlink:title=" ">
<polygon fill="white" stroke="#666666" points="1602.5,-228 1470.5,-228 1470.5,-198 1602.5,-198 1602.5,-228"/>
<text text-anchor="start" x="1478.5" y="-216" font-family="FreeSans" font-size="10.00">mpqc/chemistry/qc/mra</text>
<text text-anchor="middle" x="1536.5" y="-205" font-family="FreeSans" font-size="10.00">/scf/solver_1c_v2.ipp</text>
</a>
</g>
</g>
<!-- Node23&#45;&gt;Node26 -->
<g id="edge40_Node000023_Node000026" class="edge">
<title>Node23&#45;&gt;Node26</title>
<g id="a_edge40_Node000023_Node000026"><a xlink:title=" ">
<path fill="none" stroke="#63b8ff" d="M1418.86,-260.19C1444.75,-250.02 1476.73,-237.47 1500.81,-228.01"/>
<polygon fill="#63b8ff" stroke="#63b8ff" points="1417.3,-257.04 1409.27,-263.95 1419.86,-263.56 1417.3,-257.04"/>
</a>
</g>
</g>
<!-- Node25 -->
<g id="Node000025" class="node">
<title>Node25</title>
<g id="a_Node000025"><a xlink:href="sci_8cpp.html" target="_top" xlink:title=" ">
<polygon fill="white" stroke="#666666" points="1453,-162 1320,-162 1320,-132 1453,-132 1453,-162"/>
<text text-anchor="start" x="1328" y="-150" font-family="FreeSans" font-size="10.00">mpqc/chemistry/qc/lcao</text>
<text text-anchor="middle" x="1386.5" y="-139" font-family="FreeSans" font-size="10.00">/ci/sci.cpp</text>
</a>
</g>
</g>
<!-- Node24&#45;&gt;Node25 -->
<g id="edge39_Node000024_Node000025" class="edge">
<title>Node24&#45;&gt;Node25</title>
<g id="a_edge39_Node000024_Node000025"><a xlink:title=" ">
<path fill="none" stroke="#63b8ff" d="M1384.65,-187.54C1385.05,-178.96 1385.49,-169.61 1385.84,-162.16"/>
<polygon fill="#63b8ff" stroke="#63b8ff" points="1381.14,-187.64 1384.17,-197.8 1388.13,-187.97 1381.14,-187.64"/>
</a>
</g>
</g>
<!-- Node27 -->
<g id="Node000027" class="node">
<title>Node27</title>
<g id="a_Node000027"><a xlink:href="solver_8cpp.html" target="_top" xlink:title=" ">
<polygon fill="white" stroke="#666666" points="1603.5,-162 1471.5,-162 1471.5,-132 1603.5,-132 1603.5,-162"/>
<text text-anchor="start" x="1479.5" y="-150" font-family="FreeSans" font-size="10.00">mpqc/chemistry/qc/mra</text>
<text text-anchor="middle" x="1537.5" y="-139" font-family="FreeSans" font-size="10.00">/scf/solver.cpp</text>
</a>
</g>
</g>
<!-- Node26&#45;&gt;Node27 -->
<g id="edge41_Node000026_Node000027" class="edge">
<title>Node26&#45;&gt;Node27</title>
<g id="a_edge41_Node000026_Node000027"><a xlink:title=" ">
<path fill="none" stroke="#63b8ff" d="M1536.88,-187.54C1537.02,-178.96 1537.16,-169.61 1537.28,-162.16"/>
<polygon fill="#63b8ff" stroke="#63b8ff" points="1533.38,-187.74 1536.72,-197.8 1540.38,-187.85 1533.38,-187.74"/>
</a>
</g>
</g>
</g>
</svg>

<g id="navigator" transform="translate(0 0)" fill="#404254">
  <rect fill="#f2f5e9" fill-opacity="0.5" stroke="#606060" stroke-width=".5" x="0" y="0" width="60" height="60"/>
  <use id="zoomplus" xlink:href="#zoomPlus" x="17" y="9" onmousedown="handleZoom(evt,'in')"/>
  <use id="zoomminus" xlink:href="#zoomMin" x="42" y="9" onmousedown="handleZoom(evt,'out')"/>
  <use id="reset" xlink:href="#resetDef" x="30" y="36" onmousedown="handleReset()"/>
   <use id="arrowup" xlink:href="#arrowUp" x="0" y="0" onmousedown="handlePan(0,-1)"/>
  <use id="arrowright" xlink:href="#arrowRight" x="0" y="0" onmousedown="handlePan(1,0)"/>
  <use id="arrowdown" xlink:href="#arrowDown" x="0" y="0" onmousedown="handlePan(0,1)"/>
  <use id="arrowleft" xlink:href="#arrowLeft" x="0" y="0" onmousedown="handlePan(-1,0)"/>
</g>
<svg viewBox="0 0 15 15" width="100%" height="30px" preserveAspectRatio="xMaxYMin meet">
 <g id="arrow_out" transform="scale(0.3 0.3)">
  <a xlink:href="excitation__energy_8h__dep__incl_org.svg" target="_base">
   <rect id="button" ry="5" rx="5" y="6" x="6" height="38" width="38"
        fill="#f2f5e9" fill-opacity="0.5" stroke="#606060" stroke-width="1.0"/>
   <path id="arrow"
     d="M 11.500037,31.436501 C 11.940474,20.09759 22.043105,11.32322 32.158766,21.979434 L 37.068811,17.246167 C 37.068811,17.246167 37.088388,32 37.088388,32 L 22.160133,31.978069 C 22.160133,31.978069 26.997745,27.140456 26.997745,27.140456 C 18.528582,18.264221 13.291696,25.230495 11.500037,31.436501 z"
     style="fill:#404040;"/>
  </a>
 </g>
</svg>

<style type='text/css'>
<![CDATA[
[data-mouse-over-selected='false'] { opacity: 0.7; }
[data-mouse-over-selected='true']  { opacity: 1.0; }
]]>
</style>
<script type="application/ecmascript"><![CDATA[
document.addEventListener('DOMContentLoaded', (event) => {
  highlightEdges();
  highlightAdjacentNodes();
});
]]></script>
</svg>
