<?xml version="1.0" encoding="UTF-8" standalone="no"?>
<!DOCTYPE svg PUBLIC "-//W3C//DTD SVG 1.1//EN"
 "http://www.w3.org/Graphics/SVG/1.1/DTD/svg11.dtd">
<!-- Generated by graphviz version 2.43.0 (0)
 -->
<!-- Title: mpqc/util/external/madworld/default_madworld.h Pages: 1 -->
<svg width="2276pt" height="412pt"
 viewBox="0.00 0.00 2275.50 412.00" xmlns="http://www.w3.org/2000/svg" xmlns:xlink="http://www.w3.org/1999/xlink">
<g id="graph0" class="graph" transform="scale(1 1) rotate(0) translate(4 408)">
<title>mpqc/util/external/madworld/default_madworld.h</title>
<!-- Node1 -->
<g id="Node000001" class="node">
<title>Node1</title>
<g id="a_Node000001"><a xlink:title=" ">
<polygon fill="#999999" stroke="#666666" points="829.5,-404 660.5,-404 660.5,-374 829.5,-374 829.5,-404"/>
<text text-anchor="start" x="668.5" y="-392" font-family="FreeSans" font-size="10.00">mpqc/util/external</text>
<text text-anchor="middle" x="745" y="-381" font-family="FreeSans" font-size="10.00">/madworld/default_madworld.h</text>
</a>
</g>
</g>
<!-- Node2 -->
<g id="Node000002" class="node">
<title>Node2</title>
<g id="a_Node000002"><a xlink:title=" ">
<polygon fill="#e0e0e0" stroke="#999999" points="733,-338 603,-338 603,-319 733,-319 733,-338"/>
<text text-anchor="middle" x="668" y="-326" font-family="FreeSans" font-size="10.00">madness/world/world.h</text>
</a>
</g>
</g>
<!-- Node1&#45;&gt;Node2 -->
<g id="edge1_Node000001_Node000002" class="edge">
<title>Node1&#45;&gt;Node2</title>
<g id="a_edge1_Node000001_Node000002"><a xlink:title=" ">
<path fill="none" stroke="#63b8ff" d="M726.36,-373.84C714.61,-364.91 699.47,-353.41 687.55,-344.35"/>
<polygon fill="#63b8ff" stroke="#63b8ff" points="689.62,-341.53 679.54,-338.27 685.38,-347.1 689.62,-341.53"/>
</a>
</g>
</g>
<!-- Node3 -->
<g id="Node000003" class="node">
<title>Node3</title>
<g id="a_Node000003"><a xlink:href="src_2mpqc_2util_2keyval_2keyval_8h.html" target="_top" xlink:title=" ">
<polygon fill="white" stroke="#666666" points="893,-338 751,-338 751,-319 893,-319 893,-338"/>
<text text-anchor="middle" x="822" y="-326" font-family="FreeSans" font-size="10.00">mpqc/util/keyval/keyval.h</text>
</a>
</g>
</g>
<!-- Node1&#45;&gt;Node3 -->
<g id="edge2_Node000001_Node000003" class="edge">
<title>Node1&#45;&gt;Node3</title>
<g id="a_edge2_Node000001_Node000003"><a xlink:title=" ">
<path fill="none" stroke="#63b8ff" d="M763.64,-373.84C775.39,-364.91 790.53,-353.41 802.45,-344.35"/>
<polygon fill="#63b8ff" stroke="#63b8ff" points="804.62,-347.1 810.46,-338.27 800.38,-341.53 804.62,-347.1"/>
</a>
</g>
</g>
<!-- Node4 -->
<g id="Node000004" class="node">
<title>Node4</title>
<g id="a_Node000004"><a xlink:title=" ">
<polygon fill="#e0e0e0" stroke="#999999" points="42,-79.5 0,-79.5 0,-60.5 42,-60.5 42,-79.5"/>
<text text-anchor="middle" x="21" y="-67.5" font-family="FreeSans" font-size="10.00">array</text>
</a>
</g>
</g>
<!-- Node3&#45;&gt;Node4 -->
<g id="edge3_Node000003_Node000004" class="edge">
<title>Node3&#45;&gt;Node4</title>
<g id="a_edge3_Node000003_Node000004"><a xlink:title=" ">
<path fill="none" stroke="#63b8ff" d="M750.92,-319.75C747.91,-319.48 744.92,-319.23 742,-319 703.35,-315.95 73.24,-309.57 45,-283 -9.12,-232.09 6.84,-130.79 16.28,-89.33"/>
<polygon fill="#63b8ff" stroke="#63b8ff" points="19.71,-90.07 18.66,-79.52 12.9,-88.42 19.71,-90.07"/>
</a>
</g>
</g>
<!-- Node5 -->
<g id="Node000005" class="node">
<title>Node5</title>
<g id="a_Node000005"><a xlink:title=" ">
<polygon fill="#e0e0e0" stroke="#999999" points="278,-277.5 226,-277.5 226,-258.5 278,-258.5 278,-277.5"/>
<text text-anchor="middle" x="252" y="-265.5" font-family="FreeSans" font-size="10.00">cassert</text>
</a>
</g>
</g>
<!-- Node3&#45;&gt;Node5 -->
<g id="edge4_Node000003_Node000005" class="edge">
<title>Node3&#45;&gt;Node5</title>
<g id="a_edge4_Node000003_Node000005"><a xlink:title=" ">
<path fill="none" stroke="#63b8ff" d="M750.91,-319.85C747.9,-319.55 744.92,-319.27 742,-319 540.01,-300.28 484.52,-329.19 287,-283 284.69,-282.46 282.33,-281.79 279.98,-281.04"/>
<polygon fill="#63b8ff" stroke="#63b8ff" points="281.15,-277.74 270.55,-277.63 278.76,-284.32 281.15,-277.74"/>
</a>
</g>
</g>
<!-- Node6 -->
<g id="Node000006" class="node">
<title>Node6</title>
<g id="a_Node000006"><a xlink:title=" ">
<polygon fill="#e0e0e0" stroke="#999999" points="355.5,-277.5 296.5,-277.5 296.5,-258.5 355.5,-258.5 355.5,-277.5"/>
<text text-anchor="middle" x="326" y="-265.5" font-family="FreeSans" font-size="10.00">complex</text>
</a>
</g>
</g>
<!-- Node3&#45;&gt;Node6 -->
<g id="edge5_Node000003_Node000006" class="edge">
<title>Node3&#45;&gt;Node6</title>
<g id="a_edge5_Node000003_Node000006"><a xlink:title=" ">
<path fill="none" stroke="#63b8ff" d="M750.9,-319.91C747.9,-319.6 744.92,-319.3 742,-319 576.74,-302.22 532.72,-316.37 370,-283 366.6,-282.3 363.09,-281.44 359.6,-280.49"/>
<polygon fill="#63b8ff" stroke="#63b8ff" points="360.55,-277.12 349.96,-277.64 358.56,-283.83 360.55,-277.12"/>
</a>
</g>
</g>
<!-- Node7 -->
<g id="Node000007" class="node">
<title>Node7</title>
<g id="a_Node000007"><a xlink:title=" ">
<polygon fill="#e0e0e0" stroke="#999999" points="302,-211.5 242,-211.5 242,-192.5 302,-192.5 302,-211.5"/>
<text text-anchor="middle" x="272" y="-199.5" font-family="FreeSans" font-size="10.00">iostream</text>
</a>
</g>
</g>
<!-- Node3&#45;&gt;Node7 -->
<g id="edge6_Node000003_Node000007" class="edge">
<title>Node3&#45;&gt;Node7</title>
<g id="a_edge6_Node000003_Node000007"><a xlink:title=" ">
<path fill="none" stroke="#63b8ff" d="M750.67,-319.71C646.64,-308.25 464.06,-287.68 450,-283 424.68,-274.58 422.02,-264.62 398,-253 380.99,-244.77 335.72,-227.19 304.35,-215.22"/>
<polygon fill="#63b8ff" stroke="#63b8ff" points="305.3,-211.84 294.71,-211.56 302.81,-218.38 305.3,-211.84"/>
</a>
</g>
</g>
<!-- Node8 -->
<g id="Node000008" class="node">
<title>Node8</title>
<g id="a_Node000008"><a xlink:title=" ">
<polygon fill="#e0e0e0" stroke="#999999" points="810,-277.5 778,-277.5 778,-258.5 810,-258.5 810,-277.5"/>
<text text-anchor="middle" x="794" y="-265.5" font-family="FreeSans" font-size="10.00">list</text>
</a>
</g>
</g>
<!-- Node3&#45;&gt;Node8 -->
<g id="edge7_Node000003_Node000008" class="edge">
<title>Node3&#45;&gt;Node8</title>
<g id="a_edge7_Node000003_Node000008"><a xlink:title=" ">
<path fill="none" stroke="#63b8ff" d="M817.87,-318.87C813.86,-310.49 807.65,-297.51 802.56,-286.89"/>
<polygon fill="#63b8ff" stroke="#63b8ff" points="805.62,-285.18 798.15,-277.67 799.31,-288.2 805.62,-285.18"/>
</a>
</g>
</g>
<!-- Node9 -->
<g id="Node000009" class="node">
<title>Node9</title>
<g id="a_Node000009"><a xlink:title=" ">
<polygon fill="#e0e0e0" stroke="#999999" points="874,-277.5 828,-277.5 828,-258.5 874,-258.5 874,-277.5"/>
<text text-anchor="middle" x="851" y="-265.5" font-family="FreeSans" font-size="10.00">locale</text>
</a>
</g>
</g>
<!-- Node3&#45;&gt;Node9 -->
<g id="edge8_Node000003_Node000009" class="edge">
<title>Node3&#45;&gt;Node9</title>
<g id="a_edge8_Node000003_Node000009"><a xlink:title=" ">
<path fill="none" stroke="#63b8ff" d="M826.28,-318.87C830.43,-310.49 836.87,-297.51 842.13,-286.89"/>
<polygon fill="#63b8ff" stroke="#63b8ff" points="845.4,-288.18 846.7,-277.67 839.13,-285.07 845.4,-288.18"/>
</a>
</g>
</g>
<!-- Node10 -->
<g id="Node000010" class="node">
<title>Node10</title>
<g id="a_Node000010"><a xlink:title=" ">
<polygon fill="#e0e0e0" stroke="#999999" points="944,-145.5 906,-145.5 906,-126.5 944,-126.5 944,-145.5"/>
<text text-anchor="middle" x="925" y="-133.5" font-family="FreeSans" font-size="10.00">map</text>
</a>
</g>
</g>
<!-- Node3&#45;&gt;Node10 -->
<g id="edge9_Node000003_Node000010" class="edge">
<title>Node3&#45;&gt;Node10</title>
<g id="a_edge9_Node000003_Node000010"><a xlink:title=" ">
<path fill="none" stroke="#63b8ff" d="M805.42,-318.87C792.83,-311.3 776.46,-299.01 769,-283 763.37,-270.92 760.41,-263.2 769,-253 829.42,-181.23 916.58,-288.77 977,-217 994.8,-195.86 967.31,-168.29 946,-151.66"/>
<polygon fill="#63b8ff" stroke="#63b8ff" points="948.07,-148.83 937.96,-145.65 943.88,-154.44 948.07,-148.83"/>
</a>
</g>
</g>
<!-- Node11 -->
<g id="Node000011" class="node">
<title>Node11</title>
<g id="a_Node000011"><a xlink:href="memory.html" target="_top" xlink:title=" ">
<polygon fill="white" stroke="#666666" points="546,-145.5 488,-145.5 488,-126.5 546,-126.5 546,-145.5"/>
<text text-anchor="middle" x="517" y="-133.5" font-family="FreeSans" font-size="10.00">memory</text>
</a>
</g>
</g>
<!-- Node3&#45;&gt;Node11 -->
<g id="edge10_Node000003_Node000011" class="edge">
<title>Node3&#45;&gt;Node11</title>
<g id="a_edge10_Node000003_Node000011"><a xlink:title=" ">
<path fill="none" stroke="#63b8ff" d="M750.96,-319.76C661.07,-309.63 516.89,-292.09 509,-283 477.74,-246.99 496.67,-185.21 508.96,-154.87"/>
<polygon fill="#63b8ff" stroke="#63b8ff" points="512.23,-156.12 512.93,-145.55 505.79,-153.37 512.23,-156.12"/>
</a>
</g>
</g>
<!-- Node12 -->
<g id="Node000012" class="node">
<title>Node12</title>
<g id="a_Node000012"><a xlink:title=" ">
<polygon fill="#e0e0e0" stroke="#999999" points="903,-211.5 847,-211.5 847,-192.5 903,-192.5 903,-211.5"/>
<text text-anchor="middle" x="875" y="-199.5" font-family="FreeSans" font-size="10.00">optional</text>
</a>
</g>
</g>
<!-- Node3&#45;&gt;Node12 -->
<g id="edge12_Node000003_Node000012" class="edge">
<title>Node3&#45;&gt;Node12</title>
<g id="a_edge12_Node000003_Node000012"><a xlink:title=" ">
<path fill="none" stroke="#63b8ff" d="M778.96,-318.97C733.65,-308.02 672.18,-286.37 698,-253 737.06,-202.53 776.09,-236.05 837,-217 839.13,-216.33 841.31,-215.62 843.5,-214.88"/>
<polygon fill="#63b8ff" stroke="#63b8ff" points="844.76,-218.15 853.02,-211.52 842.43,-211.54 844.76,-218.15"/>
</a>
</g>
</g>
<!-- Node13 -->
<g id="Node000013" class="node">
<title>Node13</title>
<g id="a_Node000013"><a xlink:title=" ">
<polygon fill="#e0e0e0" stroke="#999999" points="957.5,-277.5 892.5,-277.5 892.5,-258.5 957.5,-258.5 957.5,-277.5"/>
<text text-anchor="middle" x="925" y="-265.5" font-family="FreeSans" font-size="10.00">stdexcept</text>
</a>
</g>
</g>
<!-- Node3&#45;&gt;Node13 -->
<g id="edge13_Node000003_Node000013" class="edge">
<title>Node3&#45;&gt;Node13</title>
<g id="a_edge13_Node000003_Node000013"><a xlink:title=" ">
<path fill="none" stroke="#63b8ff" d="M837.2,-318.87C854.01,-309.32 881.32,-293.81 901.02,-282.62"/>
<polygon fill="#63b8ff" stroke="#63b8ff" points="902.77,-285.65 909.74,-277.67 899.32,-279.56 902.77,-285.65"/>
</a>
</g>
</g>
<!-- Node14 -->
<g id="Node000014" class="node">
<title>Node14</title>
<g id="a_Node000014"><a xlink:title=" ">
<polygon fill="#e0e0e0" stroke="#999999" points="1020,-277.5 976,-277.5 976,-258.5 1020,-258.5 1020,-277.5"/>
<text text-anchor="middle" x="998" y="-265.5" font-family="FreeSans" font-size="10.00">string</text>
</a>
</g>
</g>
<!-- Node3&#45;&gt;Node14 -->
<g id="edge14_Node000003_Node000014" class="edge">
<title>Node3&#45;&gt;Node14</title>
<g id="a_edge14_Node000003_Node000014"><a xlink:title=" ">
<path fill="none" stroke="#63b8ff" d="M853.24,-318.95C882.64,-310.64 927.74,-297.23 966,-283 967.39,-282.48 968.8,-281.94 970.22,-281.38"/>
<polygon fill="#63b8ff" stroke="#63b8ff" points="971.64,-284.58 979.53,-277.5 968.95,-278.11 971.64,-284.58"/>
</a>
</g>
</g>
<!-- Node15 -->
<g id="Node000015" class="node">
<title>Node15</title>
<g id="a_Node000015"><a xlink:title=" ">
<polygon fill="#e0e0e0" stroke="#999999" points="968.5,-211.5 921.5,-211.5 921.5,-192.5 968.5,-192.5 968.5,-211.5"/>
<text text-anchor="middle" x="945" y="-199.5" font-family="FreeSans" font-size="10.00">vector</text>
</a>
</g>
</g>
<!-- Node3&#45;&gt;Node15 -->
<g id="edge15_Node000003_Node000015" class="edge">
<title>Node3&#45;&gt;Node15</title>
<g id="a_edge15_Node000003_Node000015"><a xlink:title=" ">
<path fill="none" stroke="#63b8ff" d="M786.95,-318.88C768.35,-312.33 747.1,-301.24 736,-283 729.07,-271.61 727.57,-263.33 736,-253 786.48,-191.14 835.76,-240.71 912,-217 913.68,-216.48 915.38,-215.9 917.09,-215.29"/>
<polygon fill="#63b8ff" stroke="#63b8ff" points="918.71,-218.42 926.74,-211.51 916.15,-211.9 918.71,-218.42"/>
</a>
</g>
</g>
<!-- Node16 -->
<g id="Node000016" class="node">
<title>Node16</title>
<g id="a_Node000016"><a xlink:title=" ">
<polygon fill="#e0e0e0" stroke="#999999" points="1178,-277.5 1038,-277.5 1038,-258.5 1178,-258.5 1178,-277.5"/>
<text text-anchor="middle" x="1108" y="-265.5" font-family="FreeSans" font-size="10.00">boost/core/demangle.hpp</text>
</a>
</g>
</g>
<!-- Node3&#45;&gt;Node16 -->
<g id="edge16_Node000003_Node000016" class="edge">
<title>Node3&#45;&gt;Node16</title>
<g id="a_edge16_Node000003_Node000016"><a xlink:title=" ">
<path fill="none" stroke="#63b8ff" d="M863.59,-318.99C914.63,-308.55 1001.2,-290.85 1056.43,-279.55"/>
<polygon fill="#63b8ff" stroke="#63b8ff" points="1057.27,-282.95 1066.36,-277.52 1055.86,-276.09 1057.27,-282.95"/>
</a>
</g>
</g>
<!-- Node17 -->
<g id="Node000017" class="node">
<title>Node17</title>
<g id="a_Node000017"><a xlink:title=" ">
<polygon fill="#e0e0e0" stroke="#999999" points="622.5,-79.5 505.5,-79.5 505.5,-60.5 622.5,-60.5 622.5,-79.5"/>
<text text-anchor="middle" x="564" y="-67.5" font-family="FreeSans" font-size="10.00">mpqc/mpqc_config.h</text>
</a>
</g>
</g>
<!-- Node3&#45;&gt;Node17 -->
<g id="edge17_Node000003_Node000017" class="edge">
<title>Node3&#45;&gt;Node17</title>
<g id="a_edge17_Node000003_Node000017"><a xlink:title=" ">
<path fill="none" stroke="#63b8ff" d="M750.9,-319.94C747.89,-319.62 744.92,-319.31 742,-319 589.12,-302.88 538.76,-344.79 398,-283 379.55,-274.9 381.73,-262.58 364,-253 310.88,-224.29 269.6,-265.02 233,-217 176.88,-143.37 269.19,-153.56 354,-121 401.94,-102.6 458.72,-89.57 501.14,-81.44"/>
<polygon fill="#63b8ff" stroke="#63b8ff" points="501.88,-84.86 511.06,-79.57 500.58,-77.98 501.88,-84.86"/>
</a>
</g>
</g>
<!-- Node18 -->
<g id="Node000018" class="node">
<title>Node18</title>
<g id="a_Node000018"><a xlink:title=" ">
<polygon fill="#e0e0e0" stroke="#999999" points="1318,-283 1196,-283 1196,-253 1318,-253 1318,-283"/>
<text text-anchor="start" x="1204" y="-271" font-family="FreeSans" font-size="10.00">boost/container/small</text>
<text text-anchor="middle" x="1257" y="-260" font-family="FreeSans" font-size="10.00">_vector.hpp</text>
</a>
</g>
</g>
<!-- Node3&#45;&gt;Node18 -->
<g id="edge18_Node000003_Node000018" class="edge">
<title>Node3&#45;&gt;Node18</title>
<g id="a_edge18_Node000003_Node000018"><a xlink:title=" ">
<path fill="none" stroke="#63b8ff" d="M893.22,-320.44C964.72,-312.98 1078.24,-300.14 1185.9,-283.1"/>
<polygon fill="#63b8ff" stroke="#63b8ff" points="1186.64,-286.53 1195.97,-281.49 1185.54,-279.61 1186.64,-286.53"/>
</a>
</g>
</g>
<!-- Node19 -->
<g id="Node000019" class="node">
<title>Node19</title>
<g id="a_Node000019"><a xlink:title=" ">
<polygon fill="#e0e0e0" stroke="#999999" points="1449.5,-283 1336.5,-283 1336.5,-253 1449.5,-253 1449.5,-283"/>
<text text-anchor="start" x="1344.5" y="-271" font-family="FreeSans" font-size="10.00">boost/property_tree</text>
<text text-anchor="middle" x="1393" y="-260" font-family="FreeSans" font-size="10.00">/info_parser.hpp</text>
</a>
</g>
</g>
<!-- Node3&#45;&gt;Node19 -->
<g id="edge19_Node000003_Node000019" class="edge">
<title>Node3&#45;&gt;Node19</title>
<g id="a_edge19_Node000003_Node000019"><a xlink:title=" ">
<path fill="none" stroke="#63b8ff" d="M893.41,-323.94C989.52,-318.54 1165.94,-306.48 1326.16,-283"/>
<polygon fill="#63b8ff" stroke="#63b8ff" points="1326.82,-286.44 1336.2,-281.51 1325.79,-279.51 1326.82,-286.44"/>
</a>
</g>
</g>
<!-- Node20 -->
<g id="Node000020" class="node">
<title>Node20</title>
<g id="a_Node000020"><a xlink:title=" ">
<polygon fill="#e0e0e0" stroke="#999999" points="1580.5,-283 1467.5,-283 1467.5,-253 1580.5,-253 1580.5,-283"/>
<text text-anchor="start" x="1475.5" y="-271" font-family="FreeSans" font-size="10.00">boost/property_tree</text>
<text text-anchor="middle" x="1524" y="-260" font-family="FreeSans" font-size="10.00">/json_parser.hpp</text>
</a>
</g>
</g>
<!-- Node3&#45;&gt;Node20 -->
<g id="edge20_Node000003_Node000020" class="edge">
<title>Node3&#45;&gt;Node20</title>
<g id="a_edge20_Node000003_Node000020"><a xlink:title=" ">
<path fill="none" stroke="#63b8ff" d="M893.4,-325.74C1009.57,-322.17 1246.83,-311.9 1457.21,-282.96"/>
<polygon fill="#63b8ff" stroke="#63b8ff" points="1457.79,-286.42 1467.21,-281.57 1456.82,-279.48 1457.79,-286.42"/>
</a>
</g>
</g>
<!-- Node21 -->
<g id="Node000021" class="node">
<title>Node21</title>
<g id="a_Node000021"><a xlink:title=" ">
<polygon fill="#e0e0e0" stroke="#999999" points="1711.5,-283 1598.5,-283 1598.5,-253 1711.5,-253 1711.5,-283"/>
<text text-anchor="start" x="1606.5" y="-271" font-family="FreeSans" font-size="10.00">boost/property_tree</text>
<text text-anchor="middle" x="1655" y="-260" font-family="FreeSans" font-size="10.00">/ptree.hpp</text>
</a>
</g>
</g>
<!-- Node3&#45;&gt;Node21 -->
<g id="edge21_Node000003_Node000021" class="edge">
<title>Node3&#45;&gt;Node21</title>
<g id="a_edge21_Node000003_Node000021"><a xlink:title=" ">
<path fill="none" stroke="#63b8ff" d="M893.19,-326.95C1027.34,-325.14 1326.79,-317.37 1588.15,-282.96"/>
<polygon fill="#63b8ff" stroke="#63b8ff" points="1588.76,-286.4 1598.21,-281.61 1587.84,-279.47 1588.76,-286.4"/>
</a>
</g>
</g>
<!-- Node22 -->
<g id="Node000022" class="node">
<title>Node22</title>
<g id="a_Node000022"><a xlink:title=" ">
<polygon fill="#e0e0e0" stroke="#999999" points="1842.5,-283 1729.5,-283 1729.5,-253 1842.5,-253 1842.5,-283"/>
<text text-anchor="start" x="1737.5" y="-271" font-family="FreeSans" font-size="10.00">boost/property_tree</text>
<text text-anchor="middle" x="1786" y="-260" font-family="FreeSans" font-size="10.00">/xml_parser.hpp</text>
</a>
</g>
</g>
<!-- Node3&#45;&gt;Node22 -->
<g id="edge22_Node000003_Node000022" class="edge">
<title>Node3&#45;&gt;Node22</title>
<g id="a_edge22_Node000003_Node000022"><a xlink:title=" ">
<path fill="none" stroke="#63b8ff" d="M893.07,-327.82C1043.7,-327.66 1406.2,-322.87 1719.04,-282.96"/>
<polygon fill="#63b8ff" stroke="#63b8ff" points="1719.75,-286.4 1729.22,-281.65 1718.85,-279.45 1719.75,-286.4"/>
</a>
</g>
</g>
<!-- Node23 -->
<g id="Node000023" class="node">
<title>Node23</title>
<g id="a_Node000023"><a xlink:title=" ">
<polygon fill="#e0e0e0" stroke="#999999" points="1967.5,-283 1860.5,-283 1860.5,-253 1967.5,-253 1967.5,-283"/>
<text text-anchor="start" x="1868.5" y="-271" font-family="FreeSans" font-size="10.00">boost/serialization</text>
<text text-anchor="middle" x="1914" y="-260" font-family="FreeSans" font-size="10.00">/export.hpp</text>
</a>
</g>
</g>
<!-- Node3&#45;&gt;Node23 -->
<g id="edge23_Node000003_Node000023" class="edge">
<title>Node3&#45;&gt;Node23</title>
<g id="a_edge23_Node000003_Node000023"><a xlink:title=" ">
<path fill="none" stroke="#63b8ff" d="M893.21,-326.08C1091.34,-321.88 1647.29,-308.26 1850.36,-283.02"/>
<polygon fill="#63b8ff" stroke="#63b8ff" points="1850.87,-286.49 1860.34,-281.73 1849.97,-279.54 1850.87,-286.49"/>
</a>
</g>
</g>
<!-- Node24 -->
<g id="Node000024" class="node">
<title>Node24</title>
<g id="a_Node000024"><a xlink:href="exenv_8h.html" target="_top" xlink:title=" ">
<polygon fill="white" stroke="#666666" points="645.5,-277.5 518.5,-277.5 518.5,-258.5 645.5,-258.5 645.5,-277.5"/>
<text text-anchor="middle" x="582" y="-265.5" font-family="FreeSans" font-size="10.00">mpqc/util/core/exenv.h</text>
</a>
</g>
</g>
<!-- Node3&#45;&gt;Node24 -->
<g id="edge24_Node000003_Node000024" class="edge">
<title>Node3&#45;&gt;Node24</title>
<g id="a_edge24_Node000003_Node000024"><a xlink:title=" ">
<path fill="none" stroke="#63b8ff" d="M787.1,-318.99C744.71,-308.66 673.13,-291.21 626.73,-279.9"/>
<polygon fill="#63b8ff" stroke="#63b8ff" points="627.48,-276.48 616.94,-277.52 625.83,-283.29 627.48,-276.48"/>
</a>
</g>
</g>
<!-- Node33 -->
<g id="Node000033" class="node">
<title>Node33</title>
<g id="a_Node000033"><a xlink:href="util_2keyval_2fwd_8h.html" target="_top" xlink:title=" ">
<polygon fill="white" stroke="#666666" points="2112.5,-277.5 1985.5,-277.5 1985.5,-258.5 2112.5,-258.5 2112.5,-277.5"/>
<text text-anchor="middle" x="2049" y="-265.5" font-family="FreeSans" font-size="10.00">mpqc/util/keyval/fwd.h</text>
</a>
</g>
</g>
<!-- Node3&#45;&gt;Node33 -->
<g id="edge42_Node000003_Node000033" class="edge">
<title>Node3&#45;&gt;Node33</title>
<g id="a_edge42_Node000003_Node000033"><a xlink:title=" ">
<path fill="none" stroke="#63b8ff" d="M893.13,-326.19C1110.74,-321.96 1765.45,-307.5 1977,-283 1984.83,-282.09 1993.08,-280.81 2001.09,-279.38"/>
<polygon fill="#63b8ff" stroke="#63b8ff" points="2001.87,-282.79 2011.06,-277.51 2000.58,-275.91 2001.87,-282.79"/>
</a>
</g>
</g>
<!-- Node34 -->
<g id="Node000034" class="node">
<title>Node34</title>
<g id="a_Node000034"><a xlink:href="predicates_8h.html" target="_top" xlink:title=" ">
<polygon fill="white" stroke="#666666" points="208,-277.5 54,-277.5 54,-258.5 208,-258.5 208,-277.5"/>
<text text-anchor="middle" x="131" y="-265.5" font-family="FreeSans" font-size="10.00">mpqc/util/meta/predicates.h</text>
</a>
</g>
</g>
<!-- Node3&#45;&gt;Node34 -->
<g id="edge43_Node000003_Node000034" class="edge">
<title>Node3&#45;&gt;Node34</title>
<g id="a_edge43_Node000003_Node000034"><a xlink:title=" ">
<path fill="none" stroke="#63b8ff" d="M750.91,-319.81C747.9,-319.53 744.92,-319.26 742,-319 509.01,-298.64 449.34,-309.82 217,-283 207.84,-281.94 198.17,-280.6 188.74,-279.16"/>
<polygon fill="#63b8ff" stroke="#63b8ff" points="189.08,-275.66 178.65,-277.57 187.99,-282.58 189.08,-275.66"/>
</a>
</g>
</g>
<!-- Node41 -->
<g id="Node000041" class="node">
<title>Node41</title>
<g id="a_Node000041"><a xlink:href="stream_8h.html" target="_top" xlink:title=" ">
<polygon fill="white" stroke="#666666" points="2267.5,-277.5 2130.5,-277.5 2130.5,-258.5 2267.5,-258.5 2267.5,-277.5"/>
<text text-anchor="middle" x="2199" y="-265.5" font-family="FreeSans" font-size="10.00">mpqc/util/meta/stream.h</text>
</a>
</g>
</g>
<!-- Node3&#45;&gt;Node41 -->
<g id="edge53_Node000003_Node000041" class="edge">
<title>Node3&#45;&gt;Node41</title>
<g id="a_edge53_Node000003_Node000041"><a xlink:title=" ">
<path fill="none" stroke="#63b8ff" d="M893.19,-326.43C1128.62,-322.68 1880.77,-308.92 2122,-283 2130.54,-282.08 2139.57,-280.76 2148.31,-279.3"/>
<polygon fill="#63b8ff" stroke="#63b8ff" points="2149.16,-282.7 2158.4,-277.52 2147.95,-275.81 2149.16,-282.7"/>
</a>
</g>
</g>
<!-- Node11&#45;&gt;Node11 -->
<g id="edge11_Node000011_Node000011" class="edge">
<title>Node11&#45;&gt;Node11</title>
<g id="a_edge11_Node000011_Node000011"><a xlink:title=" ">
<path fill="none" stroke="#63b8ff" d="M531.92,-145.66C547.1,-151.34 564,-148.12 564,-136 564,-126.53 553.69,-122.5 541.93,-123.89"/>
<polygon fill="#63b8ff" stroke="#63b8ff" points="540.8,-120.57 531.92,-126.34 542.46,-127.37 540.8,-120.57"/>
</a>
</g>
</g>
<!-- Node24&#45;&gt;Node7 -->
<g id="edge37_Node000024_Node000007" class="edge">
<title>Node24&#45;&gt;Node7</title>
<g id="a_edge37_Node000024_Node000007"><a xlink:title=" ">
<path fill="none" stroke="#63b8ff" d="M520.01,-258.49C464.67,-250.2 381.67,-236.07 311,-217 308.57,-216.34 306.07,-215.61 303.58,-214.82"/>
<polygon fill="#63b8ff" stroke="#63b8ff" points="304.67,-211.49 294.08,-211.63 302.44,-218.13 304.67,-211.49"/>
</a>
</g>
</g>
<!-- Node24&#45;&gt;Node11 -->
<g id="edge38_Node000024_Node000011" class="edge">
<title>Node24&#45;&gt;Node11</title>
<g id="a_edge38_Node000024_Node000011"><a xlink:title=" ">
<path fill="none" stroke="#63b8ff" d="M565.19,-258.48C550.64,-250.1 530.5,-235.83 521,-217 511.33,-197.83 511.87,-172.69 513.82,-155.75"/>
<polygon fill="#63b8ff" stroke="#63b8ff" points="517.33,-155.9 515.29,-145.51 510.41,-154.91 517.33,-155.9"/>
</a>
</g>
</g>
<!-- Node24&#45;&gt;Node12 -->
<g id="edge39_Node000024_Node000012" class="edge">
<title>Node24&#45;&gt;Node12</title>
<g id="a_edge39_Node000024_Node000012"><a xlink:title=" ">
<path fill="none" stroke="#63b8ff" d="M627.53,-258.48C695.36,-245.73 817.13,-222.57 837,-217 839.28,-216.36 841.63,-215.64 843.97,-214.89"/>
<polygon fill="#63b8ff" stroke="#63b8ff" points="845.18,-218.17 853.49,-211.6 842.9,-211.55 845.18,-218.17"/>
</a>
</g>
</g>
<!-- Node24&#45;&gt;Node15 -->
<g id="edge41_Node000024_Node000015" class="edge">
<title>Node24&#45;&gt;Node15</title>
<g id="a_edge41_Node000024_Node000015"><a xlink:title=" ">
<path fill="none" stroke="#63b8ff" d="M645.55,-259.3C726.92,-249.1 863.21,-230.81 912,-217 913.89,-216.47 915.81,-215.85 917.73,-215.18"/>
<polygon fill="#63b8ff" stroke="#63b8ff" points="919.08,-218.41 927.14,-211.54 916.55,-211.89 919.08,-218.41"/>
</a>
</g>
</g>
<!-- Node24&#45;&gt;Node17 -->
<g id="edge28_Node000024_Node000017" class="edge">
<title>Node24&#45;&gt;Node17</title>
<g id="a_edge28_Node000024_Node000017"><a xlink:title=" ">
<path fill="none" stroke="#63b8ff" d="M583.38,-258.18C584.87,-248.21 587.13,-231.49 588,-217 588.8,-203.69 589.36,-200.26 588,-187 584.43,-152.17 575,-112.37 569.08,-89.61"/>
<polygon fill="#63b8ff" stroke="#63b8ff" points="572.38,-88.4 566.42,-79.64 565.61,-90.2 572.38,-88.4"/>
</a>
</g>
</g>
<!-- Node25 -->
<g id="Node000025" class="node">
<title>Node25</title>
<g id="a_Node000025"><a xlink:href="math_2external_2tiledarray_2fwd_8h.html" target="_top" xlink:title=" ">
<polygon fill="white" stroke="#666666" points="436,-217 320,-217 320,-187 436,-187 436,-217"/>
<text text-anchor="start" x="328" y="-205" font-family="FreeSans" font-size="10.00">mpqc/math/external</text>
<text text-anchor="middle" x="378" y="-194" font-family="FreeSans" font-size="10.00">/tiledarray/fwd.h</text>
</a>
</g>
</g>
<!-- Node24&#45;&gt;Node25 -->
<g id="edge25_Node000024_Node000025" class="edge">
<title>Node24&#45;&gt;Node25</title>
<g id="a_edge25_Node000024_Node000025"><a xlink:title=" ">
<path fill="none" stroke="#63b8ff" d="M554.49,-258.37C523.41,-248.62 472.04,-232.5 432.71,-220.16"/>
<polygon fill="#63b8ff" stroke="#63b8ff" points="433.58,-216.77 422.99,-217.12 431.49,-223.45 433.58,-216.77"/>
</a>
</g>
</g>
<!-- Node27 -->
<g id="Node000027" class="node">
<title>Node27</title>
<g id="a_Node000027"><a xlink:href="formio_8h.html" target="_top" xlink:title=" ">
<polygon fill="white" stroke="#666666" points="828.5,-211.5 697.5,-211.5 697.5,-192.5 828.5,-192.5 828.5,-211.5"/>
<text text-anchor="middle" x="763" y="-199.5" font-family="FreeSans" font-size="10.00">mpqc/util/core/formio.h</text>
</a>
</g>
</g>
<!-- Node24&#45;&gt;Node27 -->
<g id="edge29_Node000024_Node000027" class="edge">
<title>Node24&#45;&gt;Node27</title>
<g id="a_edge29_Node000024_Node000027"><a xlink:title=" ">
<path fill="none" stroke="#63b8ff" d="M606.41,-258.37C638.08,-247.17 693.47,-227.58 729.18,-214.96"/>
<polygon fill="#63b8ff" stroke="#63b8ff" points="730.43,-218.23 738.69,-211.6 728.09,-211.63 730.43,-218.23"/>
</a>
</g>
</g>
<!-- Node31 -->
<g id="Node000031" class="node">
<title>Node31</title>
<g id="a_Node000031"><a xlink:title=" ">
<polygon fill="#e0e0e0" stroke="#999999" points="579.5,-211.5 530.5,-211.5 530.5,-192.5 579.5,-192.5 579.5,-211.5"/>
<text text-anchor="middle" x="555" y="-199.5" font-family="FreeSans" font-size="10.00">cstdlib</text>
</a>
</g>
</g>
<!-- Node24&#45;&gt;Node31 -->
<g id="edge36_Node000024_Node000031" class="edge">
<title>Node24&#45;&gt;Node31</title>
<g id="a_edge36_Node000024_Node000031"><a xlink:title=" ">
<path fill="none" stroke="#63b8ff" d="M578.36,-258.37C574.36,-248.88 567.81,-233.36 562.66,-221.16"/>
<polygon fill="#63b8ff" stroke="#63b8ff" points="565.87,-219.76 558.76,-211.91 559.42,-222.48 565.87,-219.76"/>
</a>
</g>
</g>
<!-- Node32 -->
<g id="Node000032" class="node">
<title>Node32</title>
<g id="a_Node000032"><a xlink:title=" ">
<polygon fill="#e0e0e0" stroke="#999999" points="679.5,-211.5 636.5,-211.5 636.5,-192.5 679.5,-192.5 679.5,-211.5"/>
<text text-anchor="middle" x="658" y="-199.5" font-family="FreeSans" font-size="10.00">stack</text>
</a>
</g>
</g>
<!-- Node24&#45;&gt;Node32 -->
<g id="edge40_Node000024_Node000032" class="edge">
<title>Node24&#45;&gt;Node32</title>
<g id="a_edge40_Node000024_Node000032"><a xlink:title=" ">
<path fill="none" stroke="#63b8ff" d="M592.25,-258.37C604.31,-248.21 624.56,-231.16 639.41,-218.65"/>
<polygon fill="#63b8ff" stroke="#63b8ff" points="642.03,-221.02 647.43,-211.91 637.52,-215.67 642.03,-221.02"/>
</a>
</g>
</g>
<!-- Node25&#45;&gt;Node17 -->
<g id="edge26_Node000025_Node000017" class="edge">
<title>Node25&#45;&gt;Node17</title>
<g id="a_edge26_Node000025_Node000017"><a xlink:title=" ">
<path fill="none" stroke="#63b8ff" d="M369.91,-186.98C361.1,-169.64 350.12,-140.09 365,-121 381.12,-100.33 444.49,-86.9 495.44,-79.22"/>
<polygon fill="#63b8ff" stroke="#63b8ff" points="496.06,-82.66 505.45,-77.76 495.05,-75.74 496.06,-82.66"/>
</a>
</g>
</g>
<!-- Node26 -->
<g id="Node000026" class="node">
<title>Node26</title>
<g id="a_Node000026"><a xlink:title=" ">
<polygon fill="#e0e0e0" stroke="#999999" points="469.5,-145.5 374.5,-145.5 374.5,-126.5 469.5,-126.5 469.5,-145.5"/>
<text text-anchor="middle" x="422" y="-133.5" font-family="FreeSans" font-size="10.00">tiledarray_fwd.h</text>
</a>
</g>
</g>
<!-- Node25&#45;&gt;Node26 -->
<g id="edge27_Node000025_Node000026" class="edge">
<title>Node25&#45;&gt;Node26</title>
<g id="a_edge27_Node000025_Node000026"><a xlink:title=" ">
<path fill="none" stroke="#63b8ff" d="M387.77,-186.8C394.36,-177.21 403.09,-164.5 410.09,-154.32"/>
<polygon fill="#63b8ff" stroke="#63b8ff" points="413.14,-156.07 415.92,-145.84 407.37,-152.1 413.14,-156.07"/>
</a>
</g>
</g>
<!-- Node27&#45;&gt;Node10 -->
<g id="edge31_Node000027_Node000010" class="edge">
<title>Node27&#45;&gt;Node10</title>
<g id="a_edge31_Node000027_Node000010"><a xlink:title=" ">
<path fill="none" stroke="#63b8ff" d="M784.85,-192.37C813.53,-181.04 863.96,-161.12 895.86,-148.51"/>
<polygon fill="#63b8ff" stroke="#63b8ff" points="897.5,-151.63 905.52,-144.7 894.93,-145.12 897.5,-151.63"/>
</a>
</g>
</g>
<!-- Node27&#45;&gt;Node11 -->
<g id="edge32_Node000027_Node000011" class="edge">
<title>Node27&#45;&gt;Node11</title>
<g id="a_edge32_Node000027_Node000011"><a xlink:title=" ">
<path fill="none" stroke="#63b8ff" d="M730.08,-192.44C684.98,-180.7 604.1,-159.66 556.01,-147.15"/>
<polygon fill="#63b8ff" stroke="#63b8ff" points="556.83,-143.75 546.27,-144.62 555.07,-150.52 556.83,-143.75"/>
</a>
</g>
</g>
<!-- Node28 -->
<g id="Node000028" class="node">
<title>Node28</title>
<g id="a_Node000028"><a xlink:title=" ">
<polygon fill="#e0e0e0" stroke="#999999" points="692,-145.5 644,-145.5 644,-126.5 692,-126.5 692,-145.5"/>
<text text-anchor="middle" x="668" y="-133.5" font-family="FreeSans" font-size="10.00">iosfwd</text>
</a>
</g>
</g>
<!-- Node27&#45;&gt;Node28 -->
<g id="edge30_Node000027_Node000028" class="edge">
<title>Node27&#45;&gt;Node28</title>
<g id="a_edge30_Node000027_Node000028"><a xlink:title=" ">
<path fill="none" stroke="#63b8ff" d="M750.19,-192.37C734.61,-181.87 708.07,-164 689.38,-151.4"/>
<polygon fill="#63b8ff" stroke="#63b8ff" points="691.16,-148.38 680.91,-145.7 687.25,-154.19 691.16,-148.38"/>
</a>
</g>
</g>
<!-- Node29 -->
<g id="Node000029" class="node">
<title>Node29</title>
<g id="a_Node000029"><a xlink:href="scope.html" target="_top" xlink:title=" ">
<polygon fill="white" stroke="#666666" points="816,-151 710,-151 710,-121 816,-121 816,-151"/>
<text text-anchor="start" x="718" y="-139" font-family="FreeSans" font-size="10.00">mpqc/util/external</text>
<text text-anchor="middle" x="763" y="-128" font-family="FreeSans" font-size="10.00">/c++/scope</text>
</a>
</g>
</g>
<!-- Node27&#45;&gt;Node29 -->
<g id="edge33_Node000027_Node000029" class="edge">
<title>Node27&#45;&gt;Node29</title>
<g id="a_edge33_Node000027_Node000029"><a xlink:title=" ">
<path fill="none" stroke="#63b8ff" d="M763,-192.37C763,-184.49 763,-172.45 763,-161.6"/>
<polygon fill="#63b8ff" stroke="#63b8ff" points="766.5,-161.36 763,-151.36 759.5,-161.36 766.5,-161.36"/>
</a>
</g>
</g>
<!-- Node29&#45;&gt;Node17 -->
<g id="edge34_Node000029_Node000017" class="edge">
<title>Node29&#45;&gt;Node17</title>
<g id="a_edge34_Node000029_Node000017"><a xlink:title=" ">
<path fill="none" stroke="#63b8ff" d="M719.33,-120.95C683.66,-109.48 633.84,-93.46 600.33,-82.68"/>
<polygon fill="#63b8ff" stroke="#63b8ff" points="601.07,-79.25 590.48,-79.52 598.93,-85.91 601.07,-79.25"/>
</a>
</g>
</g>
<!-- Node30 -->
<g id="Node000030" class="node">
<title>Node30</title>
<g id="a_Node000030"><a xlink:title=" ">
<polygon fill="#e0e0e0" stroke="#999999" points="785.5,-79.5 740.5,-79.5 740.5,-60.5 785.5,-60.5 785.5,-79.5"/>
<text text-anchor="middle" x="763" y="-67.5" font-family="FreeSans" font-size="10.00">utility</text>
</a>
</g>
</g>
<!-- Node29&#45;&gt;Node30 -->
<g id="edge35_Node000029_Node000030" class="edge">
<title>Node29&#45;&gt;Node30</title>
<g id="a_edge35_Node000029_Node000030"><a xlink:title=" ">
<path fill="none" stroke="#63b8ff" d="M763,-120.8C763,-111.7 763,-99.79 763,-89.9"/>
<polygon fill="#63b8ff" stroke="#63b8ff" points="766.5,-89.84 763,-79.84 759.5,-89.84 766.5,-89.84"/>
</a>
</g>
</g>
<!-- Node35 -->
<g id="Node000035" class="node">
<title>Node35</title>
<g id="a_Node000035"><a xlink:href="get__type_8h.html" target="_top" xlink:title=" ">
<polygon fill="white" stroke="#666666" points="186,-217 76,-217 76,-187 186,-187 186,-217"/>
<text text-anchor="start" x="84" y="-205" font-family="FreeSans" font-size="10.00">mpqc/util/meta/get</text>
<text text-anchor="middle" x="131" y="-194" font-family="FreeSans" font-size="10.00">_type.h</text>
</a>
</g>
</g>
<!-- Node34&#45;&gt;Node35 -->
<g id="edge44_Node000034_Node000035" class="edge">
<title>Node34&#45;&gt;Node35</title>
<g id="a_edge44_Node000034_Node000035"><a xlink:title=" ">
<path fill="none" stroke="#63b8ff" d="M131,-258.37C131,-250.49 131,-238.45 131,-227.6"/>
<polygon fill="#63b8ff" stroke="#63b8ff" points="134.5,-227.36 131,-217.36 127.5,-227.36 134.5,-227.36"/>
</a>
</g>
</g>
<!-- Node36 -->
<g id="Node000036" class="node">
<title>Node36</title>
<g id="a_Node000036"><a xlink:href="type__traits_8h.html" target="_top" xlink:title=" ">
<polygon fill="white" stroke="#666666" points="172,-145.5 94,-145.5 94,-126.5 172,-126.5 172,-145.5"/>
<text text-anchor="middle" x="133" y="-133.5" font-family="FreeSans" font-size="10.00">type_traits.h</text>
</a>
</g>
</g>
<!-- Node35&#45;&gt;Node36 -->
<g id="edge45_Node000035_Node000036" class="edge">
<title>Node35&#45;&gt;Node36</title>
<g id="a_edge45_Node000035_Node000036"><a xlink:title=" ">
<path fill="none" stroke="#63b8ff" d="M131.44,-186.8C131.73,-177.7 132.1,-165.79 132.41,-155.9"/>
<polygon fill="#63b8ff" stroke="#63b8ff" points="135.91,-155.95 132.72,-145.84 128.91,-155.73 135.91,-155.95"/>
</a>
</g>
</g>
<!-- Node36&#45;&gt;Node4 -->
<g id="edge46_Node000036_Node000004" class="edge">
<title>Node36&#45;&gt;Node4</title>
<g id="a_edge46_Node000036_Node000004"><a xlink:title=" ">
<path fill="none" stroke="#63b8ff" d="M117.9,-126.37C99.19,-115.68 67.1,-97.35 45.01,-84.72"/>
<polygon fill="#63b8ff" stroke="#63b8ff" points="46.64,-81.62 36.22,-79.7 43.17,-87.7 46.64,-81.62"/>
</a>
</g>
</g>
<!-- Node37 -->
<g id="Node000037" class="node">
<title>Node37</title>
<g id="a_Node000037"><a xlink:title=" ">
<polygon fill="#e0e0e0" stroke="#999999" points="254,-19 204,-19 204,0 254,0 254,-19"/>
<text text-anchor="middle" x="229" y="-7" font-family="FreeSans" font-size="10.00">atomic</text>
</a>
</g>
</g>
<!-- Node36&#45;&gt;Node37 -->
<g id="edge47_Node000036_Node000037" class="edge">
<title>Node36&#45;&gt;Node37</title>
<g id="a_edge47_Node000036_Node000037"><a xlink:title=" ">
<path fill="none" stroke="#63b8ff" d="M121.9,-126.4C103.72,-111.26 71.31,-79.18 89,-55 112.78,-22.49 160.49,-13.16 193.56,-10.78"/>
<polygon fill="#63b8ff" stroke="#63b8ff" points="193.94,-14.26 203.74,-10.23 193.56,-7.27 193.94,-14.26"/>
</a>
</g>
</g>
<!-- Node38 -->
<g id="Node000038" class="node">
<title>Node38</title>
<g id="a_Node000038"><a xlink:title=" ">
<polygon fill="#e0e0e0" stroke="#999999" points="167.5,-79.5 98.5,-79.5 98.5,-60.5 167.5,-60.5 167.5,-79.5"/>
<text text-anchor="middle" x="133" y="-67.5" font-family="FreeSans" font-size="10.00">type_traits</text>
</a>
</g>
</g>
<!-- Node36&#45;&gt;Node38 -->
<g id="edge48_Node000036_Node000038" class="edge">
<title>Node36&#45;&gt;Node38</title>
<g id="a_edge48_Node000036_Node000038"><a xlink:title=" ">
<path fill="none" stroke="#63b8ff" d="M133,-126.37C133,-117.16 133,-102.29 133,-90.27"/>
<polygon fill="#63b8ff" stroke="#63b8ff" points="136.5,-89.91 133,-79.91 129.5,-89.91 136.5,-89.91"/>
</a>
</g>
</g>
<!-- Node39 -->
<g id="Node000039" class="node">
<title>Node39</title>
<g id="a_Node000039"><a xlink:href="atomic_8h.html" target="_top" xlink:title=" ">
<polygon fill="white" stroke="#666666" points="442,-85 336,-85 336,-55 442,-55 442,-85"/>
<text text-anchor="start" x="344" y="-73" font-family="FreeSans" font-size="10.00">mpqc/util/external</text>
<text text-anchor="middle" x="389" y="-62" font-family="FreeSans" font-size="10.00">/c++/atomic.h</text>
</a>
</g>
</g>
<!-- Node36&#45;&gt;Node39 -->
<g id="edge49_Node000036_Node000039" class="edge">
<title>Node36&#45;&gt;Node39</title>
<g id="a_edge49_Node000036_Node000039"><a xlink:title=" ">
<path fill="none" stroke="#63b8ff" d="M167.26,-126.44C207.75,-116.31 275.94,-99.26 326.04,-86.74"/>
<polygon fill="#63b8ff" stroke="#63b8ff" points="326.95,-90.12 335.8,-84.3 325.25,-83.33 326.95,-90.12"/>
</a>
</g>
</g>
<!-- Node40 -->
<g id="Node000040" class="node">
<title>Node40</title>
<g id="a_Node000040"><a xlink:href="sfinae_8h.html" target="_top" xlink:title=" ">
<polygon fill="white" stroke="#666666" points="318,-79.5 186,-79.5 186,-60.5 318,-60.5 318,-79.5"/>
<text text-anchor="middle" x="252" y="-67.5" font-family="FreeSans" font-size="10.00">mpqc/util/meta/sfinae.h</text>
</a>
</g>
</g>
<!-- Node36&#45;&gt;Node40 -->
<g id="edge51_Node000036_Node000040" class="edge">
<title>Node36&#45;&gt;Node40</title>
<g id="a_edge51_Node000036_Node000040"><a xlink:title=" ">
<path fill="none" stroke="#63b8ff" d="M144.26,-126.37C162.08,-115.54 196.56,-96.85 221.84,-84.22"/>
<polygon fill="#63b8ff" stroke="#63b8ff" points="223.59,-87.25 231.02,-79.7 220.5,-80.97 223.59,-87.25"/>
</a>
</g>
</g>
<!-- Node39&#45;&gt;Node37 -->
<g id="edge50_Node000039_Node000037" class="edge">
<title>Node39&#45;&gt;Node37</title>
<g id="a_edge50_Node000039_Node000037"><a xlink:title=" ">
<path fill="none" stroke="#63b8ff" d="M350.68,-54.99C323.74,-45.14 288.07,-32.1 262.31,-22.68"/>
<polygon fill="#63b8ff" stroke="#63b8ff" points="263.22,-19.29 252.63,-19.14 260.82,-25.86 263.22,-19.29"/>
</a>
</g>
</g>
<!-- Node40&#45;&gt;Node36 -->
<g id="edge52_Node000040_Node000036" class="edge">
<title>Node40&#45;&gt;Node36</title>
<g id="a_edge52_Node000040_Node000036"><a xlink:title=" ">
<path fill="none" stroke="#63b8ff" d="M240.63,-79.7C222.73,-90.56 188.24,-109.25 163,-121.86"/>
<polygon fill="#63b8ff" stroke="#63b8ff" points="161.27,-118.82 153.84,-126.37 164.36,-125.1 161.27,-118.82"/>
</a>
</g>
</g>
<!-- Node42 -->
<g id="Node000042" class="node">
<title>Node42</title>
<g id="a_Node000042"><a xlink:title=" ">
<polygon fill="#e0e0e0" stroke="#999999" points="2257,-217 2141,-217 2141,-187 2257,-187 2257,-217"/>
<text text-anchor="start" x="2149" y="-205" font-family="FreeSans" font-size="10.00">madness/world/type</text>
<text text-anchor="middle" x="2199" y="-194" font-family="FreeSans" font-size="10.00">_traits.h</text>
</a>
</g>
</g>
<!-- Node41&#45;&gt;Node42 -->
<g id="edge54_Node000041_Node000042" class="edge">
<title>Node41&#45;&gt;Node42</title>
<g id="a_edge54_Node000041_Node000042"><a xlink:title=" ">
<path fill="none" stroke="#63b8ff" d="M2199,-258.37C2199,-250.49 2199,-238.45 2199,-227.6"/>
<polygon fill="#63b8ff" stroke="#63b8ff" points="2202.5,-227.36 2199,-217.36 2195.5,-227.36 2202.5,-227.36"/>
</a>
</g>
</g>
</g>
</svg>
