<?xml version="1.0" encoding="UTF-8" standalone="no"?>
<!DOCTYPE svg PUBLIC "-//W3C//DTD SVG 1.1//EN"
 "http://www.w3.org/Graphics/SVG/1.1/DTD/svg11.dtd">
<!-- Generated by graphviz version 2.43.0 (0)
 -->
<!-- Title: mpqc/util/core/formio.cpp Pages: 1 -->
<!--zoomable 269 -->

<svg id="main" version="1.1" xmlns="http://www.w3.org/2000/svg" xmlns:xlink="http://www.w3.org/1999/xlink" xml:space="preserve" onload="init(evt)">
<style type="text/css"><![CDATA[
.node, .edge {opacity: 0.7;}
.node.selected, .edge.selected {opacity: 1;}
.edge:hover path { stroke: red; }
.edge:hover polygon { stroke: red; fill: red; }
]]></style>

<defs>
  <circle id="rim" cx="0" cy="0" r="7"/>
  <circle id="rim2" cx="0" cy="0" r="3.5"/>
  <g id="zoomPlus">
    <use xlink:href="#rim" fill="#404040"><set attributeName="fill" to="#808080" begin="zoomplus.mouseover" end="zoomplus.mouseout"/></use>
    <path d="M-4,0h8M0,-4v8" fill="none" stroke="white" stroke-width="1.5" pointer-events="none"/>
  </g>
  <g id="zoomMin">
    <use xlink:href="#rim" fill="#404040"><set attributeName="fill" to="#808080" begin="zoomminus.mouseover" end="zoomminus.mouseout"/></use>
    <path d="M-4,0h8" fill="none" stroke="white" stroke-width="1.5" pointer-events="none"/>
  </g>
  <g id="arrowUp" transform="translate(30 24)">
    <use xlink:href="#rim"/>
    <path pointer-events="none" fill="none" stroke="white" stroke-width="1.5" d="M0,-3.0v7 M-2.5,-0.5L0,-3.0L2.5,-0.5"/>
  </g>
  <g id="arrowRight" transform="rotate(90) translate(36 -43)">
    <use xlink:href="#rim"/>
    <path pointer-events="none" fill="none" stroke="white" stroke-width="1.5" d="M0,-3.0v7 M-2.5,-0.5L0,-3.0L2.5,-0.5"/>
  </g>
  <g id="arrowDown" transform="rotate(180) translate(-30 -48)">
    <use xlink:href="#rim"/>
    <path pointer-events="none" fill="none" stroke="white" stroke-width="1.5" d="M0,-3.0v7 M-2.5,-0.5L0,-3.0L2.5,-0.5"/>
  </g>
  <g id="arrowLeft" transform="rotate(270) translate(-36 17)">
    <use xlink:href="#rim"/>
    <path pointer-events="none" fill="none" stroke="white" stroke-width="1.5" d="M0,-3.0v7 M-2.5,-0.5L0,-3.0L2.5,-0.5"/>
  </g>
  <g id="resetDef">
    <use xlink:href="#rim2" fill="#404040"><set attributeName="fill" to="#808080" begin="reset.mouseover" end="reset.mouseout"/></use>
  </g>
</defs>
<script type="application/ecmascript">
var viewWidth = 1351;
var viewHeight = 269;
var sectionId = 'dynsection-0';
</script>
<script type="application/ecmascript" xlink:href="svg.min.js"/>
<svg id="graph" class="graph">
<g id="viewport">
<title>mpqc/util/core/formio.cpp</title>
<!-- Node1 -->
<g id="Node000001" class="node">
<title>Node1</title>
<g id="a_Node000001"><a xlink:title=" ">
<polygon fill="#999999" stroke="#666666" points="1128,-261 986,-261 986,-242 1128,-242 1128,-261"/>
<text text-anchor="middle" x="1057" y="-249" font-family="FreeSans" font-size="10.00">mpqc/util/core/formio.cpp</text>
</a>
</g>
</g>
<!-- Node2 -->
<g id="Node000002" class="node">
<title>Node2</title>
<g id="a_Node000002"><a xlink:href="formio_8h.html" target="_top" xlink:title=" ">
<polygon fill="white" stroke="#666666" points="566,-145.5 508,-145.5 508,-126.5 566,-126.5 566,-145.5"/>
<text text-anchor="middle" x="537" y="-133.5" font-family="FreeSans" font-size="10.00">formio.h</text>
</a>
</g>
</g>
<!-- Node1&#45;&gt;Node2 -->
<g id="edge1_Node000001_Node000002" class="edge">
<title>Node1&#45;&gt;Node2</title>
<g id="a_edge1_Node000001_Node000002"><a xlink:title=" ">
<path fill="none" stroke="#63b8ff" d="M985.96,-248.58C910.32,-245.02 787.72,-234.87 686,-206 639.43,-192.78 589.09,-166.74 560.46,-150.7"/>
<polygon fill="#63b8ff" stroke="#63b8ff" points="562.05,-147.58 551.62,-145.68 558.59,-153.67 562.05,-147.58"/>
</a>
</g>
</g>
<!-- Node9 -->
<g id="Node000009" class="node">
<title>Node9</title>
<g id="a_Node000009"><a xlink:href="exception_8h.html" target="_top" xlink:title=" ">
<polygon fill="white" stroke="#666666" points="386,-206 312,-206 312,-187 386,-187 386,-206"/>
<text text-anchor="middle" x="349" y="-194" font-family="FreeSans" font-size="10.00">exception.h</text>
</a>
</g>
</g>
<!-- Node1&#45;&gt;Node9 -->
<g id="edge9_Node000001_Node000009" class="edge">
<title>Node1&#45;&gt;Node9</title>
<g id="a_edge9_Node000001_Node000009"><a xlink:title=" ">
<path fill="none" stroke="#63b8ff" d="M985.87,-245.18C841.57,-234.37 517.83,-210.14 396.3,-201.04"/>
<polygon fill="#63b8ff" stroke="#63b8ff" points="396.43,-197.54 386.2,-200.28 395.91,-204.52 396.43,-197.54"/>
</a>
</g>
</g>
<!-- Node16 -->
<g id="Node000016" class="node">
<title>Node16</title>
<g id="a_Node000016"><a xlink:href="exenv_8h.html" target="_top" xlink:title=" ">
<polygon fill="white" stroke="#666666" points="749,-206 695,-206 695,-187 749,-187 749,-206"/>
<text text-anchor="middle" x="722" y="-194" font-family="FreeSans" font-size="10.00">exenv.h</text>
</a>
</g>
</g>
<!-- Node1&#45;&gt;Node16 -->
<g id="edge18_Node000001_Node000016" class="edge">
<title>Node1&#45;&gt;Node16</title>
<g id="a_edge18_Node000001_Node000016"><a xlink:title=" ">
<path fill="none" stroke="#63b8ff" d="M1003.18,-241.98C934.78,-231.16 818.51,-212.77 759.19,-203.38"/>
<polygon fill="#63b8ff" stroke="#63b8ff" points="759.57,-199.9 749.15,-201.8 758.48,-206.81 759.57,-199.9"/>
</a>
</g>
</g>
<!-- Node19 -->
<g id="Node000019" class="node">
<title>Node19</title>
<g id="a_Node000019"><a xlink:title=" ">
<polygon fill="#e0e0e0" stroke="#999999" points="979.5,-145.5 930.5,-145.5 930.5,-126.5 979.5,-126.5 979.5,-145.5"/>
<text text-anchor="middle" x="955" y="-133.5" font-family="FreeSans" font-size="10.00">cstdlib</text>
</a>
</g>
</g>
<!-- Node1&#45;&gt;Node19 -->
<g id="edge38_Node000001_Node000019" class="edge">
<title>Node1&#45;&gt;Node19</title>
<g id="a_edge38_Node000001_Node000019"><a xlink:title=" ">
<path fill="none" stroke="#63b8ff" d="M1046.1,-241.86C1035.57,-233.29 1019.44,-219.5 1007,-206 991.82,-189.53 976.66,-168.81 966.66,-154.39"/>
<polygon fill="#63b8ff" stroke="#63b8ff" points="969.42,-152.21 960.89,-145.93 963.64,-156.16 969.42,-152.21"/>
</a>
</g>
</g>
<!-- Node23 -->
<g id="Node000023" class="node">
<title>Node23</title>
<g id="a_Node000023"><a xlink:href="formio_8impl_8h.html" target="_top" xlink:title=" ">
<polygon fill="white" stroke="#666666" points="1098.5,-206 1015.5,-206 1015.5,-187 1098.5,-187 1098.5,-206"/>
<text text-anchor="middle" x="1057" y="-194" font-family="FreeSans" font-size="10.00">formio.impl.h</text>
</a>
</g>
</g>
<!-- Node1&#45;&gt;Node23 -->
<g id="edge30_Node000001_Node000023" class="edge">
<title>Node1&#45;&gt;Node23</title>
<g id="a_edge30_Node000001_Node000023"><a xlink:title=" ">
<path fill="none" stroke="#63b8ff" d="M1057,-241.75C1057,-234.8 1057,-224.85 1057,-216.13"/>
<polygon fill="#63b8ff" stroke="#63b8ff" points="1060.5,-216.09 1057,-206.09 1053.5,-216.09 1060.5,-216.09"/>
</a>
</g>
</g>
<!-- Node24 -->
<g id="Node000024" class="node">
<title>Node24</title>
<g id="a_Node000024"><a xlink:title=" ">
<polygon fill="#e0e0e0" stroke="#999999" points="1276,-145.5 1226,-145.5 1226,-126.5 1276,-126.5 1276,-145.5"/>
<text text-anchor="middle" x="1251" y="-133.5" font-family="FreeSans" font-size="10.00">cstring</text>
</a>
</g>
</g>
<!-- Node1&#45;&gt;Node24 -->
<g id="edge39_Node000001_Node000024" class="edge">
<title>Node1&#45;&gt;Node24</title>
<g id="a_edge39_Node000001_Node000024"><a xlink:title=" ">
<path fill="none" stroke="#63b8ff" d="M1067.96,-241.86C1084.52,-229.02 1117.16,-204.54 1147,-187 1171.16,-172.8 1199.96,-159.2 1221.12,-149.77"/>
<polygon fill="#63b8ff" stroke="#63b8ff" points="1222.81,-152.85 1230.55,-145.62 1219.99,-146.45 1222.81,-152.85"/>
</a>
</g>
</g>
<!-- Node26 -->
<g id="Node000026" class="node">
<title>Node26</title>
<g id="a_Node000026"><a xlink:title=" ">
<polygon fill="#e0e0e0" stroke="#999999" points="1208.5,-206 1155.5,-206 1155.5,-187 1208.5,-187 1208.5,-206"/>
<text text-anchor="middle" x="1182" y="-194" font-family="FreeSans" font-size="10.00">cstdarg</text>
</a>
</g>
</g>
<!-- Node1&#45;&gt;Node26 -->
<g id="edge36_Node000001_Node000026" class="edge">
<title>Node1&#45;&gt;Node26</title>
<g id="a_edge36_Node000001_Node000026"><a xlink:title=" ">
<path fill="none" stroke="#63b8ff" d="M1077.08,-241.98C1097.37,-233.38 1128.96,-219.99 1152.17,-210.15"/>
<polygon fill="#63b8ff" stroke="#63b8ff" points="1153.71,-213.3 1161.55,-206.17 1150.98,-206.85 1153.71,-213.3"/>
</a>
</g>
</g>
<!-- Node27 -->
<g id="Node000027" class="node">
<title>Node27</title>
<g id="a_Node000027"><a xlink:title=" ">
<polygon fill="#e0e0e0" stroke="#999999" points="1273,-206 1227,-206 1227,-187 1273,-187 1273,-206"/>
<text text-anchor="middle" x="1250" y="-194" font-family="FreeSans" font-size="10.00">cstdio</text>
</a>
</g>
</g>
<!-- Node1&#45;&gt;Node27 -->
<g id="edge37_Node000001_Node000027" class="edge">
<title>Node1&#45;&gt;Node27</title>
<g id="a_edge37_Node000001_Node000027"><a xlink:title=" ">
<path fill="none" stroke="#63b8ff" d="M1088.01,-241.98C1123.31,-232.29 1180.75,-216.52 1216.9,-206.59"/>
<polygon fill="#63b8ff" stroke="#63b8ff" points="1218.23,-209.86 1226.94,-203.83 1216.37,-203.11 1218.23,-209.86"/>
</a>
</g>
</g>
<!-- Node28 -->
<g id="Node000028" class="node">
<title>Node28</title>
<g id="a_Node000028"><a xlink:title=" ">
<polygon fill="#e0e0e0" stroke="#999999" points="1342.5,-206 1291.5,-206 1291.5,-187 1342.5,-187 1342.5,-206"/>
<text text-anchor="middle" x="1317" y="-194" font-family="FreeSans" font-size="10.00">cwchar</text>
</a>
</g>
</g>
<!-- Node1&#45;&gt;Node28 -->
<g id="edge40_Node000001_Node000028" class="edge">
<title>Node1&#45;&gt;Node28</title>
<g id="a_edge40_Node000001_Node000028"><a xlink:title=" ">
<path fill="none" stroke="#63b8ff" d="M1103.23,-241.96C1146.66,-233.8 1213.71,-220.86 1281.42,-206.05"/>
<polygon fill="#63b8ff" stroke="#63b8ff" points="1282.4,-209.41 1291.42,-203.85 1280.9,-202.58 1282.4,-209.41"/>
</a>
</g>
</g>
<!-- Node3 -->
<g id="Node000003" class="node">
<title>Node3</title>
<g id="a_Node000003"><a xlink:title=" ">
<polygon fill="#e0e0e0" stroke="#999999" points="572,-79.5 524,-79.5 524,-60.5 572,-60.5 572,-79.5"/>
<text text-anchor="middle" x="548" y="-67.5" font-family="FreeSans" font-size="10.00">iosfwd</text>
</a>
</g>
</g>
<!-- Node2&#45;&gt;Node3 -->
<g id="edge2_Node000002_Node000003" class="edge">
<title>Node2&#45;&gt;Node3</title>
<g id="a_edge2_Node000002_Node000003"><a xlink:title=" ">
<path fill="none" stroke="#63b8ff" d="M538.48,-126.37C540.08,-117.07 542.68,-101.98 544.75,-89.9"/>
<polygon fill="#63b8ff" stroke="#63b8ff" points="548.22,-90.35 546.47,-79.91 541.33,-89.17 548.22,-90.35"/>
</a>
</g>
</g>
<!-- Node4 -->
<g id="Node000004" class="node">
<title>Node4</title>
<g id="a_Node000004"><a xlink:title=" ">
<polygon fill="#e0e0e0" stroke="#999999" points="1068,-79.5 1030,-79.5 1030,-60.5 1068,-60.5 1068,-79.5"/>
<text text-anchor="middle" x="1049" y="-67.5" font-family="FreeSans" font-size="10.00">map</text>
</a>
</g>
</g>
<!-- Node2&#45;&gt;Node4 -->
<g id="edge3_Node000002_Node000004" class="edge">
<title>Node2&#45;&gt;Node4</title>
<g id="a_edge3_Node000002_Node000004"><a xlink:title=" ">
<path fill="none" stroke="#63b8ff" d="M557.23,-126.49C562.89,-124.4 569.11,-122.37 575,-121 660.57,-101.05 930.36,-79.79 1019.84,-73.12"/>
<polygon fill="#63b8ff" stroke="#63b8ff" points="1020.12,-76.61 1029.84,-72.38 1019.61,-69.63 1020.12,-76.61"/>
</a>
</g>
</g>
<!-- Node5 -->
<g id="Node000005" class="node">
<title>Node5</title>
<g id="a_Node000005"><a xlink:href="memory.html" target="_top" xlink:title=" ">
<polygon fill="white" stroke="#666666" points="648,-79.5 590,-79.5 590,-60.5 648,-60.5 648,-79.5"/>
<text text-anchor="middle" x="619" y="-67.5" font-family="FreeSans" font-size="10.00">memory</text>
</a>
</g>
</g>
<!-- Node2&#45;&gt;Node5 -->
<g id="edge4_Node000002_Node000005" class="edge">
<title>Node2&#45;&gt;Node5</title>
<g id="a_edge4_Node000002_Node000005"><a xlink:title=" ">
<path fill="none" stroke="#63b8ff" d="M548.06,-126.37C561.26,-116.06 583.58,-98.65 599.66,-86.09"/>
<polygon fill="#63b8ff" stroke="#63b8ff" points="602.12,-88.61 607.85,-79.7 597.82,-83.09 602.12,-88.61"/>
</a>
</g>
</g>
<!-- Node6 -->
<g id="Node000006" class="node">
<title>Node6</title>
<g id="a_Node000006"><a xlink:href="scope.html" target="_top" xlink:title=" ">
<polygon fill="white" stroke="#666666" points="506,-85 400,-85 400,-55 506,-55 506,-85"/>
<text text-anchor="start" x="408" y="-73" font-family="FreeSans" font-size="10.00">mpqc/util/external</text>
<text text-anchor="middle" x="453" y="-62" font-family="FreeSans" font-size="10.00">/c++/scope</text>
</a>
</g>
</g>
<!-- Node2&#45;&gt;Node6 -->
<g id="edge6_Node000002_Node000006" class="edge">
<title>Node2&#45;&gt;Node6</title>
<g id="a_edge6_Node000002_Node000006"><a xlink:title=" ">
<path fill="none" stroke="#63b8ff" d="M525.67,-126.37C513.96,-117.44 495.25,-103.19 479.74,-91.38"/>
<polygon fill="#63b8ff" stroke="#63b8ff" points="481.6,-88.39 471.53,-85.12 477.36,-93.96 481.6,-88.39"/>
</a>
</g>
</g>
<!-- Node5&#45;&gt;Node5 -->
<g id="edge5_Node000005_Node000005" class="edge">
<title>Node5&#45;&gt;Node5</title>
<g id="a_edge5_Node000005_Node000005"><a xlink:title=" ">
<path fill="none" stroke="#63b8ff" d="M636.35,-79.53C650.85,-83.61 666,-80.43 666,-70 666,-62.01 657.12,-58.28 646.45,-58.8"/>
<polygon fill="#63b8ff" stroke="#63b8ff" points="645.65,-55.38 636.35,-60.47 646.79,-62.29 645.65,-55.38"/>
</a>
</g>
</g>
<!-- Node7 -->
<g id="Node000007" class="node">
<title>Node7</title>
<g id="a_Node000007"><a xlink:title=" ">
<polygon fill="#e0e0e0" stroke="#999999" points="752.5,-19 635.5,-19 635.5,0 752.5,0 752.5,-19"/>
<text text-anchor="middle" x="694" y="-7" font-family="FreeSans" font-size="10.00">mpqc/mpqc_config.h</text>
</a>
</g>
</g>
<!-- Node6&#45;&gt;Node7 -->
<g id="edge7_Node000006_Node000007" class="edge">
<title>Node6&#45;&gt;Node7</title>
<g id="a_edge7_Node000006_Node000007"><a xlink:title=" ">
<path fill="none" stroke="#63b8ff" d="M506.19,-56.09C549,-45.7 608.49,-31.26 648.97,-21.43"/>
<polygon fill="#63b8ff" stroke="#63b8ff" points="649.94,-24.8 658.83,-19.04 648.29,-17.99 649.94,-24.8"/>
</a>
</g>
</g>
<!-- Node8 -->
<g id="Node000008" class="node">
<title>Node8</title>
<g id="a_Node000008"><a xlink:title=" ">
<polygon fill="#e0e0e0" stroke="#999999" points="475.5,-19 430.5,-19 430.5,0 475.5,0 475.5,-19"/>
<text text-anchor="middle" x="453" y="-7" font-family="FreeSans" font-size="10.00">utility</text>
</a>
</g>
</g>
<!-- Node6&#45;&gt;Node8 -->
<g id="edge8_Node000006_Node000008" class="edge">
<title>Node6&#45;&gt;Node8</title>
<g id="a_edge8_Node000006_Node000008"><a xlink:title=" ">
<path fill="none" stroke="#63b8ff" d="M453,-54.84C453,-47.21 453,-37.7 453,-29.45"/>
<polygon fill="#63b8ff" stroke="#63b8ff" points="456.5,-29.27 453,-19.27 449.5,-29.27 456.5,-29.27"/>
</a>
</g>
</g>
<!-- Node9&#45;&gt;Node5 -->
<g id="edge11_Node000009_Node000005" class="edge">
<title>Node9&#45;&gt;Node5</title>
<g id="a_edge11_Node000009_Node000005"><a xlink:title=" ">
<path fill="none" stroke="#63b8ff" d="M365.47,-186.87C392.91,-172.6 449.79,-143.44 499,-121 528.78,-107.42 563.33,-93.18 587.69,-83.39"/>
<polygon fill="#63b8ff" stroke="#63b8ff" points="589.15,-86.57 597.13,-79.6 586.55,-80.07 589.15,-86.57"/>
</a>
</g>
</g>
<!-- Node10 -->
<g id="Node000010" class="node">
<title>Node10</title>
<g id="a_Node000010"><a xlink:title=" ">
<polygon fill="#e0e0e0" stroke="#999999" points="375.5,-145.5 322.5,-145.5 322.5,-126.5 375.5,-126.5 375.5,-145.5"/>
<text text-anchor="middle" x="349" y="-133.5" font-family="FreeSans" font-size="10.00">string.h</text>
</a>
</g>
</g>
<!-- Node9&#45;&gt;Node10 -->
<g id="edge10_Node000009_Node000010" class="edge">
<title>Node9&#45;&gt;Node10</title>
<g id="a_edge10_Node000009_Node000010"><a xlink:title=" ">
<path fill="none" stroke="#63b8ff" d="M349,-186.87C349,-178.75 349,-166.31 349,-155.89"/>
<polygon fill="#63b8ff" stroke="#63b8ff" points="352.5,-155.67 349,-145.67 345.5,-155.67 352.5,-155.67"/>
</a>
</g>
</g>
<!-- Node11 -->
<g id="Node000011" class="node">
<title>Node11</title>
<g id="a_Node000011"><a xlink:title=" ">
<polygon fill="#e0e0e0" stroke="#999999" points="56,-145.5 0,-145.5 0,-126.5 56,-126.5 56,-145.5"/>
<text text-anchor="middle" x="28" y="-133.5" font-family="FreeSans" font-size="10.00">sstream</text>
</a>
</g>
</g>
<!-- Node9&#45;&gt;Node11 -->
<g id="edge12_Node000009_Node000011" class="edge">
<title>Node9&#45;&gt;Node11</title>
<g id="a_edge12_Node000009_Node000011"><a xlink:title=" ">
<path fill="none" stroke="#63b8ff" d="M311.73,-192.14C256.97,-186.64 151.85,-173.97 65,-151 62.7,-150.39 60.35,-149.69 58,-148.94"/>
<polygon fill="#63b8ff" stroke="#63b8ff" points="59.09,-145.61 48.5,-145.62 56.78,-152.22 59.09,-145.61"/>
</a>
</g>
</g>
<!-- Node12 -->
<g id="Node000012" class="node">
<title>Node12</title>
<g id="a_Node000012"><a xlink:title=" ">
<polygon fill="#e0e0e0" stroke="#999999" points="139.5,-145.5 74.5,-145.5 74.5,-126.5 139.5,-126.5 139.5,-145.5"/>
<text text-anchor="middle" x="107" y="-133.5" font-family="FreeSans" font-size="10.00">stdexcept</text>
</a>
</g>
</g>
<!-- Node9&#45;&gt;Node12 -->
<g id="edge13_Node000009_Node000012" class="edge">
<title>Node9&#45;&gt;Node12</title>
<g id="a_edge13_Node000009_Node000012"><a xlink:title=" ">
<path fill="none" stroke="#63b8ff" d="M311.86,-188.43C271.49,-180.46 205.22,-166.58 149,-151 146.38,-150.27 143.69,-149.48 140.98,-148.66"/>
<polygon fill="#63b8ff" stroke="#63b8ff" points="141.89,-145.27 131.3,-145.57 139.77,-151.94 141.89,-145.27"/>
</a>
</g>
</g>
<!-- Node13 -->
<g id="Node000013" class="node">
<title>Node13</title>
<g id="a_Node000013"><a xlink:title=" ">
<polygon fill="#e0e0e0" stroke="#999999" points="381.5,-79.5 334.5,-79.5 334.5,-60.5 381.5,-60.5 381.5,-79.5"/>
<text text-anchor="middle" x="358" y="-67.5" font-family="FreeSans" font-size="10.00">vector</text>
</a>
</g>
</g>
<!-- Node9&#45;&gt;Node13 -->
<g id="edge14_Node000009_Node000013" class="edge">
<title>Node9&#45;&gt;Node13</title>
<g id="a_edge14_Node000009_Node000013"><a xlink:title=" ">
<path fill="none" stroke="#63b8ff" d="M358.88,-186.75C367.39,-178.5 379.05,-165.3 384,-151 391.43,-129.54 380.24,-104.64 370.31,-88.39"/>
<polygon fill="#63b8ff" stroke="#63b8ff" points="373.17,-86.36 364.76,-79.92 367.31,-90.2 373.17,-86.36"/>
</a>
</g>
</g>
<!-- Node14 -->
<g id="Node000014" class="node">
<title>Node14</title>
<g id="a_Node000014"><a xlink:href="backtrace_8h.html" target="_top" xlink:title=" ">
<polygon fill="white" stroke="#666666" points="304,-145.5 158,-145.5 158,-126.5 304,-126.5 304,-145.5"/>
<text text-anchor="middle" x="231" y="-133.5" font-family="FreeSans" font-size="10.00">mpqc/util/core/backtrace.h</text>
</a>
</g>
</g>
<!-- Node9&#45;&gt;Node14 -->
<g id="edge15_Node000009_Node000014" class="edge">
<title>Node9&#45;&gt;Node14</title>
<g id="a_edge15_Node000009_Node000014"><a xlink:title=" ">
<path fill="none" stroke="#63b8ff" d="M331.84,-186.99C312.27,-177.29 280.03,-161.31 257.28,-150.03"/>
<polygon fill="#63b8ff" stroke="#63b8ff" points="258.69,-146.82 248.18,-145.52 255.58,-153.09 258.69,-146.82"/>
</a>
</g>
</g>
<!-- Node14&#45;&gt;Node13 -->
<g id="edge17_Node000014_Node000013" class="edge">
<title>Node14&#45;&gt;Node13</title>
<g id="a_edge17_Node000014_Node000013"><a xlink:title=" ">
<path fill="none" stroke="#63b8ff" d="M248.13,-126.37C269.62,-115.54 306.7,-96.85 331.77,-84.22"/>
<polygon fill="#63b8ff" stroke="#63b8ff" points="333.38,-87.32 340.74,-79.7 330.23,-81.07 333.38,-87.32"/>
</a>
</g>
</g>
<!-- Node15 -->
<g id="Node000015" class="node">
<title>Node15</title>
<g id="a_Node000015"><a xlink:title=" ">
<polygon fill="#e0e0e0" stroke="#999999" points="253,-79.5 209,-79.5 209,-60.5 253,-60.5 253,-79.5"/>
<text text-anchor="middle" x="231" y="-67.5" font-family="FreeSans" font-size="10.00">string</text>
</a>
</g>
</g>
<!-- Node14&#45;&gt;Node15 -->
<g id="edge16_Node000014_Node000015" class="edge">
<title>Node14&#45;&gt;Node15</title>
<g id="a_edge16_Node000014_Node000015"><a xlink:title=" ">
<path fill="none" stroke="#63b8ff" d="M231,-126.37C231,-117.16 231,-102.29 231,-90.27"/>
<polygon fill="#63b8ff" stroke="#63b8ff" points="234.5,-89.91 231,-79.91 227.5,-89.91 234.5,-89.91"/>
</a>
</g>
</g>
<!-- Node16&#45;&gt;Node2 -->
<g id="edge23_Node000016_Node000002" class="edge">
<title>Node16&#45;&gt;Node2</title>
<g id="a_edge23_Node000016_Node000002"><a xlink:title=" ">
<path fill="none" stroke="#63b8ff" d="M694.75,-187.77C665.13,-179.25 616.46,-164.9 575,-151 573.1,-150.36 571.15,-149.69 569.19,-149.01"/>
<polygon fill="#63b8ff" stroke="#63b8ff" points="570.02,-145.59 559.43,-145.51 567.66,-152.18 570.02,-145.59"/>
</a>
</g>
</g>
<!-- Node16&#45;&gt;Node5 -->
<g id="edge26_Node000016_Node000005" class="edge">
<title>Node16&#45;&gt;Node5</title>
<g id="a_edge26_Node000016_Node000005"><a xlink:title=" ">
<path fill="none" stroke="#63b8ff" d="M713.35,-186.89C704.66,-178.1 691,-163.96 680,-151 662.07,-129.88 642.94,-104.22 630.98,-87.75"/>
<polygon fill="#63b8ff" stroke="#63b8ff" points="633.82,-85.7 625.13,-79.64 628.14,-89.79 633.82,-85.7"/>
</a>
</g>
</g>
<!-- Node16&#45;&gt;Node7 -->
<g id="edge22_Node000016_Node000007" class="edge">
<title>Node16&#45;&gt;Node7</title>
<g id="a_edge22_Node000016_Node000007"><a xlink:title=" ">
<path fill="none" stroke="#63b8ff" d="M720.11,-187C718.16,-178.07 715.12,-163.59 713,-151 705.66,-107.46 699.28,-55.96 696.12,-29.03"/>
<polygon fill="#63b8ff" stroke="#63b8ff" points="699.59,-28.61 694.96,-19.08 692.64,-29.42 699.59,-28.61"/>
</a>
</g>
</g>
<!-- Node16&#45;&gt;Node13 -->
<g id="edge29_Node000016_Node000013" class="edge">
<title>Node16&#45;&gt;Node13</title>
<g id="a_edge29_Node000016_Node000013"><a xlink:title=" ">
<path fill="none" stroke="#63b8ff" d="M694.81,-192.9C652.03,-188.19 566.89,-176.28 499,-151 453.47,-134.04 405.22,-103.57 378.63,-85.53"/>
<polygon fill="#63b8ff" stroke="#63b8ff" points="380.39,-82.49 370.17,-79.71 376.42,-88.26 380.39,-82.49"/>
</a>
</g>
</g>
<!-- Node17 -->
<g id="Node000017" class="node">
<title>Node17</title>
<g id="a_Node000017"><a xlink:href="math_2external_2tiledarray_2fwd_8h.html" target="_top" xlink:title=" ">
<polygon fill="white" stroke="#666666" points="912,-151 796,-151 796,-121 912,-121 912,-151"/>
<text text-anchor="start" x="804" y="-139" font-family="FreeSans" font-size="10.00">mpqc/math/external</text>
<text text-anchor="middle" x="854" y="-128" font-family="FreeSans" font-size="10.00">/tiledarray/fwd.h</text>
</a>
</g>
</g>
<!-- Node16&#45;&gt;Node17 -->
<g id="edge19_Node000016_Node000017" class="edge">
<title>Node16&#45;&gt;Node17</title>
<g id="a_edge19_Node000016_Node000017"><a xlink:title=" ">
<path fill="none" stroke="#63b8ff" d="M741.19,-186.99C759.94,-178.68 789.07,-165.78 813.03,-155.16"/>
<polygon fill="#63b8ff" stroke="#63b8ff" points="814.54,-158.32 822.27,-151.06 811.7,-151.92 814.54,-158.32"/>
</a>
</g>
</g>
<!-- Node16&#45;&gt;Node19 -->
<g id="edge24_Node000016_Node000019" class="edge">
<title>Node16&#45;&gt;Node19</title>
<g id="a_edge24_Node000016_Node000019"><a xlink:title=" ">
<path fill="none" stroke="#63b8ff" d="M749.1,-190.96C787.76,-184.14 860.73,-169.99 921,-151 922.67,-150.47 924.38,-149.9 926.09,-149.29"/>
<polygon fill="#63b8ff" stroke="#63b8ff" points="927.7,-152.42 935.79,-145.58 925.2,-145.88 927.7,-152.42"/>
</a>
</g>
</g>
<!-- Node20 -->
<g id="Node000020" class="node">
<title>Node20</title>
<g id="a_Node000020"><a xlink:title=" ">
<polygon fill="#e0e0e0" stroke="#999999" points="1058,-145.5 998,-145.5 998,-126.5 1058,-126.5 1058,-145.5"/>
<text text-anchor="middle" x="1028" y="-133.5" font-family="FreeSans" font-size="10.00">iostream</text>
</a>
</g>
</g>
<!-- Node16&#45;&gt;Node20 -->
<g id="edge25_Node000016_Node000020" class="edge">
<title>Node16&#45;&gt;Node20</title>
<g id="a_edge25_Node000016_Node000020"><a xlink:title=" ">
<path fill="none" stroke="#63b8ff" d="M749.12,-192.52C797.6,-186.84 902.06,-173.06 988,-151 990.65,-150.32 993.37,-149.54 996.09,-148.71"/>
<polygon fill="#63b8ff" stroke="#63b8ff" points="997.37,-151.97 1005.78,-145.53 995.19,-145.32 997.37,-151.97"/>
</a>
</g>
</g>
<!-- Node21 -->
<g id="Node000021" class="node">
<title>Node21</title>
<g id="a_Node000021"><a xlink:title=" ">
<polygon fill="#e0e0e0" stroke="#999999" points="778,-145.5 722,-145.5 722,-126.5 778,-126.5 778,-145.5"/>
<text text-anchor="middle" x="750" y="-133.5" font-family="FreeSans" font-size="10.00">optional</text>
</a>
</g>
</g>
<!-- Node16&#45;&gt;Node21 -->
<g id="edge27_Node000016_Node000021" class="edge">
<title>Node16&#45;&gt;Node21</title>
<g id="a_edge27_Node000016_Node000021"><a xlink:title=" ">
<path fill="none" stroke="#63b8ff" d="M726.13,-186.87C730.14,-178.49 736.35,-165.51 741.44,-154.89"/>
<polygon fill="#63b8ff" stroke="#63b8ff" points="744.69,-156.2 745.85,-145.67 738.38,-153.18 744.69,-156.2"/>
</a>
</g>
</g>
<!-- Node22 -->
<g id="Node000022" class="node">
<title>Node22</title>
<g id="a_Node000022"><a xlink:title=" ">
<polygon fill="#e0e0e0" stroke="#999999" points="627.5,-145.5 584.5,-145.5 584.5,-126.5 627.5,-126.5 627.5,-145.5"/>
<text text-anchor="middle" x="606" y="-133.5" font-family="FreeSans" font-size="10.00">stack</text>
</a>
</g>
</g>
<!-- Node16&#45;&gt;Node22 -->
<g id="edge28_Node000016_Node000022" class="edge">
<title>Node16&#45;&gt;Node22</title>
<g id="a_edge28_Node000016_Node000022"><a xlink:title=" ">
<path fill="none" stroke="#63b8ff" d="M704.88,-186.87C685.78,-177.23 654.63,-161.53 632.4,-150.31"/>
<polygon fill="#63b8ff" stroke="#63b8ff" points="633.69,-147.05 623.19,-145.67 630.54,-153.3 633.69,-147.05"/>
</a>
</g>
</g>
<!-- Node17&#45;&gt;Node7 -->
<g id="edge20_Node000017_Node000007" class="edge">
<title>Node17&#45;&gt;Node7</title>
<g id="a_edge20_Node000017_Node000007"><a xlink:title=" ">
<path fill="none" stroke="#63b8ff" d="M854.4,-120.92C854.13,-103.24 850.95,-73.05 834,-55 815.5,-35.31 788.34,-24.29 762.85,-18.14"/>
<polygon fill="#63b8ff" stroke="#63b8ff" points="763.33,-14.67 752.82,-15.94 761.83,-21.5 763.33,-14.67"/>
</a>
</g>
</g>
<!-- Node18 -->
<g id="Node000018" class="node">
<title>Node18</title>
<g id="a_Node000018"><a xlink:title=" ">
<polygon fill="#e0e0e0" stroke="#999999" points="825.5,-79.5 730.5,-79.5 730.5,-60.5 825.5,-60.5 825.5,-79.5"/>
<text text-anchor="middle" x="778" y="-67.5" font-family="FreeSans" font-size="10.00">tiledarray_fwd.h</text>
</a>
</g>
</g>
<!-- Node17&#45;&gt;Node18 -->
<g id="edge21_Node000017_Node000018" class="edge">
<title>Node17&#45;&gt;Node18</title>
<g id="a_edge21_Node000017_Node000018"><a xlink:title=" ">
<path fill="none" stroke="#63b8ff" d="M837.13,-120.8C825.05,-110.62 808.79,-96.93 796.38,-86.48"/>
<polygon fill="#63b8ff" stroke="#63b8ff" points="798.41,-83.61 788.5,-79.84 793.9,-88.96 798.41,-83.61"/>
</a>
</g>
</g>
<!-- Node23&#45;&gt;Node4 -->
<g id="edge34_Node000023_Node000004" class="edge">
<title>Node23&#45;&gt;Node4</title>
<g id="a_edge34_Node000023_Node000004"><a xlink:title=" ">
<path fill="none" stroke="#63b8ff" d="M1094,-186.95C1126.1,-178.7 1168.95,-165.36 1179,-151 1186.64,-140.08 1186.55,-131.99 1179,-121 1156.47,-88.19 1109.17,-76.9 1078.27,-73.02"/>
<polygon fill="#63b8ff" stroke="#63b8ff" points="1078.4,-69.52 1068.09,-71.94 1077.66,-76.48 1078.4,-69.52"/>
</a>
</g>
</g>
<!-- Node23&#45;&gt;Node5 -->
<g id="edge35_Node000023_Node000005" class="edge">
<title>Node23&#45;&gt;Node5</title>
<g id="a_edge35_Node000023_Node000005"><a xlink:title=" ">
<path fill="none" stroke="#63b8ff" d="M1061.96,-186.87C1070.05,-171.53 1083.6,-139.42 1067,-121 1041.12,-92.29 759.37,-89.63 721,-85 700.34,-82.51 677.37,-79.39 658.47,-76.72"/>
<polygon fill="#63b8ff" stroke="#63b8ff" points="658.82,-73.24 648.43,-75.3 657.84,-80.17 658.82,-73.24"/>
</a>
</g>
</g>
<!-- Node23&#45;&gt;Node20 -->
<g id="edge33_Node000023_Node000020" class="edge">
<title>Node23&#45;&gt;Node20</title>
<g id="a_edge33_Node000023_Node000020"><a xlink:title=" ">
<path fill="none" stroke="#63b8ff" d="M1052.72,-186.87C1048.57,-178.49 1042.13,-165.51 1036.87,-154.89"/>
<polygon fill="#63b8ff" stroke="#63b8ff" points="1039.87,-153.07 1032.3,-145.67 1033.6,-156.18 1039.87,-153.07"/>
</a>
</g>
</g>
<!-- Node23&#45;&gt;Node24 -->
<g id="edge31_Node000023_Node000024" class="edge">
<title>Node23&#45;&gt;Node24</title>
<g id="a_edge31_Node000023_Node000024"><a xlink:title=" ">
<path fill="none" stroke="#63b8ff" d="M1088.95,-186.98C1120.41,-178.44 1169.77,-164.63 1212,-151 1214.11,-150.32 1216.29,-149.6 1218.47,-148.86"/>
<polygon fill="#63b8ff" stroke="#63b8ff" points="1219.7,-152.14 1227.99,-145.54 1217.39,-145.52 1219.7,-152.14"/>
</a>
</g>
</g>
<!-- Node25 -->
<g id="Node000025" class="node">
<title>Node25</title>
<g id="a_Node000025"><a xlink:title=" ">
<polygon fill="#e0e0e0" stroke="#999999" points="1169.5,-145.5 1114.5,-145.5 1114.5,-126.5 1169.5,-126.5 1169.5,-145.5"/>
<text text-anchor="middle" x="1142" y="-133.5" font-family="FreeSans" font-size="10.00">fstream</text>
</a>
</g>
</g>
<!-- Node23&#45;&gt;Node25 -->
<g id="edge32_Node000023_Node000025" class="edge">
<title>Node23&#45;&gt;Node25</title>
<g id="a_edge32_Node000023_Node000025"><a xlink:title=" ">
<path fill="none" stroke="#63b8ff" d="M1069.54,-186.87C1083.1,-177.54 1104.94,-162.51 1121.1,-151.38"/>
<polygon fill="#63b8ff" stroke="#63b8ff" points="1123.15,-154.22 1129.41,-145.67 1119.18,-148.45 1123.15,-154.22"/>
</a>
</g>
</g>
</g>
</svg>

<g id="navigator" transform="translate(0 0)" fill="#404254">
  <rect fill="#f2f5e9" fill-opacity="0.5" stroke="#606060" stroke-width=".5" x="0" y="0" width="60" height="60"/>
  <use id="zoomplus" xlink:href="#zoomPlus" x="17" y="9" onmousedown="handleZoom(evt,'in')"/>
  <use id="zoomminus" xlink:href="#zoomMin" x="42" y="9" onmousedown="handleZoom(evt,'out')"/>
  <use id="reset" xlink:href="#resetDef" x="30" y="36" onmousedown="handleReset()"/>
   <use id="arrowup" xlink:href="#arrowUp" x="0" y="0" onmousedown="handlePan(0,-1)"/>
  <use id="arrowright" xlink:href="#arrowRight" x="0" y="0" onmousedown="handlePan(1,0)"/>
  <use id="arrowdown" xlink:href="#arrowDown" x="0" y="0" onmousedown="handlePan(0,1)"/>
  <use id="arrowleft" xlink:href="#arrowLeft" x="0" y="0" onmousedown="handlePan(-1,0)"/>
</g>
<svg viewBox="0 0 15 15" width="100%" height="30px" preserveAspectRatio="xMaxYMin meet">
 <g id="arrow_out" transform="scale(0.3 0.3)">
  <a xlink:href="formio_8cpp__incl_org.svg" target="_base">
   <rect id="button" ry="5" rx="5" y="6" x="6" height="38" width="38"
        fill="#f2f5e9" fill-opacity="0.5" stroke="#606060" stroke-width="1.0"/>
   <path id="arrow"
     d="M 11.500037,31.436501 C 11.940474,20.09759 22.043105,11.32322 32.158766,21.979434 L 37.068811,17.246167 C 37.068811,17.246167 37.088388,32 37.088388,32 L 22.160133,31.978069 C 22.160133,31.978069 26.997745,27.140456 26.997745,27.140456 C 18.528582,18.264221 13.291696,25.230495 11.500037,31.436501 z"
     style="fill:#404040;"/>
  </a>
 </g>
</svg>

<style type='text/css'>
<![CDATA[
[data-mouse-over-selected='false'] { opacity: 0.7; }
[data-mouse-over-selected='true']  { opacity: 1.0; }
]]>
</style>
<script type="application/ecmascript"><![CDATA[
document.addEventListener('DOMContentLoaded', (event) => {
  highlightEdges();
  highlightAdjacentNodes();
});
]]></script>
</svg>
