<?xml version="1.0" encoding="UTF-8" standalone="no"?>
<!DOCTYPE svg PUBLIC "-//W3C//DTD SVG 1.1//EN"
 "http://www.w3.org/Graphics/SVG/1.1/DTD/svg11.dtd">
<!-- Generated by graphviz version 2.43.0 (0)
 -->
<!-- Title: mpqc/math/external/tiledarray/fuse_arrays.h Pages: 1 -->
<svg width="157pt" height="159pt"
 viewBox="0.00 0.00 156.50 159.00" xmlns="http://www.w3.org/2000/svg" xmlns:xlink="http://www.w3.org/1999/xlink">
<g id="graph0" class="graph" transform="scale(1 1) rotate(0) translate(4 155)">
<title>mpqc/math/external/tiledarray/fuse_arrays.h</title>
<!-- Node1 -->
<g id="Node000001" class="node">
<title>Node1</title>
<g id="a_Node000001"><a xlink:title=" ">
<polygon fill="#999999" stroke="#666666" points="136,-151 0,-151 0,-121 136,-121 136,-151"/>
<text text-anchor="start" x="8" y="-139" font-family="FreeSans" font-size="10.00">mpqc/math/external</text>
<text text-anchor="middle" x="68" y="-128" font-family="FreeSans" font-size="10.00">/tiledarray/fuse_arrays.h</text>
</a>
</g>
</g>
<!-- Node2 -->
<g id="Node000002" class="node">
<title>Node2</title>
<g id="a_Node000002"><a xlink:href="tiledarray_8h.html" target="_top" xlink:title=" ">
<polygon fill="white" stroke="#666666" points="130.5,-85 5.5,-85 5.5,-55 130.5,-55 130.5,-85"/>
<text text-anchor="start" x="13.5" y="-73" font-family="FreeSans" font-size="10.00">mpqc/math/external</text>
<text text-anchor="middle" x="68" y="-62" font-family="FreeSans" font-size="10.00">/tiledarray/tiledarray.h</text>
</a>
</g>
</g>
<!-- Node1&#45;&gt;Node2 -->
<g id="edge1_Node000001_Node000002" class="edge">
<title>Node1&#45;&gt;Node2</title>
<g id="a_edge1_Node000001_Node000002"><a xlink:title=" ">
<path fill="none" stroke="#63b8ff" d="M68,-120.8C68,-113.34 68,-103.99 68,-95.41"/>
<polygon fill="#63b8ff" stroke="#63b8ff" points="71.5,-95.16 68,-85.16 64.5,-95.16 71.5,-95.16"/>
</a>
</g>
</g>
<!-- Node2&#45;&gt;Node2 -->
<g id="edge2_Node000002_Node000002" class="edge">
<title>Node2&#45;&gt;Node2</title>
<g id="a_edge2_Node000002_Node000002"><a xlink:title=" ">
<path fill="none" stroke="#63b8ff" d="M130.78,-80.46C141.26,-78.99 148.5,-75.51 148.5,-70 148.5,-66.47 145.53,-63.77 140.64,-61.9"/>
<polygon fill="#63b8ff" stroke="#63b8ff" points="141.32,-58.47 130.78,-59.54 139.69,-65.28 141.32,-58.47"/>
</a>
</g>
</g>
<!-- Node3 -->
<g id="Node000003" class="node">
<title>Node3</title>
<g id="a_Node000003"><a xlink:title=" ">
<polygon fill="#e0e0e0" stroke="#999999" points="126.5,-19 9.5,-19 9.5,0 126.5,0 126.5,-19"/>
<text text-anchor="middle" x="68" y="-7" font-family="FreeSans" font-size="10.00">mpqc/mpqc_config.h</text>
</a>
</g>
</g>
<!-- Node2&#45;&gt;Node3 -->
<g id="edge3_Node000002_Node000003" class="edge">
<title>Node2&#45;&gt;Node3</title>
<g id="a_edge3_Node000002_Node000003"><a xlink:title=" ">
<path fill="none" stroke="#63b8ff" d="M68,-54.84C68,-47.21 68,-37.7 68,-29.45"/>
<polygon fill="#63b8ff" stroke="#63b8ff" points="71.5,-29.27 68,-19.27 64.5,-29.27 71.5,-29.27"/>
</a>
</g>
</g>
</g>
</svg>
