<?xml version="1.0" encoding="UTF-8" standalone="no"?>
<!DOCTYPE svg PUBLIC "-//W3C//DTD SVG 1.1//EN"
 "http://www.w3.org/Graphics/SVG/1.1/DTD/svg11.dtd">
<!-- Generated by graphviz version 2.43.0 (0)
 -->
<!-- Title: mpqc/util/misc/generator.h Pages: 1 -->
<svg width="1113pt" height="258pt"
 viewBox="0.00 0.00 1112.50 258.00" xmlns="http://www.w3.org/2000/svg" xmlns:xlink="http://www.w3.org/1999/xlink">
<g id="graph0" class="graph" transform="scale(1 1) rotate(0) translate(4 254)">
<title>mpqc/util/misc/generator.h</title>
<!-- Node1 -->
<g id="Node000001" class="node">
<title>Node1</title>
<g id="a_Node000001"><a xlink:title=" ">
<polygon fill="#999999" stroke="#666666" points="685,-250 538,-250 538,-231 685,-231 685,-250"/>
<text text-anchor="middle" x="611.5" y="-238" font-family="FreeSans" font-size="10.00">mpqc/util/misc/generator.h</text>
</a>
</g>
</g>
<!-- Node2 -->
<g id="Node000002" class="node">
<title>Node2</title>
<g id="a_Node000002"><a xlink:href="assert_8h.html" target="_top" xlink:title=" ">
<polygon fill="white" stroke="#666666" points="227,-189.5 96,-189.5 96,-170.5 227,-170.5 227,-189.5"/>
<text text-anchor="middle" x="161.5" y="-177.5" font-family="FreeSans" font-size="10.00">mpqc/util/misc/assert.h</text>
</a>
</g>
</g>
<!-- Node1&#45;&gt;Node2 -->
<g id="edge1_Node000001_Node000002" class="edge">
<title>Node1&#45;&gt;Node2</title>
<g id="a_edge1_Node000001_Node000002"><a xlink:title=" ">
<path fill="none" stroke="#63b8ff" d="M537.81,-232.3C461.85,-224.52 340.1,-211.07 235.5,-195 228.39,-193.91 220.92,-192.64 213.58,-191.32"/>
<polygon fill="#63b8ff" stroke="#63b8ff" points="214.14,-187.87 203.68,-189.5 212.88,-194.75 214.14,-187.87"/>
</a>
</g>
</g>
<!-- Node13 -->
<g id="Node000013" class="node">
<title>Node13</title>
<g id="a_Node000013"><a xlink:href="nonrelocatable_8h.html" target="_top" xlink:title=" ">
<polygon fill="white" stroke="#666666" points="418,-189.5 245,-189.5 245,-170.5 418,-170.5 418,-189.5"/>
<text text-anchor="middle" x="331.5" y="-177.5" font-family="FreeSans" font-size="10.00">mpqc/util/misc/nonrelocatable.h</text>
</a>
</g>
</g>
<!-- Node1&#45;&gt;Node13 -->
<g id="edge14_Node000001_Node000013" class="edge">
<title>Node1&#45;&gt;Node13</title>
<g id="a_edge14_Node000001_Node000013"><a xlink:title=" ">
<path fill="none" stroke="#63b8ff" d="M570.79,-230.99C520.91,-220.57 436.41,-202.92 382.32,-191.62"/>
<polygon fill="#63b8ff" stroke="#63b8ff" points="382.77,-188.14 372.26,-189.52 381.34,-194.99 382.77,-188.14"/>
</a>
</g>
</g>
<!-- Node14 -->
<g id="Node000014" class="node">
<title>Node14</title>
<g id="a_Node000014"><a xlink:title=" ">
<polygon fill="#e0e0e0" stroke="#999999" points="450.5,-129 394.5,-129 394.5,-110 450.5,-110 450.5,-129"/>
<text text-anchor="middle" x="422.5" y="-117" font-family="FreeSans" font-size="10.00">optional</text>
</a>
</g>
</g>
<!-- Node1&#45;&gt;Node14 -->
<g id="edge22_Node000001_Node000014" class="edge">
<title>Node1&#45;&gt;Node14</title>
<g id="a_edge22_Node000001_Node000014"><a xlink:title=" ">
<path fill="none" stroke="#63b8ff" d="M549.64,-230.93C521.96,-224.63 490.28,-213.75 466.5,-195 448.11,-180.51 435.81,-156.05 428.99,-139.13"/>
<polygon fill="#63b8ff" stroke="#63b8ff" points="432.09,-137.41 425.3,-129.28 425.53,-139.87 432.09,-137.41"/>
</a>
</g>
</g>
<!-- Node15 -->
<g id="Node000015" class="node">
<title>Node15</title>
<g id="a_Node000015"><a xlink:href="tuple_8h.html" target="_top" xlink:title=" ">
<polygon fill="white" stroke="#666666" points="600,-189.5 475,-189.5 475,-170.5 600,-170.5 600,-189.5"/>
<text text-anchor="middle" x="537.5" y="-177.5" font-family="FreeSans" font-size="10.00">mpqc/util/misc/tuple.h</text>
</a>
</g>
</g>
<!-- Node1&#45;&gt;Node15 -->
<g id="edge16_Node000001_Node000015" class="edge">
<title>Node1&#45;&gt;Node15</title>
<g id="a_edge16_Node000001_Node000015"><a xlink:title=" ">
<path fill="none" stroke="#63b8ff" d="M600.58,-230.87C588.99,-221.71 570.47,-207.06 556.48,-196.01"/>
<polygon fill="#63b8ff" stroke="#63b8ff" points="558.48,-193.12 548.46,-189.67 554.14,-198.61 558.48,-193.12"/>
</a>
</g>
</g>
<!-- Node17 -->
<g id="Node000017" class="node">
<title>Node17</title>
<g id="a_Node000017"><a xlink:title=" ">
<polygon fill="#e0e0e0" stroke="#999999" points="755,-189.5 618,-189.5 618,-170.5 755,-170.5 755,-189.5"/>
<text text-anchor="middle" x="686.5" y="-177.5" font-family="FreeSans" font-size="10.00">TiledArray/util/function.h</text>
</a>
</g>
</g>
<!-- Node1&#45;&gt;Node17 -->
<g id="edge18_Node000001_Node000017" class="edge">
<title>Node1&#45;&gt;Node17</title>
<g id="a_edge18_Node000001_Node000017"><a xlink:title=" ">
<path fill="none" stroke="#63b8ff" d="M622.57,-230.87C634.31,-221.71 653.09,-207.06 667.26,-196.01"/>
<polygon fill="#63b8ff" stroke="#63b8ff" points="669.66,-198.58 675.39,-189.67 665.35,-193.06 669.66,-198.58"/>
</a>
</g>
</g>
<!-- Node18 -->
<g id="Node000018" class="node">
<title>Node18</title>
<g id="a_Node000018"><a xlink:title=" ">
<polygon fill="#e0e0e0" stroke="#999999" points="890,-189.5 773,-189.5 773,-170.5 890,-170.5 890,-189.5"/>
<text text-anchor="middle" x="831.5" y="-177.5" font-family="FreeSans" font-size="10.00">btas/array_adaptor.h</text>
</a>
</g>
</g>
<!-- Node1&#45;&gt;Node18 -->
<g id="edge19_Node000001_Node000018" class="edge">
<title>Node1&#45;&gt;Node18</title>
<g id="a_edge19_Node000001_Node000018"><a xlink:title=" ">
<path fill="none" stroke="#63b8ff" d="M643.49,-230.99C682.1,-220.73 747.14,-203.43 789.7,-192.12"/>
<polygon fill="#63b8ff" stroke="#63b8ff" points="790.71,-195.47 799.47,-189.52 788.91,-188.7 790.71,-195.47"/>
</a>
</g>
</g>
<!-- Node19 -->
<g id="Node000019" class="node">
<title>Node19</title>
<g id="a_Node000019"><a xlink:title=" ">
<polygon fill="#e0e0e0" stroke="#999999" points="1030.5,-195 908.5,-195 908.5,-165 1030.5,-165 1030.5,-195"/>
<text text-anchor="start" x="916.5" y="-183" font-family="FreeSans" font-size="10.00">boost/iterator/iterator</text>
<text text-anchor="middle" x="969.5" y="-172" font-family="FreeSans" font-size="10.00">_facade.hpp</text>
</a>
</g>
</g>
<!-- Node1&#45;&gt;Node19 -->
<g id="edge20_Node000001_Node000019" class="edge">
<title>Node1&#45;&gt;Node19</title>
<g id="a_edge20_Node000001_Node000019"><a xlink:title=" ">
<path fill="none" stroke="#63b8ff" d="M671.75,-230.98C727.89,-222.86 814.16,-209.93 898.45,-195.14"/>
<polygon fill="#63b8ff" stroke="#63b8ff" points="899.21,-198.56 908.45,-193.38 897.99,-191.67 899.21,-198.56"/>
</a>
</g>
</g>
<!-- Node20 -->
<g id="Node000020" class="node">
<title>Node20</title>
<g id="a_Node000020"><a xlink:title=" ">
<polygon fill="#e0e0e0" stroke="#999999" points="1104.5,-189.5 1048.5,-189.5 1048.5,-170.5 1104.5,-170.5 1104.5,-189.5"/>
<text text-anchor="middle" x="1076.5" y="-177.5" font-family="FreeSans" font-size="10.00">numeric</text>
</a>
</g>
</g>
<!-- Node1&#45;&gt;Node20 -->
<g id="edge21_Node000001_Node000020" class="edge">
<title>Node1&#45;&gt;Node20</title>
<g id="a_edge21_Node000001_Node000020"><a xlink:title=" ">
<path fill="none" stroke="#63b8ff" d="M685.16,-237.6C771.22,-234.06 917.38,-223.94 1039.5,-195 1042.01,-194.4 1044.59,-193.68 1047.15,-192.88"/>
<polygon fill="#63b8ff" stroke="#63b8ff" points="1048.53,-196.11 1056.82,-189.52 1046.23,-189.5 1048.53,-196.11"/>
</a>
</g>
</g>
<!-- Node3 -->
<g id="Node000003" class="node">
<title>Node3</title>
<g id="a_Node000003"><a xlink:title=" ">
<polygon fill="#e0e0e0" stroke="#999999" points="117,-129 0,-129 0,-110 117,-110 117,-129"/>
<text text-anchor="middle" x="58.5" y="-117" font-family="FreeSans" font-size="10.00">mpqc/mpqc_config.h</text>
</a>
</g>
</g>
<!-- Node2&#45;&gt;Node3 -->
<g id="edge2_Node000002_Node000003" class="edge">
<title>Node2&#45;&gt;Node3</title>
<g id="a_edge2_Node000002_Node000003"><a xlink:title=" ">
<path fill="none" stroke="#63b8ff" d="M146.3,-170.37C129.49,-160.82 102.18,-145.31 82.48,-134.12"/>
<polygon fill="#63b8ff" stroke="#63b8ff" points="84.18,-131.06 73.76,-129.17 80.73,-137.15 84.18,-131.06"/>
</a>
</g>
</g>
<!-- Node4 -->
<g id="Node000004" class="node">
<title>Node4</title>
<g id="a_Node000004"><a xlink:title=" ">
<polygon fill="#e0e0e0" stroke="#999999" points="187.5,-129 135.5,-129 135.5,-110 187.5,-110 187.5,-129"/>
<text text-anchor="middle" x="161.5" y="-117" font-family="FreeSans" font-size="10.00">cassert</text>
</a>
</g>
</g>
<!-- Node2&#45;&gt;Node4 -->
<g id="edge3_Node000002_Node000004" class="edge">
<title>Node2&#45;&gt;Node4</title>
<g id="a_edge3_Node000002_Node000004"><a xlink:title=" ">
<path fill="none" stroke="#63b8ff" d="M161.5,-170.37C161.5,-162.25 161.5,-149.81 161.5,-139.39"/>
<polygon fill="#63b8ff" stroke="#63b8ff" points="165,-139.17 161.5,-129.17 158,-139.17 165,-139.17"/>
</a>
</g>
</g>
<!-- Node5 -->
<g id="Node000005" class="node">
<title>Node5</title>
<g id="a_Node000005"><a xlink:href="exception_8h.html" target="_top" xlink:title=" ">
<polygon fill="white" stroke="#666666" points="351.5,-129 205.5,-129 205.5,-110 351.5,-110 351.5,-129"/>
<text text-anchor="middle" x="278.5" y="-117" font-family="FreeSans" font-size="10.00">mpqc/util/core/exception.h</text>
</a>
</g>
</g>
<!-- Node2&#45;&gt;Node5 -->
<g id="edge4_Node000002_Node000005" class="edge">
<title>Node2&#45;&gt;Node5</title>
<g id="a_edge4_Node000002_Node000005"><a xlink:title=" ">
<path fill="none" stroke="#63b8ff" d="M178.51,-170.49C197.92,-160.79 229.89,-144.81 252.44,-133.53"/>
<polygon fill="#63b8ff" stroke="#63b8ff" points="254.09,-136.62 261.47,-129.02 250.96,-130.36 254.09,-136.62"/>
</a>
</g>
</g>
<!-- Node6 -->
<g id="Node000006" class="node">
<title>Node6</title>
<g id="a_Node000006"><a xlink:title=" ">
<polygon fill="#e0e0e0" stroke="#999999" points="99,-74 46,-74 46,-55 99,-55 99,-74"/>
<text text-anchor="middle" x="72.5" y="-62" font-family="FreeSans" font-size="10.00">string.h</text>
</a>
</g>
</g>
<!-- Node5&#45;&gt;Node6 -->
<g id="edge5_Node000005_Node000006" class="edge">
<title>Node5&#45;&gt;Node6</title>
<g id="a_edge5_Node000005_Node000006"><a xlink:title=" ">
<path fill="none" stroke="#63b8ff" d="M245.4,-109.98C208.13,-100.4 147.74,-84.86 109.09,-74.91"/>
<polygon fill="#63b8ff" stroke="#63b8ff" points="109.84,-71.49 99.28,-72.39 108.09,-78.27 109.84,-71.49"/>
</a>
</g>
</g>
<!-- Node7 -->
<g id="Node000007" class="node">
<title>Node7</title>
<g id="a_Node000007"><a xlink:href="memory.html" target="_top" xlink:title=" ">
<polygon fill="white" stroke="#666666" points="175.5,-74 117.5,-74 117.5,-55 175.5,-55 175.5,-74"/>
<text text-anchor="middle" x="146.5" y="-62" font-family="FreeSans" font-size="10.00">memory</text>
</a>
</g>
</g>
<!-- Node5&#45;&gt;Node7 -->
<g id="edge6_Node000005_Node000007" class="edge">
<title>Node5&#45;&gt;Node7</title>
<g id="a_edge6_Node000005_Node000007"><a xlink:title=" ">
<path fill="none" stroke="#63b8ff" d="M257.29,-109.98C235.77,-101.34 202.22,-87.87 177.67,-78.02"/>
<polygon fill="#63b8ff" stroke="#63b8ff" points="178.68,-74.65 168.09,-74.17 176.07,-81.14 178.68,-74.65"/>
</a>
</g>
</g>
<!-- Node8 -->
<g id="Node000008" class="node">
<title>Node8</title>
<g id="a_Node000008"><a xlink:title=" ">
<polygon fill="#e0e0e0" stroke="#999999" points="267.5,-74 211.5,-74 211.5,-55 267.5,-55 267.5,-74"/>
<text text-anchor="middle" x="239.5" y="-62" font-family="FreeSans" font-size="10.00">sstream</text>
</a>
</g>
</g>
<!-- Node5&#45;&gt;Node8 -->
<g id="edge8_Node000005_Node000008" class="edge">
<title>Node5&#45;&gt;Node8</title>
<g id="a_edge8_Node000005_Node000008"><a xlink:title=" ">
<path fill="none" stroke="#63b8ff" d="M272.06,-109.75C266.61,-102.34 258.64,-91.5 251.94,-82.41"/>
<polygon fill="#63b8ff" stroke="#63b8ff" points="254.57,-80.07 245.82,-74.09 248.93,-84.22 254.57,-80.07"/>
</a>
</g>
</g>
<!-- Node9 -->
<g id="Node000009" class="node">
<title>Node9</title>
<g id="a_Node000009"><a xlink:title=" ">
<polygon fill="#e0e0e0" stroke="#999999" points="351,-74 286,-74 286,-55 351,-55 351,-74"/>
<text text-anchor="middle" x="318.5" y="-62" font-family="FreeSans" font-size="10.00">stdexcept</text>
</a>
</g>
</g>
<!-- Node5&#45;&gt;Node9 -->
<g id="edge9_Node000005_Node000009" class="edge">
<title>Node5&#45;&gt;Node9</title>
<g id="a_edge9_Node000005_Node000009"><a xlink:title=" ">
<path fill="none" stroke="#63b8ff" d="M285.11,-109.75C290.76,-102.26 299.04,-91.28 305.95,-82.13"/>
<polygon fill="#63b8ff" stroke="#63b8ff" points="308.79,-84.18 312.02,-74.09 303.2,-79.96 308.79,-84.18"/>
</a>
</g>
</g>
<!-- Node10 -->
<g id="Node000010" class="node">
<title>Node10</title>
<g id="a_Node000010"><a xlink:title=" ">
<polygon fill="#e0e0e0" stroke="#999999" points="422,-19 375,-19 375,0 422,0 422,-19"/>
<text text-anchor="middle" x="398.5" y="-7" font-family="FreeSans" font-size="10.00">vector</text>
</a>
</g>
</g>
<!-- Node5&#45;&gt;Node10 -->
<g id="edge10_Node000005_Node000010" class="edge">
<title>Node5&#45;&gt;Node10</title>
<g id="a_edge10_Node000005_Node000010"><a xlink:title=" ">
<path fill="none" stroke="#63b8ff" d="M301.12,-109.86C318.58,-102.36 342.54,-90.16 359.5,-74 373.08,-61.06 383.79,-42.4 390.53,-28.65"/>
<polygon fill="#63b8ff" stroke="#63b8ff" points="393.84,-29.82 394.88,-19.28 387.49,-26.87 393.84,-29.82"/>
</a>
</g>
</g>
<!-- Node11 -->
<g id="Node000011" class="node">
<title>Node11</title>
<g id="a_Node000011"><a xlink:href="backtrace_8h.html" target="_top" xlink:title=" ">
<polygon fill="white" stroke="#666666" points="553.5,-74 407.5,-74 407.5,-55 553.5,-55 553.5,-74"/>
<text text-anchor="middle" x="480.5" y="-62" font-family="FreeSans" font-size="10.00">mpqc/util/core/backtrace.h</text>
</a>
</g>
</g>
<!-- Node5&#45;&gt;Node11 -->
<g id="edge11_Node000005_Node000011" class="edge">
<title>Node5&#45;&gt;Node11</title>
<g id="a_edge11_Node000005_Node000011"><a xlink:title=" ">
<path fill="none" stroke="#63b8ff" d="M310.95,-109.98C345.46,-100.93 400.16,-86.58 438.06,-76.64"/>
<polygon fill="#63b8ff" stroke="#63b8ff" points="439.01,-80.01 447.79,-74.08 437.23,-73.23 439.01,-80.01"/>
</a>
</g>
</g>
<!-- Node7&#45;&gt;Node7 -->
<g id="edge7_Node000007_Node000007" class="edge">
<title>Node7&#45;&gt;Node7</title>
<g id="a_edge7_Node000007_Node000007"><a xlink:title=" ">
<path fill="none" stroke="#63b8ff" d="M168.74,-74.07C181.56,-76.02 193.5,-72.83 193.5,-64.5 193.5,-58.45 187.2,-55.11 178.84,-54.48"/>
<polygon fill="#63b8ff" stroke="#63b8ff" points="178.58,-50.99 168.74,-54.93 178.89,-57.98 178.58,-50.99"/>
</a>
</g>
</g>
<!-- Node11&#45;&gt;Node10 -->
<g id="edge13_Node000011_Node000010" class="edge">
<title>Node11&#45;&gt;Node10</title>
<g id="a_edge13_Node000011_Node000010"><a xlink:title=" ">
<path fill="none" stroke="#63b8ff" d="M467.33,-54.98C454.73,-46.84 435.5,-34.41 420.56,-24.76"/>
<polygon fill="#63b8ff" stroke="#63b8ff" points="422.21,-21.66 411.91,-19.17 418.41,-27.54 422.21,-21.66"/>
</a>
</g>
</g>
<!-- Node12 -->
<g id="Node000012" class="node">
<title>Node12</title>
<g id="a_Node000012"><a xlink:title=" ">
<polygon fill="#e0e0e0" stroke="#999999" points="502.5,-19 458.5,-19 458.5,0 502.5,0 502.5,-19"/>
<text text-anchor="middle" x="480.5" y="-7" font-family="FreeSans" font-size="10.00">string</text>
</a>
</g>
</g>
<!-- Node11&#45;&gt;Node12 -->
<g id="edge12_Node000011_Node000012" class="edge">
<title>Node11&#45;&gt;Node12</title>
<g id="a_edge12_Node000011_Node000012"><a xlink:title=" ">
<path fill="none" stroke="#63b8ff" d="M480.5,-54.75C480.5,-47.8 480.5,-37.85 480.5,-29.13"/>
<polygon fill="#63b8ff" stroke="#63b8ff" points="484,-29.09 480.5,-19.09 477,-29.09 484,-29.09"/>
</a>
</g>
</g>
<!-- Node13&#45;&gt;Node14 -->
<g id="edge15_Node000013_Node000014" class="edge">
<title>Node13&#45;&gt;Node14</title>
<g id="a_edge15_Node000013_Node000014"><a xlink:title=" ">
<path fill="none" stroke="#63b8ff" d="M344.93,-170.37C359.58,-160.95 383.26,-145.73 400.6,-134.58"/>
<polygon fill="#63b8ff" stroke="#63b8ff" points="402.5,-137.52 409.02,-129.17 398.71,-131.63 402.5,-137.52"/>
</a>
</g>
</g>
<!-- Node16 -->
<g id="Node000016" class="node">
<title>Node16</title>
<g id="a_Node000016"><a xlink:title=" ">
<polygon fill="#e0e0e0" stroke="#999999" points="558,-129 517,-129 517,-110 558,-110 558,-129"/>
<text text-anchor="middle" x="537.5" y="-117" font-family="FreeSans" font-size="10.00">tuple</text>
</a>
</g>
</g>
<!-- Node15&#45;&gt;Node16 -->
<g id="edge17_Node000015_Node000016" class="edge">
<title>Node15&#45;&gt;Node16</title>
<g id="a_edge17_Node000015_Node000016"><a xlink:title=" ">
<path fill="none" stroke="#63b8ff" d="M537.5,-170.37C537.5,-162.25 537.5,-149.81 537.5,-139.39"/>
<polygon fill="#63b8ff" stroke="#63b8ff" points="541,-139.17 537.5,-129.17 534,-139.17 541,-139.17"/>
</a>
</g>
</g>
</g>
</svg>
