<?xml version="1.0" encoding="UTF-8" standalone="no"?>
<!DOCTYPE svg PUBLIC "-//W3C//DTD SVG 1.1//EN"
 "http://www.w3.org/Graphics/SVG/1.1/DTD/svg11.dtd">
<!-- Generated by graphviz version 2.43.0 (0)
 -->
<!-- Title: mpqc/util/misc/generator.h Pages: 1 -->
<svg width="460pt" height="269pt"
 viewBox="0.00 0.00 460.00 269.00" xmlns="http://www.w3.org/2000/svg" xmlns:xlink="http://www.w3.org/1999/xlink">
<g id="graph0" class="graph" transform="scale(1 1) rotate(0) translate(4 265)">
<title>mpqc/util/misc/generator.h</title>
<!-- Node1 -->
<g id="Node000001" class="node">
<title>Node1</title>
<g id="a_Node000001"><a xlink:title=" ">
<polygon fill="#999999" stroke="#666666" points="214.5,-261 67.5,-261 67.5,-242 214.5,-242 214.5,-261"/>
<text text-anchor="middle" x="141" y="-249" font-family="FreeSans" font-size="10.00">mpqc/util/misc/generator.h</text>
</a>
</g>
</g>
<!-- Node2 -->
<g id="Node000002" class="node">
<title>Node2</title>
<g id="a_Node000002"><a xlink:href="hb_8h.html" target="_top" xlink:title=" ">
<polygon fill="white" stroke="#666666" points="120,-151 0,-151 0,-132 120,-132 120,-151"/>
<text text-anchor="middle" x="60" y="-139" font-family="FreeSans" font-size="10.00">mpqc/math/fock/hb.h</text>
</a>
</g>
</g>
<!-- Node1&#45;&gt;Node2 -->
<g id="edge1_Node000001_Node000002" class="edge">
<title>Node1&#45;&gt;Node2</title>
<g id="a_edge1_Node000001_Node000002"><a xlink:title=" ">
<path fill="none" stroke="#63b8ff" d="M128.16,-233.38C110.63,-210.01 79.85,-168.97 66.49,-151.16"/>
<polygon fill="#63b8ff" stroke="#63b8ff" points="125.57,-235.76 134.37,-241.66 131.17,-231.56 125.57,-235.76"/>
</a>
</g>
</g>
<!-- Node5 -->
<g id="Node000005" class="node">
<title>Node5</title>
<g id="a_Node000005"><a xlink:href="iter_8h.html" target="_top" xlink:title=" ">
<polygon fill="white" stroke="#666666" points="266,-206 142,-206 142,-187 266,-187 266,-206"/>
<text text-anchor="middle" x="204" y="-194" font-family="FreeSans" font-size="10.00">mpqc/math/fock/iter.h</text>
</a>
</g>
</g>
<!-- Node1&#45;&gt;Node5 -->
<g id="edge4_Node000001_Node000005" class="edge">
<title>Node1&#45;&gt;Node5</title>
<g id="a_edge4_Node000001_Node000005"><a xlink:title=" ">
<path fill="none" stroke="#63b8ff" d="M159.04,-235.32C170.27,-225.87 184.32,-214.06 193.69,-206.17"/>
<polygon fill="#63b8ff" stroke="#63b8ff" points="156.52,-232.87 151.12,-241.98 161.03,-238.23 156.52,-232.87"/>
</a>
</g>
</g>
<!-- Node3 -->
<g id="Node000003" class="node">
<title>Node3</title>
<g id="a_Node000003"><a xlink:href="sci_8ipp.html" target="_top" xlink:title=" ">
<polygon fill="white" stroke="#666666" points="288.5,-96 155.5,-96 155.5,-66 288.5,-66 288.5,-96"/>
<text text-anchor="start" x="163.5" y="-84" font-family="FreeSans" font-size="10.00">mpqc/chemistry/qc/lcao</text>
<text text-anchor="middle" x="222" y="-73" font-family="FreeSans" font-size="10.00">/ci/sci.ipp</text>
</a>
</g>
</g>
<!-- Node2&#45;&gt;Node3 -->
<g id="edge2_Node000002_Node000003" class="edge">
<title>Node2&#45;&gt;Node3</title>
<g id="a_edge2_Node000002_Node000003"><a xlink:title=" ">
<path fill="none" stroke="#63b8ff" d="M93,-128.58C119.08,-119.16 155.54,-106 183.05,-96.06"/>
<polygon fill="#63b8ff" stroke="#63b8ff" points="91.77,-125.31 83.56,-131.99 94.15,-131.89 91.77,-125.31"/>
</a>
</g>
</g>
<!-- Node4 -->
<g id="Node000004" class="node">
<title>Node4</title>
<g id="a_Node000004"><a xlink:href="sci_8cpp.html" target="_top" xlink:title=" ">
<polygon fill="white" stroke="#666666" points="288.5,-30 155.5,-30 155.5,0 288.5,0 288.5,-30"/>
<text text-anchor="start" x="163.5" y="-18" font-family="FreeSans" font-size="10.00">mpqc/chemistry/qc/lcao</text>
<text text-anchor="middle" x="222" y="-7" font-family="FreeSans" font-size="10.00">/ci/sci.cpp</text>
</a>
</g>
</g>
<!-- Node3&#45;&gt;Node4 -->
<g id="edge3_Node000003_Node000004" class="edge">
<title>Node3&#45;&gt;Node4</title>
<g id="a_edge3_Node000003_Node000004"><a xlink:title=" ">
<path fill="none" stroke="#63b8ff" d="M222,-55.54C222,-46.96 222,-37.61 222,-30.16"/>
<polygon fill="#63b8ff" stroke="#63b8ff" points="218.5,-55.8 222,-65.8 225.5,-55.8 218.5,-55.8"/>
</a>
</g>
</g>
<!-- Node5&#45;&gt;Node2 -->
<g id="edge7_Node000005_Node000002" class="edge">
<title>Node5&#45;&gt;Node2</title>
<g id="a_edge7_Node000005_Node000002"><a xlink:title=" ">
<path fill="none" stroke="#63b8ff" d="M171.18,-183.42C144.47,-173.59 107.4,-159.95 83.56,-151.17"/>
<polygon fill="#63b8ff" stroke="#63b8ff" points="170.27,-186.82 180.86,-186.98 172.69,-180.25 170.27,-186.82"/>
</a>
</g>
</g>
<!-- Node6 -->
<g id="Node000006" class="node">
<title>Node6</title>
<g id="a_Node000006"><a xlink:href="hamiltonian_8h.html" target="_top" xlink:title=" ">
<polygon fill="white" stroke="#666666" points="305.5,-151 138.5,-151 138.5,-132 305.5,-132 305.5,-151"/>
<text text-anchor="middle" x="222" y="-139" font-family="FreeSans" font-size="10.00">mpqc/math/fock/hamiltonian.h</text>
</a>
</g>
</g>
<!-- Node5&#45;&gt;Node6 -->
<g id="edge5_Node000005_Node000006" class="edge">
<title>Node5&#45;&gt;Node6</title>
<g id="a_edge5_Node000005_Node000006"><a xlink:title=" ">
<path fill="none" stroke="#63b8ff" d="M210.2,-177.24C213.21,-168.37 216.69,-158.14 219.08,-151.09"/>
<polygon fill="#63b8ff" stroke="#63b8ff" points="206.87,-176.15 206.97,-186.75 213.5,-178.4 206.87,-176.15"/>
</a>
</g>
</g>
<!-- Node7 -->
<g id="Node000007" class="node">
<title>Node7</title>
<g id="a_Node000007"><a xlink:href="math_2fock_2rdm_8h.html" target="_top" xlink:title=" ">
<polygon fill="white" stroke="#666666" points="452,-151 324,-151 324,-132 452,-132 452,-151"/>
<text text-anchor="middle" x="388" y="-139" font-family="FreeSans" font-size="10.00">mpqc/math/fock/rdm.h</text>
</a>
</g>
</g>
<!-- Node5&#45;&gt;Node7 -->
<g id="edge8_Node000005_Node000007" class="edge">
<title>Node5&#45;&gt;Node7</title>
<g id="a_edge8_Node000005_Node000007"><a xlink:title=" ">
<path fill="none" stroke="#63b8ff" d="M243.29,-184.18C277.7,-174.27 326.96,-160.08 358.21,-151.08"/>
<polygon fill="#63b8ff" stroke="#63b8ff" points="242.2,-180.85 233.56,-186.98 244.14,-187.58 242.2,-180.85"/>
</a>
</g>
</g>
<!-- Node6&#45;&gt;Node3 -->
<g id="edge6_Node000006_Node000003" class="edge">
<title>Node6&#45;&gt;Node3</title>
<g id="a_edge6_Node000006_Node000003"><a xlink:title=" ">
<path fill="none" stroke="#63b8ff" d="M222,-121.65C222,-113.36 222,-103.78 222,-96.11"/>
<polygon fill="#63b8ff" stroke="#63b8ff" points="218.5,-121.87 222,-131.87 225.5,-121.87 218.5,-121.87"/>
</a>
</g>
</g>
<!-- Node7&#45;&gt;Node3 -->
<g id="edge9_Node000007_Node000003" class="edge">
<title>Node7&#45;&gt;Node3</title>
<g id="a_edge9_Node000007_Node000003"><a xlink:title=" ">
<path fill="none" stroke="#63b8ff" d="M354.18,-128.58C327.46,-119.16 290.1,-106 261.91,-96.06"/>
<polygon fill="#63b8ff" stroke="#63b8ff" points="353.27,-131.97 363.86,-131.99 355.59,-125.37 353.27,-131.97"/>
</a>
</g>
</g>
</g>
</svg>
