<?xml version="1.0" encoding="UTF-8" standalone="no"?>
<!DOCTYPE svg PUBLIC "-//W3C//DTD SVG 1.1//EN"
 "http://www.w3.org/Graphics/SVG/1.1/DTD/svg11.dtd">
<!-- Generated by graphviz version 2.43.0 (0)
 -->
<!-- Title: mpqc/util/meta/get_type.h Pages: 1 -->
<svg width="450pt" height="214pt"
 viewBox="0.00 0.00 450.00 214.00" xmlns="http://www.w3.org/2000/svg" xmlns:xlink="http://www.w3.org/1999/xlink">
<g id="graph0" class="graph" transform="scale(1 1) rotate(0) translate(4 210)">
<title>mpqc/util/meta/get_type.h</title>
<!-- Node1 -->
<g id="Node000001" class="node">
<title>Node1</title>
<g id="a_Node000001"><a xlink:title=" ">
<polygon fill="#999999" stroke="#666666" points="241,-206 131,-206 131,-176 241,-176 241,-206"/>
<text text-anchor="start" x="139" y="-194" font-family="FreeSans" font-size="10.00">mpqc/util/meta/get</text>
<text text-anchor="middle" x="186" y="-183" font-family="FreeSans" font-size="10.00">_type.h</text>
</a>
</g>
</g>
<!-- Node2 -->
<g id="Node000002" class="node">
<title>Node2</title>
<g id="a_Node000002"><a xlink:href="type__traits_8h.html" target="_top" xlink:title=" ">
<polygon fill="white" stroke="#666666" points="225,-140 147,-140 147,-121 225,-121 225,-140"/>
<text text-anchor="middle" x="186" y="-128" font-family="FreeSans" font-size="10.00">type_traits.h</text>
</a>
</g>
</g>
<!-- Node1&#45;&gt;Node2 -->
<g id="edge1_Node000001_Node000002" class="edge">
<title>Node1&#45;&gt;Node2</title>
<g id="a_edge1_Node000001_Node000002"><a xlink:title=" ">
<path fill="none" stroke="#63b8ff" d="M186,-175.84C186,-168.21 186,-158.7 186,-150.45"/>
<polygon fill="#63b8ff" stroke="#63b8ff" points="189.5,-150.27 186,-140.27 182.5,-150.27 189.5,-150.27"/>
</a>
</g>
</g>
<!-- Node3 -->
<g id="Node000003" class="node">
<title>Node3</title>
<g id="a_Node000003"><a xlink:title=" ">
<polygon fill="#e0e0e0" stroke="#999999" points="42,-79.5 0,-79.5 0,-60.5 42,-60.5 42,-79.5"/>
<text text-anchor="middle" x="21" y="-67.5" font-family="FreeSans" font-size="10.00">array</text>
</a>
</g>
</g>
<!-- Node2&#45;&gt;Node3 -->
<g id="edge2_Node000002_Node000003" class="edge">
<title>Node2&#45;&gt;Node3</title>
<g id="a_edge2_Node000002_Node000003"><a xlink:title=" ">
<path fill="none" stroke="#63b8ff" d="M159.47,-120.86C133.1,-112.16 91.56,-98.19 56,-85 54.58,-84.47 53.13,-83.93 51.67,-83.37"/>
<polygon fill="#63b8ff" stroke="#63b8ff" points="52.62,-79.98 42.03,-79.61 50.08,-86.51 52.62,-79.98"/>
</a>
</g>
</g>
<!-- Node4 -->
<g id="Node000004" class="node">
<title>Node4</title>
<g id="a_Node000004"><a xlink:title=" ">
<polygon fill="#e0e0e0" stroke="#999999" points="179,-19 129,-19 129,0 179,0 179,-19"/>
<text text-anchor="middle" x="154" y="-7" font-family="FreeSans" font-size="10.00">atomic</text>
</a>
</g>
</g>
<!-- Node2&#45;&gt;Node4 -->
<g id="edge3_Node000002_Node000004" class="edge">
<title>Node2&#45;&gt;Node4</title>
<g id="a_edge3_Node000002_Node000004"><a xlink:title=" ">
<path fill="none" stroke="#63b8ff" d="M146.61,-122.08C125.68,-115.91 101.7,-104.81 89,-85 81.8,-73.78 82.78,-66.79 89,-55 96.24,-41.27 109.83,-30.97 122.72,-23.76"/>
<polygon fill="#63b8ff" stroke="#63b8ff" points="124.59,-26.73 131.88,-19.05 121.39,-20.51 124.59,-26.73"/>
</a>
</g>
</g>
<!-- Node5 -->
<g id="Node000005" class="node">
<title>Node5</title>
<g id="a_Node000005"><a xlink:title=" ">
<polygon fill="#e0e0e0" stroke="#999999" points="167.5,-79.5 98.5,-79.5 98.5,-60.5 167.5,-60.5 167.5,-79.5"/>
<text text-anchor="middle" x="133" y="-67.5" font-family="FreeSans" font-size="10.00">type_traits</text>
</a>
</g>
</g>
<!-- Node2&#45;&gt;Node5 -->
<g id="edge4_Node000002_Node000005" class="edge">
<title>Node2&#45;&gt;Node5</title>
<g id="a_edge4_Node000002_Node000005"><a xlink:title=" ">
<path fill="none" stroke="#63b8ff" d="M178.18,-120.87C170.19,-112.05 157.61,-98.16 147.74,-87.27"/>
<polygon fill="#63b8ff" stroke="#63b8ff" points="150.16,-84.73 140.85,-79.67 144.97,-89.43 150.16,-84.73"/>
</a>
</g>
</g>
<!-- Node6 -->
<g id="Node000006" class="node">
<title>Node6</title>
<g id="a_Node000006"><a xlink:href="atomic_8h.html" target="_top" xlink:title=" ">
<polygon fill="white" stroke="#666666" points="292,-85 186,-85 186,-55 292,-55 292,-85"/>
<text text-anchor="start" x="194" y="-73" font-family="FreeSans" font-size="10.00">mpqc/util/external</text>
<text text-anchor="middle" x="239" y="-62" font-family="FreeSans" font-size="10.00">/c++/atomic.h</text>
</a>
</g>
</g>
<!-- Node2&#45;&gt;Node6 -->
<g id="edge5_Node000002_Node000006" class="edge">
<title>Node2&#45;&gt;Node6</title>
<g id="a_edge5_Node000002_Node000006"><a xlink:title=" ">
<path fill="none" stroke="#63b8ff" d="M193.82,-120.87C200.55,-113.44 210.54,-102.42 219.41,-92.62"/>
<polygon fill="#63b8ff" stroke="#63b8ff" points="222.09,-94.88 226.21,-85.11 216.9,-90.18 222.09,-94.88"/>
</a>
</g>
</g>
<!-- Node7 -->
<g id="Node000007" class="node">
<title>Node7</title>
<g id="a_Node000007"><a xlink:href="sfinae_8h.html" target="_top" xlink:title=" ">
<polygon fill="white" stroke="#666666" points="442,-79.5 310,-79.5 310,-60.5 442,-60.5 442,-79.5"/>
<text text-anchor="middle" x="376" y="-67.5" font-family="FreeSans" font-size="10.00">mpqc/util/meta/sfinae.h</text>
</a>
</g>
</g>
<!-- Node2&#45;&gt;Node7 -->
<g id="edge7_Node000002_Node000007" class="edge">
<title>Node2&#45;&gt;Node7</title>
<g id="a_edge7_Node000002_Node000007"><a xlink:title=" ">
<path fill="none" stroke="#63b8ff" d="M208.7,-120.99C239.54,-110.81 294.86,-93.72 333.48,-82.4"/>
<polygon fill="#63b8ff" stroke="#63b8ff" points="334.78,-85.67 343.41,-79.52 332.83,-78.95 334.78,-85.67"/>
</a>
</g>
</g>
<!-- Node6&#45;&gt;Node4 -->
<g id="edge6_Node000006_Node000004" class="edge">
<title>Node6&#45;&gt;Node4</title>
<g id="a_edge6_Node000006_Node000004"><a xlink:title=" ">
<path fill="none" stroke="#63b8ff" d="M218.42,-54.84C205.33,-45.83 188.41,-34.18 175.2,-25.09"/>
<polygon fill="#63b8ff" stroke="#63b8ff" points="176.96,-22.05 166.74,-19.27 172.99,-27.82 176.96,-22.05"/>
</a>
</g>
</g>
<!-- Node7&#45;&gt;Node2 -->
<g id="edge8_Node000007_Node000002" class="edge">
<title>Node7&#45;&gt;Node2</title>
<g id="a_edge8_Node000007_Node000002"><a xlink:title=" ">
<path fill="none" stroke="#63b8ff" d="M353.27,-79.52C322.41,-89.7 267.09,-106.79 228.48,-118.11"/>
<polygon fill="#63b8ff" stroke="#63b8ff" points="227.18,-114.84 218.56,-120.99 229.14,-121.56 227.18,-114.84"/>
</a>
</g>
</g>
</g>
</svg>
