<?xml version="1.0" encoding="UTF-8" standalone="no"?>
<!DOCTYPE svg PUBLIC "-//W3C//DTD SVG 1.1//EN"
 "http://www.w3.org/Graphics/SVG/1.1/DTD/svg11.dtd">
<!-- Generated by graphviz version 2.43.0 (0)
 -->
<!-- Title: mpqc/chemistry/qc/lcao/mbpt/pno/get_matrix_from_map.h Pages: 1 -->
<svg width="1092pt" height="467pt"
 viewBox="0.00 0.00 1092.24 467.00" xmlns="http://www.w3.org/2000/svg" xmlns:xlink="http://www.w3.org/1999/xlink">
<g id="graph0" class="graph" transform="scale(1 1) rotate(0) translate(4 463)">
<title>mpqc/chemistry/qc/lcao/mbpt/pno/get_matrix_from_map.h</title>
<!-- Node1 -->
<g id="Node000001" class="node">
<title>Node1</title>
<g id="a_Node000001"><a xlink:title=" ">
<polygon fill="#999999" stroke="#666666" points="461.74,-459 274.74,-459 274.74,-429 461.74,-429 461.74,-459"/>
<text text-anchor="start" x="282.74" y="-447" font-family="FreeSans" font-size="10.00">mpqc/chemistry/qc/lcao</text>
<text text-anchor="middle" x="368.24" y="-436" font-family="FreeSans" font-size="10.00">/mbpt/pno/get_matrix_from_map.h</text>
</a>
</g>
</g>
<!-- Node2 -->
<g id="Node000002" class="node">
<title>Node2</title>
<g id="a_Node000002"><a xlink:href="types_8h.html" target="_top" xlink:title=" ">
<polygon fill="white" stroke="#666666" points="482.74,-393 349.74,-393 349.74,-363 482.74,-363 482.74,-393"/>
<text text-anchor="start" x="357.74" y="-381" font-family="FreeSans" font-size="10.00">mpqc/chemistry/qc/lcao</text>
<text text-anchor="middle" x="416.24" y="-370" font-family="FreeSans" font-size="10.00">/mbpt/pno/types.h</text>
</a>
</g>
</g>
<!-- Node1&#45;&gt;Node2 -->
<g id="edge1_Node000001_Node000002" class="edge">
<title>Node1&#45;&gt;Node2</title>
<g id="a_edge1_Node000001_Node000002"><a xlink:title=" ">
<path fill="none" stroke="#63b8ff" d="M378.89,-428.8C384.92,-420.76 392.59,-410.53 399.42,-401.43"/>
<polygon fill="#63b8ff" stroke="#63b8ff" points="402.41,-403.26 405.61,-393.16 396.81,-399.06 402.41,-403.26"/>
</a>
</g>
</g>
<!-- Node3 -->
<g id="Node000003" class="node">
<title>Node3</title>
<g id="a_Node000003"><a xlink:href="eigen_8h.html" target="_top" xlink:title=" ">
<polygon fill="white" stroke="#666666" points="379.24,-327 263.24,-327 263.24,-297 379.24,-297 379.24,-327"/>
<text text-anchor="start" x="271.24" y="-315" font-family="FreeSans" font-size="10.00">mpqc/math/external</text>
<text text-anchor="middle" x="321.24" y="-304" font-family="FreeSans" font-size="10.00">/eigen/eigen.h</text>
</a>
</g>
</g>
<!-- Node1&#45;&gt;Node3 -->
<g id="edge35_Node000001_Node000003" class="edge">
<title>Node1&#45;&gt;Node3</title>
<g id="a_edge35_Node000001_Node000003"><a xlink:title=" ">
<path fill="none" stroke="#63b8ff" d="M358.79,-428.65C352.75,-418.93 345.15,-405.61 340.24,-393 333.2,-374.95 328.29,-353.56 325.22,-337.44"/>
<polygon fill="#63b8ff" stroke="#63b8ff" points="328.6,-336.46 323.39,-327.23 321.71,-337.69 328.6,-336.46"/>
</a>
</g>
</g>
<!-- Node24 -->
<g id="Node000024" class="node">
<title>Node24</title>
<g id="a_Node000024"><a xlink:href="tiledarray_8h.html" target="_top" xlink:title=" ">
<polygon fill="white" stroke="#666666" points="226.74,-321.5 155.74,-321.5 155.74,-302.5 226.74,-302.5 226.74,-321.5"/>
<text text-anchor="middle" x="191.24" y="-309.5" font-family="FreeSans" font-size="10.00">tiledarray.h</text>
</a>
</g>
</g>
<!-- Node1&#45;&gt;Node24 -->
<g id="edge36_Node000001_Node000024" class="edge">
<title>Node1&#45;&gt;Node24</title>
<g id="a_edge36_Node000001_Node000024"><a xlink:title=" ">
<path fill="none" stroke="#63b8ff" d="M348.96,-428.84C315.24,-404.07 245.87,-353.12 211.48,-327.87"/>
<polygon fill="#63b8ff" stroke="#63b8ff" points="213.28,-324.85 203.15,-321.75 209.14,-330.49 213.28,-324.85"/>
</a>
</g>
</g>
<!-- Node29 -->
<g id="Node000029" class="node">
<title>Node29</title>
<g id="a_Node000029"><a xlink:title=" ">
<polygon fill="#e0e0e0" stroke="#999999" points="565.24,-387.5 501.24,-387.5 501.24,-368.5 565.24,-368.5 565.24,-387.5"/>
<text text-anchor="middle" x="533.24" y="-375.5" font-family="FreeSans" font-size="10.00">algorithm</text>
</a>
</g>
</g>
<!-- Node1&#45;&gt;Node29 -->
<g id="edge37_Node000001_Node000029" class="edge">
<title>Node1&#45;&gt;Node29</title>
<g id="a_edge37_Node000001_Node000029"><a xlink:title=" ">
<path fill="none" stroke="#63b8ff" d="M404.45,-428.95C433.51,-417.68 473.91,-402.01 501.67,-391.25"/>
<polygon fill="#63b8ff" stroke="#63b8ff" points="503.22,-394.4 511.28,-387.52 500.69,-387.87 503.22,-394.4"/>
</a>
</g>
</g>
<!-- Node2&#45;&gt;Node3 -->
<g id="edge2_Node000002_Node000003" class="edge">
<title>Node2&#45;&gt;Node3</title>
<g id="a_edge2_Node000002_Node000003"><a xlink:title=" ">
<path fill="none" stroke="#63b8ff" d="M395.15,-362.8C382.12,-354.01 365.19,-342.61 350.82,-332.93"/>
<polygon fill="#63b8ff" stroke="#63b8ff" points="352.51,-329.85 342.26,-327.16 348.6,-335.65 352.51,-329.85"/>
</a>
</g>
</g>
<!-- Node2&#45;&gt;Node24 -->
<g id="edge27_Node000002_Node000024" class="edge">
<title>Node2&#45;&gt;Node24</title>
<g id="a_edge27_Node000002_Node000024"><a xlink:title=" ">
<path fill="none" stroke="#63b8ff" d="M366.86,-362.95C326.01,-351.34 268.74,-335.05 230.85,-324.27"/>
<polygon fill="#63b8ff" stroke="#63b8ff" points="231.76,-320.89 221.18,-321.52 229.84,-327.62 231.76,-320.89"/>
</a>
</g>
</g>
<!-- Node25 -->
<g id="Node000025" class="node">
<title>Node25</title>
<g id="a_Node000025"><a xlink:title=" ">
<polygon fill="#e0e0e0" stroke="#999999" points="680.24,-255.5 638.24,-255.5 638.24,-236.5 680.24,-236.5 680.24,-255.5"/>
<text text-anchor="middle" x="659.24" y="-243.5" font-family="FreeSans" font-size="10.00">array</text>
</a>
</g>
</g>
<!-- Node2&#45;&gt;Node25 -->
<g id="edge30_Node000002_Node000025" class="edge">
<title>Node2&#45;&gt;Node25</title>
<g id="a_edge30_Node000002_Node000025"><a xlink:title=" ">
<path fill="none" stroke="#63b8ff" d="M482.93,-363.9C546.86,-351.07 634.51,-332.65 640.24,-327 656.32,-311.13 659.78,-284.31 660.08,-266.14"/>
<polygon fill="#63b8ff" stroke="#63b8ff" points="663.57,-265.84 659.93,-255.89 656.57,-265.94 663.57,-265.84"/>
</a>
</g>
</g>
<!-- Node26 -->
<g id="Node000026" class="node">
<title>Node26</title>
<g id="a_Node000026"><a xlink:title=" ">
<polygon fill="#e0e0e0" stroke="#999999" points="630.74,-321.5 537.74,-321.5 537.74,-302.5 630.74,-302.5 630.74,-321.5"/>
<text text-anchor="middle" x="584.24" y="-309.5" font-family="FreeSans" font-size="10.00">unordered_map</text>
</a>
</g>
</g>
<!-- Node2&#45;&gt;Node26 -->
<g id="edge31_Node000002_Node000026" class="edge">
<title>Node2&#45;&gt;Node26</title>
<g id="a_edge31_Node000002_Node000026"><a xlink:title=" ">
<path fill="none" stroke="#63b8ff" d="M453.11,-362.95C482.83,-351.63 524.19,-335.88 552.47,-325.1"/>
<polygon fill="#63b8ff" stroke="#63b8ff" points="553.78,-328.35 561.88,-321.52 551.29,-321.81 553.78,-328.35"/>
</a>
</g>
</g>
<!-- Node27 -->
<g id="Node000027" class="node">
<title>Node27</title>
<g id="a_Node000027"><a xlink:href="hash_8h.html" target="_top" xlink:title=" ">
<polygon fill="white" stroke="#666666" points="519.24,-321.5 397.24,-321.5 397.24,-302.5 519.24,-302.5 519.24,-321.5"/>
<text text-anchor="middle" x="458.24" y="-309.5" font-family="FreeSans" font-size="10.00">mpqc/util/core/hash.h</text>
</a>
</g>
</g>
<!-- Node2&#45;&gt;Node27 -->
<g id="edge32_Node000002_Node000027" class="edge">
<title>Node2&#45;&gt;Node27</title>
<g id="a_edge32_Node000002_Node000027"><a xlink:title=" ">
<path fill="none" stroke="#63b8ff" d="M425.56,-362.8C431.85,-353.21 440.19,-340.5 446.87,-330.32"/>
<polygon fill="#63b8ff" stroke="#63b8ff" points="449.87,-332.13 452.43,-321.84 444.02,-328.28 449.87,-332.13"/>
</a>
</g>
</g>
<!-- Node4 -->
<g id="Node000004" class="node">
<title>Node4</title>
<g id="a_Node000004"><a xlink:title=" ">
<polygon fill="#e0e0e0" stroke="#999999" points="255.24,-255.5 153.24,-255.5 153.24,-236.5 255.24,-236.5 255.24,-255.5"/>
<text text-anchor="middle" x="204.24" y="-243.5" font-family="FreeSans" font-size="10.00">madness/config.h</text>
</a>
</g>
</g>
<!-- Node3&#45;&gt;Node4 -->
<g id="edge3_Node000003_Node000004" class="edge">
<title>Node3&#45;&gt;Node4</title>
<g id="a_edge3_Node000003_Node000004"><a xlink:title=" ">
<path fill="none" stroke="#63b8ff" d="M295.56,-296.95C275.68,-286.08 248.31,-271.11 228.73,-260.4"/>
<polygon fill="#63b8ff" stroke="#63b8ff" points="230.26,-257.25 219.81,-255.52 226.9,-263.39 230.26,-257.25"/>
</a>
</g>
</g>
<!-- Node5 -->
<g id="Node000005" class="node">
<title>Node5</title>
<g id="a_Node000005"><a xlink:href="complex_8h.html" target="_top" xlink:title=" ">
<polygon fill="white" stroke="#666666" points="557.24,-255.5 407.24,-255.5 407.24,-236.5 557.24,-236.5 557.24,-255.5"/>
<text text-anchor="middle" x="482.24" y="-243.5" font-family="FreeSans" font-size="10.00">mpqc/math/core/complex.h</text>
</a>
</g>
</g>
<!-- Node3&#45;&gt;Node5 -->
<g id="edge4_Node000003_Node000005" class="edge">
<title>Node3&#45;&gt;Node5</title>
<g id="a_edge4_Node000003_Node000005"><a xlink:title=" ">
<path fill="none" stroke="#63b8ff" d="M356.57,-296.95C384.93,-285.68 424.35,-270.01 451.43,-259.25"/>
<polygon fill="#63b8ff" stroke="#63b8ff" points="452.81,-262.46 460.81,-255.52 450.23,-255.96 452.81,-262.46"/>
</a>
</g>
</g>
<!-- Node7 -->
<g id="Node000007" class="node">
<title>Node7</title>
<g id="a_Node000007"><a xlink:title=" ">
<polygon fill="#e0e0e0" stroke="#999999" points="228.74,-129 111.74,-129 111.74,-110 228.74,-110 228.74,-129"/>
<text text-anchor="middle" x="170.24" y="-117" font-family="FreeSans" font-size="10.00">mpqc/mpqc_config.h</text>
</a>
</g>
</g>
<!-- Node3&#45;&gt;Node7 -->
<g id="edge23_Node000003_Node000007" class="edge">
<title>Node3&#45;&gt;Node7</title>
<g id="a_edge23_Node000003_Node000007"><a xlink:title=" ">
<path fill="none" stroke="#63b8ff" d="M311.71,-296.86C300.67,-280.66 281.74,-253.46 264.24,-231 237.31,-196.45 203.59,-157.85 184.73,-136.64"/>
<polygon fill="#63b8ff" stroke="#63b8ff" points="187.33,-134.29 178.06,-129.17 182.11,-138.96 187.33,-134.29"/>
</a>
</g>
</g>
<!-- Node22 -->
<g id="Node000022" class="node">
<title>Node22</title>
<g id="a_Node000022"><a xlink:href="math_2external_2eigen_2fwd_8h.html" target="_top" xlink:title=" ">
<polygon fill="white" stroke="#666666" points="135.24,-261 19.24,-261 19.24,-231 135.24,-231 135.24,-261"/>
<text text-anchor="start" x="27.24" y="-249" font-family="FreeSans" font-size="10.00">mpqc/math/external</text>
<text text-anchor="middle" x="77.24" y="-238" font-family="FreeSans" font-size="10.00">/eigen/fwd.h</text>
</a>
</g>
</g>
<!-- Node3&#45;&gt;Node22 -->
<g id="edge24_Node000003_Node000022" class="edge">
<title>Node3&#45;&gt;Node22</title>
<g id="a_edge24_Node000003_Node000022"><a xlink:title=" ">
<path fill="none" stroke="#63b8ff" d="M267.69,-296.95C230.19,-287.12 179.92,-273.93 140.45,-263.58"/>
<polygon fill="#63b8ff" stroke="#63b8ff" points="141.22,-260.16 130.66,-261.01 139.44,-266.93 141.22,-260.16"/>
</a>
</g>
</g>
<!-- Node23 -->
<g id="Node000023" class="node">
<title>Node23</title>
<g id="a_Node000023"><a xlink:title=" ">
<polygon fill="#e0e0e0" stroke="#999999" points="388.74,-255.5 311.74,-255.5 311.74,-236.5 388.74,-236.5 388.74,-255.5"/>
<text text-anchor="middle" x="350.24" y="-243.5" font-family="FreeSans" font-size="10.00">Eigen/Dense</text>
</a>
</g>
</g>
<!-- Node3&#45;&gt;Node23 -->
<g id="edge26_Node000003_Node000023" class="edge">
<title>Node3&#45;&gt;Node23</title>
<g id="a_edge26_Node000003_Node000023"><a xlink:title=" ">
<path fill="none" stroke="#63b8ff" d="M327.67,-296.8C331.88,-287.5 337.43,-275.27 341.96,-265.26"/>
<polygon fill="#63b8ff" stroke="#63b8ff" points="345.29,-266.4 346.23,-255.84 338.92,-263.51 345.29,-266.4"/>
</a>
</g>
</g>
<!-- Node6 -->
<g id="Node000006" class="node">
<title>Node6</title>
<g id="a_Node000006"><a xlink:href="assert_8h.html" target="_top" xlink:title=" ">
<polygon fill="white" stroke="#666666" points="934.74,-189.5 803.74,-189.5 803.74,-170.5 934.74,-170.5 934.74,-189.5"/>
<text text-anchor="middle" x="869.24" y="-177.5" font-family="FreeSans" font-size="10.00">mpqc/util/misc/assert.h</text>
</a>
</g>
</g>
<!-- Node5&#45;&gt;Node6 -->
<g id="edge5_Node000005_Node000006" class="edge">
<title>Node5&#45;&gt;Node6</title>
<g id="a_edge5_Node000005_Node000006"><a xlink:title=" ">
<path fill="none" stroke="#63b8ff" d="M532.86,-236.49C543.86,-234.66 555.44,-232.75 566.24,-231 667.5,-214.57 693.14,-212.41 794.24,-195 800.82,-193.87 807.71,-192.64 814.54,-191.39"/>
<polygon fill="#63b8ff" stroke="#63b8ff" points="815.26,-194.82 824.46,-189.57 813.99,-187.94 815.26,-194.82"/>
</a>
</g>
</g>
<!-- Node17 -->
<g id="Node000017" class="node">
<title>Node17</title>
<g id="a_Node000017"><a xlink:title=" ">
<polygon fill="#e0e0e0" stroke="#999999" points="644.74,-189.5 575.74,-189.5 575.74,-170.5 644.74,-170.5 644.74,-189.5"/>
<text text-anchor="middle" x="610.24" y="-177.5" font-family="FreeSans" font-size="10.00">Eigen/Core</text>
</a>
</g>
</g>
<!-- Node5&#45;&gt;Node17 -->
<g id="edge18_Node000005_Node000017" class="edge">
<title>Node5&#45;&gt;Node17</title>
<g id="a_edge18_Node000005_Node000017"><a xlink:title=" ">
<path fill="none" stroke="#63b8ff" d="M499.5,-236.37C521.16,-225.54 558.53,-206.85 583.8,-194.22"/>
<polygon fill="#63b8ff" stroke="#63b8ff" points="585.46,-197.3 592.84,-189.7 582.33,-191.04 585.46,-197.3"/>
</a>
</g>
</g>
<!-- Node18 -->
<g id="Node000018" class="node">
<title>Node18</title>
<g id="a_Node000018"><a xlink:title=" ">
<polygon fill="#e0e0e0" stroke="#999999" points="785.24,-195 663.24,-195 663.24,-165 785.24,-165 785.24,-195"/>
<text text-anchor="start" x="671.24" y="-183" font-family="FreeSans" font-size="10.00">boost/container/small</text>
<text text-anchor="middle" x="724.24" y="-172" font-family="FreeSans" font-size="10.00">_vector.hpp</text>
</a>
</g>
</g>
<!-- Node5&#45;&gt;Node18 -->
<g id="edge19_Node000005_Node000018" class="edge">
<title>Node5&#45;&gt;Node18</title>
<g id="a_edge19_Node000005_Node000018"><a xlink:title=" ">
<path fill="none" stroke="#63b8ff" d="M514.62,-236.44C552.02,-226.55 614.41,-210.05 661.42,-197.61"/>
<polygon fill="#63b8ff" stroke="#63b8ff" points="662.43,-200.97 671.21,-195.02 660.64,-194.2 662.43,-200.97"/>
</a>
</g>
</g>
<!-- Node19 -->
<g id="Node000019" class="node">
<title>Node19</title>
<g id="a_Node000019"><a xlink:title=" ">
<polygon fill="#e0e0e0" stroke="#999999" points="393.74,-195 250.74,-195 250.74,-165 393.74,-165 393.74,-195"/>
<text text-anchor="start" x="258.74" y="-183" font-family="FreeSans" font-size="10.00">boost/numeric/conversion</text>
<text text-anchor="middle" x="322.24" y="-172" font-family="FreeSans" font-size="10.00">/cast.hpp</text>
</a>
</g>
</g>
<!-- Node5&#45;&gt;Node19 -->
<g id="edge20_Node000005_Node000019" class="edge">
<title>Node5&#45;&gt;Node19</title>
<g id="a_edge20_Node000005_Node000019"><a xlink:title=" ">
<path fill="none" stroke="#63b8ff" d="M460.66,-236.37C436.8,-226.82 397.69,-211.18 367.12,-198.95"/>
<polygon fill="#63b8ff" stroke="#63b8ff" points="368.11,-195.58 357.53,-195.12 365.51,-202.08 368.11,-195.58"/>
</a>
</g>
</g>
<!-- Node20 -->
<g id="Node000020" class="node">
<title>Node20</title>
<g id="a_Node000020"><a xlink:title=" ">
<polygon fill="#e0e0e0" stroke="#999999" points="470.74,-189.5 411.74,-189.5 411.74,-170.5 470.74,-170.5 470.74,-189.5"/>
<text text-anchor="middle" x="441.24" y="-177.5" font-family="FreeSans" font-size="10.00">complex</text>
</a>
</g>
</g>
<!-- Node5&#45;&gt;Node20 -->
<g id="edge21_Node000005_Node000020" class="edge">
<title>Node5&#45;&gt;Node20</title>
<g id="a_edge21_Node000005_Node000020"><a xlink:title=" ">
<path fill="none" stroke="#63b8ff" d="M476.71,-236.37C470.51,-226.69 460.29,-210.74 452.41,-198.44"/>
<polygon fill="#63b8ff" stroke="#63b8ff" points="455.28,-196.44 446.94,-189.91 449.39,-200.21 455.28,-196.44"/>
</a>
</g>
</g>
<!-- Node21 -->
<g id="Node000021" class="node">
<title>Node21</title>
<g id="a_Node000021"><a xlink:title=" ">
<polygon fill="#e0e0e0" stroke="#999999" points="557.74,-189.5 488.74,-189.5 488.74,-170.5 557.74,-170.5 557.74,-189.5"/>
<text text-anchor="middle" x="523.24" y="-177.5" font-family="FreeSans" font-size="10.00">type_traits</text>
</a>
</g>
</g>
<!-- Node5&#45;&gt;Node21 -->
<g id="edge22_Node000005_Node000021" class="edge">
<title>Node5&#45;&gt;Node21</title>
<g id="a_edge22_Node000005_Node000021"><a xlink:title=" ">
<path fill="none" stroke="#63b8ff" d="M487.77,-236.37C493.97,-226.69 504.19,-210.74 512.07,-198.44"/>
<polygon fill="#63b8ff" stroke="#63b8ff" points="515.09,-200.21 517.53,-189.91 509.19,-196.44 515.09,-200.21"/>
</a>
</g>
</g>
<!-- Node6&#45;&gt;Node7 -->
<g id="edge6_Node000006_Node000007" class="edge">
<title>Node6&#45;&gt;Node7</title>
<g id="a_edge6_Node000006_Node000007"><a xlink:title=" ">
<path fill="none" stroke="#63b8ff" d="M828.11,-170.45C817.14,-168.41 805.27,-166.42 794.24,-165 593.47,-139.19 354.3,-127.37 239.05,-122.86"/>
<polygon fill="#63b8ff" stroke="#63b8ff" points="239.09,-119.36 228.96,-122.47 238.82,-126.35 239.09,-119.36"/>
</a>
</g>
</g>
<!-- Node8 -->
<g id="Node000008" class="node">
<title>Node8</title>
<g id="a_Node000008"><a xlink:title=" ">
<polygon fill="#e0e0e0" stroke="#999999" points="953.24,-129 901.24,-129 901.24,-110 953.24,-110 953.24,-129"/>
<text text-anchor="middle" x="927.24" y="-117" font-family="FreeSans" font-size="10.00">cassert</text>
</a>
</g>
</g>
<!-- Node6&#45;&gt;Node8 -->
<g id="edge7_Node000006_Node000008" class="edge">
<title>Node6&#45;&gt;Node8</title>
<g id="a_edge7_Node000006_Node000008"><a xlink:title=" ">
<path fill="none" stroke="#63b8ff" d="M877.8,-170.37C886.62,-161.47 900.58,-147.39 911.42,-136.45"/>
<polygon fill="#63b8ff" stroke="#63b8ff" points="914.09,-138.73 918.64,-129.17 909.12,-133.8 914.09,-138.73"/>
</a>
</g>
</g>
<!-- Node9 -->
<g id="Node000009" class="node">
<title>Node9</title>
<g id="a_Node000009"><a xlink:href="exception_8h.html" target="_top" xlink:title=" ">
<polygon fill="white" stroke="#666666" points="883.24,-129 737.24,-129 737.24,-110 883.24,-110 883.24,-129"/>
<text text-anchor="middle" x="810.24" y="-117" font-family="FreeSans" font-size="10.00">mpqc/util/core/exception.h</text>
</a>
</g>
</g>
<!-- Node6&#45;&gt;Node9 -->
<g id="edge8_Node000006_Node000009" class="edge">
<title>Node6&#45;&gt;Node9</title>
<g id="a_edge8_Node000006_Node000009"><a xlink:title=" ">
<path fill="none" stroke="#63b8ff" d="M860.53,-170.37C851.56,-161.47 837.35,-147.39 826.33,-136.45"/>
<polygon fill="#63b8ff" stroke="#63b8ff" points="828.54,-133.72 818.98,-129.17 823.62,-138.69 828.54,-133.72"/>
</a>
</g>
</g>
<!-- Node10 -->
<g id="Node000010" class="node">
<title>Node10</title>
<g id="a_Node000010"><a xlink:title=" ">
<polygon fill="#e0e0e0" stroke="#999999" points="629.74,-74 576.74,-74 576.74,-55 629.74,-55 629.74,-74"/>
<text text-anchor="middle" x="603.24" y="-62" font-family="FreeSans" font-size="10.00">string.h</text>
</a>
</g>
</g>
<!-- Node9&#45;&gt;Node10 -->
<g id="edge9_Node000009_Node000010" class="edge">
<title>Node9&#45;&gt;Node10</title>
<g id="a_edge9_Node000009_Node000010"><a xlink:title=" ">
<path fill="none" stroke="#63b8ff" d="M776.98,-109.98C739.42,-100.37 678.5,-84.77 639.68,-74.83"/>
<polygon fill="#63b8ff" stroke="#63b8ff" points="640.39,-71.4 629.83,-72.31 638.65,-78.18 640.39,-71.4"/>
</a>
</g>
</g>
<!-- Node11 -->
<g id="Node000011" class="node">
<title>Node11</title>
<g id="a_Node000011"><a xlink:href="memory.html" target="_top" xlink:title=" ">
<polygon fill="white" stroke="#666666" points="706.24,-74 648.24,-74 648.24,-55 706.24,-55 706.24,-74"/>
<text text-anchor="middle" x="677.24" y="-62" font-family="FreeSans" font-size="10.00">memory</text>
</a>
</g>
</g>
<!-- Node9&#45;&gt;Node11 -->
<g id="edge10_Node000009_Node000011" class="edge">
<title>Node9&#45;&gt;Node11</title>
<g id="a_edge10_Node000009_Node000011"><a xlink:title=" ">
<path fill="none" stroke="#63b8ff" d="M788.87,-109.98C767.09,-101.3 733.08,-87.75 708.32,-77.88"/>
<polygon fill="#63b8ff" stroke="#63b8ff" points="709.58,-74.62 699,-74.17 706.99,-81.12 709.58,-74.62"/>
</a>
</g>
</g>
<!-- Node12 -->
<g id="Node000012" class="node">
<title>Node12</title>
<g id="a_Node000012"><a xlink:title=" ">
<polygon fill="#e0e0e0" stroke="#999999" points="798.24,-74 742.24,-74 742.24,-55 798.24,-55 798.24,-74"/>
<text text-anchor="middle" x="770.24" y="-62" font-family="FreeSans" font-size="10.00">sstream</text>
</a>
</g>
</g>
<!-- Node9&#45;&gt;Node12 -->
<g id="edge12_Node000009_Node000012" class="edge">
<title>Node9&#45;&gt;Node12</title>
<g id="a_edge12_Node000009_Node000012"><a xlink:title=" ">
<path fill="none" stroke="#63b8ff" d="M803.63,-109.75C797.98,-102.26 789.69,-91.28 782.79,-82.13"/>
<polygon fill="#63b8ff" stroke="#63b8ff" points="785.54,-79.96 776.72,-74.09 779.95,-84.18 785.54,-79.96"/>
</a>
</g>
</g>
<!-- Node13 -->
<g id="Node000013" class="node">
<title>Node13</title>
<g id="a_Node000013"><a xlink:title=" ">
<polygon fill="#e0e0e0" stroke="#999999" points="881.74,-74 816.74,-74 816.74,-55 881.74,-55 881.74,-74"/>
<text text-anchor="middle" x="849.24" y="-62" font-family="FreeSans" font-size="10.00">stdexcept</text>
</a>
</g>
</g>
<!-- Node9&#45;&gt;Node13 -->
<g id="edge13_Node000009_Node000013" class="edge">
<title>Node9&#45;&gt;Node13</title>
<g id="a_edge13_Node000009_Node000013"><a xlink:title=" ">
<path fill="none" stroke="#63b8ff" d="M816.68,-109.75C822.13,-102.34 830.1,-91.5 836.79,-82.41"/>
<polygon fill="#63b8ff" stroke="#63b8ff" points="839.81,-84.22 842.92,-74.09 834.17,-80.07 839.81,-84.22"/>
</a>
</g>
</g>
<!-- Node14 -->
<g id="Node000014" class="node">
<title>Node14</title>
<g id="a_Node000014"><a xlink:title=" ">
<polygon fill="#e0e0e0" stroke="#999999" points="952.74,-19 905.74,-19 905.74,0 952.74,0 952.74,-19"/>
<text text-anchor="middle" x="929.24" y="-7" font-family="FreeSans" font-size="10.00">vector</text>
</a>
</g>
</g>
<!-- Node9&#45;&gt;Node14 -->
<g id="edge14_Node000009_Node000014" class="edge">
<title>Node9&#45;&gt;Node14</title>
<g id="a_edge14_Node000009_Node000014"><a xlink:title=" ">
<path fill="none" stroke="#63b8ff" d="M832.91,-109.92C850.4,-102.44 874.37,-90.26 891.24,-74 904.65,-61.07 915.07,-42.41 921.57,-28.66"/>
<polygon fill="#63b8ff" stroke="#63b8ff" points="924.88,-29.84 925.77,-19.28 918.49,-26.98 924.88,-29.84"/>
</a>
</g>
</g>
<!-- Node15 -->
<g id="Node000015" class="node">
<title>Node15</title>
<g id="a_Node000015"><a xlink:href="backtrace_8h.html" target="_top" xlink:title=" ">
<polygon fill="white" stroke="#666666" points="1084.24,-74 938.24,-74 938.24,-55 1084.24,-55 1084.24,-74"/>
<text text-anchor="middle" x="1011.24" y="-62" font-family="FreeSans" font-size="10.00">mpqc/util/core/backtrace.h</text>
</a>
</g>
</g>
<!-- Node9&#45;&gt;Node15 -->
<g id="edge15_Node000009_Node000015" class="edge">
<title>Node9&#45;&gt;Node15</title>
<g id="a_edge15_Node000009_Node000015"><a xlink:title=" ">
<path fill="none" stroke="#63b8ff" d="M842.53,-109.98C876.86,-100.93 931.3,-86.58 969.01,-76.64"/>
<polygon fill="#63b8ff" stroke="#63b8ff" points="969.91,-80.02 978.69,-74.08 968.13,-73.25 969.91,-80.02"/>
</a>
</g>
</g>
<!-- Node11&#45;&gt;Node11 -->
<g id="edge11_Node000011_Node000011" class="edge">
<title>Node11&#45;&gt;Node11</title>
<g id="a_edge11_Node000011_Node000011"><a xlink:title=" ">
<path fill="none" stroke="#63b8ff" d="M699.48,-74.07C712.3,-76.02 724.24,-72.83 724.24,-64.5 724.24,-58.45 717.94,-55.11 709.57,-54.48"/>
<polygon fill="#63b8ff" stroke="#63b8ff" points="709.32,-50.99 699.48,-54.93 709.63,-57.98 709.32,-50.99"/>
</a>
</g>
</g>
<!-- Node15&#45;&gt;Node14 -->
<g id="edge17_Node000015_Node000014" class="edge">
<title>Node15&#45;&gt;Node14</title>
<g id="a_edge17_Node000015_Node000014"><a xlink:title=" ">
<path fill="none" stroke="#63b8ff" d="M998.06,-54.98C985.47,-46.84 966.23,-34.41 951.3,-24.76"/>
<polygon fill="#63b8ff" stroke="#63b8ff" points="952.95,-21.66 942.65,-19.17 949.15,-27.54 952.95,-21.66"/>
</a>
</g>
</g>
<!-- Node16 -->
<g id="Node000016" class="node">
<title>Node16</title>
<g id="a_Node000016"><a xlink:title=" ">
<polygon fill="#e0e0e0" stroke="#999999" points="1033.24,-19 989.24,-19 989.24,0 1033.24,0 1033.24,-19"/>
<text text-anchor="middle" x="1011.24" y="-7" font-family="FreeSans" font-size="10.00">string</text>
</a>
</g>
</g>
<!-- Node15&#45;&gt;Node16 -->
<g id="edge16_Node000015_Node000016" class="edge">
<title>Node15&#45;&gt;Node16</title>
<g id="a_edge16_Node000015_Node000016"><a xlink:title=" ">
<path fill="none" stroke="#63b8ff" d="M1011.24,-54.75C1011.24,-47.8 1011.24,-37.85 1011.24,-29.13"/>
<polygon fill="#63b8ff" stroke="#63b8ff" points="1014.74,-29.09 1011.24,-19.09 1007.74,-29.09 1014.74,-29.09"/>
</a>
</g>
</g>
<!-- Node22&#45;&gt;Node7 -->
<g id="edge25_Node000022_Node000007" class="edge">
<title>Node22&#45;&gt;Node7</title>
<g id="a_edge25_Node000022_Node000007"><a xlink:title=" ">
<path fill="none" stroke="#63b8ff" d="M87.91,-230.72C105.24,-207.51 139.44,-161.73 157.84,-137.1"/>
<polygon fill="#63b8ff" stroke="#63b8ff" points="160.66,-139.18 163.84,-129.07 155.05,-134.99 160.66,-139.18"/>
</a>
</g>
</g>
<!-- Node24&#45;&gt;Node7 -->
<g id="edge29_Node000024_Node000007" class="edge">
<title>Node24&#45;&gt;Node7</title>
<g id="a_edge29_Node000024_Node000007"><a xlink:title=" ">
<path fill="none" stroke="#63b8ff" d="M155.56,-306.27C108,-299.16 27.76,-284.02 10.24,-261 -32.2,-205.25 75.91,-155.04 134.9,-132.72"/>
<polygon fill="#63b8ff" stroke="#63b8ff" points="136.44,-135.88 144.61,-129.13 134.01,-129.32 136.44,-135.88"/>
</a>
</g>
</g>
<!-- Node24&#45;&gt;Node24 -->
<g id="edge28_Node000024_Node000024" class="edge">
<title>Node24&#45;&gt;Node24</title>
<g id="a_edge28_Node000024_Node000024"><a xlink:title=" ">
<path fill="none" stroke="#63b8ff" d="M207.95,-321.56C225.3,-327.37 244.74,-324.18 244.74,-312 244.74,-302.1 231.9,-298.14 217.78,-300.12"/>
<polygon fill="#63b8ff" stroke="#63b8ff" points="216.88,-296.74 207.95,-302.44 218.48,-303.55 216.88,-296.74"/>
</a>
</g>
</g>
<!-- Node27&#45;&gt;Node25 -->
<g id="edge33_Node000027_Node000025" class="edge">
<title>Node27&#45;&gt;Node25</title>
<g id="a_edge33_Node000027_Node000025"><a xlink:title=" ">
<path fill="none" stroke="#63b8ff" d="M493.14,-302.46C528.06,-293.53 583.08,-278.4 629.24,-261 630.29,-260.6 631.35,-260.19 632.42,-259.76"/>
<polygon fill="#63b8ff" stroke="#63b8ff" points="634.2,-262.8 641.98,-255.6 631.41,-256.38 634.2,-262.8"/>
</a>
</g>
</g>
<!-- Node28 -->
<g id="Node000028" class="node">
<title>Node28</title>
<g id="a_Node000028"><a xlink:title=" ">
<polygon fill="#e0e0e0" stroke="#999999" points="619.74,-255.5 574.74,-255.5 574.74,-236.5 619.74,-236.5 619.74,-255.5"/>
<text text-anchor="middle" x="597.24" y="-243.5" font-family="FreeSans" font-size="10.00">utility</text>
</a>
</g>
</g>
<!-- Node27&#45;&gt;Node28 -->
<g id="edge34_Node000027_Node000028" class="edge">
<title>Node27&#45;&gt;Node28</title>
<g id="a_edge34_Node000027_Node000028"><a xlink:title=" ">
<path fill="none" stroke="#63b8ff" d="M476.98,-302.37C500.72,-291.44 541.81,-272.52 569.26,-259.88"/>
<polygon fill="#63b8ff" stroke="#63b8ff" points="570.73,-263.06 578.34,-255.7 567.8,-256.7 570.73,-263.06"/>
</a>
</g>
</g>
</g>
</svg>
