<?xml version="1.0" encoding="UTF-8" standalone="no"?>
<!DOCTYPE svg PUBLIC "-//W3C//DTD SVG 1.1//EN"
 "http://www.w3.org/Graphics/SVG/1.1/DTD/svg11.dtd">
<!-- Generated by graphviz version 2.43.0 (0)
 -->
<!-- Title: mpqc/util/external/madworld/gop.h Pages: 1 -->
<!--zoomable 236 -->

<svg id="main" version="1.1" xmlns="http://www.w3.org/2000/svg" xmlns:xlink="http://www.w3.org/1999/xlink" xml:space="preserve" onload="init(evt)">
<style type="text/css"><![CDATA[
.node, .edge {opacity: 0.7;}
.node.selected, .edge.selected {opacity: 1;}
.edge:hover path { stroke: red; }
.edge:hover polygon { stroke: red; fill: red; }
]]></style>

<defs>
  <circle id="rim" cx="0" cy="0" r="7"/>
  <circle id="rim2" cx="0" cy="0" r="3.5"/>
  <g id="zoomPlus">
    <use xlink:href="#rim" fill="#404040"><set attributeName="fill" to="#808080" begin="zoomplus.mouseover" end="zoomplus.mouseout"/></use>
    <path d="M-4,0h8M0,-4v8" fill="none" stroke="white" stroke-width="1.5" pointer-events="none"/>
  </g>
  <g id="zoomMin">
    <use xlink:href="#rim" fill="#404040"><set attributeName="fill" to="#808080" begin="zoomminus.mouseover" end="zoomminus.mouseout"/></use>
    <path d="M-4,0h8" fill="none" stroke="white" stroke-width="1.5" pointer-events="none"/>
  </g>
  <g id="arrowUp" transform="translate(30 24)">
    <use xlink:href="#rim"/>
    <path pointer-events="none" fill="none" stroke="white" stroke-width="1.5" d="M0,-3.0v7 M-2.5,-0.5L0,-3.0L2.5,-0.5"/>
  </g>
  <g id="arrowRight" transform="rotate(90) translate(36 -43)">
    <use xlink:href="#rim"/>
    <path pointer-events="none" fill="none" stroke="white" stroke-width="1.5" d="M0,-3.0v7 M-2.5,-0.5L0,-3.0L2.5,-0.5"/>
  </g>
  <g id="arrowDown" transform="rotate(180) translate(-30 -48)">
    <use xlink:href="#rim"/>
    <path pointer-events="none" fill="none" stroke="white" stroke-width="1.5" d="M0,-3.0v7 M-2.5,-0.5L0,-3.0L2.5,-0.5"/>
  </g>
  <g id="arrowLeft" transform="rotate(270) translate(-36 17)">
    <use xlink:href="#rim"/>
    <path pointer-events="none" fill="none" stroke="white" stroke-width="1.5" d="M0,-3.0v7 M-2.5,-0.5L0,-3.0L2.5,-0.5"/>
  </g>
  <g id="resetDef">
    <use xlink:href="#rim2" fill="#404040"><set attributeName="fill" to="#808080" begin="reset.mouseover" end="reset.mouseout"/></use>
  </g>
</defs>
<script type="application/ecmascript">
var viewWidth = 634;
var viewHeight = 236;
var sectionId = 'dynsection-1';
</script>
<script type="application/ecmascript" xlink:href="svg.min.js"/>
<svg id="graph" class="graph">
<g id="viewport">
<title>mpqc/util/external/madworld/gop.h</title>
<!-- Node1 -->
<g id="Node000001" class="node">
<title>Node1</title>
<g id="a_Node000001"><a xlink:title=" ">
<polygon fill="#999999" stroke="#666666" points="385,-228 279,-228 279,-198 385,-198 385,-228"/>
<text text-anchor="start" x="287" y="-216" font-family="FreeSans" font-size="10.00">mpqc/util/external</text>
<text text-anchor="middle" x="332" y="-205" font-family="FreeSans" font-size="10.00">/madworld/gop.h</text>
</a>
</g>
</g>
<!-- Node2 -->
<g id="Node000002" class="node">
<title>Node2</title>
<g id="a_Node000002"><a xlink:href="pao__to__pno__mp2_8ipp.html" target="_top" xlink:title=" ">
<polygon fill="white" stroke="#666666" points="278.5,-96 129.5,-96 129.5,-66 278.5,-66 278.5,-96"/>
<text text-anchor="start" x="137.5" y="-84" font-family="FreeSans" font-size="10.00">mpqc/chemistry/qc/lcao</text>
<text text-anchor="middle" x="204" y="-73" font-family="FreeSans" font-size="10.00">/mbpt/pao_to_pno_mp2.ipp</text>
</a>
</g>
</g>
<!-- Node1&#45;&gt;Node2 -->
<g id="edge1_Node000001_Node000002" class="edge">
<title>Node1&#45;&gt;Node2</title>
<g id="a_edge1_Node000001_Node000002"><a xlink:title=" ">
<path fill="none" stroke="#63b8ff" d="M296.39,-192.8C282.81,-184.45 267.79,-173.85 256,-162 236.14,-142.03 219.73,-113.31 210.94,-96.26"/>
<polygon fill="#63b8ff" stroke="#63b8ff" points="294.67,-195.85 305.05,-197.96 298.25,-189.84 294.67,-195.85"/>
</a>
</g>
</g>
<!-- Node5 -->
<g id="Node000005" class="node">
<title>Node5</title>
<g id="a_Node000005"><a xlink:href="pno__solver_8h.html" target="_top" xlink:title=" ">
<polygon fill="white" stroke="#666666" points="398.5,-162 265.5,-162 265.5,-132 398.5,-132 398.5,-162"/>
<text text-anchor="start" x="273.5" y="-150" font-family="FreeSans" font-size="10.00">mpqc/chemistry/qc/lcao</text>
<text text-anchor="middle" x="332" y="-139" font-family="FreeSans" font-size="10.00">/mbpt/pno/pno_solver.h</text>
</a>
</g>
</g>
<!-- Node1&#45;&gt;Node5 -->
<g id="edge5_Node000001_Node000005" class="edge">
<title>Node1&#45;&gt;Node5</title>
<g id="a_edge5_Node000001_Node000005"><a xlink:title=" ">
<path fill="none" stroke="#63b8ff" d="M332,-187.54C332,-178.96 332,-169.61 332,-162.16"/>
<polygon fill="#63b8ff" stroke="#63b8ff" points="328.5,-187.8 332,-197.8 335.5,-187.8 328.5,-187.8"/>
</a>
</g>
</g>
<!-- Node8 -->
<g id="Node000008" class="node">
<title>Node8</title>
<g id="a_Node000008"><a xlink:href="math_2fock_2rdm_8h.html" target="_top" xlink:title=" ">
<polygon fill="white" stroke="#666666" points="594,-156.5 466,-156.5 466,-137.5 594,-137.5 594,-156.5"/>
<text text-anchor="middle" x="530" y="-144.5" font-family="FreeSans" font-size="10.00">mpqc/math/fock/rdm.h</text>
</a>
</g>
</g>
<!-- Node1&#45;&gt;Node8 -->
<g id="edge10_Node000001_Node000008" class="edge">
<title>Node1&#45;&gt;Node8</title>
<g id="a_edge10_Node000001_Node000008"><a xlink:title=" ">
<path fill="none" stroke="#63b8ff" d="M385.41,-194.74C423.69,-182.36 473.6,-166.23 503.65,-156.52"/>
<polygon fill="#63b8ff" stroke="#63b8ff" points="383.89,-191.55 375.45,-197.95 386.04,-198.21 383.89,-191.55"/>
</a>
</g>
</g>
<!-- Node3 -->
<g id="Node000003" class="node">
<title>Node3</title>
<g id="a_Node000003"><a xlink:href="pao__to__pno__mp2_8cpp.html" target="_top" xlink:title=" ">
<polygon fill="white" stroke="#666666" points="152,-30 0,-30 0,0 152,0 152,-30"/>
<text text-anchor="start" x="8" y="-18" font-family="FreeSans" font-size="10.00">mpqc/chemistry/qc/lcao</text>
<text text-anchor="middle" x="76" y="-7" font-family="FreeSans" font-size="10.00">/mbpt/pao_to_pno_mp2.cpp</text>
</a>
</g>
</g>
<!-- Node2&#45;&gt;Node3 -->
<g id="edge2_Node000002_Node000003" class="edge">
<title>Node2&#45;&gt;Node3</title>
<g id="a_edge2_Node000002_Node000003"><a xlink:title=" ">
<path fill="none" stroke="#63b8ff" d="M166.76,-61.38C146.73,-51.36 122.43,-39.22 104.02,-30.01"/>
<polygon fill="#63b8ff" stroke="#63b8ff" points="165.4,-64.61 175.91,-65.95 168.53,-58.35 165.4,-64.61"/>
</a>
</g>
</g>
<!-- Node4 -->
<g id="Node000004" class="node">
<title>Node4</title>
<g id="a_Node000004"><a xlink:href="pao__to__pno__mp2_8h.html" target="_top" xlink:title=" ">
<polygon fill="white" stroke="#666666" points="310,-30 170,-30 170,0 310,0 310,-30"/>
<text text-anchor="start" x="178" y="-18" font-family="FreeSans" font-size="10.00">mpqc/chemistry/qc/lcao</text>
<text text-anchor="middle" x="240" y="-7" font-family="FreeSans" font-size="10.00">/mbpt/pao_to_pno_mp2.h</text>
</a>
</g>
</g>
<!-- Node2&#45;&gt;Node4 -->
<g id="edge3_Node000002_Node000004" class="edge">
<title>Node2&#45;&gt;Node4</title>
<g id="a_edge3_Node000002_Node000004"><a xlink:title=" ">
<path fill="none" stroke="#63b8ff" d="M210.59,-56.68C215.12,-47.79 220.93,-37.95 226.32,-30.16"/>
<polygon fill="#63b8ff" stroke="#63b8ff" points="207.39,-55.26 206.27,-65.8 213.72,-58.26 207.39,-55.26"/>
</a>
</g>
</g>
<!-- Node4&#45;&gt;Node2 -->
<g id="edge4_Node000004_Node000002" class="edge">
<title>Node4&#45;&gt;Node2</title>
<g id="a_edge4_Node000004_Node000002"><a xlink:title=" ">
<path fill="none" stroke="#63b8ff" d="M233.43,-39.28C228.91,-48.16 223.1,-58.01 217.71,-65.8"/>
<polygon fill="#63b8ff" stroke="#63b8ff" points="236.63,-40.7 237.75,-30.16 230.3,-37.7 236.63,-40.7"/>
</a>
</g>
</g>
<!-- Node5&#45;&gt;Node4 -->
<g id="edge6_Node000005_Node000004" class="edge">
<title>Node5&#45;&gt;Node4</title>
<g id="a_edge6_Node000005_Node000004"><a xlink:title=" ">
<path fill="none" stroke="#63b8ff" d="M320.63,-122.38C312.27,-105.94 300.12,-83.87 287,-66 277.41,-52.94 264.74,-39.65 254.98,-30.05"/>
<polygon fill="#63b8ff" stroke="#63b8ff" points="317.73,-124.4 325.32,-131.79 323.99,-121.28 317.73,-124.4"/>
</a>
</g>
</g>
<!-- Node6 -->
<g id="Node000006" class="node">
<title>Node6</title>
<g id="a_Node000006"><a xlink:href="pno__builder_8h.html" target="_top" xlink:title=" ">
<polygon fill="white" stroke="#666666" points="468,-96 334,-96 334,-66 468,-66 468,-96"/>
<text text-anchor="start" x="342" y="-84" font-family="FreeSans" font-size="10.00">mpqc/chemistry/qc/lcao</text>
<text text-anchor="middle" x="401" y="-73" font-family="FreeSans" font-size="10.00">/mbpt/pno/pno_builder.h</text>
</a>
</g>
</g>
<!-- Node5&#45;&gt;Node6 -->
<g id="edge7_Node000005_Node000006" class="edge">
<title>Node5&#45;&gt;Node6</title>
<g id="a_edge7_Node000005_Node000006"><a xlink:title=" ">
<path fill="none" stroke="#63b8ff" d="M354.72,-124.92C364.9,-115.49 376.63,-104.61 385.73,-96.16"/>
<polygon fill="#63b8ff" stroke="#63b8ff" points="352.26,-122.43 347.31,-131.8 357.03,-127.56 352.26,-122.43"/>
</a>
</g>
</g>
<!-- Node6&#45;&gt;Node4 -->
<g id="edge8_Node000006_Node000004" class="edge">
<title>Node6&#45;&gt;Node4</title>
<g id="a_edge8_Node000006_Node000004"><a xlink:title=" ">
<path fill="none" stroke="#63b8ff" d="M356.19,-62.19C330.63,-52.02 299.03,-39.47 275.25,-30.01"/>
<polygon fill="#63b8ff" stroke="#63b8ff" points="355.08,-65.51 365.67,-65.95 357.67,-59.01 355.08,-65.51"/>
</a>
</g>
</g>
<!-- Node7 -->
<g id="Node000007" class="node">
<title>Node7</title>
<g id="a_Node000007"><a xlink:href="pno__builder_8cpp.html" target="_top" xlink:title=" ">
<polygon fill="white" stroke="#666666" points="474,-30 328,-30 328,0 474,0 474,-30"/>
<text text-anchor="start" x="336" y="-18" font-family="FreeSans" font-size="10.00">mpqc/chemistry/qc/lcao</text>
<text text-anchor="middle" x="401" y="-7" font-family="FreeSans" font-size="10.00">/mbpt/pno/pno_builder.cpp</text>
</a>
</g>
</g>
<!-- Node6&#45;&gt;Node7 -->
<g id="edge9_Node000006_Node000007" class="edge">
<title>Node6&#45;&gt;Node7</title>
<g id="a_edge9_Node000006_Node000007"><a xlink:title=" ">
<path fill="none" stroke="#63b8ff" d="M401,-55.54C401,-46.96 401,-37.61 401,-30.16"/>
<polygon fill="#63b8ff" stroke="#63b8ff" points="397.5,-55.8 401,-65.8 404.5,-55.8 397.5,-55.8"/>
</a>
</g>
</g>
<!-- Node9 -->
<g id="Node000009" class="node">
<title>Node9</title>
<g id="a_Node000009"><a xlink:href="sci_8ipp.html" target="_top" xlink:title=" ">
<polygon fill="white" stroke="#666666" points="622.5,-96 489.5,-96 489.5,-66 622.5,-66 622.5,-96"/>
<text text-anchor="start" x="497.5" y="-84" font-family="FreeSans" font-size="10.00">mpqc/chemistry/qc/lcao</text>
<text text-anchor="middle" x="556" y="-73" font-family="FreeSans" font-size="10.00">/ci/sci.ipp</text>
</a>
</g>
</g>
<!-- Node8&#45;&gt;Node9 -->
<g id="edge11_Node000008_Node000009" class="edge">
<title>Node8&#45;&gt;Node9</title>
<g id="a_edge11_Node000008_Node000009"><a xlink:title=" ">
<path fill="none" stroke="#63b8ff" d="M537.32,-127.98C541.38,-117.98 546.37,-105.71 550.17,-96.36"/>
<polygon fill="#63b8ff" stroke="#63b8ff" points="534.03,-126.79 533.51,-137.37 540.51,-129.42 534.03,-126.79"/>
</a>
</g>
</g>
<!-- Node10 -->
<g id="Node000010" class="node">
<title>Node10</title>
<g id="a_Node000010"><a xlink:href="sci_8cpp.html" target="_top" xlink:title=" ">
<polygon fill="white" stroke="#666666" points="625.5,-30 492.5,-30 492.5,0 625.5,0 625.5,-30"/>
<text text-anchor="start" x="500.5" y="-18" font-family="FreeSans" font-size="10.00">mpqc/chemistry/qc/lcao</text>
<text text-anchor="middle" x="559" y="-7" font-family="FreeSans" font-size="10.00">/ci/sci.cpp</text>
</a>
</g>
</g>
<!-- Node9&#45;&gt;Node10 -->
<g id="edge12_Node000009_Node000010" class="edge">
<title>Node9&#45;&gt;Node10</title>
<g id="a_edge12_Node000009_Node000010"><a xlink:title=" ">
<path fill="none" stroke="#63b8ff" d="M557.15,-55.54C557.55,-46.96 557.99,-37.61 558.34,-30.16"/>
<polygon fill="#63b8ff" stroke="#63b8ff" points="553.64,-55.64 556.67,-65.8 560.63,-55.97 553.64,-55.64"/>
</a>
</g>
</g>
</g>
</svg>

<g id="navigator" transform="translate(0 0)" fill="#404254">
  <rect fill="#f2f5e9" fill-opacity="0.5" stroke="#606060" stroke-width=".5" x="0" y="0" width="60" height="60"/>
  <use id="zoomplus" xlink:href="#zoomPlus" x="17" y="9" onmousedown="handleZoom(evt,'in')"/>
  <use id="zoomminus" xlink:href="#zoomMin" x="42" y="9" onmousedown="handleZoom(evt,'out')"/>
  <use id="reset" xlink:href="#resetDef" x="30" y="36" onmousedown="handleReset()"/>
   <use id="arrowup" xlink:href="#arrowUp" x="0" y="0" onmousedown="handlePan(0,-1)"/>
  <use id="arrowright" xlink:href="#arrowRight" x="0" y="0" onmousedown="handlePan(1,0)"/>
  <use id="arrowdown" xlink:href="#arrowDown" x="0" y="0" onmousedown="handlePan(0,1)"/>
  <use id="arrowleft" xlink:href="#arrowLeft" x="0" y="0" onmousedown="handlePan(-1,0)"/>
</g>
<svg viewBox="0 0 15 15" width="100%" height="30px" preserveAspectRatio="xMaxYMin meet">
 <g id="arrow_out" transform="scale(0.3 0.3)">
  <a xlink:href="gop_8h__dep__incl_org.svg" target="_base">
   <rect id="button" ry="5" rx="5" y="6" x="6" height="38" width="38"
        fill="#f2f5e9" fill-opacity="0.5" stroke="#606060" stroke-width="1.0"/>
   <path id="arrow"
     d="M 11.500037,31.436501 C 11.940474,20.09759 22.043105,11.32322 32.158766,21.979434 L 37.068811,17.246167 C 37.068811,17.246167 37.088388,32 37.088388,32 L 22.160133,31.978069 C 22.160133,31.978069 26.997745,27.140456 26.997745,27.140456 C 18.528582,18.264221 13.291696,25.230495 11.500037,31.436501 z"
     style="fill:#404040;"/>
  </a>
 </g>
</svg>

<style type='text/css'>
<![CDATA[
[data-mouse-over-selected='false'] { opacity: 0.7; }
[data-mouse-over-selected='true']  { opacity: 1.0; }
]]>
</style>
<script type="application/ecmascript"><![CDATA[
document.addEventListener('DOMContentLoaded', (event) => {
  highlightEdges();
  highlightAdjacentNodes();
});
]]></script>
</svg>
