<?xml version="1.0" encoding="UTF-8" standalone="no"?>
<!DOCTYPE svg PUBLIC "-//W3C//DTD SVG 1.1//EN"
 "http://www.w3.org/Graphics/SVG/1.1/DTD/svg11.dtd">
<!-- Generated by graphviz version 2.43.0 (0)
 -->
<!-- Title: mpqc.Util.Misc Pages: 1 -->
<svg width="407pt" height="27pt"
 viewBox="0.00 0.00 407.00 27.00" xmlns="http://www.w3.org/2000/svg" xmlns:xlink="http://www.w3.org/1999/xlink">
<g id="graph0" class="graph" transform="scale(1 1) rotate(0) translate(4 23)">
<title>mpqc.Util.Misc</title>
<!-- Node2 -->
<g id="Node000002" class="node">
<title>Node2</title>
<g id="a_Node000002"><a xlink:href="group___util.html" target="_top" xlink:title=" ">
<polygon fill="white" stroke="#666666" points="64,-19 0,-19 0,0 64,0 64,-19"/>
<text text-anchor="middle" x="32" y="-7" font-family="FreeSans" font-size="10.00">mpqc.Util</text>
</a>
</g>
</g>
<!-- Node1 -->
<g id="Node000001" class="node">
<title>Node1</title>
<g id="a_Node000001"><a xlink:title=" ">
<polygon fill="#999999" stroke="#666666" points="189,-19 100,-19 100,0 189,0 189,-19"/>
<text text-anchor="middle" x="144.5" y="-7" font-family="FreeSans" font-size="10.00">mpqc.Util.Misc</text>
</a>
</g>
</g>
<!-- Node2&#45;&gt;Node1 -->
<g id="edge1" class="edge">
<title>Node2&#45;&gt;Node1</title>
<path fill="none" stroke="black" d="M74.33,-9.5C82.67,-9.5 91.47,-9.5 99.88,-9.5"/>
<polygon fill="black" stroke="black" points="74.07,-6 64.07,-9.5 74.07,-13 74.07,-6"/>
</g>
<!-- Node3 -->
<g id="Node000003" class="node">
<title>Node3</title>
<g id="a_Node000003"><a xlink:href="group___util_misc_property_provider.html" target="_top" xlink:title=" ">
<polygon fill="white" stroke="#666666" points="399,-19 225,-19 225,0 399,0 399,-19"/>
<text text-anchor="middle" x="312" y="-7" font-family="FreeSans" font-size="10.00">mpqc.Util.Misc.PropertyProvider</text>
</a>
</g>
</g>
<!-- Node1&#45;&gt;Node3 -->
<g id="edge2" class="edge">
<title>Node1&#45;&gt;Node3</title>
<path fill="none" stroke="black" d="M199.51,-9.5C207.68,-9.5 216.28,-9.5 224.93,-9.5"/>
<polygon fill="black" stroke="black" points="199.42,-6 189.42,-9.5 199.42,-13 199.42,-6"/>
</g>
</g>
</svg>
