<?xml version="1.0" encoding="UTF-8" standalone="no"?>
<!DOCTYPE svg PUBLIC "-//W3C//DTD SVG 1.1//EN"
 "http://www.w3.org/Graphics/SVG/1.1/DTD/svg11.dtd">
<!-- Generated by graphviz version 2.43.0 (0)
 -->
<!-- Title: mpqc.Core Pages: 1 -->
<svg width="218pt" height="64pt"
 viewBox="0.00 0.00 218.00 64.00" xmlns="http://www.w3.org/2000/svg" xmlns:xlink="http://www.w3.org/1999/xlink">
<g id="graph0" class="graph" transform="scale(1 1) rotate(0) translate(4 60)">
<title>mpqc.Core</title>
<!-- Node1 -->
<g id="Node000001" class="node">
<title>Node1</title>
<g id="a_Node000001"><a xlink:title=" ">
<polygon fill="#999999" stroke="#666666" points="69,-37 0,-37 0,-18 69,-18 69,-37"/>
<text text-anchor="middle" x="34.5" y="-25" font-family="FreeSans" font-size="10.00">mpqc.Core</text>
</a>
</g>
</g>
<!-- Node2 -->
<g id="Node000002" class="node">
<title>Node2</title>
<g id="a_Node000002"><a xlink:href="group___core_key_val.html" target="_top" xlink:title=" ">
<polygon fill="white" stroke="#666666" points="210,-56 105,-56 105,-37 210,-37 210,-56"/>
<text text-anchor="middle" x="157.5" y="-44" font-family="FreeSans" font-size="10.00">mpqc.Core.KeyVal</text>
</a>
</g>
</g>
<!-- Node1&#45;&gt;Node2 -->
<g id="edge1" class="edge">
<title>Node1&#45;&gt;Node2</title>
<path fill="none" stroke="black" d="M79.11,-34.35C87.46,-35.66 96.28,-37.04 104.86,-38.39"/>
<polygon fill="black" stroke="black" points="79.63,-30.89 69.21,-32.79 78.54,-37.8 79.63,-30.89"/>
</g>
<!-- Node3 -->
<g id="Node000003" class="node">
<title>Node3</title>
<g id="a_Node000003"><a xlink:href="group___core_utility.html" target="_top" xlink:title=" ">
<polygon fill="white" stroke="#666666" points="202,-19 113,-19 113,0 202,0 202,-19"/>
<text text-anchor="middle" x="157.5" y="-7" font-family="FreeSans" font-size="10.00">mpqc.Core.Util</text>
</a>
</g>
</g>
<!-- Node1&#45;&gt;Node3 -->
<g id="edge2" class="edge">
<title>Node1&#45;&gt;Node3</title>
<path fill="none" stroke="black" d="M79.3,-20.98C90.12,-19.37 101.73,-17.65 112.56,-16.04"/>
<polygon fill="black" stroke="black" points="78.58,-17.55 69.21,-22.49 79.61,-24.48 78.58,-17.55"/>
</g>
</g>
</svg>
