<?xml version="1.0" encoding="UTF-8" standalone="no"?>
<!DOCTYPE svg PUBLIC "-//W3C//DTD SVG 1.1//EN"
 "http://www.w3.org/Graphics/SVG/1.1/DTD/svg11.dtd">
<!-- Generated by graphviz version 2.43.0 (0)
 -->
<!-- Title: Graphical Class Hierarchy Pages: 1 -->
<svg width="920pt" height="751pt"
 viewBox="0.00 0.00 920.00 750.50" xmlns="http://www.w3.org/2000/svg" xmlns:xlink="http://www.w3.org/1999/xlink">
<g id="graph0" class="graph" transform="scale(1 1) rotate(0) translate(4 746.5)">
<title>Graphical Class Hierarchy</title>
<!-- Node0 -->
<g id="Node000000" class="node">
<title>Node0</title>
<g id="a_Node000000"><a xlink:href="structmpqc_1_1utility_1_1_generator_range_facade.html" target="_top" xlink:title="To make a Generator behave as a range use this as a CRTP base.">
<polygon fill="white" stroke="#666666" points="144,-400.5 0,-400.5 0,-359.5 144,-359.5 144,-400.5"/>
<text text-anchor="start" x="8" y="-388.5" font-family="FreeSans" font-size="10.00">mpqc::utility::Generator</text>
<text text-anchor="start" x="8" y="-377.5" font-family="FreeSans" font-size="10.00">RangeFacade&lt; Generator,</text>
<text text-anchor="middle" x="72" y="-366.5" font-family="FreeSans" font-size="10.00"> Value &gt;</text>
</a>
</g>
</g>
<!-- Node1 -->
<g id="Node000001" class="node">
<title>Node1</title>
<g id="a_Node000001"><a xlink:href="structmpqc_1_1_h_b_composite_generator.html" target="_top" xlink:title=" ">
<polygon fill="white" stroke="#666666" points="416.5,-742.5 207.5,-742.5 207.5,-679.5 416.5,-679.5 416.5,-742.5"/>
<text text-anchor="start" x="215.5" y="-730.5" font-family="FreeSans" font-size="10.00">mpqc::HBCompositeGenerator</text>
<text text-anchor="start" x="215.5" y="-719.5" font-family="FreeSans" font-size="10.00">&lt; TupleOfOrbitalTuplesGenerator</text>
<text text-anchor="start" x="215.5" y="-708.5" font-family="FreeSans" font-size="10.00">&lt; mpqc::meta::string_t&lt; StringOrString</text>
<text text-anchor="start" x="215.5" y="-697.5" font-family="FreeSans" font-size="10.00">Range &gt;::occ_range_type, RAa, RAb</text>
<text text-anchor="middle" x="312" y="-686.5" font-family="FreeSans" font-size="10.00"> &gt;, true, double, RCa, RCb &gt;</text>
</a>
</g>
</g>
<!-- Node0&#45;&gt;Node1 -->
<g id="edge300_Node000000_Node000001" class="edge">
<title>Node0&#45;&gt;Node1</title>
<g id="a_edge300_Node000000_Node000001"><a xlink:title=" ">
<path fill="none" stroke="#63b8ff" d="M75.57,-410.66C82.14,-469.43 104.77,-598.45 180,-670 187.94,-677.55 197.26,-683.72 207.2,-688.75"/>
<polygon fill="#63b8ff" stroke="#63b8ff" points="79.03,-410.12 74.52,-400.53 72.07,-410.84 79.03,-410.12"/>
</a>
</g>
</g>
<!-- Node2 -->
<g id="Node000002" class="node">
<title>Node2</title>
<g id="a_Node000002"><a xlink:href="structmpqc_1_1_h_b_composite_generator.html" target="_top" xlink:title=" ">
<polygon fill="white" stroke="#666666" points="394.5,-661 229.5,-661 229.5,-609 394.5,-609 394.5,-661"/>
<text text-anchor="start" x="237.5" y="-649" font-family="FreeSans" font-size="10.00">mpqc::HBCompositeGenerator</text>
<text text-anchor="start" x="237.5" y="-638" font-family="FreeSans" font-size="10.00">&lt; OrbitalTupleGenerator</text>
<text text-anchor="start" x="237.5" y="-627" font-family="FreeSans" font-size="10.00">&lt; RA, String::occ_range_type</text>
<text text-anchor="middle" x="312" y="-616" font-family="FreeSans" font-size="10.00"> &gt;, true, double, RC &gt;</text>
</a>
</g>
</g>
<!-- Node0&#45;&gt;Node2 -->
<g id="edge301_Node000000_Node000002" class="edge">
<title>Node0&#45;&gt;Node2</title>
<g id="a_edge301_Node000000_Node000002"><a xlink:title=" ">
<path fill="none" stroke="#63b8ff" d="M79.31,-410.56C90.78,-458.3 119.68,-550.26 180,-600 194.08,-611.61 211.63,-619.39 229.28,-624.61"/>
<polygon fill="#63b8ff" stroke="#63b8ff" points="82.65,-409.48 77,-400.52 75.83,-411.05 82.65,-409.48"/>
</a>
</g>
</g>
<!-- Node3 -->
<g id="Node000003" class="node">
<title>Node3</title>
<g id="a_Node000003"><a xlink:href="classmpqc_1_1utility_1_1_filtered_generator.html" target="_top" xlink:title=" ">
<polygon fill="white" stroke="#666666" points="429,-590.5 195,-590.5 195,-505.5 429,-505.5 429,-590.5"/>
<text text-anchor="start" x="203" y="-578.5" font-family="FreeSans" font-size="10.00">mpqc::utility::FilteredGenerator</text>
<text text-anchor="start" x="203" y="-567.5" font-family="FreeSans" font-size="10.00">&lt; HBCompositeGenerator&lt; TupleOfOrbital</text>
<text text-anchor="start" x="203" y="-556.5" font-family="FreeSans" font-size="10.00">TuplesGenerator&lt; mpqc::meta::string</text>
<text text-anchor="start" x="203" y="-545.5" font-family="FreeSans" font-size="10.00">_t&lt; StringOrStringRange &gt;::occ_range</text>
<text text-anchor="start" x="203" y="-534.5" font-family="FreeSans" font-size="10.00">_type, RAa, RAb &gt;, true, double, RCa,</text>
<text text-anchor="start" x="203" y="-523.5" font-family="FreeSans" font-size="10.00"> RCb &gt;, CreIndicesUnoccupied&lt; mpqc::meta</text>
<text text-anchor="middle" x="312" y="-512.5" font-family="FreeSans" font-size="10.00">::string_t&lt; StringOrStringRange &gt; &gt; &gt;</text>
</a>
</g>
</g>
<!-- Node0&#45;&gt;Node3 -->
<g id="edge302_Node000000_Node000003" class="edge">
<title>Node0&#45;&gt;Node3</title>
<g id="a_edge302_Node000000_Node000003"><a xlink:title=" ">
<path fill="none" stroke="#63b8ff" d="M93.57,-409.24C113.19,-435.31 144.91,-472.96 180,-497 184.73,-500.24 189.7,-503.32 194.82,-506.23"/>
<polygon fill="#63b8ff" stroke="#63b8ff" points="96.14,-406.84 87.38,-400.88 90.52,-411 96.14,-406.84"/>
</a>
</g>
</g>
<!-- Node4 -->
<g id="Node000004" class="node">
<title>Node4</title>
<g id="a_Node000004"><a xlink:href="classmpqc_1_1utility_1_1_filtered_generator.html" target="_top" xlink:title=" ">
<polygon fill="white" stroke="#666666" points="444,-487.5 180,-487.5 180,-424.5 444,-424.5 444,-487.5"/>
<text text-anchor="start" x="188" y="-475.5" font-family="FreeSans" font-size="10.00">mpqc::utility::FilteredGenerator</text>
<text text-anchor="start" x="188" y="-464.5" font-family="FreeSans" font-size="10.00">&lt; HBCompositeGenerator&lt; OrbitalTuple</text>
<text text-anchor="start" x="188" y="-453.5" font-family="FreeSans" font-size="10.00">Generator&lt; RA, String::occ_range</text>
<text text-anchor="start" x="188" y="-442.5" font-family="FreeSans" font-size="10.00">_type &gt;, true, double, RC &gt;, CreIndicesUnoccupied</text>
<text text-anchor="middle" x="312" y="-431.5" font-family="FreeSans" font-size="10.00">&lt; String &gt; &gt;</text>
</a>
</g>
</g>
<!-- Node0&#45;&gt;Node4 -->
<g id="edge303_Node000000_Node000004" class="edge">
<title>Node0&#45;&gt;Node4</title>
<g id="a_edge303_Node000000_Node000004"><a xlink:title=" ">
<path fill="none" stroke="#63b8ff" d="M145.17,-403.75C156.8,-407.53 168.73,-411.39 180,-415 189.65,-418.09 199.7,-421.28 209.76,-424.46"/>
<polygon fill="#63b8ff" stroke="#63b8ff" points="146.07,-400.36 135.48,-400.59 143.9,-407.01 146.07,-400.36"/>
</a>
</g>
</g>
<!-- Node5 -->
<g id="Node000005" class="node">
<title>Node5</title>
<g id="a_Node000005"><a xlink:href="classmpqc_1_1utility_1_1_filtered_generator.html" target="_top" xlink:title=" ">
<polygon fill="white" stroke="#666666" points="434,-406 190,-406 190,-354 434,-354 434,-406"/>
<text text-anchor="start" x="198" y="-394" font-family="FreeSans" font-size="10.00">mpqc::utility::FilteredGenerator</text>
<text text-anchor="start" x="198" y="-383" font-family="FreeSans" font-size="10.00">&lt; FullDeterminantReplacementGenerator</text>
<text text-anchor="start" x="198" y="-372" font-family="FreeSans" font-size="10.00">&lt; CreAnnPairGenerator &gt;, OpersInStringRange</text>
<text text-anchor="middle" x="312" y="-361" font-family="FreeSans" font-size="10.00">&lt; StringRange &gt; &gt;</text>
</a>
</g>
</g>
<!-- Node0&#45;&gt;Node5 -->
<g id="edge304_Node000000_Node000005" class="edge">
<title>Node0&#45;&gt;Node5</title>
<g id="a_edge304_Node000000_Node000005"><a xlink:title=" ">
<path fill="none" stroke="#63b8ff" d="M154.12,-380C165.7,-380 177.83,-380 189.98,-380"/>
<polygon fill="#63b8ff" stroke="#63b8ff" points="154.09,-376.5 144.09,-380 154.09,-383.5 154.09,-376.5"/>
</a>
</g>
</g>
<!-- Node7 -->
<g id="Node000007" class="node">
<title>Node7</title>
<g id="a_Node000007"><a xlink:title=" ">
<polygon fill="#e0e0e0" stroke="#999999" points="416.5,-336 207.5,-336 207.5,-240 416.5,-240 416.5,-336"/>
<text text-anchor="start" x="215.5" y="-324" font-family="FreeSans" font-size="10.00">mpqc::utility::Generator</text>
<text text-anchor="start" x="215.5" y="-313" font-family="FreeSans" font-size="10.00">Adaptor&lt; CreAnnGenerator,</text>
<text text-anchor="start" x="215.5" y="-302" font-family="FreeSans" font-size="10.00"> decltype(make_oper_from</text>
<text text-anchor="start" x="215.5" y="-291" font-family="FreeSans" font-size="10.00">_tuple&lt; std::decay_t&lt; std</text>
<text text-anchor="start" x="215.5" y="-280" font-family="FreeSans" font-size="10.00">::tuple_element_t&lt; 0, CreAnnGenerator</text>
<text text-anchor="start" x="215.5" y="-269" font-family="FreeSans" font-size="10.00">::value_type &gt; &gt;, std::decay_t&lt; std</text>
<text text-anchor="start" x="215.5" y="-258" font-family="FreeSans" font-size="10.00">::tuple_element_t&lt; 1, CreAnnGenerator</text>
<text text-anchor="middle" x="312" y="-247" font-family="FreeSans" font-size="10.00">::value_type &gt; &gt; &gt;)&gt;</text>
</a>
</g>
</g>
<!-- Node0&#45;&gt;Node7 -->
<g id="edge306_Node000000_Node000007" class="edge">
<title>Node0&#45;&gt;Node7</title>
<g id="a_edge306_Node000000_Node000007"><a xlink:title=" ">
<path fill="none" stroke="#63b8ff" d="M135.63,-355.79C157.6,-347.3 182.89,-337.52 207.31,-328.08"/>
<polygon fill="#63b8ff" stroke="#63b8ff" points="134.18,-352.6 126.12,-359.47 136.7,-359.13 134.18,-352.6"/>
</a>
</g>
</g>
<!-- Node10 -->
<g id="Node000010" class="node">
<title>Node10</title>
<g id="a_Node000010"><a xlink:title=" ">
<polygon fill="#e0e0e0" stroke="#999999" points="425.5,-222 198.5,-222 198.5,-126 425.5,-126 425.5,-222"/>
<text text-anchor="start" x="206.5" y="-210" font-family="FreeSans" font-size="10.00">mpqc::utility::Generator</text>
<text text-anchor="start" x="206.5" y="-199" font-family="FreeSans" font-size="10.00">Adaptor&lt; CreAnnPairGenerator,</text>
<text text-anchor="start" x="206.5" y="-188" font-family="FreeSans" font-size="10.00"> decltype(make_opers_from</text>
<text text-anchor="start" x="206.5" y="-177" font-family="FreeSans" font-size="10.00">_tuples&lt; std::decay_t&lt; std</text>
<text text-anchor="start" x="206.5" y="-166" font-family="FreeSans" font-size="10.00">::tuple_element_t&lt; 0, CreAnnPairGenerator</text>
<text text-anchor="start" x="206.5" y="-155" font-family="FreeSans" font-size="10.00">::value_type &gt; &gt;, std::decay_t&lt; std</text>
<text text-anchor="start" x="206.5" y="-144" font-family="FreeSans" font-size="10.00">::tuple_element_t&lt; 1, CreAnnPairGenerator</text>
<text text-anchor="middle" x="312" y="-133" font-family="FreeSans" font-size="10.00">::value_type &gt; &gt; &gt;)&gt;</text>
</a>
</g>
</g>
<!-- Node0&#45;&gt;Node10 -->
<g id="edge309_Node000000_Node000010" class="edge">
<title>Node0&#45;&gt;Node10</title>
<g id="a_edge309_Node000000_Node000010"><a xlink:title=" ">
<path fill="none" stroke="#63b8ff" d="M87.94,-350.35C105.87,-317.36 138.73,-264.32 180,-231 185.69,-226.4 191.81,-222.11 198.19,-218.11"/>
<polygon fill="#63b8ff" stroke="#63b8ff" points="84.68,-349.02 83.08,-359.49 90.86,-352.31 84.68,-349.02"/>
</a>
</g>
</g>
<!-- Node13 -->
<g id="Node000013" class="node">
<title>Node13</title>
<g id="a_Node000013"><a xlink:href="classmpqc_1_1_h_b_tuple_generator.html" target="_top" xlink:title=" ">
<polygon fill="white" stroke="#666666" points="383.5,-108 240.5,-108 240.5,-78 383.5,-78 383.5,-108"/>
<text text-anchor="start" x="248.5" y="-96" font-family="FreeSans" font-size="10.00">mpqc::HBTupleGenerator</text>
<text text-anchor="middle" x="312" y="-85" font-family="FreeSans" font-size="10.00">&lt; RO, RI, AbsHBData, T &gt;</text>
</a>
</g>
</g>
<!-- Node0&#45;&gt;Node13 -->
<g id="edge312_Node000000_Node000013" class="edge">
<title>Node0&#45;&gt;Node13</title>
<g id="a_edge312_Node000000_Node000013"><a xlink:title=" ">
<path fill="none" stroke="#63b8ff" d="M76.04,-349.39C83.3,-293.79 106.89,-176.46 180,-117 196.86,-103.29 219,-96.41 240.27,-93.19"/>
<polygon fill="#63b8ff" stroke="#63b8ff" points="72.57,-348.99 74.84,-359.34 79.52,-349.83 72.57,-348.99"/>
</a>
</g>
</g>
<!-- Node14 -->
<g id="Node000014" class="node">
<title>Node14</title>
<g id="a_Node000014"><a xlink:href="classmpqc_1_1utility_1_1_tuple_generator.html" target="_top" xlink:title=" ">
<polygon fill="white" stroke="#666666" points="391,-59.5 233,-59.5 233,-18.5 391,-18.5 391,-59.5"/>
<text text-anchor="start" x="241" y="-47.5" font-family="FreeSans" font-size="10.00">mpqc::utility::TupleGenerator</text>
<text text-anchor="start" x="241" y="-36.5" font-family="FreeSans" font-size="10.00">&lt; R, HostRange, Container,</text>
<text text-anchor="middle" x="312" y="-25.5" font-family="FreeSans" font-size="10.00"> ConstHostRangePtr &gt;</text>
</a>
</g>
</g>
<!-- Node0&#45;&gt;Node14 -->
<g id="edge313_Node000000_Node000014" class="edge">
<title>Node0&#45;&gt;Node14</title>
<g id="a_edge313_Node000000_Node000014"><a xlink:title=" ">
<path fill="none" stroke="#63b8ff" d="M74.15,-349.23C78.24,-286.6 96.71,-143.88 180,-69 194.57,-55.9 213.69,-48.16 232.79,-43.68"/>
<polygon fill="#63b8ff" stroke="#63b8ff" points="70.66,-349.09 73.58,-359.27 77.64,-349.49 70.66,-349.09"/>
</a>
</g>
</g>
<!-- Node6 -->
<g id="Node000006" class="node">
<title>Node6</title>
<g id="a_Node000006"><a xlink:href="structmpqc_1_1_in_range_full_determinant_replacement_generator.html" target="_top" xlink:title=" ">
<polygon fill="white" stroke="#666666" points="683,-400.5 480,-400.5 480,-359.5 683,-359.5 683,-400.5"/>
<text text-anchor="start" x="488" y="-388.5" font-family="FreeSans" font-size="10.00">mpqc::InRangeFullDeterminant</text>
<text text-anchor="start" x="488" y="-377.5" font-family="FreeSans" font-size="10.00">ReplacementGenerator&lt; StringRange,</text>
<text text-anchor="middle" x="581.5" y="-366.5" font-family="FreeSans" font-size="10.00"> CreAnnPairGenerator &gt;</text>
</a>
</g>
</g>
<!-- Node5&#45;&gt;Node6 -->
<g id="edge305_Node000005_Node000006" class="edge">
<title>Node5&#45;&gt;Node6</title>
<g id="a_edge305_Node000005_Node000006"><a xlink:title=" ">
<path fill="none" stroke="#63b8ff" d="M444.23,-380C456.15,-380 468.1,-380 479.7,-380"/>
<polygon fill="#63b8ff" stroke="#63b8ff" points="444.23,-376.5 434.23,-380 444.23,-383.5 444.23,-376.5"/>
</a>
</g>
</g>
<!-- Node8 -->
<g id="Node000008" class="node">
<title>Node8</title>
<g id="a_Node000008"><a xlink:href="structmpqc_1_1_primitive_operator_generator.html" target="_top" xlink:title=" ">
<polygon fill="white" stroke="#666666" points="674,-303 489,-303 489,-273 674,-273 674,-303"/>
<text text-anchor="start" x="497" y="-291" font-family="FreeSans" font-size="10.00">mpqc::PrimitiveOperatorGenerator</text>
<text text-anchor="middle" x="581.5" y="-280" font-family="FreeSans" font-size="10.00">&lt; CreAnnGenerator &gt;</text>
</a>
</g>
</g>
<!-- Node7&#45;&gt;Node8 -->
<g id="edge307_Node000007_Node000008" class="edge">
<title>Node7&#45;&gt;Node8</title>
<g id="a_edge307_Node000007_Node000008"><a xlink:title=" ">
<path fill="none" stroke="#63b8ff" d="M426.91,-288C447.63,-288 468.99,-288 488.95,-288"/>
<polygon fill="#63b8ff" stroke="#63b8ff" points="426.81,-284.5 416.81,-288 426.81,-291.5 426.81,-284.5"/>
</a>
</g>
</g>
<!-- Node9 -->
<g id="Node000009" class="node">
<title>Node9</title>
<g id="a_Node000009"><a xlink:href="structmpqc_1_1_full_string_replacement_generator.html" target="_top" xlink:title=" ">
<polygon fill="white" stroke="#666666" points="901.5,-303 729.5,-303 729.5,-273 901.5,-273 901.5,-303"/>
<text text-anchor="start" x="737.5" y="-291" font-family="FreeSans" font-size="10.00">mpqc::FullStringReplacement</text>
<text text-anchor="middle" x="815.5" y="-280" font-family="FreeSans" font-size="10.00">Generator&lt; CreAnnGenerator &gt;</text>
</a>
</g>
</g>
<!-- Node8&#45;&gt;Node9 -->
<g id="edge308_Node000008_Node000009" class="edge">
<title>Node8&#45;&gt;Node9</title>
<g id="a_edge308_Node000008_Node000009"><a xlink:title=" ">
<path fill="none" stroke="#63b8ff" d="M684.46,-288C699.37,-288 714.6,-288 729.14,-288"/>
<polygon fill="#63b8ff" stroke="#63b8ff" points="684.19,-284.5 674.19,-288 684.19,-291.5 684.19,-284.5"/>
</a>
</g>
</g>
<!-- Node11 -->
<g id="Node000011" class="node">
<title>Node11</title>
<g id="a_Node000011"><a xlink:href="structmpqc_1_1_primitive_operator_pair_generator.html" target="_top" xlink:title=" ">
<polygon fill="white" stroke="#666666" points="676.5,-189 486.5,-189 486.5,-159 676.5,-159 676.5,-189"/>
<text text-anchor="start" x="494.5" y="-177" font-family="FreeSans" font-size="10.00">mpqc::PrimitiveOperatorPair</text>
<text text-anchor="middle" x="581.5" y="-166" font-family="FreeSans" font-size="10.00">Generator&lt; CreAnnPairGenerator &gt;</text>
</a>
</g>
</g>
<!-- Node10&#45;&gt;Node11 -->
<g id="edge310_Node000010_Node000011" class="edge">
<title>Node10&#45;&gt;Node11</title>
<g id="a_edge310_Node000010_Node000011"><a xlink:title=" ">
<path fill="none" stroke="#63b8ff" d="M436.1,-174C452.91,-174 469.95,-174 486.14,-174"/>
<polygon fill="#63b8ff" stroke="#63b8ff" points="435.67,-170.5 425.67,-174 435.67,-177.5 435.67,-170.5"/>
</a>
</g>
</g>
<!-- Node12 -->
<g id="Node000012" class="node">
<title>Node12</title>
<g id="a_Node000012"><a xlink:href="structmpqc_1_1_full_determinant_replacement_generator.html" target="_top" xlink:title=" ">
<polygon fill="white" stroke="#666666" points="912,-189 719,-189 719,-159 912,-159 912,-189"/>
<text text-anchor="start" x="727" y="-177" font-family="FreeSans" font-size="10.00">mpqc::FullDeterminantReplacement</text>
<text text-anchor="middle" x="815.5" y="-166" font-family="FreeSans" font-size="10.00">Generator&lt; CreAnnPairGenerator &gt;</text>
</a>
</g>
</g>
<!-- Node11&#45;&gt;Node12 -->
<g id="edge311_Node000011_Node000012" class="edge">
<title>Node11&#45;&gt;Node12</title>
<g id="a_edge311_Node000011_Node000012"><a xlink:title=" ">
<path fill="none" stroke="#63b8ff" d="M686.72,-174C697.41,-174 708.24,-174 718.83,-174"/>
<polygon fill="#63b8ff" stroke="#63b8ff" points="686.53,-170.5 676.53,-174 686.53,-177.5 686.53,-170.5"/>
</a>
</g>
</g>
<!-- Node15 -->
<g id="Node000015" class="node">
<title>Node15</title>
<g id="a_Node000015"><a xlink:href="structmpqc_1_1_orbital_tuple_generator.html" target="_top" xlink:title=" ">
<polygon fill="white" stroke="#666666" points="666.5,-78 496.5,-78 496.5,-48 666.5,-48 666.5,-78"/>
<text text-anchor="start" x="504.5" y="-66" font-family="FreeSans" font-size="10.00">mpqc::OrbitalTupleGenerator</text>
<text text-anchor="middle" x="581.5" y="-55" font-family="FreeSans" font-size="10.00">&lt; RA, String::occ_range_type &gt;</text>
</a>
</g>
</g>
<!-- Node14&#45;&gt;Node15 -->
<g id="edge314_Node000014_Node000015" class="edge">
<title>Node14&#45;&gt;Node15</title>
<g id="a_edge314_Node000014_Node000015"><a xlink:title=" ">
<path fill="none" stroke="#63b8ff" d="M401.31,-46.92C431.86,-49.66 466.01,-52.73 496.24,-55.44"/>
<polygon fill="#63b8ff" stroke="#63b8ff" points="401.36,-43.41 391.09,-46.01 400.74,-50.39 401.36,-43.41"/>
</a>
</g>
</g>
<!-- Node16 -->
<g id="Node000016" class="node">
<title>Node16</title>
<g id="a_Node000016"><a xlink:href="structmpqc_1_1_orbital_tuple_generator.html" target="_top" xlink:title=" ">
<polygon fill="white" stroke="#666666" points="660,-30 503,-30 503,0 660,0 660,-30"/>
<text text-anchor="start" x="511" y="-18" font-family="FreeSans" font-size="10.00">mpqc::OrbitalTupleGenerator</text>
<text text-anchor="middle" x="581.5" y="-7" font-family="FreeSans" font-size="10.00">&lt; Rank, HostRange, Value &gt;</text>
</a>
</g>
</g>
<!-- Node14&#45;&gt;Node16 -->
<g id="edge315_Node000014_Node000016" class="edge">
<title>Node14&#45;&gt;Node16</title>
<g id="a_edge315_Node000014_Node000016"><a xlink:title=" ">
<path fill="none" stroke="#63b8ff" d="M401.13,-31.09C433.96,-28.15 470.95,-24.83 502.77,-21.97"/>
<polygon fill="#63b8ff" stroke="#63b8ff" points="400.74,-27.61 391.09,-31.99 401.36,-34.59 400.74,-27.61"/>
</a>
</g>
</g>
</g>
</svg>
