<?xml version="1.0" encoding="UTF-8" standalone="no"?>
<!DOCTYPE svg PUBLIC "-//W3C//DTD SVG 1.1//EN"
 "http://www.w3.org/Graphics/SVG/1.1/DTD/svg11.dtd">
<!-- Generated by graphviz version 2.43.0 (0)
 -->
<!-- Title: Graphical Class Hierarchy Pages: 1 -->
<svg width="652pt" height="86pt"
 viewBox="0.00 0.00 652.00 86.00" xmlns="http://www.w3.org/2000/svg" xmlns:xlink="http://www.w3.org/1999/xlink">
<g id="graph0" class="graph" transform="scale(1 1) rotate(0) translate(4 82)">
<title>Graphical Class Hierarchy</title>
<!-- Node0 -->
<g id="Node000000" class="node">
<title>Node0</title>
<g id="a_Node000000"><a xlink:href="classmpqc_1_1lcao_1_1_screener.html" target="_top" xlink:title="Base class for screeners will never skip any integrals.">
<polygon fill="white" stroke="#666666" points="119,-48.5 0,-48.5 0,-29.5 119,-29.5 119,-48.5"/>
<text text-anchor="middle" x="59.5" y="-36.5" font-family="FreeSans" font-size="10.00">mpqc::lcao::Screener</text>
</a>
</g>
</g>
<!-- Node1 -->
<g id="Node000001" class="node">
<title>Node1</title>
<g id="a_Node000001"><a xlink:href="classmpqc_1_1lcao_1_1_thresholded_screener.html" target="_top" xlink:title="ThresholdedScreener is a Screener equipped with a (mutable) real threshold.">
<polygon fill="white" stroke="#666666" points="334,-48.5 155,-48.5 155,-29.5 334,-29.5 334,-48.5"/>
<text text-anchor="middle" x="244.5" y="-36.5" font-family="FreeSans" font-size="10.00">mpqc::lcao::ThresholdedScreener</text>
</a>
</g>
</g>
<!-- Node0&#45;&gt;Node1 -->
<g id="edge54_Node000000_Node000001" class="edge">
<title>Node0&#45;&gt;Node1</title>
<g id="a_edge54_Node000000_Node000001"><a xlink:title=" ">
<path fill="none" stroke="#63b8ff" d="M129.22,-39C137.59,-39 146.23,-39 154.84,-39"/>
<polygon fill="#63b8ff" stroke="#63b8ff" points="129.16,-35.5 119.16,-39 129.16,-42.5 129.16,-35.5"/>
</a>
</g>
</g>
<!-- Node2 -->
<g id="Node000002" class="node">
<title>Node2</title>
<g id="a_Node000002"><a xlink:href="classmpqc_1_1lcao_1_1gaussian_1_1_schwarz_screen.html" target="_top" xlink:title="Class for Schwarz based screening.">
<polygon fill="white" stroke="#666666" points="489,-54 370,-54 370,-24 489,-24 489,-54"/>
<text text-anchor="start" x="378" y="-42" font-family="FreeSans" font-size="10.00">mpqc::lcao::gaussian</text>
<text text-anchor="middle" x="429.5" y="-31" font-family="FreeSans" font-size="10.00">::SchwarzScreen</text>
</a>
</g>
</g>
<!-- Node1&#45;&gt;Node2 -->
<g id="edge55_Node000001_Node000002" class="edge">
<title>Node1&#45;&gt;Node2</title>
<g id="a_edge55_Node000001_Node000002"><a xlink:title=" ">
<path fill="none" stroke="#63b8ff" d="M344.29,-39C352.99,-39 361.6,-39 369.81,-39"/>
<polygon fill="#63b8ff" stroke="#63b8ff" points="344.05,-35.5 334.05,-39 344.05,-42.5 344.05,-35.5"/>
</a>
</g>
</g>
<!-- Node3 -->
<g id="Node000003" class="node">
<title>Node3</title>
<g id="a_Node000003"><a xlink:href="classmpqc_1_1lcao_1_1gaussian_1_1_q_q_r_screen.html" target="_top" xlink:title="Implements QQR screener for shell&#45;sets of integrals.">
<polygon fill="white" stroke="#666666" points="644,-78 525,-78 525,-48 644,-48 644,-78"/>
<text text-anchor="start" x="533" y="-66" font-family="FreeSans" font-size="10.00">mpqc::lcao::gaussian</text>
<text text-anchor="middle" x="584.5" y="-55" font-family="FreeSans" font-size="10.00">::QQRScreen</text>
</a>
</g>
</g>
<!-- Node2&#45;&gt;Node3 -->
<g id="edge56_Node000002_Node000003" class="edge">
<title>Node2&#45;&gt;Node3</title>
<g id="a_edge56_Node000002_Node000003"><a xlink:title=" ">
<path fill="none" stroke="#63b8ff" d="M499.21,-49.78C507.8,-51.13 516.53,-52.49 524.94,-53.81"/>
<polygon fill="#63b8ff" stroke="#63b8ff" points="499.64,-46.3 489.22,-48.21 498.55,-53.22 499.64,-46.3"/>
</a>
</g>
</g>
<!-- Node4 -->
<g id="Node000004" class="node">
<title>Node4</title>
<g id="a_Node000004"><a xlink:href="classmpqc_1_1lcao_1_1gaussian_1_1_s_q_vl_screen.html" target="_top" xlink:title="Implements SQVlScreen screener for shell&#45;sets of (0|12) integrals.">
<polygon fill="white" stroke="#666666" points="644,-30 525,-30 525,0 644,0 644,-30"/>
<text text-anchor="start" x="533" y="-18" font-family="FreeSans" font-size="10.00">mpqc::lcao::gaussian</text>
<text text-anchor="middle" x="584.5" y="-7" font-family="FreeSans" font-size="10.00">::SQVlScreen</text>
</a>
</g>
</g>
<!-- Node2&#45;&gt;Node4 -->
<g id="edge57_Node000002_Node000004" class="edge">
<title>Node2&#45;&gt;Node4</title>
<g id="a_edge57_Node000002_Node000004"><a xlink:title=" ">
<path fill="none" stroke="#63b8ff" d="M499.21,-28.22C507.8,-26.87 516.53,-25.51 524.94,-24.19"/>
<polygon fill="#63b8ff" stroke="#63b8ff" points="498.55,-24.78 489.22,-29.79 499.64,-31.7 498.55,-24.78"/>
</a>
</g>
</g>
</g>
</svg>
