<?xml version="1.0" encoding="UTF-8" standalone="no"?>
<!DOCTYPE svg PUBLIC "-//W3C//DTD SVG 1.1//EN"
 "http://www.w3.org/Graphics/SVG/1.1/DTD/svg11.dtd">
<!-- Generated by graphviz version 2.43.0 (0)
 -->
<!-- Title: Graphical Class Hierarchy Pages: 1 -->
<svg width="335pt" height="360pt"
 viewBox="0.00 0.00 335.00 360.00" xmlns="http://www.w3.org/2000/svg" xmlns:xlink="http://www.w3.org/1999/xlink">
<g id="graph0" class="graph" transform="scale(1 1) rotate(0) translate(4 356)">
<title>Graphical Class Hierarchy</title>
<!-- Node0 -->
<g id="Node000000" class="node">
<title>Node0</title>
<g id="a_Node000000"><a xlink:title=" ">
<polygon fill="#e0e0e0" stroke="#999999" points="124,-185 0,-185 0,-166 124,-166 124,-185"/>
<text text-anchor="middle" x="62" y="-173" font-family="FreeSans" font-size="10.00">boost::iterator_facade</text>
</a>
</g>
</g>
<!-- Node1 -->
<g id="Node000001" class="node">
<title>Node1</title>
<g id="a_Node000001"><a xlink:href="structmpqc_1_1_fermion_occupation_n_bit_string_1_1_iterator.html" target="_top" xlink:title=" ">
<polygon fill="white" stroke="#666666" points="326,-352 161,-352 161,-311 326,-311 326,-352"/>
<text text-anchor="start" x="169" y="-340" font-family="FreeSans" font-size="10.00">mpqc::FermionOccupationNBit</text>
<text text-anchor="start" x="169" y="-329" font-family="FreeSans" font-size="10.00">String&lt; Ns &gt;::Iterator&lt;</text>
<text text-anchor="middle" x="243.5" y="-318" font-family="FreeSans" font-size="10.00"> OverSetBits &gt;</text>
</a>
</g>
</g>
<!-- Node0&#45;&gt;Node1 -->
<g id="edge1_Node000000_Node000001" class="edge">
<title>Node0&#45;&gt;Node1</title>
<g id="a_edge1_Node000000_Node000001"><a xlink:title=" ">
<path fill="none" stroke="#63b8ff" d="M72.77,-194.1C87.95,-221.34 119.72,-272.02 160,-301.5 164.8,-305.01 170.05,-308.15 175.5,-310.94"/>
<polygon fill="#63b8ff" stroke="#63b8ff" points="75.79,-192.33 67.94,-185.21 69.63,-195.67 75.79,-192.33"/>
</a>
</g>
</g>
<!-- Node2 -->
<g id="Node000002" class="node">
<title>Node2</title>
<g id="a_Node000002"><a xlink:href="structmpqc_1_1_fermion_occupation_n_bit_string_1_1_iterator.html" target="_top" xlink:title=" ">
<polygon fill="white" stroke="#666666" points="326,-292.5 161,-292.5 161,-262.5 326,-262.5 326,-292.5"/>
<text text-anchor="start" x="169" y="-280.5" font-family="FreeSans" font-size="10.00">mpqc::FermionOccupationNBit</text>
<text text-anchor="middle" x="243.5" y="-269.5" font-family="FreeSans" font-size="10.00">String&lt; Ns &gt;::Iterator&lt; Set &gt;</text>
</a>
</g>
</g>
<!-- Node0&#45;&gt;Node2 -->
<g id="edge2_Node000000_Node000002" class="edge">
<title>Node0&#45;&gt;Node2</title>
<g id="a_edge2_Node000000_Node000002"><a xlink:title=" ">
<path fill="none" stroke="#63b8ff" d="M79.72,-192.45C97.97,-210.05 128.75,-237.23 160,-253.5 166.48,-256.88 173.51,-259.84 180.63,-262.42"/>
<polygon fill="#63b8ff" stroke="#63b8ff" points="81.85,-189.63 72.27,-185.11 76.94,-194.62 81.85,-189.63"/>
</a>
</g>
</g>
<!-- Node3 -->
<g id="Node000003" class="node">
<title>Node3</title>
<g id="a_Node000003"><a xlink:href="structmpqc_1_1_fermion_string_complete_set_1_1_iterator.html" target="_top" xlink:title="iterator is a proxy to a FString object, stores an ordinal">
<polygon fill="white" stroke="#666666" points="326,-244.5 161,-244.5 161,-214.5 326,-214.5 326,-244.5"/>
<text text-anchor="start" x="169" y="-232.5" font-family="FreeSans" font-size="10.00">mpqc::FermionStringComplete</text>
<text text-anchor="middle" x="243.5" y="-221.5" font-family="FreeSans" font-size="10.00">Set&lt; FString &gt;::Iterator</text>
</a>
</g>
</g>
<!-- Node0&#45;&gt;Node3 -->
<g id="edge3_Node000000_Node000003" class="edge">
<title>Node0&#45;&gt;Node3</title>
<g id="a_edge3_Node000000_Node000003"><a xlink:title=" ">
<path fill="none" stroke="#63b8ff" d="M103.38,-188.15C120.78,-193.56 141.37,-199.91 160,-205.5 169.72,-208.42 180.09,-211.48 190.09,-214.4"/>
<polygon fill="#63b8ff" stroke="#63b8ff" points="104.13,-184.72 93.54,-185.09 102.05,-191.41 104.13,-184.72"/>
</a>
</g>
</g>
<!-- Node4 -->
<g id="Node000004" class="node">
<title>Node4</title>
<g id="a_Node000004"><a xlink:href="structmpqc_1_1_string_to_sorted_vector_1_1_iterator.html" target="_top" xlink:title="iterator is a proxy to a FString object, stores an ordinal">
<polygon fill="white" stroke="#666666" points="319.5,-196 167.5,-196 167.5,-155 319.5,-155 319.5,-196"/>
<text text-anchor="start" x="175.5" y="-184" font-family="FreeSans" font-size="10.00">mpqc::StringToSortedVector</text>
<text text-anchor="start" x="175.5" y="-173" font-family="FreeSans" font-size="10.00">&lt; String, Value, Compare,</text>
<text text-anchor="middle" x="243.5" y="-162" font-family="FreeSans" font-size="10.00"> Equal, HashMap &gt;::Iterator</text>
</a>
</g>
</g>
<!-- Node0&#45;&gt;Node4 -->
<g id="edge4_Node000000_Node000004" class="edge">
<title>Node0&#45;&gt;Node4</title>
<g id="a_edge4_Node000000_Node000004"><a xlink:title=" ">
<path fill="none" stroke="#63b8ff" d="M134.3,-175.5C145.16,-175.5 156.4,-175.5 167.34,-175.5"/>
<polygon fill="#63b8ff" stroke="#63b8ff" points="134.02,-172 124.02,-175.5 134.02,-179 134.02,-172"/>
</a>
</g>
</g>
<!-- Node5 -->
<g id="Node000005" class="node">
<title>Node5</title>
<g id="a_Node000005"><a xlink:href="classmpqc_1_1_supercell_1_1_iterator.html" target="_top" xlink:title=" ">
<polygon fill="white" stroke="#666666" points="312,-137 175,-137 175,-118 312,-118 312,-137"/>
<text text-anchor="middle" x="243.5" y="-125" font-family="FreeSans" font-size="10.00">mpqc::Supercell::Iterator</text>
</a>
</g>
</g>
<!-- Node0&#45;&gt;Node5 -->
<g id="edge5_Node000000_Node000005" class="edge">
<title>Node0&#45;&gt;Node5</title>
<g id="a_edge5_Node000000_Node000005"><a xlink:title=" ">
<path fill="none" stroke="#63b8ff" d="M102.87,-162.95C120.33,-157.62 141.11,-151.49 160,-146.5 172.5,-143.19 186.16,-139.92 198.7,-137.04"/>
<polygon fill="#63b8ff" stroke="#63b8ff" points="101.54,-159.7 93.01,-165.99 103.59,-166.39 101.54,-159.7"/>
</a>
</g>
</g>
<!-- Node6 -->
<g id="Node000006" class="node">
<title>Node6</title>
<g id="a_Node000006"><a xlink:href="classmpqc_1_1utility_1_1_generator_d_c_iterator.html" target="_top" xlink:title="Iterator facade for a Generator.">
<polygon fill="white" stroke="#666666" points="309.5,-100 177.5,-100 177.5,-59 309.5,-59 309.5,-100"/>
<text text-anchor="start" x="185.5" y="-88" font-family="FreeSans" font-size="10.00">mpqc::utility::Generator</text>
<text text-anchor="start" x="185.5" y="-77" font-family="FreeSans" font-size="10.00">DCIterator&lt; Generator,</text>
<text text-anchor="middle" x="243.5" y="-66" font-family="FreeSans" font-size="10.00"> T, typename &gt;</text>
</a>
</g>
</g>
<!-- Node0&#45;&gt;Node6 -->
<g id="edge6_Node000000_Node000006" class="edge">
<title>Node0&#45;&gt;Node6</title>
<g id="a_edge6_Node000000_Node000006"><a xlink:title=" ">
<path fill="none" stroke="#63b8ff" d="M82.86,-159.81C101.85,-145.35 131.7,-123.99 160,-109.5 166.51,-106.17 173.48,-103.03 180.51,-100.13"/>
<polygon fill="#63b8ff" stroke="#63b8ff" points="80.72,-157.04 74.94,-165.92 85,-162.58 80.72,-157.04"/>
</a>
</g>
</g>
<!-- Node7 -->
<g id="Node000007" class="node">
<title>Node7</title>
<g id="a_Node000007"><a xlink:href="classmpqc_1_1utility_1_1_generator_iterator.html" target="_top" xlink:title="Iterator facade for a Generator.">
<polygon fill="white" stroke="#666666" points="327,-41 160,-41 160,0 327,0 327,-41"/>
<text text-anchor="start" x="168" y="-29" font-family="FreeSans" font-size="10.00">mpqc::utility::Generator</text>
<text text-anchor="start" x="168" y="-18" font-family="FreeSans" font-size="10.00">Iterator&lt; Generator, Generator</text>
<text text-anchor="middle" x="243.5" y="-7" font-family="FreeSans" font-size="10.00">Ptr, T &gt;</text>
</a>
</g>
</g>
<!-- Node0&#45;&gt;Node7 -->
<g id="edge7_Node000000_Node000007" class="edge">
<title>Node0&#45;&gt;Node7</title>
<g id="a_edge7_Node000000_Node000007"><a xlink:title=" ">
<path fill="none" stroke="#63b8ff" d="M72.8,-157.05C88.04,-130.03 119.87,-79.75 160,-50.5 164.8,-47 170.06,-43.87 175.51,-41.08"/>
<polygon fill="#63b8ff" stroke="#63b8ff" points="69.71,-155.42 67.96,-165.87 75.84,-158.79 69.71,-155.42"/>
</a>
</g>
</g>
</g>
</svg>
