<?xml version="1.0" encoding="UTF-8" standalone="no"?>
<!DOCTYPE svg PUBLIC "-//W3C//DTD SVG 1.1//EN"
 "http://www.w3.org/Graphics/SVG/1.1/DTD/svg11.dtd">
<!-- Generated by graphviz version 2.43.0 (0)
 -->
<!-- Title: Graphical Class Hierarchy Pages: 1 -->
<svg width="583pt" height="64pt"
 viewBox="0.00 0.00 583.00 64.00" xmlns="http://www.w3.org/2000/svg" xmlns:xlink="http://www.w3.org/1999/xlink">
<g id="graph0" class="graph" transform="scale(1 1) rotate(0) translate(4 60)">
<title>Graphical Class Hierarchy</title>
<!-- Node0 -->
<g id="Node000000" class="node">
<title>Node0</title>
<g id="a_Node000000"><a xlink:href="classmpqc_1_1_cluster_concept.html" target="_top" xlink:title=" ">
<polygon fill="white" stroke="#666666" points="124,-37 0,-37 0,-18 124,-18 124,-37"/>
<text text-anchor="middle" x="62" y="-25" font-family="FreeSans" font-size="10.00">mpqc::ClusterConcept</text>
</a>
</g>
</g>
<!-- Node1 -->
<g id="Node000001" class="node">
<title>Node1</title>
<g id="a_Node000001"><a xlink:href="classmpqc_1_1_atom_based_cluster_concept.html" target="_top" xlink:title=" ">
<polygon fill="white" stroke="#666666" points="340,-56 160,-56 160,-37 340,-37 340,-56"/>
<text text-anchor="middle" x="250" y="-44" font-family="FreeSans" font-size="10.00">mpqc::AtomBasedClusterConcept</text>
</a>
</g>
</g>
<!-- Node0&#45;&gt;Node1 -->
<g id="edge24_Node000000_Node000001" class="edge">
<title>Node0&#45;&gt;Node1</title>
<g id="a_edge24_Node000000_Node000001"><a xlink:title=" ">
<path fill="none" stroke="#63b8ff" d="M134.24,-34.78C142.62,-35.63 151.25,-36.52 159.84,-37.39"/>
<polygon fill="#63b8ff" stroke="#63b8ff" points="134.46,-31.28 124.16,-33.75 133.75,-38.25 134.46,-31.28"/>
</a>
</g>
</g>
<!-- Node3 -->
<g id="Node000003" class="node">
<title>Node3</title>
<g id="a_Node000003"><a xlink:href="classmpqc_1_1_cluster_model.html" target="_top" xlink:title=" ">
<polygon fill="white" stroke="#666666" points="321.5,-19 178.5,-19 178.5,0 321.5,0 321.5,-19"/>
<text text-anchor="middle" x="250" y="-7" font-family="FreeSans" font-size="10.00">mpqc::ClusterModel&lt; T &gt;</text>
</a>
</g>
</g>
<!-- Node0&#45;&gt;Node3 -->
<g id="edge26_Node000000_Node000003" class="edge">
<title>Node0&#45;&gt;Node3</title>
<g id="a_edge26_Node000000_Node000003"><a xlink:title=" ">
<path fill="none" stroke="#63b8ff" d="M134.51,-20.58C148.92,-19.18 164.07,-17.72 178.45,-16.33"/>
<polygon fill="#63b8ff" stroke="#63b8ff" points="133.78,-17.13 124.16,-21.58 134.45,-24.1 133.78,-17.13"/>
</a>
</g>
</g>
<!-- Node2 -->
<g id="Node000002" class="node">
<title>Node2</title>
<g id="a_Node000002"><a xlink:href="classmpqc_1_1_atom_based_cluster_model.html" target="_top" xlink:title=" ">
<polygon fill="white" stroke="#666666" points="575,-56 376,-56 376,-37 575,-37 575,-56"/>
<text text-anchor="middle" x="475.5" y="-44" font-family="FreeSans" font-size="10.00">mpqc::AtomBasedClusterModel&lt; T &gt;</text>
</a>
</g>
</g>
<!-- Node1&#45;&gt;Node2 -->
<g id="edge25_Node000001_Node000002" class="edge">
<title>Node1&#45;&gt;Node2</title>
<g id="a_edge25_Node000001_Node000002"><a xlink:title=" ">
<path fill="none" stroke="#63b8ff" d="M350.49,-46.5C358.9,-46.5 367.4,-46.5 375.8,-46.5"/>
<polygon fill="#63b8ff" stroke="#63b8ff" points="350.3,-43 340.3,-46.5 350.3,-50 350.3,-43"/>
</a>
</g>
</g>
</g>
</svg>
