<?xml version="1.0" encoding="UTF-8" standalone="no"?>
<!DOCTYPE svg PUBLIC "-//W3C//DTD SVG 1.1//EN"
 "http://www.w3.org/Graphics/SVG/1.1/DTD/svg11.dtd">
<!-- Generated by graphviz version 2.43.0 (0)
 -->
<!-- Title: Graphical Class Hierarchy Pages: 1 -->
<svg width="618pt" height="120pt"
 viewBox="0.00 0.00 618.00 119.50" xmlns="http://www.w3.org/2000/svg" xmlns:xlink="http://www.w3.org/1999/xlink">
<g id="graph0" class="graph" transform="scale(1 1) rotate(0) translate(4 115.5)">
<title>Graphical Class Hierarchy</title>
<!-- Node0 -->
<g id="Node000000" class="node">
<title>Node0</title>
<g id="a_Node000000"><a xlink:href="structmpqc_1_1utility_1_1_generator_range_facade.html" target="_top" xlink:title=" ">
<polygon fill="white" stroke="#666666" points="179,-78.5 0,-78.5 0,-26.5 179,-26.5 179,-78.5"/>
<text text-anchor="start" x="8" y="-66.5" font-family="FreeSans" font-size="10.00">mpqc::utility::Generator</text>
<text text-anchor="start" x="8" y="-55.5" font-family="FreeSans" font-size="10.00">RangeFacade&lt; GeneratorAdaptor</text>
<text text-anchor="start" x="8" y="-44.5" font-family="FreeSans" font-size="10.00">&lt; BaseGenerator, Filter &gt;,</text>
<text text-anchor="middle" x="89.5" y="-33.5" font-family="FreeSans" font-size="10.00"> BaseGenerator::value_type &gt;</text>
</a>
</g>
</g>
<!-- Node1 -->
<g id="Node000001" class="node">
<title>Node1</title>
<g id="a_Node000001"><a xlink:href="classmpqc_1_1utility_1_1_filtered_generator.html" target="_top" xlink:title=" ">
<polygon fill="white" stroke="#666666" points="384,-67.5 215,-67.5 215,-37.5 384,-37.5 384,-67.5"/>
<text text-anchor="start" x="223" y="-55.5" font-family="FreeSans" font-size="10.00">mpqc::utility::FilteredGenerator</text>
<text text-anchor="middle" x="299.5" y="-44.5" font-family="FreeSans" font-size="10.00">&lt; BaseGenerator, Filter &gt;</text>
</a>
</g>
</g>
<!-- Node0&#45;&gt;Node1 -->
<g id="edge316_Node000000_Node000001" class="edge">
<title>Node0&#45;&gt;Node1</title>
<g id="a_edge316_Node000000_Node000001"><a xlink:title=" ">
<path fill="none" stroke="#63b8ff" d="M189.05,-52.5C197.62,-52.5 206.25,-52.5 214.7,-52.5"/>
<polygon fill="#63b8ff" stroke="#63b8ff" points="189.01,-49 179.01,-52.5 189.01,-56 189.01,-49"/>
</a>
</g>
</g>
<!-- Node2 -->
<g id="Node000002" class="node">
<title>Node2</title>
<g id="a_Node000002"><a xlink:href="structmpqc_1_1_h_b_determinant_replacement_generator.html" target="_top" xlink:title=" ">
<polygon fill="white" stroke="#666666" points="610,-111.5 420,-111.5 420,-59.5 610,-59.5 610,-111.5"/>
<text text-anchor="start" x="428" y="-99.5" font-family="FreeSans" font-size="10.00">mpqc::HBDeterminantReplacement</text>
<text text-anchor="start" x="428" y="-88.5" font-family="FreeSans" font-size="10.00">Generator&lt; RCa, RCb, RAa,</text>
<text text-anchor="start" x="428" y="-77.5" font-family="FreeSans" font-size="10.00"> RAb, StringOrStringRange,</text>
<text text-anchor="middle" x="515" y="-66.5" font-family="FreeSans" font-size="10.00"> AbsHBData, T &gt;</text>
</a>
</g>
</g>
<!-- Node1&#45;&gt;Node2 -->
<g id="edge317_Node000001_Node000002" class="edge">
<title>Node1&#45;&gt;Node2</title>
<g id="a_edge317_Node000001_Node000002"><a xlink:title=" ">
<path fill="none" stroke="#63b8ff" d="M394.2,-66.98C402.72,-68.3 411.35,-69.63 419.88,-70.95"/>
<polygon fill="#63b8ff" stroke="#63b8ff" points="394.69,-63.52 384.27,-65.45 393.62,-70.43 394.69,-63.52"/>
</a>
</g>
</g>
<!-- Node3 -->
<g id="Node000003" class="node">
<title>Node3</title>
<g id="a_Node000003"><a xlink:href="structmpqc_1_1_h_b_string_replacement_generator.html" target="_top" xlink:title=" ">
<polygon fill="white" stroke="#666666" points="593.5,-41 436.5,-41 436.5,0 593.5,0 593.5,-41"/>
<text text-anchor="start" x="444.5" y="-29" font-family="FreeSans" font-size="10.00">mpqc::HBStringReplacement</text>
<text text-anchor="start" x="444.5" y="-18" font-family="FreeSans" font-size="10.00">Generator&lt; RC, RA, String,</text>
<text text-anchor="middle" x="515" y="-7" font-family="FreeSans" font-size="10.00"> AbsHBData, T &gt;</text>
</a>
</g>
</g>
<!-- Node1&#45;&gt;Node3 -->
<g id="edge318_Node000001_Node000003" class="edge">
<title>Node1&#45;&gt;Node3</title>
<g id="a_edge318_Node000001_Node000003"><a xlink:title=" ">
<path fill="none" stroke="#63b8ff" d="M394.41,-38.42C408.43,-36.32 422.76,-34.18 436.39,-32.13"/>
<polygon fill="#63b8ff" stroke="#63b8ff" points="393.64,-35 384.27,-39.94 394.68,-41.92 393.64,-35"/>
</a>
</g>
</g>
</g>
</svg>
