<?xml version="1.0" encoding="UTF-8" standalone="no"?>
<!DOCTYPE svg PUBLIC "-//W3C//DTD SVG 1.1//EN"
 "http://www.w3.org/Graphics/SVG/1.1/DTD/svg11.dtd">
<!-- Generated by graphviz version 2.43.0 (0)
 -->
<!-- Title: Graphical Class Hierarchy Pages: 1 -->
<svg width="341pt" height="98pt"
 viewBox="0.00 0.00 341.00 97.50" xmlns="http://www.w3.org/2000/svg" xmlns:xlink="http://www.w3.org/1999/xlink">
<g id="graph0" class="graph" transform="scale(1 1) rotate(0) translate(4 93.5)">
<title>Graphical Class Hierarchy</title>
<!-- Node0 -->
<g id="Node000000" class="node">
<title>Node0</title>
<g id="a_Node000000"><a xlink:href="structmpqc_1_1lcao_1_1cc_1_1_reduce_base.html" target="_top" xlink:title=" ">
<polygon fill="white" stroke="#666666" points="152,-62.5 0,-62.5 0,-32.5 152,-32.5 152,-62.5"/>
<text text-anchor="start" x="8" y="-50.5" font-family="FreeSans" font-size="10.00">mpqc::lcao::cc::ReduceBase</text>
<text text-anchor="middle" x="76" y="-39.5" font-family="FreeSans" font-size="10.00">&lt; Tile, Policy &gt;</text>
</a>
</g>
</g>
<!-- Node1 -->
<g id="Node000001" class="node">
<title>Node1</title>
<g id="a_Node000001"><a xlink:href="structmpqc_1_1lcao_1_1cc_1_1_c_c_s_d___t___reduce.html" target="_top" xlink:title=" ">
<polygon fill="white" stroke="#666666" points="333,-89.5 188,-89.5 188,-59.5 333,-59.5 333,-89.5"/>
<text text-anchor="start" x="196" y="-77.5" font-family="FreeSans" font-size="10.00">mpqc::lcao::cc::CCSD</text>
<text text-anchor="middle" x="260.5" y="-66.5" font-family="FreeSans" font-size="10.00">_T_Reduce&lt; Tile, Policy &gt;</text>
</a>
</g>
</g>
<!-- Node0&#45;&gt;Node1 -->
<g id="edge42_Node000000_Node000001" class="edge">
<title>Node0&#45;&gt;Node1</title>
<g id="a_edge42_Node000000_Node000001"><a xlink:title=" ">
<path fill="none" stroke="#63b8ff" d="M162.04,-60.08C170.63,-61.35 179.29,-62.63 187.71,-63.88"/>
<polygon fill="#63b8ff" stroke="#63b8ff" points="162.42,-56.6 152.02,-58.6 161.4,-63.52 162.42,-56.6"/>
</a>
</g>
</g>
<!-- Node2 -->
<g id="Node000002" class="node">
<title>Node2</title>
<g id="a_Node000002"><a xlink:href="structmpqc_1_1lcao_1_1cc_1_1_c_c_s_d___t___reduce_symm.html" target="_top" xlink:title=" ">
<polygon fill="white" stroke="#666666" points="327,-41 194,-41 194,0 327,0 327,-41"/>
<text text-anchor="start" x="202" y="-29" font-family="FreeSans" font-size="10.00">mpqc::lcao::cc::CCSD</text>
<text text-anchor="start" x="202" y="-18" font-family="FreeSans" font-size="10.00">_T_ReduceSymm&lt; Tile,</text>
<text text-anchor="middle" x="260.5" y="-7" font-family="FreeSans" font-size="10.00"> Policy &gt;</text>
</a>
</g>
</g>
<!-- Node0&#45;&gt;Node2 -->
<g id="edge43_Node000000_Node000002" class="edge">
<title>Node0&#45;&gt;Node2</title>
<g id="a_edge43_Node000000_Node000002"><a xlink:title=" ">
<path fill="none" stroke="#63b8ff" d="M162.16,-34.9C172.8,-33.33 183.54,-31.74 193.82,-30.22"/>
<polygon fill="#63b8ff" stroke="#63b8ff" points="161.4,-31.48 152.02,-36.4 162.42,-38.4 161.4,-31.48"/>
</a>
</g>
</g>
</g>
</svg>
