<?xml version="1.0" encoding="UTF-8" standalone="no"?>
<!DOCTYPE svg PUBLIC "-//W3C//DTD SVG 1.1//EN"
 "http://www.w3.org/Graphics/SVG/1.1/DTD/svg11.dtd">
<!-- Generated by graphviz version 2.43.0 (0)
 -->
<!-- Title: Graphical Class Hierarchy Pages: 1 -->
<svg width="676pt" height="108pt"
 viewBox="0.00 0.00 676.00 108.00" xmlns="http://www.w3.org/2000/svg" xmlns:xlink="http://www.w3.org/1999/xlink">
<g id="graph0" class="graph" transform="scale(1 1) rotate(0) translate(4 104)">
<title>Graphical Class Hierarchy</title>
<!-- Node0 -->
<g id="Node000000" class="node">
<title>Node0</title>
<g id="a_Node000000"><a xlink:href="classmpqc_1_1utility_1_1_registry.html" target="_top" xlink:title=" ">
<polygon fill="white" stroke="#666666" points="124,-59 0,-59 0,-29 124,-29 124,-59"/>
<text text-anchor="start" x="8" y="-47" font-family="FreeSans" font-size="10.00">mpqc::utility::Registry</text>
<text text-anchor="middle" x="62" y="-36" font-family="FreeSans" font-size="10.00">&lt; SPIndex, Value &gt;</text>
</a>
</g>
</g>
<!-- Node1 -->
<g id="Node000001" class="node">
<title>Node1</title>
<g id="a_Node000001"><a xlink:href="classmpqc_1_1_s_p_registry.html" target="_top" xlink:title="map SPIndex to Value object">
<polygon fill="white" stroke="#666666" points="312,-53.5 160,-53.5 160,-34.5 312,-34.5 312,-53.5"/>
<text text-anchor="middle" x="236" y="-41.5" font-family="FreeSans" font-size="10.00">mpqc::SPRegistry&lt; Value &gt;</text>
</a>
</g>
</g>
<!-- Node0&#45;&gt;Node1 -->
<g id="edge331_Node000000_Node000001" class="edge">
<title>Node0&#45;&gt;Node1</title>
<g id="a_edge331_Node000000_Node000001"><a xlink:title=" ">
<path fill="none" stroke="#63b8ff" d="M134.32,-44C142.77,-44 151.42,-44 159.92,-44"/>
<polygon fill="#63b8ff" stroke="#63b8ff" points="134.13,-40.5 124.13,-44 134.13,-47.5 134.13,-40.5"/>
</a>
</g>
</g>
<!-- Node2 -->
<g id="Node000002" class="node">
<title>Node2</title>
<g id="a_Node000002"><a xlink:href="classmpqc_1_1_s_p_space_registry.html" target="_top" xlink:title=" ">
<polygon fill="white" stroke="#666666" points="494,-100 348,-100 348,-48 494,-48 494,-100"/>
<text text-anchor="start" x="356" y="-88" font-family="FreeSans" font-size="10.00">mpqc::SPSpaceRegistry</text>
<text text-anchor="start" x="356" y="-77" font-family="FreeSans" font-size="10.00">&lt; Array, OrbitalSpace</text>
<text text-anchor="start" x="356" y="-66" font-family="FreeSans" font-size="10.00">&lt; Array::value_type, Array</text>
<text text-anchor="middle" x="421" y="-55" font-family="FreeSans" font-size="10.00">::policy_type &gt; &gt;</text>
</a>
</g>
</g>
<!-- Node1&#45;&gt;Node2 -->
<g id="edge332_Node000001_Node000002" class="edge">
<title>Node1&#45;&gt;Node2</title>
<g id="a_edge332_Node000001_Node000002"><a xlink:title=" ">
<path fill="none" stroke="#63b8ff" d="M305.14,-55.17C319.08,-57.46 333.79,-59.87 347.85,-62.17"/>
<polygon fill="#63b8ff" stroke="#63b8ff" points="305.59,-51.7 295.15,-53.53 304.46,-58.61 305.59,-51.7"/>
</a>
</g>
</g>
<!-- Node4 -->
<g id="Node000004" class="node">
<title>Node4</title>
<g id="a_Node000004"><a xlink:href="classmpqc_1_1lcao_1_1gaussian_1_1_basis_registry.html" target="_top" xlink:title=" ">
<polygon fill="white" stroke="#666666" points="480.5,-30 361.5,-30 361.5,0 480.5,0 480.5,-30"/>
<text text-anchor="start" x="369.5" y="-18" font-family="FreeSans" font-size="10.00">mpqc::lcao::gaussian</text>
<text text-anchor="middle" x="421" y="-7" font-family="FreeSans" font-size="10.00">::BasisRegistry</text>
</a>
</g>
</g>
<!-- Node1&#45;&gt;Node4 -->
<g id="edge334_Node000001_Node000004" class="edge">
<title>Node1&#45;&gt;Node4</title>
<g id="a_edge334_Node000001_Node000004"><a xlink:title=" ">
<path fill="none" stroke="#63b8ff" d="M307.5,-32.83C325.29,-30.01 344.21,-27.01 361.35,-24.29"/>
<polygon fill="#63b8ff" stroke="#63b8ff" points="306.5,-29.44 297.17,-34.46 307.6,-36.36 306.5,-29.44"/>
</a>
</g>
</g>
<!-- Node3 -->
<g id="Node000003" class="node">
<title>Node3</title>
<g id="a_Node000003"><a xlink:href="classmpqc_1_1lcao_1_1_orbital_space_registry.html" target="_top" xlink:title="OrbitalSpaceRegistry is an OrbitalRegistry that maps OrbitalIndex to OrbitalSpace class.">
<polygon fill="white" stroke="#666666" points="668,-89 530,-89 530,-59 668,-59 668,-89"/>
<text text-anchor="start" x="538" y="-77" font-family="FreeSans" font-size="10.00">mpqc::lcao::OrbitalSpace</text>
<text text-anchor="middle" x="599" y="-66" font-family="FreeSans" font-size="10.00">Registry&lt; Array &gt;</text>
</a>
</g>
</g>
<!-- Node2&#45;&gt;Node3 -->
<g id="edge333_Node000002_Node000003" class="edge">
<title>Node2&#45;&gt;Node3</title>
<g id="a_edge333_Node000002_Node000003"><a xlink:title=" ">
<path fill="none" stroke="#63b8ff" d="M504.18,-74C512.82,-74 521.53,-74 529.99,-74"/>
<polygon fill="#63b8ff" stroke="#63b8ff" points="504.09,-70.5 494.09,-74 504.09,-77.5 504.09,-70.5"/>
</a>
</g>
</g>
</g>
</svg>
