<?xml version="1.0" encoding="UTF-8" standalone="no"?>
<!DOCTYPE svg PUBLIC "-//W3C//DTD SVG 1.1//EN"
 "http://www.w3.org/Graphics/SVG/1.1/DTD/svg11.dtd">
<!-- Generated by graphviz version 2.43.0 (0)
 -->
<!-- Title: Graphical Class Hierarchy Pages: 1 -->
<svg width="338pt" height="98pt"
 viewBox="0.00 0.00 338.00 97.50" xmlns="http://www.w3.org/2000/svg" xmlns:xlink="http://www.w3.org/1999/xlink">
<g id="graph0" class="graph" transform="scale(1 1) rotate(0) translate(4 93.5)">
<title>Graphical Class Hierarchy</title>
<!-- Node0 -->
<g id="Node000000" class="node">
<title>Node0</title>
<g id="a_Node000000"><a xlink:href="classmpqc_1_1lcao_1_1_density_builder.html" target="_top" xlink:title="Computes new density and orbitals from a Fock matrix.">
<polygon fill="white" stroke="#666666" points="148,-62.5 0,-62.5 0,-32.5 148,-32.5 148,-62.5"/>
<text text-anchor="start" x="8" y="-50.5" font-family="FreeSans" font-size="10.00">mpqc::lcao::DensityBuilder</text>
<text text-anchor="middle" x="74" y="-39.5" font-family="FreeSans" font-size="10.00">&lt; Tile, Policy &gt;</text>
</a>
</g>
</g>
<!-- Node1 -->
<g id="Node000001" class="node">
<title>Node1</title>
<g id="a_Node000001"><a xlink:href="classmpqc_1_1lcao_1_1_e_solve_density_builder.html" target="_top" xlink:title="Computes new density and orbitals from a Fock matrix using an eigensolver.">
<polygon fill="white" stroke="#666666" points="330,-89.5 184,-89.5 184,-59.5 330,-59.5 330,-89.5"/>
<text text-anchor="start" x="192" y="-77.5" font-family="FreeSans" font-size="10.00">mpqc::lcao::ESolveDensity</text>
<text text-anchor="middle" x="257" y="-66.5" font-family="FreeSans" font-size="10.00">Builder&lt; Tile, Policy &gt;</text>
</a>
</g>
</g>
<!-- Node0&#45;&gt;Node1 -->
<g id="edge44_Node000000_Node000001" class="edge">
<title>Node0&#45;&gt;Node1</title>
<g id="a_edge44_Node000000_Node000001"><a xlink:title=" ">
<path fill="none" stroke="#63b8ff" d="M158.11,-59.9C166.69,-61.18 175.36,-62.47 183.81,-63.73"/>
<polygon fill="#63b8ff" stroke="#63b8ff" points="158.5,-56.42 148.1,-58.4 157.47,-63.34 158.5,-56.42"/>
</a>
</g>
</g>
<!-- Node2 -->
<g id="Node000002" class="node">
<title>Node2</title>
<g id="a_Node000002"><a xlink:href="classmpqc_1_1lcao_1_1_purification_density_builder.html" target="_top" xlink:title="Computes new density matrix and orbitals from a Fock matrix by purification.">
<polygon fill="white" stroke="#666666" points="322.5,-41 191.5,-41 191.5,0 322.5,0 322.5,-41"/>
<text text-anchor="start" x="199.5" y="-29" font-family="FreeSans" font-size="10.00">mpqc::lcao::Purification</text>
<text text-anchor="start" x="199.5" y="-18" font-family="FreeSans" font-size="10.00">DensityBuilder&lt; Tile,</text>
<text text-anchor="middle" x="257" y="-7" font-family="FreeSans" font-size="10.00"> Policy &gt;</text>
</a>
</g>
</g>
<!-- Node0&#45;&gt;Node2 -->
<g id="edge45_Node000000_Node000002" class="edge">
<title>Node0&#45;&gt;Node2</title>
<g id="a_edge45_Node000000_Node000002"><a xlink:title=" ">
<path fill="none" stroke="#63b8ff" d="M158.25,-35.08C169.37,-33.42 180.64,-31.74 191.38,-30.14"/>
<polygon fill="#63b8ff" stroke="#63b8ff" points="157.47,-31.66 148.1,-36.6 158.5,-38.58 157.47,-31.66"/>
</a>
</g>
</g>
</g>
</svg>
