<?xml version="1.0" encoding="UTF-8" standalone="no"?>
<!DOCTYPE svg PUBLIC "-//W3C//DTD SVG 1.1//EN"
 "http://www.w3.org/Graphics/SVG/1.1/DTD/svg11.dtd">
<!-- Generated by graphviz version 2.43.0 (0)
 -->
<!-- Title: Graphical Class Hierarchy Pages: 1 -->
<svg width="623pt" height="38pt"
 viewBox="0.00 0.00 623.00 38.00" xmlns="http://www.w3.org/2000/svg" xmlns:xlink="http://www.w3.org/1999/xlink">
<g id="graph0" class="graph" transform="scale(1 1) rotate(0) translate(4 34)">
<title>Graphical Class Hierarchy</title>
<!-- Node0 -->
<g id="Node000000" class="node">
<title>Node0</title>
<g id="a_Node000000"><a xlink:href="structmpqc_1_1_many_body_operator_tensors_3_011_00_01_t_01_4.html" target="_top" xlink:title=" ">
<polygon fill="white" stroke="#666666" points="181,-30 0,-30 0,0 181,0 181,-30"/>
<text text-anchor="start" x="8" y="-18" font-family="FreeSans" font-size="10.00">mpqc::ManyBodyOperatorTensors</text>
<text text-anchor="middle" x="90.5" y="-7" font-family="FreeSans" font-size="10.00">&lt; 1, T &gt;</text>
</a>
</g>
</g>
<!-- Node1 -->
<g id="Node000001" class="node">
<title>Node1</title>
<g id="a_Node000001"><a xlink:href="structmpqc_1_1_many_body_operator_tensors_3_012_00_01_t_01_4.html" target="_top" xlink:title=" ">
<polygon fill="white" stroke="#666666" points="398,-30 217,-30 217,0 398,0 398,-30"/>
<text text-anchor="start" x="225" y="-18" font-family="FreeSans" font-size="10.00">mpqc::ManyBodyOperatorTensors</text>
<text text-anchor="middle" x="307.5" y="-7" font-family="FreeSans" font-size="10.00">&lt; 2, T &gt;</text>
</a>
</g>
</g>
<!-- Node0&#45;&gt;Node1 -->
<g id="edge58_Node000000_Node000001" class="edge">
<title>Node0&#45;&gt;Node1</title>
<g id="a_edge58_Node000000_Node000001"><a xlink:title=" ">
<path fill="none" stroke="#63b8ff" d="M191.37,-15C199.81,-15 208.32,-15 216.68,-15"/>
<polygon fill="#63b8ff" stroke="#63b8ff" points="191.12,-11.5 181.12,-15 191.12,-18.5 191.12,-11.5"/>
</a>
</g>
</g>
<!-- Node2 -->
<g id="Node000002" class="node">
<title>Node2</title>
<g id="a_Node000002"><a xlink:href="structmpqc_1_1_many_body_operator_tensors_3_013_00_01_t_01_4.html" target="_top" xlink:title=" ">
<polygon fill="white" stroke="#666666" points="615,-30 434,-30 434,0 615,0 615,-30"/>
<text text-anchor="start" x="442" y="-18" font-family="FreeSans" font-size="10.00">mpqc::ManyBodyOperatorTensors</text>
<text text-anchor="middle" x="524.5" y="-7" font-family="FreeSans" font-size="10.00">&lt; 3, T &gt;</text>
</a>
</g>
</g>
<!-- Node1&#45;&gt;Node2 -->
<g id="edge59_Node000001_Node000002" class="edge">
<title>Node1&#45;&gt;Node2</title>
<g id="a_edge59_Node000001_Node000002"><a xlink:title=" ">
<path fill="none" stroke="#63b8ff" d="M408.37,-15C416.81,-15 425.32,-15 433.68,-15"/>
<polygon fill="#63b8ff" stroke="#63b8ff" points="408.12,-11.5 398.12,-15 408.12,-18.5 408.12,-11.5"/>
</a>
</g>
</g>
</g>
</svg>
