<?xml version="1.0" encoding="UTF-8" standalone="no"?>
<!DOCTYPE svg PUBLIC "-//W3C//DTD SVG 1.1//EN"
 "http://www.w3.org/Graphics/SVG/1.1/DTD/svg11.dtd">
<!-- Generated by graphviz version 2.43.0 (0)
 -->
<!-- Title: Graphical Class Hierarchy Pages: 1 -->
<svg width="279pt" height="134pt"
 viewBox="0.00 0.00 279.00 134.00" xmlns="http://www.w3.org/2000/svg" xmlns:xlink="http://www.w3.org/1999/xlink">
<g id="graph0" class="graph" transform="scale(1 1) rotate(0) translate(4 130)">
<title>Graphical Class Hierarchy</title>
<!-- Node0 -->
<g id="Node000000" class="node">
<title>Node0</title>
<g id="a_Node000000"><a xlink:title=" ">
<polygon fill="#e0e0e0" stroke="#999999" points="77,-72.5 0,-72.5 0,-53.5 77,-53.5 77,-72.5"/>
<text text-anchor="middle" x="38.5" y="-60.5" font-family="FreeSans" font-size="10.00">std::optional</text>
</a>
</g>
</g>
<!-- Node1 -->
<g id="Node000001" class="node">
<title>Node1</title>
<g id="a_Node000001"><a xlink:href="structmpqc_1_1utility_1_1_nonrelocatable_optional.html" target="_top" xlink:title=" ">
<polygon fill="white" stroke="#666666" points="271,-126 113,-126 113,-96 271,-96 271,-126"/>
<text text-anchor="start" x="121" y="-114" font-family="FreeSans" font-size="10.00">mpqc::utility::Nonrelocatable</text>
<text text-anchor="middle" x="192" y="-103" font-family="FreeSans" font-size="10.00">Optional&lt; value_type &gt;</text>
</a>
</g>
</g>
<!-- Node0&#45;&gt;Node1 -->
<g id="edge349_Node000000_Node000001" class="edge">
<title>Node0&#45;&gt;Node1</title>
<g id="a_edge349_Node000000_Node000001"><a xlink:title=" ">
<path fill="none" stroke="#63b8ff" d="M78.01,-75.71C89.27,-79.39 101.62,-83.39 113,-87 122.18,-89.91 131.99,-92.97 141.45,-95.89"/>
<polygon fill="#63b8ff" stroke="#63b8ff" points="79.03,-72.36 68.44,-72.58 76.85,-79.02 79.03,-72.36"/>
</a>
</g>
</g>
<!-- Node2 -->
<g id="Node000002" class="node">
<title>Node2</title>
<g id="a_Node000002"><a xlink:href="structmpqc_1_1utility_1_1_nonrelocatable_optional.html" target="_top" xlink:title=" ">
<polygon fill="white" stroke="#666666" points="271,-78 113,-78 113,-48 271,-48 271,-78"/>
<text text-anchor="start" x="121" y="-66" font-family="FreeSans" font-size="10.00">mpqc::utility::Nonrelocatable</text>
<text text-anchor="middle" x="192" y="-55" font-family="FreeSans" font-size="10.00">Optional&lt; hbvalue_type &gt;</text>
</a>
</g>
</g>
<!-- Node0&#45;&gt;Node2 -->
<g id="edge350_Node000000_Node000002" class="edge">
<title>Node0&#45;&gt;Node2</title>
<g id="a_edge350_Node000000_Node000002"><a xlink:title=" ">
<path fill="none" stroke="#63b8ff" d="M87.35,-63C95.5,-63 104.15,-63 112.83,-63"/>
<polygon fill="#63b8ff" stroke="#63b8ff" points="87.34,-59.5 77.34,-63 87.34,-66.5 87.34,-59.5"/>
</a>
</g>
</g>
<!-- Node3 -->
<g id="Node000003" class="node">
<title>Node3</title>
<g id="a_Node000003"><a xlink:href="structmpqc_1_1utility_1_1_nonrelocatable_optional.html" target="_top" xlink:title="std::optional&lt;T&gt; for nonrelocatable T types">
<polygon fill="white" stroke="#666666" points="271,-30 113,-30 113,0 271,0 271,-30"/>
<text text-anchor="start" x="121" y="-18" font-family="FreeSans" font-size="10.00">mpqc::utility::Nonrelocatable</text>
<text text-anchor="middle" x="192" y="-7" font-family="FreeSans" font-size="10.00">Optional&lt; T &gt;</text>
</a>
</g>
</g>
<!-- Node0&#45;&gt;Node3 -->
<g id="edge351_Node000000_Node000003" class="edge">
<title>Node0&#45;&gt;Node3</title>
<g id="a_edge351_Node000000_Node000003"><a xlink:title=" ">
<path fill="none" stroke="#63b8ff" d="M78.01,-50.29C89.27,-46.61 101.62,-42.61 113,-39 122.18,-36.09 131.99,-33.03 141.45,-30.11"/>
<polygon fill="#63b8ff" stroke="#63b8ff" points="76.85,-46.98 68.44,-53.42 79.03,-53.64 76.85,-46.98"/>
</a>
</g>
</g>
</g>
</svg>
