<?xml version="1.0" encoding="UTF-8" standalone="no"?>
<!DOCTYPE svg PUBLIC "-//W3C//DTD SVG 1.1//EN"
 "http://www.w3.org/Graphics/SVG/1.1/DTD/svg11.dtd">
<!-- Generated by graphviz version 2.43.0 (0)
 -->
<!-- Title: Graphical Class Hierarchy Pages: 1 -->
<svg width="363pt" height="258pt"
 viewBox="0.00 0.00 363.00 257.50" xmlns="http://www.w3.org/2000/svg" xmlns:xlink="http://www.w3.org/1999/xlink">
<g id="graph0" class="graph" transform="scale(1 1) rotate(0) translate(4 253.5)">
<title>Graphical Class Hierarchy</title>
<!-- Node0 -->
<g id="Node000000" class="node">
<title>Node0</title>
<g id="a_Node000000"><a xlink:href="classmpqc_1_1math_1_1_function_visitor_base.html" target="_top" xlink:title=" ">
<polygon fill="white" stroke="#666666" points="158,-147 0,-147 0,-117 158,-117 158,-147"/>
<text text-anchor="start" x="8" y="-135" font-family="FreeSans" font-size="10.00">mpqc::math::FunctionVisitor</text>
<text text-anchor="middle" x="79" y="-124" font-family="FreeSans" font-size="10.00">Base&lt; function_base_type &gt;</text>
</a>
</g>
</g>
<!-- Node1 -->
<g id="Node000001" class="node">
<title>Node1</title>
<g id="a_Node000001"><a xlink:href="classmpqc_1_1_energy_1_1_provider.html" target="_top" xlink:title=" ">
<polygon fill="white" stroke="#666666" points="339,-249.5 210,-249.5 210,-230.5 339,-230.5 339,-249.5"/>
<text text-anchor="middle" x="274.5" y="-237.5" font-family="FreeSans" font-size="10.00">mpqc::Energy::Provider</text>
</a>
</g>
</g>
<!-- Node0&#45;&gt;Node1 -->
<g id="edge266_Node000000_Node000001" class="edge">
<title>Node0&#45;&gt;Node1</title>
<g id="a_edge266_Node000000_Node000001"><a xlink:title=" ">
<path fill="none" stroke="#63b8ff" d="M102.13,-154.06C123.76,-174.39 158.54,-203.93 194,-221 202.06,-224.88 210.96,-228 219.81,-230.5"/>
<polygon fill="#63b8ff" stroke="#63b8ff" points="104.42,-151.41 94.78,-147.03 99.58,-156.47 104.42,-151.41"/>
</a>
</g>
</g>
<!-- Node2 -->
<g id="Node000002" class="node">
<title>Node2</title>
<g id="a_Node000002"><a xlink:href="classmpqc_1_1_excitation_energy_1_1_provider.html" target="_top" xlink:title=" ">
<polygon fill="white" stroke="#666666" points="340.5,-212 208.5,-212 208.5,-182 340.5,-182 340.5,-212"/>
<text text-anchor="start" x="216.5" y="-200" font-family="FreeSans" font-size="10.00">mpqc::ExcitationEnergy</text>
<text text-anchor="middle" x="274.5" y="-189" font-family="FreeSans" font-size="10.00">::Provider</text>
</a>
</g>
</g>
<!-- Node0&#45;&gt;Node2 -->
<g id="edge267_Node000000_Node000002" class="edge">
<title>Node0&#45;&gt;Node2</title>
<g id="a_edge267_Node000000_Node000002"><a xlink:title=" ">
<path fill="none" stroke="#63b8ff" d="M129.67,-150.5C149.59,-157.75 172.81,-165.99 194,-173 203.03,-175.99 212.7,-179.03 222.06,-181.9"/>
<polygon fill="#63b8ff" stroke="#63b8ff" points="130.78,-147.18 120.18,-147.03 128.37,-153.75 130.78,-147.18"/>
</a>
</g>
</g>
<!-- Node3 -->
<g id="Node000003" class="node">
<title>Node3</title>
<g id="a_Node000003"><a xlink:href="classmpqc_1_1_g_f_real_pole_1_1_provider.html" target="_top" xlink:title=" ">
<polygon fill="white" stroke="#666666" points="350.5,-163.5 198.5,-163.5 198.5,-144.5 350.5,-144.5 350.5,-163.5"/>
<text text-anchor="middle" x="274.5" y="-151.5" font-family="FreeSans" font-size="10.00">mpqc::GFRealPole::Provider</text>
</a>
</g>
</g>
<!-- Node0&#45;&gt;Node3 -->
<g id="edge268_Node000000_Node000003" class="edge">
<title>Node0&#45;&gt;Node3</title>
<g id="a_edge268_Node000000_Node000003"><a xlink:title=" ">
<path fill="none" stroke="#63b8ff" d="M168.13,-142.02C178.18,-143.16 188.34,-144.32 198.2,-145.44"/>
<polygon fill="#63b8ff" stroke="#63b8ff" points="168.48,-138.54 158.15,-140.88 167.69,-145.49 168.48,-138.54"/>
</a>
</g>
</g>
<!-- Node4 -->
<g id="Node000004" class="node">
<title>Node4</title>
<g id="a_Node000004"><a xlink:href="classmpqc_1_1_many_body_hamiltonian_1_1_provider.html" target="_top" xlink:title=" ">
<polygon fill="white" stroke="#666666" points="355,-126 194,-126 194,-96 355,-96 355,-126"/>
<text text-anchor="start" x="202" y="-114" font-family="FreeSans" font-size="10.00">mpqc::ManyBodyHamiltonian</text>
<text text-anchor="middle" x="274.5" y="-103" font-family="FreeSans" font-size="10.00">&lt; Tile, Policy &gt;::Provider</text>
</a>
</g>
</g>
<!-- Node0&#45;&gt;Node4 -->
<g id="edge269_Node000000_Node000004" class="edge">
<title>Node0&#45;&gt;Node4</title>
<g id="a_edge269_Node000000_Node000004"><a xlink:title=" ">
<path fill="none" stroke="#63b8ff" d="M168.13,-122.44C176.69,-121.51 185.33,-120.57 193.8,-119.65"/>
<polygon fill="#63b8ff" stroke="#63b8ff" points="167.71,-118.96 158.15,-123.52 168.47,-125.92 167.71,-118.96"/>
</a>
</g>
</g>
<!-- Node5 -->
<g id="Node000005" class="node">
<title>Node5</title>
<g id="a_Node000005"><a xlink:href="classmpqc_1_1_perturbation_response_1_1_provider.html" target="_top" xlink:title=" ">
<polygon fill="white" stroke="#666666" points="353,-78 196,-78 196,-48 353,-48 353,-78"/>
<text text-anchor="start" x="204" y="-66" font-family="FreeSans" font-size="10.00">mpqc::PerturbationResponse</text>
<text text-anchor="middle" x="274.5" y="-55" font-family="FreeSans" font-size="10.00">::Provider</text>
</a>
</g>
</g>
<!-- Node0&#45;&gt;Node5 -->
<g id="edge270_Node000000_Node000005" class="edge">
<title>Node0&#45;&gt;Node5</title>
<g id="a_edge270_Node000000_Node000005"><a xlink:title=" ">
<path fill="none" stroke="#63b8ff" d="M125.43,-113.07C146.19,-104.68 171.18,-94.93 194,-87 202.85,-83.92 212.33,-80.86 221.55,-78.01"/>
<polygon fill="#63b8ff" stroke="#63b8ff" points="123.85,-109.93 115.91,-116.94 126.49,-116.42 123.85,-109.93"/>
</a>
</g>
</g>
<!-- Node6 -->
<g id="Node000006" class="node">
<title>Node6</title>
<g id="a_Node000006"><a xlink:href="classmpqc_1_1_r_d_m_1_1_provider.html" target="_top" xlink:title="An abstract provider of RDM&lt;&gt;">
<polygon fill="white" stroke="#666666" points="343,-30 206,-30 206,0 343,0 343,-30"/>
<text text-anchor="start" x="214" y="-18" font-family="FreeSans" font-size="10.00">mpqc::RDM&lt; Tile, Policy</text>
<text text-anchor="middle" x="274.5" y="-7" font-family="FreeSans" font-size="10.00"> &gt;::Provider</text>
</a>
</g>
</g>
<!-- Node0&#45;&gt;Node6 -->
<g id="edge271_Node000000_Node000006" class="edge">
<title>Node0&#45;&gt;Node6</title>
<g id="a_edge271_Node000000_Node000006"><a xlink:title=" ">
<path fill="none" stroke="#63b8ff" d="M101.81,-109.74C123.45,-88.79 158.45,-57.9 194,-39 200.36,-35.62 207.28,-32.64 214.28,-30.04"/>
<polygon fill="#63b8ff" stroke="#63b8ff" points="99.14,-107.45 94.46,-116.96 104.05,-112.44 99.14,-107.45"/>
</a>
</g>
</g>
</g>
</svg>
