<?xml version="1.0" encoding="UTF-8" standalone="no"?>
<!DOCTYPE svg PUBLIC "-//W3C//DTD SVG 1.1//EN"
 "http://www.w3.org/Graphics/SVG/1.1/DTD/svg11.dtd">
<!-- Generated by graphviz version 2.43.0 (0)
 -->
<!-- Title: Graphical Class Hierarchy Pages: 1 -->
<svg width="295pt" height="86pt"
 viewBox="0.00 0.00 295.00 86.00" xmlns="http://www.w3.org/2000/svg" xmlns:xlink="http://www.w3.org/1999/xlink">
<g id="graph0" class="graph" transform="scale(1 1) rotate(0) translate(4 82)">
<title>Graphical Class Hierarchy</title>
<!-- Node0 -->
<g id="Node000000" class="node">
<title>Node0</title>
<g id="a_Node000000"><a xlink:title=" ">
<polygon fill="#e0e0e0" stroke="#999999" points="122,-48.5 0,-48.5 0,-29.5 122,-29.5 122,-48.5"/>
<text text-anchor="middle" x="61" y="-36.5" font-family="FreeSans" font-size="10.00">std::integral_constant</text>
</a>
</g>
</g>
<!-- Node1 -->
<g id="Node000001" class="node">
<title>Node1</title>
<g id="a_Node000001"><a xlink:href="structmpqc_1_1utility_1_1recursive__tuple__size_3_01_t_01_6_01_4.html" target="_top" xlink:title=" ">
<polygon fill="white" stroke="#666666" points="286.5,-78 158.5,-78 158.5,-48 286.5,-48 286.5,-78"/>
<text text-anchor="start" x="166.5" y="-66" font-family="FreeSans" font-size="10.00">mpqc::utility::recursive</text>
<text text-anchor="middle" x="222.5" y="-55" font-family="FreeSans" font-size="10.00">_tuple_size&lt; T &amp; &gt;</text>
</a>
</g>
</g>
<!-- Node0&#45;&gt;Node1 -->
<g id="edge346_Node000000_Node000001" class="edge">
<title>Node0&#45;&gt;Node1</title>
<g id="a_edge346_Node000000_Node000001"><a xlink:title=" ">
<path fill="none" stroke="#63b8ff" d="M132.39,-49.59C141.07,-50.9 149.9,-52.23 158.46,-53.51"/>
<polygon fill="#63b8ff" stroke="#63b8ff" points="132.71,-46.1 122.3,-48.07 131.67,-53.02 132.71,-46.1"/>
</a>
</g>
</g>
<!-- Node2 -->
<g id="Node000002" class="node">
<title>Node2</title>
<g id="a_Node000002"><a xlink:href="structmpqc_1_1utility_1_1recursive__tuple__size_3_01const_01_t_01_4.html" target="_top" xlink:title=" ">
<polygon fill="white" stroke="#666666" points="287,-30 158,-30 158,0 287,0 287,-30"/>
<text text-anchor="start" x="166" y="-18" font-family="FreeSans" font-size="10.00">mpqc::utility::recursive</text>
<text text-anchor="middle" x="222.5" y="-7" font-family="FreeSans" font-size="10.00">_tuple_size&lt; const T &gt;</text>
</a>
</g>
</g>
<!-- Node0&#45;&gt;Node2 -->
<g id="edge347_Node000000_Node000002" class="edge">
<title>Node0&#45;&gt;Node2</title>
<g id="a_edge347_Node000000_Node000002"><a xlink:title=" ">
<path fill="none" stroke="#63b8ff" d="M132.24,-28.43C140.79,-27.14 149.48,-25.84 157.92,-24.57"/>
<polygon fill="#63b8ff" stroke="#63b8ff" points="131.67,-24.98 122.3,-29.93 132.71,-31.9 131.67,-24.98"/>
</a>
</g>
</g>
</g>
</svg>
