<?xml version="1.0" encoding="UTF-8" standalone="no"?>
<!DOCTYPE svg PUBLIC "-//W3C//DTD SVG 1.1//EN"
 "http://www.w3.org/Graphics/SVG/1.1/DTD/svg11.dtd">
<!-- Generated by graphviz version 2.43.0 (0)
 -->
<!-- Title: Graphical Class Hierarchy Pages: 1 -->
<svg width="483pt" height="81pt"
 viewBox="0.00 0.00 483.00 81.00" xmlns="http://www.w3.org/2000/svg" xmlns:xlink="http://www.w3.org/1999/xlink">
<g id="graph0" class="graph" transform="scale(1 1) rotate(0) translate(4 77)">
<title>Graphical Class Hierarchy</title>
<!-- Node0 -->
<g id="Node000000" class="node">
<title>Node0</title>
<g id="a_Node000000"><a xlink:title=" ">
<polygon fill="#e0e0e0" stroke="#999999" points="68,-45.5 0,-45.5 0,-26.5 68,-26.5 68,-45.5"/>
<text text-anchor="middle" x="34" y="-33.5" font-family="FreeSans" font-size="10.00">std::vector</text>
</a>
</g>
</g>
<!-- Node1 -->
<g id="Node000001" class="node">
<title>Node1</title>
<g id="a_Node000001"><a xlink:href="classmpqc_1_1_sparse_orbital_range.html" target="_top" xlink:title="a sparse set of orbitals">
<polygon fill="white" stroke="#666666" points="260.5,-67.5 114.5,-67.5 114.5,-48.5 260.5,-48.5 260.5,-67.5"/>
<text text-anchor="middle" x="187.5" y="-55.5" font-family="FreeSans" font-size="10.00">mpqc::SparseOrbitalRange</text>
</a>
</g>
</g>
<!-- Node0&#45;&gt;Node1 -->
<g id="edge375_Node000000_Node000001" class="edge">
<title>Node0&#45;&gt;Node1</title>
<g id="a_edge375_Node000000_Node000001"><a xlink:title=" ">
<path fill="none" stroke="#8b1a1a" d="M78.49,-42.31C91.74,-44.24 106.61,-46.4 120.98,-48.49"/>
<polygon fill="#8b1a1a" stroke="#8b1a1a" points="78.65,-38.8 68.25,-40.83 77.64,-45.73 78.65,-38.8"/>
</a>
</g>
</g>
<!-- Node3 -->
<g id="Node000003" class="node">
<title>Node3</title>
<g id="a_Node000003"><a xlink:href="structmpqc_1_1pbc_1_1ma_1_1_m_a___c_f_f_lattice_sum_1_1_m_set.html" target="_top" xlink:title="container of values for each m for a given L">
<polygon fill="white" stroke="#666666" points="271,-30 104,-30 104,0 271,0 271,-30"/>
<text text-anchor="start" x="112" y="-18" font-family="FreeSans" font-size="10.00">mpqc::pbc::ma::MA_CFFLattice</text>
<text text-anchor="middle" x="187.5" y="-7" font-family="FreeSans" font-size="10.00">Sum&lt; Factory &gt;::MSet&lt; L, T &gt;</text>
</a>
</g>
</g>
<!-- Node0&#45;&gt;Node3 -->
<g id="edge377_Node000000_Node000003" class="edge">
<title>Node0&#45;&gt;Node3</title>
<g id="a_edge377_Node000000_Node000003"><a xlink:title=" ">
<path fill="none" stroke="#63b8ff" d="M78.2,-30.01C86.34,-28.88 95.11,-27.67 104,-26.44"/>
<polygon fill="#63b8ff" stroke="#63b8ff" points="77.67,-26.55 68.25,-31.39 78.63,-33.49 77.67,-26.55"/>
</a>
</g>
</g>
<!-- Node2 -->
<g id="Node000002" class="node">
<title>Node2</title>
<g id="a_Node000002"><a xlink:href="classmpqc_1_1_partitioned_sparse_orbital_range.html" target="_top" xlink:title=" ">
<polygon fill="white" stroke="#666666" points="475,-73 307,-73 307,-43 475,-43 475,-73"/>
<text text-anchor="start" x="315" y="-61" font-family="FreeSans" font-size="10.00">mpqc::PartitionedSparseOrbital</text>
<text text-anchor="middle" x="391" y="-50" font-family="FreeSans" font-size="10.00">Range&lt; NP &gt;</text>
</a>
</g>
</g>
<!-- Node1&#45;&gt;Node2 -->
<g id="edge376_Node000001_Node000002" class="edge">
<title>Node1&#45;&gt;Node2</title>
<g id="a_edge376_Node000001_Node000002"><a xlink:title=" ">
<path fill="none" stroke="#63b8ff" d="M270.93,-58C282.72,-58 294.86,-58 306.67,-58"/>
<polygon fill="#63b8ff" stroke="#63b8ff" points="270.68,-54.5 260.68,-58 270.68,-61.5 270.68,-54.5"/>
</a>
</g>
</g>
</g>
</svg>
