<?xml version="1.0" encoding="UTF-8" standalone="no"?>
<!DOCTYPE svg PUBLIC "-//W3C//DTD SVG 1.1//EN"
 "http://www.w3.org/Graphics/SVG/1.1/DTD/svg11.dtd">
<!-- Generated by graphviz version 2.43.0 (0)
 -->
<!-- Title: Graphical Class Hierarchy Pages: 1 -->
<svg width="678pt" height="417pt"
 viewBox="0.00 0.00 678.00 416.50" xmlns="http://www.w3.org/2000/svg" xmlns:xlink="http://www.w3.org/1999/xlink">
<g id="graph0" class="graph" transform="scale(1 1) rotate(0) translate(4 412.5)">
<title>Graphical Class Hierarchy</title>
<!-- Node0 -->
<g id="Node000000" class="node">
<title>Node0</title>
<g id="a_Node000000"><a xlink:title=" ">
<polygon fill="#e0e0e0" stroke="#999999" points="213,-229 0,-229 0,-177 213,-177 213,-229"/>
<text text-anchor="start" x="8" y="-217" font-family="FreeSans" font-size="10.00">mpqc::utility::Generator</text>
<text text-anchor="start" x="8" y="-206" font-family="FreeSans" font-size="10.00">RangeFacade&lt; TensorProductGenerator</text>
<text text-anchor="start" x="8" y="-195" font-family="FreeSans" font-size="10.00">&lt; Generators... &gt;, std::tuple</text>
<text text-anchor="middle" x="106.5" y="-184" font-family="FreeSans" font-size="10.00">&lt; const Generators::value_type &amp;... &gt; &gt;</text>
</a>
</g>
</g>
<!-- Node1 -->
<g id="Node000001" class="node">
<title>Node1</title>
<g id="a_Node000001"><a xlink:href="structmpqc_1_1utility_1_1_tensor_product_generator.html" target="_top" xlink:title=" ">
<polygon fill="white" stroke="#666666" points="447,-408.5 263,-408.5 263,-345.5 447,-345.5 447,-408.5"/>
<text text-anchor="start" x="271" y="-396.5" font-family="FreeSans" font-size="10.00">mpqc::utility::TensorProduct</text>
<text text-anchor="start" x="271" y="-385.5" font-family="FreeSans" font-size="10.00">Generator&lt; OrbitalTupleGenerator</text>
<text text-anchor="start" x="271" y="-374.5" font-family="FreeSans" font-size="10.00">&lt; RC, String::uocc_range_type</text>
<text text-anchor="start" x="271" y="-363.5" font-family="FreeSans" font-size="10.00"> &gt;, OrbitalTupleGenerator&lt; RA,</text>
<text text-anchor="middle" x="355" y="-352.5" font-family="FreeSans" font-size="10.00"> String::occ_range_type &gt; &gt;</text>
</a>
</g>
</g>
<!-- Node0&#45;&gt;Node1 -->
<g id="edge321_Node000000_Node000001" class="edge">
<title>Node0&#45;&gt;Node1</title>
<g id="a_edge321_Node000000_Node000001"><a xlink:title=" ">
<path fill="none" stroke="#63b8ff" d="M136.45,-236.71C163.2,-266.16 205.3,-308.4 249,-336 254.29,-339.34 259.91,-342.49 265.67,-345.44"/>
<polygon fill="#63b8ff" stroke="#63b8ff" points="138.94,-234.25 129.66,-229.15 133.73,-238.93 138.94,-234.25"/>
</a>
</g>
</g>
<!-- Node3 -->
<g id="Node000003" class="node">
<title>Node3</title>
<g id="a_Node000003"><a xlink:href="structmpqc_1_1utility_1_1_tensor_product_generator.html" target="_top" xlink:title=" ">
<polygon fill="white" stroke="#666666" points="461,-327 249,-327 249,-253 461,-253 461,-327"/>
<text text-anchor="start" x="257" y="-315" font-family="FreeSans" font-size="10.00">mpqc::utility::TensorProduct</text>
<text text-anchor="start" x="257" y="-304" font-family="FreeSans" font-size="10.00">Generator&lt; TupleOfOrbitalTuples</text>
<text text-anchor="start" x="257" y="-293" font-family="FreeSans" font-size="10.00">Generator&lt; String::uocc_range</text>
<text text-anchor="start" x="257" y="-282" font-family="FreeSans" font-size="10.00">_type, RCa, RCb &gt;, TupleOfOrbitalTuples</text>
<text text-anchor="start" x="257" y="-271" font-family="FreeSans" font-size="10.00">Generator&lt; String::occ_range_type,</text>
<text text-anchor="middle" x="355" y="-260" font-family="FreeSans" font-size="10.00"> RCa, RCb &gt; &gt;</text>
</a>
</g>
</g>
<!-- Node0&#45;&gt;Node3 -->
<g id="edge323_Node000000_Node000003" class="edge">
<title>Node0&#45;&gt;Node3</title>
<g id="a_edge323_Node000000_Node000003"><a xlink:title=" ">
<path fill="none" stroke="#63b8ff" d="M191.08,-232.5C209.72,-239.08 229.73,-246.14 249.11,-252.98"/>
<polygon fill="#63b8ff" stroke="#63b8ff" points="192.05,-229.13 181.46,-229.1 189.72,-235.73 192.05,-229.13"/>
</a>
</g>
</g>
<!-- Node4 -->
<g id="Node000004" class="node">
<title>Node4</title>
<g id="a_Node000004"><a xlink:href="structmpqc_1_1utility_1_1_tensor_product_generator.html" target="_top" xlink:title=" ">
<polygon fill="white" stroke="#666666" points="452,-234.5 258,-234.5 258,-171.5 452,-171.5 452,-234.5"/>
<text text-anchor="start" x="266" y="-222.5" font-family="FreeSans" font-size="10.00">mpqc::utility::TensorProduct</text>
<text text-anchor="start" x="266" y="-211.5" font-family="FreeSans" font-size="10.00">Generator&lt; OrbitalTupleGenerator</text>
<text text-anchor="start" x="266" y="-200.5" font-family="FreeSans" font-size="10.00">&lt; Ranks, mpqc::meta::string_t</text>
<text text-anchor="start" x="266" y="-189.5" font-family="FreeSans" font-size="10.00">&lt; StringOrStringRange &gt;::occ_range</text>
<text text-anchor="middle" x="355" y="-178.5" font-family="FreeSans" font-size="10.00">_type &gt;... &gt;</text>
</a>
</g>
</g>
<!-- Node0&#45;&gt;Node4 -->
<g id="edge324_Node000000_Node000004" class="edge">
<title>Node0&#45;&gt;Node4</title>
<g id="a_edge324_Node000000_Node000004"><a xlink:title=" ">
<path fill="none" stroke="#63b8ff" d="M223.28,-203C234.89,-203 246.59,-203 257.96,-203"/>
<polygon fill="#63b8ff" stroke="#63b8ff" points="223.11,-199.5 213.11,-203 223.11,-206.5 223.11,-199.5"/>
</a>
</g>
</g>
<!-- Node5 -->
<g id="Node000005" class="node">
<title>Node5</title>
<g id="a_Node000005"><a xlink:href="structmpqc_1_1utility_1_1_tensor_product_generator.html" target="_top" xlink:title=" ">
<polygon fill="white" stroke="#666666" points="448,-153.5 262,-153.5 262,-112.5 448,-112.5 448,-153.5"/>
<text text-anchor="start" x="270" y="-141.5" font-family="FreeSans" font-size="10.00">mpqc::utility::TensorProduct</text>
<text text-anchor="start" x="270" y="-130.5" font-family="FreeSans" font-size="10.00">Generator&lt; OrbitalTupleGenerator</text>
<text text-anchor="middle" x="355" y="-119.5" font-family="FreeSans" font-size="10.00">&lt; Ranks, OrbitalIndexRange &gt;... &gt;</text>
</a>
</g>
</g>
<!-- Node0&#45;&gt;Node5 -->
<g id="edge325_Node000000_Node000005" class="edge">
<title>Node0&#45;&gt;Node5</title>
<g id="a_edge325_Node000000_Node000005"><a xlink:title=" ">
<path fill="none" stroke="#63b8ff" d="M208.95,-174.19C233.38,-167.25 258.99,-159.98 281.77,-153.51"/>
<polygon fill="#63b8ff" stroke="#63b8ff" points="207.95,-170.84 199.29,-176.93 209.86,-177.57 207.95,-170.84"/>
</a>
</g>
</g>
<!-- Node7 -->
<g id="Node000007" class="node">
<title>Node7</title>
<g id="a_Node000007"><a xlink:href="structmpqc_1_1utility_1_1_tensor_product_generator.html" target="_top" xlink:title="Tensor product of generators.">
<polygon fill="white" stroke="#666666" points="431,-89 279,-89 279,-59 431,-59 431,-89"/>
<text text-anchor="start" x="287" y="-77" font-family="FreeSans" font-size="10.00">mpqc::utility::TensorProduct</text>
<text text-anchor="middle" x="355" y="-66" font-family="FreeSans" font-size="10.00">Generator&lt; Generators &gt;</text>
</a>
</g>
</g>
<!-- Node0&#45;&gt;Node7 -->
<g id="edge327_Node000000_Node000007" class="edge">
<title>Node0&#45;&gt;Node7</title>
<g id="a_edge327_Node000000_Node000007"><a xlink:title=" ">
<path fill="none" stroke="#63b8ff" d="M146.31,-170.51C173.58,-149.07 211.71,-121.76 249,-104 261.41,-98.09 275.21,-93.12 288.62,-89.04"/>
<polygon fill="#63b8ff" stroke="#63b8ff" points="143.86,-167.99 138.21,-176.96 148.22,-173.47 143.86,-167.99"/>
</a>
</g>
</g>
<!-- Node2 -->
<g id="Node000002" class="node">
<title>Node2</title>
<g id="a_Node000002"><a xlink:href="structmpqc_1_1_full_cre_ann_generator.html" target="_top" xlink:title=" ">
<polygon fill="white" stroke="#666666" points="659,-392 508,-392 508,-362 659,-362 659,-392"/>
<text text-anchor="start" x="516" y="-380" font-family="FreeSans" font-size="10.00">mpqc::FullCreAnnGenerator</text>
<text text-anchor="middle" x="583.5" y="-369" font-family="FreeSans" font-size="10.00">&lt; String, RC, RA &gt;</text>
</a>
</g>
</g>
<!-- Node1&#45;&gt;Node2 -->
<g id="edge322_Node000001_Node000002" class="edge">
<title>Node1&#45;&gt;Node2</title>
<g id="a_edge322_Node000001_Node000002"><a xlink:title=" ">
<path fill="none" stroke="#63b8ff" d="M457.61,-377C474.52,-377 491.78,-377 507.85,-377"/>
<polygon fill="#63b8ff" stroke="#63b8ff" points="457.15,-373.5 447.15,-377 457.15,-380.5 457.15,-373.5"/>
</a>
</g>
</g>
<!-- Node6 -->
<g id="Node000006" class="node">
<title>Node6</title>
<g id="a_Node000006"><a xlink:href="structmpqc_1_1_tuple_of_orbital_tuples_generator.html" target="_top" xlink:title=" ">
<polygon fill="white" stroke="#666666" points="668.5,-159.5 498.5,-159.5 498.5,-118.5 668.5,-118.5 668.5,-159.5"/>
<text text-anchor="start" x="506.5" y="-147.5" font-family="FreeSans" font-size="10.00">mpqc::TupleOfOrbitalTuples</text>
<text text-anchor="start" x="506.5" y="-136.5" font-family="FreeSans" font-size="10.00">Generator&lt; OrbitalIndexRange,</text>
<text text-anchor="middle" x="583.5" y="-125.5" font-family="FreeSans" font-size="10.00"> Ranks &gt;</text>
</a>
</g>
</g>
<!-- Node5&#45;&gt;Node6 -->
<g id="edge326_Node000005_Node000006" class="edge">
<title>Node5&#45;&gt;Node6</title>
<g id="a_edge326_Node000005_Node000006"><a xlink:title=" ">
<path fill="none" stroke="#63b8ff" d="M458.34,-135.71C471.77,-136.07 485.41,-136.43 498.48,-136.77"/>
<polygon fill="#63b8ff" stroke="#63b8ff" points="458.22,-132.21 448.13,-135.44 458.03,-139.2 458.22,-132.21"/>
</a>
</g>
</g>
<!-- Node8 -->
<g id="Node000008" class="node">
<title>Node8</title>
<g id="a_Node000008"><a xlink:href="structmpqc_1_1_tuple_of_orbital_tuples_generator.html" target="_top" xlink:title=" ">
<polygon fill="white" stroke="#666666" points="670,-100 497,-100 497,-48 670,-48 670,-100"/>
<text text-anchor="start" x="505" y="-88" font-family="FreeSans" font-size="10.00">mpqc::TupleOfOrbitalTuples</text>
<text text-anchor="start" x="505" y="-77" font-family="FreeSans" font-size="10.00">Generator&lt; mpqc::meta::</text>
<text text-anchor="start" x="505" y="-66" font-family="FreeSans" font-size="10.00">string_t&lt; StringOrStringRange</text>
<text text-anchor="middle" x="583.5" y="-55" font-family="FreeSans" font-size="10.00"> &gt;::occ_range_type, RAa, RAb &gt;</text>
</a>
</g>
</g>
<!-- Node7&#45;&gt;Node8 -->
<g id="edge328_Node000007_Node000008" class="edge">
<title>Node7&#45;&gt;Node8</title>
<g id="a_edge328_Node000007_Node000008"><a xlink:title=" ">
<path fill="none" stroke="#63b8ff" d="M441.33,-74C459.42,-74 478.52,-74 496.63,-74"/>
<polygon fill="#63b8ff" stroke="#63b8ff" points="441.11,-70.5 431.11,-74 441.11,-77.5 441.11,-70.5"/>
</a>
</g>
</g>
<!-- Node9 -->
<g id="Node000009" class="node">
<title>Node9</title>
<g id="a_Node000009"><a xlink:href="structmpqc_1_1_full_cre_ann_pair_generator.html" target="_top" xlink:title=" ">
<polygon fill="white" stroke="#666666" points="668.5,-30 498.5,-30 498.5,0 668.5,0 668.5,-30"/>
<text text-anchor="start" x="506.5" y="-18" font-family="FreeSans" font-size="10.00">mpqc::FullCreAnnPairGenerator</text>
<text text-anchor="middle" x="583.5" y="-7" font-family="FreeSans" font-size="10.00">&lt; String, RCa, RCb, RAa, RAb &gt;</text>
</a>
</g>
</g>
<!-- Node7&#45;&gt;Node9 -->
<g id="edge329_Node000007_Node000009" class="edge">
<title>Node7&#45;&gt;Node9</title>
<g id="a_edge329_Node000007_Node000009"><a xlink:title=" ">
<path fill="none" stroke="#63b8ff" d="M423.55,-56.41C455.8,-48 494,-38.05 524.86,-30.01"/>
<polygon fill="#63b8ff" stroke="#63b8ff" points="422.54,-53.05 413.74,-58.96 424.3,-59.83 422.54,-53.05"/>
</a>
</g>
</g>
</g>
</svg>
