<?xml version="1.0" encoding="UTF-8" standalone="no"?>
<!DOCTYPE svg PUBLIC "-//W3C//DTD SVG 1.1//EN"
 "http://www.w3.org/Graphics/SVG/1.1/DTD/svg11.dtd">
<!-- Generated by graphviz version 2.43.0 (0)
 -->
<!-- Title: Graphical Class Hierarchy Pages: 1 -->
<svg width="792pt" height="182pt"
 viewBox="0.00 0.00 792.00 182.00" xmlns="http://www.w3.org/2000/svg" xmlns:xlink="http://www.w3.org/1999/xlink">
<g id="graph0" class="graph" transform="scale(1 1) rotate(0) translate(4 178)">
<title>Graphical Class Hierarchy</title>
<!-- Node0 -->
<g id="Node000000" class="node">
<title>Node0</title>
<g id="a_Node000000"><a xlink:title=" ">
<polygon fill="#e0e0e0" stroke="#999999" points="561,-126 417,-126 417,-96 561,-96 561,-126"/>
<text text-anchor="start" x="425" y="-114" font-family="FreeSans" font-size="10.00">madness::FunctionFunctor</text>
<text text-anchor="middle" x="489" y="-103" font-family="FreeSans" font-size="10.00">Interface</text>
</a>
</g>
</g>
<!-- Node1 -->
<g id="Node000001" class="node">
<title>Node1</title>
<g id="a_Node000001"><a xlink:href="classmpqc_1_1math_1_1mra_1_1_cartesian_gaussian.html" target="_top" xlink:title=" ">
<polygon fill="white" stroke="#666666" points="774.5,-174 621.5,-174 621.5,-144 774.5,-144 774.5,-174"/>
<text text-anchor="start" x="629.5" y="-162" font-family="FreeSans" font-size="10.00">mpqc::math::mra::Cartesian</text>
<text text-anchor="middle" x="698" y="-151" font-family="FreeSans" font-size="10.00">Gaussian&lt; T &gt;</text>
</a>
</g>
</g>
<!-- Node0&#45;&gt;Node1 -->
<g id="edge16_Node000000_Node000001" class="edge">
<title>Node0&#45;&gt;Node1</title>
<g id="a_edge16_Node000000_Node000001"><a xlink:title=" ">
<path fill="none" stroke="#63b8ff" d="M564.92,-128.37C586.99,-133.49 610.93,-139.04 632.3,-144"/>
<polygon fill="#63b8ff" stroke="#63b8ff" points="565.46,-124.91 554.93,-126.06 563.88,-131.72 565.46,-124.91"/>
</a>
</g>
</g>
<!-- Node2 -->
<g id="Node000002" class="node">
<title>Node2</title>
<g id="a_Node000002"><a xlink:href="classmpqc_1_1math_1_1mra_1_1_radial_atomic_subshell.html" target="_top" xlink:title="&quot;average&quot; radial part of an atomic subshell centered at the origin">
<polygon fill="white" stroke="#666666" points="784,-126 612,-126 612,-96 784,-96 784,-126"/>
<text text-anchor="start" x="620" y="-114" font-family="FreeSans" font-size="10.00">mpqc::math::mra::RadialAtomic</text>
<text text-anchor="middle" x="698" y="-103" font-family="FreeSans" font-size="10.00">Subshell&lt; T &gt;</text>
</a>
</g>
</g>
<!-- Node0&#45;&gt;Node2 -->
<g id="edge17_Node000000_Node000002" class="edge">
<title>Node0&#45;&gt;Node2</title>
<g id="a_edge17_Node000000_Node000002"><a xlink:title=" ">
<path fill="none" stroke="#63b8ff" d="M571.27,-111C584.55,-111 598.34,-111 611.71,-111"/>
<polygon fill="#63b8ff" stroke="#63b8ff" points="571.24,-107.5 561.24,-111 571.24,-114.5 571.24,-107.5"/>
</a>
</g>
</g>
<!-- Node3 -->
<g id="Node000003" class="node">
<title>Node3</title>
<g id="a_Node000003"><a xlink:href="structmpqc_1_1math_1_1mra_1_1_real_solid_harmonic_gaussian.html" target="_top" xlink:title=" ">
<polygon fill="white" stroke="#666666" points="774,-78 622,-78 622,-48 774,-48 774,-78"/>
<text text-anchor="start" x="630" y="-66" font-family="FreeSans" font-size="10.00">mpqc::math::mra::RealSolid</text>
<text text-anchor="middle" x="698" y="-55" font-family="FreeSans" font-size="10.00">HarmonicGaussian</text>
</a>
</g>
</g>
<!-- Node0&#45;&gt;Node3 -->
<g id="edge18_Node000000_Node000003" class="edge">
<title>Node0&#45;&gt;Node3</title>
<g id="a_edge18_Node000000_Node000003"><a xlink:title=" ">
<path fill="none" stroke="#63b8ff" d="M564.92,-93.63C586.99,-88.51 610.93,-82.96 632.3,-78"/>
<polygon fill="#63b8ff" stroke="#63b8ff" points="563.88,-90.28 554.93,-95.94 565.46,-97.09 563.88,-90.28"/>
</a>
</g>
</g>
<!-- Node6 -->
<g id="Node000006" class="node">
<title>Node6</title>
<g id="a_Node000006"><a xlink:href="classmpqc_1_1math_1_1_spherical_harmonic.html" target="_top" xlink:title=" ">
<polygon fill="white" stroke="#666666" points="173,-48.5 0,-48.5 0,-29.5 173,-29.5 173,-48.5"/>
<text text-anchor="middle" x="86.5" y="-36.5" font-family="FreeSans" font-size="10.00">mpqc::math::SphericalHarmonic</text>
</a>
</g>
</g>
<!-- Node5 -->
<g id="Node000005" class="node">
<title>Node5</title>
<g id="a_Node000005"><a xlink:href="classmpqc_1_1math_1_1_real_spherical_harmonic.html" target="_top" xlink:title=" ">
<polygon fill="white" stroke="#666666" points="361.5,-78 213.5,-78 213.5,-48 361.5,-48 361.5,-78"/>
<text text-anchor="start" x="221.5" y="-66" font-family="FreeSans" font-size="10.00">mpqc::math::RealSpherical</text>
<text text-anchor="middle" x="287.5" y="-55" font-family="FreeSans" font-size="10.00">Harmonic</text>
</a>
</g>
</g>
<!-- Node6&#45;&gt;Node5 -->
<g id="edge19_Node000006_Node000005" class="edge">
<title>Node6&#45;&gt;Node5</title>
<g id="a_edge19_Node000006_Node000005"><a xlink:title=" ">
<path fill="none" stroke="darkgreen" d="M176.7,-49.76C189,-51.24 201.52,-52.75 213.48,-54.19"/>
<polygon fill="darkgreen" stroke="darkgreen" points="176.78,-46.24 166.44,-48.52 175.94,-53.19 176.78,-46.24"/>
</a>
</g>
</g>
<!-- Node7 -->
<g id="Node000007" class="node">
<title>Node7</title>
<g id="a_Node000007"><a xlink:href="classmpqc_1_1math_1_1_spinor_spherical_harmonic.html" target="_top" xlink:title=" ">
<polygon fill="white" stroke="#666666" points="366,-30 209,-30 209,0 366,0 366,-30"/>
<text text-anchor="start" x="217" y="-18" font-family="FreeSans" font-size="10.00">mpqc::math::SpinorSpherical</text>
<text text-anchor="middle" x="287.5" y="-7" font-family="FreeSans" font-size="10.00">Harmonic</text>
</a>
</g>
</g>
<!-- Node6&#45;&gt;Node7 -->
<g id="edge22_Node000006_Node000007" class="edge">
<title>Node6&#45;&gt;Node7</title>
<g id="a_edge22_Node000006_Node000007"><a xlink:title=" ">
<path fill="none" stroke="#8b1a1a" d="M176.69,-28.24C187.45,-26.95 198.38,-25.63 208.96,-24.35"/>
<polygon fill="#8b1a1a" stroke="#8b1a1a" points="175.94,-24.81 166.44,-29.48 176.78,-31.76 175.94,-24.81"/>
</a>
</g>
</g>
<!-- Node4 -->
<g id="Node000004" class="node">
<title>Node4</title>
<g id="a_Node000004"><a xlink:href="classmpqc_1_1math_1_1_real_solid_harmonic.html" target="_top" xlink:title=" ">
<polygon fill="white" stroke="#666666" points="576,-72.5 402,-72.5 402,-53.5 576,-53.5 576,-72.5"/>
<text text-anchor="middle" x="489" y="-60.5" font-family="FreeSans" font-size="10.00">mpqc::math::RealSolidHarmonic</text>
</a>
</g>
</g>
<!-- Node5&#45;&gt;Node4 -->
<g id="edge20_Node000005_Node000004" class="edge">
<title>Node5&#45;&gt;Node4</title>
<g id="a_edge20_Node000005_Node000004"><a xlink:title=" ">
<path fill="none" stroke="#8b1a1a" d="M371.83,-63C381.69,-63 391.77,-63 401.66,-63"/>
<polygon fill="#8b1a1a" stroke="#8b1a1a" points="371.65,-59.5 361.65,-63 371.65,-66.5 371.65,-59.5"/>
</a>
</g>
</g>
<!-- Node4&#45;&gt;Node3 -->
<g id="edge21_Node000004_Node000003" class="edge">
<title>Node4&#45;&gt;Node3</title>
<g id="a_edge21_Node000004_Node000003"><a xlink:title=" ">
<path fill="none" stroke="#8b1a1a" d="M586.6,-63C598.4,-63 610.31,-63 621.72,-63"/>
<polygon fill="#8b1a1a" stroke="#8b1a1a" points="586.29,-59.5 576.29,-63 586.29,-66.5 586.29,-59.5"/>
</a>
</g>
</g>
</g>
</svg>
