<?xml version="1.0" encoding="UTF-8" standalone="no"?>
<!DOCTYPE svg PUBLIC "-//W3C//DTD SVG 1.1//EN"
 "http://www.w3.org/Graphics/SVG/1.1/DTD/svg11.dtd">
<!-- Generated by graphviz version 2.43.0 (0)
 -->
<!-- Title: Graphical Class Hierarchy Pages: 1 -->
<svg width="310pt" height="98pt"
 viewBox="0.00 0.00 310.00 97.50" xmlns="http://www.w3.org/2000/svg" xmlns:xlink="http://www.w3.org/1999/xlink">
<g id="graph0" class="graph" transform="scale(1 1) rotate(0) translate(4 93.5)">
<title>Graphical Class Hierarchy</title>
<!-- Node0 -->
<g id="Node000000" class="node">
<title>Node0</title>
<g id="a_Node000000"><a xlink:href="classmpqc_1_1math_1_1_group_1_1_irrep.html" target="_top" xlink:title="an irreducible representation of Group">
<polygon fill="white" stroke="#666666" points="116,-57 0,-57 0,-27 116,-27 116,-57"/>
<text text-anchor="start" x="8" y="-45" font-family="FreeSans" font-size="10.00">mpqc::math::Group::</text>
<text text-anchor="middle" x="58" y="-34" font-family="FreeSans" font-size="10.00">Irrep</text>
</a>
</g>
</g>
<!-- Node1 -->
<g id="Node000001" class="node">
<title>Node1</title>
<g id="a_Node000001"><a xlink:href="classmpqc_1_1math_1_1groups_1_1_supercell_translation_group_1_1_irrep.html" target="_top" xlink:title=" ">
<polygon fill="white" stroke="#666666" points="302,-89.5 152,-89.5 152,-48.5 302,-48.5 302,-89.5"/>
<text text-anchor="start" x="160" y="-77.5" font-family="FreeSans" font-size="10.00">mpqc::math::groups</text>
<text text-anchor="start" x="160" y="-66.5" font-family="FreeSans" font-size="10.00">::SupercellTranslationGroup</text>
<text text-anchor="middle" x="227" y="-55.5" font-family="FreeSans" font-size="10.00">::Irrep</text>
</a>
</g>
</g>
<!-- Node0&#45;&gt;Node1 -->
<g id="edge272_Node000000_Node000001" class="edge">
<title>Node0&#45;&gt;Node1</title>
<g id="a_edge272_Node000000_Node000001"><a xlink:title=" ">
<path fill="none" stroke="#63b8ff" d="M125.89,-52.81C134.42,-54.19 143.19,-55.61 151.83,-57.01"/>
<polygon fill="#63b8ff" stroke="#63b8ff" points="126.44,-49.36 116,-51.22 125.32,-56.27 126.44,-49.36"/>
</a>
</g>
</g>
<!-- Node2 -->
<g id="Node000002" class="node">
<title>Node2</title>
<g id="a_Node000002"><a xlink:href="classmpqc_1_1math_1_1groups_1_1_z1_1_1_irrep.html" target="_top" xlink:title=" ">
<polygon fill="white" stroke="#666666" points="284,-30 170,-30 170,0 284,0 284,-30"/>
<text text-anchor="start" x="178" y="-18" font-family="FreeSans" font-size="10.00">mpqc::math::groups</text>
<text text-anchor="middle" x="227" y="-7" font-family="FreeSans" font-size="10.00">::Z1::Irrep</text>
</a>
</g>
</g>
<!-- Node0&#45;&gt;Node2 -->
<g id="edge273_Node000000_Node000002" class="edge">
<title>Node0&#45;&gt;Node2</title>
<g id="a_edge273_Node000000_Node000002"><a xlink:title=" ">
<path fill="none" stroke="#63b8ff" d="M125.94,-31.18C140.49,-28.83 155.74,-26.36 169.82,-24.08"/>
<polygon fill="#63b8ff" stroke="#63b8ff" points="125.32,-27.73 116,-32.78 126.44,-34.64 125.32,-27.73"/>
</a>
</g>
</g>
</g>
</svg>
