<?xml version="1.0" encoding="UTF-8" standalone="no"?>
<!DOCTYPE svg PUBLIC "-//W3C//DTD SVG 1.1//EN"
 "http://www.w3.org/Graphics/SVG/1.1/DTD/svg11.dtd">
<!-- Generated by graphviz version 2.43.0 (0)
 -->
<!-- Title: mpqc/math/fock/iter.h Pages: 1 -->
<svg width="459pt" height="214pt"
 viewBox="0.00 0.00 458.50 214.00" xmlns="http://www.w3.org/2000/svg" xmlns:xlink="http://www.w3.org/1999/xlink">
<g id="graph0" class="graph" transform="scale(1 1) rotate(0) translate(4 210)">
<title>mpqc/math/fock/iter.h</title>
<!-- Node1 -->
<g id="Node000001" class="node">
<title>Node1</title>
<g id="a_Node000001"><a xlink:title=" ">
<polygon fill="#999999" stroke="#666666" points="306.5,-206 182.5,-206 182.5,-187 306.5,-187 306.5,-206"/>
<text text-anchor="middle" x="244.5" y="-194" font-family="FreeSans" font-size="10.00">mpqc/math/fock/iter.h</text>
</a>
</g>
</g>
<!-- Node2 -->
<g id="Node000002" class="node">
<title>Node2</title>
<g id="a_Node000002"><a xlink:href="hamiltonian_8h.html" target="_top" xlink:title=" ">
<polygon fill="white" stroke="#666666" points="167,-151 0,-151 0,-132 167,-132 167,-151"/>
<text text-anchor="middle" x="83.5" y="-139" font-family="FreeSans" font-size="10.00">mpqc/math/fock/hamiltonian.h</text>
</a>
</g>
</g>
<!-- Node1&#45;&gt;Node2 -->
<g id="edge1_Node000001_Node000002" class="edge">
<title>Node1&#45;&gt;Node2</title>
<g id="a_edge1_Node000001_Node000002"><a xlink:title=" ">
<path fill="none" stroke="#63b8ff" d="M208.95,-183.8C178.91,-173.91 136.56,-159.97 109.57,-151.08"/>
<polygon fill="#63b8ff" stroke="#63b8ff" points="208.04,-187.18 218.63,-186.98 210.23,-180.53 208.04,-187.18"/>
</a>
</g>
</g>
<!-- Node5 -->
<g id="Node000005" class="node">
<title>Node5</title>
<g id="a_Node000005"><a xlink:href="hb_8h.html" target="_top" xlink:title=" ">
<polygon fill="white" stroke="#666666" points="304.5,-151 184.5,-151 184.5,-132 304.5,-132 304.5,-151"/>
<text text-anchor="middle" x="244.5" y="-139" font-family="FreeSans" font-size="10.00">mpqc/math/fock/hb.h</text>
</a>
</g>
</g>
<!-- Node1&#45;&gt;Node5 -->
<g id="edge4_Node000001_Node000005" class="edge">
<title>Node1&#45;&gt;Node5</title>
<g id="a_edge4_Node000001_Node000005"><a xlink:title=" ">
<path fill="none" stroke="#63b8ff" d="M244.5,-176.66C244.5,-167.93 244.5,-157.99 244.5,-151.09"/>
<polygon fill="#63b8ff" stroke="#63b8ff" points="241,-176.75 244.5,-186.75 248,-176.75 241,-176.75"/>
</a>
</g>
</g>
<!-- Node6 -->
<g id="Node000006" class="node">
<title>Node6</title>
<g id="a_Node000006"><a xlink:href="math_2fock_2rdm_8h.html" target="_top" xlink:title=" ">
<polygon fill="white" stroke="#666666" points="450.5,-151 322.5,-151 322.5,-132 450.5,-132 450.5,-151"/>
<text text-anchor="middle" x="386.5" y="-139" font-family="FreeSans" font-size="10.00">mpqc/math/fock/rdm.h</text>
</a>
</g>
</g>
<!-- Node1&#45;&gt;Node6 -->
<g id="edge6_Node000001_Node000006" class="edge">
<title>Node1&#45;&gt;Node6</title>
<g id="a_edge6_Node000001_Node000006"><a xlink:title=" ">
<path fill="none" stroke="#63b8ff" d="M276.86,-183.42C303.21,-173.59 339.76,-159.95 363.27,-151.17"/>
<polygon fill="#63b8ff" stroke="#63b8ff" points="275.46,-180.21 267.31,-186.98 277.91,-186.77 275.46,-180.21"/>
</a>
</g>
</g>
<!-- Node3 -->
<g id="Node000003" class="node">
<title>Node3</title>
<g id="a_Node000003"><a xlink:href="sci_8ipp.html" target="_top" xlink:title=" ">
<polygon fill="white" stroke="#666666" points="311,-96 178,-96 178,-66 311,-66 311,-96"/>
<text text-anchor="start" x="186" y="-84" font-family="FreeSans" font-size="10.00">mpqc/chemistry/qc/lcao</text>
<text text-anchor="middle" x="244.5" y="-73" font-family="FreeSans" font-size="10.00">/ci/sci.ipp</text>
</a>
</g>
</g>
<!-- Node2&#45;&gt;Node3 -->
<g id="edge2_Node000002_Node000003" class="edge">
<title>Node2&#45;&gt;Node3</title>
<g id="a_edge2_Node000002_Node000003"><a xlink:title=" ">
<path fill="none" stroke="#63b8ff" d="M116.64,-128.46C142.54,-119.05 178.58,-105.95 205.79,-96.06"/>
<polygon fill="#63b8ff" stroke="#63b8ff" points="115.11,-125.29 106.91,-131.99 117.5,-131.87 115.11,-125.29"/>
</a>
</g>
</g>
<!-- Node4 -->
<g id="Node000004" class="node">
<title>Node4</title>
<g id="a_Node000004"><a xlink:href="sci_8cpp.html" target="_top" xlink:title=" ">
<polygon fill="white" stroke="#666666" points="311,-30 178,-30 178,0 311,0 311,-30"/>
<text text-anchor="start" x="186" y="-18" font-family="FreeSans" font-size="10.00">mpqc/chemistry/qc/lcao</text>
<text text-anchor="middle" x="244.5" y="-7" font-family="FreeSans" font-size="10.00">/ci/sci.cpp</text>
</a>
</g>
</g>
<!-- Node3&#45;&gt;Node4 -->
<g id="edge3_Node000003_Node000004" class="edge">
<title>Node3&#45;&gt;Node4</title>
<g id="a_edge3_Node000003_Node000004"><a xlink:title=" ">
<path fill="none" stroke="#63b8ff" d="M244.5,-55.54C244.5,-46.96 244.5,-37.61 244.5,-30.16"/>
<polygon fill="#63b8ff" stroke="#63b8ff" points="241,-55.8 244.5,-65.8 248,-55.8 241,-55.8"/>
</a>
</g>
</g>
<!-- Node5&#45;&gt;Node3 -->
<g id="edge5_Node000005_Node000003" class="edge">
<title>Node5&#45;&gt;Node3</title>
<g id="a_edge5_Node000005_Node000003"><a xlink:title=" ">
<path fill="none" stroke="#63b8ff" d="M244.5,-121.65C244.5,-113.36 244.5,-103.78 244.5,-96.11"/>
<polygon fill="#63b8ff" stroke="#63b8ff" points="241,-121.87 244.5,-131.87 248,-121.87 241,-121.87"/>
</a>
</g>
</g>
<!-- Node6&#45;&gt;Node3 -->
<g id="edge7_Node000006_Node000003" class="edge">
<title>Node6&#45;&gt;Node3</title>
<g id="a_edge7_Node000006_Node000003"><a xlink:title=" ">
<path fill="none" stroke="#63b8ff" d="M356.35,-128.08C333.59,-118.7 302.33,-105.82 278.64,-96.06"/>
<polygon fill="#63b8ff" stroke="#63b8ff" points="355.27,-131.42 365.85,-131.99 357.94,-124.95 355.27,-131.42"/>
</a>
</g>
</g>
</g>
</svg>
