<?xml version="1.0" encoding="UTF-8" standalone="no"?>
<!DOCTYPE svg PUBLIC "-//W3C//DTD SVG 1.1//EN"
 "http://www.w3.org/Graphics/SVG/1.1/DTD/svg11.dtd">
<!-- Generated by graphviz version 2.43.0 (0)
 -->
<!-- Title: mpqc/math/clustering/kmeans.h Pages: 1 -->
<svg width="1041pt" height="467pt"
 viewBox="0.00 0.00 1040.50 467.00" xmlns="http://www.w3.org/2000/svg" xmlns:xlink="http://www.w3.org/1999/xlink">
<g id="graph0" class="graph" transform="scale(1 1) rotate(0) translate(4 463)">
<title>mpqc/math/clustering/kmeans.h</title>
<!-- Node1 -->
<g id="Node000001" class="node">
<title>Node1</title>
<g id="a_Node000001"><a xlink:title=" ">
<polygon fill="#999999" stroke="#666666" points="963,-459 840,-459 840,-429 963,-429 963,-459"/>
<text text-anchor="start" x="848" y="-447" font-family="FreeSans" font-size="10.00">mpqc/math/clustering</text>
<text text-anchor="middle" x="901.5" y="-436" font-family="FreeSans" font-size="10.00">/kmeans.h</text>
</a>
</g>
</g>
<!-- Node2 -->
<g id="Node000002" class="node">
<title>Node2</title>
<g id="a_Node000002"><a xlink:href="math_2clustering_2common_8h.html" target="_top" xlink:title=" ">
<polygon fill="white" stroke="#666666" points="787,-393 664,-393 664,-363 787,-363 787,-393"/>
<text text-anchor="start" x="672" y="-381" font-family="FreeSans" font-size="10.00">mpqc/math/clustering</text>
<text text-anchor="middle" x="725.5" y="-370" font-family="FreeSans" font-size="10.00">/common.h</text>
</a>
</g>
</g>
<!-- Node1&#45;&gt;Node2 -->
<g id="edge1_Node000001_Node000002" class="edge">
<title>Node1&#45;&gt;Node2</title>
<g id="a_edge1_Node000001_Node000002"><a xlink:title=" ">
<path fill="none" stroke="#63b8ff" d="M862.88,-428.95C836.63,-419.41 801.71,-406.71 773.65,-396.51"/>
<polygon fill="#63b8ff" stroke="#63b8ff" points="774.63,-393.14 764.03,-393.01 772.24,-399.72 774.63,-393.14"/>
</a>
</g>
</g>
<!-- Node14 -->
<g id="Node000014" class="node">
<title>Node14</title>
<g id="a_Node000014"><a xlink:title=" ">
<polygon fill="#e0e0e0" stroke="#999999" points="753,-19 706,-19 706,0 753,0 753,-19"/>
<text text-anchor="middle" x="729.5" y="-7" font-family="FreeSans" font-size="10.00">vector</text>
</a>
</g>
</g>
<!-- Node1&#45;&gt;Node14 -->
<g id="edge29_Node000001_Node000014" class="edge">
<title>Node1&#45;&gt;Node14</title>
<g id="a_edge29_Node000001_Node000014"><a xlink:title=" ">
<path fill="none" stroke="#63b8ff" d="M896.18,-428.8C887.81,-405.15 872.5,-356.01 872.5,-313 872.5,-313 872.5,-313 872.5,-118.5 872.5,-63.78 804.99,-33.27 762.74,-19.53"/>
<polygon fill="#63b8ff" stroke="#63b8ff" points="763.7,-16.16 753.11,-16.55 761.63,-22.85 763.7,-16.16"/>
</a>
</g>
</g>
<!-- Node24 -->
<g id="Node000024" class="node">
<title>Node24</title>
<g id="a_Node000024"><a xlink:title=" ">
<polygon fill="#e0e0e0" stroke="#999999" points="960.5,-387.5 900.5,-387.5 900.5,-368.5 960.5,-368.5 960.5,-387.5"/>
<text text-anchor="middle" x="930.5" y="-375.5" font-family="FreeSans" font-size="10.00">iostream</text>
</a>
</g>
</g>
<!-- Node1&#45;&gt;Node24 -->
<g id="edge27_Node000001_Node000024" class="edge">
<title>Node1&#45;&gt;Node24</title>
<g id="a_edge27_Node000001_Node000024"><a xlink:title=" ">
<path fill="none" stroke="#63b8ff" d="M907.94,-428.8C912.15,-419.5 917.69,-407.27 922.23,-397.26"/>
<polygon fill="#63b8ff" stroke="#63b8ff" points="925.55,-398.4 926.49,-387.84 919.18,-395.51 925.55,-398.4"/>
</a>
</g>
</g>
<!-- Node25 -->
<g id="Node000025" class="node">
<title>Node25</title>
<g id="a_Node000025"><a xlink:title=" ">
<polygon fill="#e0e0e0" stroke="#999999" points="1032.5,-387.5 978.5,-387.5 978.5,-368.5 1032.5,-368.5 1032.5,-387.5"/>
<text text-anchor="middle" x="1005.5" y="-375.5" font-family="FreeSans" font-size="10.00">random</text>
</a>
</g>
</g>
<!-- Node1&#45;&gt;Node25 -->
<g id="edge28_Node000001_Node000025" class="edge">
<title>Node1&#45;&gt;Node25</title>
<g id="a_edge28_Node000001_Node000025"><a xlink:title=" ">
<path fill="none" stroke="#63b8ff" d="M924.32,-428.95C941.68,-418.27 965.44,-403.65 982.77,-392.98"/>
<polygon fill="#63b8ff" stroke="#63b8ff" points="984.98,-395.74 991.66,-387.52 981.31,-389.78 984.98,-395.74"/>
</a>
</g>
</g>
<!-- Node3 -->
<g id="Node000003" class="node">
<title>Node3</title>
<g id="a_Node000003"><a xlink:href="eigen_8h.html" target="_top" xlink:title=" ">
<polygon fill="white" stroke="#666666" points="725.5,-327 609.5,-327 609.5,-297 725.5,-297 725.5,-327"/>
<text text-anchor="start" x="617.5" y="-315" font-family="FreeSans" font-size="10.00">mpqc/math/external</text>
<text text-anchor="middle" x="667.5" y="-304" font-family="FreeSans" font-size="10.00">/eigen/eigen.h</text>
</a>
</g>
</g>
<!-- Node2&#45;&gt;Node3 -->
<g id="edge2_Node000002_Node000003" class="edge">
<title>Node2&#45;&gt;Node3</title>
<g id="a_edge2_Node000002_Node000003"><a xlink:title=" ">
<path fill="none" stroke="#63b8ff" d="M712.63,-362.8C705.12,-354.51 695.49,-343.89 687.06,-334.59"/>
<polygon fill="#63b8ff" stroke="#63b8ff" points="689.64,-332.22 680.34,-327.16 684.46,-336.92 689.64,-332.22"/>
</a>
</g>
</g>
<!-- Node4 -->
<g id="Node000004" class="node">
<title>Node4</title>
<g id="a_Node000004"><a xlink:title=" ">
<polygon fill="#e0e0e0" stroke="#999999" points="357.5,-255.5 255.5,-255.5 255.5,-236.5 357.5,-236.5 357.5,-255.5"/>
<text text-anchor="middle" x="306.5" y="-243.5" font-family="FreeSans" font-size="10.00">madness/config.h</text>
</a>
</g>
</g>
<!-- Node3&#45;&gt;Node4 -->
<g id="edge3_Node000003_Node000004" class="edge">
<title>Node3&#45;&gt;Node4</title>
<g id="a_edge3_Node000003_Node000004"><a xlink:title=" ">
<path fill="none" stroke="#63b8ff" d="M609.31,-302.48C548.54,-293.3 450.53,-277.76 366.5,-261 361.51,-260.01 356.31,-258.9 351.14,-257.75"/>
<polygon fill="#63b8ff" stroke="#63b8ff" points="351.84,-254.32 341.32,-255.53 350.3,-261.15 351.84,-254.32"/>
</a>
</g>
</g>
<!-- Node5 -->
<g id="Node000005" class="node">
<title>Node5</title>
<g id="a_Node000005"><a xlink:href="complex_8h.html" target="_top" xlink:title=" ">
<polygon fill="white" stroke="#666666" points="525.5,-255.5 375.5,-255.5 375.5,-236.5 525.5,-236.5 525.5,-255.5"/>
<text text-anchor="middle" x="450.5" y="-243.5" font-family="FreeSans" font-size="10.00">mpqc/math/core/complex.h</text>
</a>
</g>
</g>
<!-- Node3&#45;&gt;Node5 -->
<g id="edge4_Node000003_Node000005" class="edge">
<title>Node3&#45;&gt;Node5</title>
<g id="a_edge4_Node000003_Node000005"><a xlink:title=" ">
<path fill="none" stroke="#63b8ff" d="M619.88,-296.95C580.65,-285.38 525.72,-269.18 489.17,-258.41"/>
<polygon fill="#63b8ff" stroke="#63b8ff" points="489.96,-254.99 479.38,-255.52 487.98,-261.7 489.96,-254.99"/>
</a>
</g>
</g>
<!-- Node7 -->
<g id="Node000007" class="node">
<title>Node7</title>
<g id="a_Node000007"><a xlink:title=" ">
<polygon fill="#e0e0e0" stroke="#999999" points="789,-129 672,-129 672,-110 789,-110 789,-129"/>
<text text-anchor="middle" x="730.5" y="-117" font-family="FreeSans" font-size="10.00">mpqc/mpqc_config.h</text>
</a>
</g>
</g>
<!-- Node3&#45;&gt;Node7 -->
<g id="edge23_Node000003_Node000007" class="edge">
<title>Node3&#45;&gt;Node7</title>
<g id="a_edge23_Node000003_Node000007"><a xlink:title=" ">
<path fill="none" stroke="#63b8ff" d="M672.13,-296.99C683.31,-263.21 711.74,-177.23 724.33,-139.14"/>
<polygon fill="#63b8ff" stroke="#63b8ff" points="727.75,-139.95 727.57,-129.36 721.11,-137.76 727.75,-139.95"/>
</a>
</g>
</g>
<!-- Node22 -->
<g id="Node000022" class="node">
<title>Node22</title>
<g id="a_Node000022"><a xlink:href="math_2external_2eigen_2fwd_8h.html" target="_top" xlink:title=" ">
<polygon fill="white" stroke="#666666" points="844.5,-261 728.5,-261 728.5,-231 844.5,-231 844.5,-261"/>
<text text-anchor="start" x="736.5" y="-249" font-family="FreeSans" font-size="10.00">mpqc/math/external</text>
<text text-anchor="middle" x="786.5" y="-238" font-family="FreeSans" font-size="10.00">/eigen/fwd.h</text>
</a>
</g>
</g>
<!-- Node3&#45;&gt;Node22 -->
<g id="edge24_Node000003_Node000022" class="edge">
<title>Node3&#45;&gt;Node22</title>
<g id="a_edge24_Node000003_Node000022"><a xlink:title=" ">
<path fill="none" stroke="#63b8ff" d="M693.62,-296.95C710.59,-287.83 732.92,-275.82 751.43,-265.86"/>
<polygon fill="#63b8ff" stroke="#63b8ff" points="753.3,-268.83 760.45,-261.01 749.98,-262.67 753.3,-268.83"/>
</a>
</g>
</g>
<!-- Node23 -->
<g id="Node000023" class="node">
<title>Node23</title>
<g id="a_Node000023"><a xlink:title=" ">
<polygon fill="#e0e0e0" stroke="#999999" points="672,-255.5 595,-255.5 595,-236.5 672,-236.5 672,-255.5"/>
<text text-anchor="middle" x="633.5" y="-243.5" font-family="FreeSans" font-size="10.00">Eigen/Dense</text>
</a>
</g>
</g>
<!-- Node3&#45;&gt;Node23 -->
<g id="edge26_Node000003_Node000023" class="edge">
<title>Node3&#45;&gt;Node23</title>
<g id="a_edge26_Node000003_Node000023"><a xlink:title=" ">
<path fill="none" stroke="#63b8ff" d="M659.95,-296.8C654.97,-287.41 648.38,-275.02 643.03,-264.95"/>
<polygon fill="#63b8ff" stroke="#63b8ff" points="645.98,-263.03 638.2,-255.84 639.8,-266.32 645.98,-263.03"/>
</a>
</g>
</g>
<!-- Node6 -->
<g id="Node000006" class="node">
<title>Node6</title>
<g id="a_Node000006"><a xlink:href="assert_8h.html" target="_top" xlink:title=" ">
<polygon fill="white" stroke="#666666" points="607,-189.5 476,-189.5 476,-170.5 607,-170.5 607,-189.5"/>
<text text-anchor="middle" x="541.5" y="-177.5" font-family="FreeSans" font-size="10.00">mpqc/util/misc/assert.h</text>
</a>
</g>
</g>
<!-- Node5&#45;&gt;Node6 -->
<g id="edge5_Node000005_Node000006" class="edge">
<title>Node5&#45;&gt;Node6</title>
<g id="a_edge5_Node000005_Node000006"><a xlink:title=" ">
<path fill="none" stroke="#63b8ff" d="M462.77,-236.37C477.56,-225.97 502.65,-208.32 520.53,-195.75"/>
<polygon fill="#63b8ff" stroke="#63b8ff" points="522.96,-198.31 529.13,-189.7 518.94,-192.59 522.96,-198.31"/>
</a>
</g>
</g>
<!-- Node17 -->
<g id="Node000017" class="node">
<title>Node17</title>
<g id="a_Node000017"><a xlink:title=" ">
<polygon fill="#e0e0e0" stroke="#999999" points="156,-189.5 87,-189.5 87,-170.5 156,-170.5 156,-189.5"/>
<text text-anchor="middle" x="121.5" y="-177.5" font-family="FreeSans" font-size="10.00">Eigen/Core</text>
</a>
</g>
</g>
<!-- Node5&#45;&gt;Node17 -->
<g id="edge18_Node000005_Node000017" class="edge">
<title>Node5&#45;&gt;Node17</title>
<g id="a_edge18_Node000005_Node000017"><a xlink:title=" ">
<path fill="none" stroke="#63b8ff" d="M399.64,-236.46C323.86,-223.68 187.82,-200.48 165.5,-195 162.48,-194.26 159.37,-193.42 156.26,-192.53"/>
<polygon fill="#63b8ff" stroke="#63b8ff" points="157.05,-189.12 146.46,-189.58 155.03,-195.82 157.05,-189.12"/>
</a>
</g>
</g>
<!-- Node18 -->
<g id="Node000018" class="node">
<title>Node18</title>
<g id="a_Node000018"><a xlink:title=" ">
<polygon fill="#e0e0e0" stroke="#999999" points="296.5,-195 174.5,-195 174.5,-165 296.5,-165 296.5,-195"/>
<text text-anchor="start" x="182.5" y="-183" font-family="FreeSans" font-size="10.00">boost/container/small</text>
<text text-anchor="middle" x="235.5" y="-172" font-family="FreeSans" font-size="10.00">_vector.hpp</text>
</a>
</g>
</g>
<!-- Node5&#45;&gt;Node18 -->
<g id="edge19_Node000005_Node000018" class="edge">
<title>Node5&#45;&gt;Node18</title>
<g id="a_edge19_Node000005_Node000018"><a xlink:title=" ">
<path fill="none" stroke="#63b8ff" d="M421.5,-236.37C388.61,-226.58 334.15,-210.37 292.64,-198.01"/>
<polygon fill="#63b8ff" stroke="#63b8ff" points="293.5,-194.61 282.92,-195.12 291.51,-201.32 293.5,-194.61"/>
</a>
</g>
</g>
<!-- Node19 -->
<g id="Node000019" class="node">
<title>Node19</title>
<g id="a_Node000019"><a xlink:title=" ">
<polygon fill="#e0e0e0" stroke="#999999" points="458,-195 315,-195 315,-165 458,-165 458,-195"/>
<text text-anchor="start" x="323" y="-183" font-family="FreeSans" font-size="10.00">boost/numeric/conversion</text>
<text text-anchor="middle" x="386.5" y="-172" font-family="FreeSans" font-size="10.00">/cast.hpp</text>
</a>
</g>
</g>
<!-- Node5&#45;&gt;Node19 -->
<g id="edge20_Node000005_Node000019" class="edge">
<title>Node5&#45;&gt;Node19</title>
<g id="a_edge20_Node000005_Node000019"><a xlink:title=" ">
<path fill="none" stroke="#63b8ff" d="M441.87,-236.37C433.25,-227.75 419.65,-214.15 408.09,-202.59"/>
<polygon fill="#63b8ff" stroke="#63b8ff" points="410.41,-199.96 400.86,-195.36 405.46,-204.91 410.41,-199.96"/>
</a>
</g>
</g>
<!-- Node20 -->
<g id="Node000020" class="node">
<title>Node20</title>
<g id="a_Node000020"><a xlink:title=" ">
<polygon fill="#e0e0e0" stroke="#999999" points="684,-189.5 625,-189.5 625,-170.5 684,-170.5 684,-189.5"/>
<text text-anchor="middle" x="654.5" y="-177.5" font-family="FreeSans" font-size="10.00">complex</text>
</a>
</g>
</g>
<!-- Node5&#45;&gt;Node20 -->
<g id="edge21_Node000005_Node000020" class="edge">
<title>Node5&#45;&gt;Node20</title>
<g id="a_edge21_Node000005_Node000020"><a xlink:title=" ">
<path fill="none" stroke="#63b8ff" d="M480.96,-236.42C514.39,-226.87 569.55,-210.71 616.5,-195 618.4,-194.36 620.35,-193.7 622.31,-193.01"/>
<polygon fill="#63b8ff" stroke="#63b8ff" points="623.84,-196.18 632.07,-189.52 621.48,-189.59 623.84,-196.18"/>
</a>
</g>
</g>
<!-- Node21 -->
<g id="Node000021" class="node">
<title>Node21</title>
<g id="a_Node000021"><a xlink:title=" ">
<polygon fill="#e0e0e0" stroke="#999999" points="69,-189.5 0,-189.5 0,-170.5 69,-170.5 69,-189.5"/>
<text text-anchor="middle" x="34.5" y="-177.5" font-family="FreeSans" font-size="10.00">type_traits</text>
</a>
</g>
</g>
<!-- Node5&#45;&gt;Node21 -->
<g id="edge22_Node000005_Node000021" class="edge">
<title>Node5&#45;&gt;Node21</title>
<g id="a_edge22_Node000005_Node000021"><a xlink:title=" ">
<path fill="none" stroke="#63b8ff" d="M401.25,-236.44C389.85,-234.56 377.77,-232.64 366.5,-231 238.41,-212.36 203.84,-223.16 77.5,-195 74.28,-194.28 70.96,-193.42 67.66,-192.49"/>
<polygon fill="#63b8ff" stroke="#63b8ff" points="68.52,-189.09 57.93,-189.52 66.48,-195.79 68.52,-189.09"/>
</a>
</g>
</g>
<!-- Node6&#45;&gt;Node7 -->
<g id="edge6_Node000006_Node000007" class="edge">
<title>Node6&#45;&gt;Node7</title>
<g id="a_edge6_Node000006_Node000007"><a xlink:title=" ">
<path fill="none" stroke="#63b8ff" d="M568.98,-170.49C601.74,-160.36 656.62,-143.37 693.19,-132.05"/>
<polygon fill="#63b8ff" stroke="#63b8ff" points="694.47,-135.32 702.98,-129.02 692.4,-128.63 694.47,-135.32"/>
</a>
</g>
</g>
<!-- Node8 -->
<g id="Node000008" class="node">
<title>Node8</title>
<g id="a_Node000008"><a xlink:title=" ">
<polygon fill="#e0e0e0" stroke="#999999" points="489.5,-129 437.5,-129 437.5,-110 489.5,-110 489.5,-129"/>
<text text-anchor="middle" x="463.5" y="-117" font-family="FreeSans" font-size="10.00">cassert</text>
</a>
</g>
</g>
<!-- Node6&#45;&gt;Node8 -->
<g id="edge7_Node000006_Node000008" class="edge">
<title>Node6&#45;&gt;Node8</title>
<g id="a_edge7_Node000006_Node000008"><a xlink:title=" ">
<path fill="none" stroke="#63b8ff" d="M529.99,-170.37C517.66,-161.12 497.88,-146.28 483.09,-135.19"/>
<polygon fill="#63b8ff" stroke="#63b8ff" points="485.16,-132.37 475.06,-129.17 480.96,-137.97 485.16,-132.37"/>
</a>
</g>
</g>
<!-- Node9 -->
<g id="Node000009" class="node">
<title>Node9</title>
<g id="a_Node000009"><a xlink:href="exception_8h.html" target="_top" xlink:title=" ">
<polygon fill="white" stroke="#666666" points="653.5,-129 507.5,-129 507.5,-110 653.5,-110 653.5,-129"/>
<text text-anchor="middle" x="580.5" y="-117" font-family="FreeSans" font-size="10.00">mpqc/util/core/exception.h</text>
</a>
</g>
</g>
<!-- Node6&#45;&gt;Node9 -->
<g id="edge8_Node000006_Node000009" class="edge">
<title>Node6&#45;&gt;Node9</title>
<g id="a_edge8_Node000006_Node000009"><a xlink:title=" ">
<path fill="none" stroke="#63b8ff" d="M547.25,-170.37C552.96,-161.81 561.85,-148.47 569.01,-137.74"/>
<polygon fill="#63b8ff" stroke="#63b8ff" points="572.09,-139.43 574.72,-129.17 566.26,-135.55 572.09,-139.43"/>
</a>
</g>
</g>
<!-- Node10 -->
<g id="Node000010" class="node">
<title>Node10</title>
<g id="a_Node000010"><a xlink:title=" ">
<polygon fill="#e0e0e0" stroke="#999999" points="607,-74 554,-74 554,-55 607,-55 607,-74"/>
<text text-anchor="middle" x="580.5" y="-62" font-family="FreeSans" font-size="10.00">string.h</text>
</a>
</g>
</g>
<!-- Node9&#45;&gt;Node10 -->
<g id="edge9_Node000009_Node000010" class="edge">
<title>Node9&#45;&gt;Node10</title>
<g id="a_edge9_Node000009_Node000010"><a xlink:title=" ">
<path fill="none" stroke="#63b8ff" d="M580.5,-109.75C580.5,-102.8 580.5,-92.85 580.5,-84.13"/>
<polygon fill="#63b8ff" stroke="#63b8ff" points="584,-84.09 580.5,-74.09 577,-84.09 584,-84.09"/>
</a>
</g>
</g>
<!-- Node11 -->
<g id="Node000011" class="node">
<title>Node11</title>
<g id="a_Node000011"><a xlink:href="memory.html" target="_top" xlink:title=" ">
<polygon fill="white" stroke="#666666" points="683.5,-74 625.5,-74 625.5,-55 683.5,-55 683.5,-74"/>
<text text-anchor="middle" x="654.5" y="-62" font-family="FreeSans" font-size="10.00">memory</text>
</a>
</g>
</g>
<!-- Node9&#45;&gt;Node11 -->
<g id="edge10_Node000009_Node000011" class="edge">
<title>Node9&#45;&gt;Node11</title>
<g id="a_edge10_Node000009_Node000011"><a xlink:title=" ">
<path fill="none" stroke="#63b8ff" d="M592.39,-109.98C603.65,-101.92 620.79,-89.65 634.21,-80.03"/>
<polygon fill="#63b8ff" stroke="#63b8ff" points="636.3,-82.84 642.39,-74.17 632.23,-77.15 636.3,-82.84"/>
</a>
</g>
</g>
<!-- Node12 -->
<g id="Node000012" class="node">
<title>Node12</title>
<g id="a_Node000012"><a xlink:title=" ">
<polygon fill="#e0e0e0" stroke="#999999" points="813.5,-74 757.5,-74 757.5,-55 813.5,-55 813.5,-74"/>
<text text-anchor="middle" x="785.5" y="-62" font-family="FreeSans" font-size="10.00">sstream</text>
</a>
</g>
</g>
<!-- Node9&#45;&gt;Node12 -->
<g id="edge12_Node000009_Node000012" class="edge">
<title>Node9&#45;&gt;Node12</title>
<g id="a_edge12_Node000009_Node000012"><a xlink:title=" ">
<path fill="none" stroke="#63b8ff" d="M613.44,-109.98C650.01,-100.53 708.95,-85.29 747.46,-75.33"/>
<polygon fill="#63b8ff" stroke="#63b8ff" points="748.46,-78.69 757.26,-72.8 746.71,-71.91 748.46,-78.69"/>
</a>
</g>
</g>
<!-- Node13 -->
<g id="Node000013" class="node">
<title>Node13</title>
<g id="a_Node000013"><a xlink:title=" ">
<polygon fill="#e0e0e0" stroke="#999999" points="371,-74 306,-74 306,-55 371,-55 371,-74"/>
<text text-anchor="middle" x="338.5" y="-62" font-family="FreeSans" font-size="10.00">stdexcept</text>
</a>
</g>
</g>
<!-- Node9&#45;&gt;Node13 -->
<g id="edge13_Node000009_Node000013" class="edge">
<title>Node9&#45;&gt;Node13</title>
<g id="a_edge13_Node000009_Node000013"><a xlink:title=" ">
<path fill="none" stroke="#63b8ff" d="M541.62,-109.98C497.65,-100.35 426.28,-84.72 380.9,-74.79"/>
<polygon fill="#63b8ff" stroke="#63b8ff" points="381.6,-71.36 371.08,-72.63 380.1,-78.19 381.6,-71.36"/>
</a>
</g>
</g>
<!-- Node9&#45;&gt;Node14 -->
<g id="edge14_Node000009_Node000014" class="edge">
<title>Node9&#45;&gt;Node14</title>
<g id="a_edge14_Node000009_Node000014"><a xlink:title=" ">
<path fill="none" stroke="#63b8ff" d="M641.7,-109.96C665.99,-103.69 692.39,-92.83 710.5,-74 722.08,-61.96 726.64,-43.15 728.41,-29.12"/>
<polygon fill="#63b8ff" stroke="#63b8ff" points="731.9,-29.4 729.32,-19.12 724.93,-28.76 731.9,-29.4"/>
</a>
</g>
</g>
<!-- Node15 -->
<g id="Node000015" class="node">
<title>Node15</title>
<g id="a_Node000015"><a xlink:href="backtrace_8h.html" target="_top" xlink:title=" ">
<polygon fill="white" stroke="#666666" points="535.5,-74 389.5,-74 389.5,-55 535.5,-55 535.5,-74"/>
<text text-anchor="middle" x="462.5" y="-62" font-family="FreeSans" font-size="10.00">mpqc/util/core/backtrace.h</text>
</a>
</g>
</g>
<!-- Node9&#45;&gt;Node15 -->
<g id="edge15_Node000009_Node000015" class="edge">
<title>Node9&#45;&gt;Node15</title>
<g id="a_edge15_Node000009_Node000015"><a xlink:title=" ">
<path fill="none" stroke="#63b8ff" d="M561.54,-109.98C542.47,-101.42 512.84,-88.11 490.95,-78.28"/>
<polygon fill="#63b8ff" stroke="#63b8ff" points="492.36,-75.07 481.8,-74.17 489.49,-81.46 492.36,-75.07"/>
</a>
</g>
</g>
<!-- Node11&#45;&gt;Node11 -->
<g id="edge11_Node000011_Node000011" class="edge">
<title>Node11&#45;&gt;Node11</title>
<g id="a_edge11_Node000011_Node000011"><a xlink:title=" ">
<path fill="none" stroke="#63b8ff" d="M676.74,-74.07C689.56,-76.02 701.5,-72.83 701.5,-64.5 701.5,-58.45 695.2,-55.11 686.84,-54.48"/>
<polygon fill="#63b8ff" stroke="#63b8ff" points="686.58,-50.99 676.74,-54.93 686.89,-57.98 686.58,-50.99"/>
</a>
</g>
</g>
<!-- Node15&#45;&gt;Node14 -->
<g id="edge17_Node000015_Node000014" class="edge">
<title>Node15&#45;&gt;Node14</title>
<g id="a_edge17_Node000015_Node000014"><a xlink:title=" ">
<path fill="none" stroke="#63b8ff" d="M505.4,-54.98C558.41,-44.46 647.51,-26.78 695.85,-17.18"/>
<polygon fill="#63b8ff" stroke="#63b8ff" points="696.67,-20.58 705.8,-15.2 695.31,-13.72 696.67,-20.58"/>
</a>
</g>
</g>
<!-- Node16 -->
<g id="Node000016" class="node">
<title>Node16</title>
<g id="a_Node000016"><a xlink:title=" ">
<polygon fill="#e0e0e0" stroke="#999999" points="484.5,-19 440.5,-19 440.5,0 484.5,0 484.5,-19"/>
<text text-anchor="middle" x="462.5" y="-7" font-family="FreeSans" font-size="10.00">string</text>
</a>
</g>
</g>
<!-- Node15&#45;&gt;Node16 -->
<g id="edge16_Node000015_Node000016" class="edge">
<title>Node15&#45;&gt;Node16</title>
<g id="a_edge16_Node000015_Node000016"><a xlink:title=" ">
<path fill="none" stroke="#63b8ff" d="M462.5,-54.75C462.5,-47.8 462.5,-37.85 462.5,-29.13"/>
<polygon fill="#63b8ff" stroke="#63b8ff" points="466,-29.09 462.5,-19.09 459,-29.09 466,-29.09"/>
</a>
</g>
</g>
<!-- Node22&#45;&gt;Node7 -->
<g id="edge25_Node000022_Node000007" class="edge">
<title>Node22&#45;&gt;Node7</title>
<g id="a_edge25_Node000022_Node000007"><a xlink:title=" ">
<path fill="none" stroke="#63b8ff" d="M780.08,-230.72C769.82,-207.92 749.76,-163.33 738.56,-138.42"/>
<polygon fill="#63b8ff" stroke="#63b8ff" points="741.65,-136.75 734.35,-129.07 735.26,-139.63 741.65,-136.75"/>
</a>
</g>
</g>
</g>
</svg>
