<?xml version="1.0" encoding="UTF-8" standalone="no"?>
<!DOCTYPE svg PUBLIC "-//W3C//DTD SVG 1.1//EN"
 "http://www.w3.org/Graphics/SVG/1.1/DTD/svg11.dtd">
<!-- Generated by graphviz version 2.43.0 (0)
 -->
<!-- Title: mpqc/math/mra/lapack.h Pages: 1 -->
<!--zoomable 412 -->

<svg id="main" version="1.1" xmlns="http://www.w3.org/2000/svg" xmlns:xlink="http://www.w3.org/1999/xlink" xml:space="preserve" onload="init(evt)">
<style type="text/css"><![CDATA[
.node, .edge {opacity: 0.7;}
.node.selected, .edge.selected {opacity: 1;}
.edge:hover path { stroke: red; }
.edge:hover polygon { stroke: red; fill: red; }
]]></style>

<defs>
  <circle id="rim" cx="0" cy="0" r="7"/>
  <circle id="rim2" cx="0" cy="0" r="3.5"/>
  <g id="zoomPlus">
    <use xlink:href="#rim" fill="#404040"><set attributeName="fill" to="#808080" begin="zoomplus.mouseover" end="zoomplus.mouseout"/></use>
    <path d="M-4,0h8M0,-4v8" fill="none" stroke="white" stroke-width="1.5" pointer-events="none"/>
  </g>
  <g id="zoomMin">
    <use xlink:href="#rim" fill="#404040"><set attributeName="fill" to="#808080" begin="zoomminus.mouseover" end="zoomminus.mouseout"/></use>
    <path d="M-4,0h8" fill="none" stroke="white" stroke-width="1.5" pointer-events="none"/>
  </g>
  <g id="arrowUp" transform="translate(30 24)">
    <use xlink:href="#rim"/>
    <path pointer-events="none" fill="none" stroke="white" stroke-width="1.5" d="M0,-3.0v7 M-2.5,-0.5L0,-3.0L2.5,-0.5"/>
  </g>
  <g id="arrowRight" transform="rotate(90) translate(36 -43)">
    <use xlink:href="#rim"/>
    <path pointer-events="none" fill="none" stroke="white" stroke-width="1.5" d="M0,-3.0v7 M-2.5,-0.5L0,-3.0L2.5,-0.5"/>
  </g>
  <g id="arrowDown" transform="rotate(180) translate(-30 -48)">
    <use xlink:href="#rim"/>
    <path pointer-events="none" fill="none" stroke="white" stroke-width="1.5" d="M0,-3.0v7 M-2.5,-0.5L0,-3.0L2.5,-0.5"/>
  </g>
  <g id="arrowLeft" transform="rotate(270) translate(-36 17)">
    <use xlink:href="#rim"/>
    <path pointer-events="none" fill="none" stroke="white" stroke-width="1.5" d="M0,-3.0v7 M-2.5,-0.5L0,-3.0L2.5,-0.5"/>
  </g>
  <g id="resetDef">
    <use xlink:href="#rim2" fill="#404040"><set attributeName="fill" to="#808080" begin="reset.mouseover" end="reset.mouseout"/></use>
  </g>
</defs>
<script type="application/ecmascript">
var viewWidth = 975;
var viewHeight = 412;
var sectionId = 'dynsection-1';
</script>
<script type="application/ecmascript" xlink:href="svg.min.js"/>
<svg id="graph" class="graph">
<g id="viewport">
<title>mpqc/math/mra/lapack.h</title>
<!-- Node1 -->
<g id="Node000001" class="node">
<title>Node1</title>
<g id="a_Node000001"><a xlink:title=" ">
<polygon fill="#999999" stroke="#666666" points="560.78,-404 421.78,-404 421.78,-385 560.78,-385 560.78,-404"/>
<text text-anchor="middle" x="491.28" y="-392" font-family="FreeSans" font-size="10.00">mpqc/math/mra/lapack.h</text>
</a>
</g>
</g>
<!-- Node2 -->
<g id="Node000002" class="node">
<title>Node2</title>
<g id="a_Node000002"><a xlink:href="chemistry_2qc_2mra_2wfn_2util_8h.html" target="_top" xlink:title=" ">
<polygon fill="white" stroke="#666666" points="409.28,-294 277.28,-294 277.28,-264 409.28,-264 409.28,-294"/>
<text text-anchor="start" x="285.28" y="-282" font-family="FreeSans" font-size="10.00">mpqc/chemistry/qc/mra</text>
<text text-anchor="middle" x="343.28" y="-271" font-family="FreeSans" font-size="10.00">/wfn/util.h</text>
</a>
</g>
</g>
<!-- Node1&#45;&gt;Node2 -->
<g id="edge1_Node000001_Node000002" class="edge">
<title>Node1&#45;&gt;Node2</title>
<g id="a_edge1_Node000001_Node000002"><a xlink:title=" ">
<path fill="none" stroke="#63b8ff" d="M468.47,-379.63C455.02,-371.2 437.84,-359.97 423.28,-349 399.7,-331.23 374.14,-308.52 358.41,-294.11"/>
<polygon fill="#63b8ff" stroke="#63b8ff" points="466.77,-382.69 477.11,-384.99 470.46,-376.74 466.77,-382.69"/>
</a>
</g>
</g>
<!-- Node10 -->
<g id="Node000010" class="node">
<title>Node10</title>
<g id="a_Node000010"><a xlink:href="ao_8h.html" target="_top" xlink:title=" ">
<polygon fill="white" stroke="#666666" points="550.78,-349 431.78,-349 431.78,-330 550.78,-330 550.78,-349"/>
<text text-anchor="middle" x="491.28" y="-337" font-family="FreeSans" font-size="10.00">mpqc/math/mra/ao.h</text>
</a>
</g>
</g>
<!-- Node1&#45;&gt;Node10 -->
<g id="edge12_Node000001_Node000010" class="edge">
<title>Node1&#45;&gt;Node10</title>
<g id="a_edge12_Node000001_Node000010"><a xlink:title=" ">
<path fill="none" stroke="#63b8ff" d="M491.28,-374.66C491.28,-365.93 491.28,-355.99 491.28,-349.09"/>
<polygon fill="#63b8ff" stroke="#63b8ff" points="487.78,-374.75 491.28,-384.75 494.78,-374.75 487.78,-374.75"/>
</a>
</g>
</g>
<!-- Node12 -->
<g id="Node000012" class="node">
<title>Node12</title>
<g id="a_Node000012"><a xlink:href="mra_2gaussian_8h.html" target="_top" xlink:title=" ">
<polygon fill="white" stroke="#666666" points="794.28,-349 644.28,-349 644.28,-330 794.28,-330 794.28,-349"/>
<text text-anchor="middle" x="719.28" y="-337" font-family="FreeSans" font-size="10.00">mpqc/math/mra/gaussian.h</text>
</a>
</g>
</g>
<!-- Node1&#45;&gt;Node12 -->
<g id="edge16_Node000001_Node000012" class="edge">
<title>Node1&#45;&gt;Node12</title>
<g id="a_edge16_Node000001_Node000012"><a xlink:title=" ">
<path fill="none" stroke="#63b8ff" d="M537.79,-382.69C580.5,-372.76 642.98,-358.24 682.36,-349.08"/>
<polygon fill="#63b8ff" stroke="#63b8ff" points="536.86,-379.31 527.92,-384.98 538.45,-386.13 536.86,-379.31"/>
</a>
</g>
</g>
<!-- Node3 -->
<g id="Node000003" class="node">
<title>Node3</title>
<g id="a_Node000003"><a xlink:href="solver_8ipp.html" target="_top" xlink:title=" ">
<polygon fill="white" stroke="#666666" points="447.28,-96 315.28,-96 315.28,-66 447.28,-66 447.28,-96"/>
<text text-anchor="start" x="323.28" y="-84" font-family="FreeSans" font-size="10.00">mpqc/chemistry/qc/mra</text>
<text text-anchor="middle" x="381.28" y="-73" font-family="FreeSans" font-size="10.00">/scf/solver.ipp</text>
</a>
</g>
</g>
<!-- Node2&#45;&gt;Node3 -->
<g id="edge2_Node000002_Node000003" class="edge">
<title>Node2&#45;&gt;Node3</title>
<g id="a_edge2_Node000002_Node000003"><a xlink:title=" ">
<path fill="none" stroke="#63b8ff" d="M266.91,-277.78C178.05,-275.7 39.25,-266.22 6.28,-228 -2.43,-217.9 -1.63,-208.73 6.28,-198 43.14,-148.02 217.58,-110.41 315.02,-92.89"/>
<polygon fill="#63b8ff" stroke="#63b8ff" points="266.88,-281.28 276.95,-277.98 267.03,-274.28 266.88,-281.28"/>
</a>
</g>
</g>
<!-- Node5 -->
<g id="Node000005" class="node">
<title>Node5</title>
<g id="a_Node000005"><a xlink:href="solver__1c__v2_8ipp.html" target="_top" xlink:title=" ">
<polygon fill="white" stroke="#666666" points="597.28,-228 465.28,-228 465.28,-198 597.28,-198 597.28,-228"/>
<text text-anchor="start" x="473.28" y="-216" font-family="FreeSans" font-size="10.00">mpqc/chemistry/qc/mra</text>
<text text-anchor="middle" x="531.28" y="-205" font-family="FreeSans" font-size="10.00">/scf/solver_1c_v2.ipp</text>
</a>
</g>
</g>
<!-- Node2&#45;&gt;Node5 -->
<g id="edge4_Node000002_Node000005" class="edge">
<title>Node2&#45;&gt;Node5</title>
<g id="a_edge4_Node000002_Node000005"><a xlink:title=" ">
<path fill="none" stroke="#63b8ff" d="M394.03,-260.72C424.16,-250.47 461.86,-237.63 490.12,-228.01"/>
<polygon fill="#63b8ff" stroke="#63b8ff" points="392.88,-257.42 384.54,-263.95 395.13,-264.05 392.88,-257.42"/>
</a>
</g>
</g>
<!-- Node6 -->
<g id="Node000006" class="node">
<title>Node6</title>
<g id="a_Node000006"><a xlink:href="sp_8ipp.html" target="_top" xlink:title=" ">
<polygon fill="white" stroke="#666666" points="447.28,-228 315.28,-228 315.28,-198 447.28,-198 447.28,-228"/>
<text text-anchor="start" x="323.28" y="-216" font-family="FreeSans" font-size="10.00">mpqc/chemistry/qc/mra</text>
<text text-anchor="middle" x="381.28" y="-205" font-family="FreeSans" font-size="10.00">/wfn/sp.ipp</text>
</a>
</g>
</g>
<!-- Node2&#45;&gt;Node6 -->
<g id="edge6_Node000002_Node000006" class="edge">
<title>Node2&#45;&gt;Node6</title>
<g id="a_edge6_Node000002_Node000006"><a xlink:title=" ">
<path fill="none" stroke="#63b8ff" d="M356.96,-254.96C362.28,-246 368.2,-236.03 372.87,-228.16"/>
<polygon fill="#63b8ff" stroke="#63b8ff" points="353.81,-253.41 351.72,-263.8 359.83,-256.98 353.81,-253.41"/>
</a>
</g>
</g>
<!-- Node8 -->
<g id="Node000008" class="node">
<title>Node8</title>
<g id="a_Node000008"><a xlink:href="chemistry_2qc_2mra_2wfn_2util_8cpp.html" target="_top" xlink:title=" ">
<polygon fill="white" stroke="#666666" points="147.28,-228 15.28,-228 15.28,-198 147.28,-198 147.28,-228"/>
<text text-anchor="start" x="23.28" y="-216" font-family="FreeSans" font-size="10.00">mpqc/chemistry/qc/mra</text>
<text text-anchor="middle" x="81.28" y="-205" font-family="FreeSans" font-size="10.00">/wfn/util.cpp</text>
</a>
</g>
</g>
<!-- Node2&#45;&gt;Node8 -->
<g id="edge10_Node000002_Node000008" class="edge">
<title>Node2&#45;&gt;Node8</title>
<g id="a_edge10_Node000002_Node000008"><a xlink:title=" ">
<path fill="none" stroke="#63b8ff" d="M275.81,-261.52C233.31,-251.14 179.06,-237.88 138.65,-228.01"/>
<polygon fill="#63b8ff" stroke="#63b8ff" points="275.24,-264.98 285.79,-263.95 276.9,-258.18 275.24,-264.98"/>
</a>
</g>
</g>
<!-- Node9 -->
<g id="Node000009" class="node">
<title>Node9</title>
<g id="a_Node000009"><a xlink:href="mra_2wfn_2wfn_8cpp.html" target="_top" xlink:title=" ">
<polygon fill="white" stroke="#666666" points="297.28,-228 165.28,-228 165.28,-198 297.28,-198 297.28,-228"/>
<text text-anchor="start" x="173.28" y="-216" font-family="FreeSans" font-size="10.00">mpqc/chemistry/qc/mra</text>
<text text-anchor="middle" x="231.28" y="-205" font-family="FreeSans" font-size="10.00">/wfn/wfn.cpp</text>
</a>
</g>
</g>
<!-- Node2&#45;&gt;Node9 -->
<g id="edge11_Node000002_Node000009" class="edge">
<title>Node2&#45;&gt;Node9</title>
<g id="a_edge11_Node000002_Node000009"><a xlink:title=" ">
<path fill="none" stroke="#63b8ff" d="M309.98,-258.97C292.59,-249.03 271.69,-237.09 255.8,-228.01"/>
<polygon fill="#63b8ff" stroke="#63b8ff" points="308.29,-262.03 318.7,-263.95 311.76,-255.95 308.29,-262.03"/>
</a>
</g>
</g>
<!-- Node4 -->
<g id="Node000004" class="node">
<title>Node4</title>
<g id="a_Node000004"><a xlink:href="solver_8cpp.html" target="_top" xlink:title=" ">
<polygon fill="white" stroke="#666666" points="494.28,-30 362.28,-30 362.28,0 494.28,0 494.28,-30"/>
<text text-anchor="start" x="370.28" y="-18" font-family="FreeSans" font-size="10.00">mpqc/chemistry/qc/mra</text>
<text text-anchor="middle" x="428.28" y="-7" font-family="FreeSans" font-size="10.00">/scf/solver.cpp</text>
</a>
</g>
</g>
<!-- Node3&#45;&gt;Node4 -->
<g id="edge3_Node000003_Node000004" class="edge">
<title>Node3&#45;&gt;Node4</title>
<g id="a_edge3_Node000003_Node000004"><a xlink:title=" ">
<path fill="none" stroke="#63b8ff" d="M397.79,-57.53C404.47,-48.43 411.98,-38.19 417.88,-30.16"/>
<polygon fill="#63b8ff" stroke="#63b8ff" points="394.81,-55.66 391.71,-65.8 400.45,-59.81 394.81,-55.66"/>
</a>
</g>
</g>
<!-- Node5&#45;&gt;Node4 -->
<g id="edge5_Node000005_Node000004" class="edge">
<title>Node5&#45;&gt;Node4</title>
<g id="a_edge5_Node000005_Node000004"><a xlink:title=" ">
<path fill="none" stroke="#63b8ff" d="M519.55,-188.53C505,-159.57 479.3,-108.9 456.28,-66 449.79,-53.9 442.16,-40.32 436.51,-30.37"/>
<polygon fill="#63b8ff" stroke="#63b8ff" points="516.6,-190.45 524.21,-197.82 522.86,-187.31 516.6,-190.45"/>
</a>
</g>
</g>
<!-- Node7 -->
<g id="Node000007" class="node">
<title>Node7</title>
<g id="a_Node000007"><a xlink:href="chemistry_2qc_2mra_2wfn_2sp_8h.html" target="_top" xlink:title=" ">
<polygon fill="white" stroke="#666666" points="447.28,-162 315.28,-162 315.28,-132 447.28,-132 447.28,-162"/>
<text text-anchor="start" x="323.28" y="-150" font-family="FreeSans" font-size="10.00">mpqc/chemistry/qc/mra</text>
<text text-anchor="middle" x="381.28" y="-139" font-family="FreeSans" font-size="10.00">/wfn/sp.h</text>
</a>
</g>
</g>
<!-- Node6&#45;&gt;Node7 -->
<g id="edge7_Node000006_Node000007" class="edge">
<title>Node6&#45;&gt;Node7</title>
<g id="a_edge7_Node000006_Node000007"><a xlink:title=" ">
<path fill="none" stroke="#63b8ff" d="M374.72,-187.83C374.3,-179.17 374.59,-169.7 375.57,-162.16"/>
<polygon fill="#63b8ff" stroke="#63b8ff" points="371.23,-188.13 375.56,-197.8 378.2,-187.54 371.23,-188.13"/>
</a>
</g>
</g>
<!-- Node7&#45;&gt;Node3 -->
<g id="edge8_Node000007_Node000003" class="edge">
<title>Node7&#45;&gt;Node3</title>
<g id="a_edge8_Node000007_Node000003"><a xlink:title=" ">
<path fill="none" stroke="#63b8ff" d="M381.28,-121.54C381.28,-112.96 381.28,-103.61 381.28,-96.16"/>
<polygon fill="#63b8ff" stroke="#63b8ff" points="377.78,-121.8 381.28,-131.8 384.78,-121.8 377.78,-121.8"/>
</a>
</g>
</g>
<!-- Node7&#45;&gt;Node6 -->
<g id="edge9_Node000007_Node000006" class="edge">
<title>Node7&#45;&gt;Node6</title>
<g id="a_edge9_Node000007_Node000006"><a xlink:title=" ">
<path fill="none" stroke="#63b8ff" d="M387.85,-172.13C388.26,-180.78 387.98,-190.26 387,-197.8"/>
<polygon fill="#63b8ff" stroke="#63b8ff" points="391.34,-171.83 387,-162.16 384.36,-172.43 391.34,-171.83"/>
</a>
</g>
</g>
<!-- Node10&#45;&gt;Node2 -->
<g id="edge13_Node000010_Node000002" class="edge">
<title>Node10&#45;&gt;Node2</title>
<g id="a_edge13_Node000010_Node000002"><a xlink:title=" ">
<path fill="none" stroke="#63b8ff" d="M460.18,-326.21C436.43,-316.82 403.66,-303.87 378.86,-294.06"/>
<polygon fill="#63b8ff" stroke="#63b8ff" points="459.18,-329.57 469.76,-329.99 461.75,-323.06 459.18,-329.57"/>
</a>
</g>
</g>
<!-- Node11 -->
<g id="Node000011" class="node">
<title>Node11</title>
<g id="a_Node000011"><a xlink:href="ao_8ipp.html" target="_top" xlink:title=" ">
<polygon fill="white" stroke="#666666" points="555.28,-288.5 427.28,-288.5 427.28,-269.5 555.28,-269.5 555.28,-288.5"/>
<text text-anchor="middle" x="491.28" y="-276.5" font-family="FreeSans" font-size="10.00">mpqc/math/mra/ao.ipp</text>
</a>
</g>
</g>
<!-- Node10&#45;&gt;Node11 -->
<g id="edge14_Node000010_Node000011" class="edge">
<title>Node10&#45;&gt;Node11</title>
<g id="a_edge14_Node000010_Node000011"><a xlink:title=" ">
<path fill="none" stroke="#63b8ff" d="M484.93,-319.66C484.1,-309.24 484.57,-296.8 486.32,-288.67"/>
<polygon fill="#63b8ff" stroke="#63b8ff" points="481.5,-320.44 486.33,-329.87 488.44,-319.49 481.5,-320.44"/>
</a>
</g>
</g>
<!-- Node11&#45;&gt;Node10 -->
<g id="edge15_Node000011_Node000010" class="edge">
<title>Node11&#45;&gt;Node10</title>
<g id="a_edge15_Node000011_Node000010"><a xlink:title=" ">
<path fill="none" stroke="#63b8ff" d="M497.64,-298.89C498.46,-309.31 497.99,-321.75 496.24,-329.87"/>
<polygon fill="#63b8ff" stroke="#63b8ff" points="501.07,-298.1 496.25,-288.67 494.13,-299.05 501.07,-298.1"/>
</a>
</g>
</g>
<!-- Node12&#45;&gt;Node7 -->
<g id="edge22_Node000012_Node000007" class="edge">
<title>Node12&#45;&gt;Node7</title>
<g id="a_edge22_Node000012_Node000007"><a xlink:title=" ">
<path fill="none" stroke="#63b8ff" d="M737.86,-323.04C745.76,-315.25 754.11,-305.11 758.28,-294 773.31,-254.07 786.4,-230.09 758.28,-198 738.16,-175.03 550.24,-159.15 447.55,-152.1"/>
<polygon fill="#63b8ff" stroke="#63b8ff" points="735.28,-320.65 730.27,-329.99 740.01,-325.81 735.28,-320.65"/>
</a>
</g>
</g>
<!-- Node13 -->
<g id="Node000013" class="node">
<title>Node13</title>
<g id="a_Node000013"><a xlink:href="mra_8h.html" target="_top" xlink:title=" ">
<polygon fill="white" stroke="#666666" points="748.78,-294 615.78,-294 615.78,-264 748.78,-264 748.78,-294"/>
<text text-anchor="start" x="623.78" y="-282" font-family="FreeSans" font-size="10.00">mpqc/chemistry/qc/lcao</text>
<text text-anchor="middle" x="682.28" y="-271" font-family="FreeSans" font-size="10.00">/basis/gaussian/mra.h</text>
</a>
</g>
</g>
<!-- Node12&#45;&gt;Node13 -->
<g id="edge17_Node000012_Node000013" class="edge">
<title>Node12&#45;&gt;Node13</title>
<g id="a_edge17_Node000012_Node000013"><a xlink:title=" ">
<path fill="none" stroke="#63b8ff" d="M708.42,-321.33C702.95,-312.67 696.39,-302.3 691.21,-294.11"/>
<polygon fill="#63b8ff" stroke="#63b8ff" points="705.52,-323.29 713.82,-329.87 711.44,-319.55 705.52,-323.29"/>
</a>
</g>
</g>
<!-- Node15 -->
<g id="Node000015" class="node">
<title>Node15</title>
<g id="a_Node000015"><a xlink:href="mra_2gaussian_8cpp.html" target="_top" xlink:title=" ">
<polygon fill="white" stroke="#666666" points="966.78,-288.5 805.78,-288.5 805.78,-269.5 966.78,-269.5 966.78,-288.5"/>
<text text-anchor="middle" x="886.28" y="-276.5" font-family="FreeSans" font-size="10.00">mpqc/math/mra/gaussian.cpp</text>
</a>
</g>
</g>
<!-- Node12&#45;&gt;Node15 -->
<g id="edge23_Node000012_Node000015" class="edge">
<title>Node12&#45;&gt;Node15</title>
<g id="a_edge23_Node000012_Node000015"><a xlink:title=" ">
<path fill="none" stroke="#63b8ff" d="M753.05,-326.67C785.35,-315.36 833.26,-298.57 861.97,-288.52"/>
<polygon fill="#63b8ff" stroke="#63b8ff" points="751.85,-323.38 743.57,-329.99 754.16,-329.99 751.85,-323.38"/>
</a>
</g>
</g>
<!-- Node13&#45;&gt;Node5 -->
<g id="edge20_Node000013_Node000005" class="edge">
<title>Node13&#45;&gt;Node5</title>
<g id="a_edge20_Node000013_Node000005"><a xlink:title=" ">
<path fill="none" stroke="#63b8ff" d="M639.62,-259.92C615.76,-249.8 586.45,-237.38 564.34,-228.01"/>
<polygon fill="#63b8ff" stroke="#63b8ff" points="638.57,-263.28 649.15,-263.95 641.3,-256.83 638.57,-263.28"/>
</a>
</g>
</g>
<!-- Node13&#45;&gt;Node6 -->
<g id="edge21_Node000013_Node000006" class="edge">
<title>Node13&#45;&gt;Node6</title>
<g id="a_edge21_Node000013_Node000006"><a xlink:title=" ">
<path fill="none" stroke="#63b8ff" d="M606.3,-261.84C557.26,-251.42 494.1,-237.99 447.18,-228.01"/>
<polygon fill="#63b8ff" stroke="#63b8ff" points="605.72,-265.3 616.23,-263.95 607.17,-258.45 605.72,-265.3"/>
</a>
</g>
</g>
<!-- Node14 -->
<g id="Node000014" class="node">
<title>Node14</title>
<g id="a_Node000014"><a xlink:href="mra_8ipp.html" target="_top" xlink:title=" ">
<polygon fill="white" stroke="#666666" points="748.78,-228 615.78,-228 615.78,-198 748.78,-198 748.78,-228"/>
<text text-anchor="start" x="623.78" y="-216" font-family="FreeSans" font-size="10.00">mpqc/chemistry/qc/lcao</text>
<text text-anchor="middle" x="682.28" y="-205" font-family="FreeSans" font-size="10.00">/basis/gaussian/mra.ipp</text>
</a>
</g>
</g>
<!-- Node13&#45;&gt;Node14 -->
<g id="edge18_Node000013_Node000014" class="edge">
<title>Node13&#45;&gt;Node14</title>
<g id="a_edge18_Node000013_Node000014"><a xlink:title=" ">
<path fill="none" stroke="#63b8ff" d="M675.72,-253.83C675.3,-245.17 675.59,-235.7 676.57,-228.16"/>
<polygon fill="#63b8ff" stroke="#63b8ff" points="672.23,-254.13 676.56,-263.8 679.2,-253.54 672.23,-254.13"/>
</a>
</g>
</g>
<!-- Node14&#45;&gt;Node13 -->
<g id="edge19_Node000014_Node000013" class="edge">
<title>Node14&#45;&gt;Node13</title>
<g id="a_edge19_Node000014_Node000013"><a xlink:title=" ">
<path fill="none" stroke="#63b8ff" d="M688.85,-238.13C689.26,-246.78 688.98,-256.26 688,-263.8"/>
<polygon fill="#63b8ff" stroke="#63b8ff" points="692.34,-237.83 688,-228.16 685.36,-238.43 692.34,-237.83"/>
</a>
</g>
</g>
</g>
</svg>

<g id="navigator" transform="translate(0 0)" fill="#404254">
  <rect fill="#f2f5e9" fill-opacity="0.5" stroke="#606060" stroke-width=".5" x="0" y="0" width="60" height="60"/>
  <use id="zoomplus" xlink:href="#zoomPlus" x="17" y="9" onmousedown="handleZoom(evt,'in')"/>
  <use id="zoomminus" xlink:href="#zoomMin" x="42" y="9" onmousedown="handleZoom(evt,'out')"/>
  <use id="reset" xlink:href="#resetDef" x="30" y="36" onmousedown="handleReset()"/>
   <use id="arrowup" xlink:href="#arrowUp" x="0" y="0" onmousedown="handlePan(0,-1)"/>
  <use id="arrowright" xlink:href="#arrowRight" x="0" y="0" onmousedown="handlePan(1,0)"/>
  <use id="arrowdown" xlink:href="#arrowDown" x="0" y="0" onmousedown="handlePan(0,1)"/>
  <use id="arrowleft" xlink:href="#arrowLeft" x="0" y="0" onmousedown="handlePan(-1,0)"/>
</g>
<svg viewBox="0 0 15 15" width="100%" height="30px" preserveAspectRatio="xMaxYMin meet">
 <g id="arrow_out" transform="scale(0.3 0.3)">
  <a xlink:href="lapack_8h__dep__incl_org.svg" target="_base">
   <rect id="button" ry="5" rx="5" y="6" x="6" height="38" width="38"
        fill="#f2f5e9" fill-opacity="0.5" stroke="#606060" stroke-width="1.0"/>
   <path id="arrow"
     d="M 11.500037,31.436501 C 11.940474,20.09759 22.043105,11.32322 32.158766,21.979434 L 37.068811,17.246167 C 37.068811,17.246167 37.088388,32 37.088388,32 L 22.160133,31.978069 C 22.160133,31.978069 26.997745,27.140456 26.997745,27.140456 C 18.528582,18.264221 13.291696,25.230495 11.500037,31.436501 z"
     style="fill:#404040;"/>
  </a>
 </g>
</svg>

<style type='text/css'>
<![CDATA[
[data-mouse-over-selected='false'] { opacity: 0.7; }
[data-mouse-over-selected='true']  { opacity: 1.0; }
]]>
</style>
<script type="application/ecmascript"><![CDATA[
document.addEventListener('DOMContentLoaded', (event) => {
  highlightEdges();
  highlightAdjacentNodes();
});
]]></script>
</svg>
