<?xml version="1.0" encoding="UTF-8" standalone="no"?>
<!DOCTYPE svg PUBLIC "-//W3C//DTD SVG 1.1//EN"
 "http://www.w3.org/Graphics/SVG/1.1/DTD/svg11.dtd">
<!-- Generated by graphviz version 2.43.0 (0)
 -->
<!-- Title: mpqc/chemistry/qc/lcao/cc/pt/laplace_transform.h Pages: 1 -->
<svg width="297pt" height="236pt"
 viewBox="0.00 0.00 297.00 236.00" xmlns="http://www.w3.org/2000/svg" xmlns:xlink="http://www.w3.org/1999/xlink">
<g id="graph0" class="graph" transform="scale(1 1) rotate(0) translate(4 232)">
<title>mpqc/chemistry/qc/lcao/cc/pt/laplace_transform.h</title>
<!-- Node1 -->
<g id="Node000001" class="node">
<title>Node1</title>
<g id="a_Node000001"><a xlink:title=" ">
<polygon fill="#999999" stroke="#666666" points="143,-228 0,-228 0,-198 143,-198 143,-228"/>
<text text-anchor="start" x="8" y="-216" font-family="FreeSans" font-size="10.00">mpqc/chemistry/qc/lcao</text>
<text text-anchor="middle" x="71.5" y="-205" font-family="FreeSans" font-size="10.00">/cc/pt/laplace_transform.h</text>
</a>
</g>
</g>
<!-- Node2 -->
<g id="Node000002" class="node">
<title>Node2</title>
<g id="a_Node000002"><a xlink:href="ccsd__t_8h.html" target="_top" xlink:title=" ">
<polygon fill="white" stroke="#666666" points="138,-162 5,-162 5,-132 138,-132 138,-162"/>
<text text-anchor="start" x="13" y="-150" font-family="FreeSans" font-size="10.00">mpqc/chemistry/qc/lcao</text>
<text text-anchor="middle" x="71.5" y="-139" font-family="FreeSans" font-size="10.00">/cc/pt/ccsd_t.h</text>
</a>
</g>
</g>
<!-- Node1&#45;&gt;Node2 -->
<g id="edge1_Node000001_Node000002" class="edge">
<title>Node1&#45;&gt;Node2</title>
<g id="a_edge1_Node000001_Node000002"><a xlink:title=" ">
<path fill="none" stroke="#63b8ff" d="M71.5,-187.54C71.5,-178.96 71.5,-169.61 71.5,-162.16"/>
<polygon fill="#63b8ff" stroke="#63b8ff" points="68,-187.8 71.5,-197.8 75,-187.8 68,-187.8"/>
</a>
</g>
</g>
<!-- Node3 -->
<g id="Node000003" class="node">
<title>Node3</title>
<g id="a_Node000003"><a xlink:href="ccsd__t_8ipp.html" target="_top" xlink:title=" ">
<polygon fill="white" stroke="#666666" points="138,-96 5,-96 5,-66 138,-66 138,-96"/>
<text text-anchor="start" x="13" y="-84" font-family="FreeSans" font-size="10.00">mpqc/chemistry/qc/lcao</text>
<text text-anchor="middle" x="71.5" y="-73" font-family="FreeSans" font-size="10.00">/cc/pt/ccsd_t.ipp</text>
</a>
</g>
</g>
<!-- Node2&#45;&gt;Node3 -->
<g id="edge2_Node000002_Node000003" class="edge">
<title>Node2&#45;&gt;Node3</title>
<g id="a_edge2_Node000002_Node000003"><a xlink:title=" ">
<path fill="none" stroke="#63b8ff" d="M64.93,-121.83C64.52,-113.17 64.81,-103.7 65.79,-96.16"/>
<polygon fill="#63b8ff" stroke="#63b8ff" points="61.45,-122.13 65.78,-131.8 68.42,-121.54 61.45,-122.13"/>
</a>
</g>
</g>
<!-- Node5 -->
<g id="Node000005" class="node">
<title>Node5</title>
<g id="a_Node000005"><a xlink:href="ccsd__t__f12_8h.html" target="_top" xlink:title=" ">
<polygon fill="white" stroke="#666666" points="289,-96 156,-96 156,-66 289,-66 289,-96"/>
<text text-anchor="start" x="164" y="-84" font-family="FreeSans" font-size="10.00">mpqc/chemistry/qc/lcao</text>
<text text-anchor="middle" x="222.5" y="-73" font-family="FreeSans" font-size="10.00">/f12/ccsd_t_f12.h</text>
</a>
</g>
</g>
<!-- Node2&#45;&gt;Node5 -->
<g id="edge5_Node000002_Node000005" class="edge">
<title>Node2&#45;&gt;Node5</title>
<g id="a_edge5_Node000002_Node000005"><a xlink:title=" ">
<path fill="none" stroke="#63b8ff" d="M114.16,-127.92C138.03,-117.8 167.33,-105.38 189.44,-96.01"/>
<polygon fill="#63b8ff" stroke="#63b8ff" points="112.48,-124.83 104.64,-131.95 115.21,-131.28 112.48,-124.83"/>
</a>
</g>
</g>
<!-- Node3&#45;&gt;Node2 -->
<g id="edge4_Node000003_Node000002" class="edge">
<title>Node3&#45;&gt;Node2</title>
<g id="a_edge4_Node000003_Node000002"><a xlink:title=" ">
<path fill="none" stroke="#63b8ff" d="M78.07,-106.13C78.48,-114.78 78.2,-124.26 77.22,-131.8"/>
<polygon fill="#63b8ff" stroke="#63b8ff" points="81.55,-105.83 77.21,-96.16 74.58,-106.43 81.55,-105.83"/>
</a>
</g>
</g>
<!-- Node4 -->
<g id="Node000004" class="node">
<title>Node4</title>
<g id="a_Node000004"><a xlink:href="ccsd__t_8cpp.html" target="_top" xlink:title=" ">
<polygon fill="white" stroke="#666666" points="138,-30 5,-30 5,0 138,0 138,-30"/>
<text text-anchor="start" x="13" y="-18" font-family="FreeSans" font-size="10.00">mpqc/chemistry/qc/lcao</text>
<text text-anchor="middle" x="71.5" y="-7" font-family="FreeSans" font-size="10.00">/cc/pt/ccsd_t.cpp</text>
</a>
</g>
</g>
<!-- Node3&#45;&gt;Node4 -->
<g id="edge3_Node000003_Node000004" class="edge">
<title>Node3&#45;&gt;Node4</title>
<g id="a_edge3_Node000003_Node000004"><a xlink:title=" ">
<path fill="none" stroke="#63b8ff" d="M71.5,-55.54C71.5,-46.96 71.5,-37.61 71.5,-30.16"/>
<polygon fill="#63b8ff" stroke="#63b8ff" points="68,-55.8 71.5,-65.8 75,-55.8 68,-55.8"/>
</a>
</g>
</g>
<!-- Node6 -->
<g id="Node000006" class="node">
<title>Node6</title>
<g id="a_Node000006"><a xlink:href="ccsd__t__f12_8cpp.html" target="_top" xlink:title=" ">
<polygon fill="white" stroke="#666666" points="289,-30 156,-30 156,0 289,0 289,-30"/>
<text text-anchor="start" x="164" y="-18" font-family="FreeSans" font-size="10.00">mpqc/chemistry/qc/lcao</text>
<text text-anchor="middle" x="222.5" y="-7" font-family="FreeSans" font-size="10.00">/f12/ccsd_t_f12.cpp</text>
</a>
</g>
</g>
<!-- Node5&#45;&gt;Node6 -->
<g id="edge6_Node000005_Node000006" class="edge">
<title>Node5&#45;&gt;Node6</title>
<g id="a_edge6_Node000005_Node000006"><a xlink:title=" ">
<path fill="none" stroke="#63b8ff" d="M222.5,-55.54C222.5,-46.96 222.5,-37.61 222.5,-30.16"/>
<polygon fill="#63b8ff" stroke="#63b8ff" points="219,-55.8 222.5,-65.8 226,-55.8 219,-55.8"/>
</a>
</g>
</g>
</g>
</svg>
