<?xml version="1.0" encoding="UTF-8" standalone="no"?>
<!DOCTYPE svg PUBLIC "-//W3C//DTD SVG 1.1//EN"
 "http://www.w3.org/Graphics/SVG/1.1/DTD/svg11.dtd">
<!-- Generated by graphviz version 2.43.0 (0)
 -->
<!-- Title: mpqc/util/core/log.cc Pages: 1 -->
<!--zoomable 269 -->

<svg id="main" version="1.1" xmlns="http://www.w3.org/2000/svg" xmlns:xlink="http://www.w3.org/1999/xlink" xml:space="preserve" onload="init(evt)">
<style type="text/css"><![CDATA[
.node, .edge {opacity: 0.7;}
.node.selected, .edge.selected {opacity: 1;}
.edge:hover path { stroke: red; }
.edge:hover polygon { stroke: red; fill: red; }
]]></style>

<defs>
  <circle id="rim" cx="0" cy="0" r="7"/>
  <circle id="rim2" cx="0" cy="0" r="3.5"/>
  <g id="zoomPlus">
    <use xlink:href="#rim" fill="#404040"><set attributeName="fill" to="#808080" begin="zoomplus.mouseover" end="zoomplus.mouseout"/></use>
    <path d="M-4,0h8M0,-4v8" fill="none" stroke="white" stroke-width="1.5" pointer-events="none"/>
  </g>
  <g id="zoomMin">
    <use xlink:href="#rim" fill="#404040"><set attributeName="fill" to="#808080" begin="zoomminus.mouseover" end="zoomminus.mouseout"/></use>
    <path d="M-4,0h8" fill="none" stroke="white" stroke-width="1.5" pointer-events="none"/>
  </g>
  <g id="arrowUp" transform="translate(30 24)">
    <use xlink:href="#rim"/>
    <path pointer-events="none" fill="none" stroke="white" stroke-width="1.5" d="M0,-3.0v7 M-2.5,-0.5L0,-3.0L2.5,-0.5"/>
  </g>
  <g id="arrowRight" transform="rotate(90) translate(36 -43)">
    <use xlink:href="#rim"/>
    <path pointer-events="none" fill="none" stroke="white" stroke-width="1.5" d="M0,-3.0v7 M-2.5,-0.5L0,-3.0L2.5,-0.5"/>
  </g>
  <g id="arrowDown" transform="rotate(180) translate(-30 -48)">
    <use xlink:href="#rim"/>
    <path pointer-events="none" fill="none" stroke="white" stroke-width="1.5" d="M0,-3.0v7 M-2.5,-0.5L0,-3.0L2.5,-0.5"/>
  </g>
  <g id="arrowLeft" transform="rotate(270) translate(-36 17)">
    <use xlink:href="#rim"/>
    <path pointer-events="none" fill="none" stroke="white" stroke-width="1.5" d="M0,-3.0v7 M-2.5,-0.5L0,-3.0L2.5,-0.5"/>
  </g>
  <g id="resetDef">
    <use xlink:href="#rim2" fill="#404040"><set attributeName="fill" to="#808080" begin="reset.mouseover" end="reset.mouseout"/></use>
  </g>
</defs>
<script type="application/ecmascript">
var viewWidth = 847;
var viewHeight = 269;
var sectionId = 'dynsection-0';
</script>
<script type="application/ecmascript" xlink:href="svg.min.js"/>
<svg id="graph" class="graph">
<g id="viewport">
<title>mpqc/util/core/log.cc</title>
<!-- Node1 -->
<g id="Node000001" class="node">
<title>Node1</title>
<g id="a_Node000001"><a xlink:title=" ">
<polygon fill="#999999" stroke="#666666" points="351,-261 233,-261 233,-242 351,-242 351,-261"/>
<text text-anchor="middle" x="292" y="-249" font-family="FreeSans" font-size="10.00">mpqc/util/core/log.cc</text>
</a>
</g>
</g>
<!-- Node2 -->
<g id="Node000002" class="node">
<title>Node2</title>
<g id="a_Node000002"><a xlink:href="log_8h.html" target="_top" xlink:title=" ">
<polygon fill="white" stroke="#666666" points="149.5,-206 36.5,-206 36.5,-187 149.5,-187 149.5,-206"/>
<text text-anchor="middle" x="93" y="-194" font-family="FreeSans" font-size="10.00">mpqc/util/core/log.h</text>
</a>
</g>
</g>
<!-- Node1&#45;&gt;Node2 -->
<g id="edge1_Node000001_Node000002" class="edge">
<title>Node1&#45;&gt;Node2</title>
<g id="a_edge1_Node000001_Node000002"><a xlink:title=" ">
<path fill="none" stroke="#63b8ff" d="M260.03,-241.98C226.18,-232.97 172.6,-218.7 135.29,-208.76"/>
<polygon fill="#63b8ff" stroke="#63b8ff" points="135.79,-205.27 125.22,-206.08 133.99,-212.04 135.79,-205.27"/>
</a>
</g>
</g>
<!-- Node5 -->
<g id="Node000005" class="node">
<title>Node5</title>
<g id="a_Node000005"><a xlink:href="exenv_8h.html" target="_top" xlink:title=" ">
<polygon fill="white" stroke="#666666" points="571.5,-206 444.5,-206 444.5,-187 571.5,-187 571.5,-206"/>
<text text-anchor="middle" x="508" y="-194" font-family="FreeSans" font-size="10.00">mpqc/util/core/exenv.h</text>
</a>
</g>
</g>
<!-- Node1&#45;&gt;Node5 -->
<g id="edge4_Node000001_Node000005" class="edge">
<title>Node1&#45;&gt;Node5</title>
<g id="a_edge4_Node000001_Node000005"><a xlink:title=" ">
<path fill="none" stroke="#63b8ff" d="M326.7,-241.98C363.75,-232.89 422.59,-218.46 463.13,-208.51"/>
<polygon fill="#63b8ff" stroke="#63b8ff" points="464.15,-211.86 473.02,-206.08 462.48,-205.07 464.15,-211.86"/>
</a>
</g>
</g>
<!-- Node3 -->
<g id="Node000003" class="node">
<title>Node3</title>
<g id="a_Node000003"><a xlink:title=" ">
<polygon fill="#e0e0e0" stroke="#999999" points="46,-145.5 0,-145.5 0,-126.5 46,-126.5 46,-145.5"/>
<text text-anchor="middle" x="23" y="-133.5" font-family="FreeSans" font-size="10.00">cstdio</text>
</a>
</g>
</g>
<!-- Node2&#45;&gt;Node3 -->
<g id="edge2_Node000002_Node000003" class="edge">
<title>Node2&#45;&gt;Node3</title>
<g id="a_edge2_Node000002_Node000003"><a xlink:title=" ">
<path fill="none" stroke="#63b8ff" d="M82.67,-186.87C71.81,-177.8 54.51,-163.34 41.33,-152.32"/>
<polygon fill="#63b8ff" stroke="#63b8ff" points="43.29,-149.39 33.37,-145.67 38.8,-154.77 43.29,-149.39"/>
</a>
</g>
</g>
<!-- Node4 -->
<g id="Node000004" class="node">
<title>Node4</title>
<g id="a_Node000004"><a xlink:title=" ">
<polygon fill="#e0e0e0" stroke="#999999" points="121.5,-145.5 64.5,-145.5 64.5,-126.5 121.5,-126.5 121.5,-145.5"/>
<text text-anchor="middle" x="93" y="-133.5" font-family="FreeSans" font-size="10.00">ostream</text>
</a>
</g>
</g>
<!-- Node2&#45;&gt;Node4 -->
<g id="edge3_Node000002_Node000004" class="edge">
<title>Node2&#45;&gt;Node4</title>
<g id="a_edge3_Node000002_Node000004"><a xlink:title=" ">
<path fill="none" stroke="#63b8ff" d="M93,-186.87C93,-178.75 93,-166.31 93,-155.89"/>
<polygon fill="#63b8ff" stroke="#63b8ff" points="96.5,-155.67 93,-145.67 89.5,-155.67 96.5,-155.67"/>
</a>
</g>
</g>
<!-- Node6 -->
<g id="Node000006" class="node">
<title>Node6</title>
<g id="a_Node000006"><a xlink:href="math_2external_2tiledarray_2fwd_8h.html" target="_top" xlink:title=" ">
<polygon fill="white" stroke="#666666" points="256,-151 140,-151 140,-121 256,-121 256,-151"/>
<text text-anchor="start" x="148" y="-139" font-family="FreeSans" font-size="10.00">mpqc/math/external</text>
<text text-anchor="middle" x="198" y="-128" font-family="FreeSans" font-size="10.00">/tiledarray/fwd.h</text>
</a>
</g>
</g>
<!-- Node5&#45;&gt;Node6 -->
<g id="edge5_Node000005_Node000006" class="edge">
<title>Node5&#45;&gt;Node6</title>
<g id="a_edge5_Node000005_Node000006"><a xlink:title=" ">
<path fill="none" stroke="#63b8ff" d="M461.91,-186.98C413.95,-178.1 336.69,-163.72 270,-151 268.73,-150.76 267.45,-150.51 266.17,-150.27"/>
<polygon fill="#63b8ff" stroke="#63b8ff" points="266.63,-146.79 256.15,-148.34 265.31,-153.67 266.63,-146.79"/>
</a>
</g>
</g>
<!-- Node7 -->
<g id="Node000007" class="node">
<title>Node7</title>
<g id="a_Node000007"><a xlink:title=" ">
<polygon fill="#e0e0e0" stroke="#999999" points="342.5,-19 225.5,-19 225.5,0 342.5,0 342.5,-19"/>
<text text-anchor="middle" x="284" y="-7" font-family="FreeSans" font-size="10.00">mpqc/mpqc_config.h</text>
</a>
</g>
</g>
<!-- Node5&#45;&gt;Node7 -->
<g id="edge8_Node000005_Node000007" class="edge">
<title>Node5&#45;&gt;Node7</title>
<g id="a_edge8_Node000005_Node000007"><a xlink:title=" ">
<path fill="none" stroke="#63b8ff" d="M444.26,-188.43C394.61,-181.61 331.16,-169.54 313,-151 280.7,-118.02 279.97,-59.16 282.03,-29.17"/>
<polygon fill="#63b8ff" stroke="#63b8ff" points="285.51,-29.47 282.89,-19.21 278.54,-28.87 285.51,-29.47"/>
</a>
</g>
</g>
<!-- Node9 -->
<g id="Node000009" class="node">
<title>Node9</title>
<g id="a_Node000009"><a xlink:href="formio_8h.html" target="_top" xlink:title=" ">
<polygon fill="white" stroke="#666666" points="453.5,-145.5 322.5,-145.5 322.5,-126.5 453.5,-126.5 453.5,-145.5"/>
<text text-anchor="middle" x="388" y="-133.5" font-family="FreeSans" font-size="10.00">mpqc/util/core/formio.h</text>
</a>
</g>
</g>
<!-- Node5&#45;&gt;Node9 -->
<g id="edge9_Node000005_Node000009" class="edge">
<title>Node5&#45;&gt;Node9</title>
<g id="a_edge9_Node000005_Node000009"><a xlink:title=" ">
<path fill="none" stroke="#63b8ff" d="M490.55,-186.99C470.64,-177.29 437.86,-161.31 414.73,-150.03"/>
<polygon fill="#63b8ff" stroke="#63b8ff" points="415.99,-146.75 405.47,-145.52 412.93,-153.04 415.99,-146.75"/>
</a>
</g>
</g>
<!-- Node12 -->
<g id="Node000012" class="node">
<title>Node12</title>
<g id="a_Node000012"><a xlink:href="memory.html" target="_top" xlink:title=" ">
<polygon fill="white" stroke="#666666" points="616,-79.5 558,-79.5 558,-60.5 616,-60.5 616,-79.5"/>
<text text-anchor="middle" x="587" y="-67.5" font-family="FreeSans" font-size="10.00">memory</text>
</a>
</g>
</g>
<!-- Node5&#45;&gt;Node12 -->
<g id="edge19_Node000005_Node000012" class="edge">
<title>Node5&#45;&gt;Node12</title>
<g id="a_edge19_Node000005_Node000012"><a xlink:title=" ">
<path fill="none" stroke="#63b8ff" d="M504.21,-186.53C498.61,-171.79 490.02,-141.95 502,-121 508.36,-109.88 536.32,-94.68 558.46,-83.97"/>
<polygon fill="#63b8ff" stroke="#63b8ff" points="559.98,-87.12 567.51,-79.67 556.98,-80.8 559.98,-87.12"/>
</a>
</g>
</g>
<!-- Node15 -->
<g id="Node000015" class="node">
<title>Node15</title>
<g id="a_Node000015"><a xlink:title=" ">
<polygon fill="#e0e0e0" stroke="#999999" points="559.5,-145.5 510.5,-145.5 510.5,-126.5 559.5,-126.5 559.5,-145.5"/>
<text text-anchor="middle" x="535" y="-133.5" font-family="FreeSans" font-size="10.00">cstdlib</text>
</a>
</g>
</g>
<!-- Node5&#45;&gt;Node15 -->
<g id="edge17_Node000005_Node000015" class="edge">
<title>Node5&#45;&gt;Node15</title>
<g id="a_edge17_Node000005_Node000015"><a xlink:title=" ">
<path fill="none" stroke="#63b8ff" d="M511.98,-186.87C515.85,-178.49 521.84,-165.51 526.74,-154.89"/>
<polygon fill="#63b8ff" stroke="#63b8ff" points="529.99,-156.21 531,-145.67 523.63,-153.28 529.99,-156.21"/>
</a>
</g>
</g>
<!-- Node16 -->
<g id="Node000016" class="node">
<title>Node16</title>
<g id="a_Node000016"><a xlink:title=" ">
<polygon fill="#e0e0e0" stroke="#999999" points="638,-145.5 578,-145.5 578,-126.5 638,-126.5 638,-145.5"/>
<text text-anchor="middle" x="608" y="-133.5" font-family="FreeSans" font-size="10.00">iostream</text>
</a>
</g>
</g>
<!-- Node5&#45;&gt;Node16 -->
<g id="edge18_Node000005_Node000016" class="edge">
<title>Node5&#45;&gt;Node16</title>
<g id="a_edge18_Node000005_Node000016"><a xlink:title=" ">
<path fill="none" stroke="#63b8ff" d="M522.76,-186.87C539,-177.36 565.35,-161.95 584.46,-150.77"/>
<polygon fill="#63b8ff" stroke="#63b8ff" points="586.32,-153.74 593.18,-145.67 582.79,-147.7 586.32,-153.74"/>
</a>
</g>
</g>
<!-- Node17 -->
<g id="Node000017" class="node">
<title>Node17</title>
<g id="a_Node000017"><a xlink:title=" ">
<polygon fill="#e0e0e0" stroke="#999999" points="712,-145.5 656,-145.5 656,-126.5 712,-126.5 712,-145.5"/>
<text text-anchor="middle" x="684" y="-133.5" font-family="FreeSans" font-size="10.00">optional</text>
</a>
</g>
</g>
<!-- Node5&#45;&gt;Node17 -->
<g id="edge20_Node000005_Node000017" class="edge">
<title>Node5&#45;&gt;Node17</title>
<g id="a_edge20_Node000005_Node000017"><a xlink:title=" ">
<path fill="none" stroke="#63b8ff" d="M536.1,-186.97C564.27,-178.31 608.84,-164.32 647,-151 648.65,-150.42 650.34,-149.82 652.04,-149.21"/>
<polygon fill="#63b8ff" stroke="#63b8ff" points="653.59,-152.37 661.76,-145.63 651.17,-145.8 653.59,-152.37"/>
</a>
</g>
</g>
<!-- Node18 -->
<g id="Node000018" class="node">
<title>Node18</title>
<g id="a_Node000018"><a xlink:title=" ">
<polygon fill="#e0e0e0" stroke="#999999" points="773.5,-145.5 730.5,-145.5 730.5,-126.5 773.5,-126.5 773.5,-145.5"/>
<text text-anchor="middle" x="752" y="-133.5" font-family="FreeSans" font-size="10.00">stack</text>
</a>
</g>
</g>
<!-- Node5&#45;&gt;Node18 -->
<g id="edge21_Node000005_Node000018" class="edge">
<title>Node5&#45;&gt;Node18</title>
<g id="a_edge21_Node000005_Node000018"><a xlink:title=" ">
<path fill="none" stroke="#63b8ff" d="M565.84,-186.93C609.19,-179.66 669.64,-167.74 721,-151 722.44,-150.53 723.9,-150.02 725.37,-149.47"/>
<polygon fill="#63b8ff" stroke="#63b8ff" points="726.98,-152.59 734.89,-145.53 724.31,-146.12 726.98,-152.59"/>
</a>
</g>
</g>
<!-- Node19 -->
<g id="Node000019" class="node">
<title>Node19</title>
<g id="a_Node000019"><a xlink:title=" ">
<polygon fill="#e0e0e0" stroke="#999999" points="838.5,-145.5 791.5,-145.5 791.5,-126.5 838.5,-126.5 838.5,-145.5"/>
<text text-anchor="middle" x="815" y="-133.5" font-family="FreeSans" font-size="10.00">vector</text>
</a>
</g>
</g>
<!-- Node5&#45;&gt;Node19 -->
<g id="edge22_Node000005_Node000019" class="edge">
<title>Node5&#45;&gt;Node19</title>
<g id="a_edge22_Node000005_Node000019"><a xlink:title=" ">
<path fill="none" stroke="#63b8ff" d="M571.53,-189.81C627.93,-183.68 712.13,-171.87 783,-151 784.68,-150.51 786.39,-149.94 788.1,-149.34"/>
<polygon fill="#63b8ff" stroke="#63b8ff" points="789.7,-152.47 797.69,-145.52 787.11,-145.96 789.7,-152.47"/>
</a>
</g>
</g>
<!-- Node6&#45;&gt;Node7 -->
<g id="edge6_Node000006_Node000007" class="edge">
<title>Node6&#45;&gt;Node7</title>
<g id="a_edge6_Node000006_Node000007"><a xlink:title=" ">
<path fill="none" stroke="#63b8ff" d="M179.55,-120.93C160.37,-104.55 135.19,-76.96 151,-55 165.94,-34.25 191.01,-23.03 215.38,-17.02"/>
<polygon fill="#63b8ff" stroke="#63b8ff" points="216.37,-20.39 225.39,-14.82 214.87,-13.55 216.37,-20.39"/>
</a>
</g>
</g>
<!-- Node8 -->
<g id="Node000008" class="node">
<title>Node8</title>
<g id="a_Node000008"><a xlink:title=" ">
<polygon fill="#e0e0e0" stroke="#999999" points="255.5,-79.5 160.5,-79.5 160.5,-60.5 255.5,-60.5 255.5,-79.5"/>
<text text-anchor="middle" x="208" y="-67.5" font-family="FreeSans" font-size="10.00">tiledarray_fwd.h</text>
</a>
</g>
</g>
<!-- Node6&#45;&gt;Node8 -->
<g id="edge7_Node000006_Node000008" class="edge">
<title>Node6&#45;&gt;Node8</title>
<g id="a_edge7_Node000006_Node000008"><a xlink:title=" ">
<path fill="none" stroke="#63b8ff" d="M200.22,-120.8C201.64,-111.7 203.5,-99.79 205.05,-89.9"/>
<polygon fill="#63b8ff" stroke="#63b8ff" points="208.53,-90.26 206.62,-79.84 201.62,-89.18 208.53,-90.26"/>
</a>
</g>
</g>
<!-- Node10 -->
<g id="Node000010" class="node">
<title>Node10</title>
<g id="a_Node000010"><a xlink:title=" ">
<polygon fill="#e0e0e0" stroke="#999999" points="360,-79.5 312,-79.5 312,-60.5 360,-60.5 360,-79.5"/>
<text text-anchor="middle" x="336" y="-67.5" font-family="FreeSans" font-size="10.00">iosfwd</text>
</a>
</g>
</g>
<!-- Node9&#45;&gt;Node10 -->
<g id="edge10_Node000009_Node000010" class="edge">
<title>Node9&#45;&gt;Node10</title>
<g id="a_edge10_Node000009_Node000010"><a xlink:title=" ">
<path fill="none" stroke="#63b8ff" d="M380.99,-126.37C372.97,-116.5 359.65,-100.11 349.58,-87.72"/>
<polygon fill="#63b8ff" stroke="#63b8ff" points="352.26,-85.46 343.24,-79.91 346.83,-89.87 352.26,-85.46"/>
</a>
</g>
</g>
<!-- Node11 -->
<g id="Node000011" class="node">
<title>Node11</title>
<g id="a_Node000011"><a xlink:title=" ">
<polygon fill="#e0e0e0" stroke="#999999" points="416,-79.5 378,-79.5 378,-60.5 416,-60.5 416,-79.5"/>
<text text-anchor="middle" x="397" y="-67.5" font-family="FreeSans" font-size="10.00">map</text>
</a>
</g>
</g>
<!-- Node9&#45;&gt;Node11 -->
<g id="edge11_Node000009_Node000011" class="edge">
<title>Node9&#45;&gt;Node11</title>
<g id="a_edge11_Node000009_Node000011"><a xlink:title=" ">
<path fill="none" stroke="#63b8ff" d="M389.21,-126.37C390.52,-117.07 392.64,-101.98 394.34,-89.9"/>
<polygon fill="#63b8ff" stroke="#63b8ff" points="397.82,-90.3 395.75,-79.91 390.89,-89.32 397.82,-90.3"/>
</a>
</g>
</g>
<!-- Node9&#45;&gt;Node12 -->
<g id="edge12_Node000009_Node000012" class="edge">
<title>Node9&#45;&gt;Node12</title>
<g id="a_edge12_Node000009_Node000012"><a xlink:title=" ">
<path fill="none" stroke="#63b8ff" d="M417.23,-126.42C449.6,-116.8 503.27,-100.51 549,-85 550.85,-84.37 552.74,-83.72 554.65,-83.05"/>
<polygon fill="#63b8ff" stroke="#63b8ff" points="555.93,-86.31 564.16,-79.63 553.57,-79.72 555.93,-86.31"/>
</a>
</g>
</g>
<!-- Node13 -->
<g id="Node000013" class="node">
<title>Node13</title>
<g id="a_Node000013"><a xlink:href="scope.html" target="_top" xlink:title=" ">
<polygon fill="white" stroke="#666666" points="540,-85 434,-85 434,-55 540,-55 540,-85"/>
<text text-anchor="start" x="442" y="-73" font-family="FreeSans" font-size="10.00">mpqc/util/external</text>
<text text-anchor="middle" x="487" y="-62" font-family="FreeSans" font-size="10.00">/c++/scope</text>
</a>
</g>
</g>
<!-- Node9&#45;&gt;Node13 -->
<g id="edge14_Node000009_Node000013" class="edge">
<title>Node9&#45;&gt;Node13</title>
<g id="a_edge14_Node000009_Node000013"><a xlink:title=" ">
<path fill="none" stroke="#63b8ff" d="M401.35,-126.37C415.48,-117.24 438.23,-102.53 456.74,-90.56"/>
<polygon fill="#63b8ff" stroke="#63b8ff" points="458.67,-93.48 465.16,-85.12 454.87,-87.61 458.67,-93.48"/>
</a>
</g>
</g>
<!-- Node12&#45;&gt;Node12 -->
<g id="edge13_Node000012_Node000012" class="edge">
<title>Node12&#45;&gt;Node12</title>
<g id="a_edge13_Node000012_Node000012"><a xlink:title=" ">
<path fill="none" stroke="#63b8ff" d="M604.35,-79.53C618.85,-83.61 634,-80.43 634,-70 634,-62.01 625.12,-58.28 614.45,-58.8"/>
<polygon fill="#63b8ff" stroke="#63b8ff" points="613.65,-55.38 604.35,-60.47 614.79,-62.29 613.65,-55.38"/>
</a>
</g>
</g>
<!-- Node13&#45;&gt;Node7 -->
<g id="edge15_Node000013_Node000007" class="edge">
<title>Node13&#45;&gt;Node7</title>
<g id="a_edge15_Node000013_Node000007"><a xlink:title=" ">
<path fill="none" stroke="#63b8ff" d="M438.38,-54.99C403.19,-44.85 356.24,-31.32 323.4,-21.85"/>
<polygon fill="#63b8ff" stroke="#63b8ff" points="324.26,-18.46 313.68,-19.05 322.32,-25.19 324.26,-18.46"/>
</a>
</g>
</g>
<!-- Node14 -->
<g id="Node000014" class="node">
<title>Node14</title>
<g id="a_Node000014"><a xlink:title=" ">
<polygon fill="#e0e0e0" stroke="#999999" points="509.5,-19 464.5,-19 464.5,0 509.5,0 509.5,-19"/>
<text text-anchor="middle" x="487" y="-7" font-family="FreeSans" font-size="10.00">utility</text>
</a>
</g>
</g>
<!-- Node13&#45;&gt;Node14 -->
<g id="edge16_Node000013_Node000014" class="edge">
<title>Node13&#45;&gt;Node14</title>
<g id="a_edge16_Node000013_Node000014"><a xlink:title=" ">
<path fill="none" stroke="#63b8ff" d="M487,-54.84C487,-47.21 487,-37.7 487,-29.45"/>
<polygon fill="#63b8ff" stroke="#63b8ff" points="490.5,-29.27 487,-19.27 483.5,-29.27 490.5,-29.27"/>
</a>
</g>
</g>
</g>
</svg>

<g id="navigator" transform="translate(0 0)" fill="#404254">
  <rect fill="#f2f5e9" fill-opacity="0.5" stroke="#606060" stroke-width=".5" x="0" y="0" width="60" height="60"/>
  <use id="zoomplus" xlink:href="#zoomPlus" x="17" y="9" onmousedown="handleZoom(evt,'in')"/>
  <use id="zoomminus" xlink:href="#zoomMin" x="42" y="9" onmousedown="handleZoom(evt,'out')"/>
  <use id="reset" xlink:href="#resetDef" x="30" y="36" onmousedown="handleReset()"/>
   <use id="arrowup" xlink:href="#arrowUp" x="0" y="0" onmousedown="handlePan(0,-1)"/>
  <use id="arrowright" xlink:href="#arrowRight" x="0" y="0" onmousedown="handlePan(1,0)"/>
  <use id="arrowdown" xlink:href="#arrowDown" x="0" y="0" onmousedown="handlePan(0,1)"/>
  <use id="arrowleft" xlink:href="#arrowLeft" x="0" y="0" onmousedown="handlePan(-1,0)"/>
</g>
<svg viewBox="0 0 15 15" width="100%" height="30px" preserveAspectRatio="xMaxYMin meet">
 <g id="arrow_out" transform="scale(0.3 0.3)">
  <a xlink:href="log_8cc__incl_org.svg" target="_base">
   <rect id="button" ry="5" rx="5" y="6" x="6" height="38" width="38"
        fill="#f2f5e9" fill-opacity="0.5" stroke="#606060" stroke-width="1.0"/>
   <path id="arrow"
     d="M 11.500037,31.436501 C 11.940474,20.09759 22.043105,11.32322 32.158766,21.979434 L 37.068811,17.246167 C 37.068811,17.246167 37.088388,32 37.088388,32 L 22.160133,31.978069 C 22.160133,31.978069 26.997745,27.140456 26.997745,27.140456 C 18.528582,18.264221 13.291696,25.230495 11.500037,31.436501 z"
     style="fill:#404040;"/>
  </a>
 </g>
</svg>

<style type='text/css'>
<![CDATA[
[data-mouse-over-selected='false'] { opacity: 0.7; }
[data-mouse-over-selected='true']  { opacity: 1.0; }
]]>
</style>
<script type="application/ecmascript"><![CDATA[
document.addEventListener('DOMContentLoaded', (event) => {
  highlightEdges();
  highlightAdjacentNodes();
});
]]></script>
</svg>
