<?xml version="1.0" encoding="UTF-8" standalone="no"?>
<!DOCTYPE svg PUBLIC "-//W3C//DTD SVG 1.1//EN"
 "http://www.w3.org/Graphics/SVG/1.1/DTD/svg11.dtd">
<!-- Generated by graphviz version 2.43.0 (0)
 -->
<!-- Title: mpqc/util/meta/make_array.h Pages: 1 -->
<svg width="450pt" height="335pt"
 viewBox="0.00 0.00 450.00 335.00" xmlns="http://www.w3.org/2000/svg" xmlns:xlink="http://www.w3.org/1999/xlink">
<g id="graph0" class="graph" transform="scale(1 1) rotate(0) translate(4 331)">
<title>mpqc/util/meta/make_array.h</title>
<!-- Node1 -->
<g id="Node000001" class="node">
<title>Node1</title>
<g id="a_Node000001"><a xlink:title=" ">
<polygon fill="#999999" stroke="#666666" points="181.5,-327 60.5,-327 60.5,-297 181.5,-297 181.5,-327"/>
<text text-anchor="start" x="68.5" y="-315" font-family="FreeSans" font-size="10.00">mpqc/util/meta/make</text>
<text text-anchor="middle" x="121" y="-304" font-family="FreeSans" font-size="10.00">_array.h</text>
</a>
</g>
</g>
<!-- Node2 -->
<g id="Node000002" class="node">
<title>Node2</title>
<g id="a_Node000002"><a xlink:title=" ">
<polygon fill="#e0e0e0" stroke="#999999" points="42,-79.5 0,-79.5 0,-60.5 42,-60.5 42,-79.5"/>
<text text-anchor="middle" x="21" y="-67.5" font-family="FreeSans" font-size="10.00">array</text>
</a>
</g>
</g>
<!-- Node1&#45;&gt;Node2 -->
<g id="edge1_Node000001_Node000002" class="edge">
<title>Node1&#45;&gt;Node2</title>
<g id="a_edge1_Node000001_Node000002"><a xlink:title=" ">
<path fill="none" stroke="#63b8ff" d="M83.52,-296.87C67.44,-288.84 50.07,-277.11 40,-261 6.07,-206.72 12.51,-126.22 17.73,-89.94"/>
<polygon fill="#63b8ff" stroke="#63b8ff" points="21.23,-90.23 19.33,-79.81 14.32,-89.14 21.23,-90.23"/>
</a>
</g>
</g>
<!-- Node3 -->
<g id="Node000003" class="node">
<title>Node3</title>
<g id="a_Node000003"><a xlink:href="functional.html" target="_top" xlink:title=" ">
<polygon fill="white" stroke="#666666" points="114.5,-261 49.5,-261 49.5,-242 114.5,-242 114.5,-261"/>
<text text-anchor="middle" x="82" y="-249" font-family="FreeSans" font-size="10.00">functional</text>
</a>
</g>
</g>
<!-- Node1&#45;&gt;Node3 -->
<g id="edge2_Node000001_Node000003" class="edge">
<title>Node1&#45;&gt;Node3</title>
<g id="a_edge2_Node000001_Node000003"><a xlink:title=" ">
<path fill="none" stroke="#63b8ff" d="M111.56,-296.84C106.13,-288.69 99.27,-278.4 93.52,-269.78"/>
<polygon fill="#63b8ff" stroke="#63b8ff" points="96.3,-267.65 87.84,-261.27 90.48,-271.53 96.3,-267.65"/>
</a>
</g>
</g>
<!-- Node4 -->
<g id="Node000004" class="node">
<title>Node4</title>
<g id="a_Node000004"><a xlink:href="get__type_8h.html" target="_top" xlink:title=" ">
<polygon fill="white" stroke="#666666" points="255,-206 145,-206 145,-176 255,-176 255,-206"/>
<text text-anchor="start" x="153" y="-194" font-family="FreeSans" font-size="10.00">mpqc/util/meta/get</text>
<text text-anchor="middle" x="200" y="-183" font-family="FreeSans" font-size="10.00">_type.h</text>
</a>
</g>
</g>
<!-- Node1&#45;&gt;Node4 -->
<g id="edge4_Node000001_Node000004" class="edge">
<title>Node1&#45;&gt;Node4</title>
<g id="a_edge4_Node000001_Node000004"><a xlink:title=" ">
<path fill="none" stroke="#63b8ff" d="M130.37,-296.88C143.85,-276.57 168.86,-238.9 184.95,-214.67"/>
<polygon fill="#63b8ff" stroke="#63b8ff" points="188.02,-216.37 190.64,-206.1 182.19,-212.5 188.02,-216.37"/>
</a>
</g>
</g>
<!-- Node10 -->
<g id="Node000010" class="node">
<title>Node10</title>
<g id="a_Node000010"><a xlink:href="predicates_8h.html" target="_top" xlink:title=" ">
<polygon fill="white" stroke="#666666" points="343,-261 189,-261 189,-242 343,-242 343,-261"/>
<text text-anchor="middle" x="266" y="-249" font-family="FreeSans" font-size="10.00">mpqc/util/meta/predicates.h</text>
</a>
</g>
</g>
<!-- Node1&#45;&gt;Node10 -->
<g id="edge13_Node000001_Node000010" class="edge">
<title>Node1&#45;&gt;Node10</title>
<g id="a_edge13_Node000001_Node000010"><a xlink:title=" ">
<path fill="none" stroke="#63b8ff" d="M155.73,-296.99C179.92,-287.23 211.9,-274.33 235.19,-264.93"/>
<polygon fill="#63b8ff" stroke="#63b8ff" points="236.62,-268.13 244.59,-261.14 234,-261.63 236.62,-268.13"/>
</a>
</g>
</g>
<!-- Node3&#45;&gt;Node3 -->
<g id="edge3_Node000003_Node000003" class="edge">
<title>Node3&#45;&gt;Node3</title>
<g id="a_edge3_Node000003_Node000003"><a xlink:title=" ">
<path fill="none" stroke="#63b8ff" d="M100.65,-261.03C116.22,-265.11 132.5,-261.93 132.5,-251.5 132.5,-243.35 122.57,-239.63 110.79,-240.33"/>
<polygon fill="#63b8ff" stroke="#63b8ff" points="109.96,-236.92 100.65,-241.97 111.08,-243.83 109.96,-236.92"/>
</a>
</g>
</g>
<!-- Node5 -->
<g id="Node000005" class="node">
<title>Node5</title>
<g id="a_Node000005"><a xlink:href="type__traits_8h.html" target="_top" xlink:title=" ">
<polygon fill="white" stroke="#666666" points="239,-140 161,-140 161,-121 239,-121 239,-140"/>
<text text-anchor="middle" x="200" y="-128" font-family="FreeSans" font-size="10.00">type_traits.h</text>
</a>
</g>
</g>
<!-- Node4&#45;&gt;Node5 -->
<g id="edge5_Node000004_Node000005" class="edge">
<title>Node4&#45;&gt;Node5</title>
<g id="a_edge5_Node000004_Node000005"><a xlink:title=" ">
<path fill="none" stroke="#63b8ff" d="M200,-175.84C200,-168.21 200,-158.7 200,-150.45"/>
<polygon fill="#63b8ff" stroke="#63b8ff" points="203.5,-150.27 200,-140.27 196.5,-150.27 203.5,-150.27"/>
</a>
</g>
</g>
<!-- Node5&#45;&gt;Node2 -->
<g id="edge6_Node000005_Node000002" class="edge">
<title>Node5&#45;&gt;Node2</title>
<g id="a_edge6_Node000005_Node000002"><a xlink:title=" ">
<path fill="none" stroke="#63b8ff" d="M169.98,-120.99C140.69,-112.51 94.97,-98.79 56,-85 54.39,-84.43 52.74,-83.83 51.08,-83.21"/>
<polygon fill="#63b8ff" stroke="#63b8ff" points="52.21,-79.9 41.62,-79.57 49.7,-86.43 52.21,-79.9"/>
</a>
</g>
</g>
<!-- Node6 -->
<g id="Node000006" class="node">
<title>Node6</title>
<g id="a_Node000006"><a xlink:title=" ">
<polygon fill="#e0e0e0" stroke="#999999" points="179,-19 129,-19 129,0 179,0 179,-19"/>
<text text-anchor="middle" x="154" y="-7" font-family="FreeSans" font-size="10.00">atomic</text>
</a>
</g>
</g>
<!-- Node5&#45;&gt;Node6 -->
<g id="edge7_Node000005_Node000006" class="edge">
<title>Node5&#45;&gt;Node6</title>
<g id="a_edge7_Node000005_Node000006"><a xlink:title=" ">
<path fill="none" stroke="#63b8ff" d="M160.95,-124.92C135.83,-119.73 105,-108.65 89,-85 81.53,-73.96 82.78,-66.79 89,-55 96.24,-41.27 109.83,-30.97 122.72,-23.76"/>
<polygon fill="#63b8ff" stroke="#63b8ff" points="124.59,-26.73 131.88,-19.05 121.39,-20.51 124.59,-26.73"/>
</a>
</g>
</g>
<!-- Node7 -->
<g id="Node000007" class="node">
<title>Node7</title>
<g id="a_Node000007"><a xlink:title=" ">
<polygon fill="#e0e0e0" stroke="#999999" points="167.5,-79.5 98.5,-79.5 98.5,-60.5 167.5,-60.5 167.5,-79.5"/>
<text text-anchor="middle" x="133" y="-67.5" font-family="FreeSans" font-size="10.00">type_traits</text>
</a>
</g>
</g>
<!-- Node5&#45;&gt;Node7 -->
<g id="edge8_Node000005_Node000007" class="edge">
<title>Node5&#45;&gt;Node7</title>
<g id="a_edge8_Node000005_Node000007"><a xlink:title=" ">
<path fill="none" stroke="#63b8ff" d="M190.11,-120.87C179.72,-111.8 163.16,-97.34 150.55,-86.32"/>
<polygon fill="#63b8ff" stroke="#63b8ff" points="152.76,-83.61 142.93,-79.67 148.16,-88.88 152.76,-83.61"/>
</a>
</g>
</g>
<!-- Node8 -->
<g id="Node000008" class="node">
<title>Node8</title>
<g id="a_Node000008"><a xlink:href="atomic_8h.html" target="_top" xlink:title=" ">
<polygon fill="white" stroke="#666666" points="292,-85 186,-85 186,-55 292,-55 292,-85"/>
<text text-anchor="start" x="194" y="-73" font-family="FreeSans" font-size="10.00">mpqc/util/external</text>
<text text-anchor="middle" x="239" y="-62" font-family="FreeSans" font-size="10.00">/c++/atomic.h</text>
</a>
</g>
</g>
<!-- Node5&#45;&gt;Node8 -->
<g id="edge9_Node000005_Node000008" class="edge">
<title>Node5&#45;&gt;Node8</title>
<g id="a_edge9_Node000005_Node000008"><a xlink:title=" ">
<path fill="none" stroke="#63b8ff" d="M205.75,-120.87C210.56,-113.67 217.62,-103.07 224,-93.49"/>
<polygon fill="#63b8ff" stroke="#63b8ff" points="226.96,-95.38 229.59,-85.11 221.13,-91.49 226.96,-95.38"/>
</a>
</g>
</g>
<!-- Node9 -->
<g id="Node000009" class="node">
<title>Node9</title>
<g id="a_Node000009"><a xlink:href="sfinae_8h.html" target="_top" xlink:title=" ">
<polygon fill="white" stroke="#666666" points="442,-79.5 310,-79.5 310,-60.5 442,-60.5 442,-79.5"/>
<text text-anchor="middle" x="376" y="-67.5" font-family="FreeSans" font-size="10.00">mpqc/util/meta/sfinae.h</text>
</a>
</g>
</g>
<!-- Node5&#45;&gt;Node9 -->
<g id="edge11_Node000005_Node000009" class="edge">
<title>Node5&#45;&gt;Node9</title>
<g id="a_edge11_Node000005_Node000009"><a xlink:title=" ">
<path fill="none" stroke="#63b8ff" d="M220.66,-120.99C248.94,-110.86 299.86,-93.87 335.75,-82.55"/>
<polygon fill="#63b8ff" stroke="#63b8ff" points="336.95,-85.84 345.45,-79.52 334.86,-79.16 336.95,-85.84"/>
</a>
</g>
</g>
<!-- Node8&#45;&gt;Node6 -->
<g id="edge10_Node000008_Node000006" class="edge">
<title>Node8&#45;&gt;Node6</title>
<g id="a_edge10_Node000008_Node000006"><a xlink:title=" ">
<path fill="none" stroke="#63b8ff" d="M218.42,-54.84C205.33,-45.83 188.41,-34.18 175.2,-25.09"/>
<polygon fill="#63b8ff" stroke="#63b8ff" points="176.96,-22.05 166.74,-19.27 172.99,-27.82 176.96,-22.05"/>
</a>
</g>
</g>
<!-- Node9&#45;&gt;Node5 -->
<g id="edge12_Node000009_Node000005" class="edge">
<title>Node9&#45;&gt;Node5</title>
<g id="a_edge12_Node000009_Node000005"><a xlink:title=" ">
<path fill="none" stroke="#63b8ff" d="M355.31,-79.52C327.01,-89.66 276.09,-106.65 240.21,-117.96"/>
<polygon fill="#63b8ff" stroke="#63b8ff" points="239.02,-114.67 230.52,-120.99 241.11,-121.35 239.02,-114.67"/>
</a>
</g>
</g>
<!-- Node10&#45;&gt;Node4 -->
<g id="edge14_Node000010_Node000004" class="edge">
<title>Node10&#45;&gt;Node4</title>
<g id="a_edge14_Node000010_Node000004"><a xlink:title=" ">
<path fill="none" stroke="#63b8ff" d="M256.26,-241.87C247.64,-234.22 234.7,-222.76 223.41,-212.75"/>
<polygon fill="#63b8ff" stroke="#63b8ff" points="225.73,-210.13 215.92,-206.11 221.09,-215.37 225.73,-210.13"/>
</a>
</g>
</g>
</g>
</svg>
