<?xml version="1.0" encoding="UTF-8" standalone="no"?>
<!DOCTYPE svg PUBLIC "-//W3C//DTD SVG 1.1//EN"
 "http://www.w3.org/Graphics/SVG/1.1/DTD/svg11.dtd">
<!-- Generated by graphviz version 2.43.0 (0)
 -->
<!-- Title: mpqc/util/meta/make_svector.h Pages: 1 -->
<!--zoomable 346 -->

<svg id="main" version="1.1" xmlns="http://www.w3.org/2000/svg" xmlns:xlink="http://www.w3.org/1999/xlink" xml:space="preserve" onload="init(evt)">
<style type="text/css"><![CDATA[
.node, .edge {opacity: 0.7;}
.node.selected, .edge.selected {opacity: 1;}
.edge:hover path { stroke: red; }
.edge:hover polygon { stroke: red; fill: red; }
]]></style>

<defs>
  <circle id="rim" cx="0" cy="0" r="7"/>
  <circle id="rim2" cx="0" cy="0" r="3.5"/>
  <g id="zoomPlus">
    <use xlink:href="#rim" fill="#404040"><set attributeName="fill" to="#808080" begin="zoomplus.mouseover" end="zoomplus.mouseout"/></use>
    <path d="M-4,0h8M0,-4v8" fill="none" stroke="white" stroke-width="1.5" pointer-events="none"/>
  </g>
  <g id="zoomMin">
    <use xlink:href="#rim" fill="#404040"><set attributeName="fill" to="#808080" begin="zoomminus.mouseover" end="zoomminus.mouseout"/></use>
    <path d="M-4,0h8" fill="none" stroke="white" stroke-width="1.5" pointer-events="none"/>
  </g>
  <g id="arrowUp" transform="translate(30 24)">
    <use xlink:href="#rim"/>
    <path pointer-events="none" fill="none" stroke="white" stroke-width="1.5" d="M0,-3.0v7 M-2.5,-0.5L0,-3.0L2.5,-0.5"/>
  </g>
  <g id="arrowRight" transform="rotate(90) translate(36 -43)">
    <use xlink:href="#rim"/>
    <path pointer-events="none" fill="none" stroke="white" stroke-width="1.5" d="M0,-3.0v7 M-2.5,-0.5L0,-3.0L2.5,-0.5"/>
  </g>
  <g id="arrowDown" transform="rotate(180) translate(-30 -48)">
    <use xlink:href="#rim"/>
    <path pointer-events="none" fill="none" stroke="white" stroke-width="1.5" d="M0,-3.0v7 M-2.5,-0.5L0,-3.0L2.5,-0.5"/>
  </g>
  <g id="arrowLeft" transform="rotate(270) translate(-36 17)">
    <use xlink:href="#rim"/>
    <path pointer-events="none" fill="none" stroke="white" stroke-width="1.5" d="M0,-3.0v7 M-2.5,-0.5L0,-3.0L2.5,-0.5"/>
  </g>
  <g id="resetDef">
    <use xlink:href="#rim2" fill="#404040"><set attributeName="fill" to="#808080" begin="reset.mouseover" end="reset.mouseout"/></use>
  </g>
</defs>
<script type="application/ecmascript">
var viewWidth = 568;
var viewHeight = 346;
var sectionId = 'dynsection-0';
</script>
<script type="application/ecmascript" xlink:href="svg.min.js"/>
<svg id="graph" class="graph">
<g id="viewport">
<title>mpqc/util/meta/make_svector.h</title>
<!-- Node1 -->
<g id="Node000001" class="node">
<title>Node1</title>
<g id="a_Node000001"><a xlink:title=" ">
<polygon fill="#999999" stroke="#666666" points="272.5,-338 151.5,-338 151.5,-308 272.5,-308 272.5,-338"/>
<text text-anchor="start" x="159.5" y="-326" font-family="FreeSans" font-size="10.00">mpqc/util/meta/make</text>
<text text-anchor="middle" x="212" y="-315" font-family="FreeSans" font-size="10.00">_svector.h</text>
</a>
</g>
</g>
<!-- Node2 -->
<g id="Node000002" class="node">
<title>Node2</title>
<g id="a_Node000002"><a xlink:title=" ">
<polygon fill="#e0e0e0" stroke="#999999" points="122,-272 0,-272 0,-242 122,-242 122,-272"/>
<text text-anchor="start" x="8" y="-260" font-family="FreeSans" font-size="10.00">boost/container/small</text>
<text text-anchor="middle" x="61" y="-249" font-family="FreeSans" font-size="10.00">_vector.hpp</text>
</a>
</g>
</g>
<!-- Node1&#45;&gt;Node2 -->
<g id="edge1_Node000001_Node000002" class="edge">
<title>Node1&#45;&gt;Node2</title>
<g id="a_edge1_Node000001_Node000002"><a xlink:title=" ">
<path fill="none" stroke="#63b8ff" d="M178.86,-307.95C156.73,-298.58 127.43,-286.16 103.58,-276.05"/>
<polygon fill="#63b8ff" stroke="#63b8ff" points="104.63,-272.69 94.06,-272.01 101.9,-279.14 104.63,-272.69"/>
</a>
</g>
</g>
<!-- Node3 -->
<g id="Node000003" class="node">
<title>Node3</title>
<g id="a_Node000003"><a xlink:href="functional.html" target="_top" xlink:title=" ">
<polygon fill="white" stroke="#666666" points="205.5,-266.5 140.5,-266.5 140.5,-247.5 205.5,-247.5 205.5,-266.5"/>
<text text-anchor="middle" x="173" y="-254.5" font-family="FreeSans" font-size="10.00">functional</text>
</a>
</g>
</g>
<!-- Node1&#45;&gt;Node3 -->
<g id="edge2_Node000001_Node000003" class="edge">
<title>Node1&#45;&gt;Node3</title>
<g id="a_edge2_Node000001_Node000003"><a xlink:title=" ">
<path fill="none" stroke="#63b8ff" d="M203.34,-307.8C197.56,-298.31 189.92,-285.76 183.74,-275.63"/>
<polygon fill="#63b8ff" stroke="#63b8ff" points="186.58,-273.56 178.39,-266.84 180.6,-277.21 186.58,-273.56"/>
</a>
</g>
</g>
<!-- Node4 -->
<g id="Node000004" class="node">
<title>Node4</title>
<g id="a_Node000004"><a xlink:href="get__type_8h.html" target="_top" xlink:title=" ">
<polygon fill="white" stroke="#666666" points="359,-206 249,-206 249,-176 359,-176 359,-206"/>
<text text-anchor="start" x="257" y="-194" font-family="FreeSans" font-size="10.00">mpqc/util/meta/get</text>
<text text-anchor="middle" x="304" y="-183" font-family="FreeSans" font-size="10.00">_type.h</text>
</a>
</g>
</g>
<!-- Node1&#45;&gt;Node4 -->
<g id="edge4_Node000001_Node000004" class="edge">
<title>Node1&#45;&gt;Node4</title>
<g id="a_edge4_Node000001_Node000004"><a xlink:title=" ">
<path fill="none" stroke="#63b8ff" d="M222.02,-307.84C237.92,-285.37 269.07,-241.36 288.06,-214.53"/>
<polygon fill="#63b8ff" stroke="#63b8ff" points="291.07,-216.33 293.99,-206.14 285.36,-212.28 291.07,-216.33"/>
</a>
</g>
</g>
<!-- Node11 -->
<g id="Node000011" class="node">
<title>Node11</title>
<g id="a_Node000011"><a xlink:href="predicates_8h.html" target="_top" xlink:title=" ">
<polygon fill="white" stroke="#666666" points="434,-266.5 280,-266.5 280,-247.5 434,-247.5 434,-266.5"/>
<text text-anchor="middle" x="357" y="-254.5" font-family="FreeSans" font-size="10.00">mpqc/util/meta/predicates.h</text>
</a>
</g>
</g>
<!-- Node1&#45;&gt;Node11 -->
<g id="edge13_Node000001_Node000011" class="edge">
<title>Node1&#45;&gt;Node11</title>
<g id="a_edge13_Node000001_Node000011"><a xlink:title=" ">
<path fill="none" stroke="#63b8ff" d="M243.82,-307.95C269.03,-296.83 303.93,-281.42 328.29,-270.67"/>
<polygon fill="#63b8ff" stroke="#63b8ff" points="329.97,-273.76 337.7,-266.52 327.14,-267.35 329.97,-273.76"/>
</a>
</g>
</g>
<!-- Node3&#45;&gt;Node3 -->
<g id="edge3_Node000003_Node000003" class="edge">
<title>Node3&#45;&gt;Node3</title>
<g id="a_edge3_Node000003_Node000003"><a xlink:title=" ">
<path fill="none" stroke="#63b8ff" d="M188.77,-266.56C205.15,-272.37 223.5,-269.18 223.5,-257 223.5,-247.29 211.85,-243.3 198.83,-245.01"/>
<polygon fill="#63b8ff" stroke="#63b8ff" points="197.67,-241.69 188.77,-247.44 199.31,-248.49 197.67,-241.69"/>
</a>
</g>
</g>
<!-- Node5 -->
<g id="Node000005" class="node">
<title>Node5</title>
<g id="a_Node000005"><a xlink:href="type__traits_8h.html" target="_top" xlink:title=" ">
<polygon fill="white" stroke="#666666" points="343,-140 265,-140 265,-121 343,-121 343,-140"/>
<text text-anchor="middle" x="304" y="-128" font-family="FreeSans" font-size="10.00">type_traits.h</text>
</a>
</g>
</g>
<!-- Node4&#45;&gt;Node5 -->
<g id="edge5_Node000004_Node000005" class="edge">
<title>Node4&#45;&gt;Node5</title>
<g id="a_edge5_Node000004_Node000005"><a xlink:title=" ">
<path fill="none" stroke="#63b8ff" d="M304,-175.84C304,-168.21 304,-158.7 304,-150.45"/>
<polygon fill="#63b8ff" stroke="#63b8ff" points="307.5,-150.27 304,-140.27 300.5,-150.27 307.5,-150.27"/>
</a>
</g>
</g>
<!-- Node6 -->
<g id="Node000006" class="node">
<title>Node6</title>
<g id="a_Node000006"><a xlink:title=" ">
<polygon fill="#e0e0e0" stroke="#999999" points="160,-79.5 118,-79.5 118,-60.5 160,-60.5 160,-79.5"/>
<text text-anchor="middle" x="139" y="-67.5" font-family="FreeSans" font-size="10.00">array</text>
</a>
</g>
</g>
<!-- Node5&#45;&gt;Node6 -->
<g id="edge6_Node000005_Node000006" class="edge">
<title>Node5&#45;&gt;Node6</title>
<g id="a_edge6_Node000005_Node000006"><a xlink:title=" ">
<path fill="none" stroke="#63b8ff" d="M277.47,-120.86C251.1,-112.16 209.56,-98.19 174,-85 172.58,-84.47 171.13,-83.93 169.67,-83.37"/>
<polygon fill="#63b8ff" stroke="#63b8ff" points="170.62,-79.98 160.03,-79.61 168.08,-86.51 170.62,-79.98"/>
</a>
</g>
</g>
<!-- Node7 -->
<g id="Node000007" class="node">
<title>Node7</title>
<g id="a_Node000007"><a xlink:title=" ">
<polygon fill="#e0e0e0" stroke="#999999" points="297,-19 247,-19 247,0 297,0 297,-19"/>
<text text-anchor="middle" x="272" y="-7" font-family="FreeSans" font-size="10.00">atomic</text>
</a>
</g>
</g>
<!-- Node5&#45;&gt;Node7 -->
<g id="edge7_Node000005_Node000007" class="edge">
<title>Node5&#45;&gt;Node7</title>
<g id="a_edge7_Node000005_Node000007"><a xlink:title=" ">
<path fill="none" stroke="#63b8ff" d="M264.61,-122.08C243.68,-115.91 219.7,-104.81 207,-85 199.8,-73.78 200.78,-66.79 207,-55 214.24,-41.27 227.83,-30.97 240.72,-23.76"/>
<polygon fill="#63b8ff" stroke="#63b8ff" points="242.59,-26.73 249.88,-19.05 239.39,-20.51 242.59,-26.73"/>
</a>
</g>
</g>
<!-- Node8 -->
<g id="Node000008" class="node">
<title>Node8</title>
<g id="a_Node000008"><a xlink:title=" ">
<polygon fill="#e0e0e0" stroke="#999999" points="285.5,-79.5 216.5,-79.5 216.5,-60.5 285.5,-60.5 285.5,-79.5"/>
<text text-anchor="middle" x="251" y="-67.5" font-family="FreeSans" font-size="10.00">type_traits</text>
</a>
</g>
</g>
<!-- Node5&#45;&gt;Node8 -->
<g id="edge8_Node000005_Node000008" class="edge">
<title>Node5&#45;&gt;Node8</title>
<g id="a_edge8_Node000005_Node000008"><a xlink:title=" ">
<path fill="none" stroke="#63b8ff" d="M296.18,-120.87C288.19,-112.05 275.61,-98.16 265.74,-87.27"/>
<polygon fill="#63b8ff" stroke="#63b8ff" points="268.16,-84.73 258.85,-79.67 262.97,-89.43 268.16,-84.73"/>
</a>
</g>
</g>
<!-- Node9 -->
<g id="Node000009" class="node">
<title>Node9</title>
<g id="a_Node000009"><a xlink:href="atomic_8h.html" target="_top" xlink:title=" ">
<polygon fill="white" stroke="#666666" points="410,-85 304,-85 304,-55 410,-55 410,-85"/>
<text text-anchor="start" x="312" y="-73" font-family="FreeSans" font-size="10.00">mpqc/util/external</text>
<text text-anchor="middle" x="357" y="-62" font-family="FreeSans" font-size="10.00">/c++/atomic.h</text>
</a>
</g>
</g>
<!-- Node5&#45;&gt;Node9 -->
<g id="edge9_Node000005_Node000009" class="edge">
<title>Node5&#45;&gt;Node9</title>
<g id="a_edge9_Node000005_Node000009"><a xlink:title=" ">
<path fill="none" stroke="#63b8ff" d="M311.82,-120.87C318.55,-113.44 328.54,-102.42 337.41,-92.62"/>
<polygon fill="#63b8ff" stroke="#63b8ff" points="340.09,-94.88 344.21,-85.11 334.9,-90.18 340.09,-94.88"/>
</a>
</g>
</g>
<!-- Node10 -->
<g id="Node000010" class="node">
<title>Node10</title>
<g id="a_Node000010"><a xlink:href="sfinae_8h.html" target="_top" xlink:title=" ">
<polygon fill="white" stroke="#666666" points="560,-79.5 428,-79.5 428,-60.5 560,-60.5 560,-79.5"/>
<text text-anchor="middle" x="494" y="-67.5" font-family="FreeSans" font-size="10.00">mpqc/util/meta/sfinae.h</text>
</a>
</g>
</g>
<!-- Node5&#45;&gt;Node10 -->
<g id="edge11_Node000005_Node000010" class="edge">
<title>Node5&#45;&gt;Node10</title>
<g id="a_edge11_Node000005_Node000010"><a xlink:title=" ">
<path fill="none" stroke="#63b8ff" d="M326.7,-120.99C357.54,-110.81 412.86,-93.72 451.48,-82.4"/>
<polygon fill="#63b8ff" stroke="#63b8ff" points="452.78,-85.67 461.41,-79.52 450.83,-78.95 452.78,-85.67"/>
</a>
</g>
</g>
<!-- Node9&#45;&gt;Node7 -->
<g id="edge10_Node000009_Node000007" class="edge">
<title>Node9&#45;&gt;Node7</title>
<g id="a_edge10_Node000009_Node000007"><a xlink:title=" ">
<path fill="none" stroke="#63b8ff" d="M336.42,-54.84C323.33,-45.83 306.41,-34.18 293.2,-25.09"/>
<polygon fill="#63b8ff" stroke="#63b8ff" points="294.96,-22.05 284.74,-19.27 290.99,-27.82 294.96,-22.05"/>
</a>
</g>
</g>
<!-- Node10&#45;&gt;Node5 -->
<g id="edge12_Node000010_Node000005" class="edge">
<title>Node10&#45;&gt;Node5</title>
<g id="a_edge12_Node000010_Node000005"><a xlink:title=" ">
<path fill="none" stroke="#63b8ff" d="M471.27,-79.52C440.41,-89.7 385.09,-106.79 346.48,-118.11"/>
<polygon fill="#63b8ff" stroke="#63b8ff" points="345.18,-114.84 336.56,-120.99 347.14,-121.56 345.18,-114.84"/>
</a>
</g>
</g>
<!-- Node11&#45;&gt;Node4 -->
<g id="edge14_Node000011_Node000004" class="edge">
<title>Node11&#45;&gt;Node4</title>
<g id="a_edge14_Node000011_Node000004"><a xlink:title=" ">
<path fill="none" stroke="#63b8ff" d="M349.85,-247.37C342.85,-238.91 331.88,-225.67 322.43,-214.25"/>
<polygon fill="#63b8ff" stroke="#63b8ff" points="324.97,-211.83 315.89,-206.36 319.57,-216.29 324.97,-211.83"/>
</a>
</g>
</g>
</g>
</svg>

<g id="navigator" transform="translate(0 0)" fill="#404254">
  <rect fill="#f2f5e9" fill-opacity="0.5" stroke="#606060" stroke-width=".5" x="0" y="0" width="60" height="60"/>
  <use id="zoomplus" xlink:href="#zoomPlus" x="17" y="9" onmousedown="handleZoom(evt,'in')"/>
  <use id="zoomminus" xlink:href="#zoomMin" x="42" y="9" onmousedown="handleZoom(evt,'out')"/>
  <use id="reset" xlink:href="#resetDef" x="30" y="36" onmousedown="handleReset()"/>
   <use id="arrowup" xlink:href="#arrowUp" x="0" y="0" onmousedown="handlePan(0,-1)"/>
  <use id="arrowright" xlink:href="#arrowRight" x="0" y="0" onmousedown="handlePan(1,0)"/>
  <use id="arrowdown" xlink:href="#arrowDown" x="0" y="0" onmousedown="handlePan(0,1)"/>
  <use id="arrowleft" xlink:href="#arrowLeft" x="0" y="0" onmousedown="handlePan(-1,0)"/>
</g>
<svg viewBox="0 0 15 15" width="100%" height="30px" preserveAspectRatio="xMaxYMin meet">
 <g id="arrow_out" transform="scale(0.3 0.3)">
  <a xlink:href="make__svector_8h__incl_org.svg" target="_base">
   <rect id="button" ry="5" rx="5" y="6" x="6" height="38" width="38"
        fill="#f2f5e9" fill-opacity="0.5" stroke="#606060" stroke-width="1.0"/>
   <path id="arrow"
     d="M 11.500037,31.436501 C 11.940474,20.09759 22.043105,11.32322 32.158766,21.979434 L 37.068811,17.246167 C 37.068811,17.246167 37.088388,32 37.088388,32 L 22.160133,31.978069 C 22.160133,31.978069 26.997745,27.140456 26.997745,27.140456 C 18.528582,18.264221 13.291696,25.230495 11.500037,31.436501 z"
     style="fill:#404040;"/>
  </a>
 </g>
</svg>

<style type='text/css'>
<![CDATA[
[data-mouse-over-selected='false'] { opacity: 0.7; }
[data-mouse-over-selected='true']  { opacity: 1.0; }
]]>
</style>
<script type="application/ecmascript"><![CDATA[
document.addEventListener('DOMContentLoaded', (event) => {
  highlightEdges();
  highlightAdjacentNodes();
});
]]></script>
</svg>
