<?xml version="1.0" encoding="UTF-8" standalone="no"?>
<!DOCTYPE svg PUBLIC "-//W3C//DTD SVG 1.1//EN"
 "http://www.w3.org/Graphics/SVG/1.1/DTD/svg11.dtd">
<!-- Generated by graphviz version 2.43.0 (0)
 -->
<!-- Title: mpqc/math/mra/sp.h Pages: 1 -->
<!--zoomable 291 -->

<svg id="main" version="1.1" xmlns="http://www.w3.org/2000/svg" xmlns:xlink="http://www.w3.org/1999/xlink" xml:space="preserve" onload="init(evt)">
<style type="text/css"><![CDATA[
.node, .edge {opacity: 0.7;}
.node.selected, .edge.selected {opacity: 1;}
.edge:hover path { stroke: red; }
.edge:hover polygon { stroke: red; fill: red; }
]]></style>

<defs>
  <circle id="rim" cx="0" cy="0" r="7"/>
  <circle id="rim2" cx="0" cy="0" r="3.5"/>
  <g id="zoomPlus">
    <use xlink:href="#rim" fill="#404040"><set attributeName="fill" to="#808080" begin="zoomplus.mouseover" end="zoomplus.mouseout"/></use>
    <path d="M-4,0h8M0,-4v8" fill="none" stroke="white" stroke-width="1.5" pointer-events="none"/>
  </g>
  <g id="zoomMin">
    <use xlink:href="#rim" fill="#404040"><set attributeName="fill" to="#808080" begin="zoomminus.mouseover" end="zoomminus.mouseout"/></use>
    <path d="M-4,0h8" fill="none" stroke="white" stroke-width="1.5" pointer-events="none"/>
  </g>
  <g id="arrowUp" transform="translate(30 24)">
    <use xlink:href="#rim"/>
    <path pointer-events="none" fill="none" stroke="white" stroke-width="1.5" d="M0,-3.0v7 M-2.5,-0.5L0,-3.0L2.5,-0.5"/>
  </g>
  <g id="arrowRight" transform="rotate(90) translate(36 -43)">
    <use xlink:href="#rim"/>
    <path pointer-events="none" fill="none" stroke="white" stroke-width="1.5" d="M0,-3.0v7 M-2.5,-0.5L0,-3.0L2.5,-0.5"/>
  </g>
  <g id="arrowDown" transform="rotate(180) translate(-30 -48)">
    <use xlink:href="#rim"/>
    <path pointer-events="none" fill="none" stroke="white" stroke-width="1.5" d="M0,-3.0v7 M-2.5,-0.5L0,-3.0L2.5,-0.5"/>
  </g>
  <g id="arrowLeft" transform="rotate(270) translate(-36 17)">
    <use xlink:href="#rim"/>
    <path pointer-events="none" fill="none" stroke="white" stroke-width="1.5" d="M0,-3.0v7 M-2.5,-0.5L0,-3.0L2.5,-0.5"/>
  </g>
  <g id="resetDef">
    <use xlink:href="#rim2" fill="#404040"><set attributeName="fill" to="#808080" begin="reset.mouseover" end="reset.mouseout"/></use>
  </g>
</defs>
<script type="application/ecmascript">
var viewWidth = 765;
var viewHeight = 291;
var sectionId = 'dynsection-1';
</script>
<script type="application/ecmascript" xlink:href="svg.min.js"/>
<svg id="graph" class="graph">
<g id="viewport">
<title>mpqc/math/mra/sp.h</title>
<!-- Node1 -->
<g id="Node000001" class="node">
<title>Node1</title>
<g id="a_Node000001"><a xlink:title=" ">
<polygon fill="#999999" stroke="#666666" points="327,-283 209,-283 209,-264 327,-264 327,-283"/>
<text text-anchor="middle" x="268" y="-271" font-family="FreeSans" font-size="10.00">mpqc/math/mra/sp.h</text>
</a>
</g>
</g>
<!-- Node2 -->
<g id="Node000002" class="node">
<title>Node2</title>
<g id="a_Node000002"><a xlink:href="chemistry_2qc_2mra_2wfn_2sp_8h.html" target="_top" xlink:title=" ">
<polygon fill="white" stroke="#666666" points="158,-162 26,-162 26,-132 158,-132 158,-162"/>
<text text-anchor="start" x="34" y="-150" font-family="FreeSans" font-size="10.00">mpqc/chemistry/qc/mra</text>
<text text-anchor="middle" x="92" y="-139" font-family="FreeSans" font-size="10.00">/wfn/sp.h</text>
</a>
</g>
</g>
<!-- Node1&#45;&gt;Node2 -->
<g id="edge1_Node000001_Node000002" class="edge">
<title>Node1&#45;&gt;Node2</title>
<g id="a_edge1_Node000001_Node000002"><a xlink:title=" ">
<path fill="none" stroke="#63b8ff" d="M247.65,-258.11C213.67,-234.07 145.78,-186.04 112.02,-162.16"/>
<polygon fill="#63b8ff" stroke="#63b8ff" points="245.72,-261.02 255.9,-263.94 249.76,-255.31 245.72,-261.02"/>
</a>
</g>
</g>
<!-- Node6 -->
<g id="Node000006" class="node">
<title>Node6</title>
<g id="a_Node000006"><a xlink:href="src_2mpqc_2chemistry_2qc_2mra_2wfn_2wfn_8h.html" target="_top" xlink:title=" ">
<polygon fill="white" stroke="#666666" points="509,-228 377,-228 377,-198 509,-198 509,-228"/>
<text text-anchor="start" x="385" y="-216" font-family="FreeSans" font-size="10.00">mpqc/chemistry/qc/mra</text>
<text text-anchor="middle" x="443" y="-205" font-family="FreeSans" font-size="10.00">/wfn/wfn.h</text>
</a>
</g>
</g>
<!-- Node1&#45;&gt;Node6 -->
<g id="edge6_Node000001_Node000006" class="edge">
<title>Node1&#45;&gt;Node6</title>
<g id="a_edge6_Node000001_Node000006"><a xlink:title=" ">
<path fill="none" stroke="#63b8ff" d="M303.28,-260.71C331.48,-251.28 371.08,-238.04 400.93,-228.06"/>
<polygon fill="#63b8ff" stroke="#63b8ff" points="301.82,-257.5 293.45,-263.99 304.04,-264.14 301.82,-257.5"/>
</a>
</g>
</g>
<!-- Node3 -->
<g id="Node000003" class="node">
<title>Node3</title>
<g id="a_Node000003"><a xlink:href="solver_8ipp.html" target="_top" xlink:title=" ">
<polygon fill="white" stroke="#666666" points="282,-96 150,-96 150,-66 282,-66 282,-96"/>
<text text-anchor="start" x="158" y="-84" font-family="FreeSans" font-size="10.00">mpqc/chemistry/qc/mra</text>
<text text-anchor="middle" x="216" y="-73" font-family="FreeSans" font-size="10.00">/scf/solver.ipp</text>
</a>
</g>
</g>
<!-- Node2&#45;&gt;Node3 -->
<g id="edge2_Node000002_Node000003" class="edge">
<title>Node2&#45;&gt;Node3</title>
<g id="a_edge2_Node000002_Node000003"><a xlink:title=" ">
<path fill="none" stroke="#63b8ff" d="M128.34,-127.24C147.7,-117.25 171.1,-105.18 188.85,-96.01"/>
<polygon fill="#63b8ff" stroke="#63b8ff" points="126.49,-124.26 119.21,-131.95 129.7,-130.48 126.49,-124.26"/>
</a>
</g>
</g>
<!-- Node5 -->
<g id="Node000005" class="node">
<title>Node5</title>
<g id="a_Node000005"><a xlink:href="sp_8ipp.html" target="_top" xlink:title=" ">
<polygon fill="white" stroke="#666666" points="132,-96 0,-96 0,-66 132,-66 132,-96"/>
<text text-anchor="start" x="8" y="-84" font-family="FreeSans" font-size="10.00">mpqc/chemistry/qc/mra</text>
<text text-anchor="middle" x="66" y="-73" font-family="FreeSans" font-size="10.00">/wfn/sp.ipp</text>
</a>
</g>
</g>
<!-- Node2&#45;&gt;Node5 -->
<g id="edge4_Node000002_Node000005" class="edge">
<title>Node2&#45;&gt;Node5</title>
<g id="a_edge4_Node000002_Node000005"><a xlink:title=" ">
<path fill="none" stroke="#63b8ff" d="M76,-122.68C71.92,-113.79 68.19,-103.95 66.04,-96.16"/>
<polygon fill="#63b8ff" stroke="#63b8ff" points="72.94,-124.38 80.51,-131.8 79.21,-121.28 72.94,-124.38"/>
</a>
</g>
</g>
<!-- Node4 -->
<g id="Node000004" class="node">
<title>Node4</title>
<g id="a_Node000004"><a xlink:href="solver_8cpp.html" target="_top" xlink:title=" ">
<polygon fill="white" stroke="#666666" points="432,-30 300,-30 300,0 432,0 432,-30"/>
<text text-anchor="start" x="308" y="-18" font-family="FreeSans" font-size="10.00">mpqc/chemistry/qc/mra</text>
<text text-anchor="middle" x="366" y="-7" font-family="FreeSans" font-size="10.00">/scf/solver.cpp</text>
</a>
</g>
</g>
<!-- Node3&#45;&gt;Node4 -->
<g id="edge3_Node000003_Node000004" class="edge">
<title>Node3&#45;&gt;Node4</title>
<g id="a_edge3_Node000003_Node000004"><a xlink:title=" ">
<path fill="none" stroke="#63b8ff" d="M258.38,-61.92C282.08,-51.8 311.19,-39.38 333.16,-30.01"/>
<polygon fill="#63b8ff" stroke="#63b8ff" points="256.74,-58.81 248.92,-65.95 259.49,-65.25 256.74,-58.81"/>
</a>
</g>
</g>
<!-- Node5&#45;&gt;Node2 -->
<g id="edge5_Node000005_Node000002" class="edge">
<title>Node5&#45;&gt;Node2</title>
<g id="a_edge5_Node000005_Node000002"><a xlink:title=" ">
<path fill="none" stroke="#63b8ff" d="M81.98,-105.28C86.06,-114.16 89.8,-124.01 91.95,-131.8"/>
<polygon fill="#63b8ff" stroke="#63b8ff" points="85.04,-103.57 77.47,-96.16 78.77,-106.68 85.04,-103.57"/>
</a>
</g>
</g>
<!-- Node6&#45;&gt;Node4 -->
<g id="edge7_Node000006_Node000004" class="edge">
<title>Node6&#45;&gt;Node4</title>
<g id="a_edge7_Node000006_Node000004"><a xlink:title=" ">
<path fill="none" stroke="#63b8ff" d="M519.19,-202.45C628.74,-185.75 810.37,-145.23 741,-66 721.02,-43.18 534.57,-27.25 432.33,-20.16"/>
<polygon fill="#63b8ff" stroke="#63b8ff" points="518.52,-199.01 509.15,-203.94 519.55,-205.93 518.52,-199.01"/>
</a>
</g>
</g>
<!-- Node7 -->
<g id="Node000007" class="node">
<title>Node7</title>
<g id="a_Node000007"><a xlink:href="solver_8h.html" target="_top" xlink:title=" ">
<polygon fill="white" stroke="#666666" points="359,-162 227,-162 227,-132 359,-132 359,-162"/>
<text text-anchor="start" x="235" y="-150" font-family="FreeSans" font-size="10.00">mpqc/chemistry/qc/mra</text>
<text text-anchor="middle" x="293" y="-139" font-family="FreeSans" font-size="10.00">/scf/solver.h</text>
</a>
</g>
</g>
<!-- Node6&#45;&gt;Node7 -->
<g id="edge8_Node000006_Node000007" class="edge">
<title>Node6&#45;&gt;Node7</title>
<g id="a_edge8_Node000006_Node000007"><a xlink:title=" ">
<path fill="none" stroke="#63b8ff" d="M400.62,-193.92C376.92,-183.8 347.81,-171.38 325.84,-162.01"/>
<polygon fill="#63b8ff" stroke="#63b8ff" points="399.51,-197.25 410.08,-197.95 402.26,-190.81 399.51,-197.25"/>
</a>
</g>
</g>
<!-- Node9 -->
<g id="Node000009" class="node">
<title>Node9</title>
<g id="a_Node000009"><a xlink:href="chemistry_2qc_2mra_2wfn_2util_8h.html" target="_top" xlink:title=" ">
<polygon fill="white" stroke="#666666" points="509,-162 377,-162 377,-132 509,-132 509,-162"/>
<text text-anchor="start" x="385" y="-150" font-family="FreeSans" font-size="10.00">mpqc/chemistry/qc/mra</text>
<text text-anchor="middle" x="443" y="-139" font-family="FreeSans" font-size="10.00">/wfn/util.h</text>
</a>
</g>
</g>
<!-- Node6&#45;&gt;Node9 -->
<g id="edge12_Node000006_Node000009" class="edge">
<title>Node6&#45;&gt;Node9</title>
<g id="a_edge12_Node000006_Node000009"><a xlink:title=" ">
<path fill="none" stroke="#63b8ff" d="M443,-187.54C443,-178.96 443,-169.61 443,-162.16"/>
<polygon fill="#63b8ff" stroke="#63b8ff" points="439.5,-187.8 443,-197.8 446.5,-187.8 439.5,-187.8"/>
</a>
</g>
</g>
<!-- Node11 -->
<g id="Node000011" class="node">
<title>Node11</title>
<g id="a_Node000011"><a xlink:href="mra_2wfn_2wfn_8cpp.html" target="_top" xlink:title=" ">
<polygon fill="white" stroke="#666666" points="732,-96 600,-96 600,-66 732,-66 732,-96"/>
<text text-anchor="start" x="608" y="-84" font-family="FreeSans" font-size="10.00">mpqc/chemistry/qc/mra</text>
<text text-anchor="middle" x="666" y="-73" font-family="FreeSans" font-size="10.00">/wfn/wfn.cpp</text>
</a>
</g>
</g>
<!-- Node6&#45;&gt;Node11 -->
<g id="edge18_Node000006_Node000011" class="edge">
<title>Node6&#45;&gt;Node11</title>
<g id="a_edge18_Node000006_Node000011"><a xlink:title=" ">
<path fill="none" stroke="#63b8ff" d="M476.13,-192.69C521.43,-166.28 601.63,-119.53 641.74,-96.14"/>
<polygon fill="#63b8ff" stroke="#63b8ff" points="474.17,-189.78 467.29,-197.84 477.69,-195.83 474.17,-189.78"/>
</a>
</g>
</g>
<!-- Node7&#45;&gt;Node3 -->
<g id="edge9_Node000007_Node000003" class="edge">
<title>Node7&#45;&gt;Node3</title>
<g id="a_edge9_Node000007_Node000003"><a xlink:title=" ">
<path fill="none" stroke="#63b8ff" d="M267.98,-125.2C256.55,-115.7 243.3,-104.69 233.04,-96.16"/>
<polygon fill="#63b8ff" stroke="#63b8ff" points="265.98,-128.1 275.91,-131.8 270.46,-122.71 265.98,-128.1"/>
</a>
</g>
</g>
<!-- Node8 -->
<g id="Node000008" class="node">
<title>Node8</title>
<g id="a_Node000008"><a xlink:href="solver__1c__v2_8ipp.html" target="_top" xlink:title=" ">
<polygon fill="white" stroke="#666666" points="432,-96 300,-96 300,-66 432,-66 432,-96"/>
<text text-anchor="start" x="308" y="-84" font-family="FreeSans" font-size="10.00">mpqc/chemistry/qc/mra</text>
<text text-anchor="middle" x="366" y="-73" font-family="FreeSans" font-size="10.00">/scf/solver_1c_v2.ipp</text>
</a>
</g>
</g>
<!-- Node7&#45;&gt;Node8 -->
<g id="edge10_Node000007_Node000008" class="edge">
<title>Node7&#45;&gt;Node8</title>
<g id="a_edge10_Node000007_Node000008"><a xlink:title=" ">
<path fill="none" stroke="#63b8ff" d="M316.72,-125.2C327.56,-115.7 340.12,-104.69 349.84,-96.16"/>
<polygon fill="#63b8ff" stroke="#63b8ff" points="314.41,-122.57 309.2,-131.8 319.03,-127.84 314.41,-122.57"/>
</a>
</g>
</g>
<!-- Node8&#45;&gt;Node4 -->
<g id="edge11_Node000008_Node000004" class="edge">
<title>Node8&#45;&gt;Node4</title>
<g id="a_edge11_Node000008_Node000004"><a xlink:title=" ">
<path fill="none" stroke="#63b8ff" d="M366,-55.54C366,-46.96 366,-37.61 366,-30.16"/>
<polygon fill="#63b8ff" stroke="#63b8ff" points="362.5,-55.8 366,-65.8 369.5,-55.8 362.5,-55.8"/>
</a>
</g>
</g>
<!-- Node9&#45;&gt;Node3 -->
<g id="edge13_Node000009_Node000003" class="edge">
<title>Node9&#45;&gt;Node3</title>
<g id="a_edge13_Node000009_Node000003"><a xlink:title=" ">
<path fill="none" stroke="#63b8ff" d="M383.13,-129.12C346.53,-118.8 300.27,-105.76 265.7,-96.01"/>
<polygon fill="#63b8ff" stroke="#63b8ff" points="382.61,-132.61 393.18,-131.95 384.51,-125.87 382.61,-132.61"/>
</a>
</g>
</g>
<!-- Node9&#45;&gt;Node5 -->
<g id="edge15_Node000009_Node000005" class="edge">
<title>Node9&#45;&gt;Node5</title>
<g id="a_edge15_Node000009_Node000005"><a xlink:title=" ">
<path fill="none" stroke="#63b8ff" d="M366.75,-131.81C265.66,-114.53 238.52,-112.83 141,-96 138.13,-95.5 135.2,-94.99 132.24,-94.47"/>
<polygon fill="#63b8ff" stroke="#63b8ff" points="366.32,-135.29 376.76,-133.53 367.5,-128.39 366.32,-135.29"/>
</a>
</g>
</g>
<!-- Node9&#45;&gt;Node8 -->
<g id="edge14_Node000009_Node000008" class="edge">
<title>Node9&#45;&gt;Node8</title>
<g id="a_edge14_Node000009_Node000008"><a xlink:title=" ">
<path fill="none" stroke="#63b8ff" d="M417.98,-125.2C406.55,-115.7 393.3,-104.69 383.04,-96.16"/>
<polygon fill="#63b8ff" stroke="#63b8ff" points="415.98,-128.1 425.91,-131.8 420.46,-122.71 415.98,-128.1"/>
</a>
</g>
</g>
<!-- Node10 -->
<g id="Node000010" class="node">
<title>Node10</title>
<g id="a_Node000010"><a xlink:href="chemistry_2qc_2mra_2wfn_2util_8cpp.html" target="_top" xlink:title=" ">
<polygon fill="white" stroke="#666666" points="582,-96 450,-96 450,-66 582,-66 582,-96"/>
<text text-anchor="start" x="458" y="-84" font-family="FreeSans" font-size="10.00">mpqc/chemistry/qc/mra</text>
<text text-anchor="middle" x="516" y="-73" font-family="FreeSans" font-size="10.00">/wfn/util.cpp</text>
</a>
</g>
</g>
<!-- Node9&#45;&gt;Node10 -->
<g id="edge16_Node000009_Node000010" class="edge">
<title>Node9&#45;&gt;Node10</title>
<g id="a_edge16_Node000009_Node000010"><a xlink:title=" ">
<path fill="none" stroke="#63b8ff" d="M466.72,-125.2C477.56,-115.7 490.12,-104.69 499.84,-96.16"/>
<polygon fill="#63b8ff" stroke="#63b8ff" points="464.41,-122.57 459.2,-131.8 469.03,-127.84 464.41,-122.57"/>
</a>
</g>
</g>
<!-- Node9&#45;&gt;Node11 -->
<g id="edge17_Node000009_Node000011" class="edge">
<title>Node9&#45;&gt;Node11</title>
<g id="a_edge17_Node000009_Node000011"><a xlink:title=" ">
<path fill="none" stroke="#63b8ff" d="M501.81,-129.12C537.77,-118.8 583.22,-105.76 617.18,-96.01"/>
<polygon fill="#63b8ff" stroke="#63b8ff" points="500.58,-125.83 491.94,-131.95 502.52,-132.56 500.58,-125.83"/>
</a>
</g>
</g>
</g>
</svg>

<g id="navigator" transform="translate(0 0)" fill="#404254">
  <rect fill="#f2f5e9" fill-opacity="0.5" stroke="#606060" stroke-width=".5" x="0" y="0" width="60" height="60"/>
  <use id="zoomplus" xlink:href="#zoomPlus" x="17" y="9" onmousedown="handleZoom(evt,'in')"/>
  <use id="zoomminus" xlink:href="#zoomMin" x="42" y="9" onmousedown="handleZoom(evt,'out')"/>
  <use id="reset" xlink:href="#resetDef" x="30" y="36" onmousedown="handleReset()"/>
   <use id="arrowup" xlink:href="#arrowUp" x="0" y="0" onmousedown="handlePan(0,-1)"/>
  <use id="arrowright" xlink:href="#arrowRight" x="0" y="0" onmousedown="handlePan(1,0)"/>
  <use id="arrowdown" xlink:href="#arrowDown" x="0" y="0" onmousedown="handlePan(0,1)"/>
  <use id="arrowleft" xlink:href="#arrowLeft" x="0" y="0" onmousedown="handlePan(-1,0)"/>
</g>
<svg viewBox="0 0 15 15" width="100%" height="30px" preserveAspectRatio="xMaxYMin meet">
 <g id="arrow_out" transform="scale(0.3 0.3)">
  <a xlink:href="math_2mra_2sp_8h__dep__incl_org.svg" target="_base">
   <rect id="button" ry="5" rx="5" y="6" x="6" height="38" width="38"
        fill="#f2f5e9" fill-opacity="0.5" stroke="#606060" stroke-width="1.0"/>
   <path id="arrow"
     d="M 11.500037,31.436501 C 11.940474,20.09759 22.043105,11.32322 32.158766,21.979434 L 37.068811,17.246167 C 37.068811,17.246167 37.088388,32 37.088388,32 L 22.160133,31.978069 C 22.160133,31.978069 26.997745,27.140456 26.997745,27.140456 C 18.528582,18.264221 13.291696,25.230495 11.500037,31.436501 z"
     style="fill:#404040;"/>
  </a>
 </g>
</svg>

<style type='text/css'>
<![CDATA[
[data-mouse-over-selected='false'] { opacity: 0.7; }
[data-mouse-over-selected='true']  { opacity: 1.0; }
]]>
</style>
<script type="application/ecmascript"><![CDATA[
document.addEventListener('DOMContentLoaded', (event) => {
  highlightEdges();
  highlightAdjacentNodes();
});
]]></script>
</svg>
