<?xml version="1.0" encoding="UTF-8" standalone="no"?>
<!DOCTYPE svg PUBLIC "-//W3C//DTD SVG 1.1//EN"
 "http://www.w3.org/Graphics/SVG/1.1/DTD/svg11.dtd">
<!-- Generated by graphviz version 2.43.0 (0)
 -->
<!-- Title: mpqc/math/external/eigen/util.h Pages: 1 -->
<svg width="1494pt" height="401pt"
 viewBox="0.00 0.00 1493.50 401.00" xmlns="http://www.w3.org/2000/svg" xmlns:xlink="http://www.w3.org/1999/xlink">
<g id="graph0" class="graph" transform="scale(1 1) rotate(0) translate(4 397)">
<title>mpqc/math/external/eigen/util.h</title>
<!-- Node1 -->
<g id="Node000001" class="node">
<title>Node1</title>
<g id="a_Node000001"><a xlink:title=" ">
<polygon fill="#999999" stroke="#666666" points="674,-393 558,-393 558,-363 674,-363 674,-393"/>
<text text-anchor="start" x="566" y="-381" font-family="FreeSans" font-size="10.00">mpqc/math/external</text>
<text text-anchor="middle" x="616" y="-370" font-family="FreeSans" font-size="10.00">/eigen/util.h</text>
</a>
</g>
</g>
<!-- Node2 -->
<g id="Node000002" class="node">
<title>Node2</title>
<g id="a_Node000002"><a xlink:title=" ">
<polygon fill="#e0e0e0" stroke="#999999" points="88,-255.5 28,-255.5 28,-236.5 88,-236.5 88,-255.5"/>
<text text-anchor="middle" x="58" y="-243.5" font-family="FreeSans" font-size="10.00">iostream</text>
</a>
</g>
</g>
<!-- Node1&#45;&gt;Node2 -->
<g id="edge1_Node000001_Node000002" class="edge">
<title>Node1&#45;&gt;Node2</title>
<g id="a_edge1_Node000001_Node000002"><a xlink:title=" ">
<path fill="none" stroke="#63b8ff" d="M557.71,-371.44C491.45,-364.36 380.36,-350.19 287,-327 213.82,-308.82 130.98,-276.94 87.8,-259.41"/>
<polygon fill="#63b8ff" stroke="#63b8ff" points="89.03,-256.13 78.45,-255.59 86.38,-262.61 89.03,-256.13"/>
</a>
</g>
</g>
<!-- Node3 -->
<g id="Node000003" class="node">
<title>Node3</title>
<g id="a_Node000003"><a xlink:title=" ">
<polygon fill="#e0e0e0" stroke="#999999" points="554.5,-19 507.5,-19 507.5,0 554.5,0 554.5,-19"/>
<text text-anchor="middle" x="531" y="-7" font-family="FreeSans" font-size="10.00">vector</text>
</a>
</g>
</g>
<!-- Node1&#45;&gt;Node3 -->
<g id="edge2_Node000001_Node000003" class="edge">
<title>Node1&#45;&gt;Node3</title>
<g id="a_edge2_Node000001_Node000003"><a xlink:title=" ">
<path fill="none" stroke="#63b8ff" d="M557.77,-376.98C404.22,-375.36 0,-360.33 0,-247 0,-247 0,-247 0,-118.5 0,-16.55 380.6,-9.82 497.35,-10.15"/>
<polygon fill="#63b8ff" stroke="#63b8ff" points="497.48,-13.65 507.5,-10.2 497.52,-6.65 497.48,-13.65"/>
</a>
</g>
</g>
<!-- Node4 -->
<g id="Node000004" class="node">
<title>Node4</title>
<g id="a_Node000004"><a xlink:href="eigen_8h.html" target="_top" xlink:title=" ">
<polygon fill="white" stroke="#666666" points="942,-327 826,-327 826,-297 942,-297 942,-327"/>
<text text-anchor="start" x="834" y="-315" font-family="FreeSans" font-size="10.00">mpqc/math/external</text>
<text text-anchor="middle" x="884" y="-304" font-family="FreeSans" font-size="10.00">/eigen/eigen.h</text>
</a>
</g>
</g>
<!-- Node1&#45;&gt;Node4 -->
<g id="edge3_Node000001_Node000004" class="edge">
<title>Node1&#45;&gt;Node4</title>
<g id="a_edge3_Node000001_Node000004"><a xlink:title=" ">
<path fill="none" stroke="#63b8ff" d="M674.15,-363.11C715.86,-353.15 772.17,-339.7 815.97,-329.25"/>
<polygon fill="#63b8ff" stroke="#63b8ff" points="817.05,-332.59 825.96,-326.86 815.42,-325.78 817.05,-332.59"/>
</a>
</g>
</g>
<!-- Node7 -->
<g id="Node000007" class="node">
<title>Node7</title>
<g id="a_Node000007"><a xlink:href="assert_8h.html" target="_top" xlink:title=" ">
<polygon fill="white" stroke="#666666" points="1485.5,-189.5 1354.5,-189.5 1354.5,-170.5 1485.5,-170.5 1485.5,-189.5"/>
<text text-anchor="middle" x="1420" y="-177.5" font-family="FreeSans" font-size="10.00">mpqc/util/misc/assert.h</text>
</a>
</g>
</g>
<!-- Node1&#45;&gt;Node7 -->
<g id="edge46_Node000001_Node000007" class="edge">
<title>Node1&#45;&gt;Node7</title>
<g id="a_edge46_Node000001_Node000007"><a xlink:title=" ">
<path fill="none" stroke="#63b8ff" d="M674.34,-373.49C791.08,-365.01 1060.35,-338.06 1272,-261 1319.59,-243.67 1370.61,-213.12 1398.58,-195.2"/>
<polygon fill="#63b8ff" stroke="#63b8ff" points="1400.66,-198.02 1407.15,-189.65 1396.85,-192.15 1400.66,-198.02"/>
</a>
</g>
</g>
<!-- Node24 -->
<g id="Node000024" class="node">
<title>Node24</title>
<g id="a_Node000024"><a xlink:href="exenv_8h.html" target="_top" xlink:title=" ">
<polygon fill="white" stroke="#666666" points="423.5,-321.5 296.5,-321.5 296.5,-302.5 423.5,-302.5 423.5,-321.5"/>
<text text-anchor="middle" x="360" y="-309.5" font-family="FreeSans" font-size="10.00">mpqc/util/core/exenv.h</text>
</a>
</g>
</g>
<!-- Node1&#45;&gt;Node24 -->
<g id="edge28_Node000001_Node000024" class="edge">
<title>Node1&#45;&gt;Node24</title>
<g id="a_edge28_Node000001_Node000024"><a xlink:title=" ">
<path fill="none" stroke="#63b8ff" d="M559.82,-362.95C512.95,-351.24 447.08,-334.77 403.97,-323.99"/>
<polygon fill="#63b8ff" stroke="#63b8ff" points="404.62,-320.55 394.07,-321.52 402.92,-327.34 404.62,-320.55"/>
</a>
</g>
</g>
<!-- Node35 -->
<g id="Node000035" class="node">
<title>Node35</title>
<g id="a_Node000035"><a xlink:title=" ">
<polygon fill="#e0e0e0" stroke="#999999" points="1461,-327 1319,-327 1319,-297 1461,-297 1461,-327"/>
<text text-anchor="start" x="1327" y="-315" font-family="FreeSans" font-size="10.00">unsupported/Eigen/Matrix</text>
<text text-anchor="middle" x="1390" y="-304" font-family="FreeSans" font-size="10.00">Functions</text>
</a>
</g>
</g>
<!-- Node1&#45;&gt;Node35 -->
<g id="edge47_Node000001_Node000035" class="edge">
<title>Node1&#45;&gt;Node35</title>
<g id="a_edge47_Node000001_Node000035"><a xlink:title=" ">
<path fill="none" stroke="#63b8ff" d="M674.24,-374.56C793.12,-369.19 1072.16,-354.57 1305,-327 1306.11,-326.87 1307.24,-326.73 1308.36,-326.59"/>
<polygon fill="#63b8ff" stroke="#63b8ff" points="1309.19,-330.01 1318.65,-325.23 1308.27,-323.07 1309.19,-330.01"/>
</a>
</g>
</g>
<!-- Node5 -->
<g id="Node000005" class="node">
<title>Node5</title>
<g id="a_Node000005"><a xlink:title=" ">
<polygon fill="#e0e0e0" stroke="#999999" points="999,-255.5 897,-255.5 897,-236.5 999,-236.5 999,-255.5"/>
<text text-anchor="middle" x="948" y="-243.5" font-family="FreeSans" font-size="10.00">madness/config.h</text>
</a>
</g>
</g>
<!-- Node4&#45;&gt;Node5 -->
<g id="edge4_Node000004_Node000005" class="edge">
<title>Node4&#45;&gt;Node5</title>
<g id="a_edge4_Node000004_Node000005"><a xlink:title=" ">
<path fill="none" stroke="#63b8ff" d="M898.2,-296.8C908.18,-286.82 921.54,-273.46 931.91,-263.09"/>
<polygon fill="#63b8ff" stroke="#63b8ff" points="934.56,-265.39 939.16,-255.84 929.61,-260.44 934.56,-265.39"/>
</a>
</g>
</g>
<!-- Node6 -->
<g id="Node000006" class="node">
<title>Node6</title>
<g id="a_Node000006"><a xlink:href="complex_8h.html" target="_top" xlink:title=" ">
<polygon fill="white" stroke="#666666" points="1263,-255.5 1113,-255.5 1113,-236.5 1263,-236.5 1263,-255.5"/>
<text text-anchor="middle" x="1188" y="-243.5" font-family="FreeSans" font-size="10.00">mpqc/math/core/complex.h</text>
</a>
</g>
</g>
<!-- Node4&#45;&gt;Node6 -->
<g id="edge5_Node000004_Node000006" class="edge">
<title>Node4&#45;&gt;Node6</title>
<g id="a_edge5_Node000004_Node000006"><a xlink:title=" ">
<path fill="none" stroke="#63b8ff" d="M942.25,-298.74C998.78,-286.84 1083.69,-268.96 1137.44,-257.64"/>
<polygon fill="#63b8ff" stroke="#63b8ff" points="1138.37,-261.03 1147.43,-255.54 1136.93,-254.18 1138.37,-261.03"/>
</a>
</g>
</g>
<!-- Node8 -->
<g id="Node000008" class="node">
<title>Node8</title>
<g id="a_Node000008"><a xlink:title=" ">
<polygon fill="#e0e0e0" stroke="#999999" points="752.5,-129 635.5,-129 635.5,-110 752.5,-110 752.5,-129"/>
<text text-anchor="middle" x="694" y="-117" font-family="FreeSans" font-size="10.00">mpqc/mpqc_config.h</text>
</a>
</g>
</g>
<!-- Node4&#45;&gt;Node8 -->
<g id="edge24_Node000004_Node000008" class="edge">
<title>Node4&#45;&gt;Node8</title>
<g id="a_edge24_Node000004_Node000008"><a xlink:title=" ">
<path fill="none" stroke="#63b8ff" d="M825.71,-299.28C801.06,-291.83 773.58,-279.88 754,-261 718.62,-226.88 703.02,-168.53 697.1,-138.91"/>
<polygon fill="#63b8ff" stroke="#63b8ff" points="700.55,-138.28 695.29,-129.08 693.66,-139.55 700.55,-138.28"/>
</a>
</g>
</g>
<!-- Node22 -->
<g id="Node000022" class="node">
<title>Node22</title>
<g id="a_Node000022"><a xlink:href="math_2external_2eigen_2fwd_8h.html" target="_top" xlink:title=" ">
<polygon fill="white" stroke="#666666" points="879,-261 763,-261 763,-231 879,-231 879,-261"/>
<text text-anchor="start" x="771" y="-249" font-family="FreeSans" font-size="10.00">mpqc/math/external</text>
<text text-anchor="middle" x="821" y="-238" font-family="FreeSans" font-size="10.00">/eigen/fwd.h</text>
</a>
</g>
</g>
<!-- Node4&#45;&gt;Node22 -->
<g id="edge25_Node000004_Node000022" class="edge">
<title>Node4&#45;&gt;Node22</title>
<g id="a_edge25_Node000004_Node000022"><a xlink:title=" ">
<path fill="none" stroke="#63b8ff" d="M870.02,-296.8C861.78,-288.43 851.2,-277.68 841.98,-268.31"/>
<polygon fill="#63b8ff" stroke="#63b8ff" points="844.45,-265.84 834.94,-261.16 839.46,-270.75 844.45,-265.84"/>
</a>
</g>
</g>
<!-- Node23 -->
<g id="Node000023" class="node">
<title>Node23</title>
<g id="a_Node000023"><a xlink:title=" ">
<polygon fill="#e0e0e0" stroke="#999999" points="1094.5,-255.5 1017.5,-255.5 1017.5,-236.5 1094.5,-236.5 1094.5,-255.5"/>
<text text-anchor="middle" x="1056" y="-243.5" font-family="FreeSans" font-size="10.00">Eigen/Dense</text>
</a>
</g>
</g>
<!-- Node4&#45;&gt;Node23 -->
<g id="edge27_Node000004_Node000023" class="edge">
<title>Node4&#45;&gt;Node23</title>
<g id="a_edge27_Node000004_Node000023"><a xlink:title=" ">
<path fill="none" stroke="#63b8ff" d="M921.75,-296.95C952.18,-285.63 994.52,-269.88 1023.47,-259.1"/>
<polygon fill="#63b8ff" stroke="#63b8ff" points="1024.96,-262.28 1033.11,-255.52 1022.52,-255.72 1024.96,-262.28"/>
</a>
</g>
</g>
<!-- Node6&#45;&gt;Node7 -->
<g id="edge6_Node000006_Node000007" class="edge">
<title>Node6&#45;&gt;Node7</title>
<g id="a_edge6_Node000006_Node000007"><a xlink:title=" ">
<path fill="none" stroke="#63b8ff" d="M1219.29,-236.37C1260.57,-224.98 1333.32,-204.91 1378.97,-192.32"/>
<polygon fill="#63b8ff" stroke="#63b8ff" points="1380.13,-195.63 1388.84,-189.6 1378.27,-188.88 1380.13,-195.63"/>
</a>
</g>
</g>
<!-- Node17 -->
<g id="Node000017" class="node">
<title>Node17</title>
<g id="a_Node000017"><a xlink:title=" ">
<polygon fill="#e0e0e0" stroke="#999999" points="957.5,-189.5 888.5,-189.5 888.5,-170.5 957.5,-170.5 957.5,-189.5"/>
<text text-anchor="middle" x="923" y="-177.5" font-family="FreeSans" font-size="10.00">Eigen/Core</text>
</a>
</g>
</g>
<!-- Node6&#45;&gt;Node17 -->
<g id="edge19_Node000006_Node000017" class="edge">
<title>Node6&#45;&gt;Node17</title>
<g id="a_edge19_Node000006_Node000017"><a xlink:title=" ">
<path fill="none" stroke="#63b8ff" d="M1145.37,-236.48C1100.66,-227.29 1028.5,-211.71 967,-195 964.17,-194.23 961.25,-193.4 958.33,-192.53"/>
<polygon fill="#63b8ff" stroke="#63b8ff" points="959.07,-189.1 948.48,-189.52 957.02,-195.79 959.07,-189.1"/>
</a>
</g>
</g>
<!-- Node18 -->
<g id="Node000018" class="node">
<title>Node18</title>
<g id="a_Node000018"><a xlink:title=" ">
<polygon fill="#e0e0e0" stroke="#999999" points="1098,-195 976,-195 976,-165 1098,-165 1098,-195"/>
<text text-anchor="start" x="984" y="-183" font-family="FreeSans" font-size="10.00">boost/container/small</text>
<text text-anchor="middle" x="1037" y="-172" font-family="FreeSans" font-size="10.00">_vector.hpp</text>
</a>
</g>
</g>
<!-- Node6&#45;&gt;Node18 -->
<g id="edge20_Node000006_Node000018" class="edge">
<title>Node6&#45;&gt;Node18</title>
<g id="a_edge20_Node000006_Node000018"><a xlink:title=" ">
<path fill="none" stroke="#63b8ff" d="M1167.64,-236.37C1145.21,-226.87 1108.53,-211.32 1079.73,-199.11"/>
<polygon fill="#63b8ff" stroke="#63b8ff" points="1080.88,-195.8 1070.3,-195.12 1078.15,-202.24 1080.88,-195.8"/>
</a>
</g>
</g>
<!-- Node19 -->
<g id="Node000019" class="node">
<title>Node19</title>
<g id="a_Node000019"><a xlink:title=" ">
<polygon fill="#e0e0e0" stroke="#999999" points="1259.5,-195 1116.5,-195 1116.5,-165 1259.5,-165 1259.5,-195"/>
<text text-anchor="start" x="1124.5" y="-183" font-family="FreeSans" font-size="10.00">boost/numeric/conversion</text>
<text text-anchor="middle" x="1188" y="-172" font-family="FreeSans" font-size="10.00">/cast.hpp</text>
</a>
</g>
</g>
<!-- Node6&#45;&gt;Node19 -->
<g id="edge21_Node000006_Node000019" class="edge">
<title>Node6&#45;&gt;Node19</title>
<g id="a_edge21_Node000006_Node000019"><a xlink:title=" ">
<path fill="none" stroke="#63b8ff" d="M1188,-236.37C1188,-228.49 1188,-216.45 1188,-205.6"/>
<polygon fill="#63b8ff" stroke="#63b8ff" points="1191.5,-205.36 1188,-195.36 1184.5,-205.36 1191.5,-205.36"/>
</a>
</g>
</g>
<!-- Node20 -->
<g id="Node000020" class="node">
<title>Node20</title>
<g id="a_Node000020"><a xlink:title=" ">
<polygon fill="#e0e0e0" stroke="#999999" points="1336.5,-189.5 1277.5,-189.5 1277.5,-170.5 1336.5,-170.5 1336.5,-189.5"/>
<text text-anchor="middle" x="1307" y="-177.5" font-family="FreeSans" font-size="10.00">complex</text>
</a>
</g>
</g>
<!-- Node6&#45;&gt;Node20 -->
<g id="edge22_Node000006_Node000020" class="edge">
<title>Node6&#45;&gt;Node20</title>
<g id="a_edge22_Node000006_Node000020"><a xlink:title=" ">
<path fill="none" stroke="#63b8ff" d="M1204.05,-236.37C1224.01,-225.63 1258.32,-207.18 1281.8,-194.55"/>
<polygon fill="#63b8ff" stroke="#63b8ff" points="1283.68,-197.52 1290.83,-189.7 1280.36,-191.35 1283.68,-197.52"/>
</a>
</g>
</g>
<!-- Node21 -->
<g id="Node000021" class="node">
<title>Node21</title>
<g id="a_Node000021"><a xlink:title=" ">
<polygon fill="#e0e0e0" stroke="#999999" points="870.5,-189.5 801.5,-189.5 801.5,-170.5 870.5,-170.5 870.5,-189.5"/>
<text text-anchor="middle" x="836" y="-177.5" font-family="FreeSans" font-size="10.00">type_traits</text>
</a>
</g>
</g>
<!-- Node6&#45;&gt;Node21 -->
<g id="edge23_Node000006_Node000021" class="edge">
<title>Node6&#45;&gt;Node21</title>
<g id="a_edge23_Node000006_Node000021"><a xlink:title=" ">
<path fill="none" stroke="#63b8ff" d="M1136.92,-236.44C1126.06,-234.63 1114.65,-232.74 1104,-231 1004.49,-214.71 978.09,-218.35 880,-195 876.8,-194.24 873.5,-193.36 870.21,-192.43"/>
<polygon fill="#63b8ff" stroke="#63b8ff" points="871.07,-189.03 860.49,-189.5 869.05,-195.73 871.07,-189.03"/>
</a>
</g>
</g>
<!-- Node7&#45;&gt;Node8 -->
<g id="edge7_Node000007_Node000008" class="edge">
<title>Node7&#45;&gt;Node8</title>
<g id="a_edge7_Node000007_Node000008"><a xlink:title=" ">
<path fill="none" stroke="#63b8ff" d="M1379.82,-170.45C1368.89,-168.38 1357.03,-166.38 1346,-165 1091.23,-133.18 1022.66,-152.63 762.7,-128.99"/>
<polygon fill="#63b8ff" stroke="#63b8ff" points="762.86,-125.49 752.58,-128.06 762.22,-132.46 762.86,-125.49"/>
</a>
</g>
</g>
<!-- Node9 -->
<g id="Node000009" class="node">
<title>Node9</title>
<g id="a_Node000009"><a xlink:title=" ">
<polygon fill="#e0e0e0" stroke="#999999" points="1446,-129 1394,-129 1394,-110 1446,-110 1446,-129"/>
<text text-anchor="middle" x="1420" y="-117" font-family="FreeSans" font-size="10.00">cassert</text>
</a>
</g>
</g>
<!-- Node7&#45;&gt;Node9 -->
<g id="edge8_Node000007_Node000009" class="edge">
<title>Node7&#45;&gt;Node9</title>
<g id="a_edge8_Node000007_Node000009"><a xlink:title=" ">
<path fill="none" stroke="#63b8ff" d="M1420,-170.37C1420,-162.25 1420,-149.81 1420,-139.39"/>
<polygon fill="#63b8ff" stroke="#63b8ff" points="1423.5,-139.17 1420,-129.17 1416.5,-139.17 1423.5,-139.17"/>
</a>
</g>
</g>
<!-- Node10 -->
<g id="Node000010" class="node">
<title>Node10</title>
<g id="a_Node000010"><a xlink:href="exception_8h.html" target="_top" xlink:title=" ">
<polygon fill="white" stroke="#666666" points="917,-129 771,-129 771,-110 917,-110 917,-129"/>
<text text-anchor="middle" x="844" y="-117" font-family="FreeSans" font-size="10.00">mpqc/util/core/exception.h</text>
</a>
</g>
</g>
<!-- Node7&#45;&gt;Node10 -->
<g id="edge9_Node000007_Node000010" class="edge">
<title>Node7&#45;&gt;Node10</title>
<g id="a_edge9_Node000007_Node000010"><a xlink:title=" ">
<path fill="none" stroke="#63b8ff" d="M1378.63,-170.43C1368.03,-168.44 1356.62,-166.47 1346,-165 1199.37,-144.68 1027.29,-131.78 927.44,-125.37"/>
<polygon fill="#63b8ff" stroke="#63b8ff" points="927.62,-121.88 917.42,-124.73 927.17,-128.86 927.62,-121.88"/>
</a>
</g>
</g>
<!-- Node10&#45;&gt;Node3 -->
<g id="edge15_Node000010_Node000003" class="edge">
<title>Node10&#45;&gt;Node3</title>
<g id="a_edge15_Node000010_Node000003"><a xlink:title=" ">
<path fill="none" stroke="#63b8ff" d="M773,-109.99C697.8,-100.5 587.64,-85.02 571,-74 554.74,-63.23 543.82,-43.35 537.56,-28.69"/>
<polygon fill="#63b8ff" stroke="#63b8ff" points="540.72,-27.17 533.81,-19.14 534.2,-29.73 540.72,-27.17"/>
</a>
</g>
</g>
<!-- Node11 -->
<g id="Node000011" class="node">
<title>Node11</title>
<g id="a_Node000011"><a xlink:title=" ">
<polygon fill="#e0e0e0" stroke="#999999" points="633.5,-74 580.5,-74 580.5,-55 633.5,-55 633.5,-74"/>
<text text-anchor="middle" x="607" y="-62" font-family="FreeSans" font-size="10.00">string.h</text>
</a>
</g>
</g>
<!-- Node10&#45;&gt;Node11 -->
<g id="edge10_Node000010_Node000011" class="edge">
<title>Node10&#45;&gt;Node11</title>
<g id="a_edge10_Node000010_Node000011"><a xlink:title=" ">
<path fill="none" stroke="#63b8ff" d="M804.68,-109.96C766.19,-101.57 705.64,-88.27 643.68,-74.13"/>
<polygon fill="#63b8ff" stroke="#63b8ff" points="644.26,-70.67 633.73,-71.85 642.69,-77.5 644.26,-70.67"/>
</a>
</g>
</g>
<!-- Node12 -->
<g id="Node000012" class="node">
<title>Node12</title>
<g id="a_Node000012"><a xlink:href="memory.html" target="_top" xlink:title=" ">
<polygon fill="white" stroke="#666666" points="252,-74 194,-74 194,-55 252,-55 252,-74"/>
<text text-anchor="middle" x="223" y="-62" font-family="FreeSans" font-size="10.00">memory</text>
</a>
</g>
</g>
<!-- Node10&#45;&gt;Node12 -->
<g id="edge11_Node000010_Node000012" class="edge">
<title>Node10&#45;&gt;Node12</title>
<g id="a_edge11_Node000010_Node000012"><a xlink:title=" ">
<path fill="none" stroke="#63b8ff" d="M770.69,-110.82C767.76,-110.54 764.85,-110.27 762,-110 575.14,-92.6 351.5,-75.25 262.42,-68.47"/>
<polygon fill="#63b8ff" stroke="#63b8ff" points="262.47,-64.96 252.23,-67.7 261.94,-71.94 262.47,-64.96"/>
</a>
</g>
</g>
<!-- Node13 -->
<g id="Node000013" class="node">
<title>Node13</title>
<g id="a_Node000013"><a xlink:title=" ">
<polygon fill="#e0e0e0" stroke="#999999" points="872,-74 816,-74 816,-55 872,-55 872,-74"/>
<text text-anchor="middle" x="844" y="-62" font-family="FreeSans" font-size="10.00">sstream</text>
</a>
</g>
</g>
<!-- Node10&#45;&gt;Node13 -->
<g id="edge13_Node000010_Node000013" class="edge">
<title>Node10&#45;&gt;Node13</title>
<g id="a_edge13_Node000010_Node000013"><a xlink:title=" ">
<path fill="none" stroke="#63b8ff" d="M844,-109.75C844,-102.8 844,-92.85 844,-84.13"/>
<polygon fill="#63b8ff" stroke="#63b8ff" points="847.5,-84.09 844,-74.09 840.5,-84.09 847.5,-84.09"/>
</a>
</g>
</g>
<!-- Node14 -->
<g id="Node000014" class="node">
<title>Node14</title>
<g id="a_Node000014"><a xlink:title=" ">
<polygon fill="#e0e0e0" stroke="#999999" points="955.5,-74 890.5,-74 890.5,-55 955.5,-55 955.5,-74"/>
<text text-anchor="middle" x="923" y="-62" font-family="FreeSans" font-size="10.00">stdexcept</text>
</a>
</g>
</g>
<!-- Node10&#45;&gt;Node14 -->
<g id="edge14_Node000010_Node000014" class="edge">
<title>Node10&#45;&gt;Node14</title>
<g id="a_edge14_Node000010_Node000014"><a xlink:title=" ">
<path fill="none" stroke="#63b8ff" d="M856.69,-109.98C868.83,-101.84 887.36,-89.41 901.75,-79.76"/>
<polygon fill="#63b8ff" stroke="#63b8ff" points="903.72,-82.65 910.08,-74.17 899.82,-76.84 903.72,-82.65"/>
</a>
</g>
</g>
<!-- Node15 -->
<g id="Node000015" class="node">
<title>Node15</title>
<g id="a_Node000015"><a xlink:href="backtrace_8h.html" target="_top" xlink:title=" ">
<polygon fill="white" stroke="#666666" points="798,-74 652,-74 652,-55 798,-55 798,-74"/>
<text text-anchor="middle" x="725" y="-62" font-family="FreeSans" font-size="10.00">mpqc/util/core/backtrace.h</text>
</a>
</g>
</g>
<!-- Node10&#45;&gt;Node15 -->
<g id="edge16_Node000010_Node000015" class="edge">
<title>Node10&#45;&gt;Node15</title>
<g id="a_edge16_Node000010_Node000015"><a xlink:title=" ">
<path fill="none" stroke="#63b8ff" d="M824.88,-109.98C805.65,-101.42 775.77,-88.11 753.69,-78.28"/>
<polygon fill="#63b8ff" stroke="#63b8ff" points="755.03,-75.04 744.47,-74.17 752.18,-81.44 755.03,-75.04"/>
</a>
</g>
</g>
<!-- Node12&#45;&gt;Node12 -->
<g id="edge12_Node000012_Node000012" class="edge">
<title>Node12&#45;&gt;Node12</title>
<g id="a_edge12_Node000012_Node000012"><a xlink:title=" ">
<path fill="none" stroke="#63b8ff" d="M245.24,-74.07C258.06,-76.02 270,-72.83 270,-64.5 270,-58.45 263.7,-55.11 255.34,-54.48"/>
<polygon fill="#63b8ff" stroke="#63b8ff" points="255.08,-50.99 245.24,-54.93 255.39,-57.98 255.08,-50.99"/>
</a>
</g>
</g>
<!-- Node15&#45;&gt;Node3 -->
<g id="edge18_Node000015_Node000003" class="edge">
<title>Node15&#45;&gt;Node3</title>
<g id="a_edge18_Node000015_Node000003"><a xlink:title=" ">
<path fill="none" stroke="#63b8ff" d="M693.83,-54.98C658.39,-45.3 600.75,-29.56 564.4,-19.63"/>
<polygon fill="#63b8ff" stroke="#63b8ff" points="565.32,-16.25 554.75,-16.99 563.48,-23 565.32,-16.25"/>
</a>
</g>
</g>
<!-- Node16 -->
<g id="Node000016" class="node">
<title>Node16</title>
<g id="a_Node000016"><a xlink:title=" ">
<polygon fill="#e0e0e0" stroke="#999999" points="747,-19 703,-19 703,0 747,0 747,-19"/>
<text text-anchor="middle" x="725" y="-7" font-family="FreeSans" font-size="10.00">string</text>
</a>
</g>
</g>
<!-- Node15&#45;&gt;Node16 -->
<g id="edge17_Node000015_Node000016" class="edge">
<title>Node15&#45;&gt;Node16</title>
<g id="a_edge17_Node000015_Node000016"><a xlink:title=" ">
<path fill="none" stroke="#63b8ff" d="M725,-54.75C725,-47.8 725,-37.85 725,-29.13"/>
<polygon fill="#63b8ff" stroke="#63b8ff" points="728.5,-29.09 725,-19.09 721.5,-29.09 728.5,-29.09"/>
</a>
</g>
</g>
<!-- Node22&#45;&gt;Node8 -->
<g id="edge26_Node000022_Node000008" class="edge">
<title>Node22&#45;&gt;Node8</title>
<g id="a_edge26_Node000022_Node000008"><a xlink:title=" ">
<path fill="none" stroke="#63b8ff" d="M809.4,-230.8C795.66,-214.31 771.77,-186.61 749,-165 737.89,-154.46 724.56,-143.63 713.8,-135.3"/>
<polygon fill="#63b8ff" stroke="#63b8ff" points="715.89,-132.49 705.82,-129.2 711.64,-138.05 715.89,-132.49"/>
</a>
</g>
</g>
<!-- Node24&#45;&gt;Node2 -->
<g id="edge41_Node000024_Node000002" class="edge">
<title>Node24&#45;&gt;Node2</title>
<g id="a_edge41_Node000024_Node000002"><a xlink:title=" ">
<path fill="none" stroke="#63b8ff" d="M306.23,-302.46C253.76,-293.69 171.85,-278.82 102,-261 98.99,-260.23 95.88,-259.38 92.78,-258.48"/>
<polygon fill="#63b8ff" stroke="#63b8ff" points="93.57,-255.06 82.98,-255.51 91.54,-261.76 93.57,-255.06"/>
</a>
</g>
</g>
<!-- Node24&#45;&gt;Node3 -->
<g id="edge45_Node000024_Node000003" class="edge">
<title>Node24&#45;&gt;Node3</title>
<g id="a_edge45_Node000024_Node000003"><a xlink:title=" ">
<path fill="none" stroke="#63b8ff" d="M411.02,-302.44C437.22,-295.5 467.62,-283.08 487,-261 511.18,-233.46 507,-217.65 507,-181 507,-181 507,-181 507,-118.5 507,-86.28 517.31,-49.91 524.41,-28.66"/>
<polygon fill="#63b8ff" stroke="#63b8ff" points="527.78,-29.63 527.76,-19.04 521.17,-27.33 527.78,-29.63"/>
</a>
</g>
</g>
<!-- Node24&#45;&gt;Node8 -->
<g id="edge32_Node000024_Node000008" class="edge">
<title>Node24&#45;&gt;Node8</title>
<g id="a_edge32_Node000024_Node000008"><a xlink:title=" ">
<path fill="none" stroke="#63b8ff" d="M423.8,-303.8C456.15,-297.26 494.17,-284.79 521,-261 555.98,-229.98 529.47,-196.51 564,-165 581.88,-148.68 606.02,-138.31 628.63,-131.73"/>
<polygon fill="#63b8ff" stroke="#63b8ff" points="629.81,-135.04 638.55,-129.05 627.98,-128.28 629.81,-135.04"/>
</a>
</g>
</g>
<!-- Node24&#45;&gt;Node12 -->
<g id="edge42_Node000024_Node000012" class="edge">
<title>Node24&#45;&gt;Node12</title>
<g id="a_edge42_Node000024_Node000012"><a xlink:title=" ">
<path fill="none" stroke="#63b8ff" d="M305.32,-302.49C242.22,-292.12 145.69,-274.32 135,-261 88.45,-202.97 168.24,-116.37 205.46,-81.2"/>
<polygon fill="#63b8ff" stroke="#63b8ff" points="208.13,-83.49 213.1,-74.13 203.38,-78.35 208.13,-83.49"/>
</a>
</g>
</g>
<!-- Node25 -->
<g id="Node000025" class="node">
<title>Node25</title>
<g id="a_Node000025"><a xlink:href="math_2external_2tiledarray_2fwd_8h.html" target="_top" xlink:title=" ">
<polygon fill="white" stroke="#666666" points="689,-261 573,-261 573,-231 689,-231 689,-261"/>
<text text-anchor="start" x="581" y="-249" font-family="FreeSans" font-size="10.00">mpqc/math/external</text>
<text text-anchor="middle" x="631" y="-238" font-family="FreeSans" font-size="10.00">/tiledarray/fwd.h</text>
</a>
</g>
</g>
<!-- Node24&#45;&gt;Node25 -->
<g id="edge29_Node000024_Node000025" class="edge">
<title>Node24&#45;&gt;Node25</title>
<g id="a_edge29_Node000024_Node000025"><a xlink:title=" ">
<path fill="none" stroke="#63b8ff" d="M396.27,-302.44C438.75,-292.4 510.02,-275.57 562.92,-263.08"/>
<polygon fill="#63b8ff" stroke="#63b8ff" points="563.97,-266.43 572.9,-260.72 562.36,-259.61 563.97,-266.43"/>
</a>
</g>
</g>
<!-- Node27 -->
<g id="Node000027" class="node">
<title>Node27</title>
<g id="a_Node000027"><a xlink:href="formio_8h.html" target="_top" xlink:title=" ">
<polygon fill="white" stroke="#666666" points="478.5,-255.5 347.5,-255.5 347.5,-236.5 478.5,-236.5 478.5,-255.5"/>
<text text-anchor="middle" x="413" y="-243.5" font-family="FreeSans" font-size="10.00">mpqc/util/core/formio.h</text>
</a>
</g>
</g>
<!-- Node24&#45;&gt;Node27 -->
<g id="edge33_Node000024_Node000027" class="edge">
<title>Node24&#45;&gt;Node27</title>
<g id="a_edge33_Node000024_Node000027"><a xlink:title=" ">
<path fill="none" stroke="#63b8ff" d="M367.15,-302.37C375.32,-292.5 388.89,-276.11 399.16,-263.72"/>
<polygon fill="#63b8ff" stroke="#63b8ff" points="401.94,-265.84 405.63,-255.91 396.55,-261.37 401.94,-265.84"/>
</a>
</g>
</g>
<!-- Node32 -->
<g id="Node000032" class="node">
<title>Node32</title>
<g id="a_Node000032"><a xlink:title=" ">
<polygon fill="#e0e0e0" stroke="#999999" points="193.5,-255.5 144.5,-255.5 144.5,-236.5 193.5,-236.5 193.5,-255.5"/>
<text text-anchor="middle" x="169" y="-243.5" font-family="FreeSans" font-size="10.00">cstdlib</text>
</a>
</g>
</g>
<!-- Node24&#45;&gt;Node32 -->
<g id="edge40_Node000024_Node000032" class="edge">
<title>Node24&#45;&gt;Node32</title>
<g id="a_edge40_Node000024_Node000032"><a xlink:title=" ">
<path fill="none" stroke="#63b8ff" d="M330.82,-302.49C299.11,-293.07 247.08,-277.06 203,-261 201.58,-260.48 200.12,-259.94 198.66,-259.38"/>
<polygon fill="#63b8ff" stroke="#63b8ff" points="199.62,-255.99 189.03,-255.57 197.04,-262.5 199.62,-255.99"/>
</a>
</g>
</g>
<!-- Node33 -->
<g id="Node000033" class="node">
<title>Node33</title>
<g id="a_Node000033"><a xlink:title=" ">
<polygon fill="#e0e0e0" stroke="#999999" points="268,-255.5 212,-255.5 212,-236.5 268,-236.5 268,-255.5"/>
<text text-anchor="middle" x="240" y="-243.5" font-family="FreeSans" font-size="10.00">optional</text>
</a>
</g>
</g>
<!-- Node24&#45;&gt;Node33 -->
<g id="edge43_Node000024_Node000033" class="edge">
<title>Node24&#45;&gt;Node33</title>
<g id="a_edge43_Node000024_Node000033"><a xlink:title=" ">
<path fill="none" stroke="#63b8ff" d="M343.82,-302.37C323.69,-291.63 289.09,-273.18 265.41,-260.55"/>
<polygon fill="#63b8ff" stroke="#63b8ff" points="266.78,-257.32 256.31,-255.7 263.49,-263.49 266.78,-257.32"/>
</a>
</g>
</g>
<!-- Node34 -->
<g id="Node000034" class="node">
<title>Node34</title>
<g id="a_Node000034"><a xlink:title=" ">
<polygon fill="#e0e0e0" stroke="#999999" points="329.5,-255.5 286.5,-255.5 286.5,-236.5 329.5,-236.5 329.5,-255.5"/>
<text text-anchor="middle" x="308" y="-243.5" font-family="FreeSans" font-size="10.00">stack</text>
</a>
</g>
</g>
<!-- Node24&#45;&gt;Node34 -->
<g id="edge44_Node000024_Node000034" class="edge">
<title>Node24&#45;&gt;Node34</title>
<g id="a_edge44_Node000024_Node000034"><a xlink:title=" ">
<path fill="none" stroke="#63b8ff" d="M352.99,-302.37C344.97,-292.5 331.65,-276.11 321.58,-263.72"/>
<polygon fill="#63b8ff" stroke="#63b8ff" points="324.26,-261.46 315.24,-255.91 318.83,-265.87 324.26,-261.46"/>
</a>
</g>
</g>
<!-- Node25&#45;&gt;Node8 -->
<g id="edge30_Node000025_Node000008" class="edge">
<title>Node25&#45;&gt;Node8</title>
<g id="a_edge30_Node000025_Node000008"><a xlink:title=" ">
<path fill="none" stroke="#63b8ff" d="M648.26,-230.97C658.43,-221.79 670.7,-208.93 678,-195 687.2,-177.47 691.11,-154.97 692.77,-139.31"/>
<polygon fill="#63b8ff" stroke="#63b8ff" points="696.26,-139.54 693.63,-129.28 689.29,-138.94 696.26,-139.54"/>
</a>
</g>
</g>
<!-- Node26 -->
<g id="Node000026" class="node">
<title>Node26</title>
<g id="a_Node000026"><a xlink:title=" ">
<polygon fill="#e0e0e0" stroke="#999999" points="668.5,-189.5 573.5,-189.5 573.5,-170.5 668.5,-170.5 668.5,-189.5"/>
<text text-anchor="middle" x="621" y="-177.5" font-family="FreeSans" font-size="10.00">tiledarray_fwd.h</text>
</a>
</g>
</g>
<!-- Node25&#45;&gt;Node26 -->
<g id="edge31_Node000025_Node000026" class="edge">
<title>Node25&#45;&gt;Node26</title>
<g id="a_edge31_Node000025_Node000026"><a xlink:title=" ">
<path fill="none" stroke="#63b8ff" d="M628.78,-230.8C627.36,-221.7 625.5,-209.79 623.95,-199.9"/>
<polygon fill="#63b8ff" stroke="#63b8ff" points="627.38,-199.18 622.38,-189.84 620.47,-200.26 627.38,-199.18"/>
</a>
</g>
</g>
<!-- Node27&#45;&gt;Node12 -->
<g id="edge36_Node000027_Node000012" class="edge">
<title>Node27&#45;&gt;Node12</title>
<g id="a_edge36_Node000027_Node000012"><a xlink:title=" ">
<path fill="none" stroke="#63b8ff" d="M375.96,-236.41C328.41,-225.05 250.93,-205.27 242,-195 214.99,-163.95 216.69,-112.01 219.99,-84.29"/>
<polygon fill="#63b8ff" stroke="#63b8ff" points="223.51,-84.41 221.43,-74.02 216.58,-83.44 223.51,-84.41"/>
</a>
</g>
</g>
<!-- Node28 -->
<g id="Node000028" class="node">
<title>Node28</title>
<g id="a_Node000028"><a xlink:title=" ">
<polygon fill="#e0e0e0" stroke="#999999" points="299,-189.5 251,-189.5 251,-170.5 299,-170.5 299,-189.5"/>
<text text-anchor="middle" x="275" y="-177.5" font-family="FreeSans" font-size="10.00">iosfwd</text>
</a>
</g>
</g>
<!-- Node27&#45;&gt;Node28 -->
<g id="edge34_Node000027_Node000028" class="edge">
<title>Node27&#45;&gt;Node28</title>
<g id="a_edge34_Node000027_Node000028"><a xlink:title=" ">
<path fill="none" stroke="#63b8ff" d="M394.39,-236.37C370.93,-225.49 330.39,-206.69 303.14,-194.05"/>
<polygon fill="#63b8ff" stroke="#63b8ff" points="304.3,-190.73 293.76,-189.7 301.36,-197.08 304.3,-190.73"/>
</a>
</g>
</g>
<!-- Node29 -->
<g id="Node000029" class="node">
<title>Node29</title>
<g id="a_Node000029"><a xlink:title=" ">
<polygon fill="#e0e0e0" stroke="#999999" points="355,-189.5 317,-189.5 317,-170.5 355,-170.5 355,-189.5"/>
<text text-anchor="middle" x="336" y="-177.5" font-family="FreeSans" font-size="10.00">map</text>
</a>
</g>
</g>
<!-- Node27&#45;&gt;Node29 -->
<g id="edge35_Node000027_Node000029" class="edge">
<title>Node27&#45;&gt;Node29</title>
<g id="a_edge35_Node000027_Node000029"><a xlink:title=" ">
<path fill="none" stroke="#63b8ff" d="M402.62,-236.37C390.28,-226.12 369.49,-208.84 354.41,-196.31"/>
<polygon fill="#63b8ff" stroke="#63b8ff" points="356.64,-193.61 346.71,-189.91 352.17,-198.99 356.64,-193.61"/>
</a>
</g>
</g>
<!-- Node30 -->
<g id="Node000030" class="node">
<title>Node30</title>
<g id="a_Node000030"><a xlink:href="scope.html" target="_top" xlink:title=" ">
<polygon fill="white" stroke="#666666" points="479,-195 373,-195 373,-165 479,-165 479,-195"/>
<text text-anchor="start" x="381" y="-183" font-family="FreeSans" font-size="10.00">mpqc/util/external</text>
<text text-anchor="middle" x="426" y="-172" font-family="FreeSans" font-size="10.00">/c++/scope</text>
</a>
</g>
</g>
<!-- Node27&#45;&gt;Node30 -->
<g id="edge37_Node000027_Node000030" class="edge">
<title>Node27&#45;&gt;Node30</title>
<g id="a_edge37_Node000027_Node000030"><a xlink:title=" ">
<path fill="none" stroke="#63b8ff" d="M414.75,-236.37C416.37,-228.4 418.85,-216.2 421.07,-205.27"/>
<polygon fill="#63b8ff" stroke="#63b8ff" points="424.52,-205.86 423.08,-195.36 417.66,-204.46 424.52,-205.86"/>
</a>
</g>
</g>
<!-- Node30&#45;&gt;Node8 -->
<g id="edge38_Node000030_Node000008" class="edge">
<title>Node30&#45;&gt;Node8</title>
<g id="a_edge38_Node000030_Node000008"><a xlink:title=" ">
<path fill="none" stroke="#63b8ff" d="M479.27,-167.37C527.48,-156.85 597.92,-141.47 644.82,-131.24"/>
<polygon fill="#63b8ff" stroke="#63b8ff" points="645.72,-134.62 654.74,-129.07 644.23,-127.78 645.72,-134.62"/>
</a>
</g>
</g>
<!-- Node31 -->
<g id="Node000031" class="node">
<title>Node31</title>
<g id="a_Node000031"><a xlink:title=" ">
<polygon fill="#e0e0e0" stroke="#999999" points="448.5,-129 403.5,-129 403.5,-110 448.5,-110 448.5,-129"/>
<text text-anchor="middle" x="426" y="-117" font-family="FreeSans" font-size="10.00">utility</text>
</a>
</g>
</g>
<!-- Node30&#45;&gt;Node31 -->
<g id="edge39_Node000030_Node000031" class="edge">
<title>Node30&#45;&gt;Node31</title>
<g id="a_edge39_Node000030_Node000031"><a xlink:title=" ">
<path fill="none" stroke="#63b8ff" d="M426,-164.84C426,-157.21 426,-147.7 426,-139.45"/>
<polygon fill="#63b8ff" stroke="#63b8ff" points="429.5,-139.27 426,-129.27 422.5,-139.27 429.5,-139.27"/>
</a>
</g>
</g>
</g>
</svg>
