<?xml version="1.0" encoding="UTF-8" standalone="no"?>
<!DOCTYPE svg PUBLIC "-//W3C//DTD SVG 1.1//EN"
 "http://www.w3.org/Graphics/SVG/1.1/DTD/svg11.dtd">
<!-- Generated by graphviz version 2.43.0 (0)
 -->
<!-- Title: mpqc/math/fock/util.h Pages: 1 -->
<svg width="322pt" height="214pt"
 viewBox="0.00 0.00 321.50 214.00" xmlns="http://www.w3.org/2000/svg" xmlns:xlink="http://www.w3.org/1999/xlink">

<svg id="main" version="1.1" xmlns="http://www.w3.org/2000/svg" xmlns:xlink="http://www.w3.org/1999/xlink" xml:space="preserve" onload="init(evt)">
<style type="text/css"><![CDATA[
.node, .edge {opacity: 0.7;}
.node.selected, .edge.selected {opacity: 1;}
.edge:hover path { stroke: red; }
.edge:hover polygon { stroke: red; fill: red; }
]]></style>
<script type="application/ecmascript" xlink:href="svg.min.js"/>
<svg id="graph" class="graph">
<g id="graph0" class="graph" transform="scale(1 1) rotate(0) translate(4 210)">
<title>mpqc/math/fock/util.h</title>
<!-- Node1 -->
<g id="Node000001" class="node">
<title>Node1</title>
<g id="a_Node000001"><a xlink:title=" ">
<polygon fill="#999999" stroke="#666666" points="228.5,-206 104.5,-206 104.5,-187 228.5,-187 228.5,-206"/>
<text text-anchor="middle" x="166.5" y="-194" font-family="FreeSans" font-size="10.00">mpqc/math/fock/util.h</text>
</a>
</g>
</g>
<!-- Node2 -->
<g id="Node000002" class="node">
<title>Node2</title>
<g id="a_Node000002"><a xlink:href="hamiltonian_8h.html" target="_top" xlink:title=" ">
<polygon fill="white" stroke="#666666" points="167,-151 0,-151 0,-132 167,-132 167,-151"/>
<text text-anchor="middle" x="83.5" y="-139" font-family="FreeSans" font-size="10.00">mpqc/math/fock/hamiltonian.h</text>
</a>
</g>
</g>
<!-- Node1&#45;&gt;Node2 -->
<g id="edge1_Node000001_Node000002" class="edge">
<title>Node1&#45;&gt;Node2</title>
<g id="a_edge1_Node000001_Node000002"><a xlink:title=" ">
<path fill="none" stroke="#63b8ff" d="M144.46,-181.42C129.39,-171.81 109.91,-159.37 97.08,-151.17"/>
<polygon fill="#63b8ff" stroke="#63b8ff" points="142.85,-184.55 153.16,-186.98 146.62,-178.65 142.85,-184.55"/>
</a>
</g>
</g>
<!-- Node5 -->
<g id="Node000005" class="node">
<title>Node5</title>
<g id="a_Node000005"><a xlink:href="math_2fock_2rdm_8h.html" target="_top" xlink:title=" ">
<polygon fill="white" stroke="#666666" points="313.5,-151 185.5,-151 185.5,-132 313.5,-132 313.5,-151"/>
<text text-anchor="middle" x="249.5" y="-139" font-family="FreeSans" font-size="10.00">mpqc/math/fock/rdm.h</text>
</a>
</g>
</g>
<!-- Node1&#45;&gt;Node5 -->
<g id="edge4_Node000001_Node000005" class="edge">
<title>Node1&#45;&gt;Node5</title>
<g id="a_edge4_Node000001_Node000005"><a xlink:title=" ">
<path fill="none" stroke="#63b8ff" d="M188.54,-181.42C203.61,-171.81 223.09,-159.37 235.92,-151.17"/>
<polygon fill="#63b8ff" stroke="#63b8ff" points="186.38,-178.65 179.84,-186.98 190.15,-184.55 186.38,-178.65"/>
</a>
</g>
</g>
<!-- Node3 -->
<g id="Node000003" class="node">
<title>Node3</title>
<g id="a_Node000003"><a xlink:href="sci_8ipp.html" target="_top" xlink:title=" ">
<polygon fill="white" stroke="#666666" points="233,-96 100,-96 100,-66 233,-66 233,-96"/>
<text text-anchor="start" x="108" y="-84" font-family="FreeSans" font-size="10.00">mpqc/chemistry/qc/lcao</text>
<text text-anchor="middle" x="166.5" y="-73" font-family="FreeSans" font-size="10.00">/ci/sci.ipp</text>
</a>
</g>
</g>
<!-- Node2&#45;&gt;Node3 -->
<g id="edge2_Node000002_Node000003" class="edge">
<title>Node2&#45;&gt;Node3</title>
<g id="a_edge2_Node000002_Node000003"><a xlink:title=" ">
<path fill="none" stroke="#63b8ff" d="M104.03,-126.03C116.98,-116.9 133.62,-105.17 146.47,-96.11"/>
<polygon fill="#63b8ff" stroke="#63b8ff" points="101.9,-123.25 95.75,-131.87 105.94,-128.97 101.9,-123.25"/>
</a>
</g>
</g>
<!-- Node4 -->
<g id="Node000004" class="node">
<title>Node4</title>
<g id="a_Node000004"><a xlink:href="sci_8cpp.html" target="_top" xlink:title=" ">
<polygon fill="white" stroke="#666666" points="233,-30 100,-30 100,0 233,0 233,-30"/>
<text text-anchor="start" x="108" y="-18" font-family="FreeSans" font-size="10.00">mpqc/chemistry/qc/lcao</text>
<text text-anchor="middle" x="166.5" y="-7" font-family="FreeSans" font-size="10.00">/ci/sci.cpp</text>
</a>
</g>
</g>
<!-- Node3&#45;&gt;Node4 -->
<g id="edge3_Node000003_Node000004" class="edge">
<title>Node3&#45;&gt;Node4</title>
<g id="a_edge3_Node000003_Node000004"><a xlink:title=" ">
<path fill="none" stroke="#63b8ff" d="M166.5,-55.54C166.5,-46.96 166.5,-37.61 166.5,-30.16"/>
<polygon fill="#63b8ff" stroke="#63b8ff" points="163,-55.8 166.5,-65.8 170,-55.8 163,-55.8"/>
</a>
</g>
</g>
<!-- Node5&#45;&gt;Node3 -->
<g id="edge5_Node000005_Node000003" class="edge">
<title>Node5&#45;&gt;Node3</title>
<g id="a_edge5_Node000005_Node000003"><a xlink:title=" ">
<path fill="none" stroke="#63b8ff" d="M228.97,-126.03C216.02,-116.9 199.38,-105.17 186.53,-96.11"/>
<polygon fill="#63b8ff" stroke="#63b8ff" points="227.06,-128.97 237.25,-131.87 231.1,-123.25 227.06,-128.97"/>
</a>
</g>
</g>
</g>
</svg>
</svg>

<style type='text/css'>
<![CDATA[
[data-mouse-over-selected='false'] { opacity: 0.7; }
[data-mouse-over-selected='true']  { opacity: 1.0; }
]]>
</style>
<script type="application/ecmascript"><![CDATA[
document.addEventListener('DOMContentLoaded', (event) => {
  highlightEdges();
  highlightAdjacentNodes();
});
]]></script>
</svg>
