<?xml version="1.0" encoding="UTF-8" standalone="no"?>
<!DOCTYPE svg PUBLIC "-//W3C//DTD SVG 1.1//EN"
 "http://www.w3.org/Graphics/SVG/1.1/DTD/svg11.dtd">
<!-- Generated by graphviz version 2.43.0 (0)
 -->
<!-- Title: mpqc/math/external/eigen/util.cpp Pages: 1 -->
<svg width="1684pt" height="467pt"
 viewBox="0.00 0.00 1683.50 467.00" xmlns="http://www.w3.org/2000/svg" xmlns:xlink="http://www.w3.org/1999/xlink">
<g id="graph0" class="graph" transform="scale(1 1) rotate(0) translate(4 463)">
<title>mpqc/math/external/eigen/util.cpp</title>
<!-- Node1 -->
<g id="Node000001" class="node">
<title>Node1</title>
<g id="a_Node000001"><a xlink:title=" ">
<polygon fill="#999999" stroke="#666666" points="1675.5,-459 1559.5,-459 1559.5,-429 1675.5,-429 1675.5,-459"/>
<text text-anchor="start" x="1567.5" y="-447" font-family="FreeSans" font-size="10.00">mpqc/math/external</text>
<text text-anchor="middle" x="1617.5" y="-436" font-family="FreeSans" font-size="10.00">/eigen/util.cpp</text>
</a>
</g>
</g>
<!-- Node2 -->
<g id="Node000002" class="node">
<title>Node2</title>
<g id="a_Node000002"><a xlink:href="math_2external_2eigen_2util_8h.html" target="_top" xlink:title=" ">
<polygon fill="white" stroke="#666666" points="1097.5,-393 981.5,-393 981.5,-363 1097.5,-363 1097.5,-393"/>
<text text-anchor="start" x="989.5" y="-381" font-family="FreeSans" font-size="10.00">mpqc/math/external</text>
<text text-anchor="middle" x="1039.5" y="-370" font-family="FreeSans" font-size="10.00">/eigen/util.h</text>
</a>
</g>
</g>
<!-- Node1&#45;&gt;Node2 -->
<g id="edge1_Node000001_Node000002" class="edge">
<title>Node1&#45;&gt;Node2</title>
<g id="a_edge1_Node000001_Node000002"><a xlink:title=" ">
<path fill="none" stroke="#63b8ff" d="M1559.43,-436.57C1451.89,-424.66 1222.26,-399.24 1107.59,-386.54"/>
<polygon fill="#63b8ff" stroke="#63b8ff" points="1107.85,-383.05 1097.53,-385.43 1107.08,-390 1107.85,-383.05"/>
</a>
</g>
</g>
<!-- Node4 -->
<g id="Node000004" class="node">
<title>Node4</title>
<g id="a_Node000004"><a xlink:title=" ">
<polygon fill="#e0e0e0" stroke="#999999" points="925,-19 878,-19 878,0 925,0 925,-19"/>
<text text-anchor="middle" x="901.5" y="-7" font-family="FreeSans" font-size="10.00">vector</text>
</a>
</g>
</g>
<!-- Node1&#45;&gt;Node4 -->
<g id="edge50_Node000001_Node000004" class="edge">
<title>Node1&#45;&gt;Node4</title>
<g id="a_edge50_Node000001_Node000004"><a xlink:title=" ">
<path fill="none" stroke="#63b8ff" d="M1624.47,-428.97C1635.44,-405.54 1655.5,-356.74 1655.5,-313 1655.5,-313 1655.5,-313 1655.5,-118.5 1655.5,-44.72 1082.51,-17.5 935.53,-11.73"/>
<polygon fill="#63b8ff" stroke="#63b8ff" points="935.44,-8.23 925.31,-11.34 935.17,-15.22 935.44,-8.23"/>
</a>
</g>
</g>
<!-- Node32 -->
<g id="Node000032" class="node">
<title>Node32</title>
<g id="a_Node000032"><a xlink:title=" ">
<polygon fill="#e0e0e0" stroke="#999999" points="1410,-129 1365,-129 1365,-110 1410,-110 1410,-129"/>
<text text-anchor="middle" x="1387.5" y="-117" font-family="FreeSans" font-size="10.00">utility</text>
</a>
</g>
</g>
<!-- Node1&#45;&gt;Node32 -->
<g id="edge49_Node000001_Node000032" class="edge">
<title>Node1&#45;&gt;Node32</title>
<g id="a_edge49_Node000001_Node000032"><a xlink:title=" ">
<path fill="none" stroke="#63b8ff" d="M1617.5,-428.96C1617.5,-405.12 1617.5,-355.2 1617.5,-313 1617.5,-313 1617.5,-313 1617.5,-245 1617.5,-156.58 1484.41,-130.64 1420.71,-123.29"/>
<polygon fill="#63b8ff" stroke="#63b8ff" points="1420.71,-119.77 1410.39,-122.19 1419.97,-126.73 1420.71,-119.77"/>
</a>
</g>
</g>
<!-- Node3 -->
<g id="Node000003" class="node">
<title>Node3</title>
<g id="a_Node000003"><a xlink:title=" ">
<polygon fill="#e0e0e0" stroke="#999999" points="1589.5,-255.5 1529.5,-255.5 1529.5,-236.5 1589.5,-236.5 1589.5,-255.5"/>
<text text-anchor="middle" x="1559.5" y="-243.5" font-family="FreeSans" font-size="10.00">iostream</text>
</a>
</g>
</g>
<!-- Node2&#45;&gt;Node3 -->
<g id="edge2_Node000002_Node000003" class="edge">
<title>Node2&#45;&gt;Node3</title>
<g id="a_edge2_Node000002_Node000003"><a xlink:title=" ">
<path fill="none" stroke="#63b8ff" d="M1097.74,-370.92C1159.83,-363.65 1260.7,-349.54 1345.5,-327 1413.85,-308.83 1490.8,-277.16 1531.21,-259.61"/>
<polygon fill="#63b8ff" stroke="#63b8ff" points="1532.68,-262.79 1540.44,-255.58 1529.87,-256.38 1532.68,-262.79"/>
</a>
</g>
</g>
<!-- Node2&#45;&gt;Node4 -->
<g id="edge3_Node000002_Node000004" class="edge">
<title>Node2&#45;&gt;Node4</title>
<g id="a_edge3_Node000002_Node000004"><a xlink:title=" ">
<path fill="none" stroke="#63b8ff" d="M1010.16,-362.99C993.91,-354.23 974.11,-341.81 959.5,-327 935.41,-302.58 929.91,-293.68 919.5,-261 893.08,-178.04 896.93,-72.08 899.89,-29.49"/>
<polygon fill="#63b8ff" stroke="#63b8ff" points="903.39,-29.67 900.67,-19.43 896.41,-29.14 903.39,-29.67"/>
</a>
</g>
</g>
<!-- Node5 -->
<g id="Node000005" class="node">
<title>Node5</title>
<g id="a_Node000005"><a xlink:href="eigen_8h.html" target="_top" xlink:title=" ">
<polygon fill="white" stroke="#666666" points="747.5,-327 631.5,-327 631.5,-297 747.5,-297 747.5,-327"/>
<text text-anchor="start" x="639.5" y="-315" font-family="FreeSans" font-size="10.00">mpqc/math/external</text>
<text text-anchor="middle" x="689.5" y="-304" font-family="FreeSans" font-size="10.00">/eigen/eigen.h</text>
</a>
</g>
</g>
<!-- Node2&#45;&gt;Node5 -->
<g id="edge4_Node000002_Node000005" class="edge">
<title>Node2&#45;&gt;Node5</title>
<g id="a_edge4_Node000002_Node000005"><a xlink:title=" ">
<path fill="none" stroke="#63b8ff" d="M981.31,-366.36C919.78,-355.11 822.78,-337.37 757.7,-325.47"/>
<polygon fill="#63b8ff" stroke="#63b8ff" points="758,-321.97 747.54,-323.61 756.74,-328.85 758,-321.97"/>
</a>
</g>
</g>
<!-- Node8 -->
<g id="Node000008" class="node">
<title>Node8</title>
<g id="a_Node000008"><a xlink:href="assert_8h.html" target="_top" xlink:title=" ">
<polygon fill="white" stroke="#666666" points="684,-189.5 553,-189.5 553,-170.5 684,-170.5 684,-189.5"/>
<text text-anchor="middle" x="618.5" y="-177.5" font-family="FreeSans" font-size="10.00">mpqc/util/misc/assert.h</text>
</a>
</g>
</g>
<!-- Node2&#45;&gt;Node8 -->
<g id="edge47_Node000002_Node000008" class="edge">
<title>Node2&#45;&gt;Node8</title>
<g id="a_edge47_Node000002_Node000008"><a xlink:title=" ">
<path fill="none" stroke="#63b8ff" d="M981.27,-374.72C851.16,-368.15 544.25,-343.98 493.5,-261 472.42,-226.54 524.05,-204.28 567.23,-192.21"/>
<polygon fill="#63b8ff" stroke="#63b8ff" points="568.37,-195.52 577.13,-189.57 566.57,-188.76 568.37,-195.52"/>
</a>
</g>
</g>
<!-- Node25 -->
<g id="Node000025" class="node">
<title>Node25</title>
<g id="a_Node000025"><a xlink:href="exenv_8h.html" target="_top" xlink:title=" ">
<polygon fill="white" stroke="#666666" points="1336,-321.5 1209,-321.5 1209,-302.5 1336,-302.5 1336,-321.5"/>
<text text-anchor="middle" x="1272.5" y="-309.5" font-family="FreeSans" font-size="10.00">mpqc/util/core/exenv.h</text>
</a>
</g>
</g>
<!-- Node2&#45;&gt;Node25 -->
<g id="edge29_Node000002_Node000025" class="edge">
<title>Node2&#45;&gt;Node25</title>
<g id="a_edge29_Node000002_Node000025"><a xlink:title=" ">
<path fill="none" stroke="#63b8ff" d="M1090.63,-362.95C1133.02,-351.31 1192.49,-334.98 1231.73,-324.2"/>
<polygon fill="#63b8ff" stroke="#63b8ff" points="1232.78,-327.54 1241.49,-321.52 1230.92,-320.79 1232.78,-327.54"/>
</a>
</g>
</g>
<!-- Node36 -->
<g id="Node000036" class="node">
<title>Node36</title>
<g id="a_Node000036"><a xlink:title=" ">
<polygon fill="#e0e0e0" stroke="#999999" points="1110.5,-327 968.5,-327 968.5,-297 1110.5,-297 1110.5,-327"/>
<text text-anchor="start" x="976.5" y="-315" font-family="FreeSans" font-size="10.00">unsupported/Eigen/Matrix</text>
<text text-anchor="middle" x="1039.5" y="-304" font-family="FreeSans" font-size="10.00">Functions</text>
</a>
</g>
</g>
<!-- Node2&#45;&gt;Node36 -->
<g id="edge48_Node000002_Node000036" class="edge">
<title>Node2&#45;&gt;Node36</title>
<g id="a_edge48_Node000002_Node000036"><a xlink:title=" ">
<path fill="none" stroke="#63b8ff" d="M1039.5,-362.8C1039.5,-355.34 1039.5,-345.99 1039.5,-337.41"/>
<polygon fill="#63b8ff" stroke="#63b8ff" points="1043,-337.16 1039.5,-327.16 1036,-337.16 1043,-337.16"/>
</a>
</g>
</g>
<!-- Node6 -->
<g id="Node000006" class="node">
<title>Node6</title>
<g id="a_Node000006"><a xlink:title=" ">
<polygon fill="#e0e0e0" stroke="#999999" points="700.5,-255.5 598.5,-255.5 598.5,-236.5 700.5,-236.5 700.5,-255.5"/>
<text text-anchor="middle" x="649.5" y="-243.5" font-family="FreeSans" font-size="10.00">madness/config.h</text>
</a>
</g>
</g>
<!-- Node5&#45;&gt;Node6 -->
<g id="edge5_Node000005_Node000006" class="edge">
<title>Node5&#45;&gt;Node6</title>
<g id="a_edge5_Node000005_Node000006"><a xlink:title=" ">
<path fill="none" stroke="#63b8ff" d="M680.62,-296.8C674.69,-287.31 666.85,-274.76 660.52,-264.63"/>
<polygon fill="#63b8ff" stroke="#63b8ff" points="663.3,-262.47 655.03,-255.84 657.36,-266.18 663.3,-262.47"/>
</a>
</g>
</g>
<!-- Node7 -->
<g id="Node000007" class="node">
<title>Node7</title>
<g id="a_Node000007"><a xlink:href="complex_8h.html" target="_top" xlink:title=" ">
<polygon fill="white" stroke="#666666" points="446.5,-255.5 296.5,-255.5 296.5,-236.5 446.5,-236.5 446.5,-255.5"/>
<text text-anchor="middle" x="371.5" y="-243.5" font-family="FreeSans" font-size="10.00">mpqc/math/core/complex.h</text>
</a>
</g>
</g>
<!-- Node5&#45;&gt;Node7 -->
<g id="edge6_Node000005_Node000007" class="edge">
<title>Node5&#45;&gt;Node7</title>
<g id="a_edge6_Node000005_Node000007"><a xlink:title=" ">
<path fill="none" stroke="#63b8ff" d="M631.17,-299.26C571.97,-287.35 481.14,-269.07 424.09,-257.58"/>
<polygon fill="#63b8ff" stroke="#63b8ff" points="424.68,-254.13 414.19,-255.59 423.3,-261 424.68,-254.13"/>
</a>
</g>
</g>
<!-- Node9 -->
<g id="Node000009" class="node">
<title>Node9</title>
<g id="a_Node000009"><a xlink:title=" ">
<polygon fill="#e0e0e0" stroke="#999999" points="873,-129 756,-129 756,-110 873,-110 873,-129"/>
<text text-anchor="middle" x="814.5" y="-117" font-family="FreeSans" font-size="10.00">mpqc/mpqc_config.h</text>
</a>
</g>
</g>
<!-- Node5&#45;&gt;Node9 -->
<g id="edge25_Node000005_Node000009" class="edge">
<title>Node5&#45;&gt;Node9</title>
<g id="a_edge25_Node000005_Node000009"><a xlink:title=" ">
<path fill="none" stroke="#63b8ff" d="M698.69,-296.99C721.05,-262.92 778.25,-175.75 802.9,-138.17"/>
<polygon fill="#63b8ff" stroke="#63b8ff" points="806.13,-139.64 808.69,-129.36 800.27,-135.8 806.13,-139.64"/>
</a>
</g>
</g>
<!-- Node23 -->
<g id="Node000023" class="node">
<title>Node23</title>
<g id="a_Node000023"><a xlink:href="math_2external_2eigen_2fwd_8h.html" target="_top" xlink:title=" ">
<polygon fill="white" stroke="#666666" points="872.5,-261 756.5,-261 756.5,-231 872.5,-231 872.5,-261"/>
<text text-anchor="start" x="764.5" y="-249" font-family="FreeSans" font-size="10.00">mpqc/math/external</text>
<text text-anchor="middle" x="814.5" y="-238" font-family="FreeSans" font-size="10.00">/eigen/fwd.h</text>
</a>
</g>
</g>
<!-- Node5&#45;&gt;Node23 -->
<g id="edge26_Node000005_Node000023" class="edge">
<title>Node5&#45;&gt;Node23</title>
<g id="a_edge26_Node000005_Node000023"><a xlink:title=" ">
<path fill="none" stroke="#63b8ff" d="M716.93,-296.95C734.92,-287.74 758.65,-275.6 778.2,-265.59"/>
<polygon fill="#63b8ff" stroke="#63b8ff" points="779.83,-268.69 787.13,-261.01 776.64,-262.45 779.83,-268.69"/>
</a>
</g>
</g>
<!-- Node24 -->
<g id="Node000024" class="node">
<title>Node24</title>
<g id="a_Node000024"><a xlink:title=" ">
<polygon fill="#e0e0e0" stroke="#999999" points="580,-255.5 503,-255.5 503,-236.5 580,-236.5 580,-255.5"/>
<text text-anchor="middle" x="541.5" y="-243.5" font-family="FreeSans" font-size="10.00">Eigen/Dense</text>
</a>
</g>
</g>
<!-- Node5&#45;&gt;Node24 -->
<g id="edge28_Node000005_Node000024" class="edge">
<title>Node5&#45;&gt;Node24</title>
<g id="a_edge28_Node000005_Node000024"><a xlink:title=" ">
<path fill="none" stroke="#63b8ff" d="M657.02,-296.95C631.18,-285.78 595.35,-270.29 570.47,-259.53"/>
<polygon fill="#63b8ff" stroke="#63b8ff" points="571.76,-256.27 561.2,-255.52 568.99,-262.7 571.76,-256.27"/>
</a>
</g>
</g>
<!-- Node7&#45;&gt;Node8 -->
<g id="edge7_Node000007_Node000008" class="edge">
<title>Node7&#45;&gt;Node8</title>
<g id="a_edge7_Node000007_Node000008"><a xlink:title=" ">
<path fill="none" stroke="#63b8ff" d="M404.56,-236.44C448.74,-224.99 527.1,-204.68 575.74,-192.08"/>
<polygon fill="#63b8ff" stroke="#63b8ff" points="576.84,-195.41 585.64,-189.51 575.08,-188.63 576.84,-195.41"/>
</a>
</g>
</g>
<!-- Node18 -->
<g id="Node000018" class="node">
<title>Node18</title>
<g id="a_Node000018"><a xlink:title=" ">
<polygon fill="#e0e0e0" stroke="#999999" points="156,-189.5 87,-189.5 87,-170.5 156,-170.5 156,-189.5"/>
<text text-anchor="middle" x="121.5" y="-177.5" font-family="FreeSans" font-size="10.00">Eigen/Core</text>
</a>
</g>
</g>
<!-- Node7&#45;&gt;Node18 -->
<g id="edge20_Node000007_Node000018" class="edge">
<title>Node7&#45;&gt;Node18</title>
<g id="a_edge20_Node000007_Node000018"><a xlink:title=" ">
<path fill="none" stroke="#63b8ff" d="M332.95,-236.49C291.4,-227.12 223.44,-211.23 165.5,-195 162.75,-194.23 159.91,-193.4 157.07,-192.55"/>
<polygon fill="#63b8ff" stroke="#63b8ff" points="158.05,-189.19 147.47,-189.59 155.99,-195.88 158.05,-189.19"/>
</a>
</g>
</g>
<!-- Node19 -->
<g id="Node000019" class="node">
<title>Node19</title>
<g id="a_Node000019"><a xlink:title=" ">
<polygon fill="#e0e0e0" stroke="#999999" points="296.5,-195 174.5,-195 174.5,-165 296.5,-165 296.5,-195"/>
<text text-anchor="start" x="182.5" y="-183" font-family="FreeSans" font-size="10.00">boost/container/small</text>
<text text-anchor="middle" x="235.5" y="-172" font-family="FreeSans" font-size="10.00">_vector.hpp</text>
</a>
</g>
</g>
<!-- Node7&#45;&gt;Node19 -->
<g id="edge21_Node000007_Node000019" class="edge">
<title>Node7&#45;&gt;Node19</title>
<g id="a_edge21_Node000007_Node000019"><a xlink:title=" ">
<path fill="none" stroke="#63b8ff" d="M353.16,-236.37C333.14,-226.95 300.5,-211.59 274.67,-199.43"/>
<polygon fill="#63b8ff" stroke="#63b8ff" points="276.03,-196.21 265.5,-195.12 273.05,-202.54 276.03,-196.21"/>
</a>
</g>
</g>
<!-- Node20 -->
<g id="Node000020" class="node">
<title>Node20</title>
<g id="a_Node000020"><a xlink:title=" ">
<polygon fill="#e0e0e0" stroke="#999999" points="458,-195 315,-195 315,-165 458,-165 458,-195"/>
<text text-anchor="start" x="323" y="-183" font-family="FreeSans" font-size="10.00">boost/numeric/conversion</text>
<text text-anchor="middle" x="386.5" y="-172" font-family="FreeSans" font-size="10.00">/cast.hpp</text>
</a>
</g>
</g>
<!-- Node7&#45;&gt;Node20 -->
<g id="edge22_Node000007_Node000020" class="edge">
<title>Node7&#45;&gt;Node20</title>
<g id="a_edge22_Node000007_Node000020"><a xlink:title=" ">
<path fill="none" stroke="#63b8ff" d="M373.52,-236.37C375.39,-228.4 378.25,-216.2 380.81,-205.27"/>
<polygon fill="#63b8ff" stroke="#63b8ff" points="384.26,-205.9 383.13,-195.36 377.44,-204.3 384.26,-205.9"/>
</a>
</g>
</g>
<!-- Node21 -->
<g id="Node000021" class="node">
<title>Node21</title>
<g id="a_Node000021"><a xlink:title=" ">
<polygon fill="#e0e0e0" stroke="#999999" points="535,-189.5 476,-189.5 476,-170.5 535,-170.5 535,-189.5"/>
<text text-anchor="middle" x="505.5" y="-177.5" font-family="FreeSans" font-size="10.00">complex</text>
</a>
</g>
</g>
<!-- Node7&#45;&gt;Node21 -->
<g id="edge23_Node000007_Node000021" class="edge">
<title>Node7&#45;&gt;Node21</title>
<g id="a_edge23_Node000007_Node000021"><a xlink:title=" ">
<path fill="none" stroke="#63b8ff" d="M389.57,-236.37C412.35,-225.49 451.72,-206.69 478.18,-194.05"/>
<polygon fill="#63b8ff" stroke="#63b8ff" points="479.77,-197.17 487.29,-189.7 476.75,-190.85 479.77,-197.17"/>
</a>
</g>
</g>
<!-- Node22 -->
<g id="Node000022" class="node">
<title>Node22</title>
<g id="a_Node000022"><a xlink:title=" ">
<polygon fill="#e0e0e0" stroke="#999999" points="69,-189.5 0,-189.5 0,-170.5 69,-170.5 69,-189.5"/>
<text text-anchor="middle" x="34.5" y="-177.5" font-family="FreeSans" font-size="10.00">type_traits</text>
</a>
</g>
</g>
<!-- Node7&#45;&gt;Node22 -->
<g id="edge24_Node000007_Node000022" class="edge">
<title>Node7&#45;&gt;Node22</title>
<g id="a_edge24_Node000007_Node000022"><a xlink:title=" ">
<path fill="none" stroke="#63b8ff" d="M304.67,-236.48C244.7,-228.16 154.54,-213.98 77.5,-195 74.55,-194.27 71.5,-193.44 68.46,-192.56"/>
<polygon fill="#63b8ff" stroke="#63b8ff" points="69.47,-189.21 58.88,-189.62 67.41,-195.9 69.47,-189.21"/>
</a>
</g>
</g>
<!-- Node8&#45;&gt;Node9 -->
<g id="edge8_Node000008_Node000009" class="edge">
<title>Node8&#45;&gt;Node9</title>
<g id="a_edge8_Node000008_Node000009"><a xlink:title=" ">
<path fill="none" stroke="#63b8ff" d="M647,-170.49C681.11,-160.31 738.37,-143.22 776.29,-131.9"/>
<polygon fill="#63b8ff" stroke="#63b8ff" points="777.38,-135.23 785.97,-129.02 775.38,-128.52 777.38,-135.23"/>
</a>
</g>
</g>
<!-- Node10 -->
<g id="Node000010" class="node">
<title>Node10</title>
<g id="a_Node000010"><a xlink:title=" ">
<polygon fill="#e0e0e0" stroke="#999999" points="573.5,-129 521.5,-129 521.5,-110 573.5,-110 573.5,-129"/>
<text text-anchor="middle" x="547.5" y="-117" font-family="FreeSans" font-size="10.00">cassert</text>
</a>
</g>
</g>
<!-- Node8&#45;&gt;Node10 -->
<g id="edge9_Node000008_Node000010" class="edge">
<title>Node8&#45;&gt;Node10</title>
<g id="a_edge9_Node000008_Node000010"><a xlink:title=" ">
<path fill="none" stroke="#63b8ff" d="M608.02,-170.37C597.01,-161.3 579.46,-146.84 566.09,-135.82"/>
<polygon fill="#63b8ff" stroke="#63b8ff" points="567.96,-132.83 558.02,-129.17 563.51,-138.23 567.96,-132.83"/>
</a>
</g>
</g>
<!-- Node11 -->
<g id="Node000011" class="node">
<title>Node11</title>
<g id="a_Node000011"><a xlink:href="exception_8h.html" target="_top" xlink:title=" ">
<polygon fill="white" stroke="#666666" points="737.5,-129 591.5,-129 591.5,-110 737.5,-110 737.5,-129"/>
<text text-anchor="middle" x="664.5" y="-117" font-family="FreeSans" font-size="10.00">mpqc/util/core/exception.h</text>
</a>
</g>
</g>
<!-- Node8&#45;&gt;Node11 -->
<g id="edge10_Node000008_Node000011" class="edge">
<title>Node8&#45;&gt;Node11</title>
<g id="a_edge10_Node000008_Node000011"><a xlink:title=" ">
<path fill="none" stroke="#63b8ff" d="M625.29,-170.37C632.15,-161.64 642.93,-147.93 651.45,-137.09"/>
<polygon fill="#63b8ff" stroke="#63b8ff" points="654.25,-139.19 657.68,-129.17 648.75,-134.86 654.25,-139.19"/>
</a>
</g>
</g>
<!-- Node11&#45;&gt;Node4 -->
<g id="edge16_Node000011_Node000004" class="edge">
<title>Node11&#45;&gt;Node4</title>
<g id="a_edge16_Node000011_Node000004"><a xlink:title=" ">
<path fill="none" stroke="#63b8ff" d="M737.52,-110.54C771.84,-104.35 812.21,-93.39 844.5,-74 863.67,-62.49 880.05,-42.48 890.26,-27.99"/>
<polygon fill="#63b8ff" stroke="#63b8ff" points="893.36,-29.66 896.06,-19.41 887.56,-25.74 893.36,-29.66"/>
</a>
</g>
</g>
<!-- Node12 -->
<g id="Node000012" class="node">
<title>Node12</title>
<g id="a_Node000012"><a xlink:title=" ">
<polygon fill="#e0e0e0" stroke="#999999" points="761,-74 708,-74 708,-55 761,-55 761,-74"/>
<text text-anchor="middle" x="734.5" y="-62" font-family="FreeSans" font-size="10.00">string.h</text>
</a>
</g>
</g>
<!-- Node11&#45;&gt;Node12 -->
<g id="edge11_Node000011_Node000012" class="edge">
<title>Node11&#45;&gt;Node12</title>
<g id="a_edge11_Node000011_Node000012"><a xlink:title=" ">
<path fill="none" stroke="#63b8ff" d="M675.75,-109.98C686.3,-102 702.3,-89.88 714.94,-80.31"/>
<polygon fill="#63b8ff" stroke="#63b8ff" points="717.19,-83 723.05,-74.17 712.96,-77.42 717.19,-83"/>
</a>
</g>
</g>
<!-- Node13 -->
<g id="Node000013" class="node">
<title>Node13</title>
<g id="a_Node000013"><a xlink:href="memory.html" target="_top" xlink:title=" ">
<polygon fill="white" stroke="#666666" points="1301.5,-74 1243.5,-74 1243.5,-55 1301.5,-55 1301.5,-74"/>
<text text-anchor="middle" x="1272.5" y="-62" font-family="FreeSans" font-size="10.00">memory</text>
</a>
</g>
</g>
<!-- Node11&#45;&gt;Node13 -->
<g id="edge12_Node000011_Node000013" class="edge">
<title>Node11&#45;&gt;Node13</title>
<g id="a_edge12_Node000011_Node000013"><a xlink:title=" ">
<path fill="none" stroke="#63b8ff" d="M737.81,-110.92C741.09,-110.61 744.33,-110.3 747.5,-110 929.1,-93.01 1146.31,-75.49 1233.48,-68.57"/>
<polygon fill="#63b8ff" stroke="#63b8ff" points="1233.77,-72.06 1243.46,-67.78 1233.21,-65.08 1233.77,-72.06"/>
</a>
</g>
</g>
<!-- Node14 -->
<g id="Node000014" class="node">
<title>Node14</title>
<g id="a_Node000014"><a xlink:title=" ">
<polygon fill="#e0e0e0" stroke="#999999" points="835.5,-74 779.5,-74 779.5,-55 835.5,-55 835.5,-74"/>
<text text-anchor="middle" x="807.5" y="-62" font-family="FreeSans" font-size="10.00">sstream</text>
</a>
</g>
</g>
<!-- Node11&#45;&gt;Node14 -->
<g id="edge14_Node000011_Node000014" class="edge">
<title>Node11&#45;&gt;Node14</title>
<g id="a_edge14_Node000011_Node000014"><a xlink:title=" ">
<path fill="none" stroke="#63b8ff" d="M687.48,-109.98C711,-101.27 747.79,-87.63 774.44,-77.75"/>
<polygon fill="#63b8ff" stroke="#63b8ff" points="775.95,-80.93 784.11,-74.17 773.51,-74.36 775.95,-80.93"/>
</a>
</g>
</g>
<!-- Node15 -->
<g id="Node000015" class="node">
<title>Node15</title>
<g id="a_Node000015"><a xlink:title=" ">
<polygon fill="#e0e0e0" stroke="#999999" points="525,-74 460,-74 460,-55 525,-55 525,-74"/>
<text text-anchor="middle" x="492.5" y="-62" font-family="FreeSans" font-size="10.00">stdexcept</text>
</a>
</g>
</g>
<!-- Node11&#45;&gt;Node15 -->
<g id="edge15_Node000011_Node000015" class="edge">
<title>Node11&#45;&gt;Node15</title>
<g id="a_edge15_Node000011_Node000015"><a xlink:title=" ">
<path fill="none" stroke="#63b8ff" d="M636.87,-109.98C607.99,-101.09 562.49,-87.07 530.3,-77.15"/>
<polygon fill="#63b8ff" stroke="#63b8ff" points="530.94,-73.68 520.35,-74.08 528.88,-80.37 530.94,-73.68"/>
</a>
</g>
</g>
<!-- Node16 -->
<g id="Node000016" class="node">
<title>Node16</title>
<g id="a_Node000016"><a xlink:href="backtrace_8h.html" target="_top" xlink:title=" ">
<polygon fill="white" stroke="#666666" points="689.5,-74 543.5,-74 543.5,-55 689.5,-55 689.5,-74"/>
<text text-anchor="middle" x="616.5" y="-62" font-family="FreeSans" font-size="10.00">mpqc/util/core/backtrace.h</text>
</a>
</g>
</g>
<!-- Node11&#45;&gt;Node16 -->
<g id="edge17_Node000011_Node000016" class="edge">
<title>Node11&#45;&gt;Node16</title>
<g id="a_edge17_Node000011_Node000016"><a xlink:title=" ">
<path fill="none" stroke="#63b8ff" d="M656.57,-109.75C649.65,-102.11 639.43,-90.82 631.05,-81.56"/>
<polygon fill="#63b8ff" stroke="#63b8ff" points="633.59,-79.15 624.28,-74.09 628.4,-83.85 633.59,-79.15"/>
</a>
</g>
</g>
<!-- Node13&#45;&gt;Node13 -->
<g id="edge13_Node000013_Node000013" class="edge">
<title>Node13&#45;&gt;Node13</title>
<g id="a_edge13_Node000013_Node000013"><a xlink:title=" ">
<path fill="none" stroke="#63b8ff" d="M1294.74,-74.07C1307.56,-76.02 1319.5,-72.83 1319.5,-64.5 1319.5,-58.45 1313.2,-55.11 1304.84,-54.48"/>
<polygon fill="#63b8ff" stroke="#63b8ff" points="1304.58,-50.99 1294.74,-54.93 1304.89,-57.98 1304.58,-50.99"/>
</a>
</g>
</g>
<!-- Node16&#45;&gt;Node4 -->
<g id="edge19_Node000016_Node000004" class="edge">
<title>Node16&#45;&gt;Node4</title>
<g id="a_edge19_Node000016_Node000004"><a xlink:title=" ">
<path fill="none" stroke="#63b8ff" d="M662.29,-54.98C719.7,-44.31 816.77,-26.26 867.81,-16.76"/>
<polygon fill="#63b8ff" stroke="#63b8ff" points="868.49,-20.2 877.68,-14.93 867.21,-13.32 868.49,-20.2"/>
</a>
</g>
</g>
<!-- Node17 -->
<g id="Node000017" class="node">
<title>Node17</title>
<g id="a_Node000017"><a xlink:title=" ">
<polygon fill="#e0e0e0" stroke="#999999" points="638.5,-19 594.5,-19 594.5,0 638.5,0 638.5,-19"/>
<text text-anchor="middle" x="616.5" y="-7" font-family="FreeSans" font-size="10.00">string</text>
</a>
</g>
</g>
<!-- Node16&#45;&gt;Node17 -->
<g id="edge18_Node000016_Node000017" class="edge">
<title>Node16&#45;&gt;Node17</title>
<g id="a_edge18_Node000016_Node000017"><a xlink:title=" ">
<path fill="none" stroke="#63b8ff" d="M616.5,-54.75C616.5,-47.8 616.5,-37.85 616.5,-29.13"/>
<polygon fill="#63b8ff" stroke="#63b8ff" points="620,-29.09 616.5,-19.09 613,-29.09 620,-29.09"/>
</a>
</g>
</g>
<!-- Node23&#45;&gt;Node9 -->
<g id="edge27_Node000023_Node000009" class="edge">
<title>Node23&#45;&gt;Node9</title>
<g id="a_edge27_Node000023_Node000009"><a xlink:title=" ">
<path fill="none" stroke="#63b8ff" d="M814.5,-230.72C814.5,-208.12 814.5,-164.12 814.5,-139.09"/>
<polygon fill="#63b8ff" stroke="#63b8ff" points="818,-139.07 814.5,-129.07 811,-139.07 818,-139.07"/>
</a>
</g>
</g>
<!-- Node25&#45;&gt;Node3 -->
<g id="edge42_Node000025_Node000003" class="edge">
<title>Node25&#45;&gt;Node3</title>
<g id="a_edge42_Node000025_Node000003"><a xlink:title=" ">
<path fill="none" stroke="#63b8ff" d="M1321.72,-302.44C1371.06,-293.5 1449.03,-278.36 1515.5,-261 1518.34,-260.26 1521.26,-259.44 1524.19,-258.59"/>
<polygon fill="#63b8ff" stroke="#63b8ff" points="1525.49,-261.86 1534.04,-255.6 1523.45,-255.16 1525.49,-261.86"/>
</a>
</g>
</g>
<!-- Node25&#45;&gt;Node4 -->
<g id="edge46_Node000025_Node000004" class="edge">
<title>Node25&#45;&gt;Node4</title>
<g id="a_edge46_Node000025_Node000004"><a xlink:title=" ">
<path fill="none" stroke="#63b8ff" d="M1209.14,-302.43C1181.45,-295.57 1150.74,-283.22 1130.5,-261 1105.83,-233.9 1110.5,-217.65 1110.5,-181 1110.5,-181 1110.5,-181 1110.5,-118.5 1110.5,-40.48 994.12,-18.76 935.05,-12.76"/>
<polygon fill="#63b8ff" stroke="#63b8ff" points="935.35,-9.27 925.07,-11.84 934.71,-16.24 935.35,-9.27"/>
</a>
</g>
</g>
<!-- Node25&#45;&gt;Node9 -->
<g id="edge33_Node000025_Node000009" class="edge">
<title>Node25&#45;&gt;Node9</title>
<g id="a_edge33_Node000025_Node000009"><a xlink:title=" ">
<path fill="none" stroke="#63b8ff" d="M1208.83,-306.15C1172.28,-300.39 1127.61,-287.91 1096.5,-261 1061.14,-230.41 1090.24,-193.92 1053.5,-165 1027.58,-144.6 944.22,-132.52 883.22,-126.21"/>
<polygon fill="#63b8ff" stroke="#63b8ff" points="883.56,-122.72 873.26,-125.21 882.86,-129.69 883.56,-122.72"/>
</a>
</g>
</g>
<!-- Node25&#45;&gt;Node13 -->
<g id="edge43_Node000025_Node000013" class="edge">
<title>Node25&#45;&gt;Node13</title>
<g id="a_edge43_Node000025_Node000013"><a xlink:title=" ">
<path fill="none" stroke="#63b8ff" d="M1314.16,-302.46C1373.87,-290.02 1477.23,-267.67 1482.5,-261 1520.2,-213.27 1500.77,-177.4 1419.5,-110 1388.76,-84.5 1343.66,-73.61 1311.54,-68.96"/>
<polygon fill="#63b8ff" stroke="#63b8ff" points="1311.97,-65.48 1301.6,-67.66 1311.06,-72.42 1311.97,-65.48"/>
</a>
</g>
</g>
<!-- Node26 -->
<g id="Node000026" class="node">
<title>Node26</title>
<g id="a_Node000026"><a xlink:href="math_2external_2tiledarray_2fwd_8h.html" target="_top" xlink:title=" ">
<polygon fill="white" stroke="#666666" points="1044.5,-261 928.5,-261 928.5,-231 1044.5,-231 1044.5,-261"/>
<text text-anchor="start" x="936.5" y="-249" font-family="FreeSans" font-size="10.00">mpqc/math/external</text>
<text text-anchor="middle" x="986.5" y="-238" font-family="FreeSans" font-size="10.00">/tiledarray/fwd.h</text>
</a>
</g>
</g>
<!-- Node25&#45;&gt;Node26 -->
<g id="edge30_Node000025_Node000026" class="edge">
<title>Node25&#45;&gt;Node26</title>
<g id="a_edge30_Node000025_Node000026"><a xlink:title=" ">
<path fill="none" stroke="#63b8ff" d="M1234.23,-302.44C1188.35,-292.17 1110.64,-274.78 1054.47,-262.21"/>
<polygon fill="#63b8ff" stroke="#63b8ff" points="1055.12,-258.77 1044.6,-260 1053.59,-265.6 1055.12,-258.77"/>
</a>
</g>
</g>
<!-- Node28 -->
<g id="Node000028" class="node">
<title>Node28</title>
<g id="a_Node000028"><a xlink:href="formio_8h.html" target="_top" xlink:title=" ">
<polygon fill="white" stroke="#666666" points="1270,-255.5 1139,-255.5 1139,-236.5 1270,-236.5 1270,-255.5"/>
<text text-anchor="middle" x="1204.5" y="-243.5" font-family="FreeSans" font-size="10.00">mpqc/util/core/formio.h</text>
</a>
</g>
</g>
<!-- Node25&#45;&gt;Node28 -->
<g id="edge34_Node000025_Node000028" class="edge">
<title>Node25&#45;&gt;Node28</title>
<g id="a_edge34_Node000025_Node000028"><a xlink:title=" ">
<path fill="none" stroke="#63b8ff" d="M1263.33,-302.37C1252.64,-292.31 1234.76,-275.48 1221.51,-263.01"/>
<polygon fill="#63b8ff" stroke="#63b8ff" points="1223.64,-260.21 1213.96,-255.91 1218.85,-265.31 1223.64,-260.21"/>
</a>
</g>
</g>
<!-- Node33 -->
<g id="Node000033" class="node">
<title>Node33</title>
<g id="a_Node000033"><a xlink:title=" ">
<polygon fill="#e0e0e0" stroke="#999999" points="1337,-255.5 1288,-255.5 1288,-236.5 1337,-236.5 1337,-255.5"/>
<text text-anchor="middle" x="1312.5" y="-243.5" font-family="FreeSans" font-size="10.00">cstdlib</text>
</a>
</g>
</g>
<!-- Node25&#45;&gt;Node33 -->
<g id="edge41_Node000025_Node000033" class="edge">
<title>Node25&#45;&gt;Node33</title>
<g id="a_edge41_Node000025_Node000033"><a xlink:title=" ">
<path fill="none" stroke="#63b8ff" d="M1277.89,-302.37C1283.94,-292.69 1293.91,-276.74 1301.6,-264.44"/>
<polygon fill="#63b8ff" stroke="#63b8ff" points="1304.6,-266.24 1306.93,-255.91 1298.67,-262.53 1304.6,-266.24"/>
</a>
</g>
</g>
<!-- Node34 -->
<g id="Node000034" class="node">
<title>Node34</title>
<g id="a_Node000034"><a xlink:title=" ">
<polygon fill="#e0e0e0" stroke="#999999" points="1411.5,-255.5 1355.5,-255.5 1355.5,-236.5 1411.5,-236.5 1411.5,-255.5"/>
<text text-anchor="middle" x="1383.5" y="-243.5" font-family="FreeSans" font-size="10.00">optional</text>
</a>
</g>
</g>
<!-- Node25&#45;&gt;Node34 -->
<g id="edge44_Node000025_Node000034" class="edge">
<title>Node25&#45;&gt;Node34</title>
<g id="a_edge44_Node000025_Node000034"><a xlink:title=" ">
<path fill="none" stroke="#63b8ff" d="M1287.47,-302.37C1306.01,-291.68 1337.81,-273.35 1359.7,-260.72"/>
<polygon fill="#63b8ff" stroke="#63b8ff" points="1361.5,-263.73 1368.41,-255.7 1358,-257.66 1361.5,-263.73"/>
</a>
</g>
</g>
<!-- Node35 -->
<g id="Node000035" class="node">
<title>Node35</title>
<g id="a_Node000035"><a xlink:title=" ">
<polygon fill="#e0e0e0" stroke="#999999" points="1473,-255.5 1430,-255.5 1430,-236.5 1473,-236.5 1473,-255.5"/>
<text text-anchor="middle" x="1451.5" y="-243.5" font-family="FreeSans" font-size="10.00">stack</text>
</a>
</g>
</g>
<!-- Node25&#45;&gt;Node35 -->
<g id="edge45_Node000025_Node000035" class="edge">
<title>Node25&#45;&gt;Node35</title>
<g id="a_edge45_Node000025_Node000035"><a xlink:title=" ">
<path fill="none" stroke="#63b8ff" d="M1300.34,-302.5C1330.31,-293.13 1379.24,-277.24 1420.5,-261 1421.67,-260.54 1422.87,-260.05 1424.07,-259.56"/>
<polygon fill="#63b8ff" stroke="#63b8ff" points="1425.47,-262.77 1433.27,-255.59 1422.7,-256.34 1425.47,-262.77"/>
</a>
</g>
</g>
<!-- Node26&#45;&gt;Node9 -->
<g id="edge31_Node000026_Node000009" class="edge">
<title>Node26&#45;&gt;Node9</title>
<g id="a_edge31_Node000026_Node000009"><a xlink:title=" ">
<path fill="none" stroke="#63b8ff" d="M967.1,-230.96C934.34,-207.24 868.34,-159.47 834.91,-135.27"/>
<polygon fill="#63b8ff" stroke="#63b8ff" points="836.55,-132.14 826.39,-129.11 832.44,-137.81 836.55,-132.14"/>
</a>
</g>
</g>
<!-- Node27 -->
<g id="Node000027" class="node">
<title>Node27</title>
<g id="a_Node000027"><a xlink:title=" ">
<polygon fill="#e0e0e0" stroke="#999999" points="1044,-189.5 949,-189.5 949,-170.5 1044,-170.5 1044,-189.5"/>
<text text-anchor="middle" x="996.5" y="-177.5" font-family="FreeSans" font-size="10.00">tiledarray_fwd.h</text>
</a>
</g>
</g>
<!-- Node26&#45;&gt;Node27 -->
<g id="edge32_Node000026_Node000027" class="edge">
<title>Node26&#45;&gt;Node27</title>
<g id="a_edge32_Node000026_Node000027"><a xlink:title=" ">
<path fill="none" stroke="#63b8ff" d="M988.72,-230.8C990.14,-221.7 992,-209.79 993.55,-199.9"/>
<polygon fill="#63b8ff" stroke="#63b8ff" points="997.03,-200.26 995.12,-189.84 990.12,-199.18 997.03,-200.26"/>
</a>
</g>
</g>
<!-- Node28&#45;&gt;Node13 -->
<g id="edge37_Node000028_Node000013" class="edge">
<title>Node28&#45;&gt;Node13</title>
<g id="a_edge37_Node000028_Node000013"><a xlink:title=" ">
<path fill="none" stroke="#63b8ff" d="M1216.79,-236.19C1228.3,-227.22 1244.97,-212.2 1253.5,-195 1271.44,-158.83 1273.63,-110.47 1273.29,-84.28"/>
<polygon fill="#63b8ff" stroke="#63b8ff" points="1276.79,-84.12 1273.02,-74.22 1269.79,-84.31 1276.79,-84.12"/>
</a>
</g>
</g>
<!-- Node29 -->
<g id="Node000029" class="node">
<title>Node29</title>
<g id="a_Node000029"><a xlink:title=" ">
<polygon fill="#e0e0e0" stroke="#999999" points="1348.5,-189.5 1300.5,-189.5 1300.5,-170.5 1348.5,-170.5 1348.5,-189.5"/>
<text text-anchor="middle" x="1324.5" y="-177.5" font-family="FreeSans" font-size="10.00">iosfwd</text>
</a>
</g>
</g>
<!-- Node28&#45;&gt;Node29 -->
<g id="edge35_Node000028_Node000029" class="edge">
<title>Node28&#45;&gt;Node29</title>
<g id="a_edge35_Node000028_Node000029"><a xlink:title=" ">
<path fill="none" stroke="#63b8ff" d="M1220.68,-236.37C1240.81,-225.63 1275.41,-207.18 1299.09,-194.55"/>
<polygon fill="#63b8ff" stroke="#63b8ff" points="1301.01,-197.49 1308.19,-189.7 1297.72,-191.32 1301.01,-197.49"/>
</a>
</g>
</g>
<!-- Node30 -->
<g id="Node000030" class="node">
<title>Node30</title>
<g id="a_Node000030"><a xlink:title=" ">
<polygon fill="#e0e0e0" stroke="#999999" points="1404.5,-189.5 1366.5,-189.5 1366.5,-170.5 1404.5,-170.5 1404.5,-189.5"/>
<text text-anchor="middle" x="1385.5" y="-177.5" font-family="FreeSans" font-size="10.00">map</text>
</a>
</g>
</g>
<!-- Node28&#45;&gt;Node30 -->
<g id="edge36_Node000028_Node000030" class="edge">
<title>Node28&#45;&gt;Node30</title>
<g id="a_edge36_Node000028_Node000030"><a xlink:title=" ">
<path fill="none" stroke="#63b8ff" d="M1235.17,-236.43C1266.41,-227.37 1316.01,-212.04 1357.5,-195 1358.36,-194.65 1359.23,-194.28 1360.1,-193.9"/>
<polygon fill="#63b8ff" stroke="#63b8ff" points="1361.82,-196.96 1369.4,-189.56 1358.86,-190.62 1361.82,-196.96"/>
</a>
</g>
</g>
<!-- Node31 -->
<g id="Node000031" class="node">
<title>Node31</title>
<g id="a_Node000031"><a xlink:href="scope.html" target="_top" xlink:title=" ">
<polygon fill="white" stroke="#666666" points="1244.5,-195 1138.5,-195 1138.5,-165 1244.5,-165 1244.5,-195"/>
<text text-anchor="start" x="1146.5" y="-183" font-family="FreeSans" font-size="10.00">mpqc/util/external</text>
<text text-anchor="middle" x="1191.5" y="-172" font-family="FreeSans" font-size="10.00">/c++/scope</text>
</a>
</g>
</g>
<!-- Node28&#45;&gt;Node31 -->
<g id="edge38_Node000028_Node000031" class="edge">
<title>Node28&#45;&gt;Node31</title>
<g id="a_edge38_Node000028_Node000031"><a xlink:title=" ">
<path fill="none" stroke="#63b8ff" d="M1202.75,-236.37C1201.13,-228.4 1198.65,-216.2 1196.43,-205.27"/>
<polygon fill="#63b8ff" stroke="#63b8ff" points="1199.84,-204.46 1194.42,-195.36 1192.98,-205.86 1199.84,-204.46"/>
</a>
</g>
</g>
<!-- Node31&#45;&gt;Node9 -->
<g id="edge39_Node000031_Node000009" class="edge">
<title>Node31&#45;&gt;Node9</title>
<g id="a_edge39_Node000031_Node000009"><a xlink:title=" ">
<path fill="none" stroke="#63b8ff" d="M1138.28,-170.74C1070.24,-160.18 952.5,-141.91 879.3,-130.56"/>
<polygon fill="#63b8ff" stroke="#63b8ff" points="879.7,-127.08 869.28,-129 878.62,-133.99 879.7,-127.08"/>
</a>
</g>
</g>
<!-- Node31&#45;&gt;Node32 -->
<g id="edge40_Node000031_Node000032" class="edge">
<title>Node31&#45;&gt;Node32</title>
<g id="a_edge40_Node000031_Node000032"><a xlink:title=" ">
<path fill="none" stroke="#63b8ff" d="M1238.45,-164.99C1274.52,-154.22 1323.4,-139.63 1355.19,-130.14"/>
<polygon fill="#63b8ff" stroke="#63b8ff" points="1356.29,-133.47 1364.87,-127.25 1354.29,-126.76 1356.29,-133.47"/>
</a>
</g>
</g>
</g>
</svg>
