<?xml version="1.0" encoding="UTF-8" standalone="no"?>
<!DOCTYPE svg PUBLIC "-//W3C//DTD SVG 1.1//EN"
 "http://www.w3.org/Graphics/SVG/1.1/DTD/svg11.dtd">
<!-- Generated by graphviz version 2.43.0 (0)
 -->
<!-- Title: mpqc/math/tensor/cp/fwd.h Pages: 1 -->
<!--zoomable 566 -->

<svg id="main" version="1.1" xmlns="http://www.w3.org/2000/svg" xmlns:xlink="http://www.w3.org/1999/xlink" xml:space="preserve" onload="init(evt)">
<style type="text/css"><![CDATA[
.node, .edge {opacity: 0.7;}
.node.selected, .edge.selected {opacity: 1;}
.edge:hover path { stroke: red; }
.edge:hover polygon { stroke: red; fill: red; }
]]></style>

<defs>
  <circle id="rim" cx="0" cy="0" r="7"/>
  <circle id="rim2" cx="0" cy="0" r="3.5"/>
  <g id="zoomPlus">
    <use xlink:href="#rim" fill="#404040"><set attributeName="fill" to="#808080" begin="zoomplus.mouseover" end="zoomplus.mouseout"/></use>
    <path d="M-4,0h8M0,-4v8" fill="none" stroke="white" stroke-width="1.5" pointer-events="none"/>
  </g>
  <g id="zoomMin">
    <use xlink:href="#rim" fill="#404040"><set attributeName="fill" to="#808080" begin="zoomminus.mouseover" end="zoomminus.mouseout"/></use>
    <path d="M-4,0h8" fill="none" stroke="white" stroke-width="1.5" pointer-events="none"/>
  </g>
  <g id="arrowUp" transform="translate(30 24)">
    <use xlink:href="#rim"/>
    <path pointer-events="none" fill="none" stroke="white" stroke-width="1.5" d="M0,-3.0v7 M-2.5,-0.5L0,-3.0L2.5,-0.5"/>
  </g>
  <g id="arrowRight" transform="rotate(90) translate(36 -43)">
    <use xlink:href="#rim"/>
    <path pointer-events="none" fill="none" stroke="white" stroke-width="1.5" d="M0,-3.0v7 M-2.5,-0.5L0,-3.0L2.5,-0.5"/>
  </g>
  <g id="arrowDown" transform="rotate(180) translate(-30 -48)">
    <use xlink:href="#rim"/>
    <path pointer-events="none" fill="none" stroke="white" stroke-width="1.5" d="M0,-3.0v7 M-2.5,-0.5L0,-3.0L2.5,-0.5"/>
  </g>
  <g id="arrowLeft" transform="rotate(270) translate(-36 17)">
    <use xlink:href="#rim"/>
    <path pointer-events="none" fill="none" stroke="white" stroke-width="1.5" d="M0,-3.0v7 M-2.5,-0.5L0,-3.0L2.5,-0.5"/>
  </g>
  <g id="resetDef">
    <use xlink:href="#rim2" fill="#404040"><set attributeName="fill" to="#808080" begin="reset.mouseover" end="reset.mouseout"/></use>
  </g>
</defs>
<script type="application/ecmascript">
var viewWidth = 1692;
var viewHeight = 566;
var sectionId = 'dynsection-1';
</script>
<script type="application/ecmascript" xlink:href="svg.min.js"/>
<svg id="graph" class="graph">
<g id="viewport">
<title>mpqc/math/tensor/cp/fwd.h</title>
<!-- Node1 -->
<g id="Node000001" class="node">
<title>Node1</title>
<g id="a_Node000001"><a xlink:title=" ">
<polygon fill="#999999" stroke="#666666" points="240,-558 120,-558 120,-528 240,-528 240,-558"/>
<text text-anchor="start" x="128" y="-546" font-family="FreeSans" font-size="10.00">mpqc/math/tensor/cp</text>
<text text-anchor="middle" x="180" y="-535" font-family="FreeSans" font-size="10.00">/fwd.h</text>
</a>
</g>
</g>
<!-- Node2 -->
<g id="Node000002" class="node">
<title>Node2</title>
<g id="a_Node000002"><a xlink:href="cp3_8h.html" target="_top" xlink:title=" ">
<polygon fill="white" stroke="#666666" points="240,-492 120,-492 120,-462 240,-462 240,-492"/>
<text text-anchor="start" x="128" y="-480" font-family="FreeSans" font-size="10.00">mpqc/math/tensor/cp</text>
<text text-anchor="middle" x="180" y="-469" font-family="FreeSans" font-size="10.00">/cp3.h</text>
</a>
</g>
</g>
<!-- Node1&#45;&gt;Node2 -->
<g id="edge1_Node000001_Node000002" class="edge">
<title>Node1&#45;&gt;Node2</title>
<g id="a_edge1_Node000001_Node000002"><a xlink:title=" ">
<path fill="none" stroke="#63b8ff" d="M180,-517.54C180,-508.96 180,-499.61 180,-492.16"/>
<polygon fill="#63b8ff" stroke="#63b8ff" points="176.5,-517.8 180,-527.8 183.5,-517.8 176.5,-517.8"/>
</a>
</g>
</g>
<!-- Node3 -->
<g id="Node000003" class="node">
<title>Node3</title>
<g id="a_Node000003"><a xlink:href="cp3_8ipp.html" target="_top" xlink:title=" ">
<polygon fill="white" stroke="#666666" points="166,-426 46,-426 46,-396 166,-396 166,-426"/>
<text text-anchor="start" x="54" y="-414" font-family="FreeSans" font-size="10.00">mpqc/math/tensor/cp</text>
<text text-anchor="middle" x="106" y="-403" font-family="FreeSans" font-size="10.00">/cp3.ipp</text>
</a>
</g>
</g>
<!-- Node2&#45;&gt;Node3 -->
<g id="edge2_Node000002_Node000003" class="edge">
<title>Node2&#45;&gt;Node3</title>
<g id="a_edge2_Node000002_Node000003"><a xlink:title=" ">
<path fill="none" stroke="#63b8ff" d="M155.95,-455.2C144.97,-445.7 132.24,-434.69 122.38,-426.16"/>
<polygon fill="#63b8ff" stroke="#63b8ff" points="153.72,-457.9 163.58,-461.8 158.3,-452.61 153.72,-457.9"/>
</a>
</g>
</g>
<!-- Node5 -->
<g id="Node000005" class="node">
<title>Node5</title>
<g id="a_Node000005"><a xlink:href="df_8h.html" target="_top" xlink:title=" ">
<polygon fill="white" stroke="#666666" points="370.5,-420.5 229.5,-420.5 229.5,-401.5 370.5,-401.5 370.5,-420.5"/>
<text text-anchor="middle" x="300" y="-408.5" font-family="FreeSans" font-size="10.00">mpqc/math/tensor/cp/df.h</text>
</a>
</g>
</g>
<!-- Node2&#45;&gt;Node5 -->
<g id="edge4_Node000002_Node000005" class="edge">
<title>Node2&#45;&gt;Node5</title>
<g id="a_edge4_Node000002_Node000005"><a xlink:title=" ">
<path fill="none" stroke="#63b8ff" d="M215.37,-457.14C238.12,-445 266.59,-429.82 284.03,-420.52"/>
<polygon fill="#63b8ff" stroke="#63b8ff" points="213.51,-454.16 206.33,-461.95 216.81,-460.34 213.51,-454.16"/>
</a>
</g>
</g>
<!-- Node4 -->
<g id="Node000004" class="node">
<title>Node4</title>
<g id="a_Node000004"><a xlink:href="cp3_8cpp.html" target="_top" xlink:title=" ">
<polygon fill="white" stroke="#666666" points="120,-360 0,-360 0,-330 120,-330 120,-360"/>
<text text-anchor="start" x="8" y="-348" font-family="FreeSans" font-size="10.00">mpqc/math/tensor/cp</text>
<text text-anchor="middle" x="60" y="-337" font-family="FreeSans" font-size="10.00">/cp3.cpp</text>
</a>
</g>
</g>
<!-- Node3&#45;&gt;Node4 -->
<g id="edge3_Node000003_Node000004" class="edge">
<title>Node3&#45;&gt;Node4</title>
<g id="a_edge3_Node000003_Node000004"><a xlink:title=" ">
<path fill="none" stroke="#63b8ff" d="M89.85,-387.53C83.31,-378.43 75.95,-368.19 70.18,-360.16"/>
<polygon fill="#63b8ff" stroke="#63b8ff" points="87.11,-389.72 95.79,-395.8 92.8,-385.63 87.11,-389.72"/>
</a>
</g>
</g>
<!-- Node6 -->
<g id="Node000006" class="node">
<title>Node6</title>
<g id="a_Node000006"><a xlink:href="ccsd_8h.html" target="_top" xlink:title=" ">
<polygon fill="white" stroke="#666666" points="857.5,-360 724.5,-360 724.5,-330 857.5,-330 857.5,-360"/>
<text text-anchor="start" x="732.5" y="-348" font-family="FreeSans" font-size="10.00">mpqc/chemistry/qc/lcao</text>
<text text-anchor="middle" x="791" y="-337" font-family="FreeSans" font-size="10.00">/cc/ccsd.h</text>
</a>
</g>
</g>
<!-- Node5&#45;&gt;Node6 -->
<g id="edge5_Node000005_Node000006" class="edge">
<title>Node5&#45;&gt;Node6</title>
<g id="a_edge5_Node000005_Node000006"><a xlink:title=" ">
<path fill="none" stroke="#63b8ff" d="M375.61,-400.14C470.99,-387.71 633.52,-366.53 724.43,-354.68"/>
<polygon fill="#63b8ff" stroke="#63b8ff" points="374.92,-396.7 365.45,-401.47 375.82,-403.65 374.92,-396.7"/>
</a>
</g>
</g>
<!-- Node9 -->
<g id="Node000009" class="node">
<title>Node9</title>
<g id="a_Node000009"><a xlink:href="ccsd_8ipp.html" target="_top" xlink:title=" ">
<polygon fill="white" stroke="#666666" points="451.5,-228 318.5,-228 318.5,-198 451.5,-198 451.5,-228"/>
<text text-anchor="start" x="326.5" y="-216" font-family="FreeSans" font-size="10.00">mpqc/chemistry/qc/lcao</text>
<text text-anchor="middle" x="385" y="-205" font-family="FreeSans" font-size="10.00">/cc/ccsd.ipp</text>
</a>
</g>
</g>
<!-- Node5&#45;&gt;Node9 -->
<g id="edge38_Node000005_Node000009" class="edge">
<title>Node5&#45;&gt;Node9</title>
<g id="a_edge38_Node000005_Node000009"><a xlink:title=" ">
<path fill="none" stroke="#63b8ff" d="M307.88,-391.84C324.7,-353.05 363.82,-262.83 378.91,-228.04"/>
<polygon fill="#63b8ff" stroke="#63b8ff" points="304.53,-390.76 303.76,-401.33 310.95,-393.54 304.53,-390.76"/>
</a>
</g>
</g>
<!-- Node31 -->
<g id="Node000031" class="node">
<title>Node31</title>
<g id="a_Node000031"><a xlink:href="ccsdt_8h.html" target="_top" xlink:title=" ">
<polygon fill="white" stroke="#666666" points="271.5,-360 138.5,-360 138.5,-330 271.5,-330 271.5,-360"/>
<text text-anchor="start" x="146.5" y="-348" font-family="FreeSans" font-size="10.00">mpqc/chemistry/qc/lcao</text>
<text text-anchor="middle" x="205" y="-337" font-family="FreeSans" font-size="10.00">/cc/ccsdt.h</text>
</a>
</g>
</g>
<!-- Node5&#45;&gt;Node31 -->
<g id="edge39_Node000005_Node000031" class="edge">
<title>Node5&#45;&gt;Node31</title>
<g id="a_edge39_Node000005_Node000031"><a xlink:title=" ">
<path fill="none" stroke="#63b8ff" d="M278.65,-395.62C262.91,-385.01 241.6,-370.66 225.95,-360.12"/>
<polygon fill="#63b8ff" stroke="#63b8ff" points="276.94,-398.68 287.19,-401.37 280.85,-392.88 276.94,-398.68"/>
</a>
</g>
</g>
<!-- Node32 -->
<g id="Node000032" class="node">
<title>Node32</title>
<g id="a_Node000032"><a xlink:href="ccsdt_8ipp.html" target="_top" xlink:title=" ">
<polygon fill="white" stroke="#666666" points="271.5,-294 138.5,-294 138.5,-264 271.5,-264 271.5,-294"/>
<text text-anchor="start" x="146.5" y="-282" font-family="FreeSans" font-size="10.00">mpqc/chemistry/qc/lcao</text>
<text text-anchor="middle" x="205" y="-271" font-family="FreeSans" font-size="10.00">/cc/ccsdt.ipp</text>
</a>
</g>
</g>
<!-- Node5&#45;&gt;Node32 -->
<g id="edge43_Node000005_Node000032" class="edge">
<title>Node5&#45;&gt;Node32</title>
<g id="a_edge43_Node000005_Node000032"><a xlink:title=" ">
<path fill="none" stroke="#63b8ff" d="M299.09,-391C297.43,-373.7 292.8,-348.16 280,-330 269.09,-314.52 251.74,-302.51 236.47,-294.14"/>
<polygon fill="#63b8ff" stroke="#63b8ff" points="295.64,-391.74 299.83,-401.47 302.62,-391.25 295.64,-391.74"/>
</a>
</g>
</g>
<!-- Node7 -->
<g id="Node000007" class="node">
<title>Node7</title>
<g id="a_Node000007"><a xlink:href="cc_8h.html" target="_top" xlink:title=" ">
<polygon fill="white" stroke="#666666" points="1642.5,-294 1497.5,-294 1497.5,-264 1642.5,-264 1642.5,-294"/>
<text text-anchor="start" x="1505.5" y="-282" font-family="FreeSans" font-size="10.00">/home/runner/work/mpqc4</text>
<text text-anchor="middle" x="1570" y="-271" font-family="FreeSans" font-size="10.00">/mpqc4/python/src/cc.h</text>
</a>
</g>
</g>
<!-- Node6&#45;&gt;Node7 -->
<g id="edge6_Node000006_Node000007" class="edge">
<title>Node6&#45;&gt;Node7</title>
<g id="a_edge6_Node000006_Node000007"><a xlink:title=" ">
<path fill="none" stroke="#63b8ff" d="M867.95,-338C985.32,-328.81 1216.1,-310.57 1412,-294 1439.85,-291.64 1470.46,-288.96 1497.25,-286.57"/>
<polygon fill="#63b8ff" stroke="#63b8ff" points="867.34,-334.54 857.64,-338.81 867.88,-341.52 867.34,-334.54"/>
</a>
</g>
</g>
<!-- Node6&#45;&gt;Node9 -->
<g id="edge8_Node000006_Node000009" class="edge">
<title>Node6&#45;&gt;Node9</title>
<g id="a_edge8_Node000006_Node000009"><a xlink:title=" ">
<path fill="none" stroke="#63b8ff" d="M714.19,-343.26C614.96,-340.85 449.76,-331.21 404,-294 384.02,-277.75 378.27,-246.33 379.51,-228.08"/>
<polygon fill="#63b8ff" stroke="#63b8ff" points="714.39,-346.77 724.47,-343.49 714.55,-339.77 714.39,-346.77"/>
</a>
</g>
</g>
<!-- Node11 -->
<g id="Node000011" class="node">
<title>Node11</title>
<g id="a_Node000011"><a xlink:href="ccsd__response_8h.html" target="_top" xlink:title=" ">
<polygon fill="white" stroke="#666666" points="555.5,-294 422.5,-294 422.5,-264 555.5,-264 555.5,-294"/>
<text text-anchor="start" x="430.5" y="-282" font-family="FreeSans" font-size="10.00">mpqc/chemistry/qc/lcao</text>
<text text-anchor="middle" x="489" y="-271" font-family="FreeSans" font-size="10.00">/cc/ccsd_response.h</text>
</a>
</g>
</g>
<!-- Node6&#45;&gt;Node11 -->
<g id="edge11_Node000006_Node000011" class="edge">
<title>Node6&#45;&gt;Node11</title>
<g id="a_edge11_Node000006_Node000011"><a xlink:title=" ">
<path fill="none" stroke="#63b8ff" d="M714.77,-327.84C665.56,-317.42 602.19,-303.99 555.12,-294.01"/>
<polygon fill="#63b8ff" stroke="#63b8ff" points="714.22,-331.31 724.72,-329.95 715.67,-324.46 714.22,-331.31"/>
</a>
</g>
</g>
<!-- Node12 -->
<g id="Node000012" class="node">
<title>Node12</title>
<g id="a_Node000012"><a xlink:href="eom__ccsd_8h.html" target="_top" xlink:title=" ">
<polygon fill="white" stroke="#666666" points="706.5,-294 573.5,-294 573.5,-264 706.5,-264 706.5,-294"/>
<text text-anchor="start" x="581.5" y="-282" font-family="FreeSans" font-size="10.00">mpqc/chemistry/qc/lcao</text>
<text text-anchor="middle" x="640" y="-271" font-family="FreeSans" font-size="10.00">/cc/eom/eom_ccsd.h</text>
</a>
</g>
</g>
<!-- Node6&#45;&gt;Node12 -->
<g id="edge13_Node000006_Node000012" class="edge">
<title>Node6&#45;&gt;Node12</title>
<g id="a_edge13_Node000006_Node000012"><a xlink:title=" ">
<path fill="none" stroke="#63b8ff" d="M748.34,-325.92C724.47,-315.8 695.17,-303.38 673.06,-294.01"/>
<polygon fill="#63b8ff" stroke="#63b8ff" points="747.29,-329.28 757.86,-329.95 750.02,-322.83 747.29,-329.28"/>
</a>
</g>
</g>
<!-- Node15 -->
<g id="Node000015" class="node">
<title>Node15</title>
<g id="a_Node000015"><a xlink:href="eom__ea__ccsd_8h.html" target="_top" xlink:title=" ">
<polygon fill="white" stroke="#666666" points="857.5,-294 724.5,-294 724.5,-264 857.5,-264 857.5,-294"/>
<text text-anchor="start" x="732.5" y="-282" font-family="FreeSans" font-size="10.00">mpqc/chemistry/qc/lcao</text>
<text text-anchor="middle" x="791" y="-271" font-family="FreeSans" font-size="10.00">/cc/eom/eom_ea_ccsd.h</text>
</a>
</g>
</g>
<!-- Node6&#45;&gt;Node15 -->
<g id="edge17_Node000006_Node000015" class="edge">
<title>Node6&#45;&gt;Node15</title>
<g id="a_edge17_Node000006_Node000015"><a xlink:title=" ">
<path fill="none" stroke="#63b8ff" d="M791,-319.54C791,-310.96 791,-301.61 791,-294.16"/>
<polygon fill="#63b8ff" stroke="#63b8ff" points="787.5,-319.8 791,-329.8 794.5,-319.8 787.5,-319.8"/>
</a>
</g>
</g>
<!-- Node18 -->
<g id="Node000018" class="node">
<title>Node18</title>
<g id="a_Node000018"><a xlink:href="eom__ip__ccsd_8h.html" target="_top" xlink:title=" ">
<polygon fill="white" stroke="#666666" points="981.5,-162 848.5,-162 848.5,-132 981.5,-132 981.5,-162"/>
<text text-anchor="start" x="856.5" y="-150" font-family="FreeSans" font-size="10.00">mpqc/chemistry/qc/lcao</text>
<text text-anchor="middle" x="915" y="-139" font-family="FreeSans" font-size="10.00">/cc/eom/eom_ip_ccsd.h</text>
</a>
</g>
</g>
<!-- Node6&#45;&gt;Node18 -->
<g id="edge24_Node000006_Node000018" class="edge">
<title>Node6&#45;&gt;Node18</title>
<g id="a_edge24_Node000006_Node000018"><a xlink:title=" ">
<path fill="none" stroke="#63b8ff" d="M830.04,-324.76C842.98,-316.76 856.49,-306.42 866,-294 882.33,-272.66 903.22,-194.83 911.45,-162.37"/>
<polygon fill="#63b8ff" stroke="#63b8ff" points="828.09,-321.84 821.22,-329.91 831.62,-327.88 828.09,-321.84"/>
</a>
</g>
</g>
<!-- Node21 -->
<g id="Node000021" class="node">
<title>Node21</title>
<g id="a_Node000021"><a xlink:href="gamma__point__ccsd_8h.html" target="_top" xlink:title=" ">
<polygon fill="white" stroke="#666666" points="1054.5,-294 917.5,-294 917.5,-264 1054.5,-264 1054.5,-294"/>
<text text-anchor="start" x="925.5" y="-282" font-family="FreeSans" font-size="10.00">mpqc/chemistry/qc/lcao</text>
<text text-anchor="middle" x="986" y="-271" font-family="FreeSans" font-size="10.00">/cc/gamma_point_ccsd.h</text>
</a>
</g>
</g>
<!-- Node6&#45;&gt;Node21 -->
<g id="edge25_Node000006_Node000021" class="edge">
<title>Node6&#45;&gt;Node21</title>
<g id="a_edge25_Node000006_Node000021"><a xlink:title=" ">
<path fill="none" stroke="#63b8ff" d="M843.64,-326.72C874.89,-316.47 913.99,-303.63 943.31,-294.01"/>
<polygon fill="#63b8ff" stroke="#63b8ff" points="842.2,-323.51 833.79,-329.95 844.39,-330.16 842.2,-323.51"/>
</a>
</g>
</g>
<!-- Node23 -->
<g id="Node000023" class="node">
<title>Node23</title>
<g id="a_Node000023"><a xlink:href="ccsd__t_8h.html" target="_top" xlink:title=" ">
<polygon fill="white" stroke="#666666" points="1213.5,-294 1080.5,-294 1080.5,-264 1213.5,-264 1213.5,-294"/>
<text text-anchor="start" x="1088.5" y="-282" font-family="FreeSans" font-size="10.00">mpqc/chemistry/qc/lcao</text>
<text text-anchor="middle" x="1147" y="-271" font-family="FreeSans" font-size="10.00">/cc/pt/ccsd_t.h</text>
</a>
</g>
</g>
<!-- Node6&#45;&gt;Node23 -->
<g id="edge27_Node000006_Node000023" class="edge">
<title>Node6&#45;&gt;Node23</title>
<g id="a_edge27_Node000006_Node000023"><a xlink:title=" ">
<path fill="none" stroke="#63b8ff" d="M867.48,-330.25C930.86,-318.86 1020.03,-302.83 1080.48,-291.96"/>
<polygon fill="#63b8ff" stroke="#63b8ff" points="866.77,-326.82 857.54,-332.04 868,-333.71 866.77,-326.82"/>
</a>
</g>
</g>
<!-- Node28 -->
<g id="Node000028" class="node">
<title>Node28</title>
<g id="a_Node000028"><a xlink:href="ccsd__f12_8h.html" target="_top" xlink:title=" ">
<polygon fill="white" stroke="#666666" points="1402.5,-294 1269.5,-294 1269.5,-264 1402.5,-264 1402.5,-294"/>
<text text-anchor="start" x="1277.5" y="-282" font-family="FreeSans" font-size="10.00">mpqc/chemistry/qc/lcao</text>
<text text-anchor="middle" x="1336" y="-271" font-family="FreeSans" font-size="10.00">/f12/ccsd_f12.h</text>
</a>
</g>
</g>
<!-- Node6&#45;&gt;Node28 -->
<g id="edge33_Node000006_Node000028" class="edge">
<title>Node6&#45;&gt;Node28</title>
<g id="a_edge33_Node000006_Node000028"><a xlink:title=" ">
<path fill="none" stroke="#63b8ff" d="M867.8,-335.25C954.01,-325.39 1098.07,-308.8 1222,-294 1237.34,-292.17 1253.85,-290.16 1269.4,-288.26"/>
<polygon fill="#63b8ff" stroke="#63b8ff" points="867.37,-331.77 857.84,-336.39 868.17,-338.73 867.37,-331.77"/>
</a>
</g>
</g>
<!-- Node8 -->
<g id="Node000008" class="node">
<title>Node8</title>
<g id="a_Node000008"><a xlink:href="mpqc_8cc.html" target="_top" xlink:title=" ">
<polygon fill="white" stroke="#666666" points="1684,-228 1534,-228 1534,-198 1684,-198 1684,-228"/>
<text text-anchor="start" x="1542" y="-216" font-family="FreeSans" font-size="10.00">/home/runner/work/mpqc4</text>
<text text-anchor="middle" x="1609" y="-205" font-family="FreeSans" font-size="10.00">/mpqc4/python/src/mpqc.cc</text>
</a>
</g>
</g>
<!-- Node7&#45;&gt;Node8 -->
<g id="edge7_Node000007_Node000008" class="edge">
<title>Node7&#45;&gt;Node8</title>
<g id="a_edge7_Node000007_Node000008"><a xlink:title=" ">
<path fill="none" stroke="#63b8ff" d="M1583.87,-255.24C1589.37,-246.21 1595.53,-236.11 1600.37,-228.16"/>
<polygon fill="#63b8ff" stroke="#63b8ff" points="1580.87,-253.44 1578.66,-263.8 1586.85,-257.08 1580.87,-253.44"/>
</a>
</g>
</g>
<!-- Node9&#45;&gt;Node6 -->
<g id="edge10_Node000009_Node000006" class="edge">
<title>Node9&#45;&gt;Node6</title>
<g id="a_edge10_Node000009_Node000006"><a xlink:title=" ">
<path fill="none" stroke="#63b8ff" d="M394.14,-238C398.54,-256.23 405.3,-280.42 422,-294 467.45,-330.97 630.75,-340.72 724.24,-343.21"/>
<polygon fill="#63b8ff" stroke="#63b8ff" points="397.5,-236.99 391.76,-228.08 390.69,-238.62 397.5,-236.99"/>
</a>
</g>
</g>
<!-- Node10 -->
<g id="Node000010" class="node">
<title>Node10</title>
<g id="a_Node000010"><a xlink:href="ccsd_8cpp.html" target="_top" xlink:title=" ">
<polygon fill="white" stroke="#666666" points="451.5,-162 318.5,-162 318.5,-132 451.5,-132 451.5,-162"/>
<text text-anchor="start" x="326.5" y="-150" font-family="FreeSans" font-size="10.00">mpqc/chemistry/qc/lcao</text>
<text text-anchor="middle" x="385" y="-139" font-family="FreeSans" font-size="10.00">/cc/ccsd.cpp</text>
</a>
</g>
</g>
<!-- Node9&#45;&gt;Node10 -->
<g id="edge9_Node000009_Node000010" class="edge">
<title>Node9&#45;&gt;Node10</title>
<g id="a_edge9_Node000009_Node000010"><a xlink:title=" ">
<path fill="none" stroke="#63b8ff" d="M385,-187.54C385,-178.96 385,-169.61 385,-162.16"/>
<polygon fill="#63b8ff" stroke="#63b8ff" points="381.5,-187.8 385,-197.8 388.5,-187.8 381.5,-187.8"/>
</a>
</g>
</g>
<!-- Node11&#45;&gt;Node9 -->
<g id="edge12_Node000011_Node000009" class="edge">
<title>Node11&#45;&gt;Node9</title>
<g id="a_edge12_Node000011_Node000009"><a xlink:title=" ">
<path fill="none" stroke="#63b8ff" d="M457.63,-258.69C441.57,-248.82 422.39,-237.01 407.77,-228.01"/>
<polygon fill="#63b8ff" stroke="#63b8ff" points="455.83,-261.69 466.18,-263.95 459.49,-255.73 455.83,-261.69"/>
</a>
</g>
</g>
<!-- Node13 -->
<g id="Node000013" class="node">
<title>Node13</title>
<g id="a_Node000013"><a xlink:href="eom__ccsd_8ipp.html" target="_top" xlink:title=" ">
<polygon fill="white" stroke="#666666" points="697.5,-228 564.5,-228 564.5,-198 697.5,-198 697.5,-228"/>
<text text-anchor="start" x="572.5" y="-216" font-family="FreeSans" font-size="10.00">mpqc/chemistry/qc/lcao</text>
<text text-anchor="middle" x="631" y="-205" font-family="FreeSans" font-size="10.00">/cc/eom/eom_ccsd.ipp</text>
</a>
</g>
</g>
<!-- Node12&#45;&gt;Node13 -->
<g id="edge14_Node000012_Node000013" class="edge">
<title>Node12&#45;&gt;Node13</title>
<g id="a_edge14_Node000012_Node000013"><a xlink:title=" ">
<path fill="none" stroke="#63b8ff" d="M630.03,-253.83C628.4,-245.17 627.36,-235.7 627.28,-228.16"/>
<polygon fill="#63b8ff" stroke="#63b8ff" points="626.67,-254.81 632.28,-263.8 633.5,-253.27 626.67,-254.81"/>
</a>
</g>
</g>
<!-- Node13&#45;&gt;Node12 -->
<g id="edge16_Node000013_Node000012" class="edge">
<title>Node13&#45;&gt;Node12</title>
<g id="a_edge16_Node000013_Node000012"><a xlink:title=" ">
<path fill="none" stroke="#63b8ff" d="M640.96,-238.13C642.59,-246.78 643.64,-256.26 643.72,-263.8"/>
<polygon fill="#63b8ff" stroke="#63b8ff" points="644.32,-237.15 638.71,-228.16 637.5,-238.69 644.32,-237.15"/>
</a>
</g>
</g>
<!-- Node14 -->
<g id="Node000014" class="node">
<title>Node14</title>
<g id="a_Node000014"><a xlink:href="eom__ccsd_8cpp.html" target="_top" xlink:title=" ">
<polygon fill="white" stroke="#666666" points="667.5,-162 534.5,-162 534.5,-132 667.5,-132 667.5,-162"/>
<text text-anchor="start" x="542.5" y="-150" font-family="FreeSans" font-size="10.00">mpqc/chemistry/qc/lcao</text>
<text text-anchor="middle" x="601" y="-139" font-family="FreeSans" font-size="10.00">/cc/eom/eom_ccsd.cpp</text>
</a>
</g>
</g>
<!-- Node13&#45;&gt;Node14 -->
<g id="edge15_Node000013_Node000014" class="edge">
<title>Node13&#45;&gt;Node14</title>
<g id="a_edge15_Node000013_Node000014"><a xlink:title=" ">
<path fill="none" stroke="#63b8ff" d="M620.07,-188.68C615.9,-179.79 611.29,-169.95 607.64,-162.16"/>
<polygon fill="#63b8ff" stroke="#63b8ff" points="616.93,-190.23 624.34,-197.8 623.27,-187.26 616.93,-190.23"/>
</a>
</g>
</g>
<!-- Node16 -->
<g id="Node000016" class="node">
<title>Node16</title>
<g id="a_Node000016"><a xlink:href="eom__ea__ccsd_8ipp.html" target="_top" xlink:title=" ">
<polygon fill="white" stroke="#666666" points="858,-228 716,-228 716,-198 858,-198 858,-228"/>
<text text-anchor="start" x="724" y="-216" font-family="FreeSans" font-size="10.00">mpqc/chemistry/qc/lcao</text>
<text text-anchor="middle" x="787" y="-205" font-family="FreeSans" font-size="10.00">/cc/eom/eom_ea_ccsd.ipp</text>
</a>
</g>
</g>
<!-- Node15&#45;&gt;Node16 -->
<g id="edge18_Node000015_Node000016" class="edge">
<title>Node15&#45;&gt;Node16</title>
<g id="a_edge18_Node000015_Node000016"><a xlink:title=" ">
<path fill="none" stroke="#63b8ff" d="M782.92,-253.83C781.97,-245.17 781.66,-235.7 782.17,-228.16"/>
<polygon fill="#63b8ff" stroke="#63b8ff" points="779.47,-254.41 784.39,-263.8 786.4,-253.39 779.47,-254.41"/>
</a>
</g>
</g>
<!-- Node16&#45;&gt;Node15 -->
<g id="edge20_Node000016_Node000015" class="edge">
<title>Node16&#45;&gt;Node15</title>
<g id="a_edge20_Node000016_Node000015"><a xlink:title=" ">
<path fill="none" stroke="#63b8ff" d="M795.07,-238.13C796.03,-246.78 796.34,-256.26 795.83,-263.8"/>
<polygon fill="#63b8ff" stroke="#63b8ff" points="798.52,-237.54 793.6,-228.16 791.6,-238.57 798.52,-237.54"/>
</a>
</g>
</g>
<!-- Node17 -->
<g id="Node000017" class="node">
<title>Node17</title>
<g id="a_Node000017"><a xlink:href="eom__ea__ccsd_8cpp.html" target="_top" xlink:title=" ">
<polygon fill="white" stroke="#666666" points="830,-162 686,-162 686,-132 830,-132 830,-162"/>
<text text-anchor="start" x="694" y="-150" font-family="FreeSans" font-size="10.00">mpqc/chemistry/qc/lcao</text>
<text text-anchor="middle" x="758" y="-139" font-family="FreeSans" font-size="10.00">/cc/eom/eom_ea_ccsd.cpp</text>
</a>
</g>
</g>
<!-- Node16&#45;&gt;Node17 -->
<g id="edge19_Node000016_Node000017" class="edge">
<title>Node16&#45;&gt;Node17</title>
<g id="a_edge19_Node000016_Node000017"><a xlink:title=" ">
<path fill="none" stroke="#63b8ff" d="M776.43,-188.68C772.41,-179.79 767.94,-169.95 764.42,-162.16"/>
<polygon fill="#63b8ff" stroke="#63b8ff" points="773.25,-190.13 780.56,-197.8 779.62,-187.24 773.25,-190.13"/>
</a>
</g>
</g>
<!-- Node16&#45;&gt;Node18 -->
<g id="edge21_Node000016_Node000018" class="edge">
<title>Node16&#45;&gt;Node18</title>
<g id="a_edge21_Node000016_Node000018"><a xlink:title=" ">
<path fill="none" stroke="#63b8ff" d="M824.24,-193.38C844.27,-183.36 868.57,-171.22 886.98,-162.01"/>
<polygon fill="#63b8ff" stroke="#63b8ff" points="822.47,-190.35 815.09,-197.95 825.6,-196.61 822.47,-190.35"/>
</a>
</g>
</g>
<!-- Node19 -->
<g id="Node000019" class="node">
<title>Node19</title>
<g id="a_Node000019"><a xlink:href="eom__ip__ccsd_8ipp.html" target="_top" xlink:title=" ">
<polygon fill="white" stroke="#666666" points="984.5,-96 845.5,-96 845.5,-66 984.5,-66 984.5,-96"/>
<text text-anchor="start" x="853.5" y="-84" font-family="FreeSans" font-size="10.00">mpqc/chemistry/qc/lcao</text>
<text text-anchor="middle" x="915" y="-73" font-family="FreeSans" font-size="10.00">/cc/eom/eom_ip_ccsd.ipp</text>
</a>
</g>
</g>
<!-- Node18&#45;&gt;Node19 -->
<g id="edge22_Node000018_Node000019" class="edge">
<title>Node18&#45;&gt;Node19</title>
<g id="a_edge22_Node000018_Node000019"><a xlink:title=" ">
<path fill="none" stroke="#63b8ff" d="M915,-121.54C915,-112.96 915,-103.61 915,-96.16"/>
<polygon fill="#63b8ff" stroke="#63b8ff" points="911.5,-121.8 915,-131.8 918.5,-121.8 911.5,-121.8"/>
</a>
</g>
</g>
<!-- Node20 -->
<g id="Node000020" class="node">
<title>Node20</title>
<g id="a_Node000020"><a xlink:href="eom__ip__ccsd_8cpp.html" target="_top" xlink:title=" ">
<polygon fill="white" stroke="#666666" points="985.5,-30 844.5,-30 844.5,0 985.5,0 985.5,-30"/>
<text text-anchor="start" x="852.5" y="-18" font-family="FreeSans" font-size="10.00">mpqc/chemistry/qc/lcao</text>
<text text-anchor="middle" x="915" y="-7" font-family="FreeSans" font-size="10.00">/cc/eom/eom_ip_ccsd.cpp</text>
</a>
</g>
</g>
<!-- Node19&#45;&gt;Node20 -->
<g id="edge23_Node000019_Node000020" class="edge">
<title>Node19&#45;&gt;Node20</title>
<g id="a_edge23_Node000019_Node000020"><a xlink:title=" ">
<path fill="none" stroke="#63b8ff" d="M915,-55.54C915,-46.96 915,-37.61 915,-30.16"/>
<polygon fill="#63b8ff" stroke="#63b8ff" points="911.5,-55.8 915,-65.8 918.5,-55.8 911.5,-55.8"/>
</a>
</g>
</g>
<!-- Node22 -->
<g id="Node000022" class="node">
<title>Node22</title>
<g id="a_Node000022"><a xlink:href="gamma__point__ccsd_8cpp.html" target="_top" xlink:title=" ">
<polygon fill="white" stroke="#666666" points="1062,-228 914,-228 914,-198 1062,-198 1062,-228"/>
<text text-anchor="start" x="922" y="-216" font-family="FreeSans" font-size="10.00">mpqc/chemistry/qc/lcao</text>
<text text-anchor="middle" x="988" y="-205" font-family="FreeSans" font-size="10.00">/cc/gamma_point_ccsd.cpp</text>
</a>
</g>
</g>
<!-- Node21&#45;&gt;Node22 -->
<g id="edge26_Node000021_Node000022" class="edge">
<title>Node21&#45;&gt;Node22</title>
<g id="a_edge26_Node000021_Node000022"><a xlink:title=" ">
<path fill="none" stroke="#63b8ff" d="M986.76,-253.54C987.03,-244.96 987.32,-235.61 987.56,-228.16"/>
<polygon fill="#63b8ff" stroke="#63b8ff" points="983.26,-253.69 986.44,-263.8 990.25,-253.91 983.26,-253.69"/>
</a>
</g>
</g>
<!-- Node24 -->
<g id="Node000024" class="node">
<title>Node24</title>
<g id="a_Node000024"><a xlink:href="ccsd__t_8ipp.html" target="_top" xlink:title=" ">
<polygon fill="white" stroke="#666666" points="1213.5,-228 1080.5,-228 1080.5,-198 1213.5,-198 1213.5,-228"/>
<text text-anchor="start" x="1088.5" y="-216" font-family="FreeSans" font-size="10.00">mpqc/chemistry/qc/lcao</text>
<text text-anchor="middle" x="1147" y="-205" font-family="FreeSans" font-size="10.00">/cc/pt/ccsd_t.ipp</text>
</a>
</g>
</g>
<!-- Node23&#45;&gt;Node24 -->
<g id="edge28_Node000023_Node000024" class="edge">
<title>Node23&#45;&gt;Node24</title>
<g id="a_edge28_Node000023_Node000024"><a xlink:title=" ">
<path fill="none" stroke="#63b8ff" d="M1140.43,-253.83C1140.02,-245.17 1140.31,-235.7 1141.29,-228.16"/>
<polygon fill="#63b8ff" stroke="#63b8ff" points="1136.95,-254.13 1141.28,-263.8 1143.92,-253.54 1136.95,-254.13"/>
</a>
</g>
</g>
<!-- Node26 -->
<g id="Node000026" class="node">
<title>Node26</title>
<g id="a_Node000026"><a xlink:href="ccsd__t__f12_8h.html" target="_top" xlink:title=" ">
<polygon fill="white" stroke="#666666" points="1364.5,-228 1231.5,-228 1231.5,-198 1364.5,-198 1364.5,-228"/>
<text text-anchor="start" x="1239.5" y="-216" font-family="FreeSans" font-size="10.00">mpqc/chemistry/qc/lcao</text>
<text text-anchor="middle" x="1298" y="-205" font-family="FreeSans" font-size="10.00">/f12/ccsd_t_f12.h</text>
</a>
</g>
</g>
<!-- Node23&#45;&gt;Node26 -->
<g id="edge31_Node000023_Node000026" class="edge">
<title>Node23&#45;&gt;Node26</title>
<g id="a_edge31_Node000023_Node000026"><a xlink:title=" ">
<path fill="none" stroke="#63b8ff" d="M1189.66,-259.92C1213.53,-249.8 1242.83,-237.38 1264.94,-228.01"/>
<polygon fill="#63b8ff" stroke="#63b8ff" points="1187.98,-256.83 1180.14,-263.95 1190.71,-263.28 1187.98,-256.83"/>
</a>
</g>
</g>
<!-- Node24&#45;&gt;Node23 -->
<g id="edge30_Node000024_Node000023" class="edge">
<title>Node24&#45;&gt;Node23</title>
<g id="a_edge30_Node000024_Node000023"><a xlink:title=" ">
<path fill="none" stroke="#63b8ff" d="M1153.57,-238.13C1153.98,-246.78 1153.7,-256.26 1152.72,-263.8"/>
<polygon fill="#63b8ff" stroke="#63b8ff" points="1157.05,-237.83 1152.71,-228.16 1150.08,-238.43 1157.05,-237.83"/>
</a>
</g>
</g>
<!-- Node25 -->
<g id="Node000025" class="node">
<title>Node25</title>
<g id="a_Node000025"><a xlink:href="ccsd__t_8cpp.html" target="_top" xlink:title=" ">
<polygon fill="white" stroke="#666666" points="1213.5,-162 1080.5,-162 1080.5,-132 1213.5,-132 1213.5,-162"/>
<text text-anchor="start" x="1088.5" y="-150" font-family="FreeSans" font-size="10.00">mpqc/chemistry/qc/lcao</text>
<text text-anchor="middle" x="1147" y="-139" font-family="FreeSans" font-size="10.00">/cc/pt/ccsd_t.cpp</text>
</a>
</g>
</g>
<!-- Node24&#45;&gt;Node25 -->
<g id="edge29_Node000024_Node000025" class="edge">
<title>Node24&#45;&gt;Node25</title>
<g id="a_edge29_Node000024_Node000025"><a xlink:title=" ">
<path fill="none" stroke="#63b8ff" d="M1147,-187.54C1147,-178.96 1147,-169.61 1147,-162.16"/>
<polygon fill="#63b8ff" stroke="#63b8ff" points="1143.5,-187.8 1147,-197.8 1150.5,-187.8 1143.5,-187.8"/>
</a>
</g>
</g>
<!-- Node27 -->
<g id="Node000027" class="node">
<title>Node27</title>
<g id="a_Node000027"><a xlink:href="ccsd__t__f12_8cpp.html" target="_top" xlink:title=" ">
<polygon fill="white" stroke="#666666" points="1364.5,-162 1231.5,-162 1231.5,-132 1364.5,-132 1364.5,-162"/>
<text text-anchor="start" x="1239.5" y="-150" font-family="FreeSans" font-size="10.00">mpqc/chemistry/qc/lcao</text>
<text text-anchor="middle" x="1298" y="-139" font-family="FreeSans" font-size="10.00">/f12/ccsd_t_f12.cpp</text>
</a>
</g>
</g>
<!-- Node26&#45;&gt;Node27 -->
<g id="edge32_Node000026_Node000027" class="edge">
<title>Node26&#45;&gt;Node27</title>
<g id="a_edge32_Node000026_Node000027"><a xlink:title=" ">
<path fill="none" stroke="#63b8ff" d="M1298,-187.54C1298,-178.96 1298,-169.61 1298,-162.16"/>
<polygon fill="#63b8ff" stroke="#63b8ff" points="1294.5,-187.8 1298,-197.8 1301.5,-187.8 1294.5,-187.8"/>
</a>
</g>
</g>
<!-- Node28&#45;&gt;Node26 -->
<g id="edge37_Node000028_Node000026" class="edge">
<title>Node28&#45;&gt;Node26</title>
<g id="a_edge37_Node000028_Node000026"><a xlink:title=" ">
<path fill="none" stroke="#63b8ff" d="M1322.32,-254.96C1317,-246 1311.08,-236.03 1306.41,-228.16"/>
<polygon fill="#63b8ff" stroke="#63b8ff" points="1319.45,-256.98 1327.57,-263.8 1325.47,-253.41 1319.45,-256.98"/>
</a>
</g>
</g>
<!-- Node29 -->
<g id="Node000029" class="node">
<title>Node29</title>
<g id="a_Node000029"><a xlink:href="ccsd__f12_8ipp.html" target="_top" xlink:title=" ">
<polygon fill="white" stroke="#666666" points="1515.5,-228 1382.5,-228 1382.5,-198 1515.5,-198 1515.5,-228"/>
<text text-anchor="start" x="1390.5" y="-216" font-family="FreeSans" font-size="10.00">mpqc/chemistry/qc/lcao</text>
<text text-anchor="middle" x="1449" y="-205" font-family="FreeSans" font-size="10.00">/f12/ccsd_f12.ipp</text>
</a>
</g>
</g>
<!-- Node28&#45;&gt;Node29 -->
<g id="edge34_Node000028_Node000029" class="edge">
<title>Node28&#45;&gt;Node29</title>
<g id="a_edge34_Node000028_Node000029"><a xlink:title=" ">
<path fill="none" stroke="#63b8ff" d="M1363.83,-258.69C1380.46,-248.82 1401.49,-237.01 1418.56,-228.01"/>
<polygon fill="#63b8ff" stroke="#63b8ff" points="1361.86,-255.8 1355.1,-263.95 1365.47,-261.79 1361.86,-255.8"/>
</a>
</g>
</g>
<!-- Node29&#45;&gt;Node28 -->
<g id="edge36_Node000029_Node000028" class="edge">
<title>Node29&#45;&gt;Node28</title>
<g id="a_edge36_Node000029_Node000028"><a xlink:title=" ">
<path fill="none" stroke="#63b8ff" d="M1421.23,-233.27C1404.61,-243.14 1383.58,-254.95 1366.5,-263.95"/>
<polygon fill="#63b8ff" stroke="#63b8ff" points="1423.2,-236.17 1429.95,-228.01 1419.58,-230.17 1423.2,-236.17"/>
</a>
</g>
</g>
<!-- Node30 -->
<g id="Node000030" class="node">
<title>Node30</title>
<g id="a_Node000030"><a xlink:href="ccsd__f12_8cpp.html" target="_top" xlink:title=" ">
<polygon fill="white" stroke="#666666" points="1515.5,-162 1382.5,-162 1382.5,-132 1515.5,-132 1515.5,-162"/>
<text text-anchor="start" x="1390.5" y="-150" font-family="FreeSans" font-size="10.00">mpqc/chemistry/qc/lcao</text>
<text text-anchor="middle" x="1449" y="-139" font-family="FreeSans" font-size="10.00">/f12/ccsd_f12.cpp</text>
</a>
</g>
</g>
<!-- Node29&#45;&gt;Node30 -->
<g id="edge35_Node000029_Node000030" class="edge">
<title>Node29&#45;&gt;Node30</title>
<g id="a_edge35_Node000029_Node000030"><a xlink:title=" ">
<path fill="none" stroke="#63b8ff" d="M1449,-187.54C1449,-178.96 1449,-169.61 1449,-162.16"/>
<polygon fill="#63b8ff" stroke="#63b8ff" points="1445.5,-187.8 1449,-197.8 1452.5,-187.8 1445.5,-187.8"/>
</a>
</g>
</g>
<!-- Node31&#45;&gt;Node32 -->
<g id="edge40_Node000031_Node000032" class="edge">
<title>Node31&#45;&gt;Node32</title>
<g id="a_edge40_Node000031_Node000032"><a xlink:title=" ">
<path fill="none" stroke="#63b8ff" d="M198.43,-319.83C198.02,-311.17 198.31,-301.7 199.29,-294.16"/>
<polygon fill="#63b8ff" stroke="#63b8ff" points="194.95,-320.13 199.28,-329.8 201.92,-319.54 194.95,-320.13"/>
</a>
</g>
</g>
<!-- Node32&#45;&gt;Node31 -->
<g id="edge42_Node000032_Node000031" class="edge">
<title>Node32&#45;&gt;Node31</title>
<g id="a_edge42_Node000032_Node000031"><a xlink:title=" ">
<path fill="none" stroke="#63b8ff" d="M211.57,-304.13C211.98,-312.78 211.7,-322.26 210.72,-329.8"/>
<polygon fill="#63b8ff" stroke="#63b8ff" points="215.05,-303.83 210.71,-294.16 208.08,-304.43 215.05,-303.83"/>
</a>
</g>
</g>
<!-- Node33 -->
<g id="Node000033" class="node">
<title>Node33</title>
<g id="a_Node000033"><a xlink:href="ccsdt_8cpp.html" target="_top" xlink:title=" ">
<polygon fill="white" stroke="#666666" points="271.5,-228 138.5,-228 138.5,-198 271.5,-198 271.5,-228"/>
<text text-anchor="start" x="146.5" y="-216" font-family="FreeSans" font-size="10.00">mpqc/chemistry/qc/lcao</text>
<text text-anchor="middle" x="205" y="-205" font-family="FreeSans" font-size="10.00">/cc/ccsdt.cpp</text>
</a>
</g>
</g>
<!-- Node32&#45;&gt;Node33 -->
<g id="edge41_Node000032_Node000033" class="edge">
<title>Node32&#45;&gt;Node33</title>
<g id="a_edge41_Node000032_Node000033"><a xlink:title=" ">
<path fill="none" stroke="#63b8ff" d="M205,-253.54C205,-244.96 205,-235.61 205,-228.16"/>
<polygon fill="#63b8ff" stroke="#63b8ff" points="201.5,-253.8 205,-263.8 208.5,-253.8 201.5,-253.8"/>
</a>
</g>
</g>
</g>
</svg>

<g id="navigator" transform="translate(0 0)" fill="#404254">
  <rect fill="#f2f5e9" fill-opacity="0.5" stroke="#606060" stroke-width=".5" x="0" y="0" width="60" height="60"/>
  <use id="zoomplus" xlink:href="#zoomPlus" x="17" y="9" onmousedown="handleZoom(evt,'in')"/>
  <use id="zoomminus" xlink:href="#zoomMin" x="42" y="9" onmousedown="handleZoom(evt,'out')"/>
  <use id="reset" xlink:href="#resetDef" x="30" y="36" onmousedown="handleReset()"/>
   <use id="arrowup" xlink:href="#arrowUp" x="0" y="0" onmousedown="handlePan(0,-1)"/>
  <use id="arrowright" xlink:href="#arrowRight" x="0" y="0" onmousedown="handlePan(1,0)"/>
  <use id="arrowdown" xlink:href="#arrowDown" x="0" y="0" onmousedown="handlePan(0,1)"/>
  <use id="arrowleft" xlink:href="#arrowLeft" x="0" y="0" onmousedown="handlePan(-1,0)"/>
</g>
<svg viewBox="0 0 15 15" width="100%" height="30px" preserveAspectRatio="xMaxYMin meet">
 <g id="arrow_out" transform="scale(0.3 0.3)">
  <a xlink:href="math_2tensor_2cp_2fwd_8h__dep__incl_org.svg" target="_base">
   <rect id="button" ry="5" rx="5" y="6" x="6" height="38" width="38"
        fill="#f2f5e9" fill-opacity="0.5" stroke="#606060" stroke-width="1.0"/>
   <path id="arrow"
     d="M 11.500037,31.436501 C 11.940474,20.09759 22.043105,11.32322 32.158766,21.979434 L 37.068811,17.246167 C 37.068811,17.246167 37.088388,32 37.088388,32 L 22.160133,31.978069 C 22.160133,31.978069 26.997745,27.140456 26.997745,27.140456 C 18.528582,18.264221 13.291696,25.230495 11.500037,31.436501 z"
     style="fill:#404040;"/>
  </a>
 </g>
</svg>

<style type='text/css'>
<![CDATA[
[data-mouse-over-selected='false'] { opacity: 0.7; }
[data-mouse-over-selected='true']  { opacity: 1.0; }
]]>
</style>
<script type="application/ecmascript"><![CDATA[
document.addEventListener('DOMContentLoaded', (event) => {
  highlightEdges();
  highlightAdjacentNodes();
});
]]></script>
</svg>
