<?xml version="1.0" encoding="UTF-8" standalone="no"?>
<!DOCTYPE svg PUBLIC "-//W3C//DTD SVG 1.1//EN"
 "http://www.w3.org/Graphics/SVG/1.1/DTD/svg11.dtd">
<!-- Generated by graphviz version 2.43.0 (0)
 -->
<!-- Title: mpqc/math/external/tiledarray/util.h Pages: 1 -->
<svg width="758pt" height="291pt"
 viewBox="0.00 0.00 758.00 291.00" xmlns="http://www.w3.org/2000/svg" xmlns:xlink="http://www.w3.org/1999/xlink">
<g id="graph0" class="graph" transform="scale(1 1) rotate(0) translate(4 287)">
<title>mpqc/math/external/tiledarray/util.h</title>
<!-- Node1 -->
<g id="Node000001" class="node">
<title>Node1</title>
<g id="a_Node000001"><a xlink:title=" ">
<polygon fill="#999999" stroke="#666666" points="283.5,-283 167.5,-283 167.5,-253 283.5,-253 283.5,-283"/>
<text text-anchor="start" x="175.5" y="-271" font-family="FreeSans" font-size="10.00">mpqc/math/external</text>
<text text-anchor="middle" x="225.5" y="-260" font-family="FreeSans" font-size="10.00">/tiledarray/util.h</text>
</a>
</g>
</g>
<!-- Node2 -->
<g id="Node000002" class="node">
<title>Node2</title>
<g id="a_Node000002"><a xlink:href="tiledarray_8h.html" target="_top" xlink:title=" ">
<polygon fill="white" stroke="#666666" points="207,-217 82,-217 82,-187 207,-187 207,-217"/>
<text text-anchor="start" x="90" y="-205" font-family="FreeSans" font-size="10.00">mpqc/math/external</text>
<text text-anchor="middle" x="144.5" y="-194" font-family="FreeSans" font-size="10.00">/tiledarray/tiledarray.h</text>
</a>
</g>
</g>
<!-- Node1&#45;&gt;Node2 -->
<g id="edge1_Node000001_Node000002" class="edge">
<title>Node1&#45;&gt;Node2</title>
<g id="a_edge1_Node000001_Node000002"><a xlink:title=" ">
<path fill="none" stroke="#63b8ff" d="M207.52,-252.8C196.62,-244.18 182.52,-233.04 170.42,-223.48"/>
<polygon fill="#63b8ff" stroke="#63b8ff" points="172.44,-220.62 162.43,-217.16 168.1,-226.11 172.44,-220.62"/>
</a>
</g>
</g>
<!-- Node4 -->
<g id="Node000004" class="node">
<title>Node4</title>
<g id="a_Node000004"><a xlink:href="exenv_8h.html" target="_top" xlink:title=" ">
<polygon fill="white" stroke="#666666" points="483,-211.5 356,-211.5 356,-192.5 483,-192.5 483,-211.5"/>
<text text-anchor="middle" x="419.5" y="-199.5" font-family="FreeSans" font-size="10.00">mpqc/util/core/exenv.h</text>
</a>
</g>
</g>
<!-- Node1&#45;&gt;Node4 -->
<g id="edge4_Node000001_Node000004" class="edge">
<title>Node1&#45;&gt;Node4</title>
<g id="a_edge4_Node000001_Node000004"><a xlink:title=" ">
<path fill="none" stroke="#63b8ff" d="M268.07,-252.95C302.85,-241.48 351.41,-225.46 384.09,-214.68"/>
<polygon fill="#63b8ff" stroke="#63b8ff" points="385.28,-217.97 393.68,-211.52 383.09,-211.33 385.28,-217.97"/>
</a>
</g>
</g>
<!-- Node2&#45;&gt;Node2 -->
<g id="edge2_Node000002_Node000002" class="edge">
<title>Node2&#45;&gt;Node2</title>
<g id="a_edge2_Node000002_Node000002"><a xlink:title=" ">
<path fill="none" stroke="#63b8ff" d="M207.28,-213.5C217.76,-211.89 225,-208.06 225,-202 225,-198.12 222.03,-195.15 217.14,-193.1"/>
<polygon fill="#63b8ff" stroke="#63b8ff" points="217.84,-189.66 207.28,-190.5 216.06,-196.43 217.84,-189.66"/>
</a>
</g>
</g>
<!-- Node3 -->
<g id="Node000003" class="node">
<title>Node3</title>
<g id="a_Node000003"><a xlink:title=" ">
<polygon fill="#e0e0e0" stroke="#999999" points="117,-19 0,-19 0,0 117,0 117,-19"/>
<text text-anchor="middle" x="58.5" y="-7" font-family="FreeSans" font-size="10.00">mpqc/mpqc_config.h</text>
</a>
</g>
</g>
<!-- Node2&#45;&gt;Node3 -->
<g id="edge3_Node000002_Node000003" class="edge">
<title>Node2&#45;&gt;Node3</title>
<g id="a_edge3_Node000002_Node000003"><a xlink:title=" ">
<path fill="none" stroke="#63b8ff" d="M81.79,-189.47C60.25,-182.19 38.34,-170.32 25.5,-151 1.89,-115.46 12.12,-95.51 25.5,-55 28.96,-44.54 35.93,-34.53 42.58,-26.66"/>
<polygon fill="#63b8ff" stroke="#63b8ff" points="45.36,-28.8 49.48,-19.04 40.17,-24.1 45.36,-28.8"/>
</a>
</g>
</g>
<!-- Node4&#45;&gt;Node3 -->
<g id="edge8_Node000004_Node000003" class="edge">
<title>Node4&#45;&gt;Node3</title>
<g id="a_edge8_Node000004_Node000003"><a xlink:title=" ">
<path fill="none" stroke="#63b8ff" d="M355.81,-195.38C264.62,-186.74 105.67,-169.28 86.5,-151 53.14,-119.19 53.41,-59.81 56.1,-29.44"/>
<polygon fill="#63b8ff" stroke="#63b8ff" points="59.59,-29.66 57.18,-19.34 52.63,-28.91 59.59,-29.66"/>
</a>
</g>
</g>
<!-- Node5 -->
<g id="Node000005" class="node">
<title>Node5</title>
<g id="a_Node000005"><a xlink:href="math_2external_2tiledarray_2fwd_8h.html" target="_top" xlink:title=" ">
<polygon fill="white" stroke="#666666" points="211.5,-151 95.5,-151 95.5,-121 211.5,-121 211.5,-151"/>
<text text-anchor="start" x="103.5" y="-139" font-family="FreeSans" font-size="10.00">mpqc/math/external</text>
<text text-anchor="middle" x="153.5" y="-128" font-family="FreeSans" font-size="10.00">/tiledarray/fwd.h</text>
</a>
</g>
</g>
<!-- Node4&#45;&gt;Node5 -->
<g id="edge5_Node000004_Node000005" class="edge">
<title>Node4&#45;&gt;Node5</title>
<g id="a_edge5_Node000004_Node000005"><a xlink:title=" ">
<path fill="none" stroke="#63b8ff" d="M383.9,-192.44C342.47,-182.47 273.13,-165.78 221.32,-153.32"/>
<polygon fill="#63b8ff" stroke="#63b8ff" points="222.08,-149.9 211.54,-150.96 220.44,-156.71 222.08,-149.9"/>
</a>
</g>
</g>
<!-- Node7 -->
<g id="Node000007" class="node">
<title>Node7</title>
<g id="a_Node000007"><a xlink:href="formio_8h.html" target="_top" xlink:title=" ">
<polygon fill="white" stroke="#666666" points="365,-145.5 234,-145.5 234,-126.5 365,-126.5 365,-145.5"/>
<text text-anchor="middle" x="299.5" y="-133.5" font-family="FreeSans" font-size="10.00">mpqc/util/core/formio.h</text>
</a>
</g>
</g>
<!-- Node4&#45;&gt;Node7 -->
<g id="edge9_Node000004_Node000007" class="edge">
<title>Node4&#45;&gt;Node7</title>
<g id="a_edge9_Node000004_Node000007"><a xlink:title=" ">
<path fill="none" stroke="#63b8ff" d="M403.32,-192.37C383.19,-181.63 348.59,-163.18 324.91,-150.55"/>
<polygon fill="#63b8ff" stroke="#63b8ff" points="326.28,-147.32 315.81,-145.7 322.99,-153.49 326.28,-147.32"/>
</a>
</g>
</g>
<!-- Node10 -->
<g id="Node000010" class="node">
<title>Node10</title>
<g id="a_Node000010"><a xlink:href="memory.html" target="_top" xlink:title=" ">
<polygon fill="white" stroke="#666666" points="523.5,-79.5 465.5,-79.5 465.5,-60.5 523.5,-60.5 523.5,-79.5"/>
<text text-anchor="middle" x="494.5" y="-67.5" font-family="FreeSans" font-size="10.00">memory</text>
</a>
</g>
</g>
<!-- Node4&#45;&gt;Node10 -->
<g id="edge19_Node000004_Node000010" class="edge">
<title>Node4&#45;&gt;Node10</title>
<g id="a_edge19_Node000004_Node000010"><a xlink:title=" ">
<path fill="none" stroke="#63b8ff" d="M415.94,-192.4C410.16,-176.98 400.61,-144.11 413.5,-121 419.5,-110.24 446.01,-95.04 467.09,-84.23"/>
<polygon fill="#63b8ff" stroke="#63b8ff" points="468.93,-87.22 476.3,-79.61 465.79,-80.97 468.93,-87.22"/>
</a>
</g>
</g>
<!-- Node13 -->
<g id="Node000013" class="node">
<title>Node13</title>
<g id="a_Node000013"><a xlink:title=" ">
<polygon fill="#e0e0e0" stroke="#999999" points="471,-145.5 422,-145.5 422,-126.5 471,-126.5 471,-145.5"/>
<text text-anchor="middle" x="446.5" y="-133.5" font-family="FreeSans" font-size="10.00">cstdlib</text>
</a>
</g>
</g>
<!-- Node4&#45;&gt;Node13 -->
<g id="edge17_Node000004_Node000013" class="edge">
<title>Node4&#45;&gt;Node13</title>
<g id="a_edge17_Node000004_Node000013"><a xlink:title=" ">
<path fill="none" stroke="#63b8ff" d="M423.14,-192.37C427.14,-182.88 433.69,-167.36 438.84,-155.16"/>
<polygon fill="#63b8ff" stroke="#63b8ff" points="442.08,-156.48 442.74,-145.91 435.63,-153.76 442.08,-156.48"/>
</a>
</g>
</g>
<!-- Node14 -->
<g id="Node000014" class="node">
<title>Node14</title>
<g id="a_Node000014"><a xlink:title=" ">
<polygon fill="#e0e0e0" stroke="#999999" points="549.5,-145.5 489.5,-145.5 489.5,-126.5 549.5,-126.5 549.5,-145.5"/>
<text text-anchor="middle" x="519.5" y="-133.5" font-family="FreeSans" font-size="10.00">iostream</text>
</a>
</g>
</g>
<!-- Node4&#45;&gt;Node14 -->
<g id="edge18_Node000004_Node000014" class="edge">
<title>Node4&#45;&gt;Node14</title>
<g id="a_edge18_Node000004_Node000014"><a xlink:title=" ">
<path fill="none" stroke="#63b8ff" d="M432.99,-192.37C449.46,-181.82 477.57,-163.84 497.26,-151.23"/>
<polygon fill="#63b8ff" stroke="#63b8ff" points="499.37,-154.04 505.91,-145.7 495.6,-148.14 499.37,-154.04"/>
</a>
</g>
</g>
<!-- Node15 -->
<g id="Node000015" class="node">
<title>Node15</title>
<g id="a_Node000015"><a xlink:title=" ">
<polygon fill="#e0e0e0" stroke="#999999" points="623.5,-145.5 567.5,-145.5 567.5,-126.5 623.5,-126.5 623.5,-145.5"/>
<text text-anchor="middle" x="595.5" y="-133.5" font-family="FreeSans" font-size="10.00">optional</text>
</a>
</g>
</g>
<!-- Node4&#45;&gt;Node15 -->
<g id="edge20_Node000004_Node000015" class="edge">
<title>Node4&#45;&gt;Node15</title>
<g id="a_edge20_Node000004_Node000015"><a xlink:title=" ">
<path fill="none" stroke="#63b8ff" d="M443.65,-192.45C471.41,-182.59 518.32,-165.83 558.5,-151 560.09,-150.41 561.73,-149.81 563.37,-149.19"/>
<polygon fill="#63b8ff" stroke="#63b8ff" points="564.69,-152.44 572.82,-145.65 562.23,-145.88 564.69,-152.44"/>
</a>
</g>
</g>
<!-- Node16 -->
<g id="Node000016" class="node">
<title>Node16</title>
<g id="a_Node000016"><a xlink:title=" ">
<polygon fill="#e0e0e0" stroke="#999999" points="685,-145.5 642,-145.5 642,-126.5 685,-126.5 685,-145.5"/>
<text text-anchor="middle" x="663.5" y="-133.5" font-family="FreeSans" font-size="10.00">stack</text>
</a>
</g>
</g>
<!-- Node4&#45;&gt;Node16 -->
<g id="edge21_Node000004_Node000016" class="edge">
<title>Node4&#45;&gt;Node16</title>
<g id="a_edge21_Node000004_Node000016"><a xlink:title=" ">
<path fill="none" stroke="#63b8ff" d="M467.62,-192.47C511.28,-184.08 577.11,-169.81 632.5,-151 633.9,-150.53 635.32,-150.01 636.74,-149.47"/>
<polygon fill="#63b8ff" stroke="#63b8ff" points="638.15,-152.67 646.03,-145.6 635.46,-146.21 638.15,-152.67"/>
</a>
</g>
</g>
<!-- Node17 -->
<g id="Node000017" class="node">
<title>Node17</title>
<g id="a_Node000017"><a xlink:title=" ">
<polygon fill="#e0e0e0" stroke="#999999" points="750,-145.5 703,-145.5 703,-126.5 750,-126.5 750,-145.5"/>
<text text-anchor="middle" x="726.5" y="-133.5" font-family="FreeSans" font-size="10.00">vector</text>
</a>
</g>
</g>
<!-- Node4&#45;&gt;Node17 -->
<g id="edge22_Node000004_Node000017" class="edge">
<title>Node4&#45;&gt;Node17</title>
<g id="a_edge22_Node000004_Node000017"><a xlink:title=" ">
<path fill="none" stroke="#63b8ff" d="M483.02,-193.72C539.4,-186.25 623.6,-172.63 694.5,-151 696.13,-150.5 697.8,-149.94 699.46,-149.34"/>
<polygon fill="#63b8ff" stroke="#63b8ff" points="700.85,-152.56 708.84,-145.6 698.25,-146.06 700.85,-152.56"/>
</a>
</g>
</g>
<!-- Node5&#45;&gt;Node3 -->
<g id="edge6_Node000005_Node000003" class="edge">
<title>Node5&#45;&gt;Node3</title>
<g id="a_edge6_Node000005_Node000003"><a xlink:title=" ">
<path fill="none" stroke="#63b8ff" d="M133.85,-120.82C121.99,-111.58 107.17,-98.71 96.5,-85 83.03,-67.68 72.22,-44.85 65.62,-29.05"/>
<polygon fill="#63b8ff" stroke="#63b8ff" points="68.72,-27.36 61.75,-19.38 62.22,-29.97 68.72,-27.36"/>
</a>
</g>
</g>
<!-- Node6 -->
<g id="Node000006" class="node">
<title>Node6</title>
<g id="a_Node000006"><a xlink:title=" ">
<polygon fill="#e0e0e0" stroke="#999999" points="201,-79.5 106,-79.5 106,-60.5 201,-60.5 201,-79.5"/>
<text text-anchor="middle" x="153.5" y="-67.5" font-family="FreeSans" font-size="10.00">tiledarray_fwd.h</text>
</a>
</g>
</g>
<!-- Node5&#45;&gt;Node6 -->
<g id="edge7_Node000005_Node000006" class="edge">
<title>Node5&#45;&gt;Node6</title>
<g id="a_edge7_Node000005_Node000006"><a xlink:title=" ">
<path fill="none" stroke="#63b8ff" d="M153.5,-120.8C153.5,-111.7 153.5,-99.79 153.5,-89.9"/>
<polygon fill="#63b8ff" stroke="#63b8ff" points="157,-89.84 153.5,-79.84 150,-89.84 157,-89.84"/>
</a>
</g>
</g>
<!-- Node8 -->
<g id="Node000008" class="node">
<title>Node8</title>
<g id="a_Node000008"><a xlink:title=" ">
<polygon fill="#e0e0e0" stroke="#999999" points="267.5,-79.5 219.5,-79.5 219.5,-60.5 267.5,-60.5 267.5,-79.5"/>
<text text-anchor="middle" x="243.5" y="-67.5" font-family="FreeSans" font-size="10.00">iosfwd</text>
</a>
</g>
</g>
<!-- Node7&#45;&gt;Node8 -->
<g id="edge10_Node000007_Node000008" class="edge">
<title>Node7&#45;&gt;Node8</title>
<g id="a_edge10_Node000007_Node000008"><a xlink:title=" ">
<path fill="none" stroke="#63b8ff" d="M291.95,-126.37C283.31,-116.5 268.97,-100.11 258.13,-87.72"/>
<polygon fill="#63b8ff" stroke="#63b8ff" points="260.51,-85.13 251.29,-79.91 255.24,-89.74 260.51,-85.13"/>
</a>
</g>
</g>
<!-- Node9 -->
<g id="Node000009" class="node">
<title>Node9</title>
<g id="a_Node000009"><a xlink:title=" ">
<polygon fill="#e0e0e0" stroke="#999999" points="323.5,-79.5 285.5,-79.5 285.5,-60.5 323.5,-60.5 323.5,-79.5"/>
<text text-anchor="middle" x="304.5" y="-67.5" font-family="FreeSans" font-size="10.00">map</text>
</a>
</g>
</g>
<!-- Node7&#45;&gt;Node9 -->
<g id="edge11_Node000007_Node000009" class="edge">
<title>Node7&#45;&gt;Node9</title>
<g id="a_edge11_Node000007_Node000009"><a xlink:title=" ">
<path fill="none" stroke="#63b8ff" d="M300.17,-126.37C300.9,-117.07 302.08,-101.98 303.02,-89.9"/>
<polygon fill="#63b8ff" stroke="#63b8ff" points="306.51,-90.15 303.8,-79.91 299.54,-89.6 306.51,-90.15"/>
</a>
</g>
</g>
<!-- Node7&#45;&gt;Node10 -->
<g id="edge12_Node000007_Node000010" class="edge">
<title>Node7&#45;&gt;Node10</title>
<g id="a_edge12_Node000007_Node000010"><a xlink:title=" ">
<path fill="none" stroke="#63b8ff" d="M327.7,-126.43C359.22,-116.76 411.72,-100.37 456.5,-85 458.35,-84.37 460.24,-83.71 462.14,-83.03"/>
<polygon fill="#63b8ff" stroke="#63b8ff" points="463.43,-86.29 471.65,-79.61 461.06,-79.7 463.43,-86.29"/>
</a>
</g>
</g>
<!-- Node11 -->
<g id="Node000011" class="node">
<title>Node11</title>
<g id="a_Node000011"><a xlink:href="scope.html" target="_top" xlink:title=" ">
<polygon fill="white" stroke="#666666" points="447.5,-85 341.5,-85 341.5,-55 447.5,-55 447.5,-85"/>
<text text-anchor="start" x="349.5" y="-73" font-family="FreeSans" font-size="10.00">mpqc/util/external</text>
<text text-anchor="middle" x="394.5" y="-62" font-family="FreeSans" font-size="10.00">/c++/scope</text>
</a>
</g>
</g>
<!-- Node7&#45;&gt;Node11 -->
<g id="edge14_Node000007_Node000011" class="edge">
<title>Node7&#45;&gt;Node11</title>
<g id="a_edge14_Node000007_Node000011"><a xlink:title=" ">
<path fill="none" stroke="#63b8ff" d="M312.31,-126.37C325.8,-117.28 347.51,-102.66 365.22,-90.72"/>
<polygon fill="#63b8ff" stroke="#63b8ff" points="367.21,-93.61 373.55,-85.12 363.3,-87.8 367.21,-93.61"/>
</a>
</g>
</g>
<!-- Node10&#45;&gt;Node10 -->
<g id="edge13_Node000010_Node000010" class="edge">
<title>Node10&#45;&gt;Node10</title>
<g id="a_edge13_Node000010_Node000010"><a xlink:title=" ">
<path fill="none" stroke="#63b8ff" d="M511.85,-79.53C526.35,-83.61 541.5,-80.43 541.5,-70 541.5,-62.01 532.62,-58.28 521.95,-58.8"/>
<polygon fill="#63b8ff" stroke="#63b8ff" points="521.15,-55.38 511.85,-60.47 522.29,-62.29 521.15,-55.38"/>
</a>
</g>
</g>
<!-- Node11&#45;&gt;Node3 -->
<g id="edge15_Node000011_Node000003" class="edge">
<title>Node11&#45;&gt;Node3</title>
<g id="a_edge15_Node000011_Node000003"><a xlink:title=" ">
<path fill="none" stroke="#63b8ff" d="M341.44,-56.8C338.42,-56.17 335.42,-55.57 332.5,-55 262.91,-41.5 182.83,-28.83 127.29,-20.48"/>
<polygon fill="#63b8ff" stroke="#63b8ff" points="127.62,-16.99 117.21,-18.97 126.58,-23.91 127.62,-16.99"/>
</a>
</g>
</g>
<!-- Node12 -->
<g id="Node000012" class="node">
<title>Node12</title>
<g id="a_Node000012"><a xlink:title=" ">
<polygon fill="#e0e0e0" stroke="#999999" points="417,-19 372,-19 372,0 417,0 417,-19"/>
<text text-anchor="middle" x="394.5" y="-7" font-family="FreeSans" font-size="10.00">utility</text>
</a>
</g>
</g>
<!-- Node11&#45;&gt;Node12 -->
<g id="edge16_Node000011_Node000012" class="edge">
<title>Node11&#45;&gt;Node12</title>
<g id="a_edge16_Node000011_Node000012"><a xlink:title=" ">
<path fill="none" stroke="#63b8ff" d="M394.5,-54.84C394.5,-47.21 394.5,-37.7 394.5,-29.45"/>
<polygon fill="#63b8ff" stroke="#63b8ff" points="398,-29.27 394.5,-19.27 391,-29.27 398,-29.27"/>
</a>
</g>
</g>
</g>
</svg>
