<?xml version="1.0" encoding="UTF-8" standalone="no"?>
<!DOCTYPE svg PUBLIC "-//W3C//DTD SVG 1.1//EN"
 "http://www.w3.org/Graphics/SVG/1.1/DTD/svg11.dtd">
<!-- Generated by graphviz version 2.43.0 (0)
 -->
<!-- Title: mpqc/chemistry/qc/lcao/mbpt/pno/math_functions.h Pages: 1 -->
<svg width="1186pt" height="401pt"
 viewBox="0.00 0.00 1186.00 401.00" xmlns="http://www.w3.org/2000/svg" xmlns:xlink="http://www.w3.org/1999/xlink">
<g id="graph0" class="graph" transform="scale(1 1) rotate(0) translate(4 397)">
<title>mpqc/chemistry/qc/lcao/mbpt/pno/math_functions.h</title>
<!-- Node1 -->
<g id="Node000001" class="node">
<title>Node1</title>
<g id="a_Node000001"><a xlink:title=" ">
<polygon fill="#999999" stroke="#666666" points="1111.5,-393 957.5,-393 957.5,-363 1111.5,-363 1111.5,-393"/>
<text text-anchor="start" x="965.5" y="-381" font-family="FreeSans" font-size="10.00">mpqc/chemistry/qc/lcao</text>
<text text-anchor="middle" x="1034.5" y="-370" font-family="FreeSans" font-size="10.00">/mbpt/pno/math_functions.h</text>
</a>
</g>
</g>
<!-- Node2 -->
<g id="Node000002" class="node">
<title>Node2</title>
<g id="a_Node000002"><a xlink:href="eigen_8h.html" target="_top" xlink:title=" ">
<polygon fill="white" stroke="#666666" points="910.5,-327 794.5,-327 794.5,-297 910.5,-297 910.5,-327"/>
<text text-anchor="start" x="802.5" y="-315" font-family="FreeSans" font-size="10.00">mpqc/math/external</text>
<text text-anchor="middle" x="852.5" y="-304" font-family="FreeSans" font-size="10.00">/eigen/eigen.h</text>
</a>
</g>
</g>
<!-- Node1&#45;&gt;Node2 -->
<g id="edge1_Node000001_Node000002" class="edge">
<title>Node1&#45;&gt;Node2</title>
<g id="a_edge1_Node000001_Node000002"><a xlink:title=" ">
<path fill="none" stroke="#63b8ff" d="M994.56,-362.95C967.3,-353.37 930.99,-340.6 901.91,-330.37"/>
<polygon fill="#63b8ff" stroke="#63b8ff" points="902.94,-327.03 892.35,-327.01 900.62,-333.63 902.94,-327.03"/>
</a>
</g>
</g>
<!-- Node23 -->
<g id="Node000023" class="node">
<title>Node23</title>
<g id="a_Node000023"><a xlink:href="tiledarray_8h.html" target="_top" xlink:title=" ">
<polygon fill="white" stroke="#666666" points="1097,-327 972,-327 972,-297 1097,-297 1097,-327"/>
<text text-anchor="start" x="980" y="-315" font-family="FreeSans" font-size="10.00">mpqc/math/external</text>
<text text-anchor="middle" x="1034.5" y="-304" font-family="FreeSans" font-size="10.00">/tiledarray/tiledarray.h</text>
</a>
</g>
</g>
<!-- Node1&#45;&gt;Node23 -->
<g id="edge26_Node000001_Node000023" class="edge">
<title>Node1&#45;&gt;Node23</title>
<g id="a_edge26_Node000001_Node000023"><a xlink:title=" ">
<path fill="none" stroke="#63b8ff" d="M1034.5,-362.8C1034.5,-355.34 1034.5,-345.99 1034.5,-337.41"/>
<polygon fill="#63b8ff" stroke="#63b8ff" points="1038,-337.16 1034.5,-327.16 1031,-337.16 1038,-337.16"/>
</a>
</g>
</g>
<!-- Node24 -->
<g id="Node000024" class="node">
<title>Node24</title>
<g id="a_Node000024"><a xlink:title=" ">
<polygon fill="#e0e0e0" stroke="#999999" points="1178,-321.5 1133,-321.5 1133,-302.5 1178,-302.5 1178,-321.5"/>
<text text-anchor="middle" x="1155.5" y="-309.5" font-family="FreeSans" font-size="10.00">utility</text>
</a>
</g>
</g>
<!-- Node1&#45;&gt;Node24 -->
<g id="edge29_Node000001_Node000024" class="edge">
<title>Node1&#45;&gt;Node24</title>
<g id="a_edge29_Node000001_Node000024"><a xlink:title=" ">
<path fill="none" stroke="#63b8ff" d="M1061.05,-362.95C1081.71,-352.03 1110.18,-336.97 1130.45,-326.25"/>
<polygon fill="#63b8ff" stroke="#63b8ff" points="1132.19,-329.29 1139.4,-321.52 1128.92,-323.1 1132.19,-329.29"/>
</a>
</g>
</g>
<!-- Node3 -->
<g id="Node000003" class="node">
<title>Node3</title>
<g id="a_Node000003"><a xlink:title=" ">
<polygon fill="#e0e0e0" stroke="#999999" points="523.5,-255.5 421.5,-255.5 421.5,-236.5 523.5,-236.5 523.5,-255.5"/>
<text text-anchor="middle" x="472.5" y="-243.5" font-family="FreeSans" font-size="10.00">madness/config.h</text>
</a>
</g>
</g>
<!-- Node2&#45;&gt;Node3 -->
<g id="edge2_Node000002_Node000003" class="edge">
<title>Node2&#45;&gt;Node3</title>
<g id="a_edge2_Node000002_Node000003"><a xlink:title=" ">
<path fill="none" stroke="#63b8ff" d="M794.47,-303.25C730.18,-294.37 623.57,-278.71 532.5,-261 527.45,-260.02 522.17,-258.91 516.94,-257.76"/>
<polygon fill="#63b8ff" stroke="#63b8ff" points="517.51,-254.3 506.99,-255.51 515.97,-261.13 517.51,-254.3"/>
</a>
</g>
</g>
<!-- Node4 -->
<g id="Node000004" class="node">
<title>Node4</title>
<g id="a_Node000004"><a xlink:href="complex_8h.html" target="_top" xlink:title=" ">
<polygon fill="white" stroke="#666666" points="691.5,-255.5 541.5,-255.5 541.5,-236.5 691.5,-236.5 691.5,-255.5"/>
<text text-anchor="middle" x="616.5" y="-243.5" font-family="FreeSans" font-size="10.00">mpqc/math/core/complex.h</text>
</a>
</g>
</g>
<!-- Node2&#45;&gt;Node4 -->
<g id="edge3_Node000002_Node000004" class="edge">
<title>Node2&#45;&gt;Node4</title>
<g id="a_edge3_Node000002_Node000004"><a xlink:title=" ">
<path fill="none" stroke="#63b8ff" d="M800.71,-296.95C757.77,-285.31 697.54,-268.98 657.8,-258.2"/>
<polygon fill="#63b8ff" stroke="#63b8ff" points="658.48,-254.76 647.91,-255.52 656.64,-261.51 658.48,-254.76"/>
</a>
</g>
</g>
<!-- Node6 -->
<g id="Node000006" class="node">
<title>Node6</title>
<g id="a_Node000006"><a xlink:title=" ">
<polygon fill="#e0e0e0" stroke="#999999" points="911,-129 794,-129 794,-110 911,-110 911,-129"/>
<text text-anchor="middle" x="852.5" y="-117" font-family="FreeSans" font-size="10.00">mpqc/mpqc_config.h</text>
</a>
</g>
</g>
<!-- Node2&#45;&gt;Node6 -->
<g id="edge22_Node000002_Node000006" class="edge">
<title>Node2&#45;&gt;Node6</title>
<g id="a_edge22_Node000002_Node000006"><a xlink:title=" ">
<path fill="none" stroke="#63b8ff" d="M843.54,-296.76C838,-287.08 831.41,-273.77 828.5,-261 818.61,-217.53 834.53,-165.65 844.83,-138.73"/>
<polygon fill="#63b8ff" stroke="#63b8ff" points="848.21,-139.7 848.68,-129.12 841.71,-137.1 848.21,-139.7"/>
</a>
</g>
</g>
<!-- Node21 -->
<g id="Node000021" class="node">
<title>Node21</title>
<g id="a_Node000021"><a xlink:href="math_2external_2eigen_2fwd_8h.html" target="_top" xlink:title=" ">
<polygon fill="white" stroke="#666666" points="953.5,-261 837.5,-261 837.5,-231 953.5,-231 953.5,-261"/>
<text text-anchor="start" x="845.5" y="-249" font-family="FreeSans" font-size="10.00">mpqc/math/external</text>
<text text-anchor="middle" x="895.5" y="-238" font-family="FreeSans" font-size="10.00">/eigen/fwd.h</text>
</a>
</g>
</g>
<!-- Node2&#45;&gt;Node21 -->
<g id="edge23_Node000002_Node000021" class="edge">
<title>Node2&#45;&gt;Node21</title>
<g id="a_edge23_Node000002_Node000021"><a xlink:title=" ">
<path fill="none" stroke="#63b8ff" d="M862.04,-296.8C867.39,-288.84 874.18,-278.74 880.24,-269.71"/>
<polygon fill="#63b8ff" stroke="#63b8ff" points="883.31,-271.42 885.98,-261.16 877.5,-267.51 883.31,-271.42"/>
</a>
</g>
</g>
<!-- Node22 -->
<g id="Node000022" class="node">
<title>Node22</title>
<g id="a_Node000022"><a xlink:title=" ">
<polygon fill="#e0e0e0" stroke="#999999" points="1049,-255.5 972,-255.5 972,-236.5 1049,-236.5 1049,-255.5"/>
<text text-anchor="middle" x="1010.5" y="-243.5" font-family="FreeSans" font-size="10.00">Eigen/Dense</text>
</a>
</g>
</g>
<!-- Node2&#45;&gt;Node22 -->
<g id="edge25_Node000002_Node000022" class="edge">
<title>Node2&#45;&gt;Node22</title>
<g id="a_edge25_Node000002_Node000022"><a xlink:title=" ">
<path fill="none" stroke="#63b8ff" d="M887.17,-296.95C914.88,-285.73 953.35,-270.15 979.92,-259.39"/>
<polygon fill="#63b8ff" stroke="#63b8ff" points="981.52,-262.52 989.47,-255.52 978.89,-256.03 981.52,-262.52"/>
</a>
</g>
</g>
<!-- Node5 -->
<g id="Node000005" class="node">
<title>Node5</title>
<g id="a_Node000005"><a xlink:href="assert_8h.html" target="_top" xlink:title=" ">
<polygon fill="white" stroke="#666666" points="240,-189.5 109,-189.5 109,-170.5 240,-170.5 240,-189.5"/>
<text text-anchor="middle" x="174.5" y="-177.5" font-family="FreeSans" font-size="10.00">mpqc/util/misc/assert.h</text>
</a>
</g>
</g>
<!-- Node4&#45;&gt;Node5 -->
<g id="edge4_Node000004_Node000005" class="edge">
<title>Node4&#45;&gt;Node5</title>
<g id="a_edge4_Node000004_Node000005"><a xlink:title=" ">
<path fill="none" stroke="#63b8ff" d="M567.25,-236.46C555.85,-234.58 543.76,-232.65 532.5,-231 406.61,-212.54 374.18,-214.83 248.5,-195 241.64,-193.92 234.45,-192.68 227.35,-191.4"/>
<polygon fill="#63b8ff" stroke="#63b8ff" points="227.54,-187.88 217.08,-189.51 226.28,-194.77 227.54,-187.88"/>
</a>
</g>
</g>
<!-- Node16 -->
<g id="Node000016" class="node">
<title>Node16</title>
<g id="a_Node000016"><a xlink:title=" ">
<polygon fill="#e0e0e0" stroke="#999999" points="327,-189.5 258,-189.5 258,-170.5 327,-170.5 327,-189.5"/>
<text text-anchor="middle" x="292.5" y="-177.5" font-family="FreeSans" font-size="10.00">Eigen/Core</text>
</a>
</g>
</g>
<!-- Node4&#45;&gt;Node16 -->
<g id="edge17_Node000004_Node000016" class="edge">
<title>Node4&#45;&gt;Node16</title>
<g id="a_edge17_Node000004_Node000016"><a xlink:title=" ">
<path fill="none" stroke="#63b8ff" d="M566.84,-236.5C492.45,-223.71 358.46,-200.43 336.5,-195 333.48,-194.25 330.37,-193.41 327.27,-192.52"/>
<polygon fill="#63b8ff" stroke="#63b8ff" points="328.05,-189.11 317.47,-189.57 326.03,-195.81 328.05,-189.11"/>
</a>
</g>
</g>
<!-- Node17 -->
<g id="Node000017" class="node">
<title>Node17</title>
<g id="a_Node000017"><a xlink:title=" ">
<polygon fill="#e0e0e0" stroke="#999999" points="467.5,-195 345.5,-195 345.5,-165 467.5,-165 467.5,-195"/>
<text text-anchor="start" x="353.5" y="-183" font-family="FreeSans" font-size="10.00">boost/container/small</text>
<text text-anchor="middle" x="406.5" y="-172" font-family="FreeSans" font-size="10.00">_vector.hpp</text>
</a>
</g>
</g>
<!-- Node4&#45;&gt;Node17 -->
<g id="edge18_Node000004_Node000017" class="edge">
<title>Node4&#45;&gt;Node17</title>
<g id="a_edge18_Node000004_Node000017"><a xlink:title=" ">
<path fill="none" stroke="#63b8ff" d="M588.18,-236.37C556.12,-226.6 503.08,-210.43 462.56,-198.09"/>
<polygon fill="#63b8ff" stroke="#63b8ff" points="463.4,-194.68 452.82,-195.12 461.36,-201.38 463.4,-194.68"/>
</a>
</g>
</g>
<!-- Node18 -->
<g id="Node000018" class="node">
<title>Node18</title>
<g id="a_Node000018"><a xlink:title=" ">
<polygon fill="#e0e0e0" stroke="#999999" points="629,-195 486,-195 486,-165 629,-165 629,-195"/>
<text text-anchor="start" x="494" y="-183" font-family="FreeSans" font-size="10.00">boost/numeric/conversion</text>
<text text-anchor="middle" x="557.5" y="-172" font-family="FreeSans" font-size="10.00">/cast.hpp</text>
</a>
</g>
</g>
<!-- Node4&#45;&gt;Node18 -->
<g id="edge19_Node000004_Node000018" class="edge">
<title>Node4&#45;&gt;Node18</title>
<g id="a_edge19_Node000004_Node000018"><a xlink:title=" ">
<path fill="none" stroke="#63b8ff" d="M608.54,-236.37C600.67,-227.83 588.3,-214.41 577.71,-202.92"/>
<polygon fill="#63b8ff" stroke="#63b8ff" points="580.09,-200.34 570.74,-195.36 574.94,-205.09 580.09,-200.34"/>
</a>
</g>
</g>
<!-- Node19 -->
<g id="Node000019" class="node">
<title>Node19</title>
<g id="a_Node000019"><a xlink:title=" ">
<polygon fill="#e0e0e0" stroke="#999999" points="706,-189.5 647,-189.5 647,-170.5 706,-170.5 706,-189.5"/>
<text text-anchor="middle" x="676.5" y="-177.5" font-family="FreeSans" font-size="10.00">complex</text>
</a>
</g>
</g>
<!-- Node4&#45;&gt;Node19 -->
<g id="edge20_Node000004_Node000019" class="edge">
<title>Node4&#45;&gt;Node19</title>
<g id="a_edge20_Node000004_Node000019"><a xlink:title=" ">
<path fill="none" stroke="#63b8ff" d="M624.59,-236.37C633.93,-226.4 649.51,-209.79 661.16,-197.36"/>
<polygon fill="#63b8ff" stroke="#63b8ff" points="663.87,-199.59 668.15,-189.91 658.76,-194.81 663.87,-199.59"/>
</a>
</g>
</g>
<!-- Node20 -->
<g id="Node000020" class="node">
<title>Node20</title>
<g id="a_Node000020"><a xlink:title=" ">
<polygon fill="#e0e0e0" stroke="#999999" points="793,-189.5 724,-189.5 724,-170.5 793,-170.5 793,-189.5"/>
<text text-anchor="middle" x="758.5" y="-177.5" font-family="FreeSans" font-size="10.00">type_traits</text>
</a>
</g>
</g>
<!-- Node4&#45;&gt;Node20 -->
<g id="edge21_Node000004_Node000020" class="edge">
<title>Node4&#45;&gt;Node20</title>
<g id="a_edge21_Node000004_Node000020"><a xlink:title=" ">
<path fill="none" stroke="#63b8ff" d="M635.65,-236.37C659.89,-225.44 701.87,-206.52 729.91,-193.88"/>
<polygon fill="#63b8ff" stroke="#63b8ff" points="731.52,-197 739.2,-189.7 728.64,-190.62 731.52,-197"/>
</a>
</g>
</g>
<!-- Node5&#45;&gt;Node6 -->
<g id="edge5_Node000005_Node000006" class="edge">
<title>Node5&#45;&gt;Node6</title>
<g id="a_edge5_Node000005_Node000006"><a xlink:title=" ">
<path fill="none" stroke="#63b8ff" d="M215.08,-170.46C225.9,-168.42 237.61,-166.43 248.5,-165 441.6,-139.7 671.45,-127.72 783.8,-123.02"/>
<polygon fill="#63b8ff" stroke="#63b8ff" points="784.12,-126.51 793.97,-122.6 783.83,-119.52 784.12,-126.51"/>
</a>
</g>
</g>
<!-- Node7 -->
<g id="Node000007" class="node">
<title>Node7</title>
<g id="a_Node000007"><a xlink:title=" ">
<polygon fill="#e0e0e0" stroke="#999999" points="142.5,-129 90.5,-129 90.5,-110 142.5,-110 142.5,-129"/>
<text text-anchor="middle" x="116.5" y="-117" font-family="FreeSans" font-size="10.00">cassert</text>
</a>
</g>
</g>
<!-- Node5&#45;&gt;Node7 -->
<g id="edge6_Node000005_Node000007" class="edge">
<title>Node5&#45;&gt;Node7</title>
<g id="a_edge6_Node000005_Node000007"><a xlink:title=" ">
<path fill="none" stroke="#63b8ff" d="M165.94,-170.37C157.12,-161.47 143.16,-147.39 132.32,-136.45"/>
<polygon fill="#63b8ff" stroke="#63b8ff" points="134.62,-133.8 125.09,-129.17 129.65,-138.73 134.62,-133.8"/>
</a>
</g>
</g>
<!-- Node8 -->
<g id="Node000008" class="node">
<title>Node8</title>
<g id="a_Node000008"><a xlink:href="exception_8h.html" target="_top" xlink:title=" ">
<polygon fill="white" stroke="#666666" points="306.5,-129 160.5,-129 160.5,-110 306.5,-110 306.5,-129"/>
<text text-anchor="middle" x="233.5" y="-117" font-family="FreeSans" font-size="10.00">mpqc/util/core/exception.h</text>
</a>
</g>
</g>
<!-- Node5&#45;&gt;Node8 -->
<g id="edge7_Node000005_Node000008" class="edge">
<title>Node5&#45;&gt;Node8</title>
<g id="a_edge7_Node000005_Node000008"><a xlink:title=" ">
<path fill="none" stroke="#63b8ff" d="M183.21,-170.37C192.18,-161.47 206.38,-147.39 217.41,-136.45"/>
<polygon fill="#63b8ff" stroke="#63b8ff" points="220.12,-138.69 224.76,-129.17 215.19,-133.72 220.12,-138.69"/>
</a>
</g>
</g>
<!-- Node9 -->
<g id="Node000009" class="node">
<title>Node9</title>
<g id="a_Node000009"><a xlink:title=" ">
<polygon fill="#e0e0e0" stroke="#999999" points="53,-74 0,-74 0,-55 53,-55 53,-74"/>
<text text-anchor="middle" x="26.5" y="-62" font-family="FreeSans" font-size="10.00">string.h</text>
</a>
</g>
</g>
<!-- Node8&#45;&gt;Node9 -->
<g id="edge8_Node000008_Node000009" class="edge">
<title>Node8&#45;&gt;Node9</title>
<g id="a_edge8_Node000008_Node000009"><a xlink:title=" ">
<path fill="none" stroke="#63b8ff" d="M200.24,-109.98C162.68,-100.37 101.76,-84.77 62.94,-74.83"/>
<polygon fill="#63b8ff" stroke="#63b8ff" points="63.65,-71.4 53.09,-72.31 61.91,-78.18 63.65,-71.4"/>
</a>
</g>
</g>
<!-- Node10 -->
<g id="Node000010" class="node">
<title>Node10</title>
<g id="a_Node000010"><a xlink:href="memory.html" target="_top" xlink:title=" ">
<polygon fill="white" stroke="#666666" points="129.5,-74 71.5,-74 71.5,-55 129.5,-55 129.5,-74"/>
<text text-anchor="middle" x="100.5" y="-62" font-family="FreeSans" font-size="10.00">memory</text>
</a>
</g>
</g>
<!-- Node8&#45;&gt;Node10 -->
<g id="edge9_Node000008_Node000010" class="edge">
<title>Node8&#45;&gt;Node10</title>
<g id="a_edge9_Node000008_Node000010"><a xlink:title=" ">
<path fill="none" stroke="#63b8ff" d="M212.13,-109.98C190.35,-101.3 156.34,-87.75 131.58,-77.88"/>
<polygon fill="#63b8ff" stroke="#63b8ff" points="132.84,-74.62 122.26,-74.17 130.25,-81.12 132.84,-74.62"/>
</a>
</g>
</g>
<!-- Node11 -->
<g id="Node000011" class="node">
<title>Node11</title>
<g id="a_Node000011"><a xlink:title=" ">
<polygon fill="#e0e0e0" stroke="#999999" points="221.5,-74 165.5,-74 165.5,-55 221.5,-55 221.5,-74"/>
<text text-anchor="middle" x="193.5" y="-62" font-family="FreeSans" font-size="10.00">sstream</text>
</a>
</g>
</g>
<!-- Node8&#45;&gt;Node11 -->
<g id="edge11_Node000008_Node000011" class="edge">
<title>Node8&#45;&gt;Node11</title>
<g id="a_edge11_Node000008_Node000011"><a xlink:title=" ">
<path fill="none" stroke="#63b8ff" d="M226.89,-109.75C221.24,-102.26 212.96,-91.28 206.05,-82.13"/>
<polygon fill="#63b8ff" stroke="#63b8ff" points="208.8,-79.96 199.98,-74.09 203.21,-84.18 208.8,-79.96"/>
</a>
</g>
</g>
<!-- Node12 -->
<g id="Node000012" class="node">
<title>Node12</title>
<g id="a_Node000012"><a xlink:title=" ">
<polygon fill="#e0e0e0" stroke="#999999" points="305,-74 240,-74 240,-55 305,-55 305,-74"/>
<text text-anchor="middle" x="272.5" y="-62" font-family="FreeSans" font-size="10.00">stdexcept</text>
</a>
</g>
</g>
<!-- Node8&#45;&gt;Node12 -->
<g id="edge12_Node000008_Node000012" class="edge">
<title>Node8&#45;&gt;Node12</title>
<g id="a_edge12_Node000008_Node000012"><a xlink:title=" ">
<path fill="none" stroke="#63b8ff" d="M239.94,-109.75C245.39,-102.34 253.36,-91.5 260.06,-82.41"/>
<polygon fill="#63b8ff" stroke="#63b8ff" points="263.07,-84.22 266.18,-74.09 257.43,-80.07 263.07,-84.22"/>
</a>
</g>
</g>
<!-- Node13 -->
<g id="Node000013" class="node">
<title>Node13</title>
<g id="a_Node000013"><a xlink:title=" ">
<polygon fill="#e0e0e0" stroke="#999999" points="376,-19 329,-19 329,0 376,0 376,-19"/>
<text text-anchor="middle" x="352.5" y="-7" font-family="FreeSans" font-size="10.00">vector</text>
</a>
</g>
</g>
<!-- Node8&#45;&gt;Node13 -->
<g id="edge13_Node000008_Node000013" class="edge">
<title>Node8&#45;&gt;Node13</title>
<g id="a_edge13_Node000008_Node000013"><a xlink:title=" ">
<path fill="none" stroke="#63b8ff" d="M255.48,-109.96C272.75,-102.43 296.63,-90.16 313.5,-74 327.05,-61.02 337.77,-42.37 344.51,-28.63"/>
<polygon fill="#63b8ff" stroke="#63b8ff" points="347.82,-29.81 348.87,-19.27 341.48,-26.85 347.82,-29.81"/>
</a>
</g>
</g>
<!-- Node14 -->
<g id="Node000014" class="node">
<title>Node14</title>
<g id="a_Node000014"><a xlink:href="backtrace_8h.html" target="_top" xlink:title=" ">
<polygon fill="white" stroke="#666666" points="507.5,-74 361.5,-74 361.5,-55 507.5,-55 507.5,-74"/>
<text text-anchor="middle" x="434.5" y="-62" font-family="FreeSans" font-size="10.00">mpqc/util/core/backtrace.h</text>
</a>
</g>
</g>
<!-- Node8&#45;&gt;Node14 -->
<g id="edge14_Node000008_Node000014" class="edge">
<title>Node8&#45;&gt;Node14</title>
<g id="a_edge14_Node000008_Node000014"><a xlink:title=" ">
<path fill="none" stroke="#63b8ff" d="M265.79,-109.98C300.12,-100.93 354.56,-86.58 392.27,-76.64"/>
<polygon fill="#63b8ff" stroke="#63b8ff" points="393.18,-80.02 401.95,-74.08 391.39,-73.25 393.18,-80.02"/>
</a>
</g>
</g>
<!-- Node10&#45;&gt;Node10 -->
<g id="edge10_Node000010_Node000010" class="edge">
<title>Node10&#45;&gt;Node10</title>
<g id="a_edge10_Node000010_Node000010"><a xlink:title=" ">
<path fill="none" stroke="#63b8ff" d="M122.74,-74.07C135.56,-76.02 147.5,-72.83 147.5,-64.5 147.5,-58.45 141.2,-55.11 132.84,-54.48"/>
<polygon fill="#63b8ff" stroke="#63b8ff" points="132.58,-50.99 122.74,-54.93 132.89,-57.98 132.58,-50.99"/>
</a>
</g>
</g>
<!-- Node14&#45;&gt;Node13 -->
<g id="edge16_Node000014_Node000013" class="edge">
<title>Node14&#45;&gt;Node13</title>
<g id="a_edge16_Node000014_Node000013"><a xlink:title=" ">
<path fill="none" stroke="#63b8ff" d="M421.33,-54.98C408.73,-46.84 389.5,-34.41 374.56,-24.76"/>
<polygon fill="#63b8ff" stroke="#63b8ff" points="376.21,-21.66 365.91,-19.17 372.41,-27.54 376.21,-21.66"/>
</a>
</g>
</g>
<!-- Node15 -->
<g id="Node000015" class="node">
<title>Node15</title>
<g id="a_Node000015"><a xlink:title=" ">
<polygon fill="#e0e0e0" stroke="#999999" points="456.5,-19 412.5,-19 412.5,0 456.5,0 456.5,-19"/>
<text text-anchor="middle" x="434.5" y="-7" font-family="FreeSans" font-size="10.00">string</text>
</a>
</g>
</g>
<!-- Node14&#45;&gt;Node15 -->
<g id="edge15_Node000014_Node000015" class="edge">
<title>Node14&#45;&gt;Node15</title>
<g id="a_edge15_Node000014_Node000015"><a xlink:title=" ">
<path fill="none" stroke="#63b8ff" d="M434.5,-54.75C434.5,-47.8 434.5,-37.85 434.5,-29.13"/>
<polygon fill="#63b8ff" stroke="#63b8ff" points="438,-29.09 434.5,-19.09 431,-29.09 438,-29.09"/>
</a>
</g>
</g>
<!-- Node21&#45;&gt;Node6 -->
<g id="edge24_Node000021_Node000006" class="edge">
<title>Node21&#45;&gt;Node6</title>
<g id="a_edge24_Node000021_Node000006"><a xlink:title=" ">
<path fill="none" stroke="#63b8ff" d="M890.57,-230.72C882.73,-208.02 867.43,-163.72 858.8,-138.75"/>
<polygon fill="#63b8ff" stroke="#63b8ff" points="862.03,-137.38 855.46,-129.07 855.42,-139.66 862.03,-137.38"/>
</a>
</g>
</g>
<!-- Node23&#45;&gt;Node6 -->
<g id="edge28_Node000023_Node000006" class="edge">
<title>Node23&#45;&gt;Node6</title>
<g id="a_edge28_Node000023_Node000006"><a xlink:title=" ">
<path fill="none" stroke="#63b8ff" d="M1045.29,-296.85C1056.59,-280.16 1071.08,-252.03 1058.5,-231 1024.97,-174.96 952.2,-145.71 902.77,-131.72"/>
<polygon fill="#63b8ff" stroke="#63b8ff" points="903.47,-128.28 892.91,-129.04 901.64,-135.04 903.47,-128.28"/>
</a>
</g>
</g>
<!-- Node23&#45;&gt;Node23 -->
<g id="edge27_Node000023_Node000023" class="edge">
<title>Node23&#45;&gt;Node23</title>
<g id="a_edge27_Node000023_Node000023"><a xlink:title=" ">
<path fill="none" stroke="#63b8ff" d="M1097.28,-323.5C1107.76,-321.89 1115,-318.06 1115,-312 1115,-308.12 1112.03,-305.15 1107.14,-303.1"/>
<polygon fill="#63b8ff" stroke="#63b8ff" points="1107.84,-299.66 1097.28,-300.5 1106.06,-306.43 1107.84,-299.66"/>
</a>
</g>
</g>
</g>
</svg>
