<?xml version="1.0" encoding="UTF-8" standalone="no"?>
<!DOCTYPE svg PUBLIC "-//W3C//DTD SVG 1.1//EN"
 "http://www.w3.org/Graphics/SVG/1.1/DTD/svg11.dtd">
<!-- Generated by graphviz version 2.43.0 (0)
 -->
<!-- Title: mpqc/math/fock/operator.h Pages: 1 -->
<svg width="467pt" height="225pt"
 viewBox="0.00 0.00 466.50 225.00" xmlns="http://www.w3.org/2000/svg" xmlns:xlink="http://www.w3.org/1999/xlink">
<g id="graph0" class="graph" transform="scale(1 1) rotate(0) translate(4 221)">
<title>mpqc/math/fock/operator.h</title>
<!-- Node1 -->
<g id="Node000001" class="node">
<title>Node1</title>
<g id="a_Node000001"><a xlink:title=" ">
<polygon fill="#999999" stroke="#666666" points="319,-217 170,-217 170,-198 319,-198 319,-217"/>
<text text-anchor="middle" x="244.5" y="-205" font-family="FreeSans" font-size="10.00">mpqc/math/fock/operator.h</text>
</a>
</g>
</g>
<!-- Node2 -->
<g id="Node000002" class="node">
<title>Node2</title>
<g id="a_Node000002"><a xlink:href="sci_8h.html" target="_top" xlink:title=" ">
<polygon fill="white" stroke="#666666" points="456,-162 323,-162 323,-132 456,-132 456,-162"/>
<text text-anchor="start" x="331" y="-150" font-family="FreeSans" font-size="10.00">mpqc/chemistry/qc/lcao</text>
<text text-anchor="middle" x="389.5" y="-139" font-family="FreeSans" font-size="10.00">/ci/sci.h</text>
</a>
</g>
</g>
<!-- Node1&#45;&gt;Node2 -->
<g id="edge1_Node000001_Node000002" class="edge">
<title>Node1&#45;&gt;Node2</title>
<g id="a_edge1_Node000001_Node000002"><a xlink:title=" ">
<path fill="none" stroke="#63b8ff" d="M274.97,-194.21C298.24,-184.82 330.34,-171.87 354.64,-162.06"/>
<polygon fill="#63b8ff" stroke="#63b8ff" points="273.55,-191.01 265.58,-197.99 276.17,-197.5 273.55,-191.01"/>
</a>
</g>
</g>
<!-- Node7 -->
<g id="Node000007" class="node">
<title>Node7</title>
<g id="a_Node000007"><a xlink:href="hamiltonian_8h.html" target="_top" xlink:title=" ">
<polygon fill="white" stroke="#666666" points="167,-156.5 0,-156.5 0,-137.5 167,-137.5 167,-156.5"/>
<text text-anchor="middle" x="83.5" y="-144.5" font-family="FreeSans" font-size="10.00">mpqc/math/fock/hamiltonian.h</text>
</a>
</g>
</g>
<!-- Node1&#45;&gt;Node7 -->
<g id="edge6_Node000001_Node000007" class="edge">
<title>Node1&#45;&gt;Node7</title>
<g id="a_edge6_Node000001_Node000007"><a xlink:title=" ">
<path fill="none" stroke="#63b8ff" d="M211.54,-194.52C180.41,-183.21 134.5,-166.53 106.94,-156.52"/>
<polygon fill="#63b8ff" stroke="#63b8ff" points="210.5,-197.87 221.09,-197.99 212.89,-191.29 210.5,-197.87"/>
</a>
</g>
</g>
<!-- Node8 -->
<g id="Node000008" class="node">
<title>Node8</title>
<g id="a_Node000008"><a xlink:href="hb_8h.html" target="_top" xlink:title=" ">
<polygon fill="white" stroke="#666666" points="304.5,-156.5 184.5,-156.5 184.5,-137.5 304.5,-137.5 304.5,-156.5"/>
<text text-anchor="middle" x="244.5" y="-144.5" font-family="FreeSans" font-size="10.00">mpqc/math/fock/hb.h</text>
</a>
</g>
</g>
<!-- Node1&#45;&gt;Node8 -->
<g id="edge8_Node000001_Node000008" class="edge">
<title>Node1&#45;&gt;Node8</title>
<g id="a_edge8_Node000001_Node000008"><a xlink:title=" ">
<path fill="none" stroke="#63b8ff" d="M244.5,-187.66C244.5,-177.24 244.5,-164.8 244.5,-156.67"/>
<polygon fill="#63b8ff" stroke="#63b8ff" points="241,-187.87 244.5,-197.87 248,-187.87 241,-187.87"/>
</a>
</g>
</g>
<!-- Node3 -->
<g id="Node000003" class="node">
<title>Node3</title>
<g id="a_Node000003"><a xlink:href="sci_8ipp.html" target="_top" xlink:title=" ">
<polygon fill="white" stroke="#666666" points="308,-96 175,-96 175,-66 308,-66 308,-96"/>
<text text-anchor="start" x="183" y="-84" font-family="FreeSans" font-size="10.00">mpqc/chemistry/qc/lcao</text>
<text text-anchor="middle" x="241.5" y="-73" font-family="FreeSans" font-size="10.00">/ci/sci.ipp</text>
</a>
</g>
</g>
<!-- Node2&#45;&gt;Node3 -->
<g id="edge2_Node000002_Node000003" class="edge">
<title>Node2&#45;&gt;Node3</title>
<g id="a_edge2_Node000002_Node000003"><a xlink:title=" ">
<path fill="none" stroke="#63b8ff" d="M347.69,-127.92C324.3,-117.8 295.58,-105.38 273.9,-96.01"/>
<polygon fill="#63b8ff" stroke="#63b8ff" points="346.45,-131.2 357.02,-131.95 349.23,-124.77 346.45,-131.2"/>
</a>
</g>
</g>
<!-- Node5 -->
<g id="Node000005" class="node">
<title>Node5</title>
<g id="a_Node000005"><a xlink:href="solver__1c__v2_8ipp.html" target="_top" xlink:title=" ">
<polygon fill="white" stroke="#666666" points="458.5,-96 326.5,-96 326.5,-66 458.5,-66 458.5,-96"/>
<text text-anchor="start" x="334.5" y="-84" font-family="FreeSans" font-size="10.00">mpqc/chemistry/qc/mra</text>
<text text-anchor="middle" x="392.5" y="-73" font-family="FreeSans" font-size="10.00">/scf/solver_1c_v2.ipp</text>
</a>
</g>
</g>
<!-- Node2&#45;&gt;Node5 -->
<g id="edge4_Node000002_Node000005" class="edge">
<title>Node2&#45;&gt;Node5</title>
<g id="a_edge4_Node000002_Node000005"><a xlink:title=" ">
<path fill="none" stroke="#63b8ff" d="M390.65,-121.54C391.05,-112.96 391.49,-103.61 391.84,-96.16"/>
<polygon fill="#63b8ff" stroke="#63b8ff" points="387.14,-121.64 390.17,-131.8 394.13,-121.97 387.14,-121.64"/>
</a>
</g>
</g>
<!-- Node4 -->
<g id="Node000004" class="node">
<title>Node4</title>
<g id="a_Node000004"><a xlink:href="sci_8cpp.html" target="_top" xlink:title=" ">
<polygon fill="white" stroke="#666666" points="308,-30 175,-30 175,0 308,0 308,-30"/>
<text text-anchor="start" x="183" y="-18" font-family="FreeSans" font-size="10.00">mpqc/chemistry/qc/lcao</text>
<text text-anchor="middle" x="241.5" y="-7" font-family="FreeSans" font-size="10.00">/ci/sci.cpp</text>
</a>
</g>
</g>
<!-- Node3&#45;&gt;Node4 -->
<g id="edge3_Node000003_Node000004" class="edge">
<title>Node3&#45;&gt;Node4</title>
<g id="a_edge3_Node000003_Node000004"><a xlink:title=" ">
<path fill="none" stroke="#63b8ff" d="M241.5,-55.54C241.5,-46.96 241.5,-37.61 241.5,-30.16"/>
<polygon fill="#63b8ff" stroke="#63b8ff" points="238,-55.8 241.5,-65.8 245,-55.8 238,-55.8"/>
</a>
</g>
</g>
<!-- Node6 -->
<g id="Node000006" class="node">
<title>Node6</title>
<g id="a_Node000006"><a xlink:href="solver_8cpp.html" target="_top" xlink:title=" ">
<polygon fill="white" stroke="#666666" points="458.5,-30 326.5,-30 326.5,0 458.5,0 458.5,-30"/>
<text text-anchor="start" x="334.5" y="-18" font-family="FreeSans" font-size="10.00">mpqc/chemistry/qc/mra</text>
<text text-anchor="middle" x="392.5" y="-7" font-family="FreeSans" font-size="10.00">/scf/solver.cpp</text>
</a>
</g>
</g>
<!-- Node5&#45;&gt;Node6 -->
<g id="edge5_Node000005_Node000006" class="edge">
<title>Node5&#45;&gt;Node6</title>
<g id="a_edge5_Node000005_Node000006"><a xlink:title=" ">
<path fill="none" stroke="#63b8ff" d="M392.5,-55.54C392.5,-46.96 392.5,-37.61 392.5,-30.16"/>
<polygon fill="#63b8ff" stroke="#63b8ff" points="389,-55.8 392.5,-65.8 396,-55.8 389,-55.8"/>
</a>
</g>
</g>
<!-- Node7&#45;&gt;Node3 -->
<g id="edge7_Node000007_Node000003" class="edge">
<title>Node7&#45;&gt;Node3</title>
<g id="a_edge7_Node000007_Node000003"><a xlink:title=" ">
<path fill="none" stroke="#63b8ff" d="M114.35,-133.5C140.85,-122.77 179.05,-107.3 206.65,-96.12"/>
<polygon fill="#63b8ff" stroke="#63b8ff" points="112.76,-130.37 104.81,-137.37 115.39,-136.86 112.76,-130.37"/>
</a>
</g>
</g>
<!-- Node8&#45;&gt;Node3 -->
<g id="edge9_Node000008_Node000003" class="edge">
<title>Node8&#45;&gt;Node3</title>
<g id="a_edge9_Node000008_Node000003"><a xlink:title=" ">
<path fill="none" stroke="#63b8ff" d="M243.63,-127.35C243.16,-117.47 242.6,-105.51 242.17,-96.36"/>
<polygon fill="#63b8ff" stroke="#63b8ff" points="240.13,-127.54 244.1,-137.37 247.12,-127.22 240.13,-127.54"/>
</a>
</g>
</g>
</g>
</svg>
