<?xml version="1.0" encoding="UTF-8" standalone="no"?>
<!DOCTYPE svg PUBLIC "-//W3C//DTD SVG 1.1//EN"
 "http://www.w3.org/Graphics/SVG/1.1/DTD/svg11.dtd">
<!-- Generated by graphviz version 2.43.0 (0)
 -->
<!-- Title: mpqc/math/linalg/linkage.h Pages: 1 -->
<svg width="157pt" height="159pt"
 viewBox="0.00 0.00 157.00 159.00" xmlns="http://www.w3.org/2000/svg" xmlns:xlink="http://www.w3.org/1999/xlink">
<g id="graph0" class="graph" transform="scale(1 1) rotate(0) translate(4 155)">
<title>mpqc/math/linalg/linkage.h</title>
<!-- Node1 -->
<g id="Node000001" class="node">
<title>Node1</title>
<g id="a_Node000001"><a xlink:title=" ">
<polygon fill="#999999" stroke="#666666" points="149,-151 0,-151 0,-132 149,-132 149,-151"/>
<text text-anchor="middle" x="74.5" y="-139" font-family="FreeSans" font-size="10.00">mpqc/math/linalg/linkage.h</text>
</a>
</g>
</g>
<!-- Node2 -->
<g id="Node000002" class="node">
<title>Node2</title>
<g id="a_Node000002"><a xlink:href="chemistry_2qc_2lcao_2cc_2linkage_8h.html" target="_top" xlink:title=" ">
<polygon fill="white" stroke="#666666" points="141,-96 8,-96 8,-66 141,-66 141,-96"/>
<text text-anchor="start" x="16" y="-84" font-family="FreeSans" font-size="10.00">mpqc/chemistry/qc/lcao</text>
<text text-anchor="middle" x="74.5" y="-73" font-family="FreeSans" font-size="10.00">/cc/linkage.h</text>
</a>
</g>
</g>
<!-- Node1&#45;&gt;Node2 -->
<g id="edge1_Node000001_Node000002" class="edge">
<title>Node1&#45;&gt;Node2</title>
<g id="a_edge1_Node000001_Node000002"><a xlink:title=" ">
<path fill="none" stroke="#63b8ff" d="M74.5,-121.65C74.5,-113.36 74.5,-103.78 74.5,-96.11"/>
<polygon fill="#63b8ff" stroke="#63b8ff" points="71,-121.87 74.5,-131.87 78,-121.87 71,-121.87"/>
</a>
</g>
</g>
<!-- Node3 -->
<g id="Node000003" class="node">
<title>Node3</title>
<g id="a_Node000003"><a xlink:href="chemistry_2qc_2lcao_2f12_2linkage_8h.html" target="_top" xlink:title=" ">
<polygon fill="white" stroke="#666666" points="141,-30 8,-30 8,0 141,0 141,-30"/>
<text text-anchor="start" x="16" y="-18" font-family="FreeSans" font-size="10.00">mpqc/chemistry/qc/lcao</text>
<text text-anchor="middle" x="74.5" y="-7" font-family="FreeSans" font-size="10.00">/f12/linkage.h</text>
</a>
</g>
</g>
<!-- Node2&#45;&gt;Node3 -->
<g id="edge2_Node000002_Node000003" class="edge">
<title>Node2&#45;&gt;Node3</title>
<g id="a_edge2_Node000002_Node000003"><a xlink:title=" ">
<path fill="none" stroke="#63b8ff" d="M74.5,-55.54C74.5,-46.96 74.5,-37.61 74.5,-30.16"/>
<polygon fill="#63b8ff" stroke="#63b8ff" points="71,-55.8 74.5,-65.8 78,-55.8 71,-55.8"/>
</a>
</g>
</g>
</g>
</svg>
