<?xml version="1.0" encoding="UTF-8" standalone="no"?>
<!DOCTYPE svg PUBLIC "-//W3C//DTD SVG 1.1//EN"
 "http://www.w3.org/Graphics/SVG/1.1/DTD/svg11.dtd">
<!-- Generated by graphviz version 2.43.0 (0)
 -->
<!-- Title: mpqc/chemistry/qc/lcao/mbpt/pno/math_functions.h Pages: 1 -->
<svg width="573pt" height="379pt"
 viewBox="0.00 0.00 573.00 379.00" xmlns="http://www.w3.org/2000/svg" xmlns:xlink="http://www.w3.org/1999/xlink">
<g id="graph0" class="graph" transform="scale(1 1) rotate(0) translate(4 375)">
<title>mpqc/chemistry/qc/lcao/mbpt/pno/math_functions.h</title>
<!-- Node1 -->
<g id="Node000001" class="node">
<title>Node1</title>
<g id="a_Node000001"><a xlink:title=" ">
<polygon fill="#999999" stroke="#666666" points="410.5,-371 256.5,-371 256.5,-341 410.5,-341 410.5,-371"/>
<text text-anchor="start" x="264.5" y="-359" font-family="FreeSans" font-size="10.00">mpqc/chemistry/qc/lcao</text>
<text text-anchor="middle" x="333.5" y="-348" font-family="FreeSans" font-size="10.00">/mbpt/pno/math_functions.h</text>
</a>
</g>
</g>
<!-- Node2 -->
<g id="Node000002" class="node">
<title>Node2</title>
<g id="a_Node000002"><a xlink:href="g__tiles__from__ldf_8h.html" target="_top" xlink:title=" ">
<polygon fill="white" stroke="#666666" points="313.5,-233.5 157.5,-233.5 157.5,-203.5 313.5,-203.5 313.5,-233.5"/>
<text text-anchor="start" x="165.5" y="-221.5" font-family="FreeSans" font-size="10.00">mpqc/chemistry/qc/lcao</text>
<text text-anchor="middle" x="235.5" y="-210.5" font-family="FreeSans" font-size="10.00">/mbpt/pno/g_tiles_from_ldf.h</text>
</a>
</g>
</g>
<!-- Node1&#45;&gt;Node2 -->
<g id="edge1_Node000001_Node000002" class="edge">
<title>Node1&#45;&gt;Node2</title>
<g id="a_edge1_Node000001_Node000002"><a xlink:title=" ">
<path fill="none" stroke="#63b8ff" d="M332.22,-330.6C330.31,-313.74 325.67,-291.48 314.5,-275 302.37,-257.1 282.4,-243.15 265.58,-233.71"/>
<polygon fill="#63b8ff" stroke="#63b8ff" points="328.75,-331.13 333.12,-340.78 335.72,-330.51 328.75,-331.13"/>
</a>
</g>
</g>
<!-- Node6 -->
<g id="Node000006" class="node">
<title>Node6</title>
<g id="a_Node000006"><a xlink:href="get__domained__matrices_8h.html" target="_top" xlink:title=" ">
<polygon fill="white" stroke="#666666" points="139,-239 0,-239 0,-198 139,-198 139,-239"/>
<text text-anchor="start" x="8" y="-227" font-family="FreeSans" font-size="10.00">mpqc/chemistry/qc/lcao</text>
<text text-anchor="start" x="8" y="-216" font-family="FreeSans" font-size="10.00">/mbpt/pno/get_domained</text>
<text text-anchor="middle" x="69.5" y="-205" font-family="FreeSans" font-size="10.00">_matrices.h</text>
</a>
</g>
</g>
<!-- Node1&#45;&gt;Node6 -->
<g id="edge6_Node000001_Node000006" class="edge">
<title>Node1&#45;&gt;Node6</title>
<g id="a_edge6_Node000001_Node000006"><a xlink:title=" ">
<path fill="none" stroke="#63b8ff" d="M245.83,-347.75C207.18,-341.15 162.85,-328.65 128.5,-305 104.58,-288.53 87.41,-258.96 77.96,-239.28"/>
<polygon fill="#63b8ff" stroke="#63b8ff" points="245.61,-351.26 256.04,-349.38 246.72,-344.34 245.61,-351.26"/>
</a>
</g>
</g>
<!-- Node7 -->
<g id="Node000007" class="node">
<title>Node7</title>
<g id="a_Node000007"><a xlink:href="math__functions_8cpp.html" target="_top" xlink:title=" ">
<polygon fill="white" stroke="#666666" points="565,-305 400,-305 400,-275 565,-275 565,-305"/>
<text text-anchor="start" x="408" y="-293" font-family="FreeSans" font-size="10.00">mpqc/chemistry/qc/lcao</text>
<text text-anchor="middle" x="482.5" y="-282" font-family="FreeSans" font-size="10.00">/mbpt/pno/math_functions.cpp</text>
</a>
</g>
</g>
<!-- Node1&#45;&gt;Node7 -->
<g id="edge8_Node000001_Node000007" class="edge">
<title>Node1&#45;&gt;Node7</title>
<g id="a_edge8_Node000001_Node000007"><a xlink:title=" ">
<path fill="none" stroke="#63b8ff" d="M375.59,-336.92C399.14,-326.8 428.06,-314.38 449.88,-305.01"/>
<polygon fill="#63b8ff" stroke="#63b8ff" points="374.01,-333.79 366.2,-340.95 376.77,-340.22 374.01,-333.79"/>
</a>
</g>
</g>
<!-- Node8 -->
<g id="Node000008" class="node">
<title>Node8</title>
<g id="a_Node000008"><a xlink:href="pno__builder_8h.html" target="_top" xlink:title=" ">
<polygon fill="white" stroke="#666666" points="465.5,-233.5 331.5,-233.5 331.5,-203.5 465.5,-203.5 465.5,-233.5"/>
<text text-anchor="start" x="339.5" y="-221.5" font-family="FreeSans" font-size="10.00">mpqc/chemistry/qc/lcao</text>
<text text-anchor="middle" x="398.5" y="-210.5" font-family="FreeSans" font-size="10.00">/mbpt/pno/pno_builder.h</text>
</a>
</g>
</g>
<!-- Node1&#45;&gt;Node8 -->
<g id="edge9_Node000001_Node000008" class="edge">
<title>Node1&#45;&gt;Node8</title>
<g id="a_edge9_Node000001_Node000008"><a xlink:title=" ">
<path fill="none" stroke="#63b8ff" d="M344.73,-331.6C358.28,-303.35 380.62,-256.77 391.76,-233.55"/>
<polygon fill="#63b8ff" stroke="#63b8ff" points="341.5,-330.23 340.33,-340.76 347.81,-333.25 341.5,-330.23"/>
</a>
</g>
</g>
<!-- Node10 -->
<g id="Node000010" class="node">
<title>Node10</title>
<g id="a_Node000010"><a xlink:href="semi__canonicalize_8h.html" target="_top" xlink:title=" ">
<polygon fill="white" stroke="#666666" points="305.5,-305 137.5,-305 137.5,-275 305.5,-275 305.5,-305"/>
<text text-anchor="start" x="145.5" y="-293" font-family="FreeSans" font-size="10.00">mpqc/chemistry/qc/lcao</text>
<text text-anchor="middle" x="221.5" y="-282" font-family="FreeSans" font-size="10.00">/mbpt/pno/semi_canonicalize.h</text>
</a>
</g>
</g>
<!-- Node1&#45;&gt;Node10 -->
<g id="edge12_Node000001_Node000010" class="edge">
<title>Node1&#45;&gt;Node10</title>
<g id="a_edge12_Node000001_Node000010"><a xlink:title=" ">
<path fill="none" stroke="#63b8ff" d="M300.19,-335.97C282.81,-326.03 261.91,-314.09 246.02,-305.01"/>
<polygon fill="#63b8ff" stroke="#63b8ff" points="298.5,-339.03 308.92,-340.95 301.98,-332.95 298.5,-339.03"/>
</a>
</g>
</g>
<!-- Node3 -->
<g id="Node000003" class="node">
<title>Node3</title>
<g id="a_Node000003"><a xlink:href="pao__to__pno__mp2_8h.html" target="_top" xlink:title=" ">
<polygon fill="white" stroke="#666666" points="305.5,-162 165.5,-162 165.5,-132 305.5,-132 305.5,-162"/>
<text text-anchor="start" x="173.5" y="-150" font-family="FreeSans" font-size="10.00">mpqc/chemistry/qc/lcao</text>
<text text-anchor="middle" x="235.5" y="-139" font-family="FreeSans" font-size="10.00">/mbpt/pao_to_pno_mp2.h</text>
</a>
</g>
</g>
<!-- Node2&#45;&gt;Node3 -->
<g id="edge2_Node000002_Node000003" class="edge">
<title>Node2&#45;&gt;Node3</title>
<g id="a_edge2_Node000002_Node000003"><a xlink:title=" ">
<path fill="none" stroke="#63b8ff" d="M235.5,-193.25C235.5,-182.81 235.5,-170.99 235.5,-162.04"/>
<polygon fill="#63b8ff" stroke="#63b8ff" points="232,-193.44 235.5,-203.44 239,-193.44 232,-193.44"/>
</a>
</g>
</g>
<!-- Node4 -->
<g id="Node000004" class="node">
<title>Node4</title>
<g id="a_Node000004"><a xlink:href="pao__to__pno__mp2_8ipp.html" target="_top" xlink:title=" ">
<polygon fill="white" stroke="#666666" points="310,-96 161,-96 161,-66 310,-66 310,-96"/>
<text text-anchor="start" x="169" y="-84" font-family="FreeSans" font-size="10.00">mpqc/chemistry/qc/lcao</text>
<text text-anchor="middle" x="235.5" y="-73" font-family="FreeSans" font-size="10.00">/mbpt/pao_to_pno_mp2.ipp</text>
</a>
</g>
</g>
<!-- Node3&#45;&gt;Node4 -->
<g id="edge3_Node000003_Node000004" class="edge">
<title>Node3&#45;&gt;Node4</title>
<g id="a_edge3_Node000003_Node000004"><a xlink:title=" ">
<path fill="none" stroke="#63b8ff" d="M228.93,-121.83C228.52,-113.17 228.81,-103.7 229.79,-96.16"/>
<polygon fill="#63b8ff" stroke="#63b8ff" points="225.45,-122.13 229.78,-131.8 232.42,-121.54 225.45,-122.13"/>
</a>
</g>
</g>
<!-- Node4&#45;&gt;Node3 -->
<g id="edge5_Node000004_Node000003" class="edge">
<title>Node4&#45;&gt;Node3</title>
<g id="a_edge5_Node000004_Node000003"><a xlink:title=" ">
<path fill="none" stroke="#63b8ff" d="M242.07,-106.13C242.48,-114.78 242.2,-124.26 241.22,-131.8"/>
<polygon fill="#63b8ff" stroke="#63b8ff" points="245.55,-105.83 241.21,-96.16 238.58,-106.43 245.55,-105.83"/>
</a>
</g>
</g>
<!-- Node5 -->
<g id="Node000005" class="node">
<title>Node5</title>
<g id="a_Node000005"><a xlink:href="pao__to__pno__mp2_8cpp.html" target="_top" xlink:title=" ">
<polygon fill="white" stroke="#666666" points="311.5,-30 159.5,-30 159.5,0 311.5,0 311.5,-30"/>
<text text-anchor="start" x="167.5" y="-18" font-family="FreeSans" font-size="10.00">mpqc/chemistry/qc/lcao</text>
<text text-anchor="middle" x="235.5" y="-7" font-family="FreeSans" font-size="10.00">/mbpt/pao_to_pno_mp2.cpp</text>
</a>
</g>
</g>
<!-- Node4&#45;&gt;Node5 -->
<g id="edge4_Node000004_Node000005" class="edge">
<title>Node4&#45;&gt;Node5</title>
<g id="a_edge4_Node000004_Node000005"><a xlink:title=" ">
<path fill="none" stroke="#63b8ff" d="M235.5,-55.54C235.5,-46.96 235.5,-37.61 235.5,-30.16"/>
<polygon fill="#63b8ff" stroke="#63b8ff" points="232,-55.8 235.5,-65.8 239,-55.8 232,-55.8"/>
</a>
</g>
</g>
<!-- Node6&#45;&gt;Node3 -->
<g id="edge7_Node000006_Node000003" class="edge">
<title>Node6&#45;&gt;Node3</title>
<g id="a_edge7_Node000006_Node000003"><a xlink:title=" ">
<path fill="none" stroke="#63b8ff" d="M125.7,-193.97C151.07,-183.35 180.18,-171.16 202.05,-162"/>
<polygon fill="#63b8ff" stroke="#63b8ff" points="124.05,-190.86 116.18,-197.96 126.76,-197.32 124.05,-190.86"/>
</a>
</g>
</g>
<!-- Node8&#45;&gt;Node3 -->
<g id="edge10_Node000008_Node000003" class="edge">
<title>Node8&#45;&gt;Node3</title>
<g id="a_edge10_Node000008_Node000003"><a xlink:title=" ">
<path fill="none" stroke="#63b8ff" d="M356.19,-199.46C328.82,-187.79 293.72,-172.82 268.44,-162.04"/>
<polygon fill="#63b8ff" stroke="#63b8ff" points="354.94,-202.73 365.51,-203.44 357.69,-196.29 354.94,-202.73"/>
</a>
</g>
</g>
<!-- Node9 -->
<g id="Node000009" class="node">
<title>Node9</title>
<g id="a_Node000009"><a xlink:href="pno__builder_8cpp.html" target="_top" xlink:title=" ">
<polygon fill="white" stroke="#666666" points="471.5,-162 325.5,-162 325.5,-132 471.5,-132 471.5,-162"/>
<text text-anchor="start" x="333.5" y="-150" font-family="FreeSans" font-size="10.00">mpqc/chemistry/qc/lcao</text>
<text text-anchor="middle" x="398.5" y="-139" font-family="FreeSans" font-size="10.00">/mbpt/pno/pno_builder.cpp</text>
</a>
</g>
</g>
<!-- Node8&#45;&gt;Node9 -->
<g id="edge11_Node000008_Node000009" class="edge">
<title>Node8&#45;&gt;Node9</title>
<g id="a_edge11_Node000008_Node000009"><a xlink:title=" ">
<path fill="none" stroke="#63b8ff" d="M398.5,-193.25C398.5,-182.81 398.5,-170.99 398.5,-162.04"/>
<polygon fill="#63b8ff" stroke="#63b8ff" points="395,-193.44 398.5,-203.44 402,-193.44 395,-193.44"/>
</a>
</g>
</g>
<!-- Node10&#45;&gt;Node2 -->
<g id="edge13_Node000010_Node000002" class="edge">
<title>Node10&#45;&gt;Node2</title>
<g id="a_edge13_Node000010_Node000002"><a xlink:title=" ">
<path fill="none" stroke="#63b8ff" d="M226.32,-265.08C228.44,-254.56 230.85,-242.58 232.67,-233.54"/>
<polygon fill="#63b8ff" stroke="#63b8ff" points="222.88,-264.44 224.33,-274.94 229.74,-265.82 222.88,-264.44"/>
</a>
</g>
</g>
<!-- Node10&#45;&gt;Node6 -->
<g id="edge14_Node000010_Node000006" class="edge">
<title>Node10&#45;&gt;Node6</title>
<g id="a_edge14_Node000010_Node000006"><a xlink:title=" ">
<path fill="none" stroke="#63b8ff" d="M181.63,-270.77C160.32,-261.02 134.06,-249.02 112.31,-239.07"/>
<polygon fill="#63b8ff" stroke="#63b8ff" points="180.19,-273.96 190.74,-274.94 183.1,-267.59 180.19,-273.96"/>
</a>
</g>
</g>
<!-- Node10&#45;&gt;Node8 -->
<g id="edge15_Node000010_Node000008" class="edge">
<title>Node10&#45;&gt;Node8</title>
<g id="a_edge15_Node000010_Node000008"><a xlink:title=" ">
<path fill="none" stroke="#63b8ff" d="M266.67,-271.26C296.5,-259.55 335.04,-244.42 362.73,-233.54"/>
<polygon fill="#63b8ff" stroke="#63b8ff" points="265.35,-268.02 257.32,-274.94 267.91,-274.54 265.35,-268.02"/>
</a>
</g>
</g>
</g>
</svg>
