<?xml version="1.0" encoding="UTF-8" standalone="no"?>
<!DOCTYPE svg PUBLIC "-//W3C//DTD SVG 1.1//EN"
 "http://www.w3.org/Graphics/SVG/1.1/DTD/svg11.dtd">
<!-- Generated by graphviz version 2.43.0 (0)
 -->
<!-- Title: mpqc/util/misc/meminfo.h Pages: 1 -->
<svg width="3012pt" height="467pt"
 viewBox="0.00 0.00 3011.50 467.00" xmlns="http://www.w3.org/2000/svg" xmlns:xlink="http://www.w3.org/1999/xlink">
<g id="graph0" class="graph" transform="scale(1 1) rotate(0) translate(4 463)">
<title>mpqc/util/misc/meminfo.h</title>
<!-- Node1 -->
<g id="Node000001" class="node">
<title>Node1</title>
<g id="a_Node000001"><a xlink:title=" ">
<polygon fill="#999999" stroke="#666666" points="369.5,-459 224.5,-459 224.5,-440 369.5,-440 369.5,-459"/>
<text text-anchor="middle" x="297" y="-447" font-family="FreeSans" font-size="10.00">mpqc/util/misc/meminfo.h</text>
</a>
</g>
</g>
<!-- Node2 -->
<g id="Node000002" class="node">
<title>Node2</title>
<g id="a_Node000002"><a xlink:title=" ">
<polygon fill="#e0e0e0" stroke="#999999" points="148,-398.5 0,-398.5 0,-379.5 148,-379.5 148,-398.5"/>
<text text-anchor="middle" x="74" y="-386.5" font-family="FreeSans" font-size="10.00">madness/world/worldgop.h</text>
</a>
</g>
</g>
<!-- Node1&#45;&gt;Node2 -->
<g id="edge1_Node000001_Node000002" class="edge">
<title>Node1&#45;&gt;Node2</title>
<g id="a_edge1_Node000001_Node000002"><a xlink:title=" ">
<path fill="none" stroke="#63b8ff" d="M264.57,-439.99C225.43,-429.73 159.51,-412.43 116.37,-401.12"/>
<polygon fill="#63b8ff" stroke="#63b8ff" points="117.03,-397.67 106.47,-398.52 115.25,-404.44 117.03,-397.67"/>
</a>
</g>
</g>
<!-- Node3 -->
<g id="Node000003" class="node">
<title>Node3</title>
<g id="a_Node000003"><a xlink:title=" ">
<polygon fill="#e0e0e0" stroke="#999999" points="321.5,-398.5 166.5,-398.5 166.5,-379.5 321.5,-379.5 321.5,-398.5"/>
<text text-anchor="middle" x="244" y="-386.5" font-family="FreeSans" font-size="10.00">madness/world/worldmem.h</text>
</a>
</g>
</g>
<!-- Node1&#45;&gt;Node3 -->
<g id="edge2_Node000001_Node000003" class="edge">
<title>Node1&#45;&gt;Node3</title>
<g id="a_edge2_Node000001_Node000003"><a xlink:title=" ">
<path fill="none" stroke="#63b8ff" d="M289.18,-439.87C281.19,-431.05 268.61,-417.16 258.74,-406.27"/>
<polygon fill="#63b8ff" stroke="#63b8ff" points="261.16,-403.73 251.85,-398.67 255.97,-408.43 261.16,-403.73"/>
</a>
</g>
</g>
<!-- Node4 -->
<g id="Node000004" class="node">
<title>Node4</title>
<g id="a_Node000004"><a xlink:href="formio_8h.html" target="_top" xlink:title=" ">
<polygon fill="white" stroke="#666666" points="547.5,-211.5 416.5,-211.5 416.5,-192.5 547.5,-192.5 547.5,-211.5"/>
<text text-anchor="middle" x="482" y="-199.5" font-family="FreeSans" font-size="10.00">mpqc/util/core/formio.h</text>
</a>
</g>
</g>
<!-- Node1&#45;&gt;Node4 -->
<g id="edge3_Node000001_Node000004" class="edge">
<title>Node1&#45;&gt;Node4</title>
<g id="a_edge3_Node000001_Node000004"><a xlink:title=" ">
<path fill="none" stroke="#63b8ff" d="M303.58,-439.76C330.61,-403.89 433.33,-267.59 469.39,-219.73"/>
<polygon fill="#63b8ff" stroke="#63b8ff" points="472.27,-221.73 475.49,-211.63 466.68,-217.51 472.27,-221.73"/>
</a>
</g>
</g>
<!-- Node11 -->
<g id="Node000011" class="node">
<title>Node11</title>
<g id="a_Node000011"><a xlink:href="external_2madworld_2default__madworld_8h.html" target="_top" xlink:title=" ">
<polygon fill="white" stroke="#666666" points="1614.5,-404 1445.5,-404 1445.5,-374 1614.5,-374 1614.5,-404"/>
<text text-anchor="start" x="1453.5" y="-392" font-family="FreeSans" font-size="10.00">mpqc/util/external</text>
<text text-anchor="middle" x="1530" y="-381" font-family="FreeSans" font-size="10.00">/madworld/default_madworld.h</text>
</a>
</g>
</g>
<!-- Node1&#45;&gt;Node11 -->
<g id="edge11_Node000001_Node000011" class="edge">
<title>Node1&#45;&gt;Node11</title>
<g id="a_edge11_Node000001_Node000011"><a xlink:title=" ">
<path fill="none" stroke="#63b8ff" d="M369.53,-445.06C581.1,-435.02 1197.6,-405.77 1435.14,-394.5"/>
<polygon fill="#63b8ff" stroke="#63b8ff" points="1435.32,-398 1445.14,-394.03 1434.99,-391 1435.32,-398"/>
</a>
</g>
</g>
<!-- Node5 -->
<g id="Node000005" class="node">
<title>Node5</title>
<g id="a_Node000005"><a xlink:title=" ">
<polygon fill="#e0e0e0" stroke="#999999" points="409,-145.5 361,-145.5 361,-126.5 409,-126.5 409,-145.5"/>
<text text-anchor="middle" x="385" y="-133.5" font-family="FreeSans" font-size="10.00">iosfwd</text>
</a>
</g>
</g>
<!-- Node4&#45;&gt;Node5 -->
<g id="edge4_Node000004_Node000005" class="edge">
<title>Node4&#45;&gt;Node5</title>
<g id="a_edge4_Node000004_Node000005"><a xlink:title=" ">
<path fill="none" stroke="#63b8ff" d="M468.92,-192.37C452.94,-181.82 425.67,-163.84 406.57,-151.23"/>
<polygon fill="#63b8ff" stroke="#63b8ff" points="408.46,-148.28 398.18,-145.7 404.6,-154.13 408.46,-148.28"/>
</a>
</g>
</g>
<!-- Node6 -->
<g id="Node000006" class="node">
<title>Node6</title>
<g id="a_Node000006"><a xlink:title=" ">
<polygon fill="#e0e0e0" stroke="#999999" points="343,-145.5 305,-145.5 305,-126.5 343,-126.5 343,-145.5"/>
<text text-anchor="middle" x="324" y="-133.5" font-family="FreeSans" font-size="10.00">map</text>
</a>
</g>
</g>
<!-- Node4&#45;&gt;Node6 -->
<g id="edge5_Node000004_Node000006" class="edge">
<title>Node4&#45;&gt;Node6</title>
<g id="a_edge5_Node000004_Node000006"><a xlink:title=" ">
<path fill="none" stroke="#63b8ff" d="M457.76,-192.47C431.43,-183.02 388.28,-167 352,-151 351.17,-150.64 350.34,-150.26 349.49,-149.87"/>
<polygon fill="#63b8ff" stroke="#63b8ff" points="350.99,-146.71 340.46,-145.56 347.97,-153.03 350.99,-146.71"/>
</a>
</g>
</g>
<!-- Node7 -->
<g id="Node000007" class="node">
<title>Node7</title>
<g id="a_Node000007"><a xlink:href="memory.html" target="_top" xlink:title=" ">
<polygon fill="white" stroke="#666666" points="609,-145.5 551,-145.5 551,-126.5 609,-126.5 609,-145.5"/>
<text text-anchor="middle" x="580" y="-133.5" font-family="FreeSans" font-size="10.00">memory</text>
</a>
</g>
</g>
<!-- Node4&#45;&gt;Node7 -->
<g id="edge6_Node000004_Node000007" class="edge">
<title>Node4&#45;&gt;Node7</title>
<g id="a_edge6_Node000004_Node000007"><a xlink:title=" ">
<path fill="none" stroke="#63b8ff" d="M495.22,-192.37C511.36,-181.82 538.91,-163.84 558.21,-151.23"/>
<polygon fill="#63b8ff" stroke="#63b8ff" points="560.22,-154.1 566.68,-145.7 556.39,-148.24 560.22,-154.1"/>
</a>
</g>
</g>
<!-- Node8 -->
<g id="Node000008" class="node">
<title>Node8</title>
<g id="a_Node000008"><a xlink:href="scope.html" target="_top" xlink:title=" ">
<polygon fill="white" stroke="#666666" points="533,-151 427,-151 427,-121 533,-121 533,-151"/>
<text text-anchor="start" x="435" y="-139" font-family="FreeSans" font-size="10.00">mpqc/util/external</text>
<text text-anchor="middle" x="480" y="-128" font-family="FreeSans" font-size="10.00">/c++/scope</text>
</a>
</g>
</g>
<!-- Node4&#45;&gt;Node8 -->
<g id="edge8_Node000004_Node000008" class="edge">
<title>Node4&#45;&gt;Node8</title>
<g id="a_edge8_Node000004_Node000008"><a xlink:title=" ">
<path fill="none" stroke="#63b8ff" d="M481.73,-192.37C481.48,-184.49 481.11,-172.45 480.77,-161.6"/>
<polygon fill="#63b8ff" stroke="#63b8ff" points="484.26,-161.25 480.45,-151.36 477.26,-161.46 484.26,-161.25"/>
</a>
</g>
</g>
<!-- Node7&#45;&gt;Node7 -->
<g id="edge7_Node000007_Node000007" class="edge">
<title>Node7&#45;&gt;Node7</title>
<g id="a_edge7_Node000007_Node000007"><a xlink:title=" ">
<path fill="none" stroke="#63b8ff" d="M594.92,-145.66C610.1,-151.34 627,-148.12 627,-136 627,-126.53 616.69,-122.5 604.93,-123.89"/>
<polygon fill="#63b8ff" stroke="#63b8ff" points="603.8,-120.57 594.92,-126.34 605.46,-127.37 603.8,-120.57"/>
</a>
</g>
</g>
<!-- Node9 -->
<g id="Node000009" class="node">
<title>Node9</title>
<g id="a_Node000009"><a xlink:title=" ">
<polygon fill="#e0e0e0" stroke="#999999" points="732.5,-79.5 615.5,-79.5 615.5,-60.5 732.5,-60.5 732.5,-79.5"/>
<text text-anchor="middle" x="674" y="-67.5" font-family="FreeSans" font-size="10.00">mpqc/mpqc_config.h</text>
</a>
</g>
</g>
<!-- Node8&#45;&gt;Node9 -->
<g id="edge9_Node000008_Node000009" class="edge">
<title>Node8&#45;&gt;Node9</title>
<g id="a_edge9_Node000008_Node000009"><a xlink:title=" ">
<path fill="none" stroke="#63b8ff" d="M522.57,-120.95C557.35,-109.48 605.91,-93.46 638.59,-82.68"/>
<polygon fill="#63b8ff" stroke="#63b8ff" points="639.78,-85.97 648.18,-79.52 637.59,-79.33 639.78,-85.97"/>
</a>
</g>
</g>
<!-- Node10 -->
<g id="Node000010" class="node">
<title>Node10</title>
<g id="a_Node000010"><a xlink:title=" ">
<polygon fill="#e0e0e0" stroke="#999999" points="502.5,-79.5 457.5,-79.5 457.5,-60.5 502.5,-60.5 502.5,-79.5"/>
<text text-anchor="middle" x="480" y="-67.5" font-family="FreeSans" font-size="10.00">utility</text>
</a>
</g>
</g>
<!-- Node8&#45;&gt;Node10 -->
<g id="edge10_Node000008_Node000010" class="edge">
<title>Node8&#45;&gt;Node10</title>
<g id="a_edge10_Node000008_Node000010"><a xlink:title=" ">
<path fill="none" stroke="#63b8ff" d="M480,-120.8C480,-111.7 480,-99.79 480,-89.9"/>
<polygon fill="#63b8ff" stroke="#63b8ff" points="483.5,-89.84 480,-79.84 476.5,-89.84 483.5,-89.84"/>
</a>
</g>
</g>
<!-- Node12 -->
<g id="Node000012" class="node">
<title>Node12</title>
<g id="a_Node000012"><a xlink:title=" ">
<polygon fill="#e0e0e0" stroke="#999999" points="1749,-338 1619,-338 1619,-319 1749,-319 1749,-338"/>
<text text-anchor="middle" x="1684" y="-326" font-family="FreeSans" font-size="10.00">madness/world/world.h</text>
</a>
</g>
</g>
<!-- Node11&#45;&gt;Node12 -->
<g id="edge12_Node000011_Node000012" class="edge">
<title>Node11&#45;&gt;Node12</title>
<g id="a_edge12_Node000011_Node000012"><a xlink:title=" ">
<path fill="none" stroke="#63b8ff" d="M1566.89,-373.99C1592.7,-364.18 1626.85,-351.21 1651.6,-341.81"/>
<polygon fill="#63b8ff" stroke="#63b8ff" points="1653.15,-344.96 1661.26,-338.14 1650.67,-338.42 1653.15,-344.96"/>
</a>
</g>
</g>
<!-- Node13 -->
<g id="Node000013" class="node">
<title>Node13</title>
<g id="a_Node000013"><a xlink:href="src_2mpqc_2util_2keyval_2keyval_8h.html" target="_top" xlink:title=" ">
<polygon fill="white" stroke="#666666" points="1601,-338 1459,-338 1459,-319 1601,-319 1601,-338"/>
<text text-anchor="middle" x="1530" y="-326" font-family="FreeSans" font-size="10.00">mpqc/util/keyval/keyval.h</text>
</a>
</g>
</g>
<!-- Node11&#45;&gt;Node13 -->
<g id="edge13_Node000011_Node000013" class="edge">
<title>Node11&#45;&gt;Node13</title>
<g id="a_edge13_Node000011_Node000013"><a xlink:title=" ">
<path fill="none" stroke="#63b8ff" d="M1530,-373.84C1530,-366.21 1530,-356.7 1530,-348.45"/>
<polygon fill="#63b8ff" stroke="#63b8ff" points="1533.5,-348.27 1530,-338.27 1526.5,-348.27 1533.5,-348.27"/>
</a>
</g>
</g>
<!-- Node13&#45;&gt;Node6 -->
<g id="edge20_Node000013_Node000006" class="edge">
<title>Node13&#45;&gt;Node6</title>
<g id="a_edge20_Node000013_Node000006"><a xlink:title=" ">
<path fill="none" stroke="#63b8ff" d="M1458.75,-326.48C1272.31,-323.43 773.34,-312.65 611,-283 517.26,-265.88 488.74,-265.99 407,-217 378.68,-200.02 352.38,-171.7 337.27,-153.7"/>
<polygon fill="#63b8ff" stroke="#63b8ff" points="339.83,-151.31 330.79,-145.8 334.42,-155.75 339.83,-151.31"/>
</a>
</g>
</g>
<!-- Node13&#45;&gt;Node7 -->
<g id="edge21_Node000013_Node000007" class="edge">
<title>Node13&#45;&gt;Node7</title>
<g id="a_edge21_Node000013_Node000007"><a xlink:title=" ">
<path fill="none" stroke="#63b8ff" d="M1458.89,-326C1253.9,-321.4 674.27,-306.38 641,-283 598.76,-253.32 585.66,-188.54 581.69,-156.19"/>
<polygon fill="#63b8ff" stroke="#63b8ff" points="585.13,-155.44 580.6,-145.86 578.17,-156.17 585.13,-155.44"/>
</a>
</g>
</g>
<!-- Node13&#45;&gt;Node9 -->
<g id="edge27_Node000013_Node000009" class="edge">
<title>Node13&#45;&gt;Node9</title>
<g id="a_edge27_Node000013_Node000009"><a xlink:title=" ">
<path fill="none" stroke="#63b8ff" d="M1458.88,-326.4C1305.03,-323.46 945.71,-313.47 828,-283 761.79,-265.86 732.89,-269.44 689,-217 658.69,-180.79 664.4,-120.49 669.87,-89.96"/>
<polygon fill="#63b8ff" stroke="#63b8ff" points="673.37,-90.32 671.87,-79.83 666.5,-88.96 673.37,-90.32"/>
</a>
</g>
</g>
<!-- Node14 -->
<g id="Node000014" class="node">
<title>Node14</title>
<g id="a_Node000014"><a xlink:title=" ">
<polygon fill="#e0e0e0" stroke="#999999" points="1210,-79.5 1168,-79.5 1168,-60.5 1210,-60.5 1210,-79.5"/>
<text text-anchor="middle" x="1189" y="-67.5" font-family="FreeSans" font-size="10.00">array</text>
</a>
</g>
</g>
<!-- Node13&#45;&gt;Node14 -->
<g id="edge14_Node000013_Node000014" class="edge">
<title>Node13&#45;&gt;Node14</title>
<g id="a_edge14_Node000013_Node000014"><a xlink:title=" ">
<path fill="none" stroke="#63b8ff" d="M1458.78,-323.27C1363.06,-316.85 1202.77,-303.21 1185,-283 1165.52,-260.85 1189.17,-246.36 1192,-217 1196.38,-171.51 1193.11,-117.7 1190.78,-89.84"/>
<polygon fill="#63b8ff" stroke="#63b8ff" points="1194.24,-89.23 1189.87,-79.58 1187.27,-89.85 1194.24,-89.23"/>
</a>
</g>
</g>
<!-- Node15 -->
<g id="Node000015" class="node">
<title>Node15</title>
<g id="a_Node000015"><a xlink:title=" ">
<polygon fill="#e0e0e0" stroke="#999999" points="1418,-277.5 1366,-277.5 1366,-258.5 1418,-258.5 1418,-277.5"/>
<text text-anchor="middle" x="1392" y="-265.5" font-family="FreeSans" font-size="10.00">cassert</text>
</a>
</g>
</g>
<!-- Node13&#45;&gt;Node15 -->
<g id="edge15_Node000013_Node000015" class="edge">
<title>Node13&#45;&gt;Node15</title>
<g id="a_edge15_Node000013_Node000015"><a xlink:title=" ">
<path fill="none" stroke="#63b8ff" d="M1509.93,-318.99C1486.63,-309.12 1447.99,-292.73 1421.32,-281.43"/>
<polygon fill="#63b8ff" stroke="#63b8ff" points="1422.66,-278.2 1412.09,-277.52 1419.93,-284.64 1422.66,-278.2"/>
</a>
</g>
</g>
<!-- Node16 -->
<g id="Node000016" class="node">
<title>Node16</title>
<g id="a_Node000016"><a xlink:title=" ">
<polygon fill="#e0e0e0" stroke="#999999" points="1495.5,-277.5 1436.5,-277.5 1436.5,-258.5 1495.5,-258.5 1495.5,-277.5"/>
<text text-anchor="middle" x="1466" y="-265.5" font-family="FreeSans" font-size="10.00">complex</text>
</a>
</g>
</g>
<!-- Node13&#45;&gt;Node16 -->
<g id="edge16_Node000013_Node000016" class="edge">
<title>Node13&#45;&gt;Node16</title>
<g id="a_edge16_Node000013_Node000016"><a xlink:title=" ">
<path fill="none" stroke="#63b8ff" d="M1520.56,-318.87C1510.73,-309.88 1495.11,-295.61 1483.11,-284.64"/>
<polygon fill="#63b8ff" stroke="#63b8ff" points="1485.22,-281.83 1475.48,-277.67 1480.5,-287 1485.22,-281.83"/>
</a>
</g>
</g>
<!-- Node17 -->
<g id="Node000017" class="node">
<title>Node17</title>
<g id="a_Node000017"><a xlink:title=" ">
<polygon fill="#e0e0e0" stroke="#999999" points="1044,-211.5 984,-211.5 984,-192.5 1044,-192.5 1044,-211.5"/>
<text text-anchor="middle" x="1014" y="-199.5" font-family="FreeSans" font-size="10.00">iostream</text>
</a>
</g>
</g>
<!-- Node13&#45;&gt;Node17 -->
<g id="edge17_Node000013_Node000017" class="edge">
<title>Node13&#45;&gt;Node17</title>
<g id="a_edge17_Node000013_Node000017"><a xlink:title=" ">
<path fill="none" stroke="#63b8ff" d="M1458.95,-325.01C1355.82,-320.55 1170.28,-309.1 1109,-283 1075.45,-268.71 1044.77,-238.39 1027.81,-219.46"/>
<polygon fill="#63b8ff" stroke="#63b8ff" points="1030.23,-216.9 1021.02,-211.66 1024.95,-221.5 1030.23,-216.9"/>
</a>
</g>
</g>
<!-- Node18 -->
<g id="Node000018" class="node">
<title>Node18</title>
<g id="a_Node000018"><a xlink:title=" ">
<polygon fill="#e0e0e0" stroke="#999999" points="1546,-277.5 1514,-277.5 1514,-258.5 1546,-258.5 1546,-277.5"/>
<text text-anchor="middle" x="1530" y="-265.5" font-family="FreeSans" font-size="10.00">list</text>
</a>
</g>
</g>
<!-- Node13&#45;&gt;Node18 -->
<g id="edge18_Node000013_Node000018" class="edge">
<title>Node13&#45;&gt;Node18</title>
<g id="a_edge18_Node000013_Node000018"><a xlink:title=" ">
<path fill="none" stroke="#63b8ff" d="M1530,-318.87C1530,-310.75 1530,-298.31 1530,-287.89"/>
<polygon fill="#63b8ff" stroke="#63b8ff" points="1533.5,-287.67 1530,-277.67 1526.5,-287.67 1533.5,-287.67"/>
</a>
</g>
</g>
<!-- Node19 -->
<g id="Node000019" class="node">
<title>Node19</title>
<g id="a_Node000019"><a xlink:title=" ">
<polygon fill="#e0e0e0" stroke="#999999" points="1610,-277.5 1564,-277.5 1564,-258.5 1610,-258.5 1610,-277.5"/>
<text text-anchor="middle" x="1587" y="-265.5" font-family="FreeSans" font-size="10.00">locale</text>
</a>
</g>
</g>
<!-- Node13&#45;&gt;Node19 -->
<g id="edge19_Node000013_Node000019" class="edge">
<title>Node13&#45;&gt;Node19</title>
<g id="a_edge19_Node000013_Node000019"><a xlink:title=" ">
<path fill="none" stroke="#63b8ff" d="M1538.41,-318.87C1547.08,-309.97 1560.8,-295.89 1571.46,-284.95"/>
<polygon fill="#63b8ff" stroke="#63b8ff" points="1574.08,-287.27 1578.55,-277.67 1569.07,-282.39 1574.08,-287.27"/>
</a>
</g>
</g>
<!-- Node20 -->
<g id="Node000020" class="node">
<title>Node20</title>
<g id="a_Node000020"><a xlink:title=" ">
<polygon fill="#e0e0e0" stroke="#999999" points="1118,-211.5 1062,-211.5 1062,-192.5 1118,-192.5 1118,-211.5"/>
<text text-anchor="middle" x="1090" y="-199.5" font-family="FreeSans" font-size="10.00">optional</text>
</a>
</g>
</g>
<!-- Node13&#45;&gt;Node20 -->
<g id="edge22_Node000013_Node000020" class="edge">
<title>Node13&#45;&gt;Node20</title>
<g id="a_edge22_Node000013_Node000020"><a xlink:title=" ">
<path fill="none" stroke="#63b8ff" d="M1458.97,-326.67C1361.23,-324.31 1191.51,-315.5 1140,-283 1117.32,-268.69 1103.19,-239.95 1095.96,-221.1"/>
<polygon fill="#63b8ff" stroke="#63b8ff" points="1099.22,-219.8 1092.56,-211.56 1092.62,-222.15 1099.22,-219.8"/>
</a>
</g>
</g>
<!-- Node21 -->
<g id="Node000021" class="node">
<title>Node21</title>
<g id="a_Node000021"><a xlink:title=" ">
<polygon fill="#e0e0e0" stroke="#999999" points="1693.5,-277.5 1628.5,-277.5 1628.5,-258.5 1693.5,-258.5 1693.5,-277.5"/>
<text text-anchor="middle" x="1661" y="-265.5" font-family="FreeSans" font-size="10.00">stdexcept</text>
</a>
</g>
</g>
<!-- Node13&#45;&gt;Node21 -->
<g id="edge23_Node000013_Node000021" class="edge">
<title>Node13&#45;&gt;Node21</title>
<g id="a_edge23_Node000013_Node000021"><a xlink:title=" ">
<path fill="none" stroke="#63b8ff" d="M1549.05,-318.99C1570.97,-309.2 1607.21,-293.02 1632.5,-281.73"/>
<polygon fill="#63b8ff" stroke="#63b8ff" points="1634.22,-284.79 1641.93,-277.52 1631.37,-278.4 1634.22,-284.79"/>
</a>
</g>
</g>
<!-- Node22 -->
<g id="Node000022" class="node">
<title>Node22</title>
<g id="a_Node000022"><a xlink:title=" ">
<polygon fill="#e0e0e0" stroke="#999999" points="1756,-277.5 1712,-277.5 1712,-258.5 1756,-258.5 1756,-277.5"/>
<text text-anchor="middle" x="1734" y="-265.5" font-family="FreeSans" font-size="10.00">string</text>
</a>
</g>
</g>
<!-- Node13&#45;&gt;Node22 -->
<g id="edge24_Node000013_Node000022" class="edge">
<title>Node13&#45;&gt;Node22</title>
<g id="a_edge24_Node000013_Node000022"><a xlink:title=" ">
<path fill="none" stroke="#63b8ff" d="M1571.49,-318.94C1606.92,-311.14 1658.97,-298.48 1703,-283 1704.39,-282.51 1705.81,-281.98 1707.23,-281.43"/>
<polygon fill="#63b8ff" stroke="#63b8ff" points="1708.65,-284.63 1716.51,-277.53 1705.93,-278.18 1708.65,-284.63"/>
</a>
</g>
</g>
<!-- Node23 -->
<g id="Node000023" class="node">
<title>Node23</title>
<g id="a_Node000023"><a xlink:title=" ">
<polygon fill="#e0e0e0" stroke="#999999" points="1183.5,-211.5 1136.5,-211.5 1136.5,-192.5 1183.5,-192.5 1183.5,-211.5"/>
<text text-anchor="middle" x="1160" y="-199.5" font-family="FreeSans" font-size="10.00">vector</text>
</a>
</g>
</g>
<!-- Node13&#45;&gt;Node23 -->
<g id="edge25_Node000013_Node000023" class="edge">
<title>Node13&#45;&gt;Node23</title>
<g id="a_edge25_Node000013_Node000023"><a xlink:title=" ">
<path fill="none" stroke="#63b8ff" d="M1458.94,-324.15C1355.11,-318.52 1172.01,-305.5 1152,-283 1137.11,-266.26 1144.04,-239.06 1151.28,-221.1"/>
<polygon fill="#63b8ff" stroke="#63b8ff" points="1154.57,-222.31 1155.41,-211.74 1148.17,-219.48 1154.57,-222.31"/>
</a>
</g>
</g>
<!-- Node24 -->
<g id="Node000024" class="node">
<title>Node24</title>
<g id="a_Node000024"><a xlink:title=" ">
<polygon fill="#e0e0e0" stroke="#999999" points="1914,-277.5 1774,-277.5 1774,-258.5 1914,-258.5 1914,-277.5"/>
<text text-anchor="middle" x="1844" y="-265.5" font-family="FreeSans" font-size="10.00">boost/core/demangle.hpp</text>
</a>
</g>
</g>
<!-- Node13&#45;&gt;Node24 -->
<g id="edge26_Node000013_Node000024" class="edge">
<title>Node13&#45;&gt;Node24</title>
<g id="a_edge26_Node000013_Node000024"><a xlink:title=" ">
<path fill="none" stroke="#63b8ff" d="M1575.66,-318.99C1631.93,-308.51 1727.53,-290.7 1788.13,-279.41"/>
<polygon fill="#63b8ff" stroke="#63b8ff" points="1789.1,-282.79 1798.29,-277.52 1787.81,-275.91 1789.1,-282.79"/>
</a>
</g>
</g>
<!-- Node25 -->
<g id="Node000025" class="node">
<title>Node25</title>
<g id="a_Node000025"><a xlink:title=" ">
<polygon fill="#e0e0e0" stroke="#999999" points="2054,-283 1932,-283 1932,-253 2054,-253 2054,-283"/>
<text text-anchor="start" x="1940" y="-271" font-family="FreeSans" font-size="10.00">boost/container/small</text>
<text text-anchor="middle" x="1993" y="-260" font-family="FreeSans" font-size="10.00">_vector.hpp</text>
</a>
</g>
</g>
<!-- Node13&#45;&gt;Node25 -->
<g id="edge28_Node000013_Node000025" class="edge">
<title>Node13&#45;&gt;Node25</title>
<g id="a_edge28_Node000013_Node000025"><a xlink:title=" ">
<path fill="none" stroke="#63b8ff" d="M1601.36,-319.75C1698.86,-309.12 1867.03,-290.59 1921.82,-283.01"/>
<polygon fill="#63b8ff" stroke="#63b8ff" points="1922.58,-286.43 1931.97,-281.52 1921.57,-279.51 1922.58,-286.43"/>
</a>
</g>
</g>
<!-- Node26 -->
<g id="Node000026" class="node">
<title>Node26</title>
<g id="a_Node000026"><a xlink:title=" ">
<polygon fill="#e0e0e0" stroke="#999999" points="2185.5,-283 2072.5,-283 2072.5,-253 2185.5,-253 2185.5,-283"/>
<text text-anchor="start" x="2080.5" y="-271" font-family="FreeSans" font-size="10.00">boost/property_tree</text>
<text text-anchor="middle" x="2129" y="-260" font-family="FreeSans" font-size="10.00">/info_parser.hpp</text>
</a>
</g>
</g>
<!-- Node13&#45;&gt;Node26 -->
<g id="edge29_Node000013_Node000026" class="edge">
<title>Node13&#45;&gt;Node26</title>
<g id="a_edge29_Node000013_Node000026"><a xlink:title=" ">
<path fill="none" stroke="#63b8ff" d="M1601.09,-319.85C1604.1,-319.56 1607.08,-319.27 1610,-319 1807.86,-300.63 1861.41,-311.65 2062.22,-282.98"/>
<polygon fill="#63b8ff" stroke="#63b8ff" points="2062.8,-286.43 2072.2,-281.54 2061.8,-279.5 2062.8,-286.43"/>
</a>
</g>
</g>
<!-- Node27 -->
<g id="Node000027" class="node">
<title>Node27</title>
<g id="a_Node000027"><a xlink:title=" ">
<polygon fill="#e0e0e0" stroke="#999999" points="2316.5,-283 2203.5,-283 2203.5,-253 2316.5,-253 2316.5,-283"/>
<text text-anchor="start" x="2211.5" y="-271" font-family="FreeSans" font-size="10.00">boost/property_tree</text>
<text text-anchor="middle" x="2260" y="-260" font-family="FreeSans" font-size="10.00">/json_parser.hpp</text>
</a>
</g>
</g>
<!-- Node13&#45;&gt;Node27 -->
<g id="edge30_Node000013_Node000027" class="edge">
<title>Node13&#45;&gt;Node27</title>
<g id="a_edge30_Node000013_Node000027"><a xlink:title=" ">
<path fill="none" stroke="#63b8ff" d="M1601.08,-319.78C1604.1,-319.51 1607.08,-319.25 1610,-319 1866.29,-297.51 1935.2,-317.99 2193.32,-283.1"/>
<polygon fill="#63b8ff" stroke="#63b8ff" points="2193.94,-286.54 2203.37,-281.72 2192.99,-279.61 2193.94,-286.54"/>
</a>
</g>
</g>
<!-- Node28 -->
<g id="Node000028" class="node">
<title>Node28</title>
<g id="a_Node000028"><a xlink:title=" ">
<polygon fill="#e0e0e0" stroke="#999999" points="2447.5,-283 2334.5,-283 2334.5,-253 2447.5,-253 2447.5,-283"/>
<text text-anchor="start" x="2342.5" y="-271" font-family="FreeSans" font-size="10.00">boost/property_tree</text>
<text text-anchor="middle" x="2391" y="-260" font-family="FreeSans" font-size="10.00">/ptree.hpp</text>
</a>
</g>
</g>
<!-- Node13&#45;&gt;Node28 -->
<g id="edge31_Node000013_Node000028" class="edge">
<title>Node13&#45;&gt;Node28</title>
<g id="a_edge31_Node000013_Node000028"><a xlink:title=" ">
<path fill="none" stroke="#63b8ff" d="M1601.08,-319.74C1604.09,-319.48 1607.08,-319.23 1610,-319 1924.24,-294.43 2008.32,-324.03 2324.01,-283.12"/>
<polygon fill="#63b8ff" stroke="#63b8ff" points="2324.91,-286.53 2334.37,-281.76 2324,-279.59 2324.91,-286.53"/>
</a>
</g>
</g>
<!-- Node29 -->
<g id="Node000029" class="node">
<title>Node29</title>
<g id="a_Node000029"><a xlink:title=" ">
<polygon fill="#e0e0e0" stroke="#999999" points="2578.5,-283 2465.5,-283 2465.5,-253 2578.5,-253 2578.5,-283"/>
<text text-anchor="start" x="2473.5" y="-271" font-family="FreeSans" font-size="10.00">boost/property_tree</text>
<text text-anchor="middle" x="2522" y="-260" font-family="FreeSans" font-size="10.00">/xml_parser.hpp</text>
</a>
</g>
</g>
<!-- Node13&#45;&gt;Node29 -->
<g id="edge32_Node000013_Node000029" class="edge">
<title>Node13&#45;&gt;Node29</title>
<g id="a_edge32_Node000013_Node000029"><a xlink:title=" ">
<path fill="none" stroke="#63b8ff" d="M1601.08,-319.71C1604.09,-319.46 1607.07,-319.22 1610,-319 1982.45,-291.33 2081.53,-330.15 2455.37,-283.06"/>
<polygon fill="#63b8ff" stroke="#63b8ff" points="2455.9,-286.52 2465.38,-281.79 2455.02,-279.58 2455.9,-286.52"/>
</a>
</g>
</g>
<!-- Node30 -->
<g id="Node000030" class="node">
<title>Node30</title>
<g id="a_Node000030"><a xlink:title=" ">
<polygon fill="#e0e0e0" stroke="#999999" points="2703.5,-283 2596.5,-283 2596.5,-253 2703.5,-253 2703.5,-283"/>
<text text-anchor="start" x="2604.5" y="-271" font-family="FreeSans" font-size="10.00">boost/serialization</text>
<text text-anchor="middle" x="2650" y="-260" font-family="FreeSans" font-size="10.00">/export.hpp</text>
</a>
</g>
</g>
<!-- Node13&#45;&gt;Node30 -->
<g id="edge33_Node000013_Node000030" class="edge">
<title>Node13&#45;&gt;Node30</title>
<g id="a_edge33_Node000013_Node000030"><a xlink:title=" ">
<path fill="none" stroke="#63b8ff" d="M1601.08,-319.69C1604.09,-319.44 1607.07,-319.21 1610,-319 2040.57,-288.24 2154.95,-338.37 2586.41,-283.04"/>
<polygon fill="#63b8ff" stroke="#63b8ff" points="2586.87,-286.51 2596.34,-281.76 2585.97,-279.57 2586.87,-286.51"/>
</a>
</g>
</g>
<!-- Node31 -->
<g id="Node000031" class="node">
<title>Node31</title>
<g id="a_Node000031"><a xlink:href="exenv_8h.html" target="_top" xlink:title=" ">
<polygon fill="white" stroke="#666666" points="964.5,-277.5 837.5,-277.5 837.5,-258.5 964.5,-258.5 964.5,-277.5"/>
<text text-anchor="middle" x="901" y="-265.5" font-family="FreeSans" font-size="10.00">mpqc/util/core/exenv.h</text>
</a>
</g>
</g>
<!-- Node13&#45;&gt;Node31 -->
<g id="edge34_Node000013_Node000031" class="edge">
<title>Node13&#45;&gt;Node31</title>
<g id="a_edge34_Node000013_Node000031"><a xlink:title=" ">
<path fill="none" stroke="#63b8ff" d="M1458.84,-322.01C1360.05,-314.22 1175.79,-299.12 1019,-283 1004.66,-281.53 989.36,-279.81 974.69,-278.1"/>
<polygon fill="#63b8ff" stroke="#63b8ff" points="974.99,-274.61 964.65,-276.92 974.17,-281.57 974.99,-274.61"/>
</a>
</g>
</g>
<!-- Node36 -->
<g id="Node000036" class="node">
<title>Node36</title>
<g id="a_Node000036"><a xlink:href="util_2keyval_2fwd_8h.html" target="_top" xlink:title=" ">
<polygon fill="white" stroke="#666666" points="2848.5,-277.5 2721.5,-277.5 2721.5,-258.5 2848.5,-258.5 2848.5,-277.5"/>
<text text-anchor="middle" x="2785" y="-265.5" font-family="FreeSans" font-size="10.00">mpqc/util/keyval/fwd.h</text>
</a>
</g>
</g>
<!-- Node13&#45;&gt;Node36 -->
<g id="edge46_Node000013_Node000036" class="edge">
<title>Node13&#45;&gt;Node36</title>
<g id="a_edge46_Node000013_Node000036"><a xlink:title=" ">
<path fill="none" stroke="#63b8ff" d="M1601.08,-319.68C1604.09,-319.43 1607.07,-319.2 1610,-319 2099.31,-285.07 2225.61,-337.98 2713,-283 2720.83,-282.12 2729.08,-280.84 2737.09,-279.42"/>
<polygon fill="#63b8ff" stroke="#63b8ff" points="2737.88,-282.83 2747.06,-277.55 2736.59,-275.95 2737.88,-282.83"/>
</a>
</g>
</g>
<!-- Node37 -->
<g id="Node000037" class="node">
<title>Node37</title>
<g id="a_Node000037"><a xlink:href="predicates_8h.html" target="_top" xlink:title=" ">
<polygon fill="white" stroke="#666666" points="1348,-277.5 1194,-277.5 1194,-258.5 1348,-258.5 1348,-277.5"/>
<text text-anchor="middle" x="1271" y="-265.5" font-family="FreeSans" font-size="10.00">mpqc/util/meta/predicates.h</text>
</a>
</g>
</g>
<!-- Node13&#45;&gt;Node37 -->
<g id="edge47_Node000013_Node000037" class="edge">
<title>Node13&#45;&gt;Node37</title>
<g id="a_edge47_Node000013_Node000037"><a xlink:title=" ">
<path fill="none" stroke="#63b8ff" d="M1492.34,-318.99C1446.4,-308.62 1368.69,-291.07 1318.64,-279.76"/>
<polygon fill="#63b8ff" stroke="#63b8ff" points="1319.23,-276.31 1308.71,-277.52 1317.69,-283.13 1319.23,-276.31"/>
</a>
</g>
</g>
<!-- Node44 -->
<g id="Node000044" class="node">
<title>Node44</title>
<g id="a_Node000044"><a xlink:href="stream_8h.html" target="_top" xlink:title=" ">
<polygon fill="white" stroke="#666666" points="3003.5,-277.5 2866.5,-277.5 2866.5,-258.5 3003.5,-258.5 3003.5,-277.5"/>
<text text-anchor="middle" x="2935" y="-265.5" font-family="FreeSans" font-size="10.00">mpqc/util/meta/stream.h</text>
</a>
</g>
</g>
<!-- Node13&#45;&gt;Node44 -->
<g id="edge57_Node000013_Node000044" class="edge">
<title>Node13&#45;&gt;Node44</title>
<g id="a_edge57_Node000013_Node000044"><a xlink:title=" ">
<path fill="none" stroke="#63b8ff" d="M1601.08,-319.66C1604.09,-319.42 1607.07,-319.2 1610,-319 2163.64,-281.66 2306.12,-340.8 2858,-283 2866.55,-282.1 2875.57,-280.8 2884.31,-279.34"/>
<polygon fill="#63b8ff" stroke="#63b8ff" points="2885.16,-282.74 2894.4,-277.57 2883.95,-275.85 2885.16,-282.74"/>
</a>
</g>
</g>
<!-- Node31&#45;&gt;Node4 -->
<g id="edge39_Node000031_Node000004" class="edge">
<title>Node31&#45;&gt;Node4</title>
<g id="a_edge39_Node000031_Node000004"><a xlink:title=" ">
<path fill="none" stroke="#63b8ff" d="M844.93,-258.44C767.86,-246.66 629.49,-225.53 547.67,-213.03"/>
<polygon fill="#63b8ff" stroke="#63b8ff" points="548.16,-209.56 537.74,-211.51 547.1,-216.48 548.16,-209.56"/>
</a>
</g>
</g>
<!-- Node31&#45;&gt;Node7 -->
<g id="edge42_Node000031_Node000007" class="edge">
<title>Node31&#45;&gt;Node7</title>
<g id="a_edge42_Node000031_Node000007"><a xlink:title=" ">
<path fill="none" stroke="#63b8ff" d="M837.21,-260.48C791.4,-253.96 729.15,-241.26 679,-217 645.53,-200.81 613.3,-171.35 595.13,-153.05"/>
<polygon fill="#63b8ff" stroke="#63b8ff" points="597.29,-150.26 587.82,-145.52 592.27,-155.13 597.29,-150.26"/>
</a>
</g>
</g>
<!-- Node31&#45;&gt;Node9 -->
<g id="edge38_Node000031_Node000009" class="edge">
<title>Node31&#45;&gt;Node9</title>
<g id="a_edge38_Node000031_Node000009"><a xlink:title=" ">
<path fill="none" stroke="#63b8ff" d="M837.27,-265.94C796.26,-261.86 744.69,-249.83 712,-217 677.58,-182.44 673.13,-120.91 673.26,-89.93"/>
<polygon fill="#63b8ff" stroke="#63b8ff" points="676.76,-89.75 673.48,-79.67 669.77,-89.6 676.76,-89.75"/>
</a>
</g>
</g>
<!-- Node31&#45;&gt;Node17 -->
<g id="edge41_Node000031_Node000017" class="edge">
<title>Node31&#45;&gt;Node17</title>
<g id="a_edge41_Node000031_Node000017"><a xlink:title=" ">
<path fill="none" stroke="#63b8ff" d="M916.24,-258.37C935.11,-247.68 967.48,-229.35 989.77,-216.72"/>
<polygon fill="#63b8ff" stroke="#63b8ff" points="991.66,-219.67 998.64,-211.7 988.21,-213.58 991.66,-219.67"/>
</a>
</g>
</g>
<!-- Node31&#45;&gt;Node20 -->
<g id="edge43_Node000031_Node000020" class="edge">
<title>Node31&#45;&gt;Node20</title>
<g id="a_edge43_Node000031_Node000020"><a xlink:title=" ">
<path fill="none" stroke="#63b8ff" d="M928.31,-258.42C958.82,-248.73 1009.65,-232.32 1053,-217 1054.65,-216.42 1056.33,-215.81 1058.03,-215.2"/>
<polygon fill="#63b8ff" stroke="#63b8ff" points="1059.59,-218.35 1067.75,-211.6 1057.16,-211.79 1059.59,-218.35"/>
</a>
</g>
</g>
<!-- Node31&#45;&gt;Node23 -->
<g id="edge45_Node000031_Node000023" class="edge">
<title>Node31&#45;&gt;Node23</title>
<g id="a_edge45_Node000031_Node000023"><a xlink:title=" ">
<path fill="none" stroke="#63b8ff" d="M951.97,-258.49C998.24,-250.11 1068.06,-235.85 1127,-217 1128.63,-216.48 1130.29,-215.91 1131.96,-215.3"/>
<polygon fill="#63b8ff" stroke="#63b8ff" points="1133.35,-218.52 1141.38,-211.6 1130.79,-212 1133.35,-218.52"/>
</a>
</g>
</g>
<!-- Node32 -->
<g id="Node000032" class="node">
<title>Node32</title>
<g id="a_Node000032"><a xlink:href="math_2external_2tiledarray_2fwd_8h.html" target="_top" xlink:title=" ">
<polygon fill="white" stroke="#666666" points="837,-217 721,-217 721,-187 837,-187 837,-217"/>
<text text-anchor="start" x="729" y="-205" font-family="FreeSans" font-size="10.00">mpqc/math/external</text>
<text text-anchor="middle" x="779" y="-194" font-family="FreeSans" font-size="10.00">/tiledarray/fwd.h</text>
</a>
</g>
</g>
<!-- Node31&#45;&gt;Node32 -->
<g id="edge35_Node000031_Node000032" class="edge">
<title>Node31&#45;&gt;Node32</title>
<g id="a_edge35_Node000031_Node000032"><a xlink:title=" ">
<path fill="none" stroke="#63b8ff" d="M884.55,-258.37C866.83,-249.07 838.08,-233.99 815.05,-221.91"/>
<polygon fill="#63b8ff" stroke="#63b8ff" points="816.39,-218.66 805.91,-217.12 813.14,-224.86 816.39,-218.66"/>
</a>
</g>
</g>
<!-- Node34 -->
<g id="Node000034" class="node">
<title>Node34</title>
<g id="a_Node000034"><a xlink:title=" ">
<polygon fill="#e0e0e0" stroke="#999999" points="904.5,-211.5 855.5,-211.5 855.5,-192.5 904.5,-192.5 904.5,-211.5"/>
<text text-anchor="middle" x="880" y="-199.5" font-family="FreeSans" font-size="10.00">cstdlib</text>
</a>
</g>
</g>
<!-- Node31&#45;&gt;Node34 -->
<g id="edge40_Node000031_Node000034" class="edge">
<title>Node31&#45;&gt;Node34</title>
<g id="a_edge40_Node000031_Node000034"><a xlink:title=" ">
<path fill="none" stroke="#63b8ff" d="M898.17,-258.37C895.09,-248.97 890.06,-233.67 886.08,-221.53"/>
<polygon fill="#63b8ff" stroke="#63b8ff" points="889.37,-220.32 882.92,-211.91 882.71,-222.5 889.37,-220.32"/>
</a>
</g>
</g>
<!-- Node35 -->
<g id="Node000035" class="node">
<title>Node35</title>
<g id="a_Node000035"><a xlink:title=" ">
<polygon fill="#e0e0e0" stroke="#999999" points="965.5,-211.5 922.5,-211.5 922.5,-192.5 965.5,-192.5 965.5,-211.5"/>
<text text-anchor="middle" x="944" y="-199.5" font-family="FreeSans" font-size="10.00">stack</text>
</a>
</g>
</g>
<!-- Node31&#45;&gt;Node35 -->
<g id="edge44_Node000031_Node000035" class="edge">
<title>Node31&#45;&gt;Node35</title>
<g id="a_edge44_Node000031_Node000035"><a xlink:title=" ">
<path fill="none" stroke="#63b8ff" d="M906.8,-258.37C913.3,-248.69 924.02,-232.74 932.28,-220.44"/>
<polygon fill="#63b8ff" stroke="#63b8ff" points="935.35,-222.16 938.02,-211.91 929.53,-218.25 935.35,-222.16"/>
</a>
</g>
</g>
<!-- Node32&#45;&gt;Node9 -->
<g id="edge36_Node000032_Node000009" class="edge">
<title>Node32&#45;&gt;Node9</title>
<g id="a_edge36_Node000032_Node000009"><a xlink:title=" ">
<path fill="none" stroke="#63b8ff" d="M767.56,-186.84C748.07,-162.71 708.49,-113.71 687.61,-87.85"/>
<polygon fill="#63b8ff" stroke="#63b8ff" points="690.07,-85.33 681.07,-79.75 684.63,-89.73 690.07,-85.33"/>
</a>
</g>
</g>
<!-- Node33 -->
<g id="Node000033" class="node">
<title>Node33</title>
<g id="a_Node000033"><a xlink:title=" ">
<polygon fill="#e0e0e0" stroke="#999999" points="854.5,-145.5 759.5,-145.5 759.5,-126.5 854.5,-126.5 854.5,-145.5"/>
<text text-anchor="middle" x="807" y="-133.5" font-family="FreeSans" font-size="10.00">tiledarray_fwd.h</text>
</a>
</g>
</g>
<!-- Node32&#45;&gt;Node33 -->
<g id="edge37_Node000032_Node000033" class="edge">
<title>Node32&#45;&gt;Node33</title>
<g id="a_edge37_Node000032_Node000033"><a xlink:title=" ">
<path fill="none" stroke="#63b8ff" d="M785.21,-186.8C789.28,-177.5 794.63,-165.27 799.01,-155.26"/>
<polygon fill="#63b8ff" stroke="#63b8ff" points="802.33,-156.41 803.13,-145.84 795.92,-153.6 802.33,-156.41"/>
</a>
</g>
</g>
<!-- Node38 -->
<g id="Node000038" class="node">
<title>Node38</title>
<g id="a_Node000038"><a xlink:href="get__type_8h.html" target="_top" xlink:title=" ">
<polygon fill="white" stroke="#666666" points="1362,-217 1252,-217 1252,-187 1362,-187 1362,-217"/>
<text text-anchor="start" x="1260" y="-205" font-family="FreeSans" font-size="10.00">mpqc/util/meta/get</text>
<text text-anchor="middle" x="1307" y="-194" font-family="FreeSans" font-size="10.00">_type.h</text>
</a>
</g>
</g>
<!-- Node37&#45;&gt;Node38 -->
<g id="edge48_Node000037_Node000038" class="edge">
<title>Node37&#45;&gt;Node38</title>
<g id="a_edge48_Node000037_Node000038"><a xlink:title=" ">
<path fill="none" stroke="#63b8ff" d="M1275.86,-258.37C1280.47,-250.16 1287.63,-237.44 1293.92,-226.26"/>
<polygon fill="#63b8ff" stroke="#63b8ff" points="1297.07,-227.79 1298.92,-217.36 1290.97,-224.36 1297.07,-227.79"/>
</a>
</g>
</g>
<!-- Node39 -->
<g id="Node000039" class="node">
<title>Node39</title>
<g id="a_Node000039"><a xlink:href="type__traits_8h.html" target="_top" xlink:title=" ">
<polygon fill="white" stroke="#666666" points="1358,-145.5 1280,-145.5 1280,-126.5 1358,-126.5 1358,-145.5"/>
<text text-anchor="middle" x="1319" y="-133.5" font-family="FreeSans" font-size="10.00">type_traits.h</text>
</a>
</g>
</g>
<!-- Node38&#45;&gt;Node39 -->
<g id="edge49_Node000038_Node000039" class="edge">
<title>Node38&#45;&gt;Node39</title>
<g id="a_edge49_Node000038_Node000039"><a xlink:title=" ">
<path fill="none" stroke="#63b8ff" d="M1309.66,-186.8C1311.37,-177.7 1313.6,-165.79 1315.46,-155.9"/>
<polygon fill="#63b8ff" stroke="#63b8ff" points="1318.94,-156.32 1317.34,-145.84 1312.06,-155.03 1318.94,-156.32"/>
</a>
</g>
</g>
<!-- Node39&#45;&gt;Node14 -->
<g id="edge50_Node000039_Node000014" class="edge">
<title>Node39&#45;&gt;Node14</title>
<g id="a_edge50_Node000039_Node000014"><a xlink:title=" ">
<path fill="none" stroke="#63b8ff" d="M1301.47,-126.37C1279.47,-115.54 1241.51,-96.85 1215.85,-84.22"/>
<polygon fill="#63b8ff" stroke="#63b8ff" points="1217.19,-80.98 1206.67,-79.7 1214.1,-87.26 1217.19,-80.98"/>
</a>
</g>
</g>
<!-- Node40 -->
<g id="Node000040" class="node">
<title>Node40</title>
<g id="a_Node000040"><a xlink:title=" ">
<polygon fill="#e0e0e0" stroke="#999999" points="1303,-19 1253,-19 1253,0 1303,0 1303,-19"/>
<text text-anchor="middle" x="1278" y="-7" font-family="FreeSans" font-size="10.00">atomic</text>
</a>
</g>
</g>
<!-- Node39&#45;&gt;Node40 -->
<g id="edge51_Node000039_Node000040" class="edge">
<title>Node39&#45;&gt;Node40</title>
<g id="a_edge51_Node000039_Node000040"><a xlink:title=" ">
<path fill="none" stroke="#63b8ff" d="M1301.11,-126.34C1286.23,-118.03 1266.07,-103.96 1257,-85 1248.07,-66.33 1257.49,-43.15 1266.41,-27.66"/>
<polygon fill="#63b8ff" stroke="#63b8ff" points="1269.42,-29.45 1271.73,-19.11 1263.47,-25.75 1269.42,-29.45"/>
</a>
</g>
</g>
<!-- Node41 -->
<g id="Node000041" class="node">
<title>Node41</title>
<g id="a_Node000041"><a xlink:title=" ">
<polygon fill="#e0e0e0" stroke="#999999" points="1459.5,-79.5 1390.5,-79.5 1390.5,-60.5 1459.5,-60.5 1459.5,-79.5"/>
<text text-anchor="middle" x="1425" y="-67.5" font-family="FreeSans" font-size="10.00">type_traits</text>
</a>
</g>
</g>
<!-- Node39&#45;&gt;Node41 -->
<g id="edge52_Node000039_Node000041" class="edge">
<title>Node39&#45;&gt;Node41</title>
<g id="a_edge52_Node000039_Node000041"><a xlink:title=" ">
<path fill="none" stroke="#63b8ff" d="M1333.3,-126.37C1350.92,-115.73 1381.09,-97.51 1401.99,-84.89"/>
<polygon fill="#63b8ff" stroke="#63b8ff" points="1403.84,-87.86 1410.59,-79.7 1400.22,-81.87 1403.84,-87.86"/>
</a>
</g>
</g>
<!-- Node42 -->
<g id="Node000042" class="node">
<title>Node42</title>
<g id="a_Node000042"><a xlink:href="atomic_8h.html" target="_top" xlink:title=" ">
<polygon fill="white" stroke="#666666" points="1372,-85 1266,-85 1266,-55 1372,-55 1372,-85"/>
<text text-anchor="start" x="1274" y="-73" font-family="FreeSans" font-size="10.00">mpqc/util/external</text>
<text text-anchor="middle" x="1319" y="-62" font-family="FreeSans" font-size="10.00">/c++/atomic.h</text>
</a>
</g>
</g>
<!-- Node39&#45;&gt;Node42 -->
<g id="edge53_Node000039_Node000042" class="edge">
<title>Node39&#45;&gt;Node42</title>
<g id="a_edge53_Node000039_Node000042"><a xlink:title=" ">
<path fill="none" stroke="#63b8ff" d="M1319,-126.37C1319,-118.49 1319,-106.45 1319,-95.6"/>
<polygon fill="#63b8ff" stroke="#63b8ff" points="1322.5,-95.36 1319,-85.36 1315.5,-95.36 1322.5,-95.36"/>
</a>
</g>
</g>
<!-- Node43 -->
<g id="Node000043" class="node">
<title>Node43</title>
<g id="a_Node000043"><a xlink:href="sfinae_8h.html" target="_top" xlink:title=" ">
<polygon fill="white" stroke="#666666" points="1610,-79.5 1478,-79.5 1478,-60.5 1610,-60.5 1610,-79.5"/>
<text text-anchor="middle" x="1544" y="-67.5" font-family="FreeSans" font-size="10.00">mpqc/util/meta/sfinae.h</text>
</a>
</g>
</g>
<!-- Node39&#45;&gt;Node43 -->
<g id="edge55_Node000039_Node000043" class="edge">
<title>Node39&#45;&gt;Node43</title>
<g id="a_edge55_Node000039_Node000043"><a xlink:title=" ">
<path fill="none" stroke="#63b8ff" d="M1344.56,-126.37C1382.24,-114.96 1452.84,-94.83 1499.2,-82.24"/>
<polygon fill="#63b8ff" stroke="#63b8ff" points="1500.25,-85.58 1509,-79.6 1498.43,-78.82 1500.25,-85.58"/>
</a>
</g>
</g>
<!-- Node42&#45;&gt;Node40 -->
<g id="edge54_Node000042_Node000040" class="edge">
<title>Node42&#45;&gt;Node40</title>
<g id="a_edge54_Node000042_Node000040"><a xlink:title=" ">
<path fill="none" stroke="#63b8ff" d="M1309.08,-54.84C1303.31,-46.61 1296,-36.18 1289.92,-27.51"/>
<polygon fill="#63b8ff" stroke="#63b8ff" points="1292.75,-25.45 1284.14,-19.27 1287.02,-29.46 1292.75,-25.45"/>
</a>
</g>
</g>
<!-- Node43&#45;&gt;Node39 -->
<g id="edge56_Node000043_Node000039" class="edge">
<title>Node43&#45;&gt;Node39</title>
<g id="a_edge56_Node000043_Node000039"><a xlink:title=" ">
<path fill="none" stroke="#63b8ff" d="M1518.56,-79.6C1480.95,-90.99 1410.35,-111.12 1363.94,-123.72"/>
<polygon fill="#63b8ff" stroke="#63b8ff" points="1362.88,-120.38 1354.13,-126.37 1364.7,-127.14 1362.88,-120.38"/>
</a>
</g>
</g>
<!-- Node45 -->
<g id="Node000045" class="node">
<title>Node45</title>
<g id="a_Node000045"><a xlink:title=" ">
<polygon fill="#e0e0e0" stroke="#999999" points="2993,-217 2877,-217 2877,-187 2993,-187 2993,-217"/>
<text text-anchor="start" x="2885" y="-205" font-family="FreeSans" font-size="10.00">madness/world/type</text>
<text text-anchor="middle" x="2935" y="-194" font-family="FreeSans" font-size="10.00">_traits.h</text>
</a>
</g>
</g>
<!-- Node44&#45;&gt;Node45 -->
<g id="edge58_Node000044_Node000045" class="edge">
<title>Node44&#45;&gt;Node45</title>
<g id="a_edge58_Node000044_Node000045"><a xlink:title=" ">
<path fill="none" stroke="#63b8ff" d="M2935,-258.37C2935,-250.49 2935,-238.45 2935,-227.6"/>
<polygon fill="#63b8ff" stroke="#63b8ff" points="2938.5,-227.36 2935,-217.36 2931.5,-227.36 2938.5,-227.36"/>
</a>
</g>
</g>
</g>
</svg>
