<?xml version="1.0" encoding="UTF-8" standalone="no"?>
<!DOCTYPE svg PUBLIC "-//W3C//DTD SVG 1.1//EN"
 "http://www.w3.org/Graphics/SVG/1.1/DTD/svg11.dtd">
<!-- Generated by graphviz version 2.43.0 (0)
 -->
<!-- Title: mpqc/util/misc/memoizer.h Pages: 1 -->
<svg width="561pt" height="247pt"
 viewBox="0.00 0.00 560.50 247.00" xmlns="http://www.w3.org/2000/svg" xmlns:xlink="http://www.w3.org/1999/xlink">
<g id="graph0" class="graph" transform="scale(1 1) rotate(0) translate(4 243)">
<title>mpqc/util/misc/memoizer.h</title>
<!-- Node1 -->
<g id="Node000001" class="node">
<title>Node1</title>
<g id="a_Node000001"><a xlink:title=" ">
<polygon fill="#999999" stroke="#666666" points="345,-239 196,-239 196,-220 345,-220 345,-239"/>
<text text-anchor="middle" x="270.5" y="-227" font-family="FreeSans" font-size="10.00">mpqc/util/misc/memoizer.h</text>
</a>
</g>
</g>
<!-- Node2 -->
<g id="Node000002" class="node">
<title>Node2</title>
<g id="a_Node000002"><a xlink:href="assert_8h.html" target="_top" xlink:title=" ">
<polygon fill="white" stroke="#666666" points="227,-184 96,-184 96,-165 227,-165 227,-184"/>
<text text-anchor="middle" x="161.5" y="-172" font-family="FreeSans" font-size="10.00">mpqc/util/misc/assert.h</text>
</a>
</g>
</g>
<!-- Node1&#45;&gt;Node2 -->
<g id="edge1_Node000001_Node000002" class="edge">
<title>Node1&#45;&gt;Node2</title>
<g id="a_edge1_Node000001_Node000002"><a xlink:title=" ">
<path fill="none" stroke="#63b8ff" d="M252.99,-219.98C235.53,-211.5 208.49,-198.35 188.33,-188.54"/>
<polygon fill="#63b8ff" stroke="#63b8ff" points="189.86,-185.4 179.33,-184.17 186.79,-191.69 189.86,-185.4"/>
</a>
</g>
</g>
<!-- Node13 -->
<g id="Node000013" class="node">
<title>Node13</title>
<g id="a_Node000013"><a xlink:title=" ">
<polygon fill="#e0e0e0" stroke="#999999" points="295.5,-184 245.5,-184 245.5,-165 295.5,-165 295.5,-184"/>
<text text-anchor="middle" x="270.5" y="-172" font-family="FreeSans" font-size="10.00">atomic</text>
</a>
</g>
</g>
<!-- Node1&#45;&gt;Node13 -->
<g id="edge14_Node000001_Node000013" class="edge">
<title>Node1&#45;&gt;Node13</title>
<g id="a_edge14_Node000001_Node000013"><a xlink:title=" ">
<path fill="none" stroke="#63b8ff" d="M270.5,-219.75C270.5,-212.8 270.5,-202.85 270.5,-194.13"/>
<polygon fill="#63b8ff" stroke="#63b8ff" points="274,-194.09 270.5,-184.09 267,-194.09 274,-194.09"/>
</a>
</g>
</g>
<!-- Node14 -->
<g id="Node000014" class="node">
<title>Node14</title>
<g id="a_Node000014"><a xlink:title=" ">
<polygon fill="#e0e0e0" stroke="#999999" points="361.5,-184 313.5,-184 313.5,-165 361.5,-165 361.5,-184"/>
<text text-anchor="middle" x="337.5" y="-172" font-family="FreeSans" font-size="10.00">mutex</text>
</a>
</g>
</g>
<!-- Node1&#45;&gt;Node14 -->
<g id="edge15_Node000001_Node000014" class="edge">
<title>Node1&#45;&gt;Node14</title>
<g id="a_edge15_Node000001_Node000014"><a xlink:title=" ">
<path fill="none" stroke="#63b8ff" d="M281.26,-219.98C291.27,-212.07 306.39,-200.11 318.43,-190.58"/>
<polygon fill="#63b8ff" stroke="#63b8ff" points="320.87,-193.12 326.54,-184.17 316.53,-187.63 320.87,-193.12"/>
</a>
</g>
</g>
<!-- Node3 -->
<g id="Node000003" class="node">
<title>Node3</title>
<g id="a_Node000003"><a xlink:title=" ">
<polygon fill="#e0e0e0" stroke="#999999" points="117,-129 0,-129 0,-110 117,-110 117,-129"/>
<text text-anchor="middle" x="58.5" y="-117" font-family="FreeSans" font-size="10.00">mpqc/mpqc_config.h</text>
</a>
</g>
</g>
<!-- Node2&#45;&gt;Node3 -->
<g id="edge2_Node000002_Node000003" class="edge">
<title>Node2&#45;&gt;Node3</title>
<g id="a_edge2_Node000002_Node000003"><a xlink:title=" ">
<path fill="none" stroke="#63b8ff" d="M144.95,-164.98C128.61,-156.57 103.37,-143.59 84.37,-133.81"/>
<polygon fill="#63b8ff" stroke="#63b8ff" points="85.84,-130.63 75.35,-129.17 82.64,-136.86 85.84,-130.63"/>
</a>
</g>
</g>
<!-- Node4 -->
<g id="Node000004" class="node">
<title>Node4</title>
<g id="a_Node000004"><a xlink:title=" ">
<polygon fill="#e0e0e0" stroke="#999999" points="187.5,-129 135.5,-129 135.5,-110 187.5,-110 187.5,-129"/>
<text text-anchor="middle" x="161.5" y="-117" font-family="FreeSans" font-size="10.00">cassert</text>
</a>
</g>
</g>
<!-- Node2&#45;&gt;Node4 -->
<g id="edge3_Node000002_Node000004" class="edge">
<title>Node2&#45;&gt;Node4</title>
<g id="a_edge3_Node000002_Node000004"><a xlink:title=" ">
<path fill="none" stroke="#63b8ff" d="M161.5,-164.75C161.5,-157.8 161.5,-147.85 161.5,-139.13"/>
<polygon fill="#63b8ff" stroke="#63b8ff" points="165,-139.09 161.5,-129.09 158,-139.09 165,-139.09"/>
</a>
</g>
</g>
<!-- Node5 -->
<g id="Node000005" class="node">
<title>Node5</title>
<g id="a_Node000005"><a xlink:href="exception_8h.html" target="_top" xlink:title=" ">
<polygon fill="white" stroke="#666666" points="351.5,-129 205.5,-129 205.5,-110 351.5,-110 351.5,-129"/>
<text text-anchor="middle" x="278.5" y="-117" font-family="FreeSans" font-size="10.00">mpqc/util/core/exception.h</text>
</a>
</g>
</g>
<!-- Node2&#45;&gt;Node5 -->
<g id="edge4_Node000002_Node000005" class="edge">
<title>Node2&#45;&gt;Node5</title>
<g id="a_edge4_Node000002_Node000005"><a xlink:title=" ">
<path fill="none" stroke="#63b8ff" d="M180.3,-164.98C199.12,-156.46 228.32,-143.23 250,-133.41"/>
<polygon fill="#63b8ff" stroke="#63b8ff" points="251.7,-136.48 259.36,-129.17 248.81,-130.11 251.7,-136.48"/>
</a>
</g>
</g>
<!-- Node6 -->
<g id="Node000006" class="node">
<title>Node6</title>
<g id="a_Node000006"><a xlink:title=" ">
<polygon fill="#e0e0e0" stroke="#999999" points="98,-74 45,-74 45,-55 98,-55 98,-74"/>
<text text-anchor="middle" x="71.5" y="-62" font-family="FreeSans" font-size="10.00">string.h</text>
</a>
</g>
</g>
<!-- Node5&#45;&gt;Node6 -->
<g id="edge5_Node000005_Node000006" class="edge">
<title>Node5&#45;&gt;Node6</title>
<g id="a_edge5_Node000005_Node000006"><a xlink:title=" ">
<path fill="none" stroke="#63b8ff" d="M245.24,-109.98C207.68,-100.37 146.76,-84.77 107.94,-74.83"/>
<polygon fill="#63b8ff" stroke="#63b8ff" points="108.65,-71.4 98.09,-72.31 106.91,-78.18 108.65,-71.4"/>
</a>
</g>
</g>
<!-- Node7 -->
<g id="Node000007" class="node">
<title>Node7</title>
<g id="a_Node000007"><a xlink:href="memory.html" target="_top" xlink:title=" ">
<polygon fill="white" stroke="#666666" points="174.5,-74 116.5,-74 116.5,-55 174.5,-55 174.5,-74"/>
<text text-anchor="middle" x="145.5" y="-62" font-family="FreeSans" font-size="10.00">memory</text>
</a>
</g>
</g>
<!-- Node5&#45;&gt;Node7 -->
<g id="edge6_Node000005_Node000007" class="edge">
<title>Node5&#45;&gt;Node7</title>
<g id="a_edge6_Node000005_Node000007"><a xlink:title=" ">
<path fill="none" stroke="#63b8ff" d="M257.13,-109.98C235.35,-101.3 201.34,-87.75 176.58,-77.88"/>
<polygon fill="#63b8ff" stroke="#63b8ff" points="177.84,-74.62 167.26,-74.17 175.25,-81.12 177.84,-74.62"/>
</a>
</g>
</g>
<!-- Node8 -->
<g id="Node000008" class="node">
<title>Node8</title>
<g id="a_Node000008"><a xlink:title=" ">
<polygon fill="#e0e0e0" stroke="#999999" points="266.5,-74 210.5,-74 210.5,-55 266.5,-55 266.5,-74"/>
<text text-anchor="middle" x="238.5" y="-62" font-family="FreeSans" font-size="10.00">sstream</text>
</a>
</g>
</g>
<!-- Node5&#45;&gt;Node8 -->
<g id="edge8_Node000005_Node000008" class="edge">
<title>Node5&#45;&gt;Node8</title>
<g id="a_edge8_Node000005_Node000008"><a xlink:title=" ">
<path fill="none" stroke="#63b8ff" d="M271.89,-109.75C266.24,-102.26 257.96,-91.28 251.05,-82.13"/>
<polygon fill="#63b8ff" stroke="#63b8ff" points="253.8,-79.96 244.98,-74.09 248.21,-84.18 253.8,-79.96"/>
</a>
</g>
</g>
<!-- Node9 -->
<g id="Node000009" class="node">
<title>Node9</title>
<g id="a_Node000009"><a xlink:title=" ">
<polygon fill="#e0e0e0" stroke="#999999" points="350,-74 285,-74 285,-55 350,-55 350,-74"/>
<text text-anchor="middle" x="317.5" y="-62" font-family="FreeSans" font-size="10.00">stdexcept</text>
</a>
</g>
</g>
<!-- Node5&#45;&gt;Node9 -->
<g id="edge9_Node000005_Node000009" class="edge">
<title>Node5&#45;&gt;Node9</title>
<g id="a_edge9_Node000005_Node000009"><a xlink:title=" ">
<path fill="none" stroke="#63b8ff" d="M284.94,-109.75C290.39,-102.34 298.36,-91.5 305.06,-82.41"/>
<polygon fill="#63b8ff" stroke="#63b8ff" points="308.07,-84.22 311.18,-74.09 302.43,-80.07 308.07,-84.22"/>
</a>
</g>
</g>
<!-- Node10 -->
<g id="Node000010" class="node">
<title>Node10</title>
<g id="a_Node000010"><a xlink:title=" ">
<polygon fill="#e0e0e0" stroke="#999999" points="421,-19 374,-19 374,0 421,0 421,-19"/>
<text text-anchor="middle" x="397.5" y="-7" font-family="FreeSans" font-size="10.00">vector</text>
</a>
</g>
</g>
<!-- Node5&#45;&gt;Node10 -->
<g id="edge10_Node000005_Node000010" class="edge">
<title>Node5&#45;&gt;Node10</title>
<g id="a_edge10_Node000005_Node000010"><a xlink:title=" ">
<path fill="none" stroke="#63b8ff" d="M300.48,-109.96C317.75,-102.43 341.63,-90.16 358.5,-74 372.05,-61.02 382.77,-42.37 389.51,-28.63"/>
<polygon fill="#63b8ff" stroke="#63b8ff" points="392.82,-29.81 393.87,-19.27 386.48,-26.85 392.82,-29.81"/>
</a>
</g>
</g>
<!-- Node11 -->
<g id="Node000011" class="node">
<title>Node11</title>
<g id="a_Node000011"><a xlink:href="backtrace_8h.html" target="_top" xlink:title=" ">
<polygon fill="white" stroke="#666666" points="552.5,-74 406.5,-74 406.5,-55 552.5,-55 552.5,-74"/>
<text text-anchor="middle" x="479.5" y="-62" font-family="FreeSans" font-size="10.00">mpqc/util/core/backtrace.h</text>
</a>
</g>
</g>
<!-- Node5&#45;&gt;Node11 -->
<g id="edge11_Node000005_Node000011" class="edge">
<title>Node5&#45;&gt;Node11</title>
<g id="a_edge11_Node000005_Node000011"><a xlink:title=" ">
<path fill="none" stroke="#63b8ff" d="M310.79,-109.98C345.12,-100.93 399.56,-86.58 437.27,-76.64"/>
<polygon fill="#63b8ff" stroke="#63b8ff" points="438.18,-80.02 446.95,-74.08 436.39,-73.25 438.18,-80.02"/>
</a>
</g>
</g>
<!-- Node7&#45;&gt;Node7 -->
<g id="edge7_Node000007_Node000007" class="edge">
<title>Node7&#45;&gt;Node7</title>
<g id="a_edge7_Node000007_Node000007"><a xlink:title=" ">
<path fill="none" stroke="#63b8ff" d="M167.74,-74.07C180.56,-76.02 192.5,-72.83 192.5,-64.5 192.5,-58.45 186.2,-55.11 177.84,-54.48"/>
<polygon fill="#63b8ff" stroke="#63b8ff" points="177.58,-50.99 167.74,-54.93 177.89,-57.98 177.58,-50.99"/>
</a>
</g>
</g>
<!-- Node11&#45;&gt;Node10 -->
<g id="edge13_Node000011_Node000010" class="edge">
<title>Node11&#45;&gt;Node10</title>
<g id="a_edge13_Node000011_Node000010"><a xlink:title=" ">
<path fill="none" stroke="#63b8ff" d="M466.33,-54.98C453.73,-46.84 434.5,-34.41 419.56,-24.76"/>
<polygon fill="#63b8ff" stroke="#63b8ff" points="421.21,-21.66 410.91,-19.17 417.41,-27.54 421.21,-21.66"/>
</a>
</g>
</g>
<!-- Node12 -->
<g id="Node000012" class="node">
<title>Node12</title>
<g id="a_Node000012"><a xlink:title=" ">
<polygon fill="#e0e0e0" stroke="#999999" points="501.5,-19 457.5,-19 457.5,0 501.5,0 501.5,-19"/>
<text text-anchor="middle" x="479.5" y="-7" font-family="FreeSans" font-size="10.00">string</text>
</a>
</g>
</g>
<!-- Node11&#45;&gt;Node12 -->
<g id="edge12_Node000011_Node000012" class="edge">
<title>Node11&#45;&gt;Node12</title>
<g id="a_edge12_Node000011_Node000012"><a xlink:title=" ">
<path fill="none" stroke="#63b8ff" d="M479.5,-54.75C479.5,-47.8 479.5,-37.85 479.5,-29.13"/>
<polygon fill="#63b8ff" stroke="#63b8ff" points="483,-29.09 479.5,-19.09 476,-29.09 483,-29.09"/>
</a>
</g>
</g>
</g>
</svg>
