<?xml version="1.0" encoding="UTF-8" standalone="no"?>
<!DOCTYPE svg PUBLIC "-//W3C//DTD SVG 1.1//EN"
 "http://www.w3.org/Graphics/SVG/1.1/DTD/svg11.dtd">
<!-- Generated by graphviz version 2.43.0 (0)
 -->
<!-- Title: mpqc/math/tensor/clr/minimize_storage.h Pages: 1 -->
<svg width="1102pt" height="456pt"
 viewBox="0.00 0.00 1101.75 456.00" xmlns="http://www.w3.org/2000/svg" xmlns:xlink="http://www.w3.org/1999/xlink">
<g id="graph0" class="graph" transform="scale(1 1) rotate(0) translate(4 452)">
<title>mpqc/math/tensor/clr/minimize_storage.h</title>
<!-- Node1 -->
<g id="Node000001" class="node">
<title>Node1</title>
<g id="a_Node000001"><a xlink:title=" ">
<polygon fill="#999999" stroke="#666666" points="444,-448 323,-448 323,-418 444,-418 444,-448"/>
<text text-anchor="start" x="331" y="-436" font-family="FreeSans" font-size="10.00">mpqc/math/tensor/clr</text>
<text text-anchor="middle" x="383.5" y="-425" font-family="FreeSans" font-size="10.00">/minimize_storage.h</text>
</a>
</g>
</g>
<!-- Node2 -->
<g id="Node000002" class="node">
<title>Node2</title>
<g id="a_Node000002"><a xlink:href="tiledarray_8h.html" target="_top" xlink:title=" ">
<polygon fill="white" stroke="#666666" points="877,-382 752,-382 752,-352 877,-352 877,-382"/>
<text text-anchor="start" x="760" y="-370" font-family="FreeSans" font-size="10.00">mpqc/math/external</text>
<text text-anchor="middle" x="814.5" y="-359" font-family="FreeSans" font-size="10.00">/tiledarray/tiledarray.h</text>
</a>
</g>
</g>
<!-- Node1&#45;&gt;Node2 -->
<g id="edge1_Node000001_Node000002" class="edge">
<title>Node1&#45;&gt;Node2</title>
<g id="a_edge1_Node000001_Node000002"><a xlink:title=" ">
<path fill="none" stroke="#63b8ff" d="M444.34,-422.97C522.6,-411.34 658.39,-391.18 741.95,-378.77"/>
<polygon fill="#63b8ff" stroke="#63b8ff" points="742.5,-382.23 751.87,-377.3 741.47,-375.31 742.5,-382.23"/>
</a>
</g>
</g>
<!-- Node4 -->
<g id="Node000004" class="node">
<title>Node4</title>
<g id="a_Node000004"><a xlink:href="decomposed__tensor_8h.html" target="_top" xlink:title=" ">
<polygon fill="white" stroke="#666666" points="298.5,-316 172.5,-316 172.5,-286 298.5,-286 298.5,-316"/>
<text text-anchor="start" x="180.5" y="-304" font-family="FreeSans" font-size="10.00">mpqc/math/tensor/clr</text>
<text text-anchor="middle" x="235.5" y="-293" font-family="FreeSans" font-size="10.00">/decomposed_tensor.h</text>
</a>
</g>
</g>
<!-- Node1&#45;&gt;Node4 -->
<g id="edge4_Node000001_Node000004" class="edge">
<title>Node1&#45;&gt;Node4</title>
<g id="a_edge4_Node000001_Node000004"><a xlink:title=" ">
<path fill="none" stroke="#63b8ff" d="M347.43,-417.85C328.76,-409.35 306.4,-397.21 289.5,-382 271.53,-365.82 256.66,-342.47 247.11,-325.17"/>
<polygon fill="#63b8ff" stroke="#63b8ff" points="250.16,-323.44 242.36,-316.26 243.98,-326.73 250.16,-323.44"/>
</a>
</g>
</g>
<!-- Node18 -->
<g id="Node000018" class="node">
<title>Node18</title>
<g id="a_Node000018"><a xlink:href="decomposed__tensor__algebra_8h.html" target="_top" xlink:title=" ">
<polygon fill="white" stroke="#666666" points="468,-382 299,-382 299,-352 468,-352 468,-382"/>
<text text-anchor="start" x="307" y="-370" font-family="FreeSans" font-size="10.00">mpqc/math/tensor/clr</text>
<text text-anchor="middle" x="383.5" y="-359" font-family="FreeSans" font-size="10.00">/decomposed_tensor_algebra.h</text>
</a>
</g>
</g>
<!-- Node1&#45;&gt;Node18 -->
<g id="edge22_Node000001_Node000018" class="edge">
<title>Node1&#45;&gt;Node18</title>
<g id="a_edge22_Node000001_Node000018"><a xlink:title=" ">
<path fill="none" stroke="#63b8ff" d="M383.5,-417.8C383.5,-410.34 383.5,-400.99 383.5,-392.41"/>
<polygon fill="#63b8ff" stroke="#63b8ff" points="387,-392.16 383.5,-382.16 380,-392.16 387,-392.16"/>
</a>
</g>
</g>
<!-- Node2&#45;&gt;Node2 -->
<g id="edge2_Node000002_Node000002" class="edge">
<title>Node2&#45;&gt;Node2</title>
<g id="a_edge2_Node000002_Node000002"><a xlink:title=" ">
<path fill="none" stroke="#63b8ff" d="M877.28,-378.5C887.76,-376.89 895,-373.06 895,-367 895,-363.12 892.03,-360.15 887.14,-358.1"/>
<polygon fill="#63b8ff" stroke="#63b8ff" points="887.84,-354.66 877.28,-355.5 886.06,-361.43 887.84,-354.66"/>
</a>
</g>
</g>
<!-- Node3 -->
<g id="Node000003" class="node">
<title>Node3</title>
<g id="a_Node000003"><a xlink:title=" ">
<polygon fill="#e0e0e0" stroke="#999999" points="875,-129 758,-129 758,-110 875,-110 875,-129"/>
<text text-anchor="middle" x="816.5" y="-117" font-family="FreeSans" font-size="10.00">mpqc/mpqc_config.h</text>
</a>
</g>
</g>
<!-- Node2&#45;&gt;Node3 -->
<g id="edge3_Node000002_Node000003" class="edge">
<title>Node2&#45;&gt;Node3</title>
<g id="a_edge3_Node000002_Node000003"><a xlink:title=" ">
<path fill="none" stroke="#63b8ff" d="M864.13,-351.9C958.86,-322.62 1149.87,-250.75 1077.5,-165 1053.35,-136.39 954.27,-126.17 885.38,-122.52"/>
<polygon fill="#63b8ff" stroke="#63b8ff" points="885.19,-119.01 875.03,-122.01 884.84,-126 885.19,-119.01"/>
</a>
</g>
</g>
<!-- Node5 -->
<g id="Node000005" class="node">
<title>Node5</title>
<g id="a_Node000005"><a xlink:title=" ">
<polygon fill="#e0e0e0" stroke="#999999" points="409,-250 300,-250 300,-231 409,-231 409,-250"/>
<text text-anchor="middle" x="354.5" y="-238" font-family="FreeSans" font-size="10.00">TiledArray/tensor.h</text>
</a>
</g>
</g>
<!-- Node4&#45;&gt;Node5 -->
<g id="edge5_Node000004_Node000005" class="edge">
<title>Node4&#45;&gt;Node5</title>
<g id="a_edge5_Node000004_Node000005"><a xlink:title=" ">
<path fill="none" stroke="#63b8ff" d="M264,-285.99C283.41,-276.45 308.93,-263.9 327.92,-254.57"/>
<polygon fill="#63b8ff" stroke="#63b8ff" points="329.5,-257.69 336.93,-250.14 326.41,-251.41 329.5,-257.69"/>
</a>
</g>
</g>
<!-- Node6 -->
<g id="Node000006" class="node">
<title>Node6</title>
<g id="a_Node000006"><a xlink:title=" ">
<polygon fill="#e0e0e0" stroke="#999999" points="95,-250 0,-250 0,-231 95,-231 95,-250"/>
<text text-anchor="middle" x="47.5" y="-238" font-family="FreeSans" font-size="10.00">tiledarray_fwd.h</text>
</a>
</g>
</g>
<!-- Node4&#45;&gt;Node6 -->
<g id="edge6_Node000004_Node000006" class="edge">
<title>Node4&#45;&gt;Node6</title>
<g id="a_edge6_Node000004_Node000006"><a xlink:title=" ">
<path fill="none" stroke="#63b8ff" d="M190.47,-285.99C158.16,-275.94 115.16,-262.55 84.77,-253.1"/>
<polygon fill="#63b8ff" stroke="#63b8ff" points="85.58,-249.68 74.99,-250.05 83.5,-256.37 85.58,-249.68"/>
</a>
</g>
</g>
<!-- Node7 -->
<g id="Node000007" class="node">
<title>Node7</title>
<g id="a_Node000007"><a xlink:title=" ">
<polygon fill="#e0e0e0" stroke="#999999" points="173.5,-250 113.5,-250 113.5,-231 173.5,-231 173.5,-250"/>
<text text-anchor="middle" x="143.5" y="-238" font-family="FreeSans" font-size="10.00">iostream</text>
</a>
</g>
</g>
<!-- Node4&#45;&gt;Node7 -->
<g id="edge7_Node000004_Node000007" class="edge">
<title>Node4&#45;&gt;Node7</title>
<g id="a_edge7_Node000004_Node000007"><a xlink:title=" ">
<path fill="none" stroke="#63b8ff" d="M213.23,-285.84C198.83,-276.68 180.17,-264.82 165.77,-255.66"/>
<polygon fill="#63b8ff" stroke="#63b8ff" points="167.33,-252.51 157.02,-250.09 163.58,-258.41 167.33,-252.51"/>
</a>
</g>
</g>
<!-- Node8 -->
<g id="Node000008" class="node">
<title>Node8</title>
<g id="a_Node000008"><a xlink:title=" ">
<polygon fill="#e0e0e0" stroke="#999999" points="263,-19 216,-19 216,0 263,0 263,-19"/>
<text text-anchor="middle" x="239.5" y="-7" font-family="FreeSans" font-size="10.00">vector</text>
</a>
</g>
</g>
<!-- Node4&#45;&gt;Node8 -->
<g id="edge8_Node000004_Node000008" class="edge">
<title>Node4&#45;&gt;Node8</title>
<g id="a_edge8_Node000004_Node000008"><a xlink:title=" ">
<path fill="none" stroke="#63b8ff" d="M228.62,-285.72C218.68,-263.75 201.5,-220.11 201.5,-181 201.5,-181 201.5,-181 201.5,-118.5 201.5,-85.02 217.95,-48.84 229.2,-28.01"/>
<polygon fill="#63b8ff" stroke="#63b8ff" points="232.37,-29.53 234.22,-19.1 226.26,-26.1 232.37,-29.53"/>
</a>
</g>
</g>
<!-- Node9 -->
<g id="Node000009" class="node">
<title>Node9</title>
<g id="a_Node000009"><a xlink:href="assert_8h.html" target="_top" xlink:title=" ">
<polygon fill="white" stroke="#666666" points="361,-189.5 230,-189.5 230,-170.5 361,-170.5 361,-189.5"/>
<text text-anchor="middle" x="295.5" y="-177.5" font-family="FreeSans" font-size="10.00">mpqc/util/misc/assert.h</text>
</a>
</g>
</g>
<!-- Node4&#45;&gt;Node9 -->
<g id="edge9_Node000004_Node000009" class="edge">
<title>Node4&#45;&gt;Node9</title>
<g id="a_edge9_Node000004_Node000009"><a xlink:title=" ">
<path fill="none" stroke="#63b8ff" d="M242.62,-285.88C253.59,-264.12 274.62,-222.41 286.59,-198.67"/>
<polygon fill="#63b8ff" stroke="#63b8ff" points="289.73,-200.22 291.11,-189.71 283.48,-197.06 289.73,-200.22"/>
</a>
</g>
</g>
<!-- Node9&#45;&gt;Node3 -->
<g id="edge10_Node000009_Node000003" class="edge">
<title>Node9&#45;&gt;Node3</title>
<g id="a_edge10_Node000009_Node000003"><a xlink:title=" ">
<path fill="none" stroke="#63b8ff" d="M337.84,-170.45C348.47,-168.48 359.88,-166.52 370.5,-165 503.51,-145.99 659.98,-132.38 747.77,-125.53"/>
<polygon fill="#63b8ff" stroke="#63b8ff" points="748.16,-129.01 757.86,-124.75 747.62,-122.03 748.16,-129.01"/>
</a>
</g>
</g>
<!-- Node10 -->
<g id="Node000010" class="node">
<title>Node10</title>
<g id="a_Node000010"><a xlink:title=" ">
<polygon fill="#e0e0e0" stroke="#999999" points="478.5,-129 426.5,-129 426.5,-110 478.5,-110 478.5,-129"/>
<text text-anchor="middle" x="452.5" y="-117" font-family="FreeSans" font-size="10.00">cassert</text>
</a>
</g>
</g>
<!-- Node9&#45;&gt;Node10 -->
<g id="edge11_Node000009_Node000010" class="edge">
<title>Node9&#45;&gt;Node10</title>
<g id="a_edge11_Node000009_Node000010"><a xlink:title=" ">
<path fill="none" stroke="#63b8ff" d="M318.33,-170.49C345.07,-160.53 389.58,-143.95 419.94,-132.63"/>
<polygon fill="#63b8ff" stroke="#63b8ff" points="421.49,-135.79 429.64,-129.02 419.05,-129.23 421.49,-135.79"/>
</a>
</g>
</g>
<!-- Node11 -->
<g id="Node000011" class="node">
<title>Node11</title>
<g id="a_Node000011"><a xlink:href="exception_8h.html" target="_top" xlink:title=" ">
<polygon fill="white" stroke="#666666" points="408.5,-129 262.5,-129 262.5,-110 408.5,-110 408.5,-129"/>
<text text-anchor="middle" x="335.5" y="-117" font-family="FreeSans" font-size="10.00">mpqc/util/core/exception.h</text>
</a>
</g>
</g>
<!-- Node9&#45;&gt;Node11 -->
<g id="edge12_Node000009_Node000011" class="edge">
<title>Node9&#45;&gt;Node11</title>
<g id="a_edge12_Node000009_Node000011"><a xlink:title=" ">
<path fill="none" stroke="#63b8ff" d="M301.4,-170.37C307.25,-161.81 316.37,-148.47 323.71,-137.74"/>
<polygon fill="#63b8ff" stroke="#63b8ff" points="326.82,-139.4 329.57,-129.17 321.04,-135.45 326.82,-139.4"/>
</a>
</g>
</g>
<!-- Node11&#45;&gt;Node8 -->
<g id="edge18_Node000011_Node000008" class="edge">
<title>Node11&#45;&gt;Node8</title>
<g id="a_edge18_Node000011_Node000008"><a xlink:title=" ">
<path fill="none" stroke="#63b8ff" d="M311.02,-109.97C293.99,-102.85 272,-91.08 258.5,-74 248.36,-61.16 243.62,-43 241.41,-29.38"/>
<polygon fill="#63b8ff" stroke="#63b8ff" points="244.85,-28.7 240.09,-19.23 237.91,-29.6 244.85,-28.7"/>
</a>
</g>
</g>
<!-- Node12 -->
<g id="Node000012" class="node">
<title>Node12</title>
<g id="a_Node000012"><a xlink:title=" ">
<polygon fill="#e0e0e0" stroke="#999999" points="321,-74 268,-74 268,-55 321,-55 321,-74"/>
<text text-anchor="middle" x="294.5" y="-62" font-family="FreeSans" font-size="10.00">string.h</text>
</a>
</g>
</g>
<!-- Node11&#45;&gt;Node12 -->
<g id="edge13_Node000011_Node000012" class="edge">
<title>Node11&#45;&gt;Node12</title>
<g id="a_edge13_Node000011_Node000012"><a xlink:title=" ">
<path fill="none" stroke="#63b8ff" d="M328.73,-109.75C322.94,-102.26 314.44,-91.28 307.36,-82.13"/>
<polygon fill="#63b8ff" stroke="#63b8ff" points="310.03,-79.86 301.14,-74.09 304.49,-84.14 310.03,-79.86"/>
</a>
</g>
</g>
<!-- Node13 -->
<g id="Node000013" class="node">
<title>Node13</title>
<g id="a_Node000013"><a xlink:href="memory.html" target="_top" xlink:title=" ">
<polygon fill="white" stroke="#666666" points="397.5,-74 339.5,-74 339.5,-55 397.5,-55 397.5,-74"/>
<text text-anchor="middle" x="368.5" y="-62" font-family="FreeSans" font-size="10.00">memory</text>
</a>
</g>
</g>
<!-- Node11&#45;&gt;Node13 -->
<g id="edge14_Node000011_Node000013" class="edge">
<title>Node11&#45;&gt;Node13</title>
<g id="a_edge14_Node000011_Node000013"><a xlink:title=" ">
<path fill="none" stroke="#63b8ff" d="M340.95,-109.75C345.51,-102.42 352.17,-91.73 357.79,-82.7"/>
<polygon fill="#63b8ff" stroke="#63b8ff" points="360.84,-84.43 363.15,-74.09 354.9,-80.73 360.84,-84.43"/>
</a>
</g>
</g>
<!-- Node14 -->
<g id="Node000014" class="node">
<title>Node14</title>
<g id="a_Node000014"><a xlink:title=" ">
<polygon fill="#e0e0e0" stroke="#999999" points="489.5,-74 433.5,-74 433.5,-55 489.5,-55 489.5,-74"/>
<text text-anchor="middle" x="461.5" y="-62" font-family="FreeSans" font-size="10.00">sstream</text>
</a>
</g>
</g>
<!-- Node11&#45;&gt;Node14 -->
<g id="edge16_Node000011_Node000014" class="edge">
<title>Node11&#45;&gt;Node14</title>
<g id="a_edge16_Node000011_Node000014"><a xlink:title=" ">
<path fill="none" stroke="#63b8ff" d="M355.74,-109.98C376.2,-101.38 408.03,-87.99 431.43,-78.15"/>
<polygon fill="#63b8ff" stroke="#63b8ff" points="433.03,-81.27 440.89,-74.17 430.31,-74.82 433.03,-81.27"/>
</a>
</g>
</g>
<!-- Node15 -->
<g id="Node000015" class="node">
<title>Node15</title>
<g id="a_Node000015"><a xlink:title=" ">
<polygon fill="#e0e0e0" stroke="#999999" points="573,-74 508,-74 508,-55 573,-55 573,-74"/>
<text text-anchor="middle" x="540.5" y="-62" font-family="FreeSans" font-size="10.00">stdexcept</text>
</a>
</g>
</g>
<!-- Node11&#45;&gt;Node15 -->
<g id="edge17_Node000011_Node000015" class="edge">
<title>Node11&#45;&gt;Node15</title>
<g id="a_edge17_Node000011_Node000015"><a xlink:title=" ">
<path fill="none" stroke="#63b8ff" d="M368.44,-109.98C403.66,-100.88 459.63,-86.41 498.11,-76.46"/>
<polygon fill="#63b8ff" stroke="#63b8ff" points="499.18,-79.8 507.98,-73.91 497.43,-73.02 499.18,-79.8"/>
</a>
</g>
</g>
<!-- Node16 -->
<g id="Node000016" class="node">
<title>Node16</title>
<g id="a_Node000016"><a xlink:href="backtrace_8h.html" target="_top" xlink:title=" ">
<polygon fill="white" stroke="#666666" points="737.5,-74 591.5,-74 591.5,-55 737.5,-55 737.5,-74"/>
<text text-anchor="middle" x="664.5" y="-62" font-family="FreeSans" font-size="10.00">mpqc/util/core/backtrace.h</text>
</a>
</g>
</g>
<!-- Node11&#45;&gt;Node16 -->
<g id="edge19_Node000011_Node000016" class="edge">
<title>Node11&#45;&gt;Node16</title>
<g id="a_edge19_Node000011_Node000016"><a xlink:title=" ">
<path fill="none" stroke="#63b8ff" d="M388.36,-109.98C446.43,-100.63 539.65,-85.61 601.48,-75.65"/>
<polygon fill="#63b8ff" stroke="#63b8ff" points="602.18,-79.08 611.5,-74.04 601.07,-72.17 602.18,-79.08"/>
</a>
</g>
</g>
<!-- Node13&#45;&gt;Node13 -->
<g id="edge15_Node000013_Node000013" class="edge">
<title>Node13&#45;&gt;Node13</title>
<g id="a_edge15_Node000013_Node000013"><a xlink:title=" ">
<path fill="none" stroke="#63b8ff" d="M390.74,-74.07C403.56,-76.02 415.5,-72.83 415.5,-64.5 415.5,-58.45 409.2,-55.11 400.84,-54.48"/>
<polygon fill="#63b8ff" stroke="#63b8ff" points="400.58,-50.99 390.74,-54.93 400.89,-57.98 400.58,-50.99"/>
</a>
</g>
</g>
<!-- Node16&#45;&gt;Node8 -->
<g id="edge21_Node000016_Node000008" class="edge">
<title>Node16&#45;&gt;Node8</title>
<g id="a_edge21_Node000016_Node000008"><a xlink:title=" ">
<path fill="none" stroke="#63b8ff" d="M596.22,-54.98C503.82,-43.46 342.54,-23.35 272.99,-14.68"/>
<polygon fill="#63b8ff" stroke="#63b8ff" points="273.38,-11.2 263.03,-13.43 272.52,-18.14 273.38,-11.2"/>
</a>
</g>
</g>
<!-- Node17 -->
<g id="Node000017" class="node">
<title>Node17</title>
<g id="a_Node000017"><a xlink:title=" ">
<polygon fill="#e0e0e0" stroke="#999999" points="686.5,-19 642.5,-19 642.5,0 686.5,0 686.5,-19"/>
<text text-anchor="middle" x="664.5" y="-7" font-family="FreeSans" font-size="10.00">string</text>
</a>
</g>
</g>
<!-- Node16&#45;&gt;Node17 -->
<g id="edge20_Node000016_Node000017" class="edge">
<title>Node16&#45;&gt;Node17</title>
<g id="a_edge20_Node000016_Node000017"><a xlink:title=" ">
<path fill="none" stroke="#63b8ff" d="M664.5,-54.75C664.5,-47.8 664.5,-37.85 664.5,-29.13"/>
<polygon fill="#63b8ff" stroke="#63b8ff" points="668,-29.09 664.5,-19.09 661,-29.09 668,-29.09"/>
</a>
</g>
</g>
<!-- Node18&#45;&gt;Node4 -->
<g id="edge37_Node000018_Node000004" class="edge">
<title>Node18&#45;&gt;Node4</title>
<g id="a_edge37_Node000018_Node000004"><a xlink:title=" ">
<path fill="none" stroke="#63b8ff" d="M351.02,-351.95C329.33,-342.58 300.61,-330.16 277.23,-320.05"/>
<polygon fill="#63b8ff" stroke="#63b8ff" points="278.47,-316.77 267.9,-316.01 275.69,-323.19 278.47,-316.77"/>
</a>
</g>
</g>
<!-- Node18&#45;&gt;Node5 -->
<g id="edge23_Node000018_Node000005" class="edge">
<title>Node18&#45;&gt;Node5</title>
<g id="a_edge23_Node000018_Node000005"><a xlink:title=" ">
<path fill="none" stroke="#63b8ff" d="M384.13,-351.83C384.46,-335.61 383.84,-308.38 377.5,-286 374.84,-276.6 370.08,-266.88 365.59,-258.93"/>
<polygon fill="#63b8ff" stroke="#63b8ff" points="368.53,-257.04 360.39,-250.26 362.53,-260.64 368.53,-257.04"/>
</a>
</g>
</g>
<!-- Node19 -->
<g id="Node000019" class="node">
<title>Node19</title>
<g id="a_Node000019"><a xlink:href="eigen_8h.html" target="_top" xlink:title=" ">
<polygon fill="white" stroke="#666666" points="574.5,-316 458.5,-316 458.5,-286 574.5,-286 574.5,-316"/>
<text text-anchor="start" x="466.5" y="-304" font-family="FreeSans" font-size="10.00">mpqc/math/external</text>
<text text-anchor="middle" x="516.5" y="-293" font-family="FreeSans" font-size="10.00">/eigen/eigen.h</text>
</a>
</g>
</g>
<!-- Node18&#45;&gt;Node19 -->
<g id="edge24_Node000018_Node000019" class="edge">
<title>Node18&#45;&gt;Node19</title>
<g id="a_edge24_Node000018_Node000019"><a xlink:title=" ">
<path fill="none" stroke="#63b8ff" d="M412.69,-351.95C431.92,-342.7 457.3,-330.49 478.16,-320.45"/>
<polygon fill="#63b8ff" stroke="#63b8ff" points="479.89,-323.5 487.38,-316.01 476.85,-317.19 479.89,-323.5"/>
</a>
</g>
</g>
<!-- Node29 -->
<g id="Node000029" class="node">
<title>Node29</title>
<g id="a_Node000029"><a xlink:title=" ">
<polygon fill="#e0e0e0" stroke="#999999" points="368.5,-310.5 316.5,-310.5 316.5,-291.5 368.5,-291.5 368.5,-310.5"/>
<text text-anchor="middle" x="342.5" y="-298.5" font-family="FreeSans" font-size="10.00">blas.hh</text>
</a>
</g>
</g>
<!-- Node18&#45;&gt;Node29 -->
<g id="edge38_Node000018_Node000029" class="edge">
<title>Node18&#45;&gt;Node29</title>
<g id="a_edge38_Node000018_Node000029"><a xlink:title=" ">
<path fill="none" stroke="#63b8ff" d="M374.4,-351.8C368.26,-342.21 360.12,-329.5 353.6,-319.32"/>
<polygon fill="#63b8ff" stroke="#63b8ff" points="356.51,-317.38 348.17,-310.84 350.61,-321.15 356.51,-317.38"/>
</a>
</g>
</g>
<!-- Node19&#45;&gt;Node3 -->
<g id="edge33_Node000019_Node000003" class="edge">
<title>Node19&#45;&gt;Node3</title>
<g id="a_edge33_Node000019_Node000003"><a xlink:title=" ">
<path fill="none" stroke="#63b8ff" d="M574.5,-297.98C701.92,-292.17 999.6,-270.61 1058.5,-195 1106.25,-133.71 972.7,-121.54 885.44,-119.88"/>
<polygon fill="#63b8ff" stroke="#63b8ff" points="885.36,-116.37 875.31,-119.73 885.26,-123.37 885.36,-116.37"/>
</a>
</g>
</g>
<!-- Node20 -->
<g id="Node000020" class="node">
<title>Node20</title>
<g id="a_Node000020"><a xlink:title=" ">
<polygon fill="#e0e0e0" stroke="#999999" points="567.5,-250 465.5,-250 465.5,-231 567.5,-231 567.5,-250"/>
<text text-anchor="middle" x="516.5" y="-238" font-family="FreeSans" font-size="10.00">madness/config.h</text>
</a>
</g>
</g>
<!-- Node19&#45;&gt;Node20 -->
<g id="edge25_Node000019_Node000020" class="edge">
<title>Node19&#45;&gt;Node20</title>
<g id="a_edge25_Node000019_Node000020"><a xlink:title=" ">
<path fill="none" stroke="#63b8ff" d="M516.5,-285.84C516.5,-278.21 516.5,-268.7 516.5,-260.45"/>
<polygon fill="#63b8ff" stroke="#63b8ff" points="520,-260.27 516.5,-250.27 513,-260.27 520,-260.27"/>
</a>
</g>
</g>
<!-- Node21 -->
<g id="Node000021" class="node">
<title>Node21</title>
<g id="a_Node000021"><a xlink:href="complex_8h.html" target="_top" xlink:title=" ">
<polygon fill="white" stroke="#666666" points="735.5,-250 585.5,-250 585.5,-231 735.5,-231 735.5,-250"/>
<text text-anchor="middle" x="660.5" y="-238" font-family="FreeSans" font-size="10.00">mpqc/math/core/complex.h</text>
</a>
</g>
</g>
<!-- Node19&#45;&gt;Node21 -->
<g id="edge26_Node000019_Node000021" class="edge">
<title>Node19&#45;&gt;Node21</title>
<g id="a_edge26_Node000019_Node000021"><a xlink:title=" ">
<path fill="none" stroke="#63b8ff" d="M550.99,-285.99C575.02,-276.23 606.77,-263.33 629.9,-253.93"/>
<polygon fill="#63b8ff" stroke="#63b8ff" points="631.29,-257.15 639.23,-250.14 628.65,-250.66 631.29,-257.15"/>
</a>
</g>
</g>
<!-- Node27 -->
<g id="Node000027" class="node">
<title>Node27</title>
<g id="a_Node000027"><a xlink:href="math_2external_2eigen_2fwd_8h.html" target="_top" xlink:title=" ">
<polygon fill="white" stroke="#666666" points="495.5,-195 379.5,-195 379.5,-165 495.5,-165 495.5,-195"/>
<text text-anchor="start" x="387.5" y="-183" font-family="FreeSans" font-size="10.00">mpqc/math/external</text>
<text text-anchor="middle" x="437.5" y="-172" font-family="FreeSans" font-size="10.00">/eigen/fwd.h</text>
</a>
</g>
</g>
<!-- Node19&#45;&gt;Node27 -->
<g id="edge34_Node000019_Node000027" class="edge">
<title>Node19&#45;&gt;Node27</title>
<g id="a_edge34_Node000019_Node000027"><a xlink:title=" ">
<path fill="none" stroke="#63b8ff" d="M493.55,-285.94C480.9,-277.09 465.9,-264.59 456.5,-250 447.81,-236.52 443.05,-219.09 440.47,-205.12"/>
<polygon fill="#63b8ff" stroke="#63b8ff" points="443.93,-204.56 438.89,-195.23 437.02,-205.66 443.93,-204.56"/>
</a>
</g>
</g>
<!-- Node28 -->
<g id="Node000028" class="node">
<title>Node28</title>
<g id="a_Node000028"><a xlink:title=" ">
<polygon fill="#e0e0e0" stroke="#999999" points="831,-250 754,-250 754,-231 831,-231 831,-250"/>
<text text-anchor="middle" x="792.5" y="-238" font-family="FreeSans" font-size="10.00">Eigen/Dense</text>
</a>
</g>
</g>
<!-- Node19&#45;&gt;Node28 -->
<g id="edge36_Node000019_Node000028" class="edge">
<title>Node19&#45;&gt;Node28</title>
<g id="a_edge36_Node000019_Node000028"><a xlink:title=" ">
<path fill="none" stroke="#63b8ff" d="M574.7,-287.67C624.94,-277.02 696.69,-261.81 743.91,-251.8"/>
<polygon fill="#63b8ff" stroke="#63b8ff" points="744.83,-255.18 753.89,-249.68 743.38,-248.33 744.83,-255.18"/>
</a>
</g>
</g>
<!-- Node21&#45;&gt;Node9 -->
<g id="edge27_Node000021_Node000009" class="edge">
<title>Node21&#45;&gt;Node9</title>
<g id="a_edge27_Node000021_Node000009"><a xlink:title=" ">
<path fill="none" stroke="#63b8ff" d="M601.26,-230.98C542.59,-222.41 450.22,-208.55 370.5,-195 363.83,-193.87 356.84,-192.63 349.92,-191.37"/>
<polygon fill="#63b8ff" stroke="#63b8ff" points="350.34,-187.89 339.88,-189.53 349.08,-194.78 350.34,-187.89"/>
</a>
</g>
</g>
<!-- Node22 -->
<g id="Node000022" class="node">
<title>Node22</title>
<g id="a_Node000022"><a xlink:title=" ">
<polygon fill="#e0e0e0" stroke="#999999" points="670,-189.5 601,-189.5 601,-170.5 670,-170.5 670,-189.5"/>
<text text-anchor="middle" x="635.5" y="-177.5" font-family="FreeSans" font-size="10.00">Eigen/Core</text>
</a>
</g>
</g>
<!-- Node21&#45;&gt;Node22 -->
<g id="edge28_Node000021_Node000022" class="edge">
<title>Node21&#45;&gt;Node22</title>
<g id="a_edge28_Node000021_Node000022"><a xlink:title=" ">
<path fill="none" stroke="#63b8ff" d="M656.81,-230.87C653.23,-222.49 647.68,-209.51 643.15,-198.89"/>
<polygon fill="#63b8ff" stroke="#63b8ff" points="646.35,-197.49 639.2,-189.67 639.92,-200.24 646.35,-197.49"/>
</a>
</g>
</g>
<!-- Node23 -->
<g id="Node000023" class="node">
<title>Node23</title>
<g id="a_Node000023"><a xlink:title=" ">
<polygon fill="#e0e0e0" stroke="#999999" points="810.5,-195 688.5,-195 688.5,-165 810.5,-165 810.5,-195"/>
<text text-anchor="start" x="696.5" y="-183" font-family="FreeSans" font-size="10.00">boost/container/small</text>
<text text-anchor="middle" x="749.5" y="-172" font-family="FreeSans" font-size="10.00">_vector.hpp</text>
</a>
</g>
</g>
<!-- Node21&#45;&gt;Node23 -->
<g id="edge29_Node000021_Node000023" class="edge">
<title>Node21&#45;&gt;Node23</title>
<g id="a_edge29_Node000021_Node000023"><a xlink:title=" ">
<path fill="none" stroke="#63b8ff" d="M673.63,-230.87C685.6,-223 703.72,-211.09 719.25,-200.89"/>
<polygon fill="#63b8ff" stroke="#63b8ff" points="721.59,-203.53 728.03,-195.11 717.75,-197.68 721.59,-203.53"/>
</a>
</g>
</g>
<!-- Node24 -->
<g id="Node000024" class="node">
<title>Node24</title>
<g id="a_Node000024"><a xlink:title=" ">
<polygon fill="#e0e0e0" stroke="#999999" points="972,-195 829,-195 829,-165 972,-165 972,-195"/>
<text text-anchor="start" x="837" y="-183" font-family="FreeSans" font-size="10.00">boost/numeric/conversion</text>
<text text-anchor="middle" x="900.5" y="-172" font-family="FreeSans" font-size="10.00">/cast.hpp</text>
</a>
</g>
</g>
<!-- Node21&#45;&gt;Node24 -->
<g id="edge30_Node000021_Node000024" class="edge">
<title>Node21&#45;&gt;Node24</title>
<g id="a_edge30_Node000021_Node000024"><a xlink:title=" ">
<path fill="none" stroke="#63b8ff" d="M695.4,-230.99C731.3,-222.24 788.13,-208.39 832.87,-197.48"/>
<polygon fill="#63b8ff" stroke="#63b8ff" points="833.91,-200.83 842.8,-195.06 832.26,-194.03 833.91,-200.83"/>
</a>
</g>
</g>
<!-- Node25 -->
<g id="Node000025" class="node">
<title>Node25</title>
<g id="a_Node000025"><a xlink:title=" ">
<polygon fill="#e0e0e0" stroke="#999999" points="1049,-189.5 990,-189.5 990,-170.5 1049,-170.5 1049,-189.5"/>
<text text-anchor="middle" x="1019.5" y="-177.5" font-family="FreeSans" font-size="10.00">complex</text>
</a>
</g>
</g>
<!-- Node21&#45;&gt;Node25 -->
<g id="edge31_Node000021_Node000025" class="edge">
<title>Node21&#45;&gt;Node25</title>
<g id="a_edge31_Node000021_Node000025"><a xlink:title=" ">
<path fill="none" stroke="#63b8ff" d="M735.55,-230.99C815.41,-221.59 936.34,-206.31 981.5,-195 984.01,-194.37 986.58,-193.64 989.14,-192.84"/>
<polygon fill="#63b8ff" stroke="#63b8ff" points="990.51,-196.07 998.85,-189.52 988.25,-189.44 990.51,-196.07"/>
</a>
</g>
</g>
<!-- Node26 -->
<g id="Node000026" class="node">
<title>Node26</title>
<g id="a_Node000026"><a xlink:title=" ">
<polygon fill="#e0e0e0" stroke="#999999" points="583,-189.5 514,-189.5 514,-170.5 583,-170.5 583,-189.5"/>
<text text-anchor="middle" x="548.5" y="-177.5" font-family="FreeSans" font-size="10.00">type_traits</text>
</a>
</g>
</g>
<!-- Node21&#45;&gt;Node26 -->
<g id="edge32_Node000021_Node000026" class="edge">
<title>Node21&#45;&gt;Node26</title>
<g id="a_edge32_Node000021_Node000026"><a xlink:title=" ">
<path fill="none" stroke="#63b8ff" d="M643.97,-230.87C625.53,-221.23 595.46,-205.53 573.99,-194.31"/>
<polygon fill="#63b8ff" stroke="#63b8ff" points="575.58,-191.19 565.09,-189.67 572.34,-197.4 575.58,-191.19"/>
</a>
</g>
</g>
<!-- Node27&#45;&gt;Node3 -->
<g id="edge35_Node000027_Node000003" class="edge">
<title>Node27&#45;&gt;Node3</title>
<g id="a_edge35_Node000027_Node000003"><a xlink:title=" ">
<path fill="none" stroke="#63b8ff" d="M495.56,-166.63C498.58,-166.06 501.57,-165.51 504.5,-165 587.84,-150.37 684.34,-137.17 747.69,-129.02"/>
<polygon fill="#63b8ff" stroke="#63b8ff" points="748.48,-132.45 757.96,-127.71 747.59,-125.51 748.48,-132.45"/>
</a>
</g>
</g>
</g>
</svg>
