<?xml version="1.0" encoding="UTF-8" standalone="no"?>
<!DOCTYPE svg PUBLIC "-//W3C//DTD SVG 1.1//EN"
 "http://www.w3.org/Graphics/SVG/1.1/DTD/svg11.dtd">
<!-- Generated by graphviz version 2.43.0 (0)
 -->
<!-- Title: mpqc/chemistry/qc/lcao/mbpt/mp2.h Pages: 1 -->
<svg width="491pt" height="170pt"
 viewBox="0.00 0.00 490.50 170.00" xmlns="http://www.w3.org/2000/svg" xmlns:xlink="http://www.w3.org/1999/xlink">
<g id="graph0" class="graph" transform="scale(1 1) rotate(0) translate(4 166)">
<title>mpqc/chemistry/qc/lcao/mbpt/mp2.h</title>
<!-- Node1 -->
<g id="Node000001" class="node">
<title>Node1</title>
<g id="a_Node000001"><a xlink:title=" ">
<polygon fill="#999999" stroke="#666666" points="316.5,-162 183.5,-162 183.5,-132 316.5,-132 316.5,-162"/>
<text text-anchor="start" x="191.5" y="-150" font-family="FreeSans" font-size="10.00">mpqc/chemistry/qc/lcao</text>
<text text-anchor="middle" x="250" y="-139" font-family="FreeSans" font-size="10.00">/mbpt/mp2.h</text>
</a>
</g>
</g>
<!-- Node2 -->
<g id="Node000002" class="node">
<title>Node2</title>
<g id="a_Node000002"><a xlink:href="mbpt_8h.html" target="_top" xlink:title=" ">
<polygon fill="white" stroke="#666666" points="151.5,-96 6.5,-96 6.5,-66 151.5,-66 151.5,-96"/>
<text text-anchor="start" x="14.5" y="-84" font-family="FreeSans" font-size="10.00">/home/runner/work/mpqc4</text>
<text text-anchor="middle" x="79" y="-73" font-family="FreeSans" font-size="10.00">/mpqc4/python/src/mbpt.h</text>
</a>
</g>
</g>
<!-- Node1&#45;&gt;Node2 -->
<g id="edge1_Node000001_Node000002" class="edge">
<title>Node1&#45;&gt;Node2</title>
<g id="a_edge1_Node000001_Node000002"><a xlink:title=" ">
<path fill="none" stroke="#63b8ff" d="M202.77,-128.32C175.55,-118.14 141.81,-105.51 116.44,-96.01"/>
<polygon fill="#63b8ff" stroke="#63b8ff" points="201.88,-131.73 212.47,-131.95 204.33,-125.17 201.88,-131.73"/>
</a>
</g>
</g>
<!-- Node4 -->
<g id="Node000004" class="node">
<title>Node4</title>
<g id="a_Node000004"><a xlink:href="gamma__point__mp2_8h.html" target="_top" xlink:title=" ">
<polygon fill="white" stroke="#666666" points="326,-96 174,-96 174,-66 326,-66 326,-96"/>
<text text-anchor="start" x="182" y="-84" font-family="FreeSans" font-size="10.00">mpqc/chemistry/qc/lcao</text>
<text text-anchor="middle" x="250" y="-73" font-family="FreeSans" font-size="10.00">/mbpt/gamma_point_mp2.h</text>
</a>
</g>
</g>
<!-- Node1&#45;&gt;Node4 -->
<g id="edge3_Node000001_Node000004" class="edge">
<title>Node1&#45;&gt;Node4</title>
<g id="a_edge3_Node000001_Node000004"><a xlink:title=" ">
<path fill="none" stroke="#63b8ff" d="M250,-121.54C250,-112.96 250,-103.61 250,-96.16"/>
<polygon fill="#63b8ff" stroke="#63b8ff" points="246.5,-121.8 250,-131.8 253.5,-121.8 246.5,-121.8"/>
</a>
</g>
</g>
<!-- Node6 -->
<g id="Node000006" class="node">
<title>Node6</title>
<g id="a_Node000006"><a xlink:href="mp2_8ipp.html" target="_top" xlink:title=" ">
<polygon fill="white" stroke="#666666" points="479.5,-96 346.5,-96 346.5,-66 479.5,-66 479.5,-96"/>
<text text-anchor="start" x="354.5" y="-84" font-family="FreeSans" font-size="10.00">mpqc/chemistry/qc/lcao</text>
<text text-anchor="middle" x="413" y="-73" font-family="FreeSans" font-size="10.00">/mbpt/mp2.ipp</text>
</a>
</g>
</g>
<!-- Node1&#45;&gt;Node6 -->
<g id="edge5_Node000001_Node000006" class="edge">
<title>Node1&#45;&gt;Node6</title>
<g id="a_edge5_Node000001_Node000006"><a xlink:title=" ">
<path fill="none" stroke="#63b8ff" d="M295.36,-128.19C321.25,-118.02 353.23,-105.47 377.31,-96.01"/>
<polygon fill="#63b8ff" stroke="#63b8ff" points="293.8,-125.04 285.77,-131.95 296.36,-131.56 293.8,-125.04"/>
</a>
</g>
</g>
<!-- Node3 -->
<g id="Node000003" class="node">
<title>Node3</title>
<g id="a_Node000003"><a xlink:href="mpqc_8cc.html" target="_top" xlink:title=" ">
<polygon fill="white" stroke="#666666" points="150,-30 0,-30 0,0 150,0 150,-30"/>
<text text-anchor="start" x="8" y="-18" font-family="FreeSans" font-size="10.00">/home/runner/work/mpqc4</text>
<text text-anchor="middle" x="75" y="-7" font-family="FreeSans" font-size="10.00">/mpqc4/python/src/mpqc.cc</text>
</a>
</g>
</g>
<!-- Node2&#45;&gt;Node3 -->
<g id="edge2_Node000002_Node000003" class="edge">
<title>Node2&#45;&gt;Node3</title>
<g id="a_edge2_Node000002_Node000003"><a xlink:title=" ">
<path fill="none" stroke="#63b8ff" d="M77.47,-55.54C76.94,-46.96 76.35,-37.61 75.89,-30.16"/>
<polygon fill="#63b8ff" stroke="#63b8ff" points="74,-56.03 78.11,-65.8 80.98,-55.6 74,-56.03"/>
</a>
</g>
</g>
<!-- Node5 -->
<g id="Node000005" class="node">
<title>Node5</title>
<g id="a_Node000005"><a xlink:href="gamma__point__mp2_8cpp.html" target="_top" xlink:title=" ">
<polygon fill="white" stroke="#666666" points="331.5,-30 168.5,-30 168.5,0 331.5,0 331.5,-30"/>
<text text-anchor="start" x="176.5" y="-18" font-family="FreeSans" font-size="10.00">mpqc/chemistry/qc/lcao</text>
<text text-anchor="middle" x="250" y="-7" font-family="FreeSans" font-size="10.00">/mbpt/gamma_point_mp2.cpp</text>
</a>
</g>
</g>
<!-- Node4&#45;&gt;Node5 -->
<g id="edge4_Node000004_Node000005" class="edge">
<title>Node4&#45;&gt;Node5</title>
<g id="a_edge4_Node000004_Node000005"><a xlink:title=" ">
<path fill="none" stroke="#63b8ff" d="M250,-55.54C250,-46.96 250,-37.61 250,-30.16"/>
<polygon fill="#63b8ff" stroke="#63b8ff" points="246.5,-55.8 250,-65.8 253.5,-55.8 246.5,-55.8"/>
</a>
</g>
</g>
<!-- Node7 -->
<g id="Node000007" class="node">
<title>Node7</title>
<g id="a_Node000007"><a xlink:href="mp2_8cpp.html" target="_top" xlink:title=" ">
<polygon fill="white" stroke="#666666" points="482.5,-30 349.5,-30 349.5,0 482.5,0 482.5,-30"/>
<text text-anchor="start" x="357.5" y="-18" font-family="FreeSans" font-size="10.00">mpqc/chemistry/qc/lcao</text>
<text text-anchor="middle" x="416" y="-7" font-family="FreeSans" font-size="10.00">/mbpt/mp2.cpp</text>
</a>
</g>
</g>
<!-- Node6&#45;&gt;Node7 -->
<g id="edge6_Node000006_Node000007" class="edge">
<title>Node6&#45;&gt;Node7</title>
<g id="a_edge6_Node000006_Node000007"><a xlink:title=" ">
<path fill="none" stroke="#63b8ff" d="M414.15,-55.54C414.55,-46.96 414.99,-37.61 415.34,-30.16"/>
<polygon fill="#63b8ff" stroke="#63b8ff" points="410.64,-55.64 413.67,-65.8 417.63,-55.97 410.64,-55.64"/>
</a>
</g>
</g>
</g>
</svg>
