<?xml version="1.0" encoding="UTF-8" standalone="no"?>
<!DOCTYPE svg PUBLIC "-//W3C//DTD SVG 1.1//EN"
 "http://www.w3.org/Graphics/SVG/1.1/DTD/svg11.dtd">
<!-- Generated by graphviz version 2.43.0 (0)
 -->
<!-- Title: mpqc/math/core/mpfloat.h Pages: 1 -->
<svg width="614pt" height="247pt"
 viewBox="0.00 0.00 614.00 247.00" xmlns="http://www.w3.org/2000/svg" xmlns:xlink="http://www.w3.org/1999/xlink">
<g id="graph0" class="graph" transform="scale(1 1) rotate(0) translate(4 243)">
<title>mpqc/math/core/mpfloat.h</title>
<!-- Node1 -->
<g id="Node000001" class="node">
<title>Node1</title>
<g id="a_Node000001"><a xlink:title=" ">
<polygon fill="#999999" stroke="#666666" points="212,-239 66,-239 66,-220 212,-220 212,-239"/>
<text text-anchor="middle" x="139" y="-227" font-family="FreeSans" font-size="10.00">mpqc/math/core/mpfloat.h</text>
</a>
</g>
</g>
<!-- Node2 -->
<g id="Node000002" class="node">
<title>Node2</title>
<g id="a_Node000002"><a xlink:href="float_8h.html" target="_top" xlink:title=" ">
<polygon fill="white" stroke="#666666" points="130,-184 0,-184 0,-165 130,-165 130,-184"/>
<text text-anchor="middle" x="65" y="-172" font-family="FreeSans" font-size="10.00">mpqc/math/core/float.h</text>
</a>
</g>
</g>
<!-- Node1&#45;&gt;Node2 -->
<g id="edge1_Node000001_Node000002" class="edge">
<title>Node1&#45;&gt;Node2</title>
<g id="a_edge1_Node000001_Node000002"><a xlink:title=" ">
<path fill="none" stroke="#63b8ff" d="M127.11,-219.98C115.85,-211.92 98.71,-199.65 85.29,-190.03"/>
<polygon fill="#63b8ff" stroke="#63b8ff" points="87.27,-187.15 77.11,-184.17 83.2,-192.84 87.27,-187.15"/>
</a>
</g>
</g>
<!-- Node3 -->
<g id="Node000003" class="node">
<title>Node3</title>
<g id="a_Node000003"><a xlink:href="assert_8h.html" target="_top" xlink:title=" ">
<polygon fill="white" stroke="#666666" points="279.5,-184 148.5,-184 148.5,-165 279.5,-165 279.5,-184"/>
<text text-anchor="middle" x="214" y="-172" font-family="FreeSans" font-size="10.00">mpqc/util/misc/assert.h</text>
</a>
</g>
</g>
<!-- Node1&#45;&gt;Node3 -->
<g id="edge2_Node000001_Node000003" class="edge">
<title>Node1&#45;&gt;Node3</title>
<g id="a_edge2_Node000001_Node000003"><a xlink:title=" ">
<path fill="none" stroke="#63b8ff" d="M151.05,-219.98C162.46,-211.92 179.83,-199.65 193.43,-190.03"/>
<polygon fill="#63b8ff" stroke="#63b8ff" points="195.58,-192.8 201.73,-184.17 191.54,-187.08 195.58,-192.8"/>
</a>
</g>
</g>
<!-- Node4 -->
<g id="Node000004" class="node">
<title>Node4</title>
<g id="a_Node000004"><a xlink:title=" ">
<polygon fill="#e0e0e0" stroke="#999999" points="169.5,-129 52.5,-129 52.5,-110 169.5,-110 169.5,-129"/>
<text text-anchor="middle" x="111" y="-117" font-family="FreeSans" font-size="10.00">mpqc/mpqc_config.h</text>
</a>
</g>
</g>
<!-- Node3&#45;&gt;Node4 -->
<g id="edge3_Node000003_Node000004" class="edge">
<title>Node3&#45;&gt;Node4</title>
<g id="a_edge3_Node000003_Node000004"><a xlink:title=" ">
<path fill="none" stroke="#63b8ff" d="M197.45,-164.98C181.11,-156.57 155.87,-143.59 136.87,-133.81"/>
<polygon fill="#63b8ff" stroke="#63b8ff" points="138.34,-130.63 127.85,-129.17 135.14,-136.86 138.34,-130.63"/>
</a>
</g>
</g>
<!-- Node5 -->
<g id="Node000005" class="node">
<title>Node5</title>
<g id="a_Node000005"><a xlink:title=" ">
<polygon fill="#e0e0e0" stroke="#999999" points="240,-129 188,-129 188,-110 240,-110 240,-129"/>
<text text-anchor="middle" x="214" y="-117" font-family="FreeSans" font-size="10.00">cassert</text>
</a>
</g>
</g>
<!-- Node3&#45;&gt;Node5 -->
<g id="edge4_Node000003_Node000005" class="edge">
<title>Node3&#45;&gt;Node5</title>
<g id="a_edge4_Node000003_Node000005"><a xlink:title=" ">
<path fill="none" stroke="#63b8ff" d="M214,-164.75C214,-157.8 214,-147.85 214,-139.13"/>
<polygon fill="#63b8ff" stroke="#63b8ff" points="217.5,-139.09 214,-129.09 210.5,-139.09 217.5,-139.09"/>
</a>
</g>
</g>
<!-- Node6 -->
<g id="Node000006" class="node">
<title>Node6</title>
<g id="a_Node000006"><a xlink:href="exception_8h.html" target="_top" xlink:title=" ">
<polygon fill="white" stroke="#666666" points="404,-129 258,-129 258,-110 404,-110 404,-129"/>
<text text-anchor="middle" x="331" y="-117" font-family="FreeSans" font-size="10.00">mpqc/util/core/exception.h</text>
</a>
</g>
</g>
<!-- Node3&#45;&gt;Node6 -->
<g id="edge5_Node000003_Node000006" class="edge">
<title>Node3&#45;&gt;Node6</title>
<g id="a_edge5_Node000003_Node000006"><a xlink:title=" ">
<path fill="none" stroke="#63b8ff" d="M232.8,-164.98C251.62,-156.46 280.82,-143.23 302.5,-133.41"/>
<polygon fill="#63b8ff" stroke="#63b8ff" points="304.2,-136.48 311.86,-129.17 301.31,-130.11 304.2,-136.48"/>
</a>
</g>
</g>
<!-- Node7 -->
<g id="Node000007" class="node">
<title>Node7</title>
<g id="a_Node000007"><a xlink:title=" ">
<polygon fill="#e0e0e0" stroke="#999999" points="151.5,-74 98.5,-74 98.5,-55 151.5,-55 151.5,-74"/>
<text text-anchor="middle" x="125" y="-62" font-family="FreeSans" font-size="10.00">string.h</text>
</a>
</g>
</g>
<!-- Node6&#45;&gt;Node7 -->
<g id="edge6_Node000006_Node000007" class="edge">
<title>Node6&#45;&gt;Node7</title>
<g id="a_edge6_Node000006_Node000007"><a xlink:title=" ">
<path fill="none" stroke="#63b8ff" d="M297.9,-109.98C260.63,-100.4 200.24,-84.86 161.59,-74.91"/>
<polygon fill="#63b8ff" stroke="#63b8ff" points="162.34,-71.49 151.78,-72.39 160.59,-78.27 162.34,-71.49"/>
</a>
</g>
</g>
<!-- Node8 -->
<g id="Node000008" class="node">
<title>Node8</title>
<g id="a_Node000008"><a xlink:href="memory.html" target="_top" xlink:title=" ">
<polygon fill="white" stroke="#666666" points="228,-74 170,-74 170,-55 228,-55 228,-74"/>
<text text-anchor="middle" x="199" y="-62" font-family="FreeSans" font-size="10.00">memory</text>
</a>
</g>
</g>
<!-- Node6&#45;&gt;Node8 -->
<g id="edge7_Node000006_Node000008" class="edge">
<title>Node6&#45;&gt;Node8</title>
<g id="a_edge7_Node000006_Node000008"><a xlink:title=" ">
<path fill="none" stroke="#63b8ff" d="M309.79,-109.98C288.27,-101.34 254.72,-87.87 230.17,-78.02"/>
<polygon fill="#63b8ff" stroke="#63b8ff" points="231.18,-74.65 220.59,-74.17 228.57,-81.14 231.18,-74.65"/>
</a>
</g>
</g>
<!-- Node9 -->
<g id="Node000009" class="node">
<title>Node9</title>
<g id="a_Node000009"><a xlink:title=" ">
<polygon fill="#e0e0e0" stroke="#999999" points="320,-74 264,-74 264,-55 320,-55 320,-74"/>
<text text-anchor="middle" x="292" y="-62" font-family="FreeSans" font-size="10.00">sstream</text>
</a>
</g>
</g>
<!-- Node6&#45;&gt;Node9 -->
<g id="edge9_Node000006_Node000009" class="edge">
<title>Node6&#45;&gt;Node9</title>
<g id="a_edge9_Node000006_Node000009"><a xlink:title=" ">
<path fill="none" stroke="#63b8ff" d="M324.56,-109.75C319.11,-102.34 311.14,-91.5 304.44,-82.41"/>
<polygon fill="#63b8ff" stroke="#63b8ff" points="307.07,-80.07 298.32,-74.09 301.43,-84.22 307.07,-80.07"/>
</a>
</g>
</g>
<!-- Node10 -->
<g id="Node000010" class="node">
<title>Node10</title>
<g id="a_Node000010"><a xlink:title=" ">
<polygon fill="#e0e0e0" stroke="#999999" points="403.5,-74 338.5,-74 338.5,-55 403.5,-55 403.5,-74"/>
<text text-anchor="middle" x="371" y="-62" font-family="FreeSans" font-size="10.00">stdexcept</text>
</a>
</g>
</g>
<!-- Node6&#45;&gt;Node10 -->
<g id="edge10_Node000006_Node000010" class="edge">
<title>Node6&#45;&gt;Node10</title>
<g id="a_edge10_Node000006_Node000010"><a xlink:title=" ">
<path fill="none" stroke="#63b8ff" d="M337.61,-109.75C343.26,-102.26 351.54,-91.28 358.45,-82.13"/>
<polygon fill="#63b8ff" stroke="#63b8ff" points="361.29,-84.18 364.52,-74.09 355.7,-79.96 361.29,-84.18"/>
</a>
</g>
</g>
<!-- Node11 -->
<g id="Node000011" class="node">
<title>Node11</title>
<g id="a_Node000011"><a xlink:title=" ">
<polygon fill="#e0e0e0" stroke="#999999" points="474.5,-19 427.5,-19 427.5,0 474.5,0 474.5,-19"/>
<text text-anchor="middle" x="451" y="-7" font-family="FreeSans" font-size="10.00">vector</text>
</a>
</g>
</g>
<!-- Node6&#45;&gt;Node11 -->
<g id="edge11_Node000006_Node000011" class="edge">
<title>Node6&#45;&gt;Node11</title>
<g id="a_edge11_Node000006_Node000011"><a xlink:title=" ">
<path fill="none" stroke="#63b8ff" d="M353.62,-109.86C371.08,-102.36 395.04,-90.16 412,-74 425.58,-61.06 436.29,-42.4 443.03,-28.65"/>
<polygon fill="#63b8ff" stroke="#63b8ff" points="446.34,-29.82 447.38,-19.28 439.99,-26.87 446.34,-29.82"/>
</a>
</g>
</g>
<!-- Node12 -->
<g id="Node000012" class="node">
<title>Node12</title>
<g id="a_Node000012"><a xlink:href="backtrace_8h.html" target="_top" xlink:title=" ">
<polygon fill="white" stroke="#666666" points="606,-74 460,-74 460,-55 606,-55 606,-74"/>
<text text-anchor="middle" x="533" y="-62" font-family="FreeSans" font-size="10.00">mpqc/util/core/backtrace.h</text>
</a>
</g>
</g>
<!-- Node6&#45;&gt;Node12 -->
<g id="edge12_Node000006_Node000012" class="edge">
<title>Node6&#45;&gt;Node12</title>
<g id="a_edge12_Node000006_Node000012"><a xlink:title=" ">
<path fill="none" stroke="#63b8ff" d="M363.45,-109.98C397.96,-100.93 452.66,-86.58 490.56,-76.64"/>
<polygon fill="#63b8ff" stroke="#63b8ff" points="491.51,-80.01 500.29,-74.08 489.73,-73.23 491.51,-80.01"/>
</a>
</g>
</g>
<!-- Node8&#45;&gt;Node8 -->
<g id="edge8_Node000008_Node000008" class="edge">
<title>Node8&#45;&gt;Node8</title>
<g id="a_edge8_Node000008_Node000008"><a xlink:title=" ">
<path fill="none" stroke="#63b8ff" d="M221.24,-74.07C234.06,-76.02 246,-72.83 246,-64.5 246,-58.45 239.7,-55.11 231.34,-54.48"/>
<polygon fill="#63b8ff" stroke="#63b8ff" points="231.08,-50.99 221.24,-54.93 231.39,-57.98 231.08,-50.99"/>
</a>
</g>
</g>
<!-- Node12&#45;&gt;Node11 -->
<g id="edge14_Node000012_Node000011" class="edge">
<title>Node12&#45;&gt;Node11</title>
<g id="a_edge14_Node000012_Node000011"><a xlink:title=" ">
<path fill="none" stroke="#63b8ff" d="M519.83,-54.98C507.23,-46.84 488,-34.41 473.06,-24.76"/>
<polygon fill="#63b8ff" stroke="#63b8ff" points="474.71,-21.66 464.41,-19.17 470.91,-27.54 474.71,-21.66"/>
</a>
</g>
</g>
<!-- Node13 -->
<g id="Node000013" class="node">
<title>Node13</title>
<g id="a_Node000013"><a xlink:title=" ">
<polygon fill="#e0e0e0" stroke="#999999" points="555,-19 511,-19 511,0 555,0 555,-19"/>
<text text-anchor="middle" x="533" y="-7" font-family="FreeSans" font-size="10.00">string</text>
</a>
</g>
</g>
<!-- Node12&#45;&gt;Node13 -->
<g id="edge13_Node000012_Node000013" class="edge">
<title>Node12&#45;&gt;Node13</title>
<g id="a_edge13_Node000012_Node000013"><a xlink:title=" ">
<path fill="none" stroke="#63b8ff" d="M533,-54.75C533,-47.8 533,-37.85 533,-29.13"/>
<polygon fill="#63b8ff" stroke="#63b8ff" points="536.5,-29.09 533,-19.09 529.5,-29.09 536.5,-29.09"/>
</a>
</g>
</g>
</g>
</svg>
