<?xml version="1.0" encoding="UTF-8" standalone="no"?>
<!DOCTYPE svg PUBLIC "-//W3C//DTD SVG 1.1//EN"
 "http://www.w3.org/Graphics/SVG/1.1/DTD/svg11.dtd">
<!-- Generated by graphviz version 2.43.0 (0)
 -->
<!-- Title: mpqc/util/core/mpqc_extern_template.h Pages: 1 -->
<svg width="520pt" height="368pt"
 viewBox="0.00 0.00 520.00 368.00" xmlns="http://www.w3.org/2000/svg" xmlns:xlink="http://www.w3.org/1999/xlink">
<g id="graph0" class="graph" transform="scale(1 1) rotate(0) translate(4 364)">
<title>mpqc/util/core/mpqc_extern_template.h</title>
<!-- Node1 -->
<g id="Node000001" class="node">
<title>Node1</title>
<g id="a_Node000001"><a xlink:title=" ">
<polygon fill="#999999" stroke="#666666" points="219.5,-360 103.5,-360 103.5,-330 219.5,-330 219.5,-360"/>
<text text-anchor="start" x="111.5" y="-348" font-family="FreeSans" font-size="10.00">mpqc/util/core/mpqc</text>
<text text-anchor="middle" x="161.5" y="-337" font-family="FreeSans" font-size="10.00">_extern_template.h</text>
</a>
</g>
</g>
<!-- Node2 -->
<g id="Node000002" class="node">
<title>Node2</title>
<g id="a_Node000002"><a xlink:href="wfn__world_8ipp.html" target="_top" xlink:title=" ">
<polygon fill="white" stroke="#666666" points="133,-294 0,-294 0,-264 133,-264 133,-294"/>
<text text-anchor="start" x="8" y="-282" font-family="FreeSans" font-size="10.00">mpqc/chemistry/qc/lcao</text>
<text text-anchor="middle" x="66.5" y="-271" font-family="FreeSans" font-size="10.00">/factory/wfn_world.ipp</text>
</a>
</g>
</g>
<!-- Node1&#45;&gt;Node2 -->
<g id="edge1_Node000001_Node000002" class="edge">
<title>Node1&#45;&gt;Node2</title>
<g id="a_edge1_Node000001_Node000002"><a xlink:title=" ">
<path fill="none" stroke="#63b8ff" d="M131.85,-324.03C117.48,-314.34 100.55,-302.94 87.52,-294.16"/>
<polygon fill="#63b8ff" stroke="#63b8ff" points="130.17,-327.11 140.42,-329.8 134.08,-321.31 130.17,-327.11"/>
</a>
</g>
</g>
<!-- Node3 -->
<g id="Node000003" class="node">
<title>Node3</title>
<g id="a_Node000003"><a xlink:href="ks__fock__builder_8ipp.html" target="_top" xlink:title=" ">
<polygon fill="white" stroke="#666666" points="275,-96 142,-96 142,-66 275,-66 275,-96"/>
<text text-anchor="start" x="150" y="-84" font-family="FreeSans" font-size="10.00">mpqc/chemistry/qc/lcao</text>
<text text-anchor="middle" x="208.5" y="-73" font-family="FreeSans" font-size="10.00">/scf/ks_fock_builder.ipp</text>
</a>
</g>
</g>
<!-- Node1&#45;&gt;Node3 -->
<g id="edge2_Node000001_Node000003" class="edge">
<title>Node1&#45;&gt;Node3</title>
<g id="a_edge2_Node000001_Node000003"><a xlink:title=" ">
<path fill="none" stroke="#63b8ff" d="M160.43,-319.85C159.36,-279.83 160.19,-197.67 180.5,-132 184.5,-119.07 192.15,-105.77 198.45,-96.14"/>
<polygon fill="#63b8ff" stroke="#63b8ff" points="156.94,-320.09 160.77,-329.97 163.93,-319.86 156.94,-320.09"/>
</a>
</g>
</g>
<!-- Node5 -->
<g id="Node000005" class="node">
<title>Node5</title>
<g id="a_Node000005"><a xlink:href="xc__fock__builder_8ipp.html" target="_top" xlink:title=" ">
<polygon fill="white" stroke="#666666" points="361,-294 228,-294 228,-264 361,-264 361,-294"/>
<text text-anchor="start" x="236" y="-282" font-family="FreeSans" font-size="10.00">mpqc/chemistry/qc/lcao</text>
<text text-anchor="middle" x="294.5" y="-271" font-family="FreeSans" font-size="10.00">/scf/xc_fock_builder.ipp</text>
</a>
</g>
</g>
<!-- Node1&#45;&gt;Node5 -->
<g id="edge4_Node000001_Node000005" class="edge">
<title>Node1&#45;&gt;Node5</title>
<g id="a_edge4_Node000001_Node000005"><a xlink:title=" ">
<path fill="none" stroke="#63b8ff" d="M199.92,-325.51C220.78,-315.47 246.17,-303.26 265.38,-294.01"/>
<polygon fill="#63b8ff" stroke="#63b8ff" points="198.18,-322.46 190.69,-329.95 201.22,-328.77 198.18,-322.46"/>
</a>
</g>
</g>
<!-- Node4 -->
<g id="Node000004" class="node">
<title>Node4</title>
<g id="a_Node000004"><a xlink:href="ks__fock__builder_8cpp.html" target="_top" xlink:title=" ">
<polygon fill="white" stroke="#666666" points="275,-30 142,-30 142,0 275,0 275,-30"/>
<text text-anchor="start" x="150" y="-18" font-family="FreeSans" font-size="10.00">mpqc/chemistry/qc/lcao</text>
<text text-anchor="middle" x="208.5" y="-7" font-family="FreeSans" font-size="10.00">/scf/ks_fock_builder.cpp</text>
</a>
</g>
</g>
<!-- Node3&#45;&gt;Node4 -->
<g id="edge3_Node000003_Node000004" class="edge">
<title>Node3&#45;&gt;Node4</title>
<g id="a_edge3_Node000003_Node000004"><a xlink:title=" ">
<path fill="none" stroke="#63b8ff" d="M208.5,-55.54C208.5,-46.96 208.5,-37.61 208.5,-30.16"/>
<polygon fill="#63b8ff" stroke="#63b8ff" points="205,-55.8 208.5,-65.8 212,-55.8 205,-55.8"/>
</a>
</g>
</g>
<!-- Node6 -->
<g id="Node000006" class="node">
<title>Node6</title>
<g id="a_Node000006"><a xlink:href="ks__fock__builder_8h.html" target="_top" xlink:title=" ">
<polygon fill="white" stroke="#666666" points="323,-162 190,-162 190,-132 323,-132 323,-162"/>
<text text-anchor="start" x="198" y="-150" font-family="FreeSans" font-size="10.00">mpqc/chemistry/qc/lcao</text>
<text text-anchor="middle" x="256.5" y="-139" font-family="FreeSans" font-size="10.00">/scf/ks_fock_builder.h</text>
</a>
</g>
</g>
<!-- Node5&#45;&gt;Node6 -->
<g id="edge5_Node000005_Node000006" class="edge">
<title>Node5&#45;&gt;Node6</title>
<g id="a_edge5_Node000005_Node000006"><a xlink:title=" ">
<path fill="none" stroke="#63b8ff" d="M249.92,-258.81C237.49,-251.14 225.5,-240.98 218.5,-228 206.31,-205.4 226.2,-178.24 241.5,-162.09"/>
<polygon fill="#63b8ff" stroke="#63b8ff" points="248.55,-262.06 258.97,-263.96 252.01,-255.98 248.55,-262.06"/>
</a>
</g>
</g>
<!-- Node7 -->
<g id="Node000007" class="node">
<title>Node7</title>
<g id="a_Node000007"><a xlink:href="xc__fock__builder_8cpp.html" target="_top" xlink:title=" ">
<polygon fill="white" stroke="#666666" points="361,-228 228,-228 228,-198 361,-198 361,-228"/>
<text text-anchor="start" x="236" y="-216" font-family="FreeSans" font-size="10.00">mpqc/chemistry/qc/lcao</text>
<text text-anchor="middle" x="294.5" y="-205" font-family="FreeSans" font-size="10.00">/scf/xc_fock_builder.cpp</text>
</a>
</g>
</g>
<!-- Node5&#45;&gt;Node7 -->
<g id="edge7_Node000005_Node000007" class="edge">
<title>Node5&#45;&gt;Node7</title>
<g id="a_edge7_Node000005_Node000007"><a xlink:title=" ">
<path fill="none" stroke="#63b8ff" d="M294.5,-253.54C294.5,-244.96 294.5,-235.61 294.5,-228.16"/>
<polygon fill="#63b8ff" stroke="#63b8ff" points="291,-253.8 294.5,-263.8 298,-253.8 291,-253.8"/>
</a>
</g>
</g>
<!-- Node8 -->
<g id="Node000008" class="node">
<title>Node8</title>
<g id="a_Node000008"><a xlink:href="xc__fock__builder_8h.html" target="_top" xlink:title=" ">
<polygon fill="white" stroke="#666666" points="512,-228 379,-228 379,-198 512,-198 512,-228"/>
<text text-anchor="start" x="387" y="-216" font-family="FreeSans" font-size="10.00">mpqc/chemistry/qc/lcao</text>
<text text-anchor="middle" x="445.5" y="-205" font-family="FreeSans" font-size="10.00">/scf/xc_fock_builder.h</text>
</a>
</g>
</g>
<!-- Node5&#45;&gt;Node8 -->
<g id="edge8_Node000005_Node000008" class="edge">
<title>Node5&#45;&gt;Node8</title>
<g id="a_edge8_Node000005_Node000008"><a xlink:title=" ">
<path fill="none" stroke="#63b8ff" d="M331.32,-259.78C354.21,-249.69 383.5,-237.34 406.74,-228.01"/>
<polygon fill="#63b8ff" stroke="#63b8ff" points="329.65,-256.69 321.94,-263.95 332.5,-263.09 329.65,-256.69"/>
</a>
</g>
</g>
<!-- Node6&#45;&gt;Node3 -->
<g id="edge6_Node000006_Node000003" class="edge">
<title>Node6&#45;&gt;Node3</title>
<g id="a_edge6_Node000006_Node000003"><a xlink:title=" ">
<path fill="none" stroke="#63b8ff" d="M239.64,-123.53C232.82,-114.43 225.15,-104.19 219.12,-96.16"/>
<polygon fill="#63b8ff" stroke="#63b8ff" points="237.05,-125.9 245.85,-131.8 242.65,-121.7 237.05,-125.9"/>
</a>
</g>
</g>
<!-- Node8&#45;&gt;Node5 -->
<g id="edge10_Node000008_Node000005" class="edge">
<title>Node8&#45;&gt;Node5</title>
<g id="a_edge10_Node000008_Node000005"><a xlink:title=" ">
<path fill="none" stroke="#63b8ff" d="M408.76,-232.18C385.89,-242.27 356.59,-254.62 333.34,-263.95"/>
<polygon fill="#63b8ff" stroke="#63b8ff" points="410.42,-235.27 418.13,-228.01 407.58,-228.88 410.42,-235.27"/>
</a>
</g>
</g>
<!-- Node8&#45;&gt;Node6 -->
<g id="edge9_Node000008_Node000006" class="edge">
<title>Node8&#45;&gt;Node6</title>
<g id="a_edge9_Node000008_Node000006"><a xlink:title=" ">
<path fill="none" stroke="#63b8ff" d="M394.48,-194.72C364.2,-184.47 326.29,-171.63 297.88,-162.01"/>
<polygon fill="#63b8ff" stroke="#63b8ff" points="393.43,-198.06 404.02,-197.95 395.67,-191.43 393.43,-198.06"/>
</a>
</g>
</g>
</g>
</svg>
