<?xml version="1.0" encoding="UTF-8" standalone="no"?>
<!DOCTYPE svg PUBLIC "-//W3C//DTD SVG 1.1//EN"
 "http://www.w3.org/Graphics/SVG/1.1/DTD/svg11.dtd">
<!-- Generated by graphviz version 2.43.0 (0)
 -->
<!-- Title: bin/mpqc/mpqc_task.h Pages: 1 -->
<svg width="276pt" height="82pt"
 viewBox="0.00 0.00 276.00 82.00" xmlns="http://www.w3.org/2000/svg" xmlns:xlink="http://www.w3.org/1999/xlink">
<g id="graph0" class="graph" transform="scale(1 1) rotate(0) translate(4 78)">
<title>bin/mpqc/mpqc_task.h</title>
<!-- Node1 -->
<g id="Node000001" class="node">
<title>Node1</title>
<g id="a_Node000001"><a xlink:title=" ">
<polygon fill="#999999" stroke="#666666" points="190.5,-74 63.5,-74 63.5,-55 190.5,-55 190.5,-74"/>
<text text-anchor="middle" x="127" y="-62" font-family="FreeSans" font-size="10.00">bin/mpqc/mpqc_task.h</text>
</a>
</g>
</g>
<!-- Node2 -->
<g id="Node000002" class="node">
<title>Node2</title>
<g id="a_Node000002"><a xlink:href="mpqc_8cpp.html" target="_top" xlink:title=" ">
<polygon fill="white" stroke="#666666" points="112,-19 0,-19 0,0 112,0 112,-19"/>
<text text-anchor="middle" x="56" y="-7" font-family="FreeSans" font-size="10.00">bin/mpqc/mpqc.cpp</text>
</a>
</g>
</g>
<!-- Node1&#45;&gt;Node2 -->
<g id="edge1_Node000001_Node000002" class="edge">
<title>Node1&#45;&gt;Node2</title>
<g id="a_edge1_Node000001_Node000002"><a xlink:title=" ">
<path fill="none" stroke="#63b8ff" d="M107.41,-48.88C94.63,-39.34 78.39,-27.21 67.61,-19.17"/>
<polygon fill="#63b8ff" stroke="#63b8ff" points="105.49,-51.81 115.59,-54.98 109.67,-46.2 105.49,-51.81"/>
</a>
</g>
</g>
<!-- Node3 -->
<g id="Node000003" class="node">
<title>Node3</title>
<g id="a_Node000003"><a xlink:href="mpqc__task_8cpp.html" target="_top" xlink:title=" ">
<polygon fill="white" stroke="#666666" points="268,-19 130,-19 130,0 268,0 268,-19"/>
<text text-anchor="middle" x="199" y="-7" font-family="FreeSans" font-size="10.00">bin/mpqc/mpqc_task.cpp</text>
</a>
</g>
</g>
<!-- Node1&#45;&gt;Node3 -->
<g id="edge2_Node000001_Node000003" class="edge">
<title>Node1&#45;&gt;Node3</title>
<g id="a_edge2_Node000001_Node000003"><a xlink:title=" ">
<path fill="none" stroke="#63b8ff" d="M146.87,-48.88C159.82,-39.34 176.3,-27.21 187.22,-19.17"/>
<polygon fill="#63b8ff" stroke="#63b8ff" points="144.55,-46.24 138.57,-54.98 148.7,-51.88 144.55,-46.24"/>
</a>
</g>
</g>
</g>
</svg>
