<?xml version="1.0" encoding="UTF-8" standalone="no"?>
<!DOCTYPE svg PUBLIC "-//W3C//DTD SVG 1.1//EN"
 "http://www.w3.org/Graphics/SVG/1.1/DTD/svg11.dtd">
<!-- Generated by graphviz version 2.43.0 (0)
 -->
<!-- Title: bin/mpqc/mpqc_task.h Pages: 1 -->
<!--zoomable 401 -->

<svg id="main" version="1.1" xmlns="http://www.w3.org/2000/svg" xmlns:xlink="http://www.w3.org/1999/xlink" xml:space="preserve" onload="init(evt)">
<style type="text/css"><![CDATA[
.node, .edge {opacity: 0.7;}
.node.selected, .edge.selected {opacity: 1;}
.edge:hover path { stroke: red; }
.edge:hover polygon { stroke: red; fill: red; }
]]></style>

<defs>
  <circle id="rim" cx="0" cy="0" r="7"/>
  <circle id="rim2" cx="0" cy="0" r="3.5"/>
  <g id="zoomPlus">
    <use xlink:href="#rim" fill="#404040"><set attributeName="fill" to="#808080" begin="zoomplus.mouseover" end="zoomplus.mouseout"/></use>
    <path d="M-4,0h8M0,-4v8" fill="none" stroke="white" stroke-width="1.5" pointer-events="none"/>
  </g>
  <g id="zoomMin">
    <use xlink:href="#rim" fill="#404040"><set attributeName="fill" to="#808080" begin="zoomminus.mouseover" end="zoomminus.mouseout"/></use>
    <path d="M-4,0h8" fill="none" stroke="white" stroke-width="1.5" pointer-events="none"/>
  </g>
  <g id="arrowUp" transform="translate(30 24)">
    <use xlink:href="#rim"/>
    <path pointer-events="none" fill="none" stroke="white" stroke-width="1.5" d="M0,-3.0v7 M-2.5,-0.5L0,-3.0L2.5,-0.5"/>
  </g>
  <g id="arrowRight" transform="rotate(90) translate(36 -43)">
    <use xlink:href="#rim"/>
    <path pointer-events="none" fill="none" stroke="white" stroke-width="1.5" d="M0,-3.0v7 M-2.5,-0.5L0,-3.0L2.5,-0.5"/>
  </g>
  <g id="arrowDown" transform="rotate(180) translate(-30 -48)">
    <use xlink:href="#rim"/>
    <path pointer-events="none" fill="none" stroke="white" stroke-width="1.5" d="M0,-3.0v7 M-2.5,-0.5L0,-3.0L2.5,-0.5"/>
  </g>
  <g id="arrowLeft" transform="rotate(270) translate(-36 17)">
    <use xlink:href="#rim"/>
    <path pointer-events="none" fill="none" stroke="white" stroke-width="1.5" d="M0,-3.0v7 M-2.5,-0.5L0,-3.0L2.5,-0.5"/>
  </g>
  <g id="resetDef">
    <use xlink:href="#rim2" fill="#404040"><set attributeName="fill" to="#808080" begin="reset.mouseover" end="reset.mouseout"/></use>
  </g>
</defs>
<script type="application/ecmascript">
var viewWidth = 2474;
var viewHeight = 401;
var sectionId = 'dynsection-0';
</script>
<script type="application/ecmascript" xlink:href="svg.min.js"/>
<svg id="graph" class="graph">
<g id="viewport">
<title>bin/mpqc/mpqc_task.h</title>
<!-- Node1 -->
<g id="Node000001" class="node">
<title>Node1</title>
<g id="a_Node000001"><a xlink:title=" ">
<polygon fill="#999999" stroke="#666666" points="843.8,-393 716.8,-393 716.8,-374 843.8,-374 843.8,-393"/>
<text text-anchor="middle" x="780.3" y="-381" font-family="FreeSans" font-size="10.00">bin/mpqc/mpqc_task.h</text>
</a>
</g>
</g>
<!-- Node2 -->
<g id="Node000002" class="node">
<title>Node2</title>
<g id="a_Node000002"><a xlink:href="memory.html" target="_top" xlink:title=" ">
<polygon fill="white" stroke="#666666" points="267.3,-145.5 209.3,-145.5 209.3,-126.5 267.3,-126.5 267.3,-145.5"/>
<text text-anchor="middle" x="238.3" y="-133.5" font-family="FreeSans" font-size="10.00">memory</text>
</a>
</g>
</g>
<!-- Node1&#45;&gt;Node2 -->
<g id="edge1_Node000001_Node000002" class="edge">
<title>Node1&#45;&gt;Node2</title>
<g id="a_edge1_Node000001_Node000002"><a xlink:title=" ">
<path fill="none" stroke="#63b8ff" d="M716.71,-378.75C544.37,-367.96 78.18,-334.25 33.3,-283 -26.1,-215.16 73.45,-255.9 143.3,-217 174.67,-199.53 205.42,-170.95 223.09,-153.09"/>
<polygon fill="#63b8ff" stroke="#63b8ff" points="225.79,-155.34 230.24,-145.72 220.76,-150.46 225.79,-155.34"/>
</a>
</g>
</g>
<!-- Node3 -->
<g id="Node000003" class="node">
<title>Node3</title>
<g id="a_Node000003"><a xlink:title=" ">
<polygon fill="#e0e0e0" stroke="#999999" points="999.3,-338 869.3,-338 869.3,-319 999.3,-319 999.3,-338"/>
<text text-anchor="middle" x="934.3" y="-326" font-family="FreeSans" font-size="10.00">madness/world/world.h</text>
</a>
</g>
</g>
<!-- Node1&#45;&gt;Node3 -->
<g id="edge3_Node000001_Node000003" class="edge">
<title>Node1&#45;&gt;Node3</title>
<g id="a_edge3_Node000001_Node000003"><a xlink:title=" ">
<path fill="none" stroke="#63b8ff" d="M805.05,-373.98C830.68,-365.16 870.93,-351.31 899.71,-341.41"/>
<polygon fill="#63b8ff" stroke="#63b8ff" points="901.05,-344.65 909.37,-338.08 898.77,-338.03 901.05,-344.65"/>
</a>
</g>
</g>
<!-- Node4 -->
<g id="Node000004" class="node">
<title>Node4</title>
<g id="a_Node000004"><a xlink:href="src_2mpqc_2util_2keyval_2keyval_8h.html" target="_top" xlink:title=" ">
<polygon fill="white" stroke="#666666" points="851.3,-338 709.3,-338 709.3,-319 851.3,-319 851.3,-338"/>
<text text-anchor="middle" x="780.3" y="-326" font-family="FreeSans" font-size="10.00">mpqc/util/keyval/keyval.h</text>
</a>
</g>
</g>
<!-- Node1&#45;&gt;Node4 -->
<g id="edge4_Node000001_Node000004" class="edge">
<title>Node1&#45;&gt;Node4</title>
<g id="a_edge4_Node000001_Node000004"><a xlink:title=" ">
<path fill="none" stroke="#63b8ff" d="M780.3,-373.75C780.3,-366.8 780.3,-356.85 780.3,-348.13"/>
<polygon fill="#63b8ff" stroke="#63b8ff" points="783.8,-348.09 780.3,-338.09 776.8,-348.09 783.8,-348.09"/>
</a>
</g>
</g>
<!-- Node2&#45;&gt;Node2 -->
<g id="edge2_Node000002_Node000002" class="edge">
<title>Node2&#45;&gt;Node2</title>
<g id="a_edge2_Node000002_Node000002"><a xlink:title=" ">
<path fill="none" stroke="#63b8ff" d="M253.22,-145.66C268.4,-151.34 285.3,-148.12 285.3,-136 285.3,-126.53 274.99,-122.5 263.24,-123.89"/>
<polygon fill="#63b8ff" stroke="#63b8ff" points="262.1,-120.57 253.22,-126.34 263.77,-127.37 262.1,-120.57"/>
</a>
</g>
</g>
<!-- Node4&#45;&gt;Node2 -->
<g id="edge12_Node000004_Node000002" class="edge">
<title>Node4&#45;&gt;Node2</title>
<g id="a_edge12_Node000004_Node000002"><a xlink:title=" ">
<path fill="none" stroke="#63b8ff" d="M709.3,-327.12C565.77,-325.62 251.91,-318.3 219.3,-283 186.58,-247.58 212.41,-185.06 228.26,-154.63"/>
<polygon fill="#63b8ff" stroke="#63b8ff" points="231.45,-156.09 233.15,-145.63 225.3,-152.74 231.45,-156.09"/>
</a>
</g>
</g>
<!-- Node5 -->
<g id="Node000005" class="node">
<title>Node5</title>
<g id="a_Node000005"><a xlink:title=" ">
<polygon fill="#e0e0e0" stroke="#999999" points="2066.3,-79.5 2024.3,-79.5 2024.3,-60.5 2066.3,-60.5 2066.3,-79.5"/>
<text text-anchor="middle" x="2045.3" y="-67.5" font-family="FreeSans" font-size="10.00">array</text>
</a>
</g>
</g>
<!-- Node4&#45;&gt;Node5 -->
<g id="edge5_Node000004_Node000005" class="edge">
<title>Node4&#45;&gt;Node5</title>
<g id="a_edge5_Node000004_Node000005"><a xlink:title=" ">
<path fill="none" stroke="#63b8ff" d="M851.38,-319.67C854.39,-319.43 857.38,-319.2 860.3,-319 923.85,-314.63 1958,-324.53 2006.3,-283 2063.23,-234.06 2054.89,-131.64 2048.61,-89.61"/>
<polygon fill="#63b8ff" stroke="#63b8ff" points="2052.05,-88.96 2046.99,-79.66 2045.14,-90.09 2052.05,-88.96"/>
</a>
</g>
</g>
<!-- Node6 -->
<g id="Node000006" class="node">
<title>Node6</title>
<g id="a_Node000006"><a xlink:title=" ">
<polygon fill="#e0e0e0" stroke="#999999" points="94.3,-277.5 42.3,-277.5 42.3,-258.5 94.3,-258.5 94.3,-277.5"/>
<text text-anchor="middle" x="68.3" y="-265.5" font-family="FreeSans" font-size="10.00">cassert</text>
</a>
</g>
</g>
<!-- Node4&#45;&gt;Node6 -->
<g id="edge6_Node000004_Node000006" class="edge">
<title>Node4&#45;&gt;Node6</title>
<g id="a_edge6_Node000004_Node000006"><a xlink:title=" ">
<path fill="none" stroke="#63b8ff" d="M709.03,-325.65C559.39,-321.29 216.95,-308.78 103.3,-283 100.93,-282.46 98.52,-281.79 96.11,-281.02"/>
<polygon fill="#63b8ff" stroke="#63b8ff" points="97.08,-277.65 86.48,-277.53 94.69,-284.23 97.08,-277.65"/>
</a>
</g>
</g>
<!-- Node7 -->
<g id="Node000007" class="node">
<title>Node7</title>
<g id="a_Node000007"><a xlink:title=" ">
<polygon fill="#e0e0e0" stroke="#999999" points="171.8,-277.5 112.8,-277.5 112.8,-258.5 171.8,-258.5 171.8,-277.5"/>
<text text-anchor="middle" x="142.3" y="-265.5" font-family="FreeSans" font-size="10.00">complex</text>
</a>
</g>
</g>
<!-- Node4&#45;&gt;Node7 -->
<g id="edge7_Node000004_Node000007" class="edge">
<title>Node4&#45;&gt;Node7</title>
<g id="a_edge7_Node000004_Node000007"><a xlink:title=" ">
<path fill="none" stroke="#63b8ff" d="M709.19,-327.5C597.02,-326.31 372.6,-319.1 186.3,-283 182.81,-282.32 179.21,-281.46 175.64,-280.5"/>
<polygon fill="#63b8ff" stroke="#63b8ff" points="176.37,-277.06 165.79,-277.59 174.39,-283.78 176.37,-277.06"/>
</a>
</g>
</g>
<!-- Node8 -->
<g id="Node000008" class="node">
<title>Node8</title>
<g id="a_Node000008"><a xlink:title=" ">
<polygon fill="#e0e0e0" stroke="#999999" points="643.3,-211.5 583.3,-211.5 583.3,-192.5 643.3,-192.5 643.3,-211.5"/>
<text text-anchor="middle" x="613.3" y="-199.5" font-family="FreeSans" font-size="10.00">iostream</text>
</a>
</g>
</g>
<!-- Node4&#45;&gt;Node8 -->
<g id="edge8_Node000004_Node000008" class="edge">
<title>Node4&#45;&gt;Node8</title>
<g id="a_edge8_Node000004_Node000008"><a xlink:title=" ">
<path fill="none" stroke="#63b8ff" d="M709.12,-323.66C609.9,-317.57 440.02,-304.18 421.3,-283 342.85,-194.22 380.45,-273.42 573.3,-217 575.71,-216.3 578.19,-215.53 580.68,-214.73"/>
<polygon fill="#63b8ff" stroke="#63b8ff" points="581.8,-218.05 590.17,-211.56 579.58,-211.41 581.8,-218.05"/>
</a>
</g>
</g>
<!-- Node9 -->
<g id="Node000009" class="node">
<title>Node9</title>
<g id="a_Node000009"><a xlink:title=" ">
<polygon fill="#e0e0e0" stroke="#999999" points="482.3,-277.5 450.3,-277.5 450.3,-258.5 482.3,-258.5 482.3,-277.5"/>
<text text-anchor="middle" x="466.3" y="-265.5" font-family="FreeSans" font-size="10.00">list</text>
</a>
</g>
</g>
<!-- Node4&#45;&gt;Node9 -->
<g id="edge9_Node000004_Node000009" class="edge">
<title>Node4&#45;&gt;Node9</title>
<g id="a_edge9_Node000004_Node000009"><a xlink:title=" ">
<path fill="none" stroke="#63b8ff" d="M709.13,-323.63C649.57,-318.74 563.06,-307.71 491.3,-283 490.44,-282.7 489.57,-282.38 488.7,-282.02"/>
<polygon fill="#63b8ff" stroke="#63b8ff" points="490.17,-278.85 479.64,-277.62 487.11,-285.14 490.17,-278.85"/>
</a>
</g>
</g>
<!-- Node10 -->
<g id="Node000010" class="node">
<title>Node10</title>
<g id="a_Node000010"><a xlink:title=" ">
<polygon fill="#e0e0e0" stroke="#999999" points="546.3,-277.5 500.3,-277.5 500.3,-258.5 546.3,-258.5 546.3,-277.5"/>
<text text-anchor="middle" x="523.3" y="-265.5" font-family="FreeSans" font-size="10.00">locale</text>
</a>
</g>
</g>
<!-- Node4&#45;&gt;Node10 -->
<g id="edge10_Node000004_Node000010" class="edge">
<title>Node4&#45;&gt;Node10</title>
<g id="a_edge10_Node000004_Node000010"><a xlink:title=" ">
<path fill="none" stroke="#63b8ff" d="M718.28,-318.95C672.58,-311.76 609.26,-299.92 555.3,-283 553.67,-282.49 552.01,-281.92 550.35,-281.31"/>
<polygon fill="#63b8ff" stroke="#63b8ff" points="551.56,-278.03 540.98,-277.55 548.96,-284.52 551.56,-278.03"/>
</a>
</g>
</g>
<!-- Node11 -->
<g id="Node000011" class="node">
<title>Node11</title>
<g id="a_Node000011"><a xlink:title=" ">
<polygon fill="#e0e0e0" stroke="#999999" points="1309.3,-145.5 1271.3,-145.5 1271.3,-126.5 1309.3,-126.5 1309.3,-145.5"/>
<text text-anchor="middle" x="1290.3" y="-133.5" font-family="FreeSans" font-size="10.00">map</text>
</a>
</g>
</g>
<!-- Node4&#45;&gt;Node11 -->
<g id="edge11_Node000004_Node000011" class="edge">
<title>Node4&#45;&gt;Node11</title>
<g id="a_edge11_Node000004_Node000011"><a xlink:title=" ">
<path fill="none" stroke="#63b8ff" d="M851.38,-319.67C854.39,-319.43 857.38,-319.2 860.3,-319 922.8,-314.69 1943.72,-328 1987.3,-283 2002.92,-266.88 1996.72,-204.96 1977.3,-187 1928.47,-141.82 1445.41,-137.41 1319.95,-137.02"/>
<polygon fill="#63b8ff" stroke="#63b8ff" points="1319.6,-133.52 1309.59,-137 1319.58,-140.52 1319.6,-133.52"/>
</a>
</g>
</g>
<!-- Node12 -->
<g id="Node000012" class="node">
<title>Node12</title>
<g id="a_Node000012"><a xlink:title=" ">
<polygon fill="#e0e0e0" stroke="#999999" points="717.3,-211.5 661.3,-211.5 661.3,-192.5 717.3,-192.5 717.3,-211.5"/>
<text text-anchor="middle" x="689.3" y="-199.5" font-family="FreeSans" font-size="10.00">optional</text>
</a>
</g>
</g>
<!-- Node4&#45;&gt;Node12 -->
<g id="edge13_Node000004_Node000012" class="edge">
<title>Node4&#45;&gt;Node12</title>
<g id="a_edge13_Node000004_Node000012"><a xlink:title=" ">
<path fill="none" stroke="#63b8ff" d="M709.12,-323.1C614.93,-316.54 458.67,-302.8 441.3,-283 391.96,-226.76 447.48,-272.66 652.3,-217 654.6,-216.38 656.94,-215.67 659.29,-214.9"/>
<polygon fill="#63b8ff" stroke="#63b8ff" points="660.52,-218.18 668.79,-211.56 658.2,-211.58 660.52,-218.18"/>
</a>
</g>
</g>
<!-- Node13 -->
<g id="Node000013" class="node">
<title>Node13</title>
<g id="a_Node000013"><a xlink:title=" ">
<polygon fill="#e0e0e0" stroke="#999999" points="629.8,-277.5 564.8,-277.5 564.8,-258.5 629.8,-258.5 629.8,-277.5"/>
<text text-anchor="middle" x="597.3" y="-265.5" font-family="FreeSans" font-size="10.00">stdexcept</text>
</a>
</g>
</g>
<!-- Node4&#45;&gt;Node13 -->
<g id="edge14_Node000004_Node000013" class="edge">
<title>Node4&#45;&gt;Node13</title>
<g id="a_edge14_Node000004_Node000013"><a xlink:title=" ">
<path fill="none" stroke="#63b8ff" d="M752.7,-318.93C724.25,-310.07 678.61,-295.75 639.3,-283 637.02,-282.26 634.67,-281.49 632.3,-280.71"/>
<polygon fill="#63b8ff" stroke="#63b8ff" points="633.19,-277.32 622.6,-277.51 631,-283.97 633.19,-277.32"/>
</a>
</g>
</g>
<!-- Node14 -->
<g id="Node000014" class="node">
<title>Node14</title>
<g id="a_Node000014"><a xlink:title=" ">
<polygon fill="#e0e0e0" stroke="#999999" points="692.3,-277.5 648.3,-277.5 648.3,-258.5 692.3,-258.5 692.3,-277.5"/>
<text text-anchor="middle" x="670.3" y="-265.5" font-family="FreeSans" font-size="10.00">string</text>
</a>
</g>
</g>
<!-- Node4&#45;&gt;Node14 -->
<g id="edge15_Node000004_Node000014" class="edge">
<title>Node4&#45;&gt;Node14</title>
<g id="a_edge15_Node000004_Node000014"><a xlink:title=" ">
<path fill="none" stroke="#63b8ff" d="M764.07,-318.87C746.04,-309.28 716.69,-293.67 695.62,-282.47"/>
<polygon fill="#63b8ff" stroke="#63b8ff" points="697.07,-279.27 686.6,-277.67 693.79,-285.45 697.07,-279.27"/>
</a>
</g>
</g>
<!-- Node15 -->
<g id="Node000015" class="node">
<title>Node15</title>
<g id="a_Node000015"><a xlink:title=" ">
<polygon fill="#e0e0e0" stroke="#999999" points="1308.8,-211.5 1261.8,-211.5 1261.8,-192.5 1308.8,-192.5 1308.8,-211.5"/>
<text text-anchor="middle" x="1285.3" y="-199.5" font-family="FreeSans" font-size="10.00">vector</text>
</a>
</g>
</g>
<!-- Node4&#45;&gt;Node15 -->
<g id="edge16_Node000004_Node000015" class="edge">
<title>Node4&#45;&gt;Node15</title>
<g id="a_edge16_Node000004_Node000015"><a xlink:title=" ">
<path fill="none" stroke="#63b8ff" d="M851.38,-319.7C854.39,-319.45 857.38,-319.21 860.3,-319 912.04,-315.26 1757.34,-320.38 1793.3,-283 1802.55,-273.39 1802.26,-262.88 1793.3,-253 1761.44,-217.85 1427.5,-206.52 1319.08,-203.75"/>
<polygon fill="#63b8ff" stroke="#63b8ff" points="1319.11,-200.25 1309.02,-203.51 1318.93,-207.25 1319.11,-200.25"/>
</a>
</g>
</g>
<!-- Node16 -->
<g id="Node000016" class="node">
<title>Node16</title>
<g id="a_Node000016"><a xlink:title=" ">
<polygon fill="#e0e0e0" stroke="#999999" points="850.3,-277.5 710.3,-277.5 710.3,-258.5 850.3,-258.5 850.3,-277.5"/>
<text text-anchor="middle" x="780.3" y="-265.5" font-family="FreeSans" font-size="10.00">boost/core/demangle.hpp</text>
</a>
</g>
</g>
<!-- Node4&#45;&gt;Node16 -->
<g id="edge17_Node000004_Node000016" class="edge">
<title>Node4&#45;&gt;Node16</title>
<g id="a_edge17_Node000004_Node000016"><a xlink:title=" ">
<path fill="none" stroke="#63b8ff" d="M780.3,-318.87C780.3,-310.75 780.3,-298.31 780.3,-287.89"/>
<polygon fill="#63b8ff" stroke="#63b8ff" points="783.8,-287.67 780.3,-277.67 776.8,-287.67 783.8,-287.67"/>
</a>
</g>
</g>
<!-- Node17 -->
<g id="Node000017" class="node">
<title>Node17</title>
<g id="a_Node000017"><a xlink:title=" ">
<polygon fill="#e0e0e0" stroke="#999999" points="255.8,-79.5 138.8,-79.5 138.8,-60.5 255.8,-60.5 255.8,-79.5"/>
<text text-anchor="middle" x="197.3" y="-67.5" font-family="FreeSans" font-size="10.00">mpqc/mpqc_config.h</text>
</a>
</g>
</g>
<!-- Node4&#45;&gt;Node17 -->
<g id="edge18_Node000004_Node000017" class="edge">
<title>Node4&#45;&gt;Node17</title>
<g id="a_edge18_Node000004_Node000017"><a xlink:title=" ">
<path fill="none" stroke="#63b8ff" d="M709.21,-327.64C533.04,-327.39 86.65,-322.78 33.3,-283 -1.95,-256.71 -6.89,-227.89 9.3,-187 32.51,-128.41 103.37,-97.24 151.16,-82.43"/>
<polygon fill="#63b8ff" stroke="#63b8ff" points="152.39,-85.72 160.98,-79.52 150.4,-79.01 152.39,-85.72"/>
</a>
</g>
</g>
<!-- Node18 -->
<g id="Node000018" class="node">
<title>Node18</title>
<g id="a_Node000018"><a xlink:title=" ">
<polygon fill="#e0e0e0" stroke="#999999" points="990.3,-283 868.3,-283 868.3,-253 990.3,-253 990.3,-283"/>
<text text-anchor="start" x="876.3" y="-271" font-family="FreeSans" font-size="10.00">boost/container/small</text>
<text text-anchor="middle" x="929.3" y="-260" font-family="FreeSans" font-size="10.00">_vector.hpp</text>
</a>
</g>
</g>
<!-- Node4&#45;&gt;Node18 -->
<g id="edge19_Node000004_Node000018" class="edge">
<title>Node4&#45;&gt;Node18</title>
<g id="a_edge19_Node000004_Node000018"><a xlink:title=" ">
<path fill="none" stroke="#63b8ff" d="M801.97,-318.99C823.41,-310.57 856.89,-297.43 884.13,-286.73"/>
<polygon fill="#63b8ff" stroke="#63b8ff" points="885.45,-289.98 893.48,-283.06 882.89,-283.46 885.45,-289.98"/>
</a>
</g>
</g>
<!-- Node19 -->
<g id="Node000019" class="node">
<title>Node19</title>
<g id="a_Node000019"><a xlink:title=" ">
<polygon fill="#e0e0e0" stroke="#999999" points="1121.8,-283 1008.8,-283 1008.8,-253 1121.8,-253 1121.8,-283"/>
<text text-anchor="start" x="1016.8" y="-271" font-family="FreeSans" font-size="10.00">boost/property_tree</text>
<text text-anchor="middle" x="1065.3" y="-260" font-family="FreeSans" font-size="10.00">/info_parser.hpp</text>
</a>
</g>
</g>
<!-- Node4&#45;&gt;Node19 -->
<g id="edge20_Node000004_Node000019" class="edge">
<title>Node4&#45;&gt;Node19</title>
<g id="a_edge20_Node000004_Node000019"><a xlink:title=" ">
<path fill="none" stroke="#63b8ff" d="M822.72,-318.99C864.78,-310.53 931.35,-297.08 998.82,-283.09"/>
<polygon fill="#63b8ff" stroke="#63b8ff" points="999.7,-286.48 1008.78,-281.02 998.28,-279.63 999.7,-286.48"/>
</a>
</g>
</g>
<!-- Node20 -->
<g id="Node000020" class="node">
<title>Node20</title>
<g id="a_Node000020"><a xlink:title=" ">
<polygon fill="#e0e0e0" stroke="#999999" points="1252.8,-283 1139.8,-283 1139.8,-253 1252.8,-253 1252.8,-283"/>
<text text-anchor="start" x="1147.8" y="-271" font-family="FreeSans" font-size="10.00">boost/property_tree</text>
<text text-anchor="middle" x="1196.3" y="-260" font-family="FreeSans" font-size="10.00">/json_parser.hpp</text>
</a>
</g>
</g>
<!-- Node4&#45;&gt;Node20 -->
<g id="edge21_Node000004_Node000020" class="edge">
<title>Node4&#45;&gt;Node20</title>
<g id="a_edge21_Node000004_Node000020"><a xlink:title=" ">
<path fill="none" stroke="#63b8ff" d="M851.47,-319.16C933.43,-309.43 1064.16,-293.53 1129.56,-283.01"/>
<polygon fill="#63b8ff" stroke="#63b8ff" points="1130.18,-286.45 1139.48,-281.36 1129.04,-279.54 1130.18,-286.45"/>
</a>
</g>
</g>
<!-- Node21 -->
<g id="Node000021" class="node">
<title>Node21</title>
<g id="a_Node000021"><a xlink:title=" ">
<polygon fill="#e0e0e0" stroke="#999999" points="1383.8,-283 1270.8,-283 1270.8,-253 1383.8,-253 1383.8,-283"/>
<text text-anchor="start" x="1278.8" y="-271" font-family="FreeSans" font-size="10.00">boost/property_tree</text>
<text text-anchor="middle" x="1327.3" y="-260" font-family="FreeSans" font-size="10.00">/ptree.hpp</text>
</a>
</g>
</g>
<!-- Node4&#45;&gt;Node21 -->
<g id="edge22_Node000004_Node000021" class="edge">
<title>Node4&#45;&gt;Node21</title>
<g id="a_edge22_Node000004_Node000021"><a xlink:title=" ">
<path fill="none" stroke="#63b8ff" d="M851.4,-319.89C854.41,-319.58 857.38,-319.29 860.3,-319 1035.17,-301.86 1082.65,-309.33 1260.55,-282.99"/>
<polygon fill="#63b8ff" stroke="#63b8ff" points="1261.13,-286.44 1270.5,-281.5 1260.09,-279.52 1261.13,-286.44"/>
</a>
</g>
</g>
<!-- Node22 -->
<g id="Node000022" class="node">
<title>Node22</title>
<g id="a_Node000022"><a xlink:title=" ">
<polygon fill="#e0e0e0" stroke="#999999" points="1514.8,-283 1401.8,-283 1401.8,-253 1514.8,-253 1514.8,-283"/>
<text text-anchor="start" x="1409.8" y="-271" font-family="FreeSans" font-size="10.00">boost/property_tree</text>
<text text-anchor="middle" x="1458.3" y="-260" font-family="FreeSans" font-size="10.00">/xml_parser.hpp</text>
</a>
</g>
</g>
<!-- Node4&#45;&gt;Node22 -->
<g id="edge23_Node000004_Node000022" class="edge">
<title>Node4&#45;&gt;Node22</title>
<g id="a_edge23_Node000004_Node000022"><a xlink:title=" ">
<path fill="none" stroke="#63b8ff" d="M851.39,-319.8C854.4,-319.52 857.38,-319.25 860.3,-319 1093.05,-298.77 1155.81,-315.19 1391.26,-283"/>
<polygon fill="#63b8ff" stroke="#63b8ff" points="1392.09,-286.42 1401.51,-281.58 1391.13,-279.48 1392.09,-286.42"/>
</a>
</g>
</g>
<!-- Node23 -->
<g id="Node000023" class="node">
<title>Node23</title>
<g id="a_Node000023"><a xlink:title=" ">
<polygon fill="#e0e0e0" stroke="#999999" points="1639.8,-283 1532.8,-283 1532.8,-253 1639.8,-253 1639.8,-283"/>
<text text-anchor="start" x="1540.8" y="-271" font-family="FreeSans" font-size="10.00">boost/serialization</text>
<text text-anchor="middle" x="1586.3" y="-260" font-family="FreeSans" font-size="10.00">/export.hpp</text>
</a>
</g>
</g>
<!-- Node4&#45;&gt;Node23 -->
<g id="edge24_Node000004_Node000023" class="edge">
<title>Node4&#45;&gt;Node23</title>
<g id="a_edge24_Node000004_Node000023"><a xlink:title=" ">
<path fill="none" stroke="#63b8ff" d="M851.39,-319.76C854.4,-319.49 857.38,-319.23 860.3,-319 1151.16,-295.67 1229.2,-322.53 1522.71,-282.89"/>
<polygon fill="#63b8ff" stroke="#63b8ff" points="1523.36,-286.34 1532.8,-281.52 1522.41,-279.4 1523.36,-286.34"/>
</a>
</g>
</g>
<!-- Node24 -->
<g id="Node000024" class="node">
<title>Node24</title>
<g id="a_Node000024"><a xlink:href="exenv_8h.html" target="_top" xlink:title=" ">
<polygon fill="white" stroke="#666666" points="355.8,-277.5 228.8,-277.5 228.8,-258.5 355.8,-258.5 355.8,-277.5"/>
<text text-anchor="middle" x="292.3" y="-265.5" font-family="FreeSans" font-size="10.00">mpqc/util/core/exenv.h</text>
</a>
</g>
</g>
<!-- Node4&#45;&gt;Node24 -->
<g id="edge25_Node000004_Node000024" class="edge">
<title>Node4&#45;&gt;Node24</title>
<g id="a_edge25_Node000004_Node000024"><a xlink:title=" ">
<path fill="none" stroke="#63b8ff" d="M709.01,-321.28C627.07,-313.77 488.65,-300.02 370.3,-283 362.64,-281.9 354.58,-280.6 346.67,-279.26"/>
<polygon fill="#63b8ff" stroke="#63b8ff" points="347.22,-275.8 336.76,-277.53 346.02,-282.7 347.22,-275.8"/>
</a>
</g>
</g>
<!-- Node33 -->
<g id="Node000033" class="node">
<title>Node33</title>
<g id="a_Node000033"><a xlink:href="util_2keyval_2fwd_8h.html" target="_top" xlink:title=" ">
<polygon fill="white" stroke="#666666" points="1784.8,-277.5 1657.8,-277.5 1657.8,-258.5 1784.8,-258.5 1784.8,-277.5"/>
<text text-anchor="middle" x="1721.3" y="-265.5" font-family="FreeSans" font-size="10.00">mpqc/util/keyval/fwd.h</text>
</a>
</g>
</g>
<!-- Node4&#45;&gt;Node33 -->
<g id="edge43_Node000004_Node000033" class="edge">
<title>Node4&#45;&gt;Node33</title>
<g id="a_edge43_Node000004_Node000033"><a xlink:title=" ">
<path fill="none" stroke="#63b8ff" d="M851.38,-319.72C854.4,-319.46 857.38,-319.22 860.3,-319 1209.89,-292.47 1300.14,-324.12 1648.3,-283 1656.14,-282.07 1664.4,-280.79 1672.44,-279.38"/>
<polygon fill="#63b8ff" stroke="#63b8ff" points="1673.24,-282.79 1682.44,-277.53 1671.97,-275.9 1673.24,-282.79"/>
</a>
</g>
</g>
<!-- Node34 -->
<g id="Node000034" class="node">
<title>Node34</title>
<g id="a_Node000034"><a xlink:href="predicates_8h.html" target="_top" xlink:title=" ">
<polygon fill="white" stroke="#666666" points="2227.3,-277.5 2073.3,-277.5 2073.3,-258.5 2227.3,-258.5 2227.3,-277.5"/>
<text text-anchor="middle" x="2150.3" y="-265.5" font-family="FreeSans" font-size="10.00">mpqc/util/meta/predicates.h</text>
</a>
</g>
</g>
<!-- Node4&#45;&gt;Node34 -->
<g id="edge44_Node000004_Node000034" class="edge">
<title>Node4&#45;&gt;Node34</title>
<g id="a_edge44_Node000004_Node000034"><a xlink:title=" ">
<path fill="none" stroke="#63b8ff" d="M851.38,-319.67C854.39,-319.42 857.38,-319.2 860.3,-319 1392.2,-282.81 1528.4,-331.62 2059.3,-283 2070.03,-282.02 2081.41,-280.58 2092.36,-279"/>
<polygon fill="#63b8ff" stroke="#63b8ff" points="2092.9,-282.46 2102.27,-277.52 2091.86,-275.54 2092.9,-282.46"/>
</a>
</g>
</g>
<!-- Node41 -->
<g id="Node000041" class="node">
<title>Node41</title>
<g id="a_Node000041"><a xlink:href="stream_8h.html" target="_top" xlink:title=" ">
<polygon fill="white" stroke="#666666" points="1978.8,-277.5 1841.8,-277.5 1841.8,-258.5 1978.8,-258.5 1978.8,-277.5"/>
<text text-anchor="middle" x="1910.3" y="-265.5" font-family="FreeSans" font-size="10.00">mpqc/util/meta/stream.h</text>
</a>
</g>
</g>
<!-- Node4&#45;&gt;Node41 -->
<g id="edge54_Node000004_Node000041" class="edge">
<title>Node4&#45;&gt;Node41</title>
<g id="a_edge54_Node000004_Node000041"><a xlink:title=" ">
<path fill="none" stroke="#63b8ff" d="M851.38,-319.69C854.39,-319.44 857.38,-319.21 860.3,-319 1289.28,-288.26 1399.47,-326.86 1827.3,-283 1836.59,-282.05 1846.41,-280.7 1855.92,-279.21"/>
<polygon fill="#63b8ff" stroke="#63b8ff" points="1856.77,-282.62 1866.08,-277.55 1855.65,-275.71 1856.77,-282.62"/>
</a>
</g>
</g>
<!-- Node24&#45;&gt;Node2 -->
<g id="edge39_Node000024_Node000002" class="edge">
<title>Node24&#45;&gt;Node2</title>
<g id="a_edge39_Node000024_Node000002"><a xlink:title=" ">
<path fill="none" stroke="#63b8ff" d="M284.75,-258.41C276.78,-248.91 264.42,-232.85 257.3,-217 248.37,-197.11 243.34,-172.47 240.72,-155.84"/>
<polygon fill="#63b8ff" stroke="#63b8ff" points="244.16,-155.16 239.29,-145.75 237.23,-156.15 244.16,-155.16"/>
</a>
</g>
</g>
<!-- Node24&#45;&gt;Node8 -->
<g id="edge38_Node000024_Node000008" class="edge">
<title>Node24&#45;&gt;Node8</title>
<g id="a_edge38_Node000024_Node000008"><a xlink:title=" ">
<path fill="none" stroke="#63b8ff" d="M339.74,-258.47C349.82,-256.66 360.42,-254.76 370.3,-253 460.51,-236.91 484.66,-240.21 573.3,-217 575.79,-216.35 578.35,-215.61 580.91,-214.83"/>
<polygon fill="#63b8ff" stroke="#63b8ff" points="582.24,-218.08 590.65,-211.64 580.06,-211.42 582.24,-218.08"/>
</a>
</g>
</g>
<!-- Node24&#45;&gt;Node12 -->
<g id="edge40_Node000024_Node000012" class="edge">
<title>Node24&#45;&gt;Node12</title>
<g id="a_edge40_Node000024_Node000012"><a xlink:title=" ">
<path fill="none" stroke="#63b8ff" d="M355.82,-258.96C451.45,-246.74 624.25,-224.16 652.3,-217 654.75,-216.38 657.25,-215.64 659.75,-214.84"/>
<polygon fill="#63b8ff" stroke="#63b8ff" points="660.93,-218.14 669.21,-211.54 658.62,-211.53 660.93,-218.14"/>
</a>
</g>
</g>
<!-- Node24&#45;&gt;Node15 -->
<g id="edge42_Node000024_Node000015" class="edge">
<title>Node24&#45;&gt;Node15</title>
<g id="a_edge42_Node000024_Node000015"><a xlink:title=" ">
<path fill="none" stroke="#63b8ff" d="M356.07,-260.52C382.43,-257.97 413.32,-255.14 441.3,-253 756.06,-228.9 1137.62,-210 1251.6,-204.58"/>
<polygon fill="#63b8ff" stroke="#63b8ff" points="1251.97,-208.06 1261.79,-204.09 1251.63,-201.07 1251.97,-208.06"/>
</a>
</g>
</g>
<!-- Node24&#45;&gt;Node17 -->
<g id="edge29_Node000024_Node000017" class="edge">
<title>Node24&#45;&gt;Node17</title>
<g id="a_edge29_Node000024_Node000017"><a xlink:title=" ">
<path fill="none" stroke="#63b8ff" d="M300.18,-258.21C308.05,-248.79 319.61,-233.02 324.3,-217 336.86,-174.1 325.12,-153.38 294.3,-121 277.8,-103.66 253.97,-91.26 234.05,-83.15"/>
<polygon fill="#63b8ff" stroke="#63b8ff" points="235.23,-79.85 224.64,-79.5 232.7,-86.38 235.23,-79.85"/>
</a>
</g>
</g>
<!-- Node25 -->
<g id="Node000025" class="node">
<title>Node25</title>
<g id="a_Node000025"><a xlink:href="math_2external_2tiledarray_2fwd_8h.html" target="_top" xlink:title=" ">
<polygon fill="white" stroke="#666666" points="134.3,-217 18.3,-217 18.3,-187 134.3,-187 134.3,-217"/>
<text text-anchor="start" x="26.3" y="-205" font-family="FreeSans" font-size="10.00">mpqc/math/external</text>
<text text-anchor="middle" x="76.3" y="-194" font-family="FreeSans" font-size="10.00">/tiledarray/fwd.h</text>
</a>
</g>
</g>
<!-- Node24&#45;&gt;Node25 -->
<g id="edge26_Node000024_Node000025" class="edge">
<title>Node24&#45;&gt;Node25</title>
<g id="a_edge26_Node000024_Node000025"><a xlink:title=" ">
<path fill="none" stroke="#63b8ff" d="M263.17,-258.37C230.12,-248.58 175.41,-232.37 133.71,-220.01"/>
<polygon fill="#63b8ff" stroke="#63b8ff" points="134.53,-216.6 123.94,-217.12 132.54,-223.31 134.53,-216.6"/>
</a>
</g>
</g>
<!-- Node27 -->
<g id="Node000027" class="node">
<title>Node27</title>
<g id="a_Node000027"><a xlink:href="formio_8h.html" target="_top" xlink:title=" ">
<polygon fill="white" stroke="#666666" points="564.8,-211.5 433.8,-211.5 433.8,-192.5 564.8,-192.5 564.8,-211.5"/>
<text text-anchor="middle" x="499.3" y="-199.5" font-family="FreeSans" font-size="10.00">mpqc/util/core/formio.h</text>
</a>
</g>
</g>
<!-- Node24&#45;&gt;Node27 -->
<g id="edge30_Node000024_Node000027" class="edge">
<title>Node24&#45;&gt;Node27</title>
<g id="a_edge30_Node000024_Node000027"><a xlink:title=" ">
<path fill="none" stroke="#63b8ff" d="M320.22,-258.37C356.82,-247.05 421.15,-227.16 461.92,-214.56"/>
<polygon fill="#63b8ff" stroke="#63b8ff" points="462.98,-217.89 471.5,-211.6 460.91,-211.21 462.98,-217.89"/>
</a>
</g>
</g>
<!-- Node31 -->
<g id="Node000031" class="node">
<title>Node31</title>
<g id="a_Node000031"><a xlink:title=" ">
<polygon fill="#e0e0e0" stroke="#999999" points="315.8,-211.5 266.8,-211.5 266.8,-192.5 315.8,-192.5 315.8,-211.5"/>
<text text-anchor="middle" x="291.3" y="-199.5" font-family="FreeSans" font-size="10.00">cstdlib</text>
</a>
</g>
</g>
<!-- Node24&#45;&gt;Node31 -->
<g id="edge37_Node000024_Node000031" class="edge">
<title>Node24&#45;&gt;Node31</title>
<g id="a_edge37_Node000024_Node000031"><a xlink:title=" ">
<path fill="none" stroke="#63b8ff" d="M292.17,-258.37C292.02,-249.16 291.79,-234.29 291.6,-222.27"/>
<polygon fill="#63b8ff" stroke="#63b8ff" points="295.1,-221.85 291.44,-211.91 288.1,-221.96 295.1,-221.85"/>
</a>
</g>
</g>
<!-- Node32 -->
<g id="Node000032" class="node">
<title>Node32</title>
<g id="a_Node000032"><a xlink:title=" ">
<polygon fill="#e0e0e0" stroke="#999999" points="415.8,-211.5 372.8,-211.5 372.8,-192.5 415.8,-192.5 415.8,-211.5"/>
<text text-anchor="middle" x="394.3" y="-199.5" font-family="FreeSans" font-size="10.00">stack</text>
</a>
</g>
</g>
<!-- Node24&#45;&gt;Node32 -->
<g id="edge41_Node000024_Node000032" class="edge">
<title>Node24&#45;&gt;Node32</title>
<g id="a_edge41_Node000024_Node000032"><a xlink:title=" ">
<path fill="none" stroke="#63b8ff" d="M306.06,-258.37C322.94,-247.78 351.79,-229.67 371.89,-217.06"/>
<polygon fill="#63b8ff" stroke="#63b8ff" points="373.83,-219.98 380.44,-211.7 370.11,-214.05 373.83,-219.98"/>
</a>
</g>
</g>
<!-- Node25&#45;&gt;Node17 -->
<g id="edge27_Node000025_Node000017" class="edge">
<title>Node25&#45;&gt;Node17</title>
<g id="a_edge27_Node000025_Node000017"><a xlink:title=" ">
<path fill="none" stroke="#63b8ff" d="M74.18,-186.77C72.4,-169.48 72.09,-140.26 86.3,-121 100.35,-101.98 123.31,-90.03 144.72,-82.61"/>
<polygon fill="#63b8ff" stroke="#63b8ff" points="145.95,-85.89 154.41,-79.51 143.82,-79.23 145.95,-85.89"/>
</a>
</g>
</g>
<!-- Node26 -->
<g id="Node000026" class="node">
<title>Node26</title>
<g id="a_Node000026"><a xlink:title=" ">
<polygon fill="#e0e0e0" stroke="#999999" points="190.8,-145.5 95.8,-145.5 95.8,-126.5 190.8,-126.5 190.8,-145.5"/>
<text text-anchor="middle" x="143.3" y="-133.5" font-family="FreeSans" font-size="10.00">tiledarray_fwd.h</text>
</a>
</g>
</g>
<!-- Node25&#45;&gt;Node26 -->
<g id="edge28_Node000025_Node000026" class="edge">
<title>Node25&#45;&gt;Node26</title>
<g id="a_edge28_Node000025_Node000026"><a xlink:title=" ">
<path fill="none" stroke="#63b8ff" d="M91.17,-186.8C101.72,-176.72 115.88,-163.19 126.78,-152.78"/>
<polygon fill="#63b8ff" stroke="#63b8ff" points="129.23,-155.28 134.04,-145.84 124.4,-150.22 129.23,-155.28"/>
</a>
</g>
</g>
<!-- Node27&#45;&gt;Node2 -->
<g id="edge33_Node000027_Node000002" class="edge">
<title>Node27&#45;&gt;Node2</title>
<g id="a_edge33_Node000027_Node000002"><a xlink:title=" ">
<path fill="none" stroke="#63b8ff" d="M464.37,-192.44C415.77,-180.52 328.02,-159 277.32,-146.57"/>
<polygon fill="#63b8ff" stroke="#63b8ff" points="277.94,-143.12 267.4,-144.13 276.28,-149.92 277.94,-143.12"/>
</a>
</g>
</g>
<!-- Node27&#45;&gt;Node11 -->
<g id="edge32_Node000027_Node000011" class="edge">
<title>Node27&#45;&gt;Node11</title>
<g id="a_edge32_Node000027_Node000011"><a xlink:title=" ">
<path fill="none" stroke="#63b8ff" d="M540.43,-192.44C551.4,-190.4 563.27,-188.41 574.3,-187 839.68,-153.08 1163.55,-140.89 1261.13,-137.84"/>
<polygon fill="#63b8ff" stroke="#63b8ff" points="1261.25,-141.33 1271.14,-137.53 1261.04,-134.34 1261.25,-141.33"/>
</a>
</g>
</g>
<!-- Node28 -->
<g id="Node000028" class="node">
<title>Node28</title>
<g id="a_Node000028"><a xlink:title=" ">
<polygon fill="#e0e0e0" stroke="#999999" points="544.3,-145.5 496.3,-145.5 496.3,-126.5 544.3,-126.5 544.3,-145.5"/>
<text text-anchor="middle" x="520.3" y="-133.5" font-family="FreeSans" font-size="10.00">iosfwd</text>
</a>
</g>
</g>
<!-- Node27&#45;&gt;Node28 -->
<g id="edge31_Node000027_Node000028" class="edge">
<title>Node27&#45;&gt;Node28</title>
<g id="a_edge31_Node000027_Node000028"><a xlink:title=" ">
<path fill="none" stroke="#63b8ff" d="M502.14,-192.37C505.22,-182.97 510.24,-167.67 514.22,-155.53"/>
<polygon fill="#63b8ff" stroke="#63b8ff" points="517.59,-156.5 517.38,-145.91 510.94,-154.32 517.59,-156.5"/>
</a>
</g>
</g>
<!-- Node29 -->
<g id="Node000029" class="node">
<title>Node29</title>
<g id="a_Node000029"><a xlink:href="scope.html" target="_top" xlink:title=" ">
<polygon fill="white" stroke="#666666" points="478.3,-151 372.3,-151 372.3,-121 478.3,-121 478.3,-151"/>
<text text-anchor="start" x="380.3" y="-139" font-family="FreeSans" font-size="10.00">mpqc/util/external</text>
<text text-anchor="middle" x="425.3" y="-128" font-family="FreeSans" font-size="10.00">/c++/scope</text>
</a>
</g>
</g>
<!-- Node27&#45;&gt;Node29 -->
<g id="edge34_Node000027_Node000029" class="edge">
<title>Node27&#45;&gt;Node29</title>
<g id="a_edge34_Node000027_Node000029"><a xlink:title=" ">
<path fill="none" stroke="#63b8ff" d="M489.32,-192.37C479.1,-183.53 462.83,-169.45 449.24,-157.71"/>
<polygon fill="#63b8ff" stroke="#63b8ff" points="451.48,-155.01 441.62,-151.12 446.9,-160.3 451.48,-155.01"/>
</a>
</g>
</g>
<!-- Node29&#45;&gt;Node17 -->
<g id="edge35_Node000029_Node000017" class="edge">
<title>Node29&#45;&gt;Node17</title>
<g id="a_edge35_Node000029_Node000017"><a xlink:title=" ">
<path fill="none" stroke="#63b8ff" d="M375.27,-120.95C333.87,-109.34 275.84,-93.05 237.44,-82.27"/>
<polygon fill="#63b8ff" stroke="#63b8ff" points="238.22,-78.85 227.65,-79.52 236.33,-85.59 238.22,-78.85"/>
</a>
</g>
</g>
<!-- Node30 -->
<g id="Node000030" class="node">
<title>Node30</title>
<g id="a_Node000030"><a xlink:title=" ">
<polygon fill="#e0e0e0" stroke="#999999" points="447.8,-79.5 402.8,-79.5 402.8,-60.5 447.8,-60.5 447.8,-79.5"/>
<text text-anchor="middle" x="425.3" y="-67.5" font-family="FreeSans" font-size="10.00">utility</text>
</a>
</g>
</g>
<!-- Node29&#45;&gt;Node30 -->
<g id="edge36_Node000029_Node000030" class="edge">
<title>Node29&#45;&gt;Node30</title>
<g id="a_edge36_Node000029_Node000030"><a xlink:title=" ">
<path fill="none" stroke="#63b8ff" d="M425.3,-120.8C425.3,-111.7 425.3,-99.79 425.3,-89.9"/>
<polygon fill="#63b8ff" stroke="#63b8ff" points="428.8,-89.84 425.3,-79.84 421.8,-89.84 428.8,-89.84"/>
</a>
</g>
</g>
<!-- Node35 -->
<g id="Node000035" class="node">
<title>Node35</title>
<g id="a_Node000035"><a xlink:href="get__type_8h.html" target="_top" xlink:title=" ">
<polygon fill="white" stroke="#666666" points="2205.3,-217 2095.3,-217 2095.3,-187 2205.3,-187 2205.3,-217"/>
<text text-anchor="start" x="2103.3" y="-205" font-family="FreeSans" font-size="10.00">mpqc/util/meta/get</text>
<text text-anchor="middle" x="2150.3" y="-194" font-family="FreeSans" font-size="10.00">_type.h</text>
</a>
</g>
</g>
<!-- Node34&#45;&gt;Node35 -->
<g id="edge45_Node000034_Node000035" class="edge">
<title>Node34&#45;&gt;Node35</title>
<g id="a_edge45_Node000034_Node000035"><a xlink:title=" ">
<path fill="none" stroke="#63b8ff" d="M2150.3,-258.37C2150.3,-250.49 2150.3,-238.45 2150.3,-227.6"/>
<polygon fill="#63b8ff" stroke="#63b8ff" points="2153.8,-227.36 2150.3,-217.36 2146.8,-227.36 2153.8,-227.36"/>
</a>
</g>
</g>
<!-- Node36 -->
<g id="Node000036" class="node">
<title>Node36</title>
<g id="a_Node000036"><a xlink:href="type__traits_8h.html" target="_top" xlink:title=" ">
<polygon fill="white" stroke="#666666" points="2189.3,-145.5 2111.3,-145.5 2111.3,-126.5 2189.3,-126.5 2189.3,-145.5"/>
<text text-anchor="middle" x="2150.3" y="-133.5" font-family="FreeSans" font-size="10.00">type_traits.h</text>
</a>
</g>
</g>
<!-- Node35&#45;&gt;Node36 -->
<g id="edge46_Node000035_Node000036" class="edge">
<title>Node35&#45;&gt;Node36</title>
<g id="a_edge46_Node000035_Node000036"><a xlink:title=" ">
<path fill="none" stroke="#63b8ff" d="M2150.3,-186.8C2150.3,-177.7 2150.3,-165.79 2150.3,-155.9"/>
<polygon fill="#63b8ff" stroke="#63b8ff" points="2153.8,-155.84 2150.3,-145.84 2146.8,-155.84 2153.8,-155.84"/>
</a>
</g>
</g>
<!-- Node36&#45;&gt;Node5 -->
<g id="edge47_Node000036_Node000005" class="edge">
<title>Node36&#45;&gt;Node5</title>
<g id="a_edge47_Node000036_Node000005"><a xlink:title=" ">
<path fill="none" stroke="#63b8ff" d="M2136.14,-126.37C2118.76,-115.78 2089.06,-97.67 2068.37,-85.06"/>
<polygon fill="#63b8ff" stroke="#63b8ff" points="2069.94,-81.92 2059.57,-79.7 2066.29,-87.89 2069.94,-81.92"/>
</a>
</g>
</g>
<!-- Node37 -->
<g id="Node000037" class="node">
<title>Node37</title>
<g id="a_Node000037"><a xlink:title=" ">
<polygon fill="#e0e0e0" stroke="#999999" points="2309.3,-19 2259.3,-19 2259.3,0 2309.3,0 2309.3,-19"/>
<text text-anchor="middle" x="2284.3" y="-7" font-family="FreeSans" font-size="10.00">atomic</text>
</a>
</g>
</g>
<!-- Node36&#45;&gt;Node37 -->
<g id="edge48_Node000036_Node000037" class="edge">
<title>Node36&#45;&gt;Node37</title>
<g id="a_edge48_Node000036_Node000037"><a xlink:title=" ">
<path fill="none" stroke="#63b8ff" d="M2166.27,-126.34C2182.2,-117.26 2206.89,-101.97 2225.3,-85 2244.37,-67.43 2262.26,-43.36 2273.24,-27.39"/>
<polygon fill="#63b8ff" stroke="#63b8ff" points="2276.18,-29.28 2278.85,-19.03 2270.37,-25.37 2276.18,-29.28"/>
</a>
</g>
</g>
<!-- Node38 -->
<g id="Node000038" class="node">
<title>Node38</title>
<g id="a_Node000038"><a xlink:title=" ">
<polygon fill="#e0e0e0" stroke="#999999" points="2465.8,-79.5 2396.8,-79.5 2396.8,-60.5 2465.8,-60.5 2465.8,-79.5"/>
<text text-anchor="middle" x="2431.3" y="-67.5" font-family="FreeSans" font-size="10.00">type_traits</text>
</a>
</g>
</g>
<!-- Node36&#45;&gt;Node38 -->
<g id="edge49_Node000036_Node000038" class="edge">
<title>Node36&#45;&gt;Node38</title>
<g id="a_edge49_Node000036_Node000038"><a xlink:title=" ">
<path fill="none" stroke="#63b8ff" d="M2189.59,-127.96C2236.83,-119.21 2318.38,-103.19 2387.3,-85 2390.14,-84.25 2393.06,-83.43 2395.99,-82.58"/>
<polygon fill="#63b8ff" stroke="#63b8ff" points="2397.29,-85.84 2405.84,-79.58 2395.25,-79.14 2397.29,-85.84"/>
</a>
</g>
</g>
<!-- Node39 -->
<g id="Node000039" class="node">
<title>Node39</title>
<g id="a_Node000039"><a xlink:href="atomic_8h.html" target="_top" xlink:title=" ">
<polygon fill="white" stroke="#666666" points="2378.3,-85 2272.3,-85 2272.3,-55 2378.3,-55 2378.3,-85"/>
<text text-anchor="start" x="2280.3" y="-73" font-family="FreeSans" font-size="10.00">mpqc/util/external</text>
<text text-anchor="middle" x="2325.3" y="-62" font-family="FreeSans" font-size="10.00">/c++/atomic.h</text>
</a>
</g>
</g>
<!-- Node36&#45;&gt;Node39 -->
<g id="edge50_Node000036_Node000039" class="edge">
<title>Node36&#45;&gt;Node39</title>
<g id="a_edge50_Node000036_Node000039"><a xlink:title=" ">
<path fill="none" stroke="#63b8ff" d="M2173.9,-126.37C2200.23,-116.74 2243.52,-100.91 2277.08,-88.64"/>
<polygon fill="#63b8ff" stroke="#63b8ff" points="2278.52,-91.84 2286.71,-85.12 2276.11,-85.26 2278.52,-91.84"/>
</a>
</g>
</g>
<!-- Node40 -->
<g id="Node000040" class="node">
<title>Node40</title>
<g id="a_Node000040"><a xlink:href="sfinae_8h.html" target="_top" xlink:title=" ">
<polygon fill="white" stroke="#666666" points="2216.3,-79.5 2084.3,-79.5 2084.3,-60.5 2216.3,-60.5 2216.3,-79.5"/>
<text text-anchor="middle" x="2150.3" y="-67.5" font-family="FreeSans" font-size="10.00">mpqc/util/meta/sfinae.h</text>
</a>
</g>
</g>
<!-- Node36&#45;&gt;Node40 -->
<g id="edge52_Node000036_Node000040" class="edge">
<title>Node36&#45;&gt;Node40</title>
<g id="a_edge52_Node000036_Node000040"><a xlink:title=" ">
<path fill="none" stroke="#63b8ff" d="M2145.51,-126.37C2143.53,-117.07 2143.05,-101.98 2144.08,-89.9"/>
<polygon fill="#63b8ff" stroke="#63b8ff" points="2147.56,-90.29 2145.46,-79.91 2140.63,-89.34 2147.56,-90.29"/>
</a>
</g>
</g>
<!-- Node39&#45;&gt;Node37 -->
<g id="edge51_Node000039_Node000037" class="edge">
<title>Node39&#45;&gt;Node37</title>
<g id="a_edge51_Node000039_Node000037"><a xlink:title=" ">
<path fill="none" stroke="#63b8ff" d="M2315.38,-54.84C2309.61,-46.61 2302.3,-36.18 2296.22,-27.51"/>
<polygon fill="#63b8ff" stroke="#63b8ff" points="2299.05,-25.45 2290.45,-19.27 2293.32,-29.46 2299.05,-25.45"/>
</a>
</g>
</g>
<!-- Node40&#45;&gt;Node36 -->
<g id="edge53_Node000040_Node000036" class="edge">
<title>Node40&#45;&gt;Node36</title>
<g id="a_edge53_Node000040_Node000036"><a xlink:title=" ">
<path fill="none" stroke="#63b8ff" d="M2155.15,-79.91C2157.11,-89.32 2157.55,-104.43 2156.49,-116.45"/>
<polygon fill="#63b8ff" stroke="#63b8ff" points="2153.02,-115.98 2155.09,-126.37 2159.96,-116.96 2153.02,-115.98"/>
</a>
</g>
</g>
<!-- Node42 -->
<g id="Node000042" class="node">
<title>Node42</title>
<g id="a_Node000042"><a xlink:title=" ">
<polygon fill="#e0e0e0" stroke="#999999" points="1968.3,-217 1852.3,-217 1852.3,-187 1968.3,-187 1968.3,-217"/>
<text text-anchor="start" x="1860.3" y="-205" font-family="FreeSans" font-size="10.00">madness/world/type</text>
<text text-anchor="middle" x="1910.3" y="-194" font-family="FreeSans" font-size="10.00">_traits.h</text>
</a>
</g>
</g>
<!-- Node41&#45;&gt;Node42 -->
<g id="edge55_Node000041_Node000042" class="edge">
<title>Node41&#45;&gt;Node42</title>
<g id="a_edge55_Node000041_Node000042"><a xlink:title=" ">
<path fill="none" stroke="#63b8ff" d="M1910.3,-258.37C1910.3,-250.49 1910.3,-238.45 1910.3,-227.6"/>
<polygon fill="#63b8ff" stroke="#63b8ff" points="1913.8,-227.36 1910.3,-217.36 1906.8,-227.36 1913.8,-227.36"/>
</a>
</g>
</g>
</g>
</svg>

<g id="navigator" transform="translate(0 0)" fill="#404254">
  <rect fill="#f2f5e9" fill-opacity="0.5" stroke="#606060" stroke-width=".5" x="0" y="0" width="60" height="60"/>
  <use id="zoomplus" xlink:href="#zoomPlus" x="17" y="9" onmousedown="handleZoom(evt,'in')"/>
  <use id="zoomminus" xlink:href="#zoomMin" x="42" y="9" onmousedown="handleZoom(evt,'out')"/>
  <use id="reset" xlink:href="#resetDef" x="30" y="36" onmousedown="handleReset()"/>
   <use id="arrowup" xlink:href="#arrowUp" x="0" y="0" onmousedown="handlePan(0,-1)"/>
  <use id="arrowright" xlink:href="#arrowRight" x="0" y="0" onmousedown="handlePan(1,0)"/>
  <use id="arrowdown" xlink:href="#arrowDown" x="0" y="0" onmousedown="handlePan(0,1)"/>
  <use id="arrowleft" xlink:href="#arrowLeft" x="0" y="0" onmousedown="handlePan(-1,0)"/>
</g>
<svg viewBox="0 0 15 15" width="100%" height="30px" preserveAspectRatio="xMaxYMin meet">
 <g id="arrow_out" transform="scale(0.3 0.3)">
  <a xlink:href="mpqc__task_8h__incl_org.svg" target="_base">
   <rect id="button" ry="5" rx="5" y="6" x="6" height="38" width="38"
        fill="#f2f5e9" fill-opacity="0.5" stroke="#606060" stroke-width="1.0"/>
   <path id="arrow"
     d="M 11.500037,31.436501 C 11.940474,20.09759 22.043105,11.32322 32.158766,21.979434 L 37.068811,17.246167 C 37.068811,17.246167 37.088388,32 37.088388,32 L 22.160133,31.978069 C 22.160133,31.978069 26.997745,27.140456 26.997745,27.140456 C 18.528582,18.264221 13.291696,25.230495 11.500037,31.436501 z"
     style="fill:#404040;"/>
  </a>
 </g>
</svg>

<style type='text/css'>
<![CDATA[
[data-mouse-over-selected='false'] { opacity: 0.7; }
[data-mouse-over-selected='true']  { opacity: 1.0; }
]]>
</style>
<script type="application/ecmascript"><![CDATA[
document.addEventListener('DOMContentLoaded', (event) => {
  highlightEdges();
  highlightAdjacentNodes();
});
]]></script>
</svg>
