<?xml version="1.0" encoding="UTF-8" standalone="no"?>
<!DOCTYPE svg PUBLIC "-//W3C//DTD SVG 1.1//EN"
 "http://www.w3.org/Graphics/SVG/1.1/DTD/svg11.dtd">
<!-- Generated by graphviz version 2.43.0 (0)
 -->
<!-- Title: bin/mpqc/mpqc_version.h Pages: 1 -->
<svg width="292pt" height="82pt"
 viewBox="0.00 0.00 291.50 82.00" xmlns="http://www.w3.org/2000/svg" xmlns:xlink="http://www.w3.org/1999/xlink">
<g id="graph0" class="graph" transform="scale(1 1) rotate(0) translate(4 78)">
<title>bin/mpqc/mpqc_version.h</title>
<!-- Node1 -->
<g id="Node000001" class="node">
<title>Node1</title>
<g id="a_Node000001"><a xlink:title=" ">
<polygon fill="#999999" stroke="#666666" points="202,-74 60,-74 60,-55 202,-55 202,-74"/>
<text text-anchor="middle" x="131" y="-62" font-family="FreeSans" font-size="10.00">bin/mpqc/mpqc_version.h</text>
</a>
</g>
</g>
<!-- Node2 -->
<g id="Node000002" class="node">
<title>Node2</title>
<g id="a_Node000002"><a xlink:href="mpqc_8cpp.html" target="_top" xlink:title=" ">
<polygon fill="white" stroke="#666666" points="112,-19 0,-19 0,0 112,0 112,-19"/>
<text text-anchor="middle" x="56" y="-7" font-family="FreeSans" font-size="10.00">bin/mpqc/mpqc.cpp</text>
</a>
</g>
</g>
<!-- Node1&#45;&gt;Node2 -->
<g id="edge1_Node000001_Node000002" class="edge">
<title>Node1&#45;&gt;Node2</title>
<g id="a_edge1_Node000001_Node000002"><a xlink:title=" ">
<path fill="none" stroke="#63b8ff" d="M110.69,-49.15C97.14,-39.57 79.76,-27.29 68.27,-19.17"/>
<polygon fill="#63b8ff" stroke="#63b8ff" points="108.76,-52.07 118.95,-54.98 112.8,-46.36 108.76,-52.07"/>
</a>
</g>
</g>
<!-- Node3 -->
<g id="Node000003" class="node">
<title>Node3</title>
<g id="a_Node000003"><a xlink:href="mpqc__version_8cpp.html" target="_top" xlink:title=" ">
<polygon fill="white" stroke="#666666" points="283.5,-19 130.5,-19 130.5,0 283.5,0 283.5,-19"/>
<text text-anchor="middle" x="207" y="-7" font-family="FreeSans" font-size="10.00">bin/mpqc/mpqc_version.cpp</text>
</a>
</g>
</g>
<!-- Node1&#45;&gt;Node3 -->
<g id="edge2_Node000001_Node000003" class="edge">
<title>Node1&#45;&gt;Node3</title>
<g id="a_edge2_Node000001_Node000003"><a xlink:title=" ">
<path fill="none" stroke="#63b8ff" d="M151.58,-49.15C165.31,-39.57 182.93,-27.29 194.57,-19.17"/>
<polygon fill="#63b8ff" stroke="#63b8ff" points="149.41,-46.39 143.21,-54.98 153.42,-52.14 149.41,-46.39"/>
</a>
</g>
</g>
</g>
</svg>
