<?xml version="1.0" encoding="UTF-8" standalone="no"?>
<!DOCTYPE svg PUBLIC "-//W3C//DTD SVG 1.1//EN"
 "http://www.w3.org/Graphics/SVG/1.1/DTD/svg11.dtd">
<!-- Generated by graphviz version 2.43.0 (0)
 -->
<!-- Title: mpqc/chemistry/qc/lcao/basis/gaussian/mra.ipp Pages: 1 -->
<svg width="290pt" height="368pt"
 viewBox="0.00 0.00 290.00 368.00" xmlns="http://www.w3.org/2000/svg" xmlns:xlink="http://www.w3.org/1999/xlink">

<svg id="main" version="1.1" xmlns="http://www.w3.org/2000/svg" xmlns:xlink="http://www.w3.org/1999/xlink" xml:space="preserve" onload="init(evt)">
<style type="text/css"><![CDATA[
.node, .edge {opacity: 0.7;}
.node.selected, .edge.selected {opacity: 1;}
.edge:hover path { stroke: red; }
.edge:hover polygon { stroke: red; fill: red; }
]]></style>
<script type="application/ecmascript" xlink:href="svg.min.js"/>
<svg id="graph" class="graph">
<g id="graph0" class="graph" transform="scale(1 1) rotate(0) translate(4 364)">
<title>mpqc/chemistry/qc/lcao/basis/gaussian/mra.ipp</title>
<!-- Node1 -->
<g id="Node000001" class="node">
<title>Node1</title>
<g id="a_Node000001"><a xlink:title=" ">
<polygon fill="#999999" stroke="#666666" points="235.5,-360 102.5,-360 102.5,-330 235.5,-330 235.5,-360"/>
<text text-anchor="start" x="110.5" y="-348" font-family="FreeSans" font-size="10.00">mpqc/chemistry/qc/lcao</text>
<text text-anchor="middle" x="169" y="-337" font-family="FreeSans" font-size="10.00">/basis/gaussian/mra.ipp</text>
</a>
</g>
</g>
<!-- Node2 -->
<g id="Node000002" class="node">
<title>Node2</title>
<g id="a_Node000002"><a xlink:href="mra_8h.html" target="_top" xlink:title=" ">
<polygon fill="white" stroke="#666666" points="235.5,-294 102.5,-294 102.5,-264 235.5,-264 235.5,-294"/>
<text text-anchor="start" x="110.5" y="-282" font-family="FreeSans" font-size="10.00">mpqc/chemistry/qc/lcao</text>
<text text-anchor="middle" x="169" y="-271" font-family="FreeSans" font-size="10.00">/basis/gaussian/mra.h</text>
</a>
</g>
</g>
<!-- Node1&#45;&gt;Node2 -->
<g id="edge1_Node000001_Node000002" class="edge">
<title>Node1&#45;&gt;Node2</title>
<g id="a_edge1_Node000001_Node000002"><a xlink:title=" ">
<path fill="none" stroke="#63b8ff" d="M162.43,-319.83C162.02,-311.17 162.31,-301.7 163.29,-294.16"/>
<polygon fill="#63b8ff" stroke="#63b8ff" points="158.95,-320.13 163.28,-329.8 165.92,-319.54 158.95,-320.13"/>
</a>
</g>
</g>
<!-- Node2&#45;&gt;Node1 -->
<g id="edge2_Node000002_Node000001" class="edge">
<title>Node2&#45;&gt;Node1</title>
<g id="a_edge2_Node000002_Node000001"><a xlink:title=" ">
<path fill="none" stroke="#63b8ff" d="M175.57,-304.13C175.98,-312.78 175.7,-322.26 174.72,-329.8"/>
<polygon fill="#63b8ff" stroke="#63b8ff" points="179.05,-303.83 174.71,-294.16 172.08,-304.43 179.05,-303.83"/>
</a>
</g>
</g>
<!-- Node3 -->
<g id="Node000003" class="node">
<title>Node3</title>
<g id="a_Node000003"><a xlink:href="solver__1c__v2_8ipp.html" target="_top" xlink:title=" ">
<polygon fill="white" stroke="#666666" points="132,-162 0,-162 0,-132 132,-132 132,-162"/>
<text text-anchor="start" x="8" y="-150" font-family="FreeSans" font-size="10.00">mpqc/chemistry/qc/mra</text>
<text text-anchor="middle" x="66" y="-139" font-family="FreeSans" font-size="10.00">/scf/solver_1c_v2.ipp</text>
</a>
</g>
</g>
<!-- Node2&#45;&gt;Node3 -->
<g id="edge3_Node000002_Node000003" class="edge">
<title>Node2&#45;&gt;Node3</title>
<g id="a_edge3_Node000002_Node000003"><a xlink:title=" ">
<path fill="none" stroke="#63b8ff" d="M151.41,-255.8C130.17,-228.99 95.07,-184.7 77.21,-162.14"/>
<polygon fill="#63b8ff" stroke="#63b8ff" points="148.83,-258.18 157.78,-263.84 154.31,-253.83 148.83,-258.18"/>
</a>
</g>
</g>
<!-- Node5 -->
<g id="Node000005" class="node">
<title>Node5</title>
<g id="a_Node000005"><a xlink:href="sp_8ipp.html" target="_top" xlink:title=" ">
<polygon fill="white" stroke="#666666" points="282,-228 150,-228 150,-198 282,-198 282,-228"/>
<text text-anchor="start" x="158" y="-216" font-family="FreeSans" font-size="10.00">mpqc/chemistry/qc/mra</text>
<text text-anchor="middle" x="216" y="-205" font-family="FreeSans" font-size="10.00">/wfn/sp.ipp</text>
</a>
</g>
</g>
<!-- Node2&#45;&gt;Node5 -->
<g id="edge5_Node000002_Node000005" class="edge">
<title>Node2&#45;&gt;Node5</title>
<g id="a_edge5_Node000002_Node000005"><a xlink:title=" ">
<path fill="none" stroke="#63b8ff" d="M185.5,-255.53C192.19,-246.43 199.7,-236.19 205.6,-228.16"/>
<polygon fill="#63b8ff" stroke="#63b8ff" points="182.53,-253.66 179.43,-263.8 188.17,-257.81 182.53,-253.66"/>
</a>
</g>
</g>
<!-- Node4 -->
<g id="Node000004" class="node">
<title>Node4</title>
<g id="a_Node000004"><a xlink:href="solver_8cpp.html" target="_top" xlink:title=" ">
<polygon fill="white" stroke="#666666" points="207,-30 75,-30 75,0 207,0 207,-30"/>
<text text-anchor="start" x="83" y="-18" font-family="FreeSans" font-size="10.00">mpqc/chemistry/qc/mra</text>
<text text-anchor="middle" x="141" y="-7" font-family="FreeSans" font-size="10.00">/scf/solver.cpp</text>
</a>
</g>
</g>
<!-- Node3&#45;&gt;Node4 -->
<g id="edge4_Node000003_Node000004" class="edge">
<title>Node3&#45;&gt;Node4</title>
<g id="a_edge4_Node000003_Node000004"><a xlink:title=" ">
<path fill="none" stroke="#63b8ff" d="M79.21,-123.1C94.72,-96.23 119.94,-52.5 132.84,-30.14"/>
<polygon fill="#63b8ff" stroke="#63b8ff" points="76.13,-121.43 74.17,-131.84 82.2,-124.93 76.13,-121.43"/>
</a>
</g>
</g>
<!-- Node6 -->
<g id="Node000006" class="node">
<title>Node6</title>
<g id="a_Node000006"><a xlink:href="chemistry_2qc_2mra_2wfn_2sp_8h.html" target="_top" xlink:title=" ">
<polygon fill="white" stroke="#666666" points="282,-162 150,-162 150,-132 282,-132 282,-162"/>
<text text-anchor="start" x="158" y="-150" font-family="FreeSans" font-size="10.00">mpqc/chemistry/qc/mra</text>
<text text-anchor="middle" x="216" y="-139" font-family="FreeSans" font-size="10.00">/wfn/sp.h</text>
</a>
</g>
</g>
<!-- Node5&#45;&gt;Node6 -->
<g id="edge6_Node000005_Node000006" class="edge">
<title>Node5&#45;&gt;Node6</title>
<g id="a_edge6_Node000005_Node000006"><a xlink:title=" ">
<path fill="none" stroke="#63b8ff" d="M209.43,-187.83C209.02,-179.17 209.31,-169.7 210.29,-162.16"/>
<polygon fill="#63b8ff" stroke="#63b8ff" points="205.95,-188.13 210.28,-197.8 212.92,-187.54 205.95,-188.13"/>
</a>
</g>
</g>
<!-- Node6&#45;&gt;Node5 -->
<g id="edge9_Node000006_Node000005" class="edge">
<title>Node6&#45;&gt;Node5</title>
<g id="a_edge9_Node000006_Node000005"><a xlink:title=" ">
<path fill="none" stroke="#63b8ff" d="M222.57,-172.13C222.98,-180.78 222.7,-190.26 221.72,-197.8"/>
<polygon fill="#63b8ff" stroke="#63b8ff" points="226.05,-171.83 221.71,-162.16 219.08,-172.43 226.05,-171.83"/>
</a>
</g>
</g>
<!-- Node7 -->
<g id="Node000007" class="node">
<title>Node7</title>
<g id="a_Node000007"><a xlink:href="solver_8ipp.html" target="_top" xlink:title=" ">
<polygon fill="white" stroke="#666666" points="268,-96 136,-96 136,-66 268,-66 268,-96"/>
<text text-anchor="start" x="144" y="-84" font-family="FreeSans" font-size="10.00">mpqc/chemistry/qc/mra</text>
<text text-anchor="middle" x="202" y="-73" font-family="FreeSans" font-size="10.00">/scf/solver.ipp</text>
</a>
</g>
</g>
<!-- Node6&#45;&gt;Node7 -->
<g id="edge7_Node000006_Node000007" class="edge">
<title>Node6&#45;&gt;Node7</title>
<g id="a_edge7_Node000006_Node000007"><a xlink:title=" ">
<path fill="none" stroke="#63b8ff" d="M210.71,-121.83C208.82,-113.17 206.75,-103.7 205.1,-96.16"/>
<polygon fill="#63b8ff" stroke="#63b8ff" points="207.34,-122.78 212.89,-131.8 214.18,-121.28 207.34,-122.78"/>
</a>
</g>
</g>
<!-- Node7&#45;&gt;Node4 -->
<g id="edge8_Node000007_Node000004" class="edge">
<title>Node7&#45;&gt;Node4</title>
<g id="a_edge8_Node000007_Node000004"><a xlink:title=" ">
<path fill="none" stroke="#63b8ff" d="M181.38,-58.37C172.51,-49.06 162.39,-38.44 154.5,-30.16"/>
<polygon fill="#63b8ff" stroke="#63b8ff" points="179.03,-60.97 188.46,-65.8 184.1,-56.14 179.03,-60.97"/>
</a>
</g>
</g>
</g>
</svg>
</svg>

<style type='text/css'>
<![CDATA[
[data-mouse-over-selected='false'] { opacity: 0.7; }
[data-mouse-over-selected='true']  { opacity: 1.0; }
]]>
</style>
<script type="application/ecmascript"><![CDATA[
document.addEventListener('DOMContentLoaded', (event) => {
  highlightEdges();
  highlightAdjacentNodes();
});
]]></script>
</svg>
