<?xml version="1.0" encoding="UTF-8" standalone="no"?>
<!DOCTYPE svg PUBLIC "-//W3C//DTD SVG 1.1//EN"
 "http://www.w3.org/Graphics/SVG/1.1/DTD/svg11.dtd">
<!-- Generated by graphviz version 2.43.0 (0)
 -->
<!-- Title: mpqc/chemistry/qc/wfn/multistate.h Pages: 1 -->
<svg width="2319pt" height="423pt"
 viewBox="0.00 0.00 2318.50 423.00" xmlns="http://www.w3.org/2000/svg" xmlns:xlink="http://www.w3.org/1999/xlink">
<g id="graph0" class="graph" transform="scale(1 1) rotate(0) translate(4 419)">
<title>mpqc/chemistry/qc/wfn/multistate.h</title>
<!-- Node1 -->
<g id="Node000001" class="node">
<title>Node1</title>
<g id="a_Node000001"><a xlink:title=" ">
<polygon fill="#999999" stroke="#666666" points="508,-415 377,-415 377,-385 508,-385 508,-415"/>
<text text-anchor="start" x="385" y="-403" font-family="FreeSans" font-size="10.00">mpqc/chemistry/qc/wfn</text>
<text text-anchor="middle" x="442.5" y="-392" font-family="FreeSans" font-size="10.00">/multistate.h</text>
</a>
</g>
</g>
<!-- Node2 -->
<g id="Node000002" class="node">
<title>Node2</title>
<g id="a_Node000002"><a xlink:href="chemistry_2qc_2wfn_2fwd_8h.html" target="_top" xlink:title=" ">
<polygon fill="white" stroke="#666666" points="131,-349 0,-349 0,-319 131,-319 131,-349"/>
<text text-anchor="start" x="8" y="-337" font-family="FreeSans" font-size="10.00">mpqc/chemistry/qc/wfn</text>
<text text-anchor="middle" x="65.5" y="-326" font-family="FreeSans" font-size="10.00">/fwd.h</text>
</a>
</g>
</g>
<!-- Node1&#45;&gt;Node2 -->
<g id="edge1_Node000001_Node000002" class="edge">
<title>Node1&#45;&gt;Node2</title>
<g id="a_edge1_Node000001_Node000002"><a xlink:title=" ">
<path fill="none" stroke="#63b8ff" d="M376.83,-387.85C311.08,-376.69 210.01,-359.53 140.99,-347.82"/>
<polygon fill="#63b8ff" stroke="#63b8ff" points="141.49,-344.35 131.05,-346.13 140.32,-351.25 141.49,-344.35"/>
</a>
</g>
</g>
<!-- Node5 -->
<g id="Node000005" class="node">
<title>Node5</title>
<g id="a_Node000005"><a xlink:href="src_2mpqc_2util_2keyval_2keyval_8h.html" target="_top" xlink:title=" ">
<polygon fill="white" stroke="#666666" points="909.5,-343.5 767.5,-343.5 767.5,-324.5 909.5,-324.5 909.5,-343.5"/>
<text text-anchor="middle" x="838.5" y="-331.5" font-family="FreeSans" font-size="10.00">mpqc/util/keyval/keyval.h</text>
</a>
</g>
</g>
<!-- Node1&#45;&gt;Node5 -->
<g id="edge4_Node000001_Node000005" class="edge">
<title>Node1&#45;&gt;Node5</title>
<g id="a_edge4_Node000001_Node000005"><a xlink:title=" ">
<path fill="none" stroke="#63b8ff" d="M508.34,-388.36C582.69,-376.34 702.82,-356.93 775.84,-345.13"/>
<polygon fill="#63b8ff" stroke="#63b8ff" points="776.51,-348.56 785.82,-343.51 775.39,-341.65 776.51,-348.56"/>
</a>
</g>
</g>
<!-- Node3 -->
<g id="Node000003" class="node">
<title>Node3</title>
<g id="a_Node000003"><a xlink:title=" ">
<polygon fill="#e0e0e0" stroke="#999999" points="124.5,-145.5 86.5,-145.5 86.5,-126.5 124.5,-126.5 124.5,-145.5"/>
<text text-anchor="middle" x="105.5" y="-133.5" font-family="FreeSans" font-size="10.00">map</text>
</a>
</g>
</g>
<!-- Node2&#45;&gt;Node3 -->
<g id="edge2_Node000002_Node000003" class="edge">
<title>Node2&#45;&gt;Node3</title>
<g id="a_edge2_Node000002_Node000003"><a xlink:title=" ">
<path fill="none" stroke="#63b8ff" d="M53.64,-318.72C46.57,-309.24 38.25,-296.16 34.5,-283 30.85,-270.18 30.88,-265.83 34.5,-253 45.59,-213.65 74.16,-174.46 91.49,-153.22"/>
<polygon fill="#63b8ff" stroke="#63b8ff" points="94.21,-155.43 97.93,-145.51 88.83,-150.94 94.21,-155.43"/>
</a>
</g>
</g>
<!-- Node4 -->
<g id="Node000004" class="node">
<title>Node4</title>
<g id="a_Node000004"><a xlink:title=" ">
<polygon fill="#e0e0e0" stroke="#999999" points="87.5,-277.5 43.5,-277.5 43.5,-258.5 87.5,-258.5 87.5,-277.5"/>
<text text-anchor="middle" x="65.5" y="-265.5" font-family="FreeSans" font-size="10.00">string</text>
</a>
</g>
</g>
<!-- Node2&#45;&gt;Node4 -->
<g id="edge3_Node000002_Node000004" class="edge">
<title>Node2&#45;&gt;Node4</title>
<g id="a_edge3_Node000002_Node000004"><a xlink:title=" ">
<path fill="none" stroke="#63b8ff" d="M65.5,-318.8C65.5,-309.7 65.5,-297.79 65.5,-287.9"/>
<polygon fill="#63b8ff" stroke="#63b8ff" points="69,-287.84 65.5,-277.84 62,-287.84 69,-287.84"/>
</a>
</g>
</g>
<!-- Node5&#45;&gt;Node3 -->
<g id="edge11_Node000005_Node000003" class="edge">
<title>Node5&#45;&gt;Node3</title>
<g id="a_edge11_Node000005_Node000003"><a xlink:title=" ">
<path fill="none" stroke="#63b8ff" d="M767.41,-331.92C602.23,-328.83 202.78,-317.8 153.5,-283 112.35,-253.94 105.79,-188.33 105.18,-155.89"/>
<polygon fill="#63b8ff" stroke="#63b8ff" points="108.68,-155.56 105.17,-145.56 101.68,-155.57 108.68,-155.56"/>
</a>
</g>
</g>
<!-- Node5&#45;&gt;Node4 -->
<g id="edge16_Node000005_Node000004" class="edge">
<title>Node5&#45;&gt;Node4</title>
<g id="a_edge16_Node000005_Node000004"><a xlink:title=" ">
<path fill="none" stroke="#63b8ff" d="M767.29,-330.91C607.99,-325.8 226.99,-310.97 101.5,-283 98.98,-282.44 96.4,-281.73 93.85,-280.93"/>
<polygon fill="#63b8ff" stroke="#63b8ff" points="94.82,-277.56 84.22,-277.52 92.48,-284.16 94.82,-277.56"/>
</a>
</g>
</g>
<!-- Node6 -->
<g id="Node000006" class="node">
<title>Node6</title>
<g id="a_Node000006"><a xlink:title=" ">
<polygon fill="#e0e0e0" stroke="#999999" points="2310.5,-79.5 2268.5,-79.5 2268.5,-60.5 2310.5,-60.5 2310.5,-79.5"/>
<text text-anchor="middle" x="2289.5" y="-67.5" font-family="FreeSans" font-size="10.00">array</text>
</a>
</g>
</g>
<!-- Node5&#45;&gt;Node6 -->
<g id="edge5_Node000005_Node000006" class="edge">
<title>Node5&#45;&gt;Node6</title>
<g id="a_edge5_Node000005_Node000006"><a xlink:title=" ">
<path fill="none" stroke="#63b8ff" d="M909.81,-332.98C1190.42,-332.59 2205.72,-328.07 2256.5,-283 2312.39,-233.4 2300.95,-131.35 2293.38,-89.52"/>
<polygon fill="#63b8ff" stroke="#63b8ff" points="2296.8,-88.76 2291.45,-79.61 2289.93,-90.1 2296.8,-88.76"/>
</a>
</g>
</g>
<!-- Node7 -->
<g id="Node000007" class="node">
<title>Node7</title>
<g id="a_Node000007"><a xlink:title=" ">
<polygon fill="#e0e0e0" stroke="#999999" points="214.5,-277.5 162.5,-277.5 162.5,-258.5 214.5,-258.5 214.5,-277.5"/>
<text text-anchor="middle" x="188.5" y="-265.5" font-family="FreeSans" font-size="10.00">cassert</text>
</a>
</g>
</g>
<!-- Node5&#45;&gt;Node7 -->
<g id="edge6_Node000005_Node000007" class="edge">
<title>Node5&#45;&gt;Node7</title>
<g id="a_edge6_Node000005_Node000007"><a xlink:title=" ">
<path fill="none" stroke="#63b8ff" d="M767.44,-329.89C628.4,-323.38 325.11,-306.88 223.5,-283 221.19,-282.46 218.83,-281.79 216.48,-281.04"/>
<polygon fill="#63b8ff" stroke="#63b8ff" points="217.65,-277.74 207.06,-277.62 215.26,-284.32 217.65,-277.74"/>
</a>
</g>
</g>
<!-- Node8 -->
<g id="Node000008" class="node">
<title>Node8</title>
<g id="a_Node000008"><a xlink:title=" ">
<polygon fill="#e0e0e0" stroke="#999999" points="292,-277.5 233,-277.5 233,-258.5 292,-258.5 292,-277.5"/>
<text text-anchor="middle" x="262.5" y="-265.5" font-family="FreeSans" font-size="10.00">complex</text>
</a>
</g>
</g>
<!-- Node5&#45;&gt;Node8 -->
<g id="edge7_Node000005_Node000008" class="edge">
<title>Node5&#45;&gt;Node8</title>
<g id="a_edge7_Node000005_Node000008"><a xlink:title=" ">
<path fill="none" stroke="#63b8ff" d="M767.23,-331.14C664.48,-327.38 469.22,-316.13 306.5,-283 303.02,-282.29 299.42,-281.41 295.85,-280.43"/>
<polygon fill="#63b8ff" stroke="#63b8ff" points="296.59,-277 286,-277.5 294.59,-283.71 296.59,-277"/>
</a>
</g>
</g>
<!-- Node9 -->
<g id="Node000009" class="node">
<title>Node9</title>
<g id="a_Node000009"><a xlink:title=" ">
<polygon fill="#e0e0e0" stroke="#999999" points="193.5,-211.5 133.5,-211.5 133.5,-192.5 193.5,-192.5 193.5,-211.5"/>
<text text-anchor="middle" x="163.5" y="-199.5" font-family="FreeSans" font-size="10.00">iostream</text>
</a>
</g>
</g>
<!-- Node5&#45;&gt;Node9 -->
<g id="edge8_Node000005_Node000009" class="edge">
<title>Node5&#45;&gt;Node9</title>
<g id="a_edge8_Node000005_Node000009"><a xlink:title=" ">
<path fill="none" stroke="#63b8ff" d="M767.23,-331.29C647.19,-327.54 410.37,-316.06 334.5,-283 316.03,-274.95 317.82,-263.3 300.5,-253 298.16,-251.61 236.84,-229.42 197.04,-215.07"/>
<polygon fill="#63b8ff" stroke="#63b8ff" points="198.03,-211.71 187.44,-211.61 195.66,-218.29 198.03,-211.71"/>
</a>
</g>
</g>
<!-- Node10 -->
<g id="Node000010" class="node">
<title>Node10</title>
<g id="a_Node000010"><a xlink:title=" ">
<polygon fill="#e0e0e0" stroke="#999999" points="602.5,-277.5 570.5,-277.5 570.5,-258.5 602.5,-258.5 602.5,-277.5"/>
<text text-anchor="middle" x="586.5" y="-265.5" font-family="FreeSans" font-size="10.00">list</text>
</a>
</g>
</g>
<!-- Node5&#45;&gt;Node10 -->
<g id="edge9_Node000005_Node000010" class="edge">
<title>Node5&#45;&gt;Node10</title>
<g id="a_edge9_Node000005_Node000010"><a xlink:title=" ">
<path fill="none" stroke="#63b8ff" d="M776.87,-324.45C730.39,-316.81 665.62,-303.6 611.5,-283 610.79,-282.73 610.07,-282.44 609.35,-282.13"/>
<polygon fill="#63b8ff" stroke="#63b8ff" points="610.68,-278.89 600.16,-277.6 607.58,-285.17 610.68,-278.89"/>
</a>
</g>
</g>
<!-- Node11 -->
<g id="Node000011" class="node">
<title>Node11</title>
<g id="a_Node000011"><a xlink:title=" ">
<polygon fill="#e0e0e0" stroke="#999999" points="666.5,-277.5 620.5,-277.5 620.5,-258.5 666.5,-258.5 666.5,-277.5"/>
<text text-anchor="middle" x="643.5" y="-265.5" font-family="FreeSans" font-size="10.00">locale</text>
</a>
</g>
</g>
<!-- Node5&#45;&gt;Node11 -->
<g id="edge10_Node000005_Node000011" class="edge">
<title>Node5&#45;&gt;Node11</title>
<g id="a_edge10_Node000005_Node000011"><a xlink:title=" ">
<path fill="none" stroke="#63b8ff" d="M806.9,-324.47C773.79,-315.26 720.46,-299.67 675.5,-283 674.11,-282.49 672.7,-281.94 671.28,-281.38"/>
<polygon fill="#63b8ff" stroke="#63b8ff" points="672.54,-278.12 661.97,-277.51 669.86,-284.58 672.54,-278.12"/>
</a>
</g>
</g>
<!-- Node12 -->
<g id="Node000012" class="node">
<title>Node12</title>
<g id="a_Node000012"><a xlink:href="memory.html" target="_top" xlink:title=" ">
<polygon fill="white" stroke="#666666" points="508.5,-145.5 450.5,-145.5 450.5,-126.5 508.5,-126.5 508.5,-145.5"/>
<text text-anchor="middle" x="479.5" y="-133.5" font-family="FreeSans" font-size="10.00">memory</text>
</a>
</g>
</g>
<!-- Node5&#45;&gt;Node12 -->
<g id="edge12_Node000005_Node000012" class="edge">
<title>Node5&#45;&gt;Node12</title>
<g id="a_edge12_Node000005_Node000012"><a xlink:title=" ">
<path fill="none" stroke="#63b8ff" d="M767.42,-329.67C653.01,-323.57 438.44,-308.81 415.5,-283 397.52,-262.77 444.38,-188.21 467.49,-154.16"/>
<polygon fill="#63b8ff" stroke="#63b8ff" points="470.52,-155.93 473.31,-145.71 464.76,-151.97 470.52,-155.93"/>
</a>
</g>
</g>
<!-- Node13 -->
<g id="Node000013" class="node">
<title>Node13</title>
<g id="a_Node000013"><a xlink:title=" ">
<polygon fill="#e0e0e0" stroke="#999999" points="267.5,-211.5 211.5,-211.5 211.5,-192.5 267.5,-192.5 267.5,-211.5"/>
<text text-anchor="middle" x="239.5" y="-199.5" font-family="FreeSans" font-size="10.00">optional</text>
</a>
</g>
</g>
<!-- Node5&#45;&gt;Node13 -->
<g id="edge14_Node000005_Node000013" class="edge">
<title>Node5&#45;&gt;Node13</title>
<g id="a_edge14_Node000005_Node000013"><a xlink:title=" ">
<path fill="none" stroke="#63b8ff" d="M767.45,-329.09C657.57,-322.38 451.82,-307.05 382.5,-283 358.73,-274.76 356.31,-265.53 334.5,-253 311.69,-239.89 285.15,-226.04 265.93,-216.25"/>
<polygon fill="#63b8ff" stroke="#63b8ff" points="267.37,-213.05 256.87,-211.65 264.21,-219.3 267.37,-213.05"/>
</a>
</g>
</g>
<!-- Node14 -->
<g id="Node000014" class="node">
<title>Node14</title>
<g id="a_Node000014"><a xlink:title=" ">
<polygon fill="#e0e0e0" stroke="#999999" points="750,-277.5 685,-277.5 685,-258.5 750,-258.5 750,-277.5"/>
<text text-anchor="middle" x="717.5" y="-265.5" font-family="FreeSans" font-size="10.00">stdexcept</text>
</a>
</g>
</g>
<!-- Node5&#45;&gt;Node14 -->
<g id="edge15_Node000005_Node000014" class="edge">
<title>Node5&#45;&gt;Node14</title>
<g id="a_edge15_Node000005_Node000014"><a xlink:title=" ">
<path fill="none" stroke="#63b8ff" d="M822.18,-324.37C801.79,-313.59 766.69,-295.02 742.8,-282.38"/>
<polygon fill="#63b8ff" stroke="#63b8ff" points="744.42,-279.28 733.95,-277.7 741.15,-285.47 744.42,-279.28"/>
</a>
</g>
</g>
<!-- Node15 -->
<g id="Node000015" class="node">
<title>Node15</title>
<g id="a_Node000015"><a xlink:title=" ">
<polygon fill="#e0e0e0" stroke="#999999" points="1381,-211.5 1334,-211.5 1334,-192.5 1381,-192.5 1381,-211.5"/>
<text text-anchor="middle" x="1357.5" y="-199.5" font-family="FreeSans" font-size="10.00">vector</text>
</a>
</g>
</g>
<!-- Node5&#45;&gt;Node15 -->
<g id="edge17_Node000005_Node000015" class="edge">
<title>Node5&#45;&gt;Node15</title>
<g id="a_edge17_Node000005_Node000015"><a xlink:title=" ">
<path fill="none" stroke="#63b8ff" d="M909.52,-332.15C1134.57,-329.11 1819.06,-317.08 1851.5,-283 1860.69,-273.34 1860.44,-262.89 1851.5,-253 1820.66,-218.88 1497.9,-206.9 1391.39,-203.86"/>
<polygon fill="#63b8ff" stroke="#63b8ff" points="1391.3,-200.35 1381.2,-203.58 1391.1,-207.35 1391.3,-200.35"/>
</a>
</g>
</g>
<!-- Node16 -->
<g id="Node000016" class="node">
<title>Node16</title>
<g id="a_Node000016"><a xlink:title=" ">
<polygon fill="#e0e0e0" stroke="#999999" points="908.5,-277.5 768.5,-277.5 768.5,-258.5 908.5,-258.5 908.5,-277.5"/>
<text text-anchor="middle" x="838.5" y="-265.5" font-family="FreeSans" font-size="10.00">boost/core/demangle.hpp</text>
</a>
</g>
</g>
<!-- Node5&#45;&gt;Node16 -->
<g id="edge18_Node000005_Node000016" class="edge">
<title>Node5&#45;&gt;Node16</title>
<g id="a_edge18_Node000005_Node000016"><a xlink:title=" ">
<path fill="none" stroke="#63b8ff" d="M838.5,-324.37C838.5,-315.16 838.5,-300.29 838.5,-288.27"/>
<polygon fill="#63b8ff" stroke="#63b8ff" points="842,-287.91 838.5,-277.91 835,-287.91 842,-287.91"/>
</a>
</g>
</g>
<!-- Node17 -->
<g id="Node000017" class="node">
<title>Node17</title>
<g id="a_Node000017"><a xlink:title=" ">
<polygon fill="#e0e0e0" stroke="#999999" points="724,-79.5 607,-79.5 607,-60.5 724,-60.5 724,-79.5"/>
<text text-anchor="middle" x="665.5" y="-67.5" font-family="FreeSans" font-size="10.00">mpqc/mpqc_config.h</text>
</a>
</g>
</g>
<!-- Node5&#45;&gt;Node17 -->
<g id="edge19_Node000005_Node000017" class="edge">
<title>Node5&#45;&gt;Node17</title>
<g id="a_edge19_Node000005_Node000017"><a xlink:title=" ">
<path fill="none" stroke="#63b8ff" d="M909.57,-332.74C1162.64,-331.48 2006.99,-324.18 2046.5,-283 2055.73,-273.38 2047.6,-266.29 2046.5,-253 2044.05,-223.36 2057.36,-207.16 2035.5,-187 1939.14,-98.11 999.23,-76.36 734.55,-71.97"/>
<polygon fill="#63b8ff" stroke="#63b8ff" points="734.36,-68.47 724.31,-71.81 734.25,-75.47 734.36,-68.47"/>
</a>
</g>
</g>
<!-- Node18 -->
<g id="Node000018" class="node">
<title>Node18</title>
<g id="a_Node000018"><a xlink:title=" ">
<polygon fill="#e0e0e0" stroke="#999999" points="1048.5,-283 926.5,-283 926.5,-253 1048.5,-253 1048.5,-283"/>
<text text-anchor="start" x="934.5" y="-271" font-family="FreeSans" font-size="10.00">boost/container/small</text>
<text text-anchor="middle" x="987.5" y="-260" font-family="FreeSans" font-size="10.00">_vector.hpp</text>
</a>
</g>
</g>
<!-- Node5&#45;&gt;Node18 -->
<g id="edge20_Node000005_Node000018" class="edge">
<title>Node5&#45;&gt;Node18</title>
<g id="a_edge20_Node000005_Node000018"><a xlink:title=" ">
<path fill="none" stroke="#63b8ff" d="M858.59,-324.37C880.72,-314.87 916.92,-299.32 945.33,-287.11"/>
<polygon fill="#63b8ff" stroke="#63b8ff" points="946.83,-290.28 954.64,-283.12 944.07,-283.85 946.83,-290.28"/>
</a>
</g>
</g>
<!-- Node19 -->
<g id="Node000019" class="node">
<title>Node19</title>
<g id="a_Node000019"><a xlink:title=" ">
<polygon fill="#e0e0e0" stroke="#999999" points="1180,-283 1067,-283 1067,-253 1180,-253 1180,-283"/>
<text text-anchor="start" x="1075" y="-271" font-family="FreeSans" font-size="10.00">boost/property_tree</text>
<text text-anchor="middle" x="1123.5" y="-260" font-family="FreeSans" font-size="10.00">/info_parser.hpp</text>
</a>
</g>
</g>
<!-- Node5&#45;&gt;Node19 -->
<g id="edge21_Node000005_Node000019" class="edge">
<title>Node5&#45;&gt;Node19</title>
<g id="a_edge21_Node000005_Node000019"><a xlink:title=" ">
<path fill="none" stroke="#63b8ff" d="M876.64,-324.44C922.72,-314.09 1001.01,-296.51 1057.08,-283.92"/>
<polygon fill="#63b8ff" stroke="#63b8ff" points="1057.93,-287.31 1066.92,-281.71 1056.4,-280.48 1057.93,-287.31"/>
</a>
</g>
</g>
<!-- Node20 -->
<g id="Node000020" class="node">
<title>Node20</title>
<g id="a_Node000020"><a xlink:title=" ">
<polygon fill="#e0e0e0" stroke="#999999" points="1311,-283 1198,-283 1198,-253 1311,-253 1311,-283"/>
<text text-anchor="start" x="1206" y="-271" font-family="FreeSans" font-size="10.00">boost/property_tree</text>
<text text-anchor="middle" x="1254.5" y="-260" font-family="FreeSans" font-size="10.00">/json_parser.hpp</text>
</a>
</g>
</g>
<!-- Node5&#45;&gt;Node20 -->
<g id="edge22_Node000005_Node000020" class="edge">
<title>Node5&#45;&gt;Node20</title>
<g id="a_edge22_Node000005_Node000020"><a xlink:title=" ">
<path fill="none" stroke="#63b8ff" d="M907.78,-324.5C976.34,-315.77 1084.48,-301.15 1187.69,-283.07"/>
<polygon fill="#63b8ff" stroke="#63b8ff" points="1188.43,-286.49 1197.67,-281.31 1187.21,-279.6 1188.43,-286.49"/>
</a>
</g>
</g>
<!-- Node21 -->
<g id="Node000021" class="node">
<title>Node21</title>
<g id="a_Node000021"><a xlink:title=" ">
<polygon fill="#e0e0e0" stroke="#999999" points="1442,-283 1329,-283 1329,-253 1442,-253 1442,-283"/>
<text text-anchor="start" x="1337" y="-271" font-family="FreeSans" font-size="10.00">boost/property_tree</text>
<text text-anchor="middle" x="1385.5" y="-260" font-family="FreeSans" font-size="10.00">/ptree.hpp</text>
</a>
</g>
</g>
<!-- Node5&#45;&gt;Node21 -->
<g id="edge23_Node000005_Node000021" class="edge">
<title>Node5&#45;&gt;Node21</title>
<g id="a_edge23_Node000005_Node000021"><a xlink:title=" ">
<path fill="none" stroke="#63b8ff" d="M909.71,-327.96C1001.84,-320.91 1167.47,-306.44 1318.75,-283.01"/>
<polygon fill="#63b8ff" stroke="#63b8ff" points="1319.35,-286.45 1328.69,-281.45 1318.27,-279.54 1319.35,-286.45"/>
</a>
</g>
</g>
<!-- Node22 -->
<g id="Node000022" class="node">
<title>Node22</title>
<g id="a_Node000022"><a xlink:title=" ">
<polygon fill="#e0e0e0" stroke="#999999" points="1573,-283 1460,-283 1460,-253 1573,-253 1573,-283"/>
<text text-anchor="start" x="1468" y="-271" font-family="FreeSans" font-size="10.00">boost/property_tree</text>
<text text-anchor="middle" x="1516.5" y="-260" font-family="FreeSans" font-size="10.00">/xml_parser.hpp</text>
</a>
</g>
</g>
<!-- Node5&#45;&gt;Node22 -->
<g id="edge24_Node000005_Node000022" class="edge">
<title>Node5&#45;&gt;Node22</title>
<g id="a_edge24_Node000005_Node000022"><a xlink:title=" ">
<path fill="none" stroke="#63b8ff" d="M909.51,-330.14C1022.01,-324.96 1248.22,-311.91 1449.53,-283.01"/>
<polygon fill="#63b8ff" stroke="#63b8ff" points="1450.31,-286.43 1459.7,-281.53 1449.3,-279.5 1450.31,-286.43"/>
</a>
</g>
</g>
<!-- Node23 -->
<g id="Node000023" class="node">
<title>Node23</title>
<g id="a_Node000023"><a xlink:title=" ">
<polygon fill="#e0e0e0" stroke="#999999" points="1698,-283 1591,-283 1591,-253 1698,-253 1698,-283"/>
<text text-anchor="start" x="1599" y="-271" font-family="FreeSans" font-size="10.00">boost/serialization</text>
<text text-anchor="middle" x="1644.5" y="-260" font-family="FreeSans" font-size="10.00">/export.hpp</text>
</a>
</g>
</g>
<!-- Node5&#45;&gt;Node23 -->
<g id="edge25_Node000005_Node000023" class="edge">
<title>Node5&#45;&gt;Node23</title>
<g id="a_edge25_Node000005_Node000023"><a xlink:title=" ">
<path fill="none" stroke="#63b8ff" d="M909.56,-331.79C1040.5,-328.79 1328.72,-318.54 1580.9,-282.91"/>
<polygon fill="#63b8ff" stroke="#63b8ff" points="1581.58,-286.35 1590.99,-281.47 1580.59,-279.42 1581.58,-286.35"/>
</a>
</g>
</g>
<!-- Node24 -->
<g id="Node000024" class="node">
<title>Node24</title>
<g id="a_Node000024"><a xlink:href="exenv_8h.html" target="_top" xlink:title=" ">
<polygon fill="white" stroke="#666666" points="552,-277.5 425,-277.5 425,-258.5 552,-258.5 552,-277.5"/>
<text text-anchor="middle" x="488.5" y="-265.5" font-family="FreeSans" font-size="10.00">mpqc/util/core/exenv.h</text>
</a>
</g>
</g>
<!-- Node5&#45;&gt;Node24 -->
<g id="edge26_Node000005_Node000024" class="edge">
<title>Node5&#45;&gt;Node24</title>
<g id="a_edge26_Node000005_Node000024"><a xlink:title=" ">
<path fill="none" stroke="#63b8ff" d="M790.43,-324.49C735.16,-314.66 641.73,-297.93 561.5,-283 555.34,-281.85 548.89,-280.64 542.48,-279.42"/>
<polygon fill="#63b8ff" stroke="#63b8ff" points="542.97,-275.95 532.49,-277.52 541.66,-282.83 542.97,-275.95"/>
</a>
</g>
</g>
<!-- Node33 -->
<g id="Node000033" class="node">
<title>Node33</title>
<g id="a_Node000033"><a xlink:href="util_2keyval_2fwd_8h.html" target="_top" xlink:title=" ">
<polygon fill="white" stroke="#666666" points="1843,-277.5 1716,-277.5 1716,-258.5 1843,-258.5 1843,-277.5"/>
<text text-anchor="middle" x="1779.5" y="-265.5" font-family="FreeSans" font-size="10.00">mpqc/util/keyval/fwd.h</text>
</a>
</g>
</g>
<!-- Node5&#45;&gt;Node33 -->
<g id="edge44_Node000005_Node000033" class="edge">
<title>Node5&#45;&gt;Node33</title>
<g id="a_edge44_Node000005_Node000033"><a xlink:title=" ">
<path fill="none" stroke="#63b8ff" d="M909.67,-332.07C1058.27,-329.44 1412.15,-319.54 1706.5,-283 1714.24,-282.04 1722.4,-280.75 1730.35,-279.34"/>
<polygon fill="#63b8ff" stroke="#63b8ff" points="1731.05,-282.77 1740.25,-277.51 1729.78,-275.89 1731.05,-282.77"/>
</a>
</g>
</g>
<!-- Node34 -->
<g id="Node000034" class="node">
<title>Node34</title>
<g id="a_Node000034"><a xlink:href="predicates_8h.html" target="_top" xlink:title=" ">
<polygon fill="white" stroke="#666666" points="2247.5,-277.5 2093.5,-277.5 2093.5,-258.5 2247.5,-258.5 2247.5,-277.5"/>
<text text-anchor="middle" x="2170.5" y="-265.5" font-family="FreeSans" font-size="10.00">mpqc/util/meta/predicates.h</text>
</a>
</g>
</g>
<!-- Node5&#45;&gt;Node34 -->
<g id="edge45_Node000005_Node000034" class="edge">
<title>Node5&#45;&gt;Node34</title>
<g id="a_edge45_Node000005_Node000034"><a xlink:title=" ">
<path fill="none" stroke="#63b8ff" d="M909.7,-332.93C1099.98,-332.12 1636.03,-325.91 2079.5,-283 2089.87,-282 2100.86,-280.6 2111.47,-279.07"/>
<polygon fill="#63b8ff" stroke="#63b8ff" points="2112.14,-282.51 2121.51,-277.57 2111.1,-275.58 2112.14,-282.51"/>
</a>
</g>
</g>
<!-- Node41 -->
<g id="Node000041" class="node">
<title>Node41</title>
<g id="a_Node000041"><a xlink:href="stream_8h.html" target="_top" xlink:title=" ">
<polygon fill="white" stroke="#666666" points="2037,-277.5 1900,-277.5 1900,-258.5 2037,-258.5 2037,-277.5"/>
<text text-anchor="middle" x="1968.5" y="-265.5" font-family="FreeSans" font-size="10.00">mpqc/util/meta/stream.h</text>
</a>
</g>
</g>
<!-- Node5&#45;&gt;Node41 -->
<g id="edge55_Node000005_Node000041" class="edge">
<title>Node5&#45;&gt;Node41</title>
<g id="a_edge55_Node000005_Node000041"><a xlink:title=" ">
<path fill="none" stroke="#63b8ff" d="M909.5,-332.53C1078.89,-330.77 1519.8,-322.43 1885.5,-283 1894.68,-282.01 1904.38,-280.66 1913.78,-279.18"/>
<polygon fill="#63b8ff" stroke="#63b8ff" points="1914.53,-282.6 1923.84,-277.54 1913.4,-275.7 1914.53,-282.6"/>
</a>
</g>
</g>
<!-- Node12&#45;&gt;Node12 -->
<g id="edge13_Node000012_Node000012" class="edge">
<title>Node12&#45;&gt;Node12</title>
<g id="a_edge13_Node000012_Node000012"><a xlink:title=" ">
<path fill="none" stroke="#63b8ff" d="M494.42,-145.66C509.6,-151.34 526.5,-148.12 526.5,-136 526.5,-126.53 516.19,-122.5 504.43,-123.89"/>
<polygon fill="#63b8ff" stroke="#63b8ff" points="503.3,-120.57 494.42,-126.34 504.96,-127.37 503.3,-120.57"/>
</a>
</g>
</g>
<!-- Node24&#45;&gt;Node9 -->
<g id="edge39_Node000024_Node000009" class="edge">
<title>Node24&#45;&gt;Node9</title>
<g id="a_edge39_Node000024_Node000009"><a xlink:title=" ">
<path fill="none" stroke="#63b8ff" d="M424.78,-259.05C366.37,-251.02 277.78,-236.93 202.5,-217 200.01,-216.34 197.44,-215.59 194.88,-214.79"/>
<polygon fill="#63b8ff" stroke="#63b8ff" points="195.75,-211.39 185.16,-211.52 193.52,-218.02 195.75,-211.39"/>
</a>
</g>
</g>
<!-- Node24&#45;&gt;Node12 -->
<g id="edge40_Node000024_Node000012" class="edge">
<title>Node24&#45;&gt;Node12</title>
<g id="a_edge40_Node000024_Node000012"><a xlink:title=" ">
<path fill="none" stroke="#63b8ff" d="M499.42,-258.43C509.93,-249.41 525.13,-234.18 531.5,-217 536.14,-204.5 536.72,-199.27 531.5,-187 525.4,-172.68 512.96,-160.47 501.78,-151.71"/>
<polygon fill="#63b8ff" stroke="#63b8ff" points="503.73,-148.8 493.6,-145.7 499.59,-154.44 503.73,-148.8"/>
</a>
</g>
</g>
<!-- Node24&#45;&gt;Node13 -->
<g id="edge41_Node000024_Node000013" class="edge">
<title>Node24&#45;&gt;Node13</title>
<g id="a_edge41_Node000024_Node000013"><a xlink:title=" ">
<path fill="none" stroke="#63b8ff" d="M445.02,-258.48C401.85,-249.61 334,-234.58 276.5,-217 274.58,-216.41 272.61,-215.78 270.64,-215.11"/>
<polygon fill="#63b8ff" stroke="#63b8ff" points="271.45,-211.69 260.86,-211.62 269.1,-218.28 271.45,-211.69"/>
</a>
</g>
</g>
<!-- Node24&#45;&gt;Node15 -->
<g id="edge43_Node000024_Node000015" class="edge">
<title>Node24&#45;&gt;Node15</title>
<g id="a_edge43_Node000024_Node000015"><a xlink:title=" ">
<path fill="none" stroke="#63b8ff" d="M528.13,-258.45C538.91,-256.39 550.62,-254.38 561.5,-253 855.3,-215.75 1213.79,-205.84 1323.8,-203.59"/>
<polygon fill="#63b8ff" stroke="#63b8ff" points="1324.03,-207.09 1333.96,-203.39 1323.89,-200.09 1324.03,-207.09"/>
</a>
</g>
</g>
<!-- Node24&#45;&gt;Node17 -->
<g id="edge30_Node000024_Node000017" class="edge">
<title>Node24&#45;&gt;Node17</title>
<g id="a_edge30_Node000024_Node000017"><a xlink:title=" ">
<path fill="none" stroke="#63b8ff" d="M500.74,-258.36C513.38,-249.06 533.21,-233.4 547.5,-217 580.72,-178.89 575.61,-159.39 608.5,-121 619.56,-108.1 633.96,-95.49 645.52,-86.17"/>
<polygon fill="#63b8ff" stroke="#63b8ff" points="648.01,-88.66 653.7,-79.72 643.68,-83.16 648.01,-88.66"/>
</a>
</g>
</g>
<!-- Node25 -->
<g id="Node000025" class="node">
<title>Node25</title>
<g id="a_Node000025"><a xlink:href="math_2external_2tiledarray_2fwd_8h.html" target="_top" xlink:title=" ">
<polygon fill="white" stroke="#666666" points="733.5,-217 617.5,-217 617.5,-187 733.5,-187 733.5,-217"/>
<text text-anchor="start" x="625.5" y="-205" font-family="FreeSans" font-size="10.00">mpqc/math/external</text>
<text text-anchor="middle" x="675.5" y="-194" font-family="FreeSans" font-size="10.00">/tiledarray/fwd.h</text>
</a>
</g>
</g>
<!-- Node24&#45;&gt;Node25 -->
<g id="edge27_Node000024_Node000025" class="edge">
<title>Node24&#45;&gt;Node25</title>
<g id="a_edge27_Node000024_Node000025"><a xlink:title=" ">
<path fill="none" stroke="#63b8ff" d="M513.72,-258.37C541.97,-248.7 588.5,-232.77 624.43,-220.48"/>
<polygon fill="#63b8ff" stroke="#63b8ff" points="625.93,-223.67 634.26,-217.12 623.66,-217.04 625.93,-223.67"/>
</a>
</g>
</g>
<!-- Node27 -->
<g id="Node000027" class="node">
<title>Node27</title>
<g id="a_Node000027"><a xlink:href="formio_8h.html" target="_top" xlink:title=" ">
<polygon fill="white" stroke="#666666" points="417,-211.5 286,-211.5 286,-192.5 417,-192.5 417,-211.5"/>
<text text-anchor="middle" x="351.5" y="-199.5" font-family="FreeSans" font-size="10.00">mpqc/util/core/formio.h</text>
</a>
</g>
</g>
<!-- Node24&#45;&gt;Node27 -->
<g id="edge31_Node000024_Node000027" class="edge">
<title>Node24&#45;&gt;Node27</title>
<g id="a_edge31_Node000024_Node000027"><a xlink:title=" ">
<path fill="none" stroke="#63b8ff" d="M470.02,-258.37C446.74,-247.49 406.49,-228.69 379.44,-216.05"/>
<polygon fill="#63b8ff" stroke="#63b8ff" points="380.66,-212.76 370.12,-211.7 377.7,-219.1 380.66,-212.76"/>
</a>
</g>
</g>
<!-- Node31 -->
<g id="Node000031" class="node">
<title>Node31</title>
<g id="a_Node000031"><a xlink:title=" ">
<polygon fill="#e0e0e0" stroke="#999999" points="523,-211.5 474,-211.5 474,-192.5 523,-192.5 523,-211.5"/>
<text text-anchor="middle" x="498.5" y="-199.5" font-family="FreeSans" font-size="10.00">cstdlib</text>
</a>
</g>
</g>
<!-- Node24&#45;&gt;Node31 -->
<g id="edge38_Node000024_Node000031" class="edge">
<title>Node24&#45;&gt;Node31</title>
<g id="a_edge38_Node000024_Node000031"><a xlink:title=" ">
<path fill="none" stroke="#63b8ff" d="M489.85,-258.37C491.3,-249.07 493.66,-233.98 495.55,-221.9"/>
<polygon fill="#63b8ff" stroke="#63b8ff" points="499.02,-222.33 497.11,-211.91 492.11,-221.25 499.02,-222.33"/>
</a>
</g>
</g>
<!-- Node32 -->
<g id="Node000032" class="node">
<title>Node32</title>
<g id="a_Node000032"><a xlink:title=" ">
<polygon fill="#e0e0e0" stroke="#999999" points="795,-211.5 752,-211.5 752,-192.5 795,-192.5 795,-211.5"/>
<text text-anchor="middle" x="773.5" y="-199.5" font-family="FreeSans" font-size="10.00">stack</text>
</a>
</g>
</g>
<!-- Node24&#45;&gt;Node32 -->
<g id="edge42_Node000024_Node000032" class="edge">
<title>Node24&#45;&gt;Node32</title>
<g id="a_edge42_Node000024_Node000032"><a xlink:title=" ">
<path fill="none" stroke="#63b8ff" d="M532.53,-258.47C603.92,-244.61 737.49,-218.6 742.5,-217 743.94,-216.54 745.4,-216.03 746.87,-215.49"/>
<polygon fill="#63b8ff" stroke="#63b8ff" points="748.48,-218.61 756.4,-211.57 745.82,-212.14 748.48,-218.61"/>
</a>
</g>
</g>
<!-- Node25&#45;&gt;Node17 -->
<g id="edge28_Node000025_Node000017" class="edge">
<title>Node25&#45;&gt;Node17</title>
<g id="a_edge28_Node000025_Node000017"><a xlink:title=" ">
<path fill="none" stroke="#63b8ff" d="M693.91,-186.97C704.15,-177.96 715.93,-165.29 721.5,-151 726.34,-138.58 726.95,-133.17 721.5,-121 714.86,-106.16 701.39,-93.91 689.33,-85.25"/>
<polygon fill="#63b8ff" stroke="#63b8ff" points="691.17,-82.27 680.92,-79.6 687.26,-88.08 691.17,-82.27"/>
</a>
</g>
</g>
<!-- Node26 -->
<g id="Node000026" class="node">
<title>Node26</title>
<g id="a_Node000026"><a xlink:title=" ">
<polygon fill="#e0e0e0" stroke="#999999" points="713,-145.5 618,-145.5 618,-126.5 713,-126.5 713,-145.5"/>
<text text-anchor="middle" x="665.5" y="-133.5" font-family="FreeSans" font-size="10.00">tiledarray_fwd.h</text>
</a>
</g>
</g>
<!-- Node25&#45;&gt;Node26 -->
<g id="edge29_Node000025_Node000026" class="edge">
<title>Node25&#45;&gt;Node26</title>
<g id="a_edge29_Node000025_Node000026"><a xlink:title=" ">
<path fill="none" stroke="#63b8ff" d="M673.28,-186.8C671.86,-177.7 670,-165.79 668.45,-155.9"/>
<polygon fill="#63b8ff" stroke="#63b8ff" points="671.88,-155.18 666.88,-145.84 664.97,-156.26 671.88,-155.18"/>
</a>
</g>
</g>
<!-- Node27&#45;&gt;Node3 -->
<g id="edge33_Node000027_Node000003" class="edge">
<title>Node27&#45;&gt;Node3</title>
<g id="a_edge33_Node000027_Node000003"><a xlink:title=" ">
<path fill="none" stroke="#63b8ff" d="M318.58,-192.44C270.24,-179.86 180.8,-156.59 134.68,-144.59"/>
<polygon fill="#63b8ff" stroke="#63b8ff" points="135.3,-141.14 124.74,-142 133.53,-147.91 135.3,-141.14"/>
</a>
</g>
</g>
<!-- Node27&#45;&gt;Node12 -->
<g id="edge34_Node000027_Node000012" class="edge">
<title>Node27&#45;&gt;Node12</title>
<g id="a_edge34_Node000027_Node000012"><a xlink:title=" ">
<path fill="none" stroke="#63b8ff" d="M368.76,-192.37C390.42,-181.54 427.79,-162.85 453.07,-150.22"/>
<polygon fill="#63b8ff" stroke="#63b8ff" points="454.72,-153.3 462.1,-145.7 451.59,-147.04 454.72,-153.3"/>
</a>
</g>
</g>
<!-- Node28 -->
<g id="Node000028" class="node">
<title>Node28</title>
<g id="a_Node000028"><a xlink:title=" ">
<polygon fill="#e0e0e0" stroke="#999999" points="432.5,-145.5 384.5,-145.5 384.5,-126.5 432.5,-126.5 432.5,-145.5"/>
<text text-anchor="middle" x="408.5" y="-133.5" font-family="FreeSans" font-size="10.00">iosfwd</text>
</a>
</g>
</g>
<!-- Node27&#45;&gt;Node28 -->
<g id="edge32_Node000027_Node000028" class="edge">
<title>Node27&#45;&gt;Node28</title>
<g id="a_edge32_Node000027_Node000028"><a xlink:title=" ">
<path fill="none" stroke="#63b8ff" d="M359.19,-192.37C367.98,-182.5 382.57,-166.11 393.61,-153.72"/>
<polygon fill="#63b8ff" stroke="#63b8ff" points="396.53,-155.7 400.57,-145.91 391.3,-151.05 396.53,-155.7"/>
</a>
</g>
</g>
<!-- Node29 -->
<g id="Node000029" class="node">
<title>Node29</title>
<g id="a_Node000029"><a xlink:href="scope.html" target="_top" xlink:title=" ">
<polygon fill="white" stroke="#666666" points="366.5,-151 260.5,-151 260.5,-121 366.5,-121 366.5,-151"/>
<text text-anchor="start" x="268.5" y="-139" font-family="FreeSans" font-size="10.00">mpqc/util/external</text>
<text text-anchor="middle" x="313.5" y="-128" font-family="FreeSans" font-size="10.00">/c++/scope</text>
</a>
</g>
</g>
<!-- Node27&#45;&gt;Node29 -->
<g id="edge35_Node000027_Node000029" class="edge">
<title>Node27&#45;&gt;Node29</title>
<g id="a_edge35_Node000027_Node000029"><a xlink:title=" ">
<path fill="none" stroke="#63b8ff" d="M346.38,-192.37C341.5,-184.16 333.95,-171.44 327.31,-160.26"/>
<polygon fill="#63b8ff" stroke="#63b8ff" points="330.14,-158.17 322.03,-151.36 324.12,-161.75 330.14,-158.17"/>
</a>
</g>
</g>
<!-- Node29&#45;&gt;Node17 -->
<g id="edge36_Node000029_Node000017" class="edge">
<title>Node29&#45;&gt;Node17</title>
<g id="a_edge36_Node000029_Node000017"><a xlink:title=" ">
<path fill="none" stroke="#63b8ff" d="M366.56,-122.83C369.58,-122.2 372.58,-121.58 375.5,-121 452.83,-105.61 542.31,-90.61 601.19,-81.12"/>
<polygon fill="#63b8ff" stroke="#63b8ff" points="601.78,-84.57 611.1,-79.52 600.67,-77.66 601.78,-84.57"/>
</a>
</g>
</g>
<!-- Node30 -->
<g id="Node000030" class="node">
<title>Node30</title>
<g id="a_Node000030"><a xlink:title=" ">
<polygon fill="#e0e0e0" stroke="#999999" points="336,-79.5 291,-79.5 291,-60.5 336,-60.5 336,-79.5"/>
<text text-anchor="middle" x="313.5" y="-67.5" font-family="FreeSans" font-size="10.00">utility</text>
</a>
</g>
</g>
<!-- Node29&#45;&gt;Node30 -->
<g id="edge37_Node000029_Node000030" class="edge">
<title>Node29&#45;&gt;Node30</title>
<g id="a_edge37_Node000029_Node000030"><a xlink:title=" ">
<path fill="none" stroke="#63b8ff" d="M313.5,-120.8C313.5,-111.7 313.5,-99.79 313.5,-89.9"/>
<polygon fill="#63b8ff" stroke="#63b8ff" points="317,-89.84 313.5,-79.84 310,-89.84 317,-89.84"/>
</a>
</g>
</g>
<!-- Node35 -->
<g id="Node000035" class="node">
<title>Node35</title>
<g id="a_Node000035"><a xlink:href="get__type_8h.html" target="_top" xlink:title=" ">
<polygon fill="white" stroke="#666666" points="2214.5,-217 2104.5,-217 2104.5,-187 2214.5,-187 2214.5,-217"/>
<text text-anchor="start" x="2112.5" y="-205" font-family="FreeSans" font-size="10.00">mpqc/util/meta/get</text>
<text text-anchor="middle" x="2159.5" y="-194" font-family="FreeSans" font-size="10.00">_type.h</text>
</a>
</g>
</g>
<!-- Node34&#45;&gt;Node35 -->
<g id="edge46_Node000034_Node000035" class="edge">
<title>Node34&#45;&gt;Node35</title>
<g id="a_edge46_Node000034_Node000035"><a xlink:title=" ">
<path fill="none" stroke="#63b8ff" d="M2169.02,-258.37C2167.65,-250.4 2165.55,-238.2 2163.67,-227.27"/>
<polygon fill="#63b8ff" stroke="#63b8ff" points="2167.11,-226.62 2161.97,-217.36 2160.21,-227.81 2167.11,-226.62"/>
</a>
</g>
</g>
<!-- Node36 -->
<g id="Node000036" class="node">
<title>Node36</title>
<g id="a_Node000036"><a xlink:href="type__traits_8h.html" target="_top" xlink:title=" ">
<polygon fill="white" stroke="#666666" points="2185.5,-145.5 2107.5,-145.5 2107.5,-126.5 2185.5,-126.5 2185.5,-145.5"/>
<text text-anchor="middle" x="2146.5" y="-133.5" font-family="FreeSans" font-size="10.00">type_traits.h</text>
</a>
</g>
</g>
<!-- Node35&#45;&gt;Node36 -->
<g id="edge47_Node000035_Node000036" class="edge">
<title>Node35&#45;&gt;Node36</title>
<g id="a_edge47_Node000035_Node000036"><a xlink:title=" ">
<path fill="none" stroke="#63b8ff" d="M2156.61,-186.8C2154.77,-177.7 2152.35,-165.79 2150.34,-155.9"/>
<polygon fill="#63b8ff" stroke="#63b8ff" points="2153.72,-154.95 2148.3,-145.84 2146.86,-156.34 2153.72,-154.95"/>
</a>
</g>
</g>
<!-- Node36&#45;&gt;Node6 -->
<g id="edge48_Node000036_Node000006" class="edge">
<title>Node36&#45;&gt;Node6</title>
<g id="a_edge48_Node000036_Node000006"><a xlink:title=" ">
<path fill="none" stroke="#63b8ff" d="M2165.79,-126.37C2190.2,-115.44 2232.47,-96.52 2260.71,-83.88"/>
<polygon fill="#63b8ff" stroke="#63b8ff" points="2262.37,-86.98 2270.06,-79.7 2259.51,-80.59 2262.37,-86.98"/>
</a>
</g>
</g>
<!-- Node37 -->
<g id="Node000037" class="node">
<title>Node37</title>
<g id="a_Node000037"><a xlink:title=" ">
<polygon fill="#e0e0e0" stroke="#999999" points="2105.5,-19 2055.5,-19 2055.5,0 2105.5,0 2105.5,-19"/>
<text text-anchor="middle" x="2080.5" y="-7" font-family="FreeSans" font-size="10.00">atomic</text>
</a>
</g>
</g>
<!-- Node36&#45;&gt;Node37 -->
<g id="edge49_Node000036_Node000037" class="edge">
<title>Node36&#45;&gt;Node37</title>
<g id="a_edge49_Node000036_Node000037"><a xlink:title=" ">
<path fill="none" stroke="#63b8ff" d="M2170.17,-126.4C2187.84,-118.57 2210.72,-105.14 2221.5,-85 2227.79,-73.24 2229.38,-65.75 2221.5,-55 2197.47,-22.21 2149.21,-12.96 2115.9,-10.67"/>
<polygon fill="#63b8ff" stroke="#63b8ff" points="2115.82,-7.17 2105.66,-10.16 2115.47,-14.16 2115.82,-7.17"/>
</a>
</g>
</g>
<!-- Node38 -->
<g id="Node000038" class="node">
<title>Node38</title>
<g id="a_Node000038"><a xlink:title=" ">
<polygon fill="#e0e0e0" stroke="#999999" points="2062,-79.5 1993,-79.5 1993,-60.5 2062,-60.5 2062,-79.5"/>
<text text-anchor="middle" x="2027.5" y="-67.5" font-family="FreeSans" font-size="10.00">type_traits</text>
</a>
</g>
</g>
<!-- Node36&#45;&gt;Node38 -->
<g id="edge50_Node000036_Node000038" class="edge">
<title>Node36&#45;&gt;Node38</title>
<g id="a_edge50_Node000036_Node000038"><a xlink:title=" ">
<path fill="none" stroke="#63b8ff" d="M2130.45,-126.37C2110.49,-115.63 2076.18,-97.18 2052.7,-84.55"/>
<polygon fill="#63b8ff" stroke="#63b8ff" points="2054.14,-81.35 2043.67,-79.7 2050.82,-87.52 2054.14,-81.35"/>
</a>
</g>
</g>
<!-- Node39 -->
<g id="Node000039" class="node">
<title>Node39</title>
<g id="a_Node000039"><a xlink:href="atomic_8h.html" target="_top" xlink:title=" ">
<polygon fill="white" stroke="#666666" points="1974.5,-85 1868.5,-85 1868.5,-55 1974.5,-55 1974.5,-85"/>
<text text-anchor="start" x="1876.5" y="-73" font-family="FreeSans" font-size="10.00">mpqc/util/external</text>
<text text-anchor="middle" x="1921.5" y="-62" font-family="FreeSans" font-size="10.00">/c++/atomic.h</text>
</a>
</g>
</g>
<!-- Node36&#45;&gt;Node39 -->
<g id="edge51_Node000036_Node000039" class="edge">
<title>Node36&#45;&gt;Node39</title>
<g id="a_edge51_Node000036_Node000039"><a xlink:title=" ">
<path fill="none" stroke="#63b8ff" d="M2116.16,-126.37C2081.58,-116.54 2024.26,-100.23 1980.74,-87.85"/>
<polygon fill="#63b8ff" stroke="#63b8ff" points="1981.7,-84.49 1971.13,-85.12 1979.79,-91.22 1981.7,-84.49"/>
</a>
</g>
</g>
<!-- Node40 -->
<g id="Node000040" class="node">
<title>Node40</title>
<g id="a_Node000040"><a xlink:href="sfinae_8h.html" target="_top" xlink:title=" ">
<polygon fill="white" stroke="#666666" points="2212.5,-79.5 2080.5,-79.5 2080.5,-60.5 2212.5,-60.5 2212.5,-79.5"/>
<text text-anchor="middle" x="2146.5" y="-67.5" font-family="FreeSans" font-size="10.00">mpqc/util/meta/sfinae.h</text>
</a>
</g>
</g>
<!-- Node36&#45;&gt;Node40 -->
<g id="edge53_Node000036_Node000040" class="edge">
<title>Node36&#45;&gt;Node40</title>
<g id="a_edge53_Node000036_Node000040"><a xlink:title=" ">
<path fill="none" stroke="#63b8ff" d="M2141.71,-126.37C2139.72,-117.07 2139.25,-101.98 2140.28,-89.9"/>
<polygon fill="#63b8ff" stroke="#63b8ff" points="2143.76,-90.29 2141.65,-79.91 2136.82,-89.34 2143.76,-90.29"/>
</a>
</g>
</g>
<!-- Node39&#45;&gt;Node37 -->
<g id="edge52_Node000039_Node000037" class="edge">
<title>Node39&#45;&gt;Node37</title>
<g id="a_edge52_Node000039_Node000037"><a xlink:title=" ">
<path fill="none" stroke="#63b8ff" d="M1959.58,-54.99C1986.35,-45.14 2021.8,-32.1 2047.39,-22.68"/>
<polygon fill="#63b8ff" stroke="#63b8ff" points="2048.84,-25.88 2057.02,-19.14 2046.43,-19.31 2048.84,-25.88"/>
</a>
</g>
</g>
<!-- Node40&#45;&gt;Node36 -->
<g id="edge54_Node000040_Node000036" class="edge">
<title>Node40&#45;&gt;Node36</title>
<g id="a_edge54_Node000040_Node000036"><a xlink:title=" ">
<path fill="none" stroke="#63b8ff" d="M2151.35,-79.91C2153.3,-89.32 2153.75,-104.43 2152.69,-116.45"/>
<polygon fill="#63b8ff" stroke="#63b8ff" points="2149.22,-115.98 2151.29,-126.37 2156.15,-116.96 2149.22,-115.98"/>
</a>
</g>
</g>
<!-- Node42 -->
<g id="Node000042" class="node">
<title>Node42</title>
<g id="a_Node000042"><a xlink:title=" ">
<polygon fill="#e0e0e0" stroke="#999999" points="2026.5,-217 1910.5,-217 1910.5,-187 2026.5,-187 2026.5,-217"/>
<text text-anchor="start" x="1918.5" y="-205" font-family="FreeSans" font-size="10.00">madness/world/type</text>
<text text-anchor="middle" x="1968.5" y="-194" font-family="FreeSans" font-size="10.00">_traits.h</text>
</a>
</g>
</g>
<!-- Node41&#45;&gt;Node42 -->
<g id="edge56_Node000041_Node000042" class="edge">
<title>Node41&#45;&gt;Node42</title>
<g id="a_edge56_Node000041_Node000042"><a xlink:title=" ">
<path fill="none" stroke="#63b8ff" d="M1968.5,-258.37C1968.5,-250.49 1968.5,-238.45 1968.5,-227.6"/>
<polygon fill="#63b8ff" stroke="#63b8ff" points="1972,-227.36 1968.5,-217.36 1965,-227.36 1972,-227.36"/>
</a>
</g>
</g>
</g>
</svg>
