<?xml version="1.0" encoding="UTF-8" standalone="no"?>
<!DOCTYPE svg PUBLIC "-//W3C//DTD SVG 1.1//EN"
 "http://www.w3.org/Graphics/SVG/1.1/DTD/svg11.dtd">
<!-- Generated by graphviz version 2.43.0 (0)
 -->
<!-- Title: mpqc/chemistry/qc/wfn/multistate.cpp Pages: 1 -->
<svg width="2744pt" height="478pt"
 viewBox="0.00 0.00 2744.00 478.00" xmlns="http://www.w3.org/2000/svg" xmlns:xlink="http://www.w3.org/1999/xlink">
<g id="graph0" class="graph" transform="scale(1 1) rotate(0) translate(4 474)">
<title>mpqc/chemistry/qc/wfn/multistate.cpp</title>
<!-- Node1 -->
<g id="Node000001" class="node">
<title>Node1</title>
<g id="a_Node000001"><a xlink:title=" ">
<polygon fill="#999999" stroke="#666666" points="2426.5,-470 2295.5,-470 2295.5,-440 2426.5,-440 2426.5,-470"/>
<text text-anchor="start" x="2303.5" y="-458" font-family="FreeSans" font-size="10.00">mpqc/chemistry/qc/wfn</text>
<text text-anchor="middle" x="2361" y="-447" font-family="FreeSans" font-size="10.00">/multistate.cpp</text>
</a>
</g>
</g>
<!-- Node2 -->
<g id="Node000002" class="node">
<title>Node2</title>
<g id="a_Node000002"><a xlink:href="multistate_8h.html" target="_top" xlink:title=" ">
<polygon fill="white" stroke="#666666" points="2473.5,-404 2342.5,-404 2342.5,-374 2473.5,-374 2473.5,-404"/>
<text text-anchor="start" x="2350.5" y="-392" font-family="FreeSans" font-size="10.00">mpqc/chemistry/qc/wfn</text>
<text text-anchor="middle" x="2408" y="-381" font-family="FreeSans" font-size="10.00">/multistate.h</text>
</a>
</g>
</g>
<!-- Node1&#45;&gt;Node2 -->
<g id="edge1_Node000001_Node000002" class="edge">
<title>Node1&#45;&gt;Node2</title>
<g id="a_edge1_Node000001_Node000002"><a xlink:title=" ">
<path fill="none" stroke="#63b8ff" d="M2371.43,-439.8C2377.33,-431.76 2384.85,-421.53 2391.53,-412.43"/>
<polygon fill="#63b8ff" stroke="#63b8ff" points="2394.5,-414.3 2397.6,-404.16 2388.86,-410.15 2394.5,-414.3"/>
</a>
</g>
</g>
<!-- Node44 -->
<g id="Node000044" class="node">
<title>Node44</title>
<g id="a_Node000044"><a xlink:href="exception_8h.html" target="_top" xlink:title=" ">
<polygon fill="white" stroke="#666666" points="2387,-338 2241,-338 2241,-319 2387,-319 2387,-338"/>
<text text-anchor="middle" x="2314" y="-326" font-family="FreeSans" font-size="10.00">mpqc/util/core/exception.h</text>
</a>
</g>
</g>
<!-- Node1&#45;&gt;Node44 -->
<g id="edge58_Node000001_Node000044" class="edge">
<title>Node1&#45;&gt;Node44</title>
<g id="a_edge58_Node000001_Node000044"><a xlink:title=" ">
<path fill="none" stroke="#63b8ff" d="M2352.29,-439.99C2346.49,-430.19 2339.03,-416.65 2334,-404 2326.67,-385.58 2321.13,-363.54 2317.76,-348.24"/>
<polygon fill="#63b8ff" stroke="#63b8ff" points="2321.18,-347.5 2315.69,-338.43 2314.33,-348.94 2321.18,-347.5"/>
</a>
</g>
</g>
<!-- Node3 -->
<g id="Node000003" class="node">
<title>Node3</title>
<g id="a_Node000003"><a xlink:href="chemistry_2qc_2wfn_2fwd_8h.html" target="_top" xlink:title=" ">
<polygon fill="white" stroke="#666666" points="2551.5,-283 2420.5,-283 2420.5,-253 2551.5,-253 2551.5,-283"/>
<text text-anchor="start" x="2428.5" y="-271" font-family="FreeSans" font-size="10.00">mpqc/chemistry/qc/wfn</text>
<text text-anchor="middle" x="2486" y="-260" font-family="FreeSans" font-size="10.00">/fwd.h</text>
</a>
</g>
</g>
<!-- Node2&#45;&gt;Node3 -->
<g id="edge2_Node000002_Node000003" class="edge">
<title>Node2&#45;&gt;Node3</title>
<g id="a_edge2_Node000002_Node000003"><a xlink:title=" ">
<path fill="none" stroke="#63b8ff" d="M2417.25,-373.88C2430.57,-353.57 2455.26,-315.9 2471.14,-291.67"/>
<polygon fill="#63b8ff" stroke="#63b8ff" points="2474.2,-293.38 2476.76,-283.1 2468.35,-289.54 2474.2,-293.38"/>
</a>
</g>
</g>
<!-- Node6 -->
<g id="Node000006" class="node">
<title>Node6</title>
<g id="a_Node000006"><a xlink:href="src_2mpqc_2util_2keyval_2keyval_8h.html" target="_top" xlink:title=" ">
<polygon fill="white" stroke="#666666" points="1365,-338 1223,-338 1223,-319 1365,-319 1365,-338"/>
<text text-anchor="middle" x="1294" y="-326" font-family="FreeSans" font-size="10.00">mpqc/util/keyval/keyval.h</text>
</a>
</g>
</g>
<!-- Node2&#45;&gt;Node6 -->
<g id="edge5_Node000002_Node000006" class="edge">
<title>Node2&#45;&gt;Node6</title>
<g id="a_edge5_Node000002_Node000006"><a xlink:title=" ">
<path fill="none" stroke="#63b8ff" d="M2342.47,-384.56C2149.97,-374.45 1586.48,-344.86 1375.23,-333.77"/>
<polygon fill="#63b8ff" stroke="#63b8ff" points="1375.31,-330.27 1365.14,-333.24 1374.94,-337.26 1375.31,-330.27"/>
</a>
</g>
</g>
<!-- Node4 -->
<g id="Node000004" class="node">
<title>Node4</title>
<g id="a_Node000004"><a xlink:title=" ">
<polygon fill="#e0e0e0" stroke="#999999" points="2011,-145.5 1973,-145.5 1973,-126.5 2011,-126.5 2011,-145.5"/>
<text text-anchor="middle" x="1992" y="-133.5" font-family="FreeSans" font-size="10.00">map</text>
</a>
</g>
</g>
<!-- Node3&#45;&gt;Node4 -->
<g id="edge3_Node000003_Node000004" class="edge">
<title>Node3&#45;&gt;Node4</title>
<g id="a_edge3_Node000003_Node000004"><a xlink:title=" ">
<path fill="none" stroke="#63b8ff" d="M2476.55,-252.88C2463.24,-234.26 2437.09,-202.12 2406,-187 2337.86,-153.85 2104.36,-141.48 2021.47,-138.07"/>
<polygon fill="#63b8ff" stroke="#63b8ff" points="2021.6,-134.58 2011.47,-137.68 2021.32,-141.57 2021.6,-134.58"/>
</a>
</g>
</g>
<!-- Node5 -->
<g id="Node000005" class="node">
<title>Node5</title>
<g id="a_Node000005"><a xlink:title=" ">
<polygon fill="#e0e0e0" stroke="#999999" points="2313,-211.5 2269,-211.5 2269,-192.5 2313,-192.5 2313,-211.5"/>
<text text-anchor="middle" x="2291" y="-199.5" font-family="FreeSans" font-size="10.00">string</text>
</a>
</g>
</g>
<!-- Node3&#45;&gt;Node5 -->
<g id="edge4_Node000003_Node000005" class="edge">
<title>Node3&#45;&gt;Node5</title>
<g id="a_edge4_Node000003_Node000005"><a xlink:title=" ">
<path fill="none" stroke="#63b8ff" d="M2443.21,-252.95C2406.83,-241.02 2355.44,-224.15 2322.67,-213.39"/>
<polygon fill="#63b8ff" stroke="#63b8ff" points="2323.73,-210.06 2313.13,-210.26 2321.54,-216.71 2323.73,-210.06"/>
</a>
</g>
</g>
<!-- Node6&#45;&gt;Node4 -->
<g id="edge12_Node000006_Node000004" class="edge">
<title>Node6&#45;&gt;Node4</title>
<g id="a_edge12_Node000006_Node000004"><a xlink:title=" ">
<path fill="none" stroke="#63b8ff" d="M1365.16,-327.84C1530.41,-327.94 1929.41,-323.89 1973,-283 2008.03,-250.14 2001.87,-186.85 1996.12,-155.51"/>
<polygon fill="#63b8ff" stroke="#63b8ff" points="1999.51,-154.63 1994.09,-145.53 1992.65,-156.02 1999.51,-154.63"/>
</a>
</g>
</g>
<!-- Node6&#45;&gt;Node5 -->
<g id="edge17_Node000006_Node000005" class="edge">
<title>Node6&#45;&gt;Node5</title>
<g id="a_edge17_Node000006_Node000005"><a xlink:title=" ">
<path fill="none" stroke="#63b8ff" d="M1365.25,-327.89C1527.05,-328.04 1917.76,-323.99 2042,-283 2065.18,-275.35 2065.61,-262.72 2088,-253 2145.58,-228 2218.01,-213.96 2258.94,-207.48"/>
<polygon fill="#63b8ff" stroke="#63b8ff" points="2259.53,-210.93 2268.89,-205.96 2258.47,-204.01 2259.53,-210.93"/>
</a>
</g>
</g>
<!-- Node7 -->
<g id="Node000007" class="node">
<title>Node7</title>
<g id="a_Node000007"><a xlink:title=" ">
<polygon fill="#e0e0e0" stroke="#999999" points="2471,-79.5 2429,-79.5 2429,-60.5 2471,-60.5 2471,-79.5"/>
<text text-anchor="middle" x="2450" y="-67.5" font-family="FreeSans" font-size="10.00">array</text>
</a>
</g>
</g>
<!-- Node6&#45;&gt;Node7 -->
<g id="edge6_Node000006_Node000007" class="edge">
<title>Node6&#45;&gt;Node7</title>
<g id="a_edge6_Node000006_Node000007"><a xlink:title=" ">
<path fill="none" stroke="#63b8ff" d="M1365.36,-327.7C1626.79,-328.09 2519.27,-326.22 2561,-283 2619.96,-221.93 2514.09,-123.29 2468.95,-85.96"/>
<polygon fill="#63b8ff" stroke="#63b8ff" points="2471,-83.12 2461.04,-79.53 2466.59,-88.55 2471,-83.12"/>
</a>
</g>
</g>
<!-- Node8 -->
<g id="Node000008" class="node">
<title>Node8</title>
<g id="a_Node000008"><a xlink:title=" ">
<polygon fill="#e0e0e0" stroke="#999999" points="1886,-277.5 1834,-277.5 1834,-258.5 1886,-258.5 1886,-277.5"/>
<text text-anchor="middle" x="1860" y="-265.5" font-family="FreeSans" font-size="10.00">cassert</text>
</a>
</g>
</g>
<!-- Node6&#45;&gt;Node8 -->
<g id="edge7_Node000006_Node000008" class="edge">
<title>Node6&#45;&gt;Node8</title>
<g id="a_edge7_Node000006_Node000008"><a xlink:title=" ">
<path fill="none" stroke="#63b8ff" d="M1365.05,-328.18C1467.9,-327.68 1663.62,-321.14 1825,-283 1827.31,-282.45 1829.67,-281.78 1832.02,-281.03"/>
<polygon fill="#63b8ff" stroke="#63b8ff" points="1833.24,-284.31 1841.44,-277.61 1830.85,-277.73 1833.24,-284.31"/>
</a>
</g>
</g>
<!-- Node9 -->
<g id="Node000009" class="node">
<title>Node9</title>
<g id="a_Node000009"><a xlink:title=" ">
<polygon fill="#e0e0e0" stroke="#999999" points="1963.5,-277.5 1904.5,-277.5 1904.5,-258.5 1963.5,-258.5 1963.5,-277.5"/>
<text text-anchor="middle" x="1934" y="-265.5" font-family="FreeSans" font-size="10.00">complex</text>
</a>
</g>
</g>
<!-- Node6&#45;&gt;Node9 -->
<g id="edge8_Node000006_Node000009" class="edge">
<title>Node6&#45;&gt;Node9</title>
<g id="a_edge8_Node000006_Node000009"><a xlink:title=" ">
<path fill="none" stroke="#63b8ff" d="M1365.19,-328.41C1478.6,-328.49 1706.69,-322.99 1895,-283 1897.84,-282.4 1900.75,-281.64 1903.64,-280.78"/>
<polygon fill="#63b8ff" stroke="#63b8ff" points="1904.85,-284.07 1913.25,-277.62 1902.66,-277.42 1904.85,-284.07"/>
</a>
</g>
</g>
<!-- Node10 -->
<g id="Node000010" class="node">
<title>Node10</title>
<g id="a_Node000010"><a xlink:title=" ">
<polygon fill="#e0e0e0" stroke="#999999" points="1205,-211.5 1145,-211.5 1145,-192.5 1205,-192.5 1205,-211.5"/>
<text text-anchor="middle" x="1175" y="-199.5" font-family="FreeSans" font-size="10.00">iostream</text>
</a>
</g>
</g>
<!-- Node6&#45;&gt;Node10 -->
<g id="edge9_Node000006_Node000010" class="edge">
<title>Node6&#45;&gt;Node10</title>
<g id="a_edge9_Node000006_Node000010"><a xlink:title=" ">
<path fill="none" stroke="#63b8ff" d="M1293.88,-318.66C1293.22,-303.56 1289.88,-272.53 1274,-253 1258.9,-234.43 1235.12,-222.1 1214.65,-214.34"/>
<polygon fill="#63b8ff" stroke="#63b8ff" points="1215.82,-211.04 1205.22,-210.98 1213.47,-217.63 1215.82,-211.04"/>
</a>
</g>
</g>
<!-- Node11 -->
<g id="Node000011" class="node">
<title>Node11</title>
<g id="a_Node000011"><a xlink:title=" ">
<polygon fill="#e0e0e0" stroke="#999999" points="32,-277.5 0,-277.5 0,-258.5 32,-258.5 32,-277.5"/>
<text text-anchor="middle" x="16" y="-265.5" font-family="FreeSans" font-size="10.00">list</text>
</a>
</g>
</g>
<!-- Node6&#45;&gt;Node11 -->
<g id="edge10_Node000006_Node000011" class="edge">
<title>Node6&#45;&gt;Node11</title>
<g id="a_edge10_Node000006_Node000011"><a xlink:title=" ">
<path fill="none" stroke="#63b8ff" d="M1222.68,-326.93C974.06,-324.65 154.58,-314.8 41,-283 39.92,-282.7 38.84,-282.34 37.76,-281.94"/>
<polygon fill="#63b8ff" stroke="#63b8ff" points="39,-278.65 28.46,-277.5 35.98,-284.97 39,-278.65"/>
</a>
</g>
</g>
<!-- Node12 -->
<g id="Node000012" class="node">
<title>Node12</title>
<g id="a_Node000012"><a xlink:title=" ">
<polygon fill="#e0e0e0" stroke="#999999" points="96,-277.5 50,-277.5 50,-258.5 96,-258.5 96,-277.5"/>
<text text-anchor="middle" x="73" y="-265.5" font-family="FreeSans" font-size="10.00">locale</text>
</a>
</g>
</g>
<!-- Node6&#45;&gt;Node12 -->
<g id="edge11_Node000006_Node000012" class="edge">
<title>Node6&#45;&gt;Node12</title>
<g id="a_edge11_Node000006_Node000012"><a xlink:title=" ">
<path fill="none" stroke="#63b8ff" d="M1222.79,-327.83C1000.99,-328.4 324.59,-326.42 110,-283 107.32,-282.46 104.57,-281.74 101.85,-280.93"/>
<polygon fill="#63b8ff" stroke="#63b8ff" points="102.83,-277.56 92.24,-277.63 100.56,-284.18 102.83,-277.56"/>
</a>
</g>
</g>
<!-- Node13 -->
<g id="Node000013" class="node">
<title>Node13</title>
<g id="a_Node000013"><a xlink:href="memory.html" target="_top" xlink:title=" ">
<polygon fill="white" stroke="#666666" points="1256,-145.5 1198,-145.5 1198,-126.5 1256,-126.5 1256,-145.5"/>
<text text-anchor="middle" x="1227" y="-133.5" font-family="FreeSans" font-size="10.00">memory</text>
</a>
</g>
</g>
<!-- Node6&#45;&gt;Node13 -->
<g id="edge13_Node000006_Node000013" class="edge">
<title>Node6&#45;&gt;Node13</title>
<g id="a_edge13_Node000006_Node000013"><a xlink:title=" ">
<path fill="none" stroke="#63b8ff" d="M1365.02,-320.72C1420.05,-312.26 1483.04,-293.59 1458,-253 1415.95,-184.82 1320.23,-155.33 1266.13,-143.71"/>
<polygon fill="#63b8ff" stroke="#63b8ff" points="1266.72,-140.26 1256.22,-141.68 1265.31,-147.12 1266.72,-140.26"/>
</a>
</g>
</g>
<!-- Node14 -->
<g id="Node000014" class="node">
<title>Node14</title>
<g id="a_Node000014"><a xlink:title=" ">
<polygon fill="#e0e0e0" stroke="#999999" points="239,-211.5 183,-211.5 183,-192.5 239,-192.5 239,-211.5"/>
<text text-anchor="middle" x="211" y="-199.5" font-family="FreeSans" font-size="10.00">optional</text>
</a>
</g>
</g>
<!-- Node6&#45;&gt;Node14 -->
<g id="edge15_Node000006_Node000014" class="edge">
<title>Node6&#45;&gt;Node14</title>
<g id="a_edge15_Node000006_Node000014"><a xlink:title=" ">
<path fill="none" stroke="#63b8ff" d="M1222.79,-327.33C982.89,-326.43 217.13,-320.61 181,-283 164.04,-265.35 181.41,-237.22 195.89,-219.45"/>
<polygon fill="#63b8ff" stroke="#63b8ff" points="198.74,-221.51 202.61,-211.65 193.43,-216.94 198.74,-221.51"/>
</a>
</g>
</g>
<!-- Node15 -->
<g id="Node000015" class="node">
<title>Node15</title>
<g id="a_Node000015"><a xlink:title=" ">
<polygon fill="#e0e0e0" stroke="#999999" points="2161.5,-277.5 2096.5,-277.5 2096.5,-258.5 2161.5,-258.5 2161.5,-277.5"/>
<text text-anchor="middle" x="2129" y="-265.5" font-family="FreeSans" font-size="10.00">stdexcept</text>
</a>
</g>
</g>
<!-- Node6&#45;&gt;Node15 -->
<g id="edge16_Node000006_Node000015" class="edge">
<title>Node6&#45;&gt;Node15</title>
<g id="a_edge16_Node000006_Node000015"><a xlink:title=" ">
<path fill="none" stroke="#63b8ff" d="M1365.26,-325.6C1532.33,-320.81 1945.42,-306.86 2082,-283 2086.15,-282.27 2090.45,-281.31 2094.7,-280.22"/>
<polygon fill="#63b8ff" stroke="#63b8ff" points="2095.69,-283.57 2104.38,-277.51 2093.81,-276.83 2095.69,-283.57"/>
</a>
</g>
</g>
<!-- Node16 -->
<g id="Node000016" class="node">
<title>Node16</title>
<g id="a_Node000016"><a xlink:title=" ">
<polygon fill="#e0e0e0" stroke="#999999" points="2140.5,-211.5 2093.5,-211.5 2093.5,-192.5 2140.5,-192.5 2140.5,-211.5"/>
<text text-anchor="middle" x="2117" y="-199.5" font-family="FreeSans" font-size="10.00">vector</text>
</a>
</g>
</g>
<!-- Node6&#45;&gt;Node16 -->
<g id="edge18_Node000006_Node000016" class="edge">
<title>Node6&#45;&gt;Node16</title>
<g id="a_edge18_Node000006_Node000016"><a xlink:title=" ">
<path fill="none" stroke="#63b8ff" d="M1365.15,-328.03C1521.33,-328.4 1889.53,-324.65 2006,-283 2026.1,-275.81 2072.67,-239.3 2098.65,-218.17"/>
<polygon fill="#63b8ff" stroke="#63b8ff" points="2101.08,-220.7 2106.6,-211.66 2096.65,-215.29 2101.08,-220.7"/>
</a>
</g>
</g>
<!-- Node17 -->
<g id="Node000017" class="node">
<title>Node17</title>
<g id="a_Node000017"><a xlink:title=" ">
<polygon fill="#e0e0e0" stroke="#999999" points="330,-277.5 190,-277.5 190,-258.5 330,-258.5 330,-277.5"/>
<text text-anchor="middle" x="260" y="-265.5" font-family="FreeSans" font-size="10.00">boost/core/demangle.hpp</text>
</a>
</g>
</g>
<!-- Node6&#45;&gt;Node17 -->
<g id="edge19_Node000006_Node000017" class="edge">
<title>Node6&#45;&gt;Node17</title>
<g id="a_edge19_Node000006_Node000017"><a xlink:title=" ">
<path fill="none" stroke="#63b8ff" d="M1222.77,-327.31C1063.74,-326.2 667.88,-319.65 339,-283 330.44,-282.05 321.41,-280.74 312.64,-279.3"/>
<polygon fill="#63b8ff" stroke="#63b8ff" points="312.94,-275.8 302.49,-277.57 311.76,-282.7 312.94,-275.8"/>
</a>
</g>
</g>
<!-- Node18 -->
<g id="Node000018" class="node">
<title>Node18</title>
<g id="a_Node000018"><a xlink:title=" ">
<polygon fill="#e0e0e0" stroke="#999999" points="359.5,-79.5 242.5,-79.5 242.5,-60.5 359.5,-60.5 359.5,-79.5"/>
<text text-anchor="middle" x="301" y="-67.5" font-family="FreeSans" font-size="10.00">mpqc/mpqc_config.h</text>
</a>
</g>
</g>
<!-- Node6&#45;&gt;Node18 -->
<g id="edge20_Node000006_Node000018" class="edge">
<title>Node6&#45;&gt;Node18</title>
<g id="a_edge20_Node000006_Node000018"><a xlink:title=" ">
<path fill="none" stroke="#63b8ff" d="M1222.99,-327.36C981.89,-326.55 207.51,-320.98 171,-283 162.24,-273.88 159.31,-218.36 174,-187 195.92,-140.19 246.26,-103.65 276.57,-84.89"/>
<polygon fill="#63b8ff" stroke="#63b8ff" points="278.51,-87.8 285.27,-79.65 274.9,-81.81 278.51,-87.8"/>
</a>
</g>
</g>
<!-- Node19 -->
<g id="Node000019" class="node">
<title>Node19</title>
<g id="a_Node000019"><a xlink:title=" ">
<polygon fill="#e0e0e0" stroke="#999999" points="616,-283 494,-283 494,-253 616,-253 616,-283"/>
<text text-anchor="start" x="502" y="-271" font-family="FreeSans" font-size="10.00">boost/container/small</text>
<text text-anchor="middle" x="555" y="-260" font-family="FreeSans" font-size="10.00">_vector.hpp</text>
</a>
</g>
</g>
<!-- Node6&#45;&gt;Node19 -->
<g id="edge21_Node000006_Node000019" class="edge">
<title>Node6&#45;&gt;Node19</title>
<g id="a_edge21_Node000006_Node000019"><a xlink:title=" ">
<path fill="none" stroke="#63b8ff" d="M1222.9,-325.83C1102.15,-322.31 849.2,-312.05 625.94,-283"/>
<polygon fill="#63b8ff" stroke="#63b8ff" points="626.38,-279.53 616,-281.69 625.46,-286.47 626.38,-279.53"/>
</a>
</g>
</g>
<!-- Node20 -->
<g id="Node000020" class="node">
<title>Node20</title>
<g id="a_Node000020"><a xlink:title=" ">
<polygon fill="#e0e0e0" stroke="#999999" points="747.5,-283 634.5,-283 634.5,-253 747.5,-253 747.5,-283"/>
<text text-anchor="start" x="642.5" y="-271" font-family="FreeSans" font-size="10.00">boost/property_tree</text>
<text text-anchor="middle" x="691" y="-260" font-family="FreeSans" font-size="10.00">/info_parser.hpp</text>
</a>
</g>
</g>
<!-- Node6&#45;&gt;Node20 -->
<g id="edge22_Node000006_Node000020" class="edge">
<title>Node6&#45;&gt;Node20</title>
<g id="a_edge22_Node000006_Node000020"><a xlink:title=" ">
<path fill="none" stroke="#63b8ff" d="M1222.73,-324.55C1121.38,-319.7 929.65,-308.11 757.64,-283.12"/>
<polygon fill="#63b8ff" stroke="#63b8ff" points="758.04,-279.64 747.64,-281.65 757.03,-286.57 758.04,-279.64"/>
</a>
</g>
</g>
<!-- Node21 -->
<g id="Node000021" class="node">
<title>Node21</title>
<g id="a_Node000021"><a xlink:title=" ">
<polygon fill="#e0e0e0" stroke="#999999" points="878.5,-283 765.5,-283 765.5,-253 878.5,-253 878.5,-283"/>
<text text-anchor="start" x="773.5" y="-271" font-family="FreeSans" font-size="10.00">boost/property_tree</text>
<text text-anchor="middle" x="822" y="-260" font-family="FreeSans" font-size="10.00">/json_parser.hpp</text>
</a>
</g>
</g>
<!-- Node6&#45;&gt;Node21 -->
<g id="edge23_Node000006_Node000021" class="edge">
<title>Node6&#45;&gt;Node21</title>
<g id="a_edge23_Node000006_Node000021"><a xlink:title=" ">
<path fill="none" stroke="#63b8ff" d="M1222.75,-321.95C1143.41,-315.27 1011.2,-302.63 888.59,-283.16"/>
<polygon fill="#63b8ff" stroke="#63b8ff" points="889.08,-279.69 878.66,-281.56 887.97,-286.61 889.08,-279.69"/>
</a>
</g>
</g>
<!-- Node22 -->
<g id="Node000022" class="node">
<title>Node22</title>
<g id="a_Node000022"><a xlink:title=" ">
<polygon fill="#e0e0e0" stroke="#999999" points="1009.5,-283 896.5,-283 896.5,-253 1009.5,-253 1009.5,-283"/>
<text text-anchor="start" x="904.5" y="-271" font-family="FreeSans" font-size="10.00">boost/property_tree</text>
<text text-anchor="middle" x="953" y="-260" font-family="FreeSans" font-size="10.00">/ptree.hpp</text>
</a>
</g>
</g>
<!-- Node6&#45;&gt;Node22 -->
<g id="edge24_Node000006_Node000022" class="edge">
<title>Node6&#45;&gt;Node22</title>
<g id="a_edge24_Node000006_Node000022"><a xlink:title=" ">
<path fill="none" stroke="#63b8ff" d="M1235.43,-318.96C1181.75,-310.94 1099.83,-298.17 1019.92,-283.31"/>
<polygon fill="#63b8ff" stroke="#63b8ff" points="1020.16,-279.79 1009.68,-281.39 1018.87,-286.67 1020.16,-279.79"/>
</a>
</g>
</g>
<!-- Node23 -->
<g id="Node000023" class="node">
<title>Node23</title>
<g id="a_Node000023"><a xlink:title=" ">
<polygon fill="#e0e0e0" stroke="#999999" points="1140.5,-283 1027.5,-283 1027.5,-253 1140.5,-253 1140.5,-283"/>
<text text-anchor="start" x="1035.5" y="-271" font-family="FreeSans" font-size="10.00">boost/property_tree</text>
<text text-anchor="middle" x="1084" y="-260" font-family="FreeSans" font-size="10.00">/xml_parser.hpp</text>
</a>
</g>
</g>
<!-- Node6&#45;&gt;Node23 -->
<g id="edge25_Node000006_Node000023" class="edge">
<title>Node6&#45;&gt;Node23</title>
<g id="a_edge25_Node000006_Node000023"><a xlink:title=" ">
<path fill="none" stroke="#63b8ff" d="M1263.46,-318.99C1232.32,-310.32 1183.16,-296.62 1144.17,-285.76"/>
<polygon fill="#63b8ff" stroke="#63b8ff" points="1145.06,-282.38 1134.49,-283.06 1143.18,-289.12 1145.06,-282.38"/>
</a>
</g>
</g>
<!-- Node24 -->
<g id="Node000024" class="node">
<title>Node24</title>
<g id="a_Node000024"><a xlink:title=" ">
<polygon fill="#e0e0e0" stroke="#999999" points="1265.5,-283 1158.5,-283 1158.5,-253 1265.5,-253 1265.5,-283"/>
<text text-anchor="start" x="1166.5" y="-271" font-family="FreeSans" font-size="10.00">boost/serialization</text>
<text text-anchor="middle" x="1212" y="-260" font-family="FreeSans" font-size="10.00">/export.hpp</text>
</a>
</g>
</g>
<!-- Node6&#45;&gt;Node24 -->
<g id="edge26_Node000006_Node000024" class="edge">
<title>Node6&#45;&gt;Node24</title>
<g id="a_edge26_Node000006_Node000024"><a xlink:title=" ">
<path fill="none" stroke="#63b8ff" d="M1281.9,-318.87C1270.98,-311.08 1254.49,-299.32 1240.28,-289.17"/>
<polygon fill="#63b8ff" stroke="#63b8ff" points="1241.96,-286.07 1231.78,-283.11 1237.89,-291.77 1241.96,-286.07"/>
</a>
</g>
</g>
<!-- Node25 -->
<g id="Node000025" class="node">
<title>Node25</title>
<g id="a_Node000025"><a xlink:href="exenv_8h.html" target="_top" xlink:title=" ">
<polygon fill="white" stroke="#666666" points="475.5,-277.5 348.5,-277.5 348.5,-258.5 475.5,-258.5 475.5,-277.5"/>
<text text-anchor="middle" x="412" y="-265.5" font-family="FreeSans" font-size="10.00">mpqc/util/core/exenv.h</text>
</a>
</g>
</g>
<!-- Node6&#45;&gt;Node25 -->
<g id="edge27_Node000006_Node000025" class="edge">
<title>Node6&#45;&gt;Node25</title>
<g id="a_edge27_Node000006_Node000025"><a xlink:title=" ">
<path fill="none" stroke="#63b8ff" d="M1222.84,-326.8C1081.62,-324.69 756.2,-316.31 485,-283 477.25,-282.05 469.1,-280.77 461.15,-279.36"/>
<polygon fill="#63b8ff" stroke="#63b8ff" points="461.72,-275.91 451.25,-277.53 460.45,-282.79 461.72,-275.91"/>
</a>
</g>
</g>
<!-- Node34 -->
<g id="Node000034" class="node">
<title>Node34</title>
<g id="a_Node000034"><a xlink:href="util_2keyval_2fwd_8h.html" target="_top" xlink:title=" ">
<polygon fill="white" stroke="#666666" points="1449.5,-277.5 1322.5,-277.5 1322.5,-258.5 1449.5,-258.5 1449.5,-277.5"/>
<text text-anchor="middle" x="1386" y="-265.5" font-family="FreeSans" font-size="10.00">mpqc/util/keyval/fwd.h</text>
</a>
</g>
</g>
<!-- Node6&#45;&gt;Node34 -->
<g id="edge45_Node000006_Node000034" class="edge">
<title>Node6&#45;&gt;Node34</title>
<g id="a_edge45_Node000006_Node000034"><a xlink:title=" ">
<path fill="none" stroke="#63b8ff" d="M1307.57,-318.87C1322.39,-309.45 1346.33,-294.23 1363.86,-283.08"/>
<polygon fill="#63b8ff" stroke="#63b8ff" points="1365.81,-285.99 1372.37,-277.67 1362.05,-280.08 1365.81,-285.99"/>
</a>
</g>
</g>
<!-- Node35 -->
<g id="Node000035" class="node">
<title>Node35</title>
<g id="a_Node000035"><a xlink:href="predicates_8h.html" target="_top" xlink:title=" ">
<polygon fill="white" stroke="#666666" points="1816,-277.5 1662,-277.5 1662,-258.5 1816,-258.5 1816,-277.5"/>
<text text-anchor="middle" x="1739" y="-265.5" font-family="FreeSans" font-size="10.00">mpqc/util/meta/predicates.h</text>
</a>
</g>
</g>
<!-- Node6&#45;&gt;Node35 -->
<g id="edge46_Node000006_Node000035" class="edge">
<title>Node6&#45;&gt;Node35</title>
<g id="a_edge46_Node000006_Node000035"><a xlink:title=" ">
<path fill="none" stroke="#63b8ff" d="M1365.08,-319.43C1437.39,-311.03 1552.64,-297.17 1652,-283 1660.38,-281.81 1669.21,-280.47 1677.89,-279.12"/>
<polygon fill="#63b8ff" stroke="#63b8ff" points="1678.65,-282.54 1687.98,-277.52 1677.56,-275.63 1678.65,-282.54"/>
</a>
</g>
</g>
<!-- Node42 -->
<g id="Node000042" class="node">
<title>Node42</title>
<g id="a_Node000042"><a xlink:href="stream_8h.html" target="_top" xlink:title=" ">
<polygon fill="white" stroke="#666666" points="1643.5,-277.5 1506.5,-277.5 1506.5,-258.5 1643.5,-258.5 1643.5,-277.5"/>
<text text-anchor="middle" x="1575" y="-265.5" font-family="FreeSans" font-size="10.00">mpqc/util/meta/stream.h</text>
</a>
</g>
</g>
<!-- Node6&#45;&gt;Node42 -->
<g id="edge56_Node000006_Node000042" class="edge">
<title>Node6&#45;&gt;Node42</title>
<g id="a_edge56_Node000006_Node000042"><a xlink:title=" ">
<path fill="none" stroke="#63b8ff" d="M1334.86,-318.99C1384.91,-308.57 1469.72,-290.92 1523.99,-279.62"/>
<polygon fill="#63b8ff" stroke="#63b8ff" points="1525.01,-282.98 1534.09,-277.52 1523.59,-276.13 1525.01,-282.98"/>
</a>
</g>
</g>
<!-- Node13&#45;&gt;Node13 -->
<g id="edge14_Node000013_Node000013" class="edge">
<title>Node13&#45;&gt;Node13</title>
<g id="a_edge14_Node000013_Node000013"><a xlink:title=" ">
<path fill="none" stroke="#63b8ff" d="M1241.92,-145.66C1257.1,-151.34 1274,-148.12 1274,-136 1274,-126.53 1263.69,-122.5 1251.93,-123.89"/>
<polygon fill="#63b8ff" stroke="#63b8ff" points="1250.8,-120.57 1241.92,-126.34 1252.46,-127.37 1250.8,-120.57"/>
</a>
</g>
</g>
<!-- Node25&#45;&gt;Node10 -->
<g id="edge40_Node000025_Node000010" class="edge">
<title>Node25&#45;&gt;Node10</title>
<g id="a_edge40_Node000025_Node000010"><a xlink:title=" ">
<path fill="none" stroke="#63b8ff" d="M452.02,-258.43C462.7,-256.39 474.25,-254.4 485,-253 712.96,-223.3 771.75,-234.22 1001,-217 1046.74,-213.56 1099.21,-209.3 1134.47,-206.38"/>
<polygon fill="#63b8ff" stroke="#63b8ff" points="1135.15,-209.84 1144.83,-205.53 1134.58,-202.86 1135.15,-209.84"/>
</a>
</g>
</g>
<!-- Node25&#45;&gt;Node13 -->
<g id="edge41_Node000025_Node000013" class="edge">
<title>Node25&#45;&gt;Node13</title>
<g id="a_edge41_Node000025_Node000013"><a xlink:title=" ">
<path fill="none" stroke="#63b8ff" d="M454.79,-258.47C464.7,-256.59 475.2,-254.66 485,-253 593.08,-234.67 620.66,-233.69 729,-217 899.97,-190.66 1103.63,-157.33 1187.71,-143.49"/>
<polygon fill="#63b8ff" stroke="#63b8ff" points="1188.53,-146.9 1197.83,-141.82 1187.4,-139.99 1188.53,-146.9"/>
</a>
</g>
</g>
<!-- Node25&#45;&gt;Node14 -->
<g id="edge42_Node000025_Node000014" class="edge">
<title>Node25&#45;&gt;Node14</title>
<g id="a_edge42_Node000025_Node000014"><a xlink:title=" ">
<path fill="none" stroke="#63b8ff" d="M384.89,-258.37C349.43,-247.08 287.16,-227.25 247.55,-214.64"/>
<polygon fill="#63b8ff" stroke="#63b8ff" points="248.59,-211.3 238,-211.6 246.47,-217.97 248.59,-211.3"/>
</a>
</g>
</g>
<!-- Node25&#45;&gt;Node16 -->
<g id="edge44_Node000025_Node000016" class="edge">
<title>Node25&#45;&gt;Node16</title>
<g id="a_edge44_Node000025_Node000016"><a xlink:title=" ">
<path fill="none" stroke="#63b8ff" d="M450.09,-258.48C461.28,-256.31 473.58,-254.24 485,-253 1087.02,-187.76 1241.92,-240.68 1847,-217 1931.95,-213.68 2031.84,-208.05 2083.01,-205.04"/>
<polygon fill="#63b8ff" stroke="#63b8ff" points="2083.4,-208.52 2093.17,-204.44 2082.98,-201.54 2083.4,-208.52"/>
</a>
</g>
</g>
<!-- Node25&#45;&gt;Node18 -->
<g id="edge31_Node000025_Node000018" class="edge">
<title>Node25&#45;&gt;Node18</title>
<g id="a_edge31_Node000025_Node000018"><a xlink:title=" ">
<path fill="none" stroke="#63b8ff" d="M379.66,-258.35C358.57,-250.95 332.38,-238.07 318,-217 291.46,-178.11 294.34,-119.44 298.03,-89.7"/>
<polygon fill="#63b8ff" stroke="#63b8ff" points="301.53,-89.89 299.47,-79.5 294.6,-88.91 301.53,-89.89"/>
</a>
</g>
</g>
<!-- Node26 -->
<g id="Node000026" class="node">
<title>Node26</title>
<g id="a_Node000026"><a xlink:href="math_2external_2tiledarray_2fwd_8h.html" target="_top" xlink:title=" ">
<polygon fill="white" stroke="#666666" points="443,-217 327,-217 327,-187 443,-187 443,-217"/>
<text text-anchor="start" x="335" y="-205" font-family="FreeSans" font-size="10.00">mpqc/math/external</text>
<text text-anchor="middle" x="385" y="-194" font-family="FreeSans" font-size="10.00">/tiledarray/fwd.h</text>
</a>
</g>
</g>
<!-- Node25&#45;&gt;Node26 -->
<g id="edge28_Node000025_Node000026" class="edge">
<title>Node25&#45;&gt;Node26</title>
<g id="a_edge28_Node000025_Node000026"><a xlink:title=" ">
<path fill="none" stroke="#63b8ff" d="M408.36,-258.37C404.93,-250.24 399.63,-237.69 394.95,-226.59"/>
<polygon fill="#63b8ff" stroke="#63b8ff" points="398.17,-225.21 391.06,-217.36 391.72,-227.93 398.17,-225.21"/>
</a>
</g>
</g>
<!-- Node28 -->
<g id="Node000028" class="node">
<title>Node28</title>
<g id="a_Node000028"><a xlink:href="formio_8h.html" target="_top" xlink:title=" ">
<polygon fill="white" stroke="#666666" points="592.5,-211.5 461.5,-211.5 461.5,-192.5 592.5,-192.5 592.5,-211.5"/>
<text text-anchor="middle" x="527" y="-199.5" font-family="FreeSans" font-size="10.00">mpqc/util/core/formio.h</text>
</a>
</g>
</g>
<!-- Node25&#45;&gt;Node28 -->
<g id="edge32_Node000025_Node000028" class="edge">
<title>Node25&#45;&gt;Node28</title>
<g id="a_edge32_Node000025_Node000028"><a xlink:title=" ">
<path fill="none" stroke="#63b8ff" d="M427.51,-258.37C446.71,-247.68 479.66,-229.35 502.35,-216.72"/>
<polygon fill="#63b8ff" stroke="#63b8ff" points="504.33,-219.62 511.37,-211.7 500.93,-213.5 504.33,-219.62"/>
</a>
</g>
</g>
<!-- Node32 -->
<g id="Node000032" class="node">
<title>Node32</title>
<g id="a_Node000032"><a xlink:title=" ">
<polygon fill="#e0e0e0" stroke="#999999" points="659.5,-211.5 610.5,-211.5 610.5,-192.5 659.5,-192.5 659.5,-211.5"/>
<text text-anchor="middle" x="635" y="-199.5" font-family="FreeSans" font-size="10.00">cstdlib</text>
</a>
</g>
</g>
<!-- Node25&#45;&gt;Node32 -->
<g id="edge39_Node000025_Node000032" class="edge">
<title>Node25&#45;&gt;Node32</title>
<g id="a_edge39_Node000025_Node000032"><a xlink:title=" ">
<path fill="none" stroke="#63b8ff" d="M450.09,-258.49C488.57,-249.52 549.53,-234.32 601,-217 602.62,-216.45 604.28,-215.87 605.94,-215.26"/>
<polygon fill="#63b8ff" stroke="#63b8ff" points="607.34,-218.47 615.39,-211.59 604.8,-211.95 607.34,-218.47"/>
</a>
</g>
</g>
<!-- Node33 -->
<g id="Node000033" class="node">
<title>Node33</title>
<g id="a_Node000033"><a xlink:title=" ">
<polygon fill="#e0e0e0" stroke="#999999" points="720.5,-211.5 677.5,-211.5 677.5,-192.5 720.5,-192.5 720.5,-211.5"/>
<text text-anchor="middle" x="699" y="-199.5" font-family="FreeSans" font-size="10.00">stack</text>
</a>
</g>
</g>
<!-- Node25&#45;&gt;Node33 -->
<g id="edge43_Node000025_Node000033" class="edge">
<title>Node25&#45;&gt;Node33</title>
<g id="a_edge43_Node000025_Node000033"><a xlink:title=" ">
<path fill="none" stroke="#63b8ff" d="M456.38,-258.47C528.32,-244.62 662.95,-218.61 668,-217 669.44,-216.54 670.91,-216.03 672.37,-215.49"/>
<polygon fill="#63b8ff" stroke="#63b8ff" points="673.98,-218.61 681.9,-211.57 671.32,-212.14 673.98,-218.61"/>
</a>
</g>
</g>
<!-- Node26&#45;&gt;Node18 -->
<g id="edge29_Node000026_Node000018" class="edge">
<title>Node26&#45;&gt;Node18</title>
<g id="a_edge29_Node000026_Node000018"><a xlink:title=" ">
<path fill="none" stroke="#63b8ff" d="M369.64,-186.68C360.03,-177.19 347.84,-164.1 339,-151 325.74,-131.34 314.66,-106.34 307.95,-89.56"/>
<polygon fill="#63b8ff" stroke="#63b8ff" points="311.07,-87.92 304.2,-79.86 304.55,-90.45 311.07,-87.92"/>
</a>
</g>
</g>
<!-- Node27 -->
<g id="Node000027" class="node">
<title>Node27</title>
<g id="a_Node000027"><a xlink:title=" ">
<polygon fill="#e0e0e0" stroke="#999999" points="443.5,-145.5 348.5,-145.5 348.5,-126.5 443.5,-126.5 443.5,-145.5"/>
<text text-anchor="middle" x="396" y="-133.5" font-family="FreeSans" font-size="10.00">tiledarray_fwd.h</text>
</a>
</g>
</g>
<!-- Node26&#45;&gt;Node27 -->
<g id="edge30_Node000026_Node000027" class="edge">
<title>Node26&#45;&gt;Node27</title>
<g id="a_edge30_Node000026_Node000027"><a xlink:title=" ">
<path fill="none" stroke="#63b8ff" d="M387.44,-186.8C389,-177.7 391.05,-165.79 392.75,-155.9"/>
<polygon fill="#63b8ff" stroke="#63b8ff" points="396.24,-156.29 394.48,-145.84 389.34,-155.11 396.24,-156.29"/>
</a>
</g>
</g>
<!-- Node28&#45;&gt;Node4 -->
<g id="edge34_Node000028_Node000004" class="edge">
<title>Node28&#45;&gt;Node4</title>
<g id="a_edge34_Node000028_Node000004"><a xlink:title=" ">
<path fill="none" stroke="#63b8ff" d="M565.62,-192.49C576.96,-190.32 589.43,-188.24 601,-187 1183.64,-124.33 1336.44,-214.39 1919,-151 1933.58,-149.41 1949.59,-146.48 1962.9,-143.7"/>
<polygon fill="#63b8ff" stroke="#63b8ff" points="1963.88,-147.07 1972.92,-141.54 1962.4,-140.23 1963.88,-147.07"/>
</a>
</g>
</g>
<!-- Node28&#45;&gt;Node13 -->
<g id="edge35_Node000028_Node000013" class="edge">
<title>Node28&#45;&gt;Node13</title>
<g id="a_edge35_Node000028_Node000013"><a xlink:title=" ">
<path fill="none" stroke="#63b8ff" d="M567.97,-192.44C578.68,-190.42 590.24,-188.44 601,-187 821.77,-157.39 1088.87,-143.19 1187.74,-138.67"/>
<polygon fill="#63b8ff" stroke="#63b8ff" points="1188.03,-142.16 1197.86,-138.21 1187.72,-135.17 1188.03,-142.16"/>
</a>
</g>
</g>
<!-- Node29 -->
<g id="Node000029" class="node">
<title>Node29</title>
<g id="a_Node000029"><a xlink:title=" ">
<polygon fill="#e0e0e0" stroke="#999999" points="634,-145.5 586,-145.5 586,-126.5 634,-126.5 634,-145.5"/>
<text text-anchor="middle" x="610" y="-133.5" font-family="FreeSans" font-size="10.00">iosfwd</text>
</a>
</g>
</g>
<!-- Node28&#45;&gt;Node29 -->
<g id="edge33_Node000028_Node000029" class="edge">
<title>Node28&#45;&gt;Node29</title>
<g id="a_edge33_Node000028_Node000029"><a xlink:title=" ">
<path fill="none" stroke="#63b8ff" d="M538.19,-192.37C551.56,-182.06 574.15,-164.65 590.42,-152.09"/>
<polygon fill="#63b8ff" stroke="#63b8ff" points="592.94,-154.58 598.72,-145.7 588.66,-149.03 592.94,-154.58"/>
</a>
</g>
</g>
<!-- Node30 -->
<g id="Node000030" class="node">
<title>Node30</title>
<g id="a_Node000030"><a xlink:href="scope.html" target="_top" xlink:title=" ">
<polygon fill="white" stroke="#666666" points="568,-151 462,-151 462,-121 568,-121 568,-151"/>
<text text-anchor="start" x="470" y="-139" font-family="FreeSans" font-size="10.00">mpqc/util/external</text>
<text text-anchor="middle" x="515" y="-128" font-family="FreeSans" font-size="10.00">/c++/scope</text>
</a>
</g>
</g>
<!-- Node28&#45;&gt;Node30 -->
<g id="edge36_Node000028_Node000030" class="edge">
<title>Node28&#45;&gt;Node30</title>
<g id="a_edge36_Node000028_Node000030"><a xlink:title=" ">
<path fill="none" stroke="#63b8ff" d="M525.38,-192.37C523.89,-184.4 521.6,-172.2 519.55,-161.27"/>
<polygon fill="#63b8ff" stroke="#63b8ff" points="522.98,-160.54 517.69,-151.36 516.1,-161.83 522.98,-160.54"/>
</a>
</g>
</g>
<!-- Node30&#45;&gt;Node18 -->
<g id="edge37_Node000030_Node000018" class="edge">
<title>Node30&#45;&gt;Node18</title>
<g id="a_edge37_Node000030_Node000018"><a xlink:title=" ">
<path fill="none" stroke="#63b8ff" d="M468.04,-120.95C429.35,-109.38 375.18,-93.18 339.14,-82.41"/>
<polygon fill="#63b8ff" stroke="#63b8ff" points="340.06,-79.03 329.48,-79.52 338.06,-85.74 340.06,-79.03"/>
</a>
</g>
</g>
<!-- Node31 -->
<g id="Node000031" class="node">
<title>Node31</title>
<g id="a_Node000031"><a xlink:title=" ">
<polygon fill="#e0e0e0" stroke="#999999" points="537.5,-79.5 492.5,-79.5 492.5,-60.5 537.5,-60.5 537.5,-79.5"/>
<text text-anchor="middle" x="515" y="-67.5" font-family="FreeSans" font-size="10.00">utility</text>
</a>
</g>
</g>
<!-- Node30&#45;&gt;Node31 -->
<g id="edge38_Node000030_Node000031" class="edge">
<title>Node30&#45;&gt;Node31</title>
<g id="a_edge38_Node000030_Node000031"><a xlink:title=" ">
<path fill="none" stroke="#63b8ff" d="M515,-120.8C515,-111.7 515,-99.79 515,-89.9"/>
<polygon fill="#63b8ff" stroke="#63b8ff" points="518.5,-89.84 515,-79.84 511.5,-89.84 518.5,-89.84"/>
</a>
</g>
</g>
<!-- Node36 -->
<g id="Node000036" class="node">
<title>Node36</title>
<g id="a_Node000036"><a xlink:href="get__type_8h.html" target="_top" xlink:title=" ">
<polygon fill="white" stroke="#666666" points="1838,-217 1728,-217 1728,-187 1838,-187 1838,-217"/>
<text text-anchor="start" x="1736" y="-205" font-family="FreeSans" font-size="10.00">mpqc/util/meta/get</text>
<text text-anchor="middle" x="1783" y="-194" font-family="FreeSans" font-size="10.00">_type.h</text>
</a>
</g>
</g>
<!-- Node35&#45;&gt;Node36 -->
<g id="edge47_Node000035_Node000036" class="edge">
<title>Node35&#45;&gt;Node36</title>
<g id="a_edge47_Node000035_Node000036"><a xlink:title=" ">
<path fill="none" stroke="#63b8ff" d="M1744.93,-258.37C1750.63,-250.08 1759.5,-237.18 1767.24,-225.92"/>
<polygon fill="#63b8ff" stroke="#63b8ff" points="1770.35,-227.58 1773.13,-217.36 1764.58,-223.62 1770.35,-227.58"/>
</a>
</g>
</g>
<!-- Node37 -->
<g id="Node000037" class="node">
<title>Node37</title>
<g id="a_Node000037"><a xlink:href="type__traits_8h.html" target="_top" xlink:title=" ">
<polygon fill="white" stroke="#666666" points="1910,-145.5 1832,-145.5 1832,-126.5 1910,-126.5 1910,-145.5"/>
<text text-anchor="middle" x="1871" y="-133.5" font-family="FreeSans" font-size="10.00">type_traits.h</text>
</a>
</g>
</g>
<!-- Node36&#45;&gt;Node37 -->
<g id="edge48_Node000036_Node000037" class="edge">
<title>Node36&#45;&gt;Node37</title>
<g id="a_edge48_Node000036_Node000037"><a xlink:title=" ">
<path fill="none" stroke="#63b8ff" d="M1802.53,-186.8C1816.87,-176.37 1836.3,-162.24 1850.79,-151.69"/>
<polygon fill="#63b8ff" stroke="#63b8ff" points="1853.07,-154.37 1859.09,-145.66 1848.95,-148.71 1853.07,-154.37"/>
</a>
</g>
</g>
<!-- Node37&#45;&gt;Node7 -->
<g id="edge49_Node000037_Node000007" class="edge">
<title>Node37&#45;&gt;Node7</title>
<g id="a_edge49_Node000037_Node000007"><a xlink:title=" ">
<path fill="none" stroke="#63b8ff" d="M1910.31,-128.66C1926.86,-126.11 1946.34,-123.24 1964,-121 2135.18,-99.32 2341.2,-80.52 2418.59,-73.72"/>
<polygon fill="#63b8ff" stroke="#63b8ff" points="2418.99,-77.2 2428.64,-72.84 2418.37,-70.22 2418.99,-77.2"/>
</a>
</g>
</g>
<!-- Node38 -->
<g id="Node000038" class="node">
<title>Node38</title>
<g id="a_Node000038"><a xlink:title=" ">
<polygon fill="#e0e0e0" stroke="#999999" points="1917,-19 1867,-19 1867,0 1917,0 1917,-19"/>
<text text-anchor="middle" x="1892" y="-7" font-family="FreeSans" font-size="10.00">atomic</text>
</a>
</g>
</g>
<!-- Node37&#45;&gt;Node38 -->
<g id="edge50_Node000037_Node000038" class="edge">
<title>Node37&#45;&gt;Node38</title>
<g id="a_edge50_Node000037_Node000038"><a xlink:title=" ">
<path fill="none" stroke="#63b8ff" d="M1847.33,-126.4C1829.66,-118.57 1806.78,-105.14 1796,-85 1789.71,-73.24 1788.82,-66.24 1796,-55 1809.4,-34.02 1835.52,-22.78 1857.14,-16.85"/>
<polygon fill="#63b8ff" stroke="#63b8ff" points="1858.13,-20.21 1867,-14.41 1856.45,-13.41 1858.13,-20.21"/>
</a>
</g>
</g>
<!-- Node39 -->
<g id="Node000039" class="node">
<title>Node39</title>
<g id="a_Node000039"><a xlink:title=" ">
<polygon fill="#e0e0e0" stroke="#999999" points="2148.5,-79.5 2079.5,-79.5 2079.5,-60.5 2148.5,-60.5 2148.5,-79.5"/>
<text text-anchor="middle" x="2114" y="-67.5" font-family="FreeSans" font-size="10.00">type_traits</text>
</a>
</g>
</g>
<!-- Node37&#45;&gt;Node39 -->
<g id="edge51_Node000037_Node000039" class="edge">
<title>Node37&#45;&gt;Node39</title>
<g id="a_edge51_Node000037_Node000039"><a xlink:title=" ">
<path fill="none" stroke="#63b8ff" d="M1907.86,-126.46C1947.94,-117.01 2013.81,-100.98 2070,-85 2072.75,-84.22 2075.58,-83.38 2078.43,-82.53"/>
<polygon fill="#63b8ff" stroke="#63b8ff" points="2079.5,-85.86 2088.02,-79.56 2077.43,-79.17 2079.5,-85.86"/>
</a>
</g>
</g>
<!-- Node40 -->
<g id="Node000040" class="node">
<title>Node40</title>
<g id="a_Node000040"><a xlink:href="atomic_8h.html" target="_top" xlink:title=" ">
<polygon fill="white" stroke="#666666" points="2061,-85 1955,-85 1955,-55 2061,-55 2061,-85"/>
<text text-anchor="start" x="1963" y="-73" font-family="FreeSans" font-size="10.00">mpqc/util/external</text>
<text text-anchor="middle" x="2008" y="-62" font-family="FreeSans" font-size="10.00">/c++/atomic.h</text>
</a>
</g>
</g>
<!-- Node37&#45;&gt;Node40 -->
<g id="edge52_Node000037_Node000040" class="edge">
<title>Node37&#45;&gt;Node40</title>
<g id="a_edge52_Node000037_Node000040"><a xlink:title=" ">
<path fill="none" stroke="#63b8ff" d="M1889.48,-126.37C1909.64,-116.95 1942.52,-101.59 1968.54,-89.43"/>
<polygon fill="#63b8ff" stroke="#63b8ff" points="1970.2,-92.52 1977.78,-85.12 1967.24,-86.18 1970.2,-92.52"/>
</a>
</g>
</g>
<!-- Node41 -->
<g id="Node000041" class="node">
<title>Node41</title>
<g id="a_Node000041"><a xlink:href="sfinae_8h.html" target="_top" xlink:title=" ">
<polygon fill="white" stroke="#666666" points="1937,-79.5 1805,-79.5 1805,-60.5 1937,-60.5 1937,-79.5"/>
<text text-anchor="middle" x="1871" y="-67.5" font-family="FreeSans" font-size="10.00">mpqc/util/meta/sfinae.h</text>
</a>
</g>
</g>
<!-- Node37&#45;&gt;Node41 -->
<g id="edge54_Node000037_Node000041" class="edge">
<title>Node37&#45;&gt;Node41</title>
<g id="a_edge54_Node000037_Node000041"><a xlink:title=" ">
<path fill="none" stroke="#63b8ff" d="M1866.21,-126.37C1864.22,-117.07 1863.75,-101.98 1864.78,-89.9"/>
<polygon fill="#63b8ff" stroke="#63b8ff" points="1868.26,-90.29 1866.15,-79.91 1861.32,-89.34 1868.26,-90.29"/>
</a>
</g>
</g>
<!-- Node40&#45;&gt;Node38 -->
<g id="edge53_Node000040_Node000038" class="edge">
<title>Node40&#45;&gt;Node38</title>
<g id="a_edge53_Node000040_Node000038"><a xlink:title=" ">
<path fill="none" stroke="#63b8ff" d="M1980.22,-54.99C1961.38,-45.49 1936.65,-33.02 1918.16,-23.69"/>
<polygon fill="#63b8ff" stroke="#63b8ff" points="1919.64,-20.52 1909.13,-19.14 1916.48,-26.77 1919.64,-20.52"/>
</a>
</g>
</g>
<!-- Node41&#45;&gt;Node37 -->
<g id="edge55_Node000041_Node000037" class="edge">
<title>Node41&#45;&gt;Node37</title>
<g id="a_edge55_Node000041_Node000037"><a xlink:title=" ">
<path fill="none" stroke="#63b8ff" d="M1875.85,-79.91C1877.8,-89.32 1878.25,-104.43 1877.19,-116.45"/>
<polygon fill="#63b8ff" stroke="#63b8ff" points="1873.72,-115.98 1875.79,-126.37 1880.65,-116.96 1873.72,-115.98"/>
</a>
</g>
</g>
<!-- Node43 -->
<g id="Node000043" class="node">
<title>Node43</title>
<g id="a_Node000043"><a xlink:title=" ">
<polygon fill="#e0e0e0" stroke="#999999" points="1633,-217 1517,-217 1517,-187 1633,-187 1633,-217"/>
<text text-anchor="start" x="1525" y="-205" font-family="FreeSans" font-size="10.00">madness/world/type</text>
<text text-anchor="middle" x="1575" y="-194" font-family="FreeSans" font-size="10.00">_traits.h</text>
</a>
</g>
</g>
<!-- Node42&#45;&gt;Node43 -->
<g id="edge57_Node000042_Node000043" class="edge">
<title>Node42&#45;&gt;Node43</title>
<g id="a_edge57_Node000042_Node000043"><a xlink:title=" ">
<path fill="none" stroke="#63b8ff" d="M1575,-258.37C1575,-250.49 1575,-238.45 1575,-227.6"/>
<polygon fill="#63b8ff" stroke="#63b8ff" points="1578.5,-227.36 1575,-217.36 1571.5,-227.36 1578.5,-227.36"/>
</a>
</g>
</g>
<!-- Node44&#45;&gt;Node13 -->
<g id="edge60_Node000044_Node000013" class="edge">
<title>Node44&#45;&gt;Node13</title>
<g id="a_edge60_Node000044_Node000013"><a xlink:title=" ">
<path fill="none" stroke="#63b8ff" d="M2333.27,-318.9C2347.12,-311.55 2364.76,-299.54 2373,-283 2394.55,-239.76 2364.87,-209.28 2322,-187 2274.28,-162.2 1456.7,-142.2 1266.37,-137.87"/>
<polygon fill="#63b8ff" stroke="#63b8ff" points="1266.33,-134.37 1256.26,-137.64 1266.17,-141.37 1266.33,-134.37"/>
</a>
</g>
</g>
<!-- Node44&#45;&gt;Node15 -->
<g id="edge62_Node000044_Node000015" class="edge">
<title>Node44&#45;&gt;Node15</title>
<g id="a_edge62_Node000044_Node000015"><a xlink:title=" ">
<path fill="none" stroke="#63b8ff" d="M2287.1,-318.99C2255.04,-308.86 2201.32,-291.87 2165.52,-280.55"/>
<polygon fill="#63b8ff" stroke="#63b8ff" points="2166.52,-277.19 2155.93,-277.52 2164.41,-283.87 2166.52,-277.19"/>
</a>
</g>
</g>
<!-- Node44&#45;&gt;Node16 -->
<g id="edge63_Node000044_Node000016" class="edge">
<title>Node44&#45;&gt;Node16</title>
<g id="a_edge63_Node000044_Node000016"><a xlink:title=" ">
<path fill="none" stroke="#63b8ff" d="M2287.42,-318.87C2265.49,-311.14 2234.02,-298.63 2209,-283 2193.24,-273.16 2155.83,-239.19 2133.87,-218.81"/>
<polygon fill="#63b8ff" stroke="#63b8ff" points="2135.99,-216.01 2126.29,-211.75 2131.22,-221.13 2135.99,-216.01"/>
</a>
</g>
</g>
<!-- Node45 -->
<g id="Node000045" class="node">
<title>Node45</title>
<g id="a_Node000045"><a xlink:title=" ">
<polygon fill="#e0e0e0" stroke="#999999" points="2661.5,-277.5 2608.5,-277.5 2608.5,-258.5 2661.5,-258.5 2661.5,-277.5"/>
<text text-anchor="middle" x="2635" y="-265.5" font-family="FreeSans" font-size="10.00">string.h</text>
</a>
</g>
</g>
<!-- Node44&#45;&gt;Node45 -->
<g id="edge59_Node000044_Node000045" class="edge">
<title>Node44&#45;&gt;Node45</title>
<g id="a_edge59_Node000044_Node000045"><a xlink:title=" ">
<path fill="none" stroke="#63b8ff" d="M2387.21,-319.36C2444.1,-312.19 2524.73,-300.2 2594,-283 2596.81,-282.3 2599.69,-281.5 2602.58,-280.64"/>
<polygon fill="#63b8ff" stroke="#63b8ff" points="2603.76,-283.93 2612.22,-277.55 2601.63,-277.27 2603.76,-283.93"/>
</a>
</g>
</g>
<!-- Node46 -->
<g id="Node000046" class="node">
<title>Node46</title>
<g id="a_Node000046"><a xlink:title=" ">
<polygon fill="#e0e0e0" stroke="#999999" points="2736,-277.5 2680,-277.5 2680,-258.5 2736,-258.5 2736,-277.5"/>
<text text-anchor="middle" x="2708" y="-265.5" font-family="FreeSans" font-size="10.00">sstream</text>
</a>
</g>
</g>
<!-- Node44&#45;&gt;Node46 -->
<g id="edge61_Node000044_Node000046" class="edge">
<title>Node44&#45;&gt;Node46</title>
<g id="a_edge61_Node000044_Node000046"><a xlink:title=" ">
<path fill="none" stroke="#63b8ff" d="M2387.06,-323.49C2459.88,-318.3 2574.45,-306.92 2671,-283 2673.45,-282.39 2675.96,-281.67 2678.46,-280.88"/>
<polygon fill="#63b8ff" stroke="#63b8ff" points="2679.63,-284.18 2687.92,-277.59 2677.33,-277.57 2679.63,-284.18"/>
</a>
</g>
</g>
<!-- Node47 -->
<g id="Node000047" class="node">
<title>Node47</title>
<g id="a_Node000047"><a xlink:href="backtrace_8h.html" target="_top" xlink:title=" ">
<polygon fill="white" stroke="#666666" points="2364,-277.5 2218,-277.5 2218,-258.5 2364,-258.5 2364,-277.5"/>
<text text-anchor="middle" x="2291" y="-265.5" font-family="FreeSans" font-size="10.00">mpqc/util/core/backtrace.h</text>
</a>
</g>
</g>
<!-- Node44&#45;&gt;Node47 -->
<g id="edge64_Node000044_Node000047" class="edge">
<title>Node44&#45;&gt;Node47</title>
<g id="a_edge64_Node000044_Node000047"><a xlink:title=" ">
<path fill="none" stroke="#63b8ff" d="M2310.61,-318.87C2307.34,-310.57 2302.31,-297.78 2298.16,-287.22"/>
<polygon fill="#63b8ff" stroke="#63b8ff" points="2301.32,-285.69 2294.41,-277.67 2294.81,-288.25 2301.32,-285.69"/>
</a>
</g>
</g>
<!-- Node47&#45;&gt;Node5 -->
<g id="edge65_Node000047_Node000005" class="edge">
<title>Node47&#45;&gt;Node5</title>
<g id="a_edge65_Node000047_Node000005"><a xlink:title=" ">
<path fill="none" stroke="#63b8ff" d="M2291,-258.37C2291,-249.16 2291,-234.29 2291,-222.27"/>
<polygon fill="#63b8ff" stroke="#63b8ff" points="2294.5,-221.91 2291,-211.91 2287.5,-221.91 2294.5,-221.91"/>
</a>
</g>
</g>
<!-- Node47&#45;&gt;Node16 -->
<g id="edge66_Node000047_Node000016" class="edge">
<title>Node47&#45;&gt;Node16</title>
<g id="a_edge66_Node000047_Node000016"><a xlink:title=" ">
<path fill="none" stroke="#63b8ff" d="M2267.53,-258.37C2237.22,-247.22 2184.29,-227.75 2149.96,-215.12"/>
<polygon fill="#63b8ff" stroke="#63b8ff" points="2150.97,-211.76 2140.37,-211.6 2148.55,-218.33 2150.97,-211.76"/>
</a>
</g>
</g>
</g>
</svg>
