<?xml version="1.0" encoding="UTF-8" standalone="no"?>
<!DOCTYPE svg PUBLIC "-//W3C//DTD SVG 1.1//EN"
 "http://www.w3.org/Graphics/SVG/1.1/DTD/svg11.dtd">
<!-- Generated by graphviz version 2.43.0 (0)
 -->
<!-- Title: mpqc/chemistry/qc/mra/wfn/op.h Pages: 1 -->
<svg width="694pt" height="434pt"
 viewBox="0.00 0.00 694.00 434.00" xmlns="http://www.w3.org/2000/svg" xmlns:xlink="http://www.w3.org/1999/xlink">
<g id="graph0" class="graph" transform="scale(1 1) rotate(0) translate(4 430)">
<title>mpqc/chemistry/qc/mra/wfn/op.h</title>
<!-- Node1 -->
<g id="Node000001" class="node">
<title>Node1</title>
<g id="a_Node000001"><a xlink:title=" ">
<polygon fill="#999999" stroke="#666666" points="207,-426 75,-426 75,-396 207,-396 207,-426"/>
<text text-anchor="start" x="83" y="-414" font-family="FreeSans" font-size="10.00">mpqc/chemistry/qc/mra</text>
<text text-anchor="middle" x="141" y="-403" font-family="FreeSans" font-size="10.00">/wfn/op.h</text>
</a>
</g>
</g>
<!-- Node2 -->
<g id="Node000002" class="node">
<title>Node2</title>
<g id="a_Node000002"><a xlink:href="op_8cpp.html" target="_top" xlink:title=" ">
<polygon fill="white" stroke="#666666" points="132,-360 0,-360 0,-330 132,-330 132,-360"/>
<text text-anchor="start" x="8" y="-348" font-family="FreeSans" font-size="10.00">mpqc/chemistry/qc/mra</text>
<text text-anchor="middle" x="66" y="-337" font-family="FreeSans" font-size="10.00">/wfn/op.cpp</text>
</a>
</g>
</g>
<!-- Node1&#45;&gt;Node2 -->
<g id="edge1_Node000001_Node000002" class="edge">
<title>Node1&#45;&gt;Node2</title>
<g id="a_edge1_Node000001_Node000002"><a xlink:title=" ">
<path fill="none" stroke="#63b8ff" d="M116.63,-389.2C105.49,-379.7 92.59,-368.69 82.6,-360.16"/>
<polygon fill="#63b8ff" stroke="#63b8ff" points="114.48,-391.97 124.36,-395.8 119.02,-386.64 114.48,-391.97"/>
</a>
</g>
</g>
<!-- Node3 -->
<g id="Node000003" class="node">
<title>Node3</title>
<g id="a_Node000003"><a xlink:href="src_2mpqc_2chemistry_2qc_2mra_2wfn_2wfn_8h.html" target="_top" xlink:title=" ">
<polygon fill="white" stroke="#666666" points="282,-360 150,-360 150,-330 282,-330 282,-360"/>
<text text-anchor="start" x="158" y="-348" font-family="FreeSans" font-size="10.00">mpqc/chemistry/qc/mra</text>
<text text-anchor="middle" x="216" y="-337" font-family="FreeSans" font-size="10.00">/wfn/wfn.h</text>
</a>
</g>
</g>
<!-- Node1&#45;&gt;Node3 -->
<g id="edge2_Node000001_Node000003" class="edge">
<title>Node1&#45;&gt;Node3</title>
<g id="a_edge2_Node000001_Node000003"><a xlink:title=" ">
<path fill="none" stroke="#63b8ff" d="M165.37,-389.2C176.51,-379.7 189.41,-368.69 199.4,-360.16"/>
<polygon fill="#63b8ff" stroke="#63b8ff" points="162.98,-386.64 157.64,-395.8 167.52,-391.97 162.98,-386.64"/>
</a>
</g>
</g>
<!-- Node4 -->
<g id="Node000004" class="node">
<title>Node4</title>
<g id="a_Node000004"><a xlink:href="solver_8cpp.html" target="_top" xlink:title=" ">
<polygon fill="white" stroke="#666666" points="198,-30 66,-30 66,0 198,0 198,-30"/>
<text text-anchor="start" x="74" y="-18" font-family="FreeSans" font-size="10.00">mpqc/chemistry/qc/mra</text>
<text text-anchor="middle" x="132" y="-7" font-family="FreeSans" font-size="10.00">/scf/solver.cpp</text>
</a>
</g>
</g>
<!-- Node3&#45;&gt;Node4 -->
<g id="edge3_Node000003_Node000004" class="edge">
<title>Node3&#45;&gt;Node4</title>
<g id="a_edge3_Node000003_Node000004"><a xlink:title=" ">
<path fill="none" stroke="#63b8ff" d="M148.1,-327.26C112,-317.47 72.03,-304.92 57,-294 21.68,-268.34 0,-257.66 0,-214 0,-214 0,-214 0,-146 0,-89.87 61.33,-49.86 100.38,-30.07"/>
<polygon fill="#63b8ff" stroke="#63b8ff" points="147.59,-330.75 158.15,-329.95 149.39,-323.98 147.59,-330.75"/>
</a>
</g>
</g>
<!-- Node5 -->
<g id="Node000005" class="node">
<title>Node5</title>
<g id="a_Node000005"><a xlink:href="solver_8h.html" target="_top" xlink:title=" ">
<polygon fill="white" stroke="#666666" points="198,-294 66,-294 66,-264 198,-264 198,-294"/>
<text text-anchor="start" x="74" y="-282" font-family="FreeSans" font-size="10.00">mpqc/chemistry/qc/mra</text>
<text text-anchor="middle" x="132" y="-271" font-family="FreeSans" font-size="10.00">/scf/solver.h</text>
</a>
</g>
</g>
<!-- Node3&#45;&gt;Node5 -->
<g id="edge4_Node000003_Node000005" class="edge">
<title>Node3&#45;&gt;Node5</title>
<g id="a_edge4_Node000003_Node000005"><a xlink:title=" ">
<path fill="none" stroke="#63b8ff" d="M189.06,-323.48C176.51,-313.91 161.89,-302.77 150.59,-294.16"/>
<polygon fill="#63b8ff" stroke="#63b8ff" points="187.28,-326.52 197.36,-329.8 191.52,-320.95 187.28,-326.52"/>
</a>
</g>
</g>
<!-- Node8 -->
<g id="Node000008" class="node">
<title>Node8</title>
<g id="a_Node000008"><a xlink:href="chemistry_2qc_2mra_2wfn_2util_8h.html" target="_top" xlink:title=" ">
<polygon fill="white" stroke="#666666" points="367,-294 235,-294 235,-264 367,-264 367,-294"/>
<text text-anchor="start" x="243" y="-282" font-family="FreeSans" font-size="10.00">mpqc/chemistry/qc/mra</text>
<text text-anchor="middle" x="301" y="-271" font-family="FreeSans" font-size="10.00">/wfn/util.h</text>
</a>
</g>
</g>
<!-- Node3&#45;&gt;Node8 -->
<g id="edge9_Node000003_Node000008" class="edge">
<title>Node3&#45;&gt;Node8</title>
<g id="a_edge9_Node000003_Node000008"><a xlink:title=" ">
<path fill="none" stroke="#63b8ff" d="M242.89,-323.75C255.67,-314.13 270.64,-302.86 282.19,-294.16"/>
<polygon fill="#63b8ff" stroke="#63b8ff" points="240.75,-320.99 234.86,-329.8 244.96,-326.58 240.75,-320.99"/>
</a>
</g>
</g>
<!-- Node12 -->
<g id="Node000012" class="node">
<title>Node12</title>
<g id="a_Node000012"><a xlink:href="mra_2wfn_2wfn_8cpp.html" target="_top" xlink:title=" ">
<polygon fill="white" stroke="#666666" points="686,-228 554,-228 554,-198 686,-198 686,-228"/>
<text text-anchor="start" x="562" y="-216" font-family="FreeSans" font-size="10.00">mpqc/chemistry/qc/mra</text>
<text text-anchor="middle" x="620" y="-205" font-family="FreeSans" font-size="10.00">/wfn/wfn.cpp</text>
</a>
</g>
</g>
<!-- Node3&#45;&gt;Node12 -->
<g id="edge18_Node000003_Node000012" class="edge">
<title>Node3&#45;&gt;Node12</title>
<g id="a_edge18_Node000003_Node000012"><a xlink:title=" ">
<path fill="none" stroke="#63b8ff" d="M271.28,-326.93C302.13,-317.36 341.24,-305.13 376,-294 446.9,-271.3 529.13,-244.17 577.74,-228.05"/>
<polygon fill="#63b8ff" stroke="#63b8ff" points="270.09,-323.64 261.57,-329.94 272.16,-330.32 270.09,-323.64"/>
</a>
</g>
</g>
<!-- Node6 -->
<g id="Node000006" class="node">
<title>Node6</title>
<g id="a_Node000006"><a xlink:href="solver_8ipp.html" target="_top" xlink:title=" ">
<polygon fill="white" stroke="#666666" points="292,-96 160,-96 160,-66 292,-66 292,-96"/>
<text text-anchor="start" x="168" y="-84" font-family="FreeSans" font-size="10.00">mpqc/chemistry/qc/mra</text>
<text text-anchor="middle" x="226" y="-73" font-family="FreeSans" font-size="10.00">/scf/solver.ipp</text>
</a>
</g>
</g>
<!-- Node5&#45;&gt;Node6 -->
<g id="edge5_Node000005_Node000006" class="edge">
<title>Node5&#45;&gt;Node6</title>
<g id="a_edge5_Node000005_Node000006"><a xlink:title=" ">
<path fill="none" stroke="#63b8ff" d="M87.99,-258.69C75.73,-251.01 63.89,-240.88 57,-228 50.71,-216.24 50.79,-209.8 57,-198 84.27,-146.2 146.28,-113.07 187.12,-96.01"/>
<polygon fill="#63b8ff" stroke="#63b8ff" points="86.52,-261.88 96.93,-263.85 90.02,-255.82 86.52,-261.88"/>
</a>
</g>
</g>
<!-- Node7 -->
<g id="Node000007" class="node">
<title>Node7</title>
<g id="a_Node000007"><a xlink:href="solver__1c__v2_8ipp.html" target="_top" xlink:title=" ">
<polygon fill="white" stroke="#666666" points="198,-228 66,-228 66,-198 198,-198 198,-228"/>
<text text-anchor="start" x="74" y="-216" font-family="FreeSans" font-size="10.00">mpqc/chemistry/qc/mra</text>
<text text-anchor="middle" x="132" y="-205" font-family="FreeSans" font-size="10.00">/scf/solver_1c_v2.ipp</text>
</a>
</g>
</g>
<!-- Node5&#45;&gt;Node7 -->
<g id="edge7_Node000005_Node000007" class="edge">
<title>Node5&#45;&gt;Node7</title>
<g id="a_edge7_Node000005_Node000007"><a xlink:title=" ">
<path fill="none" stroke="#63b8ff" d="M132,-253.54C132,-244.96 132,-235.61 132,-228.16"/>
<polygon fill="#63b8ff" stroke="#63b8ff" points="128.5,-253.8 132,-263.8 135.5,-253.8 128.5,-253.8"/>
</a>
</g>
</g>
<!-- Node6&#45;&gt;Node4 -->
<g id="edge6_Node000006_Node000004" class="edge">
<title>Node6&#45;&gt;Node4</title>
<g id="a_edge6_Node000006_Node000004"><a xlink:title=" ">
<path fill="none" stroke="#63b8ff" d="M196.67,-60.03C182.44,-50.34 165.69,-38.94 152.8,-30.16"/>
<polygon fill="#63b8ff" stroke="#63b8ff" points="194.9,-63.06 205.14,-65.8 198.84,-57.28 194.9,-63.06"/>
</a>
</g>
</g>
<!-- Node7&#45;&gt;Node4 -->
<g id="edge8_Node000007_Node000004" class="edge">
<title>Node7&#45;&gt;Node4</title>
<g id="a_edge8_Node000007_Node000004"><a xlink:title=" ">
<path fill="none" stroke="#63b8ff" d="M132,-187.89C132,-146.58 132,-63.48 132,-30.23"/>
<polygon fill="#63b8ff" stroke="#63b8ff" points="128.5,-187.9 132,-197.9 135.5,-187.9 128.5,-187.9"/>
</a>
</g>
</g>
<!-- Node8&#45;&gt;Node6 -->
<g id="edge10_Node000008_Node000006" class="edge">
<title>Node8&#45;&gt;Node6</title>
<g id="a_edge10_Node000008_Node000006"><a xlink:title=" ">
<path fill="none" stroke="#63b8ff" d="M270.51,-257.58C260.81,-249.52 251.04,-239.44 245,-228 221.97,-184.37 222.87,-123.54 224.7,-96.25"/>
<polygon fill="#63b8ff" stroke="#63b8ff" points="268.52,-260.47 278.56,-263.86 272.83,-254.95 268.52,-260.47"/>
</a>
</g>
</g>
<!-- Node8&#45;&gt;Node7 -->
<g id="edge11_Node000008_Node000007" class="edge">
<title>Node8&#45;&gt;Node7</title>
<g id="a_edge11_Node000008_Node000007"><a xlink:title=" ">
<path fill="none" stroke="#63b8ff" d="M254.32,-260.32C227.42,-250.14 194.08,-237.51 169,-228.01"/>
<polygon fill="#63b8ff" stroke="#63b8ff" points="253.32,-263.69 263.91,-263.95 255.8,-257.14 253.32,-263.69"/>
</a>
</g>
</g>
<!-- Node9 -->
<g id="Node000009" class="node">
<title>Node9</title>
<g id="a_Node000009"><a xlink:href="sp_8ipp.html" target="_top" xlink:title=" ">
<polygon fill="white" stroke="#666666" points="536,-228 404,-228 404,-198 536,-198 536,-228"/>
<text text-anchor="start" x="412" y="-216" font-family="FreeSans" font-size="10.00">mpqc/chemistry/qc/mra</text>
<text text-anchor="middle" x="470" y="-205" font-family="FreeSans" font-size="10.00">/wfn/sp.ipp</text>
</a>
</g>
</g>
<!-- Node8&#45;&gt;Node9 -->
<g id="edge12_Node000008_Node000009" class="edge">
<title>Node8&#45;&gt;Node9</title>
<g id="a_edge12_Node000008_Node000009"><a xlink:title=" ">
<path fill="none" stroke="#63b8ff" d="M347.68,-260.32C374.58,-250.14 407.92,-237.51 433,-228.01"/>
<polygon fill="#63b8ff" stroke="#63b8ff" points="346.2,-257.14 338.09,-263.95 348.68,-263.69 346.2,-257.14"/>
</a>
</g>
</g>
<!-- Node11 -->
<g id="Node000011" class="node">
<title>Node11</title>
<g id="a_Node000011"><a xlink:href="chemistry_2qc_2mra_2wfn_2util_8cpp.html" target="_top" xlink:title=" ">
<polygon fill="white" stroke="#666666" points="386,-228 254,-228 254,-198 386,-198 386,-228"/>
<text text-anchor="start" x="262" y="-216" font-family="FreeSans" font-size="10.00">mpqc/chemistry/qc/mra</text>
<text text-anchor="middle" x="320" y="-205" font-family="FreeSans" font-size="10.00">/wfn/util.cpp</text>
</a>
</g>
</g>
<!-- Node8&#45;&gt;Node11 -->
<g id="edge16_Node000008_Node000011" class="edge">
<title>Node8&#45;&gt;Node11</title>
<g id="a_edge16_Node000008_Node000011"><a xlink:title=" ">
<path fill="none" stroke="#63b8ff" d="M308.09,-254.11C310.69,-245.38 313.53,-235.78 315.8,-228.16"/>
<polygon fill="#63b8ff" stroke="#63b8ff" points="304.71,-253.21 305.22,-263.8 311.42,-255.21 304.71,-253.21"/>
</a>
</g>
</g>
<!-- Node8&#45;&gt;Node12 -->
<g id="edge17_Node000008_Node000012" class="edge">
<title>Node8&#45;&gt;Node12</title>
<g id="a_edge17_Node000008_Node000012"><a xlink:title=" ">
<path fill="none" stroke="#63b8ff" d="M376.95,-262.76C430.84,-251.95 502.47,-237.58 553.99,-227.24"/>
<polygon fill="#63b8ff" stroke="#63b8ff" points="376.21,-259.34 367.1,-264.74 377.59,-266.2 376.21,-259.34"/>
</a>
</g>
</g>
<!-- Node10 -->
<g id="Node000010" class="node">
<title>Node10</title>
<g id="a_Node000010"><a xlink:href="chemistry_2qc_2mra_2wfn_2sp_8h.html" target="_top" xlink:title=" ">
<polygon fill="white" stroke="#666666" points="536,-162 404,-162 404,-132 536,-132 536,-162"/>
<text text-anchor="start" x="412" y="-150" font-family="FreeSans" font-size="10.00">mpqc/chemistry/qc/mra</text>
<text text-anchor="middle" x="470" y="-139" font-family="FreeSans" font-size="10.00">/wfn/sp.h</text>
</a>
</g>
</g>
<!-- Node9&#45;&gt;Node10 -->
<g id="edge13_Node000009_Node000010" class="edge">
<title>Node9&#45;&gt;Node10</title>
<g id="a_edge13_Node000009_Node000010"><a xlink:title=" ">
<path fill="none" stroke="#63b8ff" d="M463.43,-187.83C463.02,-179.17 463.31,-169.7 464.29,-162.16"/>
<polygon fill="#63b8ff" stroke="#63b8ff" points="459.95,-188.13 464.28,-197.8 466.92,-187.54 459.95,-188.13"/>
</a>
</g>
</g>
<!-- Node10&#45;&gt;Node6 -->
<g id="edge14_Node000010_Node000006" class="edge">
<title>Node10&#45;&gt;Node6</title>
<g id="a_edge14_Node000010_Node000006"><a xlink:title=" ">
<path fill="none" stroke="#63b8ff" d="M406.66,-129.39C367.16,-119.03 316.9,-105.84 279.42,-96.01"/>
<polygon fill="#63b8ff" stroke="#63b8ff" points="405.89,-132.8 416.45,-131.95 407.67,-126.03 405.89,-132.8"/>
</a>
</g>
</g>
<!-- Node10&#45;&gt;Node9 -->
<g id="edge15_Node000010_Node000009" class="edge">
<title>Node10&#45;&gt;Node9</title>
<g id="a_edge15_Node000010_Node000009"><a xlink:title=" ">
<path fill="none" stroke="#63b8ff" d="M476.57,-172.13C476.98,-180.78 476.7,-190.26 475.72,-197.8"/>
<polygon fill="#63b8ff" stroke="#63b8ff" points="480.05,-171.83 475.71,-162.16 473.08,-172.43 480.05,-171.83"/>
</a>
</g>
</g>
</g>
</svg>
