<?xml version="1.0" encoding="UTF-8" standalone="no"?>
<!DOCTYPE svg PUBLIC "-//W3C//DTD SVG 1.1//EN"
 "http://www.w3.org/Graphics/SVG/1.1/DTD/svg11.dtd">
<!-- Generated by graphviz version 2.43.0 (0)
 -->
<!-- Title: mpqc/math/function/optimize.h Pages: 1 -->
<!--zoomable 423 -->

<svg id="main" version="1.1" xmlns="http://www.w3.org/2000/svg" xmlns:xlink="http://www.w3.org/1999/xlink" xml:space="preserve" onload="init(evt)">
<style type="text/css"><![CDATA[
.node, .edge {opacity: 0.7;}
.node.selected, .edge.selected {opacity: 1;}
.edge:hover path { stroke: red; }
.edge:hover polygon { stroke: red; fill: red; }
]]></style>

<defs>
  <circle id="rim" cx="0" cy="0" r="7"/>
  <circle id="rim2" cx="0" cy="0" r="3.5"/>
  <g id="zoomPlus">
    <use xlink:href="#rim" fill="#404040"><set attributeName="fill" to="#808080" begin="zoomplus.mouseover" end="zoomplus.mouseout"/></use>
    <path d="M-4,0h8M0,-4v8" fill="none" stroke="white" stroke-width="1.5" pointer-events="none"/>
  </g>
  <g id="zoomMin">
    <use xlink:href="#rim" fill="#404040"><set attributeName="fill" to="#808080" begin="zoomminus.mouseover" end="zoomminus.mouseout"/></use>
    <path d="M-4,0h8" fill="none" stroke="white" stroke-width="1.5" pointer-events="none"/>
  </g>
  <g id="arrowUp" transform="translate(30 24)">
    <use xlink:href="#rim"/>
    <path pointer-events="none" fill="none" stroke="white" stroke-width="1.5" d="M0,-3.0v7 M-2.5,-0.5L0,-3.0L2.5,-0.5"/>
  </g>
  <g id="arrowRight" transform="rotate(90) translate(36 -43)">
    <use xlink:href="#rim"/>
    <path pointer-events="none" fill="none" stroke="white" stroke-width="1.5" d="M0,-3.0v7 M-2.5,-0.5L0,-3.0L2.5,-0.5"/>
  </g>
  <g id="arrowDown" transform="rotate(180) translate(-30 -48)">
    <use xlink:href="#rim"/>
    <path pointer-events="none" fill="none" stroke="white" stroke-width="1.5" d="M0,-3.0v7 M-2.5,-0.5L0,-3.0L2.5,-0.5"/>
  </g>
  <g id="arrowLeft" transform="rotate(270) translate(-36 17)">
    <use xlink:href="#rim"/>
    <path pointer-events="none" fill="none" stroke="white" stroke-width="1.5" d="M0,-3.0v7 M-2.5,-0.5L0,-3.0L2.5,-0.5"/>
  </g>
  <g id="resetDef">
    <use xlink:href="#rim2" fill="#404040"><set attributeName="fill" to="#808080" begin="reset.mouseover" end="reset.mouseout"/></use>
  </g>
</defs>
<script type="application/ecmascript">
var viewWidth = 2833;
var viewHeight = 423;
var sectionId = 'dynsection-0';
</script>
<script type="application/ecmascript" xlink:href="svg.min.js"/>
<svg id="graph" class="graph">
<g id="viewport">
<title>mpqc/math/function/optimize.h</title>
<!-- Node1 -->
<g id="Node000001" class="node">
<title>Node1</title>
<g id="a_Node000001"><a xlink:title=" ">
<polygon fill="#999999" stroke="#666666" points="639.5,-415 524.5,-415 524.5,-385 639.5,-385 639.5,-415"/>
<text text-anchor="start" x="532.5" y="-403" font-family="FreeSans" font-size="10.00">mpqc/math/function</text>
<text text-anchor="middle" x="582" y="-392" font-family="FreeSans" font-size="10.00">/optimize.h</text>
</a>
</g>
</g>
<!-- Node2 -->
<g id="Node000002" class="node">
<title>Node2</title>
<g id="a_Node000002"><a xlink:title=" ">
<polygon fill="#e0e0e0" stroke="#999999" points="506.5,-343.5 453.5,-343.5 453.5,-324.5 506.5,-324.5 506.5,-343.5"/>
<text text-anchor="middle" x="480" y="-331.5" font-family="FreeSans" font-size="10.00">iterator</text>
</a>
</g>
</g>
<!-- Node1&#45;&gt;Node2 -->
<g id="edge1_Node000001_Node000002" class="edge">
<title>Node1&#45;&gt;Node2</title>
<g id="a_edge1_Node000001_Node000002"><a xlink:title=" ">
<path fill="none" stroke="#63b8ff" d="M559.62,-384.95C542.59,-374.27 519.29,-359.65 502.29,-348.98"/>
<polygon fill="#63b8ff" stroke="#63b8ff" points="503.91,-345.87 493.57,-343.52 500.18,-351.8 503.91,-345.87"/>
</a>
</g>
</g>
<!-- Node3 -->
<g id="Node000003" class="node">
<title>Node3</title>
<g id="a_Node000003"><a xlink:href="function_8h.html" target="_top" xlink:title=" ">
<polygon fill="white" stroke="#666666" points="639.5,-349 524.5,-349 524.5,-319 639.5,-319 639.5,-349"/>
<text text-anchor="start" x="532.5" y="-337" font-family="FreeSans" font-size="10.00">mpqc/math/function</text>
<text text-anchor="middle" x="582" y="-326" font-family="FreeSans" font-size="10.00">/function.h</text>
</a>
</g>
</g>
<!-- Node1&#45;&gt;Node3 -->
<g id="edge2_Node000001_Node000003" class="edge">
<title>Node1&#45;&gt;Node3</title>
<g id="a_edge2_Node000001_Node000003"><a xlink:title=" ">
<path fill="none" stroke="#63b8ff" d="M582,-384.8C582,-377.34 582,-367.99 582,-359.41"/>
<polygon fill="#63b8ff" stroke="#63b8ff" points="585.5,-359.16 582,-349.16 578.5,-359.16 585.5,-359.16"/>
</a>
</g>
</g>
<!-- Node7 -->
<g id="Node000007" class="node">
<title>Node7</title>
<g id="a_Node000007"><a xlink:href="src_2mpqc_2util_2keyval_2keyval_8h.html" target="_top" xlink:title=" ">
<polygon fill="white" stroke="#666666" points="1306,-343.5 1164,-343.5 1164,-324.5 1306,-324.5 1306,-343.5"/>
<text text-anchor="middle" x="1235" y="-331.5" font-family="FreeSans" font-size="10.00">mpqc/util/keyval/keyval.h</text>
</a>
</g>
</g>
<!-- Node1&#45;&gt;Node7 -->
<g id="edge7_Node000001_Node000007" class="edge">
<title>Node1&#45;&gt;Node7</title>
<g id="a_edge7_Node000001_Node000007"><a xlink:title=" ">
<path fill="none" stroke="#63b8ff" d="M639.66,-393.35C756.16,-381.93 1019.83,-356.09 1153.72,-342.97"/>
<polygon fill="#63b8ff" stroke="#63b8ff" points="1154.3,-346.43 1163.91,-341.97 1153.62,-339.46 1154.3,-346.43"/>
</a>
</g>
</g>
<!-- Node4 -->
<g id="Node000004" class="node">
<title>Node4</title>
<g id="a_Node000004"><a xlink:href="timestamp_8h.html" target="_top" xlink:title=" ">
<polygon fill="white" stroke="#666666" points="154,-277.5 0,-277.5 0,-258.5 154,-258.5 154,-277.5"/>
<text text-anchor="middle" x="77" y="-265.5" font-family="FreeSans" font-size="10.00">mpqc/util/misc/timestamp.h</text>
</a>
</g>
</g>
<!-- Node3&#45;&gt;Node4 -->
<g id="edge3_Node000003_Node000004" class="edge">
<title>Node3&#45;&gt;Node4</title>
<g id="a_edge3_Node000003_Node000004"><a xlink:title=" ">
<path fill="none" stroke="#63b8ff" d="M524.33,-320.56C521.18,-320 518.05,-319.48 515,-319 361.8,-295.11 321.78,-302.79 168,-283 158.7,-281.8 148.89,-280.42 139.29,-279"/>
<polygon fill="#63b8ff" stroke="#63b8ff" points="139.8,-275.54 129.39,-277.51 138.76,-282.46 139.8,-275.54"/>
</a>
</g>
</g>
<!-- Node5 -->
<g id="Node000005" class="node">
<title>Node5</title>
<g id="a_Node000005"><a xlink:title=" ">
<polygon fill="#e0e0e0" stroke="#999999" points="253,-211.5 193,-211.5 193,-192.5 253,-192.5 253,-211.5"/>
<text text-anchor="middle" x="223" y="-199.5" font-family="FreeSans" font-size="10.00">iostream</text>
</a>
</g>
</g>
<!-- Node4&#45;&gt;Node5 -->
<g id="edge4_Node000004_Node000005" class="edge">
<title>Node4&#45;&gt;Node5</title>
<g id="a_edge4_Node000004_Node000005"><a xlink:title=" ">
<path fill="none" stroke="#63b8ff" d="M96.69,-258.37C121.73,-247.39 165.15,-228.36 193.98,-215.72"/>
<polygon fill="#63b8ff" stroke="#63b8ff" points="195.4,-218.92 203.16,-211.7 192.59,-212.51 195.4,-218.92"/>
</a>
</g>
</g>
<!-- Node6 -->
<g id="Node000006" class="node">
<title>Node6</title>
<g id="a_Node000006"><a xlink:href="memory.html" target="_top" xlink:title=" ">
<polygon fill="white" stroke="#666666" points="247,-145.5 189,-145.5 189,-126.5 247,-126.5 247,-145.5"/>
<text text-anchor="middle" x="218" y="-133.5" font-family="FreeSans" font-size="10.00">memory</text>
</a>
</g>
</g>
<!-- Node4&#45;&gt;Node6 -->
<g id="edge5_Node000004_Node000006" class="edge">
<title>Node4&#45;&gt;Node6</title>
<g id="a_edge5_Node000004_Node000006"><a xlink:title=" ">
<path fill="none" stroke="#63b8ff" d="M84.29,-258.1C97.04,-242.78 124.56,-210.79 151,-187 165.51,-173.94 183.28,-160.8 196.87,-151.27"/>
<polygon fill="#63b8ff" stroke="#63b8ff" points="198.88,-154.13 205.12,-145.56 194.9,-148.37 198.88,-154.13"/>
</a>
</g>
</g>
<!-- Node6&#45;&gt;Node6 -->
<g id="edge6_Node000006_Node000006" class="edge">
<title>Node6&#45;&gt;Node6</title>
<g id="a_edge6_Node000006_Node000006"><a xlink:title=" ">
<path fill="none" stroke="#63b8ff" d="M232.92,-145.66C248.1,-151.34 265,-148.12 265,-136 265,-126.53 254.69,-122.5 242.93,-123.89"/>
<polygon fill="#63b8ff" stroke="#63b8ff" points="241.8,-120.57 232.92,-126.34 243.46,-127.37 241.8,-120.57"/>
</a>
</g>
</g>
<!-- Node7&#45;&gt;Node5 -->
<g id="edge11_Node000007_Node000005" class="edge">
<title>Node7&#45;&gt;Node5</title>
<g id="a_edge11_Node000007_Node000005"><a xlink:title=" ">
<path fill="none" stroke="#63b8ff" d="M1163.96,-331.23C995.32,-326.59 574.71,-312.38 437,-283 367.09,-268.09 289.55,-234.52 249.77,-215.96"/>
<polygon fill="#63b8ff" stroke="#63b8ff" points="251.04,-212.68 240.5,-211.58 248.05,-219.02 251.04,-212.68"/>
</a>
</g>
</g>
<!-- Node7&#45;&gt;Node6 -->
<g id="edge15_Node000007_Node000006" class="edge">
<title>Node7&#45;&gt;Node6</title>
<g id="a_edge15_Node000007_Node000006"><a xlink:title=" ">
<path fill="none" stroke="#63b8ff" d="M1163.95,-332.22C980.51,-329.71 494.5,-319.69 338,-283 265.5,-266 224.99,-279.17 184,-217 170.7,-196.83 187.33,-170.6 201.66,-153.78"/>
<polygon fill="#63b8ff" stroke="#63b8ff" points="204.66,-155.68 208.77,-145.92 199.47,-150.99 204.66,-155.68"/>
</a>
</g>
</g>
<!-- Node8 -->
<g id="Node000008" class="node">
<title>Node8</title>
<g id="a_Node000008"><a xlink:title=" ">
<polygon fill="#e0e0e0" stroke="#999999" points="1177,-79.5 1135,-79.5 1135,-60.5 1177,-60.5 1177,-79.5"/>
<text text-anchor="middle" x="1156" y="-67.5" font-family="FreeSans" font-size="10.00">array</text>
</a>
</g>
</g>
<!-- Node7&#45;&gt;Node8 -->
<g id="edge8_Node000007_Node000008" class="edge">
<title>Node7&#45;&gt;Node8</title>
<g id="a_edge8_Node000007_Node000008"><a xlink:title=" ">
<path fill="none" stroke="#63b8ff" d="M1163.96,-327.18C1103.97,-320.62 1024.74,-307.5 1005,-283 947.23,-211.33 1077.02,-119.48 1132.45,-84.95"/>
<polygon fill="#63b8ff" stroke="#63b8ff" points="1134.57,-87.75 1141.27,-79.55 1130.91,-81.78 1134.57,-87.75"/>
</a>
</g>
</g>
<!-- Node9 -->
<g id="Node000009" class="node">
<title>Node9</title>
<g id="a_Node000009"><a xlink:title=" ">
<polygon fill="#e0e0e0" stroke="#999999" points="1066,-277.5 1014,-277.5 1014,-258.5 1066,-258.5 1066,-277.5"/>
<text text-anchor="middle" x="1040" y="-265.5" font-family="FreeSans" font-size="10.00">cassert</text>
</a>
</g>
</g>
<!-- Node7&#45;&gt;Node9 -->
<g id="edge9_Node000007_Node000009" class="edge">
<title>Node7&#45;&gt;Node9</title>
<g id="a_edge9_Node000007_Node000009"><a xlink:title=" ">
<path fill="none" stroke="#63b8ff" d="M1205.28,-324.47C1172.99,-315.01 1119.97,-298.99 1075,-283 1073.39,-282.43 1071.74,-281.83 1070.08,-281.21"/>
<polygon fill="#63b8ff" stroke="#63b8ff" points="1071.22,-277.89 1060.63,-277.56 1068.7,-284.42 1071.22,-277.89"/>
</a>
</g>
</g>
<!-- Node10 -->
<g id="Node000010" class="node">
<title>Node10</title>
<g id="a_Node000010"><a xlink:title=" ">
<polygon fill="#e0e0e0" stroke="#999999" points="1143.5,-277.5 1084.5,-277.5 1084.5,-258.5 1143.5,-258.5 1143.5,-277.5"/>
<text text-anchor="middle" x="1114" y="-265.5" font-family="FreeSans" font-size="10.00">complex</text>
</a>
</g>
</g>
<!-- Node7&#45;&gt;Node10 -->
<g id="edge10_Node000007_Node000010" class="edge">
<title>Node7&#45;&gt;Node10</title>
<g id="a_edge10_Node000007_Node000010"><a xlink:title=" ">
<path fill="none" stroke="#63b8ff" d="M1218.68,-324.37C1198.29,-313.59 1163.19,-295.02 1139.3,-282.38"/>
<polygon fill="#63b8ff" stroke="#63b8ff" points="1140.92,-279.28 1130.45,-277.7 1137.65,-285.47 1140.92,-279.28"/>
</a>
</g>
</g>
<!-- Node11 -->
<g id="Node000011" class="node">
<title>Node11</title>
<g id="a_Node000011"><a xlink:title=" ">
<polygon fill="#e0e0e0" stroke="#999999" points="1194,-277.5 1162,-277.5 1162,-258.5 1194,-258.5 1194,-277.5"/>
<text text-anchor="middle" x="1178" y="-265.5" font-family="FreeSans" font-size="10.00">list</text>
</a>
</g>
</g>
<!-- Node7&#45;&gt;Node11 -->
<g id="edge12_Node000007_Node000011" class="edge">
<title>Node7&#45;&gt;Node11</title>
<g id="a_edge12_Node000007_Node000011"><a xlink:title=" ">
<path fill="none" stroke="#63b8ff" d="M1227.31,-324.37C1218.52,-314.5 1203.93,-298.11 1192.89,-285.72"/>
<polygon fill="#63b8ff" stroke="#63b8ff" points="1195.2,-283.05 1185.93,-277.91 1189.97,-287.7 1195.2,-283.05"/>
</a>
</g>
</g>
<!-- Node12 -->
<g id="Node000012" class="node">
<title>Node12</title>
<g id="a_Node000012"><a xlink:title=" ">
<polygon fill="#e0e0e0" stroke="#999999" points="1258,-277.5 1212,-277.5 1212,-258.5 1258,-258.5 1258,-277.5"/>
<text text-anchor="middle" x="1235" y="-265.5" font-family="FreeSans" font-size="10.00">locale</text>
</a>
</g>
</g>
<!-- Node7&#45;&gt;Node12 -->
<g id="edge13_Node000007_Node000012" class="edge">
<title>Node7&#45;&gt;Node12</title>
<g id="a_edge13_Node000007_Node000012"><a xlink:title=" ">
<path fill="none" stroke="#63b8ff" d="M1235,-324.37C1235,-315.16 1235,-300.29 1235,-288.27"/>
<polygon fill="#63b8ff" stroke="#63b8ff" points="1238.5,-287.91 1235,-277.91 1231.5,-287.91 1238.5,-287.91"/>
</a>
</g>
</g>
<!-- Node13 -->
<g id="Node000013" class="node">
<title>Node13</title>
<g id="a_Node000013"><a xlink:title=" ">
<polygon fill="#e0e0e0" stroke="#999999" points="595,-145.5 557,-145.5 557,-126.5 595,-126.5 595,-145.5"/>
<text text-anchor="middle" x="576" y="-133.5" font-family="FreeSans" font-size="10.00">map</text>
</a>
</g>
</g>
<!-- Node7&#45;&gt;Node13 -->
<g id="edge14_Node000007_Node000013" class="edge">
<title>Node7&#45;&gt;Node13</title>
<g id="a_edge14_Node000007_Node000013"><a xlink:title=" ">
<path fill="none" stroke="#63b8ff" d="M1163.9,-328.81C1086.52,-322.96 969.14,-309.87 934,-283 896.72,-254.49 927.57,-215.13 890,-187 845.42,-153.63 696.82,-160.78 642,-151 629.9,-148.84 616.64,-146.1 605.2,-143.62"/>
<polygon fill="#63b8ff" stroke="#63b8ff" points="605.8,-140.17 595.28,-141.44 604.3,-147 605.8,-140.17"/>
</a>
</g>
</g>
<!-- Node14 -->
<g id="Node000014" class="node">
<title>Node14</title>
<g id="a_Node000014"><a xlink:title=" ">
<polygon fill="#e0e0e0" stroke="#999999" points="327,-211.5 271,-211.5 271,-192.5 327,-192.5 327,-211.5"/>
<text text-anchor="middle" x="299" y="-199.5" font-family="FreeSans" font-size="10.00">optional</text>
</a>
</g>
</g>
<!-- Node7&#45;&gt;Node14 -->
<g id="edge16_Node000007_Node000014" class="edge">
<title>Node7&#45;&gt;Node14</title>
<g id="a_edge16_Node000007_Node000014"><a xlink:title=" ">
<path fill="none" stroke="#63b8ff" d="M1163.84,-332.27C1041.26,-329.99 782.74,-320.69 568,-283 460.73,-264.17 434.79,-253.01 332,-217 330.57,-216.5 329.11,-215.97 327.64,-215.41"/>
<polygon fill="#63b8ff" stroke="#63b8ff" points="328.62,-212.03 318.03,-211.57 326.02,-218.53 328.62,-212.03"/>
</a>
</g>
</g>
<!-- Node15 -->
<g id="Node000015" class="node">
<title>Node15</title>
<g id="a_Node000015"><a xlink:title=" ">
<polygon fill="#e0e0e0" stroke="#999999" points="1341.5,-277.5 1276.5,-277.5 1276.5,-258.5 1341.5,-258.5 1341.5,-277.5"/>
<text text-anchor="middle" x="1309" y="-265.5" font-family="FreeSans" font-size="10.00">stdexcept</text>
</a>
</g>
</g>
<!-- Node7&#45;&gt;Node15 -->
<g id="edge17_Node000007_Node000015" class="edge">
<title>Node7&#45;&gt;Node15</title>
<g id="a_edge17_Node000007_Node000015"><a xlink:title=" ">
<path fill="none" stroke="#63b8ff" d="M1244.98,-324.37C1256.72,-314.21 1276.44,-297.16 1290.9,-284.65"/>
<polygon fill="#63b8ff" stroke="#63b8ff" points="1293.43,-287.09 1298.7,-277.91 1288.85,-281.8 1293.43,-287.09"/>
</a>
</g>
</g>
<!-- Node16 -->
<g id="Node000016" class="node">
<title>Node16</title>
<g id="a_Node000016"><a xlink:title=" ">
<polygon fill="#e0e0e0" stroke="#999999" points="1404,-277.5 1360,-277.5 1360,-258.5 1404,-258.5 1404,-277.5"/>
<text text-anchor="middle" x="1382" y="-265.5" font-family="FreeSans" font-size="10.00">string</text>
</a>
</g>
</g>
<!-- Node7&#45;&gt;Node16 -->
<g id="edge18_Node000007_Node000016" class="edge">
<title>Node7&#45;&gt;Node16</title>
<g id="a_edge18_Node000007_Node000016"><a xlink:title=" ">
<path fill="none" stroke="#63b8ff" d="M1254.95,-324.34C1277.89,-314.38 1316.67,-297.53 1350,-283 1351,-282.56 1352.02,-282.12 1353.05,-281.67"/>
<polygon fill="#63b8ff" stroke="#63b8ff" points="1354.61,-284.81 1362.37,-277.6 1351.81,-278.39 1354.61,-284.81"/>
</a>
</g>
</g>
<!-- Node17 -->
<g id="Node000017" class="node">
<title>Node17</title>
<g id="a_Node000017"><a xlink:title=" ">
<polygon fill="#e0e0e0" stroke="#999999" points="881.5,-211.5 834.5,-211.5 834.5,-192.5 881.5,-192.5 881.5,-211.5"/>
<text text-anchor="middle" x="858" y="-199.5" font-family="FreeSans" font-size="10.00">vector</text>
</a>
</g>
</g>
<!-- Node7&#45;&gt;Node17 -->
<g id="edge19_Node000007_Node000017" class="edge">
<title>Node7&#45;&gt;Node17</title>
<g id="a_edge19_Node000007_Node000017"><a xlink:title=" ">
<path fill="none" stroke="#63b8ff" d="M1163.87,-330.27C1077.24,-325.64 937.31,-313.56 896,-283 876.05,-268.24 866.15,-240.29 861.56,-221.65"/>
<polygon fill="#63b8ff" stroke="#63b8ff" points="864.94,-220.71 859.39,-211.68 858.1,-222.2 864.94,-220.71"/>
</a>
</g>
</g>
<!-- Node18 -->
<g id="Node000018" class="node">
<title>Node18</title>
<g id="a_Node000018"><a xlink:title=" ">
<polygon fill="#e0e0e0" stroke="#999999" points="1562,-277.5 1422,-277.5 1422,-258.5 1562,-258.5 1562,-277.5"/>
<text text-anchor="middle" x="1492" y="-265.5" font-family="FreeSans" font-size="10.00">boost/core/demangle.hpp</text>
</a>
</g>
</g>
<!-- Node7&#45;&gt;Node18 -->
<g id="edge20_Node000007_Node000018" class="edge">
<title>Node7&#45;&gt;Node18</title>
<g id="a_edge20_Node000007_Node000018"><a xlink:title=" ">
<path fill="none" stroke="#63b8ff" d="M1269.39,-324.44C1315.46,-312.96 1397.24,-292.6 1447.82,-280"/>
<polygon fill="#63b8ff" stroke="#63b8ff" points="1448.95,-283.33 1457.81,-277.51 1447.26,-276.53 1448.95,-283.33"/>
</a>
</g>
</g>
<!-- Node19 -->
<g id="Node000019" class="node">
<title>Node19</title>
<g id="a_Node000019"><a xlink:title=" ">
<polygon fill="#e0e0e0" stroke="#999999" points="772.5,-79.5 655.5,-79.5 655.5,-60.5 772.5,-60.5 772.5,-79.5"/>
<text text-anchor="middle" x="714" y="-67.5" font-family="FreeSans" font-size="10.00">mpqc/mpqc_config.h</text>
</a>
</g>
</g>
<!-- Node7&#45;&gt;Node19 -->
<g id="edge21_Node000007_Node000019" class="edge">
<title>Node7&#45;&gt;Node19</title>
<g id="a_edge21_Node000007_Node000019"><a xlink:title=" ">
<path fill="none" stroke="#63b8ff" d="M1163.88,-331.68C1111.71,-327.75 1041.02,-316.01 988,-283 942.27,-254.53 954.51,-222.52 914,-187 860.35,-139.96 784.78,-102.32 743.6,-83.7"/>
<polygon fill="#63b8ff" stroke="#63b8ff" points="744.94,-80.47 734.38,-79.6 742.09,-86.87 744.94,-80.47"/>
</a>
</g>
</g>
<!-- Node20 -->
<g id="Node000020" class="node">
<title>Node20</title>
<g id="a_Node000020"><a xlink:title=" ">
<polygon fill="#e0e0e0" stroke="#999999" points="1702,-283 1580,-283 1580,-253 1702,-253 1702,-283"/>
<text text-anchor="start" x="1588" y="-271" font-family="FreeSans" font-size="10.00">boost/container/small</text>
<text text-anchor="middle" x="1641" y="-260" font-family="FreeSans" font-size="10.00">_vector.hpp</text>
</a>
</g>
</g>
<!-- Node7&#45;&gt;Node20 -->
<g id="edge22_Node000007_Node000020" class="edge">
<title>Node7&#45;&gt;Node20</title>
<g id="a_edge22_Node000007_Node000020"><a xlink:title=" ">
<path fill="none" stroke="#63b8ff" d="M1298.63,-324.49C1364.13,-315.51 1469.39,-300.49 1569.92,-283.14"/>
<polygon fill="#63b8ff" stroke="#63b8ff" points="1570.7,-286.55 1579.95,-281.4 1569.5,-279.66 1570.7,-286.55"/>
</a>
</g>
</g>
<!-- Node21 -->
<g id="Node000021" class="node">
<title>Node21</title>
<g id="a_Node000021"><a xlink:title=" ">
<polygon fill="#e0e0e0" stroke="#999999" points="1833.5,-283 1720.5,-283 1720.5,-253 1833.5,-253 1833.5,-283"/>
<text text-anchor="start" x="1728.5" y="-271" font-family="FreeSans" font-size="10.00">boost/property_tree</text>
<text text-anchor="middle" x="1777" y="-260" font-family="FreeSans" font-size="10.00">/info_parser.hpp</text>
</a>
</g>
</g>
<!-- Node7&#45;&gt;Node21 -->
<g id="edge23_Node000007_Node000021" class="edge">
<title>Node7&#45;&gt;Node21</title>
<g id="a_edge23_Node000007_Node000021"><a xlink:title=" ">
<path fill="none" stroke="#63b8ff" d="M1306.27,-327.85C1397.52,-320.73 1560.66,-306.25 1709.92,-283.06"/>
<polygon fill="#63b8ff" stroke="#63b8ff" points="1710.85,-286.45 1720.19,-281.44 1709.77,-279.54 1710.85,-286.45"/>
</a>
</g>
</g>
<!-- Node22 -->
<g id="Node000022" class="node">
<title>Node22</title>
<g id="a_Node000022"><a xlink:title=" ">
<polygon fill="#e0e0e0" stroke="#999999" points="1964.5,-283 1851.5,-283 1851.5,-253 1964.5,-253 1964.5,-283"/>
<text text-anchor="start" x="1859.5" y="-271" font-family="FreeSans" font-size="10.00">boost/property_tree</text>
<text text-anchor="middle" x="1908" y="-260" font-family="FreeSans" font-size="10.00">/json_parser.hpp</text>
</a>
</g>
</g>
<!-- Node7&#45;&gt;Node22 -->
<g id="edge24_Node000007_Node000022" class="edge">
<title>Node7&#45;&gt;Node22</title>
<g id="a_edge24_Node000007_Node000022"><a xlink:title=" ">
<path fill="none" stroke="#63b8ff" d="M1306.35,-330.06C1418.25,-324.8 1641.92,-311.67 1841.13,-282.99"/>
<polygon fill="#63b8ff" stroke="#63b8ff" points="1841.81,-286.43 1851.2,-281.53 1840.8,-279.5 1841.81,-286.43"/>
</a>
</g>
</g>
<!-- Node23 -->
<g id="Node000023" class="node">
<title>Node23</title>
<g id="a_Node000023"><a xlink:title=" ">
<polygon fill="#e0e0e0" stroke="#999999" points="2095.5,-283 1982.5,-283 1982.5,-253 2095.5,-253 2095.5,-283"/>
<text text-anchor="start" x="1990.5" y="-271" font-family="FreeSans" font-size="10.00">boost/property_tree</text>
<text text-anchor="middle" x="2039" y="-260" font-family="FreeSans" font-size="10.00">/ptree.hpp</text>
</a>
</g>
</g>
<!-- Node7&#45;&gt;Node23 -->
<g id="edge25_Node000007_Node000023" class="edge">
<title>Node7&#45;&gt;Node23</title>
<g id="a_edge25_Node000007_Node000023"><a xlink:title=" ">
<path fill="none" stroke="#63b8ff" d="M1306.07,-331.52C1436.32,-328.08 1722.08,-317.16 1972.2,-282.96"/>
<polygon fill="#63b8ff" stroke="#63b8ff" points="1972.78,-286.42 1982.21,-281.58 1971.82,-279.48 1972.78,-286.42"/>
</a>
</g>
</g>
<!-- Node24 -->
<g id="Node000024" class="node">
<title>Node24</title>
<g id="a_Node000024"><a xlink:title=" ">
<polygon fill="#e0e0e0" stroke="#999999" points="2226.5,-283 2113.5,-283 2113.5,-253 2226.5,-253 2226.5,-283"/>
<text text-anchor="start" x="2121.5" y="-271" font-family="FreeSans" font-size="10.00">boost/property_tree</text>
<text text-anchor="middle" x="2170" y="-260" font-family="FreeSans" font-size="10.00">/xml_parser.hpp</text>
</a>
</g>
</g>
<!-- Node7&#45;&gt;Node24 -->
<g id="edge26_Node000007_Node000024" class="edge">
<title>Node7&#45;&gt;Node24</title>
<g id="a_edge26_Node000007_Node000024"><a xlink:title=" ">
<path fill="none" stroke="#63b8ff" d="M1306.03,-332.55C1453.07,-330.83 1801.56,-322.66 2102.96,-282.98"/>
<polygon fill="#63b8ff" stroke="#63b8ff" points="2103.76,-286.41 2113.21,-281.62 2102.84,-279.47 2103.76,-286.41"/>
</a>
</g>
</g>
<!-- Node25 -->
<g id="Node000025" class="node">
<title>Node25</title>
<g id="a_Node000025"><a xlink:title=" ">
<polygon fill="#e0e0e0" stroke="#999999" points="2351.5,-283 2244.5,-283 2244.5,-253 2351.5,-253 2351.5,-283"/>
<text text-anchor="start" x="2252.5" y="-271" font-family="FreeSans" font-size="10.00">boost/serialization</text>
<text text-anchor="middle" x="2298" y="-260" font-family="FreeSans" font-size="10.00">/export.hpp</text>
</a>
</g>
</g>
<!-- Node7&#45;&gt;Node25 -->
<g id="edge27_Node000007_Node000025" class="edge">
<title>Node7&#45;&gt;Node25</title>
<g id="a_edge27_Node000007_Node000025"><a xlink:title=" ">
<path fill="none" stroke="#63b8ff" d="M1306,-333.55C1468.75,-333.92 1881.22,-329.84 2234.58,-282.87"/>
<polygon fill="#63b8ff" stroke="#63b8ff" points="2235.05,-286.33 2244.49,-281.53 2234.12,-279.4 2235.05,-286.33"/>
</a>
</g>
</g>
<!-- Node26 -->
<g id="Node000026" class="node">
<title>Node26</title>
<g id="a_Node000026"><a xlink:href="exenv_8h.html" target="_top" xlink:title=" ">
<polygon fill="white" stroke="#666666" points="704.5,-277.5 577.5,-277.5 577.5,-258.5 704.5,-258.5 704.5,-277.5"/>
<text text-anchor="middle" x="641" y="-265.5" font-family="FreeSans" font-size="10.00">mpqc/util/core/exenv.h</text>
</a>
</g>
</g>
<!-- Node7&#45;&gt;Node26 -->
<g id="edge28_Node000007_Node000026" class="edge">
<title>Node7&#45;&gt;Node26</title>
<g id="a_edge28_Node000007_Node000026"><a xlink:title=" ">
<path fill="none" stroke="#63b8ff" d="M1163.94,-325.34C1050.65,-313.14 830.17,-289.38 715.03,-276.98"/>
<polygon fill="#63b8ff" stroke="#63b8ff" points="715.22,-273.48 704.9,-275.89 714.47,-280.44 715.22,-273.48"/>
</a>
</g>
</g>
<!-- Node35 -->
<g id="Node000035" class="node">
<title>Node35</title>
<g id="a_Node000035"><a xlink:href="util_2keyval_2fwd_8h.html" target="_top" xlink:title=" ">
<polygon fill="white" stroke="#666666" points="2496.5,-277.5 2369.5,-277.5 2369.5,-258.5 2496.5,-258.5 2496.5,-277.5"/>
<text text-anchor="middle" x="2433" y="-265.5" font-family="FreeSans" font-size="10.00">mpqc/util/keyval/fwd.h</text>
</a>
</g>
</g>
<!-- Node7&#45;&gt;Node35 -->
<g id="edge46_Node000007_Node000035" class="edge">
<title>Node7&#45;&gt;Node35</title>
<g id="a_edge46_Node000007_Node000035"><a xlink:title=" ">
<path fill="none" stroke="#63b8ff" d="M1306.04,-333.41C1484.11,-333.66 1963.65,-329.56 2360,-283 2367.84,-282.08 2376.1,-280.8 2384.14,-279.38"/>
<polygon fill="#63b8ff" stroke="#63b8ff" points="2384.94,-282.79 2394.14,-277.54 2383.67,-275.91 2384.94,-282.79"/>
</a>
</g>
</g>
<!-- Node36 -->
<g id="Node000036" class="node">
<title>Node36</title>
<g id="a_Node000036"><a xlink:href="predicates_8h.html" target="_top" xlink:title=" ">
<polygon fill="white" stroke="#666666" points="2669,-277.5 2515,-277.5 2515,-258.5 2669,-258.5 2669,-277.5"/>
<text text-anchor="middle" x="2592" y="-265.5" font-family="FreeSans" font-size="10.00">mpqc/util/meta/predicates.h</text>
</a>
</g>
</g>
<!-- Node7&#45;&gt;Node36 -->
<g id="edge47_Node000007_Node000036" class="edge">
<title>Node7&#45;&gt;Node36</title>
<g id="a_edge47_Node000007_Node000036"><a xlink:title=" ">
<path fill="none" stroke="#63b8ff" d="M1306.12,-333.19C1499.33,-333.06 2049.95,-328.41 2505,-283 2514.93,-282.01 2525.45,-280.61 2535.62,-279.08"/>
<polygon fill="#63b8ff" stroke="#63b8ff" points="2536.29,-282.52 2545.63,-277.52 2535.21,-275.61 2536.29,-282.52"/>
</a>
</g>
</g>
<!-- Node43 -->
<g id="Node000043" class="node">
<title>Node43</title>
<g id="a_Node000043"><a xlink:href="stream_8h.html" target="_top" xlink:title=" ">
<polygon fill="white" stroke="#666666" points="2824.5,-277.5 2687.5,-277.5 2687.5,-258.5 2824.5,-258.5 2824.5,-277.5"/>
<text text-anchor="middle" x="2756" y="-265.5" font-family="FreeSans" font-size="10.00">mpqc/util/meta/stream.h</text>
</a>
</g>
</g>
<!-- Node7&#45;&gt;Node43 -->
<g id="edge57_Node000007_Node000043" class="edge">
<title>Node7&#45;&gt;Node43</title>
<g id="a_edge57_Node000007_Node000043"><a xlink:title=" ">
<path fill="none" stroke="#63b8ff" d="M1306,-331.89C1557.79,-327.72 2407.4,-311.82 2678,-283 2686.75,-282.07 2695.99,-280.73 2704.94,-279.24"/>
<polygon fill="#63b8ff" stroke="#63b8ff" points="2705.61,-282.68 2714.87,-277.52 2704.42,-275.78 2705.61,-282.68"/>
</a>
</g>
</g>
<!-- Node26&#45;&gt;Node5 -->
<g id="edge41_Node000026_Node000005" class="edge">
<title>Node26&#45;&gt;Node5</title>
<g id="a_edge41_Node000026_Node000005"><a xlink:title=" ">
<path fill="none" stroke="#63b8ff" d="M577.2,-262.76C501.26,-256.76 371,-243.43 262,-217 259.34,-216.35 256.61,-215.59 253.88,-214.76"/>
<polygon fill="#63b8ff" stroke="#63b8ff" points="254.8,-211.38 244.21,-211.54 252.59,-218.02 254.8,-211.38"/>
</a>
</g>
</g>
<!-- Node26&#45;&gt;Node6 -->
<g id="edge42_Node000026_Node000006" class="edge">
<title>Node26&#45;&gt;Node6</title>
<g id="a_edge42_Node000026_Node000006"><a xlink:title=" ">
<path fill="none" stroke="#63b8ff" d="M577.2,-258.64C510.1,-249.22 409.42,-233.1 374,-217 354.41,-208.09 354.52,-197.96 336,-187 309.58,-171.36 277.36,-158.05 253.27,-149.11"/>
<polygon fill="#63b8ff" stroke="#63b8ff" points="254.4,-145.8 243.81,-145.67 252.01,-152.37 254.4,-145.8"/>
</a>
</g>
</g>
<!-- Node26&#45;&gt;Node14 -->
<g id="edge43_Node000026_Node000014" class="edge">
<title>Node26&#45;&gt;Node14</title>
<g id="a_edge43_Node000026_Node000014"><a xlink:title=" ">
<path fill="none" stroke="#63b8ff" d="M577.49,-259.35C516.36,-251.31 421.58,-237.01 341,-217 338.04,-216.26 334.98,-215.42 331.94,-214.52"/>
<polygon fill="#63b8ff" stroke="#63b8ff" points="332.95,-211.17 322.36,-211.51 330.85,-217.84 332.95,-211.17"/>
</a>
</g>
</g>
<!-- Node26&#45;&gt;Node17 -->
<g id="edge45_Node000026_Node000017" class="edge">
<title>Node26&#45;&gt;Node17</title>
<g id="a_edge45_Node000026_Node000017"><a xlink:title=" ">
<path fill="none" stroke="#63b8ff" d="M674.56,-258.49C710.71,-249.12 769.8,-233.23 820,-217 821.91,-216.38 823.86,-215.73 825.83,-215.06"/>
<polygon fill="#63b8ff" stroke="#63b8ff" points="827.34,-218.23 835.6,-211.59 825,-211.64 827.34,-218.23"/>
</a>
</g>
</g>
<!-- Node26&#45;&gt;Node19 -->
<g id="edge32_Node000026_Node000019" class="edge">
<title>Node26&#45;&gt;Node19</title>
<g id="a_edge32_Node000026_Node000019"><a xlink:title=" ">
<path fill="none" stroke="#63b8ff" d="M704.58,-261.69C734.43,-255.63 767.45,-243.02 786,-217 817.04,-173.46 762.87,-114.52 732.48,-86.74"/>
<polygon fill="#63b8ff" stroke="#63b8ff" points="734.44,-83.79 724.64,-79.76 729.79,-89.02 734.44,-83.79"/>
</a>
</g>
</g>
<!-- Node27 -->
<g id="Node000027" class="node">
<title>Node27</title>
<g id="a_Node000027"><a xlink:href="math_2external_2tiledarray_2fwd_8h.html" target="_top" xlink:title=" ">
<polygon fill="white" stroke="#666666" points="649,-217 533,-217 533,-187 649,-187 649,-217"/>
<text text-anchor="start" x="541" y="-205" font-family="FreeSans" font-size="10.00">mpqc/math/external</text>
<text text-anchor="middle" x="591" y="-194" font-family="FreeSans" font-size="10.00">/tiledarray/fwd.h</text>
</a>
</g>
</g>
<!-- Node26&#45;&gt;Node27 -->
<g id="edge29_Node000026_Node000027" class="edge">
<title>Node26&#45;&gt;Node27</title>
<g id="a_edge29_Node000026_Node000027"><a xlink:title=" ">
<path fill="none" stroke="#63b8ff" d="M634.26,-258.37C627.65,-249.91 617.3,-236.67 608.39,-225.25"/>
<polygon fill="#63b8ff" stroke="#63b8ff" points="611.13,-223.09 602.22,-217.36 605.62,-227.4 611.13,-223.09"/>
</a>
</g>
</g>
<!-- Node29 -->
<g id="Node000029" class="node">
<title>Node29</title>
<g id="a_Node000029"><a xlink:href="formio_8h.html" target="_top" xlink:title=" ">
<polygon fill="white" stroke="#666666" points="514.5,-211.5 383.5,-211.5 383.5,-192.5 514.5,-192.5 514.5,-211.5"/>
<text text-anchor="middle" x="449" y="-199.5" font-family="FreeSans" font-size="10.00">mpqc/util/core/formio.h</text>
</a>
</g>
</g>
<!-- Node26&#45;&gt;Node29 -->
<g id="edge33_Node000026_Node000029" class="edge">
<title>Node26&#45;&gt;Node29</title>
<g id="a_edge33_Node000026_Node000029"><a xlink:title=" ">
<path fill="none" stroke="#63b8ff" d="M615.11,-258.37C581.37,-247.12 522.25,-227.42 484.39,-214.8"/>
<polygon fill="#63b8ff" stroke="#63b8ff" points="485.38,-211.44 474.79,-211.6 483.17,-218.08 485.38,-211.44"/>
</a>
</g>
</g>
<!-- Node33 -->
<g id="Node000033" class="node">
<title>Node33</title>
<g id="a_Node000033"><a xlink:title=" ">
<polygon fill="#e0e0e0" stroke="#999999" points="716.5,-211.5 667.5,-211.5 667.5,-192.5 716.5,-192.5 716.5,-211.5"/>
<text text-anchor="middle" x="692" y="-199.5" font-family="FreeSans" font-size="10.00">cstdlib</text>
</a>
</g>
</g>
<!-- Node26&#45;&gt;Node33 -->
<g id="edge40_Node000026_Node000033" class="edge">
<title>Node26&#45;&gt;Node33</title>
<g id="a_edge40_Node000026_Node000033"><a xlink:title=" ">
<path fill="none" stroke="#63b8ff" d="M647.88,-258.37C655.67,-248.59 668.55,-232.42 678.39,-220.08"/>
<polygon fill="#63b8ff" stroke="#63b8ff" points="681.41,-221.91 684.9,-211.91 675.93,-217.54 681.41,-221.91"/>
</a>
</g>
</g>
<!-- Node34 -->
<g id="Node000034" class="node">
<title>Node34</title>
<g id="a_Node000034"><a xlink:title=" ">
<polygon fill="#e0e0e0" stroke="#999999" points="777.5,-211.5 734.5,-211.5 734.5,-192.5 777.5,-192.5 777.5,-211.5"/>
<text text-anchor="middle" x="756" y="-199.5" font-family="FreeSans" font-size="10.00">stack</text>
</a>
</g>
</g>
<!-- Node26&#45;&gt;Node34 -->
<g id="edge44_Node000026_Node000034" class="edge">
<title>Node26&#45;&gt;Node34</title>
<g id="a_edge44_Node000026_Node000034"><a xlink:title=" ">
<path fill="none" stroke="#63b8ff" d="M656.51,-258.37C675.71,-247.68 708.66,-229.35 731.35,-216.72"/>
<polygon fill="#63b8ff" stroke="#63b8ff" points="733.33,-219.62 740.37,-211.7 729.93,-213.5 733.33,-219.62"/>
</a>
</g>
</g>
<!-- Node27&#45;&gt;Node19 -->
<g id="edge30_Node000027_Node000019" class="edge">
<title>Node27&#45;&gt;Node19</title>
<g id="a_edge30_Node000027_Node000019"><a xlink:title=" ">
<path fill="none" stroke="#63b8ff" d="M597.83,-186.82C606.47,-169.84 622.59,-141.19 642,-121 655.89,-106.55 674.54,-93.74 689.37,-84.7"/>
<polygon fill="#63b8ff" stroke="#63b8ff" points="691.21,-87.68 698.05,-79.58 687.65,-81.65 691.21,-87.68"/>
</a>
</g>
</g>
<!-- Node28 -->
<g id="Node000028" class="node">
<title>Node28</title>
<g id="a_Node000028"><a xlink:title=" ">
<polygon fill="#e0e0e0" stroke="#999999" points="746.5,-145.5 651.5,-145.5 651.5,-126.5 746.5,-126.5 746.5,-145.5"/>
<text text-anchor="middle" x="699" y="-133.5" font-family="FreeSans" font-size="10.00">tiledarray_fwd.h</text>
</a>
</g>
</g>
<!-- Node27&#45;&gt;Node28 -->
<g id="edge31_Node000027_Node000028" class="edge">
<title>Node27&#45;&gt;Node28</title>
<g id="a_edge31_Node000027_Node000028"><a xlink:title=" ">
<path fill="none" stroke="#63b8ff" d="M614.7,-186.95C632.89,-176.18 657.86,-161.38 675.9,-150.69"/>
<polygon fill="#63b8ff" stroke="#63b8ff" points="677.81,-153.63 684.63,-145.52 674.24,-147.6 677.81,-153.63"/>
</a>
</g>
</g>
<!-- Node29&#45;&gt;Node6 -->
<g id="edge36_Node000029_Node000006" class="edge">
<title>Node29&#45;&gt;Node6</title>
<g id="a_edge36_Node000029_Node000006"><a xlink:title=" ">
<path fill="none" stroke="#63b8ff" d="M417.85,-192.37C376.17,-180.82 302.28,-160.35 256.97,-147.8"/>
<polygon fill="#63b8ff" stroke="#63b8ff" points="257.78,-144.39 247.21,-145.09 255.91,-151.13 257.78,-144.39"/>
</a>
</g>
</g>
<!-- Node29&#45;&gt;Node13 -->
<g id="edge35_Node000029_Node000013" class="edge">
<title>Node29&#45;&gt;Node13</title>
<g id="a_edge35_Node000029_Node000013"><a xlink:title=" ">
<path fill="none" stroke="#63b8ff" d="M466.13,-192.37C487.62,-181.54 524.7,-162.85 549.77,-150.22"/>
<polygon fill="#63b8ff" stroke="#63b8ff" points="551.38,-153.32 558.74,-145.7 548.23,-147.07 551.38,-153.32"/>
</a>
</g>
</g>
<!-- Node30 -->
<g id="Node000030" class="node">
<title>Node30</title>
<g id="a_Node000030"><a xlink:title=" ">
<polygon fill="#e0e0e0" stroke="#999999" points="415,-145.5 367,-145.5 367,-126.5 415,-126.5 415,-145.5"/>
<text text-anchor="middle" x="391" y="-133.5" font-family="FreeSans" font-size="10.00">iosfwd</text>
</a>
</g>
</g>
<!-- Node29&#45;&gt;Node30 -->
<g id="edge34_Node000029_Node000030" class="edge">
<title>Node29&#45;&gt;Node30</title>
<g id="a_edge34_Node000029_Node000030"><a xlink:title=" ">
<path fill="none" stroke="#63b8ff" d="M441.18,-192.37C432.15,-182.4 417.09,-165.79 405.83,-153.36"/>
<polygon fill="#63b8ff" stroke="#63b8ff" points="408.38,-150.96 399.07,-145.91 403.19,-155.67 408.38,-150.96"/>
</a>
</g>
</g>
<!-- Node31 -->
<g id="Node000031" class="node">
<title>Node31</title>
<g id="a_Node000031"><a xlink:href="scope.html" target="_top" xlink:title=" ">
<polygon fill="white" stroke="#666666" points="539,-151 433,-151 433,-121 539,-121 539,-151"/>
<text text-anchor="start" x="441" y="-139" font-family="FreeSans" font-size="10.00">mpqc/util/external</text>
<text text-anchor="middle" x="486" y="-128" font-family="FreeSans" font-size="10.00">/c++/scope</text>
</a>
</g>
</g>
<!-- Node29&#45;&gt;Node31 -->
<g id="edge37_Node000029_Node000031" class="edge">
<title>Node29&#45;&gt;Node31</title>
<g id="a_edge37_Node000029_Node000031"><a xlink:title=" ">
<path fill="none" stroke="#63b8ff" d="M453.99,-192.37C458.74,-184.16 466.09,-171.44 472.56,-160.26"/>
<polygon fill="#63b8ff" stroke="#63b8ff" points="475.72,-161.77 477.7,-151.36 469.66,-158.27 475.72,-161.77"/>
</a>
</g>
</g>
<!-- Node31&#45;&gt;Node19 -->
<g id="edge38_Node000031_Node000019" class="edge">
<title>Node31&#45;&gt;Node19</title>
<g id="a_edge38_Node000031_Node000019"><a xlink:title=" ">
<path fill="none" stroke="#63b8ff" d="M536.04,-120.95C577.43,-109.34 635.46,-93.05 673.86,-82.27"/>
<polygon fill="#63b8ff" stroke="#63b8ff" points="674.98,-85.59 683.66,-79.52 673.08,-78.85 674.98,-85.59"/>
</a>
</g>
</g>
<!-- Node32 -->
<g id="Node000032" class="node">
<title>Node32</title>
<g id="a_Node000032"><a xlink:title=" ">
<polygon fill="#e0e0e0" stroke="#999999" points="508.5,-79.5 463.5,-79.5 463.5,-60.5 508.5,-60.5 508.5,-79.5"/>
<text text-anchor="middle" x="486" y="-67.5" font-family="FreeSans" font-size="10.00">utility</text>
</a>
</g>
</g>
<!-- Node31&#45;&gt;Node32 -->
<g id="edge39_Node000031_Node000032" class="edge">
<title>Node31&#45;&gt;Node32</title>
<g id="a_edge39_Node000031_Node000032"><a xlink:title=" ">
<path fill="none" stroke="#63b8ff" d="M486,-120.8C486,-111.7 486,-99.79 486,-89.9"/>
<polygon fill="#63b8ff" stroke="#63b8ff" points="489.5,-89.84 486,-79.84 482.5,-89.84 489.5,-89.84"/>
</a>
</g>
</g>
<!-- Node37 -->
<g id="Node000037" class="node">
<title>Node37</title>
<g id="a_Node000037"><a xlink:href="get__type_8h.html" target="_top" xlink:title=" ">
<polygon fill="white" stroke="#666666" points="2476,-217 2366,-217 2366,-187 2476,-187 2476,-217"/>
<text text-anchor="start" x="2374" y="-205" font-family="FreeSans" font-size="10.00">mpqc/util/meta/get</text>
<text text-anchor="middle" x="2421" y="-194" font-family="FreeSans" font-size="10.00">_type.h</text>
</a>
</g>
</g>
<!-- Node36&#45;&gt;Node37 -->
<g id="edge48_Node000036_Node000037" class="edge">
<title>Node36&#45;&gt;Node37</title>
<g id="a_edge48_Node000036_Node000037"><a xlink:title=" ">
<path fill="none" stroke="#63b8ff" d="M2568.94,-258.37C2543.22,-248.74 2500.92,-232.91 2468.12,-220.64"/>
<polygon fill="#63b8ff" stroke="#63b8ff" points="2469.31,-217.34 2458.72,-217.12 2466.85,-223.9 2469.31,-217.34"/>
</a>
</g>
</g>
<!-- Node38 -->
<g id="Node000038" class="node">
<title>Node38</title>
<g id="a_Node000038"><a xlink:href="type__traits_8h.html" target="_top" xlink:title=" ">
<polygon fill="white" stroke="#666666" points="1778,-145.5 1700,-145.5 1700,-126.5 1778,-126.5 1778,-145.5"/>
<text text-anchor="middle" x="1739" y="-133.5" font-family="FreeSans" font-size="10.00">type_traits.h</text>
</a>
</g>
</g>
<!-- Node37&#45;&gt;Node38 -->
<g id="edge49_Node000037_Node000038" class="edge">
<title>Node37&#45;&gt;Node38</title>
<g id="a_edge49_Node000037_Node000038"><a xlink:title=" ">
<path fill="none" stroke="#63b8ff" d="M2365.77,-195.82C2235.76,-183.62 1912.09,-153.24 1788.26,-141.62"/>
<polygon fill="#63b8ff" stroke="#63b8ff" points="1788.58,-138.14 1778.3,-140.69 1787.93,-145.11 1788.58,-138.14"/>
</a>
</g>
</g>
<!-- Node38&#45;&gt;Node8 -->
<g id="edge50_Node000038_Node000008" class="edge">
<title>Node38&#45;&gt;Node8</title>
<g id="a_edge50_Node000038_Node000008"><a xlink:title=" ">
<path fill="none" stroke="#63b8ff" d="M1699.84,-130.7C1590.95,-118.75 1286.09,-85.28 1187.32,-74.44"/>
<polygon fill="#63b8ff" stroke="#63b8ff" points="1187.42,-70.93 1177.1,-73.32 1186.66,-77.89 1187.42,-70.93"/>
</a>
</g>
</g>
<!-- Node39 -->
<g id="Node000039" class="node">
<title>Node39</title>
<g id="a_Node000039"><a xlink:title=" ">
<polygon fill="#e0e0e0" stroke="#999999" points="1804,-19 1754,-19 1754,0 1804,0 1804,-19"/>
<text text-anchor="middle" x="1779" y="-7" font-family="FreeSans" font-size="10.00">atomic</text>
</a>
</g>
</g>
<!-- Node38&#45;&gt;Node39 -->
<g id="edge51_Node000038_Node000039" class="edge">
<title>Node38&#45;&gt;Node39</title>
<g id="a_edge51_Node000038_Node000039"><a xlink:title=" ">
<path fill="none" stroke="#63b8ff" d="M1756.89,-126.34C1771.77,-118.03 1791.93,-103.96 1801,-85 1809.96,-66.26 1800.17,-43.1 1790.96,-27.62"/>
<polygon fill="#63b8ff" stroke="#63b8ff" points="1793.82,-25.6 1785.46,-19.09 1787.93,-29.39 1793.82,-25.6"/>
</a>
</g>
</g>
<!-- Node40 -->
<g id="Node000040" class="node">
<title>Node40</title>
<g id="a_Node000040"><a xlink:title=" ">
<polygon fill="#e0e0e0" stroke="#999999" points="1917.5,-79.5 1848.5,-79.5 1848.5,-60.5 1917.5,-60.5 1917.5,-79.5"/>
<text text-anchor="middle" x="1883" y="-67.5" font-family="FreeSans" font-size="10.00">type_traits</text>
</a>
</g>
</g>
<!-- Node38&#45;&gt;Node40 -->
<g id="edge52_Node000038_Node000040" class="edge">
<title>Node38&#45;&gt;Node40</title>
<g id="a_edge52_Node000038_Node000040"><a xlink:title=" ">
<path fill="none" stroke="#63b8ff" d="M1758.42,-126.37C1783.01,-115.44 1825.57,-96.52 1854.01,-83.88"/>
<polygon fill="#63b8ff" stroke="#63b8ff" points="1855.71,-86.96 1863.43,-79.7 1852.87,-80.56 1855.71,-86.96"/>
</a>
</g>
</g>
<!-- Node41 -->
<g id="Node000041" class="node">
<title>Node41</title>
<g id="a_Node000041"><a xlink:href="atomic_8h.html" target="_top" xlink:title=" ">
<polygon fill="white" stroke="#666666" points="1792,-85 1686,-85 1686,-55 1792,-55 1792,-85"/>
<text text-anchor="start" x="1694" y="-73" font-family="FreeSans" font-size="10.00">mpqc/util/external</text>
<text text-anchor="middle" x="1739" y="-62" font-family="FreeSans" font-size="10.00">/c++/atomic.h</text>
</a>
</g>
</g>
<!-- Node38&#45;&gt;Node41 -->
<g id="edge53_Node000038_Node000041" class="edge">
<title>Node38&#45;&gt;Node41</title>
<g id="a_edge53_Node000038_Node000041"><a xlink:title=" ">
<path fill="none" stroke="#63b8ff" d="M1739,-126.37C1739,-118.49 1739,-106.45 1739,-95.6"/>
<polygon fill="#63b8ff" stroke="#63b8ff" points="1742.5,-95.36 1739,-85.36 1735.5,-95.36 1742.5,-95.36"/>
</a>
</g>
</g>
<!-- Node42 -->
<g id="Node000042" class="node">
<title>Node42</title>
<g id="a_Node000042"><a xlink:href="sfinae_8h.html" target="_top" xlink:title=" ">
<polygon fill="white" stroke="#666666" points="1668,-79.5 1536,-79.5 1536,-60.5 1668,-60.5 1668,-79.5"/>
<text text-anchor="middle" x="1602" y="-67.5" font-family="FreeSans" font-size="10.00">mpqc/util/meta/sfinae.h</text>
</a>
</g>
</g>
<!-- Node38&#45;&gt;Node42 -->
<g id="edge55_Node000038_Node000042" class="edge">
<title>Node38&#45;&gt;Node42</title>
<g id="a_edge55_Node000038_Node000042"><a xlink:title=" ">
<path fill="none" stroke="#63b8ff" d="M1715.74,-126.37C1690.35,-115.59 1650.33,-97.02 1625.04,-84.38"/>
<polygon fill="#63b8ff" stroke="#63b8ff" points="1626.32,-81.11 1615.82,-79.7 1623.15,-87.35 1626.32,-81.11"/>
</a>
</g>
</g>
<!-- Node41&#45;&gt;Node39 -->
<g id="edge54_Node000041_Node000039" class="edge">
<title>Node41&#45;&gt;Node39</title>
<g id="a_edge54_Node000041_Node000039"><a xlink:title=" ">
<path fill="none" stroke="#63b8ff" d="M1748.68,-54.84C1754.25,-46.69 1761.29,-36.4 1767.18,-27.78"/>
<polygon fill="#63b8ff" stroke="#63b8ff" points="1770.25,-29.5 1773.01,-19.27 1764.47,-25.55 1770.25,-29.5"/>
</a>
</g>
</g>
<!-- Node42&#45;&gt;Node38 -->
<g id="edge56_Node000042_Node000038" class="edge">
<title>Node42&#45;&gt;Node38</title>
<g id="a_edge56_Node000042_Node000038"><a xlink:title=" ">
<path fill="none" stroke="#63b8ff" d="M1625.42,-79.7C1650.87,-90.51 1690.89,-109.09 1716.12,-121.69"/>
<polygon fill="#63b8ff" stroke="#63b8ff" points="1714.81,-124.96 1725.31,-126.37 1717.98,-118.72 1714.81,-124.96"/>
</a>
</g>
</g>
<!-- Node44 -->
<g id="Node000044" class="node">
<title>Node44</title>
<g id="a_Node000044"><a xlink:title=" ">
<polygon fill="#e0e0e0" stroke="#999999" points="2814,-217 2698,-217 2698,-187 2814,-187 2814,-217"/>
<text text-anchor="start" x="2706" y="-205" font-family="FreeSans" font-size="10.00">madness/world/type</text>
<text text-anchor="middle" x="2756" y="-194" font-family="FreeSans" font-size="10.00">_traits.h</text>
</a>
</g>
</g>
<!-- Node43&#45;&gt;Node44 -->
<g id="edge58_Node000043_Node000044" class="edge">
<title>Node43&#45;&gt;Node44</title>
<g id="a_edge58_Node000043_Node000044"><a xlink:title=" ">
<path fill="none" stroke="#63b8ff" d="M2756,-258.37C2756,-250.49 2756,-238.45 2756,-227.6"/>
<polygon fill="#63b8ff" stroke="#63b8ff" points="2759.5,-227.36 2756,-217.36 2752.5,-227.36 2759.5,-227.36"/>
</a>
</g>
</g>
</g>
</svg>

<g id="navigator" transform="translate(0 0)" fill="#404254">
  <rect fill="#f2f5e9" fill-opacity="0.5" stroke="#606060" stroke-width=".5" x="0" y="0" width="60" height="60"/>
  <use id="zoomplus" xlink:href="#zoomPlus" x="17" y="9" onmousedown="handleZoom(evt,'in')"/>
  <use id="zoomminus" xlink:href="#zoomMin" x="42" y="9" onmousedown="handleZoom(evt,'out')"/>
  <use id="reset" xlink:href="#resetDef" x="30" y="36" onmousedown="handleReset()"/>
   <use id="arrowup" xlink:href="#arrowUp" x="0" y="0" onmousedown="handlePan(0,-1)"/>
  <use id="arrowright" xlink:href="#arrowRight" x="0" y="0" onmousedown="handlePan(1,0)"/>
  <use id="arrowdown" xlink:href="#arrowDown" x="0" y="0" onmousedown="handlePan(0,1)"/>
  <use id="arrowleft" xlink:href="#arrowLeft" x="0" y="0" onmousedown="handlePan(-1,0)"/>
</g>
<svg viewBox="0 0 15 15" width="100%" height="30px" preserveAspectRatio="xMaxYMin meet">
 <g id="arrow_out" transform="scale(0.3 0.3)">
  <a xlink:href="optimize_8h__incl_org.svg" target="_base">
   <rect id="button" ry="5" rx="5" y="6" x="6" height="38" width="38"
        fill="#f2f5e9" fill-opacity="0.5" stroke="#606060" stroke-width="1.0"/>
   <path id="arrow"
     d="M 11.500037,31.436501 C 11.940474,20.09759 22.043105,11.32322 32.158766,21.979434 L 37.068811,17.246167 C 37.068811,17.246167 37.088388,32 37.088388,32 L 22.160133,31.978069 C 22.160133,31.978069 26.997745,27.140456 26.997745,27.140456 C 18.528582,18.264221 13.291696,25.230495 11.500037,31.436501 z"
     style="fill:#404040;"/>
  </a>
 </g>
</svg>

<style type='text/css'>
<![CDATA[
[data-mouse-over-selected='false'] { opacity: 0.7; }
[data-mouse-over-selected='true']  { opacity: 1.0; }
]]>
</style>
<script type="application/ecmascript"><![CDATA[
document.addEventListener('DOMContentLoaded', (event) => {
  highlightEdges();
  highlightAdjacentNodes();
});
]]></script>
</svg>
