<?xml version="1.0" encoding="UTF-8" standalone="no"?>
<!DOCTYPE svg PUBLIC "-//W3C//DTD SVG 1.1//EN"
 "http://www.w3.org/Graphics/SVG/1.1/DTD/svg11.dtd">
<!-- Generated by graphviz version 2.43.0 (0)
 -->
<!-- Title: mpqc/math/fock/orb.h Pages: 1 -->
<svg width="492pt" height="379pt"
 viewBox="0.00 0.00 491.68 379.00" xmlns="http://www.w3.org/2000/svg" xmlns:xlink="http://www.w3.org/1999/xlink">
<g id="graph0" class="graph" transform="scale(1 1) rotate(0) translate(4 375)">
<title>mpqc/math/fock/orb.h</title>
<!-- Node1 -->
<g id="Node000001" class="node">
<title>Node1</title>
<g id="a_Node000001"><a xlink:title=" ">
<polygon fill="#999999" stroke="#666666" points="176,-371 52,-371 52,-352 176,-352 176,-371"/>
<text text-anchor="middle" x="114" y="-359" font-family="FreeSans" font-size="10.00">mpqc/math/fock/orb.h</text>
</a>
</g>
</g>
<!-- Node2 -->
<g id="Node000002" class="node">
<title>Node2</title>
<g id="a_Node000002"><a xlink:href="hb_8h.html" target="_top" xlink:title=" ">
<polygon fill="white" stroke="#666666" points="120,-151 0,-151 0,-132 120,-132 120,-151"/>
<text text-anchor="middle" x="60" y="-139" font-family="FreeSans" font-size="10.00">mpqc/math/fock/hb.h</text>
</a>
</g>
</g>
<!-- Node1&#45;&gt;Node2 -->
<g id="edge1_Node000001_Node000002" class="edge">
<title>Node1&#45;&gt;Node2</title>
<g id="a_edge1_Node000001_Node000002"><a xlink:title=" ">
<path fill="none" stroke="#63b8ff" d="M109.45,-342.13C98.35,-297.3 70.18,-183.6 62.16,-151.22"/>
<polygon fill="#63b8ff" stroke="#63b8ff" points="106.08,-343.09 111.88,-351.95 112.88,-341.41 106.08,-343.09"/>
</a>
</g>
</g>
<!-- Node5 -->
<g id="Node000005" class="node">
<title>Node5</title>
<g id="a_Node000005"><a xlink:href="math_2fock_2string_8h.html" target="_top" xlink:title=" ">
<polygon fill="white" stroke="#666666" points="317,-316 181,-316 181,-297 317,-297 317,-316"/>
<text text-anchor="middle" x="249" y="-304" font-family="FreeSans" font-size="10.00">mpqc/math/fock/string.h</text>
</a>
</g>
</g>
<!-- Node1&#45;&gt;Node5 -->
<g id="edge4_Node000001_Node000005" class="edge">
<title>Node1&#45;&gt;Node5</title>
<g id="a_edge4_Node000001_Node000005"><a xlink:title=" ">
<path fill="none" stroke="#63b8ff" d="M145.1,-348.29C170.12,-338.47 204.66,-324.91 226.92,-316.17"/>
<polygon fill="#63b8ff" stroke="#63b8ff" points="143.72,-345.07 135.69,-351.98 146.28,-351.59 143.72,-345.07"/>
</a>
</g>
</g>
<!-- Node3 -->
<g id="Node000003" class="node">
<title>Node3</title>
<g id="a_Node000003"><a xlink:href="sci_8ipp.html" target="_top" xlink:title=" ">
<polygon fill="white" stroke="#666666" points="434.5,-96 301.5,-96 301.5,-66 434.5,-66 434.5,-96"/>
<text text-anchor="start" x="309.5" y="-84" font-family="FreeSans" font-size="10.00">mpqc/chemistry/qc/lcao</text>
<text text-anchor="middle" x="368" y="-73" font-family="FreeSans" font-size="10.00">/ci/sci.ipp</text>
</a>
</g>
</g>
<!-- Node2&#45;&gt;Node3 -->
<g id="edge2_Node000002_Node000003" class="edge">
<title>Node2&#45;&gt;Node3</title>
<g id="a_edge2_Node000002_Node000003"><a xlink:title=" ">
<path fill="none" stroke="#63b8ff" d="M114.85,-130.08C167,-120.18 245.53,-105.26 301.28,-94.67"/>
<polygon fill="#63b8ff" stroke="#63b8ff" points="113.96,-126.69 104.79,-131.99 115.26,-133.57 113.96,-126.69"/>
</a>
</g>
</g>
<!-- Node4 -->
<g id="Node000004" class="node">
<title>Node4</title>
<g id="a_Node000004"><a xlink:href="sci_8cpp.html" target="_top" xlink:title=" ">
<polygon fill="white" stroke="#666666" points="434.5,-30 301.5,-30 301.5,0 434.5,0 434.5,-30"/>
<text text-anchor="start" x="309.5" y="-18" font-family="FreeSans" font-size="10.00">mpqc/chemistry/qc/lcao</text>
<text text-anchor="middle" x="368" y="-7" font-family="FreeSans" font-size="10.00">/ci/sci.cpp</text>
</a>
</g>
</g>
<!-- Node3&#45;&gt;Node4 -->
<g id="edge3_Node000003_Node000004" class="edge">
<title>Node3&#45;&gt;Node4</title>
<g id="a_edge3_Node000003_Node000004"><a xlink:title=" ">
<path fill="none" stroke="#63b8ff" d="M368,-55.54C368,-46.96 368,-37.61 368,-30.16"/>
<polygon fill="#63b8ff" stroke="#63b8ff" points="364.5,-55.8 368,-65.8 371.5,-55.8 364.5,-55.8"/>
</a>
</g>
</g>
<!-- Node5&#45;&gt;Node3 -->
<g id="edge5_Node000005_Node000003" class="edge">
<title>Node5&#45;&gt;Node3</title>
<g id="a_edge5_Node000005_Node000003"><a xlink:title=" ">
<path fill="none" stroke="#63b8ff" d="M301.48,-294.35C348.92,-281.41 416.86,-255.25 454,-206 474.66,-178.6 494.48,-160.91 476,-132 465.04,-114.85 446.53,-103.5 427.89,-96.02"/>
<polygon fill="#63b8ff" stroke="#63b8ff" points="300.47,-290.99 291.68,-296.91 302.24,-297.77 300.47,-290.99"/>
</a>
</g>
</g>
<!-- Node6 -->
<g id="Node000006" class="node">
<title>Node6</title>
<g id="a_Node000006"><a xlink:href="iter_8h.html" target="_top" xlink:title=" ">
<polygon fill="white" stroke="#666666" points="228,-206 104,-206 104,-187 228,-187 228,-206"/>
<text text-anchor="middle" x="166" y="-194" font-family="FreeSans" font-size="10.00">mpqc/math/fock/iter.h</text>
</a>
</g>
</g>
<!-- Node5&#45;&gt;Node6 -->
<g id="edge6_Node000005_Node000006" class="edge">
<title>Node5&#45;&gt;Node6</title>
<g id="a_edge6_Node000005_Node000006"><a xlink:title=" ">
<path fill="none" stroke="#63b8ff" d="M236.08,-288.69C218.16,-265.37 186.4,-224.05 172.65,-206.16"/>
<polygon fill="#63b8ff" stroke="#63b8ff" points="233.34,-290.87 242.21,-296.66 238.89,-286.6 233.34,-290.87"/>
</a>
</g>
</g>
<!-- Node9 -->
<g id="Node000009" class="node">
<title>Node9</title>
<g id="a_Node000009"><a xlink:href="sdseq_8h.html" target="_top" xlink:title=" ">
<polygon fill="white" stroke="#666666" points="373.5,-261 236.5,-261 236.5,-242 373.5,-242 373.5,-261"/>
<text text-anchor="middle" x="305" y="-249" font-family="FreeSans" font-size="10.00">mpqc/math/fock/sdseq.h</text>
</a>
</g>
</g>
<!-- Node5&#45;&gt;Node9 -->
<g id="edge12_Node000005_Node000009" class="edge">
<title>Node5&#45;&gt;Node9</title>
<g id="a_edge12_Node000005_Node000009"><a xlink:title=" ">
<path fill="none" stroke="#63b8ff" d="M265.33,-290.04C275.26,-280.64 287.59,-268.98 295.84,-261.17"/>
<polygon fill="#63b8ff" stroke="#63b8ff" points="262.85,-287.57 258,-296.98 267.67,-292.65 262.85,-287.57"/>
</a>
</g>
</g>
<!-- Node6&#45;&gt;Node2 -->
<g id="edge9_Node000006_Node000002" class="edge">
<title>Node6&#45;&gt;Node2</title>
<g id="a_edge9_Node000006_Node000002"><a xlink:title=" ">
<path fill="none" stroke="#63b8ff" d="M140,-182.5C120.5,-172.75 94.35,-159.68 77.34,-151.17"/>
<polygon fill="#63b8ff" stroke="#63b8ff" points="138.46,-185.64 148.97,-186.98 141.59,-179.38 138.46,-185.64"/>
</a>
</g>
</g>
<!-- Node7 -->
<g id="Node000007" class="node">
<title>Node7</title>
<g id="a_Node000007"><a xlink:href="hamiltonian_8h.html" target="_top" xlink:title=" ">
<polygon fill="white" stroke="#666666" points="451.5,-151 284.5,-151 284.5,-132 451.5,-132 451.5,-151"/>
<text text-anchor="middle" x="368" y="-139" font-family="FreeSans" font-size="10.00">mpqc/math/fock/hamiltonian.h</text>
</a>
</g>
</g>
<!-- Node6&#45;&gt;Node7 -->
<g id="edge7_Node000006_Node000007" class="edge">
<title>Node6&#45;&gt;Node7</title>
<g id="a_edge7_Node000006_Node000007"><a xlink:title=" ">
<path fill="none" stroke="#63b8ff" d="M208.16,-184.44C245.98,-174.52 300.69,-160.16 335.29,-151.08"/>
<polygon fill="#63b8ff" stroke="#63b8ff" points="207.24,-181.06 198.45,-186.98 209.02,-187.83 207.24,-181.06"/>
</a>
</g>
</g>
<!-- Node8 -->
<g id="Node000008" class="node">
<title>Node8</title>
<g id="a_Node000008"><a xlink:href="math_2fock_2rdm_8h.html" target="_top" xlink:title=" ">
<polygon fill="white" stroke="#666666" points="266,-151 138,-151 138,-132 266,-132 266,-151"/>
<text text-anchor="middle" x="202" y="-139" font-family="FreeSans" font-size="10.00">mpqc/math/fock/rdm.h</text>
</a>
</g>
</g>
<!-- Node6&#45;&gt;Node8 -->
<g id="edge10_Node000006_Node000008" class="edge">
<title>Node6&#45;&gt;Node8</title>
<g id="a_edge10_Node000006_Node000008"><a xlink:title=" ">
<path fill="none" stroke="#63b8ff" d="M177.62,-178.39C183.82,-169.27 191.17,-158.45 196.17,-151.09"/>
<polygon fill="#63b8ff" stroke="#63b8ff" points="174.67,-176.51 171.94,-186.75 180.46,-180.44 174.67,-176.51"/>
</a>
</g>
</g>
<!-- Node7&#45;&gt;Node3 -->
<g id="edge8_Node000007_Node000003" class="edge">
<title>Node7&#45;&gt;Node3</title>
<g id="a_edge8_Node000007_Node000003"><a xlink:title=" ">
<path fill="none" stroke="#63b8ff" d="M368,-121.65C368,-113.36 368,-103.78 368,-96.11"/>
<polygon fill="#63b8ff" stroke="#63b8ff" points="364.5,-121.87 368,-131.87 371.5,-121.87 364.5,-121.87"/>
</a>
</g>
</g>
<!-- Node8&#45;&gt;Node3 -->
<g id="edge11_Node000008_Node000003" class="edge">
<title>Node8&#45;&gt;Node3</title>
<g id="a_edge11_Node000008_Node000003"><a xlink:title=" ">
<path fill="none" stroke="#63b8ff" d="M235.82,-128.58C262.54,-119.16 299.9,-106 328.09,-96.06"/>
<polygon fill="#63b8ff" stroke="#63b8ff" points="234.41,-125.37 226.14,-131.99 236.73,-131.97 234.41,-125.37"/>
</a>
</g>
</g>
<!-- Node9&#45;&gt;Node3 -->
<g id="edge13_Node000009_Node000003" class="edge">
<title>Node9&#45;&gt;Node3</title>
<g id="a_edge13_Node000009_Node000003"><a xlink:title=" ">
<path fill="none" stroke="#63b8ff" d="M364.9,-239.36C387.89,-232.72 413.11,-222.28 432,-206 452.93,-187.96 454.36,-177.82 461,-151 463.03,-142.8 465.33,-139.25 461,-132 451.03,-115.32 433.37,-103.88 416.1,-96.2"/>
<polygon fill="#63b8ff" stroke="#63b8ff" points="363.95,-235.99 355.21,-241.98 365.78,-242.75 363.95,-235.99"/>
</a>
</g>
</g>
<!-- Node9&#45;&gt;Node6 -->
<g id="edge15_Node000009_Node000006" class="edge">
<title>Node9&#45;&gt;Node6</title>
<g id="a_edge15_Node000009_Node000006"><a xlink:title=" ">
<path fill="none" stroke="#63b8ff" d="M273.32,-238.42C247.53,-228.59 211.76,-214.95 188.74,-206.17"/>
<polygon fill="#63b8ff" stroke="#63b8ff" points="272.08,-241.69 282.67,-241.98 274.57,-235.15 272.08,-241.69"/>
</a>
</g>
</g>
<!-- Node9&#45;&gt;Node7 -->
<g id="edge14_Node000009_Node000007" class="edge">
<title>Node9&#45;&gt;Node7</title>
<g id="a_edge14_Node000009_Node000007"><a xlink:title=" ">
<path fill="none" stroke="#63b8ff" d="M370.71,-238.71C388.7,-232.15 406.19,-221.92 417,-206 430.84,-185.61 402.12,-163.06 383.07,-151.08"/>
<polygon fill="#63b8ff" stroke="#63b8ff" points="369.12,-235.55 360.71,-242 371.3,-242.2 369.12,-235.55"/>
</a>
</g>
</g>
<!-- Node9&#45;&gt;Node8 -->
<g id="edge16_Node000009_Node000008" class="edge">
<title>Node9&#45;&gt;Node8</title>
<g id="a_edge16_Node000009_Node000008"><a xlink:title=" ">
<path fill="none" stroke="#63b8ff" d="M289.55,-234.3C267.42,-211.1 227.47,-169.21 210.26,-151.16"/>
<polygon fill="#63b8ff" stroke="#63b8ff" points="287.14,-236.84 296.57,-241.66 292.2,-232.01 287.14,-236.84"/>
</a>
</g>
</g>
<!-- Node10 -->
<g id="Node000010" class="node">
<title>Node10</title>
<g id="a_Node000010"><a xlink:href="math_2fock_2util_8h.html" target="_top" xlink:title=" ">
<polygon fill="white" stroke="#666666" points="408,-206 284,-206 284,-187 408,-187 408,-206"/>
<text text-anchor="middle" x="346" y="-194" font-family="FreeSans" font-size="10.00">mpqc/math/fock/util.h</text>
</a>
</g>
</g>
<!-- Node9&#45;&gt;Node10 -->
<g id="edge17_Node000009_Node000010" class="edge">
<title>Node9&#45;&gt;Node10</title>
<g id="a_edge17_Node000009_Node000010"><a xlink:title=" ">
<path fill="none" stroke="#63b8ff" d="M318.02,-233.67C325.12,-224.5 333.6,-213.52 339.36,-206.09"/>
<polygon fill="#63b8ff" stroke="#63b8ff" points="315.12,-231.7 311.77,-241.75 320.66,-235.98 315.12,-231.7"/>
</a>
</g>
</g>
<!-- Node10&#45;&gt;Node7 -->
<g id="edge18_Node000010_Node000007" class="edge">
<title>Node10&#45;&gt;Node7</title>
<g id="a_edge18_Node000010_Node000007"><a xlink:title=" ">
<path fill="none" stroke="#63b8ff" d="M353.58,-177.24C357.26,-168.37 361.51,-158.14 364.43,-151.09"/>
<polygon fill="#63b8ff" stroke="#63b8ff" points="350.23,-176.17 349.63,-186.75 356.7,-178.85 350.23,-176.17"/>
</a>
</g>
</g>
<!-- Node10&#45;&gt;Node8 -->
<g id="edge19_Node000010_Node000008" class="edge">
<title>Node10&#45;&gt;Node8</title>
<g id="a_edge19_Node000010_Node000008"><a xlink:title=" ">
<path fill="none" stroke="#63b8ff" d="M313.18,-183.42C286.47,-173.59 249.4,-159.95 225.56,-151.17"/>
<polygon fill="#63b8ff" stroke="#63b8ff" points="312.27,-186.82 322.86,-186.98 314.69,-180.25 312.27,-186.82"/>
</a>
</g>
</g>
</g>
</svg>
