<?xml version="1.0" encoding="UTF-8" standalone="no"?>
<!DOCTYPE svg PUBLIC "-//W3C//DTD SVG 1.1//EN"
 "http://www.w3.org/Graphics/SVG/1.1/DTD/svg11.dtd">
<!-- Generated by graphviz version 2.43.0 (0)
 -->
<!-- Title: mpqc/util/external/madworld/parallel_file.h Pages: 1 -->
<svg width="600pt" height="104pt"
 viewBox="0.00 0.00 599.50 104.00" xmlns="http://www.w3.org/2000/svg" xmlns:xlink="http://www.w3.org/1999/xlink">
<g id="graph0" class="graph" transform="scale(1 1) rotate(0) translate(4 100)">
<title>mpqc/util/external/madworld/parallel_file.h</title>
<!-- Node1 -->
<g id="Node000001" class="node">
<title>Node1</title>
<g id="a_Node000001"><a xlink:title=" ">
<polygon fill="#999999" stroke="#666666" points="343.5,-96 206.5,-96 206.5,-66 343.5,-66 343.5,-96"/>
<text text-anchor="start" x="214.5" y="-84" font-family="FreeSans" font-size="10.00">mpqc/util/external</text>
<text text-anchor="middle" x="275" y="-73" font-family="FreeSans" font-size="10.00">/madworld/parallel_file.h</text>
</a>
</g>
</g>
<!-- Node2 -->
<g id="Node000002" class="node">
<title>Node2</title>
<g id="a_Node000002"><a xlink:href="mpqc_8cpp.html" target="_top" xlink:title=" ">
<polygon fill="white" stroke="#666666" points="112,-24.5 0,-24.5 0,-5.5 112,-5.5 112,-24.5"/>
<text text-anchor="middle" x="56" y="-12.5" font-family="FreeSans" font-size="10.00">bin/mpqc/mpqc.cpp</text>
</a>
</g>
</g>
<!-- Node1&#45;&gt;Node2 -->
<g id="edge1_Node000001_Node000002" class="edge">
<title>Node1&#45;&gt;Node2</title>
<g id="a_edge1_Node000001_Node000002"><a xlink:title=" ">
<path fill="none" stroke="#63b8ff" d="M217.27,-63.13C174.76,-50.71 118.73,-34.33 85.15,-24.52"/>
<polygon fill="#63b8ff" stroke="#63b8ff" points="216.36,-66.51 226.94,-65.95 218.32,-59.79 216.36,-66.51"/>
</a>
</g>
</g>
<!-- Node3 -->
<g id="Node000003" class="node">
<title>Node3</title>
<g id="a_Node000003"><a xlink:href="mpqc__init_8cpp.html" target="_top" xlink:title=" ">
<polygon fill="white" stroke="#666666" points="263.5,-24.5 130.5,-24.5 130.5,-5.5 263.5,-5.5 263.5,-24.5"/>
<text text-anchor="middle" x="197" y="-12.5" font-family="FreeSans" font-size="10.00">bin/mpqc/mpqc_init.cpp</text>
</a>
</g>
</g>
<!-- Node1&#45;&gt;Node3 -->
<g id="edge2_Node000001_Node000003" class="edge">
<title>Node1&#45;&gt;Node3</title>
<g id="a_edge2_Node000001_Node000003"><a xlink:title=" ">
<path fill="none" stroke="#63b8ff" d="M249.72,-59.26C235.53,-47.61 218.56,-33.69 207.78,-24.84"/>
<polygon fill="#63b8ff" stroke="#63b8ff" points="247.74,-62.16 257.69,-65.8 252.18,-56.75 247.74,-62.16"/>
</a>
</g>
</g>
<!-- Node4 -->
<g id="Node000004" class="node">
<title>Node4</title>
<g id="a_Node000004"><a xlink:href="molecule_8cpp.html" target="_top" xlink:title=" ">
<polygon fill="white" stroke="#666666" points="424.5,-30 281.5,-30 281.5,0 424.5,0 424.5,-30"/>
<text text-anchor="start" x="289.5" y="-18" font-family="FreeSans" font-size="10.00">mpqc/chemistry/molecule</text>
<text text-anchor="middle" x="353" y="-7" font-family="FreeSans" font-size="10.00">/molecule.cpp</text>
</a>
</g>
</g>
<!-- Node1&#45;&gt;Node4 -->
<g id="edge3_Node000001_Node000004" class="edge">
<title>Node1&#45;&gt;Node4</title>
<g id="a_edge3_Node000001_Node000004"><a xlink:title=" ">
<path fill="none" stroke="#63b8ff" d="M300.35,-59.2C311.93,-49.7 325.35,-38.69 335.74,-30.16"/>
<polygon fill="#63b8ff" stroke="#63b8ff" points="297.82,-56.75 292.31,-65.8 302.26,-62.16 297.82,-56.75"/>
</a>
</g>
</g>
<!-- Node5 -->
<g id="Node000005" class="node">
<title>Node5</title>
<g id="a_Node000005"><a xlink:href="parallel__file_8cpp.html" target="_top" xlink:title=" ">
<polygon fill="white" stroke="#666666" points="591.5,-30 442.5,-30 442.5,0 591.5,0 591.5,-30"/>
<text text-anchor="start" x="450.5" y="-18" font-family="FreeSans" font-size="10.00">mpqc/util/external</text>
<text text-anchor="middle" x="517" y="-7" font-family="FreeSans" font-size="10.00">/madworld/parallel_file.cpp</text>
</a>
</g>
</g>
<!-- Node1&#45;&gt;Node5 -->
<g id="edge4_Node000001_Node000005" class="edge">
<title>Node1&#45;&gt;Node5</title>
<g id="a_edge4_Node000001_Node000005"><a xlink:title=" ">
<path fill="none" stroke="#63b8ff" d="M337.82,-63.39C377,-53.03 426.85,-39.84 464.02,-30.01"/>
<polygon fill="#63b8ff" stroke="#63b8ff" points="336.88,-60.01 328.11,-65.95 338.67,-66.78 336.88,-60.01"/>
</a>
</g>
</g>
</g>
</svg>
