<?xml version="1.0" encoding="UTF-8" standalone="no"?>
<!DOCTYPE svg PUBLIC "-//W3C//DTD SVG 1.1//EN"
 "http://www.w3.org/Graphics/SVG/1.1/DTD/svg11.dtd">
<!-- Generated by graphviz version 2.43.0 (0)
 -->
<!-- Title: mpqc/util/external/madworld/parallel_file.cpp Pages: 1 -->
<svg width="304pt" height="159pt"
 viewBox="0.00 0.00 304.00 159.00" xmlns="http://www.w3.org/2000/svg" xmlns:xlink="http://www.w3.org/1999/xlink">

<svg id="main" version="1.1" xmlns="http://www.w3.org/2000/svg" xmlns:xlink="http://www.w3.org/1999/xlink" xml:space="preserve" onload="init(evt)">
<style type="text/css"><![CDATA[
.node, .edge {opacity: 0.7;}
.node.selected, .edge.selected {opacity: 1;}
.edge:hover path { stroke: red; }
.edge:hover polygon { stroke: red; fill: red; }
]]></style>
<script type="application/ecmascript" xlink:href="svg.min.js"/>
<svg id="graph" class="graph">
<g id="graph0" class="graph" transform="scale(1 1) rotate(0) translate(4 155)">
<title>mpqc/util/external/madworld/parallel_file.cpp</title>
<!-- Node1 -->
<g id="Node000001" class="node">
<title>Node1</title>
<g id="a_Node000001"><a xlink:title=" ">
<polygon fill="#999999" stroke="#666666" points="274.5,-151 125.5,-151 125.5,-121 274.5,-121 274.5,-151"/>
<text text-anchor="start" x="133.5" y="-139" font-family="FreeSans" font-size="10.00">mpqc/util/external</text>
<text text-anchor="middle" x="200" y="-128" font-family="FreeSans" font-size="10.00">/madworld/parallel_file.cpp</text>
</a>
</g>
</g>
<!-- Node2 -->
<g id="Node000002" class="node">
<title>Node2</title>
<g id="a_Node000002"><a xlink:href="parallel__file_8h.html" target="_top" xlink:title=" ">
<polygon fill="white" stroke="#666666" points="211.5,-85 74.5,-85 74.5,-55 211.5,-55 211.5,-85"/>
<text text-anchor="start" x="82.5" y="-73" font-family="FreeSans" font-size="10.00">mpqc/util/external</text>
<text text-anchor="middle" x="143" y="-62" font-family="FreeSans" font-size="10.00">/madworld/parallel_file.h</text>
</a>
</g>
</g>
<!-- Node1&#45;&gt;Node2 -->
<g id="edge1_Node000001_Node000002" class="edge">
<title>Node1&#45;&gt;Node2</title>
<g id="a_edge1_Node000001_Node000002"><a xlink:title=" ">
<path fill="none" stroke="#63b8ff" d="M187.35,-120.8C180.04,-112.59 170.7,-102.1 162.48,-92.87"/>
<polygon fill="#63b8ff" stroke="#63b8ff" points="164.88,-90.3 155.61,-85.16 159.65,-94.96 164.88,-90.3"/>
</a>
</g>
</g>
<!-- Node5 -->
<g id="Node000005" class="node">
<title>Node5</title>
<g id="a_Node000005"><a xlink:title=" ">
<polygon fill="#e0e0e0" stroke="#999999" points="284.5,-79.5 229.5,-79.5 229.5,-60.5 284.5,-60.5 284.5,-79.5"/>
<text text-anchor="middle" x="257" y="-67.5" font-family="FreeSans" font-size="10.00">fstream</text>
</a>
</g>
</g>
<!-- Node1&#45;&gt;Node5 -->
<g id="edge4_Node000001_Node000005" class="edge">
<title>Node1&#45;&gt;Node5</title>
<g id="a_edge4_Node000001_Node000005"><a xlink:title=" ">
<path fill="none" stroke="#63b8ff" d="M212.65,-120.8C221.45,-110.92 233.2,-97.72 242.4,-87.39"/>
<polygon fill="#63b8ff" stroke="#63b8ff" points="245.09,-89.64 249.12,-79.84 239.86,-84.98 245.09,-89.64"/>
</a>
</g>
</g>
<!-- Node3 -->
<g id="Node000003" class="node">
<title>Node3</title>
<g id="a_Node000003"><a xlink:title=" ">
<polygon fill="#e0e0e0" stroke="#999999" points="130,-19 0,-19 0,0 130,0 130,-19"/>
<text text-anchor="middle" x="65" y="-7" font-family="FreeSans" font-size="10.00">madness/world/world.h</text>
</a>
</g>
</g>
<!-- Node2&#45;&gt;Node3 -->
<g id="edge2_Node000002_Node000003" class="edge">
<title>Node2&#45;&gt;Node3</title>
<g id="a_edge2_Node000002_Node000003"><a xlink:title=" ">
<path fill="none" stroke="#63b8ff" d="M124.12,-54.84C112.22,-45.91 96.88,-34.41 84.8,-25.35"/>
<polygon fill="#63b8ff" stroke="#63b8ff" points="86.79,-22.47 76.69,-19.27 82.59,-28.07 86.79,-22.47"/>
</a>
</g>
</g>
<!-- Node4 -->
<g id="Node000004" class="node">
<title>Node4</title>
<g id="a_Node000004"><a xlink:title=" ">
<polygon fill="#e0e0e0" stroke="#999999" points="296,-19 148,-19 148,0 296,0 296,-19"/>
<text text-anchor="middle" x="222" y="-7" font-family="FreeSans" font-size="10.00">madness/world/worldgop.h</text>
</a>
</g>
</g>
<!-- Node2&#45;&gt;Node4 -->
<g id="edge3_Node000002_Node000004" class="edge">
<title>Node2&#45;&gt;Node4</title>
<g id="a_edge3_Node000002_Node000004"><a xlink:title=" ">
<path fill="none" stroke="#63b8ff" d="M162.12,-54.84C174.18,-45.91 189.71,-34.41 201.94,-25.35"/>
<polygon fill="#63b8ff" stroke="#63b8ff" points="204.21,-28.03 210.16,-19.27 200.04,-22.4 204.21,-28.03"/>
</a>
</g>
</g>
</g>
</svg>
</svg>

<style type='text/css'>
<![CDATA[
[data-mouse-over-selected='false'] { opacity: 0.7; }
[data-mouse-over-selected='true']  { opacity: 1.0; }
]]>
</style>
<script type="application/ecmascript"><![CDATA[
document.addEventListener('DOMContentLoaded', (event) => {
  highlightEdges();
  highlightAdjacentNodes();
});
]]></script>
</svg>
