<?xml version="1.0" encoding="UTF-8" standalone="no"?>
<!DOCTYPE svg PUBLIC "-//W3C//DTD SVG 1.1//EN"
 "http://www.w3.org/Graphics/SVG/1.1/DTD/svg11.dtd">
<!-- Generated by graphviz version 2.43.0 (0)
 -->
<!-- Title: mpqc/chemistry/qc/lcao/scf/pbc/sd.h Pages: 1 -->
<!--zoomable 302 -->

<svg id="main" version="1.1" xmlns="http://www.w3.org/2000/svg" xmlns:xlink="http://www.w3.org/1999/xlink" xml:space="preserve" onload="init(evt)">
<style type="text/css"><![CDATA[
.node, .edge {opacity: 0.7;}
.node.selected, .edge.selected {opacity: 1;}
.edge:hover path { stroke: red; }
.edge:hover polygon { stroke: red; fill: red; }
]]></style>

<defs>
  <circle id="rim" cx="0" cy="0" r="7"/>
  <circle id="rim2" cx="0" cy="0" r="3.5"/>
  <g id="zoomPlus">
    <use xlink:href="#rim" fill="#404040"><set attributeName="fill" to="#808080" begin="zoomplus.mouseover" end="zoomplus.mouseout"/></use>
    <path d="M-4,0h8M0,-4v8" fill="none" stroke="white" stroke-width="1.5" pointer-events="none"/>
  </g>
  <g id="zoomMin">
    <use xlink:href="#rim" fill="#404040"><set attributeName="fill" to="#808080" begin="zoomminus.mouseover" end="zoomminus.mouseout"/></use>
    <path d="M-4,0h8" fill="none" stroke="white" stroke-width="1.5" pointer-events="none"/>
  </g>
  <g id="arrowUp" transform="translate(30 24)">
    <use xlink:href="#rim"/>
    <path pointer-events="none" fill="none" stroke="white" stroke-width="1.5" d="M0,-3.0v7 M-2.5,-0.5L0,-3.0L2.5,-0.5"/>
  </g>
  <g id="arrowRight" transform="rotate(90) translate(36 -43)">
    <use xlink:href="#rim"/>
    <path pointer-events="none" fill="none" stroke="white" stroke-width="1.5" d="M0,-3.0v7 M-2.5,-0.5L0,-3.0L2.5,-0.5"/>
  </g>
  <g id="arrowDown" transform="rotate(180) translate(-30 -48)">
    <use xlink:href="#rim"/>
    <path pointer-events="none" fill="none" stroke="white" stroke-width="1.5" d="M0,-3.0v7 M-2.5,-0.5L0,-3.0L2.5,-0.5"/>
  </g>
  <g id="arrowLeft" transform="rotate(270) translate(-36 17)">
    <use xlink:href="#rim"/>
    <path pointer-events="none" fill="none" stroke="white" stroke-width="1.5" d="M0,-3.0v7 M-2.5,-0.5L0,-3.0L2.5,-0.5"/>
  </g>
  <g id="resetDef">
    <use xlink:href="#rim2" fill="#404040"><set attributeName="fill" to="#808080" begin="reset.mouseover" end="reset.mouseout"/></use>
  </g>
</defs>
<script type="application/ecmascript">
var viewWidth = 680;
var viewHeight = 302;
var sectionId = 'dynsection-1';
</script>
<script type="application/ecmascript" xlink:href="svg.min.js"/>
<svg id="graph" class="graph">
<g id="viewport">
<title>mpqc/chemistry/qc/lcao/scf/pbc/sd.h</title>
<!-- Node1 -->
<g id="Node000001" class="node">
<title>Node1</title>
<g id="a_Node000001"><a xlink:title=" ">
<polygon fill="#999999" stroke="#666666" points="426,-294 293,-294 293,-264 426,-264 426,-294"/>
<text text-anchor="start" x="301" y="-282" font-family="FreeSans" font-size="10.00">mpqc/chemistry/qc/lcao</text>
<text text-anchor="middle" x="359.5" y="-271" font-family="FreeSans" font-size="10.00">/scf/pbc/sd.h</text>
</a>
</g>
</g>
<!-- Node2 -->
<g id="Node000002" class="node">
<title>Node2</title>
<g id="a_Node000002"><a xlink:href="pbc_2rhf_8h.html" target="_top" xlink:title=" ">
<polygon fill="white" stroke="#666666" points="331,-228 198,-228 198,-198 331,-198 331,-228"/>
<text text-anchor="start" x="206" y="-216" font-family="FreeSans" font-size="10.00">mpqc/chemistry/qc/lcao</text>
<text text-anchor="middle" x="264.5" y="-205" font-family="FreeSans" font-size="10.00">/scf/pbc/rhf.h</text>
</a>
</g>
</g>
<!-- Node1&#45;&gt;Node2 -->
<g id="edge1_Node000001_Node000002" class="edge">
<title>Node1&#45;&gt;Node2</title>
<g id="a_edge1_Node000001_Node000002"><a xlink:title=" ">
<path fill="none" stroke="#63b8ff" d="M329.85,-258.03C315.48,-248.34 298.55,-236.94 285.52,-228.16"/>
<polygon fill="#63b8ff" stroke="#63b8ff" points="328.17,-261.11 338.42,-263.8 332.08,-255.31 328.17,-261.11"/>
</a>
</g>
</g>
<!-- Node8 -->
<g id="Node000008" class="node">
<title>Node8</title>
<g id="a_Node000008"><a xlink:href="sd_8impl_8ipp.html" target="_top" xlink:title=" ">
<polygon fill="white" stroke="#666666" points="133,-228 0,-228 0,-198 133,-198 133,-228"/>
<text text-anchor="start" x="8" y="-216" font-family="FreeSans" font-size="10.00">mpqc/chemistry/qc/lcao</text>
<text text-anchor="middle" x="66.5" y="-205" font-family="FreeSans" font-size="10.00">/scf/pbc/sd.impl.ipp</text>
</a>
</g>
</g>
<!-- Node1&#45;&gt;Node8 -->
<g id="edge8_Node000001_Node000008" class="edge">
<title>Node1&#45;&gt;Node8</title>
<g id="a_edge8_Node000001_Node000008"><a xlink:title=" ">
<path fill="none" stroke="#63b8ff" d="M285.24,-261.78C237.54,-251.36 176.22,-237.97 130.65,-228.01"/>
<polygon fill="#63b8ff" stroke="#63b8ff" points="284.68,-265.24 295.2,-263.95 286.18,-258.4 284.68,-265.24"/>
</a>
</g>
</g>
<!-- Node9 -->
<g id="Node000009" class="node">
<title>Node9</title>
<g id="a_Node000009"><a xlink:href="pbc_2sd_8ipp.html" target="_top" xlink:title=" ">
<polygon fill="white" stroke="#666666" points="502,-228 369,-228 369,-198 502,-198 502,-228"/>
<text text-anchor="start" x="377" y="-216" font-family="FreeSans" font-size="10.00">mpqc/chemistry/qc/lcao</text>
<text text-anchor="middle" x="435.5" y="-205" font-family="FreeSans" font-size="10.00">/scf/pbc/sd.ipp</text>
</a>
</g>
</g>
<!-- Node1&#45;&gt;Node9 -->
<g id="edge10_Node000001_Node000009" class="edge">
<title>Node1&#45;&gt;Node9</title>
<g id="a_edge10_Node000001_Node000009"><a xlink:title=" ">
<path fill="none" stroke="#63b8ff" d="M384.2,-257.2C395.48,-247.7 408.55,-236.69 418.68,-228.16"/>
<polygon fill="#63b8ff" stroke="#63b8ff" points="381.76,-254.68 376.37,-263.8 386.27,-260.03 381.76,-254.68"/>
</a>
</g>
</g>
<!-- Node11 -->
<g id="Node000011" class="node">
<title>Node11</title>
<g id="a_Node000011"><a xlink:href="sp_8ipp.html" target="_top" xlink:title=" ">
<polygon fill="white" stroke="#666666" points="671.5,-228 539.5,-228 539.5,-198 671.5,-198 671.5,-228"/>
<text text-anchor="start" x="547.5" y="-216" font-family="FreeSans" font-size="10.00">mpqc/chemistry/qc/mra</text>
<text text-anchor="middle" x="605.5" y="-205" font-family="FreeSans" font-size="10.00">/wfn/sp.ipp</text>
</a>
</g>
</g>
<!-- Node1&#45;&gt;Node11 -->
<g id="edge12_Node000001_Node000011" class="edge">
<title>Node1&#45;&gt;Node11</title>
<g id="a_edge12_Node000001_Node000011"><a xlink:title=" ">
<path fill="none" stroke="#63b8ff" d="M423.36,-261.39C463.18,-251.03 513.86,-237.84 551.64,-228.01"/>
<polygon fill="#63b8ff" stroke="#63b8ff" points="422.28,-258.05 413.49,-263.95 424.04,-264.82 422.28,-258.05"/>
</a>
</g>
</g>
<!-- Node3 -->
<g id="Node000003" class="node">
<title>Node3</title>
<g id="a_Node000003"><a xlink:href="pbc_2rhf_8cpp.html" target="_top" xlink:title=" ">
<polygon fill="white" stroke="#666666" points="180,-162 47,-162 47,-132 180,-132 180,-162"/>
<text text-anchor="start" x="55" y="-150" font-family="FreeSans" font-size="10.00">mpqc/chemistry/qc/lcao</text>
<text text-anchor="middle" x="113.5" y="-139" font-family="FreeSans" font-size="10.00">/scf/pbc/rhf.cpp</text>
</a>
</g>
</g>
<!-- Node2&#45;&gt;Node3 -->
<g id="edge2_Node000002_Node000003" class="edge">
<title>Node2&#45;&gt;Node3</title>
<g id="a_edge2_Node000002_Node000003"><a xlink:title=" ">
<path fill="none" stroke="#63b8ff" d="M221.84,-193.92C197.97,-183.8 168.67,-171.38 146.56,-162.01"/>
<polygon fill="#63b8ff" stroke="#63b8ff" points="220.79,-197.28 231.36,-197.95 223.52,-190.83 220.79,-197.28"/>
</a>
</g>
</g>
<!-- Node4 -->
<g id="Node000004" class="node">
<title>Node4</title>
<g id="a_Node000004"><a xlink:href="pbc_2rhf_8ipp.html" target="_top" xlink:title=" ">
<polygon fill="white" stroke="#666666" points="331,-162 198,-162 198,-132 331,-132 331,-162"/>
<text text-anchor="start" x="206" y="-150" font-family="FreeSans" font-size="10.00">mpqc/chemistry/qc/lcao</text>
<text text-anchor="middle" x="264.5" y="-139" font-family="FreeSans" font-size="10.00">/scf/pbc/rhf.ipp</text>
</a>
</g>
</g>
<!-- Node2&#45;&gt;Node4 -->
<g id="edge3_Node000002_Node000004" class="edge">
<title>Node2&#45;&gt;Node4</title>
<g id="a_edge3_Node000002_Node000004"><a xlink:title=" ">
<path fill="none" stroke="#63b8ff" d="M257.93,-187.83C257.52,-179.17 257.81,-169.7 258.79,-162.16"/>
<polygon fill="#63b8ff" stroke="#63b8ff" points="254.45,-188.13 258.78,-197.8 261.42,-187.54 254.45,-188.13"/>
</a>
</g>
</g>
<!-- Node6 -->
<g id="Node000006" class="node">
<title>Node6</title>
<g id="a_Node000006"><a xlink:href="solver_8ipp.html" target="_top" xlink:title=" ">
<polygon fill="white" stroke="#666666" points="500.5,-96 368.5,-96 368.5,-66 500.5,-66 500.5,-96"/>
<text text-anchor="start" x="376.5" y="-84" font-family="FreeSans" font-size="10.00">mpqc/chemistry/qc/mra</text>
<text text-anchor="middle" x="434.5" y="-73" font-family="FreeSans" font-size="10.00">/scf/solver.ipp</text>
</a>
</g>
</g>
<!-- Node2&#45;&gt;Node6 -->
<g id="edge6_Node000002_Node000006" class="edge">
<title>Node2&#45;&gt;Node6</title>
<g id="a_edge6_Node000002_Node000006"><a xlink:title=" ">
<path fill="none" stroke="#63b8ff" d="M295.55,-192.42C309.27,-183.48 325.44,-172.56 339.5,-162 368.47,-140.25 400.33,-112.6 418.81,-96.15"/>
<polygon fill="#63b8ff" stroke="#63b8ff" points="293.44,-189.61 286.94,-197.98 297.24,-195.49 293.44,-189.61"/>
</a>
</g>
</g>
<!-- Node4&#45;&gt;Node2 -->
<g id="edge4_Node000004_Node000002" class="edge">
<title>Node4&#45;&gt;Node2</title>
<g id="a_edge4_Node000004_Node000002"><a xlink:title=" ">
<path fill="none" stroke="#63b8ff" d="M271.07,-172.13C271.48,-180.78 271.2,-190.26 270.22,-197.8"/>
<polygon fill="#63b8ff" stroke="#63b8ff" points="274.55,-171.83 270.21,-162.16 267.58,-172.43 274.55,-171.83"/>
</a>
</g>
</g>
<!-- Node5 -->
<g id="Node000005" class="node">
<title>Node5</title>
<g id="a_Node000005"><a xlink:href="sd_8impl_8cpp.html" target="_top" xlink:title=" ">
<polygon fill="white" stroke="#666666" points="255,-96 122,-96 122,-66 255,-66 255,-96"/>
<text text-anchor="start" x="130" y="-84" font-family="FreeSans" font-size="10.00">mpqc/chemistry/qc/lcao</text>
<text text-anchor="middle" x="188.5" y="-73" font-family="FreeSans" font-size="10.00">/scf/pbc/sd.impl.cpp</text>
</a>
</g>
</g>
<!-- Node4&#45;&gt;Node5 -->
<g id="edge5_Node000004_Node000005" class="edge">
<title>Node4&#45;&gt;Node5</title>
<g id="a_edge5_Node000004_Node000005"><a xlink:title=" ">
<path fill="none" stroke="#63b8ff" d="M239.8,-125.2C228.52,-115.7 215.45,-104.69 205.32,-96.16"/>
<polygon fill="#63b8ff" stroke="#63b8ff" points="237.73,-128.03 247.63,-131.8 242.24,-122.68 237.73,-128.03"/>
</a>
</g>
</g>
<!-- Node7 -->
<g id="Node000007" class="node">
<title>Node7</title>
<g id="a_Node000007"><a xlink:href="solver_8cpp.html" target="_top" xlink:title=" ">
<polygon fill="white" stroke="#666666" points="500.5,-30 368.5,-30 368.5,0 500.5,0 500.5,-30"/>
<text text-anchor="start" x="376.5" y="-18" font-family="FreeSans" font-size="10.00">mpqc/chemistry/qc/mra</text>
<text text-anchor="middle" x="434.5" y="-7" font-family="FreeSans" font-size="10.00">/scf/solver.cpp</text>
</a>
</g>
</g>
<!-- Node6&#45;&gt;Node7 -->
<g id="edge7_Node000006_Node000007" class="edge">
<title>Node6&#45;&gt;Node7</title>
<g id="a_edge7_Node000006_Node000007"><a xlink:title=" ">
<path fill="none" stroke="#63b8ff" d="M434.5,-55.54C434.5,-46.96 434.5,-37.61 434.5,-30.16"/>
<polygon fill="#63b8ff" stroke="#63b8ff" points="431,-55.8 434.5,-65.8 438,-55.8 431,-55.8"/>
</a>
</g>
</g>
<!-- Node8&#45;&gt;Node5 -->
<g id="edge9_Node000008_Node000005" class="edge">
<title>Node8&#45;&gt;Node5</title>
<g id="a_edge9_Node000008_Node000005"><a xlink:title=" ">
<path fill="none" stroke="#63b8ff" d="M47.74,-189.63C35.89,-172.65 24.98,-149.34 37.5,-132 56.82,-105.25 91.01,-92.58 121.97,-86.67"/>
<polygon fill="#63b8ff" stroke="#63b8ff" points="45.11,-191.96 53.9,-197.87 50.72,-187.77 45.11,-191.96"/>
</a>
</g>
</g>
<!-- Node10 -->
<g id="Node000010" class="node">
<title>Node10</title>
<g id="a_Node000010"><a xlink:href="pbc_2sd_8cpp.html" target="_top" xlink:title=" ">
<polygon fill="white" stroke="#666666" points="521,-162 388,-162 388,-132 521,-132 521,-162"/>
<text text-anchor="start" x="396" y="-150" font-family="FreeSans" font-size="10.00">mpqc/chemistry/qc/lcao</text>
<text text-anchor="middle" x="454.5" y="-139" font-family="FreeSans" font-size="10.00">/scf/pbc/sd.cpp</text>
</a>
</g>
</g>
<!-- Node9&#45;&gt;Node10 -->
<g id="edge11_Node000009_Node000010" class="edge">
<title>Node9&#45;&gt;Node10</title>
<g id="a_edge11_Node000009_Node000010"><a xlink:title=" ">
<path fill="none" stroke="#63b8ff" d="M442.59,-188.11C445.19,-179.38 448.03,-169.78 450.3,-162.16"/>
<polygon fill="#63b8ff" stroke="#63b8ff" points="439.21,-187.21 439.72,-197.8 445.92,-189.21 439.21,-187.21"/>
</a>
</g>
</g>
<!-- Node12 -->
<g id="Node000012" class="node">
<title>Node12</title>
<g id="a_Node000012"><a xlink:href="chemistry_2qc_2mra_2wfn_2sp_8h.html" target="_top" xlink:title=" ">
<polygon fill="white" stroke="#666666" points="671.5,-162 539.5,-162 539.5,-132 671.5,-132 671.5,-162"/>
<text text-anchor="start" x="547.5" y="-150" font-family="FreeSans" font-size="10.00">mpqc/chemistry/qc/mra</text>
<text text-anchor="middle" x="605.5" y="-139" font-family="FreeSans" font-size="10.00">/wfn/sp.h</text>
</a>
</g>
</g>
<!-- Node11&#45;&gt;Node12 -->
<g id="edge13_Node000011_Node000012" class="edge">
<title>Node11&#45;&gt;Node12</title>
<g id="a_edge13_Node000011_Node000012"><a xlink:title=" ">
<path fill="none" stroke="#63b8ff" d="M598.93,-187.83C598.52,-179.17 598.81,-169.7 599.79,-162.16"/>
<polygon fill="#63b8ff" stroke="#63b8ff" points="595.45,-188.13 599.78,-197.8 602.42,-187.54 595.45,-188.13"/>
</a>
</g>
</g>
<!-- Node12&#45;&gt;Node6 -->
<g id="edge14_Node000012_Node000006" class="edge">
<title>Node12&#45;&gt;Node6</title>
<g id="a_edge14_Node000012_Node000006"><a xlink:title=" ">
<path fill="none" stroke="#63b8ff" d="M558.27,-128.32C531.05,-118.14 497.31,-105.51 471.94,-96.01"/>
<polygon fill="#63b8ff" stroke="#63b8ff" points="557.38,-131.73 567.97,-131.95 559.83,-125.17 557.38,-131.73"/>
</a>
</g>
</g>
<!-- Node12&#45;&gt;Node11 -->
<g id="edge15_Node000012_Node000011" class="edge">
<title>Node12&#45;&gt;Node11</title>
<g id="a_edge15_Node000012_Node000011"><a xlink:title=" ">
<path fill="none" stroke="#63b8ff" d="M612.07,-172.13C612.48,-180.78 612.2,-190.26 611.22,-197.8"/>
<polygon fill="#63b8ff" stroke="#63b8ff" points="615.55,-171.83 611.21,-162.16 608.58,-172.43 615.55,-171.83"/>
</a>
</g>
</g>
</g>
</svg>

<g id="navigator" transform="translate(0 0)" fill="#404254">
  <rect fill="#f2f5e9" fill-opacity="0.5" stroke="#606060" stroke-width=".5" x="0" y="0" width="60" height="60"/>
  <use id="zoomplus" xlink:href="#zoomPlus" x="17" y="9" onmousedown="handleZoom(evt,'in')"/>
  <use id="zoomminus" xlink:href="#zoomMin" x="42" y="9" onmousedown="handleZoom(evt,'out')"/>
  <use id="reset" xlink:href="#resetDef" x="30" y="36" onmousedown="handleReset()"/>
   <use id="arrowup" xlink:href="#arrowUp" x="0" y="0" onmousedown="handlePan(0,-1)"/>
  <use id="arrowright" xlink:href="#arrowRight" x="0" y="0" onmousedown="handlePan(1,0)"/>
  <use id="arrowdown" xlink:href="#arrowDown" x="0" y="0" onmousedown="handlePan(0,1)"/>
  <use id="arrowleft" xlink:href="#arrowLeft" x="0" y="0" onmousedown="handlePan(-1,0)"/>
</g>
<svg viewBox="0 0 15 15" width="100%" height="30px" preserveAspectRatio="xMaxYMin meet">
 <g id="arrow_out" transform="scale(0.3 0.3)">
  <a xlink:href="pbc_2sd_8h__dep__incl_org.svg" target="_base">
   <rect id="button" ry="5" rx="5" y="6" x="6" height="38" width="38"
        fill="#f2f5e9" fill-opacity="0.5" stroke="#606060" stroke-width="1.0"/>
   <path id="arrow"
     d="M 11.500037,31.436501 C 11.940474,20.09759 22.043105,11.32322 32.158766,21.979434 L 37.068811,17.246167 C 37.068811,17.246167 37.088388,32 37.088388,32 L 22.160133,31.978069 C 22.160133,31.978069 26.997745,27.140456 26.997745,27.140456 C 18.528582,18.264221 13.291696,25.230495 11.500037,31.436501 z"
     style="fill:#404040;"/>
  </a>
 </g>
</svg>

<style type='text/css'>
<![CDATA[
[data-mouse-over-selected='false'] { opacity: 0.7; }
[data-mouse-over-selected='true']  { opacity: 1.0; }
]]>
</style>
<script type="application/ecmascript"><![CDATA[
document.addEventListener('DOMContentLoaded', (event) => {
  highlightEdges();
  highlightAdjacentNodes();
});
]]></script>
</svg>
