<?xml version="1.0" encoding="UTF-8" standalone="no"?>
<!DOCTYPE svg PUBLIC "-//W3C//DTD SVG 1.1//EN"
 "http://www.w3.org/Graphics/SVG/1.1/DTD/svg11.dtd">
<!-- Generated by graphviz version 2.43.0 (0)
 -->
<!-- Title: mpqc/chemistry/qc/lcao/factory/periodic_lcao_factory.h Pages: 1 -->
<svg width="629pt" height="192pt"
 viewBox="0.00 0.00 628.50 192.00" xmlns="http://www.w3.org/2000/svg" xmlns:xlink="http://www.w3.org/1999/xlink">
<g id="graph0" class="graph" transform="scale(1 1) rotate(0) translate(4 188)">
<title>mpqc/chemistry/qc/lcao/factory/periodic_lcao_factory.h</title>
<!-- Node1 -->
<g id="Node000001" class="node">
<title>Node1</title>
<g id="a_Node000001"><a xlink:title=" ">
<polygon fill="#999999" stroke="#666666" points="293.5,-184 160.5,-184 160.5,-143 293.5,-143 293.5,-184"/>
<text text-anchor="start" x="168.5" y="-172" font-family="FreeSans" font-size="10.00">mpqc/chemistry/qc/lcao</text>
<text text-anchor="start" x="168.5" y="-161" font-family="FreeSans" font-size="10.00">/factory/periodic_lcao</text>
<text text-anchor="middle" x="227" y="-150" font-family="FreeSans" font-size="10.00">_factory.h</text>
</a>
</g>
</g>
<!-- Node2 -->
<g id="Node000002" class="node">
<title>Node2</title>
<g id="a_Node000002"><a xlink:href="gamma__point__ccsd_8h.html" target="_top" xlink:title=" ">
<polygon fill="white" stroke="#666666" points="142.5,-101.5 5.5,-101.5 5.5,-71.5 142.5,-71.5 142.5,-101.5"/>
<text text-anchor="start" x="13.5" y="-89.5" font-family="FreeSans" font-size="10.00">mpqc/chemistry/qc/lcao</text>
<text text-anchor="middle" x="74" y="-78.5" font-family="FreeSans" font-size="10.00">/cc/gamma_point_ccsd.h</text>
</a>
</g>
</g>
<!-- Node1&#45;&gt;Node2 -->
<g id="edge1_Node000001_Node000002" class="edge">
<title>Node1&#45;&gt;Node2</title>
<g id="a_edge1_Node000001_Node000002"><a xlink:title=" ">
<path fill="none" stroke="#63b8ff" d="M177.97,-138.46C153.24,-126.34 124.1,-112.06 102.97,-101.7"/>
<polygon fill="#63b8ff" stroke="#63b8ff" points="176.68,-141.73 187.2,-142.99 179.76,-135.45 176.68,-141.73"/>
</a>
</g>
</g>
<!-- Node4 -->
<g id="Node000004" class="node">
<title>Node4</title>
<g id="a_Node000004"><a xlink:href="periodic__lcao__factory_8ipp.html" target="_top" xlink:title=" ">
<polygon fill="white" stroke="#666666" points="293.5,-107 160.5,-107 160.5,-66 293.5,-66 293.5,-107"/>
<text text-anchor="start" x="168.5" y="-95" font-family="FreeSans" font-size="10.00">mpqc/chemistry/qc/lcao</text>
<text text-anchor="start" x="168.5" y="-84" font-family="FreeSans" font-size="10.00">/factory/periodic_lcao</text>
<text text-anchor="middle" x="227" y="-73" font-family="FreeSans" font-size="10.00">_factory.ipp</text>
</a>
</g>
</g>
<!-- Node1&#45;&gt;Node4 -->
<g id="edge3_Node000001_Node000004" class="edge">
<title>Node1&#45;&gt;Node4</title>
<g id="a_edge3_Node000001_Node000004"><a xlink:title=" ">
<path fill="none" stroke="#63b8ff" d="M220.38,-132.69C220.09,-124.08 220.29,-114.9 220.99,-107.07"/>
<polygon fill="#63b8ff" stroke="#63b8ff" points="216.89,-133.02 220.98,-142.79 223.88,-132.6 216.89,-133.02"/>
</a>
</g>
</g>
<!-- Node5 -->
<g id="Node000005" class="node">
<title>Node5</title>
<g id="a_Node000005"><a xlink:href="wfn__world_8ipp.html" target="_top" xlink:title=" ">
<polygon fill="white" stroke="#666666" points="444.5,-101.5 311.5,-101.5 311.5,-71.5 444.5,-71.5 444.5,-101.5"/>
<text text-anchor="start" x="319.5" y="-89.5" font-family="FreeSans" font-size="10.00">mpqc/chemistry/qc/lcao</text>
<text text-anchor="middle" x="378" y="-78.5" font-family="FreeSans" font-size="10.00">/factory/wfn_world.ipp</text>
</a>
</g>
</g>
<!-- Node1&#45;&gt;Node5 -->
<g id="edge5_Node000001_Node000005" class="edge">
<title>Node1&#45;&gt;Node5</title>
<g id="a_edge5_Node000001_Node000005"><a xlink:title=" ">
<path fill="none" stroke="#63b8ff" d="M275.39,-138.46C299.8,-126.34 328.56,-112.06 349.41,-101.7"/>
<polygon fill="#63b8ff" stroke="#63b8ff" points="273.68,-135.41 266.28,-142.99 276.79,-141.68 273.68,-135.41"/>
</a>
</g>
</g>
<!-- Node6 -->
<g id="Node000006" class="node">
<title>Node6</title>
<g id="a_Node000006"><a xlink:href="gamma__point__mp2_8h.html" target="_top" xlink:title=" ">
<polygon fill="white" stroke="#666666" points="615,-101.5 463,-101.5 463,-71.5 615,-71.5 615,-101.5"/>
<text text-anchor="start" x="471" y="-89.5" font-family="FreeSans" font-size="10.00">mpqc/chemistry/qc/lcao</text>
<text text-anchor="middle" x="539" y="-78.5" font-family="FreeSans" font-size="10.00">/mbpt/gamma_point_mp2.h</text>
</a>
</g>
</g>
<!-- Node1&#45;&gt;Node6 -->
<g id="edge6_Node000001_Node000006" class="edge">
<title>Node1&#45;&gt;Node6</title>
<g id="a_edge6_Node000001_Node000006"><a xlink:title=" ">
<path fill="none" stroke="#63b8ff" d="M303.54,-144.1C358.22,-130.96 430.67,-113.54 480.69,-101.52"/>
<polygon fill="#63b8ff" stroke="#63b8ff" points="302.45,-140.76 293.55,-146.5 304.09,-147.57 302.45,-140.76"/>
</a>
</g>
</g>
<!-- Node3 -->
<g id="Node000003" class="node">
<title>Node3</title>
<g id="a_Node000003"><a xlink:href="gamma__point__ccsd_8cpp.html" target="_top" xlink:title=" ">
<polygon fill="white" stroke="#666666" points="148,-30 0,-30 0,0 148,0 148,-30"/>
<text text-anchor="start" x="8" y="-18" font-family="FreeSans" font-size="10.00">mpqc/chemistry/qc/lcao</text>
<text text-anchor="middle" x="74" y="-7" font-family="FreeSans" font-size="10.00">/cc/gamma_point_ccsd.cpp</text>
</a>
</g>
</g>
<!-- Node2&#45;&gt;Node3 -->
<g id="edge2_Node000002_Node000003" class="edge">
<title>Node2&#45;&gt;Node3</title>
<g id="a_edge2_Node000002_Node000003"><a xlink:title=" ">
<path fill="none" stroke="#63b8ff" d="M74,-61.25C74,-50.81 74,-38.99 74,-30.04"/>
<polygon fill="#63b8ff" stroke="#63b8ff" points="70.5,-61.44 74,-71.44 77.5,-61.44 70.5,-61.44"/>
</a>
</g>
</g>
<!-- Node4&#45;&gt;Node1 -->
<g id="edge4_Node000004_Node000001" class="edge">
<title>Node4&#45;&gt;Node1</title>
<g id="a_edge4_Node000004_Node000001"><a xlink:title=" ">
<path fill="none" stroke="#63b8ff" d="M233.62,-117.16C233.91,-125.77 233.71,-134.96 233.02,-142.79"/>
<polygon fill="#63b8ff" stroke="#63b8ff" points="237.1,-116.85 233.01,-107.07 230.12,-117.27 237.1,-116.85"/>
</a>
</g>
</g>
<!-- Node7 -->
<g id="Node000007" class="node">
<title>Node7</title>
<g id="a_Node000007"><a xlink:href="gamma__point__mp2_8cpp.html" target="_top" xlink:title=" ">
<polygon fill="white" stroke="#666666" points="620.5,-30 457.5,-30 457.5,0 620.5,0 620.5,-30"/>
<text text-anchor="start" x="465.5" y="-18" font-family="FreeSans" font-size="10.00">mpqc/chemistry/qc/lcao</text>
<text text-anchor="middle" x="539" y="-7" font-family="FreeSans" font-size="10.00">/mbpt/gamma_point_mp2.cpp</text>
</a>
</g>
</g>
<!-- Node6&#45;&gt;Node7 -->
<g id="edge7_Node000006_Node000007" class="edge">
<title>Node6&#45;&gt;Node7</title>
<g id="a_edge7_Node000006_Node000007"><a xlink:title=" ">
<path fill="none" stroke="#63b8ff" d="M539,-61.25C539,-50.81 539,-38.99 539,-30.04"/>
<polygon fill="#63b8ff" stroke="#63b8ff" points="535.5,-61.44 539,-71.44 542.5,-61.44 535.5,-61.44"/>
</a>
</g>
</g>
</g>
</svg>
