<?xml version="1.0" encoding="UTF-8" standalone="no"?>
<!DOCTYPE svg PUBLIC "-//W3C//DTD SVG 1.1//EN"
 "http://www.w3.org/Graphics/SVG/1.1/DTD/svg11.dtd">
<!-- Generated by graphviz version 2.43.0 (0)
 -->
<!-- Title: mpqc/math/groups/petite_list.h Pages: 1 -->
<svg width="354pt" height="95pt"
 viewBox="0.00 0.00 354.00 94.96" xmlns="http://www.w3.org/2000/svg" xmlns:xlink="http://www.w3.org/1999/xlink">

<svg id="main" version="1.1" xmlns="http://www.w3.org/2000/svg" xmlns:xlink="http://www.w3.org/1999/xlink" xml:space="preserve" onload="init(evt)">
<style type="text/css"><![CDATA[
.node, .edge {opacity: 0.7;}
.node.selected, .edge.selected {opacity: 1;}
.edge:hover path { stroke: red; }
.edge:hover polygon { stroke: red; fill: red; }
]]></style>
<script type="application/ecmascript" xlink:href="svg.min.js"/>
<svg id="graph" class="graph">
<g id="graph0" class="graph" transform="scale(1 1) rotate(0) translate(4 90.96)">
<title>mpqc/math/groups/petite_list.h</title>
<!-- Node1 -->
<g id="Node000001" class="node">
<title>Node1</title>
<g id="a_Node000001"><a xlink:title=" ">
<polygon fill="#999999" stroke="#666666" points="223,-86.96 83,-86.96 83,-56.96 223,-56.96 223,-86.96"/>
<text text-anchor="start" x="91" y="-74.96" font-family="FreeSans" font-size="10.00">mpqc/math/groups/petite</text>
<text text-anchor="middle" x="153" y="-63.96" font-family="FreeSans" font-size="10.00">_list.h</text>
</a>
</g>
</g>
<!-- Node2 -->
<g id="Node000002" class="node">
<title>Node2</title>
<g id="a_Node000002"><a xlink:title=" ">
<polygon fill="#e0e0e0" stroke="#999999" points="50,-20.96 0,-20.96 0,-1.96 50,-1.96 50,-20.96"/>
<text text-anchor="middle" x="25" y="-8.96" font-family="FreeSans" font-size="10.00">cstdint</text>
</a>
</g>
</g>
<!-- Node1&#45;&gt;Node2 -->
<g id="edge1_Node000001_Node000002" class="edge">
<title>Node1&#45;&gt;Node2</title>
<g id="a_edge1_Node000001_Node000002"><a xlink:title=" ">
<path fill="none" stroke="#63b8ff" d="M122.34,-56.95C101.27,-47.32 73.51,-34.63 53.03,-25.27"/>
<polygon fill="#63b8ff" stroke="#63b8ff" points="54.45,-22.07 43.9,-21.1 51.54,-28.44 54.45,-22.07"/>
</a>
</g>
</g>
<!-- Node3 -->
<g id="Node000003" class="node">
<title>Node3</title>
<g id="a_Node000003"><a xlink:title=" ">
<polygon fill="#e0e0e0" stroke="#999999" points="106,-20.96 68,-20.96 68,-1.96 106,-1.96 106,-20.96"/>
<text text-anchor="middle" x="87" y="-8.96" font-family="FreeSans" font-size="10.00">map</text>
</a>
</g>
</g>
<!-- Node1&#45;&gt;Node3 -->
<g id="edge2_Node000001_Node000003" class="edge">
<title>Node1&#45;&gt;Node3</title>
<g id="a_edge2_Node000001_Node000003"><a xlink:title=" ">
<path fill="none" stroke="#63b8ff" d="M137.02,-56.8C127.25,-48.13 114.73,-37.04 104.66,-28.11"/>
<polygon fill="#63b8ff" stroke="#63b8ff" points="106.69,-25.24 96.89,-21.23 102.05,-30.48 106.69,-25.24"/>
</a>
</g>
</g>
<!-- Node4 -->
<g id="Node000004" class="node">
<title>Node4</title>
<g id="a_Node000004"><a xlink:href="memory.html" target="_top" xlink:title=" ">
<polygon fill="white" stroke="#666666" points="182,-20.96 124,-20.96 124,-1.96 182,-1.96 182,-20.96"/>
<text text-anchor="middle" x="153" y="-8.96" font-family="FreeSans" font-size="10.00">memory</text>
</a>
</g>
</g>
<!-- Node1&#45;&gt;Node4 -->
<g id="edge3_Node000001_Node000004" class="edge">
<title>Node1&#45;&gt;Node4</title>
<g id="a_edge3_Node000001_Node000004"><a xlink:title=" ">
<path fill="none" stroke="#63b8ff" d="M153,-56.8C153,-49.17 153,-39.67 153,-31.41"/>
<polygon fill="#63b8ff" stroke="#63b8ff" points="156.5,-31.23 153,-21.23 149.5,-31.23 156.5,-31.23"/>
</a>
</g>
</g>
<!-- Node5 -->
<g id="Node000005" class="node">
<title>Node5</title>
<g id="a_Node000005"><a xlink:title=" ">
<polygon fill="#e0e0e0" stroke="#999999" points="283.5,-20.96 218.5,-20.96 218.5,-1.96 283.5,-1.96 283.5,-20.96"/>
<text text-anchor="middle" x="251" y="-8.96" font-family="FreeSans" font-size="10.00">stdexcept</text>
</a>
</g>
</g>
<!-- Node1&#45;&gt;Node5 -->
<g id="edge5_Node000001_Node000005" class="edge">
<title>Node1&#45;&gt;Node5</title>
<g id="a_edge5_Node000001_Node000005"><a xlink:title=" ">
<path fill="none" stroke="#63b8ff" d="M176.72,-56.8C192.2,-47.56 212.32,-35.55 227.71,-26.36"/>
<polygon fill="#63b8ff" stroke="#63b8ff" points="229.81,-29.19 236.6,-21.06 226.22,-23.18 229.81,-29.19"/>
</a>
</g>
</g>
<!-- Node6 -->
<g id="Node000006" class="node">
<title>Node6</title>
<g id="a_Node000006"><a xlink:title=" ">
<polygon fill="#e0e0e0" stroke="#999999" points="346,-20.96 302,-20.96 302,-1.96 346,-1.96 346,-20.96"/>
<text text-anchor="middle" x="324" y="-8.96" font-family="FreeSans" font-size="10.00">string</text>
</a>
</g>
</g>
<!-- Node1&#45;&gt;Node6 -->
<g id="edge6_Node000001_Node000006" class="edge">
<title>Node1&#45;&gt;Node6</title>
<g id="a_edge6_Node000001_Node000006"><a xlink:title=" ">
<path fill="none" stroke="#63b8ff" d="M193.96,-56.95C224.05,-46.65 264.37,-32.86 292.09,-23.38"/>
<polygon fill="#63b8ff" stroke="#63b8ff" points="293.36,-26.64 301.69,-20.09 291.09,-20.02 293.36,-26.64"/>
</a>
</g>
</g>
<!-- Node4&#45;&gt;Node4 -->
<g id="edge4_Node000004_Node000004" class="edge">
<title>Node4&#45;&gt;Node4</title>
<g id="a_edge4_Node000004_Node000004"><a xlink:title=" ">
<path fill="none" stroke="#63b8ff" d="M170.35,-20.99C184.85,-25.07 200,-21.89 200,-11.46 200,-3.48 191.12,0.26 180.45,-0.26"/>
<polygon fill="#63b8ff" stroke="#63b8ff" points="179.65,3.16 170.35,-1.93 180.79,-3.75 179.65,3.16"/>
</a>
</g>
</g>
</g>
</svg>
</svg>

<style type='text/css'>
<![CDATA[
[data-mouse-over-selected='false'] { opacity: 0.7; }
[data-mouse-over-selected='true']  { opacity: 1.0; }
]]>
</style>
<script type="application/ecmascript"><![CDATA[
document.addEventListener('DOMContentLoaded', (event) => {
  highlightEdges();
  highlightAdjacentNodes();
});
]]></script>
</svg>
