<?xml version="1.0" encoding="UTF-8" standalone="no"?>
<!DOCTYPE svg PUBLIC "-//W3C//DTD SVG 1.1//EN"
 "http://www.w3.org/Graphics/SVG/1.1/DTD/svg11.dtd">
<!-- Generated by graphviz version 2.43.0 (0)
 -->
<!-- Title: mpqc/math/groups/petite_list.cpp Pages: 1 -->
<svg width="1259pt" height="335pt"
 viewBox="0.00 0.00 1259.45 335.00" xmlns="http://www.w3.org/2000/svg" xmlns:xlink="http://www.w3.org/1999/xlink">
<g id="graph0" class="graph" transform="scale(1 1) rotate(0) translate(4 331)">
<title>mpqc/math/groups/petite_list.cpp</title>
<!-- Node1 -->
<g id="Node000001" class="node">
<title>Node1</title>
<g id="a_Node000001"><a xlink:title=" ">
<polygon fill="#999999" stroke="#666666" points="298,-327 158,-327 158,-297 298,-297 298,-327"/>
<text text-anchor="start" x="166" y="-315" font-family="FreeSans" font-size="10.00">mpqc/math/groups/petite</text>
<text text-anchor="middle" x="228" y="-304" font-family="FreeSans" font-size="10.00">_list.cpp</text>
</a>
</g>
</g>
<!-- Node2 -->
<g id="Node000002" class="node">
<title>Node2</title>
<g id="a_Node000002"><a xlink:href="petite__list_8h.html" target="_top" xlink:title=" ">
<polygon fill="white" stroke="#666666" points="221,-140 81,-140 81,-110 221,-110 221,-140"/>
<text text-anchor="start" x="89" y="-128" font-family="FreeSans" font-size="10.00">mpqc/math/groups/petite</text>
<text text-anchor="middle" x="151" y="-117" font-family="FreeSans" font-size="10.00">_list.h</text>
</a>
</g>
</g>
<!-- Node1&#45;&gt;Node2 -->
<g id="edge1_Node000001_Node000002" class="edge">
<title>Node1&#45;&gt;Node2</title>
<g id="a_edge1_Node000001_Node000002"><a xlink:title=" ">
<path fill="none" stroke="#63b8ff" d="M222.09,-296.79C208.9,-265.1 176.97,-188.38 160.77,-149.47"/>
<polygon fill="#63b8ff" stroke="#63b8ff" points="163.9,-147.89 156.83,-140 157.44,-150.58 163.9,-147.89"/>
</a>
</g>
</g>
<!-- Node8 -->
<g id="Node000008" class="node">
<title>Node8</title>
<g id="a_Node000008"><a xlink:href="exception_8h.html" target="_top" xlink:title=" ">
<polygon fill="white" stroke="#666666" points="440,-134.5 294,-134.5 294,-115.5 440,-115.5 440,-134.5"/>
<text text-anchor="middle" x="367" y="-122.5" font-family="FreeSans" font-size="10.00">mpqc/util/core/exception.h</text>
</a>
</g>
</g>
<!-- Node1&#45;&gt;Node8 -->
<g id="edge8_Node000001_Node000008" class="edge">
<title>Node1&#45;&gt;Node8</title>
<g id="a_edge8_Node000001_Node000008"><a xlink:title=" ">
<path fill="none" stroke="#63b8ff" d="M231.48,-296.91C238.55,-270.62 256.72,-213.37 289,-176 302.54,-160.33 322.18,-147.78 338.37,-139.17"/>
<polygon fill="#63b8ff" stroke="#63b8ff" points="340.11,-142.21 347.43,-134.56 336.93,-135.97 340.11,-142.21"/>
</a>
</g>
</g>
<!-- Node13 -->
<g id="Node000013" class="node">
<title>Node13</title>
<g id="a_Node000013"><a xlink:href="util_2misc_2string_8h.html" target="_top" xlink:title=" ">
<polygon fill="white" stroke="#666666" points="638,-261 510,-261 510,-242 638,-242 638,-261"/>
<text text-anchor="middle" x="574" y="-249" font-family="FreeSans" font-size="10.00">mpqc/util/misc/string.h</text>
</a>
</g>
</g>
<!-- Node1&#45;&gt;Node13 -->
<g id="edge17_Node000001_Node000013" class="edge">
<title>Node1&#45;&gt;Node13</title>
<g id="a_edge17_Node000001_Node000013"><a xlink:title=" ">
<path fill="none" stroke="#63b8ff" d="M298.02,-299.16C361.3,-288.46 453.48,-272.88 513.6,-262.71"/>
<polygon fill="#63b8ff" stroke="#63b8ff" points="514.42,-266.12 523.69,-261.01 513.25,-259.22 514.42,-266.12"/>
</a>
</g>
</g>
<!-- Node3 -->
<g id="Node000003" class="node">
<title>Node3</title>
<g id="a_Node000003"><a xlink:title=" ">
<polygon fill="#e0e0e0" stroke="#999999" points="50,-74 0,-74 0,-55 50,-55 50,-74"/>
<text text-anchor="middle" x="25" y="-62" font-family="FreeSans" font-size="10.00">cstdint</text>
</a>
</g>
</g>
<!-- Node2&#45;&gt;Node3 -->
<g id="edge2_Node000002_Node000003" class="edge">
<title>Node2&#45;&gt;Node3</title>
<g id="a_edge2_Node000002_Node000003"><a xlink:title=" ">
<path fill="none" stroke="#63b8ff" d="M120.82,-109.99C100.17,-100.4 73,-87.79 52.87,-78.44"/>
<polygon fill="#63b8ff" stroke="#63b8ff" points="54.15,-75.18 43.61,-74.14 51.2,-81.52 54.15,-75.18"/>
</a>
</g>
</g>
<!-- Node4 -->
<g id="Node000004" class="node">
<title>Node4</title>
<g id="a_Node000004"><a xlink:title=" ">
<polygon fill="#e0e0e0" stroke="#999999" points="106,-74 68,-74 68,-55 106,-55 106,-74"/>
<text text-anchor="middle" x="87" y="-62" font-family="FreeSans" font-size="10.00">map</text>
</a>
</g>
</g>
<!-- Node2&#45;&gt;Node4 -->
<g id="edge3_Node000002_Node000004" class="edge">
<title>Node2&#45;&gt;Node4</title>
<g id="a_edge3_Node000002_Node000004"><a xlink:title=" ">
<path fill="none" stroke="#63b8ff" d="M135.51,-109.84C126.03,-101.17 113.89,-90.08 104.12,-81.15"/>
<polygon fill="#63b8ff" stroke="#63b8ff" points="106.33,-78.43 96.59,-74.27 101.61,-83.6 106.33,-78.43"/>
</a>
</g>
</g>
<!-- Node5 -->
<g id="Node000005" class="node">
<title>Node5</title>
<g id="a_Node000005"><a xlink:href="memory.html" target="_top" xlink:title=" ">
<polygon fill="white" stroke="#666666" points="220,-74 162,-74 162,-55 220,-55 220,-74"/>
<text text-anchor="middle" x="191" y="-62" font-family="FreeSans" font-size="10.00">memory</text>
</a>
</g>
</g>
<!-- Node2&#45;&gt;Node5 -->
<g id="edge4_Node000002_Node000005" class="edge">
<title>Node2&#45;&gt;Node5</title>
<g id="a_edge4_Node000002_Node000005"><a xlink:title=" ">
<path fill="none" stroke="#63b8ff" d="M160.68,-109.84C166.25,-101.69 173.29,-91.4 179.18,-82.78"/>
<polygon fill="#63b8ff" stroke="#63b8ff" points="182.25,-84.5 185.01,-74.27 176.47,-80.55 182.25,-84.5"/>
</a>
</g>
</g>
<!-- Node6 -->
<g id="Node000006" class="node">
<title>Node6</title>
<g id="a_Node000006"><a xlink:title=" ">
<polygon fill="#e0e0e0" stroke="#999999" points="359.5,-74 294.5,-74 294.5,-55 359.5,-55 359.5,-74"/>
<text text-anchor="middle" x="327" y="-62" font-family="FreeSans" font-size="10.00">stdexcept</text>
</a>
</g>
</g>
<!-- Node2&#45;&gt;Node6 -->
<g id="edge6_Node000002_Node000006" class="edge">
<title>Node2&#45;&gt;Node6</title>
<g id="a_edge6_Node000002_Node000006"><a xlink:title=" ">
<path fill="none" stroke="#63b8ff" d="M193.16,-109.99C223.27,-99.98 263.31,-86.67 291.73,-77.22"/>
<polygon fill="#63b8ff" stroke="#63b8ff" points="292.88,-80.53 301.27,-74.05 290.67,-73.89 292.88,-80.53"/>
</a>
</g>
</g>
<!-- Node7 -->
<g id="Node000007" class="node">
<title>Node7</title>
<g id="a_Node000007"><a xlink:title=" ">
<polygon fill="#e0e0e0" stroke="#999999" points="288,-19 244,-19 244,0 288,0 288,-19"/>
<text text-anchor="middle" x="266" y="-7" font-family="FreeSans" font-size="10.00">string</text>
</a>
</g>
</g>
<!-- Node2&#45;&gt;Node7 -->
<g id="edge7_Node000002_Node000007" class="edge">
<title>Node2&#45;&gt;Node7</title>
<g id="a_edge7_Node000002_Node000007"><a xlink:title=" ">
<path fill="none" stroke="#63b8ff" d="M147.21,-109.9C144.06,-94.88 141.7,-71.08 153,-55 171.29,-28.95 207.31,-18.15 233.78,-13.67"/>
<polygon fill="#63b8ff" stroke="#63b8ff" points="234.37,-17.12 243.75,-12.2 233.35,-10.2 234.37,-17.12"/>
</a>
</g>
</g>
<!-- Node5&#45;&gt;Node5 -->
<g id="edge5_Node000005_Node000005" class="edge">
<title>Node5&#45;&gt;Node5</title>
<g id="a_edge5_Node000005_Node000005"><a xlink:title=" ">
<path fill="none" stroke="#63b8ff" d="M213.24,-74.07C226.06,-76.02 238,-72.83 238,-64.5 238,-58.45 231.7,-55.11 223.34,-54.48"/>
<polygon fill="#63b8ff" stroke="#63b8ff" points="223.08,-50.99 213.24,-54.93 223.39,-57.98 223.08,-50.99"/>
</a>
</g>
</g>
<!-- Node8&#45;&gt;Node5 -->
<g id="edge10_Node000008_Node000005" class="edge">
<title>Node8&#45;&gt;Node5</title>
<g id="a_edge10_Node000008_Node000005"><a xlink:title=" ">
<path fill="none" stroke="#63b8ff" d="M341.41,-115.49C311.04,-105.4 260.24,-88.51 226.18,-77.19"/>
<polygon fill="#63b8ff" stroke="#63b8ff" points="227.22,-73.85 216.62,-74.02 225.01,-80.49 227.22,-73.85"/>
</a>
</g>
</g>
<!-- Node8&#45;&gt;Node6 -->
<g id="edge12_Node000008_Node000006" class="edge">
<title>Node8&#45;&gt;Node6</title>
<g id="a_edge12_Node000008_Node000006"><a xlink:title=" ">
<path fill="none" stroke="#63b8ff" d="M361.1,-115.37C355.25,-106.81 346.13,-93.47 338.79,-82.74"/>
<polygon fill="#63b8ff" stroke="#63b8ff" points="341.46,-80.45 332.93,-74.17 335.68,-84.4 341.46,-80.45"/>
</a>
</g>
</g>
<!-- Node9 -->
<g id="Node000009" class="node">
<title>Node9</title>
<g id="a_Node000009"><a xlink:title=" ">
<polygon fill="#e0e0e0" stroke="#999999" points="430.5,-74 377.5,-74 377.5,-55 430.5,-55 430.5,-74"/>
<text text-anchor="middle" x="404" y="-62" font-family="FreeSans" font-size="10.00">string.h</text>
</a>
</g>
</g>
<!-- Node8&#45;&gt;Node9 -->
<g id="edge9_Node000008_Node000009" class="edge">
<title>Node8&#45;&gt;Node9</title>
<g id="a_edge9_Node000008_Node000009"><a xlink:title=" ">
<path fill="none" stroke="#63b8ff" d="M372.46,-115.37C377.87,-106.81 386.31,-93.47 393.1,-82.74"/>
<polygon fill="#63b8ff" stroke="#63b8ff" points="396.13,-84.49 398.52,-74.17 390.21,-80.75 396.13,-84.49"/>
</a>
</g>
</g>
<!-- Node10 -->
<g id="Node000010" class="node">
<title>Node10</title>
<g id="a_Node000010"><a xlink:title=" ">
<polygon fill="#e0e0e0" stroke="#999999" points="770,-74 714,-74 714,-55 770,-55 770,-74"/>
<text text-anchor="middle" x="742" y="-62" font-family="FreeSans" font-size="10.00">sstream</text>
</a>
</g>
</g>
<!-- Node8&#45;&gt;Node10 -->
<g id="edge11_Node000008_Node000010" class="edge">
<title>Node8&#45;&gt;Node10</title>
<g id="a_edge11_Node000008_Node000010"><a xlink:title=" ">
<path fill="none" stroke="#63b8ff" d="M415.97,-115.49C426.84,-113.64 438.31,-111.72 449,-110 540.14,-95.3 647.47,-79.34 703.51,-71.12"/>
<polygon fill="#63b8ff" stroke="#63b8ff" points="704.3,-74.54 713.69,-69.62 703.29,-67.61 704.3,-74.54"/>
</a>
</g>
</g>
<!-- Node11 -->
<g id="Node000011" class="node">
<title>Node11</title>
<g id="a_Node000011"><a xlink:title=" ">
<polygon fill="#e0e0e0" stroke="#999999" points="595.5,-19 548.5,-19 548.5,0 595.5,0 595.5,-19"/>
<text text-anchor="middle" x="572" y="-7" font-family="FreeSans" font-size="10.00">vector</text>
</a>
</g>
</g>
<!-- Node8&#45;&gt;Node11 -->
<g id="edge13_Node000008_Node000011" class="edge">
<title>Node8&#45;&gt;Node11</title>
<g id="a_edge13_Node000008_Node000011"><a xlink:title=" ">
<path fill="none" stroke="#63b8ff" d="M414.84,-115.49C482.33,-103.26 598.02,-81.38 604,-74 615.7,-59.57 602.59,-40.17 589.8,-26.62"/>
<polygon fill="#63b8ff" stroke="#63b8ff" points="592.06,-23.94 582.49,-19.4 587.14,-28.92 592.06,-23.94"/>
</a>
</g>
</g>
<!-- Node12 -->
<g id="Node000012" class="node">
<title>Node12</title>
<g id="a_Node000012"><a xlink:href="backtrace_8h.html" target="_top" xlink:title=" ">
<polygon fill="white" stroke="#666666" points="595,-74 449,-74 449,-55 595,-55 595,-74"/>
<text text-anchor="middle" x="522" y="-62" font-family="FreeSans" font-size="10.00">mpqc/util/core/backtrace.h</text>
</a>
</g>
</g>
<!-- Node8&#45;&gt;Node12 -->
<g id="edge14_Node000008_Node000012" class="edge">
<title>Node8&#45;&gt;Node12</title>
<g id="a_edge14_Node000008_Node000012"><a xlink:title=" ">
<path fill="none" stroke="#63b8ff" d="M389.54,-115.49C415.94,-105.53 459.88,-88.95 489.85,-77.63"/>
<polygon fill="#63b8ff" stroke="#63b8ff" points="491.31,-80.82 499.43,-74.02 488.84,-74.27 491.31,-80.82"/>
</a>
</g>
</g>
<!-- Node12&#45;&gt;Node7 -->
<g id="edge15_Node000012_Node000007" class="edge">
<title>Node12&#45;&gt;Node7</title>
<g id="a_edge15_Node000012_Node000007"><a xlink:title=" ">
<path fill="none" stroke="#63b8ff" d="M480.87,-54.98C429.99,-44.45 344.45,-26.74 298.13,-17.15"/>
<polygon fill="#63b8ff" stroke="#63b8ff" points="298.56,-13.67 288.05,-15.07 297.14,-20.52 298.56,-13.67"/>
</a>
</g>
</g>
<!-- Node12&#45;&gt;Node11 -->
<g id="edge16_Node000012_Node000011" class="edge">
<title>Node12&#45;&gt;Node11</title>
<g id="a_edge16_Node000012_Node000011"><a xlink:title=" ">
<path fill="none" stroke="#63b8ff" d="M530.26,-54.75C537.46,-47.11 548.11,-35.82 556.85,-26.56"/>
<polygon fill="#63b8ff" stroke="#63b8ff" points="559.58,-28.76 563.9,-19.09 554.49,-23.96 559.58,-28.76"/>
</a>
</g>
</g>
<!-- Node13&#45;&gt;Node7 -->
<g id="edge34_Node000013_Node000007" class="edge">
<title>Node13&#45;&gt;Node7</title>
<g id="a_edge34_Node000013_Node000007"><a xlink:title=" ">
<path fill="none" stroke="#63b8ff" d="M509.77,-249.22C435.2,-246.28 318.61,-236.75 289,-206 242.18,-157.38 253.91,-67.42 261.72,-28.84"/>
<polygon fill="#63b8ff" stroke="#63b8ff" points="265.15,-29.53 263.86,-19.01 258.31,-28.04 265.15,-29.53"/>
</a>
</g>
</g>
<!-- Node13&#45;&gt;Node10 -->
<g id="edge33_Node000013_Node000010" class="edge">
<title>Node13&#45;&gt;Node10</title>
<g id="a_edge33_Node000013_Node000010"><a xlink:title=" ">
<path fill="none" stroke="#63b8ff" d="M638.08,-245.71C693.23,-240.09 766.72,-228.53 785,-206 815.16,-168.82 777.98,-110.63 755.99,-82.23"/>
<polygon fill="#63b8ff" stroke="#63b8ff" points="758.48,-79.73 749.49,-74.12 753.02,-84.11 758.48,-79.73"/>
</a>
</g>
</g>
<!-- Node14 -->
<g id="Node000014" class="node">
<title>Node14</title>
<g id="a_Node000014"><a xlink:title=" ">
<polygon fill="#e0e0e0" stroke="#999999" points="563,-206 447,-206 447,-176 563,-176 563,-206"/>
<text text-anchor="start" x="455" y="-194" font-family="FreeSans" font-size="10.00">madness/world/type</text>
<text text-anchor="middle" x="505" y="-183" font-family="FreeSans" font-size="10.00">_traits.h</text>
</a>
</g>
</g>
<!-- Node13&#45;&gt;Node14 -->
<g id="edge18_Node000013_Node000014" class="edge">
<title>Node13&#45;&gt;Node14</title>
<g id="a_edge18_Node000013_Node000014"><a xlink:title=" ">
<path fill="none" stroke="#63b8ff" d="M563.82,-241.87C554.8,-234.22 541.28,-222.76 529.47,-212.75"/>
<polygon fill="#63b8ff" stroke="#63b8ff" points="531.54,-209.91 521.65,-206.11 527.01,-215.25 531.54,-209.91"/>
</a>
</g>
</g>
<!-- Node15 -->
<g id="Node000015" class="node">
<title>Node15</title>
<g id="a_Node000015"><a xlink:href="type__traits_8h.html" target="_top" xlink:title=" ">
<polygon fill="white" stroke="#666666" points="1061,-206 945,-206 945,-176 1061,-176 1061,-206"/>
<text text-anchor="start" x="953" y="-194" font-family="FreeSans" font-size="10.00">mpqc/util/meta/type</text>
<text text-anchor="middle" x="1003" y="-183" font-family="FreeSans" font-size="10.00">_traits.h</text>
</a>
</g>
</g>
<!-- Node13&#45;&gt;Node15 -->
<g id="edge19_Node000013_Node000015" class="edge">
<title>Node13&#45;&gt;Node15</title>
<g id="a_edge19_Node000013_Node000015"><a xlink:title=" ">
<path fill="none" stroke="#63b8ff" d="M636.38,-241.99C715.8,-231.16 852.53,-212.52 934.69,-201.32"/>
<polygon fill="#63b8ff" stroke="#63b8ff" points="935.24,-204.77 944.68,-199.95 934.29,-197.84 935.24,-204.77"/>
</a>
</g>
</g>
<!-- Node21 -->
<g id="Node000021" class="node">
<title>Node21</title>
<g id="a_Node000021"><a xlink:href="assert_8h.html" target="_top" xlink:title=" ">
<polygon fill="white" stroke="#666666" points="428.5,-200.5 297.5,-200.5 297.5,-181.5 428.5,-181.5 428.5,-200.5"/>
<text text-anchor="middle" x="363" y="-188.5" font-family="FreeSans" font-size="10.00">mpqc/util/misc/assert.h</text>
</a>
</g>
</g>
<!-- Node13&#45;&gt;Node21 -->
<g id="edge27_Node000013_Node000021" class="edge">
<title>Node13&#45;&gt;Node21</title>
<g id="a_edge27_Node000013_Node000021"><a xlink:title=" ">
<path fill="none" stroke="#63b8ff" d="M543.32,-241.99C506.44,-231.77 444.43,-214.58 403.61,-203.26"/>
<polygon fill="#63b8ff" stroke="#63b8ff" points="404.29,-199.82 393.72,-200.52 402.42,-206.56 404.29,-199.82"/>
</a>
</g>
</g>
<!-- Node24 -->
<g id="Node000024" class="node">
<title>Node24</title>
<g id="a_Node000024"><a xlink:title=" ">
<polygon fill="#e0e0e0" stroke="#999999" points="704.5,-206 581.5,-206 581.5,-176 704.5,-176 704.5,-206"/>
<text text-anchor="start" x="589.5" y="-194" font-family="FreeSans" font-size="10.00">boost/locale/encoding</text>
<text text-anchor="middle" x="643" y="-183" font-family="FreeSans" font-size="10.00">_utf.hpp</text>
</a>
</g>
</g>
<!-- Node13&#45;&gt;Node24 -->
<g id="edge31_Node000013_Node000024" class="edge">
<title>Node13&#45;&gt;Node24</title>
<g id="a_edge31_Node000013_Node000024"><a xlink:title=" ">
<path fill="none" stroke="#63b8ff" d="M584.18,-241.87C593.2,-234.22 606.72,-222.76 618.53,-212.75"/>
<polygon fill="#63b8ff" stroke="#63b8ff" points="620.99,-215.25 626.35,-206.11 616.46,-209.91 620.99,-215.25"/>
</a>
</g>
</g>
<!-- Node25 -->
<g id="Node000025" class="node">
<title>Node25</title>
<g id="a_Node000025"><a xlink:title=" ">
<polygon fill="#e0e0e0" stroke="#999999" points="775.5,-200.5 722.5,-200.5 722.5,-181.5 775.5,-181.5 775.5,-200.5"/>
<text text-anchor="middle" x="749" y="-188.5" font-family="FreeSans" font-size="10.00">iterator</text>
</a>
</g>
</g>
<!-- Node13&#45;&gt;Node25 -->
<g id="edge32_Node000013_Node000025" class="edge">
<title>Node13&#45;&gt;Node25</title>
<g id="a_edge32_Node000013_Node000025"><a xlink:title=" ">
<path fill="none" stroke="#63b8ff" d="M602.89,-241.99C631.35,-233.45 675.95,-219.64 714,-206 715.61,-205.42 717.25,-204.82 718.91,-204.2"/>
<polygon fill="#63b8ff" stroke="#63b8ff" points="720.3,-207.41 728.37,-200.54 717.78,-200.88 720.3,-207.41"/>
</a>
</g>
</g>
<!-- Node16 -->
<g id="Node000016" class="node">
<title>Node16</title>
<g id="a_Node000016"><a xlink:title=" ">
<polygon fill="#e0e0e0" stroke="#999999" points="1024,-134.5 982,-134.5 982,-115.5 1024,-115.5 1024,-134.5"/>
<text text-anchor="middle" x="1003" y="-122.5" font-family="FreeSans" font-size="10.00">array</text>
</a>
</g>
</g>
<!-- Node15&#45;&gt;Node16 -->
<g id="edge20_Node000015_Node000016" class="edge">
<title>Node15&#45;&gt;Node16</title>
<g id="a_edge20_Node000015_Node000016"><a xlink:title=" ">
<path fill="none" stroke="#63b8ff" d="M1003,-175.8C1003,-166.7 1003,-154.79 1003,-144.9"/>
<polygon fill="#63b8ff" stroke="#63b8ff" points="1006.5,-144.84 1003,-134.84 999.5,-144.84 1006.5,-144.84"/>
</a>
</g>
</g>
<!-- Node17 -->
<g id="Node000017" class="node">
<title>Node17</title>
<g id="a_Node000017"><a xlink:title=" ">
<polygon fill="#e0e0e0" stroke="#999999" points="1248,-74 1198,-74 1198,-55 1248,-55 1248,-74"/>
<text text-anchor="middle" x="1223" y="-62" font-family="FreeSans" font-size="10.00">atomic</text>
</a>
</g>
</g>
<!-- Node15&#45;&gt;Node17 -->
<g id="edge21_Node000015_Node000017" class="edge">
<title>Node15&#45;&gt;Node17</title>
<g id="a_edge21_Node000015_Node000017"><a xlink:title=" ">
<path fill="none" stroke="#63b8ff" d="M1061.06,-186.24C1125.13,-180.74 1222.24,-167.94 1245,-140 1258.38,-123.57 1247.05,-99.23 1236.29,-82.89"/>
<polygon fill="#63b8ff" stroke="#63b8ff" points="1238.86,-80.46 1230.22,-74.32 1233.14,-84.5 1238.86,-80.46"/>
</a>
</g>
</g>
<!-- Node18 -->
<g id="Node000018" class="node">
<title>Node18</title>
<g id="a_Node000018"><a xlink:title=" ">
<polygon fill="#e0e0e0" stroke="#999999" points="1111.5,-134.5 1042.5,-134.5 1042.5,-115.5 1111.5,-115.5 1111.5,-134.5"/>
<text text-anchor="middle" x="1077" y="-122.5" font-family="FreeSans" font-size="10.00">type_traits</text>
</a>
</g>
</g>
<!-- Node15&#45;&gt;Node18 -->
<g id="edge22_Node000015_Node000018" class="edge">
<title>Node15&#45;&gt;Node18</title>
<g id="a_edge22_Node000015_Node000018"><a xlink:title=" ">
<path fill="none" stroke="#63b8ff" d="M1019.42,-175.8C1031.19,-165.62 1047.02,-151.93 1059.1,-141.48"/>
<polygon fill="#63b8ff" stroke="#63b8ff" points="1061.5,-144.03 1066.77,-134.84 1056.92,-138.74 1061.5,-144.03"/>
</a>
</g>
</g>
<!-- Node19 -->
<g id="Node000019" class="node">
<title>Node19</title>
<g id="a_Node000019"><a xlink:href="atomic_8h.html" target="_top" xlink:title=" ">
<polygon fill="white" stroke="#666666" points="1236,-140 1130,-140 1130,-110 1236,-110 1236,-140"/>
<text text-anchor="start" x="1138" y="-128" font-family="FreeSans" font-size="10.00">mpqc/util/external</text>
<text text-anchor="middle" x="1183" y="-117" font-family="FreeSans" font-size="10.00">/c++/atomic.h</text>
</a>
</g>
</g>
<!-- Node15&#45;&gt;Node19 -->
<g id="edge23_Node000015_Node000019" class="edge">
<title>Node15&#45;&gt;Node19</title>
<g id="a_edge23_Node000015_Node000019"><a xlink:title=" ">
<path fill="none" stroke="#63b8ff" d="M1042.5,-175.95C1069.47,-166.37 1105.37,-153.6 1134.13,-143.37"/>
<polygon fill="#63b8ff" stroke="#63b8ff" points="1135.34,-146.66 1143.59,-140.01 1133,-140.06 1135.34,-146.66"/>
</a>
</g>
</g>
<!-- Node20 -->
<g id="Node000020" class="node">
<title>Node20</title>
<g id="a_Node000020"><a xlink:href="sfinae_8h.html" target="_top" xlink:title=" ">
<polygon fill="white" stroke="#666666" points="964,-134.5 832,-134.5 832,-115.5 964,-115.5 964,-134.5"/>
<text text-anchor="middle" x="898" y="-122.5" font-family="FreeSans" font-size="10.00">mpqc/util/meta/sfinae.h</text>
</a>
</g>
</g>
<!-- Node15&#45;&gt;Node20 -->
<g id="edge25_Node000015_Node000020" class="edge">
<title>Node15&#45;&gt;Node20</title>
<g id="a_edge25_Node000015_Node000020"><a xlink:title=" ">
<path fill="none" stroke="#63b8ff" d="M974.26,-175.95C955.51,-165.37 931.78,-150.92 915.7,-140.28"/>
<polygon fill="#63b8ff" stroke="#63b8ff" points="917.45,-137.24 907.21,-134.52 913.52,-143.03 917.45,-137.24"/>
</a>
</g>
</g>
<!-- Node19&#45;&gt;Node17 -->
<g id="edge24_Node000019_Node000017" class="edge">
<title>Node19&#45;&gt;Node17</title>
<g id="a_edge24_Node000019_Node000017"><a xlink:title=" ">
<path fill="none" stroke="#63b8ff" d="M1192.68,-109.84C1198.25,-101.69 1205.29,-91.4 1211.18,-82.78"/>
<polygon fill="#63b8ff" stroke="#63b8ff" points="1214.25,-84.5 1217.01,-74.27 1208.47,-80.55 1214.25,-84.5"/>
</a>
</g>
</g>
<!-- Node20&#45;&gt;Node15 -->
<g id="edge26_Node000020_Node000015" class="edge">
<title>Node20&#45;&gt;Node15</title>
<g id="a_edge26_Node000020_Node000015"><a xlink:title=" ">
<path fill="none" stroke="#63b8ff" d="M917,-134.66C933.82,-143.73 958.2,-158.29 976.81,-170.2"/>
<polygon fill="#63b8ff" stroke="#63b8ff" points="975.13,-173.28 985.42,-175.8 978.94,-167.41 975.13,-173.28"/>
</a>
</g>
</g>
<!-- Node21&#45;&gt;Node8 -->
<g id="edge30_Node000021_Node000008" class="edge">
<title>Node21&#45;&gt;Node8</title>
<g id="a_edge30_Node000021_Node000008"><a xlink:title=" ">
<path fill="none" stroke="#63b8ff" d="M363.54,-181.37C364.12,-172.07 365.06,-156.98 365.82,-144.9"/>
<polygon fill="#63b8ff" stroke="#63b8ff" points="369.31,-145.1 366.44,-134.91 362.33,-144.67 369.31,-145.1"/>
</a>
</g>
</g>
<!-- Node22 -->
<g id="Node000022" class="node">
<title>Node22</title>
<g id="a_Node000022"><a xlink:title=" ">
<polygon fill="#e0e0e0" stroke="#999999" points="645.5,-134.5 528.5,-134.5 528.5,-115.5 645.5,-115.5 645.5,-134.5"/>
<text text-anchor="middle" x="587" y="-122.5" font-family="FreeSans" font-size="10.00">mpqc/mpqc_config.h</text>
</a>
</g>
</g>
<!-- Node21&#45;&gt;Node22 -->
<g id="edge28_Node000021_Node000022" class="edge">
<title>Node21&#45;&gt;Node22</title>
<g id="a_edge28_Node000021_Node000022"><a xlink:title=" ">
<path fill="none" stroke="#63b8ff" d="M393.21,-181.37C432.98,-170 503.01,-150 547.11,-137.4"/>
<polygon fill="#63b8ff" stroke="#63b8ff" points="548.26,-140.71 556.91,-134.6 546.34,-133.98 548.26,-140.71"/>
</a>
</g>
</g>
<!-- Node23 -->
<g id="Node000023" class="node">
<title>Node23</title>
<g id="a_Node000023"><a xlink:title=" ">
<polygon fill="#e0e0e0" stroke="#999999" points="510,-134.5 458,-134.5 458,-115.5 510,-115.5 510,-134.5"/>
<text text-anchor="middle" x="484" y="-122.5" font-family="FreeSans" font-size="10.00">cassert</text>
</a>
</g>
</g>
<!-- Node21&#45;&gt;Node23 -->
<g id="edge29_Node000021_Node000023" class="edge">
<title>Node21&#45;&gt;Node23</title>
<g id="a_edge29_Node000021_Node000023"><a xlink:title=" ">
<path fill="none" stroke="#63b8ff" d="M379.32,-181.37C399.71,-170.59 434.81,-152.02 458.7,-139.38"/>
<polygon fill="#63b8ff" stroke="#63b8ff" points="460.35,-142.47 467.55,-134.7 457.08,-136.28 460.35,-142.47"/>
</a>
</g>
</g>
</g>
</svg>
