<?xml version="1.0" encoding="UTF-8" standalone="no"?>
<!DOCTYPE svg PUBLIC "-//W3C//DTD SVG 1.1//EN"
 "http://www.w3.org/Graphics/SVG/1.1/DTD/svg11.dtd">
<!-- Generated by graphviz version 2.43.0 (0)
 -->
<!-- Title: mpqc/math/linalg/print.h Pages: 1 -->
<svg width="1657pt" height="423pt"
 viewBox="0.00 0.00 1657.00 423.00" xmlns="http://www.w3.org/2000/svg" xmlns:xlink="http://www.w3.org/1999/xlink">
<g id="graph0" class="graph" transform="scale(1 1) rotate(0) translate(4 419)">
<title>mpqc/math/linalg/print.h</title>
<!-- Node1 -->
<g id="Node000001" class="node">
<title>Node1</title>
<g id="a_Node000001"><a xlink:title=" ">
<polygon fill="#999999" stroke="#666666" points="1205,-415 1068,-415 1068,-396 1205,-396 1205,-415"/>
<text text-anchor="middle" x="1136.5" y="-403" font-family="FreeSans" font-size="10.00">mpqc/math/linalg/print.h</text>
</a>
</g>
</g>
<!-- Node2 -->
<g id="Node000002" class="node">
<title>Node2</title>
<g id="a_Node000002"><a xlink:href="cis_8h.html" target="_top" xlink:title=" ">
<polygon fill="white" stroke="#666666" points="379,-294 246,-294 246,-264 379,-264 379,-294"/>
<text text-anchor="start" x="254" y="-282" font-family="FreeSans" font-size="10.00">mpqc/chemistry/qc/lcao</text>
<text text-anchor="middle" x="312.5" y="-271" font-family="FreeSans" font-size="10.00">/ci/cis.h</text>
</a>
</g>
</g>
<!-- Node1&#45;&gt;Node2 -->
<g id="edge1_Node000001_Node000002" class="edge">
<title>Node1&#45;&gt;Node2</title>
<g id="a_edge1_Node000001_Node000002"><a xlink:title=" ">
<path fill="none" stroke="#63b8ff" d="M1069.9,-394.44C915.37,-371.09 533.88,-313.45 379.23,-290.08"/>
<polygon fill="#63b8ff" stroke="#63b8ff" points="1069.78,-397.96 1080.19,-395.99 1070.82,-391.04 1069.78,-397.96"/>
</a>
</g>
</g>
<!-- Node8 -->
<g id="Node000008" class="node">
<title>Node8</title>
<g id="a_Node000008"><a xlink:href="sci_8h.html" target="_top" xlink:title=" ">
<polygon fill="white" stroke="#666666" points="1649,-294 1516,-294 1516,-264 1649,-264 1649,-294"/>
<text text-anchor="start" x="1524" y="-282" font-family="FreeSans" font-size="10.00">mpqc/chemistry/qc/lcao</text>
<text text-anchor="middle" x="1582.5" y="-271" font-family="FreeSans" font-size="10.00">/ci/sci.h</text>
</a>
</g>
</g>
<!-- Node1&#45;&gt;Node8 -->
<g id="edge9_Node000001_Node000008" class="edge">
<title>Node1&#45;&gt;Node8</title>
<g id="a_edge9_Node000001_Node000008"><a xlink:title=" ">
<path fill="none" stroke="#63b8ff" d="M1176.81,-393.25C1258.38,-370.48 1442.81,-318.99 1532.14,-294.06"/>
<polygon fill="#63b8ff" stroke="#63b8ff" points="1175.85,-389.88 1167.16,-395.94 1177.73,-396.62 1175.85,-389.88"/>
</a>
</g>
</g>
<!-- Node13 -->
<g id="Node000013" class="node">
<title>Node13</title>
<g id="a_Node000013"><a xlink:href="davidson__solver_8h.html" target="_top" xlink:title=" ">
<polygon fill="white" stroke="#666666" points="1211,-360 1062,-360 1062,-330 1211,-330 1211,-360"/>
<text text-anchor="start" x="1070" y="-348" font-family="FreeSans" font-size="10.00">mpqc/math/linalg/davidson</text>
<text text-anchor="middle" x="1136.5" y="-337" font-family="FreeSans" font-size="10.00">_solver.h</text>
</a>
</g>
</g>
<!-- Node1&#45;&gt;Node13 -->
<g id="edge14_Node000001_Node000013" class="edge">
<title>Node1&#45;&gt;Node13</title>
<g id="a_edge14_Node000001_Node000013"><a xlink:title=" ">
<path fill="none" stroke="#63b8ff" d="M1136.5,-385.65C1136.5,-377.36 1136.5,-367.78 1136.5,-360.11"/>
<polygon fill="#63b8ff" stroke="#63b8ff" points="1133,-385.87 1136.5,-395.87 1140,-385.87 1133,-385.87"/>
</a>
</g>
</g>
<!-- Node3 -->
<g id="Node000003" class="node">
<title>Node3</title>
<g id="a_Node000003"><a xlink:href="eom__ccsd_8ipp.html" target="_top" xlink:title=" ">
<polygon fill="white" stroke="#666666" points="284,-162 151,-162 151,-132 284,-132 284,-162"/>
<text text-anchor="start" x="159" y="-150" font-family="FreeSans" font-size="10.00">mpqc/chemistry/qc/lcao</text>
<text text-anchor="middle" x="217.5" y="-139" font-family="FreeSans" font-size="10.00">/cc/eom/eom_ccsd.ipp</text>
</a>
</g>
</g>
<!-- Node2&#45;&gt;Node3 -->
<g id="edge2_Node000002_Node000003" class="edge">
<title>Node2&#45;&gt;Node3</title>
<g id="a_edge2_Node000002_Node000003"><a xlink:title=" ">
<path fill="none" stroke="#63b8ff" d="M310.99,-253.5C308.91,-236.6 304,-214.32 292.5,-198 281.59,-182.52 264.24,-170.51 248.97,-162.14"/>
<polygon fill="#63b8ff" stroke="#63b8ff" points="307.53,-254.11 311.99,-263.72 314.5,-253.42 307.53,-254.11"/>
</a>
</g>
</g>
<!-- Node6 -->
<g id="Node000006" class="node">
<title>Node6</title>
<g id="a_Node000006"><a xlink:href="cis_8cpp.html" target="_top" xlink:title=" ">
<polygon fill="white" stroke="#666666" points="133,-228 0,-228 0,-198 133,-198 133,-228"/>
<text text-anchor="start" x="8" y="-216" font-family="FreeSans" font-size="10.00">mpqc/chemistry/qc/lcao</text>
<text text-anchor="middle" x="66.5" y="-205" font-family="FreeSans" font-size="10.00">/ci/cis.cpp</text>
</a>
</g>
</g>
<!-- Node2&#45;&gt;Node6 -->
<g id="edge6_Node000002_Node000006" class="edge">
<title>Node2&#45;&gt;Node6</title>
<g id="a_edge6_Node000002_Node000006"><a xlink:title=" ">
<path fill="none" stroke="#63b8ff" d="M248.64,-261.39C208.82,-251.03 158.14,-237.84 120.36,-228.01"/>
<polygon fill="#63b8ff" stroke="#63b8ff" points="247.96,-264.82 258.51,-263.95 249.72,-258.05 247.96,-264.82"/>
</a>
</g>
</g>
<!-- Node7 -->
<g id="Node000007" class="node">
<title>Node7</title>
<g id="a_Node000007"><a xlink:href="cis__d_8h.html" target="_top" xlink:title=" ">
<polygon fill="white" stroke="#666666" points="284,-228 151,-228 151,-198 284,-198 284,-228"/>
<text text-anchor="start" x="159" y="-216" font-family="FreeSans" font-size="10.00">mpqc/chemistry/qc/lcao</text>
<text text-anchor="middle" x="217.5" y="-205" font-family="FreeSans" font-size="10.00">/ci/cis_d.h</text>
</a>
</g>
</g>
<!-- Node2&#45;&gt;Node7 -->
<g id="edge7_Node000002_Node000007" class="edge">
<title>Node2&#45;&gt;Node7</title>
<g id="a_edge7_Node000002_Node000007"><a xlink:title=" ">
<path fill="none" stroke="#63b8ff" d="M282.85,-258.03C268.48,-248.34 251.55,-236.94 238.52,-228.16"/>
<polygon fill="#63b8ff" stroke="#63b8ff" points="281.17,-261.11 291.42,-263.8 285.08,-255.31 281.17,-261.11"/>
</a>
</g>
</g>
<!-- Node4 -->
<g id="Node000004" class="node">
<title>Node4</title>
<g id="a_Node000004"><a xlink:href="eom__ccsd_8cpp.html" target="_top" xlink:title=" ">
<polygon fill="white" stroke="#666666" points="309,-96 176,-96 176,-66 309,-66 309,-96"/>
<text text-anchor="start" x="184" y="-84" font-family="FreeSans" font-size="10.00">mpqc/chemistry/qc/lcao</text>
<text text-anchor="middle" x="242.5" y="-73" font-family="FreeSans" font-size="10.00">/cc/eom/eom_ccsd.cpp</text>
</a>
</g>
</g>
<!-- Node3&#45;&gt;Node4 -->
<g id="edge3_Node000003_Node000004" class="edge">
<title>Node3&#45;&gt;Node4</title>
<g id="a_edge3_Node000003_Node000004"><a xlink:title=" ">
<path fill="none" stroke="#63b8ff" d="M226.72,-122.39C230.16,-113.59 233.96,-103.86 236.97,-96.16"/>
<polygon fill="#63b8ff" stroke="#63b8ff" points="223.43,-121.21 223.05,-131.8 229.95,-123.76 223.43,-121.21"/>
</a>
</g>
</g>
<!-- Node5 -->
<g id="Node000005" class="node">
<title>Node5</title>
<g id="a_Node000005"><a xlink:href="eom__ccsd_8h.html" target="_top" xlink:title=" ">
<polygon fill="white" stroke="#666666" points="158,-96 25,-96 25,-66 158,-66 158,-96"/>
<text text-anchor="start" x="33" y="-84" font-family="FreeSans" font-size="10.00">mpqc/chemistry/qc/lcao</text>
<text text-anchor="middle" x="91.5" y="-73" font-family="FreeSans" font-size="10.00">/cc/eom/eom_ccsd.h</text>
</a>
</g>
</g>
<!-- Node3&#45;&gt;Node5 -->
<g id="edge4_Node000003_Node000005" class="edge">
<title>Node3&#45;&gt;Node5</title>
<g id="a_edge4_Node000003_Node000005"><a xlink:title=" ">
<path fill="none" stroke="#63b8ff" d="M174.92,-127.51C154.26,-117.47 130.38,-105.26 113.39,-96.01"/>
<polygon fill="#63b8ff" stroke="#63b8ff" points="173.62,-130.77 184.15,-131.95 176.66,-124.46 173.62,-130.77"/>
</a>
</g>
</g>
<!-- Node5&#45;&gt;Node3 -->
<g id="edge5_Node000005_Node000003" class="edge">
<title>Node5&#45;&gt;Node3</title>
<g id="a_edge5_Node000005_Node000003"><a xlink:title=" ">
<path fill="none" stroke="#63b8ff" d="M134.01,-100.45C154.66,-110.49 178.55,-122.7 195.55,-131.95"/>
<polygon fill="#63b8ff" stroke="#63b8ff" points="135.31,-97.19 124.78,-96.01 132.28,-103.5 135.31,-97.19"/>
</a>
</g>
</g>
<!-- Node7&#45;&gt;Node3 -->
<g id="edge8_Node000007_Node000003" class="edge">
<title>Node7&#45;&gt;Node3</title>
<g id="a_edge8_Node000007_Node000003"><a xlink:title=" ">
<path fill="none" stroke="#63b8ff" d="M217.5,-187.54C217.5,-178.96 217.5,-169.61 217.5,-162.16"/>
<polygon fill="#63b8ff" stroke="#63b8ff" points="214,-187.8 217.5,-197.8 221,-187.8 214,-187.8"/>
</a>
</g>
</g>
<!-- Node9 -->
<g id="Node000009" class="node">
<title>Node9</title>
<g id="a_Node000009"><a xlink:href="sci_8ipp.html" target="_top" xlink:title=" ">
<polygon fill="white" stroke="#666666" points="1484,-162 1351,-162 1351,-132 1484,-132 1484,-162"/>
<text text-anchor="start" x="1359" y="-150" font-family="FreeSans" font-size="10.00">mpqc/chemistry/qc/lcao</text>
<text text-anchor="middle" x="1417.5" y="-139" font-family="FreeSans" font-size="10.00">/ci/sci.ipp</text>
</a>
</g>
</g>
<!-- Node8&#45;&gt;Node9 -->
<g id="edge10_Node000008_Node000009" class="edge">
<title>Node8&#45;&gt;Node9</title>
<g id="a_edge10_Node000008_Node000009"><a xlink:title=" ">
<path fill="none" stroke="#63b8ff" d="M1551.01,-258.4C1537.34,-249.53 1521.32,-238.67 1507.5,-228 1479.7,-206.54 1449.63,-178.79 1432.24,-162.25"/>
<polygon fill="#63b8ff" stroke="#63b8ff" points="1549.31,-261.46 1559.62,-263.91 1553.09,-255.57 1549.31,-261.46"/>
</a>
</g>
</g>
<!-- Node11 -->
<g id="Node000011" class="node">
<title>Node11</title>
<g id="a_Node000011"><a xlink:href="solver__1c__v2_8ipp.html" target="_top" xlink:title=" ">
<polygon fill="white" stroke="#666666" points="1648.5,-228 1516.5,-228 1516.5,-198 1648.5,-198 1648.5,-228"/>
<text text-anchor="start" x="1524.5" y="-216" font-family="FreeSans" font-size="10.00">mpqc/chemistry/qc/mra</text>
<text text-anchor="middle" x="1582.5" y="-205" font-family="FreeSans" font-size="10.00">/scf/solver_1c_v2.ipp</text>
</a>
</g>
</g>
<!-- Node8&#45;&gt;Node11 -->
<g id="edge12_Node000008_Node000011" class="edge">
<title>Node8&#45;&gt;Node11</title>
<g id="a_edge12_Node000008_Node000011"><a xlink:title=" ">
<path fill="none" stroke="#63b8ff" d="M1582.5,-253.54C1582.5,-244.96 1582.5,-235.61 1582.5,-228.16"/>
<polygon fill="#63b8ff" stroke="#63b8ff" points="1579,-253.8 1582.5,-263.8 1586,-253.8 1579,-253.8"/>
</a>
</g>
</g>
<!-- Node10 -->
<g id="Node000010" class="node">
<title>Node10</title>
<g id="a_Node000010"><a xlink:href="sci_8cpp.html" target="_top" xlink:title=" ">
<polygon fill="white" stroke="#666666" points="1484,-96 1351,-96 1351,-66 1484,-66 1484,-96"/>
<text text-anchor="start" x="1359" y="-84" font-family="FreeSans" font-size="10.00">mpqc/chemistry/qc/lcao</text>
<text text-anchor="middle" x="1417.5" y="-73" font-family="FreeSans" font-size="10.00">/ci/sci.cpp</text>
</a>
</g>
</g>
<!-- Node9&#45;&gt;Node10 -->
<g id="edge11_Node000009_Node000010" class="edge">
<title>Node9&#45;&gt;Node10</title>
<g id="a_edge11_Node000009_Node000010"><a xlink:title=" ">
<path fill="none" stroke="#63b8ff" d="M1417.5,-121.54C1417.5,-112.96 1417.5,-103.61 1417.5,-96.16"/>
<polygon fill="#63b8ff" stroke="#63b8ff" points="1414,-121.8 1417.5,-131.8 1421,-121.8 1414,-121.8"/>
</a>
</g>
</g>
<!-- Node12 -->
<g id="Node000012" class="node">
<title>Node12</title>
<g id="a_Node000012"><a xlink:href="solver_8cpp.html" target="_top" xlink:title=" ">
<polygon fill="white" stroke="#666666" points="1648.5,-162 1516.5,-162 1516.5,-132 1648.5,-132 1648.5,-162"/>
<text text-anchor="start" x="1524.5" y="-150" font-family="FreeSans" font-size="10.00">mpqc/chemistry/qc/mra</text>
<text text-anchor="middle" x="1582.5" y="-139" font-family="FreeSans" font-size="10.00">/scf/solver.cpp</text>
</a>
</g>
</g>
<!-- Node11&#45;&gt;Node12 -->
<g id="edge13_Node000011_Node000012" class="edge">
<title>Node11&#45;&gt;Node12</title>
<g id="a_edge13_Node000011_Node000012"><a xlink:title=" ">
<path fill="none" stroke="#63b8ff" d="M1582.5,-187.54C1582.5,-178.96 1582.5,-169.61 1582.5,-162.16"/>
<polygon fill="#63b8ff" stroke="#63b8ff" points="1579,-187.8 1582.5,-197.8 1586,-187.8 1579,-187.8"/>
</a>
</g>
</g>
<!-- Node13&#45;&gt;Node2 -->
<g id="edge45_Node000013_Node000002" class="edge">
<title>Node13&#45;&gt;Node2</title>
<g id="a_edge45_Node000013_Node000002"><a xlink:title=" ">
<path fill="none" stroke="#63b8ff" d="M1051.85,-337.43C887.42,-324.65 527.92,-296.73 379.08,-285.17"/>
<polygon fill="#63b8ff" stroke="#63b8ff" points="1051.68,-340.92 1061.92,-338.21 1052.22,-333.94 1051.68,-340.92"/>
</a>
</g>
</g>
<!-- Node13&#45;&gt;Node8 -->
<g id="edge46_Node000013_Node000008" class="edge">
<title>Node13&#45;&gt;Node8</title>
<g id="a_edge46_Node000013_Node000008"><a xlink:title=" ">
<path fill="none" stroke="#63b8ff" d="M1221.65,-333.77C1296.96,-324.42 1409.75,-309.7 1507.5,-294 1510.25,-293.56 1513.05,-293.1 1515.87,-292.62"/>
<polygon fill="#63b8ff" stroke="#63b8ff" points="1220.77,-330.35 1211.28,-335.05 1221.63,-337.3 1220.77,-330.35"/>
</a>
</g>
</g>
<!-- Node14 -->
<g id="Node000014" class="node">
<title>Node14</title>
<g id="a_Node000014"><a xlink:href="cck_8h.html" target="_top" xlink:title=" ">
<polygon fill="white" stroke="#666666" points="716,-294 583,-294 583,-264 716,-264 716,-294"/>
<text text-anchor="start" x="591" y="-282" font-family="FreeSans" font-size="10.00">mpqc/chemistry/qc/lcao</text>
<text text-anchor="middle" x="649.5" y="-271" font-family="FreeSans" font-size="10.00">/cc/cck.h</text>
</a>
</g>
</g>
<!-- Node13&#45;&gt;Node14 -->
<g id="edge15_Node000013_Node000014" class="edge">
<title>Node13&#45;&gt;Node14</title>
<g id="a_edge15_Node000013_Node000014"><a xlink:title=" ">
<path fill="none" stroke="#63b8ff" d="M1051.54,-332.84C956.12,-320.3 803.24,-300.2 716.08,-288.75"/>
<polygon fill="#63b8ff" stroke="#63b8ff" points="1051.37,-336.34 1061.74,-334.18 1052.28,-329.4 1051.37,-336.34"/>
</a>
</g>
</g>
<!-- Node23 -->
<g id="Node000023" class="node">
<title>Node23</title>
<g id="a_Node000023"><a xlink:href="eom__ip__ccsd_8h.html" target="_top" xlink:title=" ">
<polygon fill="white" stroke="#666666" points="1333,-162 1200,-162 1200,-132 1333,-132 1333,-162"/>
<text text-anchor="start" x="1208" y="-150" font-family="FreeSans" font-size="10.00">mpqc/chemistry/qc/lcao</text>
<text text-anchor="middle" x="1266.5" y="-139" font-family="FreeSans" font-size="10.00">/cc/eom/eom_ip_ccsd.h</text>
</a>
</g>
</g>
<!-- Node13&#45;&gt;Node23 -->
<g id="edge33_Node000013_Node000023" class="edge">
<title>Node13&#45;&gt;Node23</title>
<g id="a_edge33_Node000013_Node000023"><a xlink:title=" ">
<path fill="none" stroke="#63b8ff" d="M1138.86,-319.93C1141.26,-303.4 1146.04,-281.38 1155.5,-264 1178.95,-220.91 1222.62,-182.24 1247.62,-162.28"/>
<polygon fill="#63b8ff" stroke="#63b8ff" points="1135.38,-319.54 1137.6,-329.9 1142.32,-320.42 1135.38,-319.54"/>
</a>
</g>
</g>
<!-- Node26 -->
<g id="Node000026" class="node">
<title>Node26</title>
<g id="a_Node000026"><a xlink:href="eom__preconditioner_8h.html" target="_top" xlink:title=" ">
<polygon fill="white" stroke="#666666" points="1020.5,-294 856.5,-294 856.5,-264 1020.5,-264 1020.5,-294"/>
<text text-anchor="start" x="864.5" y="-282" font-family="FreeSans" font-size="10.00">mpqc/chemistry/qc/lcao</text>
<text text-anchor="middle" x="938.5" y="-271" font-family="FreeSans" font-size="10.00">/cc/eom/eom_preconditioner.h</text>
</a>
</g>
</g>
<!-- Node13&#45;&gt;Node26 -->
<g id="edge36_Node000013_Node000026" class="edge">
<title>Node13&#45;&gt;Node26</title>
<g id="a_edge36_Node000013_Node000026"><a xlink:title=" ">
<path fill="none" stroke="#63b8ff" d="M1083.46,-326.86C1051.67,-316.58 1011.75,-303.68 981.85,-294.01"/>
<polygon fill="#63b8ff" stroke="#63b8ff" points="1082.46,-330.21 1093.05,-329.95 1084.61,-323.55 1082.46,-330.21"/>
</a>
</g>
</g>
<!-- Node30 -->
<g id="Node000030" class="node">
<title>Node30</title>
<g id="a_Node000030"><a xlink:href="davidson__solver_8cpp.html" target="_top" xlink:title=" ">
<polygon fill="white" stroke="#666666" points="1498,-294 1349,-294 1349,-264 1498,-264 1498,-294"/>
<text text-anchor="start" x="1357" y="-282" font-family="FreeSans" font-size="10.00">mpqc/math/linalg/davidson</text>
<text text-anchor="middle" x="1423.5" y="-271" font-family="FreeSans" font-size="10.00">_solver.cpp</text>
</a>
</g>
</g>
<!-- Node13&#45;&gt;Node30 -->
<g id="edge47_Node000013_Node000030" class="edge">
<title>Node13&#45;&gt;Node30</title>
<g id="a_edge47_Node000013_Node000030"><a xlink:title=" ">
<path fill="none" stroke="#63b8ff" d="M1209.53,-327.71C1256.21,-317.31 1316.12,-303.95 1360.66,-294.01"/>
<polygon fill="#63b8ff" stroke="#63b8ff" points="1208.48,-324.36 1199.48,-329.95 1210.01,-331.19 1208.48,-324.36"/>
</a>
</g>
</g>
<!-- Node31 -->
<g id="Node000031" class="node">
<title>Node31</title>
<g id="a_Node000031"><a xlink:href="ucsrmatrix_8h.html" target="_top" xlink:title=" ">
<polygon fill="white" stroke="#666666" points="1331,-288.5 1164,-288.5 1164,-269.5 1331,-269.5 1331,-288.5"/>
<text text-anchor="middle" x="1247.5" y="-276.5" font-family="FreeSans" font-size="10.00">mpqc/math/linalg/ucsrmatrix.h</text>
</a>
</g>
</g>
<!-- Node13&#45;&gt;Node31 -->
<g id="edge48_Node000013_Node000031" class="edge">
<title>Node13&#45;&gt;Node31</title>
<g id="a_edge48_Node000013_Node000031"><a xlink:title=" ">
<path fill="none" stroke="#63b8ff" d="M1169.78,-324.81C1190.73,-312.73 1216.74,-297.73 1232.73,-288.52"/>
<polygon fill="#63b8ff" stroke="#63b8ff" points="1167.77,-321.93 1160.86,-329.95 1171.27,-327.99 1167.77,-321.93"/>
</a>
</g>
</g>
<!-- Node15 -->
<g id="Node000015" class="node">
<title>Node15</title>
<g id="a_Node000015"><a xlink:href="cck_8ipp.html" target="_top" xlink:title=" ">
<polygon fill="white" stroke="#666666" points="664,-228 531,-228 531,-198 664,-198 664,-228"/>
<text text-anchor="start" x="539" y="-216" font-family="FreeSans" font-size="10.00">mpqc/chemistry/qc/lcao</text>
<text text-anchor="middle" x="597.5" y="-205" font-family="FreeSans" font-size="10.00">/cc/cck.ipp</text>
</a>
</g>
</g>
<!-- Node14&#45;&gt;Node15 -->
<g id="edge16_Node000014_Node000015" class="edge">
<title>Node14&#45;&gt;Node15</title>
<g id="a_edge16_Node000014_Node000015"><a xlink:title=" ">
<path fill="none" stroke="#63b8ff" d="M625.5,-256.37C617.33,-247.06 608.94,-236.44 603.29,-228.16"/>
<polygon fill="#63b8ff" stroke="#63b8ff" points="622.93,-258.74 632.24,-263.8 628.11,-254.04 622.93,-258.74"/>
</a>
</g>
</g>
<!-- Node18 -->
<g id="Node000018" class="node">
<title>Node18</title>
<g id="a_Node000018"><a xlink:href="cck__so__response_8ipp.html" target="_top" xlink:title=" ">
<polygon fill="white" stroke="#666666" points="772.5,-96 638.5,-96 638.5,-66 772.5,-66 772.5,-96"/>
<text text-anchor="start" x="646.5" y="-84" font-family="FreeSans" font-size="10.00">mpqc/chemistry/qc/lcao</text>
<text text-anchor="middle" x="705.5" y="-73" font-family="FreeSans" font-size="10.00">/cc/cck_so_response.ipp</text>
</a>
</g>
</g>
<!-- Node14&#45;&gt;Node18 -->
<g id="edge26_Node000014_Node000018" class="edge">
<title>Node14&#45;&gt;Node18</title>
<g id="a_edge26_Node000014_Node000018"><a xlink:title=" ">
<path fill="none" stroke="#63b8ff" d="M653.03,-254.53C656.41,-246.3 660.49,-236.88 663.5,-228 679.43,-180.99 689.96,-122.86 698.02,-96.37"/>
<polygon fill="#63b8ff" stroke="#63b8ff" points="649.75,-253.3 649.37,-263.88 656.27,-255.85 649.75,-253.3"/>
</a>
</g>
</g>
<!-- Node19 -->
<g id="Node000019" class="node">
<title>Node19</title>
<g id="a_Node000019"><a xlink:href="eom__cck_8ipp.html" target="_top" xlink:title=" ">
<polygon fill="white" stroke="#666666" points="872,-228 739,-228 739,-198 872,-198 872,-228"/>
<text text-anchor="start" x="747" y="-216" font-family="FreeSans" font-size="10.00">mpqc/chemistry/qc/lcao</text>
<text text-anchor="middle" x="805.5" y="-205" font-family="FreeSans" font-size="10.00">/cc/eom_cck.ipp</text>
</a>
</g>
</g>
<!-- Node14&#45;&gt;Node19 -->
<g id="edge27_Node000014_Node000019" class="edge">
<title>Node14&#45;&gt;Node19</title>
<g id="a_edge27_Node000014_Node000019"><a xlink:title=" ">
<path fill="none" stroke="#63b8ff" d="M693.24,-260.05C717.96,-249.91 748.4,-237.43 771.34,-228.01"/>
<polygon fill="#63b8ff" stroke="#63b8ff" points="691.66,-256.92 683.73,-263.95 694.32,-263.4 691.66,-256.92"/>
</a>
</g>
</g>
<!-- Node20 -->
<g id="Node000020" class="node">
<title>Node20</title>
<g id="a_Node000020"><a xlink:href="cck__f12_8h.html" target="_top" xlink:title=" ">
<polygon fill="white" stroke="#666666" points="474,-228 341,-228 341,-198 474,-198 474,-228"/>
<text text-anchor="start" x="349" y="-216" font-family="FreeSans" font-size="10.00">mpqc/chemistry/qc/lcao</text>
<text text-anchor="middle" x="407.5" y="-205" font-family="FreeSans" font-size="10.00">/f12/cck_f12.h</text>
</a>
</g>
</g>
<!-- Node14&#45;&gt;Node20 -->
<g id="edge29_Node000014_Node000020" class="edge">
<title>Node14&#45;&gt;Node20</title>
<g id="a_edge29_Node000014_Node000020"><a xlink:title=" ">
<path fill="none" stroke="#63b8ff" d="M586.68,-261.39C547.5,-251.03 497.65,-237.84 460.48,-228.01"/>
<polygon fill="#63b8ff" stroke="#63b8ff" points="585.83,-264.78 596.39,-263.95 587.62,-258.01 585.83,-264.78"/>
</a>
</g>
</g>
<!-- Node15&#45;&gt;Node14 -->
<g id="edge18_Node000015_Node000014" class="edge">
<title>Node15&#45;&gt;Node14</title>
<g id="a_edge18_Node000015_Node000014"><a xlink:title=" ">
<path fill="none" stroke="#63b8ff" d="M621.46,-235.59C629.63,-244.89 638.02,-255.51 643.68,-263.8"/>
<polygon fill="#63b8ff" stroke="#63b8ff" points="624.04,-233.22 614.72,-228.16 618.85,-237.92 624.04,-233.22"/>
</a>
</g>
</g>
<!-- Node16 -->
<g id="Node000016" class="node">
<title>Node16</title>
<g id="a_Node000016"><a xlink:href="cck_8cpp.html" target="_top" xlink:title=" ">
<polygon fill="white" stroke="#666666" points="725,-30 592,-30 592,0 725,0 725,-30"/>
<text text-anchor="start" x="600" y="-18" font-family="FreeSans" font-size="10.00">mpqc/chemistry/qc/lcao</text>
<text text-anchor="middle" x="658.5" y="-7" font-family="FreeSans" font-size="10.00">/cc/cck.cpp</text>
</a>
</g>
</g>
<!-- Node15&#45;&gt;Node16 -->
<g id="edge17_Node000015_Node000016" class="edge">
<title>Node15&#45;&gt;Node16</title>
<g id="a_edge17_Node000015_Node000016"><a xlink:title=" ">
<path fill="none" stroke="#63b8ff" d="M600.48,-187.69C604.63,-158.16 613.5,-107.18 629.5,-66 634.44,-53.28 642.32,-39.96 648.62,-30.27"/>
<polygon fill="#63b8ff" stroke="#63b8ff" points="596.97,-187.52 599.12,-197.89 603.91,-188.45 596.97,-187.52"/>
</a>
</g>
</g>
<!-- Node17 -->
<g id="Node000017" class="node">
<title>Node17</title>
<g id="a_Node000017"><a xlink:href="cck__so_8ipp.html" target="_top" xlink:title=" ">
<polygon fill="white" stroke="#666666" points="586,-162 453,-162 453,-132 586,-132 586,-162"/>
<text text-anchor="start" x="461" y="-150" font-family="FreeSans" font-size="10.00">mpqc/chemistry/qc/lcao</text>
<text text-anchor="middle" x="519.5" y="-139" font-family="FreeSans" font-size="10.00">/cc/cck_so.ipp</text>
</a>
</g>
</g>
<!-- Node15&#45;&gt;Node17 -->
<g id="edge19_Node000015_Node000017" class="edge">
<title>Node15&#45;&gt;Node17</title>
<g id="a_edge19_Node000015_Node000017"><a xlink:title=" ">
<path fill="none" stroke="#63b8ff" d="M572.15,-191.2C560.57,-181.7 547.15,-170.69 536.76,-162.16"/>
<polygon fill="#63b8ff" stroke="#63b8ff" points="570.24,-194.16 580.19,-197.8 574.68,-188.75 570.24,-194.16"/>
</a>
</g>
</g>
<!-- Node15&#45;&gt;Node18 -->
<g id="edge25_Node000015_Node000018" class="edge">
<title>Node15&#45;&gt;Node18</title>
<g id="a_edge25_Node000015_Node000018"><a xlink:title=" ">
<path fill="none" stroke="#63b8ff" d="M615.65,-190.15C637.9,-163.38 674.93,-118.79 693.75,-96.14"/>
<polygon fill="#63b8ff" stroke="#63b8ff" points="612.96,-187.91 609.26,-197.84 618.35,-192.38 612.96,-187.91"/>
</a>
</g>
</g>
<!-- Node17&#45;&gt;Node14 -->
<g id="edge21_Node000017_Node000014" class="edge">
<title>Node17&#45;&gt;Node14</title>
<g id="a_edge21_Node000017_Node000014"><a xlink:title=" ">
<path fill="none" stroke="#63b8ff" d="M513.57,-172C510.79,-189.13 510.2,-211.89 521.5,-228 535.75,-248.31 559.54,-260.37 582.78,-267.53"/>
<polygon fill="#63b8ff" stroke="#63b8ff" points="517.01,-172.66 515.5,-162.17 510.14,-171.31 517.01,-172.66"/>
</a>
</g>
</g>
<!-- Node17&#45;&gt;Node16 -->
<g id="edge20_Node000017_Node000016" class="edge">
<title>Node17&#45;&gt;Node16</title>
<g id="a_edge20_Node000017_Node000016"><a xlink:title=" ">
<path fill="none" stroke="#63b8ff" d="M538.95,-124.36C554.11,-107.84 575.98,-84.8 596.5,-66 610.47,-53.2 627.24,-39.78 639.82,-30.07"/>
<polygon fill="#63b8ff" stroke="#63b8ff" points="536.23,-122.15 532.07,-131.89 541.4,-126.86 536.23,-122.15"/>
</a>
</g>
</g>
<!-- Node17&#45;&gt;Node18 -->
<g id="edge22_Node000017_Node000018" class="edge">
<title>Node17&#45;&gt;Node18</title>
<g id="a_edge22_Node000017_Node000018"><a xlink:title=" ">
<path fill="none" stroke="#63b8ff" d="M570.1,-128.59C599.84,-118.36 636.94,-105.59 664.78,-96.01"/>
<polygon fill="#63b8ff" stroke="#63b8ff" points="568.64,-125.39 560.32,-131.95 570.91,-132.01 568.64,-125.39"/>
</a>
</g>
</g>
<!-- Node18&#45;&gt;Node14 -->
<g id="edge24_Node000018_Node000014" class="edge">
<title>Node18&#45;&gt;Node14</title>
<g id="a_edge24_Node000018_Node000014"><a xlink:title=" ">
<path fill="none" stroke="#63b8ff" d="M707.97,-106.52C705.5,-135.88 695.62,-186.32 681.5,-228 677.27,-240.49 670.92,-254.04 664.55,-263.88"/>
<polygon fill="#63b8ff" stroke="#63b8ff" points="711.47,-106.55 708.54,-96.37 704.48,-106.15 711.47,-106.55"/>
</a>
</g>
</g>
<!-- Node18&#45;&gt;Node16 -->
<g id="edge23_Node000018_Node000016" class="edge">
<title>Node18&#45;&gt;Node16</title>
<g id="a_edge23_Node000018_Node000016"><a xlink:title=" ">
<path fill="none" stroke="#63b8ff" d="M689,-57.53C682.31,-48.43 674.8,-38.19 668.9,-30.16"/>
<polygon fill="#63b8ff" stroke="#63b8ff" points="686.33,-59.81 695.07,-65.8 691.97,-55.66 686.33,-59.81"/>
</a>
</g>
</g>
<!-- Node19&#45;&gt;Node16 -->
<g id="edge28_Node000019_Node000016" class="edge">
<title>Node19&#45;&gt;Node16</title>
<g id="a_edge28_Node000019_Node000016"><a xlink:title=" ">
<path fill="none" stroke="#63b8ff" d="M808.26,-187.64C810.46,-156.1 809.46,-101.01 781.5,-66 767.4,-48.35 746.08,-36.88 725.12,-29.45"/>
<polygon fill="#63b8ff" stroke="#63b8ff" points="804.76,-187.48 807.39,-197.75 811.73,-188.09 804.76,-187.48"/>
</a>
</g>
</g>
<!-- Node21 -->
<g id="Node000021" class="node">
<title>Node21</title>
<g id="a_Node000021"><a xlink:href="cck__f12_8ipp.html" target="_top" xlink:title=" ">
<polygon fill="white" stroke="#666666" points="435,-162 302,-162 302,-132 435,-132 435,-162"/>
<text text-anchor="start" x="310" y="-150" font-family="FreeSans" font-size="10.00">mpqc/chemistry/qc/lcao</text>
<text text-anchor="middle" x="368.5" y="-139" font-family="FreeSans" font-size="10.00">/f12/cck_f12.ipp</text>
</a>
</g>
</g>
<!-- Node20&#45;&gt;Node21 -->
<g id="edge30_Node000020_Node000021" class="edge">
<title>Node20&#45;&gt;Node21</title>
<g id="a_edge30_Node000020_Node000021"><a xlink:title=" ">
<path fill="none" stroke="#63b8ff" d="M387.33,-189.53C381.25,-180.43 375.26,-170.19 371.42,-162.16"/>
<polygon fill="#63b8ff" stroke="#63b8ff" points="384.52,-191.62 393.12,-197.8 390.25,-187.6 384.52,-191.62"/>
</a>
</g>
</g>
<!-- Node21&#45;&gt;Node20 -->
<g id="edge32_Node000021_Node000020" class="edge">
<title>Node21&#45;&gt;Node20</title>
<g id="a_edge32_Node000021_Node000020"><a xlink:title=" ">
<path fill="none" stroke="#63b8ff" d="M388.64,-170.43C394.72,-179.53 400.71,-189.76 404.56,-197.8"/>
<polygon fill="#63b8ff" stroke="#63b8ff" points="391.45,-168.34 382.85,-162.16 385.72,-172.36 391.45,-168.34"/>
</a>
</g>
</g>
<!-- Node22 -->
<g id="Node000022" class="node">
<title>Node22</title>
<g id="a_Node000022"><a xlink:href="cck__f12_8cpp.html" target="_top" xlink:title=" ">
<polygon fill="white" stroke="#666666" points="460,-96 327,-96 327,-66 460,-66 460,-96"/>
<text text-anchor="start" x="335" y="-84" font-family="FreeSans" font-size="10.00">mpqc/chemistry/qc/lcao</text>
<text text-anchor="middle" x="393.5" y="-73" font-family="FreeSans" font-size="10.00">/f12/cck_f12.cpp</text>
</a>
</g>
</g>
<!-- Node21&#45;&gt;Node22 -->
<g id="edge31_Node000021_Node000022" class="edge">
<title>Node21&#45;&gt;Node22</title>
<g id="a_edge31_Node000021_Node000022"><a xlink:title=" ">
<path fill="none" stroke="#63b8ff" d="M377.72,-122.39C381.16,-113.59 384.96,-103.86 387.97,-96.16"/>
<polygon fill="#63b8ff" stroke="#63b8ff" points="374.43,-121.21 374.05,-131.8 380.95,-123.76 374.43,-121.21"/>
</a>
</g>
</g>
<!-- Node24 -->
<g id="Node000024" class="node">
<title>Node24</title>
<g id="a_Node000024"><a xlink:href="eom__ip__ccsd_8ipp.html" target="_top" xlink:title=" ">
<polygon fill="white" stroke="#666666" points="1146,-96 1007,-96 1007,-66 1146,-66 1146,-96"/>
<text text-anchor="start" x="1015" y="-84" font-family="FreeSans" font-size="10.00">mpqc/chemistry/qc/lcao</text>
<text text-anchor="middle" x="1076.5" y="-73" font-family="FreeSans" font-size="10.00">/cc/eom/eom_ip_ccsd.ipp</text>
</a>
</g>
</g>
<!-- Node23&#45;&gt;Node24 -->
<g id="edge34_Node000023_Node000024" class="edge">
<title>Node23&#45;&gt;Node24</title>
<g id="a_edge34_Node000023_Node000024"><a xlink:title=" ">
<path fill="none" stroke="#63b8ff" d="M1215.21,-128.72C1184.77,-118.47 1146.66,-105.63 1118.1,-96.01"/>
<polygon fill="#63b8ff" stroke="#63b8ff" points="1214.21,-132.08 1224.8,-131.95 1216.44,-125.45 1214.21,-132.08"/>
</a>
</g>
</g>
<!-- Node25 -->
<g id="Node000025" class="node">
<title>Node25</title>
<g id="a_Node000025"><a xlink:href="eom__ip__ccsd_8cpp.html" target="_top" xlink:title=" ">
<polygon fill="white" stroke="#666666" points="1147,-30 1006,-30 1006,0 1147,0 1147,-30"/>
<text text-anchor="start" x="1014" y="-18" font-family="FreeSans" font-size="10.00">mpqc/chemistry/qc/lcao</text>
<text text-anchor="middle" x="1076.5" y="-7" font-family="FreeSans" font-size="10.00">/cc/eom/eom_ip_ccsd.cpp</text>
</a>
</g>
</g>
<!-- Node24&#45;&gt;Node25 -->
<g id="edge35_Node000024_Node000025" class="edge">
<title>Node24&#45;&gt;Node25</title>
<g id="a_edge35_Node000024_Node000025"><a xlink:title=" ">
<path fill="none" stroke="#63b8ff" d="M1076.5,-55.54C1076.5,-46.96 1076.5,-37.61 1076.5,-30.16"/>
<polygon fill="#63b8ff" stroke="#63b8ff" points="1073,-55.8 1076.5,-65.8 1080,-55.8 1073,-55.8"/>
</a>
</g>
</g>
<!-- Node26&#45;&gt;Node3 -->
<g id="edge37_Node000026_Node000003" class="edge">
<title>Node26&#45;&gt;Node3</title>
<g id="a_edge37_Node000026_Node000003"><a xlink:title=" ">
<path fill="none" stroke="#63b8ff" d="M928.48,-254.54C919.06,-235.68 903.03,-210.38 880.5,-198 765.76,-134.97 422.42,-178.04 292.5,-162 289.74,-161.66 286.93,-161.28 284.09,-160.87"/>
<polygon fill="#63b8ff" stroke="#63b8ff" points="925.37,-256.15 932.8,-263.7 931.7,-253.17 925.37,-256.15"/>
</a>
</g>
</g>
<!-- Node26&#45;&gt;Node19 -->
<g id="edge44_Node000026_Node000019" class="edge">
<title>Node26&#45;&gt;Node19</title>
<g id="a_edge44_Node000026_Node000019"><a xlink:title=" ">
<path fill="none" stroke="#63b8ff" d="M900.08,-259.51C879.22,-249.47 853.83,-237.26 834.62,-228.01"/>
<polygon fill="#63b8ff" stroke="#63b8ff" points="898.78,-262.77 909.31,-263.95 901.82,-256.46 898.78,-262.77"/>
</a>
</g>
</g>
<!-- Node26&#45;&gt;Node24 -->
<g id="edge43_Node000026_Node000024" class="edge">
<title>Node26&#45;&gt;Node24</title>
<g id="a_edge43_Node000026_Node000024"><a xlink:title=" ">
<path fill="none" stroke="#63b8ff" d="M932.85,-254.01C928.32,-237.51 920.98,-215.5 910.5,-198 899.35,-179.38 885.37,-182.23 877.5,-162 872.67,-149.57 869.3,-142.51 877.5,-132 893.52,-111.46 956.18,-98.07 1006.97,-90.36"/>
<polygon fill="#63b8ff" stroke="#63b8ff" points="929.53,-255.15 935.42,-263.95 936.3,-253.4 929.53,-255.15"/>
</a>
</g>
</g>
<!-- Node27 -->
<g id="Node000027" class="node">
<title>Node27</title>
<g id="a_Node000027"><a xlink:href="eom__ea__ccsd_8ipp.html" target="_top" xlink:title=" ">
<polygon fill="white" stroke="#666666" points="1108.5,-228 966.5,-228 966.5,-198 1108.5,-198 1108.5,-228"/>
<text text-anchor="start" x="974.5" y="-216" font-family="FreeSans" font-size="10.00">mpqc/chemistry/qc/lcao</text>
<text text-anchor="middle" x="1037.5" y="-205" font-family="FreeSans" font-size="10.00">/cc/eom/eom_ea_ccsd.ipp</text>
</a>
</g>
</g>
<!-- Node26&#45;&gt;Node27 -->
<g id="edge38_Node000026_Node000027" class="edge">
<title>Node26&#45;&gt;Node27</title>
<g id="a_edge38_Node000026_Node000027"><a xlink:title=" ">
<path fill="none" stroke="#63b8ff" d="M968.97,-258.3C984.04,-248.56 1001.89,-237.02 1015.59,-228.16"/>
<polygon fill="#63b8ff" stroke="#63b8ff" points="966.97,-255.43 960.47,-263.8 970.77,-261.31 966.97,-255.43"/>
</a>
</g>
</g>
<!-- Node27&#45;&gt;Node23 -->
<g id="edge42_Node000027_Node000023" class="edge">
<title>Node27&#45;&gt;Node23</title>
<g id="a_edge42_Node000027_Node000023"><a xlink:title=" ">
<path fill="none" stroke="#63b8ff" d="M1097.42,-195.25C1134.42,-184.91 1181.34,-171.8 1216.36,-162.01"/>
<polygon fill="#63b8ff" stroke="#63b8ff" points="1096.44,-191.89 1087.76,-197.95 1098.33,-198.63 1096.44,-191.89"/>
</a>
</g>
</g>
<!-- Node28 -->
<g id="Node000028" class="node">
<title>Node28</title>
<g id="a_Node000028"><a xlink:href="eom__ea__ccsd_8cpp.html" target="_top" xlink:title=" ">
<polygon fill="white" stroke="#666666" points="1030.5,-162 886.5,-162 886.5,-132 1030.5,-132 1030.5,-162"/>
<text text-anchor="start" x="894.5" y="-150" font-family="FreeSans" font-size="10.00">mpqc/chemistry/qc/lcao</text>
<text text-anchor="middle" x="958.5" y="-139" font-family="FreeSans" font-size="10.00">/cc/eom/eom_ea_ccsd.cpp</text>
</a>
</g>
</g>
<!-- Node27&#45;&gt;Node28 -->
<g id="edge39_Node000027_Node000028" class="edge">
<title>Node27&#45;&gt;Node28</title>
<g id="a_edge39_Node000027_Node000028"><a xlink:title=" ">
<path fill="none" stroke="#63b8ff" d="M1012.17,-191.48C1000.36,-181.91 986.61,-170.77 975.98,-162.16"/>
<polygon fill="#63b8ff" stroke="#63b8ff" points="1009.99,-194.22 1019.97,-197.8 1014.4,-188.78 1009.99,-194.22"/>
</a>
</g>
</g>
<!-- Node29 -->
<g id="Node000029" class="node">
<title>Node29</title>
<g id="a_Node000029"><a xlink:href="eom__ea__ccsd_8h.html" target="_top" xlink:title=" ">
<polygon fill="white" stroke="#666666" points="1182,-162 1049,-162 1049,-132 1182,-132 1182,-162"/>
<text text-anchor="start" x="1057" y="-150" font-family="FreeSans" font-size="10.00">mpqc/chemistry/qc/lcao</text>
<text text-anchor="middle" x="1115.5" y="-139" font-family="FreeSans" font-size="10.00">/cc/eom/eom_ea_ccsd.h</text>
</a>
</g>
</g>
<!-- Node27&#45;&gt;Node29 -->
<g id="edge40_Node000027_Node000029" class="edge">
<title>Node27&#45;&gt;Node29</title>
<g id="a_edge40_Node000027_Node000029"><a xlink:title=" ">
<path fill="none" stroke="#63b8ff" d="M1056.8,-190.92C1067.65,-181.49 1081.13,-170.61 1092.52,-162.16"/>
<polygon fill="#63b8ff" stroke="#63b8ff" points="1054.23,-188.53 1049.09,-197.8 1058.88,-193.75 1054.23,-188.53"/>
</a>
</g>
</g>
<!-- Node29&#45;&gt;Node27 -->
<g id="edge41_Node000029_Node000027" class="edge">
<title>Node29&#45;&gt;Node27</title>
<g id="a_edge41_Node000029_Node000027"><a xlink:title=" ">
<path fill="none" stroke="#63b8ff" d="M1096.25,-169.03C1085.41,-178.46 1071.93,-189.34 1060.53,-197.8"/>
<polygon fill="#63b8ff" stroke="#63b8ff" points="1098.82,-171.43 1103.95,-162.16 1094.16,-166.21 1098.82,-171.43"/>
</a>
</g>
</g>
<!-- Node31&#45;&gt;Node9 -->
<g id="edge49_Node000031_Node000009" class="edge">
<title>Node31&#45;&gt;Node9</title>
<g id="a_edge49_Node000031_Node000009"><a xlink:title=" ">
<path fill="none" stroke="#63b8ff" d="M1249.17,-259.13C1251.72,-241.16 1258.19,-214.49 1274.5,-198 1287.17,-185.19 1327.23,-171.77 1361.74,-162.06"/>
<polygon fill="#63b8ff" stroke="#63b8ff" points="1245.67,-258.92 1248.01,-269.25 1252.62,-259.72 1245.67,-258.92"/>
</a>
</g>
</g>
<!-- Node32 -->
<g id="Node000032" class="node">
<title>Node32</title>
<g id="a_Node000032"><a xlink:href="hamiltonian_8h.html" target="_top" xlink:title=" ">
<polygon fill="white" stroke="#666666" points="1450,-222.5 1283,-222.5 1283,-203.5 1450,-203.5 1450,-222.5"/>
<text text-anchor="middle" x="1366.5" y="-210.5" font-family="FreeSans" font-size="10.00">mpqc/math/fock/hamiltonian.h</text>
</a>
</g>
</g>
<!-- Node31&#45;&gt;Node32 -->
<g id="edge50_Node000031_Node000032" class="edge">
<title>Node31&#45;&gt;Node32</title>
<g id="a_edge50_Node000031_Node000032"><a xlink:title=" ">
<path fill="none" stroke="#63b8ff" d="M1272.55,-264.53C1295.99,-251.92 1330.3,-233.47 1350.33,-222.7"/>
<polygon fill="#63b8ff" stroke="#63b8ff" points="1270.7,-261.55 1263.55,-269.37 1274.01,-267.71 1270.7,-261.55"/>
</a>
</g>
</g>
<!-- Node32&#45;&gt;Node9 -->
<g id="edge51_Node000032_Node000009" class="edge">
<title>Node32&#45;&gt;Node9</title>
<g id="a_edge51_Node000032_Node000009"><a xlink:title=" ">
<path fill="none" stroke="#63b8ff" d="M1379.61,-195.54C1387.79,-185.28 1398.21,-172.2 1406.06,-162.36"/>
<polygon fill="#63b8ff" stroke="#63b8ff" points="1376.87,-193.37 1373.38,-203.37 1382.35,-197.73 1376.87,-193.37"/>
</a>
</g>
</g>
</g>
</svg>
