<?xml version="1.0" encoding="UTF-8" standalone="no"?>
<!DOCTYPE svg PUBLIC "-//W3C//DTD SVG 1.1//EN"
 "http://www.w3.org/Graphics/SVG/1.1/DTD/svg11.dtd">
<!-- Generated by graphviz version 2.43.0 (0)
 -->
<!-- Title: /home/runner/work/mpqc4/mpqc4/python/src/factory.h Pages: 1 -->
<svg width="503pt" height="170pt"
 viewBox="0.00 0.00 502.50 170.00" xmlns="http://www.w3.org/2000/svg" xmlns:xlink="http://www.w3.org/1999/xlink">
<g id="graph0" class="graph" transform="scale(1 1) rotate(0) translate(4 166)">
<title>/home/runner/work/mpqc4/mpqc4/python/src/factory.h</title>
<!-- Node1 -->
<g id="Node000001" class="node">
<title>Node1</title>
<g id="a_Node000001"><a xlink:title=" ">
<polygon fill="#999999" stroke="#666666" points="311.5,-162 159.5,-162 159.5,-132 311.5,-132 311.5,-162"/>
<text text-anchor="start" x="167.5" y="-150" font-family="FreeSans" font-size="10.00">/home/runner/work/mpqc4</text>
<text text-anchor="middle" x="235.5" y="-139" font-family="FreeSans" font-size="10.00">/mpqc4/python/src/factory.h</text>
</a>
</g>
</g>
<!-- Node2 -->
<g id="Node000002" class="node">
<title>Node2</title>
<g id="a_Node000002"><a xlink:href="cc_8h.html" target="_top" xlink:title=" ">
<polygon fill="white" stroke="#666666" points="145,-96 0,-96 0,-66 145,-66 145,-96"/>
<text text-anchor="start" x="8" y="-84" font-family="FreeSans" font-size="10.00">/home/runner/work/mpqc4</text>
<text text-anchor="middle" x="72.5" y="-73" font-family="FreeSans" font-size="10.00">/mpqc4/python/src/cc.h</text>
</a>
</g>
</g>
<!-- Node1&#45;&gt;Node2 -->
<g id="edge1_Node000001_Node000002" class="edge">
<title>Node1&#45;&gt;Node2</title>
<g id="a_edge1_Node000001_Node000002"><a xlink:title=" ">
<path fill="none" stroke="#63b8ff" d="M190.14,-128.19C164.25,-118.02 132.27,-105.47 108.19,-96.01"/>
<polygon fill="#63b8ff" stroke="#63b8ff" points="189.14,-131.56 199.73,-131.95 191.7,-125.04 189.14,-131.56"/>
</a>
</g>
</g>
<!-- Node4 -->
<g id="Node000004" class="node">
<title>Node4</title>
<g id="a_Node000004"><a xlink:href="mbpt_8h.html" target="_top" xlink:title=" ">
<polygon fill="white" stroke="#666666" points="308,-96 163,-96 163,-66 308,-66 308,-96"/>
<text text-anchor="start" x="171" y="-84" font-family="FreeSans" font-size="10.00">/home/runner/work/mpqc4</text>
<text text-anchor="middle" x="235.5" y="-73" font-family="FreeSans" font-size="10.00">/mpqc4/python/src/mbpt.h</text>
</a>
</g>
</g>
<!-- Node1&#45;&gt;Node4 -->
<g id="edge3_Node000001_Node000004" class="edge">
<title>Node1&#45;&gt;Node4</title>
<g id="a_edge3_Node000001_Node000004"><a xlink:title=" ">
<path fill="none" stroke="#63b8ff" d="M235.5,-121.54C235.5,-112.96 235.5,-103.61 235.5,-96.16"/>
<polygon fill="#63b8ff" stroke="#63b8ff" points="232,-121.8 235.5,-131.8 239,-121.8 232,-121.8"/>
</a>
</g>
</g>
<!-- Node5 -->
<g id="Node000005" class="node">
<title>Node5</title>
<g id="a_Node000005"><a xlink:href="properties_8h.html" target="_top" xlink:title=" ">
<polygon fill="white" stroke="#666666" points="494.5,-96 326.5,-96 326.5,-66 494.5,-66 494.5,-96"/>
<text text-anchor="start" x="334.5" y="-84" font-family="FreeSans" font-size="10.00">/home/runner/work/mpqc4</text>
<text text-anchor="middle" x="410.5" y="-73" font-family="FreeSans" font-size="10.00">/mpqc4/python/src/properties.h</text>
</a>
</g>
</g>
<!-- Node1&#45;&gt;Node5 -->
<g id="edge5_Node000001_Node000005" class="edge">
<title>Node1&#45;&gt;Node5</title>
<g id="a_edge5_Node000001_Node000005"><a xlink:title=" ">
<path fill="none" stroke="#63b8ff" d="M283.47,-128.46C311.39,-118.25 346.1,-105.55 372.19,-96.01"/>
<polygon fill="#63b8ff" stroke="#63b8ff" points="282.09,-125.23 273.9,-131.95 284.5,-131.81 282.09,-125.23"/>
</a>
</g>
</g>
<!-- Node3 -->
<g id="Node000003" class="node">
<title>Node3</title>
<g id="a_Node000003"><a xlink:href="mpqc_8cc.html" target="_top" xlink:title=" ">
<polygon fill="white" stroke="#666666" points="310.5,-30 160.5,-30 160.5,0 310.5,0 310.5,-30"/>
<text text-anchor="start" x="168.5" y="-18" font-family="FreeSans" font-size="10.00">/home/runner/work/mpqc4</text>
<text text-anchor="middle" x="235.5" y="-7" font-family="FreeSans" font-size="10.00">/mpqc4/python/src/mpqc.cc</text>
</a>
</g>
</g>
<!-- Node2&#45;&gt;Node3 -->
<g id="edge2_Node000002_Node000003" class="edge">
<title>Node2&#45;&gt;Node3</title>
<g id="a_edge2_Node000002_Node000003"><a xlink:title=" ">
<path fill="none" stroke="#63b8ff" d="M117.86,-62.19C143.75,-52.02 175.73,-39.47 199.81,-30.01"/>
<polygon fill="#63b8ff" stroke="#63b8ff" points="116.3,-59.04 108.27,-65.95 118.86,-65.56 116.3,-59.04"/>
</a>
</g>
</g>
<!-- Node4&#45;&gt;Node3 -->
<g id="edge4_Node000004_Node000003" class="edge">
<title>Node4&#45;&gt;Node3</title>
<g id="a_edge4_Node000004_Node000003"><a xlink:title=" ">
<path fill="none" stroke="#63b8ff" d="M235.5,-55.54C235.5,-46.96 235.5,-37.61 235.5,-30.16"/>
<polygon fill="#63b8ff" stroke="#63b8ff" points="232,-55.8 235.5,-65.8 239,-55.8 232,-55.8"/>
</a>
</g>
</g>
<!-- Node5&#45;&gt;Node3 -->
<g id="edge6_Node000005_Node000003" class="edge">
<title>Node5&#45;&gt;Node3</title>
<g id="a_edge6_Node000005_Node000003"><a xlink:title=" ">
<path fill="none" stroke="#63b8ff" d="M362.53,-62.46C334.61,-52.25 299.9,-39.55 273.81,-30.01"/>
<polygon fill="#63b8ff" stroke="#63b8ff" points="361.5,-65.81 372.1,-65.95 363.91,-59.23 361.5,-65.81"/>
</a>
</g>
</g>
</g>
</svg>
