<?xml version="1.0" encoding="UTF-8" standalone="no"?>
<!DOCTYPE svg PUBLIC "-//W3C//DTD SVG 1.1//EN"
 "http://www.w3.org/Graphics/SVG/1.1/DTD/svg11.dtd">
<!-- Generated by graphviz version 2.43.0 (0)
 -->
<!-- Title: /home/runner/work/mpqc4/mpqc4/python/src/wfn.h Pages: 1 -->
<svg width="609pt" height="236pt"
 viewBox="0.00 0.00 608.88 236.00" xmlns="http://www.w3.org/2000/svg" xmlns:xlink="http://www.w3.org/1999/xlink">
<g id="graph0" class="graph" transform="scale(1 1) rotate(0) translate(4 232)">
<title>/home/runner/work/mpqc4/mpqc4/python/src/wfn.h</title>
<!-- Node1 -->
<g id="Node000001" class="node">
<title>Node1</title>
<g id="a_Node000001"><a xlink:title=" ">
<polygon fill="#999999" stroke="#666666" points="342.88,-228 197.88,-228 197.88,-198 342.88,-198 342.88,-228"/>
<text text-anchor="start" x="205.88" y="-216" font-family="FreeSans" font-size="10.00">/home/runner/work/mpqc4</text>
<text text-anchor="middle" x="270.38" y="-205" font-family="FreeSans" font-size="10.00">/mpqc4/python/src/wfn.h</text>
</a>
</g>
</g>
<!-- Node2 -->
<g id="Node000002" class="node">
<title>Node2</title>
<g id="a_Node000002"><a xlink:href="cc_8h.html" target="_top" xlink:title=" ">
<polygon fill="white" stroke="#666666" points="167.88,-96 22.88,-96 22.88,-66 167.88,-66 167.88,-96"/>
<text text-anchor="start" x="30.88" y="-84" font-family="FreeSans" font-size="10.00">/home/runner/work/mpqc4</text>
<text text-anchor="middle" x="95.38" y="-73" font-family="FreeSans" font-size="10.00">/mpqc4/python/src/cc.h</text>
</a>
</g>
</g>
<!-- Node1&#45;&gt;Node2 -->
<g id="edge1_Node000001_Node000002" class="edge">
<title>Node1&#45;&gt;Node2</title>
<g id="a_edge1_Node000001_Node000002"><a xlink:title=" ">
<path fill="none" stroke="#63b8ff" d="M234.68,-193.05C219.1,-184.27 200.89,-173.29 185.38,-162 156.82,-141.21 126.74,-113 109.6,-96.23"/>
<polygon fill="#63b8ff" stroke="#63b8ff" points="233.06,-196.16 243.51,-197.96 236.46,-190.04 233.06,-196.16"/>
</a>
</g>
</g>
<!-- Node3 -->
<g id="Node000003" class="node">
<title>Node3</title>
<g id="a_Node000003"><a xlink:href="mpqc_8cc.html" target="_top" xlink:title=" ">
<polygon fill="white" stroke="#666666" points="345.38,-30 195.38,-30 195.38,0 345.38,0 345.38,-30"/>
<text text-anchor="start" x="203.38" y="-18" font-family="FreeSans" font-size="10.00">/home/runner/work/mpqc4</text>
<text text-anchor="middle" x="270.38" y="-7" font-family="FreeSans" font-size="10.00">/mpqc4/python/src/mpqc.cc</text>
</a>
</g>
</g>
<!-- Node1&#45;&gt;Node3 -->
<g id="edge10_Node000001_Node000003" class="edge">
<title>Node1&#45;&gt;Node3</title>
<g id="a_edge10_Node000001_Node000003"><a xlink:title=" ">
<path fill="none" stroke="#63b8ff" d="M187.66,-197.21C92.8,-176.68 -42.81,-134.17 13.38,-66 36.11,-38.42 127.89,-25.86 195.31,-20.27"/>
<polygon fill="#63b8ff" stroke="#63b8ff" points="187.06,-200.66 197.57,-199.31 188.51,-193.82 187.06,-200.66"/>
</a>
</g>
</g>
<!-- Node4 -->
<g id="Node000004" class="node">
<title>Node4</title>
<g id="a_Node000004"><a xlink:href="python_2src_2factory_8h.html" target="_top" xlink:title=" ">
<polygon fill="white" stroke="#666666" points="346.38,-162 194.38,-162 194.38,-132 346.38,-132 346.38,-162"/>
<text text-anchor="start" x="202.38" y="-150" font-family="FreeSans" font-size="10.00">/home/runner/work/mpqc4</text>
<text text-anchor="middle" x="270.38" y="-139" font-family="FreeSans" font-size="10.00">/mpqc4/python/src/factory.h</text>
</a>
</g>
</g>
<!-- Node1&#45;&gt;Node4 -->
<g id="edge3_Node000001_Node000004" class="edge">
<title>Node1&#45;&gt;Node4</title>
<g id="a_edge3_Node000001_Node000004"><a xlink:title=" ">
<path fill="none" stroke="#63b8ff" d="M270.38,-187.54C270.38,-178.96 270.38,-169.61 270.38,-162.16"/>
<polygon fill="#63b8ff" stroke="#63b8ff" points="266.88,-187.8 270.38,-197.8 273.88,-187.8 266.88,-187.8"/>
</a>
</g>
</g>
<!-- Node5 -->
<g id="Node000005" class="node">
<title>Node5</title>
<g id="a_Node000005"><a xlink:href="mbpt_8h.html" target="_top" xlink:title=" ">
<polygon fill="white" stroke="#666666" points="517.88,-96 372.88,-96 372.88,-66 517.88,-66 517.88,-96"/>
<text text-anchor="start" x="380.88" y="-84" font-family="FreeSans" font-size="10.00">/home/runner/work/mpqc4</text>
<text text-anchor="middle" x="445.38" y="-73" font-family="FreeSans" font-size="10.00">/mpqc4/python/src/mbpt.h</text>
</a>
</g>
</g>
<!-- Node1&#45;&gt;Node5 -->
<g id="edge9_Node000001_Node000005" class="edge">
<title>Node1&#45;&gt;Node5</title>
<g id="a_edge9_Node000001_Node000005"><a xlink:title=" ">
<path fill="none" stroke="#63b8ff" d="M306.09,-193.05C321.67,-184.27 339.88,-173.29 355.38,-162 383.95,-141.21 414.02,-113 431.16,-96.23"/>
<polygon fill="#63b8ff" stroke="#63b8ff" points="304.3,-190.04 297.26,-197.96 307.7,-196.16 304.3,-190.04"/>
</a>
</g>
</g>
<!-- Node7 -->
<g id="Node000007" class="node">
<title>Node7</title>
<g id="a_Node000007"><a xlink:href="scf_8h.html" target="_top" xlink:title=" ">
<polygon fill="white" stroke="#666666" points="600.88,-162 455.88,-162 455.88,-132 600.88,-132 600.88,-162"/>
<text text-anchor="start" x="463.88" y="-150" font-family="FreeSans" font-size="10.00">/home/runner/work/mpqc4</text>
<text text-anchor="middle" x="528.38" y="-139" font-family="FreeSans" font-size="10.00">/mpqc4/python/src/scf.h</text>
</a>
</g>
</g>
<!-- Node1&#45;&gt;Node7 -->
<g id="edge11_Node000001_Node000007" class="edge">
<title>Node1&#45;&gt;Node7</title>
<g id="a_edge11_Node000001_Node000007"><a xlink:title=" ">
<path fill="none" stroke="#63b8ff" d="M336.83,-195.52C378.67,-185.14 432.1,-171.88 471.9,-162.01"/>
<polygon fill="#63b8ff" stroke="#63b8ff" points="335.86,-192.15 327,-197.95 337.55,-198.94 335.86,-192.15"/>
</a>
</g>
</g>
<!-- Node2&#45;&gt;Node3 -->
<g id="edge2_Node000002_Node000003" class="edge">
<title>Node2&#45;&gt;Node3</title>
<g id="a_edge2_Node000002_Node000003"><a xlink:title=" ">
<path fill="none" stroke="#63b8ff" d="M143.35,-62.46C171.27,-52.25 205.99,-39.55 232.07,-30.01"/>
<polygon fill="#63b8ff" stroke="#63b8ff" points="141.98,-59.23 133.79,-65.95 144.38,-65.81 141.98,-59.23"/>
</a>
</g>
</g>
<!-- Node4&#45;&gt;Node2 -->
<g id="edge4_Node000004_Node000002" class="edge">
<title>Node4&#45;&gt;Node2</title>
<g id="a_edge4_Node000004_Node000002"><a xlink:title=" ">
<path fill="none" stroke="#63b8ff" d="M222.41,-128.46C194.49,-118.25 159.78,-105.55 133.7,-96.01"/>
<polygon fill="#63b8ff" stroke="#63b8ff" points="221.38,-131.81 231.98,-131.95 223.79,-125.23 221.38,-131.81"/>
</a>
</g>
</g>
<!-- Node4&#45;&gt;Node5 -->
<g id="edge5_Node000004_Node000005" class="edge">
<title>Node4&#45;&gt;Node5</title>
<g id="a_edge5_Node000004_Node000005"><a xlink:title=" ">
<path fill="none" stroke="#63b8ff" d="M318.35,-128.46C346.27,-118.25 380.99,-105.55 407.07,-96.01"/>
<polygon fill="#63b8ff" stroke="#63b8ff" points="316.98,-125.23 308.79,-131.95 319.38,-131.81 316.98,-125.23"/>
</a>
</g>
</g>
<!-- Node6 -->
<g id="Node000006" class="node">
<title>Node6</title>
<g id="a_Node000006"><a xlink:href="properties_8h.html" target="_top" xlink:title=" ">
<polygon fill="white" stroke="#666666" points="354.38,-96 186.38,-96 186.38,-66 354.38,-66 354.38,-96"/>
<text text-anchor="start" x="194.38" y="-84" font-family="FreeSans" font-size="10.00">/home/runner/work/mpqc4</text>
<text text-anchor="middle" x="270.38" y="-73" font-family="FreeSans" font-size="10.00">/mpqc4/python/src/properties.h</text>
</a>
</g>
</g>
<!-- Node4&#45;&gt;Node6 -->
<g id="edge7_Node000004_Node000006" class="edge">
<title>Node4&#45;&gt;Node6</title>
<g id="a_edge7_Node000004_Node000006"><a xlink:title=" ">
<path fill="none" stroke="#63b8ff" d="M270.38,-121.54C270.38,-112.96 270.38,-103.61 270.38,-96.16"/>
<polygon fill="#63b8ff" stroke="#63b8ff" points="266.88,-121.8 270.38,-131.8 273.88,-121.8 266.88,-121.8"/>
</a>
</g>
</g>
<!-- Node5&#45;&gt;Node3 -->
<g id="edge6_Node000005_Node000003" class="edge">
<title>Node5&#45;&gt;Node3</title>
<g id="a_edge6_Node000005_Node000003"><a xlink:title=" ">
<path fill="none" stroke="#63b8ff" d="M397.41,-62.46C369.49,-52.25 334.78,-39.55 308.7,-30.01"/>
<polygon fill="#63b8ff" stroke="#63b8ff" points="396.38,-65.81 406.98,-65.95 398.79,-59.23 396.38,-65.81"/>
</a>
</g>
</g>
<!-- Node6&#45;&gt;Node3 -->
<g id="edge8_Node000006_Node000003" class="edge">
<title>Node6&#45;&gt;Node3</title>
<g id="a_edge8_Node000006_Node000003"><a xlink:title=" ">
<path fill="none" stroke="#63b8ff" d="M270.38,-55.54C270.38,-46.96 270.38,-37.61 270.38,-30.16"/>
<polygon fill="#63b8ff" stroke="#63b8ff" points="266.88,-55.8 270.38,-65.8 273.88,-55.8 266.88,-55.8"/>
</a>
</g>
</g>
<!-- Node7&#45;&gt;Node3 -->
<g id="edge12_Node000007_Node000003" class="edge">
<title>Node7&#45;&gt;Node3</title>
<g id="a_edge12_Node000007_Node000003"><a xlink:title=" ">
<path fill="none" stroke="#63b8ff" d="M535.45,-121.71C538.94,-104.24 540.06,-81.19 527.38,-66 504.52,-38.61 413.04,-26.01 345.7,-20.36"/>
<polygon fill="#63b8ff" stroke="#63b8ff" points="531.97,-121.2 533.07,-131.74 538.79,-122.81 531.97,-121.2"/>
</a>
</g>
</g>
</g>
</svg>
