<?xml version="1.0" encoding="UTF-8" standalone="no"?>
<!DOCTYPE svg PUBLIC "-//W3C//DTD SVG 1.1//EN"
 "http://www.w3.org/Graphics/SVG/1.1/DTD/svg11.dtd">
<!-- Generated by graphviz version 2.43.0 (0)
 -->
<!-- Title: /home/runner/work/mpqc4/mpqc4/python/src/python.h Pages: 1 -->
<svg width="867pt" height="302pt"
 viewBox="0.00 0.00 866.97 302.00" xmlns="http://www.w3.org/2000/svg" xmlns:xlink="http://www.w3.org/1999/xlink">
<g id="graph0" class="graph" transform="scale(1 1) rotate(0) translate(4 298)">
<title>/home/runner/work/mpqc4/mpqc4/python/src/python.h</title>
<!-- Node1 -->
<g id="Node000001" class="node">
<title>Node1</title>
<g id="a_Node000001"><a xlink:title=" ">
<polygon fill="#999999" stroke="#666666" points="460.47,-294 308.47,-294 308.47,-264 460.47,-264 460.47,-294"/>
<text text-anchor="start" x="316.47" y="-282" font-family="FreeSans" font-size="10.00">/home/runner/work/mpqc4</text>
<text text-anchor="middle" x="384.47" y="-271" font-family="FreeSans" font-size="10.00">/mpqc4/python/src/python.h</text>
</a>
</g>
</g>
<!-- Node2 -->
<g id="Node000002" class="node">
<title>Node2</title>
<g id="a_Node000002"><a xlink:href="cc_8h.html" target="_top" xlink:title=" ">
<polygon fill="white" stroke="#666666" points="172.97,-96 27.97,-96 27.97,-66 172.97,-66 172.97,-96"/>
<text text-anchor="start" x="35.97" y="-84" font-family="FreeSans" font-size="10.00">/home/runner/work/mpqc4</text>
<text text-anchor="middle" x="100.47" y="-73" font-family="FreeSans" font-size="10.00">/mpqc4/python/src/cc.h</text>
</a>
</g>
</g>
<!-- Node1&#45;&gt;Node2 -->
<g id="edge1_Node000001_Node000002" class="edge">
<title>Node1&#45;&gt;Node2</title>
<g id="a_edge1_Node000001_Node000002"><a xlink:title=" ">
<path fill="none" stroke="#63b8ff" d="M297.9,-276.49C214.71,-272.98 97.48,-261.95 68.47,-228 35.61,-189.53 71.38,-124.95 90.29,-96.36"/>
<polygon fill="#63b8ff" stroke="#63b8ff" points="297.99,-279.99 308.12,-276.89 298.27,-273 297.99,-279.99"/>
</a>
</g>
</g>
<!-- Node3 -->
<g id="Node000003" class="node">
<title>Node3</title>
<g id="a_Node000003"><a xlink:href="mpqc_8cc.html" target="_top" xlink:title=" ">
<polygon fill="white" stroke="#666666" points="338.47,-30 188.47,-30 188.47,0 338.47,0 338.47,-30"/>
<text text-anchor="start" x="196.47" y="-18" font-family="FreeSans" font-size="10.00">/home/runner/work/mpqc4</text>
<text text-anchor="middle" x="263.47" y="-7" font-family="FreeSans" font-size="10.00">/mpqc4/python/src/mpqc.cc</text>
</a>
</g>
</g>
<!-- Node1&#45;&gt;Node3 -->
<g id="edge17_Node000001_Node000003" class="edge">
<title>Node1&#45;&gt;Node3</title>
<g id="a_edge17_Node000001_Node000003"><a xlink:title=" ">
<path fill="none" stroke="#63b8ff" d="M298.43,-274.95C212.53,-270.21 88.16,-258.21 51.47,-228 3.4,-188.41 15.07,-157.37 4.47,-96 2.21,-82.86 -4.01,-76.28 4.47,-66 27.47,-38.14 120.47,-25.63 188.47,-20.13"/>
<polygon fill="#63b8ff" stroke="#63b8ff" points="298.28,-278.45 308.45,-275.48 298.65,-271.46 298.28,-278.45"/>
</a>
</g>
</g>
<!-- Node4 -->
<g id="Node000004" class="node">
<title>Node4</title>
<g id="a_Node000004"><a xlink:href="python_2src_2factory_8h.html" target="_top" xlink:title=" ">
<polygon fill="white" stroke="#666666" points="318.47,-162 166.47,-162 166.47,-132 318.47,-132 318.47,-162"/>
<text text-anchor="start" x="174.47" y="-150" font-family="FreeSans" font-size="10.00">/home/runner/work/mpqc4</text>
<text text-anchor="middle" x="242.47" y="-139" font-family="FreeSans" font-size="10.00">/mpqc4/python/src/factory.h</text>
</a>
</g>
</g>
<!-- Node1&#45;&gt;Node4 -->
<g id="edge3_Node000001_Node000004" class="edge">
<title>Node1&#45;&gt;Node4</title>
<g id="a_edge3_Node000001_Node000004"><a xlink:title=" ">
<path fill="none" stroke="#63b8ff" d="M345.43,-259.11C330.44,-250.79 313.76,-240.13 300.47,-228 278.82,-208.22 260.21,-179.17 250.25,-162.06"/>
<polygon fill="#63b8ff" stroke="#63b8ff" points="344.04,-262.34 354.5,-263.99 347.35,-256.17 344.04,-262.34"/>
</a>
</g>
</g>
<!-- Node5 -->
<g id="Node000005" class="node">
<title>Node5</title>
<g id="a_Node000005"><a xlink:href="mbpt_8h.html" target="_top" xlink:title=" ">
<polygon fill="white" stroke="#666666" points="335.97,-96 190.97,-96 190.97,-66 335.97,-66 335.97,-96"/>
<text text-anchor="start" x="198.97" y="-84" font-family="FreeSans" font-size="10.00">/home/runner/work/mpqc4</text>
<text text-anchor="middle" x="263.47" y="-73" font-family="FreeSans" font-size="10.00">/mpqc4/python/src/mbpt.h</text>
</a>
</g>
</g>
<!-- Node1&#45;&gt;Node5 -->
<g id="edge16_Node000001_Node000005" class="edge">
<title>Node1&#45;&gt;Node5</title>
<g id="a_edge16_Node000001_Node000005"><a xlink:title=" ">
<path fill="none" stroke="#63b8ff" d="M454,-261.27C536.9,-238.16 658.06,-192.37 605.47,-132 567.16,-88.02 403.12,-104.91 345.47,-96 342.48,-95.54 339.42,-95.06 336.33,-94.56"/>
<polygon fill="#63b8ff" stroke="#63b8ff" points="453.07,-257.9 444.34,-263.91 454.91,-264.65 453.07,-257.9"/>
</a>
</g>
</g>
<!-- Node6 -->
<g id="Node000006" class="node">
<title>Node6</title>
<g id="a_Node000006"><a xlink:href="properties_8h.html" target="_top" xlink:title=" ">
<polygon fill="white" stroke="#666666" points="522.47,-96 354.47,-96 354.47,-66 522.47,-66 522.47,-96"/>
<text text-anchor="start" x="362.47" y="-84" font-family="FreeSans" font-size="10.00">/home/runner/work/mpqc4</text>
<text text-anchor="middle" x="438.47" y="-73" font-family="FreeSans" font-size="10.00">/mpqc4/python/src/properties.h</text>
</a>
</g>
</g>
<!-- Node1&#45;&gt;Node6 -->
<g id="edge18_Node000001_Node000006" class="edge">
<title>Node1&#45;&gt;Node6</title>
<g id="a_edge18_Node000001_Node000006"><a xlink:title=" ">
<path fill="none" stroke="#63b8ff" d="M470.88,-272.51C535.93,-266.36 617.37,-253.66 638.47,-228 665.58,-195.05 664.73,-165.63 638.47,-132 623.86,-113.28 570.62,-100.53 522.74,-92.59"/>
<polygon fill="#63b8ff" stroke="#63b8ff" points="470.24,-269.05 460.6,-273.44 470.87,-276.02 470.24,-269.05"/>
</a>
</g>
</g>
<!-- Node7 -->
<g id="Node000007" class="node">
<title>Node7</title>
<g id="a_Node000007"><a xlink:href="python_2src_2keyval_8h.html" target="_top" xlink:title=" ">
<polygon fill="white" stroke="#666666" points="459.97,-228 308.97,-228 308.97,-198 459.97,-198 459.97,-228"/>
<text text-anchor="start" x="316.97" y="-216" font-family="FreeSans" font-size="10.00">/home/runner/work/mpqc4</text>
<text text-anchor="middle" x="384.47" y="-205" font-family="FreeSans" font-size="10.00">/mpqc4/python/src/keyval.h</text>
</a>
</g>
</g>
<!-- Node1&#45;&gt;Node7 -->
<g id="edge9_Node000001_Node000007" class="edge">
<title>Node1&#45;&gt;Node7</title>
<g id="a_edge9_Node000001_Node000007"><a xlink:title=" ">
<path fill="none" stroke="#63b8ff" d="M384.47,-253.54C384.47,-244.96 384.47,-235.61 384.47,-228.16"/>
<polygon fill="#63b8ff" stroke="#63b8ff" points="380.98,-253.8 384.47,-263.8 387.98,-253.8 380.98,-253.8"/>
</a>
</g>
</g>
<!-- Node8 -->
<g id="Node000008" class="node">
<title>Node8</title>
<g id="a_Node000008"><a xlink:href="scf_8h.html" target="_top" xlink:title=" ">
<polygon fill="white" stroke="#666666" points="595.97,-162 450.97,-162 450.97,-132 595.97,-132 595.97,-162"/>
<text text-anchor="start" x="458.97" y="-150" font-family="FreeSans" font-size="10.00">/home/runner/work/mpqc4</text>
<text text-anchor="middle" x="523.47" y="-139" font-family="FreeSans" font-size="10.00">/mpqc4/python/src/scf.h</text>
</a>
</g>
</g>
<!-- Node1&#45;&gt;Node8 -->
<g id="edge19_Node000001_Node000008" class="edge">
<title>Node1&#45;&gt;Node8</title>
<g id="a_edge19_Node000001_Node000008"><a xlink:title=" ">
<path fill="none" stroke="#63b8ff" d="M424.92,-259.03C439.93,-250.8 456.46,-240.23 469.47,-228 490.36,-208.38 507.43,-179.27 516.47,-162.11"/>
<polygon fill="#63b8ff" stroke="#63b8ff" points="423.02,-256.08 415.81,-263.84 426.29,-262.26 423.02,-256.08"/>
</a>
</g>
</g>
<!-- Node9 -->
<g id="Node000009" class="node">
<title>Node9</title>
<g id="a_Node000009"><a xlink:href="tiledarray_8cc.html" target="_top" xlink:title=" ">
<polygon fill="white" stroke="#666666" points="858.97,-228 689.97,-228 689.97,-198 858.97,-198 858.97,-228"/>
<text text-anchor="start" x="697.97" y="-216" font-family="FreeSans" font-size="10.00">/home/runner/work/mpqc4</text>
<text text-anchor="middle" x="774.47" y="-205" font-family="FreeSans" font-size="10.00">/mpqc4/python/src/tiledarray.cc</text>
</a>
</g>
</g>
<!-- Node1&#45;&gt;Node9 -->
<g id="edge20_Node000001_Node000009" class="edge">
<title>Node1&#45;&gt;Node9</title>
<g id="a_edge20_Node000001_Node000009"><a xlink:title=" ">
<path fill="none" stroke="#63b8ff" d="M470.85,-263.83C536.02,-253.13 624.97,-238.53 689.74,-227.9"/>
<polygon fill="#63b8ff" stroke="#63b8ff" points="469.9,-260.43 460.6,-265.51 471.03,-267.34 469.9,-260.43"/>
</a>
</g>
</g>
<!-- Node10 -->
<g id="Node000010" class="node">
<title>Node10</title>
<g id="a_Node000010"><a xlink:href="python_2src_2wfn_8h.html" target="_top" xlink:title=" ">
<polygon fill="white" stroke="#666666" points="221.97,-228 76.97,-228 76.97,-198 221.97,-198 221.97,-228"/>
<text text-anchor="start" x="84.97" y="-216" font-family="FreeSans" font-size="10.00">/home/runner/work/mpqc4</text>
<text text-anchor="middle" x="149.47" y="-205" font-family="FreeSans" font-size="10.00">/mpqc4/python/src/wfn.h</text>
</a>
</g>
</g>
<!-- Node1&#45;&gt;Node10 -->
<g id="edge21_Node000001_Node000010" class="edge">
<title>Node1&#45;&gt;Node10</title>
<g id="a_edge21_Node000001_Node000010"><a xlink:title=" ">
<path fill="none" stroke="#63b8ff" d="M322.98,-261.25C285.02,-250.91 236.87,-237.8 200.93,-228.01"/>
<polygon fill="#63b8ff" stroke="#63b8ff" points="322.33,-264.7 332.9,-263.95 324.17,-257.95 322.33,-264.7"/>
</a>
</g>
</g>
<!-- Node2&#45;&gt;Node3 -->
<g id="edge2_Node000002_Node000003" class="edge">
<title>Node2&#45;&gt;Node3</title>
<g id="a_edge2_Node000002_Node000003"><a xlink:title=" ">
<path fill="none" stroke="#63b8ff" d="M145.84,-62.19C171.72,-52.02 203.71,-39.47 227.79,-30.01"/>
<polygon fill="#63b8ff" stroke="#63b8ff" points="144.28,-59.04 136.25,-65.95 146.83,-65.56 144.28,-59.04"/>
</a>
</g>
</g>
<!-- Node4&#45;&gt;Node2 -->
<g id="edge4_Node000004_Node000002" class="edge">
<title>Node4&#45;&gt;Node2</title>
<g id="a_edge4_Node000004_Node000002"><a xlink:title=" ">
<path fill="none" stroke="#63b8ff" d="M202.06,-127.78C179.67,-117.69 152.27,-105.34 131.56,-96.01"/>
<polygon fill="#63b8ff" stroke="#63b8ff" points="200.76,-131.04 211.31,-131.95 203.63,-124.65 200.76,-131.04"/>
</a>
</g>
</g>
<!-- Node4&#45;&gt;Node5 -->
<g id="edge5_Node000004_Node000005" class="edge">
<title>Node4&#45;&gt;Node5</title>
<g id="a_edge5_Node000004_Node000005"><a xlink:title=" ">
<path fill="none" stroke="#63b8ff" d="M250.31,-122.11C253.18,-113.38 256.33,-103.78 258.83,-96.16"/>
<polygon fill="#63b8ff" stroke="#63b8ff" points="246.93,-121.2 247.14,-131.8 253.58,-123.39 246.93,-121.2"/>
</a>
</g>
</g>
<!-- Node4&#45;&gt;Node6 -->
<g id="edge7_Node000004_Node000006" class="edge">
<title>Node4&#45;&gt;Node6</title>
<g id="a_edge7_Node000004_Node000006"><a xlink:title=" ">
<path fill="none" stroke="#63b8ff" d="M295.38,-128.72C326.79,-118.47 366.1,-105.63 395.56,-96.01"/>
<polygon fill="#63b8ff" stroke="#63b8ff" points="293.91,-125.52 285.49,-131.95 296.08,-132.18 293.91,-125.52"/>
</a>
</g>
</g>
<!-- Node5&#45;&gt;Node3 -->
<g id="edge6_Node000005_Node000003" class="edge">
<title>Node5&#45;&gt;Node3</title>
<g id="a_edge6_Node000005_Node000003"><a xlink:title=" ">
<path fill="none" stroke="#63b8ff" d="M263.47,-55.54C263.47,-46.96 263.47,-37.61 263.47,-30.16"/>
<polygon fill="#63b8ff" stroke="#63b8ff" points="259.98,-55.8 263.47,-65.8 266.98,-55.8 259.98,-55.8"/>
</a>
</g>
</g>
<!-- Node6&#45;&gt;Node3 -->
<g id="edge8_Node000006_Node000003" class="edge">
<title>Node6&#45;&gt;Node3</title>
<g id="a_edge8_Node000006_Node000003"><a xlink:title=" ">
<path fill="none" stroke="#63b8ff" d="M390.5,-62.46C362.59,-52.25 327.87,-39.55 301.79,-30.01"/>
<polygon fill="#63b8ff" stroke="#63b8ff" points="389.48,-65.81 400.07,-65.95 391.88,-59.23 389.48,-65.81"/>
</a>
</g>
</g>
<!-- Node7&#45;&gt;Node2 -->
<g id="edge10_Node000007_Node000002" class="edge">
<title>Node7&#45;&gt;Node2</title>
<g id="a_edge10_Node000007_Node000002"><a xlink:title=" ">
<path fill="none" stroke="#63b8ff" d="M373.91,-188.86C364.36,-170.6 348.58,-145.95 327.47,-132 314.47,-123.4 234.48,-106.97 173.1,-95.29"/>
<polygon fill="#63b8ff" stroke="#63b8ff" points="370.86,-190.59 378.44,-197.99 377.13,-187.47 370.86,-190.59"/>
</a>
</g>
</g>
<!-- Node7&#45;&gt;Node3 -->
<g id="edge13_Node000007_Node000003" class="edge">
<title>Node7&#45;&gt;Node3</title>
<g id="a_edge13_Node000007_Node000003"><a xlink:title=" ">
<path fill="none" stroke="#63b8ff" d="M396.48,-188.92C406.67,-171.27 422.75,-147.43 442.47,-132 476.08,-105.71 507.62,-131.38 531.47,-96 538.93,-84.94 539.99,-76.26 531.47,-66 507.36,-36.96 409.26,-24.7 338.73,-19.58"/>
<polygon fill="#63b8ff" stroke="#63b8ff" points="393.24,-187.55 391.44,-197.99 399.36,-190.95 393.24,-187.55"/>
</a>
</g>
</g>
<!-- Node7&#45;&gt;Node4 -->
<g id="edge11_Node000007_Node000004" class="edge">
<title>Node7&#45;&gt;Node4</title>
<g id="a_edge11_Node000007_Node000004"><a xlink:title=" ">
<path fill="none" stroke="#63b8ff" d="M344.06,-193.78C321.67,-183.69 294.27,-171.34 273.56,-162.01"/>
<polygon fill="#63b8ff" stroke="#63b8ff" points="342.76,-197.04 353.31,-197.95 345.63,-190.65 342.76,-197.04"/>
</a>
</g>
</g>
<!-- Node7&#45;&gt;Node5 -->
<g id="edge12_Node000007_Node000005" class="edge">
<title>Node7&#45;&gt;Node5</title>
<g id="a_edge12_Node000007_Node000005"><a xlink:title=" ">
<path fill="none" stroke="#63b8ff" d="M382.16,-187.33C379.43,-170.17 373.47,-147.65 360.47,-132 346.92,-115.68 326.66,-104.07 308.15,-96.17"/>
<polygon fill="#63b8ff" stroke="#63b8ff" points="378.75,-188.25 383.53,-197.71 385.69,-187.33 378.75,-188.25"/>
</a>
</g>
</g>
<!-- Node7&#45;&gt;Node8 -->
<g id="edge14_Node000007_Node000008" class="edge">
<title>Node7&#45;&gt;Node8</title>
<g id="a_edge14_Node000007_Node000008"><a xlink:title=" ">
<path fill="none" stroke="#63b8ff" d="M424.33,-193.65C446.19,-183.58 472.87,-171.3 493.04,-162.01"/>
<polygon fill="#63b8ff" stroke="#63b8ff" points="422.6,-190.59 414.98,-197.95 425.53,-196.95 422.6,-190.59"/>
</a>
</g>
</g>
<!-- Node8&#45;&gt;Node3 -->
<g id="edge15_Node000008_Node000003" class="edge">
<title>Node8&#45;&gt;Node3</title>
<g id="a_edge15_Node000008_Node000003"><a xlink:title=" ">
<path fill="none" stroke="#63b8ff" d="M547.37,-124.51C563.5,-107.42 579.35,-83.55 564.47,-66 536.09,-32.51 418.28,-21.43 338.74,-17.77"/>
<polygon fill="#63b8ff" stroke="#63b8ff" points="544.65,-122.28 540.06,-131.83 549.6,-127.23 544.65,-122.28"/>
</a>
</g>
</g>
<!-- Node10&#45;&gt;Node2 -->
<g id="edge22_Node000010_Node000002" class="edge">
<title>Node10&#45;&gt;Node2</title>
<g id="a_edge22_Node000010_Node000002"><a xlink:title=" ">
<path fill="none" stroke="#63b8ff" d="M136.82,-188.77C132.58,-180.47 128.02,-170.95 124.47,-162 115.55,-139.49 108.05,-112.3 103.92,-96.12"/>
<polygon fill="#63b8ff" stroke="#63b8ff" points="133.84,-190.63 141.58,-197.86 140.04,-187.38 133.84,-190.63"/>
</a>
</g>
</g>
<!-- Node10&#45;&gt;Node3 -->
<g id="edge25_Node000010_Node000003" class="edge">
<title>Node10&#45;&gt;Node3</title>
<g id="a_edge25_Node000010_Node000003"><a xlink:title=" ">
<path fill="none" stroke="#63b8ff" d="M110.73,-193.03C59.81,-165.62 -18.9,-113.04 19.47,-66 40.56,-40.16 124.82,-27.31 188.47,-21.17"/>
<polygon fill="#63b8ff" stroke="#63b8ff" points="109.4,-196.29 119.88,-197.85 112.66,-190.1 109.4,-196.29"/>
</a>
</g>
</g>
<!-- Node10&#45;&gt;Node4 -->
<g id="edge23_Node000010_Node000004" class="edge">
<title>Node10&#45;&gt;Node4</title>
<g id="a_edge23_Node000010_Node000004"><a xlink:title=" ">
<path fill="none" stroke="#63b8ff" d="M178.5,-192.03C192.57,-182.34 209.14,-170.94 221.89,-162.16"/>
<polygon fill="#63b8ff" stroke="#63b8ff" points="176.37,-189.24 170.11,-197.8 180.34,-195.01 176.37,-189.24"/>
</a>
</g>
</g>
<!-- Node10&#45;&gt;Node5 -->
<g id="edge24_Node000010_Node000005" class="edge">
<title>Node10&#45;&gt;Node5</title>
<g id="a_edge24_Node000010_Node000005"><a xlink:title=" ">
<path fill="none" stroke="#63b8ff" d="M145.98,-187.54C144.86,-170.48 146.18,-147.99 157.47,-132 169.45,-115.05 188.71,-103.67 207.55,-96.11"/>
<polygon fill="#63b8ff" stroke="#63b8ff" points="142.53,-188.23 146.98,-197.85 149.5,-187.55 142.53,-188.23"/>
</a>
</g>
</g>
<!-- Node10&#45;&gt;Node8 -->
<g id="edge26_Node000010_Node000008" class="edge">
<title>Node10&#45;&gt;Node8</title>
<g id="a_edge26_Node000010_Node000008"><a xlink:title=" ">
<path fill="none" stroke="#63b8ff" d="M231.9,-197.89C297.37,-186.69 388.03,-171.18 450.8,-160.44"/>
<polygon fill="#63b8ff" stroke="#63b8ff" points="231.3,-194.45 222.03,-199.58 232.48,-201.35 231.3,-194.45"/>
</a>
</g>
</g>
</g>
</svg>
