<?xml version="1.0" encoding="UTF-8" standalone="no"?>
<!DOCTYPE svg PUBLIC "-//W3C//DTD SVG 1.1//EN"
 "http://www.w3.org/Graphics/SVG/1.1/DTD/svg11.dtd">
<!-- Generated by graphviz version 2.43.0 (0)
 -->
<!-- Title: mpqc/math/linalg/random.h Pages: 1 -->
<svg width="1068pt" height="390pt"
 viewBox="0.00 0.00 1068.00 390.00" xmlns="http://www.w3.org/2000/svg" xmlns:xlink="http://www.w3.org/1999/xlink">
<g id="graph0" class="graph" transform="scale(1 1) rotate(0) translate(4 386)">
<title>mpqc/math/linalg/random.h</title>
<!-- Node1 -->
<g id="Node000001" class="node">
<title>Node1</title>
<g id="a_Node000001"><a xlink:title=" ">
<polygon fill="#999999" stroke="#666666" points="825.5,-382 673.5,-382 673.5,-363 825.5,-363 825.5,-382"/>
<text text-anchor="middle" x="749.5" y="-370" font-family="FreeSans" font-size="10.00">mpqc/math/linalg/random.h</text>
</a>
</g>
</g>
<!-- Node2 -->
<g id="Node000002" class="node">
<title>Node2</title>
<g id="a_Node000002"><a xlink:title=" ">
<polygon fill="#e0e0e0" stroke="#999999" points="594.5,-321.5 540.5,-321.5 540.5,-302.5 594.5,-302.5 594.5,-321.5"/>
<text text-anchor="middle" x="567.5" y="-309.5" font-family="FreeSans" font-size="10.00">random</text>
</a>
</g>
</g>
<!-- Node1&#45;&gt;Node2 -->
<g id="edge1_Node000001_Node000002" class="edge">
<title>Node1&#45;&gt;Node2</title>
<g id="a_edge1_Node000001_Node000002"><a xlink:title=" ">
<path fill="none" stroke="#63b8ff" d="M719.61,-362.93C690.16,-354.35 643.99,-340.51 604.5,-327 602.65,-326.37 600.75,-325.7 598.84,-325.02"/>
<polygon fill="#63b8ff" stroke="#63b8ff" points="599.92,-321.69 589.33,-321.52 597.51,-328.26 599.92,-321.69"/>
</a>
</g>
</g>
<!-- Node3 -->
<g id="Node000003" class="node">
<title>Node3</title>
<g id="a_Node000003"><a xlink:title=" ">
<polygon fill="#e0e0e0" stroke="#999999" points="744,-321.5 613,-321.5 613,-302.5 744,-302.5 744,-321.5"/>
<text text-anchor="middle" x="678.5" y="-309.5" font-family="FreeSans" font-size="10.00">TiledArray/type_traits.h</text>
</a>
</g>
</g>
<!-- Node1&#45;&gt;Node3 -->
<g id="edge2_Node000001_Node000003" class="edge">
<title>Node1&#45;&gt;Node3</title>
<g id="a_edge2_Node000001_Node000003"><a xlink:title=" ">
<path fill="none" stroke="#63b8ff" d="M739.02,-362.87C728.01,-353.8 710.46,-339.34 697.09,-328.32"/>
<polygon fill="#63b8ff" stroke="#63b8ff" points="698.96,-325.33 689.02,-321.67 694.51,-330.73 698.96,-325.33"/>
</a>
</g>
</g>
<!-- Node4 -->
<g id="Node000004" class="node">
<title>Node4</title>
<g id="a_Node000004"><a xlink:href="eigen_8h.html" target="_top" xlink:title=" ">
<polygon fill="white" stroke="#666666" points="878.5,-327 762.5,-327 762.5,-297 878.5,-297 878.5,-327"/>
<text text-anchor="start" x="770.5" y="-315" font-family="FreeSans" font-size="10.00">mpqc/math/external</text>
<text text-anchor="middle" x="820.5" y="-304" font-family="FreeSans" font-size="10.00">/eigen/eigen.h</text>
</a>
</g>
</g>
<!-- Node1&#45;&gt;Node4 -->
<g id="edge3_Node000001_Node000004" class="edge">
<title>Node1&#45;&gt;Node4</title>
<g id="a_edge3_Node000001_Node000004"><a xlink:title=" ">
<path fill="none" stroke="#63b8ff" d="M759.98,-362.87C769.25,-355.22 783.17,-343.76 795.32,-333.75"/>
<polygon fill="#63b8ff" stroke="#63b8ff" points="797.88,-336.17 803.37,-327.11 793.43,-330.77 797.88,-336.17"/>
</a>
</g>
</g>
<!-- Node25 -->
<g id="Node000025" class="node">
<title>Node25</title>
<g id="a_Node000025"><a xlink:title=" ">
<polygon fill="#e0e0e0" stroke="#999999" points="958,-321.5 897,-321.5 897,-302.5 958,-302.5 958,-321.5"/>
<text text-anchor="middle" x="927.5" y="-309.5" font-family="FreeSans" font-size="10.00">Eigen/QR</text>
</a>
</g>
</g>
<!-- Node1&#45;&gt;Node25 -->
<g id="edge28_Node000001_Node000025" class="edge">
<title>Node1&#45;&gt;Node25</title>
<g id="a_edge28_Node000001_Node000025"><a xlink:title=" ">
<path fill="none" stroke="#63b8ff" d="M776.54,-363C804.41,-354.19 849.08,-339.91 887.5,-327 889.6,-326.3 891.75,-325.56 893.92,-324.82"/>
<polygon fill="#63b8ff" stroke="#63b8ff" points="895.11,-328.11 903.42,-321.54 892.83,-321.5 895.11,-328.11"/>
</a>
</g>
</g>
<!-- Node5 -->
<g id="Node000005" class="node">
<title>Node5</title>
<g id="a_Node000005"><a xlink:title=" ">
<polygon fill="#e0e0e0" stroke="#999999" points="522.5,-255.5 420.5,-255.5 420.5,-236.5 522.5,-236.5 522.5,-255.5"/>
<text text-anchor="middle" x="471.5" y="-243.5" font-family="FreeSans" font-size="10.00">madness/config.h</text>
</a>
</g>
</g>
<!-- Node4&#45;&gt;Node5 -->
<g id="edge4_Node000004_Node000005" class="edge">
<title>Node4&#45;&gt;Node5</title>
<g id="a_edge4_Node000004_Node000005"><a xlink:title=" ">
<path fill="none" stroke="#63b8ff" d="M762.43,-298.7C759.41,-298.11 756.42,-297.54 753.5,-297 655.22,-278.77 629.56,-280.37 531.5,-261 526.51,-260.01 521.31,-258.91 516.14,-257.77"/>
<polygon fill="#63b8ff" stroke="#63b8ff" points="516.84,-254.34 506.31,-255.55 515.29,-261.17 516.84,-254.34"/>
</a>
</g>
</g>
<!-- Node6 -->
<g id="Node000006" class="node">
<title>Node6</title>
<g id="a_Node000006"><a xlink:href="complex_8h.html" target="_top" xlink:title=" ">
<polygon fill="white" stroke="#666666" points="690.5,-255.5 540.5,-255.5 540.5,-236.5 690.5,-236.5 690.5,-255.5"/>
<text text-anchor="middle" x="615.5" y="-243.5" font-family="FreeSans" font-size="10.00">mpqc/math/core/complex.h</text>
</a>
</g>
</g>
<!-- Node4&#45;&gt;Node6 -->
<g id="edge5_Node000004_Node000006" class="edge">
<title>Node4&#45;&gt;Node6</title>
<g id="a_edge5_Node000004_Node000006"><a xlink:title=" ">
<path fill="none" stroke="#63b8ff" d="M775.51,-296.95C738.61,-285.43 687,-269.32 652.48,-258.54"/>
<polygon fill="#63b8ff" stroke="#63b8ff" points="653.37,-255.16 642.78,-255.52 651.28,-261.84 653.37,-255.16"/>
</a>
</g>
</g>
<!-- Node8 -->
<g id="Node000008" class="node">
<title>Node8</title>
<g id="a_Node000008"><a xlink:title=" ">
<polygon fill="#e0e0e0" stroke="#999999" points="879,-129 762,-129 762,-110 879,-110 879,-129"/>
<text text-anchor="middle" x="820.5" y="-117" font-family="FreeSans" font-size="10.00">mpqc/mpqc_config.h</text>
</a>
</g>
</g>
<!-- Node4&#45;&gt;Node8 -->
<g id="edge24_Node000004_Node000008" class="edge">
<title>Node4&#45;&gt;Node8</title>
<g id="a_edge24_Node000004_Node000008"><a xlink:title=" ">
<path fill="none" stroke="#63b8ff" d="M820.5,-296.99C820.5,-263.35 820.5,-177.97 820.5,-139.64"/>
<polygon fill="#63b8ff" stroke="#63b8ff" points="824,-139.36 820.5,-129.36 817,-139.36 824,-139.36"/>
</a>
</g>
</g>
<!-- Node23 -->
<g id="Node000023" class="node">
<title>Node23</title>
<g id="a_Node000023"><a xlink:href="math_2external_2eigen_2fwd_8h.html" target="_top" xlink:title=" ">
<polygon fill="white" stroke="#666666" points="964.5,-261 848.5,-261 848.5,-231 964.5,-231 964.5,-261"/>
<text text-anchor="start" x="856.5" y="-249" font-family="FreeSans" font-size="10.00">mpqc/math/external</text>
<text text-anchor="middle" x="906.5" y="-238" font-family="FreeSans" font-size="10.00">/eigen/fwd.h</text>
</a>
</g>
</g>
<!-- Node4&#45;&gt;Node23 -->
<g id="edge25_Node000004_Node000023" class="edge">
<title>Node4&#45;&gt;Node23</title>
<g id="a_edge25_Node000004_Node000023"><a xlink:title=" ">
<path fill="none" stroke="#63b8ff" d="M839.59,-296.8C851.28,-288.1 866.43,-276.82 879.35,-267.2"/>
<polygon fill="#63b8ff" stroke="#63b8ff" points="881.53,-269.94 887.47,-261.16 877.36,-264.33 881.53,-269.94"/>
</a>
</g>
</g>
<!-- Node24 -->
<g id="Node000024" class="node">
<title>Node24</title>
<g id="a_Node000024"><a xlink:title=" ">
<polygon fill="#e0e0e0" stroke="#999999" points="1060,-255.5 983,-255.5 983,-236.5 1060,-236.5 1060,-255.5"/>
<text text-anchor="middle" x="1021.5" y="-243.5" font-family="FreeSans" font-size="10.00">Eigen/Dense</text>
</a>
</g>
</g>
<!-- Node4&#45;&gt;Node24 -->
<g id="edge27_Node000004_Node000024" class="edge">
<title>Node4&#45;&gt;Node24</title>
<g id="a_edge27_Node000004_Node000024"><a xlink:title=" ">
<path fill="none" stroke="#63b8ff" d="M864.61,-296.95C900.64,-285.48 950.96,-269.46 984.81,-258.68"/>
<polygon fill="#63b8ff" stroke="#63b8ff" points="986.28,-261.89 994.75,-255.52 984.16,-255.22 986.28,-261.89"/>
</a>
</g>
</g>
<!-- Node7 -->
<g id="Node000007" class="node">
<title>Node7</title>
<g id="a_Node000007"><a xlink:href="assert_8h.html" target="_top" xlink:title=" ">
<polygon fill="white" stroke="#666666" points="239,-189.5 108,-189.5 108,-170.5 239,-170.5 239,-189.5"/>
<text text-anchor="middle" x="173.5" y="-177.5" font-family="FreeSans" font-size="10.00">mpqc/util/misc/assert.h</text>
</a>
</g>
</g>
<!-- Node6&#45;&gt;Node7 -->
<g id="edge6_Node000006_Node000007" class="edge">
<title>Node6&#45;&gt;Node7</title>
<g id="a_edge6_Node000006_Node000007"><a xlink:title=" ">
<path fill="none" stroke="#63b8ff" d="M566.25,-236.46C554.85,-234.58 542.76,-232.65 531.5,-231 405.61,-212.54 373.18,-214.83 247.5,-195 240.64,-193.92 233.45,-192.68 226.35,-191.4"/>
<polygon fill="#63b8ff" stroke="#63b8ff" points="226.54,-187.88 216.08,-189.51 225.28,-194.77 226.54,-187.88"/>
</a>
</g>
</g>
<!-- Node18 -->
<g id="Node000018" class="node">
<title>Node18</title>
<g id="a_Node000018"><a xlink:title=" ">
<polygon fill="#e0e0e0" stroke="#999999" points="326,-189.5 257,-189.5 257,-170.5 326,-170.5 326,-189.5"/>
<text text-anchor="middle" x="291.5" y="-177.5" font-family="FreeSans" font-size="10.00">Eigen/Core</text>
</a>
</g>
</g>
<!-- Node6&#45;&gt;Node18 -->
<g id="edge19_Node000006_Node000018" class="edge">
<title>Node6&#45;&gt;Node18</title>
<g id="a_edge19_Node000006_Node000018"><a xlink:title=" ">
<path fill="none" stroke="#63b8ff" d="M565.84,-236.5C491.45,-223.71 357.46,-200.43 335.5,-195 332.48,-194.25 329.37,-193.41 326.27,-192.52"/>
<polygon fill="#63b8ff" stroke="#63b8ff" points="327.05,-189.11 316.47,-189.57 325.03,-195.81 327.05,-189.11"/>
</a>
</g>
</g>
<!-- Node19 -->
<g id="Node000019" class="node">
<title>Node19</title>
<g id="a_Node000019"><a xlink:title=" ">
<polygon fill="#e0e0e0" stroke="#999999" points="466.5,-195 344.5,-195 344.5,-165 466.5,-165 466.5,-195"/>
<text text-anchor="start" x="352.5" y="-183" font-family="FreeSans" font-size="10.00">boost/container/small</text>
<text text-anchor="middle" x="405.5" y="-172" font-family="FreeSans" font-size="10.00">_vector.hpp</text>
</a>
</g>
</g>
<!-- Node6&#45;&gt;Node19 -->
<g id="edge20_Node000006_Node000019" class="edge">
<title>Node6&#45;&gt;Node19</title>
<g id="a_edge20_Node000006_Node000019"><a xlink:title=" ">
<path fill="none" stroke="#63b8ff" d="M587.18,-236.37C555.12,-226.6 502.08,-210.43 461.56,-198.09"/>
<polygon fill="#63b8ff" stroke="#63b8ff" points="462.4,-194.68 451.82,-195.12 460.36,-201.38 462.4,-194.68"/>
</a>
</g>
</g>
<!-- Node20 -->
<g id="Node000020" class="node">
<title>Node20</title>
<g id="a_Node000020"><a xlink:title=" ">
<polygon fill="#e0e0e0" stroke="#999999" points="628,-195 485,-195 485,-165 628,-165 628,-195"/>
<text text-anchor="start" x="493" y="-183" font-family="FreeSans" font-size="10.00">boost/numeric/conversion</text>
<text text-anchor="middle" x="556.5" y="-172" font-family="FreeSans" font-size="10.00">/cast.hpp</text>
</a>
</g>
</g>
<!-- Node6&#45;&gt;Node20 -->
<g id="edge21_Node000006_Node000020" class="edge">
<title>Node6&#45;&gt;Node20</title>
<g id="a_edge21_Node000006_Node000020"><a xlink:title=" ">
<path fill="none" stroke="#63b8ff" d="M607.54,-236.37C599.67,-227.83 587.3,-214.41 576.71,-202.92"/>
<polygon fill="#63b8ff" stroke="#63b8ff" points="579.09,-200.34 569.74,-195.36 573.94,-205.09 579.09,-200.34"/>
</a>
</g>
</g>
<!-- Node21 -->
<g id="Node000021" class="node">
<title>Node21</title>
<g id="a_Node000021"><a xlink:title=" ">
<polygon fill="#e0e0e0" stroke="#999999" points="705,-189.5 646,-189.5 646,-170.5 705,-170.5 705,-189.5"/>
<text text-anchor="middle" x="675.5" y="-177.5" font-family="FreeSans" font-size="10.00">complex</text>
</a>
</g>
</g>
<!-- Node6&#45;&gt;Node21 -->
<g id="edge22_Node000006_Node000021" class="edge">
<title>Node6&#45;&gt;Node21</title>
<g id="a_edge22_Node000006_Node000021"><a xlink:title=" ">
<path fill="none" stroke="#63b8ff" d="M623.59,-236.37C632.93,-226.4 648.51,-209.79 660.16,-197.36"/>
<polygon fill="#63b8ff" stroke="#63b8ff" points="662.87,-199.59 667.15,-189.91 657.76,-194.81 662.87,-199.59"/>
</a>
</g>
</g>
<!-- Node22 -->
<g id="Node000022" class="node">
<title>Node22</title>
<g id="a_Node000022"><a xlink:title=" ">
<polygon fill="#e0e0e0" stroke="#999999" points="792,-189.5 723,-189.5 723,-170.5 792,-170.5 792,-189.5"/>
<text text-anchor="middle" x="757.5" y="-177.5" font-family="FreeSans" font-size="10.00">type_traits</text>
</a>
</g>
</g>
<!-- Node6&#45;&gt;Node22 -->
<g id="edge23_Node000006_Node000022" class="edge">
<title>Node6&#45;&gt;Node22</title>
<g id="a_edge23_Node000006_Node000022"><a xlink:title=" ">
<path fill="none" stroke="#63b8ff" d="M634.65,-236.37C658.89,-225.44 700.87,-206.52 728.91,-193.88"/>
<polygon fill="#63b8ff" stroke="#63b8ff" points="730.52,-197 738.2,-189.7 727.64,-190.62 730.52,-197"/>
</a>
</g>
</g>
<!-- Node7&#45;&gt;Node8 -->
<g id="edge7_Node000007_Node000008" class="edge">
<title>Node7&#45;&gt;Node8</title>
<g id="a_edge7_Node000007_Node000008"><a xlink:title=" ">
<path fill="none" stroke="#63b8ff" d="M214.08,-170.49C224.9,-168.45 236.61,-166.45 247.5,-165 428.59,-140.91 643.75,-128.52 751.61,-123.41"/>
<polygon fill="#63b8ff" stroke="#63b8ff" points="751.89,-126.9 761.71,-122.94 751.56,-119.91 751.89,-126.9"/>
</a>
</g>
</g>
<!-- Node9 -->
<g id="Node000009" class="node">
<title>Node9</title>
<g id="a_Node000009"><a xlink:title=" ">
<polygon fill="#e0e0e0" stroke="#999999" points="141.5,-129 89.5,-129 89.5,-110 141.5,-110 141.5,-129"/>
<text text-anchor="middle" x="115.5" y="-117" font-family="FreeSans" font-size="10.00">cassert</text>
</a>
</g>
</g>
<!-- Node7&#45;&gt;Node9 -->
<g id="edge8_Node000007_Node000009" class="edge">
<title>Node7&#45;&gt;Node9</title>
<g id="a_edge8_Node000007_Node000009"><a xlink:title=" ">
<path fill="none" stroke="#63b8ff" d="M164.94,-170.37C156.12,-161.47 142.16,-147.39 131.32,-136.45"/>
<polygon fill="#63b8ff" stroke="#63b8ff" points="133.62,-133.8 124.09,-129.17 128.65,-138.73 133.62,-133.8"/>
</a>
</g>
</g>
<!-- Node10 -->
<g id="Node000010" class="node">
<title>Node10</title>
<g id="a_Node000010"><a xlink:href="exception_8h.html" target="_top" xlink:title=" ">
<polygon fill="white" stroke="#666666" points="305.5,-129 159.5,-129 159.5,-110 305.5,-110 305.5,-129"/>
<text text-anchor="middle" x="232.5" y="-117" font-family="FreeSans" font-size="10.00">mpqc/util/core/exception.h</text>
</a>
</g>
</g>
<!-- Node7&#45;&gt;Node10 -->
<g id="edge9_Node000007_Node000010" class="edge">
<title>Node7&#45;&gt;Node10</title>
<g id="a_edge9_Node000007_Node000010"><a xlink:title=" ">
<path fill="none" stroke="#63b8ff" d="M182.21,-170.37C191.18,-161.47 205.38,-147.39 216.41,-136.45"/>
<polygon fill="#63b8ff" stroke="#63b8ff" points="219.12,-138.69 223.76,-129.17 214.19,-133.72 219.12,-138.69"/>
</a>
</g>
</g>
<!-- Node11 -->
<g id="Node000011" class="node">
<title>Node11</title>
<g id="a_Node000011"><a xlink:title=" ">
<polygon fill="#e0e0e0" stroke="#999999" points="53,-74 0,-74 0,-55 53,-55 53,-74"/>
<text text-anchor="middle" x="26.5" y="-62" font-family="FreeSans" font-size="10.00">string.h</text>
</a>
</g>
</g>
<!-- Node10&#45;&gt;Node11 -->
<g id="edge10_Node000010_Node000011" class="edge">
<title>Node10&#45;&gt;Node11</title>
<g id="a_edge10_Node000010_Node000011"><a xlink:title=" ">
<path fill="none" stroke="#63b8ff" d="M199.4,-109.98C162.13,-100.4 101.74,-84.86 63.09,-74.91"/>
<polygon fill="#63b8ff" stroke="#63b8ff" points="63.84,-71.49 53.28,-72.39 62.09,-78.27 63.84,-71.49"/>
</a>
</g>
</g>
<!-- Node12 -->
<g id="Node000012" class="node">
<title>Node12</title>
<g id="a_Node000012"><a xlink:href="memory.html" target="_top" xlink:title=" ">
<polygon fill="white" stroke="#666666" points="129.5,-74 71.5,-74 71.5,-55 129.5,-55 129.5,-74"/>
<text text-anchor="middle" x="100.5" y="-62" font-family="FreeSans" font-size="10.00">memory</text>
</a>
</g>
</g>
<!-- Node10&#45;&gt;Node12 -->
<g id="edge11_Node000010_Node000012" class="edge">
<title>Node10&#45;&gt;Node12</title>
<g id="a_edge11_Node000010_Node000012"><a xlink:title=" ">
<path fill="none" stroke="#63b8ff" d="M211.29,-109.98C189.77,-101.34 156.22,-87.87 131.67,-78.02"/>
<polygon fill="#63b8ff" stroke="#63b8ff" points="132.68,-74.65 122.09,-74.17 130.07,-81.14 132.68,-74.65"/>
</a>
</g>
</g>
<!-- Node13 -->
<g id="Node000013" class="node">
<title>Node13</title>
<g id="a_Node000013"><a xlink:title=" ">
<polygon fill="#e0e0e0" stroke="#999999" points="221.5,-74 165.5,-74 165.5,-55 221.5,-55 221.5,-74"/>
<text text-anchor="middle" x="193.5" y="-62" font-family="FreeSans" font-size="10.00">sstream</text>
</a>
</g>
</g>
<!-- Node10&#45;&gt;Node13 -->
<g id="edge13_Node000010_Node000013" class="edge">
<title>Node10&#45;&gt;Node13</title>
<g id="a_edge13_Node000010_Node000013"><a xlink:title=" ">
<path fill="none" stroke="#63b8ff" d="M226.06,-109.75C220.61,-102.34 212.64,-91.5 205.94,-82.41"/>
<polygon fill="#63b8ff" stroke="#63b8ff" points="208.57,-80.07 199.82,-74.09 202.93,-84.22 208.57,-80.07"/>
</a>
</g>
</g>
<!-- Node14 -->
<g id="Node000014" class="node">
<title>Node14</title>
<g id="a_Node000014"><a xlink:title=" ">
<polygon fill="#e0e0e0" stroke="#999999" points="305,-74 240,-74 240,-55 305,-55 305,-74"/>
<text text-anchor="middle" x="272.5" y="-62" font-family="FreeSans" font-size="10.00">stdexcept</text>
</a>
</g>
</g>
<!-- Node10&#45;&gt;Node14 -->
<g id="edge14_Node000010_Node000014" class="edge">
<title>Node10&#45;&gt;Node14</title>
<g id="a_edge14_Node000010_Node000014"><a xlink:title=" ">
<path fill="none" stroke="#63b8ff" d="M239.11,-109.75C244.76,-102.26 253.04,-91.28 259.95,-82.13"/>
<polygon fill="#63b8ff" stroke="#63b8ff" points="262.79,-84.18 266.02,-74.09 257.2,-79.96 262.79,-84.18"/>
</a>
</g>
</g>
<!-- Node15 -->
<g id="Node000015" class="node">
<title>Node15</title>
<g id="a_Node000015"><a xlink:title=" ">
<polygon fill="#e0e0e0" stroke="#999999" points="376,-19 329,-19 329,0 376,0 376,-19"/>
<text text-anchor="middle" x="352.5" y="-7" font-family="FreeSans" font-size="10.00">vector</text>
</a>
</g>
</g>
<!-- Node10&#45;&gt;Node15 -->
<g id="edge15_Node000010_Node000015" class="edge">
<title>Node10&#45;&gt;Node15</title>
<g id="a_edge15_Node000010_Node000015"><a xlink:title=" ">
<path fill="none" stroke="#63b8ff" d="M255.12,-109.86C272.58,-102.36 296.54,-90.16 313.5,-74 327.08,-61.06 337.79,-42.4 344.53,-28.65"/>
<polygon fill="#63b8ff" stroke="#63b8ff" points="347.84,-29.82 348.88,-19.28 341.49,-26.87 347.84,-29.82"/>
</a>
</g>
</g>
<!-- Node16 -->
<g id="Node000016" class="node">
<title>Node16</title>
<g id="a_Node000016"><a xlink:href="backtrace_8h.html" target="_top" xlink:title=" ">
<polygon fill="white" stroke="#666666" points="507.5,-74 361.5,-74 361.5,-55 507.5,-55 507.5,-74"/>
<text text-anchor="middle" x="434.5" y="-62" font-family="FreeSans" font-size="10.00">mpqc/util/core/backtrace.h</text>
</a>
</g>
</g>
<!-- Node10&#45;&gt;Node16 -->
<g id="edge16_Node000010_Node000016" class="edge">
<title>Node10&#45;&gt;Node16</title>
<g id="a_edge16_Node000010_Node000016"><a xlink:title=" ">
<path fill="none" stroke="#63b8ff" d="M264.95,-109.98C299.46,-100.93 354.16,-86.58 392.06,-76.64"/>
<polygon fill="#63b8ff" stroke="#63b8ff" points="393.01,-80.01 401.79,-74.08 391.23,-73.23 393.01,-80.01"/>
</a>
</g>
</g>
<!-- Node12&#45;&gt;Node12 -->
<g id="edge12_Node000012_Node000012" class="edge">
<title>Node12&#45;&gt;Node12</title>
<g id="a_edge12_Node000012_Node000012"><a xlink:title=" ">
<path fill="none" stroke="#63b8ff" d="M122.74,-74.07C135.56,-76.02 147.5,-72.83 147.5,-64.5 147.5,-58.45 141.2,-55.11 132.84,-54.48"/>
<polygon fill="#63b8ff" stroke="#63b8ff" points="132.58,-50.99 122.74,-54.93 132.89,-57.98 132.58,-50.99"/>
</a>
</g>
</g>
<!-- Node16&#45;&gt;Node15 -->
<g id="edge18_Node000016_Node000015" class="edge">
<title>Node16&#45;&gt;Node15</title>
<g id="a_edge18_Node000016_Node000015"><a xlink:title=" ">
<path fill="none" stroke="#63b8ff" d="M421.33,-54.98C408.73,-46.84 389.5,-34.41 374.56,-24.76"/>
<polygon fill="#63b8ff" stroke="#63b8ff" points="376.21,-21.66 365.91,-19.17 372.41,-27.54 376.21,-21.66"/>
</a>
</g>
</g>
<!-- Node17 -->
<g id="Node000017" class="node">
<title>Node17</title>
<g id="a_Node000017"><a xlink:title=" ">
<polygon fill="#e0e0e0" stroke="#999999" points="456.5,-19 412.5,-19 412.5,0 456.5,0 456.5,-19"/>
<text text-anchor="middle" x="434.5" y="-7" font-family="FreeSans" font-size="10.00">string</text>
</a>
</g>
</g>
<!-- Node16&#45;&gt;Node17 -->
<g id="edge17_Node000016_Node000017" class="edge">
<title>Node16&#45;&gt;Node17</title>
<g id="a_edge17_Node000016_Node000017"><a xlink:title=" ">
<path fill="none" stroke="#63b8ff" d="M434.5,-54.75C434.5,-47.8 434.5,-37.85 434.5,-29.13"/>
<polygon fill="#63b8ff" stroke="#63b8ff" points="438,-29.09 434.5,-19.09 431,-29.09 438,-29.09"/>
</a>
</g>
</g>
<!-- Node23&#45;&gt;Node8 -->
<g id="edge26_Node000023_Node000008" class="edge">
<title>Node23&#45;&gt;Node8</title>
<g id="a_edge26_Node000023_Node000008"><a xlink:title=" ">
<path fill="none" stroke="#63b8ff" d="M896.63,-230.72C880.67,-207.61 849.26,-162.13 832.19,-137.43"/>
<polygon fill="#63b8ff" stroke="#63b8ff" points="834.98,-135.31 826.42,-129.07 829.22,-139.29 834.98,-135.31"/>
</a>
</g>
</g>
</g>
</svg>
