<?xml version="1.0" encoding="UTF-8" standalone="no"?>
<!DOCTYPE svg PUBLIC "-//W3C//DTD SVG 1.1//EN"
 "http://www.w3.org/Graphics/SVG/1.1/DTD/svg11.dtd">
<!-- Generated by graphviz version 2.43.0 (0)
 -->
<!-- Title: mpqc/math/external/tiledarray/reduction.h Pages: 1 -->
<svg width="248pt" height="95pt"
 viewBox="0.00 0.00 248.00 95.02" xmlns="http://www.w3.org/2000/svg" xmlns:xlink="http://www.w3.org/1999/xlink">

<svg id="main" version="1.1" xmlns="http://www.w3.org/2000/svg" xmlns:xlink="http://www.w3.org/1999/xlink" xml:space="preserve" onload="init(evt)">
<style type="text/css"><![CDATA[
.node, .edge {opacity: 0.7;}
.node.selected, .edge.selected {opacity: 1;}
.edge:hover path { stroke: red; }
.edge:hover polygon { stroke: red; fill: red; }
]]></style>
<script type="application/ecmascript" xlink:href="svg.min.js"/>
<svg id="graph" class="graph">
<g id="graph0" class="graph" transform="scale(1 1) rotate(0) translate(4 91.02)">
<title>mpqc/math/external/tiledarray/reduction.h</title>
<!-- Node1 -->
<g id="Node000001" class="node">
<title>Node1</title>
<g id="a_Node000001"><a xlink:title=" ">
<polygon fill="#999999" stroke="#666666" points="177.5,-87.02 52.5,-87.02 52.5,-57.02 177.5,-57.02 177.5,-87.02"/>
<text text-anchor="start" x="60.5" y="-75.02" font-family="FreeSans" font-size="10.00">mpqc/math/external</text>
<text text-anchor="middle" x="115" y="-64.02" font-family="FreeSans" font-size="10.00">/tiledarray/reduction.h</text>
</a>
</g>
</g>
<!-- Node2 -->
<g id="Node000002" class="node">
<title>Node2</title>
<g id="a_Node000002"><a xlink:title=" ">
<polygon fill="#e0e0e0" stroke="#999999" points="64,-21.02 0,-21.02 0,-2.02 64,-2.02 64,-21.02"/>
<text text-anchor="middle" x="32" y="-9.02" font-family="FreeSans" font-size="10.00">algorithm</text>
</a>
</g>
</g>
<!-- Node1&#45;&gt;Node2 -->
<g id="edge1_Node000001_Node000002" class="edge">
<title>Node1&#45;&gt;Node2</title>
<g id="a_edge1_Node000001_Node000002"><a xlink:title=" ">
<path fill="none" stroke="#63b8ff" d="M94.91,-56.86C82.12,-47.85 65.6,-36.2 52.7,-27.11"/>
<polygon fill="#63b8ff" stroke="#63b8ff" points="54.63,-24.18 44.44,-21.28 50.59,-29.91 54.63,-24.18"/>
</a>
</g>
</g>
<!-- Node3 -->
<g id="Node000003" class="node">
<title>Node3</title>
<g id="a_Node000003"><a xlink:href="functional.html" target="_top" xlink:title=" ">
<polygon fill="white" stroke="#666666" points="147.5,-21.02 82.5,-21.02 82.5,-2.02 147.5,-2.02 147.5,-21.02"/>
<text text-anchor="middle" x="115" y="-9.02" font-family="FreeSans" font-size="10.00">functional</text>
</a>
</g>
</g>
<!-- Node1&#45;&gt;Node3 -->
<g id="edge2_Node000001_Node000003" class="edge">
<title>Node1&#45;&gt;Node3</title>
<g id="a_edge2_Node000001_Node000003"><a xlink:title=" ">
<path fill="none" stroke="#63b8ff" d="M115,-56.86C115,-49.23 115,-39.72 115,-31.47"/>
<polygon fill="#63b8ff" stroke="#63b8ff" points="118.5,-31.28 115,-21.28 111.5,-31.28 118.5,-31.28"/>
</a>
</g>
</g>
<!-- Node4 -->
<g id="Node000004" class="node">
<title>Node4</title>
<g id="a_Node000004"><a xlink:title=" ">
<polygon fill="#e0e0e0" stroke="#999999" points="240,-21.02 184,-21.02 184,-2.02 240,-2.02 240,-21.02"/>
<text text-anchor="middle" x="212" y="-9.02" font-family="FreeSans" font-size="10.00">numeric</text>
</a>
</g>
</g>
<!-- Node1&#45;&gt;Node4 -->
<g id="edge4_Node000001_Node000004" class="edge">
<title>Node1&#45;&gt;Node4</title>
<g id="a_edge4_Node000001_Node000004"><a xlink:title=" ">
<path fill="none" stroke="#63b8ff" d="M138.48,-56.86C153.8,-47.62 173.71,-35.61 188.95,-26.42"/>
<polygon fill="#63b8ff" stroke="#63b8ff" points="190.99,-29.27 197.75,-21.11 187.38,-23.28 190.99,-29.27"/>
</a>
</g>
</g>
<!-- Node3&#45;&gt;Node3 -->
<g id="edge3_Node000003_Node000003" class="edge">
<title>Node3&#45;&gt;Node3</title>
<g id="a_edge3_Node000003_Node000003"><a xlink:title=" ">
<path fill="none" stroke="#63b8ff" d="M133.65,-21.05C149.22,-25.13 165.5,-21.95 165.5,-11.52 165.5,-3.37 155.57,0.35 143.79,-0.35"/>
<polygon fill="#63b8ff" stroke="#63b8ff" points="142.96,3.06 133.65,-1.98 144.08,-3.85 142.96,3.06"/>
</a>
</g>
</g>
</g>
</svg>
</svg>

<style type='text/css'>
<![CDATA[
[data-mouse-over-selected='false'] { opacity: 0.7; }
[data-mouse-over-selected='true']  { opacity: 1.0; }
]]>
</style>
<script type="application/ecmascript"><![CDATA[
document.addEventListener('DOMContentLoaded', (event) => {
  highlightEdges();
  highlightAdjacentNodes();
});
]]></script>
</svg>
