<?xml version="1.0" encoding="UTF-8" standalone="no"?>
<!DOCTYPE svg PUBLIC "-//W3C//DTD SVG 1.1//EN"
 "http://www.w3.org/Graphics/SVG/1.1/DTD/svg11.dtd">
<!-- Generated by graphviz version 2.43.0 (0)
 -->
<!-- Title: mpqc/util/misc/registry.h Pages: 1 -->
<svg width="651pt" height="192pt"
 viewBox="0.00 0.00 650.50 192.00" xmlns="http://www.w3.org/2000/svg" xmlns:xlink="http://www.w3.org/1999/xlink">
<g id="graph0" class="graph" transform="scale(1 1) rotate(0) translate(4 188)">
<title>mpqc/util/misc/registry.h</title>
<!-- Node1 -->
<g id="Node000001" class="node">
<title>Node1</title>
<g id="a_Node000001"><a xlink:title=" ">
<polygon fill="#999999" stroke="#666666" points="271,-184 134,-184 134,-165 271,-165 271,-184"/>
<text text-anchor="middle" x="202.5" y="-172" font-family="FreeSans" font-size="10.00">mpqc/util/misc/registry.h</text>
</a>
</g>
</g>
<!-- Node2 -->
<g id="Node000002" class="node">
<title>Node2</title>
<g id="a_Node000002"><a xlink:href="util_2misc_2fwd_8h.html" target="_top" xlink:title=" ">
<polygon fill="white" stroke="#666666" points="133.5,-129 15.5,-129 15.5,-110 133.5,-110 133.5,-129"/>
<text text-anchor="middle" x="74.5" y="-117" font-family="FreeSans" font-size="10.00">mpqc/util/misc/fwd.h</text>
</a>
</g>
</g>
<!-- Node1&#45;&gt;Node2 -->
<g id="edge1_Node000001_Node000002" class="edge">
<title>Node1&#45;&gt;Node2</title>
<g id="a_edge1_Node000001_Node000002"><a xlink:title=" ">
<path fill="none" stroke="#63b8ff" d="M181.93,-164.98C161.07,-156.34 128.53,-142.87 104.73,-133.02"/>
<polygon fill="#63b8ff" stroke="#63b8ff" points="106.02,-129.76 95.44,-129.17 103.34,-136.23 106.02,-129.76"/>
</a>
</g>
</g>
<!-- Node4 -->
<g id="Node000004" class="node">
<title>Node4</title>
<g id="a_Node000004"><a xlink:title=" ">
<polygon fill="#e0e0e0" stroke="#999999" points="221.5,-129 183.5,-129 183.5,-110 221.5,-110 221.5,-129"/>
<text text-anchor="middle" x="202.5" y="-117" font-family="FreeSans" font-size="10.00">map</text>
</a>
</g>
</g>
<!-- Node1&#45;&gt;Node4 -->
<g id="edge3_Node000001_Node000004" class="edge">
<title>Node1&#45;&gt;Node4</title>
<g id="a_edge3_Node000001_Node000004"><a xlink:title=" ">
<path fill="none" stroke="#63b8ff" d="M202.5,-164.75C202.5,-157.8 202.5,-147.85 202.5,-139.13"/>
<polygon fill="#63b8ff" stroke="#63b8ff" points="206,-139.09 202.5,-129.09 199,-139.09 206,-139.09"/>
</a>
</g>
</g>
<!-- Node5 -->
<g id="Node000005" class="node">
<title>Node5</title>
<g id="a_Node000005"><a xlink:href="exception_8h.html" target="_top" xlink:title=" ">
<polygon fill="white" stroke="#666666" points="401.5,-129 255.5,-129 255.5,-110 401.5,-110 401.5,-129"/>
<text text-anchor="middle" x="328.5" y="-117" font-family="FreeSans" font-size="10.00">mpqc/util/core/exception.h</text>
</a>
</g>
</g>
<!-- Node1&#45;&gt;Node5 -->
<g id="edge4_Node000001_Node000005" class="edge">
<title>Node1&#45;&gt;Node5</title>
<g id="a_edge4_Node000001_Node000005"><a xlink:title=" ">
<path fill="none" stroke="#63b8ff" d="M222.74,-164.98C243.2,-156.38 275.03,-142.99 298.43,-133.15"/>
<polygon fill="#63b8ff" stroke="#63b8ff" points="300.03,-136.27 307.89,-129.17 297.31,-129.82 300.03,-136.27"/>
</a>
</g>
</g>
<!-- Node3 -->
<g id="Node000003" class="node">
<title>Node3</title>
<g id="a_Node000003"><a xlink:title=" ">
<polygon fill="#e0e0e0" stroke="#999999" points="117,-74 0,-74 0,-55 117,-55 117,-74"/>
<text text-anchor="middle" x="58.5" y="-62" font-family="FreeSans" font-size="10.00">mpqc/mpqc_config.h</text>
</a>
</g>
</g>
<!-- Node2&#45;&gt;Node3 -->
<g id="edge2_Node000002_Node000003" class="edge">
<title>Node2&#45;&gt;Node3</title>
<g id="a_edge2_Node000002_Node000003"><a xlink:title=" ">
<path fill="none" stroke="#63b8ff" d="M71.86,-109.75C69.74,-102.72 66.69,-92.62 64.04,-83.84"/>
<polygon fill="#63b8ff" stroke="#63b8ff" points="67.33,-82.65 61.09,-74.09 60.63,-84.67 67.33,-82.65"/>
</a>
</g>
</g>
<!-- Node6 -->
<g id="Node000006" class="node">
<title>Node6</title>
<g id="a_Node000006"><a xlink:title=" ">
<polygon fill="#e0e0e0" stroke="#999999" points="188,-74 135,-74 135,-55 188,-55 188,-74"/>
<text text-anchor="middle" x="161.5" y="-62" font-family="FreeSans" font-size="10.00">string.h</text>
</a>
</g>
</g>
<!-- Node5&#45;&gt;Node6 -->
<g id="edge5_Node000005_Node000006" class="edge">
<title>Node5&#45;&gt;Node6</title>
<g id="a_edge5_Node000005_Node000006"><a xlink:title=" ">
<path fill="none" stroke="#63b8ff" d="M301.67,-109.98C273.55,-101.06 229.19,-86.98 197.92,-77.06"/>
<polygon fill="#63b8ff" stroke="#63b8ff" points="198.86,-73.68 188.26,-73.99 196.74,-80.36 198.86,-73.68"/>
</a>
</g>
</g>
<!-- Node7 -->
<g id="Node000007" class="node">
<title>Node7</title>
<g id="a_Node000007"><a xlink:href="memory.html" target="_top" xlink:title=" ">
<polygon fill="white" stroke="#666666" points="264.5,-74 206.5,-74 206.5,-55 264.5,-55 264.5,-74"/>
<text text-anchor="middle" x="235.5" y="-62" font-family="FreeSans" font-size="10.00">memory</text>
</a>
</g>
</g>
<!-- Node5&#45;&gt;Node7 -->
<g id="edge6_Node000005_Node000007" class="edge">
<title>Node5&#45;&gt;Node7</title>
<g id="a_edge6_Node000005_Node000007"><a xlink:title=" ">
<path fill="none" stroke="#63b8ff" d="M313.56,-109.98C299,-101.69 276.63,-88.94 259.57,-79.22"/>
<polygon fill="#63b8ff" stroke="#63b8ff" points="261.14,-76.08 250.71,-74.17 257.67,-82.16 261.14,-76.08"/>
</a>
</g>
</g>
<!-- Node8 -->
<g id="Node000008" class="node">
<title>Node8</title>
<g id="a_Node000008"><a xlink:title=" ">
<polygon fill="#e0e0e0" stroke="#999999" points="356.5,-74 300.5,-74 300.5,-55 356.5,-55 356.5,-74"/>
<text text-anchor="middle" x="328.5" y="-62" font-family="FreeSans" font-size="10.00">sstream</text>
</a>
</g>
</g>
<!-- Node5&#45;&gt;Node8 -->
<g id="edge8_Node000005_Node000008" class="edge">
<title>Node5&#45;&gt;Node8</title>
<g id="a_edge8_Node000005_Node000008"><a xlink:title=" ">
<path fill="none" stroke="#63b8ff" d="M328.5,-109.75C328.5,-102.8 328.5,-92.85 328.5,-84.13"/>
<polygon fill="#63b8ff" stroke="#63b8ff" points="332,-84.09 328.5,-74.09 325,-84.09 332,-84.09"/>
</a>
</g>
</g>
<!-- Node9 -->
<g id="Node000009" class="node">
<title>Node9</title>
<g id="a_Node000009"><a xlink:title=" ">
<polygon fill="#e0e0e0" stroke="#999999" points="440,-74 375,-74 375,-55 440,-55 440,-74"/>
<text text-anchor="middle" x="407.5" y="-62" font-family="FreeSans" font-size="10.00">stdexcept</text>
</a>
</g>
</g>
<!-- Node5&#45;&gt;Node9 -->
<g id="edge9_Node000005_Node000009" class="edge">
<title>Node5&#45;&gt;Node9</title>
<g id="a_edge9_Node000005_Node000009"><a xlink:title=" ">
<path fill="none" stroke="#63b8ff" d="M341.19,-109.98C353.33,-101.84 371.86,-89.41 386.25,-79.76"/>
<polygon fill="#63b8ff" stroke="#63b8ff" points="388.22,-82.65 394.58,-74.17 384.32,-76.84 388.22,-82.65"/>
</a>
</g>
</g>
<!-- Node10 -->
<g id="Node000010" class="node">
<title>Node10</title>
<g id="a_Node000010"><a xlink:title=" ">
<polygon fill="#e0e0e0" stroke="#999999" points="511,-19 464,-19 464,0 511,0 511,-19"/>
<text text-anchor="middle" x="487.5" y="-7" font-family="FreeSans" font-size="10.00">vector</text>
</a>
</g>
</g>
<!-- Node5&#45;&gt;Node10 -->
<g id="edge10_Node000005_Node000010" class="edge">
<title>Node5&#45;&gt;Node10</title>
<g id="a_edge10_Node000005_Node000010"><a xlink:title=" ">
<path fill="none" stroke="#63b8ff" d="M371.44,-109.94C396.05,-103.35 426.35,-92.19 448.5,-74 463.16,-61.96 473.82,-42.88 480.25,-28.78"/>
<polygon fill="#63b8ff" stroke="#63b8ff" points="483.65,-29.73 484.35,-19.16 477.21,-26.99 483.65,-29.73"/>
</a>
</g>
</g>
<!-- Node11 -->
<g id="Node000011" class="node">
<title>Node11</title>
<g id="a_Node000011"><a xlink:href="backtrace_8h.html" target="_top" xlink:title=" ">
<polygon fill="white" stroke="#666666" points="642.5,-74 496.5,-74 496.5,-55 642.5,-55 642.5,-74"/>
<text text-anchor="middle" x="569.5" y="-62" font-family="FreeSans" font-size="10.00">mpqc/util/core/backtrace.h</text>
</a>
</g>
</g>
<!-- Node5&#45;&gt;Node11 -->
<g id="edge11_Node000005_Node000011" class="edge">
<title>Node5&#45;&gt;Node11</title>
<g id="a_edge11_Node000005_Node000011"><a xlink:title=" ">
<path fill="none" stroke="#63b8ff" d="M367.22,-109.98C408.91,-100.82 475.32,-86.21 520.59,-76.26"/>
<polygon fill="#63b8ff" stroke="#63b8ff" points="521.46,-79.65 530.48,-74.08 519.96,-72.81 521.46,-79.65"/>
</a>
</g>
</g>
<!-- Node7&#45;&gt;Node7 -->
<g id="edge7_Node000007_Node000007" class="edge">
<title>Node7&#45;&gt;Node7</title>
<g id="a_edge7_Node000007_Node000007"><a xlink:title=" ">
<path fill="none" stroke="#63b8ff" d="M257.74,-74.07C270.56,-76.02 282.5,-72.83 282.5,-64.5 282.5,-58.45 276.2,-55.11 267.84,-54.48"/>
<polygon fill="#63b8ff" stroke="#63b8ff" points="267.58,-50.99 257.74,-54.93 267.89,-57.98 267.58,-50.99"/>
</a>
</g>
</g>
<!-- Node11&#45;&gt;Node10 -->
<g id="edge13_Node000011_Node000010" class="edge">
<title>Node11&#45;&gt;Node10</title>
<g id="a_edge13_Node000011_Node000010"><a xlink:title=" ">
<path fill="none" stroke="#63b8ff" d="M556.33,-54.98C543.73,-46.84 524.5,-34.41 509.56,-24.76"/>
<polygon fill="#63b8ff" stroke="#63b8ff" points="511.21,-21.66 500.91,-19.17 507.41,-27.54 511.21,-21.66"/>
</a>
</g>
</g>
<!-- Node12 -->
<g id="Node000012" class="node">
<title>Node12</title>
<g id="a_Node000012"><a xlink:title=" ">
<polygon fill="#e0e0e0" stroke="#999999" points="591.5,-19 547.5,-19 547.5,0 591.5,0 591.5,-19"/>
<text text-anchor="middle" x="569.5" y="-7" font-family="FreeSans" font-size="10.00">string</text>
</a>
</g>
</g>
<!-- Node11&#45;&gt;Node12 -->
<g id="edge12_Node000011_Node000012" class="edge">
<title>Node11&#45;&gt;Node12</title>
<g id="a_edge12_Node000011_Node000012"><a xlink:title=" ">
<path fill="none" stroke="#63b8ff" d="M569.5,-54.75C569.5,-47.8 569.5,-37.85 569.5,-29.13"/>
<polygon fill="#63b8ff" stroke="#63b8ff" points="573,-29.09 569.5,-19.09 566,-29.09 573,-29.09"/>
</a>
</g>
</g>
</g>
</svg>
