<?xml version="1.0" encoding="UTF-8" standalone="no"?>
<!DOCTYPE svg PUBLIC "-//W3C//DTD SVG 1.1//EN"
 "http://www.w3.org/Graphics/SVG/1.1/DTD/svg11.dtd">
<!-- Generated by graphviz version 2.43.0 (0)
 -->
<!-- Title: mpqc/chemistry/qc/lcao/scf/sd.ipp Pages: 1 -->
<svg width="830pt" height="302pt"
 viewBox="0.00 0.00 830.00 302.00" xmlns="http://www.w3.org/2000/svg" xmlns:xlink="http://www.w3.org/1999/xlink">
<g id="graph0" class="graph" transform="scale(1 1) rotate(0) translate(4 298)">
<title>mpqc/chemistry/qc/lcao/scf/sd.ipp</title>
<!-- Node1 -->
<g id="Node000001" class="node">
<title>Node1</title>
<g id="a_Node000001"><a xlink:title=" ">
<polygon fill="#999999" stroke="#666666" points="624.5,-294 491.5,-294 491.5,-264 624.5,-264 624.5,-294"/>
<text text-anchor="start" x="499.5" y="-282" font-family="FreeSans" font-size="10.00">mpqc/chemistry/qc/lcao</text>
<text text-anchor="middle" x="558" y="-271" font-family="FreeSans" font-size="10.00">/scf/sd.ipp</text>
</a>
</g>
</g>
<!-- Node2 -->
<g id="Node000002" class="node">
<title>Node2</title>
<g id="a_Node000002"><a xlink:href="sd_8cpp.html" target="_top" xlink:title=" ">
<polygon fill="white" stroke="#666666" points="473.5,-228 340.5,-228 340.5,-198 473.5,-198 473.5,-228"/>
<text text-anchor="start" x="348.5" y="-216" font-family="FreeSans" font-size="10.00">mpqc/chemistry/qc/lcao</text>
<text text-anchor="middle" x="407" y="-205" font-family="FreeSans" font-size="10.00">/scf/sd.cpp</text>
</a>
</g>
</g>
<!-- Node1&#45;&gt;Node2 -->
<g id="edge1_Node000001_Node000002" class="edge">
<title>Node1&#45;&gt;Node2</title>
<g id="a_edge1_Node000001_Node000002"><a xlink:title=" ">
<path fill="none" stroke="#63b8ff" d="M515.34,-259.92C491.47,-249.8 462.17,-237.38 440.06,-228.01"/>
<polygon fill="#63b8ff" stroke="#63b8ff" points="514.29,-263.28 524.86,-263.95 517.02,-256.83 514.29,-263.28"/>
</a>
</g>
</g>
<!-- Node3 -->
<g id="Node000003" class="node">
<title>Node3</title>
<g id="a_Node000003"><a xlink:href="sd_8h.html" target="_top" xlink:title=" ">
<polygon fill="white" stroke="#666666" points="624.5,-228 491.5,-228 491.5,-198 624.5,-198 624.5,-228"/>
<text text-anchor="start" x="499.5" y="-216" font-family="FreeSans" font-size="10.00">mpqc/chemistry/qc/lcao</text>
<text text-anchor="middle" x="558" y="-205" font-family="FreeSans" font-size="10.00">/scf/sd.h</text>
</a>
</g>
</g>
<!-- Node1&#45;&gt;Node3 -->
<g id="edge2_Node000001_Node000003" class="edge">
<title>Node1&#45;&gt;Node3</title>
<g id="a_edge2_Node000001_Node000003"><a xlink:title=" ">
<path fill="none" stroke="#63b8ff" d="M551.43,-253.83C551.02,-245.17 551.31,-235.7 552.29,-228.16"/>
<polygon fill="#63b8ff" stroke="#63b8ff" points="547.95,-254.13 552.28,-263.8 554.92,-253.54 547.95,-254.13"/>
</a>
</g>
</g>
<!-- Node3&#45;&gt;Node1 -->
<g id="edge14_Node000003_Node000001" class="edge">
<title>Node3&#45;&gt;Node1</title>
<g id="a_edge14_Node000003_Node000001"><a xlink:title=" ">
<path fill="none" stroke="#63b8ff" d="M564.57,-238.13C564.98,-246.78 564.7,-256.26 563.72,-263.8"/>
<polygon fill="#63b8ff" stroke="#63b8ff" points="568.05,-237.83 563.71,-228.16 561.08,-238.43 568.05,-237.83"/>
</a>
</g>
</g>
<!-- Node4 -->
<g id="Node000004" class="node">
<title>Node4</title>
<g id="a_Node000004"><a xlink:href="pao__to__pno__mp2_8ipp.html" target="_top" xlink:title=" ">
<polygon fill="white" stroke="#666666" points="314.5,-162 165.5,-162 165.5,-132 314.5,-132 314.5,-162"/>
<text text-anchor="start" x="173.5" y="-150" font-family="FreeSans" font-size="10.00">mpqc/chemistry/qc/lcao</text>
<text text-anchor="middle" x="240" y="-139" font-family="FreeSans" font-size="10.00">/mbpt/pao_to_pno_mp2.ipp</text>
</a>
</g>
</g>
<!-- Node3&#45;&gt;Node4 -->
<g id="edge3_Node000003_Node000004" class="edge">
<title>Node3&#45;&gt;Node4</title>
<g id="a_edge3_Node000003_Node000004"><a xlink:title=" ">
<path fill="none" stroke="#63b8ff" d="M481.44,-196.59C429.13,-186.06 360.36,-172.22 309.6,-162.01"/>
<polygon fill="#63b8ff" stroke="#63b8ff" points="480.84,-200.04 491.34,-198.58 482.22,-193.18 480.84,-200.04"/>
</a>
</g>
</g>
<!-- Node7 -->
<g id="Node000007" class="node">
<title>Node7</title>
<g id="a_Node000007"><a xlink:href="rhf_8h.html" target="_top" xlink:title=" ">
<polygon fill="white" stroke="#666666" points="624.5,-162 491.5,-162 491.5,-132 624.5,-132 624.5,-162"/>
<text text-anchor="start" x="499.5" y="-150" font-family="FreeSans" font-size="10.00">mpqc/chemistry/qc/lcao</text>
<text text-anchor="middle" x="558" y="-139" font-family="FreeSans" font-size="10.00">/scf/rhf.h</text>
</a>
</g>
</g>
<!-- Node3&#45;&gt;Node7 -->
<g id="edge7_Node000003_Node000007" class="edge">
<title>Node3&#45;&gt;Node7</title>
<g id="a_edge7_Node000003_Node000007"><a xlink:title=" ">
<path fill="none" stroke="#63b8ff" d="M558,-187.54C558,-178.96 558,-169.61 558,-162.16"/>
<polygon fill="#63b8ff" stroke="#63b8ff" points="554.5,-187.8 558,-197.8 561.5,-187.8 554.5,-187.8"/>
</a>
</g>
</g>
<!-- Node14 -->
<g id="Node000014" class="node">
<title>Node14</title>
<g id="a_Node000014"><a xlink:href="solver_8ipp.html" target="_top" xlink:title=" ">
<polygon fill="white" stroke="#666666" points="822,-162 690,-162 690,-132 822,-132 822,-162"/>
<text text-anchor="start" x="698" y="-150" font-family="FreeSans" font-size="10.00">mpqc/chemistry/qc/mra</text>
<text text-anchor="middle" x="756" y="-139" font-family="FreeSans" font-size="10.00">/scf/solver.ipp</text>
</a>
</g>
</g>
<!-- Node3&#45;&gt;Node14 -->
<g id="edge15_Node000003_Node000014" class="edge">
<title>Node3&#45;&gt;Node14</title>
<g id="a_edge15_Node000003_Node000014"><a xlink:title=" ">
<path fill="none" stroke="#63b8ff" d="M611.04,-194.86C642.83,-184.58 682.75,-171.68 712.65,-162.01"/>
<polygon fill="#63b8ff" stroke="#63b8ff" points="609.89,-191.55 601.45,-197.95 612.04,-198.21 609.89,-191.55"/>
</a>
</g>
</g>
<!-- Node5 -->
<g id="Node000005" class="node">
<title>Node5</title>
<g id="a_Node000005"><a xlink:href="pao__to__pno__mp2_8cpp.html" target="_top" xlink:title=" ">
<polygon fill="white" stroke="#666666" points="152,-96 0,-96 0,-66 152,-66 152,-96"/>
<text text-anchor="start" x="8" y="-84" font-family="FreeSans" font-size="10.00">mpqc/chemistry/qc/lcao</text>
<text text-anchor="middle" x="76" y="-73" font-family="FreeSans" font-size="10.00">/mbpt/pao_to_pno_mp2.cpp</text>
</a>
</g>
</g>
<!-- Node4&#45;&gt;Node5 -->
<g id="edge4_Node000004_Node000005" class="edge">
<title>Node4&#45;&gt;Node5</title>
<g id="a_edge4_Node000004_Node000005"><a xlink:title=" ">
<path fill="none" stroke="#63b8ff" d="M194.36,-128.19C168.31,-118.02 136.13,-105.47 111.91,-96.01"/>
<polygon fill="#63b8ff" stroke="#63b8ff" points="193.42,-131.58 204.01,-131.95 195.97,-125.06 193.42,-131.58"/>
</a>
</g>
</g>
<!-- Node6 -->
<g id="Node000006" class="node">
<title>Node6</title>
<g id="a_Node000006"><a xlink:href="pao__to__pno__mp2_8h.html" target="_top" xlink:title=" ">
<polygon fill="white" stroke="#666666" points="310,-96 170,-96 170,-66 310,-66 310,-96"/>
<text text-anchor="start" x="178" y="-84" font-family="FreeSans" font-size="10.00">mpqc/chemistry/qc/lcao</text>
<text text-anchor="middle" x="240" y="-73" font-family="FreeSans" font-size="10.00">/mbpt/pao_to_pno_mp2.h</text>
</a>
</g>
</g>
<!-- Node4&#45;&gt;Node6 -->
<g id="edge5_Node000004_Node000006" class="edge">
<title>Node4&#45;&gt;Node6</title>
<g id="a_edge5_Node000004_Node000006"><a xlink:title=" ">
<path fill="none" stroke="#63b8ff" d="M233.43,-121.83C233.02,-113.17 233.31,-103.7 234.29,-96.16"/>
<polygon fill="#63b8ff" stroke="#63b8ff" points="229.95,-122.13 234.28,-131.8 236.92,-121.54 229.95,-122.13"/>
</a>
</g>
</g>
<!-- Node6&#45;&gt;Node4 -->
<g id="edge6_Node000006_Node000004" class="edge">
<title>Node6&#45;&gt;Node4</title>
<g id="a_edge6_Node000006_Node000004"><a xlink:title=" ">
<path fill="none" stroke="#63b8ff" d="M246.57,-106.13C246.98,-114.78 246.7,-124.26 245.72,-131.8"/>
<polygon fill="#63b8ff" stroke="#63b8ff" points="250.05,-105.83 245.71,-96.16 243.08,-106.43 250.05,-105.83"/>
</a>
</g>
</g>
<!-- Node8 -->
<g id="Node000008" class="node">
<title>Node8</title>
<g id="a_Node000008"><a xlink:href="scf_8h.html" target="_top" xlink:title=" ">
<polygon fill="white" stroke="#666666" points="473.5,-96 328.5,-96 328.5,-66 473.5,-66 473.5,-96"/>
<text text-anchor="start" x="336.5" y="-84" font-family="FreeSans" font-size="10.00">/home/runner/work/mpqc4</text>
<text text-anchor="middle" x="401" y="-73" font-family="FreeSans" font-size="10.00">/mpqc4/python/src/scf.h</text>
</a>
</g>
</g>
<!-- Node7&#45;&gt;Node8 -->
<g id="edge8_Node000007_Node000008" class="edge">
<title>Node7&#45;&gt;Node8</title>
<g id="a_edge8_Node000007_Node000008"><a xlink:title=" ">
<path fill="none" stroke="#63b8ff" d="M513.98,-128.05C489.1,-117.91 458.47,-105.43 435.37,-96.01"/>
<polygon fill="#63b8ff" stroke="#63b8ff" points="512.96,-131.42 523.55,-131.95 515.61,-124.94 512.96,-131.42"/>
</a>
</g>
</g>
<!-- Node10 -->
<g id="Node000010" class="node">
<title>Node10</title>
<g id="a_Node000010"><a xlink:href="rhf_8ipp.html" target="_top" xlink:title=" ">
<polygon fill="white" stroke="#666666" points="624.5,-96 491.5,-96 491.5,-66 624.5,-66 624.5,-96"/>
<text text-anchor="start" x="499.5" y="-84" font-family="FreeSans" font-size="10.00">mpqc/chemistry/qc/lcao</text>
<text text-anchor="middle" x="558" y="-73" font-family="FreeSans" font-size="10.00">/scf/rhf.ipp</text>
</a>
</g>
</g>
<!-- Node7&#45;&gt;Node10 -->
<g id="edge10_Node000007_Node000010" class="edge">
<title>Node7&#45;&gt;Node10</title>
<g id="a_edge10_Node000007_Node000010"><a xlink:title=" ">
<path fill="none" stroke="#63b8ff" d="M558,-121.54C558,-112.96 558,-103.61 558,-96.16"/>
<polygon fill="#63b8ff" stroke="#63b8ff" points="554.5,-121.8 558,-131.8 561.5,-121.8 554.5,-121.8"/>
</a>
</g>
</g>
<!-- Node12 -->
<g id="Node000012" class="node">
<title>Node12</title>
<g id="a_Node000012"><a xlink:href="solver__1c__v2_8ipp.html" target="_top" xlink:title=" ">
<polygon fill="white" stroke="#666666" points="775,-96 643,-96 643,-66 775,-66 775,-96"/>
<text text-anchor="start" x="651" y="-84" font-family="FreeSans" font-size="10.00">mpqc/chemistry/qc/mra</text>
<text text-anchor="middle" x="709" y="-73" font-family="FreeSans" font-size="10.00">/scf/solver_1c_v2.ipp</text>
</a>
</g>
</g>
<!-- Node7&#45;&gt;Node12 -->
<g id="edge12_Node000007_Node000012" class="edge">
<title>Node7&#45;&gt;Node12</title>
<g id="a_edge12_Node000007_Node000012"><a xlink:title=" ">
<path fill="none" stroke="#63b8ff" d="M600.66,-127.92C624.53,-117.8 653.83,-105.38 675.94,-96.01"/>
<polygon fill="#63b8ff" stroke="#63b8ff" points="598.98,-124.83 591.14,-131.95 601.71,-131.28 598.98,-124.83"/>
</a>
</g>
</g>
<!-- Node9 -->
<g id="Node000009" class="node">
<title>Node9</title>
<g id="a_Node000009"><a xlink:href="mpqc_8cc.html" target="_top" xlink:title=" ">
<polygon fill="white" stroke="#666666" points="475,-30 325,-30 325,0 475,0 475,-30"/>
<text text-anchor="start" x="333" y="-18" font-family="FreeSans" font-size="10.00">/home/runner/work/mpqc4</text>
<text text-anchor="middle" x="400" y="-7" font-family="FreeSans" font-size="10.00">/mpqc4/python/src/mpqc.cc</text>
</a>
</g>
</g>
<!-- Node8&#45;&gt;Node9 -->
<g id="edge9_Node000008_Node000009" class="edge">
<title>Node8&#45;&gt;Node9</title>
<g id="a_edge9_Node000008_Node000009"><a xlink:title=" ">
<path fill="none" stroke="#63b8ff" d="M400.62,-55.54C400.48,-46.96 400.34,-37.61 400.22,-30.16"/>
<polygon fill="#63b8ff" stroke="#63b8ff" points="397.12,-55.85 400.78,-65.8 404.12,-55.74 397.12,-55.85"/>
</a>
</g>
</g>
<!-- Node11 -->
<g id="Node000011" class="node">
<title>Node11</title>
<g id="a_Node000011"><a xlink:href="rhf_8cpp.html" target="_top" xlink:title=" ">
<polygon fill="white" stroke="#666666" points="626.5,-30 493.5,-30 493.5,0 626.5,0 626.5,-30"/>
<text text-anchor="start" x="501.5" y="-18" font-family="FreeSans" font-size="10.00">mpqc/chemistry/qc/lcao</text>
<text text-anchor="middle" x="560" y="-7" font-family="FreeSans" font-size="10.00">/scf/rhf.cpp</text>
</a>
</g>
</g>
<!-- Node10&#45;&gt;Node11 -->
<g id="edge11_Node000010_Node000011" class="edge">
<title>Node10&#45;&gt;Node11</title>
<g id="a_edge11_Node000010_Node000011"><a xlink:title=" ">
<path fill="none" stroke="#63b8ff" d="M558.76,-55.54C559.03,-46.96 559.32,-37.61 559.56,-30.16"/>
<polygon fill="#63b8ff" stroke="#63b8ff" points="555.26,-55.69 558.44,-65.8 562.25,-55.91 555.26,-55.69"/>
</a>
</g>
</g>
<!-- Node13 -->
<g id="Node000013" class="node">
<title>Node13</title>
<g id="a_Node000013"><a xlink:href="solver_8cpp.html" target="_top" xlink:title=" ">
<polygon fill="white" stroke="#666666" points="822,-30 690,-30 690,0 822,0 822,-30"/>
<text text-anchor="start" x="698" y="-18" font-family="FreeSans" font-size="10.00">mpqc/chemistry/qc/mra</text>
<text text-anchor="middle" x="756" y="-7" font-family="FreeSans" font-size="10.00">/scf/solver.cpp</text>
</a>
</g>
</g>
<!-- Node12&#45;&gt;Node13 -->
<g id="edge13_Node000012_Node000013" class="edge">
<title>Node12&#45;&gt;Node13</title>
<g id="a_edge13_Node000012_Node000013"><a xlink:title=" ">
<path fill="none" stroke="#63b8ff" d="M725.5,-57.53C732.19,-48.43 739.7,-38.19 745.6,-30.16"/>
<polygon fill="#63b8ff" stroke="#63b8ff" points="722.53,-55.66 719.43,-65.8 728.17,-59.81 722.53,-55.66"/>
</a>
</g>
</g>
<!-- Node14&#45;&gt;Node13 -->
<g id="edge16_Node000014_Node000013" class="edge">
<title>Node14&#45;&gt;Node13</title>
<g id="a_edge16_Node000014_Node000013"><a xlink:title=" ">
<path fill="none" stroke="#63b8ff" d="M771.9,-123.36C776.78,-115.13 781.52,-105.51 784,-96 787.37,-83.1 787.37,-78.9 784,-66 780.58,-52.91 772.89,-39.61 766.44,-30.03"/>
<polygon fill="#63b8ff" stroke="#63b8ff" points="768.84,-121.65 766.44,-131.97 774.75,-125.4 768.84,-121.65"/>
</a>
</g>
</g>
</g>
</svg>
