<?xml version="1.0" encoding="UTF-8" standalone="no"?>
<!DOCTYPE svg PUBLIC "-//W3C//DTD SVG 1.1//EN"
 "http://www.w3.org/Graphics/SVG/1.1/DTD/svg11.dtd">
<!-- Generated by graphviz version 2.43.0 (0)
 -->
<!-- Title: mpqc/math/fock/sdseq.h Pages: 1 -->
<svg width="473pt" height="269pt"
 viewBox="0.00 0.00 472.57 269.00" xmlns="http://www.w3.org/2000/svg" xmlns:xlink="http://www.w3.org/1999/xlink">
<g id="graph0" class="graph" transform="scale(1 1) rotate(0) translate(4 265)">
<title>mpqc/math/fock/sdseq.h</title>
<!-- Node1 -->
<g id="Node000001" class="node">
<title>Node1</title>
<g id="a_Node000001"><a xlink:title=" ">
<polygon fill="#999999" stroke="#666666" points="296.07,-261 159.07,-261 159.07,-242 296.07,-242 296.07,-261"/>
<text text-anchor="middle" x="227.57" y="-249" font-family="FreeSans" font-size="10.00">mpqc/math/fock/sdseq.h</text>
</a>
</g>
</g>
<!-- Node2 -->
<g id="Node000002" class="node">
<title>Node2</title>
<g id="a_Node000002"><a xlink:href="sci_8ipp.html" target="_top" xlink:title=" ">
<polygon fill="white" stroke="#666666" points="220.07,-96 87.07,-96 87.07,-66 220.07,-66 220.07,-96"/>
<text text-anchor="start" x="95.07" y="-84" font-family="FreeSans" font-size="10.00">mpqc/chemistry/qc/lcao</text>
<text text-anchor="middle" x="153.57" y="-73" font-family="FreeSans" font-size="10.00">/ci/sci.ipp</text>
</a>
</g>
</g>
<!-- Node1&#45;&gt;Node2 -->
<g id="edge1_Node000001_Node000002" class="edge">
<title>Node1&#45;&gt;Node2</title>
<g id="a_edge1_Node000001_Node000002"><a xlink:title=" ">
<path fill="none" stroke="#63b8ff" d="M148.92,-241.64C94.9,-230.66 28.6,-206.07 3.57,-151 -13.98,-112.38 38.89,-95.35 86.63,-87.86"/>
<polygon fill="#63b8ff" stroke="#63b8ff" points="148.37,-245.1 158.85,-243.54 149.68,-238.22 148.37,-245.1"/>
</a>
</g>
</g>
<!-- Node4 -->
<g id="Node000004" class="node">
<title>Node4</title>
<g id="a_Node000004"><a xlink:href="hamiltonian_8h.html" target="_top" xlink:title=" ">
<polygon fill="white" stroke="#666666" points="318.07,-151 151.07,-151 151.07,-132 318.07,-132 318.07,-151"/>
<text text-anchor="middle" x="234.57" y="-139" font-family="FreeSans" font-size="10.00">mpqc/math/fock/hamiltonian.h</text>
</a>
</g>
</g>
<!-- Node1&#45;&gt;Node4 -->
<g id="edge3_Node000001_Node000004" class="edge">
<title>Node1&#45;&gt;Node4</title>
<g id="a_edge3_Node000001_Node000004"><a xlink:title=" ">
<path fill="none" stroke="#63b8ff" d="M228.8,-231.48C230.33,-207.84 232.88,-168.5 234.01,-151.16"/>
<polygon fill="#63b8ff" stroke="#63b8ff" points="225.3,-231.46 228.14,-241.66 232.28,-231.91 225.3,-231.46"/>
</a>
</g>
</g>
<!-- Node5 -->
<g id="Node000005" class="node">
<title>Node5</title>
<g id="a_Node000005"><a xlink:href="iter_8h.html" target="_top" xlink:title=" ">
<polygon fill="white" stroke="#666666" points="199.57,-206 75.57,-206 75.57,-187 199.57,-187 199.57,-206"/>
<text text-anchor="middle" x="137.57" y="-194" font-family="FreeSans" font-size="10.00">mpqc/math/fock/iter.h</text>
</a>
</g>
</g>
<!-- Node1&#45;&gt;Node5 -->
<g id="edge5_Node000001_Node000005" class="edge">
<title>Node1&#45;&gt;Node5</title>
<g id="a_edge5_Node000001_Node000005"><a xlink:title=" ">
<path fill="none" stroke="#63b8ff" d="M204.13,-236.7C187.73,-227.04 166.34,-214.44 152.29,-206.17"/>
<polygon fill="#63b8ff" stroke="#63b8ff" points="202.72,-239.93 213.11,-241.98 206.27,-233.89 202.72,-239.93"/>
</a>
</g>
</g>
<!-- Node7 -->
<g id="Node000007" class="node">
<title>Node7</title>
<g id="a_Node000007"><a xlink:href="math_2fock_2rdm_8h.html" target="_top" xlink:title=" ">
<polygon fill="white" stroke="#666666" points="464.57,-151 336.57,-151 336.57,-132 464.57,-132 464.57,-151"/>
<text text-anchor="middle" x="400.57" y="-139" font-family="FreeSans" font-size="10.00">mpqc/math/fock/rdm.h</text>
</a>
</g>
</g>
<!-- Node1&#45;&gt;Node7 -->
<g id="edge11_Node000001_Node000007" class="edge">
<title>Node1&#45;&gt;Node7</title>
<g id="a_edge11_Node000001_Node000007"><a xlink:title=" ">
<path fill="none" stroke="#63b8ff" d="M306.42,-246.01C336.03,-240.33 367.57,-228.81 388.57,-206 402.55,-190.81 402.63,-164.65 401.57,-151.14"/>
<polygon fill="#63b8ff" stroke="#63b8ff" points="305.73,-242.58 296.47,-247.72 306.91,-249.48 305.73,-242.58"/>
</a>
</g>
</g>
<!-- Node8 -->
<g id="Node000008" class="node">
<title>Node8</title>
<g id="a_Node000008"><a xlink:href="math_2fock_2util_8h.html" target="_top" xlink:title=" ">
<polygon fill="white" stroke="#666666" points="379.57,-206 255.57,-206 255.57,-187 379.57,-187 379.57,-206"/>
<text text-anchor="middle" x="317.57" y="-194" font-family="FreeSans" font-size="10.00">mpqc/math/fock/util.h</text>
</a>
</g>
</g>
<!-- Node1&#45;&gt;Node8 -->
<g id="edge12_Node000001_Node000008" class="edge">
<title>Node1&#45;&gt;Node8</title>
<g id="a_edge12_Node000001_Node000008"><a xlink:title=" ">
<path fill="none" stroke="#63b8ff" d="M251.01,-236.7C267.4,-227.04 288.8,-214.44 302.85,-206.17"/>
<polygon fill="#63b8ff" stroke="#63b8ff" points="248.87,-233.89 242.03,-241.98 252.42,-239.93 248.87,-233.89"/>
</a>
</g>
</g>
<!-- Node3 -->
<g id="Node000003" class="node">
<title>Node3</title>
<g id="a_Node000003"><a xlink:href="sci_8cpp.html" target="_top" xlink:title=" ">
<polygon fill="white" stroke="#666666" points="220.07,-30 87.07,-30 87.07,0 220.07,0 220.07,-30"/>
<text text-anchor="start" x="95.07" y="-18" font-family="FreeSans" font-size="10.00">mpqc/chemistry/qc/lcao</text>
<text text-anchor="middle" x="153.57" y="-7" font-family="FreeSans" font-size="10.00">/ci/sci.cpp</text>
</a>
</g>
</g>
<!-- Node2&#45;&gt;Node3 -->
<g id="edge2_Node000002_Node000003" class="edge">
<title>Node2&#45;&gt;Node3</title>
<g id="a_edge2_Node000002_Node000003"><a xlink:title=" ">
<path fill="none" stroke="#63b8ff" d="M153.57,-55.54C153.57,-46.96 153.57,-37.61 153.57,-30.16"/>
<polygon fill="#63b8ff" stroke="#63b8ff" points="150.07,-55.8 153.57,-65.8 157.07,-55.8 150.07,-55.8"/>
</a>
</g>
</g>
<!-- Node4&#45;&gt;Node2 -->
<g id="edge4_Node000004_Node000002" class="edge">
<title>Node4&#45;&gt;Node2</title>
<g id="a_edge4_Node000004_Node000002"><a xlink:title=" ">
<path fill="none" stroke="#63b8ff" d="M214.17,-125.77C201.59,-116.68 185.53,-105.09 173.11,-96.11"/>
<polygon fill="#63b8ff" stroke="#63b8ff" points="212.46,-128.85 222.62,-131.87 216.56,-123.18 212.46,-128.85"/>
</a>
</g>
</g>
<!-- Node5&#45;&gt;Node4 -->
<g id="edge6_Node000005_Node000004" class="edge">
<title>Node5&#45;&gt;Node4</title>
<g id="a_edge6_Node000005_Node000004"><a xlink:title=" ">
<path fill="none" stroke="#63b8ff" d="M162.34,-181.97C180.07,-172.28 203.42,-159.52 218.7,-151.17"/>
<polygon fill="#63b8ff" stroke="#63b8ff" points="160.25,-179.12 153.15,-186.98 163.61,-185.26 160.25,-179.12"/>
</a>
</g>
</g>
<!-- Node6 -->
<g id="Node000006" class="node">
<title>Node6</title>
<g id="a_Node000006"><a xlink:href="hb_8h.html" target="_top" xlink:title=" ">
<polygon fill="white" stroke="#666666" points="132.57,-151 12.57,-151 12.57,-132 132.57,-132 132.57,-151"/>
<text text-anchor="middle" x="72.57" y="-139" font-family="FreeSans" font-size="10.00">mpqc/math/fock/hb.h</text>
</a>
</g>
</g>
<!-- Node5&#45;&gt;Node6 -->
<g id="edge7_Node000005_Node000006" class="edge">
<title>Node5&#45;&gt;Node6</title>
<g id="a_edge7_Node000005_Node000006"><a xlink:title=" ">
<path fill="none" stroke="#63b8ff" d="M119.3,-180.6C107.65,-171.11 92.97,-159.13 83.2,-151.17"/>
<polygon fill="#63b8ff" stroke="#63b8ff" points="117.16,-183.38 127.13,-186.98 121.59,-177.95 117.16,-183.38"/>
</a>
</g>
</g>
<!-- Node5&#45;&gt;Node7 -->
<g id="edge9_Node000005_Node000007" class="edge">
<title>Node5&#45;&gt;Node7</title>
<g id="a_edge9_Node000005_Node000007"><a xlink:title=" ">
<path fill="none" stroke="#63b8ff" d="M189.66,-185C238.96,-175.07 312.07,-160.33 357.98,-151.08"/>
<polygon fill="#63b8ff" stroke="#63b8ff" points="188.94,-181.58 179.82,-186.98 190.32,-188.44 188.94,-181.58"/>
</a>
</g>
</g>
<!-- Node6&#45;&gt;Node2 -->
<g id="edge8_Node000006_Node000002" class="edge">
<title>Node6&#45;&gt;Node2</title>
<g id="a_edge8_Node000006_Node000002"><a xlink:title=" ">
<path fill="none" stroke="#63b8ff" d="M92.97,-125.77C105.55,-116.68 121.6,-105.09 134.03,-96.11"/>
<polygon fill="#63b8ff" stroke="#63b8ff" points="90.58,-123.18 84.52,-131.87 94.68,-128.85 90.58,-123.18"/>
</a>
</g>
</g>
<!-- Node7&#45;&gt;Node2 -->
<g id="edge10_Node000007_Node000002" class="edge">
<title>Node7&#45;&gt;Node2</title>
<g id="a_edge10_Node000007_Node000002"><a xlink:title=" ">
<path fill="none" stroke="#63b8ff" d="M354.9,-129.68C314.92,-120.21 256.56,-106.39 212.95,-96.06"/>
<polygon fill="#63b8ff" stroke="#63b8ff" points="354.12,-133.09 364.65,-131.99 355.73,-126.28 354.12,-133.09"/>
</a>
</g>
</g>
<!-- Node8&#45;&gt;Node4 -->
<g id="edge13_Node000008_Node000004" class="edge">
<title>Node8&#45;&gt;Node4</title>
<g id="a_edge13_Node000008_Node000004"><a xlink:title=" ">
<path fill="none" stroke="#63b8ff" d="M295.53,-181.42C280.46,-171.81 260.98,-159.37 248.15,-151.17"/>
<polygon fill="#63b8ff" stroke="#63b8ff" points="293.92,-184.55 304.23,-186.98 297.69,-178.65 293.92,-184.55"/>
</a>
</g>
</g>
<!-- Node8&#45;&gt;Node7 -->
<g id="edge14_Node000008_Node000007" class="edge">
<title>Node8&#45;&gt;Node7</title>
<g id="a_edge14_Node000008_Node000007"><a xlink:title=" ">
<path fill="none" stroke="#63b8ff" d="M339.61,-181.42C354.67,-171.81 374.16,-159.37 386.99,-151.17"/>
<polygon fill="#63b8ff" stroke="#63b8ff" points="337.45,-178.65 330.9,-186.98 341.22,-184.55 337.45,-178.65"/>
</a>
</g>
</g>
</g>
</svg>
