<?xml version="1.0" encoding="UTF-8" standalone="no"?>
<!DOCTYPE svg PUBLIC "-//W3C//DTD SVG 1.1//EN"
 "http://www.w3.org/Graphics/SVG/1.1/DTD/svg11.dtd">
<!-- Generated by graphviz version 2.43.0 (0)
 -->
<!-- Title: mpqc/util/external/c++/ska_flat_hash_map.hpp Pages: 1 -->
<svg width="501pt" height="390pt"
 viewBox="0.00 0.00 501.13 390.00" xmlns="http://www.w3.org/2000/svg" xmlns:xlink="http://www.w3.org/1999/xlink">
<g id="graph0" class="graph" transform="scale(1 1) rotate(0) translate(4 386)">
<title>mpqc/util/external/c++/ska_flat_hash_map.hpp</title>
<!-- Node1 -->
<g id="Node000001" class="node">
<title>Node1</title>
<g id="a_Node000001"><a xlink:title=" ">
<polygon fill="#999999" stroke="#666666" points="212.2,-382 54.2,-382 54.2,-352 212.2,-352 212.2,-382"/>
<text text-anchor="start" x="62.2" y="-370" font-family="FreeSans" font-size="10.00">mpqc/util/external</text>
<text text-anchor="middle" x="133.2" y="-359" font-family="FreeSans" font-size="10.00">/c++/ska_flat_hash_map.hpp</text>
</a>
</g>
</g>
<!-- Node2 -->
<g id="Node000002" class="node">
<title>Node2</title>
<g id="a_Node000002"><a xlink:href="math_2fock_2string_8h.html" target="_top" xlink:title=" ">
<polygon fill="white" stroke="#666666" points="201.2,-316 65.2,-316 65.2,-297 201.2,-297 201.2,-316"/>
<text text-anchor="middle" x="133.2" y="-304" font-family="FreeSans" font-size="10.00">mpqc/math/fock/string.h</text>
</a>
</g>
</g>
<!-- Node1&#45;&gt;Node2 -->
<g id="edge1_Node000001_Node000002" class="edge">
<title>Node1&#45;&gt;Node2</title>
<g id="a_edge1_Node000001_Node000002"><a xlink:title=" ">
<path fill="none" stroke="#63b8ff" d="M133.2,-341.75C133.2,-332.72 133.2,-323.03 133.2,-316.27"/>
<polygon fill="#63b8ff" stroke="#63b8ff" points="129.7,-341.84 133.2,-351.84 136.7,-341.84 129.7,-341.84"/>
</a>
</g>
</g>
<!-- Node3 -->
<g id="Node000003" class="node">
<title>Node3</title>
<g id="a_Node000003"><a xlink:href="sci_8ipp.html" target="_top" xlink:title=" ">
<polygon fill="white" stroke="#666666" points="289.7,-96 156.7,-96 156.7,-66 289.7,-66 289.7,-96"/>
<text text-anchor="start" x="164.7" y="-84" font-family="FreeSans" font-size="10.00">mpqc/chemistry/qc/lcao</text>
<text text-anchor="middle" x="223.2" y="-73" font-family="FreeSans" font-size="10.00">/ci/sci.ipp</text>
</a>
</g>
</g>
<!-- Node2&#45;&gt;Node3 -->
<g id="edge2_Node000002_Node000003" class="edge">
<title>Node2&#45;&gt;Node3</title>
<g id="a_edge2_Node000002_Node000003"><a xlink:title=" ">
<path fill="none" stroke="#63b8ff" d="M110.3,-291.52C63.96,-261.5 -32.86,-188.98 12.2,-132 30.03,-109.45 101.7,-96.01 156.62,-88.83"/>
<polygon fill="#63b8ff" stroke="#63b8ff" points="108.52,-294.53 118.84,-296.94 112.27,-288.62 108.52,-294.53"/>
</a>
</g>
</g>
<!-- Node5 -->
<g id="Node000005" class="node">
<title>Node5</title>
<g id="a_Node000005"><a xlink:href="iter_8h.html" target="_top" xlink:title=" ">
<polygon fill="white" stroke="#666666" points="195.2,-206 71.2,-206 71.2,-187 195.2,-187 195.2,-206"/>
<text text-anchor="middle" x="133.2" y="-194" font-family="FreeSans" font-size="10.00">mpqc/math/fock/iter.h</text>
</a>
</g>
</g>
<!-- Node2&#45;&gt;Node5 -->
<g id="edge4_Node000002_Node000005" class="edge">
<title>Node2&#45;&gt;Node5</title>
<g id="a_edge4_Node000002_Node000005"><a xlink:title=" ">
<path fill="none" stroke="#63b8ff" d="M133.2,-286.48C133.2,-262.84 133.2,-223.5 133.2,-206.16"/>
<polygon fill="#63b8ff" stroke="#63b8ff" points="129.7,-286.66 133.2,-296.66 136.7,-286.66 129.7,-286.66"/>
</a>
</g>
</g>
<!-- Node9 -->
<g id="Node000009" class="node">
<title>Node9</title>
<g id="a_Node000009"><a xlink:href="sdseq_8h.html" target="_top" xlink:title=" ">
<polygon fill="white" stroke="#666666" points="339.7,-261 202.7,-261 202.7,-242 339.7,-242 339.7,-261"/>
<text text-anchor="middle" x="271.2" y="-249" font-family="FreeSans" font-size="10.00">mpqc/math/fock/sdseq.h</text>
</a>
</g>
</g>
<!-- Node2&#45;&gt;Node9 -->
<g id="edge11_Node000002_Node000009" class="edge">
<title>Node2&#45;&gt;Node9</title>
<g id="a_edge11_Node000002_Node000009"><a xlink:title=" ">
<path fill="none" stroke="#63b8ff" d="M164.99,-293.29C190.56,-283.47 225.87,-269.91 248.62,-261.17"/>
<polygon fill="#63b8ff" stroke="#63b8ff" points="163.45,-290.13 155.37,-296.98 165.96,-296.67 163.45,-290.13"/>
</a>
</g>
</g>
<!-- Node4 -->
<g id="Node000004" class="node">
<title>Node4</title>
<g id="a_Node000004"><a xlink:href="sci_8cpp.html" target="_top" xlink:title=" ">
<polygon fill="white" stroke="#666666" points="289.7,-30 156.7,-30 156.7,0 289.7,0 289.7,-30"/>
<text text-anchor="start" x="164.7" y="-18" font-family="FreeSans" font-size="10.00">mpqc/chemistry/qc/lcao</text>
<text text-anchor="middle" x="223.2" y="-7" font-family="FreeSans" font-size="10.00">/ci/sci.cpp</text>
</a>
</g>
</g>
<!-- Node3&#45;&gt;Node4 -->
<g id="edge3_Node000003_Node000004" class="edge">
<title>Node3&#45;&gt;Node4</title>
<g id="a_edge3_Node000003_Node000004"><a xlink:title=" ">
<path fill="none" stroke="#63b8ff" d="M223.2,-55.54C223.2,-46.96 223.2,-37.61 223.2,-30.16"/>
<polygon fill="#63b8ff" stroke="#63b8ff" points="219.7,-55.8 223.2,-65.8 226.7,-55.8 219.7,-55.8"/>
</a>
</g>
</g>
<!-- Node6 -->
<g id="Node000006" class="node">
<title>Node6</title>
<g id="a_Node000006"><a xlink:href="hamiltonian_8h.html" target="_top" xlink:title=" ">
<polygon fill="white" stroke="#666666" points="472.7,-151 305.7,-151 305.7,-132 472.7,-132 472.7,-151"/>
<text text-anchor="middle" x="389.2" y="-139" font-family="FreeSans" font-size="10.00">mpqc/math/fock/hamiltonian.h</text>
</a>
</g>
</g>
<!-- Node5&#45;&gt;Node6 -->
<g id="edge5_Node000005_Node000006" class="edge">
<title>Node5&#45;&gt;Node6</title>
<g id="a_edge5_Node000005_Node000006"><a xlink:title=" ">
<path fill="none" stroke="#63b8ff" d="M184.2,-184.94C232.19,-175.01 303.15,-160.31 347.74,-151.08"/>
<polygon fill="#63b8ff" stroke="#63b8ff" points="183.41,-181.53 174.33,-186.98 184.83,-188.38 183.41,-181.53"/>
</a>
</g>
</g>
<!-- Node7 -->
<g id="Node000007" class="node">
<title>Node7</title>
<g id="a_Node000007"><a xlink:href="hb_8h.html" target="_top" xlink:title=" ">
<polygon fill="white" stroke="#666666" points="141.2,-151 21.2,-151 21.2,-132 141.2,-132 141.2,-151"/>
<text text-anchor="middle" x="81.2" y="-139" font-family="FreeSans" font-size="10.00">mpqc/math/fock/hb.h</text>
</a>
</g>
</g>
<!-- Node5&#45;&gt;Node7 -->
<g id="edge7_Node000005_Node000007" class="edge">
<title>Node5&#45;&gt;Node7</title>
<g id="a_edge7_Node000005_Node000007"><a xlink:title=" ">
<path fill="none" stroke="#63b8ff" d="M117.52,-179.52C108.35,-170.18 97.14,-158.75 89.62,-151.09"/>
<polygon fill="#63b8ff" stroke="#63b8ff" points="115.11,-182.06 124.61,-186.75 120.1,-177.16 115.11,-182.06"/>
</a>
</g>
</g>
<!-- Node8 -->
<g id="Node000008" class="node">
<title>Node8</title>
<g id="a_Node000008"><a xlink:href="math_2fock_2rdm_8h.html" target="_top" xlink:title=" ">
<polygon fill="white" stroke="#666666" points="287.2,-151 159.2,-151 159.2,-132 287.2,-132 287.2,-151"/>
<text text-anchor="middle" x="223.2" y="-139" font-family="FreeSans" font-size="10.00">mpqc/math/fock/rdm.h</text>
</a>
</g>
</g>
<!-- Node5&#45;&gt;Node8 -->
<g id="edge9_Node000005_Node000008" class="edge">
<title>Node5&#45;&gt;Node8</title>
<g id="a_edge9_Node000005_Node000008"><a xlink:title=" ">
<path fill="none" stroke="#63b8ff" d="M156.64,-181.7C173.03,-172.04 194.42,-159.44 208.47,-151.17"/>
<polygon fill="#63b8ff" stroke="#63b8ff" points="154.5,-178.89 147.66,-186.98 158.05,-184.93 154.5,-178.89"/>
</a>
</g>
</g>
<!-- Node6&#45;&gt;Node3 -->
<g id="edge6_Node000006_Node000003" class="edge">
<title>Node6&#45;&gt;Node3</title>
<g id="a_edge6_Node000006_Node000003"><a xlink:title=" ">
<path fill="none" stroke="#63b8ff" d="M355.38,-128.58C328.66,-119.16 291.29,-106 263.1,-96.06"/>
<polygon fill="#63b8ff" stroke="#63b8ff" points="354.46,-131.97 365.06,-131.99 356.79,-125.37 354.46,-131.97"/>
</a>
</g>
</g>
<!-- Node7&#45;&gt;Node3 -->
<g id="edge8_Node000007_Node000003" class="edge">
<title>Node7&#45;&gt;Node3</title>
<g id="a_edge8_Node000007_Node000003"><a xlink:title=" ">
<path fill="none" stroke="#63b8ff" d="M111.34,-128.08C134.11,-118.7 165.37,-105.82 189.06,-96.06"/>
<polygon fill="#63b8ff" stroke="#63b8ff" points="109.76,-124.95 101.84,-131.99 112.42,-131.42 109.76,-124.95"/>
</a>
</g>
</g>
<!-- Node8&#45;&gt;Node3 -->
<g id="edge10_Node000008_Node000003" class="edge">
<title>Node8&#45;&gt;Node3</title>
<g id="a_edge10_Node000008_Node000003"><a xlink:title=" ">
<path fill="none" stroke="#63b8ff" d="M223.2,-121.65C223.2,-113.36 223.2,-103.78 223.2,-96.11"/>
<polygon fill="#63b8ff" stroke="#63b8ff" points="219.7,-121.87 223.2,-131.87 226.7,-121.87 219.7,-121.87"/>
</a>
</g>
</g>
<!-- Node9&#45;&gt;Node3 -->
<g id="edge12_Node000009_Node000003" class="edge">
<title>Node9&#45;&gt;Node3</title>
<g id="a_edge12_Node000009_Node000003"><a xlink:title=" ">
<path fill="none" stroke="#63b8ff" d="M332.85,-239.94C410.8,-223.97 529.48,-189.29 482.2,-132 458.25,-102.99 358.42,-90.63 289.93,-85.49"/>
<polygon fill="#63b8ff" stroke="#63b8ff" points="331.74,-236.6 322.61,-241.98 333.1,-243.46 331.74,-236.6"/>
</a>
</g>
</g>
<!-- Node9&#45;&gt;Node5 -->
<g id="edge14_Node000009_Node000005" class="edge">
<title>Node9&#45;&gt;Node5</title>
<g id="a_edge14_Node000009_Node000005"><a xlink:title=" ">
<path fill="none" stroke="#63b8ff" d="M239.4,-238.29C213.83,-228.47 178.52,-214.91 155.77,-206.17"/>
<polygon fill="#63b8ff" stroke="#63b8ff" points="238.43,-241.67 249.02,-241.98 240.94,-235.13 238.43,-241.67"/>
</a>
</g>
</g>
<!-- Node9&#45;&gt;Node6 -->
<g id="edge13_Node000009_Node000006" class="edge">
<title>Node9&#45;&gt;Node6</title>
<g id="a_edge13_Node000009_Node000006"><a xlink:title=" ">
<path fill="none" stroke="#63b8ff" d="M335.2,-238.84C353.83,-232.28 372.34,-222.02 384.2,-206 396.17,-189.82 393.64,-164.55 391.19,-151.29"/>
<polygon fill="#63b8ff" stroke="#63b8ff" points="333.94,-235.57 325.49,-241.95 336.08,-242.24 333.94,-235.57"/>
</a>
</g>
</g>
<!-- Node9&#45;&gt;Node8 -->
<g id="edge15_Node000009_Node000008" class="edge">
<title>Node9&#45;&gt;Node8</title>
<g id="a_edge15_Node000009_Node000008"><a xlink:title=" ">
<path fill="none" stroke="#63b8ff" d="M258.52,-233.59C252.94,-225.54 246.65,-215.6 242.2,-206 233.58,-187.42 227.76,-163.98 225.01,-151.42"/>
<polygon fill="#63b8ff" stroke="#63b8ff" points="255.71,-235.67 264.39,-241.74 261.39,-231.58 255.71,-235.67"/>
</a>
</g>
</g>
<!-- Node10 -->
<g id="Node000010" class="node">
<title>Node10</title>
<g id="a_Node000010"><a xlink:href="math_2fock_2util_8h.html" target="_top" xlink:title=" ">
<polygon fill="white" stroke="#666666" points="375.2,-206 251.2,-206 251.2,-187 375.2,-187 375.2,-206"/>
<text text-anchor="middle" x="313.2" y="-194" font-family="FreeSans" font-size="10.00">mpqc/math/fock/util.h</text>
</a>
</g>
</g>
<!-- Node9&#45;&gt;Node10 -->
<g id="edge16_Node000009_Node000010" class="edge">
<title>Node9&#45;&gt;Node10</title>
<g id="a_edge16_Node000009_Node000010"><a xlink:title=" ">
<path fill="none" stroke="#63b8ff" d="M284.53,-233.67C291.8,-224.5 300.5,-213.52 306.39,-206.09"/>
<polygon fill="#63b8ff" stroke="#63b8ff" points="281.6,-231.74 278.13,-241.75 287.09,-236.08 281.6,-231.74"/>
</a>
</g>
</g>
<!-- Node10&#45;&gt;Node6 -->
<g id="edge17_Node000010_Node000006" class="edge">
<title>Node10&#45;&gt;Node6</title>
<g id="a_edge17_Node000010_Node000006"><a xlink:title=" ">
<path fill="none" stroke="#63b8ff" d="M333.77,-181.15C347.51,-171.57 365.12,-159.29 376.76,-151.17"/>
<polygon fill="#63b8ff" stroke="#63b8ff" points="331.61,-178.39 325.41,-186.98 335.61,-184.14 331.61,-178.39"/>
</a>
</g>
</g>
<!-- Node10&#45;&gt;Node8 -->
<g id="edge18_Node000010_Node000008" class="edge">
<title>Node10&#45;&gt;Node8</title>
<g id="a_edge18_Node000010_Node000008"><a xlink:title=" ">
<path fill="none" stroke="#63b8ff" d="M289.75,-181.7C273.36,-172.04 251.97,-159.44 237.92,-151.17"/>
<polygon fill="#63b8ff" stroke="#63b8ff" points="288.34,-184.93 298.74,-186.98 291.89,-178.89 288.34,-184.93"/>
</a>
</g>
</g>
</g>
</svg>
