<?xml version="1.0" encoding="UTF-8" standalone="no"?>
<!DOCTYPE svg PUBLIC "-//W3C//DTD SVG 1.1//EN"
 "http://www.w3.org/Graphics/SVG/1.1/DTD/svg11.dtd">
<!-- Generated by graphviz version 2.43.0 (0)
 -->
<!-- Title: mpqc/chemistry/qc/lcao/scf/soad.h Pages: 1 -->
<svg width="929pt" height="368pt"
 viewBox="0.00 0.00 929.00 368.00" xmlns="http://www.w3.org/2000/svg" xmlns:xlink="http://www.w3.org/1999/xlink">
<g id="graph0" class="graph" transform="scale(1 1) rotate(0) translate(4 364)">
<title>mpqc/chemistry/qc/lcao/scf/soad.h</title>
<!-- Node1 -->
<g id="Node000001" class="node">
<title>Node1</title>
<g id="a_Node000001"><a xlink:title=" ">
<polygon fill="#999999" stroke="#666666" points="375,-360 242,-360 242,-330 375,-330 375,-360"/>
<text text-anchor="start" x="250" y="-348" font-family="FreeSans" font-size="10.00">mpqc/chemistry/qc/lcao</text>
<text text-anchor="middle" x="308.5" y="-337" font-family="FreeSans" font-size="10.00">/scf/soad.h</text>
</a>
</g>
</g>
<!-- Node2 -->
<g id="Node000002" class="node">
<title>Node2</title>
<g id="a_Node000002"><a xlink:href="madf_8cpp.html" target="_top" xlink:title=" ">
<polygon fill="white" stroke="#666666" points="149,-294 0,-294 0,-264 149,-264 149,-294"/>
<text text-anchor="start" x="8" y="-282" font-family="FreeSans" font-size="10.00">mpqc/chemistry/qc/lcao</text>
<text text-anchor="middle" x="74.5" y="-271" font-family="FreeSans" font-size="10.00">/factory/gaussian/madf.cpp</text>
</a>
</g>
</g>
<!-- Node1&#45;&gt;Node2 -->
<g id="edge1_Node000001_Node000002" class="edge">
<title>Node1&#45;&gt;Node2</title>
<g id="a_edge1_Node000001_Node000002"><a xlink:title=" ">
<path fill="none" stroke="#63b8ff" d="M247.27,-327.25C209.47,-316.91 161.52,-303.8 125.73,-294.01"/>
<polygon fill="#63b8ff" stroke="#63b8ff" points="246.58,-330.69 257.15,-329.95 248.43,-323.94 246.58,-330.69"/>
</a>
</g>
</g>
<!-- Node3 -->
<g id="Node000003" class="node">
<title>Node3</title>
<g id="a_Node000003"><a xlink:href="pbc_2soad_8h.html" target="_top" xlink:title=" ">
<polygon fill="white" stroke="#666666" points="300,-294 167,-294 167,-264 300,-264 300,-294"/>
<text text-anchor="start" x="175" y="-282" font-family="FreeSans" font-size="10.00">mpqc/chemistry/qc/lcao</text>
<text text-anchor="middle" x="233.5" y="-271" font-family="FreeSans" font-size="10.00">/scf/pbc/soad.h</text>
</a>
</g>
</g>
<!-- Node1&#45;&gt;Node3 -->
<g id="edge2_Node000001_Node000003" class="edge">
<title>Node1&#45;&gt;Node3</title>
<g id="a_edge2_Node000001_Node000003"><a xlink:title=" ">
<path fill="none" stroke="#63b8ff" d="M284.13,-323.2C272.99,-313.7 260.09,-302.69 250.1,-294.16"/>
<polygon fill="#63b8ff" stroke="#63b8ff" points="281.98,-325.97 291.86,-329.8 286.52,-320.64 281.98,-325.97"/>
</a>
</g>
</g>
<!-- Node6 -->
<g id="Node000006" class="node">
<title>Node6</title>
<g id="a_Node000006"><a xlink:href="sd_8ipp.html" target="_top" xlink:title=" ">
<polygon fill="white" stroke="#666666" points="451,-294 318,-294 318,-264 451,-264 451,-294"/>
<text text-anchor="start" x="326" y="-282" font-family="FreeSans" font-size="10.00">mpqc/chemistry/qc/lcao</text>
<text text-anchor="middle" x="384.5" y="-271" font-family="FreeSans" font-size="10.00">/scf/sd.ipp</text>
</a>
</g>
</g>
<!-- Node1&#45;&gt;Node6 -->
<g id="edge5_Node000001_Node000006" class="edge">
<title>Node1&#45;&gt;Node6</title>
<g id="a_edge5_Node000001_Node000006"><a xlink:title=" ">
<path fill="none" stroke="#63b8ff" d="M333.2,-323.2C344.48,-313.7 357.55,-302.69 367.68,-294.16"/>
<polygon fill="#63b8ff" stroke="#63b8ff" points="330.76,-320.68 325.37,-329.8 335.27,-326.03 330.76,-320.68"/>
</a>
</g>
</g>
<!-- Node17 -->
<g id="Node000017" class="node">
<title>Node17</title>
<g id="a_Node000017"><a xlink:href="solver__1c__v2_8ipp.html" target="_top" xlink:title=" ">
<polygon fill="white" stroke="#666666" points="604.5,-96 472.5,-96 472.5,-66 604.5,-66 604.5,-96"/>
<text text-anchor="start" x="480.5" y="-84" font-family="FreeSans" font-size="10.00">mpqc/chemistry/qc/mra</text>
<text text-anchor="middle" x="538.5" y="-73" font-family="FreeSans" font-size="10.00">/scf/solver_1c_v2.ipp</text>
</a>
</g>
</g>
<!-- Node1&#45;&gt;Node17 -->
<g id="edge22_Node000001_Node000017" class="edge">
<title>Node1&#45;&gt;Node17</title>
<g id="a_edge22_Node000001_Node000017"><a xlink:title=" ">
<path fill="none" stroke="#63b8ff" d="M385.04,-332.61C411.39,-325.34 439.31,-313.46 459.5,-294 518.04,-237.58 533.56,-133.79 537.36,-96.13"/>
<polygon fill="#63b8ff" stroke="#63b8ff" points="383.85,-329.3 375.03,-335.17 385.59,-336.08 383.85,-329.3"/>
</a>
</g>
</g>
<!-- Node4 -->
<g id="Node000004" class="node">
<title>Node4</title>
<g id="a_Node000004"><a xlink:href="sd_8impl_8ipp.html" target="_top" xlink:title=" ">
<polygon fill="white" stroke="#666666" points="145,-228 12,-228 12,-198 145,-198 145,-228"/>
<text text-anchor="start" x="20" y="-216" font-family="FreeSans" font-size="10.00">mpqc/chemistry/qc/lcao</text>
<text text-anchor="middle" x="78.5" y="-205" font-family="FreeSans" font-size="10.00">/scf/pbc/sd.impl.ipp</text>
</a>
</g>
</g>
<!-- Node3&#45;&gt;Node4 -->
<g id="edge3_Node000003_Node000004" class="edge">
<title>Node3&#45;&gt;Node4</title>
<g id="a_edge3_Node000003_Node000004"><a xlink:title=" ">
<path fill="none" stroke="#63b8ff" d="M190.04,-260.05C165.48,-249.91 135.23,-237.43 112.44,-228.01"/>
<polygon fill="#63b8ff" stroke="#63b8ff" points="188.91,-263.37 199.48,-263.95 191.58,-256.9 188.91,-263.37"/>
</a>
</g>
</g>
<!-- Node5 -->
<g id="Node000005" class="node">
<title>Node5</title>
<g id="a_Node000005"><a xlink:href="sd_8impl_8cpp.html" target="_top" xlink:title=" ">
<polygon fill="white" stroke="#666666" points="141,-162 8,-162 8,-132 141,-132 141,-162"/>
<text text-anchor="start" x="16" y="-150" font-family="FreeSans" font-size="10.00">mpqc/chemistry/qc/lcao</text>
<text text-anchor="middle" x="74.5" y="-139" font-family="FreeSans" font-size="10.00">/scf/pbc/sd.impl.cpp</text>
</a>
</g>
</g>
<!-- Node4&#45;&gt;Node5 -->
<g id="edge4_Node000004_Node000005" class="edge">
<title>Node4&#45;&gt;Node5</title>
<g id="a_edge4_Node000004_Node000005"><a xlink:title=" ">
<path fill="none" stroke="#63b8ff" d="M76.97,-187.54C76.44,-178.96 75.85,-169.61 75.39,-162.16"/>
<polygon fill="#63b8ff" stroke="#63b8ff" points="73.5,-188.03 77.61,-197.8 80.48,-187.6 73.5,-188.03"/>
</a>
</g>
</g>
<!-- Node7 -->
<g id="Node000007" class="node">
<title>Node7</title>
<g id="a_Node000007"><a xlink:href="sd_8cpp.html" target="_top" xlink:title=" ">
<polygon fill="white" stroke="#666666" points="300,-228 167,-228 167,-198 300,-198 300,-228"/>
<text text-anchor="start" x="175" y="-216" font-family="FreeSans" font-size="10.00">mpqc/chemistry/qc/lcao</text>
<text text-anchor="middle" x="233.5" y="-205" font-family="FreeSans" font-size="10.00">/scf/sd.cpp</text>
</a>
</g>
</g>
<!-- Node6&#45;&gt;Node7 -->
<g id="edge6_Node000006_Node000007" class="edge">
<title>Node6&#45;&gt;Node7</title>
<g id="a_edge6_Node000006_Node000007"><a xlink:title=" ">
<path fill="none" stroke="#63b8ff" d="M341.84,-259.92C317.97,-249.8 288.67,-237.38 266.56,-228.01"/>
<polygon fill="#63b8ff" stroke="#63b8ff" points="340.79,-263.28 351.36,-263.95 343.52,-256.83 340.79,-263.28"/>
</a>
</g>
</g>
<!-- Node8 -->
<g id="Node000008" class="node">
<title>Node8</title>
<g id="a_Node000008"><a xlink:href="sd_8h.html" target="_top" xlink:title=" ">
<polygon fill="white" stroke="#666666" points="451,-228 318,-228 318,-198 451,-198 451,-228"/>
<text text-anchor="start" x="326" y="-216" font-family="FreeSans" font-size="10.00">mpqc/chemistry/qc/lcao</text>
<text text-anchor="middle" x="384.5" y="-205" font-family="FreeSans" font-size="10.00">/scf/sd.h</text>
</a>
</g>
</g>
<!-- Node6&#45;&gt;Node8 -->
<g id="edge7_Node000006_Node000008" class="edge">
<title>Node6&#45;&gt;Node8</title>
<g id="a_edge7_Node000006_Node000008"><a xlink:title=" ">
<path fill="none" stroke="#63b8ff" d="M377.93,-253.83C377.52,-245.17 377.81,-235.7 378.79,-228.16"/>
<polygon fill="#63b8ff" stroke="#63b8ff" points="374.45,-254.13 378.78,-263.8 381.42,-253.54 374.45,-254.13"/>
</a>
</g>
</g>
<!-- Node8&#45;&gt;Node6 -->
<g id="edge19_Node000008_Node000006" class="edge">
<title>Node8&#45;&gt;Node6</title>
<g id="a_edge19_Node000008_Node000006"><a xlink:title=" ">
<path fill="none" stroke="#63b8ff" d="M391.07,-238.13C391.48,-246.78 391.2,-256.26 390.22,-263.8"/>
<polygon fill="#63b8ff" stroke="#63b8ff" points="394.55,-237.83 390.21,-228.16 387.58,-238.43 394.55,-237.83"/>
</a>
</g>
</g>
<!-- Node9 -->
<g id="Node000009" class="node">
<title>Node9</title>
<g id="a_Node000009"><a xlink:href="pao__to__pno__mp2_8ipp.html" target="_top" xlink:title=" ">
<polygon fill="white" stroke="#666666" points="459,-162 310,-162 310,-132 459,-132 459,-162"/>
<text text-anchor="start" x="318" y="-150" font-family="FreeSans" font-size="10.00">mpqc/chemistry/qc/lcao</text>
<text text-anchor="middle" x="384.5" y="-139" font-family="FreeSans" font-size="10.00">/mbpt/pao_to_pno_mp2.ipp</text>
</a>
</g>
</g>
<!-- Node8&#45;&gt;Node9 -->
<g id="edge8_Node000008_Node000009" class="edge">
<title>Node8&#45;&gt;Node9</title>
<g id="a_edge8_Node000008_Node000009"><a xlink:title=" ">
<path fill="none" stroke="#63b8ff" d="M384.5,-187.54C384.5,-178.96 384.5,-169.61 384.5,-162.16"/>
<polygon fill="#63b8ff" stroke="#63b8ff" points="381,-187.8 384.5,-197.8 388,-187.8 381,-187.8"/>
</a>
</g>
</g>
<!-- Node12 -->
<g id="Node000012" class="node">
<title>Node12</title>
<g id="a_Node000012"><a xlink:href="rhf_8h.html" target="_top" xlink:title=" ">
<polygon fill="white" stroke="#666666" points="718,-162 585,-162 585,-132 718,-132 718,-162"/>
<text text-anchor="start" x="593" y="-150" font-family="FreeSans" font-size="10.00">mpqc/chemistry/qc/lcao</text>
<text text-anchor="middle" x="651.5" y="-139" font-family="FreeSans" font-size="10.00">/scf/rhf.h</text>
</a>
</g>
</g>
<!-- Node8&#45;&gt;Node12 -->
<g id="edge12_Node000008_Node000012" class="edge">
<title>Node8&#45;&gt;Node12</title>
<g id="a_edge12_Node000008_Node000012"><a xlink:title=" ">
<path fill="none" stroke="#63b8ff" d="M452.99,-195.58C496.33,-185.19 551.77,-171.9 593.04,-162.01"/>
<polygon fill="#63b8ff" stroke="#63b8ff" points="452,-192.22 443.09,-197.95 453.63,-199.03 452,-192.22"/>
</a>
</g>
</g>
<!-- Node19 -->
<g id="Node000019" class="node">
<title>Node19</title>
<g id="a_Node000019"><a xlink:href="solver_8ipp.html" target="_top" xlink:title=" ">
<polygon fill="white" stroke="#666666" points="291.5,-162 159.5,-162 159.5,-132 291.5,-132 291.5,-162"/>
<text text-anchor="start" x="167.5" y="-150" font-family="FreeSans" font-size="10.00">mpqc/chemistry/qc/mra</text>
<text text-anchor="middle" x="225.5" y="-139" font-family="FreeSans" font-size="10.00">/scf/solver.ipp</text>
</a>
</g>
</g>
<!-- Node8&#45;&gt;Node19 -->
<g id="edge20_Node000008_Node000019" class="edge">
<title>Node8&#45;&gt;Node19</title>
<g id="a_edge20_Node000008_Node000019"><a xlink:title=" ">
<path fill="none" stroke="#63b8ff" d="M340.25,-194.19C315,-184.02 283.8,-171.47 260.31,-162.01"/>
<polygon fill="#63b8ff" stroke="#63b8ff" points="339.02,-197.47 349.61,-197.95 341.64,-190.97 339.02,-197.47"/>
</a>
</g>
</g>
<!-- Node10 -->
<g id="Node000010" class="node">
<title>Node10</title>
<g id="a_Node000010"><a xlink:href="pao__to__pno__mp2_8cpp.html" target="_top" xlink:title=" ">
<polygon fill="white" stroke="#666666" points="296.5,-96 144.5,-96 144.5,-66 296.5,-66 296.5,-96"/>
<text text-anchor="start" x="152.5" y="-84" font-family="FreeSans" font-size="10.00">mpqc/chemistry/qc/lcao</text>
<text text-anchor="middle" x="220.5" y="-73" font-family="FreeSans" font-size="10.00">/mbpt/pao_to_pno_mp2.cpp</text>
</a>
</g>
</g>
<!-- Node9&#45;&gt;Node10 -->
<g id="edge9_Node000009_Node000010" class="edge">
<title>Node9&#45;&gt;Node10</title>
<g id="a_edge9_Node000009_Node000010"><a xlink:title=" ">
<path fill="none" stroke="#63b8ff" d="M338.86,-128.19C312.81,-118.02 280.63,-105.47 256.41,-96.01"/>
<polygon fill="#63b8ff" stroke="#63b8ff" points="337.92,-131.58 348.51,-131.95 340.47,-125.06 337.92,-131.58"/>
</a>
</g>
</g>
<!-- Node11 -->
<g id="Node000011" class="node">
<title>Node11</title>
<g id="a_Node000011"><a xlink:href="pao__to__pno__mp2_8h.html" target="_top" xlink:title=" ">
<polygon fill="white" stroke="#666666" points="454.5,-96 314.5,-96 314.5,-66 454.5,-66 454.5,-96"/>
<text text-anchor="start" x="322.5" y="-84" font-family="FreeSans" font-size="10.00">mpqc/chemistry/qc/lcao</text>
<text text-anchor="middle" x="384.5" y="-73" font-family="FreeSans" font-size="10.00">/mbpt/pao_to_pno_mp2.h</text>
</a>
</g>
</g>
<!-- Node9&#45;&gt;Node11 -->
<g id="edge10_Node000009_Node000011" class="edge">
<title>Node9&#45;&gt;Node11</title>
<g id="a_edge10_Node000009_Node000011"><a xlink:title=" ">
<path fill="none" stroke="#63b8ff" d="M377.93,-121.83C377.52,-113.17 377.81,-103.7 378.79,-96.16"/>
<polygon fill="#63b8ff" stroke="#63b8ff" points="374.45,-122.13 378.78,-131.8 381.42,-121.54 374.45,-122.13"/>
</a>
</g>
</g>
<!-- Node11&#45;&gt;Node9 -->
<g id="edge11_Node000011_Node000009" class="edge">
<title>Node11&#45;&gt;Node9</title>
<g id="a_edge11_Node000011_Node000009"><a xlink:title=" ">
<path fill="none" stroke="#63b8ff" d="M391.07,-106.13C391.48,-114.78 391.2,-124.26 390.22,-131.8"/>
<polygon fill="#63b8ff" stroke="#63b8ff" points="394.55,-105.83 390.21,-96.16 387.58,-106.43 394.55,-105.83"/>
</a>
</g>
</g>
<!-- Node13 -->
<g id="Node000013" class="node">
<title>Node13</title>
<g id="a_Node000013"><a xlink:href="scf_8h.html" target="_top" xlink:title=" ">
<polygon fill="white" stroke="#666666" points="768,-96 623,-96 623,-66 768,-66 768,-96"/>
<text text-anchor="start" x="631" y="-84" font-family="FreeSans" font-size="10.00">/home/runner/work/mpqc4</text>
<text text-anchor="middle" x="695.5" y="-73" font-family="FreeSans" font-size="10.00">/mpqc4/python/src/scf.h</text>
</a>
</g>
</g>
<!-- Node12&#45;&gt;Node13 -->
<g id="edge13_Node000012_Node000013" class="edge">
<title>Node12&#45;&gt;Node13</title>
<g id="a_edge13_Node000012_Node000013"><a xlink:title=" ">
<path fill="none" stroke="#63b8ff" d="M666.95,-123.53C673.21,-114.43 680.24,-104.19 685.76,-96.16"/>
<polygon fill="#63b8ff" stroke="#63b8ff" points="664.05,-121.57 661.27,-131.8 669.81,-125.54 664.05,-121.57"/>
</a>
</g>
</g>
<!-- Node15 -->
<g id="Node000015" class="node">
<title>Node15</title>
<g id="a_Node000015"><a xlink:href="rhf_8ipp.html" target="_top" xlink:title=" ">
<polygon fill="white" stroke="#666666" points="920,-96 787,-96 787,-66 920,-66 920,-96"/>
<text text-anchor="start" x="795" y="-84" font-family="FreeSans" font-size="10.00">mpqc/chemistry/qc/lcao</text>
<text text-anchor="middle" x="853.5" y="-73" font-family="FreeSans" font-size="10.00">/scf/rhf.ipp</text>
</a>
</g>
</g>
<!-- Node12&#45;&gt;Node15 -->
<g id="edge15_Node000012_Node000015" class="edge">
<title>Node12&#45;&gt;Node15</title>
<g id="a_edge15_Node000012_Node000015"><a xlink:title=" ">
<path fill="none" stroke="#63b8ff" d="M705.61,-128.86C738.05,-118.58 778.77,-105.68 809.27,-96.01"/>
<polygon fill="#63b8ff" stroke="#63b8ff" points="704.31,-125.6 695.83,-131.95 706.42,-132.27 704.31,-125.6"/>
</a>
</g>
</g>
<!-- Node12&#45;&gt;Node17 -->
<g id="edge17_Node000012_Node000017" class="edge">
<title>Node12&#45;&gt;Node17</title>
<g id="a_edge17_Node000012_Node000017"><a xlink:title=" ">
<path fill="none" stroke="#63b8ff" d="M617.9,-126.97C600.36,-117.03 579.27,-105.09 563.24,-96.01"/>
<polygon fill="#63b8ff" stroke="#63b8ff" points="616.28,-130.07 626.7,-131.95 619.73,-123.98 616.28,-130.07"/>
</a>
</g>
</g>
<!-- Node14 -->
<g id="Node000014" class="node">
<title>Node14</title>
<g id="a_Node000014"><a xlink:href="mpqc_8cc.html" target="_top" xlink:title=" ">
<polygon fill="white" stroke="#666666" points="769.5,-30 619.5,-30 619.5,0 769.5,0 769.5,-30"/>
<text text-anchor="start" x="627.5" y="-18" font-family="FreeSans" font-size="10.00">/home/runner/work/mpqc4</text>
<text text-anchor="middle" x="694.5" y="-7" font-family="FreeSans" font-size="10.00">/mpqc4/python/src/mpqc.cc</text>
</a>
</g>
</g>
<!-- Node13&#45;&gt;Node14 -->
<g id="edge14_Node000013_Node000014" class="edge">
<title>Node13&#45;&gt;Node14</title>
<g id="a_edge14_Node000013_Node000014"><a xlink:title=" ">
<path fill="none" stroke="#63b8ff" d="M695.12,-55.54C694.98,-46.96 694.84,-37.61 694.72,-30.16"/>
<polygon fill="#63b8ff" stroke="#63b8ff" points="691.62,-55.85 695.28,-65.8 698.62,-55.74 691.62,-55.85"/>
</a>
</g>
</g>
<!-- Node16 -->
<g id="Node000016" class="node">
<title>Node16</title>
<g id="a_Node000016"><a xlink:href="rhf_8cpp.html" target="_top" xlink:title=" ">
<polygon fill="white" stroke="#666666" points="921,-30 788,-30 788,0 921,0 921,-30"/>
<text text-anchor="start" x="796" y="-18" font-family="FreeSans" font-size="10.00">mpqc/chemistry/qc/lcao</text>
<text text-anchor="middle" x="854.5" y="-7" font-family="FreeSans" font-size="10.00">/scf/rhf.cpp</text>
</a>
</g>
</g>
<!-- Node15&#45;&gt;Node16 -->
<g id="edge16_Node000015_Node000016" class="edge">
<title>Node15&#45;&gt;Node16</title>
<g id="a_edge16_Node000015_Node000016"><a xlink:title=" ">
<path fill="none" stroke="#63b8ff" d="M853.88,-55.54C854.02,-46.96 854.16,-37.61 854.28,-30.16"/>
<polygon fill="#63b8ff" stroke="#63b8ff" points="850.38,-55.74 853.72,-65.8 857.38,-55.85 850.38,-55.74"/>
</a>
</g>
</g>
<!-- Node18 -->
<g id="Node000018" class="node">
<title>Node18</title>
<g id="a_Node000018"><a xlink:href="solver_8cpp.html" target="_top" xlink:title=" ">
<polygon fill="white" stroke="#666666" points="393.5,-30 261.5,-30 261.5,0 393.5,0 393.5,-30"/>
<text text-anchor="start" x="269.5" y="-18" font-family="FreeSans" font-size="10.00">mpqc/chemistry/qc/mra</text>
<text text-anchor="middle" x="327.5" y="-7" font-family="FreeSans" font-size="10.00">/scf/solver.cpp</text>
</a>
</g>
</g>
<!-- Node17&#45;&gt;Node18 -->
<g id="edge18_Node000017_Node000018" class="edge">
<title>Node17&#45;&gt;Node18</title>
<g id="a_edge18_Node000017_Node000018"><a xlink:title=" ">
<path fill="none" stroke="#63b8ff" d="M482.42,-62.99C448.47,-52.69 405.69,-39.72 373.7,-30.01"/>
<polygon fill="#63b8ff" stroke="#63b8ff" points="481.61,-66.4 492.2,-65.95 483.64,-59.7 481.61,-66.4"/>
</a>
</g>
</g>
<!-- Node19&#45;&gt;Node18 -->
<g id="edge21_Node000019_Node000018" class="edge">
<title>Node19&#45;&gt;Node18</title>
<g id="a_edge21_Node000019_Node000018"><a xlink:title=" ">
<path fill="none" stroke="#63b8ff" d="M179.24,-127.59C148.49,-112.6 116.9,-90.06 135.5,-66 151.01,-45.93 212.2,-32.41 261.39,-24.54"/>
<polygon fill="#63b8ff" stroke="#63b8ff" points="178.16,-130.95 188.7,-131.99 181.11,-124.6 178.16,-130.95"/>
</a>
</g>
</g>
</g>
</svg>
