<?xml version="1.0" encoding="UTF-8" standalone="no"?>
<!DOCTYPE svg PUBLIC "-//W3C//DTD SVG 1.1//EN"
 "http://www.w3.org/Graphics/SVG/1.1/DTD/svg11.dtd">
<!-- Generated by graphviz version 2.43.0 (0)
 -->
<!-- Title: mpqc/chemistry/qc/lcao/mbpt/pno/sparse_maps.h Pages: 1 -->
<!--zoomable 467 -->

<svg id="main" version="1.1" xmlns="http://www.w3.org/2000/svg" xmlns:xlink="http://www.w3.org/1999/xlink" xml:space="preserve" onload="init(evt)">
<style type="text/css"><![CDATA[
.node, .edge {opacity: 0.7;}
.node.selected, .edge.selected {opacity: 1;}
.edge:hover path { stroke: red; }
.edge:hover polygon { stroke: red; fill: red; }
]]></style>

<defs>
  <circle id="rim" cx="0" cy="0" r="7"/>
  <circle id="rim2" cx="0" cy="0" r="3.5"/>
  <g id="zoomPlus">
    <use xlink:href="#rim" fill="#404040"><set attributeName="fill" to="#808080" begin="zoomplus.mouseover" end="zoomplus.mouseout"/></use>
    <path d="M-4,0h8M0,-4v8" fill="none" stroke="white" stroke-width="1.5" pointer-events="none"/>
  </g>
  <g id="zoomMin">
    <use xlink:href="#rim" fill="#404040"><set attributeName="fill" to="#808080" begin="zoomminus.mouseover" end="zoomminus.mouseout"/></use>
    <path d="M-4,0h8" fill="none" stroke="white" stroke-width="1.5" pointer-events="none"/>
  </g>
  <g id="arrowUp" transform="translate(30 24)">
    <use xlink:href="#rim"/>
    <path pointer-events="none" fill="none" stroke="white" stroke-width="1.5" d="M0,-3.0v7 M-2.5,-0.5L0,-3.0L2.5,-0.5"/>
  </g>
  <g id="arrowRight" transform="rotate(90) translate(36 -43)">
    <use xlink:href="#rim"/>
    <path pointer-events="none" fill="none" stroke="white" stroke-width="1.5" d="M0,-3.0v7 M-2.5,-0.5L0,-3.0L2.5,-0.5"/>
  </g>
  <g id="arrowDown" transform="rotate(180) translate(-30 -48)">
    <use xlink:href="#rim"/>
    <path pointer-events="none" fill="none" stroke="white" stroke-width="1.5" d="M0,-3.0v7 M-2.5,-0.5L0,-3.0L2.5,-0.5"/>
  </g>
  <g id="arrowLeft" transform="rotate(270) translate(-36 17)">
    <use xlink:href="#rim"/>
    <path pointer-events="none" fill="none" stroke="white" stroke-width="1.5" d="M0,-3.0v7 M-2.5,-0.5L0,-3.0L2.5,-0.5"/>
  </g>
  <g id="resetDef">
    <use xlink:href="#rim2" fill="#404040"><set attributeName="fill" to="#808080" begin="reset.mouseover" end="reset.mouseout"/></use>
  </g>
</defs>
<script type="application/ecmascript">
var viewWidth = 1092;
var viewHeight = 467;
var sectionId = 'dynsection-0';
</script>
<script type="application/ecmascript" xlink:href="svg.min.js"/>
<svg id="graph" class="graph">
<g id="viewport">
<title>mpqc/chemistry/qc/lcao/mbpt/pno/sparse_maps.h</title>
<!-- Node1 -->
<g id="Node000001" class="node">
<title>Node1</title>
<g id="a_Node000001"><a xlink:title=" ">
<polygon fill="#999999" stroke="#666666" points="431.66,-459 288.66,-459 288.66,-429 431.66,-429 431.66,-459"/>
<text text-anchor="start" x="296.66" y="-447" font-family="FreeSans" font-size="10.00">mpqc/chemistry/qc/lcao</text>
<text text-anchor="middle" x="360.16" y="-436" font-family="FreeSans" font-size="10.00">/mbpt/pno/sparse_maps.h</text>
</a>
</g>
</g>
<!-- Node2 -->
<g id="Node000002" class="node">
<title>Node2</title>
<g id="a_Node000002"><a xlink:href="types_8h.html" target="_top" xlink:title=" ">
<polygon fill="white" stroke="#666666" points="474.66,-393 341.66,-393 341.66,-363 474.66,-363 474.66,-393"/>
<text text-anchor="start" x="349.66" y="-381" font-family="FreeSans" font-size="10.00">mpqc/chemistry/qc/lcao</text>
<text text-anchor="middle" x="408.16" y="-370" font-family="FreeSans" font-size="10.00">/mbpt/pno/types.h</text>
</a>
</g>
</g>
<!-- Node1&#45;&gt;Node2 -->
<g id="edge1_Node000001_Node000002" class="edge">
<title>Node1&#45;&gt;Node2</title>
<g id="a_edge1_Node000001_Node000002"><a xlink:title=" ">
<path fill="none" stroke="#63b8ff" d="M370.81,-428.8C376.84,-420.76 384.51,-410.53 391.34,-401.43"/>
<polygon fill="#63b8ff" stroke="#63b8ff" points="394.34,-403.26 397.54,-393.16 388.74,-399.06 394.34,-403.26"/>
</a>
</g>
</g>
<!-- Node3 -->
<g id="Node000003" class="node">
<title>Node3</title>
<g id="a_Node000003"><a xlink:href="eigen_8h.html" target="_top" xlink:title=" ">
<polygon fill="white" stroke="#666666" points="374.16,-327 258.16,-327 258.16,-297 374.16,-297 374.16,-327"/>
<text text-anchor="start" x="266.16" y="-315" font-family="FreeSans" font-size="10.00">mpqc/math/external</text>
<text text-anchor="middle" x="316.16" y="-304" font-family="FreeSans" font-size="10.00">/eigen/eigen.h</text>
</a>
</g>
</g>
<!-- Node1&#45;&gt;Node3 -->
<g id="edge35_Node000001_Node000003" class="edge">
<title>Node1&#45;&gt;Node3</title>
<g id="a_edge35_Node000001_Node000003"><a xlink:title=" ">
<path fill="none" stroke="#63b8ff" d="M350.56,-428.71C344.46,-419.01 336.85,-405.69 332.16,-393 325.5,-374.97 321.4,-353.58 319.02,-337.46"/>
<polygon fill="#63b8ff" stroke="#63b8ff" points="322.45,-336.68 317.64,-327.24 315.52,-337.62 322.45,-336.68"/>
</a>
</g>
</g>
<!-- Node24 -->
<g id="Node000024" class="node">
<title>Node24</title>
<g id="a_Node000024"><a xlink:href="tiledarray_8h.html" target="_top" xlink:title=" ">
<polygon fill="white" stroke="#666666" points="221.66,-321.5 150.66,-321.5 150.66,-302.5 221.66,-302.5 221.66,-321.5"/>
<text text-anchor="middle" x="186.16" y="-309.5" font-family="FreeSans" font-size="10.00">tiledarray.h</text>
</a>
</g>
</g>
<!-- Node1&#45;&gt;Node24 -->
<g id="edge36_Node000001_Node000024" class="edge">
<title>Node1&#45;&gt;Node24</title>
<g id="a_edge36_Node000001_Node000024"><a xlink:title=" ">
<path fill="none" stroke="#63b8ff" d="M341.21,-428.84C308.06,-404.07 239.86,-353.12 206.06,-327.87"/>
<polygon fill="#63b8ff" stroke="#63b8ff" points="207.97,-324.93 197.87,-321.75 203.78,-330.54 207.97,-324.93"/>
</a>
</g>
</g>
<!-- Node28 -->
<g id="Node000028" class="node">
<title>Node28</title>
<g id="a_Node000028"><a xlink:title=" ">
<polygon fill="#e0e0e0" stroke="#999999" points="699.66,-255.5 654.66,-255.5 654.66,-236.5 699.66,-236.5 699.66,-255.5"/>
<text text-anchor="middle" x="677.16" y="-243.5" font-family="FreeSans" font-size="10.00">utility</text>
</a>
</g>
</g>
<!-- Node1&#45;&gt;Node28 -->
<g id="edge37_Node000001_Node000028" class="edge">
<title>Node1&#45;&gt;Node28</title>
<g id="a_edge37_Node000001_Node000028"><a xlink:title=" ">
<path fill="none" stroke="#63b8ff" d="M431.81,-439.14C506.69,-430.84 620.8,-405.24 676.16,-327 688.73,-309.23 686.29,-283.25 682.5,-265.76"/>
<polygon fill="#63b8ff" stroke="#63b8ff" points="685.79,-264.51 679.96,-255.66 679.01,-266.22 685.79,-264.51"/>
</a>
</g>
</g>
<!-- Node2&#45;&gt;Node3 -->
<g id="edge2_Node000002_Node000003" class="edge">
<title>Node2&#45;&gt;Node3</title>
<g id="a_edge2_Node000002_Node000003"><a xlink:title=" ">
<path fill="none" stroke="#63b8ff" d="M387.74,-362.8C375.12,-354.01 358.72,-342.61 344.81,-332.93"/>
<polygon fill="#63b8ff" stroke="#63b8ff" points="346.73,-330 336.52,-327.16 342.73,-335.75 346.73,-330"/>
</a>
</g>
</g>
<!-- Node2&#45;&gt;Node24 -->
<g id="edge27_Node000002_Node000024" class="edge">
<title>Node2&#45;&gt;Node24</title>
<g id="a_edge27_Node000002_Node000024"><a xlink:title=" ">
<path fill="none" stroke="#63b8ff" d="M359.44,-362.95C319.31,-351.38 263.11,-335.18 225.72,-324.41"/>
<polygon fill="#63b8ff" stroke="#63b8ff" points="226.28,-320.92 215.7,-321.52 224.34,-327.65 226.28,-320.92"/>
</a>
</g>
</g>
<!-- Node25 -->
<g id="Node000025" class="node">
<title>Node25</title>
<g id="a_Node000025"><a xlink:title=" ">
<polygon fill="#e0e0e0" stroke="#999999" points="617.16,-255.5 575.16,-255.5 575.16,-236.5 617.16,-236.5 617.16,-255.5"/>
<text text-anchor="middle" x="596.16" y="-243.5" font-family="FreeSans" font-size="10.00">array</text>
</a>
</g>
</g>
<!-- Node2&#45;&gt;Node25 -->
<g id="edge30_Node000002_Node000025" class="edge">
<title>Node2&#45;&gt;Node25</title>
<g id="a_edge30_Node000002_Node000025"><a xlink:title=" ">
<path fill="none" stroke="#63b8ff" d="M407,-362.81C406.36,-345.02 408.15,-314.72 425.16,-297 469.95,-250.35 505.26,-282.77 566.16,-261 567.38,-260.56 568.61,-260.1 569.85,-259.61"/>
<polygon fill="#63b8ff" stroke="#63b8ff" points="571.46,-262.73 579.26,-255.56 568.69,-256.3 571.46,-262.73"/>
</a>
</g>
</g>
<!-- Node26 -->
<g id="Node000026" class="node">
<title>Node26</title>
<g id="a_Node000026"><a xlink:title=" ">
<polygon fill="#e0e0e0" stroke="#999999" points="667.66,-321.5 574.66,-321.5 574.66,-302.5 667.66,-302.5 667.66,-321.5"/>
<text text-anchor="middle" x="621.16" y="-309.5" font-family="FreeSans" font-size="10.00">unordered_map</text>
</a>
</g>
</g>
<!-- Node2&#45;&gt;Node26 -->
<g id="edge31_Node000002_Node000026" class="edge">
<title>Node2&#45;&gt;Node26</title>
<g id="a_edge31_Node000002_Node000026"><a xlink:title=" ">
<path fill="none" stroke="#63b8ff" d="M454.9,-362.95C493.41,-351.38 547.32,-335.18 583.2,-324.41"/>
<polygon fill="#63b8ff" stroke="#63b8ff" points="584.24,-327.75 592.81,-321.52 582.23,-321.04 584.24,-327.75"/>
</a>
</g>
</g>
<!-- Node27 -->
<g id="Node000027" class="node">
<title>Node27</title>
<g id="a_Node000027"><a xlink:href="hash_8h.html" target="_top" xlink:title=" ">
<polygon fill="white" stroke="#666666" points="556.16,-321.5 434.16,-321.5 434.16,-302.5 556.16,-302.5 556.16,-321.5"/>
<text text-anchor="middle" x="495.16" y="-309.5" font-family="FreeSans" font-size="10.00">mpqc/util/core/hash.h</text>
</a>
</g>
</g>
<!-- Node2&#45;&gt;Node27 -->
<g id="edge32_Node000002_Node000027" class="edge">
<title>Node2&#45;&gt;Node27</title>
<g id="a_edge32_Node000002_Node000027"><a xlink:title=" ">
<path fill="none" stroke="#63b8ff" d="M427.47,-362.8C441.64,-352.37 460.85,-338.24 475.18,-327.69"/>
<polygon fill="#63b8ff" stroke="#63b8ff" points="477.41,-330.4 483.39,-321.66 473.26,-324.76 477.41,-330.4"/>
</a>
</g>
</g>
<!-- Node4 -->
<g id="Node000004" class="node">
<title>Node4</title>
<g id="a_Node000004"><a xlink:title=" ">
<polygon fill="#e0e0e0" stroke="#999999" points="255.16,-255.5 153.16,-255.5 153.16,-236.5 255.16,-236.5 255.16,-255.5"/>
<text text-anchor="middle" x="204.16" y="-243.5" font-family="FreeSans" font-size="10.00">madness/config.h</text>
</a>
</g>
</g>
<!-- Node3&#45;&gt;Node4 -->
<g id="edge3_Node000003_Node000004" class="edge">
<title>Node3&#45;&gt;Node4</title>
<g id="a_edge3_Node000003_Node000004"><a xlink:title=" ">
<path fill="none" stroke="#63b8ff" d="M291.58,-296.95C272.63,-286.13 246.58,-271.24 227.86,-260.54"/>
<polygon fill="#63b8ff" stroke="#63b8ff" points="229.48,-257.44 219.06,-255.52 226.01,-263.52 229.48,-257.44"/>
</a>
</g>
</g>
<!-- Node5 -->
<g id="Node000005" class="node">
<title>Node5</title>
<g id="a_Node000005"><a xlink:href="complex_8h.html" target="_top" xlink:title=" ">
<polygon fill="white" stroke="#666666" points="557.16,-255.5 407.16,-255.5 407.16,-236.5 557.16,-236.5 557.16,-255.5"/>
<text text-anchor="middle" x="482.16" y="-243.5" font-family="FreeSans" font-size="10.00">mpqc/math/core/complex.h</text>
</a>
</g>
</g>
<!-- Node3&#45;&gt;Node5 -->
<g id="edge4_Node000003_Node000005" class="edge">
<title>Node3&#45;&gt;Node5</title>
<g id="a_edge4_Node000003_Node000005"><a xlink:title=" ">
<path fill="none" stroke="#63b8ff" d="M352.59,-296.95C381.83,-285.68 422.47,-270.01 450.4,-259.25"/>
<polygon fill="#63b8ff" stroke="#63b8ff" points="452,-262.38 460.07,-255.52 449.48,-255.85 452,-262.38"/>
</a>
</g>
</g>
<!-- Node7 -->
<g id="Node000007" class="node">
<title>Node7</title>
<g id="a_Node000007"><a xlink:title=" ">
<polygon fill="#e0e0e0" stroke="#999999" points="228.66,-129 111.66,-129 111.66,-110 228.66,-110 228.66,-129"/>
<text text-anchor="middle" x="170.16" y="-117" font-family="FreeSans" font-size="10.00">mpqc/mpqc_config.h</text>
</a>
</g>
</g>
<!-- Node3&#45;&gt;Node7 -->
<g id="edge23_Node000003_Node000007" class="edge">
<title>Node3&#45;&gt;Node7</title>
<g id="a_edge23_Node000003_Node000007"><a xlink:title=" ">
<path fill="none" stroke="#63b8ff" d="M307.67,-296.76C297.78,-280.47 280.69,-253.18 264.16,-231 237.98,-195.88 203.99,-157.48 184.88,-136.47"/>
<polygon fill="#63b8ff" stroke="#63b8ff" points="187.44,-134.08 178.11,-129.06 182.28,-138.81 187.44,-134.08"/>
</a>
</g>
</g>
<!-- Node22 -->
<g id="Node000022" class="node">
<title>Node22</title>
<g id="a_Node000022"><a xlink:href="math_2external_2eigen_2fwd_8h.html" target="_top" xlink:title=" ">
<polygon fill="white" stroke="#666666" points="135.16,-261 19.16,-261 19.16,-231 135.16,-231 135.16,-261"/>
<text text-anchor="start" x="27.16" y="-249" font-family="FreeSans" font-size="10.00">mpqc/math/external</text>
<text text-anchor="middle" x="77.16" y="-238" font-family="FreeSans" font-size="10.00">/eigen/fwd.h</text>
</a>
</g>
</g>
<!-- Node3&#45;&gt;Node22 -->
<g id="edge24_Node000003_Node000022" class="edge">
<title>Node3&#45;&gt;Node22</title>
<g id="a_edge24_Node000003_Node000022"><a xlink:title=" ">
<path fill="none" stroke="#63b8ff" d="M263.71,-296.95C227.13,-287.16 178.16,-274.05 139.57,-263.71"/>
<polygon fill="#63b8ff" stroke="#63b8ff" points="140.05,-260.22 129.49,-261.01 138.24,-266.98 140.05,-260.22"/>
</a>
</g>
</g>
<!-- Node23 -->
<g id="Node000023" class="node">
<title>Node23</title>
<g id="a_Node000023"><a xlink:title=" ">
<polygon fill="#e0e0e0" stroke="#999999" points="388.66,-255.5 311.66,-255.5 311.66,-236.5 388.66,-236.5 388.66,-255.5"/>
<text text-anchor="middle" x="350.16" y="-243.5" font-family="FreeSans" font-size="10.00">Eigen/Dense</text>
</a>
</g>
</g>
<!-- Node3&#45;&gt;Node23 -->
<g id="edge26_Node000003_Node000023" class="edge">
<title>Node3&#45;&gt;Node23</title>
<g id="a_edge26_Node000003_Node000023"><a xlink:title=" ">
<path fill="none" stroke="#63b8ff" d="M323.7,-296.8C328.69,-287.41 335.27,-275.02 340.62,-264.95"/>
<polygon fill="#63b8ff" stroke="#63b8ff" points="343.86,-266.32 345.46,-255.84 337.68,-263.03 343.86,-266.32"/>
</a>
</g>
</g>
<!-- Node6 -->
<g id="Node000006" class="node">
<title>Node6</title>
<g id="a_Node000006"><a xlink:href="assert_8h.html" target="_top" xlink:title=" ">
<polygon fill="white" stroke="#666666" points="934.66,-189.5 803.66,-189.5 803.66,-170.5 934.66,-170.5 934.66,-189.5"/>
<text text-anchor="middle" x="869.16" y="-177.5" font-family="FreeSans" font-size="10.00">mpqc/util/misc/assert.h</text>
</a>
</g>
</g>
<!-- Node5&#45;&gt;Node6 -->
<g id="edge5_Node000005_Node000006" class="edge">
<title>Node5&#45;&gt;Node6</title>
<g id="a_edge5_Node000005_Node000006"><a xlink:title=" ">
<path fill="none" stroke="#63b8ff" d="M532.79,-236.49C543.78,-234.66 555.36,-232.75 566.16,-231 667.42,-214.57 693.06,-212.41 794.16,-195 800.74,-193.87 807.63,-192.64 814.46,-191.39"/>
<polygon fill="#63b8ff" stroke="#63b8ff" points="815.18,-194.82 824.38,-189.57 813.91,-187.94 815.18,-194.82"/>
</a>
</g>
</g>
<!-- Node17 -->
<g id="Node000017" class="node">
<title>Node17</title>
<g id="a_Node000017"><a xlink:title=" ">
<polygon fill="#e0e0e0" stroke="#999999" points="644.66,-189.5 575.66,-189.5 575.66,-170.5 644.66,-170.5 644.66,-189.5"/>
<text text-anchor="middle" x="610.16" y="-177.5" font-family="FreeSans" font-size="10.00">Eigen/Core</text>
</a>
</g>
</g>
<!-- Node5&#45;&gt;Node17 -->
<g id="edge18_Node000005_Node000017" class="edge">
<title>Node5&#45;&gt;Node17</title>
<g id="a_edge18_Node000005_Node000017"><a xlink:title=" ">
<path fill="none" stroke="#63b8ff" d="M499.42,-236.37C521.08,-225.54 558.45,-206.85 583.73,-194.22"/>
<polygon fill="#63b8ff" stroke="#63b8ff" points="585.38,-197.3 592.76,-189.7 582.25,-191.04 585.38,-197.3"/>
</a>
</g>
</g>
<!-- Node18 -->
<g id="Node000018" class="node">
<title>Node18</title>
<g id="a_Node000018"><a xlink:title=" ">
<polygon fill="#e0e0e0" stroke="#999999" points="785.16,-195 663.16,-195 663.16,-165 785.16,-165 785.16,-195"/>
<text text-anchor="start" x="671.16" y="-183" font-family="FreeSans" font-size="10.00">boost/container/small</text>
<text text-anchor="middle" x="724.16" y="-172" font-family="FreeSans" font-size="10.00">_vector.hpp</text>
</a>
</g>
</g>
<!-- Node5&#45;&gt;Node18 -->
<g id="edge19_Node000005_Node000018" class="edge">
<title>Node5&#45;&gt;Node18</title>
<g id="a_edge19_Node000005_Node000018"><a xlink:title=" ">
<path fill="none" stroke="#63b8ff" d="M514.54,-236.44C551.94,-226.55 614.33,-210.05 661.34,-197.61"/>
<polygon fill="#63b8ff" stroke="#63b8ff" points="662.35,-200.97 671.13,-195.02 660.56,-194.2 662.35,-200.97"/>
</a>
</g>
</g>
<!-- Node19 -->
<g id="Node000019" class="node">
<title>Node19</title>
<g id="a_Node000019"><a xlink:title=" ">
<polygon fill="#e0e0e0" stroke="#999999" points="393.66,-195 250.66,-195 250.66,-165 393.66,-165 393.66,-195"/>
<text text-anchor="start" x="258.66" y="-183" font-family="FreeSans" font-size="10.00">boost/numeric/conversion</text>
<text text-anchor="middle" x="322.16" y="-172" font-family="FreeSans" font-size="10.00">/cast.hpp</text>
</a>
</g>
</g>
<!-- Node5&#45;&gt;Node19 -->
<g id="edge20_Node000005_Node000019" class="edge">
<title>Node5&#45;&gt;Node19</title>
<g id="a_edge20_Node000005_Node000019"><a xlink:title=" ">
<path fill="none" stroke="#63b8ff" d="M460.58,-236.37C436.72,-226.82 397.61,-211.18 367.04,-198.95"/>
<polygon fill="#63b8ff" stroke="#63b8ff" points="368.03,-195.58 357.45,-195.12 365.43,-202.08 368.03,-195.58"/>
</a>
</g>
</g>
<!-- Node20 -->
<g id="Node000020" class="node">
<title>Node20</title>
<g id="a_Node000020"><a xlink:title=" ">
<polygon fill="#e0e0e0" stroke="#999999" points="470.66,-189.5 411.66,-189.5 411.66,-170.5 470.66,-170.5 470.66,-189.5"/>
<text text-anchor="middle" x="441.16" y="-177.5" font-family="FreeSans" font-size="10.00">complex</text>
</a>
</g>
</g>
<!-- Node5&#45;&gt;Node20 -->
<g id="edge21_Node000005_Node000020" class="edge">
<title>Node5&#45;&gt;Node20</title>
<g id="a_edge21_Node000005_Node000020"><a xlink:title=" ">
<path fill="none" stroke="#63b8ff" d="M476.63,-236.37C470.43,-226.69 460.21,-210.74 452.33,-198.44"/>
<polygon fill="#63b8ff" stroke="#63b8ff" points="455.2,-196.44 446.86,-189.91 449.31,-200.21 455.2,-196.44"/>
</a>
</g>
</g>
<!-- Node21 -->
<g id="Node000021" class="node">
<title>Node21</title>
<g id="a_Node000021"><a xlink:title=" ">
<polygon fill="#e0e0e0" stroke="#999999" points="557.66,-189.5 488.66,-189.5 488.66,-170.5 557.66,-170.5 557.66,-189.5"/>
<text text-anchor="middle" x="523.16" y="-177.5" font-family="FreeSans" font-size="10.00">type_traits</text>
</a>
</g>
</g>
<!-- Node5&#45;&gt;Node21 -->
<g id="edge22_Node000005_Node000021" class="edge">
<title>Node5&#45;&gt;Node21</title>
<g id="a_edge22_Node000005_Node000021"><a xlink:title=" ">
<path fill="none" stroke="#63b8ff" d="M487.69,-236.37C493.89,-226.69 504.11,-210.74 511.99,-198.44"/>
<polygon fill="#63b8ff" stroke="#63b8ff" points="515.01,-200.21 517.45,-189.91 509.11,-196.44 515.01,-200.21"/>
</a>
</g>
</g>
<!-- Node6&#45;&gt;Node7 -->
<g id="edge6_Node000006_Node000007" class="edge">
<title>Node6&#45;&gt;Node7</title>
<g id="a_edge6_Node000006_Node000007"><a xlink:title=" ">
<path fill="none" stroke="#63b8ff" d="M828.03,-170.45C817.06,-168.41 805.19,-166.42 794.16,-165 593.39,-139.19 354.22,-127.37 238.97,-122.86"/>
<polygon fill="#63b8ff" stroke="#63b8ff" points="239.01,-119.36 228.88,-122.47 238.74,-126.35 239.01,-119.36"/>
</a>
</g>
</g>
<!-- Node8 -->
<g id="Node000008" class="node">
<title>Node8</title>
<g id="a_Node000008"><a xlink:title=" ">
<polygon fill="#e0e0e0" stroke="#999999" points="953.16,-129 901.16,-129 901.16,-110 953.16,-110 953.16,-129"/>
<text text-anchor="middle" x="927.16" y="-117" font-family="FreeSans" font-size="10.00">cassert</text>
</a>
</g>
</g>
<!-- Node6&#45;&gt;Node8 -->
<g id="edge7_Node000006_Node000008" class="edge">
<title>Node6&#45;&gt;Node8</title>
<g id="a_edge7_Node000006_Node000008"><a xlink:title=" ">
<path fill="none" stroke="#63b8ff" d="M877.72,-170.37C886.54,-161.47 900.5,-147.39 911.34,-136.45"/>
<polygon fill="#63b8ff" stroke="#63b8ff" points="914.01,-138.73 918.57,-129.17 909.04,-133.8 914.01,-138.73"/>
</a>
</g>
</g>
<!-- Node9 -->
<g id="Node000009" class="node">
<title>Node9</title>
<g id="a_Node000009"><a xlink:href="exception_8h.html" target="_top" xlink:title=" ">
<polygon fill="white" stroke="#666666" points="883.16,-129 737.16,-129 737.16,-110 883.16,-110 883.16,-129"/>
<text text-anchor="middle" x="810.16" y="-117" font-family="FreeSans" font-size="10.00">mpqc/util/core/exception.h</text>
</a>
</g>
</g>
<!-- Node6&#45;&gt;Node9 -->
<g id="edge8_Node000006_Node000009" class="edge">
<title>Node6&#45;&gt;Node9</title>
<g id="a_edge8_Node000006_Node000009"><a xlink:title=" ">
<path fill="none" stroke="#63b8ff" d="M860.45,-170.37C851.48,-161.47 837.27,-147.39 826.25,-136.45"/>
<polygon fill="#63b8ff" stroke="#63b8ff" points="828.47,-133.72 818.9,-129.17 823.54,-138.69 828.47,-133.72"/>
</a>
</g>
</g>
<!-- Node10 -->
<g id="Node000010" class="node">
<title>Node10</title>
<g id="a_Node000010"><a xlink:title=" ">
<polygon fill="#e0e0e0" stroke="#999999" points="629.66,-74 576.66,-74 576.66,-55 629.66,-55 629.66,-74"/>
<text text-anchor="middle" x="603.16" y="-62" font-family="FreeSans" font-size="10.00">string.h</text>
</a>
</g>
</g>
<!-- Node9&#45;&gt;Node10 -->
<g id="edge9_Node000009_Node000010" class="edge">
<title>Node9&#45;&gt;Node10</title>
<g id="a_edge9_Node000009_Node000010"><a xlink:title=" ">
<path fill="none" stroke="#63b8ff" d="M776.9,-109.98C739.34,-100.37 678.42,-84.77 639.6,-74.83"/>
<polygon fill="#63b8ff" stroke="#63b8ff" points="640.31,-71.4 629.75,-72.31 638.57,-78.18 640.31,-71.4"/>
</a>
</g>
</g>
<!-- Node11 -->
<g id="Node000011" class="node">
<title>Node11</title>
<g id="a_Node000011"><a xlink:href="memory.html" target="_top" xlink:title=" ">
<polygon fill="white" stroke="#666666" points="706.16,-74 648.16,-74 648.16,-55 706.16,-55 706.16,-74"/>
<text text-anchor="middle" x="677.16" y="-62" font-family="FreeSans" font-size="10.00">memory</text>
</a>
</g>
</g>
<!-- Node9&#45;&gt;Node11 -->
<g id="edge10_Node000009_Node000011" class="edge">
<title>Node9&#45;&gt;Node11</title>
<g id="a_edge10_Node000009_Node000011"><a xlink:title=" ">
<path fill="none" stroke="#63b8ff" d="M788.79,-109.98C767.01,-101.3 733,-87.75 708.24,-77.88"/>
<polygon fill="#63b8ff" stroke="#63b8ff" points="709.5,-74.62 698.92,-74.17 706.91,-81.12 709.5,-74.62"/>
</a>
</g>
</g>
<!-- Node12 -->
<g id="Node000012" class="node">
<title>Node12</title>
<g id="a_Node000012"><a xlink:title=" ">
<polygon fill="#e0e0e0" stroke="#999999" points="798.16,-74 742.16,-74 742.16,-55 798.16,-55 798.16,-74"/>
<text text-anchor="middle" x="770.16" y="-62" font-family="FreeSans" font-size="10.00">sstream</text>
</a>
</g>
</g>
<!-- Node9&#45;&gt;Node12 -->
<g id="edge12_Node000009_Node000012" class="edge">
<title>Node9&#45;&gt;Node12</title>
<g id="a_edge12_Node000009_Node000012"><a xlink:title=" ">
<path fill="none" stroke="#63b8ff" d="M803.55,-109.75C797.9,-102.26 789.61,-91.28 782.71,-82.13"/>
<polygon fill="#63b8ff" stroke="#63b8ff" points="785.46,-79.96 776.64,-74.09 779.87,-84.18 785.46,-79.96"/>
</a>
</g>
</g>
<!-- Node13 -->
<g id="Node000013" class="node">
<title>Node13</title>
<g id="a_Node000013"><a xlink:title=" ">
<polygon fill="#e0e0e0" stroke="#999999" points="881.66,-74 816.66,-74 816.66,-55 881.66,-55 881.66,-74"/>
<text text-anchor="middle" x="849.16" y="-62" font-family="FreeSans" font-size="10.00">stdexcept</text>
</a>
</g>
</g>
<!-- Node9&#45;&gt;Node13 -->
<g id="edge13_Node000009_Node000013" class="edge">
<title>Node9&#45;&gt;Node13</title>
<g id="a_edge13_Node000009_Node000013"><a xlink:title=" ">
<path fill="none" stroke="#63b8ff" d="M816.6,-109.75C822.05,-102.34 830.02,-91.5 836.71,-82.41"/>
<polygon fill="#63b8ff" stroke="#63b8ff" points="839.73,-84.22 842.84,-74.09 834.09,-80.07 839.73,-84.22"/>
</a>
</g>
</g>
<!-- Node14 -->
<g id="Node000014" class="node">
<title>Node14</title>
<g id="a_Node000014"><a xlink:title=" ">
<polygon fill="#e0e0e0" stroke="#999999" points="952.66,-19 905.66,-19 905.66,0 952.66,0 952.66,-19"/>
<text text-anchor="middle" x="929.16" y="-7" font-family="FreeSans" font-size="10.00">vector</text>
</a>
</g>
</g>
<!-- Node9&#45;&gt;Node14 -->
<g id="edge14_Node000009_Node000014" class="edge">
<title>Node9&#45;&gt;Node14</title>
<g id="a_edge14_Node000009_Node000014"><a xlink:title=" ">
<path fill="none" stroke="#63b8ff" d="M832.14,-109.96C849.41,-102.43 873.29,-90.16 890.16,-74 903.71,-61.02 914.42,-42.37 921.17,-28.63"/>
<polygon fill="#63b8ff" stroke="#63b8ff" points="924.48,-29.81 925.53,-19.27 918.13,-26.85 924.48,-29.81"/>
</a>
</g>
</g>
<!-- Node15 -->
<g id="Node000015" class="node">
<title>Node15</title>
<g id="a_Node000015"><a xlink:href="backtrace_8h.html" target="_top" xlink:title=" ">
<polygon fill="white" stroke="#666666" points="1084.16,-74 938.16,-74 938.16,-55 1084.16,-55 1084.16,-74"/>
<text text-anchor="middle" x="1011.16" y="-62" font-family="FreeSans" font-size="10.00">mpqc/util/core/backtrace.h</text>
</a>
</g>
</g>
<!-- Node9&#45;&gt;Node15 -->
<g id="edge15_Node000009_Node000015" class="edge">
<title>Node9&#45;&gt;Node15</title>
<g id="a_edge15_Node000009_Node000015"><a xlink:title=" ">
<path fill="none" stroke="#63b8ff" d="M842.45,-109.98C876.78,-100.93 931.22,-86.58 968.93,-76.64"/>
<polygon fill="#63b8ff" stroke="#63b8ff" points="969.83,-80.02 978.61,-74.08 968.05,-73.25 969.83,-80.02"/>
</a>
</g>
</g>
<!-- Node11&#45;&gt;Node11 -->
<g id="edge11_Node000011_Node000011" class="edge">
<title>Node11&#45;&gt;Node11</title>
<g id="a_edge11_Node000011_Node000011"><a xlink:title=" ">
<path fill="none" stroke="#63b8ff" d="M699.4,-74.07C712.22,-76.02 724.16,-72.83 724.16,-64.5 724.16,-58.45 717.86,-55.11 709.49,-54.48"/>
<polygon fill="#63b8ff" stroke="#63b8ff" points="709.24,-50.99 699.4,-54.93 709.55,-57.98 709.24,-50.99"/>
</a>
</g>
</g>
<!-- Node15&#45;&gt;Node14 -->
<g id="edge17_Node000015_Node000014" class="edge">
<title>Node15&#45;&gt;Node14</title>
<g id="a_edge17_Node000015_Node000014"><a xlink:title=" ">
<path fill="none" stroke="#63b8ff" d="M997.98,-54.98C985.39,-46.84 966.15,-34.41 951.22,-24.76"/>
<polygon fill="#63b8ff" stroke="#63b8ff" points="952.87,-21.66 942.57,-19.17 949.07,-27.54 952.87,-21.66"/>
</a>
</g>
</g>
<!-- Node16 -->
<g id="Node000016" class="node">
<title>Node16</title>
<g id="a_Node000016"><a xlink:title=" ">
<polygon fill="#e0e0e0" stroke="#999999" points="1033.16,-19 989.16,-19 989.16,0 1033.16,0 1033.16,-19"/>
<text text-anchor="middle" x="1011.16" y="-7" font-family="FreeSans" font-size="10.00">string</text>
</a>
</g>
</g>
<!-- Node15&#45;&gt;Node16 -->
<g id="edge16_Node000015_Node000016" class="edge">
<title>Node15&#45;&gt;Node16</title>
<g id="a_edge16_Node000015_Node000016"><a xlink:title=" ">
<path fill="none" stroke="#63b8ff" d="M1011.16,-54.75C1011.16,-47.8 1011.16,-37.85 1011.16,-29.13"/>
<polygon fill="#63b8ff" stroke="#63b8ff" points="1014.66,-29.09 1011.16,-19.09 1007.66,-29.09 1014.66,-29.09"/>
</a>
</g>
</g>
<!-- Node22&#45;&gt;Node7 -->
<g id="edge25_Node000022_Node000007" class="edge">
<title>Node22&#45;&gt;Node7</title>
<g id="a_edge25_Node000022_Node000007"><a xlink:title=" ">
<path fill="none" stroke="#63b8ff" d="M87.83,-230.72C105.16,-207.51 139.36,-161.73 157.76,-137.1"/>
<polygon fill="#63b8ff" stroke="#63b8ff" points="160.58,-139.18 163.76,-129.07 154.97,-134.99 160.58,-139.18"/>
</a>
</g>
</g>
<!-- Node24&#45;&gt;Node7 -->
<g id="edge29_Node000024_Node000007" class="edge">
<title>Node24&#45;&gt;Node7</title>
<g id="a_edge29_Node000024_Node000007"><a xlink:title=" ">
<path fill="none" stroke="#63b8ff" d="M150.27,-305.94C103.88,-298.57 27.01,-283.3 10.16,-261 -32.08,-205.09 75.93,-154.96 134.86,-132.69"/>
<polygon fill="#63b8ff" stroke="#63b8ff" points="136.39,-135.86 144.56,-129.11 133.97,-129.29 136.39,-135.86"/>
</a>
</g>
</g>
<!-- Node24&#45;&gt;Node24 -->
<g id="edge28_Node000024_Node000024" class="edge">
<title>Node24&#45;&gt;Node24</title>
<g id="a_edge28_Node000024_Node000024"><a xlink:title=" ">
<path fill="none" stroke="#63b8ff" d="M202.87,-321.56C220.22,-327.37 239.66,-324.18 239.66,-312 239.66,-302.1 226.82,-298.14 212.7,-300.12"/>
<polygon fill="#63b8ff" stroke="#63b8ff" points="211.8,-296.74 202.87,-302.44 213.4,-303.55 211.8,-296.74"/>
</a>
</g>
</g>
<!-- Node27&#45;&gt;Node25 -->
<g id="edge33_Node000027_Node000025" class="edge">
<title>Node27&#45;&gt;Node25</title>
<g id="a_edge33_Node000027_Node000025"><a xlink:title=" ">
<path fill="none" stroke="#63b8ff" d="M508.78,-302.37C525.5,-291.78 554.07,-273.67 573.97,-261.06"/>
<polygon fill="#63b8ff" stroke="#63b8ff" points="575.86,-264.01 582.43,-255.7 572.11,-258.1 575.86,-264.01"/>
</a>
</g>
</g>
<!-- Node27&#45;&gt;Node28 -->
<g id="edge34_Node000027_Node000028" class="edge">
<title>Node27&#45;&gt;Node28</title>
<g id="a_edge34_Node000027_Node000028"><a xlink:title=" ">
<path fill="none" stroke="#63b8ff" d="M519.7,-302.37C552.08,-290.99 609.12,-270.93 644.93,-258.33"/>
<polygon fill="#63b8ff" stroke="#63b8ff" points="646.16,-261.61 654.43,-254.99 643.84,-255.01 646.16,-261.61"/>
</a>
</g>
</g>
</g>
</svg>

<g id="navigator" transform="translate(0 0)" fill="#404254">
  <rect fill="#f2f5e9" fill-opacity="0.5" stroke="#606060" stroke-width=".5" x="0" y="0" width="60" height="60"/>
  <use id="zoomplus" xlink:href="#zoomPlus" x="17" y="9" onmousedown="handleZoom(evt,'in')"/>
  <use id="zoomminus" xlink:href="#zoomMin" x="42" y="9" onmousedown="handleZoom(evt,'out')"/>
  <use id="reset" xlink:href="#resetDef" x="30" y="36" onmousedown="handleReset()"/>
   <use id="arrowup" xlink:href="#arrowUp" x="0" y="0" onmousedown="handlePan(0,-1)"/>
  <use id="arrowright" xlink:href="#arrowRight" x="0" y="0" onmousedown="handlePan(1,0)"/>
  <use id="arrowdown" xlink:href="#arrowDown" x="0" y="0" onmousedown="handlePan(0,1)"/>
  <use id="arrowleft" xlink:href="#arrowLeft" x="0" y="0" onmousedown="handlePan(-1,0)"/>
</g>
<svg viewBox="0 0 15 15" width="100%" height="30px" preserveAspectRatio="xMaxYMin meet">
 <g id="arrow_out" transform="scale(0.3 0.3)">
  <a xlink:href="sparse__maps_8h__incl_org.svg" target="_base">
   <rect id="button" ry="5" rx="5" y="6" x="6" height="38" width="38"
        fill="#f2f5e9" fill-opacity="0.5" stroke="#606060" stroke-width="1.0"/>
   <path id="arrow"
     d="M 11.500037,31.436501 C 11.940474,20.09759 22.043105,11.32322 32.158766,21.979434 L 37.068811,17.246167 C 37.068811,17.246167 37.088388,32 37.088388,32 L 22.160133,31.978069 C 22.160133,31.978069 26.997745,27.140456 26.997745,27.140456 C 18.528582,18.264221 13.291696,25.230495 11.500037,31.436501 z"
     style="fill:#404040;"/>
  </a>
 </g>
</svg>

<style type='text/css'>
<![CDATA[
[data-mouse-over-selected='false'] { opacity: 0.7; }
[data-mouse-over-selected='true']  { opacity: 1.0; }
]]>
</style>
<script type="application/ecmascript"><![CDATA[
document.addEventListener('DOMContentLoaded', (event) => {
  highlightEdges();
  highlightAdjacentNodes();
});
]]></script>
</svg>
