<?xml version="1.0" encoding="UTF-8" standalone="no"?>
<!DOCTYPE svg PUBLIC "-//W3C//DTD SVG 1.1//EN"
 "http://www.w3.org/Graphics/SVG/1.1/DTD/svg11.dtd">
<!-- Generated by graphviz version 2.43.0 (0)
 -->
<!-- Title: mpqc/math/core/spherical_harmonics.h Pages: 1 -->
<svg width="788pt" height="423pt"
 viewBox="0.00 0.00 787.57 423.00" xmlns="http://www.w3.org/2000/svg" xmlns:xlink="http://www.w3.org/1999/xlink">
<g id="graph0" class="graph" transform="scale(1 1) rotate(0) translate(4 419)">
<title>mpqc/math/core/spherical_harmonics.h</title>
<!-- Node1 -->
<g id="Node000001" class="node">
<title>Node1</title>
<g id="a_Node000001"><a xlink:title=" ">
<polygon fill="#999999" stroke="#666666" points="331.25,-415 188.25,-415 188.25,-385 331.25,-385 331.25,-415"/>
<text text-anchor="start" x="196.25" y="-403" font-family="FreeSans" font-size="10.00">mpqc/math/core/spherical</text>
<text text-anchor="middle" x="259.75" y="-392" font-family="FreeSans" font-size="10.00">_harmonics.h</text>
</a>
</g>
</g>
<!-- Node2 -->
<g id="Node000002" class="node">
<title>Node2</title>
<g id="a_Node000002"><a xlink:href="ao_8h.html" target="_top" xlink:title=" ">
<polygon fill="white" stroke="#666666" points="483.25,-349 364.25,-349 364.25,-330 483.25,-330 483.25,-349"/>
<text text-anchor="middle" x="423.75" y="-337" font-family="FreeSans" font-size="10.00">mpqc/math/mra/ao.h</text>
</a>
</g>
</g>
<!-- Node1&#45;&gt;Node2 -->
<g id="edge1_Node000001_Node000002" class="edge">
<title>Node1&#45;&gt;Node2</title>
<g id="a_edge1_Node000001_Node000002"><a xlink:title=" ">
<path fill="none" stroke="#63b8ff" d="M308.5,-381.61C338.5,-370.91 375.66,-357.65 399.53,-349.14"/>
<polygon fill="#63b8ff" stroke="#63b8ff" points="307.28,-378.33 299.03,-384.99 309.63,-384.92 307.28,-378.33"/>
</a>
</g>
</g>
<!-- Node12 -->
<g id="Node000012" class="node">
<title>Node12</title>
<g id="a_Node000012"><a xlink:href="mra_2gaussian_8h.html" target="_top" xlink:title=" ">
<polygon fill="white" stroke="#666666" points="253.75,-349 103.75,-349 103.75,-330 253.75,-330 253.75,-349"/>
<text text-anchor="middle" x="178.75" y="-337" font-family="FreeSans" font-size="10.00">mpqc/math/mra/gaussian.h</text>
</a>
</g>
</g>
<!-- Node1&#45;&gt;Node12 -->
<g id="edge15_Node000001_Node000012" class="edge">
<title>Node1&#45;&gt;Node12</title>
<g id="a_edge15_Node000001_Node000012"><a xlink:title=" ">
<path fill="none" stroke="#63b8ff" d="M231.8,-378.82C217.84,-368.73 201.67,-357.05 190.89,-349.27"/>
<polygon fill="#63b8ff" stroke="#63b8ff" points="229.99,-381.82 240.14,-384.84 234.09,-376.15 229.99,-381.82"/>
</a>
</g>
</g>
<!-- Node3 -->
<g id="Node000003" class="node">
<title>Node3</title>
<g id="a_Node000003"><a xlink:href="chemistry_2qc_2mra_2wfn_2util_8h.html" target="_top" xlink:title=" ">
<polygon fill="white" stroke="#666666" points="637.75,-294 505.75,-294 505.75,-264 637.75,-264 637.75,-294"/>
<text text-anchor="start" x="513.75" y="-282" font-family="FreeSans" font-size="10.00">mpqc/chemistry/qc/mra</text>
<text text-anchor="middle" x="571.75" y="-271" font-family="FreeSans" font-size="10.00">/wfn/util.h</text>
</a>
</g>
</g>
<!-- Node2&#45;&gt;Node3 -->
<g id="edge2_Node000002_Node000003" class="edge">
<title>Node2&#45;&gt;Node3</title>
<g id="a_edge2_Node000002_Node000003"><a xlink:title=" ">
<path fill="none" stroke="#63b8ff" d="M454.85,-326.21C478.61,-316.82 511.37,-303.87 536.17,-294.06"/>
<polygon fill="#63b8ff" stroke="#63b8ff" points="453.29,-323.06 445.27,-329.99 455.86,-329.57 453.29,-323.06"/>
</a>
</g>
</g>
<!-- Node11 -->
<g id="Node000011" class="node">
<title>Node11</title>
<g id="a_Node000011"><a xlink:href="ao_8ipp.html" target="_top" xlink:title=" ">
<polygon fill="white" stroke="#666666" points="487.75,-288.5 359.75,-288.5 359.75,-269.5 487.75,-269.5 487.75,-288.5"/>
<text text-anchor="middle" x="423.75" y="-276.5" font-family="FreeSans" font-size="10.00">mpqc/math/mra/ao.ipp</text>
</a>
</g>
</g>
<!-- Node2&#45;&gt;Node11 -->
<g id="edge13_Node000002_Node000011" class="edge">
<title>Node2&#45;&gt;Node11</title>
<g id="a_edge13_Node000002_Node000011"><a xlink:title=" ">
<path fill="none" stroke="#63b8ff" d="M417.4,-319.66C416.57,-309.24 417.04,-296.8 418.79,-288.67"/>
<polygon fill="#63b8ff" stroke="#63b8ff" points="413.97,-320.44 418.8,-329.87 420.91,-319.49 413.97,-320.44"/>
</a>
</g>
</g>
<!-- Node4 -->
<g id="Node000004" class="node">
<title>Node4</title>
<g id="a_Node000004"><a xlink:href="solver_8ipp.html" target="_top" xlink:title=" ">
<polygon fill="white" stroke="#666666" points="556.75,-96 424.75,-96 424.75,-66 556.75,-66 556.75,-96"/>
<text text-anchor="start" x="432.75" y="-84" font-family="FreeSans" font-size="10.00">mpqc/chemistry/qc/mra</text>
<text text-anchor="middle" x="490.75" y="-73" font-family="FreeSans" font-size="10.00">/scf/solver.ipp</text>
</a>
</g>
</g>
<!-- Node3&#45;&gt;Node4 -->
<g id="edge3_Node000003_Node000004" class="edge">
<title>Node3&#45;&gt;Node4</title>
<g id="a_edge3_Node000003_Node000004"><a xlink:title=" ">
<path fill="none" stroke="#63b8ff" d="M647.98,-273.78C717.67,-266.75 805.2,-247.99 771.75,-198 724.13,-126.83 624,-99.28 557.05,-88.64"/>
<polygon fill="#63b8ff" stroke="#63b8ff" points="647.47,-270.31 637.84,-274.73 648.12,-277.28 647.47,-270.31"/>
</a>
</g>
</g>
<!-- Node6 -->
<g id="Node000006" class="node">
<title>Node6</title>
<g id="a_Node000006"><a xlink:href="solver__1c__v2_8ipp.html" target="_top" xlink:title=" ">
<polygon fill="white" stroke="#666666" points="462.75,-228 330.75,-228 330.75,-198 462.75,-198 462.75,-228"/>
<text text-anchor="start" x="338.75" y="-216" font-family="FreeSans" font-size="10.00">mpqc/chemistry/qc/mra</text>
<text text-anchor="middle" x="396.75" y="-205" font-family="FreeSans" font-size="10.00">/scf/solver_1c_v2.ipp</text>
</a>
</g>
</g>
<!-- Node3&#45;&gt;Node6 -->
<g id="edge5_Node000003_Node000006" class="edge">
<title>Node3&#45;&gt;Node6</title>
<g id="a_edge5_Node000003_Node000006"><a xlink:title=" ">
<path fill="none" stroke="#63b8ff" d="M523.78,-260.46C495.86,-250.25 461.15,-237.55 435.07,-228.01"/>
<polygon fill="#63b8ff" stroke="#63b8ff" points="522.75,-263.81 533.35,-263.95 525.16,-257.23 522.75,-263.81"/>
</a>
</g>
</g>
<!-- Node7 -->
<g id="Node000007" class="node">
<title>Node7</title>
<g id="a_Node000007"><a xlink:href="sp_8ipp.html" target="_top" xlink:title=" ">
<polygon fill="white" stroke="#666666" points="312.75,-228 180.75,-228 180.75,-198 312.75,-198 312.75,-228"/>
<text text-anchor="start" x="188.75" y="-216" font-family="FreeSans" font-size="10.00">mpqc/chemistry/qc/mra</text>
<text text-anchor="middle" x="246.75" y="-205" font-family="FreeSans" font-size="10.00">/wfn/sp.ipp</text>
</a>
</g>
</g>
<!-- Node3&#45;&gt;Node7 -->
<g id="edge7_Node000003_Node000007" class="edge">
<title>Node3&#45;&gt;Node7</title>
<g id="a_edge7_Node000003_Node000007"><a xlink:title=" ">
<path fill="none" stroke="#63b8ff" d="M495.47,-262.98C440.03,-252.06 365.74,-237.43 312.82,-227.01"/>
<polygon fill="#63b8ff" stroke="#63b8ff" points="495.1,-266.47 505.59,-264.97 496.46,-259.61 495.1,-266.47"/>
</a>
</g>
</g>
<!-- Node9 -->
<g id="Node000009" class="node">
<title>Node9</title>
<g id="a_Node000009"><a xlink:href="chemistry_2qc_2mra_2wfn_2util_8cpp.html" target="_top" xlink:title=" ">
<polygon fill="white" stroke="#666666" points="612.75,-228 480.75,-228 480.75,-198 612.75,-198 612.75,-228"/>
<text text-anchor="start" x="488.75" y="-216" font-family="FreeSans" font-size="10.00">mpqc/chemistry/qc/mra</text>
<text text-anchor="middle" x="546.75" y="-205" font-family="FreeSans" font-size="10.00">/wfn/util.cpp</text>
</a>
</g>
</g>
<!-- Node3&#45;&gt;Node9 -->
<g id="edge11_Node000003_Node000009" class="edge">
<title>Node3&#45;&gt;Node9</title>
<g id="a_edge11_Node000003_Node000009"><a xlink:title=" ">
<path fill="none" stroke="#63b8ff" d="M562.53,-254.39C559.09,-245.59 555.29,-235.86 552.28,-228.16"/>
<polygon fill="#63b8ff" stroke="#63b8ff" points="559.3,-255.76 566.2,-263.8 565.83,-253.21 559.3,-255.76"/>
</a>
</g>
</g>
<!-- Node10 -->
<g id="Node000010" class="node">
<title>Node10</title>
<g id="a_Node000010"><a xlink:href="mra_2wfn_2wfn_8cpp.html" target="_top" xlink:title=" ">
<polygon fill="white" stroke="#666666" points="762.75,-228 630.75,-228 630.75,-198 762.75,-198 762.75,-228"/>
<text text-anchor="start" x="638.75" y="-216" font-family="FreeSans" font-size="10.00">mpqc/chemistry/qc/mra</text>
<text text-anchor="middle" x="696.75" y="-205" font-family="FreeSans" font-size="10.00">/wfn/wfn.cpp</text>
</a>
</g>
</g>
<!-- Node3&#45;&gt;Node10 -->
<g id="edge12_Node000003_Node000010" class="edge">
<title>Node3&#45;&gt;Node10</title>
<g id="a_edge12_Node000003_Node000010"><a xlink:title=" ">
<path fill="none" stroke="#63b8ff" d="M608.12,-259.38C627.68,-249.36 651.41,-237.22 669.38,-228.01"/>
<polygon fill="#63b8ff" stroke="#63b8ff" points="606.49,-256.28 599.18,-263.95 609.68,-262.51 606.49,-256.28"/>
</a>
</g>
</g>
<!-- Node5 -->
<g id="Node000005" class="node">
<title>Node5</title>
<g id="a_Node000005"><a xlink:href="solver_8cpp.html" target="_top" xlink:title=" ">
<polygon fill="white" stroke="#666666" points="509.75,-30 377.75,-30 377.75,0 509.75,0 509.75,-30"/>
<text text-anchor="start" x="385.75" y="-18" font-family="FreeSans" font-size="10.00">mpqc/chemistry/qc/mra</text>
<text text-anchor="middle" x="443.75" y="-7" font-family="FreeSans" font-size="10.00">/scf/solver.cpp</text>
</a>
</g>
</g>
<!-- Node4&#45;&gt;Node5 -->
<g id="edge4_Node000004_Node000005" class="edge">
<title>Node4&#45;&gt;Node5</title>
<g id="a_edge4_Node000004_Node000005"><a xlink:title=" ">
<path fill="none" stroke="#63b8ff" d="M474.25,-57.53C467.56,-48.43 460.05,-38.19 454.15,-30.16"/>
<polygon fill="#63b8ff" stroke="#63b8ff" points="471.58,-59.81 480.32,-65.8 477.22,-55.66 471.58,-59.81"/>
</a>
</g>
</g>
<!-- Node6&#45;&gt;Node5 -->
<g id="edge6_Node000006_Node000005" class="edge">
<title>Node6&#45;&gt;Node5</title>
<g id="a_edge6_Node000006_Node000005"><a xlink:title=" ">
<path fill="none" stroke="#63b8ff" d="M397.11,-187.74C398.18,-158.25 402.06,-107.31 415.75,-66 420.01,-53.16 427.64,-39.85 433.87,-30.19"/>
<polygon fill="#63b8ff" stroke="#63b8ff" points="393.61,-187.83 396.83,-197.92 400.61,-188.02 393.61,-187.83"/>
</a>
</g>
</g>
<!-- Node8 -->
<g id="Node000008" class="node">
<title>Node8</title>
<g id="a_Node000008"><a xlink:href="chemistry_2qc_2mra_2wfn_2sp_8h.html" target="_top" xlink:title=" ">
<polygon fill="white" stroke="#666666" points="312.75,-162 180.75,-162 180.75,-132 312.75,-132 312.75,-162"/>
<text text-anchor="start" x="188.75" y="-150" font-family="FreeSans" font-size="10.00">mpqc/chemistry/qc/mra</text>
<text text-anchor="middle" x="246.75" y="-139" font-family="FreeSans" font-size="10.00">/wfn/sp.h</text>
</a>
</g>
</g>
<!-- Node7&#45;&gt;Node8 -->
<g id="edge8_Node000007_Node000008" class="edge">
<title>Node7&#45;&gt;Node8</title>
<g id="a_edge8_Node000007_Node000008"><a xlink:title=" ">
<path fill="none" stroke="#63b8ff" d="M240.18,-187.83C239.77,-179.17 240.06,-169.7 241.04,-162.16"/>
<polygon fill="#63b8ff" stroke="#63b8ff" points="236.7,-188.13 241.03,-197.8 243.67,-187.54 236.7,-188.13"/>
</a>
</g>
</g>
<!-- Node8&#45;&gt;Node4 -->
<g id="edge9_Node000008_Node000004" class="edge">
<title>Node8&#45;&gt;Node4</title>
<g id="a_edge9_Node000008_Node000004"><a xlink:title=" ">
<path fill="none" stroke="#63b8ff" d="M310.09,-129.39C349.59,-119.03 399.85,-105.84 437.33,-96.01"/>
<polygon fill="#63b8ff" stroke="#63b8ff" points="309.08,-126.03 300.3,-131.95 310.86,-132.8 309.08,-126.03"/>
</a>
</g>
</g>
<!-- Node8&#45;&gt;Node7 -->
<g id="edge10_Node000008_Node000007" class="edge">
<title>Node8&#45;&gt;Node7</title>
<g id="a_edge10_Node000008_Node000007"><a xlink:title=" ">
<path fill="none" stroke="#63b8ff" d="M253.32,-172.13C253.73,-180.78 253.45,-190.26 252.47,-197.8"/>
<polygon fill="#63b8ff" stroke="#63b8ff" points="256.8,-171.83 252.47,-162.16 249.83,-172.43 256.8,-171.83"/>
</a>
</g>
</g>
<!-- Node11&#45;&gt;Node2 -->
<g id="edge14_Node000011_Node000002" class="edge">
<title>Node11&#45;&gt;Node2</title>
<g id="a_edge14_Node000011_Node000002"><a xlink:title=" ">
<path fill="none" stroke="#63b8ff" d="M430.11,-298.89C430.93,-309.31 430.46,-321.75 428.71,-329.87"/>
<polygon fill="#63b8ff" stroke="#63b8ff" points="433.54,-298.1 428.71,-288.67 426.6,-299.05 433.54,-298.1"/>
</a>
</g>
</g>
<!-- Node12&#45;&gt;Node8 -->
<g id="edge21_Node000012_Node000008" class="edge">
<title>Node12&#45;&gt;Node8</title>
<g id="a_edge21_Node000012_Node000008"><a xlink:title=" ">
<path fill="none" stroke="#63b8ff" d="M111.98,-328.09C73.81,-320.62 31.28,-309.2 19.75,-294 -6.03,-260.01 -6.98,-231.26 19.75,-198 39.66,-173.23 120.99,-160.01 180.64,-153.51"/>
<polygon fill="#63b8ff" stroke="#63b8ff" points="111.6,-331.58 122.08,-330 112.9,-324.7 111.6,-331.58"/>
</a>
</g>
</g>
<!-- Node13 -->
<g id="Node000013" class="node">
<title>Node13</title>
<g id="a_Node000013"><a xlink:href="mra_8h.html" target="_top" xlink:title=" ">
<polygon fill="white" stroke="#666666" points="162.25,-294 29.25,-294 29.25,-264 162.25,-264 162.25,-294"/>
<text text-anchor="start" x="37.25" y="-282" font-family="FreeSans" font-size="10.00">mpqc/chemistry/qc/lcao</text>
<text text-anchor="middle" x="95.75" y="-271" font-family="FreeSans" font-size="10.00">/basis/gaussian/mra.h</text>
</a>
</g>
</g>
<!-- Node12&#45;&gt;Node13 -->
<g id="edge16_Node000012_Node000013" class="edge">
<title>Node12&#45;&gt;Node13</title>
<g id="a_edge16_Node000012_Node000013"><a xlink:title=" ">
<path fill="none" stroke="#63b8ff" d="M158.22,-324.03C145.27,-314.9 128.63,-303.17 115.78,-294.11"/>
<polygon fill="#63b8ff" stroke="#63b8ff" points="156.31,-326.97 166.5,-329.87 160.35,-321.25 156.31,-326.97"/>
</a>
</g>
</g>
<!-- Node15 -->
<g id="Node000015" class="node">
<title>Node15</title>
<g id="a_Node000015"><a xlink:href="mra_2gaussian_8cpp.html" target="_top" xlink:title=" ">
<polygon fill="white" stroke="#666666" points="341.25,-288.5 180.25,-288.5 180.25,-269.5 341.25,-269.5 341.25,-288.5"/>
<text text-anchor="middle" x="260.75" y="-276.5" font-family="FreeSans" font-size="10.00">mpqc/math/mra/gaussian.cpp</text>
</a>
</g>
</g>
<!-- Node12&#45;&gt;Node15 -->
<g id="edge22_Node000012_Node000015" class="edge">
<title>Node12&#45;&gt;Node15</title>
<g id="a_edge22_Node000012_Node000015"><a xlink:title=" ">
<path fill="none" stroke="#63b8ff" d="M199.29,-323.85C214.82,-312.77 235.62,-297.93 248.6,-288.67"/>
<polygon fill="#63b8ff" stroke="#63b8ff" points="196.96,-321.21 190.85,-329.87 201.02,-326.91 196.96,-321.21"/>
</a>
</g>
</g>
<!-- Node13&#45;&gt;Node6 -->
<g id="edge19_Node000013_Node000006" class="edge">
<title>Node13&#45;&gt;Node6</title>
<g id="a_edge19_Node000013_Node000006"><a xlink:title=" ">
<path fill="none" stroke="#63b8ff" d="M171.73,-261.84C220.77,-251.42 283.93,-237.99 330.85,-228.01"/>
<polygon fill="#63b8ff" stroke="#63b8ff" points="170.86,-258.45 161.81,-263.95 172.32,-265.3 170.86,-258.45"/>
</a>
</g>
</g>
<!-- Node13&#45;&gt;Node7 -->
<g id="edge20_Node000013_Node000007" class="edge">
<title>Node13&#45;&gt;Node7</title>
<g id="a_edge20_Node000013_Node000007"><a xlink:title=" ">
<path fill="none" stroke="#63b8ff" d="M138.41,-259.92C162.28,-249.8 191.58,-237.38 213.69,-228.01"/>
<polygon fill="#63b8ff" stroke="#63b8ff" points="136.73,-256.83 128.89,-263.95 139.46,-263.28 136.73,-256.83"/>
</a>
</g>
</g>
<!-- Node14 -->
<g id="Node000014" class="node">
<title>Node14</title>
<g id="a_Node000014"><a xlink:href="mra_8ipp.html" target="_top" xlink:title=" ">
<polygon fill="white" stroke="#666666" points="162.25,-228 29.25,-228 29.25,-198 162.25,-198 162.25,-228"/>
<text text-anchor="start" x="37.25" y="-216" font-family="FreeSans" font-size="10.00">mpqc/chemistry/qc/lcao</text>
<text text-anchor="middle" x="95.75" y="-205" font-family="FreeSans" font-size="10.00">/basis/gaussian/mra.ipp</text>
</a>
</g>
</g>
<!-- Node13&#45;&gt;Node14 -->
<g id="edge17_Node000013_Node000014" class="edge">
<title>Node13&#45;&gt;Node14</title>
<g id="a_edge17_Node000013_Node000014"><a xlink:title=" ">
<path fill="none" stroke="#63b8ff" d="M89.18,-253.83C88.77,-245.17 89.06,-235.7 90.04,-228.16"/>
<polygon fill="#63b8ff" stroke="#63b8ff" points="85.7,-254.13 90.03,-263.8 92.67,-253.54 85.7,-254.13"/>
</a>
</g>
</g>
<!-- Node14&#45;&gt;Node13 -->
<g id="edge18_Node000014_Node000013" class="edge">
<title>Node14&#45;&gt;Node13</title>
<g id="a_edge18_Node000014_Node000013"><a xlink:title=" ">
<path fill="none" stroke="#63b8ff" d="M102.32,-238.13C102.73,-246.78 102.45,-256.26 101.47,-263.8"/>
<polygon fill="#63b8ff" stroke="#63b8ff" points="105.8,-237.83 101.47,-228.16 98.83,-238.43 105.8,-237.83"/>
</a>
</g>
</g>
</g>
</svg>
