<?xml version="1.0" encoding="UTF-8" standalone="no"?>
<!DOCTYPE svg PUBLIC "-//W3C//DTD SVG 1.1//EN"
 "http://www.w3.org/Graphics/SVG/1.1/DTD/svg11.dtd">
<!-- Generated by graphviz version 2.43.0 (0)
 -->
<!-- Title: mpqc::FullCreAnnPairGenerator&lt; String, RCa, RCb, RAa, RAb &gt; Pages: 1 -->
<svg width="615pt" height="60pt"
 viewBox="0.00 0.00 615.00 60.00" xmlns="http://www.w3.org/2000/svg" xmlns:xlink="http://www.w3.org/1999/xlink">
<g id="graph0" class="graph" transform="scale(1 1) rotate(0) translate(4 56)">
<title>mpqc::FullCreAnnPairGenerator&lt; String, RCa, RCb, RAa, RAb &gt;</title>
<!-- Node1 -->
<g id="Node000001" class="node">
<title>Node1</title>
<g id="a_Node000001"><a xlink:title=" ">
<polygon fill="#999999" stroke="#666666" points="607,-41 437,-41 437,-11 607,-11 607,-41"/>
<text text-anchor="start" x="445" y="-29" font-family="FreeSans" font-size="10.00">mpqc::FullCreAnnPairGenerator</text>
<text text-anchor="middle" x="522" y="-18" font-family="FreeSans" font-size="10.00">&lt; String, RCa, RCb, RAa, RAb &gt;</text>
</a>
</g>
</g>
<!-- Node2 -->
<g id="Node000002" class="node">
<title>Node2</title>
<g id="a_Node000002"><a xlink:href="structmpqc_1_1utility_1_1_tensor_product_generator.html" target="_top" xlink:title="Tensor product of generators.">
<polygon fill="white" stroke="#666666" points="401,-41 249,-41 249,-11 401,-11 401,-41"/>
<text text-anchor="start" x="257" y="-29" font-family="FreeSans" font-size="10.00">mpqc::utility::TensorProduct</text>
<text text-anchor="middle" x="325" y="-18" font-family="FreeSans" font-size="10.00">Generator&lt; Generators &gt;</text>
</a>
</g>
</g>
<!-- Node2&#45;&gt;Node1 -->
<g id="edge1_Node000001_Node000002" class="edge">
<title>Node2&#45;&gt;Node1</title>
<g id="a_edge1_Node000001_Node000002"><a xlink:title=" ">
<path fill="none" stroke="#63b8ff" d="M411.35,-26C419.81,-26 428.39,-26 436.84,-26"/>
<polygon fill="#63b8ff" stroke="#63b8ff" points="411.11,-22.5 401.11,-26 411.11,-29.5 411.11,-22.5"/>
</a>
</g>
</g>
<!-- Node3 -->
<g id="Node000003" class="node">
<title>Node3</title>
<g id="a_Node000003"><a xlink:title=" ">
<polygon fill="white" stroke="#666666" points="213,-52 0,-52 0,0 213,0 213,-52"/>
<text text-anchor="start" x="8" y="-40" font-family="FreeSans" font-size="10.00">mpqc::utility::Generator</text>
<text text-anchor="start" x="8" y="-29" font-family="FreeSans" font-size="10.00">RangeFacade&lt; TensorProductGenerator</text>
<text text-anchor="start" x="8" y="-18" font-family="FreeSans" font-size="10.00">&lt; Generators... &gt;, std::tuple</text>
<text text-anchor="middle" x="106.5" y="-7" font-family="FreeSans" font-size="10.00">&lt; const Generators::value_type &amp;... &gt; &gt;</text>
</a>
</g>
</g>
<!-- Node3&#45;&gt;Node2 -->
<g id="edge2_Node000002_Node000003" class="edge">
<title>Node3&#45;&gt;Node2</title>
<g id="a_edge2_Node000002_Node000003"><a xlink:title=" ">
<path fill="none" stroke="#63b8ff" d="M223.35,-26C231.98,-26 240.54,-26 248.81,-26"/>
<polygon fill="#63b8ff" stroke="#63b8ff" points="223.21,-22.5 213.21,-26 223.21,-29.5 223.21,-22.5"/>
</a>
</g>
</g>
</g>
</svg>
