<?xml version="1.0" encoding="UTF-8" standalone="no"?>
<!DOCTYPE svg PUBLIC "-//W3C//DTD SVG 1.1//EN"
 "http://www.w3.org/Graphics/SVG/1.1/DTD/svg11.dtd">
<!-- Generated by graphviz version 2.43.0 (0)
 -->
<!-- Title: mpqc::HBStringReplacementGenerator&lt; RC, RA, String, AbsHBData, T &gt; Pages: 1 -->
<svg width="585pt" height="60pt"
 viewBox="0.00 0.00 585.00 60.00" xmlns="http://www.w3.org/2000/svg" xmlns:xlink="http://www.w3.org/1999/xlink">
<g id="graph0" class="graph" transform="scale(1 1) rotate(0) translate(4 56)">
<title>mpqc::HBStringReplacementGenerator&lt; RC, RA, String, AbsHBData, T &gt;</title>
<!-- Node1 -->
<g id="Node000001" class="node">
<title>Node1</title>
<g id="a_Node000001"><a xlink:title=" ">
<polygon fill="#999999" stroke="#666666" points="577,-46.5 420,-46.5 420,-5.5 577,-5.5 577,-46.5"/>
<text text-anchor="start" x="428" y="-34.5" font-family="FreeSans" font-size="10.00">mpqc::HBStringReplacement</text>
<text text-anchor="start" x="428" y="-23.5" font-family="FreeSans" font-size="10.00">Generator&lt; RC, RA, String,</text>
<text text-anchor="middle" x="498.5" y="-12.5" font-family="FreeSans" font-size="10.00"> AbsHBData, T &gt;</text>
</a>
</g>
</g>
<!-- Node2 -->
<g id="Node000002" class="node">
<title>Node2</title>
<g id="a_Node000002"><a xlink:href="classmpqc_1_1utility_1_1_filtered_generator.html" target="_top" xlink:title=" ">
<polygon fill="white" stroke="#666666" points="384,-41 215,-41 215,-11 384,-11 384,-41"/>
<text text-anchor="start" x="223" y="-29" font-family="FreeSans" font-size="10.00">mpqc::utility::FilteredGenerator</text>
<text text-anchor="middle" x="299.5" y="-18" font-family="FreeSans" font-size="10.00">&lt; BaseGenerator, Filter &gt;</text>
</a>
</g>
</g>
<!-- Node2&#45;&gt;Node1 -->
<g id="edge1_Node000001_Node000002" class="edge">
<title>Node2&#45;&gt;Node1</title>
<g id="a_edge1_Node000001_Node000002"><a xlink:title=" ">
<path fill="none" stroke="#63b8ff" d="M394.1,-26C402.7,-26 411.34,-26 419.78,-26"/>
<polygon fill="#63b8ff" stroke="#63b8ff" points="394.05,-22.5 384.05,-26 394.05,-29.5 394.05,-22.5"/>
</a>
</g>
</g>
<!-- Node3 -->
<g id="Node000003" class="node">
<title>Node3</title>
<g id="a_Node000003"><a xlink:href="structmpqc_1_1utility_1_1_generator_range_facade.html" target="_top" xlink:title=" ">
<polygon fill="white" stroke="#666666" points="179,-52 0,-52 0,0 179,0 179,-52"/>
<text text-anchor="start" x="8" y="-40" font-family="FreeSans" font-size="10.00">mpqc::utility::Generator</text>
<text text-anchor="start" x="8" y="-29" font-family="FreeSans" font-size="10.00">RangeFacade&lt; GeneratorAdaptor</text>
<text text-anchor="start" x="8" y="-18" font-family="FreeSans" font-size="10.00">&lt; BaseGenerator, Filter &gt;,</text>
<text text-anchor="middle" x="89.5" y="-7" font-family="FreeSans" font-size="10.00"> BaseGenerator::value_type &gt;</text>
</a>
</g>
</g>
<!-- Node3&#45;&gt;Node2 -->
<g id="edge2_Node000002_Node000003" class="edge">
<title>Node3&#45;&gt;Node2</title>
<g id="a_edge2_Node000002_Node000003"><a xlink:title=" ">
<path fill="none" stroke="#63b8ff" d="M189.05,-26C197.62,-26 206.25,-26 214.7,-26"/>
<polygon fill="#63b8ff" stroke="#63b8ff" points="189.01,-22.5 179.01,-26 189.01,-29.5 189.01,-22.5"/>
</a>
</g>
</g>
</g>
</svg>
