<?xml version="1.0" encoding="UTF-8" standalone="no"?>
<!DOCTYPE svg PUBLIC "-//W3C//DTD SVG 1.1//EN"
 "http://www.w3.org/Graphics/SVG/1.1/DTD/svg11.dtd">
<!-- Generated by graphviz version 2.43.0 (0)
 -->
<!-- Title: mpqc::PrimitiveOperatorPairGenerator&lt; CreAnnPairGenerator &gt; Pages: 1 -->
<svg width="641pt" height="104pt"
 viewBox="0.00 0.00 641.00 104.00" xmlns="http://www.w3.org/2000/svg" xmlns:xlink="http://www.w3.org/1999/xlink">
<g id="graph0" class="graph" transform="scale(1 1) rotate(0) translate(4 100)">
<title>mpqc::PrimitiveOperatorPairGenerator&lt; CreAnnPairGenerator &gt;</title>
<!-- Node1 -->
<g id="Node000001" class="node">
<title>Node1</title>
<g id="a_Node000001"><a xlink:title=" ">
<polygon fill="#999999" stroke="#666666" points="633,-63 443,-63 443,-33 633,-33 633,-63"/>
<text text-anchor="start" x="451" y="-51" font-family="FreeSans" font-size="10.00">mpqc::PrimitiveOperatorPair</text>
<text text-anchor="middle" x="538" y="-40" font-family="FreeSans" font-size="10.00">Generator&lt; CreAnnPairGenerator &gt;</text>
</a>
</g>
</g>
<!-- Node2 -->
<g id="Node000002" class="node">
<title>Node2</title>
<g id="a_Node000002"><a xlink:title=" ">
<polygon fill="white" stroke="#666666" points="407,-96 180,-96 180,0 407,0 407,-96"/>
<text text-anchor="start" x="188" y="-84" font-family="FreeSans" font-size="10.00">mpqc::utility::Generator</text>
<text text-anchor="start" x="188" y="-73" font-family="FreeSans" font-size="10.00">Adaptor&lt; CreAnnPairGenerator,</text>
<text text-anchor="start" x="188" y="-62" font-family="FreeSans" font-size="10.00"> decltype(make_opers_from</text>
<text text-anchor="start" x="188" y="-51" font-family="FreeSans" font-size="10.00">_tuples&lt; std::decay_t&lt; std</text>
<text text-anchor="start" x="188" y="-40" font-family="FreeSans" font-size="10.00">::tuple_element_t&lt; 0, CreAnnPairGenerator</text>
<text text-anchor="start" x="188" y="-29" font-family="FreeSans" font-size="10.00">::value_type &gt; &gt;, std::decay_t&lt; std</text>
<text text-anchor="start" x="188" y="-18" font-family="FreeSans" font-size="10.00">::tuple_element_t&lt; 1, CreAnnPairGenerator</text>
<text text-anchor="middle" x="293.5" y="-7" font-family="FreeSans" font-size="10.00">::value_type &gt; &gt; &gt;)&gt;</text>
</a>
</g>
</g>
<!-- Node2&#45;&gt;Node1 -->
<g id="edge1_Node000001_Node000002" class="edge">
<title>Node2&#45;&gt;Node1</title>
<g id="a_edge1_Node000001_Node000002"><a xlink:title=" ">
<path fill="none" stroke="#63b8ff" d="M417.27,-48C425.82,-48 434.36,-48 442.72,-48"/>
<polygon fill="#63b8ff" stroke="#63b8ff" points="417.23,-44.5 407.23,-48 417.23,-51.5 417.23,-44.5"/>
</a>
</g>
</g>
<!-- Node3 -->
<g id="Node000003" class="node">
<title>Node3</title>
<g id="a_Node000003"><a xlink:href="structmpqc_1_1utility_1_1_generator_range_facade.html" target="_top" xlink:title="To make a Generator behave as a range use this as a CRTP base.">
<polygon fill="white" stroke="#666666" points="144,-68.5 0,-68.5 0,-27.5 144,-27.5 144,-68.5"/>
<text text-anchor="start" x="8" y="-56.5" font-family="FreeSans" font-size="10.00">mpqc::utility::Generator</text>
<text text-anchor="start" x="8" y="-45.5" font-family="FreeSans" font-size="10.00">RangeFacade&lt; Generator,</text>
<text text-anchor="middle" x="72" y="-34.5" font-family="FreeSans" font-size="10.00"> Value &gt;</text>
</a>
</g>
</g>
<!-- Node3&#45;&gt;Node2 -->
<g id="edge2_Node000002_Node000003" class="edge">
<title>Node3&#45;&gt;Node2</title>
<g id="a_edge2_Node000002_Node000003"><a xlink:title=" ">
<path fill="none" stroke="#63b8ff" d="M154.29,-48C162.61,-48 171.17,-48 179.75,-48"/>
<polygon fill="#63b8ff" stroke="#63b8ff" points="154.27,-44.5 144.27,-48 154.27,-51.5 154.27,-44.5"/>
</a>
</g>
</g>
</g>
</svg>
