<?xml version="1.0" encoding="UTF-8" standalone="no"?>
<!DOCTYPE svg PUBLIC "-//W3C//DTD SVG 1.1//EN"
 "http://www.w3.org/Graphics/SVG/1.1/DTD/svg11.dtd">
<!-- Generated by graphviz version 2.43.0 (0)
 -->
<!-- Title: mpqc::math::mra::RealSolidHarmonicGaussian Pages: 1 -->
<svg width="344pt" height="225pt"
 viewBox="0.00 0.00 344.00 225.00" xmlns="http://www.w3.org/2000/svg" xmlns:xlink="http://www.w3.org/1999/xlink">

<svg id="main" version="1.1" xmlns="http://www.w3.org/2000/svg" xmlns:xlink="http://www.w3.org/1999/xlink" xml:space="preserve" onload="init(evt)">
<style type="text/css"><![CDATA[
.node, .edge {opacity: 0.7;}
.node.selected, .edge.selected {opacity: 1;}
.edge:hover path { stroke: red; }
.edge:hover polygon { stroke: red; fill: red; }
]]></style>
<script type="application/ecmascript" xlink:href="svg.min.js"/>
<svg id="graph" class="graph">
<g id="graph0" class="graph" transform="scale(1 1) rotate(0) translate(4 221)">
<title>mpqc::math::mra::RealSolidHarmonicGaussian</title>
<!-- Node1 -->
<g id="Node000001" class="node">
<title>Node1</title>
<g id="a_Node000001"><a xlink:title=" ">
<polygon fill="#999999" stroke="#666666" points="236,-30 84,-30 84,0 236,0 236,-30"/>
<text text-anchor="start" x="92" y="-18" font-family="FreeSans" font-size="10.00">mpqc::math::mra::RealSolid</text>
<text text-anchor="middle" x="160" y="-7" font-family="FreeSans" font-size="10.00">HarmonicGaussian</text>
</a>
</g>
</g>
<!-- Node2 -->
<g id="Node000002" class="node">
<title>Node2</title>
<g id="a_Node000002"><a xlink:title=" ">
<polygon fill="white" stroke="#666666" points="144,-96 0,-96 0,-66 144,-66 144,-96"/>
<text text-anchor="start" x="8" y="-84" font-family="FreeSans" font-size="10.00">madness::FunctionFunctor</text>
<text text-anchor="middle" x="72" y="-73" font-family="FreeSans" font-size="10.00">Interface&lt; double, 3 &gt;</text>
</a>
</g>
</g>
<!-- Node2&#45;&gt;Node1 -->
<g id="edge1_Node000001_Node000002" class="edge">
<title>Node2&#45;&gt;Node1</title>
<g id="a_edge1_Node000001_Node000002"><a xlink:title=" ">
<path fill="none" stroke="#63b8ff" d="M99.84,-59.75C113.07,-50.13 128.57,-38.86 140.52,-30.16"/>
<polygon fill="#63b8ff" stroke="#63b8ff" points="97.56,-57.08 91.53,-65.8 101.68,-62.75 97.56,-57.08"/>
</a>
</g>
</g>
<!-- Node3 -->
<g id="Node000003" class="node">
<title>Node3</title>
<g id="a_Node000003"><a xlink:href="classmpqc_1_1math_1_1_real_solid_harmonic.html" target="_top" xlink:title=" ">
<polygon fill="white" stroke="#666666" points="336,-90.5 162,-90.5 162,-71.5 336,-71.5 336,-90.5"/>
<text text-anchor="middle" x="249" y="-78.5" font-family="FreeSans" font-size="10.00">mpqc::math::RealSolidHarmonic</text>
</a>
</g>
</g>
<!-- Node3&#45;&gt;Node1 -->
<g id="edge2_Node000001_Node000003" class="edge">
<title>Node3&#45;&gt;Node1</title>
<g id="a_edge2_Node000001_Node000003"><a xlink:title=" ">
<path fill="none" stroke="#8b1a1a" d="M228.58,-65.32C213.88,-54.74 194.15,-40.56 179.63,-30.12"/>
<polygon fill="#8b1a1a" stroke="#8b1a1a" points="226.83,-68.37 237,-71.37 230.92,-62.69 226.83,-68.37"/>
</a>
</g>
</g>
<!-- Node4 -->
<g id="Node000004" class="node">
<title>Node4</title>
<g id="a_Node000004"><a xlink:href="classmpqc_1_1math_1_1_real_spherical_harmonic.html" target="_top" xlink:title=" ">
<polygon fill="white" stroke="#666666" points="323,-162 175,-162 175,-132 323,-132 323,-162"/>
<text text-anchor="start" x="183" y="-150" font-family="FreeSans" font-size="10.00">mpqc::math::RealSpherical</text>
<text text-anchor="middle" x="249" y="-139" font-family="FreeSans" font-size="10.00">Harmonic</text>
</a>
</g>
</g>
<!-- Node4&#45;&gt;Node3 -->
<g id="edge3_Node000003_Node000004" class="edge">
<title>Node4&#45;&gt;Node3</title>
<g id="a_edge3_Node000003_Node000004"><a xlink:title=" ">
<path fill="none" stroke="#8b1a1a" d="M249,-121.6C249,-110.8 249,-98.78 249,-90.84"/>
<polygon fill="#8b1a1a" stroke="#8b1a1a" points="245.5,-121.8 249,-131.8 252.5,-121.8 245.5,-121.8"/>
</a>
</g>
</g>
<!-- Node5 -->
<g id="Node000005" class="node">
<title>Node5</title>
<g id="a_Node000005"><a xlink:href="classmpqc_1_1math_1_1_spherical_harmonic.html" target="_top" xlink:title=" ">
<polygon fill="white" stroke="#666666" points="335.5,-217 162.5,-217 162.5,-198 335.5,-198 335.5,-217"/>
<text text-anchor="middle" x="249" y="-205" font-family="FreeSans" font-size="10.00">mpqc::math::SphericalHarmonic</text>
</a>
</g>
</g>
<!-- Node5&#45;&gt;Node4 -->
<g id="edge4_Node000004_Node000005" class="edge">
<title>Node5&#45;&gt;Node4</title>
<g id="a_edge4_Node000004_Node000005"><a xlink:title=" ">
<path fill="none" stroke="darkgreen" d="M249,-187.65C249,-179.36 249,-169.78 249,-162.11"/>
<polygon fill="darkgreen" stroke="darkgreen" points="245.5,-187.87 249,-197.87 252.5,-187.87 245.5,-187.87"/>
</a>
</g>
</g>
</g>
</svg>
</svg>

<style type='text/css'>
<![CDATA[
[data-mouse-over-selected='false'] { opacity: 0.7; }
[data-mouse-over-selected='true']  { opacity: 1.0; }
]]>
</style>
<script type="application/ecmascript"><![CDATA[
document.addEventListener('DOMContentLoaded', (event) => {
  highlightEdges();
  highlightAdjacentNodes();
});
]]></script>
</svg>
