<?xml version="1.0" encoding="UTF-8" standalone="no"?>
<!DOCTYPE svg PUBLIC "-//W3C//DTD SVG 1.1//EN"
 "http://www.w3.org/Graphics/SVG/1.1/DTD/svg11.dtd">
<!-- Generated by graphviz version 2.43.0 (0)
 -->
<!-- Title: mpqc::SlaterDeterminantSparseMatrix&lt; String, Spin, Attribute &gt; Pages: 1 -->
<svg width="683pt" height="86pt"
 viewBox="0.00 0.00 683.00 86.00" xmlns="http://www.w3.org/2000/svg" xmlns:xlink="http://www.w3.org/1999/xlink">
<g id="graph0" class="graph" transform="scale(1 1) rotate(0) translate(4 82)">
<title>mpqc::SlaterDeterminantSparseMatrix&lt; String, Spin, Attribute &gt;</title>
<!-- Node1 -->
<g id="Node000001" class="node">
<title>Node1</title>
<g id="a_Node000001"><a xlink:title="A (sparse) set of Slater determinants represented as a sparse matrix.">
<polygon fill="#999999" stroke="#666666" points="675,-54 500,-54 500,-24 675,-24 675,-54"/>
<text text-anchor="start" x="508" y="-42" font-family="FreeSans" font-size="10.00">mpqc::SlaterDeterminantSparse</text>
<text text-anchor="middle" x="587.5" y="-31" font-family="FreeSans" font-size="10.00">Matrix&lt; String, Spin, Attribute &gt;</text>
</a>
</g>
</g>
<!-- Node2 -->
<g id="Node000002" class="node">
<title>Node2</title>
<g id="a_Node000002"><a xlink:title=" ">
<polygon fill="white" stroke="#666666" points="463,-76 249,-76 249,-2 463,-2 463,-76"/>
<text text-anchor="start" x="257" y="-64" font-family="FreeSans" font-size="10.00">mpqc::StringToSortedVector</text>
<text text-anchor="start" x="257" y="-53" font-family="FreeSans" font-size="10.00">&lt; String, std::pair&lt; SlaterDeterminant</text>
<text text-anchor="start" x="257" y="-42" font-family="FreeSans" font-size="10.00">&lt; String &gt;, std::tuple&lt; std::int64</text>
<text text-anchor="start" x="257" y="-31" font-family="FreeSans" font-size="10.00">_t, Attribute &gt; &gt;, utility::sdhashcompare</text>
<text text-anchor="start" x="257" y="-20" font-family="FreeSans" font-size="10.00">&lt; String, flip(Spin)&gt;, utility::sdequal</text>
<text text-anchor="middle" x="356" y="-9" font-family="FreeSans" font-size="10.00">&lt; String, flip(Spin)&gt; &gt;</text>
</a>
</g>
</g>
<!-- Node2&#45;&gt;Node1 -->
<g id="edge1_Node000001_Node000002" class="edge">
<title>Node2&#45;&gt;Node1</title>
<g id="a_edge1_Node000001_Node000002"><a xlink:title=" ">
<path fill="none" stroke="#63b8ff" d="M473.15,-39C482.13,-39 491.11,-39 499.84,-39"/>
<polygon fill="#63b8ff" stroke="#63b8ff" points="473.02,-35.5 463.02,-39 473.02,-42.5 473.02,-35.5"/>
</a>
</g>
</g>
<!-- Node3 -->
<g id="Node000003" class="node">
<title>Node3</title>
<g id="a_Node000003"><a xlink:title=" ">
<polygon fill="white" stroke="#666666" points="161,-78 0,-78 0,-48 161,-48 161,-78"/>
<text text-anchor="start" x="8" y="-66" font-family="FreeSans" font-size="10.00">mpqc::utility::sdhashcompare</text>
<text text-anchor="middle" x="80.5" y="-55" font-family="FreeSans" font-size="10.00">&lt; String, flip(Spin)&gt;</text>
</a>
</g>
</g>
<!-- Node3&#45;&gt;Node2 -->
<g id="edge2_Node000002_Node000003" class="edge">
<title>Node3&#45;&gt;Node2</title>
<g id="a_edge2_Node000002_Node000003"><a xlink:title=" ">
<path fill="none" stroke="#9a32cd" stroke-dasharray="5,2" d="M171.43,-55.11C196.19,-52.94 223.28,-50.56 248.86,-48.31"/>
<polygon fill="#9a32cd" stroke="#9a32cd" points="171,-51.63 161.34,-55.99 171.61,-58.61 171,-51.63"/>
</a>
</g>
<text text-anchor="middle" x="205" y="-56" font-family="FreeSans" font-size="10.00" fill="grey"> compare_</text>
</g>
<!-- Node4 -->
<g id="Node000004" class="node">
<title>Node4</title>
<g id="a_Node000004"><a xlink:title=" ">
<polygon fill="white" stroke="#666666" points="141.5,-30 19.5,-30 19.5,0 141.5,0 141.5,-30"/>
<text text-anchor="start" x="27.5" y="-18" font-family="FreeSans" font-size="10.00">mpqc::utility::sdequal</text>
<text text-anchor="middle" x="80.5" y="-7" font-family="FreeSans" font-size="10.00">&lt; String, flip(Spin)&gt;</text>
</a>
</g>
</g>
<!-- Node4&#45;&gt;Node2 -->
<g id="edge3_Node000002_Node000004" class="edge">
<title>Node4&#45;&gt;Node2</title>
<g id="a_edge3_Node000002_Node000004"><a xlink:title=" ">
<path fill="none" stroke="#9a32cd" stroke-dasharray="5,2" d="M151.73,-21.16C181.26,-23.75 216.26,-26.83 248.83,-29.68"/>
<polygon fill="#9a32cd" stroke="#9a32cd" points="151.79,-17.65 141.52,-20.27 151.18,-24.63 151.79,-17.65"/>
</a>
</g>
<text text-anchor="middle" x="205" y="-30" font-family="FreeSans" font-size="10.00" fill="grey"> equal_</text>
</g>
</g>
</svg>
