<?xml version="1.0" encoding="UTF-8" standalone="no"?>
<!DOCTYPE svg PUBLIC "-//W3C//DTD SVG 1.1//EN"
 "http://www.w3.org/Graphics/SVG/1.1/DTD/svg11.dtd">
<!-- Generated by graphviz version 2.43.0 (0)
 -->
<!-- Title: mpqc::python::properties::PyProvides&lt; Property &gt; Pages: 1 -->
<svg width="262pt" height="148pt"
 viewBox="0.00 0.00 261.50 148.00" xmlns="http://www.w3.org/2000/svg" xmlns:xlink="http://www.w3.org/1999/xlink">
<g id="graph0" class="graph" transform="scale(1 1) rotate(0) translate(4 144)">
<title>mpqc::python::properties::PyProvides&lt; Property &gt;</title>
<!-- Node1 -->
<g id="Node000001" class="node">
<title>Node1</title>
<g id="a_Node000001"><a xlink:title=" ">
<polygon fill="#999999" stroke="#666666" points="190,-30 50,-30 50,0 190,0 190,-30"/>
<text text-anchor="start" x="58" y="-18" font-family="FreeSans" font-size="10.00">mpqc::python::properties</text>
<text text-anchor="middle" x="120" y="-7" font-family="FreeSans" font-size="10.00">::PyProvides&lt; Property &gt;</text>
</a>
</g>
</g>
<!-- Node2 -->
<g id="Node000002" class="node">
<title>Node2</title>
<g id="a_Node000002"><a xlink:href="classmpqc_1_1_provides_3_01_property_01_4.html" target="_top" xlink:title=" ">
<polygon fill="white" stroke="#666666" points="197.5,-85 42.5,-85 42.5,-66 197.5,-66 197.5,-85"/>
<text text-anchor="middle" x="120" y="-73" font-family="FreeSans" font-size="10.00">mpqc::Provides&lt; Property &gt;</text>
</a>
</g>
</g>
<!-- Node2&#45;&gt;Node1 -->
<g id="edge1_Node000001_Node000002" class="edge">
<title>Node2&#45;&gt;Node1</title>
<g id="a_edge1_Node000001_Node000002"><a xlink:title=" ">
<path fill="none" stroke="#63b8ff" d="M120,-55.65C120,-47.36 120,-37.78 120,-30.11"/>
<polygon fill="#63b8ff" stroke="#63b8ff" points="116.5,-55.87 120,-65.87 123.5,-55.87 116.5,-55.87"/>
</a>
</g>
</g>
<!-- Node3 -->
<g id="Node000003" class="node">
<title>Node3</title>
<g id="a_Node000003"><a xlink:title=" ">
<polygon fill="white" stroke="#666666" points="104,-140 0,-140 0,-121 104,-121 104,-140"/>
<text text-anchor="middle" x="52" y="-128" font-family="FreeSans" font-size="10.00">Property::Provider</text>
</a>
</g>
</g>
<!-- Node3&#45;&gt;Node2 -->
<g id="edge2_Node000002_Node000003" class="edge">
<title>Node3&#45;&gt;Node2</title>
<g id="a_edge2_Node000002_Node000003"><a xlink:title=" ">
<path fill="none" stroke="#63b8ff" d="M71.12,-114.6C83.3,-105.11 98.66,-93.13 108.88,-85.17"/>
<polygon fill="#63b8ff" stroke="#63b8ff" points="68.66,-112.08 62.93,-120.98 72.96,-117.6 68.66,-112.08"/>
</a>
</g>
</g>
<!-- Node4 -->
<g id="Node000004" class="node">
<title>Node4</title>
<g id="a_Node000004"><a xlink:href="structmpqc_1_1_property_provider.html" target="_top" xlink:title="utility class to support runtime casting to property provider">
<polygon fill="white" stroke="#666666" points="253.5,-140 122.5,-140 122.5,-121 253.5,-121 253.5,-140"/>
<text text-anchor="middle" x="188" y="-128" font-family="FreeSans" font-size="10.00">mpqc::PropertyProvider</text>
</a>
</g>
</g>
<!-- Node4&#45;&gt;Node2 -->
<g id="edge3_Node000002_Node000004" class="edge">
<title>Node4&#45;&gt;Node2</title>
<g id="a_edge3_Node000002_Node000004"><a xlink:title=" ">
<path fill="none" stroke="#63b8ff" d="M168.88,-114.6C156.7,-105.11 141.34,-93.13 131.12,-85.17"/>
<polygon fill="#63b8ff" stroke="#63b8ff" points="167.04,-117.6 177.07,-120.98 171.34,-112.08 167.04,-117.6"/>
</a>
</g>
</g>
</g>
</svg>
