<?xml version="1.0" encoding="UTF-8" standalone="no"?>
<!DOCTYPE svg PUBLIC "-//W3C//DTD SVG 1.1//EN"
 "http://www.w3.org/Graphics/SVG/1.1/DTD/svg11.dtd">
<!-- Generated by graphviz version 2.43.0 (0)
 -->
<!-- Title: mpqc::lcao::gaussian::ShellPairData Pages: 1 -->
<svg width="240pt" height="170pt"
 viewBox="0.00 0.00 240.00 170.00" xmlns="http://www.w3.org/2000/svg" xmlns:xlink="http://www.w3.org/1999/xlink">
<g id="graph0" class="graph" transform="scale(1 1) rotate(0) translate(4 166)">
<title>mpqc::lcao::gaussian::ShellPairData</title>
<!-- Node1 -->
<g id="Node000001" class="node">
<title>Node1</title>
<g id="a_Node000001"><a xlink:title="aggregate of the Libint2 and SQVl shell&#45;pair data">
<polygon fill="#999999" stroke="#666666" points="169,-30 50,-30 50,0 169,0 169,-30"/>
<text text-anchor="start" x="58" y="-18" font-family="FreeSans" font-size="10.00">mpqc::lcao::gaussian</text>
<text text-anchor="middle" x="109.5" y="-7" font-family="FreeSans" font-size="10.00">::ShellPairData</text>
</a>
</g>
</g>
<!-- Node2 -->
<g id="Node000002" class="node">
<title>Node2</title>
<g id="a_Node000002"><a xlink:title=" ">
<polygon fill="white" stroke="#666666" points="95,-90.5 0,-90.5 0,-71.5 95,-71.5 95,-90.5"/>
<text text-anchor="middle" x="47.5" y="-78.5" font-family="FreeSans" font-size="10.00">libint2::ShellPair</text>
</a>
</g>
</g>
<!-- Node2&#45;&gt;Node1 -->
<g id="edge1_Node000001_Node000002" class="edge">
<title>Node2&#45;&gt;Node1</title>
<g id="a_edge1_Node000001_Node000002"><a xlink:title=" ">
<path fill="none" stroke="#63b8ff" d="M62.85,-64.16C72.88,-53.81 85.86,-40.4 95.59,-30.36"/>
<polygon fill="#63b8ff" stroke="#63b8ff" points="60.31,-61.75 55.86,-71.37 65.33,-66.62 60.31,-61.75"/>
</a>
</g>
</g>
<!-- Node3 -->
<g id="Node000003" class="node">
<title>Node3</title>
<g id="a_Node000003"><a xlink:href="structmpqc_1_1lcao_1_1gaussian_1_1_s_q_vl_shell_pair_data.html" target="_top" xlink:title="This holds shell&#45;specific data relevant to the SVQ(l) integral estimator described in DOI 10....">
<polygon fill="white" stroke="#666666" points="232,-96 113,-96 113,-66 232,-66 232,-96"/>
<text text-anchor="start" x="121" y="-84" font-family="FreeSans" font-size="10.00">mpqc::lcao::gaussian</text>
<text text-anchor="middle" x="172.5" y="-73" font-family="FreeSans" font-size="10.00">::SQVlShellPairData</text>
</a>
</g>
</g>
<!-- Node3&#45;&gt;Node1 -->
<g id="edge2_Node000001_Node000003" class="edge">
<title>Node3&#45;&gt;Node1</title>
<g id="a_edge2_Node000001_Node000003"><a xlink:title=" ">
<path fill="none" stroke="#63b8ff" d="M151.48,-58.65C142.25,-49.27 131.67,-38.53 123.44,-30.16"/>
<polygon fill="#63b8ff" stroke="#63b8ff" points="149.01,-61.13 158.52,-65.8 154,-56.21 149.01,-61.13"/>
</a>
</g>
</g>
<!-- Node4 -->
<g id="Node000004" class="node">
<title>Node4</title>
<g id="a_Node000004"><a xlink:href="structmpqc_1_1lcao_1_1gaussian_1_1_f_m_m_shell_pair_data.html" target="_top" xlink:title="This holds shell&#45;pair&#45;specific data relevant to FMM and related methods.">
<polygon fill="white" stroke="#666666" points="232,-162 113,-162 113,-132 232,-132 232,-162"/>
<text text-anchor="start" x="121" y="-150" font-family="FreeSans" font-size="10.00">mpqc::lcao::gaussian</text>
<text text-anchor="middle" x="172.5" y="-139" font-family="FreeSans" font-size="10.00">::FMMShellPairData</text>
</a>
</g>
</g>
<!-- Node4&#45;&gt;Node3 -->
<g id="edge3_Node000003_Node000004" class="edge">
<title>Node4&#45;&gt;Node3</title>
<g id="a_edge3_Node000003_Node000004"><a xlink:title=" ">
<path fill="none" stroke="#63b8ff" d="M172.5,-121.54C172.5,-112.96 172.5,-103.61 172.5,-96.16"/>
<polygon fill="#63b8ff" stroke="#63b8ff" points="169,-121.8 172.5,-131.8 176,-121.8 169,-121.8"/>
</a>
</g>
</g>
</g>
</svg>
