<?xml version="1.0" encoding="UTF-8" standalone="no"?>
<!DOCTYPE svg PUBLIC "-//W3C//DTD SVG 1.1//EN"
 "http://www.w3.org/Graphics/SVG/1.1/DTD/svg11.dtd">
<!-- Generated by graphviz version 2.43.0 (0)
 -->
<!-- Title: mpqc/math/external/tiledarray/tensor_store.h Pages: 1 -->
<!--zoomable 368 -->

<svg id="main" version="1.1" xmlns="http://www.w3.org/2000/svg" xmlns:xlink="http://www.w3.org/1999/xlink" xml:space="preserve" onload="init(evt)">
<style type="text/css"><![CDATA[
.node, .edge {opacity: 0.7;}
.node.selected, .edge.selected {opacity: 1;}
.edge:hover path { stroke: red; }
.edge:hover polygon { stroke: red; fill: red; }
]]></style>

<defs>
  <circle id="rim" cx="0" cy="0" r="7"/>
  <circle id="rim2" cx="0" cy="0" r="3.5"/>
  <g id="zoomPlus">
    <use xlink:href="#rim" fill="#404040"><set attributeName="fill" to="#808080" begin="zoomplus.mouseover" end="zoomplus.mouseout"/></use>
    <path d="M-4,0h8M0,-4v8" fill="none" stroke="white" stroke-width="1.5" pointer-events="none"/>
  </g>
  <g id="zoomMin">
    <use xlink:href="#rim" fill="#404040"><set attributeName="fill" to="#808080" begin="zoomminus.mouseover" end="zoomminus.mouseout"/></use>
    <path d="M-4,0h8" fill="none" stroke="white" stroke-width="1.5" pointer-events="none"/>
  </g>
  <g id="arrowUp" transform="translate(30 24)">
    <use xlink:href="#rim"/>
    <path pointer-events="none" fill="none" stroke="white" stroke-width="1.5" d="M0,-3.0v7 M-2.5,-0.5L0,-3.0L2.5,-0.5"/>
  </g>
  <g id="arrowRight" transform="rotate(90) translate(36 -43)">
    <use xlink:href="#rim"/>
    <path pointer-events="none" fill="none" stroke="white" stroke-width="1.5" d="M0,-3.0v7 M-2.5,-0.5L0,-3.0L2.5,-0.5"/>
  </g>
  <g id="arrowDown" transform="rotate(180) translate(-30 -48)">
    <use xlink:href="#rim"/>
    <path pointer-events="none" fill="none" stroke="white" stroke-width="1.5" d="M0,-3.0v7 M-2.5,-0.5L0,-3.0L2.5,-0.5"/>
  </g>
  <g id="arrowLeft" transform="rotate(270) translate(-36 17)">
    <use xlink:href="#rim"/>
    <path pointer-events="none" fill="none" stroke="white" stroke-width="1.5" d="M0,-3.0v7 M-2.5,-0.5L0,-3.0L2.5,-0.5"/>
  </g>
  <g id="resetDef">
    <use xlink:href="#rim2" fill="#404040"><set attributeName="fill" to="#808080" begin="reset.mouseover" end="reset.mouseout"/></use>
  </g>
</defs>
<script type="application/ecmascript">
var viewWidth = 832;
var viewHeight = 368;
var sectionId = 'dynsection-1';
</script>
<script type="application/ecmascript" xlink:href="svg.min.js"/>
<svg id="graph" class="graph">
<g id="viewport">
<title>mpqc/math/external/tiledarray/tensor_store.h</title>
<!-- Node1 -->
<g id="Node000001" class="node">
<title>Node1</title>
<g id="a_Node000001"><a xlink:title=" ">
<polygon fill="#999999" stroke="#666666" points="676.5,-360 536.5,-360 536.5,-330 676.5,-330 676.5,-360"/>
<text text-anchor="start" x="544.5" y="-348" font-family="FreeSans" font-size="10.00">mpqc/math/external</text>
<text text-anchor="middle" x="606.5" y="-337" font-family="FreeSans" font-size="10.00">/tiledarray/tensor_store.h</text>
</a>
</g>
</g>
<!-- Node2 -->
<g id="Node000002" class="node">
<title>Node2</title>
<g id="a_Node000002"><a xlink:href="cck__so_8ipp.html" target="_top" xlink:title=" ">
<polygon fill="white" stroke="#666666" points="522,-294 389,-294 389,-264 522,-264 522,-294"/>
<text text-anchor="start" x="397" y="-282" font-family="FreeSans" font-size="10.00">mpqc/chemistry/qc/lcao</text>
<text text-anchor="middle" x="455.5" y="-271" font-family="FreeSans" font-size="10.00">/cc/cck_so.ipp</text>
</a>
</g>
</g>
<!-- Node1&#45;&gt;Node2 -->
<g id="edge1_Node000001_Node000002" class="edge">
<title>Node1&#45;&gt;Node2</title>
<g id="a_edge1_Node000001_Node000002"><a xlink:title=" ">
<path fill="none" stroke="#63b8ff" d="M563.84,-325.92C539.97,-315.8 510.67,-303.38 488.56,-294.01"/>
<polygon fill="#63b8ff" stroke="#63b8ff" points="562.79,-329.28 573.36,-329.95 565.52,-322.83 562.79,-329.28"/>
</a>
</g>
</g>
<!-- Node11 -->
<g id="Node000011" class="node">
<title>Node11</title>
<g id="a_Node000011"><a xlink:href="ccsdt_8h.html" target="_top" xlink:title=" ">
<polygon fill="white" stroke="#666666" points="673,-294 540,-294 540,-264 673,-264 673,-294"/>
<text text-anchor="start" x="548" y="-282" font-family="FreeSans" font-size="10.00">mpqc/chemistry/qc/lcao</text>
<text text-anchor="middle" x="606.5" y="-271" font-family="FreeSans" font-size="10.00">/cc/ccsdt.h</text>
</a>
</g>
</g>
<!-- Node1&#45;&gt;Node11 -->
<g id="edge19_Node000001_Node000011" class="edge">
<title>Node1&#45;&gt;Node11</title>
<g id="a_edge19_Node000001_Node000011"><a xlink:title=" ">
<path fill="none" stroke="#63b8ff" d="M606.5,-319.54C606.5,-310.96 606.5,-301.61 606.5,-294.16"/>
<polygon fill="#63b8ff" stroke="#63b8ff" points="603,-319.8 606.5,-329.8 610,-319.8 603,-319.8"/>
</a>
</g>
</g>
<!-- Node14 -->
<g id="Node000014" class="node">
<title>Node14</title>
<g id="a_Node000014"><a xlink:href="laplace__mp2_8h.html" target="_top" xlink:title=" ">
<polygon fill="white" stroke="#666666" points="824,-294 691,-294 691,-264 824,-264 824,-294"/>
<text text-anchor="start" x="699" y="-282" font-family="FreeSans" font-size="10.00">mpqc/chemistry/qc/lcao</text>
<text text-anchor="middle" x="757.5" y="-271" font-family="FreeSans" font-size="10.00">/mbpt/laplace_mp2.h</text>
</a>
</g>
</g>
<!-- Node1&#45;&gt;Node14 -->
<g id="edge23_Node000001_Node000014" class="edge">
<title>Node1&#45;&gt;Node14</title>
<g id="a_edge23_Node000001_Node000014"><a xlink:title=" ">
<path fill="none" stroke="#63b8ff" d="M649.16,-325.92C673.03,-315.8 702.33,-303.38 724.44,-294.01"/>
<polygon fill="#63b8ff" stroke="#63b8ff" points="647.48,-322.83 639.64,-329.95 650.21,-329.28 647.48,-322.83"/>
</a>
</g>
</g>
<!-- Node3 -->
<g id="Node000003" class="node">
<title>Node3</title>
<g id="a_Node000003"><a xlink:href="cck_8cpp.html" target="_top" xlink:title=" ">
<polygon fill="white" stroke="#666666" points="483,-30 350,-30 350,0 483,0 483,-30"/>
<text text-anchor="start" x="358" y="-18" font-family="FreeSans" font-size="10.00">mpqc/chemistry/qc/lcao</text>
<text text-anchor="middle" x="416.5" y="-7" font-family="FreeSans" font-size="10.00">/cc/cck.cpp</text>
</a>
</g>
</g>
<!-- Node2&#45;&gt;Node3 -->
<g id="edge2_Node000002_Node000003" class="edge">
<title>Node2&#45;&gt;Node3</title>
<g id="a_edge2_Node000002_Node000003"><a xlink:title=" ">
<path fill="none" stroke="#63b8ff" d="M467.69,-254.38C471.27,-246.24 474.7,-236.92 476.5,-228 485.73,-182.17 483.29,-111.96 462.5,-66 456.18,-52.03 444.42,-39.35 434.37,-30.26"/>
<polygon fill="#63b8ff" stroke="#63b8ff" points="464.43,-253.08 463.35,-263.61 470.77,-256.05 464.43,-253.08"/>
</a>
</g>
</g>
<!-- Node4 -->
<g id="Node000004" class="node">
<title>Node4</title>
<g id="a_Node000004"><a xlink:href="cck_8h.html" target="_top" xlink:title=" ">
<polygon fill="white" stroke="#666666" points="332,-228 199,-228 199,-198 332,-198 332,-228"/>
<text text-anchor="start" x="207" y="-216" font-family="FreeSans" font-size="10.00">mpqc/chemistry/qc/lcao</text>
<text text-anchor="middle" x="265.5" y="-205" font-family="FreeSans" font-size="10.00">/cc/cck.h</text>
</a>
</g>
</g>
<!-- Node2&#45;&gt;Node4 -->
<g id="edge3_Node000002_Node000004" class="edge">
<title>Node2&#45;&gt;Node4</title>
<g id="a_edge3_Node000002_Node000004"><a xlink:title=" ">
<path fill="none" stroke="#63b8ff" d="M404.21,-260.72C373.77,-250.47 335.66,-237.63 307.1,-228.01"/>
<polygon fill="#63b8ff" stroke="#63b8ff" points="403.21,-264.08 413.8,-263.95 405.44,-257.45 403.21,-264.08"/>
</a>
</g>
</g>
<!-- Node6 -->
<g id="Node000006" class="node">
<title>Node6</title>
<g id="a_Node000006"><a xlink:href="cck__so__response_8ipp.html" target="_top" xlink:title=" ">
<polygon fill="white" stroke="#666666" points="436.5,-96 302.5,-96 302.5,-66 436.5,-66 436.5,-96"/>
<text text-anchor="start" x="310.5" y="-84" font-family="FreeSans" font-size="10.00">mpqc/chemistry/qc/lcao</text>
<text text-anchor="middle" x="369.5" y="-73" font-family="FreeSans" font-size="10.00">/cc/cck_so_response.ipp</text>
</a>
</g>
</g>
<!-- Node2&#45;&gt;Node6 -->
<g id="edge18_Node000002_Node000006" class="edge">
<title>Node2&#45;&gt;Node6</title>
<g id="a_edge18_Node000002_Node000006"><a xlink:title=" ">
<path fill="none" stroke="#63b8ff" d="M459.8,-253.77C463.92,-223.16 466.66,-169.92 444.5,-132 435.18,-116.06 418.52,-104.19 403.26,-96.03"/>
<polygon fill="#63b8ff" stroke="#63b8ff" points="456.29,-253.54 458.26,-263.95 463.21,-254.58 456.29,-253.54"/>
</a>
</g>
</g>
<!-- Node5 -->
<g id="Node000005" class="node">
<title>Node5</title>
<g id="a_Node000005"><a xlink:href="cck_8ipp.html" target="_top" xlink:title=" ">
<polygon fill="white" stroke="#666666" points="436,-162 303,-162 303,-132 436,-132 436,-162"/>
<text text-anchor="start" x="311" y="-150" font-family="FreeSans" font-size="10.00">mpqc/chemistry/qc/lcao</text>
<text text-anchor="middle" x="369.5" y="-139" font-family="FreeSans" font-size="10.00">/cc/cck.ipp</text>
</a>
</g>
</g>
<!-- Node4&#45;&gt;Node5 -->
<g id="edge4_Node000004_Node000005" class="edge">
<title>Node4&#45;&gt;Node5</title>
<g id="a_edge4_Node000004_Node000005"><a xlink:title=" ">
<path fill="none" stroke="#63b8ff" d="M291.22,-192.3C306.28,-182.56 325.22,-171.02 340.77,-162.16"/>
<polygon fill="#63b8ff" stroke="#63b8ff" points="289.3,-189.38 282.86,-197.8 293.14,-195.23 289.3,-189.38"/>
</a>
</g>
</g>
<!-- Node4&#45;&gt;Node6 -->
<g id="edge11_Node000004_Node000006" class="edge">
<title>Node4&#45;&gt;Node6</title>
<g id="a_edge11_Node000004_Node000006"><a xlink:title=" ">
<path fill="none" stroke="#63b8ff" d="M262.19,-187.71C264.61,-170.73 271.8,-148.27 284.5,-132 296.45,-116.69 314.46,-104.55 330.95,-96.06"/>
<polygon fill="#63b8ff" stroke="#63b8ff" points="258.68,-187.69 261.27,-197.96 265.65,-188.31 258.68,-187.69"/>
</a>
</g>
</g>
<!-- Node7 -->
<g id="Node000007" class="node">
<title>Node7</title>
<g id="a_Node000007"><a xlink:href="eom__cck_8ipp.html" target="_top" xlink:title=" ">
<polygon fill="white" stroke="#666666" points="284,-96 151,-96 151,-66 284,-66 284,-96"/>
<text text-anchor="start" x="159" y="-84" font-family="FreeSans" font-size="10.00">mpqc/chemistry/qc/lcao</text>
<text text-anchor="middle" x="217.5" y="-73" font-family="FreeSans" font-size="10.00">/cc/eom_cck.ipp</text>
</a>
</g>
</g>
<!-- Node4&#45;&gt;Node7 -->
<g id="edge12_Node000004_Node000007" class="edge">
<title>Node4&#45;&gt;Node7</title>
<g id="a_edge12_Node000004_Node000007"><a xlink:title=" ">
<path fill="none" stroke="#63b8ff" d="M254.01,-188.66C250.12,-180.34 245.9,-170.85 242.5,-162 233.78,-139.32 225.8,-112.18 221.3,-96.06"/>
<polygon fill="#63b8ff" stroke="#63b8ff" points="250.89,-190.25 258.36,-197.77 257.21,-187.24 250.89,-190.25"/>
</a>
</g>
</g>
<!-- Node8 -->
<g id="Node000008" class="node">
<title>Node8</title>
<g id="a_Node000008"><a xlink:href="cck__f12_8h.html" target="_top" xlink:title=" ">
<polygon fill="white" stroke="#666666" points="133,-162 0,-162 0,-132 133,-132 133,-162"/>
<text text-anchor="start" x="8" y="-150" font-family="FreeSans" font-size="10.00">mpqc/chemistry/qc/lcao</text>
<text text-anchor="middle" x="66.5" y="-139" font-family="FreeSans" font-size="10.00">/f12/cck_f12.h</text>
</a>
</g>
</g>
<!-- Node4&#45;&gt;Node8 -->
<g id="edge14_Node000004_Node000008" class="edge">
<title>Node4&#45;&gt;Node8</title>
<g id="a_edge14_Node000004_Node000008"><a xlink:title=" ">
<path fill="none" stroke="#63b8ff" d="M212.19,-194.86C180.24,-184.58 140.12,-171.68 110.07,-162.01"/>
<polygon fill="#63b8ff" stroke="#63b8ff" points="211.24,-198.23 221.83,-197.95 213.38,-191.56 211.24,-198.23"/>
</a>
</g>
</g>
<!-- Node5&#45;&gt;Node2 -->
<g id="edge7_Node000005_Node000002" class="edge">
<title>Node5&#45;&gt;Node2</title>
<g id="a_edge7_Node000005_Node000002"><a xlink:title=" ">
<path fill="none" stroke="#63b8ff" d="M384.4,-170.53C402.15,-197.36 431.27,-241.37 446.13,-263.84"/>
<polygon fill="#63b8ff" stroke="#63b8ff" points="387.29,-168.55 378.86,-162.14 381.45,-172.41 387.29,-168.55"/>
</a>
</g>
</g>
<!-- Node5&#45;&gt;Node3 -->
<g id="edge5_Node000005_Node000003" class="edge">
<title>Node5&#45;&gt;Node3</title>
<g id="a_edge5_Node000005_Node000003"><a xlink:title=" ">
<path fill="none" stroke="#63b8ff" d="M414.08,-126.81C426.51,-119.14 438.5,-108.98 445.5,-96 457.28,-74.15 441.11,-46.53 428.6,-30.12"/>
<polygon fill="#63b8ff" stroke="#63b8ff" points="411.99,-123.98 405.03,-131.96 415.45,-130.06 411.99,-123.98"/>
</a>
</g>
</g>
<!-- Node5&#45;&gt;Node4 -->
<g id="edge6_Node000005_Node000004" class="edge">
<title>Node5&#45;&gt;Node4</title>
<g id="a_edge6_Node000005_Node000004"><a xlink:title=" ">
<path fill="none" stroke="#63b8ff" d="M344.01,-167.54C328.85,-177.36 309.69,-189.03 294.02,-197.95"/>
<polygon fill="#63b8ff" stroke="#63b8ff" points="345.99,-170.43 352.43,-162.01 342.15,-164.58 345.99,-170.43"/>
</a>
</g>
</g>
<!-- Node5&#45;&gt;Node6 -->
<g id="edge8_Node000005_Node000006" class="edge">
<title>Node5&#45;&gt;Node6</title>
<g id="a_edge8_Node000005_Node000006"><a xlink:title=" ">
<path fill="none" stroke="#63b8ff" d="M369.5,-121.54C369.5,-112.96 369.5,-103.61 369.5,-96.16"/>
<polygon fill="#63b8ff" stroke="#63b8ff" points="366,-121.8 369.5,-131.8 373,-121.8 366,-121.8"/>
</a>
</g>
</g>
<!-- Node6&#45;&gt;Node3 -->
<g id="edge9_Node000006_Node000003" class="edge">
<title>Node6&#45;&gt;Node3</title>
<g id="a_edge9_Node000006_Node000003"><a xlink:title=" ">
<path fill="none" stroke="#63b8ff" d="M386,-57.53C392.69,-48.43 400.2,-38.19 406.1,-30.16"/>
<polygon fill="#63b8ff" stroke="#63b8ff" points="383.03,-55.66 379.93,-65.8 388.67,-59.81 383.03,-55.66"/>
</a>
</g>
</g>
<!-- Node6&#45;&gt;Node4 -->
<g id="edge10_Node000006_Node000004" class="edge">
<title>Node6&#45;&gt;Node4</title>
<g id="a_edge10_Node000006_Node000004"><a xlink:title=" ">
<path fill="none" stroke="#63b8ff" d="M338.13,-101.45C325.66,-109.41 312.12,-119.68 302.5,-132 287.02,-151.84 279.73,-180.87 273.91,-197.96"/>
<polygon fill="#63b8ff" stroke="#63b8ff" points="340.24,-104.26 346.96,-96.06 336.6,-98.29 340.24,-104.26"/>
</a>
</g>
</g>
<!-- Node7&#45;&gt;Node3 -->
<g id="edge13_Node000007_Node000003" class="edge">
<title>Node7&#45;&gt;Node3</title>
<g id="a_edge13_Node000007_Node000003"><a xlink:title=" ">
<path fill="none" stroke="#63b8ff" d="M270.81,-62.86C302.76,-52.58 342.88,-39.68 372.93,-30.01"/>
<polygon fill="#63b8ff" stroke="#63b8ff" points="269.62,-59.56 261.17,-65.95 271.76,-66.23 269.62,-59.56"/>
</a>
</g>
</g>
<!-- Node9 -->
<g id="Node000009" class="node">
<title>Node9</title>
<g id="a_Node000009"><a xlink:href="cck__f12_8ipp.html" target="_top" xlink:title=" ">
<polygon fill="white" stroke="#666666" points="133,-96 0,-96 0,-66 133,-66 133,-96"/>
<text text-anchor="start" x="8" y="-84" font-family="FreeSans" font-size="10.00">mpqc/chemistry/qc/lcao</text>
<text text-anchor="middle" x="66.5" y="-73" font-family="FreeSans" font-size="10.00">/f12/cck_f12.ipp</text>
</a>
</g>
</g>
<!-- Node8&#45;&gt;Node9 -->
<g id="edge15_Node000008_Node000009" class="edge">
<title>Node8&#45;&gt;Node9</title>
<g id="a_edge15_Node000008_Node000009"><a xlink:title=" ">
<path fill="none" stroke="#63b8ff" d="M59.93,-121.83C59.52,-113.17 59.81,-103.7 60.79,-96.16"/>
<polygon fill="#63b8ff" stroke="#63b8ff" points="56.45,-122.13 60.78,-131.8 63.42,-121.54 56.45,-122.13"/>
</a>
</g>
</g>
<!-- Node9&#45;&gt;Node8 -->
<g id="edge17_Node000009_Node000008" class="edge">
<title>Node9&#45;&gt;Node8</title>
<g id="a_edge17_Node000009_Node000008"><a xlink:title=" ">
<path fill="none" stroke="#63b8ff" d="M73.07,-106.13C73.48,-114.78 73.2,-124.26 72.22,-131.8"/>
<polygon fill="#63b8ff" stroke="#63b8ff" points="76.55,-105.83 72.21,-96.16 69.58,-106.43 76.55,-105.83"/>
</a>
</g>
</g>
<!-- Node10 -->
<g id="Node000010" class="node">
<title>Node10</title>
<g id="a_Node000010"><a xlink:href="cck__f12_8cpp.html" target="_top" xlink:title=" ">
<polygon fill="white" stroke="#666666" points="133,-30 0,-30 0,0 133,0 133,-30"/>
<text text-anchor="start" x="8" y="-18" font-family="FreeSans" font-size="10.00">mpqc/chemistry/qc/lcao</text>
<text text-anchor="middle" x="66.5" y="-7" font-family="FreeSans" font-size="10.00">/f12/cck_f12.cpp</text>
</a>
</g>
</g>
<!-- Node9&#45;&gt;Node10 -->
<g id="edge16_Node000009_Node000010" class="edge">
<title>Node9&#45;&gt;Node10</title>
<g id="a_edge16_Node000009_Node000010"><a xlink:title=" ">
<path fill="none" stroke="#63b8ff" d="M66.5,-55.54C66.5,-46.96 66.5,-37.61 66.5,-30.16"/>
<polygon fill="#63b8ff" stroke="#63b8ff" points="63,-55.8 66.5,-65.8 70,-55.8 63,-55.8"/>
</a>
</g>
</g>
<!-- Node12 -->
<g id="Node000012" class="node">
<title>Node12</title>
<g id="a_Node000012"><a xlink:href="ccsdt_8ipp.html" target="_top" xlink:title=" ">
<polygon fill="white" stroke="#666666" points="673,-228 540,-228 540,-198 673,-198 673,-228"/>
<text text-anchor="start" x="548" y="-216" font-family="FreeSans" font-size="10.00">mpqc/chemistry/qc/lcao</text>
<text text-anchor="middle" x="606.5" y="-205" font-family="FreeSans" font-size="10.00">/cc/ccsdt.ipp</text>
</a>
</g>
</g>
<!-- Node11&#45;&gt;Node12 -->
<g id="edge20_Node000011_Node000012" class="edge">
<title>Node11&#45;&gt;Node12</title>
<g id="a_edge20_Node000011_Node000012"><a xlink:title=" ">
<path fill="none" stroke="#63b8ff" d="M599.93,-253.83C599.52,-245.17 599.81,-235.7 600.79,-228.16"/>
<polygon fill="#63b8ff" stroke="#63b8ff" points="596.45,-254.13 600.78,-263.8 603.42,-253.54 596.45,-254.13"/>
</a>
</g>
</g>
<!-- Node12&#45;&gt;Node11 -->
<g id="edge22_Node000012_Node000011" class="edge">
<title>Node12&#45;&gt;Node11</title>
<g id="a_edge22_Node000012_Node000011"><a xlink:title=" ">
<path fill="none" stroke="#63b8ff" d="M613.07,-238.13C613.48,-246.78 613.2,-256.26 612.22,-263.8"/>
<polygon fill="#63b8ff" stroke="#63b8ff" points="616.55,-237.83 612.21,-228.16 609.58,-238.43 616.55,-237.83"/>
</a>
</g>
</g>
<!-- Node13 -->
<g id="Node000013" class="node">
<title>Node13</title>
<g id="a_Node000013"><a xlink:href="ccsdt_8cpp.html" target="_top" xlink:title=" ">
<polygon fill="white" stroke="#666666" points="673,-162 540,-162 540,-132 673,-132 673,-162"/>
<text text-anchor="start" x="548" y="-150" font-family="FreeSans" font-size="10.00">mpqc/chemistry/qc/lcao</text>
<text text-anchor="middle" x="606.5" y="-139" font-family="FreeSans" font-size="10.00">/cc/ccsdt.cpp</text>
</a>
</g>
</g>
<!-- Node12&#45;&gt;Node13 -->
<g id="edge21_Node000012_Node000013" class="edge">
<title>Node12&#45;&gt;Node13</title>
<g id="a_edge21_Node000012_Node000013"><a xlink:title=" ">
<path fill="none" stroke="#63b8ff" d="M606.5,-187.54C606.5,-178.96 606.5,-169.61 606.5,-162.16"/>
<polygon fill="#63b8ff" stroke="#63b8ff" points="603,-187.8 606.5,-197.8 610,-187.8 603,-187.8"/>
</a>
</g>
</g>
<!-- Node15 -->
<g id="Node000015" class="node">
<title>Node15</title>
<g id="a_Node000015"><a xlink:href="laplace__mp2_8cpp.html" target="_top" xlink:title=" ">
<polygon fill="white" stroke="#666666" points="824,-228 691,-228 691,-198 824,-198 824,-228"/>
<text text-anchor="start" x="699" y="-216" font-family="FreeSans" font-size="10.00">mpqc/chemistry/qc/lcao</text>
<text text-anchor="middle" x="757.5" y="-205" font-family="FreeSans" font-size="10.00">/mbpt/laplace_mp2.cpp</text>
</a>
</g>
</g>
<!-- Node14&#45;&gt;Node15 -->
<g id="edge24_Node000014_Node000015" class="edge">
<title>Node14&#45;&gt;Node15</title>
<g id="a_edge24_Node000014_Node000015"><a xlink:title=" ">
<path fill="none" stroke="#63b8ff" d="M757.5,-253.54C757.5,-244.96 757.5,-235.61 757.5,-228.16"/>
<polygon fill="#63b8ff" stroke="#63b8ff" points="754,-253.8 757.5,-263.8 761,-253.8 754,-253.8"/>
</a>
</g>
</g>
</g>
</svg>

<g id="navigator" transform="translate(0 0)" fill="#404254">
  <rect fill="#f2f5e9" fill-opacity="0.5" stroke="#606060" stroke-width=".5" x="0" y="0" width="60" height="60"/>
  <use id="zoomplus" xlink:href="#zoomPlus" x="17" y="9" onmousedown="handleZoom(evt,'in')"/>
  <use id="zoomminus" xlink:href="#zoomMin" x="42" y="9" onmousedown="handleZoom(evt,'out')"/>
  <use id="reset" xlink:href="#resetDef" x="30" y="36" onmousedown="handleReset()"/>
   <use id="arrowup" xlink:href="#arrowUp" x="0" y="0" onmousedown="handlePan(0,-1)"/>
  <use id="arrowright" xlink:href="#arrowRight" x="0" y="0" onmousedown="handlePan(1,0)"/>
  <use id="arrowdown" xlink:href="#arrowDown" x="0" y="0" onmousedown="handlePan(0,1)"/>
  <use id="arrowleft" xlink:href="#arrowLeft" x="0" y="0" onmousedown="handlePan(-1,0)"/>
</g>
<svg viewBox="0 0 15 15" width="100%" height="30px" preserveAspectRatio="xMaxYMin meet">
 <g id="arrow_out" transform="scale(0.3 0.3)">
  <a xlink:href="tensor__store_8h__dep__incl_org.svg" target="_base">
   <rect id="button" ry="5" rx="5" y="6" x="6" height="38" width="38"
        fill="#f2f5e9" fill-opacity="0.5" stroke="#606060" stroke-width="1.0"/>
   <path id="arrow"
     d="M 11.500037,31.436501 C 11.940474,20.09759 22.043105,11.32322 32.158766,21.979434 L 37.068811,17.246167 C 37.068811,17.246167 37.088388,32 37.088388,32 L 22.160133,31.978069 C 22.160133,31.978069 26.997745,27.140456 26.997745,27.140456 C 18.528582,18.264221 13.291696,25.230495 11.500037,31.436501 z"
     style="fill:#404040;"/>
  </a>
 </g>
</svg>

<style type='text/css'>
<![CDATA[
[data-mouse-over-selected='false'] { opacity: 0.7; }
[data-mouse-over-selected='true']  { opacity: 1.0; }
]]>
</style>
<script type="application/ecmascript"><![CDATA[
document.addEventListener('DOMContentLoaded', (event) => {
  highlightEdges();
  highlightAdjacentNodes();
});
]]></script>
</svg>
