<?xml version="1.0" encoding="UTF-8" standalone="no"?>
<!DOCTYPE svg PUBLIC "-//W3C//DTD SVG 1.1//EN"
 "http://www.w3.org/Graphics/SVG/1.1/DTD/svg11.dtd">
<!-- Generated by graphviz version 2.43.0 (0)
 -->
<!-- Title: mpqc/math/external/tiledarray/threshold.h Pages: 1 -->
<!--zoomable 478 -->

<svg id="main" version="1.1" xmlns="http://www.w3.org/2000/svg" xmlns:xlink="http://www.w3.org/1999/xlink" xml:space="preserve" onload="init(evt)">
<style type="text/css"><![CDATA[
.node, .edge {opacity: 0.7;}
.node.selected, .edge.selected {opacity: 1;}
.edge:hover path { stroke: red; }
.edge:hover polygon { stroke: red; fill: red; }
]]></style>

<defs>
  <circle id="rim" cx="0" cy="0" r="7"/>
  <circle id="rim2" cx="0" cy="0" r="3.5"/>
  <g id="zoomPlus">
    <use xlink:href="#rim" fill="#404040"><set attributeName="fill" to="#808080" begin="zoomplus.mouseover" end="zoomplus.mouseout"/></use>
    <path d="M-4,0h8M0,-4v8" fill="none" stroke="white" stroke-width="1.5" pointer-events="none"/>
  </g>
  <g id="zoomMin">
    <use xlink:href="#rim" fill="#404040"><set attributeName="fill" to="#808080" begin="zoomminus.mouseover" end="zoomminus.mouseout"/></use>
    <path d="M-4,0h8" fill="none" stroke="white" stroke-width="1.5" pointer-events="none"/>
  </g>
  <g id="arrowUp" transform="translate(30 24)">
    <use xlink:href="#rim"/>
    <path pointer-events="none" fill="none" stroke="white" stroke-width="1.5" d="M0,-3.0v7 M-2.5,-0.5L0,-3.0L2.5,-0.5"/>
  </g>
  <g id="arrowRight" transform="rotate(90) translate(36 -43)">
    <use xlink:href="#rim"/>
    <path pointer-events="none" fill="none" stroke="white" stroke-width="1.5" d="M0,-3.0v7 M-2.5,-0.5L0,-3.0L2.5,-0.5"/>
  </g>
  <g id="arrowDown" transform="rotate(180) translate(-30 -48)">
    <use xlink:href="#rim"/>
    <path pointer-events="none" fill="none" stroke="white" stroke-width="1.5" d="M0,-3.0v7 M-2.5,-0.5L0,-3.0L2.5,-0.5"/>
  </g>
  <g id="arrowLeft" transform="rotate(270) translate(-36 17)">
    <use xlink:href="#rim"/>
    <path pointer-events="none" fill="none" stroke="white" stroke-width="1.5" d="M0,-3.0v7 M-2.5,-0.5L0,-3.0L2.5,-0.5"/>
  </g>
  <g id="resetDef">
    <use xlink:href="#rim2" fill="#404040"><set attributeName="fill" to="#808080" begin="reset.mouseover" end="reset.mouseout"/></use>
  </g>
</defs>
<script type="application/ecmascript">
var viewWidth = 2948;
var viewHeight = 478;
var sectionId = 'dynsection-0';
</script>
<script type="application/ecmascript" xlink:href="svg.min.js"/>
<svg id="graph" class="graph">
<g id="viewport">
<title>mpqc/math/external/tiledarray/threshold.h</title>
<!-- Node1 -->
<g id="Node000001" class="node">
<title>Node1</title>
<g id="a_Node000001"><a xlink:title=" ">
<polygon fill="#999999" stroke="#666666" points="2828,-470 2703,-470 2703,-440 2828,-440 2828,-470"/>
<text text-anchor="start" x="2711" y="-458" font-family="FreeSans" font-size="10.00">mpqc/math/external</text>
<text text-anchor="middle" x="2765.5" y="-447" font-family="FreeSans" font-size="10.00">/tiledarray/threshold.h</text>
</a>
</g>
</g>
<!-- Node2 -->
<g id="Node000002" class="node">
<title>Node2</title>
<g id="a_Node000002"><a xlink:href="external_2madworld_2default__madworld_8h.html" target="_top" xlink:title=" ">
<polygon fill="white" stroke="#666666" points="1405,-404 1236,-404 1236,-374 1405,-374 1405,-404"/>
<text text-anchor="start" x="1244" y="-392" font-family="FreeSans" font-size="10.00">mpqc/util/external</text>
<text text-anchor="middle" x="1320.5" y="-381" font-family="FreeSans" font-size="10.00">/madworld/default_madworld.h</text>
</a>
</g>
</g>
<!-- Node1&#45;&gt;Node2 -->
<g id="edge1_Node000001_Node000002" class="edge">
<title>Node1&#45;&gt;Node2</title>
<g id="a_edge1_Node000001_Node000002"><a xlink:title=" ">
<path fill="none" stroke="#63b8ff" d="M2702.95,-451.23C2475.24,-441.14 1689.63,-406.35 1415.65,-394.21"/>
<polygon fill="#63b8ff" stroke="#63b8ff" points="1415.49,-390.7 1405.34,-393.76 1415.18,-397.7 1415.49,-390.7"/>
</a>
</g>
</g>
<!-- Node30 -->
<g id="Node000030" class="node">
<title>Node30</title>
<g id="a_Node000030"><a xlink:href="scope.html" target="_top" xlink:title=" ">
<polygon fill="white" stroke="#666666" points="1375.5,-151 1269.5,-151 1269.5,-121 1375.5,-121 1375.5,-151"/>
<text text-anchor="start" x="1277.5" y="-139" font-family="FreeSans" font-size="10.00">mpqc/util/external</text>
<text text-anchor="middle" x="1322.5" y="-128" font-family="FreeSans" font-size="10.00">/c++/scope</text>
</a>
</g>
</g>
<!-- Node1&#45;&gt;Node30 -->
<g id="edge56_Node000001_Node000030" class="edge">
<title>Node1&#45;&gt;Node30</title>
<g id="a_edge56_Node000001_Node000030"><a xlink:title=" ">
<path fill="none" stroke="#63b8ff" d="M2765.5,-439.81C2765.5,-416.7 2765.5,-369.49 2765.5,-329.5 2765.5,-329.5 2765.5,-329.5 2765.5,-267 2765.5,-229.03 2766.32,-209.18 2735.5,-187 2680.11,-147.14 1654.5,-138.8 1386.26,-137.3"/>
<polygon fill="#63b8ff" stroke="#63b8ff" points="1385.94,-133.8 1375.92,-137.24 1385.9,-140.8 1385.94,-133.8"/>
</a>
</g>
</g>
<!-- Node44 -->
<g id="Node000044" class="node">
<title>Node44</title>
<g id="a_Node000044"><a xlink:title=" ">
<polygon fill="#e0e0e0" stroke="#999999" points="2939.5,-398.5 2793.5,-398.5 2793.5,-379.5 2939.5,-379.5 2939.5,-398.5"/>
<text text-anchor="middle" x="2866.5" y="-386.5" font-family="FreeSans" font-size="10.00">TiledArray/sparse_shape.h</text>
</a>
</g>
</g>
<!-- Node1&#45;&gt;Node44 -->
<g id="edge57_Node000001_Node000044" class="edge">
<title>Node1&#45;&gt;Node44</title>
<g id="a_edge57_Node000001_Node000044"><a xlink:title=" ">
<path fill="none" stroke="#63b8ff" d="M2787.92,-439.8C2804.69,-429.17 2827.51,-414.7 2844.25,-404.1"/>
<polygon fill="#63b8ff" stroke="#63b8ff" points="2846.26,-406.97 2852.84,-398.66 2842.52,-401.05 2846.26,-406.97"/>
</a>
</g>
</g>
<!-- Node3 -->
<g id="Node000003" class="node">
<title>Node3</title>
<g id="a_Node000003"><a xlink:title=" ">
<polygon fill="#e0e0e0" stroke="#999999" points="1231.5,-338 1101.5,-338 1101.5,-319 1231.5,-319 1231.5,-338"/>
<text text-anchor="middle" x="1166.5" y="-326" font-family="FreeSans" font-size="10.00">madness/world/world.h</text>
</a>
</g>
</g>
<!-- Node2&#45;&gt;Node3 -->
<g id="edge2_Node000002_Node000003" class="edge">
<title>Node2&#45;&gt;Node3</title>
<g id="a_edge2_Node000002_Node000003"><a xlink:title=" ">
<path fill="none" stroke="#63b8ff" d="M1283.61,-373.99C1257.8,-364.18 1223.65,-351.21 1198.9,-341.81"/>
<polygon fill="#63b8ff" stroke="#63b8ff" points="1199.83,-338.42 1189.24,-338.14 1197.35,-344.96 1199.83,-338.42"/>
</a>
</g>
</g>
<!-- Node4 -->
<g id="Node000004" class="node">
<title>Node4</title>
<g id="a_Node000004"><a xlink:href="src_2mpqc_2util_2keyval_2keyval_8h.html" target="_top" xlink:title=" ">
<polygon fill="white" stroke="#666666" points="1391.5,-338 1249.5,-338 1249.5,-319 1391.5,-319 1391.5,-338"/>
<text text-anchor="middle" x="1320.5" y="-326" font-family="FreeSans" font-size="10.00">mpqc/util/keyval/keyval.h</text>
</a>
</g>
</g>
<!-- Node2&#45;&gt;Node4 -->
<g id="edge3_Node000002_Node000004" class="edge">
<title>Node2&#45;&gt;Node4</title>
<g id="a_edge3_Node000002_Node000004"><a xlink:title=" ">
<path fill="none" stroke="#63b8ff" d="M1320.5,-373.84C1320.5,-366.21 1320.5,-356.7 1320.5,-348.45"/>
<polygon fill="#63b8ff" stroke="#63b8ff" points="1324,-348.27 1320.5,-338.27 1317,-348.27 1324,-348.27"/>
</a>
</g>
</g>
<!-- Node5 -->
<g id="Node000005" class="node">
<title>Node5</title>
<g id="a_Node000005"><a xlink:title=" ">
<polygon fill="#e0e0e0" stroke="#999999" points="441.5,-79.5 399.5,-79.5 399.5,-60.5 441.5,-60.5 441.5,-79.5"/>
<text text-anchor="middle" x="420.5" y="-67.5" font-family="FreeSans" font-size="10.00">array</text>
</a>
</g>
</g>
<!-- Node4&#45;&gt;Node5 -->
<g id="edge4_Node000004_Node000005" class="edge">
<title>Node4&#45;&gt;Node5</title>
<g id="a_edge4_Node000004_Node000005"><a xlink:title=" ">
<path fill="none" stroke="#63b8ff" d="M1249.42,-319.75C1246.41,-319.49 1243.42,-319.23 1240.5,-319 1092.31,-307.14 716.27,-320.82 572.5,-283 508.68,-266.21 477.83,-270.72 439.5,-217 412.11,-178.61 414.33,-119.72 417.71,-89.82"/>
<polygon fill="#63b8ff" stroke="#63b8ff" points="421.22,-89.93 419.05,-79.56 414.28,-89.02 421.22,-89.93"/>
</a>
</g>
</g>
<!-- Node6 -->
<g id="Node000006" class="node">
<title>Node6</title>
<g id="a_Node000006"><a xlink:title=" ">
<polygon fill="#e0e0e0" stroke="#999999" points="376.5,-277.5 324.5,-277.5 324.5,-258.5 376.5,-258.5 376.5,-277.5"/>
<text text-anchor="middle" x="350.5" y="-265.5" font-family="FreeSans" font-size="10.00">cassert</text>
</a>
</g>
</g>
<!-- Node4&#45;&gt;Node6 -->
<g id="edge5_Node000004_Node000006" class="edge">
<title>Node4&#45;&gt;Node6</title>
<g id="a_edge5_Node000004_Node000006"><a xlink:title=" ">
<path fill="none" stroke="#63b8ff" d="M1249.42,-319.71C1246.41,-319.46 1243.43,-319.22 1240.5,-319 1050.85,-304.95 571.44,-322.88 385.5,-283 383.12,-282.49 380.7,-281.83 378.3,-281.08"/>
<polygon fill="#63b8ff" stroke="#63b8ff" points="379.26,-277.71 368.66,-277.61 376.88,-284.3 379.26,-277.71"/>
</a>
</g>
</g>
<!-- Node7 -->
<g id="Node000007" class="node">
<title>Node7</title>
<g id="a_Node000007"><a xlink:title=" ">
<polygon fill="#e0e0e0" stroke="#999999" points="454,-277.5 395,-277.5 395,-258.5 454,-258.5 454,-277.5"/>
<text text-anchor="middle" x="424.5" y="-265.5" font-family="FreeSans" font-size="10.00">complex</text>
</a>
</g>
</g>
<!-- Node4&#45;&gt;Node7 -->
<g id="edge6_Node000004_Node000007" class="edge">
<title>Node4&#45;&gt;Node7</title>
<g id="a_edge6_Node000004_Node000007"><a xlink:title=" ">
<path fill="none" stroke="#63b8ff" d="M1249.42,-319.73C1246.41,-319.47 1243.42,-319.22 1240.5,-319 898.01,-292.84 806.6,-343.59 468.5,-283 464.81,-282.34 461,-281.45 457.24,-280.44"/>
<polygon fill="#63b8ff" stroke="#63b8ff" points="458.09,-277.05 447.51,-277.57 456.1,-283.76 458.09,-277.05"/>
</a>
</g>
</g>
<!-- Node8 -->
<g id="Node000008" class="node">
<title>Node8</title>
<g id="a_Node000008"><a xlink:title=" ">
<polygon fill="#e0e0e0" stroke="#999999" points="508.5,-211.5 448.5,-211.5 448.5,-192.5 508.5,-192.5 508.5,-211.5"/>
<text text-anchor="middle" x="478.5" y="-199.5" font-family="FreeSans" font-size="10.00">iostream</text>
</a>
</g>
</g>
<!-- Node4&#45;&gt;Node8 -->
<g id="edge7_Node000004_Node000008" class="edge">
<title>Node4&#45;&gt;Node8</title>
<g id="a_edge7_Node000004_Node000008"><a xlink:title=" ">
<path fill="none" stroke="#63b8ff" d="M1249.42,-319.78C1246.4,-319.51 1243.42,-319.25 1240.5,-319 981.36,-297.26 908.97,-345.31 656.5,-283 597.82,-268.52 534.49,-235.37 501.48,-216.61"/>
<polygon fill="#63b8ff" stroke="#63b8ff" points="503.04,-213.46 492.63,-211.5 499.54,-219.53 503.04,-213.46"/>
</a>
</g>
</g>
<!-- Node9 -->
<g id="Node000009" class="node">
<title>Node9</title>
<g id="a_Node000009"><a xlink:title=" ">
<polygon fill="#e0e0e0" stroke="#999999" points="1279.5,-277.5 1247.5,-277.5 1247.5,-258.5 1279.5,-258.5 1279.5,-277.5"/>
<text text-anchor="middle" x="1263.5" y="-265.5" font-family="FreeSans" font-size="10.00">list</text>
</a>
</g>
</g>
<!-- Node4&#45;&gt;Node9 -->
<g id="edge8_Node000004_Node000009" class="edge">
<title>Node4&#45;&gt;Node9</title>
<g id="a_edge8_Node000004_Node000009"><a xlink:title=" ">
<path fill="none" stroke="#63b8ff" d="M1312.09,-318.87C1303.42,-309.97 1289.7,-295.89 1279.04,-284.95"/>
<polygon fill="#63b8ff" stroke="#63b8ff" points="1281.43,-282.39 1271.95,-277.67 1276.42,-287.27 1281.43,-282.39"/>
</a>
</g>
</g>
<!-- Node10 -->
<g id="Node000010" class="node">
<title>Node10</title>
<g id="a_Node000010"><a xlink:title=" ">
<polygon fill="#e0e0e0" stroke="#999999" points="1343.5,-277.5 1297.5,-277.5 1297.5,-258.5 1343.5,-258.5 1343.5,-277.5"/>
<text text-anchor="middle" x="1320.5" y="-265.5" font-family="FreeSans" font-size="10.00">locale</text>
</a>
</g>
</g>
<!-- Node4&#45;&gt;Node10 -->
<g id="edge9_Node000004_Node000010" class="edge">
<title>Node4&#45;&gt;Node10</title>
<g id="a_edge9_Node000004_Node000010"><a xlink:title=" ">
<path fill="none" stroke="#63b8ff" d="M1320.5,-318.87C1320.5,-310.75 1320.5,-298.31 1320.5,-287.89"/>
<polygon fill="#63b8ff" stroke="#63b8ff" points="1324,-287.67 1320.5,-277.67 1317,-287.67 1324,-287.67"/>
</a>
</g>
</g>
<!-- Node11 -->
<g id="Node000011" class="node">
<title>Node11</title>
<g id="a_Node000011"><a xlink:title=" ">
<polygon fill="#e0e0e0" stroke="#999999" points="1131.5,-145.5 1093.5,-145.5 1093.5,-126.5 1131.5,-126.5 1131.5,-145.5"/>
<text text-anchor="middle" x="1112.5" y="-133.5" font-family="FreeSans" font-size="10.00">map</text>
</a>
</g>
</g>
<!-- Node4&#45;&gt;Node11 -->
<g id="edge10_Node000004_Node000011" class="edge">
<title>Node4&#45;&gt;Node11</title>
<g id="a_edge10_Node000004_Node000011"><a xlink:title=" ">
<path fill="none" stroke="#63b8ff" d="M1269.52,-318.98C1246.89,-312.67 1221.75,-301.78 1205.5,-283 1176.85,-249.9 1207.9,-223.34 1183.5,-187 1172.92,-171.24 1155.58,-158.89 1140.68,-150.41"/>
<polygon fill="#63b8ff" stroke="#63b8ff" points="1142.27,-147.29 1131.81,-145.63 1138.95,-153.45 1142.27,-147.29"/>
</a>
</g>
</g>
<!-- Node12 -->
<g id="Node000012" class="node">
<title>Node12</title>
<g id="a_Node000012"><a xlink:href="memory.html" target="_top" xlink:title=" ">
<polygon fill="white" stroke="#666666" points="760.5,-145.5 702.5,-145.5 702.5,-126.5 760.5,-126.5 760.5,-145.5"/>
<text text-anchor="middle" x="731.5" y="-133.5" font-family="FreeSans" font-size="10.00">memory</text>
</a>
</g>
</g>
<!-- Node4&#45;&gt;Node12 -->
<g id="edge11_Node000004_Node000012" class="edge">
<title>Node4&#45;&gt;Node12</title>
<g id="a_edge11_Node000004_Node000012"><a xlink:title=" ">
<path fill="none" stroke="#63b8ff" d="M1249.41,-319.84C1246.4,-319.55 1243.42,-319.27 1240.5,-319 1137.73,-309.55 870.37,-328 777.5,-283 741.55,-265.58 731.06,-254.2 716.5,-217 708.56,-196.71 715.63,-171.83 722.51,-155.26"/>
<polygon fill="#63b8ff" stroke="#63b8ff" points="725.9,-156.25 726.84,-145.7 719.52,-153.36 725.9,-156.25"/>
</a>
</g>
</g>
<!-- Node13 -->
<g id="Node000013" class="node">
<title>Node13</title>
<g id="a_Node000013"><a xlink:title=" ">
<polygon fill="#e0e0e0" stroke="#999999" points="1109.5,-211.5 1053.5,-211.5 1053.5,-192.5 1109.5,-192.5 1109.5,-211.5"/>
<text text-anchor="middle" x="1081.5" y="-199.5" font-family="FreeSans" font-size="10.00">optional</text>
</a>
</g>
</g>
<!-- Node4&#45;&gt;Node13 -->
<g id="edge13_Node000004_Node000013" class="edge">
<title>Node4&#45;&gt;Node13</title>
<g id="a_edge13_Node000004_Node000013"><a xlink:title=" ">
<path fill="none" stroke="#63b8ff" d="M1249.21,-318.94C1216.92,-312.64 1179.38,-301.75 1149.5,-283 1124.12,-267.08 1103.3,-238.62 1091.65,-220.3"/>
<polygon fill="#63b8ff" stroke="#63b8ff" points="1094.62,-218.45 1086.41,-211.75 1088.65,-222.11 1094.62,-218.45"/>
</a>
</g>
</g>
<!-- Node14 -->
<g id="Node000014" class="node">
<title>Node14</title>
<g id="a_Node000014"><a xlink:title=" ">
<polygon fill="#e0e0e0" stroke="#999999" points="1427,-277.5 1362,-277.5 1362,-258.5 1427,-258.5 1427,-277.5"/>
<text text-anchor="middle" x="1394.5" y="-265.5" font-family="FreeSans" font-size="10.00">stdexcept</text>
</a>
</g>
</g>
<!-- Node4&#45;&gt;Node14 -->
<g id="edge14_Node000004_Node000014" class="edge">
<title>Node4&#45;&gt;Node14</title>
<g id="a_edge14_Node000004_Node000014"><a xlink:title=" ">
<path fill="none" stroke="#63b8ff" d="M1331.42,-318.87C1343.01,-309.71 1361.53,-295.06 1375.52,-284.01"/>
<polygon fill="#63b8ff" stroke="#63b8ff" points="1377.86,-286.61 1383.54,-277.67 1373.52,-281.12 1377.86,-286.61"/>
</a>
</g>
</g>
<!-- Node15 -->
<g id="Node000015" class="node">
<title>Node15</title>
<g id="a_Node000015"><a xlink:title=" ">
<polygon fill="#e0e0e0" stroke="#999999" points="1489.5,-277.5 1445.5,-277.5 1445.5,-258.5 1489.5,-258.5 1489.5,-277.5"/>
<text text-anchor="middle" x="1467.5" y="-265.5" font-family="FreeSans" font-size="10.00">string</text>
</a>
</g>
</g>
<!-- Node4&#45;&gt;Node15 -->
<g id="edge15_Node000004_Node000015" class="edge">
<title>Node4&#45;&gt;Node15</title>
<g id="a_edge15_Node000004_Node000015"><a xlink:title=" ">
<path fill="none" stroke="#63b8ff" d="M1343.53,-318.92C1366.83,-310.17 1403.83,-296.05 1435.5,-283 1436.67,-282.52 1437.86,-282.02 1439.05,-281.52"/>
<polygon fill="#63b8ff" stroke="#63b8ff" points="1440.45,-284.73 1448.27,-277.57 1437.7,-278.29 1440.45,-284.73"/>
</a>
</g>
</g>
<!-- Node16 -->
<g id="Node000016" class="node">
<title>Node16</title>
<g id="a_Node000016"><a xlink:title=" ">
<polygon fill="#e0e0e0" stroke="#999999" points="1175,-211.5 1128,-211.5 1128,-192.5 1175,-192.5 1175,-211.5"/>
<text text-anchor="middle" x="1151.5" y="-199.5" font-family="FreeSans" font-size="10.00">vector</text>
</a>
</g>
</g>
<!-- Node4&#45;&gt;Node16 -->
<g id="edge16_Node000004_Node000016" class="edge">
<title>Node4&#45;&gt;Node16</title>
<g id="a_edge16_Node000004_Node000016"><a xlink:title=" ">
<path fill="none" stroke="#63b8ff" d="M1271.52,-318.95C1232.32,-311.1 1181.62,-298.39 1167.5,-283 1152.34,-266.49 1149.81,-239.82 1150.09,-221.86"/>
<polygon fill="#63b8ff" stroke="#63b8ff" points="1153.59,-221.89 1150.55,-211.74 1146.6,-221.57 1153.59,-221.89"/>
</a>
</g>
</g>
<!-- Node17 -->
<g id="Node000017" class="node">
<title>Node17</title>
<g id="a_Node000017"><a xlink:title=" ">
<polygon fill="#e0e0e0" stroke="#999999" points="1647.5,-277.5 1507.5,-277.5 1507.5,-258.5 1647.5,-258.5 1647.5,-277.5"/>
<text text-anchor="middle" x="1577.5" y="-265.5" font-family="FreeSans" font-size="10.00">boost/core/demangle.hpp</text>
</a>
</g>
</g>
<!-- Node4&#45;&gt;Node17 -->
<g id="edge17_Node000004_Node000017" class="edge">
<title>Node4&#45;&gt;Node17</title>
<g id="a_edge17_Node000004_Node000017"><a xlink:title=" ">
<path fill="none" stroke="#63b8ff" d="M1357.87,-318.99C1403.45,-308.62 1480.56,-291.07 1530.23,-279.76"/>
<polygon fill="#63b8ff" stroke="#63b8ff" points="1531.11,-283.15 1540.08,-277.52 1529.56,-276.32 1531.11,-283.15"/>
</a>
</g>
</g>
<!-- Node18 -->
<g id="Node000018" class="node">
<title>Node18</title>
<g id="a_Node000018"><a xlink:title=" ">
<polygon fill="#e0e0e0" stroke="#999999" points="1108,-79.5 991,-79.5 991,-60.5 1108,-60.5 1108,-79.5"/>
<text text-anchor="middle" x="1049.5" y="-67.5" font-family="FreeSans" font-size="10.00">mpqc/mpqc_config.h</text>
</a>
</g>
</g>
<!-- Node4&#45;&gt;Node18 -->
<g id="edge18_Node000004_Node000018" class="edge">
<title>Node4&#45;&gt;Node18</title>
<g id="a_edge18_Node000004_Node000018"><a xlink:title=" ">
<path fill="none" stroke="#63b8ff" d="M1294.37,-318.95C1276.44,-311.87 1253.31,-300.17 1238.5,-283 1208.84,-248.61 1227.46,-225.58 1203.5,-187 1182.1,-152.55 1172.65,-145.72 1140.5,-121 1121.15,-106.12 1096.81,-92.99 1078.18,-83.93"/>
<polygon fill="#63b8ff" stroke="#63b8ff" points="1079.54,-80.7 1069.01,-79.57 1076.54,-87.02 1079.54,-80.7"/>
</a>
</g>
</g>
<!-- Node19 -->
<g id="Node000019" class="node">
<title>Node19</title>
<g id="a_Node000019"><a xlink:title=" ">
<polygon fill="#e0e0e0" stroke="#999999" points="1787.5,-283 1665.5,-283 1665.5,-253 1787.5,-253 1787.5,-283"/>
<text text-anchor="start" x="1673.5" y="-271" font-family="FreeSans" font-size="10.00">boost/container/small</text>
<text text-anchor="middle" x="1726.5" y="-260" font-family="FreeSans" font-size="10.00">_vector.hpp</text>
</a>
</g>
</g>
<!-- Node4&#45;&gt;Node19 -->
<g id="edge19_Node000004_Node000019" class="edge">
<title>Node4&#45;&gt;Node19</title>
<g id="a_edge19_Node000004_Node000019"><a xlink:title=" ">
<path fill="none" stroke="#63b8ff" d="M1391.82,-319.43C1457.71,-311.66 1558.54,-298.98 1655.49,-283.1"/>
<polygon fill="#63b8ff" stroke="#63b8ff" points="1656.16,-286.54 1665.46,-281.45 1655.02,-279.63 1656.16,-286.54"/>
</a>
</g>
</g>
<!-- Node20 -->
<g id="Node000020" class="node">
<title>Node20</title>
<g id="a_Node000020"><a xlink:title=" ">
<polygon fill="#e0e0e0" stroke="#999999" points="1919,-283 1806,-283 1806,-253 1919,-253 1919,-283"/>
<text text-anchor="start" x="1814" y="-271" font-family="FreeSans" font-size="10.00">boost/property_tree</text>
<text text-anchor="middle" x="1862.5" y="-260" font-family="FreeSans" font-size="10.00">/info_parser.hpp</text>
</a>
</g>
</g>
<!-- Node4&#45;&gt;Node20 -->
<g id="edge20_Node000004_Node000020" class="edge">
<title>Node4&#45;&gt;Node20</title>
<g id="a_edge20_Node000004_Node000020"><a xlink:title=" ">
<path fill="none" stroke="#63b8ff" d="M1391.78,-323.42C1483.04,-317.62 1646.19,-305.31 1795.43,-283.04"/>
<polygon fill="#63b8ff" stroke="#63b8ff" points="1796.33,-286.44 1805.69,-281.49 1795.28,-279.52 1796.33,-286.44"/>
</a>
</g>
</g>
<!-- Node21 -->
<g id="Node000021" class="node">
<title>Node21</title>
<g id="a_Node000021"><a xlink:title=" ">
<polygon fill="#e0e0e0" stroke="#999999" points="2050,-283 1937,-283 1937,-253 2050,-253 2050,-283"/>
<text text-anchor="start" x="1945" y="-271" font-family="FreeSans" font-size="10.00">boost/property_tree</text>
<text text-anchor="middle" x="1993.5" y="-260" font-family="FreeSans" font-size="10.00">/json_parser.hpp</text>
</a>
</g>
</g>
<!-- Node4&#45;&gt;Node21 -->
<g id="edge21_Node000004_Node000021" class="edge">
<title>Node4&#45;&gt;Node21</title>
<g id="a_edge21_Node000004_Node000021"><a xlink:title=" ">
<path fill="none" stroke="#63b8ff" d="M1391.86,-325.41C1503.76,-321.44 1727.43,-310.71 1926.64,-282.98"/>
<polygon fill="#63b8ff" stroke="#63b8ff" points="1927.29,-286.42 1936.71,-281.56 1926.31,-279.49 1927.29,-286.42"/>
</a>
</g>
</g>
<!-- Node22 -->
<g id="Node000022" class="node">
<title>Node22</title>
<g id="a_Node000022"><a xlink:title=" ">
<polygon fill="#e0e0e0" stroke="#999999" points="2181,-283 2068,-283 2068,-253 2181,-253 2181,-283"/>
<text text-anchor="start" x="2076" y="-271" font-family="FreeSans" font-size="10.00">boost/property_tree</text>
<text text-anchor="middle" x="2124.5" y="-260" font-family="FreeSans" font-size="10.00">/ptree.hpp</text>
</a>
</g>
</g>
<!-- Node4&#45;&gt;Node22 -->
<g id="edge22_Node000004_Node000022" class="edge">
<title>Node4&#45;&gt;Node22</title>
<g id="a_edge22_Node000004_Node000022"><a xlink:title=" ">
<path fill="none" stroke="#63b8ff" d="M1391.57,-326.72C1521.81,-324.53 1807.57,-316.17 2057.71,-282.95"/>
<polygon fill="#63b8ff" stroke="#63b8ff" points="2058.27,-286.41 2067.71,-281.61 2057.33,-279.47 2058.27,-286.41"/>
</a>
</g>
</g>
<!-- Node23 -->
<g id="Node000023" class="node">
<title>Node23</title>
<g id="a_Node000023"><a xlink:title=" ">
<polygon fill="#e0e0e0" stroke="#999999" points="2312,-283 2199,-283 2199,-253 2312,-253 2312,-283"/>
<text text-anchor="start" x="2207" y="-271" font-family="FreeSans" font-size="10.00">boost/property_tree</text>
<text text-anchor="middle" x="2255.5" y="-260" font-family="FreeSans" font-size="10.00">/xml_parser.hpp</text>
</a>
</g>
</g>
<!-- Node4&#45;&gt;Node23 -->
<g id="edge23_Node000004_Node000023" class="edge">
<title>Node4&#45;&gt;Node23</title>
<g id="a_edge23_Node000004_Node000023"><a xlink:title=" ">
<path fill="none" stroke="#63b8ff" d="M1391.52,-327.65C1538.56,-327.13 1887.04,-321.66 2188.46,-282.97"/>
<polygon fill="#63b8ff" stroke="#63b8ff" points="2189.25,-286.4 2198.72,-281.64 2188.35,-279.46 2189.25,-286.4"/>
</a>
</g>
</g>
<!-- Node24 -->
<g id="Node000024" class="node">
<title>Node24</title>
<g id="a_Node000024"><a xlink:title=" ">
<polygon fill="#e0e0e0" stroke="#999999" points="2437,-283 2330,-283 2330,-253 2437,-253 2437,-283"/>
<text text-anchor="start" x="2338" y="-271" font-family="FreeSans" font-size="10.00">boost/serialization</text>
<text text-anchor="middle" x="2383.5" y="-260" font-family="FreeSans" font-size="10.00">/export.hpp</text>
</a>
</g>
</g>
<!-- Node4&#45;&gt;Node24 -->
<g id="edge24_Node000004_Node000024" class="edge">
<title>Node4&#45;&gt;Node24</title>
<g id="a_edge24_Node000004_Node000024"><a xlink:title=" ">
<path fill="none" stroke="#63b8ff" d="M1391.82,-325.98C1586.1,-321.57 2122.78,-307.61 2319.87,-283.02"/>
<polygon fill="#63b8ff" stroke="#63b8ff" points="2320.37,-286.49 2329.84,-281.73 2319.47,-279.54 2320.37,-286.49"/>
</a>
</g>
</g>
<!-- Node25 -->
<g id="Node000025" class="node">
<title>Node25</title>
<g id="a_Node000025"><a xlink:href="exenv_8h.html" target="_top" xlink:title=" ">
<polygon fill="white" stroke="#666666" points="914,-277.5 787,-277.5 787,-258.5 914,-258.5 914,-277.5"/>
<text text-anchor="middle" x="850.5" y="-265.5" font-family="FreeSans" font-size="10.00">mpqc/util/core/exenv.h</text>
</a>
</g>
</g>
<!-- Node4&#45;&gt;Node25 -->
<g id="edge25_Node000004_Node000025" class="edge">
<title>Node4&#45;&gt;Node25</title>
<g id="a_edge25_Node000004_Node000025"><a xlink:title=" ">
<path fill="none" stroke="#63b8ff" d="M1252.16,-318.99C1164.76,-308.12 1014.01,-289.35 924.14,-278.17"/>
<polygon fill="#63b8ff" stroke="#63b8ff" points="924.38,-274.67 914.03,-276.91 923.52,-281.62 924.38,-274.67"/>
</a>
</g>
</g>
<!-- Node34 -->
<g id="Node000034" class="node">
<title>Node34</title>
<g id="a_Node000034"><a xlink:href="util_2keyval_2fwd_8h.html" target="_top" xlink:title=" ">
<polygon fill="white" stroke="#666666" points="2582,-277.5 2455,-277.5 2455,-258.5 2582,-258.5 2582,-277.5"/>
<text text-anchor="middle" x="2518.5" y="-265.5" font-family="FreeSans" font-size="10.00">mpqc/util/keyval/fwd.h</text>
</a>
</g>
</g>
<!-- Node4&#45;&gt;Node34 -->
<g id="edge43_Node000004_Node000034" class="edge">
<title>Node4&#45;&gt;Node34</title>
<g id="a_edge43_Node000004_Node000034"><a xlink:title=" ">
<path fill="none" stroke="#63b8ff" d="M1391.73,-326.11C1605.74,-321.7 2240.88,-306.91 2446.5,-283 2454.33,-282.09 2462.58,-280.8 2470.59,-279.37"/>
<polygon fill="#63b8ff" stroke="#63b8ff" points="2471.37,-282.79 2480.56,-277.5 2470.08,-275.91 2471.37,-282.79"/>
</a>
</g>
</g>
<!-- Node35 -->
<g id="Node000035" class="node">
<title>Node35</title>
<g id="a_Node000035"><a xlink:href="predicates_8h.html" target="_top" xlink:title=" ">
<polygon fill="white" stroke="#666666" points="306.5,-277.5 152.5,-277.5 152.5,-258.5 306.5,-258.5 306.5,-277.5"/>
<text text-anchor="middle" x="229.5" y="-265.5" font-family="FreeSans" font-size="10.00">mpqc/util/meta/predicates.h</text>
</a>
</g>
</g>
<!-- Node4&#45;&gt;Node35 -->
<g id="edge44_Node000004_Node000035" class="edge">
<title>Node4&#45;&gt;Node35</title>
<g id="a_edge44_Node000004_Node000035"><a xlink:title=" ">
<path fill="none" stroke="#63b8ff" d="M1249.42,-319.7C1246.41,-319.45 1243.43,-319.21 1240.5,-319 830.15,-289.25 724.86,-324.13 315.5,-283 305.68,-282.01 295.28,-280.62 285.23,-279.09"/>
<polygon fill="#63b8ff" stroke="#63b8ff" points="285.76,-275.63 275.33,-277.53 284.66,-282.55 285.76,-275.63"/>
</a>
</g>
</g>
<!-- Node42 -->
<g id="Node000042" class="node">
<title>Node42</title>
<g id="a_Node000042"><a xlink:href="stream_8h.html" target="_top" xlink:title=" ">
<polygon fill="white" stroke="#666666" points="2737,-277.5 2600,-277.5 2600,-258.5 2737,-258.5 2737,-277.5"/>
<text text-anchor="middle" x="2668.5" y="-265.5" font-family="FreeSans" font-size="10.00">mpqc/util/meta/stream.h</text>
</a>
</g>
</g>
<!-- Node4&#45;&gt;Node42 -->
<g id="edge54_Node000004_Node000042" class="edge">
<title>Node4&#45;&gt;Node42</title>
<g id="a_edge54_Node000004_Node000042"><a xlink:title=" ">
<path fill="none" stroke="#63b8ff" d="M1391.72,-326.37C1623.7,-322.46 2356.2,-308.37 2591.5,-283 2600.04,-282.08 2609.07,-280.76 2617.81,-279.29"/>
<polygon fill="#63b8ff" stroke="#63b8ff" points="2618.66,-282.7 2627.9,-277.52 2617.44,-275.8 2618.66,-282.7"/>
</a>
</g>
</g>
<!-- Node12&#45;&gt;Node12 -->
<g id="edge12_Node000012_Node000012" class="edge">
<title>Node12&#45;&gt;Node12</title>
<g id="a_edge12_Node000012_Node000012"><a xlink:title=" ">
<path fill="none" stroke="#63b8ff" d="M746.42,-145.66C761.6,-151.34 778.5,-148.12 778.5,-136 778.5,-126.53 768.19,-122.5 756.43,-123.89"/>
<polygon fill="#63b8ff" stroke="#63b8ff" points="755.3,-120.57 746.42,-126.34 756.96,-127.37 755.3,-120.57"/>
</a>
</g>
</g>
<!-- Node25&#45;&gt;Node8 -->
<g id="edge38_Node000025_Node000008" class="edge">
<title>Node25&#45;&gt;Node8</title>
<g id="a_edge38_Node000025_Node000008"><a xlink:title=" ">
<path fill="none" stroke="#63b8ff" d="M786.86,-261.18C719.3,-254.14 609.76,-240.25 517.5,-217 515,-216.37 512.43,-215.64 509.87,-214.85"/>
<polygon fill="#63b8ff" stroke="#63b8ff" points="510.73,-211.45 500.13,-211.61 508.51,-218.09 510.73,-211.45"/>
</a>
</g>
</g>
<!-- Node25&#45;&gt;Node12 -->
<g id="edge39_Node000025_Node000012" class="edge">
<title>Node25&#45;&gt;Node12</title>
<g id="a_edge39_Node000025_Node000012"><a xlink:title=" ">
<path fill="none" stroke="#63b8ff" d="M794.09,-258.49C769.31,-251.64 742.49,-239.28 727.5,-217 715.22,-198.75 719.64,-172.51 724.81,-155.12"/>
<polygon fill="#63b8ff" stroke="#63b8ff" points="728.15,-156.19 727.99,-145.59 721.51,-153.97 728.15,-156.19"/>
</a>
</g>
</g>
<!-- Node25&#45;&gt;Node13 -->
<g id="edge40_Node000025_Node000013" class="edge">
<title>Node25&#45;&gt;Node13</title>
<g id="a_edge40_Node000025_Node000013"><a xlink:title=" ">
<path fill="none" stroke="#63b8ff" d="M887.81,-258.5C926.91,-249.32 989.99,-233.74 1043.5,-217 1045.63,-216.33 1047.81,-215.62 1050,-214.88"/>
<polygon fill="#63b8ff" stroke="#63b8ff" points="1051.26,-218.14 1059.52,-211.52 1048.93,-211.54 1051.26,-218.14"/>
</a>
</g>
</g>
<!-- Node25&#45;&gt;Node16 -->
<g id="edge42_Node000025_Node000016" class="edge">
<title>Node25&#45;&gt;Node16</title>
<g id="a_edge42_Node000025_Node000016"><a xlink:title=" ">
<path fill="none" stroke="#63b8ff" d="M914.24,-259.08C969.13,-251.32 1050.07,-237.63 1118.5,-217 1120.18,-216.49 1121.89,-215.93 1123.6,-215.33"/>
<polygon fill="#63b8ff" stroke="#63b8ff" points="1125.21,-218.46 1133.26,-211.57 1122.67,-211.93 1125.21,-218.46"/>
</a>
</g>
</g>
<!-- Node25&#45;&gt;Node18 -->
<g id="edge29_Node000025_Node000018" class="edge">
<title>Node25&#45;&gt;Node18</title>
<g id="a_edge29_Node000025_Node000018"><a xlink:title=" ">
<path fill="none" stroke="#63b8ff" d="M853.3,-258.45C861.8,-233.72 889.66,-161.28 936.5,-121 957.21,-103.19 985.27,-90.73 1008.24,-82.7"/>
<polygon fill="#63b8ff" stroke="#63b8ff" points="1009.37,-86.02 1017.74,-79.53 1007.15,-79.38 1009.37,-86.02"/>
</a>
</g>
</g>
<!-- Node26 -->
<g id="Node000026" class="node">
<title>Node26</title>
<g id="a_Node000026"><a xlink:href="math_2external_2tiledarray_2fwd_8h.html" target="_top" xlink:title=" ">
<polygon fill="white" stroke="#666666" points="642.5,-217 526.5,-217 526.5,-187 642.5,-187 642.5,-217"/>
<text text-anchor="start" x="534.5" y="-205" font-family="FreeSans" font-size="10.00">mpqc/math/external</text>
<text text-anchor="middle" x="584.5" y="-194" font-family="FreeSans" font-size="10.00">/tiledarray/fwd.h</text>
</a>
</g>
</g>
<!-- Node25&#45;&gt;Node26 -->
<g id="edge26_Node000025_Node000026" class="edge">
<title>Node25&#45;&gt;Node26</title>
<g id="a_edge26_Node000025_Node000026"><a xlink:title=" ">
<path fill="none" stroke="#63b8ff" d="M814.9,-258.44C773.47,-248.47 704.13,-231.78 652.32,-219.32"/>
<polygon fill="#63b8ff" stroke="#63b8ff" points="653.08,-215.9 642.54,-216.96 651.44,-222.71 653.08,-215.9"/>
</a>
</g>
</g>
<!-- Node28 -->
<g id="Node000028" class="node">
<title>Node28</title>
<g id="a_Node000028"><a xlink:href="formio_8h.html" target="_top" xlink:title=" ">
<polygon fill="white" stroke="#666666" points="1035,-211.5 904,-211.5 904,-192.5 1035,-192.5 1035,-211.5"/>
<text text-anchor="middle" x="969.5" y="-199.5" font-family="FreeSans" font-size="10.00">mpqc/util/core/formio.h</text>
</a>
</g>
</g>
<!-- Node25&#45;&gt;Node28 -->
<g id="edge30_Node000025_Node000028" class="edge">
<title>Node25&#45;&gt;Node28</title>
<g id="a_edge30_Node000025_Node000028"><a xlink:title=" ">
<path fill="none" stroke="#63b8ff" d="M866.55,-258.37C886.51,-247.63 920.82,-229.18 944.3,-216.55"/>
<polygon fill="#63b8ff" stroke="#63b8ff" points="946.18,-219.52 953.33,-211.7 942.86,-213.35 946.18,-219.52"/>
</a>
</g>
</g>
<!-- Node32 -->
<g id="Node000032" class="node">
<title>Node32</title>
<g id="a_Node000032"><a xlink:title=" ">
<polygon fill="#e0e0e0" stroke="#999999" points="786,-211.5 737,-211.5 737,-192.5 786,-192.5 786,-211.5"/>
<text text-anchor="middle" x="761.5" y="-199.5" font-family="FreeSans" font-size="10.00">cstdlib</text>
</a>
</g>
</g>
<!-- Node25&#45;&gt;Node32 -->
<g id="edge37_Node000025_Node000032" class="edge">
<title>Node25&#45;&gt;Node32</title>
<g id="a_edge37_Node000025_Node000032"><a xlink:title=" ">
<path fill="none" stroke="#63b8ff" d="M838.5,-258.37C824.03,-247.97 799.49,-230.32 782.01,-217.75"/>
<polygon fill="#63b8ff" stroke="#63b8ff" points="783.76,-214.7 773.6,-211.7 779.67,-220.38 783.76,-214.7"/>
</a>
</g>
</g>
<!-- Node33 -->
<g id="Node000033" class="node">
<title>Node33</title>
<g id="a_Node000033"><a xlink:title=" ">
<polygon fill="#e0e0e0" stroke="#999999" points="847,-211.5 804,-211.5 804,-192.5 847,-192.5 847,-211.5"/>
<text text-anchor="middle" x="825.5" y="-199.5" font-family="FreeSans" font-size="10.00">stack</text>
</a>
</g>
</g>
<!-- Node25&#45;&gt;Node33 -->
<g id="edge41_Node000025_Node000033" class="edge">
<title>Node25&#45;&gt;Node33</title>
<g id="a_edge41_Node000025_Node000033"><a xlink:title=" ">
<path fill="none" stroke="#63b8ff" d="M847.13,-258.37C843.46,-248.97 837.48,-233.67 832.74,-221.53"/>
<polygon fill="#63b8ff" stroke="#63b8ff" points="835.88,-219.95 828.98,-211.91 829.36,-222.49 835.88,-219.95"/>
</a>
</g>
</g>
<!-- Node26&#45;&gt;Node18 -->
<g id="edge27_Node000026_Node000018" class="edge">
<title>Node26&#45;&gt;Node18</title>
<g id="a_edge27_Node000026_Node000018"><a xlink:title=" ">
<path fill="none" stroke="#63b8ff" d="M578.19,-186.87C571.34,-169.14 563.4,-138.9 579.5,-121 605.82,-91.73 856.67,-78.25 980.72,-73.33"/>
<polygon fill="#63b8ff" stroke="#63b8ff" points="981.02,-76.82 990.88,-72.94 980.75,-69.83 981.02,-76.82"/>
</a>
</g>
</g>
<!-- Node27 -->
<g id="Node000027" class="node">
<title>Node27</title>
<g id="a_Node000027"><a xlink:title=" ">
<polygon fill="#e0e0e0" stroke="#999999" points="684,-145.5 589,-145.5 589,-126.5 684,-126.5 684,-145.5"/>
<text text-anchor="middle" x="636.5" y="-133.5" font-family="FreeSans" font-size="10.00">tiledarray_fwd.h</text>
</a>
</g>
</g>
<!-- Node26&#45;&gt;Node27 -->
<g id="edge28_Node000026_Node000027" class="edge">
<title>Node26&#45;&gt;Node27</title>
<g id="a_edge28_Node000026_Node000027"><a xlink:title=" ">
<path fill="none" stroke="#63b8ff" d="M596.04,-186.8C603.99,-177.01 614.58,-163.98 622.93,-153.7"/>
<polygon fill="#63b8ff" stroke="#63b8ff" points="625.72,-155.81 629.31,-145.84 620.29,-151.4 625.72,-155.81"/>
</a>
</g>
</g>
<!-- Node28&#45;&gt;Node11 -->
<g id="edge32_Node000028_Node000011" class="edge">
<title>Node28&#45;&gt;Node11</title>
<g id="a_edge32_Node000028_Node000011"><a xlink:title=" ">
<path fill="none" stroke="#63b8ff" d="M988.79,-192.37C1013.2,-181.44 1055.47,-162.52 1083.71,-149.88"/>
<polygon fill="#63b8ff" stroke="#63b8ff" points="1085.37,-152.98 1093.06,-145.7 1082.51,-146.59 1085.37,-152.98"/>
</a>
</g>
</g>
<!-- Node28&#45;&gt;Node12 -->
<g id="edge33_Node000028_Node000012" class="edge">
<title>Node28&#45;&gt;Node12</title>
<g id="a_edge33_Node000028_Node000012"><a xlink:title=" ">
<path fill="none" stroke="#63b8ff" d="M937.4,-192.37C894.14,-180.73 817.18,-160.04 770.59,-147.51"/>
<polygon fill="#63b8ff" stroke="#63b8ff" points="771.42,-144.11 760.85,-144.89 769.6,-150.87 771.42,-144.11"/>
</a>
</g>
</g>
<!-- Node29 -->
<g id="Node000029" class="node">
<title>Node29</title>
<g id="a_Node000029"><a xlink:title=" ">
<polygon fill="#e0e0e0" stroke="#999999" points="993.5,-145.5 945.5,-145.5 945.5,-126.5 993.5,-126.5 993.5,-145.5"/>
<text text-anchor="middle" x="969.5" y="-133.5" font-family="FreeSans" font-size="10.00">iosfwd</text>
</a>
</g>
</g>
<!-- Node28&#45;&gt;Node29 -->
<g id="edge31_Node000028_Node000029" class="edge">
<title>Node28&#45;&gt;Node29</title>
<g id="a_edge31_Node000028_Node000029"><a xlink:title=" ">
<path fill="none" stroke="#63b8ff" d="M969.5,-192.37C969.5,-183.16 969.5,-168.29 969.5,-156.27"/>
<polygon fill="#63b8ff" stroke="#63b8ff" points="973,-155.91 969.5,-145.91 966,-155.91 973,-155.91"/>
</a>
</g>
</g>
<!-- Node28&#45;&gt;Node30 -->
<g id="edge34_Node000028_Node000030" class="edge">
<title>Node28&#45;&gt;Node30</title>
<g id="a_edge34_Node000028_Node000030"><a xlink:title=" ">
<path fill="none" stroke="#63b8ff" d="M1015.1,-192.44C1024.8,-190.63 1034.99,-188.74 1044.5,-187 1118.18,-173.5 1202.9,-158.31 1259.26,-148.25"/>
<polygon fill="#63b8ff" stroke="#63b8ff" points="1260.22,-151.64 1269.45,-146.44 1258.99,-144.75 1260.22,-151.64"/>
</a>
</g>
</g>
<!-- Node30&#45;&gt;Node18 -->
<g id="edge35_Node000030_Node000018" class="edge">
<title>Node30&#45;&gt;Node18</title>
<g id="a_edge35_Node000030_Node000018"><a xlink:title=" ">
<path fill="none" stroke="#63b8ff" d="M1269.21,-122.51C1218.8,-110.69 1143.9,-93.13 1095.88,-81.87"/>
<polygon fill="#63b8ff" stroke="#63b8ff" points="1096.6,-78.45 1086.07,-79.57 1095,-85.26 1096.6,-78.45"/>
</a>
</g>
</g>
<!-- Node31 -->
<g id="Node000031" class="node">
<title>Node31</title>
<g id="a_Node000031"><a xlink:title=" ">
<polygon fill="#e0e0e0" stroke="#999999" points="1345,-79.5 1300,-79.5 1300,-60.5 1345,-60.5 1345,-79.5"/>
<text text-anchor="middle" x="1322.5" y="-67.5" font-family="FreeSans" font-size="10.00">utility</text>
</a>
</g>
</g>
<!-- Node30&#45;&gt;Node31 -->
<g id="edge36_Node000030_Node000031" class="edge">
<title>Node30&#45;&gt;Node31</title>
<g id="a_edge36_Node000030_Node000031"><a xlink:title=" ">
<path fill="none" stroke="#63b8ff" d="M1322.5,-120.8C1322.5,-111.7 1322.5,-99.79 1322.5,-89.9"/>
<polygon fill="#63b8ff" stroke="#63b8ff" points="1326,-89.84 1322.5,-79.84 1319,-89.84 1326,-89.84"/>
</a>
</g>
</g>
<!-- Node36 -->
<g id="Node000036" class="node">
<title>Node36</title>
<g id="a_Node000036"><a xlink:href="get__type_8h.html" target="_top" xlink:title=" ">
<polygon fill="white" stroke="#666666" points="284.5,-217 174.5,-217 174.5,-187 284.5,-187 284.5,-217"/>
<text text-anchor="start" x="182.5" y="-205" font-family="FreeSans" font-size="10.00">mpqc/util/meta/get</text>
<text text-anchor="middle" x="229.5" y="-194" font-family="FreeSans" font-size="10.00">_type.h</text>
</a>
</g>
</g>
<!-- Node35&#45;&gt;Node36 -->
<g id="edge45_Node000035_Node000036" class="edge">
<title>Node35&#45;&gt;Node36</title>
<g id="a_edge45_Node000035_Node000036"><a xlink:title=" ">
<path fill="none" stroke="#63b8ff" d="M229.5,-258.37C229.5,-250.49 229.5,-238.45 229.5,-227.6"/>
<polygon fill="#63b8ff" stroke="#63b8ff" points="233,-227.36 229.5,-217.36 226,-227.36 233,-227.36"/>
</a>
</g>
</g>
<!-- Node37 -->
<g id="Node000037" class="node">
<title>Node37</title>
<g id="a_Node000037"><a xlink:href="type__traits_8h.html" target="_top" xlink:title=" ">
<polygon fill="white" stroke="#666666" points="268.5,-145.5 190.5,-145.5 190.5,-126.5 268.5,-126.5 268.5,-145.5"/>
<text text-anchor="middle" x="229.5" y="-133.5" font-family="FreeSans" font-size="10.00">type_traits.h</text>
</a>
</g>
</g>
<!-- Node36&#45;&gt;Node37 -->
<g id="edge46_Node000036_Node000037" class="edge">
<title>Node36&#45;&gt;Node37</title>
<g id="a_edge46_Node000036_Node000037"><a xlink:title=" ">
<path fill="none" stroke="#63b8ff" d="M229.5,-186.8C229.5,-177.7 229.5,-165.79 229.5,-155.9"/>
<polygon fill="#63b8ff" stroke="#63b8ff" points="233,-155.84 229.5,-145.84 226,-155.84 233,-155.84"/>
</a>
</g>
</g>
<!-- Node37&#45;&gt;Node5 -->
<g id="edge47_Node000037_Node000005" class="edge">
<title>Node37&#45;&gt;Node5</title>
<g id="a_edge47_Node000037_Node000005"><a xlink:title=" ">
<path fill="none" stroke="#63b8ff" d="M258.17,-126.47C289.62,-116.97 341.48,-100.84 385.5,-85 387.11,-84.42 388.75,-83.81 390.41,-83.19"/>
<polygon fill="#63b8ff" stroke="#63b8ff" points="391.8,-86.41 399.86,-79.53 389.27,-79.88 391.8,-86.41"/>
</a>
</g>
</g>
<!-- Node38 -->
<g id="Node000038" class="node">
<title>Node38</title>
<g id="a_Node000038"><a xlink:title=" ">
<polygon fill="#e0e0e0" stroke="#999999" points="355.5,-19 305.5,-19 305.5,0 355.5,0 355.5,-19"/>
<text text-anchor="middle" x="330.5" y="-7" font-family="FreeSans" font-size="10.00">atomic</text>
</a>
</g>
</g>
<!-- Node37&#45;&gt;Node38 -->
<g id="edge48_Node000037_Node000038" class="edge">
<title>Node37&#45;&gt;Node38</title>
<g id="a_edge48_Node000037_Node000038"><a xlink:title=" ">
<path fill="none" stroke="#63b8ff" d="M268.59,-130.53C297.11,-125 333.9,-112.63 352.5,-85 364.33,-67.42 353.35,-43.35 343.1,-27.38"/>
<polygon fill="#63b8ff" stroke="#63b8ff" points="345.89,-25.26 337.33,-19.02 340.13,-29.24 345.89,-25.26"/>
</a>
</g>
</g>
<!-- Node39 -->
<g id="Node000039" class="node">
<title>Node39</title>
<g id="a_Node000039"><a xlink:title=" ">
<polygon fill="#e0e0e0" stroke="#999999" points="69,-79.5 0,-79.5 0,-60.5 69,-60.5 69,-79.5"/>
<text text-anchor="middle" x="34.5" y="-67.5" font-family="FreeSans" font-size="10.00">type_traits</text>
</a>
</g>
</g>
<!-- Node37&#45;&gt;Node39 -->
<g id="edge49_Node000037_Node000039" class="edge">
<title>Node37&#45;&gt;Node39</title>
<g id="a_edge49_Node000037_Node000039"><a xlink:title=" ">
<path fill="none" stroke="#63b8ff" d="M203.2,-126.37C168.94,-115.12 108.89,-95.42 70.45,-82.8"/>
<polygon fill="#63b8ff" stroke="#63b8ff" points="71.29,-79.39 60.69,-79.6 69.1,-86.04 71.29,-79.39"/>
</a>
</g>
</g>
<!-- Node40 -->
<g id="Node000040" class="node">
<title>Node40</title>
<g id="a_Node000040"><a xlink:href="atomic_8h.html" target="_top" xlink:title=" ">
<polygon fill="white" stroke="#666666" points="343.5,-85 237.5,-85 237.5,-55 343.5,-55 343.5,-85"/>
<text text-anchor="start" x="245.5" y="-73" font-family="FreeSans" font-size="10.00">mpqc/util/external</text>
<text text-anchor="middle" x="290.5" y="-62" font-family="FreeSans" font-size="10.00">/c++/atomic.h</text>
</a>
</g>
</g>
<!-- Node37&#45;&gt;Node40 -->
<g id="edge50_Node000037_Node000040" class="edge">
<title>Node37&#45;&gt;Node40</title>
<g id="a_edge50_Node000037_Node000040"><a xlink:title=" ">
<path fill="none" stroke="#63b8ff" d="M237.73,-126.37C245.86,-117.83 258.66,-104.41 269.61,-92.92"/>
<polygon fill="#63b8ff" stroke="#63b8ff" points="272.45,-95.01 276.81,-85.36 267.38,-90.18 272.45,-95.01"/>
</a>
</g>
</g>
<!-- Node41 -->
<g id="Node000041" class="node">
<title>Node41</title>
<g id="a_Node000041"><a xlink:href="sfinae_8h.html" target="_top" xlink:title=" ">
<polygon fill="white" stroke="#666666" points="219.5,-79.5 87.5,-79.5 87.5,-60.5 219.5,-60.5 219.5,-79.5"/>
<text text-anchor="middle" x="153.5" y="-67.5" font-family="FreeSans" font-size="10.00">mpqc/util/meta/sfinae.h</text>
</a>
</g>
</g>
<!-- Node37&#45;&gt;Node41 -->
<g id="edge52_Node000037_Node000041" class="edge">
<title>Node37&#45;&gt;Node41</title>
<g id="a_edge52_Node000037_Node000041"><a xlink:title=" ">
<path fill="none" stroke="#63b8ff" d="M214.46,-126.37C200.37,-116.31 180,-99.48 166.57,-87.01"/>
<polygon fill="#63b8ff" stroke="#63b8ff" points="168.85,-84.34 159.23,-79.91 163.98,-89.37 168.85,-84.34"/>
</a>
</g>
</g>
<!-- Node40&#45;&gt;Node38 -->
<g id="edge51_Node000040_Node000038" class="edge">
<title>Node40&#45;&gt;Node38</title>
<g id="a_edge51_Node000040_Node000038"><a xlink:title=" ">
<path fill="none" stroke="#63b8ff" d="M300.18,-54.84C305.75,-46.69 312.79,-36.4 318.68,-27.78"/>
<polygon fill="#63b8ff" stroke="#63b8ff" points="321.75,-29.5 324.51,-19.27 315.97,-25.55 321.75,-29.5"/>
</a>
</g>
</g>
<!-- Node41&#45;&gt;Node37 -->
<g id="edge53_Node000041_Node000037" class="edge">
<title>Node41&#45;&gt;Node37</title>
<g id="a_edge53_Node000041_Node000037"><a xlink:title=" ">
<path fill="none" stroke="#63b8ff" d="M168.63,-79.7C182.84,-89.84 203.35,-106.82 216.74,-119.29"/>
<polygon fill="#63b8ff" stroke="#63b8ff" points="214.43,-121.91 224.04,-126.37 219.3,-116.89 214.43,-121.91"/>
</a>
</g>
</g>
<!-- Node43 -->
<g id="Node000043" class="node">
<title>Node43</title>
<g id="a_Node000043"><a xlink:title=" ">
<polygon fill="#e0e0e0" stroke="#999999" points="2726.5,-217 2610.5,-217 2610.5,-187 2726.5,-187 2726.5,-217"/>
<text text-anchor="start" x="2618.5" y="-205" font-family="FreeSans" font-size="10.00">madness/world/type</text>
<text text-anchor="middle" x="2668.5" y="-194" font-family="FreeSans" font-size="10.00">_traits.h</text>
</a>
</g>
</g>
<!-- Node42&#45;&gt;Node43 -->
<g id="edge55_Node000042_Node000043" class="edge">
<title>Node42&#45;&gt;Node43</title>
<g id="a_edge55_Node000042_Node000043"><a xlink:title=" ">
<path fill="none" stroke="#63b8ff" d="M2668.5,-258.37C2668.5,-250.49 2668.5,-238.45 2668.5,-227.6"/>
<polygon fill="#63b8ff" stroke="#63b8ff" points="2672,-227.36 2668.5,-217.36 2665,-227.36 2672,-227.36"/>
</a>
</g>
</g>
</g>
</svg>

<g id="navigator" transform="translate(0 0)" fill="#404254">
  <rect fill="#f2f5e9" fill-opacity="0.5" stroke="#606060" stroke-width=".5" x="0" y="0" width="60" height="60"/>
  <use id="zoomplus" xlink:href="#zoomPlus" x="17" y="9" onmousedown="handleZoom(evt,'in')"/>
  <use id="zoomminus" xlink:href="#zoomMin" x="42" y="9" onmousedown="handleZoom(evt,'out')"/>
  <use id="reset" xlink:href="#resetDef" x="30" y="36" onmousedown="handleReset()"/>
   <use id="arrowup" xlink:href="#arrowUp" x="0" y="0" onmousedown="handlePan(0,-1)"/>
  <use id="arrowright" xlink:href="#arrowRight" x="0" y="0" onmousedown="handlePan(1,0)"/>
  <use id="arrowdown" xlink:href="#arrowDown" x="0" y="0" onmousedown="handlePan(0,1)"/>
  <use id="arrowleft" xlink:href="#arrowLeft" x="0" y="0" onmousedown="handlePan(-1,0)"/>
</g>
<svg viewBox="0 0 15 15" width="100%" height="30px" preserveAspectRatio="xMaxYMin meet">
 <g id="arrow_out" transform="scale(0.3 0.3)">
  <a xlink:href="threshold_8h__incl_org.svg" target="_base">
   <rect id="button" ry="5" rx="5" y="6" x="6" height="38" width="38"
        fill="#f2f5e9" fill-opacity="0.5" stroke="#606060" stroke-width="1.0"/>
   <path id="arrow"
     d="M 11.500037,31.436501 C 11.940474,20.09759 22.043105,11.32322 32.158766,21.979434 L 37.068811,17.246167 C 37.068811,17.246167 37.088388,32 37.088388,32 L 22.160133,31.978069 C 22.160133,31.978069 26.997745,27.140456 26.997745,27.140456 C 18.528582,18.264221 13.291696,25.230495 11.500037,31.436501 z"
     style="fill:#404040;"/>
  </a>
 </g>
</svg>

<style type='text/css'>
<![CDATA[
[data-mouse-over-selected='false'] { opacity: 0.7; }
[data-mouse-over-selected='true']  { opacity: 1.0; }
]]>
</style>
<script type="application/ecmascript"><![CDATA[
document.addEventListener('DOMContentLoaded', (event) => {
  highlightEdges();
  highlightAdjacentNodes();
});
]]></script>
</svg>
