<?xml version="1.0" encoding="UTF-8" standalone="no"?>
<!DOCTYPE svg PUBLIC "-//W3C//DTD SVG 1.1//EN"
 "http://www.w3.org/Graphics/SVG/1.1/DTD/svg11.dtd">
<!-- Generated by graphviz version 2.43.0 (0)
 -->
<!-- Title: mpqc/chemistry/qc/lcao/scf/pbc/three_center_contraction_builder.h Pages: 1 -->
<svg width="443pt" height="379pt"
 viewBox="0.00 0.00 443.00 379.00" xmlns="http://www.w3.org/2000/svg" xmlns:xlink="http://www.w3.org/1999/xlink">
<g id="graph0" class="graph" transform="scale(1 1) rotate(0) translate(4 375)">
<title>mpqc/chemistry/qc/lcao/scf/pbc/three_center_contraction_builder.h</title>
<!-- Node1 -->
<g id="Node000001" class="node">
<title>Node1</title>
<g id="a_Node000001"><a xlink:title=" ">
<polygon fill="#999999" stroke="#666666" points="133,-371 0,-371 0,-330 133,-330 133,-371"/>
<text text-anchor="start" x="8" y="-359" font-family="FreeSans" font-size="10.00">mpqc/chemistry/qc/lcao</text>
<text text-anchor="start" x="8" y="-348" font-family="FreeSans" font-size="10.00">/scf/pbc/three_center</text>
<text text-anchor="middle" x="66.5" y="-337" font-family="FreeSans" font-size="10.00">_contraction_builder.h</text>
</a>
</g>
</g>
<!-- Node2 -->
<g id="Node000002" class="node">
<title>Node2</title>
<g id="a_Node000002"><a xlink:href="dfj__builder_8ipp.html" target="_top" xlink:title=" ">
<polygon fill="white" stroke="#666666" points="133,-294 0,-294 0,-264 133,-264 133,-294"/>
<text text-anchor="start" x="8" y="-282" font-family="FreeSans" font-size="10.00">mpqc/chemistry/qc/lcao</text>
<text text-anchor="middle" x="66.5" y="-271" font-family="FreeSans" font-size="10.00">/scf/pbc/dfj_builder.ipp</text>
</a>
</g>
</g>
<!-- Node1&#45;&gt;Node2 -->
<g id="edge1_Node000001_Node000002" class="edge">
<title>Node1&#45;&gt;Node2</title>
<g id="a_edge1_Node000001_Node000002"><a xlink:title=" ">
<path fill="none" stroke="#63b8ff" d="M66.5,-319.66C66.5,-310.76 66.5,-301.42 66.5,-294.04"/>
<polygon fill="#63b8ff" stroke="#63b8ff" points="63,-319.77 66.5,-329.77 70,-319.77 63,-319.77"/>
</a>
</g>
</g>
<!-- Node3 -->
<g id="Node000003" class="node">
<title>Node3</title>
<g id="a_Node000003"><a xlink:href="dfj__builder_8h.html" target="_top" xlink:title=" ">
<polygon fill="white" stroke="#666666" points="133,-228 0,-228 0,-198 133,-198 133,-228"/>
<text text-anchor="start" x="8" y="-216" font-family="FreeSans" font-size="10.00">mpqc/chemistry/qc/lcao</text>
<text text-anchor="middle" x="66.5" y="-205" font-family="FreeSans" font-size="10.00">/scf/pbc/dfj_builder.h</text>
</a>
</g>
</g>
<!-- Node2&#45;&gt;Node3 -->
<g id="edge2_Node000002_Node000003" class="edge">
<title>Node2&#45;&gt;Node3</title>
<g id="a_edge2_Node000002_Node000003"><a xlink:title=" ">
<path fill="none" stroke="#63b8ff" d="M59.93,-253.83C59.52,-245.17 59.81,-235.7 60.79,-228.16"/>
<polygon fill="#63b8ff" stroke="#63b8ff" points="56.45,-254.13 60.78,-263.8 63.42,-253.54 56.45,-254.13"/>
</a>
</g>
</g>
<!-- Node5 -->
<g id="Node000005" class="node">
<title>Node5</title>
<g id="a_Node000005"><a xlink:href="pbc_2rhf_8ipp.html" target="_top" xlink:title=" ">
<polygon fill="white" stroke="#666666" points="284,-228 151,-228 151,-198 284,-198 284,-228"/>
<text text-anchor="start" x="159" y="-216" font-family="FreeSans" font-size="10.00">mpqc/chemistry/qc/lcao</text>
<text text-anchor="middle" x="217.5" y="-205" font-family="FreeSans" font-size="10.00">/scf/pbc/rhf.ipp</text>
</a>
</g>
</g>
<!-- Node2&#45;&gt;Node5 -->
<g id="edge5_Node000002_Node000005" class="edge">
<title>Node2&#45;&gt;Node5</title>
<g id="a_edge5_Node000002_Node000005"><a xlink:title=" ">
<path fill="none" stroke="#63b8ff" d="M109.16,-259.92C133.03,-249.8 162.33,-237.38 184.44,-228.01"/>
<polygon fill="#63b8ff" stroke="#63b8ff" points="107.48,-256.83 99.64,-263.95 110.21,-263.28 107.48,-256.83"/>
</a>
</g>
</g>
<!-- Node3&#45;&gt;Node2 -->
<g id="edge4_Node000003_Node000002" class="edge">
<title>Node3&#45;&gt;Node2</title>
<g id="a_edge4_Node000003_Node000002"><a xlink:title=" ">
<path fill="none" stroke="#63b8ff" d="M73.07,-238.13C73.48,-246.78 73.2,-256.26 72.22,-263.8"/>
<polygon fill="#63b8ff" stroke="#63b8ff" points="76.55,-237.83 72.21,-228.16 69.58,-238.43 76.55,-237.83"/>
</a>
</g>
</g>
<!-- Node4 -->
<g id="Node000004" class="node">
<title>Node4</title>
<g id="a_Node000004"><a xlink:href="dfj__builder_8cpp.html" target="_top" xlink:title=" ">
<polygon fill="white" stroke="#666666" points="133,-162 0,-162 0,-132 133,-132 133,-162"/>
<text text-anchor="start" x="8" y="-150" font-family="FreeSans" font-size="10.00">mpqc/chemistry/qc/lcao</text>
<text text-anchor="middle" x="66.5" y="-139" font-family="FreeSans" font-size="10.00">/scf/pbc/dfj_builder.cpp</text>
</a>
</g>
</g>
<!-- Node3&#45;&gt;Node4 -->
<g id="edge3_Node000003_Node000004" class="edge">
<title>Node3&#45;&gt;Node4</title>
<g id="a_edge3_Node000003_Node000004"><a xlink:title=" ">
<path fill="none" stroke="#63b8ff" d="M66.5,-187.54C66.5,-178.96 66.5,-169.61 66.5,-162.16"/>
<polygon fill="#63b8ff" stroke="#63b8ff" points="63,-187.8 66.5,-197.8 70,-187.8 63,-187.8"/>
</a>
</g>
</g>
<!-- Node6 -->
<g id="Node000006" class="node">
<title>Node6</title>
<g id="a_Node000006"><a xlink:href="pbc_2rhf_8h.html" target="_top" xlink:title=" ">
<polygon fill="white" stroke="#666666" points="284,-162 151,-162 151,-132 284,-132 284,-162"/>
<text text-anchor="start" x="159" y="-150" font-family="FreeSans" font-size="10.00">mpqc/chemistry/qc/lcao</text>
<text text-anchor="middle" x="217.5" y="-139" font-family="FreeSans" font-size="10.00">/scf/pbc/rhf.h</text>
</a>
</g>
</g>
<!-- Node5&#45;&gt;Node6 -->
<g id="edge6_Node000005_Node000006" class="edge">
<title>Node5&#45;&gt;Node6</title>
<g id="a_edge6_Node000005_Node000006"><a xlink:title=" ">
<path fill="none" stroke="#63b8ff" d="M210.93,-187.83C210.52,-179.17 210.81,-169.7 211.79,-162.16"/>
<polygon fill="#63b8ff" stroke="#63b8ff" points="207.45,-188.13 211.78,-197.8 214.42,-187.54 207.45,-188.13"/>
</a>
</g>
</g>
<!-- Node10 -->
<g id="Node000010" class="node">
<title>Node10</title>
<g id="a_Node000010"><a xlink:href="sd_8impl_8cpp.html" target="_top" xlink:title=" ">
<polygon fill="white" stroke="#666666" points="435,-162 302,-162 302,-132 435,-132 435,-162"/>
<text text-anchor="start" x="310" y="-150" font-family="FreeSans" font-size="10.00">mpqc/chemistry/qc/lcao</text>
<text text-anchor="middle" x="368.5" y="-139" font-family="FreeSans" font-size="10.00">/scf/pbc/sd.impl.cpp</text>
</a>
</g>
</g>
<!-- Node5&#45;&gt;Node10 -->
<g id="edge11_Node000005_Node000010" class="edge">
<title>Node5&#45;&gt;Node10</title>
<g id="a_edge11_Node000005_Node000010"><a xlink:title=" ">
<path fill="none" stroke="#63b8ff" d="M260.16,-193.92C284.03,-183.8 313.33,-171.38 335.44,-162.01"/>
<polygon fill="#63b8ff" stroke="#63b8ff" points="258.48,-190.83 250.64,-197.95 261.21,-197.28 258.48,-190.83"/>
</a>
</g>
</g>
<!-- Node6&#45;&gt;Node5 -->
<g id="edge8_Node000006_Node000005" class="edge">
<title>Node6&#45;&gt;Node5</title>
<g id="a_edge8_Node000006_Node000005"><a xlink:title=" ">
<path fill="none" stroke="#63b8ff" d="M224.07,-172.13C224.48,-180.78 224.2,-190.26 223.22,-197.8"/>
<polygon fill="#63b8ff" stroke="#63b8ff" points="227.55,-171.83 223.21,-162.16 220.58,-172.43 227.55,-171.83"/>
</a>
</g>
</g>
<!-- Node7 -->
<g id="Node000007" class="node">
<title>Node7</title>
<g id="a_Node000007"><a xlink:href="pbc_2rhf_8cpp.html" target="_top" xlink:title=" ">
<polygon fill="white" stroke="#666666" points="209,-96 76,-96 76,-66 209,-66 209,-96"/>
<text text-anchor="start" x="84" y="-84" font-family="FreeSans" font-size="10.00">mpqc/chemistry/qc/lcao</text>
<text text-anchor="middle" x="142.5" y="-73" font-family="FreeSans" font-size="10.00">/scf/pbc/rhf.cpp</text>
</a>
</g>
</g>
<!-- Node6&#45;&gt;Node7 -->
<g id="edge7_Node000006_Node000007" class="edge">
<title>Node6&#45;&gt;Node7</title>
<g id="a_edge7_Node000006_Node000007"><a xlink:title=" ">
<path fill="none" stroke="#63b8ff" d="M193.13,-125.2C181.99,-115.7 169.09,-104.69 159.1,-96.16"/>
<polygon fill="#63b8ff" stroke="#63b8ff" points="190.98,-127.97 200.86,-131.8 195.52,-122.64 190.98,-127.97"/>
</a>
</g>
</g>
<!-- Node8 -->
<g id="Node000008" class="node">
<title>Node8</title>
<g id="a_Node000008"><a xlink:href="solver_8ipp.html" target="_top" xlink:title=" ">
<polygon fill="white" stroke="#666666" points="359.5,-96 227.5,-96 227.5,-66 359.5,-66 359.5,-96"/>
<text text-anchor="start" x="235.5" y="-84" font-family="FreeSans" font-size="10.00">mpqc/chemistry/qc/mra</text>
<text text-anchor="middle" x="293.5" y="-73" font-family="FreeSans" font-size="10.00">/scf/solver.ipp</text>
</a>
</g>
</g>
<!-- Node6&#45;&gt;Node8 -->
<g id="edge9_Node000006_Node000008" class="edge">
<title>Node6&#45;&gt;Node8</title>
<g id="a_edge9_Node000006_Node000008"><a xlink:title=" ">
<path fill="none" stroke="#63b8ff" d="M242.2,-125.2C253.48,-115.7 266.55,-104.69 276.68,-96.16"/>
<polygon fill="#63b8ff" stroke="#63b8ff" points="239.76,-122.68 234.37,-131.8 244.27,-128.03 239.76,-122.68"/>
</a>
</g>
</g>
<!-- Node9 -->
<g id="Node000009" class="node">
<title>Node9</title>
<g id="a_Node000009"><a xlink:href="solver_8cpp.html" target="_top" xlink:title=" ">
<polygon fill="white" stroke="#666666" points="359.5,-30 227.5,-30 227.5,0 359.5,0 359.5,-30"/>
<text text-anchor="start" x="235.5" y="-18" font-family="FreeSans" font-size="10.00">mpqc/chemistry/qc/mra</text>
<text text-anchor="middle" x="293.5" y="-7" font-family="FreeSans" font-size="10.00">/scf/solver.cpp</text>
</a>
</g>
</g>
<!-- Node8&#45;&gt;Node9 -->
<g id="edge10_Node000008_Node000009" class="edge">
<title>Node8&#45;&gt;Node9</title>
<g id="a_edge10_Node000008_Node000009"><a xlink:title=" ">
<path fill="none" stroke="#63b8ff" d="M293.5,-55.54C293.5,-46.96 293.5,-37.61 293.5,-30.16"/>
<polygon fill="#63b8ff" stroke="#63b8ff" points="290,-55.8 293.5,-65.8 297,-55.8 290,-55.8"/>
</a>
</g>
</g>
</g>
</svg>
