<?xml version="1.0" encoding="UTF-8" standalone="no"?>
<!DOCTYPE svg PUBLIC "-//W3C//DTD SVG 1.1//EN"
 "http://www.w3.org/Graphics/SVG/1.1/DTD/svg11.dtd">
<!-- Generated by graphviz version 2.43.0 (0)
 -->
<!-- Title: mpqc/math/external/tiledarray/threshold.h Pages: 1 -->
<svg width="557pt" height="434pt"
 viewBox="0.00 0.00 556.50 434.00" xmlns="http://www.w3.org/2000/svg" xmlns:xlink="http://www.w3.org/1999/xlink">
<g id="graph0" class="graph" transform="scale(1 1) rotate(0) translate(4 430)">
<title>mpqc/math/external/tiledarray/threshold.h</title>
<!-- Node1 -->
<g id="Node000001" class="node">
<title>Node1</title>
<g id="a_Node000001"><a xlink:title=" ">
<polygon fill="#999999" stroke="#666666" points="208.5,-426 83.5,-426 83.5,-396 208.5,-396 208.5,-426"/>
<text text-anchor="start" x="91.5" y="-414" font-family="FreeSans" font-size="10.00">mpqc/math/external</text>
<text text-anchor="middle" x="146" y="-403" font-family="FreeSans" font-size="10.00">/tiledarray/threshold.h</text>
</a>
</g>
</g>
<!-- Node2 -->
<g id="Node000002" class="node">
<title>Node2</title>
<g id="a_Node000002"><a xlink:href="mpqc__task_8cpp.html" target="_top" xlink:title=" ">
<polygon fill="white" stroke="#666666" points="138,-354.5 0,-354.5 0,-335.5 138,-335.5 138,-354.5"/>
<text text-anchor="middle" x="69" y="-342.5" font-family="FreeSans" font-size="10.00">bin/mpqc/mpqc_task.cpp</text>
</a>
</g>
</g>
<!-- Node1&#45;&gt;Node2 -->
<g id="edge1_Node000001_Node000002" class="edge">
<title>Node1&#45;&gt;Node2</title>
<g id="a_edge1_Node000001_Node000002"><a xlink:title=" ">
<path fill="none" stroke="#63b8ff" d="M121.05,-389.26C107.04,-377.61 90.28,-363.69 79.64,-354.84"/>
<polygon fill="#63b8ff" stroke="#63b8ff" points="118.98,-392.1 128.91,-395.8 123.46,-386.71 118.98,-392.1"/>
</a>
</g>
</g>
<!-- Node3 -->
<g id="Node000003" class="node">
<title>Node3</title>
<g id="a_Node000003"><a xlink:href="cck_8ipp.html" target="_top" xlink:title=" ">
<polygon fill="white" stroke="#666666" points="289.5,-360 156.5,-360 156.5,-330 289.5,-330 289.5,-360"/>
<text text-anchor="start" x="164.5" y="-348" font-family="FreeSans" font-size="10.00">mpqc/chemistry/qc/lcao</text>
<text text-anchor="middle" x="223" y="-337" font-family="FreeSans" font-size="10.00">/cc/cck.ipp</text>
</a>
</g>
</g>
<!-- Node1&#45;&gt;Node3 -->
<g id="edge2_Node000001_Node000003" class="edge">
<title>Node1&#45;&gt;Node3</title>
<g id="a_edge2_Node000001_Node000003"><a xlink:title=" ">
<path fill="none" stroke="#63b8ff" d="M171.02,-389.2C182.45,-379.7 195.7,-368.69 205.96,-360.16"/>
<polygon fill="#63b8ff" stroke="#63b8ff" points="168.54,-386.71 163.09,-395.8 173.02,-392.1 168.54,-386.71"/>
</a>
</g>
</g>
<!-- Node4 -->
<g id="Node000004" class="node">
<title>Node4</title>
<g id="a_Node000004"><a xlink:href="cck_8cpp.html" target="_top" xlink:title=" ">
<polygon fill="white" stroke="#666666" points="198.5,-96 65.5,-96 65.5,-66 198.5,-66 198.5,-96"/>
<text text-anchor="start" x="73.5" y="-84" font-family="FreeSans" font-size="10.00">mpqc/chemistry/qc/lcao</text>
<text text-anchor="middle" x="132" y="-73" font-family="FreeSans" font-size="10.00">/cc/cck.cpp</text>
</a>
</g>
</g>
<!-- Node3&#45;&gt;Node4 -->
<g id="edge3_Node000003_Node000004" class="edge">
<title>Node3&#45;&gt;Node4</title>
<g id="a_edge3_Node000003_Node000004"><a xlink:title=" ">
<path fill="none" stroke="#63b8ff" d="M152.08,-327.49C107.96,-316.51 58.42,-302.57 52,-294 3.63,-229.47 84.03,-132.34 117.98,-96.21"/>
<polygon fill="#63b8ff" stroke="#63b8ff" points="151.43,-330.94 161.97,-329.93 153.1,-324.14 151.43,-330.94"/>
</a>
</g>
</g>
<!-- Node5 -->
<g id="Node000005" class="node">
<title>Node5</title>
<g id="a_Node000005"><a xlink:href="cck_8h.html" target="_top" xlink:title=" ">
<polygon fill="white" stroke="#666666" points="347.5,-228 214.5,-228 214.5,-198 347.5,-198 347.5,-228"/>
<text text-anchor="start" x="222.5" y="-216" font-family="FreeSans" font-size="10.00">mpqc/chemistry/qc/lcao</text>
<text text-anchor="middle" x="281" y="-205" font-family="FreeSans" font-size="10.00">/cc/cck.h</text>
</a>
</g>
</g>
<!-- Node3&#45;&gt;Node5 -->
<g id="edge4_Node000003_Node000005" class="edge">
<title>Node3&#45;&gt;Node5</title>
<g id="a_edge4_Node000003_Node000005"><a xlink:title=" ">
<path fill="none" stroke="#63b8ff" d="M228.32,-320.04C238.23,-293.08 257.68,-250.21 270.29,-228.14"/>
<polygon fill="#63b8ff" stroke="#63b8ff" points="224.89,-319.25 224.92,-329.84 231.5,-321.54 224.89,-319.25"/>
</a>
</g>
</g>
<!-- Node6 -->
<g id="Node000006" class="node">
<title>Node6</title>
<g id="a_Node000006"><a xlink:href="cck__so__response_8ipp.html" target="_top" xlink:title=" ">
<polygon fill="white" stroke="#666666" points="246,-162 112,-162 112,-132 246,-132 246,-162"/>
<text text-anchor="start" x="120" y="-150" font-family="FreeSans" font-size="10.00">mpqc/chemistry/qc/lcao</text>
<text text-anchor="middle" x="179" y="-139" font-family="FreeSans" font-size="10.00">/cc/cck_so_response.ipp</text>
</a>
</g>
</g>
<!-- Node3&#45;&gt;Node6 -->
<g id="edge19_Node000003_Node000006" class="edge">
<title>Node3&#45;&gt;Node6</title>
<g id="a_edge19_Node000003_Node000006"><a xlink:title=" ">
<path fill="none" stroke="#63b8ff" d="M217.59,-319.89C208.31,-278.58 189.66,-195.48 182.19,-162.23"/>
<polygon fill="#63b8ff" stroke="#63b8ff" points="214.23,-320.91 219.84,-329.9 221.06,-319.38 214.23,-320.91"/>
</a>
</g>
</g>
<!-- Node11 -->
<g id="Node000011" class="node">
<title>Node11</title>
<g id="a_Node000011"><a xlink:href="cck__so_8ipp.html" target="_top" xlink:title=" ">
<polygon fill="white" stroke="#666666" points="194.5,-294 61.5,-294 61.5,-264 194.5,-264 194.5,-294"/>
<text text-anchor="start" x="69.5" y="-282" font-family="FreeSans" font-size="10.00">mpqc/chemistry/qc/lcao</text>
<text text-anchor="middle" x="128" y="-271" font-family="FreeSans" font-size="10.00">/cc/cck_so.ipp</text>
</a>
</g>
</g>
<!-- Node3&#45;&gt;Node11 -->
<g id="edge15_Node000003_Node000011" class="edge">
<title>Node3&#45;&gt;Node11</title>
<g id="a_edge15_Node000003_Node000011"><a xlink:title=" ">
<path fill="none" stroke="#63b8ff" d="M193.35,-324.03C178.98,-314.34 162.05,-302.94 149.02,-294.16"/>
<polygon fill="#63b8ff" stroke="#63b8ff" points="191.67,-327.11 201.92,-329.8 195.58,-321.31 191.67,-327.11"/>
</a>
</g>
</g>
<!-- Node5&#45;&gt;Node3 -->
<g id="edge5_Node000005_Node000003" class="edge">
<title>Node5&#45;&gt;Node3</title>
<g id="a_edge5_Node000005_Node000003"><a xlink:title=" ">
<path fill="none" stroke="#63b8ff" d="M275.69,-237.94C265.79,-264.89 246.33,-307.76 233.72,-329.84"/>
<polygon fill="#63b8ff" stroke="#63b8ff" points="279.12,-238.74 279.09,-228.14 272.51,-236.44 279.12,-238.74"/>
</a>
</g>
</g>
<!-- Node5&#45;&gt;Node6 -->
<g id="edge6_Node000005_Node000006" class="edge">
<title>Node5&#45;&gt;Node6</title>
<g id="a_edge6_Node000005_Node000006"><a xlink:title=" ">
<path fill="none" stroke="#63b8ff" d="M243.98,-192.69C227.42,-182.82 208.79,-171.01 195.64,-162.01"/>
<polygon fill="#63b8ff" stroke="#63b8ff" points="242.52,-195.9 252.92,-197.95 246.07,-189.87 242.52,-195.9"/>
</a>
</g>
</g>
<!-- Node7 -->
<g id="Node000007" class="node">
<title>Node7</title>
<g id="a_Node000007"><a xlink:href="eom__cck_8ipp.html" target="_top" xlink:title=" ">
<polygon fill="white" stroke="#666666" points="397.5,-162 264.5,-162 264.5,-132 397.5,-132 397.5,-162"/>
<text text-anchor="start" x="272.5" y="-150" font-family="FreeSans" font-size="10.00">mpqc/chemistry/qc/lcao</text>
<text text-anchor="middle" x="331" y="-139" font-family="FreeSans" font-size="10.00">/cc/eom_cck.ipp</text>
</a>
</g>
</g>
<!-- Node5&#45;&gt;Node7 -->
<g id="edge9_Node000005_Node000007" class="edge">
<title>Node5&#45;&gt;Node7</title>
<g id="a_edge9_Node000005_Node000007"><a xlink:title=" ">
<path fill="none" stroke="#63b8ff" d="M298.34,-189.81C305.5,-180.64 313.6,-170.28 319.93,-162.16"/>
<polygon fill="#63b8ff" stroke="#63b8ff" points="295.5,-187.76 292.1,-197.8 301.01,-192.07 295.5,-187.76"/>
</a>
</g>
</g>
<!-- Node8 -->
<g id="Node000008" class="node">
<title>Node8</title>
<g id="a_Node000008"><a xlink:href="cck__f12_8h.html" target="_top" xlink:title=" ">
<polygon fill="white" stroke="#666666" points="548.5,-162 415.5,-162 415.5,-132 548.5,-132 548.5,-162"/>
<text text-anchor="start" x="423.5" y="-150" font-family="FreeSans" font-size="10.00">mpqc/chemistry/qc/lcao</text>
<text text-anchor="middle" x="482" y="-139" font-family="FreeSans" font-size="10.00">/f12/cck_f12.h</text>
</a>
</g>
</g>
<!-- Node5&#45;&gt;Node8 -->
<g id="edge11_Node000005_Node000008" class="edge">
<title>Node5&#45;&gt;Node8</title>
<g id="a_edge11_Node000005_Node000008"><a xlink:title=" ">
<path fill="none" stroke="#63b8ff" d="M334.84,-194.86C367.12,-184.58 407.64,-171.68 437.99,-162.01"/>
<polygon fill="#63b8ff" stroke="#63b8ff" points="333.58,-191.59 325.11,-197.95 335.7,-198.26 333.58,-191.59"/>
</a>
</g>
</g>
<!-- Node6&#45;&gt;Node4 -->
<g id="edge7_Node000006_Node000004" class="edge">
<title>Node6&#45;&gt;Node4</title>
<g id="a_edge7_Node000006_Node000004"><a xlink:title=" ">
<path fill="none" stroke="#63b8ff" d="M162.5,-123.53C155.81,-114.43 148.3,-104.19 142.4,-96.16"/>
<polygon fill="#63b8ff" stroke="#63b8ff" points="159.83,-125.81 168.57,-131.8 165.47,-121.66 159.83,-125.81"/>
</a>
</g>
</g>
<!-- Node6&#45;&gt;Node5 -->
<g id="edge8_Node000006_Node000005" class="edge">
<title>Node6&#45;&gt;Node5</title>
<g id="a_edge8_Node000006_Node000005"><a xlink:title=" ">
<path fill="none" stroke="#63b8ff" d="M216.15,-167.38C232.56,-177.18 250.98,-188.85 264.08,-197.8"/>
<polygon fill="#63b8ff" stroke="#63b8ff" points="217.68,-164.22 207.29,-162.16 214.13,-170.25 217.68,-164.22"/>
</a>
</g>
</g>
<!-- Node7&#45;&gt;Node4 -->
<g id="edge10_Node000007_Node000004" class="edge">
<title>Node7&#45;&gt;Node4</title>
<g id="a_edge10_Node000007_Node000004"><a xlink:title=" ">
<path fill="none" stroke="#63b8ff" d="M277.69,-128.86C245.74,-118.58 205.62,-105.68 175.57,-96.01"/>
<polygon fill="#63b8ff" stroke="#63b8ff" points="276.74,-132.23 287.33,-131.95 278.88,-125.56 276.74,-132.23"/>
</a>
</g>
</g>
<!-- Node9 -->
<g id="Node000009" class="node">
<title>Node9</title>
<g id="a_Node000009"><a xlink:href="cck__f12_8ipp.html" target="_top" xlink:title=" ">
<polygon fill="white" stroke="#666666" points="548.5,-96 415.5,-96 415.5,-66 548.5,-66 548.5,-96"/>
<text text-anchor="start" x="423.5" y="-84" font-family="FreeSans" font-size="10.00">mpqc/chemistry/qc/lcao</text>
<text text-anchor="middle" x="482" y="-73" font-family="FreeSans" font-size="10.00">/f12/cck_f12.ipp</text>
</a>
</g>
</g>
<!-- Node8&#45;&gt;Node9 -->
<g id="edge12_Node000008_Node000009" class="edge">
<title>Node8&#45;&gt;Node9</title>
<g id="a_edge12_Node000008_Node000009"><a xlink:title=" ">
<path fill="none" stroke="#63b8ff" d="M475.43,-121.83C475.02,-113.17 475.31,-103.7 476.29,-96.16"/>
<polygon fill="#63b8ff" stroke="#63b8ff" points="471.95,-122.13 476.28,-131.8 478.92,-121.54 471.95,-122.13"/>
</a>
</g>
</g>
<!-- Node9&#45;&gt;Node8 -->
<g id="edge14_Node000009_Node000008" class="edge">
<title>Node9&#45;&gt;Node8</title>
<g id="a_edge14_Node000009_Node000008"><a xlink:title=" ">
<path fill="none" stroke="#63b8ff" d="M488.57,-106.13C488.98,-114.78 488.7,-124.26 487.72,-131.8"/>
<polygon fill="#63b8ff" stroke="#63b8ff" points="492.05,-105.83 487.71,-96.16 485.08,-106.43 492.05,-105.83"/>
</a>
</g>
</g>
<!-- Node10 -->
<g id="Node000010" class="node">
<title>Node10</title>
<g id="a_Node000010"><a xlink:href="cck__f12_8cpp.html" target="_top" xlink:title=" ">
<polygon fill="white" stroke="#666666" points="548.5,-30 415.5,-30 415.5,0 548.5,0 548.5,-30"/>
<text text-anchor="start" x="423.5" y="-18" font-family="FreeSans" font-size="10.00">mpqc/chemistry/qc/lcao</text>
<text text-anchor="middle" x="482" y="-7" font-family="FreeSans" font-size="10.00">/f12/cck_f12.cpp</text>
</a>
</g>
</g>
<!-- Node9&#45;&gt;Node10 -->
<g id="edge13_Node000009_Node000010" class="edge">
<title>Node9&#45;&gt;Node10</title>
<g id="a_edge13_Node000009_Node000010"><a xlink:title=" ">
<path fill="none" stroke="#63b8ff" d="M482,-55.54C482,-46.96 482,-37.61 482,-30.16"/>
<polygon fill="#63b8ff" stroke="#63b8ff" points="478.5,-55.8 482,-65.8 485.5,-55.8 478.5,-55.8"/>
</a>
</g>
</g>
<!-- Node11&#45;&gt;Node4 -->
<g id="edge16_Node000011_Node000004" class="edge">
<title>Node11&#45;&gt;Node4</title>
<g id="a_edge16_Node000011_Node000004"><a xlink:title=" ">
<path fill="none" stroke="#63b8ff" d="M117.76,-254.37C106.54,-225.26 91.59,-174.43 103,-132 106.49,-119.01 114.28,-105.92 120.9,-96.4"/>
<polygon fill="#63b8ff" stroke="#63b8ff" points="114.54,-255.75 121.52,-263.72 121.03,-253.13 114.54,-255.75"/>
</a>
</g>
</g>
<!-- Node11&#45;&gt;Node5 -->
<g id="edge17_Node000011_Node000005" class="edge">
<title>Node11&#45;&gt;Node5</title>
<g id="a_edge17_Node000011_Node000005"><a xlink:title=" ">
<path fill="none" stroke="#63b8ff" d="M170.9,-260.05C195.14,-249.91 225,-237.43 247.5,-228.01"/>
<polygon fill="#63b8ff" stroke="#63b8ff" points="169.45,-256.87 161.58,-263.95 172.15,-263.32 169.45,-256.87"/>
</a>
</g>
</g>
<!-- Node11&#45;&gt;Node6 -->
<g id="edge18_Node000011_Node000006" class="edge">
<title>Node11&#45;&gt;Node6</title>
<g id="a_edge18_Node000011_Node000006"><a xlink:title=" ">
<path fill="none" stroke="#63b8ff" d="M137.26,-254.39C147.83,-227.46 164.76,-184.31 173.45,-162.14"/>
<polygon fill="#63b8ff" stroke="#63b8ff" points="133.95,-253.25 133.55,-263.84 140.47,-255.81 133.95,-253.25"/>
</a>
</g>
</g>
</g>
</svg>
