<?xml version="1.0" encoding="UTF-8" standalone="no"?>
<!DOCTYPE svg PUBLIC "-//W3C//DTD SVG 1.1//EN"
 "http://www.w3.org/Graphics/SVG/1.1/DTD/svg11.dtd">
<!-- Generated by graphviz version 2.43.0 (0)
 -->
<!-- Title: /home/runner/work/mpqc4/mpqc4/python/src/tiledarray.cc Pages: 1 -->
<svg width="503pt" height="148pt"
 viewBox="0.00 0.00 502.50 148.00" xmlns="http://www.w3.org/2000/svg" xmlns:xlink="http://www.w3.org/1999/xlink">
<g id="graph0" class="graph" transform="scale(1 1) rotate(0) translate(4 144)">
<title>/home/runner/work/mpqc4/mpqc4/python/src/tiledarray.cc</title>
<!-- Node1 -->
<g id="Node000001" class="node">
<title>Node1</title>
<g id="a_Node000001"><a xlink:title=" ">
<polygon fill="#999999" stroke="#666666" points="441,-140 272,-140 272,-110 441,-110 441,-140"/>
<text text-anchor="start" x="280" y="-128" font-family="FreeSans" font-size="10.00">/home/runner/work/mpqc4</text>
<text text-anchor="middle" x="356.5" y="-117" font-family="FreeSans" font-size="10.00">/mpqc4/python/src/tiledarray.cc</text>
</a>
</g>
</g>
<!-- Node2 -->
<g id="Node000002" class="node">
<title>Node2</title>
<g id="a_Node000002"><a xlink:href="python_8h.html" target="_top" xlink:title=" ">
<polygon fill="white" stroke="#666666" points="324,-74 265,-74 265,-55 324,-55 324,-74"/>
<text text-anchor="middle" x="294.5" y="-62" font-family="FreeSans" font-size="10.00">python.h</text>
</a>
</g>
</g>
<!-- Node1&#45;&gt;Node2 -->
<g id="edge1_Node000001_Node000002" class="edge">
<title>Node1&#45;&gt;Node2</title>
<g id="a_edge1_Node000001_Node000002"><a xlink:title=" ">
<path fill="none" stroke="#63b8ff" d="M341.49,-109.84C332.31,-101.17 320.55,-90.08 311.09,-81.15"/>
<polygon fill="#63b8ff" stroke="#63b8ff" points="313.47,-78.58 303.79,-74.27 308.66,-83.67 313.47,-78.58"/>
</a>
</g>
</g>
<!-- Node8 -->
<g id="Node000008" class="node">
<title>Node8</title>
<g id="a_Node000008"><a xlink:title=" ">
<polygon fill="#e0e0e0" stroke="#999999" points="494.5,-74 342.5,-74 342.5,-55 494.5,-55 494.5,-74"/>
<text text-anchor="middle" x="418.5" y="-62" font-family="FreeSans" font-size="10.00">TiledArray/python/module.h</text>
</a>
</g>
</g>
<!-- Node1&#45;&gt;Node8 -->
<g id="edge7_Node000001_Node000008" class="edge">
<title>Node1&#45;&gt;Node8</title>
<g id="a_edge7_Node000001_Node000008"><a xlink:title=" ">
<path fill="none" stroke="#63b8ff" d="M371.51,-109.84C380.69,-101.17 392.45,-90.08 401.91,-81.15"/>
<polygon fill="#63b8ff" stroke="#63b8ff" points="404.34,-83.67 409.21,-74.27 399.53,-78.58 404.34,-83.67"/>
</a>
</g>
</g>
<!-- Node3 -->
<g id="Node000003" class="node">
<title>Node3</title>
<g id="a_Node000003"><a xlink:title=" ">
<polygon fill="#e0e0e0" stroke="#999999" points="119,-19 0,-19 0,0 119,0 119,-19"/>
<text text-anchor="middle" x="59.5" y="-7" font-family="FreeSans" font-size="10.00">pybind11/pybind11.h</text>
</a>
</g>
</g>
<!-- Node2&#45;&gt;Node3 -->
<g id="edge2_Node000002_Node000003" class="edge">
<title>Node2&#45;&gt;Node3</title>
<g id="a_edge2_Node000002_Node000003"><a xlink:title=" ">
<path fill="none" stroke="#63b8ff" d="M264.74,-56.79C225.16,-47.86 154.71,-31.97 107.55,-21.34"/>
<polygon fill="#63b8ff" stroke="#63b8ff" points="108.09,-17.87 97.57,-19.09 106.55,-24.7 108.09,-17.87"/>
</a>
</g>
</g>
<!-- Node4 -->
<g id="Node000004" class="node">
<title>Node4</title>
<g id="a_Node000004"><a xlink:title=" ">
<polygon fill="#e0e0e0" stroke="#999999" points="223.5,-19 137.5,-19 137.5,0 223.5,0 223.5,-19"/>
<text text-anchor="middle" x="180.5" y="-7" font-family="FreeSans" font-size="10.00">pybind11/stl.h</text>
</a>
</g>
</g>
<!-- Node2&#45;&gt;Node4 -->
<g id="edge3_Node000002_Node000004" class="edge">
<title>Node2&#45;&gt;Node4</title>
<g id="a_edge3_Node000002_Node000004"><a xlink:title=" ">
<path fill="none" stroke="#63b8ff" d="M276.18,-54.98C257.84,-46.46 229.39,-33.23 208.27,-23.41"/>
<polygon fill="#63b8ff" stroke="#63b8ff" points="209.69,-20.21 199.15,-19.17 206.74,-26.56 209.69,-20.21"/>
</a>
</g>
</g>
<!-- Node5 -->
<g id="Node000005" class="node">
<title>Node5</title>
<g id="a_Node000005"><a xlink:title=" ">
<polygon fill="#e0e0e0" stroke="#999999" points="347.5,-19 241.5,-19 241.5,0 347.5,0 347.5,-19"/>
<text text-anchor="middle" x="294.5" y="-7" font-family="FreeSans" font-size="10.00">pybind11/numpy.h</text>
</a>
</g>
</g>
<!-- Node2&#45;&gt;Node5 -->
<g id="edge4_Node000002_Node000005" class="edge">
<title>Node2&#45;&gt;Node5</title>
<g id="a_edge4_Node000002_Node000005"><a xlink:title=" ">
<path fill="none" stroke="#63b8ff" d="M294.5,-54.75C294.5,-47.8 294.5,-37.85 294.5,-29.13"/>
<polygon fill="#63b8ff" stroke="#63b8ff" points="298,-29.09 294.5,-19.09 291,-29.09 298,-29.09"/>
</a>
</g>
</g>
<!-- Node6 -->
<g id="Node000006" class="node">
<title>Node6</title>
<g id="a_Node000006"><a xlink:title=" ">
<polygon fill="#e0e0e0" stroke="#999999" points="413,-19 366,-19 366,0 413,0 413,-19"/>
<text text-anchor="middle" x="389.5" y="-7" font-family="FreeSans" font-size="10.00">vector</text>
</a>
</g>
</g>
<!-- Node2&#45;&gt;Node6 -->
<g id="edge5_Node000002_Node000006" class="edge">
<title>Node2&#45;&gt;Node6</title>
<g id="a_edge5_Node000002_Node000006"><a xlink:title=" ">
<path fill="none" stroke="#63b8ff" d="M309.76,-54.98C324.63,-46.69 347.48,-33.94 364.92,-24.22"/>
<polygon fill="#63b8ff" stroke="#63b8ff" points="366.93,-27.1 373.96,-19.17 363.52,-20.99 366.93,-27.1"/>
</a>
</g>
</g>
<!-- Node7 -->
<g id="Node000007" class="node">
<title>Node7</title>
<g id="a_Node000007"><a xlink:title=" ">
<polygon fill="#e0e0e0" stroke="#999999" points="475.5,-19 431.5,-19 431.5,0 475.5,0 475.5,-19"/>
<text text-anchor="middle" x="453.5" y="-7" font-family="FreeSans" font-size="10.00">string</text>
</a>
</g>
</g>
<!-- Node2&#45;&gt;Node7 -->
<g id="edge6_Node000002_Node000007" class="edge">
<title>Node2&#45;&gt;Node7</title>
<g id="a_edge6_Node000002_Node000007"><a xlink:title=" ">
<path fill="none" stroke="#63b8ff" d="M320.05,-54.98C347.73,-45.76 391.94,-31.02 421.81,-21.06"/>
<polygon fill="#63b8ff" stroke="#63b8ff" points="422.97,-24.37 431.35,-17.88 420.76,-17.72 422.97,-24.37"/>
</a>
</g>
</g>
</g>
</svg>
