<?xml version="1.0" encoding="UTF-8" standalone="no"?>
<!DOCTYPE svg PUBLIC "-//W3C//DTD SVG 1.1//EN"
 "http://www.w3.org/Graphics/SVG/1.1/DTD/svg11.dtd">
<!-- Generated by graphviz version 2.43.0 (0)
 -->
<!-- Title: mpqc/math/external/tiledarray/tiledarray.h Pages: 1 -->
<svg width="151pt" height="93pt"
 viewBox="0.00 0.00 151.00 93.00" xmlns="http://www.w3.org/2000/svg" xmlns:xlink="http://www.w3.org/1999/xlink">
<g id="graph0" class="graph" transform="scale(1 1) rotate(0) translate(4 89)">
<title>mpqc/math/external/tiledarray/tiledarray.h</title>
<!-- Node1 -->
<g id="Node000001" class="node">
<title>Node1</title>
<g id="a_Node000001"><a xlink:title=" ">
<polygon fill="#999999" stroke="#666666" points="125,-85 0,-85 0,-55 125,-55 125,-85"/>
<text text-anchor="start" x="8" y="-73" font-family="FreeSans" font-size="10.00">mpqc/math/external</text>
<text text-anchor="middle" x="62.5" y="-62" font-family="FreeSans" font-size="10.00">/tiledarray/tiledarray.h</text>
</a>
</g>
</g>
<!-- Node1&#45;&gt;Node1 -->
<g id="edge1_Node000001_Node000001" class="edge">
<title>Node1&#45;&gt;Node1</title>
<g id="a_edge1_Node000001_Node000001"><a xlink:title=" ">
<path fill="none" stroke="#63b8ff" d="M125.28,-80.46C135.76,-78.99 143,-75.51 143,-70 143,-66.47 140.03,-63.77 135.14,-61.9"/>
<polygon fill="#63b8ff" stroke="#63b8ff" points="135.82,-58.47 125.28,-59.54 134.19,-65.28 135.82,-58.47"/>
</a>
</g>
</g>
<!-- Node2 -->
<g id="Node000002" class="node">
<title>Node2</title>
<g id="a_Node000002"><a xlink:title=" ">
<polygon fill="#e0e0e0" stroke="#999999" points="121,-19 4,-19 4,0 121,0 121,-19"/>
<text text-anchor="middle" x="62.5" y="-7" font-family="FreeSans" font-size="10.00">mpqc/mpqc_config.h</text>
</a>
</g>
</g>
<!-- Node1&#45;&gt;Node2 -->
<g id="edge2_Node000001_Node000002" class="edge">
<title>Node1&#45;&gt;Node2</title>
<g id="a_edge2_Node000001_Node000002"><a xlink:title=" ">
<path fill="none" stroke="#63b8ff" d="M62.5,-54.84C62.5,-47.21 62.5,-37.7 62.5,-29.45"/>
<polygon fill="#63b8ff" stroke="#63b8ff" points="66,-29.27 62.5,-19.27 59,-29.27 66,-29.27"/>
</a>
</g>
</g>
</g>
</svg>
