<?xml version="1.0" encoding="UTF-8" standalone="no"?>
<!DOCTYPE svg PUBLIC "-//W3C//DTD SVG 1.1//EN"
 "http://www.w3.org/Graphics/SVG/1.1/DTD/svg11.dtd">
<!-- Generated by graphviz version 2.43.0 (0)
 -->
<!-- Title: mpqc/math/external/tiledarray/tiledarray_impl_2.cpp Pages: 1 -->
<svg width="143pt" height="159pt"
 viewBox="0.00 0.00 143.00 159.00" xmlns="http://www.w3.org/2000/svg" xmlns:xlink="http://www.w3.org/1999/xlink">

<svg id="main" version="1.1" xmlns="http://www.w3.org/2000/svg" xmlns:xlink="http://www.w3.org/1999/xlink" xml:space="preserve" onload="init(evt)">
<style type="text/css"><![CDATA[
.node, .edge {opacity: 0.7;}
.node.selected, .edge.selected {opacity: 1;}
.edge:hover path { stroke: red; }
.edge:hover polygon { stroke: red; fill: red; }
]]></style>
<script type="application/ecmascript" xlink:href="svg.min.js"/>
<svg id="graph" class="graph">
<g id="graph0" class="graph" transform="scale(1 1) rotate(0) translate(4 155)">
<title>mpqc/math/external/tiledarray/tiledarray_impl_2.cpp</title>
<!-- Node1 -->
<g id="Node000001" class="node">
<title>Node1</title>
<g id="a_Node000001"><a xlink:title=" ">
<polygon fill="#999999" stroke="#666666" points="135,-151 18,-151 18,-110 135,-110 135,-151"/>
<text text-anchor="start" x="26" y="-139" font-family="FreeSans" font-size="10.00">mpqc/math/external</text>
<text text-anchor="start" x="26" y="-128" font-family="FreeSans" font-size="10.00">/tiledarray/tiledarray</text>
<text text-anchor="middle" x="76.5" y="-117" font-family="FreeSans" font-size="10.00">_impl_2.cpp</text>
</a>
</g>
</g>
<!-- Node2 -->
<g id="Node000002" class="node">
<title>Node2</title>
<g id="a_Node000002"><a xlink:href="tiledarray_8h.html" target="_top" xlink:title=" ">
<polygon fill="white" stroke="#666666" points="71,-74 0,-74 0,-55 71,-55 71,-74"/>
<text text-anchor="middle" x="35.5" y="-62" font-family="FreeSans" font-size="10.00">tiledarray.h</text>
</a>
</g>
</g>
<!-- Node1&#45;&gt;Node2 -->
<g id="edge1_Node000001_Node000002" class="edge">
<title>Node1&#45;&gt;Node2</title>
<g id="a_edge1_Node000001_Node000002"><a xlink:title=" ">
<path fill="none" stroke="#63b8ff" d="M63.98,-109.95C58.43,-101.3 51.97,-91.2 46.6,-82.82"/>
<polygon fill="#63b8ff" stroke="#63b8ff" points="49.45,-80.79 41.11,-74.26 43.56,-84.57 49.45,-80.79"/>
</a>
</g>
</g>
<!-- Node3 -->
<g id="Node000003" class="node">
<title>Node3</title>
<g id="a_Node000003"><a xlink:title=" ">
<polygon fill="#e0e0e0" stroke="#999999" points="135,-19 18,-19 18,0 135,0 135,-19"/>
<text text-anchor="middle" x="76.5" y="-7" font-family="FreeSans" font-size="10.00">mpqc/mpqc_config.h</text>
</a>
</g>
</g>
<!-- Node1&#45;&gt;Node3 -->
<g id="edge4_Node000001_Node000003" class="edge">
<title>Node1&#45;&gt;Node3</title>
<g id="a_edge4_Node000001_Node000003"><a xlink:title=" ">
<path fill="none" stroke="#63b8ff" d="M88.14,-109.74C95.51,-94.82 102.89,-73.78 98.5,-55 96.3,-45.57 91.79,-35.85 87.43,-27.91"/>
<polygon fill="#63b8ff" stroke="#63b8ff" points="90.42,-26.09 82.34,-19.24 84.38,-29.64 90.42,-26.09"/>
</a>
</g>
</g>
<!-- Node2&#45;&gt;Node2 -->
<g id="edge2_Node000002_Node000002" class="edge">
<title>Node2&#45;&gt;Node2</title>
<g id="a_edge2_Node000002_Node000002"><a xlink:title=" ">
<path fill="none" stroke="#63b8ff" d="M60.54,-74.03C75.24,-76.06 89,-72.88 89,-64.5 89,-58.08 80.93,-54.71 70.56,-54.4"/>
<polygon fill="#63b8ff" stroke="#63b8ff" points="70.33,-50.91 60.54,-54.97 70.72,-57.9 70.33,-50.91"/>
</a>
</g>
</g>
<!-- Node2&#45;&gt;Node3 -->
<g id="edge3_Node000002_Node000003" class="edge">
<title>Node2&#45;&gt;Node3</title>
<g id="a_edge3_Node000002_Node000003"><a xlink:title=" ">
<path fill="none" stroke="#63b8ff" d="M42.27,-54.75C48.06,-47.26 56.56,-36.28 63.64,-27.13"/>
<polygon fill="#63b8ff" stroke="#63b8ff" points="66.51,-29.14 69.86,-19.09 60.97,-24.86 66.51,-29.14"/>
</a>
</g>
</g>
</g>
</svg>
</svg>

<style type='text/css'>
<![CDATA[
[data-mouse-over-selected='false'] { opacity: 0.7; }
[data-mouse-over-selected='true']  { opacity: 1.0; }
]]>
</style>
<script type="application/ecmascript"><![CDATA[
document.addEventListener('DOMContentLoaded', (event) => {
  highlightEdges();
  highlightAdjacentNodes();
});
]]></script>
</svg>
