<?xml version="1.0" encoding="UTF-8" standalone="no"?>
<!DOCTYPE svg PUBLIC "-//W3C//DTD SVG 1.1//EN"
 "http://www.w3.org/Graphics/SVG/1.1/DTD/svg11.dtd">
<!-- Generated by graphviz version 2.43.0 (0)
 -->
<!-- Title: mpqc/util/misc/timestamp.h Pages: 1 -->
<svg width="171pt" height="83pt"
 viewBox="0.00 0.00 171.00 82.52" xmlns="http://www.w3.org/2000/svg" xmlns:xlink="http://www.w3.org/1999/xlink">
<g id="graph0" class="graph" transform="scale(1 1) rotate(0) translate(4 78.52)">
<title>mpqc/util/misc/timestamp.h</title>
<!-- Node1 -->
<g id="Node000001" class="node">
<title>Node1</title>
<g id="a_Node000001"><a xlink:title=" ">
<polygon fill="#999999" stroke="#666666" points="154,-74.52 0,-74.52 0,-55.52 154,-55.52 154,-74.52"/>
<text text-anchor="middle" x="77" y="-62.52" font-family="FreeSans" font-size="10.00">mpqc/util/misc/timestamp.h</text>
</a>
</g>
</g>
<!-- Node2 -->
<g id="Node000002" class="node">
<title>Node2</title>
<g id="a_Node000002"><a xlink:title=" ">
<polygon fill="#e0e0e0" stroke="#999999" points="69,-19.52 9,-19.52 9,-0.52 69,-0.52 69,-19.52"/>
<text text-anchor="middle" x="39" y="-7.52" font-family="FreeSans" font-size="10.00">iostream</text>
</a>
</g>
</g>
<!-- Node1&#45;&gt;Node2 -->
<g id="edge1_Node000001_Node000002" class="edge">
<title>Node1&#45;&gt;Node2</title>
<g id="a_edge1_Node000001_Node000002"><a xlink:title=" ">
<path fill="none" stroke="#63b8ff" d="M70.73,-55.27C65.41,-47.86 57.64,-37.02 51.12,-27.93"/>
<polygon fill="#63b8ff" stroke="#63b8ff" points="53.83,-25.69 45.16,-19.61 48.14,-29.77 53.83,-25.69"/>
</a>
</g>
</g>
<!-- Node3 -->
<g id="Node000003" class="node">
<title>Node3</title>
<g id="a_Node000003"><a xlink:href="memory.html" target="_top" xlink:title=" ">
<polygon fill="white" stroke="#666666" points="145,-19.52 87,-19.52 87,-0.52 145,-0.52 145,-19.52"/>
<text text-anchor="middle" x="116" y="-7.52" font-family="FreeSans" font-size="10.00">memory</text>
</a>
</g>
</g>
<!-- Node1&#45;&gt;Node3 -->
<g id="edge2_Node000001_Node000003" class="edge">
<title>Node1&#45;&gt;Node3</title>
<g id="a_edge2_Node000001_Node000003"><a xlink:title=" ">
<path fill="none" stroke="#63b8ff" d="M83.44,-55.27C88.89,-47.86 96.86,-37.02 103.56,-27.93"/>
<polygon fill="#63b8ff" stroke="#63b8ff" points="106.57,-29.74 109.68,-19.61 100.93,-25.59 106.57,-29.74"/>
</a>
</g>
</g>
<!-- Node3&#45;&gt;Node3 -->
<g id="edge3_Node000003_Node000003" class="edge">
<title>Node3&#45;&gt;Node3</title>
<g id="a_edge3_Node000003_Node000003"><a xlink:title=" ">
<path fill="none" stroke="#63b8ff" d="M138.24,-19.59C151.06,-21.54 163,-18.35 163,-10.02 163,-3.96 156.7,-0.62 148.34,0"/>
<polygon fill="#63b8ff" stroke="#63b8ff" points="148.08,3.49 138.24,-0.45 148.39,-3.5 148.08,3.49"/>
</a>
</g>
</g>
</g>
</svg>
