<?xml version="1.0" encoding="UTF-8" standalone="no"?>
<!DOCTYPE svg PUBLIC "-//W3C//DTD SVG 1.1//EN"
 "http://www.w3.org/Graphics/SVG/1.1/DTD/svg11.dtd">
<!-- Generated by graphviz version 2.43.0 (0)
 -->
<!-- Title: mpqc/util/misc/timestamp.cpp Pages: 1 -->
<svg width="230pt" height="138pt"
 viewBox="0.00 0.00 230.00 137.52" xmlns="http://www.w3.org/2000/svg" xmlns:xlink="http://www.w3.org/1999/xlink">

<svg id="main" version="1.1" xmlns="http://www.w3.org/2000/svg" xmlns:xlink="http://www.w3.org/1999/xlink" xml:space="preserve" onload="init(evt)">
<style type="text/css"><![CDATA[
.node, .edge {opacity: 0.7;}
.node.selected, .edge.selected {opacity: 1;}
.edge:hover path { stroke: red; }
.edge:hover polygon { stroke: red; fill: red; }
]]></style>
<script type="application/ecmascript" xlink:href="svg.min.js"/>
<svg id="graph" class="graph">
<g id="graph0" class="graph" transform="scale(1 1) rotate(0) translate(4 133.52)">
<title>mpqc/util/misc/timestamp.cpp</title>
<!-- Node1 -->
<g id="Node000001" class="node">
<title>Node1</title>
<g id="a_Node000001"><a xlink:title=" ">
<polygon fill="#999999" stroke="#666666" points="219.5,-129.52 54.5,-129.52 54.5,-110.52 219.5,-110.52 219.5,-129.52"/>
<text text-anchor="middle" x="137" y="-117.52" font-family="FreeSans" font-size="10.00">mpqc/util/misc/timestamp.cpp</text>
</a>
</g>
</g>
<!-- Node2 -->
<g id="Node000002" class="node">
<title>Node2</title>
<g id="a_Node000002"><a xlink:href="timestamp_8h.html" target="_top" xlink:title=" ">
<polygon fill="white" stroke="#666666" points="154,-74.52 0,-74.52 0,-55.52 154,-55.52 154,-74.52"/>
<text text-anchor="middle" x="77" y="-62.52" font-family="FreeSans" font-size="10.00">mpqc/util/misc/timestamp.h</text>
</a>
</g>
</g>
<!-- Node1&#45;&gt;Node2 -->
<g id="edge1_Node000001_Node000002" class="edge">
<title>Node1&#45;&gt;Node2</title>
<g id="a_edge1_Node000001_Node000002"><a xlink:title=" ">
<path fill="none" stroke="#63b8ff" d="M127.36,-110.5C118.49,-102.67 105.13,-90.86 94.39,-81.38"/>
<polygon fill="#63b8ff" stroke="#63b8ff" points="96.63,-78.68 86.82,-74.69 91.99,-83.93 96.63,-78.68"/>
</a>
</g>
</g>
<!-- Node5 -->
<g id="Node000005" class="node">
<title>Node5</title>
<g id="a_Node000005"><a xlink:title=" ">
<polygon fill="#e0e0e0" stroke="#999999" points="222,-74.52 172,-74.52 172,-55.52 222,-55.52 222,-74.52"/>
<text text-anchor="middle" x="197" y="-62.52" font-family="FreeSans" font-size="10.00">atomic</text>
</a>
</g>
</g>
<!-- Node1&#45;&gt;Node5 -->
<g id="edge5_Node000001_Node000005" class="edge">
<title>Node1&#45;&gt;Node5</title>
<g id="a_edge5_Node000001_Node000005"><a xlink:title=" ">
<path fill="none" stroke="#63b8ff" d="M146.64,-110.5C155.51,-102.67 168.87,-90.86 179.61,-81.38"/>
<polygon fill="#63b8ff" stroke="#63b8ff" points="182.01,-83.93 187.18,-74.69 177.37,-78.68 182.01,-83.93"/>
</a>
</g>
</g>
<!-- Node3 -->
<g id="Node000003" class="node">
<title>Node3</title>
<g id="a_Node000003"><a xlink:title=" ">
<polygon fill="#e0e0e0" stroke="#999999" points="69,-19.52 9,-19.52 9,-0.52 69,-0.52 69,-19.52"/>
<text text-anchor="middle" x="39" y="-7.52" font-family="FreeSans" font-size="10.00">iostream</text>
</a>
</g>
</g>
<!-- Node2&#45;&gt;Node3 -->
<g id="edge2_Node000002_Node000003" class="edge">
<title>Node2&#45;&gt;Node3</title>
<g id="a_edge2_Node000002_Node000003"><a xlink:title=" ">
<path fill="none" stroke="#63b8ff" d="M70.73,-55.27C65.41,-47.86 57.64,-37.02 51.12,-27.93"/>
<polygon fill="#63b8ff" stroke="#63b8ff" points="53.83,-25.69 45.16,-19.61 48.14,-29.77 53.83,-25.69"/>
</a>
</g>
</g>
<!-- Node4 -->
<g id="Node000004" class="node">
<title>Node4</title>
<g id="a_Node000004"><a xlink:href="memory.html" target="_top" xlink:title=" ">
<polygon fill="white" stroke="#666666" points="145,-19.52 87,-19.52 87,-0.52 145,-0.52 145,-19.52"/>
<text text-anchor="middle" x="116" y="-7.52" font-family="FreeSans" font-size="10.00">memory</text>
</a>
</g>
</g>
<!-- Node2&#45;&gt;Node4 -->
<g id="edge3_Node000002_Node000004" class="edge">
<title>Node2&#45;&gt;Node4</title>
<g id="a_edge3_Node000002_Node000004"><a xlink:title=" ">
<path fill="none" stroke="#63b8ff" d="M83.44,-55.27C88.89,-47.86 96.86,-37.02 103.56,-27.93"/>
<polygon fill="#63b8ff" stroke="#63b8ff" points="106.57,-29.74 109.68,-19.61 100.93,-25.59 106.57,-29.74"/>
</a>
</g>
</g>
<!-- Node4&#45;&gt;Node4 -->
<g id="edge4_Node000004_Node000004" class="edge">
<title>Node4&#45;&gt;Node4</title>
<g id="a_edge4_Node000004_Node000004"><a xlink:title=" ">
<path fill="none" stroke="#63b8ff" d="M138.24,-19.59C151.06,-21.54 163,-18.35 163,-10.02 163,-3.96 156.7,-0.62 148.34,0"/>
<polygon fill="#63b8ff" stroke="#63b8ff" points="148.08,3.49 138.24,-0.45 148.39,-3.5 148.08,3.49"/>
</a>
</g>
</g>
</g>
</svg>
</svg>

<style type='text/css'>
<![CDATA[
[data-mouse-over-selected='false'] { opacity: 0.7; }
[data-mouse-over-selected='true']  { opacity: 1.0; }
]]>
</style>
<script type="application/ecmascript"><![CDATA[
document.addEventListener('DOMContentLoaded', (event) => {
  highlightEdges();
  highlightAdjacentNodes();
});
]]></script>
</svg>
