<?xml version="1.0" encoding="UTF-8" standalone="no"?>
<!DOCTYPE svg PUBLIC "-//W3C//DTD SVG 1.1//EN"
 "http://www.w3.org/Graphics/SVG/1.1/DTD/svg11.dtd">
<!-- Generated by graphviz version 2.43.0 (0)
 -->
<!-- Title: mpqc/chemistry/qc/lcao/scf/traditional_four_center_fock_builder.h Pages: 1 -->
<svg width="1165pt" height="390pt"
 viewBox="0.00 0.00 1164.50 390.00" xmlns="http://www.w3.org/2000/svg" xmlns:xlink="http://www.w3.org/1999/xlink">
<g id="graph0" class="graph" transform="scale(1 1) rotate(0) translate(4 386)">
<title>mpqc/chemistry/qc/lcao/scf/traditional_four_center_fock_builder.h</title>
<!-- Node1 -->
<g id="Node000001" class="node">
<title>Node1</title>
<g id="a_Node000001"><a xlink:title=" ">
<polygon fill="#999999" stroke="#666666" points="610,-382 477,-382 477,-341 610,-341 610,-382"/>
<text text-anchor="start" x="485" y="-370" font-family="FreeSans" font-size="10.00">mpqc/chemistry/qc/lcao</text>
<text text-anchor="start" x="485" y="-359" font-family="FreeSans" font-size="10.00">/scf/traditional_four</text>
<text text-anchor="middle" x="543.5" y="-348" font-family="FreeSans" font-size="10.00">_center_fock_builder.h</text>
</a>
</g>
</g>
<!-- Node2 -->
<g id="Node000002" class="node">
<title>Node2</title>
<g id="a_Node000002"><a xlink:href="cadf__builder_8h.html" target="_top" xlink:title=" ">
<polygon fill="white" stroke="#666666" points="133,-162 0,-162 0,-132 133,-132 133,-162"/>
<text text-anchor="start" x="8" y="-150" font-family="FreeSans" font-size="10.00">mpqc/chemistry/qc/lcao</text>
<text text-anchor="middle" x="66.5" y="-139" font-family="FreeSans" font-size="10.00">/scf/cadf_builder.h</text>
</a>
</g>
</g>
<!-- Node1&#45;&gt;Node2 -->
<g id="edge1_Node000001_Node000002" class="edge">
<title>Node1&#45;&gt;Node2</title>
<g id="a_edge1_Node000001_Node000002"><a xlink:title=" ">
<path fill="none" stroke="#63b8ff" d="M466.59,-358C366.2,-353.35 197.39,-340.38 147.5,-305 97.46,-269.51 76.17,-193.65 69.25,-162.16"/>
<polygon fill="#63b8ff" stroke="#63b8ff" points="466.54,-361.5 476.69,-358.45 466.85,-354.51 466.54,-361.5"/>
</a>
</g>
</g>
<!-- Node3 -->
<g id="Node000003" class="node">
<title>Node3</title>
<g id="a_Node000003"><a xlink:href="rhf_8ipp.html" target="_top" xlink:title=" ">
<polygon fill="white" stroke="#666666" points="323,-96 190,-96 190,-66 323,-66 323,-96"/>
<text text-anchor="start" x="198" y="-84" font-family="FreeSans" font-size="10.00">mpqc/chemistry/qc/lcao</text>
<text text-anchor="middle" x="256.5" y="-73" font-family="FreeSans" font-size="10.00">/scf/rhf.ipp</text>
</a>
</g>
</g>
<!-- Node1&#45;&gt;Node3 -->
<g id="edge11_Node000001_Node000003" class="edge">
<title>Node1&#45;&gt;Node3</title>
<g id="a_edge11_Node000001_Node000003"><a xlink:title=" ">
<path fill="none" stroke="#63b8ff" d="M466.68,-358.84C378.41,-352.17 238.31,-325.77 180.5,-228 152.72,-181.02 208.7,-122.87 238.92,-96.37"/>
<polygon fill="#63b8ff" stroke="#63b8ff" points="466.7,-362.35 476.91,-359.55 467.18,-355.37 466.7,-362.35"/>
</a>
</g>
</g>
<!-- Node5 -->
<g id="Node000005" class="node">
<title>Node5</title>
<g id="a_Node000005"><a xlink:href="clr__cadf__builder_8h.html" target="_top" xlink:title=" ">
<polygon fill="white" stroke="#666666" points="323,-228 190,-228 190,-198 323,-198 323,-228"/>
<text text-anchor="start" x="198" y="-216" font-family="FreeSans" font-size="10.00">mpqc/chemistry/qc/lcao</text>
<text text-anchor="middle" x="256.5" y="-205" font-family="FreeSans" font-size="10.00">/scf/clr_cadf_builder.h</text>
</a>
</g>
</g>
<!-- Node1&#45;&gt;Node5 -->
<g id="edge4_Node000001_Node000005" class="edge">
<title>Node1&#45;&gt;Node5</title>
<g id="a_edge4_Node000001_Node000005"><a xlink:title=" ">
<path fill="none" stroke="#63b8ff" d="M467.2,-337.88C441.28,-329.02 412.55,-317.87 387.5,-305 343.9,-282.61 297.97,-247.68 273.77,-228.25"/>
<polygon fill="#63b8ff" stroke="#63b8ff" points="466.39,-341.3 476.99,-341.16 468.62,-334.66 466.39,-341.3"/>
</a>
</g>
</g>
<!-- Node6 -->
<g id="Node000006" class="node">
<title>Node6</title>
<g id="a_Node000006"><a xlink:href="dfj4ck__fock__builder_8h.html" target="_top" xlink:title=" ">
<polygon fill="white" stroke="#666666" points="536.5,-299.5 396.5,-299.5 396.5,-269.5 536.5,-269.5 536.5,-299.5"/>
<text text-anchor="start" x="404.5" y="-287.5" font-family="FreeSans" font-size="10.00">mpqc/chemistry/qc/lcao</text>
<text text-anchor="middle" x="466.5" y="-276.5" font-family="FreeSans" font-size="10.00">/scf/dfj4ck_fock_builder.h</text>
</a>
</g>
</g>
<!-- Node1&#45;&gt;Node6 -->
<g id="edge6_Node000001_Node000006" class="edge">
<title>Node1&#45;&gt;Node6</title>
<g id="a_edge6_Node000001_Node000006"><a xlink:title=" ">
<path fill="none" stroke="#63b8ff" d="M515.85,-333.57C504.16,-322.18 491.02,-309.39 481.24,-299.86"/>
<polygon fill="#63b8ff" stroke="#63b8ff" points="513.66,-336.32 523.27,-340.79 518.55,-331.31 513.66,-336.32"/>
</a>
</g>
</g>
<!-- Node9 -->
<g id="Node000009" class="node">
<title>Node9</title>
<g id="a_Node000009"><a xlink:href="sd_8ipp.html" target="_top" xlink:title=" ">
<polygon fill="white" stroke="#666666" points="688,-299.5 555,-299.5 555,-269.5 688,-269.5 688,-299.5"/>
<text text-anchor="start" x="563" y="-287.5" font-family="FreeSans" font-size="10.00">mpqc/chemistry/qc/lcao</text>
<text text-anchor="middle" x="621.5" y="-276.5" font-family="FreeSans" font-size="10.00">/scf/sd.ipp</text>
</a>
</g>
</g>
<!-- Node1&#45;&gt;Node9 -->
<g id="edge12_Node000001_Node000009" class="edge">
<title>Node1&#45;&gt;Node9</title>
<g id="a_edge12_Node000001_Node000009"><a xlink:title=" ">
<path fill="none" stroke="#63b8ff" d="M571.51,-333.57C583.35,-322.18 596.66,-309.39 606.56,-299.86"/>
<polygon fill="#63b8ff" stroke="#63b8ff" points="568.78,-331.34 563.99,-340.79 573.63,-336.39 568.78,-331.34"/>
</a>
</g>
</g>
<!-- Node21 -->
<g id="Node000021" class="node">
<title>Node21</title>
<g id="a_Node000021"><a xlink:href="traditional__four__center__fock__builder_8cpp.html" target="_top" xlink:title=" ">
<polygon fill="white" stroke="#666666" points="843,-305 706,-305 706,-264 843,-264 843,-305"/>
<text text-anchor="start" x="714" y="-293" font-family="FreeSans" font-size="10.00">mpqc/chemistry/qc/lcao</text>
<text text-anchor="start" x="714" y="-282" font-family="FreeSans" font-size="10.00">/scf/traditional_four</text>
<text text-anchor="middle" x="774.5" y="-271" font-family="FreeSans" font-size="10.00">_center_fock_builder.cpp</text>
</a>
</g>
</g>
<!-- Node1&#45;&gt;Node21 -->
<g id="edge28_Node000001_Node000021" class="edge">
<title>Node1&#45;&gt;Node21</title>
<g id="a_edge28_Node000001_Node000021"><a xlink:title=" ">
<path fill="none" stroke="#63b8ff" d="M613.39,-337.81C645.58,-327.36 683.4,-315.08 714.31,-305.04"/>
<polygon fill="#63b8ff" stroke="#63b8ff" points="612.02,-334.57 603.59,-340.99 614.18,-341.23 612.02,-334.57"/>
</a>
</g>
</g>
<!-- Node22 -->
<g id="Node000022" class="node">
<title>Node22</title>
<g id="a_Node000022"><a xlink:href="traditional__four__center__fock__builder_8ipp.html" target="_top" xlink:title=" ">
<polygon fill="white" stroke="#666666" points="996,-305 861,-305 861,-264 996,-264 996,-305"/>
<text text-anchor="start" x="869" y="-293" font-family="FreeSans" font-size="10.00">mpqc/chemistry/qc/lcao</text>
<text text-anchor="start" x="869" y="-282" font-family="FreeSans" font-size="10.00">/scf/traditional_four</text>
<text text-anchor="middle" x="928.5" y="-271" font-family="FreeSans" font-size="10.00">_center_fock_builder.ipp</text>
</a>
</g>
</g>
<!-- Node1&#45;&gt;Node22 -->
<g id="edge29_Node000001_Node000022" class="edge">
<title>Node1&#45;&gt;Node22</title>
<g id="a_edge29_Node000001_Node000022"><a xlink:title=" ">
<path fill="none" stroke="#63b8ff" d="M620.18,-347.1C680.97,-336.76 767.83,-321.48 843.5,-305 849.09,-303.78 854.89,-302.44 860.72,-301.05"/>
<polygon fill="#63b8ff" stroke="#63b8ff" points="619.56,-343.66 610.28,-348.78 620.73,-350.56 619.56,-343.66"/>
</a>
</g>
</g>
<!-- Node2&#45;&gt;Node3 -->
<g id="edge2_Node000002_Node000003" class="edge">
<title>Node2&#45;&gt;Node3</title>
<g id="a_edge2_Node000002_Node000003"><a xlink:title=" ">
<path fill="none" stroke="#63b8ff" d="M117.79,-128.72C148.23,-118.47 186.34,-105.63 214.9,-96.01"/>
<polygon fill="#63b8ff" stroke="#63b8ff" points="116.56,-125.45 108.2,-131.95 118.79,-132.08 116.56,-125.45"/>
</a>
</g>
</g>
<!-- Node4 -->
<g id="Node000004" class="node">
<title>Node4</title>
<g id="a_Node000004"><a xlink:href="rhf_8cpp.html" target="_top" xlink:title=" ">
<polygon fill="white" stroke="#666666" points="323,-30 190,-30 190,0 323,0 323,-30"/>
<text text-anchor="start" x="198" y="-18" font-family="FreeSans" font-size="10.00">mpqc/chemistry/qc/lcao</text>
<text text-anchor="middle" x="256.5" y="-7" font-family="FreeSans" font-size="10.00">/scf/rhf.cpp</text>
</a>
</g>
</g>
<!-- Node3&#45;&gt;Node4 -->
<g id="edge3_Node000003_Node000004" class="edge">
<title>Node3&#45;&gt;Node4</title>
<g id="a_edge3_Node000003_Node000004"><a xlink:title=" ">
<path fill="none" stroke="#63b8ff" d="M256.5,-55.54C256.5,-46.96 256.5,-37.61 256.5,-30.16"/>
<polygon fill="#63b8ff" stroke="#63b8ff" points="253,-55.8 256.5,-65.8 260,-55.8 253,-55.8"/>
</a>
</g>
</g>
<!-- Node5&#45;&gt;Node3 -->
<g id="edge5_Node000005_Node000003" class="edge">
<title>Node5&#45;&gt;Node3</title>
<g id="a_edge5_Node000005_Node000003"><a xlink:title=" ">
<path fill="none" stroke="#63b8ff" d="M256.5,-187.68C256.5,-160.7 256.5,-118.11 256.5,-96.14"/>
<polygon fill="#63b8ff" stroke="#63b8ff" points="253,-187.84 256.5,-197.84 260,-187.84 253,-187.84"/>
</a>
</g>
</g>
<!-- Node6&#45;&gt;Node3 -->
<g id="edge10_Node000006_Node000003" class="edge">
<title>Node6&#45;&gt;Node3</title>
<g id="a_edge10_Node000006_Node000003"><a xlink:title=" ">
<path fill="none" stroke="#63b8ff" d="M485.5,-261.22C498.38,-243.26 510.98,-217.83 498.5,-198 460.33,-137.38 380.72,-107.73 323.21,-93.72"/>
<polygon fill="#63b8ff" stroke="#63b8ff" points="482.56,-259.31 479.27,-269.38 488.12,-263.56 482.56,-259.31"/>
</a>
</g>
</g>
<!-- Node7 -->
<g id="Node000007" class="node">
<title>Node7</title>
<g id="a_Node000007"><a xlink:href="dfj4ck__fock__builder_8cpp.html" target="_top" xlink:title=" ">
<polygon fill="white" stroke="#666666" points="697.5,-228 545.5,-228 545.5,-198 697.5,-198 697.5,-228"/>
<text text-anchor="start" x="553.5" y="-216" font-family="FreeSans" font-size="10.00">mpqc/chemistry/qc/lcao</text>
<text text-anchor="middle" x="621.5" y="-205" font-family="FreeSans" font-size="10.00">/scf/dfj4ck_fock_builder.cpp</text>
</a>
</g>
</g>
<!-- Node6&#45;&gt;Node7 -->
<g id="edge7_Node000006_Node000007" class="edge">
<title>Node6&#45;&gt;Node7</title>
<g id="a_edge7_Node000006_Node000007"><a xlink:title=" ">
<path fill="none" stroke="#63b8ff" d="M507.08,-265.31C533.05,-253.66 566.24,-238.78 590.18,-228.04"/>
<polygon fill="#63b8ff" stroke="#63b8ff" points="505.56,-262.15 497.87,-269.44 508.42,-268.54 505.56,-262.15"/>
</a>
</g>
</g>
<!-- Node8 -->
<g id="Node000008" class="node">
<title>Node8</title>
<g id="a_Node000008"><a xlink:href="dfj4ck__fock__builder_8ipp.html" target="_top" xlink:title=" ">
<polygon fill="white" stroke="#666666" points="490,-228 341,-228 341,-198 490,-198 490,-228"/>
<text text-anchor="start" x="349" y="-216" font-family="FreeSans" font-size="10.00">mpqc/chemistry/qc/lcao</text>
<text text-anchor="middle" x="415.5" y="-205" font-family="FreeSans" font-size="10.00">/scf/dfj4ck_fock_builder.ipp</text>
</a>
</g>
</g>
<!-- Node6&#45;&gt;Node8 -->
<g id="edge8_Node000006_Node000008" class="edge">
<title>Node6&#45;&gt;Node8</title>
<g id="a_edge8_Node000006_Node000008"><a xlink:title=" ">
<path fill="none" stroke="#63b8ff" d="M444.05,-261.53C435.25,-250.57 426.03,-237.65 420.26,-228.04"/>
<polygon fill="#63b8ff" stroke="#63b8ff" points="441.54,-263.99 450.63,-269.44 446.92,-259.51 441.54,-263.99"/>
</a>
</g>
</g>
<!-- Node8&#45;&gt;Node6 -->
<g id="edge9_Node000008_Node000006" class="edge">
<title>Node8&#45;&gt;Node6</title>
<g id="a_edge9_Node000008_Node000006"><a xlink:title=" ">
<path fill="none" stroke="#63b8ff" d="M437.93,-235.95C446.73,-246.9 455.95,-259.83 461.73,-269.44"/>
<polygon fill="#63b8ff" stroke="#63b8ff" points="440.44,-233.49 431.35,-228.04 435.06,-237.97 440.44,-233.49"/>
</a>
</g>
</g>
<!-- Node10 -->
<g id="Node000010" class="node">
<title>Node10</title>
<g id="a_Node000010"><a xlink:href="sd_8cpp.html" target="_top" xlink:title=" ">
<polygon fill="white" stroke="#666666" points="849,-228 716,-228 716,-198 849,-198 849,-228"/>
<text text-anchor="start" x="724" y="-216" font-family="FreeSans" font-size="10.00">mpqc/chemistry/qc/lcao</text>
<text text-anchor="middle" x="782.5" y="-205" font-family="FreeSans" font-size="10.00">/scf/sd.cpp</text>
</a>
</g>
</g>
<!-- Node9&#45;&gt;Node10 -->
<g id="edge13_Node000009_Node000010" class="edge">
<title>Node9&#45;&gt;Node10</title>
<g id="a_edge13_Node000009_Node000010"><a xlink:title=" ">
<path fill="none" stroke="#63b8ff" d="M663.29,-265.46C690.32,-253.79 724.99,-238.82 749.97,-228.04"/>
<polygon fill="#63b8ff" stroke="#63b8ff" points="661.87,-262.26 654.08,-269.44 664.65,-268.69 661.87,-262.26"/>
</a>
</g>
</g>
<!-- Node11 -->
<g id="Node000011" class="node">
<title>Node11</title>
<g id="a_Node000011"><a xlink:href="sd_8h.html" target="_top" xlink:title=" ">
<polygon fill="white" stroke="#666666" points="1000,-228 867,-228 867,-198 1000,-198 1000,-228"/>
<text text-anchor="start" x="875" y="-216" font-family="FreeSans" font-size="10.00">mpqc/chemistry/qc/lcao</text>
<text text-anchor="middle" x="933.5" y="-205" font-family="FreeSans" font-size="10.00">/scf/sd.h</text>
</a>
</g>
</g>
<!-- Node9&#45;&gt;Node11 -->
<g id="edge14_Node000009_Node000011" class="edge">
<title>Node9&#45;&gt;Node11</title>
<g id="a_edge14_Node000009_Node000011"><a xlink:title=" ">
<path fill="none" stroke="#63b8ff" d="M675.94,-267.01C680.18,-265.97 684.4,-264.96 688.5,-264 748.45,-249.97 817.36,-235.56 866.89,-225.84"/>
<polygon fill="#63b8ff" stroke="#63b8ff" points="674.94,-263.66 666.08,-269.47 676.63,-270.45 674.94,-263.66"/>
</a>
</g>
</g>
<!-- Node11&#45;&gt;Node9 -->
<g id="edge25_Node000011_Node000009" class="edge">
<title>Node11&#45;&gt;Node9</title>
<g id="a_edge25_Node000011_Node000009"><a xlink:title=" ">
<path fill="none" stroke="#63b8ff" d="M861.12,-230.13C816.47,-239.54 758.15,-251.91 706.5,-264 699.21,-265.71 691.54,-267.58 683.9,-269.47"/>
<polygon fill="#63b8ff" stroke="#63b8ff" points="861.94,-233.53 871.01,-228.05 860.5,-226.68 861.94,-233.53"/>
</a>
</g>
</g>
<!-- Node12 -->
<g id="Node000012" class="node">
<title>Node12</title>
<g id="a_Node000012"><a xlink:href="pao__to__pno__mp2_8ipp.html" target="_top" xlink:title=" ">
<polygon fill="white" stroke="#666666" points="1089,-162 940,-162 940,-132 1089,-132 1089,-162"/>
<text text-anchor="start" x="948" y="-150" font-family="FreeSans" font-size="10.00">mpqc/chemistry/qc/lcao</text>
<text text-anchor="middle" x="1014.5" y="-139" font-family="FreeSans" font-size="10.00">/mbpt/pao_to_pno_mp2.ipp</text>
</a>
</g>
</g>
<!-- Node11&#45;&gt;Node12 -->
<g id="edge15_Node000011_Node000012" class="edge">
<title>Node11&#45;&gt;Node12</title>
<g id="a_edge15_Node000011_Node000012"><a xlink:title=" ">
<path fill="none" stroke="#63b8ff" d="M959.47,-191.48C971.58,-181.91 985.68,-170.77 996.57,-162.16"/>
<polygon fill="#63b8ff" stroke="#63b8ff" points="957.15,-188.85 951.48,-197.8 961.49,-194.34 957.15,-188.85"/>
</a>
</g>
</g>
<!-- Node15 -->
<g id="Node000015" class="node">
<title>Node15</title>
<g id="a_Node000015"><a xlink:href="rhf_8h.html" target="_top" xlink:title=" ">
<polygon fill="white" stroke="#666666" points="763,-162 630,-162 630,-132 763,-132 763,-162"/>
<text text-anchor="start" x="638" y="-150" font-family="FreeSans" font-size="10.00">mpqc/chemistry/qc/lcao</text>
<text text-anchor="middle" x="696.5" y="-139" font-family="FreeSans" font-size="10.00">/scf/rhf.h</text>
</a>
</g>
</g>
<!-- Node11&#45;&gt;Node15 -->
<g id="edge19_Node000011_Node000015" class="edge">
<title>Node11&#45;&gt;Node15</title>
<g id="a_edge19_Node000011_Node000015"><a xlink:title=" ">
<path fill="none" stroke="#63b8ff" d="M871.49,-195.25C833.2,-184.91 784.64,-171.8 748.39,-162.01"/>
<polygon fill="#63b8ff" stroke="#63b8ff" points="870.92,-198.73 881.49,-197.95 872.75,-191.97 870.92,-198.73"/>
</a>
</g>
</g>
<!-- Node20 -->
<g id="Node000020" class="node">
<title>Node20</title>
<g id="a_Node000020"><a xlink:href="solver_8ipp.html" target="_top" xlink:title=" ">
<polygon fill="white" stroke="#666666" points="918.5,-162 786.5,-162 786.5,-132 918.5,-132 918.5,-162"/>
<text text-anchor="start" x="794.5" y="-150" font-family="FreeSans" font-size="10.00">mpqc/chemistry/qc/mra</text>
<text text-anchor="middle" x="852.5" y="-139" font-family="FreeSans" font-size="10.00">/scf/solver.ipp</text>
</a>
</g>
</g>
<!-- Node11&#45;&gt;Node20 -->
<g id="edge26_Node000011_Node000020" class="edge">
<title>Node11&#45;&gt;Node20</title>
<g id="a_edge26_Node000011_Node000020"><a xlink:title=" ">
<path fill="none" stroke="#63b8ff" d="M907.53,-191.48C895.42,-181.91 881.32,-170.77 870.43,-162.16"/>
<polygon fill="#63b8ff" stroke="#63b8ff" points="905.51,-194.34 915.52,-197.8 909.85,-188.85 905.51,-194.34"/>
</a>
</g>
</g>
<!-- Node13 -->
<g id="Node000013" class="node">
<title>Node13</title>
<g id="a_Node000013"><a xlink:href="pao__to__pno__mp2_8cpp.html" target="_top" xlink:title=" ">
<polygon fill="white" stroke="#666666" points="998.5,-96 846.5,-96 846.5,-66 998.5,-66 998.5,-96"/>
<text text-anchor="start" x="854.5" y="-84" font-family="FreeSans" font-size="10.00">mpqc/chemistry/qc/lcao</text>
<text text-anchor="middle" x="922.5" y="-73" font-family="FreeSans" font-size="10.00">/mbpt/pao_to_pno_mp2.cpp</text>
</a>
</g>
</g>
<!-- Node12&#45;&gt;Node13 -->
<g id="edge16_Node000012_Node000013" class="edge">
<title>Node12&#45;&gt;Node13</title>
<g id="a_edge16_Node000012_Node000013"><a xlink:title=" ">
<path fill="none" stroke="#63b8ff" d="M985.79,-126.03C971.87,-116.34 955.47,-104.94 942.86,-96.16"/>
<polygon fill="#63b8ff" stroke="#63b8ff" points="983.87,-128.96 994.08,-131.8 987.87,-123.21 983.87,-128.96"/>
</a>
</g>
</g>
<!-- Node14 -->
<g id="Node000014" class="node">
<title>Node14</title>
<g id="a_Node000014"><a xlink:href="pao__to__pno__mp2_8h.html" target="_top" xlink:title=" ">
<polygon fill="white" stroke="#666666" points="1156.5,-96 1016.5,-96 1016.5,-66 1156.5,-66 1156.5,-96"/>
<text text-anchor="start" x="1024.5" y="-84" font-family="FreeSans" font-size="10.00">mpqc/chemistry/qc/lcao</text>
<text text-anchor="middle" x="1086.5" y="-73" font-family="FreeSans" font-size="10.00">/mbpt/pao_to_pno_mp2.h</text>
</a>
</g>
</g>
<!-- Node12&#45;&gt;Node14 -->
<g id="edge17_Node000012_Node000014" class="edge">
<title>Node12&#45;&gt;Node14</title>
<g id="a_edge17_Node000012_Node000014"><a xlink:title=" ">
<path fill="none" stroke="#63b8ff" d="M1032.12,-124.65C1042.03,-115.27 1054.36,-104.53 1064.85,-96.16"/>
<polygon fill="#63b8ff" stroke="#63b8ff" points="1029.49,-122.32 1024.76,-131.8 1034.37,-127.34 1029.49,-122.32"/>
</a>
</g>
</g>
<!-- Node14&#45;&gt;Node12 -->
<g id="edge18_Node000014_Node000012" class="edge">
<title>Node14&#45;&gt;Node12</title>
<g id="a_edge18_Node000014_Node000012"><a xlink:title=" ">
<path fill="none" stroke="#63b8ff" d="M1068.93,-103.31C1059.02,-112.68 1046.7,-123.43 1036.2,-131.8"/>
<polygon fill="#63b8ff" stroke="#63b8ff" points="1071.55,-105.64 1076.28,-96.16 1066.67,-100.62 1071.55,-105.64"/>
</a>
</g>
</g>
<!-- Node15&#45;&gt;Node3 -->
<g id="edge22_Node000015_Node000003" class="edge">
<title>Node15&#45;&gt;Node3</title>
<g id="a_edge22_Node000015_Node000003"><a xlink:title=" ">
<path fill="none" stroke="#63b8ff" d="M619.7,-134.83C535.84,-122.63 402.89,-103.29 323.23,-91.71"/>
<polygon fill="#63b8ff" stroke="#63b8ff" points="619.27,-138.3 629.67,-136.28 620.28,-131.38 619.27,-138.3"/>
</a>
</g>
</g>
<!-- Node16 -->
<g id="Node000016" class="node">
<title>Node16</title>
<g id="a_Node000016"><a xlink:href="scf_8h.html" target="_top" xlink:title=" ">
<polygon fill="white" stroke="#666666" points="640,-96 495,-96 495,-66 640,-66 640,-96"/>
<text text-anchor="start" x="503" y="-84" font-family="FreeSans" font-size="10.00">/home/runner/work/mpqc4</text>
<text text-anchor="middle" x="567.5" y="-73" font-family="FreeSans" font-size="10.00">/mpqc4/python/src/scf.h</text>
</a>
</g>
</g>
<!-- Node15&#45;&gt;Node16 -->
<g id="edge20_Node000015_Node000016" class="edge">
<title>Node15&#45;&gt;Node16</title>
<g id="a_edge20_Node000015_Node000016"><a xlink:title=" ">
<path fill="none" stroke="#63b8ff" d="M658.96,-127.38C638.78,-117.36 614.3,-105.22 595.74,-96.01"/>
<polygon fill="#63b8ff" stroke="#63b8ff" points="657.68,-130.65 668.19,-131.95 660.79,-124.38 657.68,-130.65"/>
</a>
</g>
</g>
<!-- Node18 -->
<g id="Node000018" class="node">
<title>Node18</title>
<g id="a_Node000018"><a xlink:href="solver__1c__v2_8ipp.html" target="_top" xlink:title=" ">
<polygon fill="white" stroke="#666666" points="790.5,-96 658.5,-96 658.5,-66 790.5,-66 790.5,-96"/>
<text text-anchor="start" x="666.5" y="-84" font-family="FreeSans" font-size="10.00">mpqc/chemistry/qc/mra</text>
<text text-anchor="middle" x="724.5" y="-73" font-family="FreeSans" font-size="10.00">/scf/solver_1c_v2.ipp</text>
</a>
</g>
</g>
<!-- Node15&#45;&gt;Node18 -->
<g id="edge23_Node000015_Node000018" class="edge">
<title>Node15&#45;&gt;Node18</title>
<g id="a_edge23_Node000015_Node000018"><a xlink:title=" ">
<path fill="none" stroke="#63b8ff" d="M706.83,-122.39C710.68,-113.59 714.93,-103.86 718.3,-96.16"/>
<polygon fill="#63b8ff" stroke="#63b8ff" points="703.52,-121.23 702.71,-131.8 709.93,-124.04 703.52,-121.23"/>
</a>
</g>
</g>
<!-- Node17 -->
<g id="Node000017" class="node">
<title>Node17</title>
<g id="a_Node000017"><a xlink:href="mpqc_8cc.html" target="_top" xlink:title=" ">
<polygon fill="white" stroke="#666666" points="642.5,-30 492.5,-30 492.5,0 642.5,0 642.5,-30"/>
<text text-anchor="start" x="500.5" y="-18" font-family="FreeSans" font-size="10.00">/home/runner/work/mpqc4</text>
<text text-anchor="middle" x="567.5" y="-7" font-family="FreeSans" font-size="10.00">/mpqc4/python/src/mpqc.cc</text>
</a>
</g>
</g>
<!-- Node16&#45;&gt;Node17 -->
<g id="edge21_Node000016_Node000017" class="edge">
<title>Node16&#45;&gt;Node17</title>
<g id="a_edge21_Node000016_Node000017"><a xlink:title=" ">
<path fill="none" stroke="#63b8ff" d="M567.5,-55.54C567.5,-46.96 567.5,-37.61 567.5,-30.16"/>
<polygon fill="#63b8ff" stroke="#63b8ff" points="564,-55.8 567.5,-65.8 571,-55.8 564,-55.8"/>
</a>
</g>
</g>
<!-- Node19 -->
<g id="Node000019" class="node">
<title>Node19</title>
<g id="a_Node000019"><a xlink:href="solver_8cpp.html" target="_top" xlink:title=" ">
<polygon fill="white" stroke="#666666" points="838.5,-30 706.5,-30 706.5,0 838.5,0 838.5,-30"/>
<text text-anchor="start" x="714.5" y="-18" font-family="FreeSans" font-size="10.00">mpqc/chemistry/qc/mra</text>
<text text-anchor="middle" x="772.5" y="-7" font-family="FreeSans" font-size="10.00">/scf/solver.cpp</text>
</a>
</g>
</g>
<!-- Node18&#45;&gt;Node19 -->
<g id="edge24_Node000018_Node000019" class="edge">
<title>Node18&#45;&gt;Node19</title>
<g id="a_edge24_Node000018_Node000019"><a xlink:title=" ">
<path fill="none" stroke="#63b8ff" d="M741.36,-57.53C748.18,-48.43 755.85,-38.19 761.88,-30.16"/>
<polygon fill="#63b8ff" stroke="#63b8ff" points="738.35,-55.7 735.15,-65.8 743.95,-59.9 738.35,-55.7"/>
</a>
</g>
</g>
<!-- Node20&#45;&gt;Node19 -->
<g id="edge27_Node000020_Node000019" class="edge">
<title>Node20&#45;&gt;Node19</title>
<g id="a_edge27_Node000020_Node000019"><a xlink:title=" ">
<path fill="none" stroke="#63b8ff" d="M838.41,-123.1C821.87,-96.23 794.96,-52.5 781.2,-30.14"/>
<polygon fill="#63b8ff" stroke="#63b8ff" points="835.56,-125.16 843.79,-131.84 841.53,-121.49 835.56,-125.16"/>
</a>
</g>
</g>
<!-- Node22&#45;&gt;Node1 -->
<g id="edge30_Node000022_Node000001" class="edge">
<title>Node22&#45;&gt;Node1</title>
<g id="a_edge30_Node000022_Node000001"><a xlink:title=" ">
<path fill="none" stroke="#63b8ff" d="M851.35,-307.19C767.56,-325.09 672.19,-341.37 610.01,-351.1"/>
<polygon fill="#63b8ff" stroke="#63b8ff" points="852.21,-310.58 861.25,-305.05 850.73,-303.74 852.21,-310.58"/>
</a>
</g>
</g>
</g>
</svg>
