<?xml version="1.0" encoding="UTF-8" standalone="no"?>
<!DOCTYPE svg PUBLIC "-//W3C//DTD SVG 1.1//EN"
 "http://www.w3.org/Graphics/SVG/1.1/DTD/svg11.dtd">
<!-- Generated by graphviz version 2.43.0 (0)
 -->
<!-- Title: mpqc/util/misc/tuple.h Pages: 1 -->
<svg width="460pt" height="324pt"
 viewBox="0.00 0.00 460.00 324.00" xmlns="http://www.w3.org/2000/svg" xmlns:xlink="http://www.w3.org/1999/xlink">

<svg id="main" version="1.1" xmlns="http://www.w3.org/2000/svg" xmlns:xlink="http://www.w3.org/1999/xlink" xml:space="preserve" onload="init(evt)">
<style type="text/css"><![CDATA[
.node, .edge {opacity: 0.7;}
.node.selected, .edge.selected {opacity: 1;}
.edge:hover path { stroke: red; }
.edge:hover polygon { stroke: red; fill: red; }
]]></style>
<script type="application/ecmascript" xlink:href="svg.min.js"/>
<svg id="graph" class="graph">
<g id="graph0" class="graph" transform="scale(1 1) rotate(0) translate(4 320)">
<title>mpqc/util/misc/tuple.h</title>
<!-- Node1 -->
<g id="Node000001" class="node">
<title>Node1</title>
<g id="a_Node000001"><a xlink:title=" ">
<polygon fill="#999999" stroke="#666666" points="173.5,-316 48.5,-316 48.5,-297 173.5,-297 173.5,-316"/>
<text text-anchor="middle" x="111" y="-304" font-family="FreeSans" font-size="10.00">mpqc/util/misc/tuple.h</text>
</a>
</g>
</g>
<!-- Node2 -->
<g id="Node000002" class="node">
<title>Node2</title>
<g id="a_Node000002"><a xlink:href="hb_8h.html" target="_top" xlink:title=" ">
<polygon fill="white" stroke="#666666" points="120,-151 0,-151 0,-132 120,-132 120,-151"/>
<text text-anchor="middle" x="60" y="-139" font-family="FreeSans" font-size="10.00">mpqc/math/fock/hb.h</text>
</a>
</g>
</g>
<!-- Node1&#45;&gt;Node2 -->
<g id="edge1_Node000001_Node000002" class="edge">
<title>Node1&#45;&gt;Node2</title>
<g id="a_edge1_Node000001_Node000002"><a xlink:title=" ">
<path fill="none" stroke="#63b8ff" d="M96.3,-288.99C90,-281.05 83.16,-271.08 79,-261 63.03,-222.28 60.43,-171.31 60.04,-151.2"/>
<polygon fill="#63b8ff" stroke="#63b8ff" points="93.66,-291.29 102.76,-296.72 99.03,-286.8 93.66,-291.29"/>
</a>
</g>
</g>
<!-- Node5 -->
<g id="Node000005" class="node">
<title>Node5</title>
<g id="a_Node000005"><a xlink:href="generator_8h.html" target="_top" xlink:title=" ">
<polygon fill="white" stroke="#666666" points="235.5,-261 88.5,-261 88.5,-242 235.5,-242 235.5,-261"/>
<text text-anchor="middle" x="162" y="-249" font-family="FreeSans" font-size="10.00">mpqc/util/misc/generator.h</text>
</a>
</g>
</g>
<!-- Node1&#45;&gt;Node5 -->
<g id="edge4_Node000001_Node000005" class="edge">
<title>Node1&#45;&gt;Node5</title>
<g id="a_edge4_Node000001_Node000005"><a xlink:title=" ">
<path fill="none" stroke="#63b8ff" d="M126.38,-289.52C135.37,-280.18 146.36,-268.75 153.74,-261.09"/>
<polygon fill="#63b8ff" stroke="#63b8ff" points="123.83,-287.12 119.42,-296.75 128.88,-291.97 123.83,-287.12"/>
</a>
</g>
</g>
<!-- Node3 -->
<g id="Node000003" class="node">
<title>Node3</title>
<g id="a_Node000003"><a xlink:href="sci_8ipp.html" target="_top" xlink:title=" ">
<polygon fill="white" stroke="#666666" points="288.5,-96 155.5,-96 155.5,-66 288.5,-66 288.5,-96"/>
<text text-anchor="start" x="163.5" y="-84" font-family="FreeSans" font-size="10.00">mpqc/chemistry/qc/lcao</text>
<text text-anchor="middle" x="222" y="-73" font-family="FreeSans" font-size="10.00">/ci/sci.ipp</text>
</a>
</g>
</g>
<!-- Node2&#45;&gt;Node3 -->
<g id="edge2_Node000002_Node000003" class="edge">
<title>Node2&#45;&gt;Node3</title>
<g id="a_edge2_Node000002_Node000003"><a xlink:title=" ">
<path fill="none" stroke="#63b8ff" d="M93,-128.58C119.08,-119.16 155.54,-106 183.05,-96.06"/>
<polygon fill="#63b8ff" stroke="#63b8ff" points="91.77,-125.31 83.56,-131.99 94.15,-131.89 91.77,-125.31"/>
</a>
</g>
</g>
<!-- Node4 -->
<g id="Node000004" class="node">
<title>Node4</title>
<g id="a_Node000004"><a xlink:href="sci_8cpp.html" target="_top" xlink:title=" ">
<polygon fill="white" stroke="#666666" points="288.5,-30 155.5,-30 155.5,0 288.5,0 288.5,-30"/>
<text text-anchor="start" x="163.5" y="-18" font-family="FreeSans" font-size="10.00">mpqc/chemistry/qc/lcao</text>
<text text-anchor="middle" x="222" y="-7" font-family="FreeSans" font-size="10.00">/ci/sci.cpp</text>
</a>
</g>
</g>
<!-- Node3&#45;&gt;Node4 -->
<g id="edge3_Node000003_Node000004" class="edge">
<title>Node3&#45;&gt;Node4</title>
<g id="a_edge3_Node000003_Node000004"><a xlink:title=" ">
<path fill="none" stroke="#63b8ff" d="M222,-55.54C222,-46.96 222,-37.61 222,-30.16"/>
<polygon fill="#63b8ff" stroke="#63b8ff" points="218.5,-55.8 222,-65.8 225.5,-55.8 218.5,-55.8"/>
</a>
</g>
</g>
<!-- Node5&#45;&gt;Node2 -->
<g id="edge5_Node000005_Node000002" class="edge">
<title>Node5&#45;&gt;Node2</title>
<g id="a_edge5_Node000005_Node000002"><a xlink:title=" ">
<path fill="none" stroke="#63b8ff" d="M146.7,-234.3C124.79,-211.1 85.22,-169.21 68.18,-151.16"/>
<polygon fill="#63b8ff" stroke="#63b8ff" points="144.24,-236.79 153.65,-241.66 149.33,-231.99 144.24,-236.79"/>
</a>
</g>
</g>
<!-- Node6 -->
<g id="Node000006" class="node">
<title>Node6</title>
<g id="a_Node000006"><a xlink:href="iter_8h.html" target="_top" xlink:title=" ">
<polygon fill="white" stroke="#666666" points="275,-206 151,-206 151,-187 275,-187 275,-206"/>
<text text-anchor="middle" x="213" y="-194" font-family="FreeSans" font-size="10.00">mpqc/math/fock/iter.h</text>
</a>
</g>
</g>
<!-- Node5&#45;&gt;Node6 -->
<g id="edge6_Node000005_Node000006" class="edge">
<title>Node5&#45;&gt;Node6</title>
<g id="a_edge6_Node000005_Node000006"><a xlink:title=" ">
<path fill="none" stroke="#63b8ff" d="M177.38,-234.52C186.37,-225.18 197.36,-213.75 204.74,-206.09"/>
<polygon fill="#63b8ff" stroke="#63b8ff" points="174.83,-232.12 170.42,-241.75 179.88,-236.97 174.83,-232.12"/>
</a>
</g>
</g>
<!-- Node6&#45;&gt;Node2 -->
<g id="edge9_Node000006_Node000002" class="edge">
<title>Node6&#45;&gt;Node2</title>
<g id="a_edge9_Node000006_Node000002"><a xlink:title=" ">
<path fill="none" stroke="#63b8ff" d="M178.85,-183.67C150.32,-173.79 110.31,-159.93 84.77,-151.08"/>
<polygon fill="#63b8ff" stroke="#63b8ff" points="177.82,-187.02 188.42,-186.98 180.11,-180.4 177.82,-187.02"/>
</a>
</g>
</g>
<!-- Node7 -->
<g id="Node000007" class="node">
<title>Node7</title>
<g id="a_Node000007"><a xlink:href="hamiltonian_8h.html" target="_top" xlink:title=" ">
<polygon fill="white" stroke="#666666" points="305.5,-151 138.5,-151 138.5,-132 305.5,-132 305.5,-151"/>
<text text-anchor="middle" x="222" y="-139" font-family="FreeSans" font-size="10.00">mpqc/math/fock/hamiltonian.h</text>
</a>
</g>
</g>
<!-- Node6&#45;&gt;Node7 -->
<g id="edge7_Node000006_Node000007" class="edge">
<title>Node6&#45;&gt;Node7</title>
<g id="a_edge7_Node000006_Node000007"><a xlink:title=" ">
<path fill="none" stroke="#63b8ff" d="M216.2,-176.66C217.68,-167.93 219.37,-157.99 220.54,-151.09"/>
<polygon fill="#63b8ff" stroke="#63b8ff" points="212.71,-176.3 214.49,-186.75 219.61,-177.48 212.71,-176.3"/>
</a>
</g>
</g>
<!-- Node8 -->
<g id="Node000008" class="node">
<title>Node8</title>
<g id="a_Node000008"><a xlink:href="math_2fock_2rdm_8h.html" target="_top" xlink:title=" ">
<polygon fill="white" stroke="#666666" points="452,-151 324,-151 324,-132 452,-132 452,-151"/>
<text text-anchor="middle" x="388" y="-139" font-family="FreeSans" font-size="10.00">mpqc/math/fock/rdm.h</text>
</a>
</g>
</g>
<!-- Node6&#45;&gt;Node8 -->
<g id="edge10_Node000006_Node000008" class="edge">
<title>Node6&#45;&gt;Node8</title>
<g id="a_edge10_Node000006_Node000008"><a xlink:title=" ">
<path fill="none" stroke="#63b8ff" d="M250.79,-184.06C283.5,-174.15 330.07,-160.04 359.66,-151.08"/>
<polygon fill="#63b8ff" stroke="#63b8ff" points="249.67,-180.74 241.12,-186.98 251.7,-187.44 249.67,-180.74"/>
</a>
</g>
</g>
<!-- Node7&#45;&gt;Node3 -->
<g id="edge8_Node000007_Node000003" class="edge">
<title>Node7&#45;&gt;Node3</title>
<g id="a_edge8_Node000007_Node000003"><a xlink:title=" ">
<path fill="none" stroke="#63b8ff" d="M222,-121.65C222,-113.36 222,-103.78 222,-96.11"/>
<polygon fill="#63b8ff" stroke="#63b8ff" points="218.5,-121.87 222,-131.87 225.5,-121.87 218.5,-121.87"/>
</a>
</g>
</g>
<!-- Node8&#45;&gt;Node3 -->
<g id="edge11_Node000008_Node000003" class="edge">
<title>Node8&#45;&gt;Node3</title>
<g id="a_edge11_Node000008_Node000003"><a xlink:title=" ">
<path fill="none" stroke="#63b8ff" d="M354.18,-128.58C327.46,-119.16 290.1,-106 261.91,-96.06"/>
<polygon fill="#63b8ff" stroke="#63b8ff" points="353.27,-131.97 363.86,-131.99 355.59,-125.37 353.27,-131.97"/>
</a>
</g>
</g>
</g>
</svg>
</svg>

<style type='text/css'>
<![CDATA[
[data-mouse-over-selected='false'] { opacity: 0.7; }
[data-mouse-over-selected='true']  { opacity: 1.0; }
]]>
</style>
<script type="application/ecmascript"><![CDATA[
document.addEventListener('DOMContentLoaded', (event) => {
  highlightEdges();
  highlightAdjacentNodes();
});
]]></script>
</svg>
