<?xml version="1.0" encoding="UTF-8" standalone="no"?>
<!DOCTYPE svg PUBLIC "-//W3C//DTD SVG 1.1//EN"
 "http://www.w3.org/Graphics/SVG/1.1/DTD/svg11.dtd">
<!-- Generated by graphviz version 2.43.0 (0)
 -->
<!-- Title: mpqc/chemistry/qc/lcao/mbpt/pno/types.h Pages: 1 -->
<svg width="1372pt" height="401pt"
 viewBox="0.00 0.00 1371.50 401.00" xmlns="http://www.w3.org/2000/svg" xmlns:xlink="http://www.w3.org/1999/xlink">
<g id="graph0" class="graph" transform="scale(1 1) rotate(0) translate(4 397)">
<title>mpqc/chemistry/qc/lcao/mbpt/pno/types.h</title>
<!-- Node1 -->
<g id="Node000001" class="node">
<title>Node1</title>
<g id="a_Node000001"><a xlink:title=" ">
<polygon fill="#999999" stroke="#666666" points="1168,-393 1035,-393 1035,-363 1168,-363 1168,-393"/>
<text text-anchor="start" x="1043" y="-381" font-family="FreeSans" font-size="10.00">mpqc/chemistry/qc/lcao</text>
<text text-anchor="middle" x="1101.5" y="-370" font-family="FreeSans" font-size="10.00">/mbpt/pno/types.h</text>
</a>
</g>
</g>
<!-- Node2 -->
<g id="Node000002" class="node">
<title>Node2</title>
<g id="a_Node000002"><a xlink:href="eigen_8h.html" target="_top" xlink:title=" ">
<polygon fill="white" stroke="#666666" points="909.5,-327 793.5,-327 793.5,-297 909.5,-297 909.5,-327"/>
<text text-anchor="start" x="801.5" y="-315" font-family="FreeSans" font-size="10.00">mpqc/math/external</text>
<text text-anchor="middle" x="851.5" y="-304" font-family="FreeSans" font-size="10.00">/eigen/eigen.h</text>
</a>
</g>
</g>
<!-- Node1&#45;&gt;Node2 -->
<g id="edge1_Node000001_Node000002" class="edge">
<title>Node1&#45;&gt;Node2</title>
<g id="a_edge1_Node000001_Node000002"><a xlink:title=" ">
<path fill="none" stroke="#63b8ff" d="M1046.64,-362.95C1008.13,-353.1 956.49,-339.88 916.01,-329.51"/>
<polygon fill="#63b8ff" stroke="#63b8ff" points="916.79,-326.1 906.24,-327.01 915.06,-332.88 916.79,-326.1"/>
</a>
</g>
</g>
<!-- Node23 -->
<g id="Node000023" class="node">
<title>Node23</title>
<g id="a_Node000023"><a xlink:href="tiledarray_8h.html" target="_top" xlink:title=" ">
<polygon fill="white" stroke="#666666" points="1055,-321.5 984,-321.5 984,-302.5 1055,-302.5 1055,-321.5"/>
<text text-anchor="middle" x="1019.5" y="-309.5" font-family="FreeSans" font-size="10.00">tiledarray.h</text>
</a>
</g>
</g>
<!-- Node1&#45;&gt;Node23 -->
<g id="edge26_Node000001_Node000023" class="edge">
<title>Node1&#45;&gt;Node23</title>
<g id="a_edge26_Node000001_Node000023"><a xlink:title=" ">
<path fill="none" stroke="#63b8ff" d="M1083.3,-362.8C1070.14,-352.53 1052.39,-338.67 1038.95,-328.18"/>
<polygon fill="#63b8ff" stroke="#63b8ff" points="1040.87,-325.24 1030.83,-321.84 1036.56,-330.76 1040.87,-325.24"/>
</a>
</g>
</g>
<!-- Node24 -->
<g id="Node000024" class="node">
<title>Node24</title>
<g id="a_Node000024"><a xlink:title=" ">
<polygon fill="#e0e0e0" stroke="#999999" points="1253.5,-255.5 1211.5,-255.5 1211.5,-236.5 1253.5,-236.5 1253.5,-255.5"/>
<text text-anchor="middle" x="1232.5" y="-243.5" font-family="FreeSans" font-size="10.00">array</text>
</a>
</g>
</g>
<!-- Node1&#45;&gt;Node24 -->
<g id="edge29_Node000001_Node000024" class="edge">
<title>Node1&#45;&gt;Node24</title>
<g id="a_edge29_Node000001_Node000024"><a xlink:title=" ">
<path fill="none" stroke="#63b8ff" d="M1101.23,-362.92C1101.64,-345.52 1104.83,-315.9 1120.5,-297 1140.92,-272.36 1175.97,-259.42 1201.43,-252.93"/>
<polygon fill="#63b8ff" stroke="#63b8ff" points="1202.41,-256.3 1211.34,-250.6 1200.81,-249.48 1202.41,-256.3"/>
</a>
</g>
</g>
<!-- Node25 -->
<g id="Node000025" class="node">
<title>Node25</title>
<g id="a_Node000025"><a xlink:title=" ">
<polygon fill="#e0e0e0" stroke="#999999" points="1223,-321.5 1130,-321.5 1130,-302.5 1223,-302.5 1223,-321.5"/>
<text text-anchor="middle" x="1176.5" y="-309.5" font-family="FreeSans" font-size="10.00">unordered_map</text>
</a>
</g>
</g>
<!-- Node1&#45;&gt;Node25 -->
<g id="edge30_Node000001_Node000025" class="edge">
<title>Node1&#45;&gt;Node25</title>
<g id="a_edge30_Node000001_Node000025"><a xlink:title=" ">
<path fill="none" stroke="#63b8ff" d="M1118.14,-362.8C1130.07,-352.62 1146.11,-338.93 1158.36,-328.48"/>
<polygon fill="#63b8ff" stroke="#63b8ff" points="1160.8,-331 1166.14,-321.84 1156.26,-325.67 1160.8,-331"/>
</a>
</g>
</g>
<!-- Node26 -->
<g id="Node000026" class="node">
<title>Node26</title>
<g id="a_Node000026"><a xlink:href="hash_8h.html" target="_top" xlink:title=" ">
<polygon fill="white" stroke="#666666" points="1363.5,-321.5 1241.5,-321.5 1241.5,-302.5 1363.5,-302.5 1363.5,-321.5"/>
<text text-anchor="middle" x="1302.5" y="-309.5" font-family="FreeSans" font-size="10.00">mpqc/util/core/hash.h</text>
</a>
</g>
</g>
<!-- Node1&#45;&gt;Node26 -->
<g id="edge31_Node000001_Node000026" class="edge">
<title>Node1&#45;&gt;Node26</title>
<g id="a_edge31_Node000001_Node000026"><a xlink:title=" ">
<path fill="none" stroke="#63b8ff" d="M1145.61,-362.95C1181.64,-351.48 1231.96,-335.46 1265.81,-324.68"/>
<polygon fill="#63b8ff" stroke="#63b8ff" points="1267.28,-327.89 1275.75,-321.52 1265.16,-321.22 1267.28,-327.89"/>
</a>
</g>
</g>
<!-- Node3 -->
<g id="Node000003" class="node">
<title>Node3</title>
<g id="a_Node000003"><a xlink:title=" ">
<polygon fill="#e0e0e0" stroke="#999999" points="522.5,-255.5 420.5,-255.5 420.5,-236.5 522.5,-236.5 522.5,-255.5"/>
<text text-anchor="middle" x="471.5" y="-243.5" font-family="FreeSans" font-size="10.00">madness/config.h</text>
</a>
</g>
</g>
<!-- Node2&#45;&gt;Node3 -->
<g id="edge2_Node000002_Node000003" class="edge">
<title>Node2&#45;&gt;Node3</title>
<g id="a_edge2_Node000002_Node000003"><a xlink:title=" ">
<path fill="none" stroke="#63b8ff" d="M793.47,-303.25C729.18,-294.37 622.57,-278.71 531.5,-261 526.45,-260.02 521.17,-258.91 515.94,-257.76"/>
<polygon fill="#63b8ff" stroke="#63b8ff" points="516.51,-254.3 505.99,-255.51 514.97,-261.13 516.51,-254.3"/>
</a>
</g>
</g>
<!-- Node4 -->
<g id="Node000004" class="node">
<title>Node4</title>
<g id="a_Node000004"><a xlink:href="complex_8h.html" target="_top" xlink:title=" ">
<polygon fill="white" stroke="#666666" points="690.5,-255.5 540.5,-255.5 540.5,-236.5 690.5,-236.5 690.5,-255.5"/>
<text text-anchor="middle" x="615.5" y="-243.5" font-family="FreeSans" font-size="10.00">mpqc/math/core/complex.h</text>
</a>
</g>
</g>
<!-- Node2&#45;&gt;Node4 -->
<g id="edge3_Node000002_Node000004" class="edge">
<title>Node2&#45;&gt;Node4</title>
<g id="a_edge3_Node000002_Node000004"><a xlink:title=" ">
<path fill="none" stroke="#63b8ff" d="M799.71,-296.95C756.77,-285.31 696.54,-268.98 656.8,-258.2"/>
<polygon fill="#63b8ff" stroke="#63b8ff" points="657.48,-254.76 646.91,-255.52 655.64,-261.51 657.48,-254.76"/>
</a>
</g>
</g>
<!-- Node6 -->
<g id="Node000006" class="node">
<title>Node6</title>
<g id="a_Node000006"><a xlink:title=" ">
<polygon fill="#e0e0e0" stroke="#999999" points="910,-129 793,-129 793,-110 910,-110 910,-129"/>
<text text-anchor="middle" x="851.5" y="-117" font-family="FreeSans" font-size="10.00">mpqc/mpqc_config.h</text>
</a>
</g>
</g>
<!-- Node2&#45;&gt;Node6 -->
<g id="edge22_Node000002_Node000006" class="edge">
<title>Node2&#45;&gt;Node6</title>
<g id="a_edge22_Node000002_Node000006"><a xlink:title=" ">
<path fill="none" stroke="#63b8ff" d="M842.54,-296.76C837,-287.08 830.41,-273.77 827.5,-261 817.61,-217.53 833.53,-165.65 843.83,-138.73"/>
<polygon fill="#63b8ff" stroke="#63b8ff" points="847.21,-139.7 847.68,-129.12 840.71,-137.1 847.21,-139.7"/>
</a>
</g>
</g>
<!-- Node21 -->
<g id="Node000021" class="node">
<title>Node21</title>
<g id="a_Node000021"><a xlink:href="math_2external_2eigen_2fwd_8h.html" target="_top" xlink:title=" ">
<polygon fill="white" stroke="#666666" points="952.5,-261 836.5,-261 836.5,-231 952.5,-231 952.5,-261"/>
<text text-anchor="start" x="844.5" y="-249" font-family="FreeSans" font-size="10.00">mpqc/math/external</text>
<text text-anchor="middle" x="894.5" y="-238" font-family="FreeSans" font-size="10.00">/eigen/fwd.h</text>
</a>
</g>
</g>
<!-- Node2&#45;&gt;Node21 -->
<g id="edge23_Node000002_Node000021" class="edge">
<title>Node2&#45;&gt;Node21</title>
<g id="a_edge23_Node000002_Node000021"><a xlink:title=" ">
<path fill="none" stroke="#63b8ff" d="M861.04,-296.8C866.39,-288.84 873.18,-278.74 879.24,-269.71"/>
<polygon fill="#63b8ff" stroke="#63b8ff" points="882.31,-271.42 884.98,-261.16 876.5,-267.51 882.31,-271.42"/>
</a>
</g>
</g>
<!-- Node22 -->
<g id="Node000022" class="node">
<title>Node22</title>
<g id="a_Node000022"><a xlink:title=" ">
<polygon fill="#e0e0e0" stroke="#999999" points="1048,-255.5 971,-255.5 971,-236.5 1048,-236.5 1048,-255.5"/>
<text text-anchor="middle" x="1009.5" y="-243.5" font-family="FreeSans" font-size="10.00">Eigen/Dense</text>
</a>
</g>
</g>
<!-- Node2&#45;&gt;Node22 -->
<g id="edge25_Node000002_Node000022" class="edge">
<title>Node2&#45;&gt;Node22</title>
<g id="a_edge25_Node000002_Node000022"><a xlink:title=" ">
<path fill="none" stroke="#63b8ff" d="M886.17,-296.95C913.88,-285.73 952.35,-270.15 978.92,-259.39"/>
<polygon fill="#63b8ff" stroke="#63b8ff" points="980.52,-262.52 988.47,-255.52 977.89,-256.03 980.52,-262.52"/>
</a>
</g>
</g>
<!-- Node5 -->
<g id="Node000005" class="node">
<title>Node5</title>
<g id="a_Node000005"><a xlink:href="assert_8h.html" target="_top" xlink:title=" ">
<polygon fill="white" stroke="#666666" points="239,-189.5 108,-189.5 108,-170.5 239,-170.5 239,-189.5"/>
<text text-anchor="middle" x="173.5" y="-177.5" font-family="FreeSans" font-size="10.00">mpqc/util/misc/assert.h</text>
</a>
</g>
</g>
<!-- Node4&#45;&gt;Node5 -->
<g id="edge4_Node000004_Node000005" class="edge">
<title>Node4&#45;&gt;Node5</title>
<g id="a_edge4_Node000004_Node000005"><a xlink:title=" ">
<path fill="none" stroke="#63b8ff" d="M566.25,-236.46C554.85,-234.58 542.76,-232.65 531.5,-231 405.61,-212.54 373.18,-214.83 247.5,-195 240.64,-193.92 233.45,-192.68 226.35,-191.4"/>
<polygon fill="#63b8ff" stroke="#63b8ff" points="226.54,-187.88 216.08,-189.51 225.28,-194.77 226.54,-187.88"/>
</a>
</g>
</g>
<!-- Node16 -->
<g id="Node000016" class="node">
<title>Node16</title>
<g id="a_Node000016"><a xlink:title=" ">
<polygon fill="#e0e0e0" stroke="#999999" points="326,-189.5 257,-189.5 257,-170.5 326,-170.5 326,-189.5"/>
<text text-anchor="middle" x="291.5" y="-177.5" font-family="FreeSans" font-size="10.00">Eigen/Core</text>
</a>
</g>
</g>
<!-- Node4&#45;&gt;Node16 -->
<g id="edge17_Node000004_Node000016" class="edge">
<title>Node4&#45;&gt;Node16</title>
<g id="a_edge17_Node000004_Node000016"><a xlink:title=" ">
<path fill="none" stroke="#63b8ff" d="M565.84,-236.5C491.45,-223.71 357.46,-200.43 335.5,-195 332.48,-194.25 329.37,-193.41 326.27,-192.52"/>
<polygon fill="#63b8ff" stroke="#63b8ff" points="327.05,-189.11 316.47,-189.57 325.03,-195.81 327.05,-189.11"/>
</a>
</g>
</g>
<!-- Node17 -->
<g id="Node000017" class="node">
<title>Node17</title>
<g id="a_Node000017"><a xlink:title=" ">
<polygon fill="#e0e0e0" stroke="#999999" points="466.5,-195 344.5,-195 344.5,-165 466.5,-165 466.5,-195"/>
<text text-anchor="start" x="352.5" y="-183" font-family="FreeSans" font-size="10.00">boost/container/small</text>
<text text-anchor="middle" x="405.5" y="-172" font-family="FreeSans" font-size="10.00">_vector.hpp</text>
</a>
</g>
</g>
<!-- Node4&#45;&gt;Node17 -->
<g id="edge18_Node000004_Node000017" class="edge">
<title>Node4&#45;&gt;Node17</title>
<g id="a_edge18_Node000004_Node000017"><a xlink:title=" ">
<path fill="none" stroke="#63b8ff" d="M587.18,-236.37C555.12,-226.6 502.08,-210.43 461.56,-198.09"/>
<polygon fill="#63b8ff" stroke="#63b8ff" points="462.4,-194.68 451.82,-195.12 460.36,-201.38 462.4,-194.68"/>
</a>
</g>
</g>
<!-- Node18 -->
<g id="Node000018" class="node">
<title>Node18</title>
<g id="a_Node000018"><a xlink:title=" ">
<polygon fill="#e0e0e0" stroke="#999999" points="628,-195 485,-195 485,-165 628,-165 628,-195"/>
<text text-anchor="start" x="493" y="-183" font-family="FreeSans" font-size="10.00">boost/numeric/conversion</text>
<text text-anchor="middle" x="556.5" y="-172" font-family="FreeSans" font-size="10.00">/cast.hpp</text>
</a>
</g>
</g>
<!-- Node4&#45;&gt;Node18 -->
<g id="edge19_Node000004_Node000018" class="edge">
<title>Node4&#45;&gt;Node18</title>
<g id="a_edge19_Node000004_Node000018"><a xlink:title=" ">
<path fill="none" stroke="#63b8ff" d="M607.54,-236.37C599.67,-227.83 587.3,-214.41 576.71,-202.92"/>
<polygon fill="#63b8ff" stroke="#63b8ff" points="579.09,-200.34 569.74,-195.36 573.94,-205.09 579.09,-200.34"/>
</a>
</g>
</g>
<!-- Node19 -->
<g id="Node000019" class="node">
<title>Node19</title>
<g id="a_Node000019"><a xlink:title=" ">
<polygon fill="#e0e0e0" stroke="#999999" points="705,-189.5 646,-189.5 646,-170.5 705,-170.5 705,-189.5"/>
<text text-anchor="middle" x="675.5" y="-177.5" font-family="FreeSans" font-size="10.00">complex</text>
</a>
</g>
</g>
<!-- Node4&#45;&gt;Node19 -->
<g id="edge20_Node000004_Node000019" class="edge">
<title>Node4&#45;&gt;Node19</title>
<g id="a_edge20_Node000004_Node000019"><a xlink:title=" ">
<path fill="none" stroke="#63b8ff" d="M623.59,-236.37C632.93,-226.4 648.51,-209.79 660.16,-197.36"/>
<polygon fill="#63b8ff" stroke="#63b8ff" points="662.87,-199.59 667.15,-189.91 657.76,-194.81 662.87,-199.59"/>
</a>
</g>
</g>
<!-- Node20 -->
<g id="Node000020" class="node">
<title>Node20</title>
<g id="a_Node000020"><a xlink:title=" ">
<polygon fill="#e0e0e0" stroke="#999999" points="792,-189.5 723,-189.5 723,-170.5 792,-170.5 792,-189.5"/>
<text text-anchor="middle" x="757.5" y="-177.5" font-family="FreeSans" font-size="10.00">type_traits</text>
</a>
</g>
</g>
<!-- Node4&#45;&gt;Node20 -->
<g id="edge21_Node000004_Node000020" class="edge">
<title>Node4&#45;&gt;Node20</title>
<g id="a_edge21_Node000004_Node000020"><a xlink:title=" ">
<path fill="none" stroke="#63b8ff" d="M634.65,-236.37C658.89,-225.44 700.87,-206.52 728.91,-193.88"/>
<polygon fill="#63b8ff" stroke="#63b8ff" points="730.52,-197 738.2,-189.7 727.64,-190.62 730.52,-197"/>
</a>
</g>
</g>
<!-- Node5&#45;&gt;Node6 -->
<g id="edge5_Node000005_Node000006" class="edge">
<title>Node5&#45;&gt;Node6</title>
<g id="a_edge5_Node000005_Node000006"><a xlink:title=" ">
<path fill="none" stroke="#63b8ff" d="M214.08,-170.46C224.9,-168.42 236.61,-166.43 247.5,-165 440.6,-139.7 670.45,-127.72 782.8,-123.02"/>
<polygon fill="#63b8ff" stroke="#63b8ff" points="783.12,-126.51 792.97,-122.6 782.83,-119.52 783.12,-126.51"/>
</a>
</g>
</g>
<!-- Node7 -->
<g id="Node000007" class="node">
<title>Node7</title>
<g id="a_Node000007"><a xlink:title=" ">
<polygon fill="#e0e0e0" stroke="#999999" points="141.5,-129 89.5,-129 89.5,-110 141.5,-110 141.5,-129"/>
<text text-anchor="middle" x="115.5" y="-117" font-family="FreeSans" font-size="10.00">cassert</text>
</a>
</g>
</g>
<!-- Node5&#45;&gt;Node7 -->
<g id="edge6_Node000005_Node000007" class="edge">
<title>Node5&#45;&gt;Node7</title>
<g id="a_edge6_Node000005_Node000007"><a xlink:title=" ">
<path fill="none" stroke="#63b8ff" d="M164.94,-170.37C156.12,-161.47 142.16,-147.39 131.32,-136.45"/>
<polygon fill="#63b8ff" stroke="#63b8ff" points="133.62,-133.8 124.09,-129.17 128.65,-138.73 133.62,-133.8"/>
</a>
</g>
</g>
<!-- Node8 -->
<g id="Node000008" class="node">
<title>Node8</title>
<g id="a_Node000008"><a xlink:href="exception_8h.html" target="_top" xlink:title=" ">
<polygon fill="white" stroke="#666666" points="305.5,-129 159.5,-129 159.5,-110 305.5,-110 305.5,-129"/>
<text text-anchor="middle" x="232.5" y="-117" font-family="FreeSans" font-size="10.00">mpqc/util/core/exception.h</text>
</a>
</g>
</g>
<!-- Node5&#45;&gt;Node8 -->
<g id="edge7_Node000005_Node000008" class="edge">
<title>Node5&#45;&gt;Node8</title>
<g id="a_edge7_Node000005_Node000008"><a xlink:title=" ">
<path fill="none" stroke="#63b8ff" d="M182.21,-170.37C191.18,-161.47 205.38,-147.39 216.41,-136.45"/>
<polygon fill="#63b8ff" stroke="#63b8ff" points="219.12,-138.69 223.76,-129.17 214.19,-133.72 219.12,-138.69"/>
</a>
</g>
</g>
<!-- Node9 -->
<g id="Node000009" class="node">
<title>Node9</title>
<g id="a_Node000009"><a xlink:title=" ">
<polygon fill="#e0e0e0" stroke="#999999" points="53,-74 0,-74 0,-55 53,-55 53,-74"/>
<text text-anchor="middle" x="26.5" y="-62" font-family="FreeSans" font-size="10.00">string.h</text>
</a>
</g>
</g>
<!-- Node8&#45;&gt;Node9 -->
<g id="edge8_Node000008_Node000009" class="edge">
<title>Node8&#45;&gt;Node9</title>
<g id="a_edge8_Node000008_Node000009"><a xlink:title=" ">
<path fill="none" stroke="#63b8ff" d="M199.4,-109.98C162.13,-100.4 101.74,-84.86 63.09,-74.91"/>
<polygon fill="#63b8ff" stroke="#63b8ff" points="63.84,-71.49 53.28,-72.39 62.09,-78.27 63.84,-71.49"/>
</a>
</g>
</g>
<!-- Node10 -->
<g id="Node000010" class="node">
<title>Node10</title>
<g id="a_Node000010"><a xlink:href="memory.html" target="_top" xlink:title=" ">
<polygon fill="white" stroke="#666666" points="129.5,-74 71.5,-74 71.5,-55 129.5,-55 129.5,-74"/>
<text text-anchor="middle" x="100.5" y="-62" font-family="FreeSans" font-size="10.00">memory</text>
</a>
</g>
</g>
<!-- Node8&#45;&gt;Node10 -->
<g id="edge9_Node000008_Node000010" class="edge">
<title>Node8&#45;&gt;Node10</title>
<g id="a_edge9_Node000008_Node000010"><a xlink:title=" ">
<path fill="none" stroke="#63b8ff" d="M211.29,-109.98C189.77,-101.34 156.22,-87.87 131.67,-78.02"/>
<polygon fill="#63b8ff" stroke="#63b8ff" points="132.68,-74.65 122.09,-74.17 130.07,-81.14 132.68,-74.65"/>
</a>
</g>
</g>
<!-- Node11 -->
<g id="Node000011" class="node">
<title>Node11</title>
<g id="a_Node000011"><a xlink:title=" ">
<polygon fill="#e0e0e0" stroke="#999999" points="221.5,-74 165.5,-74 165.5,-55 221.5,-55 221.5,-74"/>
<text text-anchor="middle" x="193.5" y="-62" font-family="FreeSans" font-size="10.00">sstream</text>
</a>
</g>
</g>
<!-- Node8&#45;&gt;Node11 -->
<g id="edge11_Node000008_Node000011" class="edge">
<title>Node8&#45;&gt;Node11</title>
<g id="a_edge11_Node000008_Node000011"><a xlink:title=" ">
<path fill="none" stroke="#63b8ff" d="M226.06,-109.75C220.61,-102.34 212.64,-91.5 205.94,-82.41"/>
<polygon fill="#63b8ff" stroke="#63b8ff" points="208.57,-80.07 199.82,-74.09 202.93,-84.22 208.57,-80.07"/>
</a>
</g>
</g>
<!-- Node12 -->
<g id="Node000012" class="node">
<title>Node12</title>
<g id="a_Node000012"><a xlink:title=" ">
<polygon fill="#e0e0e0" stroke="#999999" points="305,-74 240,-74 240,-55 305,-55 305,-74"/>
<text text-anchor="middle" x="272.5" y="-62" font-family="FreeSans" font-size="10.00">stdexcept</text>
</a>
</g>
</g>
<!-- Node8&#45;&gt;Node12 -->
<g id="edge12_Node000008_Node000012" class="edge">
<title>Node8&#45;&gt;Node12</title>
<g id="a_edge12_Node000008_Node000012"><a xlink:title=" ">
<path fill="none" stroke="#63b8ff" d="M239.11,-109.75C244.76,-102.26 253.04,-91.28 259.95,-82.13"/>
<polygon fill="#63b8ff" stroke="#63b8ff" points="262.79,-84.18 266.02,-74.09 257.2,-79.96 262.79,-84.18"/>
</a>
</g>
</g>
<!-- Node13 -->
<g id="Node000013" class="node">
<title>Node13</title>
<g id="a_Node000013"><a xlink:title=" ">
<polygon fill="#e0e0e0" stroke="#999999" points="376,-19 329,-19 329,0 376,0 376,-19"/>
<text text-anchor="middle" x="352.5" y="-7" font-family="FreeSans" font-size="10.00">vector</text>
</a>
</g>
</g>
<!-- Node8&#45;&gt;Node13 -->
<g id="edge13_Node000008_Node000013" class="edge">
<title>Node8&#45;&gt;Node13</title>
<g id="a_edge13_Node000008_Node000013"><a xlink:title=" ">
<path fill="none" stroke="#63b8ff" d="M255.12,-109.86C272.58,-102.36 296.54,-90.16 313.5,-74 327.08,-61.06 337.79,-42.4 344.53,-28.65"/>
<polygon fill="#63b8ff" stroke="#63b8ff" points="347.84,-29.82 348.88,-19.28 341.49,-26.87 347.84,-29.82"/>
</a>
</g>
</g>
<!-- Node14 -->
<g id="Node000014" class="node">
<title>Node14</title>
<g id="a_Node000014"><a xlink:href="backtrace_8h.html" target="_top" xlink:title=" ">
<polygon fill="white" stroke="#666666" points="507.5,-74 361.5,-74 361.5,-55 507.5,-55 507.5,-74"/>
<text text-anchor="middle" x="434.5" y="-62" font-family="FreeSans" font-size="10.00">mpqc/util/core/backtrace.h</text>
</a>
</g>
</g>
<!-- Node8&#45;&gt;Node14 -->
<g id="edge14_Node000008_Node000014" class="edge">
<title>Node8&#45;&gt;Node14</title>
<g id="a_edge14_Node000008_Node000014"><a xlink:title=" ">
<path fill="none" stroke="#63b8ff" d="M264.95,-109.98C299.46,-100.93 354.16,-86.58 392.06,-76.64"/>
<polygon fill="#63b8ff" stroke="#63b8ff" points="393.01,-80.01 401.79,-74.08 391.23,-73.23 393.01,-80.01"/>
</a>
</g>
</g>
<!-- Node10&#45;&gt;Node10 -->
<g id="edge10_Node000010_Node000010" class="edge">
<title>Node10&#45;&gt;Node10</title>
<g id="a_edge10_Node000010_Node000010"><a xlink:title=" ">
<path fill="none" stroke="#63b8ff" d="M122.74,-74.07C135.56,-76.02 147.5,-72.83 147.5,-64.5 147.5,-58.45 141.2,-55.11 132.84,-54.48"/>
<polygon fill="#63b8ff" stroke="#63b8ff" points="132.58,-50.99 122.74,-54.93 132.89,-57.98 132.58,-50.99"/>
</a>
</g>
</g>
<!-- Node14&#45;&gt;Node13 -->
<g id="edge16_Node000014_Node000013" class="edge">
<title>Node14&#45;&gt;Node13</title>
<g id="a_edge16_Node000014_Node000013"><a xlink:title=" ">
<path fill="none" stroke="#63b8ff" d="M421.33,-54.98C408.73,-46.84 389.5,-34.41 374.56,-24.76"/>
<polygon fill="#63b8ff" stroke="#63b8ff" points="376.21,-21.66 365.91,-19.17 372.41,-27.54 376.21,-21.66"/>
</a>
</g>
</g>
<!-- Node15 -->
<g id="Node000015" class="node">
<title>Node15</title>
<g id="a_Node000015"><a xlink:title=" ">
<polygon fill="#e0e0e0" stroke="#999999" points="456.5,-19 412.5,-19 412.5,0 456.5,0 456.5,-19"/>
<text text-anchor="middle" x="434.5" y="-7" font-family="FreeSans" font-size="10.00">string</text>
</a>
</g>
</g>
<!-- Node14&#45;&gt;Node15 -->
<g id="edge15_Node000014_Node000015" class="edge">
<title>Node14&#45;&gt;Node15</title>
<g id="a_edge15_Node000014_Node000015"><a xlink:title=" ">
<path fill="none" stroke="#63b8ff" d="M434.5,-54.75C434.5,-47.8 434.5,-37.85 434.5,-29.13"/>
<polygon fill="#63b8ff" stroke="#63b8ff" points="438,-29.09 434.5,-19.09 431,-29.09 438,-29.09"/>
</a>
</g>
</g>
<!-- Node21&#45;&gt;Node6 -->
<g id="edge24_Node000021_Node000006" class="edge">
<title>Node21&#45;&gt;Node6</title>
<g id="a_edge24_Node000021_Node000006"><a xlink:title=" ">
<path fill="none" stroke="#63b8ff" d="M889.57,-230.72C881.73,-208.02 866.43,-163.72 857.8,-138.75"/>
<polygon fill="#63b8ff" stroke="#63b8ff" points="861.03,-137.38 854.46,-129.07 854.42,-139.66 861.03,-137.38"/>
</a>
</g>
</g>
<!-- Node23&#45;&gt;Node6 -->
<g id="edge28_Node000023_Node000006" class="edge">
<title>Node23&#45;&gt;Node6</title>
<g id="a_edge28_Node000023_Node000006"><a xlink:title=" ">
<path fill="none" stroke="#63b8ff" d="M1029.07,-302.29C1044.38,-287.27 1071.25,-255.7 1056.5,-231 1023.15,-175.14 950.73,-145.84 901.53,-131.79"/>
<polygon fill="#63b8ff" stroke="#63b8ff" points="902.29,-128.37 891.72,-129.1 900.43,-135.12 902.29,-128.37"/>
</a>
</g>
</g>
<!-- Node23&#45;&gt;Node23 -->
<g id="edge27_Node000023_Node000023" class="edge">
<title>Node23&#45;&gt;Node23</title>
<g id="a_edge27_Node000023_Node000023"><a xlink:title=" ">
<path fill="none" stroke="#63b8ff" d="M1036.21,-321.56C1053.56,-327.37 1073,-324.18 1073,-312 1073,-302.1 1060.17,-298.14 1046.05,-300.12"/>
<polygon fill="#63b8ff" stroke="#63b8ff" points="1045.14,-296.74 1036.21,-302.44 1046.74,-303.55 1045.14,-296.74"/>
</a>
</g>
</g>
<!-- Node26&#45;&gt;Node24 -->
<g id="edge32_Node000026_Node000024" class="edge">
<title>Node26&#45;&gt;Node24</title>
<g id="a_edge32_Node000026_Node000024"><a xlink:title=" ">
<path fill="none" stroke="#63b8ff" d="M1293.06,-302.37C1281.95,-292.21 1263.3,-275.16 1249.62,-262.65"/>
<polygon fill="#63b8ff" stroke="#63b8ff" points="1251.98,-260.07 1242.24,-255.91 1247.26,-265.24 1251.98,-260.07"/>
</a>
</g>
</g>
<!-- Node27 -->
<g id="Node000027" class="node">
<title>Node27</title>
<g id="a_Node000027"><a xlink:title=" ">
<polygon fill="#e0e0e0" stroke="#999999" points="1325,-255.5 1280,-255.5 1280,-236.5 1325,-236.5 1325,-255.5"/>
<text text-anchor="middle" x="1302.5" y="-243.5" font-family="FreeSans" font-size="10.00">utility</text>
</a>
</g>
</g>
<!-- Node26&#45;&gt;Node27 -->
<g id="edge33_Node000026_Node000027" class="edge">
<title>Node26&#45;&gt;Node27</title>
<g id="a_edge33_Node000026_Node000027"><a xlink:title=" ">
<path fill="none" stroke="#63b8ff" d="M1302.5,-302.37C1302.5,-293.16 1302.5,-278.29 1302.5,-266.27"/>
<polygon fill="#63b8ff" stroke="#63b8ff" points="1306,-265.91 1302.5,-255.91 1299,-265.91 1306,-265.91"/>
</a>
</g>
</g>
</g>
</svg>
