<?xml version="1.0" encoding="UTF-8" standalone="no"?>
<!DOCTYPE svg PUBLIC "-//W3C//DTD SVG 1.1//EN"
 "http://www.w3.org/Graphics/SVG/1.1/DTD/svg11.dtd">
<!-- Generated by graphviz version 2.43.0 (0)
 -->
<!-- Title: mpqc/math/linalg/ucsrmatrix.h Pages: 1 -->
<svg width="231pt" height="214pt"
 viewBox="0.00 0.00 231.00 214.00" xmlns="http://www.w3.org/2000/svg" xmlns:xlink="http://www.w3.org/1999/xlink">
<g id="graph0" class="graph" transform="scale(1 1) rotate(0) translate(4 210)">
<title>mpqc/math/linalg/ucsrmatrix.h</title>
<!-- Node1 -->
<g id="Node000001" class="node">
<title>Node1</title>
<g id="a_Node000001"><a xlink:title=" ">
<polygon fill="#999999" stroke="#666666" points="167,-206 0,-206 0,-187 167,-187 167,-206"/>
<text text-anchor="middle" x="83.5" y="-194" font-family="FreeSans" font-size="10.00">mpqc/math/linalg/ucsrmatrix.h</text>
</a>
</g>
</g>
<!-- Node2 -->
<g id="Node000002" class="node">
<title>Node2</title>
<g id="a_Node000002"><a xlink:href="sci_8ipp.html" target="_top" xlink:title=" ">
<polygon fill="white" stroke="#666666" points="150,-96 17,-96 17,-66 150,-66 150,-96"/>
<text text-anchor="start" x="25" y="-84" font-family="FreeSans" font-size="10.00">mpqc/chemistry/qc/lcao</text>
<text text-anchor="middle" x="83.5" y="-73" font-family="FreeSans" font-size="10.00">/ci/sci.ipp</text>
</a>
</g>
</g>
<!-- Node1&#45;&gt;Node2 -->
<g id="edge1_Node000001_Node000002" class="edge">
<title>Node1&#45;&gt;Node2</title>
<g id="a_edge1_Node000001_Node000002"><a xlink:title=" ">
<path fill="none" stroke="#63b8ff" d="M65.87,-179.29C58.71,-171.51 51.25,-161.59 47.5,-151 44.68,-143.04 44.91,-140.04 47.5,-132 51.83,-118.56 61.27,-105.69 69.39,-96.37"/>
<polygon fill="#63b8ff" stroke="#63b8ff" points="63.81,-182.18 73.34,-186.81 68.78,-177.24 63.81,-182.18"/>
</a>
</g>
</g>
<!-- Node4 -->
<g id="Node000004" class="node">
<title>Node4</title>
<g id="a_Node000004"><a xlink:href="hamiltonian_8h.html" target="_top" xlink:title=" ">
<polygon fill="white" stroke="#666666" points="223,-151 56,-151 56,-132 223,-132 223,-151"/>
<text text-anchor="middle" x="139.5" y="-139" font-family="FreeSans" font-size="10.00">mpqc/math/fock/hamiltonian.h</text>
</a>
</g>
</g>
<!-- Node1&#45;&gt;Node4 -->
<g id="edge3_Node000001_Node000004" class="edge">
<title>Node1&#45;&gt;Node4</title>
<g id="a_edge3_Node000001_Node000004"><a xlink:title=" ">
<path fill="none" stroke="#63b8ff" d="M99.83,-180.04C109.76,-170.64 122.09,-158.98 130.34,-151.17"/>
<polygon fill="#63b8ff" stroke="#63b8ff" points="97.35,-177.57 92.5,-186.98 102.17,-182.65 97.35,-177.57"/>
</a>
</g>
</g>
<!-- Node3 -->
<g id="Node000003" class="node">
<title>Node3</title>
<g id="a_Node000003"><a xlink:href="sci_8cpp.html" target="_top" xlink:title=" ">
<polygon fill="white" stroke="#666666" points="150,-30 17,-30 17,0 150,0 150,-30"/>
<text text-anchor="start" x="25" y="-18" font-family="FreeSans" font-size="10.00">mpqc/chemistry/qc/lcao</text>
<text text-anchor="middle" x="83.5" y="-7" font-family="FreeSans" font-size="10.00">/ci/sci.cpp</text>
</a>
</g>
</g>
<!-- Node2&#45;&gt;Node3 -->
<g id="edge2_Node000002_Node000003" class="edge">
<title>Node2&#45;&gt;Node3</title>
<g id="a_edge2_Node000002_Node000003"><a xlink:title=" ">
<path fill="none" stroke="#63b8ff" d="M83.5,-55.54C83.5,-46.96 83.5,-37.61 83.5,-30.16"/>
<polygon fill="#63b8ff" stroke="#63b8ff" points="80,-55.8 83.5,-65.8 87,-55.8 80,-55.8"/>
</a>
</g>
</g>
<!-- Node4&#45;&gt;Node2 -->
<g id="edge4_Node000004_Node000002" class="edge">
<title>Node4&#45;&gt;Node2</title>
<g id="a_edge4_Node000004_Node000002"><a xlink:title=" ">
<path fill="none" stroke="#63b8ff" d="M124.11,-124.43C115.62,-115.56 105.18,-104.65 97.01,-96.11"/>
<polygon fill="#63b8ff" stroke="#63b8ff" points="121.79,-127.06 131.24,-131.87 126.85,-122.22 121.79,-127.06"/>
</a>
</g>
</g>
</g>
</svg>
