<?xml version="1.0" encoding="UTF-8" standalone="no"?>
<!DOCTYPE svg PUBLIC "-//W3C//DTD SVG 1.1//EN"
 "http://www.w3.org/Graphics/SVG/1.1/DTD/svg11.dtd">
<!-- Generated by graphviz version 2.43.0 (0)
 -->
<!-- Title: mpqc/chemistry/units/units.h Pages: 1 -->
<svg width="620pt" height="203pt"
 viewBox="0.00 0.00 619.50 203.00" xmlns="http://www.w3.org/2000/svg" xmlns:xlink="http://www.w3.org/1999/xlink">
<g id="graph0" class="graph" transform="scale(1 1) rotate(0) translate(4 199)">
<title>mpqc/chemistry/units/units.h</title>
<!-- Node1 -->
<g id="Node000001" class="node">
<title>Node1</title>
<g id="a_Node000001"><a xlink:title=" ">
<polygon fill="#999999" stroke="#666666" points="164.5,-195 42.5,-195 42.5,-165 164.5,-165 164.5,-195"/>
<text text-anchor="start" x="50.5" y="-183" font-family="FreeSans" font-size="10.00">mpqc/chemistry/units</text>
<text text-anchor="middle" x="103.5" y="-172" font-family="FreeSans" font-size="10.00">/units.h</text>
</a>
</g>
</g>
<!-- Node2 -->
<g id="Node000002" class="node">
<title>Node2</title>
<g id="a_Node000002"><a xlink:title=" ">
<polygon fill="#e0e0e0" stroke="#999999" points="47,-129 0,-129 0,-110 47,-110 47,-129"/>
<text text-anchor="middle" x="23.5" y="-117" font-family="FreeSans" font-size="10.00">cmath</text>
</a>
</g>
</g>
<!-- Node1&#45;&gt;Node2 -->
<g id="edge1_Node000001_Node000002" class="edge">
<title>Node1&#45;&gt;Node2</title>
<g id="a_edge1_Node000001_Node000002"><a xlink:title=" ">
<path fill="none" stroke="#63b8ff" d="M84.13,-164.84C71.93,-155.91 56.19,-144.41 43.81,-135.35"/>
<polygon fill="#63b8ff" stroke="#63b8ff" points="45.63,-132.34 35.49,-129.27 41.49,-137.99 45.63,-132.34"/>
</a>
</g>
</g>
<!-- Node3 -->
<g id="Node000003" class="node">
<title>Node3</title>
<g id="a_Node000003"><a xlink:href="memory.html" target="_top" xlink:title=" ">
<polygon fill="white" stroke="#666666" points="161.5,-74 103.5,-74 103.5,-55 161.5,-55 161.5,-74"/>
<text text-anchor="middle" x="132.5" y="-62" font-family="FreeSans" font-size="10.00">memory</text>
</a>
</g>
</g>
<!-- Node1&#45;&gt;Node3 -->
<g id="edge2_Node000001_Node000003" class="edge">
<title>Node1&#45;&gt;Node3</title>
<g id="a_edge2_Node000001_Node000003"><a xlink:title=" ">
<path fill="none" stroke="#63b8ff" d="M107.17,-164.63C112.41,-144.12 122.03,-106.47 127.79,-83.93"/>
<polygon fill="#63b8ff" stroke="#63b8ff" points="131.19,-84.78 130.27,-74.23 124.4,-83.05 131.19,-84.78"/>
</a>
</g>
</g>
<!-- Node4 -->
<g id="Node000004" class="node">
<title>Node4</title>
<g id="a_Node000004"><a xlink:title=" ">
<polygon fill="#e0e0e0" stroke="#999999" points="255.5,-19 211.5,-19 211.5,0 255.5,0 255.5,-19"/>
<text text-anchor="middle" x="233.5" y="-7" font-family="FreeSans" font-size="10.00">string</text>
</a>
</g>
</g>
<!-- Node1&#45;&gt;Node4 -->
<g id="edge4_Node000001_Node000004" class="edge">
<title>Node1&#45;&gt;Node4</title>
<g id="a_edge4_Node000001_Node000004"><a xlink:title=" ">
<path fill="none" stroke="#63b8ff" d="M97.03,-164.74C86.82,-139.84 70.45,-87.95 94.5,-55 118.83,-21.66 168.47,-12.73 201.36,-10.65"/>
<polygon fill="#63b8ff" stroke="#63b8ff" points="201.57,-14.14 211.4,-10.19 201.25,-7.15 201.57,-14.14"/>
</a>
</g>
</g>
<!-- Node5 -->
<g id="Node000005" class="node">
<title>Node5</title>
<g id="a_Node000005"><a xlink:href="exception_8h.html" target="_top" xlink:title=" ">
<polygon fill="white" stroke="#666666" points="427.5,-129 281.5,-129 281.5,-110 427.5,-110 427.5,-129"/>
<text text-anchor="middle" x="354.5" y="-117" font-family="FreeSans" font-size="10.00">mpqc/util/core/exception.h</text>
</a>
</g>
</g>
<!-- Node1&#45;&gt;Node5 -->
<g id="edge5_Node000001_Node000005" class="edge">
<title>Node1&#45;&gt;Node5</title>
<g id="a_edge5_Node000001_Node000005"><a xlink:title=" ">
<path fill="none" stroke="#63b8ff" d="M163.62,-164.99C207.88,-154.67 267.18,-140.85 307.87,-131.37"/>
<polygon fill="#63b8ff" stroke="#63b8ff" points="308.86,-134.73 317.8,-129.05 307.27,-127.91 308.86,-134.73"/>
</a>
</g>
</g>
<!-- Node3&#45;&gt;Node3 -->
<g id="edge3_Node000003_Node000003" class="edge">
<title>Node3&#45;&gt;Node3</title>
<g id="a_edge3_Node000003_Node000003"><a xlink:title=" ">
<path fill="none" stroke="#63b8ff" d="M154.74,-74.07C167.56,-76.02 179.5,-72.83 179.5,-64.5 179.5,-58.45 173.2,-55.11 164.84,-54.48"/>
<polygon fill="#63b8ff" stroke="#63b8ff" points="164.58,-50.99 154.74,-54.93 164.89,-57.98 164.58,-50.99"/>
</a>
</g>
</g>
<!-- Node5&#45;&gt;Node3 -->
<g id="edge7_Node000005_Node000003" class="edge">
<title>Node5&#45;&gt;Node3</title>
<g id="a_edge7_Node000005_Node000003"><a xlink:title=" ">
<path fill="none" stroke="#63b8ff" d="M318.83,-109.98C278.52,-100.36 213.12,-84.75 171.49,-74.81"/>
<polygon fill="#63b8ff" stroke="#63b8ff" points="172.24,-71.39 161.7,-72.47 170.61,-78.2 172.24,-71.39"/>
</a>
</g>
</g>
<!-- Node6 -->
<g id="Node000006" class="node">
<title>Node6</title>
<g id="a_Node000006"><a xlink:title=" ">
<polygon fill="#e0e0e0" stroke="#999999" points="537,-74 484,-74 484,-55 537,-55 537,-74"/>
<text text-anchor="middle" x="510.5" y="-62" font-family="FreeSans" font-size="10.00">string.h</text>
</a>
</g>
</g>
<!-- Node5&#45;&gt;Node6 -->
<g id="edge6_Node000005_Node000006" class="edge">
<title>Node5&#45;&gt;Node6</title>
<g id="a_edge6_Node000005_Node000006"><a xlink:title=" ">
<path fill="none" stroke="#63b8ff" d="M379.56,-109.98C405.53,-101.16 446.31,-87.31 475.46,-77.41"/>
<polygon fill="#63b8ff" stroke="#63b8ff" points="476.9,-80.61 485.24,-74.08 474.65,-73.99 476.9,-80.61"/>
</a>
</g>
</g>
<!-- Node7 -->
<g id="Node000007" class="node">
<title>Node7</title>
<g id="a_Node000007"><a xlink:title=" ">
<polygon fill="#e0e0e0" stroke="#999999" points="611.5,-74 555.5,-74 555.5,-55 611.5,-55 611.5,-74"/>
<text text-anchor="middle" x="583.5" y="-62" font-family="FreeSans" font-size="10.00">sstream</text>
</a>
</g>
</g>
<!-- Node5&#45;&gt;Node7 -->
<g id="edge8_Node000005_Node000007" class="edge">
<title>Node5&#45;&gt;Node7</title>
<g id="a_edge8_Node000005_Node000007"><a xlink:title=" ">
<path fill="none" stroke="#63b8ff" d="M391.29,-109.98C433.66,-100.18 502.92,-84.15 545.71,-74.25"/>
<polygon fill="#63b8ff" stroke="#63b8ff" points="546.51,-77.65 555.46,-71.99 544.93,-70.83 546.51,-77.65"/>
</a>
</g>
</g>
<!-- Node8 -->
<g id="Node000008" class="node">
<title>Node8</title>
<g id="a_Node000008"><a xlink:title=" ">
<polygon fill="#e0e0e0" stroke="#999999" points="263,-74 198,-74 198,-55 263,-55 263,-74"/>
<text text-anchor="middle" x="230.5" y="-62" font-family="FreeSans" font-size="10.00">stdexcept</text>
</a>
</g>
</g>
<!-- Node5&#45;&gt;Node8 -->
<g id="edge9_Node000005_Node000008" class="edge">
<title>Node5&#45;&gt;Node8</title>
<g id="a_edge9_Node000005_Node000008"><a xlink:title=" ">
<path fill="none" stroke="#63b8ff" d="M334.58,-109.98C314.45,-101.38 283.12,-87.99 260.09,-78.15"/>
<polygon fill="#63b8ff" stroke="#63b8ff" points="261.36,-74.88 250.79,-74.17 258.6,-81.32 261.36,-74.88"/>
</a>
</g>
</g>
<!-- Node9 -->
<g id="Node000009" class="node">
<title>Node9</title>
<g id="a_Node000009"><a xlink:title=" ">
<polygon fill="#e0e0e0" stroke="#999999" points="428,-19 381,-19 381,0 428,0 428,-19"/>
<text text-anchor="middle" x="404.5" y="-7" font-family="FreeSans" font-size="10.00">vector</text>
</a>
</g>
</g>
<!-- Node5&#45;&gt;Node9 -->
<g id="edge10_Node000005_Node000009" class="edge">
<title>Node5&#45;&gt;Node9</title>
<g id="a_edge10_Node000005_Node000009"><a xlink:title=" ">
<path fill="none" stroke="#63b8ff" d="M386.71,-109.92C404.75,-103.29 425.73,-92.09 436.5,-74 445.81,-58.36 433.79,-39.68 421.91,-26.64"/>
<polygon fill="#63b8ff" stroke="#63b8ff" points="424.24,-24.01 414.73,-19.33 419.24,-28.92 424.24,-24.01"/>
</a>
</g>
</g>
<!-- Node10 -->
<g id="Node000010" class="node">
<title>Node10</title>
<g id="a_Node000010"><a xlink:href="backtrace_8h.html" target="_top" xlink:title=" ">
<polygon fill="white" stroke="#666666" points="427.5,-74 281.5,-74 281.5,-55 427.5,-55 427.5,-74"/>
<text text-anchor="middle" x="354.5" y="-62" font-family="FreeSans" font-size="10.00">mpqc/util/core/backtrace.h</text>
</a>
</g>
</g>
<!-- Node5&#45;&gt;Node10 -->
<g id="edge11_Node000005_Node000010" class="edge">
<title>Node5&#45;&gt;Node10</title>
<g id="a_edge11_Node000005_Node000010"><a xlink:title=" ">
<path fill="none" stroke="#63b8ff" d="M354.5,-109.75C354.5,-102.8 354.5,-92.85 354.5,-84.13"/>
<polygon fill="#63b8ff" stroke="#63b8ff" points="358,-84.09 354.5,-74.09 351,-84.09 358,-84.09"/>
</a>
</g>
</g>
<!-- Node10&#45;&gt;Node4 -->
<g id="edge12_Node000010_Node000004" class="edge">
<title>Node10&#45;&gt;Node4</title>
<g id="a_edge12_Node000010_Node000004"><a xlink:title=" ">
<path fill="none" stroke="#63b8ff" d="M335.06,-54.98C315.51,-46.42 285.12,-33.11 262.68,-23.28"/>
<polygon fill="#63b8ff" stroke="#63b8ff" points="263.86,-19.98 253.29,-19.17 261.05,-26.39 263.86,-19.98"/>
</a>
</g>
</g>
<!-- Node10&#45;&gt;Node9 -->
<g id="edge13_Node000010_Node000009" class="edge">
<title>Node10&#45;&gt;Node9</title>
<g id="a_edge13_Node000010_Node000009"><a xlink:title=" ">
<path fill="none" stroke="#63b8ff" d="M362.76,-54.75C369.96,-47.11 380.61,-35.82 389.35,-26.56"/>
<polygon fill="#63b8ff" stroke="#63b8ff" points="392.08,-28.76 396.4,-19.09 386.99,-23.96 392.08,-28.76"/>
</a>
</g>
</g>
</g>
</svg>
