<?xml version="1.0" encoding="UTF-8" standalone="no"?>
<!DOCTYPE svg PUBLIC "-//W3C//DTD SVG 1.1//EN"
 "http://www.w3.org/Graphics/SVG/1.1/DTD/svg11.dtd">
<!-- Generated by graphviz version 2.43.0 (0)
 -->
<!-- Title: mpqc/chemistry/units/units.cpp Pages: 1 -->
<svg width="620pt" height="269pt"
 viewBox="0.00 0.00 619.50 269.00" xmlns="http://www.w3.org/2000/svg" xmlns:xlink="http://www.w3.org/1999/xlink">
<g id="graph0" class="graph" transform="scale(1 1) rotate(0) translate(4 265)">
<title>mpqc/chemistry/units/units.cpp</title>
<!-- Node1 -->
<g id="Node000001" class="node">
<title>Node1</title>
<g id="a_Node000001"><a xlink:title=" ">
<polygon fill="#999999" stroke="#666666" points="128.5,-261 6.5,-261 6.5,-231 128.5,-231 128.5,-261"/>
<text text-anchor="start" x="14.5" y="-249" font-family="FreeSans" font-size="10.00">mpqc/chemistry/units</text>
<text text-anchor="middle" x="67.5" y="-238" font-family="FreeSans" font-size="10.00">/units.cpp</text>
</a>
</g>
</g>
<!-- Node2 -->
<g id="Node000002" class="node">
<title>Node2</title>
<g id="a_Node000002"><a xlink:href="units_8h.html" target="_top" xlink:title=" ">
<polygon fill="white" stroke="#666666" points="173.5,-195 51.5,-195 51.5,-165 173.5,-165 173.5,-195"/>
<text text-anchor="start" x="59.5" y="-183" font-family="FreeSans" font-size="10.00">mpqc/chemistry/units</text>
<text text-anchor="middle" x="112.5" y="-172" font-family="FreeSans" font-size="10.00">/units.h</text>
</a>
</g>
</g>
<!-- Node1&#45;&gt;Node2 -->
<g id="edge1_Node000001_Node000002" class="edge">
<title>Node1&#45;&gt;Node2</title>
<g id="a_edge1_Node000001_Node000002"><a xlink:title=" ">
<path fill="none" stroke="#63b8ff" d="M77.49,-230.8C83.14,-222.76 90.33,-212.53 96.73,-203.43"/>
<polygon fill="#63b8ff" stroke="#63b8ff" points="99.65,-205.36 102.54,-195.16 93.93,-201.33 99.65,-205.36"/>
</a>
</g>
</g>
<!-- Node3 -->
<g id="Node000003" class="node">
<title>Node3</title>
<g id="a_Node000003"><a xlink:title=" ">
<polygon fill="#e0e0e0" stroke="#999999" points="47,-129 0,-129 0,-110 47,-110 47,-129"/>
<text text-anchor="middle" x="23.5" y="-117" font-family="FreeSans" font-size="10.00">cmath</text>
</a>
</g>
</g>
<!-- Node1&#45;&gt;Node3 -->
<g id="edge15_Node000001_Node000003" class="edge">
<title>Node1&#45;&gt;Node3</title>
<g id="a_edge15_Node000001_Node000003"><a xlink:title=" ">
<path fill="none" stroke="#63b8ff" d="M59.44,-230.92C54.08,-221.1 47.18,-207.55 42.5,-195 35.67,-176.66 30.43,-154.89 27.2,-139.63"/>
<polygon fill="#63b8ff" stroke="#63b8ff" points="30.54,-138.51 25.13,-129.4 23.68,-139.9 30.54,-138.51"/>
</a>
</g>
</g>
<!-- Node2&#45;&gt;Node3 -->
<g id="edge2_Node000002_Node000003" class="edge">
<title>Node2&#45;&gt;Node3</title>
<g id="a_edge2_Node000002_Node000003"><a xlink:title=" ">
<path fill="none" stroke="#63b8ff" d="M90.96,-164.84C77.03,-155.68 58.97,-143.82 45.05,-134.66"/>
<polygon fill="#63b8ff" stroke="#63b8ff" points="46.85,-131.66 36.58,-129.09 43.01,-137.51 46.85,-131.66"/>
</a>
</g>
</g>
<!-- Node4 -->
<g id="Node000004" class="node">
<title>Node4</title>
<g id="a_Node000004"><a xlink:href="memory.html" target="_top" xlink:title=" ">
<polygon fill="white" stroke="#666666" points="593.5,-74 535.5,-74 535.5,-55 593.5,-55 593.5,-74"/>
<text text-anchor="middle" x="564.5" y="-62" font-family="FreeSans" font-size="10.00">memory</text>
</a>
</g>
</g>
<!-- Node2&#45;&gt;Node4 -->
<g id="edge3_Node000002_Node000004" class="edge">
<title>Node2&#45;&gt;Node4</title>
<g id="a_edge3_Node000002_Node000004"><a xlink:title=" ">
<path fill="none" stroke="#63b8ff" d="M173.74,-173.33C235.83,-166.57 334.22,-153.03 416.5,-129 461.11,-115.97 510.18,-93.09 539.11,-78.65"/>
<polygon fill="#63b8ff" stroke="#63b8ff" points="540.77,-81.73 548.12,-74.1 537.62,-75.48 540.77,-81.73"/>
</a>
</g>
</g>
<!-- Node5 -->
<g id="Node000005" class="node">
<title>Node5</title>
<g id="a_Node000005"><a xlink:title=" ">
<polygon fill="#e0e0e0" stroke="#999999" points="245.5,-19 201.5,-19 201.5,0 245.5,0 245.5,-19"/>
<text text-anchor="middle" x="223.5" y="-7" font-family="FreeSans" font-size="10.00">string</text>
</a>
</g>
</g>
<!-- Node2&#45;&gt;Node5 -->
<g id="edge5_Node000002_Node000005" class="edge">
<title>Node2&#45;&gt;Node5</title>
<g id="a_edge5_Node000002_Node000005"><a xlink:title=" ">
<path fill="none" stroke="#63b8ff" d="M104.54,-164.84C91.82,-140.11 70.63,-88.48 94.5,-55 116.34,-24.37 160.71,-14.62 191.26,-11.63"/>
<polygon fill="#63b8ff" stroke="#63b8ff" points="191.74,-15.1 201.44,-10.83 191.19,-8.12 191.74,-15.1"/>
</a>
</g>
</g>
<!-- Node6 -->
<g id="Node000006" class="node">
<title>Node6</title>
<g id="a_Node000006"><a xlink:href="exception_8h.html" target="_top" xlink:title=" ">
<polygon fill="white" stroke="#666666" points="407.5,-129 261.5,-129 261.5,-110 407.5,-110 407.5,-129"/>
<text text-anchor="middle" x="334.5" y="-117" font-family="FreeSans" font-size="10.00">mpqc/util/core/exception.h</text>
</a>
</g>
</g>
<!-- Node2&#45;&gt;Node6 -->
<g id="edge6_Node000002_Node000006" class="edge">
<title>Node2&#45;&gt;Node6</title>
<g id="a_edge6_Node000002_Node000006"><a xlink:title=" ">
<path fill="none" stroke="#63b8ff" d="M165.67,-164.99C204.48,-154.76 256.38,-141.09 292.34,-131.61"/>
<polygon fill="#63b8ff" stroke="#63b8ff" points="293.26,-134.99 302.04,-129.05 291.48,-128.22 293.26,-134.99"/>
</a>
</g>
</g>
<!-- Node4&#45;&gt;Node4 -->
<g id="edge4_Node000004_Node000004" class="edge">
<title>Node4&#45;&gt;Node4</title>
<g id="a_edge4_Node000004_Node000004"><a xlink:title=" ">
<path fill="none" stroke="#63b8ff" d="M586.74,-74.07C599.56,-76.02 611.5,-72.83 611.5,-64.5 611.5,-58.45 605.2,-55.11 596.84,-54.48"/>
<polygon fill="#63b8ff" stroke="#63b8ff" points="596.58,-50.99 586.74,-54.93 596.89,-57.98 596.58,-50.99"/>
</a>
</g>
</g>
<!-- Node6&#45;&gt;Node4 -->
<g id="edge8_Node000006_Node000004" class="edge">
<title>Node6&#45;&gt;Node4</title>
<g id="a_edge8_Node000006_Node000004"><a xlink:title=" ">
<path fill="none" stroke="#63b8ff" d="M371.45,-109.98C413.66,-100.26 482.41,-84.42 525.47,-74.49"/>
<polygon fill="#63b8ff" stroke="#63b8ff" points="526.34,-77.89 535.3,-72.23 524.77,-71.06 526.34,-77.89"/>
</a>
</g>
</g>
<!-- Node7 -->
<g id="Node000007" class="node">
<title>Node7</title>
<g id="a_Node000007"><a xlink:title=" ">
<polygon fill="#e0e0e0" stroke="#999999" points="517,-74 464,-74 464,-55 517,-55 517,-74"/>
<text text-anchor="middle" x="490.5" y="-62" font-family="FreeSans" font-size="10.00">string.h</text>
</a>
</g>
</g>
<!-- Node6&#45;&gt;Node7 -->
<g id="edge7_Node000006_Node000007" class="edge">
<title>Node6&#45;&gt;Node7</title>
<g id="a_edge7_Node000006_Node000007"><a xlink:title=" ">
<path fill="none" stroke="#63b8ff" d="M359.56,-109.98C385.53,-101.16 426.31,-87.31 455.46,-77.41"/>
<polygon fill="#63b8ff" stroke="#63b8ff" points="456.9,-80.61 465.24,-74.08 454.65,-73.99 456.9,-80.61"/>
</a>
</g>
</g>
<!-- Node8 -->
<g id="Node000008" class="node">
<title>Node8</title>
<g id="a_Node000008"><a xlink:title=" ">
<polygon fill="#e0e0e0" stroke="#999999" points="159.5,-74 103.5,-74 103.5,-55 159.5,-55 159.5,-74"/>
<text text-anchor="middle" x="131.5" y="-62" font-family="FreeSans" font-size="10.00">sstream</text>
</a>
</g>
</g>
<!-- Node6&#45;&gt;Node8 -->
<g id="edge9_Node000006_Node000008" class="edge">
<title>Node6&#45;&gt;Node8</title>
<g id="a_edge9_Node000006_Node000008"><a xlink:title=" ">
<path fill="none" stroke="#63b8ff" d="M301.88,-109.98C265.77,-100.56 207.63,-85.38 169.49,-75.42"/>
<polygon fill="#63b8ff" stroke="#63b8ff" points="170.34,-72.02 159.78,-72.88 168.57,-78.8 170.34,-72.02"/>
</a>
</g>
</g>
<!-- Node9 -->
<g id="Node000009" class="node">
<title>Node9</title>
<g id="a_Node000009"><a xlink:title=" ">
<polygon fill="#e0e0e0" stroke="#999999" points="243,-74 178,-74 178,-55 243,-55 243,-74"/>
<text text-anchor="middle" x="210.5" y="-62" font-family="FreeSans" font-size="10.00">stdexcept</text>
</a>
</g>
</g>
<!-- Node6&#45;&gt;Node9 -->
<g id="edge10_Node000006_Node000009" class="edge">
<title>Node6&#45;&gt;Node9</title>
<g id="a_edge10_Node000006_Node000009"><a xlink:title=" ">
<path fill="none" stroke="#63b8ff" d="M314.58,-109.98C294.45,-101.38 263.12,-87.99 240.09,-78.15"/>
<polygon fill="#63b8ff" stroke="#63b8ff" points="241.36,-74.88 230.79,-74.17 238.6,-81.32 241.36,-74.88"/>
</a>
</g>
</g>
<!-- Node10 -->
<g id="Node000010" class="node">
<title>Node10</title>
<g id="a_Node000010"><a xlink:title=" ">
<polygon fill="#e0e0e0" stroke="#999999" points="408,-19 361,-19 361,0 408,0 408,-19"/>
<text text-anchor="middle" x="384.5" y="-7" font-family="FreeSans" font-size="10.00">vector</text>
</a>
</g>
</g>
<!-- Node6&#45;&gt;Node10 -->
<g id="edge11_Node000006_Node000010" class="edge">
<title>Node6&#45;&gt;Node10</title>
<g id="a_edge11_Node000006_Node000010"><a xlink:title=" ">
<path fill="none" stroke="#63b8ff" d="M366.71,-109.92C384.75,-103.29 405.73,-92.09 416.5,-74 425.81,-58.36 413.79,-39.68 401.91,-26.64"/>
<polygon fill="#63b8ff" stroke="#63b8ff" points="404.24,-24.01 394.73,-19.33 399.24,-28.92 404.24,-24.01"/>
</a>
</g>
</g>
<!-- Node11 -->
<g id="Node000011" class="node">
<title>Node11</title>
<g id="a_Node000011"><a xlink:href="backtrace_8h.html" target="_top" xlink:title=" ">
<polygon fill="white" stroke="#666666" points="407.5,-74 261.5,-74 261.5,-55 407.5,-55 407.5,-74"/>
<text text-anchor="middle" x="334.5" y="-62" font-family="FreeSans" font-size="10.00">mpqc/util/core/backtrace.h</text>
</a>
</g>
</g>
<!-- Node6&#45;&gt;Node11 -->
<g id="edge12_Node000006_Node000011" class="edge">
<title>Node6&#45;&gt;Node11</title>
<g id="a_edge12_Node000006_Node000011"><a xlink:title=" ">
<path fill="none" stroke="#63b8ff" d="M334.5,-109.75C334.5,-102.8 334.5,-92.85 334.5,-84.13"/>
<polygon fill="#63b8ff" stroke="#63b8ff" points="338,-84.09 334.5,-74.09 331,-84.09 338,-84.09"/>
</a>
</g>
</g>
<!-- Node11&#45;&gt;Node5 -->
<g id="edge13_Node000011_Node000005" class="edge">
<title>Node11&#45;&gt;Node5</title>
<g id="a_edge13_Node000011_Node000005"><a xlink:title=" ">
<path fill="none" stroke="#63b8ff" d="M316.67,-54.98C298.89,-46.5 271.35,-33.35 250.82,-23.54"/>
<polygon fill="#63b8ff" stroke="#63b8ff" points="252.19,-20.32 241.66,-19.17 249.17,-26.64 252.19,-20.32"/>
</a>
</g>
</g>
<!-- Node11&#45;&gt;Node10 -->
<g id="edge14_Node000011_Node000010" class="edge">
<title>Node11&#45;&gt;Node10</title>
<g id="a_edge14_Node000011_Node000010"><a xlink:title=" ">
<path fill="none" stroke="#63b8ff" d="M342.76,-54.75C349.96,-47.11 360.61,-35.82 369.35,-26.56"/>
<polygon fill="#63b8ff" stroke="#63b8ff" points="372.08,-28.76 376.4,-19.09 366.99,-23.96 372.08,-28.76"/>
</a>
</g>
</g>
</g>
</svg>
