<?xml version="1.0" encoding="UTF-8" standalone="no"?>
<!DOCTYPE svg PUBLIC "-//W3C//DTD SVG 1.1//EN"
 "http://www.w3.org/Graphics/SVG/1.1/DTD/svg11.dtd">
<!-- Generated by graphviz version 2.43.0 (0)
 -->
<!-- Title: mpqc/util/misc/string.h Pages: 1 -->
<!--zoomable 269 -->

<svg id="main" version="1.1" xmlns="http://www.w3.org/2000/svg" xmlns:xlink="http://www.w3.org/1999/xlink" xml:space="preserve" onload="init(evt)">
<style type="text/css"><![CDATA[
.node, .edge {opacity: 0.7;}
.node.selected, .edge.selected {opacity: 1;}
.edge:hover path { stroke: red; }
.edge:hover polygon { stroke: red; fill: red; }
]]></style>

<defs>
  <circle id="rim" cx="0" cy="0" r="7"/>
  <circle id="rim2" cx="0" cy="0" r="3.5"/>
  <g id="zoomPlus">
    <use xlink:href="#rim" fill="#404040"><set attributeName="fill" to="#808080" begin="zoomplus.mouseover" end="zoomplus.mouseout"/></use>
    <path d="M-4,0h8M0,-4v8" fill="none" stroke="white" stroke-width="1.5" pointer-events="none"/>
  </g>
  <g id="zoomMin">
    <use xlink:href="#rim" fill="#404040"><set attributeName="fill" to="#808080" begin="zoomminus.mouseover" end="zoomminus.mouseout"/></use>
    <path d="M-4,0h8" fill="none" stroke="white" stroke-width="1.5" pointer-events="none"/>
  </g>
  <g id="arrowUp" transform="translate(30 24)">
    <use xlink:href="#rim"/>
    <path pointer-events="none" fill="none" stroke="white" stroke-width="1.5" d="M0,-3.0v7 M-2.5,-0.5L0,-3.0L2.5,-0.5"/>
  </g>
  <g id="arrowRight" transform="rotate(90) translate(36 -43)">
    <use xlink:href="#rim"/>
    <path pointer-events="none" fill="none" stroke="white" stroke-width="1.5" d="M0,-3.0v7 M-2.5,-0.5L0,-3.0L2.5,-0.5"/>
  </g>
  <g id="arrowDown" transform="rotate(180) translate(-30 -48)">
    <use xlink:href="#rim"/>
    <path pointer-events="none" fill="none" stroke="white" stroke-width="1.5" d="M0,-3.0v7 M-2.5,-0.5L0,-3.0L2.5,-0.5"/>
  </g>
  <g id="arrowLeft" transform="rotate(270) translate(-36 17)">
    <use xlink:href="#rim"/>
    <path pointer-events="none" fill="none" stroke="white" stroke-width="1.5" d="M0,-3.0v7 M-2.5,-0.5L0,-3.0L2.5,-0.5"/>
  </g>
  <g id="resetDef">
    <use xlink:href="#rim2" fill="#404040"><set attributeName="fill" to="#808080" begin="reset.mouseover" end="reset.mouseout"/></use>
  </g>
</defs>
<script type="application/ecmascript">
var viewWidth = 1145;
var viewHeight = 269;
var sectionId = 'dynsection-0';
</script>
<script type="application/ecmascript" xlink:href="svg.min.js"/>
<svg id="graph" class="graph">
<g id="viewport">
<title>mpqc/util/misc/string.h</title>
<!-- Node1 -->
<g id="Node000001" class="node">
<title>Node1</title>
<g id="a_Node000001"><a xlink:title=" ">
<polygon fill="#999999" stroke="#666666" points="922,-261 794,-261 794,-242 922,-242 922,-261"/>
<text text-anchor="middle" x="858" y="-249" font-family="FreeSans" font-size="10.00">mpqc/util/misc/string.h</text>
</a>
</g>
</g>
<!-- Node2 -->
<g id="Node000002" class="node">
<title>Node2</title>
<g id="a_Node000002"><a xlink:title=" ">
<polygon fill="#e0e0e0" stroke="#999999" points="232,-206 116,-206 116,-176 232,-176 232,-206"/>
<text text-anchor="start" x="124" y="-194" font-family="FreeSans" font-size="10.00">madness/world/type</text>
<text text-anchor="middle" x="174" y="-183" font-family="FreeSans" font-size="10.00">_traits.h</text>
</a>
</g>
</g>
<!-- Node1&#45;&gt;Node2 -->
<g id="edge1_Node000001_Node000002" class="edge">
<title>Node1&#45;&gt;Node2</title>
<g id="a_edge1_Node000001_Node000002"><a xlink:title=" ">
<path fill="none" stroke="#63b8ff" d="M793.75,-248.7C683.06,-244.98 449.18,-234.4 242.17,-206.03"/>
<polygon fill="#63b8ff" stroke="#63b8ff" points="242.41,-202.53 232.02,-204.62 241.45,-209.46 242.41,-202.53"/>
</a>
</g>
</g>
<!-- Node3 -->
<g id="Node000003" class="node">
<title>Node3</title>
<g id="a_Node000003"><a xlink:href="type__traits_8h.html" target="_top" xlink:title=" ">
<polygon fill="white" stroke="#666666" points="366,-206 250,-206 250,-176 366,-176 366,-206"/>
<text text-anchor="start" x="258" y="-194" font-family="FreeSans" font-size="10.00">mpqc/util/meta/type</text>
<text text-anchor="middle" x="308" y="-183" font-family="FreeSans" font-size="10.00">_traits.h</text>
</a>
</g>
</g>
<!-- Node1&#45;&gt;Node3 -->
<g id="edge2_Node000001_Node000003" class="edge">
<title>Node1&#45;&gt;Node3</title>
<g id="a_edge2_Node000001_Node000003"><a xlink:title=" ">
<path fill="none" stroke="#63b8ff" d="M793.83,-243.67C689.38,-232.56 483.51,-210.67 376.4,-199.27"/>
<polygon fill="#63b8ff" stroke="#63b8ff" points="376.66,-195.78 366.34,-198.21 375.92,-202.74 376.66,-195.78"/>
</a>
</g>
</g>
<!-- Node9 -->
<g id="Node000009" class="node">
<title>Node9</title>
<g id="a_Node000009"><a xlink:href="assert_8h.html" target="_top" xlink:title=" ">
<polygon fill="white" stroke="#666666" points="745.5,-200.5 614.5,-200.5 614.5,-181.5 745.5,-181.5 745.5,-200.5"/>
<text text-anchor="middle" x="680" y="-188.5" font-family="FreeSans" font-size="10.00">mpqc/util/misc/assert.h</text>
</a>
</g>
</g>
<!-- Node1&#45;&gt;Node9 -->
<g id="edge10_Node000001_Node000009" class="edge">
<title>Node1&#45;&gt;Node9</title>
<g id="a_edge10_Node000001_Node000009"><a xlink:title=" ">
<path fill="none" stroke="#63b8ff" d="M832.12,-241.99C801.4,-231.9 750.02,-215.01 715.58,-203.69"/>
<polygon fill="#63b8ff" stroke="#63b8ff" points="716.51,-200.31 705.91,-200.52 714.32,-206.96 716.51,-200.31"/>
</a>
</g>
</g>
<!-- Node15 -->
<g id="Node000015" class="node">
<title>Node15</title>
<g id="a_Node000015"><a xlink:title=" ">
<polygon fill="#e0e0e0" stroke="#999999" points="886,-74 830,-74 830,-55 886,-55 886,-74"/>
<text text-anchor="middle" x="858" y="-62" font-family="FreeSans" font-size="10.00">sstream</text>
</a>
</g>
</g>
<!-- Node1&#45;&gt;Node15 -->
<g id="edge25_Node000001_Node000015" class="edge">
<title>Node1&#45;&gt;Node15</title>
<g id="a_edge25_Node000001_Node000015"><a xlink:title=" ">
<path fill="none" stroke="#63b8ff" d="M858,-241.58C858,-213.07 858,-123.74 858,-84.41"/>
<polygon fill="#63b8ff" stroke="#63b8ff" points="861.5,-84.33 858,-74.33 854.5,-84.33 861.5,-84.33"/>
</a>
</g>
</g>
<!-- Node19 -->
<g id="Node000019" class="node">
<title>Node19</title>
<g id="a_Node000019"><a xlink:title=" ">
<polygon fill="#e0e0e0" stroke="#999999" points="802,-19 758,-19 758,0 802,0 802,-19"/>
<text text-anchor="middle" x="780" y="-7" font-family="FreeSans" font-size="10.00">string</text>
</a>
</g>
</g>
<!-- Node1&#45;&gt;Node19 -->
<g id="edge26_Node000001_Node000019" class="edge">
<title>Node1&#45;&gt;Node19</title>
<g id="a_edge26_Node000001_Node000019"><a xlink:title=" ">
<path fill="none" stroke="#63b8ff" d="M863.77,-241.78C882.35,-212.52 936.98,-116.26 895,-55 876.62,-28.19 839.59,-17.52 812.49,-13.29"/>
<polygon fill="#63b8ff" stroke="#63b8ff" points="812.67,-9.78 802.3,-11.92 811.74,-16.72 812.67,-9.78"/>
</a>
</g>
</g>
<!-- Node20 -->
<g id="Node000020" class="node">
<title>Node20</title>
<g id="a_Node000020"><a xlink:title=" ">
<polygon fill="#e0e0e0" stroke="#999999" points="1065.5,-206 942.5,-206 942.5,-176 1065.5,-176 1065.5,-206"/>
<text text-anchor="start" x="950.5" y="-194" font-family="FreeSans" font-size="10.00">boost/locale/encoding</text>
<text text-anchor="middle" x="1004" y="-183" font-family="FreeSans" font-size="10.00">_utf.hpp</text>
</a>
</g>
</g>
<!-- Node1&#45;&gt;Node20 -->
<g id="edge23_Node000001_Node000020" class="edge">
<title>Node1&#45;&gt;Node20</title>
<g id="a_edge23_Node000001_Node000020"><a xlink:title=" ">
<path fill="none" stroke="#63b8ff" d="M879.23,-241.99C900.15,-233.61 932.76,-220.55 959.39,-209.87"/>
<polygon fill="#63b8ff" stroke="#63b8ff" points="960.92,-213.03 968.9,-206.06 958.32,-206.53 960.92,-213.03"/>
</a>
</g>
</g>
<!-- Node21 -->
<g id="Node000021" class="node">
<title>Node21</title>
<g id="a_Node000021"><a xlink:title=" ">
<polygon fill="#e0e0e0" stroke="#999999" points="1136.5,-200.5 1083.5,-200.5 1083.5,-181.5 1136.5,-181.5 1136.5,-200.5"/>
<text text-anchor="middle" x="1110" y="-188.5" font-family="FreeSans" font-size="10.00">iterator</text>
</a>
</g>
</g>
<!-- Node1&#45;&gt;Node21 -->
<g id="edge24_Node000001_Node000021" class="edge">
<title>Node1&#45;&gt;Node21</title>
<g id="a_edge24_Node000001_Node000021"><a xlink:title=" ">
<path fill="none" stroke="#63b8ff" d="M911.88,-241.99C955.95,-234.41 1019.65,-222.04 1074,-206 1075.93,-205.43 1077.9,-204.8 1079.88,-204.14"/>
<polygon fill="#63b8ff" stroke="#63b8ff" points="1081.43,-207.3 1089.65,-200.6 1079.05,-200.71 1081.43,-207.3"/>
</a>
</g>
</g>
<!-- Node4 -->
<g id="Node000004" class="node">
<title>Node4</title>
<g id="a_Node000004"><a xlink:title=" ">
<polygon fill="#e0e0e0" stroke="#999999" points="42,-134.5 0,-134.5 0,-115.5 42,-115.5 42,-134.5"/>
<text text-anchor="middle" x="21" y="-122.5" font-family="FreeSans" font-size="10.00">array</text>
</a>
</g>
</g>
<!-- Node3&#45;&gt;Node4 -->
<g id="edge3_Node000003_Node000004" class="edge">
<title>Node3&#45;&gt;Node4</title>
<g id="a_edge3_Node000003_Node000004"><a xlink:title=" ">
<path fill="none" stroke="#63b8ff" d="M249.91,-177.81C246.89,-177.19 243.91,-176.59 241,-176 158.89,-159.43 136.35,-163.66 56,-140 54.07,-139.43 52.1,-138.8 50.12,-138.12"/>
<polygon fill="#63b8ff" stroke="#63b8ff" points="50.99,-134.71 40.39,-134.51 48.55,-141.27 50.99,-134.71"/>
</a>
</g>
</g>
<!-- Node5 -->
<g id="Node000005" class="node">
<title>Node5</title>
<g id="a_Node000005"><a xlink:title=" ">
<polygon fill="#e0e0e0" stroke="#999999" points="180,-74 130,-74 130,-55 180,-55 180,-74"/>
<text text-anchor="middle" x="155" y="-62" font-family="FreeSans" font-size="10.00">atomic</text>
</a>
</g>
</g>
<!-- Node3&#45;&gt;Node5 -->
<g id="edge4_Node000003_Node000005" class="edge">
<title>Node3&#45;&gt;Node5</title>
<g id="a_edge4_Node000003_Node000005"><a xlink:title=" ">
<path fill="none" stroke="#63b8ff" d="M249.92,-177.66C185.91,-163.92 91.56,-143.22 89,-140 80.69,-129.58 82.74,-121.77 89,-110 96.31,-96.25 109.97,-85.99 122.97,-78.8"/>
<polygon fill="#63b8ff" stroke="#63b8ff" points="124.89,-81.75 132.22,-74.11 121.72,-75.51 124.89,-81.75"/>
</a>
</g>
</g>
<!-- Node6 -->
<g id="Node000006" class="node">
<title>Node6</title>
<g id="a_Node000006"><a xlink:title=" ">
<polygon fill="#e0e0e0" stroke="#999999" points="167.5,-134.5 98.5,-134.5 98.5,-115.5 167.5,-115.5 167.5,-134.5"/>
<text text-anchor="middle" x="133" y="-122.5" font-family="FreeSans" font-size="10.00">type_traits</text>
</a>
</g>
</g>
<!-- Node3&#45;&gt;Node6 -->
<g id="edge5_Node000003_Node000006" class="edge">
<title>Node3&#45;&gt;Node6</title>
<g id="a_edge5_Node000003_Node000006"><a xlink:title=" ">
<path fill="none" stroke="#63b8ff" d="M269.6,-175.95C238.5,-164.58 195.17,-148.74 165.71,-137.96"/>
<polygon fill="#63b8ff" stroke="#63b8ff" points="166.88,-134.66 156.29,-134.52 164.48,-141.24 166.88,-134.66"/>
</a>
</g>
</g>
<!-- Node7 -->
<g id="Node000007" class="node">
<title>Node7</title>
<g id="a_Node000007"><a xlink:href="atomic_8h.html" target="_top" xlink:title=" ">
<polygon fill="white" stroke="#666666" points="292,-140 186,-140 186,-110 292,-110 292,-140"/>
<text text-anchor="start" x="194" y="-128" font-family="FreeSans" font-size="10.00">mpqc/util/external</text>
<text text-anchor="middle" x="239" y="-117" font-family="FreeSans" font-size="10.00">/c++/atomic.h</text>
</a>
</g>
</g>
<!-- Node3&#45;&gt;Node7 -->
<g id="edge6_Node000003_Node000007" class="edge">
<title>Node3&#45;&gt;Node7</title>
<g id="a_edge6_Node000003_Node000007"><a xlink:title=" ">
<path fill="none" stroke="#63b8ff" d="M292.69,-175.8C283.57,-167.34 271.84,-156.46 261.67,-147.03"/>
<polygon fill="#63b8ff" stroke="#63b8ff" points="263.98,-144.4 254.27,-140.16 259.22,-149.53 263.98,-144.4"/>
</a>
</g>
</g>
<!-- Node8 -->
<g id="Node000008" class="node">
<title>Node8</title>
<g id="a_Node000008"><a xlink:href="sfinae_8h.html" target="_top" xlink:title=" ">
<polygon fill="white" stroke="#666666" points="442,-134.5 310,-134.5 310,-115.5 442,-115.5 442,-134.5"/>
<text text-anchor="middle" x="376" y="-122.5" font-family="FreeSans" font-size="10.00">mpqc/util/meta/sfinae.h</text>
</a>
</g>
</g>
<!-- Node3&#45;&gt;Node8 -->
<g id="edge8_Node000003_Node000008" class="edge">
<title>Node3&#45;&gt;Node8</title>
<g id="a_edge8_Node000003_Node000008"><a xlink:title=" ">
<path fill="none" stroke="#63b8ff" d="M317.37,-175.8C326.95,-165.53 341.64,-151.67 354.03,-141.18"/>
<polygon fill="#63b8ff" stroke="#63b8ff" points="356.25,-143.89 361.77,-134.84 351.81,-138.47 356.25,-143.89"/>
</a>
</g>
</g>
<!-- Node7&#45;&gt;Node5 -->
<g id="edge7_Node000007_Node000005" class="edge">
<title>Node7&#45;&gt;Node5</title>
<g id="a_edge7_Node000007_Node000005"><a xlink:title=" ">
<path fill="none" stroke="#63b8ff" d="M218.67,-109.84C205.73,-100.83 189.01,-89.18 175.95,-80.09"/>
<polygon fill="#63b8ff" stroke="#63b8ff" points="177.79,-77.11 167.59,-74.27 173.79,-82.85 177.79,-77.11"/>
</a>
</g>
</g>
<!-- Node8&#45;&gt;Node3 -->
<g id="edge9_Node000008_Node000003" class="edge">
<title>Node8&#45;&gt;Node3</title>
<g id="a_edge9_Node000008_Node000003"><a xlink:title=" ">
<path fill="none" stroke="#63b8ff" d="M371.44,-134.84C363.89,-143.69 349.6,-157.61 336.4,-169.26"/>
<polygon fill="#63b8ff" stroke="#63b8ff" points="334.1,-166.62 328.81,-175.8 338.67,-171.92 334.1,-166.62"/>
</a>
</g>
</g>
<!-- Node10 -->
<g id="Node000010" class="node">
<title>Node10</title>
<g id="a_Node000010"><a xlink:title=" ">
<polygon fill="#e0e0e0" stroke="#999999" points="577.5,-134.5 460.5,-134.5 460.5,-115.5 577.5,-115.5 577.5,-134.5"/>
<text text-anchor="middle" x="519" y="-122.5" font-family="FreeSans" font-size="10.00">mpqc/mpqc_config.h</text>
</a>
</g>
</g>
<!-- Node9&#45;&gt;Node10 -->
<g id="edge11_Node000009_Node000010" class="edge">
<title>Node9&#45;&gt;Node10</title>
<g id="a_edge11_Node000009_Node000010"><a xlink:title=" ">
<path fill="none" stroke="#63b8ff" d="M658.29,-181.37C630.48,-170.32 582.1,-151.08 550.32,-138.45"/>
<polygon fill="#63b8ff" stroke="#63b8ff" points="551.21,-135.04 540.63,-134.6 548.63,-141.54 551.21,-135.04"/>
</a>
</g>
</g>
<!-- Node11 -->
<g id="Node000011" class="node">
<title>Node11</title>
<g id="a_Node000011"><a xlink:title=" ">
<polygon fill="#e0e0e0" stroke="#999999" points="648,-134.5 596,-134.5 596,-115.5 648,-115.5 648,-134.5"/>
<text text-anchor="middle" x="622" y="-122.5" font-family="FreeSans" font-size="10.00">cassert</text>
</a>
</g>
</g>
<!-- Node9&#45;&gt;Node11 -->
<g id="edge12_Node000009_Node000011" class="edge">
<title>Node9&#45;&gt;Node11</title>
<g id="a_edge12_Node000009_Node000011"><a xlink:title=" ">
<path fill="none" stroke="#63b8ff" d="M672.18,-181.37C663.15,-171.4 648.09,-154.79 636.83,-142.36"/>
<polygon fill="#63b8ff" stroke="#63b8ff" points="639.38,-139.96 630.07,-134.91 634.19,-144.67 639.38,-139.96"/>
</a>
</g>
</g>
<!-- Node12 -->
<g id="Node000012" class="node">
<title>Node12</title>
<g id="a_Node000012"><a xlink:href="exception_8h.html" target="_top" xlink:title=" ">
<polygon fill="white" stroke="#666666" points="812,-134.5 666,-134.5 666,-115.5 812,-115.5 812,-134.5"/>
<text text-anchor="middle" x="739" y="-122.5" font-family="FreeSans" font-size="10.00">mpqc/util/core/exception.h</text>
</a>
</g>
</g>
<!-- Node9&#45;&gt;Node12 -->
<g id="edge13_Node000009_Node000012" class="edge">
<title>Node9&#45;&gt;Node12</title>
<g id="a_edge13_Node000009_Node000012"><a xlink:title=" ">
<path fill="none" stroke="#63b8ff" d="M687.96,-181.37C697.14,-171.4 712.46,-154.79 723.92,-142.36"/>
<polygon fill="#63b8ff" stroke="#63b8ff" points="726.59,-144.63 730.79,-134.91 721.44,-139.89 726.59,-144.63"/>
</a>
</g>
</g>
<!-- Node13 -->
<g id="Node000013" class="node">
<title>Node13</title>
<g id="a_Node000013"><a xlink:title=" ">
<polygon fill="#e0e0e0" stroke="#999999" points="431.5,-74 378.5,-74 378.5,-55 431.5,-55 431.5,-74"/>
<text text-anchor="middle" x="405" y="-62" font-family="FreeSans" font-size="10.00">string.h</text>
</a>
</g>
</g>
<!-- Node12&#45;&gt;Node13 -->
<g id="edge14_Node000012_Node000013" class="edge">
<title>Node12&#45;&gt;Node13</title>
<g id="a_edge14_Node000012_Node000013"><a xlink:title=" ">
<path fill="none" stroke="#63b8ff" d="M689.14,-115.45C678.53,-113.65 667.4,-111.75 657,-110 564.12,-94.33 538.07,-93.25 441.57,-74"/>
<polygon fill="#63b8ff" stroke="#63b8ff" points="442.19,-70.55 431.69,-72.01 440.81,-77.41 442.19,-70.55"/>
</a>
</g>
</g>
<!-- Node14 -->
<g id="Node000014" class="node">
<title>Node14</title>
<g id="a_Node000014"><a xlink:href="memory.html" target="_top" xlink:title=" ">
<polygon fill="white" stroke="#666666" points="508,-74 450,-74 450,-55 508,-55 508,-74"/>
<text text-anchor="middle" x="479" y="-62" font-family="FreeSans" font-size="10.00">memory</text>
</a>
</g>
</g>
<!-- Node12&#45;&gt;Node14 -->
<g id="edge15_Node000012_Node000014" class="edge">
<title>Node12&#45;&gt;Node14</title>
<g id="a_edge15_Node000012_Node000014"><a xlink:title=" ">
<path fill="none" stroke="#63b8ff" d="M701.19,-115.49C652.28,-104.49 567.49,-85.41 518,-74.28"/>
<polygon fill="#63b8ff" stroke="#63b8ff" points="518.53,-70.81 508,-72.03 516.99,-77.64 518.53,-70.81"/>
</a>
</g>
</g>
<!-- Node12&#45;&gt;Node15 -->
<g id="edge17_Node000012_Node000015" class="edge">
<title>Node12&#45;&gt;Node15</title>
<g id="a_edge17_Node000012_Node000015"><a xlink:title=" ">
<path fill="none" stroke="#63b8ff" d="M756.3,-115.49C776.05,-105.79 808.55,-89.81 831.49,-78.53"/>
<polygon fill="#63b8ff" stroke="#63b8ff" points="833.25,-81.57 840.68,-74.02 830.16,-75.29 833.25,-81.57"/>
</a>
</g>
</g>
<!-- Node16 -->
<g id="Node000016" class="node">
<title>Node16</title>
<g id="a_Node000016"><a xlink:title=" ">
<polygon fill="#e0e0e0" stroke="#999999" points="609.5,-74 544.5,-74 544.5,-55 609.5,-55 609.5,-74"/>
<text text-anchor="middle" x="577" y="-62" font-family="FreeSans" font-size="10.00">stdexcept</text>
</a>
</g>
</g>
<!-- Node12&#45;&gt;Node16 -->
<g id="edge18_Node000012_Node000016" class="edge">
<title>Node12&#45;&gt;Node16</title>
<g id="a_edge18_Node000012_Node000016"><a xlink:title=" ">
<path fill="none" stroke="#63b8ff" d="M715.44,-115.49C687.73,-105.49 641.53,-88.8 610.19,-77.49"/>
<polygon fill="#63b8ff" stroke="#63b8ff" points="611.18,-74.12 600.58,-74.02 608.8,-80.71 611.18,-74.12"/>
</a>
</g>
</g>
<!-- Node17 -->
<g id="Node000017" class="node">
<title>Node17</title>
<g id="a_Node000017"><a xlink:title=" ">
<polygon fill="#e0e0e0" stroke="#999999" points="721.5,-19 674.5,-19 674.5,0 721.5,0 721.5,-19"/>
<text text-anchor="middle" x="698" y="-7" font-family="FreeSans" font-size="10.00">vector</text>
</a>
</g>
</g>
<!-- Node12&#45;&gt;Node17 -->
<g id="edge19_Node000012_Node000017" class="edge">
<title>Node12&#45;&gt;Node17</title>
<g id="a_edge19_Node000012_Node000017"><a xlink:title=" ">
<path fill="none" stroke="#63b8ff" d="M711.6,-115.37C692.55,-107.77 668.59,-94.65 657,-74 647.41,-56.91 662.96,-38.15 677.58,-25.48"/>
<polygon fill="#63b8ff" stroke="#63b8ff" points="679.87,-28.13 685.45,-19.12 675.47,-22.69 679.87,-28.13"/>
</a>
</g>
</g>
<!-- Node18 -->
<g id="Node000018" class="node">
<title>Node18</title>
<g id="a_Node000018"><a xlink:href="backtrace_8h.html" target="_top" xlink:title=" ">
<polygon fill="white" stroke="#666666" points="812,-74 666,-74 666,-55 812,-55 812,-74"/>
<text text-anchor="middle" x="739" y="-62" font-family="FreeSans" font-size="10.00">mpqc/util/core/backtrace.h</text>
</a>
</g>
</g>
<!-- Node12&#45;&gt;Node18 -->
<g id="edge20_Node000012_Node000018" class="edge">
<title>Node12&#45;&gt;Node18</title>
<g id="a_edge20_Node000012_Node000018"><a xlink:title=" ">
<path fill="none" stroke="#63b8ff" d="M739,-115.37C739,-107.25 739,-94.81 739,-84.39"/>
<polygon fill="#63b8ff" stroke="#63b8ff" points="742.5,-84.17 739,-74.17 735.5,-84.17 742.5,-84.17"/>
</a>
</g>
</g>
<!-- Node14&#45;&gt;Node14 -->
<g id="edge16_Node000014_Node000014" class="edge">
<title>Node14&#45;&gt;Node14</title>
<g id="a_edge16_Node000014_Node000014"><a xlink:title=" ">
<path fill="none" stroke="#63b8ff" d="M501.24,-74.07C514.06,-76.02 526,-72.83 526,-64.5 526,-58.45 519.7,-55.11 511.34,-54.48"/>
<polygon fill="#63b8ff" stroke="#63b8ff" points="511.08,-50.99 501.24,-54.93 511.39,-57.98 511.08,-50.99"/>
</a>
</g>
</g>
<!-- Node18&#45;&gt;Node17 -->
<g id="edge22_Node000018_Node000017" class="edge">
<title>Node18&#45;&gt;Node17</title>
<g id="a_edge22_Node000018_Node000017"><a xlink:title=" ">
<path fill="none" stroke="#63b8ff" d="M732.23,-54.75C726.44,-47.26 717.94,-36.28 710.86,-27.13"/>
<polygon fill="#63b8ff" stroke="#63b8ff" points="713.53,-24.86 704.64,-19.09 707.99,-29.14 713.53,-24.86"/>
</a>
</g>
</g>
<!-- Node18&#45;&gt;Node19 -->
<g id="edge21_Node000018_Node000019" class="edge">
<title>Node18&#45;&gt;Node19</title>
<g id="a_edge21_Node000018_Node000019"><a xlink:title=" ">
<path fill="none" stroke="#63b8ff" d="M745.77,-54.75C751.56,-47.26 760.06,-36.28 767.14,-27.13"/>
<polygon fill="#63b8ff" stroke="#63b8ff" points="770.01,-29.14 773.36,-19.09 764.47,-24.86 770.01,-29.14"/>
</a>
</g>
</g>
</g>
</svg>

<g id="navigator" transform="translate(0 0)" fill="#404254">
  <rect fill="#f2f5e9" fill-opacity="0.5" stroke="#606060" stroke-width=".5" x="0" y="0" width="60" height="60"/>
  <use id="zoomplus" xlink:href="#zoomPlus" x="17" y="9" onmousedown="handleZoom(evt,'in')"/>
  <use id="zoomminus" xlink:href="#zoomMin" x="42" y="9" onmousedown="handleZoom(evt,'out')"/>
  <use id="reset" xlink:href="#resetDef" x="30" y="36" onmousedown="handleReset()"/>
   <use id="arrowup" xlink:href="#arrowUp" x="0" y="0" onmousedown="handlePan(0,-1)"/>
  <use id="arrowright" xlink:href="#arrowRight" x="0" y="0" onmousedown="handlePan(1,0)"/>
  <use id="arrowdown" xlink:href="#arrowDown" x="0" y="0" onmousedown="handlePan(0,1)"/>
  <use id="arrowleft" xlink:href="#arrowLeft" x="0" y="0" onmousedown="handlePan(-1,0)"/>
</g>
<svg viewBox="0 0 15 15" width="100%" height="30px" preserveAspectRatio="xMaxYMin meet">
 <g id="arrow_out" transform="scale(0.3 0.3)">
  <a xlink:href="util_2misc_2string_8h__incl_org.svg" target="_base">
   <rect id="button" ry="5" rx="5" y="6" x="6" height="38" width="38"
        fill="#f2f5e9" fill-opacity="0.5" stroke="#606060" stroke-width="1.0"/>
   <path id="arrow"
     d="M 11.500037,31.436501 C 11.940474,20.09759 22.043105,11.32322 32.158766,21.979434 L 37.068811,17.246167 C 37.068811,17.246167 37.088388,32 37.088388,32 L 22.160133,31.978069 C 22.160133,31.978069 26.997745,27.140456 26.997745,27.140456 C 18.528582,18.264221 13.291696,25.230495 11.500037,31.436501 z"
     style="fill:#404040;"/>
  </a>
 </g>
</svg>

<style type='text/css'>
<![CDATA[
[data-mouse-over-selected='false'] { opacity: 0.7; }
[data-mouse-over-selected='true']  { opacity: 1.0; }
]]>
</style>
<script type="application/ecmascript"><![CDATA[
document.addEventListener('DOMContentLoaded', (event) => {
  highlightEdges();
  highlightAdjacentNodes();
});
]]></script>
</svg>
