<?xml version="1.0" encoding="UTF-8" standalone="no"?>
<!DOCTYPE svg PUBLIC "-//W3C//DTD SVG 1.1//EN"
 "http://www.w3.org/Graphics/SVG/1.1/DTD/svg11.dtd">
<!-- Generated by graphviz version 2.43.0 (0)
 -->
<!-- Title: mpqc/chemistry/qc/lcao/scf/xc_fock_builder.ipp Pages: 1 -->
<svg width="307pt" height="302pt"
 viewBox="0.00 0.00 307.18 302.00" xmlns="http://www.w3.org/2000/svg" xmlns:xlink="http://www.w3.org/1999/xlink">
<g id="graph0" class="graph" transform="scale(1 1) rotate(0) translate(4 298)">
<title>mpqc/chemistry/qc/lcao/scf/xc_fock_builder.ipp</title>
<!-- Node1 -->
<g id="Node000001" class="node">
<title>Node1</title>
<g id="a_Node000001"><a xlink:title=" ">
<polygon fill="#999999" stroke="#666666" points="223.18,-294 90.18,-294 90.18,-264 223.18,-264 223.18,-294"/>
<text text-anchor="start" x="98.18" y="-282" font-family="FreeSans" font-size="10.00">mpqc/chemistry/qc/lcao</text>
<text text-anchor="middle" x="156.68" y="-271" font-family="FreeSans" font-size="10.00">/scf/xc_fock_builder.ipp</text>
</a>
</g>
</g>
<!-- Node2 -->
<g id="Node000002" class="node">
<title>Node2</title>
<g id="a_Node000002"><a xlink:href="ks__fock__builder_8h.html" target="_top" xlink:title=" ">
<polygon fill="white" stroke="#666666" points="176.18,-162 43.18,-162 43.18,-132 176.18,-132 176.18,-162"/>
<text text-anchor="start" x="51.18" y="-150" font-family="FreeSans" font-size="10.00">mpqc/chemistry/qc/lcao</text>
<text text-anchor="middle" x="109.68" y="-139" font-family="FreeSans" font-size="10.00">/scf/ks_fock_builder.h</text>
</a>
</g>
</g>
<!-- Node1&#45;&gt;Node2 -->
<g id="edge1_Node000001_Node000002" class="edge">
<title>Node1&#45;&gt;Node2</title>
<g id="a_edge1_Node000001_Node000002"><a xlink:title=" ">
<path fill="none" stroke="#63b8ff" d="M80.26,-271.23C52.14,-264.59 22.96,-251.93 5.68,-228 -15.06,-199.28 27.76,-175.94 64.59,-162.03"/>
<polygon fill="#63b8ff" stroke="#63b8ff" points="79.64,-274.67 90.15,-273.33 81.09,-267.83 79.64,-274.67"/>
</a>
</g>
</g>
<!-- Node5 -->
<g id="Node000005" class="node">
<title>Node5</title>
<g id="a_Node000005"><a xlink:href="xc__fock__builder_8cpp.html" target="_top" xlink:title=" ">
<polygon fill="white" stroke="#666666" points="148.18,-228 15.18,-228 15.18,-198 148.18,-198 148.18,-228"/>
<text text-anchor="start" x="23.18" y="-216" font-family="FreeSans" font-size="10.00">mpqc/chemistry/qc/lcao</text>
<text text-anchor="middle" x="81.68" y="-205" font-family="FreeSans" font-size="10.00">/scf/xc_fock_builder.cpp</text>
</a>
</g>
</g>
<!-- Node1&#45;&gt;Node5 -->
<g id="edge4_Node000001_Node000005" class="edge">
<title>Node1&#45;&gt;Node5</title>
<g id="a_edge4_Node000001_Node000005"><a xlink:title=" ">
<path fill="none" stroke="#63b8ff" d="M132.3,-257.2C121.17,-247.7 108.27,-236.69 98.27,-228.16"/>
<polygon fill="#63b8ff" stroke="#63b8ff" points="130.15,-259.97 140.03,-263.8 134.7,-254.64 130.15,-259.97"/>
</a>
</g>
</g>
<!-- Node6 -->
<g id="Node000006" class="node">
<title>Node6</title>
<g id="a_Node000006"><a xlink:href="xc__fock__builder_8h.html" target="_top" xlink:title=" ">
<polygon fill="white" stroke="#666666" points="299.18,-228 166.18,-228 166.18,-198 299.18,-198 299.18,-228"/>
<text text-anchor="start" x="174.18" y="-216" font-family="FreeSans" font-size="10.00">mpqc/chemistry/qc/lcao</text>
<text text-anchor="middle" x="232.68" y="-205" font-family="FreeSans" font-size="10.00">/scf/xc_fock_builder.h</text>
</a>
</g>
</g>
<!-- Node1&#45;&gt;Node6 -->
<g id="edge5_Node000001_Node000006" class="edge">
<title>Node1&#45;&gt;Node6</title>
<g id="a_edge5_Node000001_Node000006"><a xlink:title=" ">
<path fill="none" stroke="#63b8ff" d="M175.32,-256.92C185.87,-247.49 199.02,-236.61 210.14,-228.16"/>
<polygon fill="#63b8ff" stroke="#63b8ff" points="172.83,-254.46 167.82,-263.8 177.56,-259.62 172.83,-254.46"/>
</a>
</g>
</g>
<!-- Node3 -->
<g id="Node000003" class="node">
<title>Node3</title>
<g id="a_Node000003"><a xlink:href="ks__fock__builder_8ipp.html" target="_top" xlink:title=" ">
<polygon fill="white" stroke="#666666" points="176.18,-96 43.18,-96 43.18,-66 176.18,-66 176.18,-96"/>
<text text-anchor="start" x="51.18" y="-84" font-family="FreeSans" font-size="10.00">mpqc/chemistry/qc/lcao</text>
<text text-anchor="middle" x="109.68" y="-73" font-family="FreeSans" font-size="10.00">/scf/ks_fock_builder.ipp</text>
</a>
</g>
</g>
<!-- Node2&#45;&gt;Node3 -->
<g id="edge2_Node000002_Node000003" class="edge">
<title>Node2&#45;&gt;Node3</title>
<g id="a_edge2_Node000002_Node000003"><a xlink:title=" ">
<path fill="none" stroke="#63b8ff" d="M109.68,-121.54C109.68,-112.96 109.68,-103.61 109.68,-96.16"/>
<polygon fill="#63b8ff" stroke="#63b8ff" points="106.18,-121.8 109.68,-131.8 113.18,-121.8 106.18,-121.8"/>
</a>
</g>
</g>
<!-- Node4 -->
<g id="Node000004" class="node">
<title>Node4</title>
<g id="a_Node000004"><a xlink:href="ks__fock__builder_8cpp.html" target="_top" xlink:title=" ">
<polygon fill="white" stroke="#666666" points="176.18,-30 43.18,-30 43.18,0 176.18,0 176.18,-30"/>
<text text-anchor="start" x="51.18" y="-18" font-family="FreeSans" font-size="10.00">mpqc/chemistry/qc/lcao</text>
<text text-anchor="middle" x="109.68" y="-7" font-family="FreeSans" font-size="10.00">/scf/ks_fock_builder.cpp</text>
</a>
</g>
</g>
<!-- Node3&#45;&gt;Node4 -->
<g id="edge3_Node000003_Node000004" class="edge">
<title>Node3&#45;&gt;Node4</title>
<g id="a_edge3_Node000003_Node000004"><a xlink:title=" ">
<path fill="none" stroke="#63b8ff" d="M109.68,-55.54C109.68,-46.96 109.68,-37.61 109.68,-30.16"/>
<polygon fill="#63b8ff" stroke="#63b8ff" points="106.18,-55.8 109.68,-65.8 113.18,-55.8 106.18,-55.8"/>
</a>
</g>
</g>
<!-- Node6&#45;&gt;Node1 -->
<g id="edge7_Node000006_Node000001" class="edge">
<title>Node6&#45;&gt;Node1</title>
<g id="a_edge7_Node000006_Node000001"><a xlink:title=" ">
<path fill="none" stroke="#63b8ff" d="M214.09,-235.03C203.54,-244.46 190.39,-255.34 179.26,-263.8"/>
<polygon fill="#63b8ff" stroke="#63b8ff" points="216.57,-237.5 221.57,-228.16 211.84,-232.35 216.57,-237.5"/>
</a>
</g>
</g>
<!-- Node6&#45;&gt;Node2 -->
<g id="edge6_Node000006_Node000002" class="edge">
<title>Node6&#45;&gt;Node2</title>
<g id="a_edge6_Node000006_Node000002"><a xlink:title=" ">
<path fill="none" stroke="#63b8ff" d="M196.62,-193.24C177.43,-183.25 154.22,-171.18 136.61,-162.01"/>
<polygon fill="#63b8ff" stroke="#63b8ff" points="195.2,-196.44 205.68,-197.95 198.43,-190.23 195.2,-196.44"/>
</a>
</g>
</g>
</g>
</svg>
